<svg version="1.1" xmlns="http://www.w3.org/2000/svg" xmlns:xlink="http://www.w3.org/1999/xlink" width="800" height="800"><defs/><g transform="scale(2,2)"><g id="background-d98090fe"><rect fill="white" stroke="none" x="0" y="0" width="400" height="400" class="dcg-svg-background"/></g><g id="graphpaper-d98090fe"><g id="grid-d98090fe"><g><path fill="none" stroke="rgb(0,0,0)" class="dcg-svg-minor-gridline" paint-order="fill stroke markers" d=" M 6.5 0 L 6.5 400" stroke-opacity="0.2" stroke-miterlimit="10" stroke-dasharray=""/><path fill="none" stroke="rgb(0,0,0)" class="dcg-svg-minor-gridline" paint-order="fill stroke markers" d=" M 26.5 0 L 26.5 400" stroke-opacity="0.2" stroke-miterlimit="10" stroke-dasharray=""/><path fill="none" stroke="rgb(0,0,0)" class="dcg-svg-minor-gridline" paint-order="fill stroke markers" d=" M 46.5 0 L 46.5 400" stroke-opacity="0.2" stroke-miterlimit="10" stroke-dasharray=""/><path fill="none" stroke="rgb(0,0,0)" class="dcg-svg-minor-gridline" paint-order="fill stroke markers" d=" M 66.5 0 L 66.5 400" stroke-opacity="0.2" stroke-miterlimit="10" stroke-dasharray=""/><path fill="none" stroke="rgb(0,0,0)" class="dcg-svg-minor-gridline" paint-order="fill stroke markers" d=" M 86.5 0 L 86.5 400" stroke-opacity="0.2" stroke-miterlimit="10" stroke-dasharray=""/><path fill="none" stroke="rgb(0,0,0)" class="dcg-svg-minor-gridline" paint-order="fill stroke markers" d=" M 106.5 0 L 106.5 400" stroke-opacity="0.2" stroke-miterlimit="10" stroke-dasharray=""/><path fill="none" stroke="rgb(0,0,0)" class="dcg-svg-minor-gridline" paint-order="fill stroke markers" d=" M 126.5 0 L 126.5 400" stroke-opacity="0.2" stroke-miterlimit="10" stroke-dasharray=""/><path fill="none" stroke="rgb(0,0,0)" class="dcg-svg-minor-gridline" paint-order="fill stroke markers" d=" M 146.5 0 L 146.5 400" stroke-opacity="0.2" stroke-miterlimit="10" stroke-dasharray=""/><path fill="none" stroke="rgb(0,0,0)" class="dcg-svg-minor-gridline" paint-order="fill stroke markers" d=" M 166.5 0 L 166.5 400" stroke-opacity="0.2" stroke-miterlimit="10" stroke-dasharray=""/><path fill="none" stroke="rgb(0,0,0)" class="dcg-svg-minor-gridline" paint-order="fill stroke markers" d=" M 206.5 0 L 206.5 400" stroke-opacity="0.2" stroke-miterlimit="10" stroke-dasharray=""/><path fill="none" stroke="rgb(0,0,0)" class="dcg-svg-minor-gridline" paint-order="fill stroke markers" d=" M 226.5 0 L 226.5 400" stroke-opacity="0.2" stroke-miterlimit="10" stroke-dasharray=""/><path fill="none" stroke="rgb(0,0,0)" class="dcg-svg-minor-gridline" paint-order="fill stroke markers" d=" M 246.5 0 L 246.5 400" stroke-opacity="0.2" stroke-miterlimit="10" stroke-dasharray=""/><path fill="none" stroke="rgb(0,0,0)" class="dcg-svg-minor-gridline" paint-order="fill stroke markers" d=" M 266.5 0 L 266.5 400" stroke-opacity="0.2" stroke-miterlimit="10" stroke-dasharray=""/><path fill="none" stroke="rgb(0,0,0)" class="dcg-svg-minor-gridline" paint-order="fill stroke markers" d=" M 286.5 0 L 286.5 400" stroke-opacity="0.2" stroke-miterlimit="10" stroke-dasharray=""/><path fill="none" stroke="rgb(0,0,0)" class="dcg-svg-minor-gridline" paint-order="fill stroke markers" d=" M 306.5 0 L 306.5 400" stroke-opacity="0.2" stroke-miterlimit="10" stroke-dasharray=""/><path fill="none" stroke="rgb(0,0,0)" class="dcg-svg-minor-gridline" paint-order="fill stroke markers" d=" M 326.5 0 L 326.5 400" stroke-opacity="0.2" stroke-miterlimit="10" stroke-dasharray=""/><path fill="none" stroke="rgb(0,0,0)" class="dcg-svg-minor-gridline" paint-order="fill stroke markers" d=" M 346.5 0 L 346.5 400" stroke-opacity="0.2" stroke-miterlimit="10" stroke-dasharray=""/><path fill="none" stroke="rgb(0,0,0)" class="dcg-svg-minor-gridline" paint-order="fill stroke markers" d=" M 366.5 0 L 366.5 400" stroke-opacity="0.2" stroke-miterlimit="10" stroke-dasharray=""/><path fill="none" stroke="rgb(0,0,0)" class="dcg-svg-minor-gridline" paint-order="fill stroke markers" d=" M 386.5 0 L 386.5 400" stroke-opacity="0.2" stroke-miterlimit="10" stroke-dasharray=""/><path fill="none" stroke="rgb(0,0,0)" class="dcg-svg-minor-gridline" paint-order="fill stroke markers" d=" M 0 384.5 L 400 384.5" stroke-opacity="0.2" stroke-miterlimit="10" stroke-dasharray=""/><path fill="none" stroke="rgb(0,0,0)" class="dcg-svg-minor-gridline" paint-order="fill stroke markers" d=" M 0 364.5 L 400 364.5" stroke-opacity="0.2" stroke-miterlimit="10" stroke-dasharray=""/><path fill="none" stroke="rgb(0,0,0)" class="dcg-svg-minor-gridline" paint-order="fill stroke markers" d=" M 0 344.5 L 400 344.5" stroke-opacity="0.2" stroke-miterlimit="10" stroke-dasharray=""/><path fill="none" stroke="rgb(0,0,0)" class="dcg-svg-minor-gridline" paint-order="fill stroke markers" d=" M 0 324.5 L 400 324.5" stroke-opacity="0.2" stroke-miterlimit="10" stroke-dasharray=""/><path fill="none" stroke="rgb(0,0,0)" class="dcg-svg-minor-gridline" paint-order="fill stroke markers" d=" M 0 304.5 L 400 304.5" stroke-opacity="0.2" stroke-miterlimit="10" stroke-dasharray=""/><path fill="none" stroke="rgb(0,0,0)" class="dcg-svg-minor-gridline" paint-order="fill stroke markers" d=" M 0 284.5 L 400 284.5" stroke-opacity="0.2" stroke-miterlimit="10" stroke-dasharray=""/><path fill="none" stroke="rgb(0,0,0)" class="dcg-svg-minor-gridline" paint-order="fill stroke markers" d=" M 0 264.5 L 400 264.5" stroke-opacity="0.2" stroke-miterlimit="10" stroke-dasharray=""/><path fill="none" stroke="rgb(0,0,0)" class="dcg-svg-minor-gridline" paint-order="fill stroke markers" d=" M 0 224.5 L 400 224.5" stroke-opacity="0.2" stroke-miterlimit="10" stroke-dasharray=""/><path fill="none" stroke="rgb(0,0,0)" class="dcg-svg-minor-gridline" paint-order="fill stroke markers" d=" M 0 204.5 L 400 204.5" stroke-opacity="0.2" stroke-miterlimit="10" stroke-dasharray=""/><path fill="none" stroke="rgb(0,0,0)" class="dcg-svg-minor-gridline" paint-order="fill stroke markers" d=" M 0 184.5 L 400 184.5" stroke-opacity="0.2" stroke-miterlimit="10" stroke-dasharray=""/><path fill="none" stroke="rgb(0,0,0)" class="dcg-svg-minor-gridline" paint-order="fill stroke markers" d=" M 0 164.5 L 400 164.5" stroke-opacity="0.2" stroke-miterlimit="10" stroke-dasharray=""/><path fill="none" stroke="rgb(0,0,0)" class="dcg-svg-minor-gridline" paint-order="fill stroke markers" d=" M 0 144.5 L 400 144.5" stroke-opacity="0.2" stroke-miterlimit="10" stroke-dasharray=""/><path fill="none" stroke="rgb(0,0,0)" class="dcg-svg-minor-gridline" paint-order="fill stroke markers" d=" M 0 124.5 L 400 124.5" stroke-opacity="0.2" stroke-miterlimit="10" stroke-dasharray=""/><path fill="none" stroke="rgb(0,0,0)" class="dcg-svg-minor-gridline" paint-order="fill stroke markers" d=" M 0 104.5 L 400 104.5" stroke-opacity="0.2" stroke-miterlimit="10" stroke-dasharray=""/><path fill="none" stroke="rgb(0,0,0)" class="dcg-svg-minor-gridline" paint-order="fill stroke markers" d=" M 0 84.5 L 400 84.5" stroke-opacity="0.2" stroke-miterlimit="10" stroke-dasharray=""/><path fill="none" stroke="rgb(0,0,0)" class="dcg-svg-minor-gridline" paint-order="fill stroke markers" d=" M 0 64.5 L 400 64.5" stroke-opacity="0.2" stroke-miterlimit="10" stroke-dasharray=""/><path fill="none" stroke="rgb(0,0,0)" class="dcg-svg-minor-gridline" paint-order="fill stroke markers" d=" M 0 44.5 L 400 44.5" stroke-opacity="0.2" stroke-miterlimit="10" stroke-dasharray=""/><path fill="none" stroke="rgb(0,0,0)" class="dcg-svg-minor-gridline" paint-order="fill stroke markers" d=" M 0 24.5 L 400 24.5" stroke-opacity="0.2" stroke-miterlimit="10" stroke-dasharray=""/><path fill="none" stroke="rgb(0,0,0)" class="dcg-svg-minor-gridline" paint-order="fill stroke markers" d=" M 0 4.5 L 400 4.5" stroke-opacity="0.2" stroke-miterlimit="10" stroke-dasharray=""/><path fill="none" stroke="rgb(0,0,0)" class="dcg-svg-major-gridline" paint-order="fill stroke markers" d=" M 86.5 0 L 86.5 400" stroke-opacity="0.2500000000000001" stroke-miterlimit="10" stroke-dasharray=""/><path fill="none" stroke="rgb(0,0,0)" class="dcg-svg-major-gridline" paint-order="fill stroke markers" d=" M 286.5 0 L 286.5 400" stroke-opacity="0.2500000000000001" stroke-miterlimit="10" stroke-dasharray=""/><path fill="none" stroke="rgb(0,0,0)" class="dcg-svg-major-gridline" paint-order="fill stroke markers" d=" M 386.5 0 L 386.5 400" stroke-opacity="0.2500000000000001" stroke-miterlimit="10" stroke-dasharray=""/><path fill="none" stroke="rgb(0,0,0)" class="dcg-svg-major-gridline" paint-order="fill stroke markers" d=" M 0 344.5 L 400 344.5" stroke-opacity="0.2500000000000001" stroke-miterlimit="10" stroke-dasharray=""/><path fill="none" stroke="rgb(0,0,0)" class="dcg-svg-major-gridline" paint-order="fill stroke markers" d=" M 0 144.5 L 400 144.5" stroke-opacity="0.2500000000000001" stroke-miterlimit="10" stroke-dasharray=""/><path fill="none" stroke="rgb(0,0,0)" class="dcg-svg-major-gridline" paint-order="fill stroke markers" d=" M 0 44.5 L 400 44.5" stroke-opacity="0.2500000000000001" stroke-miterlimit="10" stroke-dasharray=""/></g></g><g id="axis-d98090fe"><g id="yaxis-d98090fe"><title>Y axis</title><g><path fill="none" stroke="rgb(0,0,0)" class="dcg-svg-axis-line" paint-order="fill stroke markers" d=" M 187 0 L 187 400" stroke-opacity="0.9" stroke-miterlimit="10" stroke-width="1.5" stroke-dasharray=""/></g></g><g id="xaxis-d98090fe"><title>X axis</title><g><path fill="none" stroke="rgb(0,0,0)" class="dcg-svg-axis-line" paint-order="fill stroke markers" d=" M 0 244 L 400 244" stroke-opacity="0.9" stroke-miterlimit="10" stroke-width="1.5" stroke-dasharray=""/></g></g><g><g class="dcg-svg-axis-value"><text fill="none" stroke="#ffffff" font-family="Arial" font-size="14px" font-style="normal" font-weight="normal" text-decoration="normal" x="178.0350381689139" y="259.9256470588237" text-anchor="middle" stroke-miterlimit="2" stroke-width="3" stroke-dasharray="">0</text><text fill="#000000" stroke="none" font-family="Arial" font-size="14px" font-style="normal" font-weight="normal" text-decoration="normal" x="178.0350381689139" y="259.9256470588237" text-anchor="middle">0</text></g><g class="dcg-svg-axis-value"><text fill="none" stroke="#ffffff" font-family="Arial" font-size="14px" font-style="normal" font-weight="normal" text-decoration="normal" x="84.5970498876639" y="259.9256470588237" text-anchor="middle" stroke-miterlimit="2" stroke-width="3" stroke-dasharray="">-5</text><text fill="#000000" stroke="none" font-family="Arial" font-size="14px" font-style="normal" font-weight="normal" text-decoration="normal" x="84.5970498876639" y="259.9256470588237" text-anchor="middle">-5</text></g><g class="dcg-svg-axis-value"><text fill="none" stroke="#ffffff" font-family="Arial" font-size="14px" font-style="normal" font-weight="normal" text-decoration="normal" x="286.9281045751639" y="259.9256470588237" text-anchor="middle" stroke-miterlimit="2" stroke-width="3" stroke-dasharray="">5</text><text fill="#000000" stroke="none" font-family="Arial" font-size="14px" font-style="normal" font-weight="normal" text-decoration="normal" x="286.9281045751639" y="259.9256470588237" text-anchor="middle">5</text></g><g class="dcg-svg-axis-value"><text fill="none" stroke="#ffffff" font-family="Arial" font-size="14px" font-style="normal" font-weight="normal" text-decoration="normal" x="386.9281045751639" y="259.9256470588237" text-anchor="middle" stroke-miterlimit="2" stroke-width="3" stroke-dasharray="">10</text><text fill="#000000" stroke="none" font-family="Arial" font-size="14px" font-style="normal" font-weight="normal" text-decoration="normal" x="386.9281045751639" y="259.9256470588237" text-anchor="middle">10</text></g><g class="dcg-svg-axis-value"><text fill="none" stroke="#ffffff" font-family="Arial" font-size="14px" font-style="normal" font-weight="normal" text-decoration="normal" x="175.7039834814139" y="347.9256470588237" text-anchor="middle" stroke-miterlimit="2" stroke-width="3" stroke-dasharray="">-5</text><text fill="#000000" stroke="none" font-family="Arial" font-size="14px" font-style="normal" font-weight="normal" text-decoration="normal" x="175.7039834814139" y="347.9256470588237" text-anchor="middle">-5</text></g><g class="dcg-svg-axis-value"><text fill="none" stroke="#ffffff" font-family="Arial" font-size="14px" font-style="normal" font-weight="normal" text-decoration="normal" x="178.0350381689139" y="147.9256470588237" text-anchor="middle" stroke-miterlimit="2" stroke-width="3" stroke-dasharray="">5</text><text fill="#000000" stroke="none" font-family="Arial" font-size="14px" font-style="normal" font-weight="normal" text-decoration="normal" x="178.0350381689139" y="147.9256470588237" text-anchor="middle">5</text></g><g class="dcg-svg-axis-value"><text fill="none" stroke="#ffffff" font-family="Arial" font-size="14px" font-style="normal" font-weight="normal" text-decoration="normal" x="174.1419717626639" y="47.92564705882371" text-anchor="middle" stroke-miterlimit="2" stroke-width="3" stroke-dasharray="">10</text><text fill="#000000" stroke="none" font-family="Arial" font-size="14px" font-style="normal" font-weight="normal" text-decoration="normal" x="174.1419717626639" y="47.92564705882371" text-anchor="middle">10</text></g></g></g></g><g id="expressions-d98090fe"><g id="sketch-d98090fe"><title>Expression 1</title><path fill="#c74440" stroke="none" paint-order="stroke fill markers" d="" fill-opacity="0.4"/><g><path fill="none" stroke="#c74440" class="dcg-svg-curve" paint-order="fill stroke markers" d=" M 152.3046982454297 408 L 152.3046982454297 408 L 152.63671875 403.7206320575725 L 154.58984375 380.9512035083361 L 156.54296875 360.41365481283435 L 158.3984375 342.8684710375308 L 160.25390625 327.14087747230263 L 162.109375 313.1350549940606 L 163.86718749999994 301.3677710655905 L 165.625 290.97831818594517 L 167.28515625 282.3577720667099 L 168.94531249999997 274.8249123048737 L 170.5078125 268.66729049292064 L 172.0703125 263.35513836145464 L 173.6328125 258.8312354514912 L 175.09765625 255.25508174247742 L 176.5625 252.27428557643069 L 178.02734375 249.84169874801125 L 179.58984375 247.79806533907015 L 181.0546875 246.34903705104753 L 182.51953125 245.30363027094307 L 183.88671875 244.65048070380718 L 185.3515625 244.25171748342507 L 186.9281045751639 244.1176470588237 L 188.57421875 244.24198049713476 L 190.62499999999997 244.67468484279692 L 193.75 245.65086210872727 L 197.36328125 246.72150072605064 L 199.31640625 247.03806576361688 L 200.9765625 247.05412557024013 L 202.44140624999997 246.8170974716764 L 203.80859374999997 246.33991571707884 L 205.17578125 245.5763585526491 L 206.54296875 244.48809274121604 L 207.91015625 243.03678504560844 L 209.37499999999997 241.03539618654187 L 210.83984375 238.52609686548846 L 212.3046875 235.46173887710836 L 213.76953124999997 231.79517401606185 L 215.234375 227.47925407700873 L 216.69921875 222.46683085460919 L 218.26171875 216.29942204763864 L 219.82421875 209.228682643445 L 221.38671874999997 201.1973921830441 L 223.046875 191.54766445922542 L 224.70703125 180.68033429369868 L 226.46484375 167.77032956380208 L 228.22265625000003 153.3368439189338 L 230.078125 136.35868528341302 L 231.93359374999997 117.49647283967565 L 233.88671875 95.50077539824554 L 235.83984375 71.19955422702344 L 237.890625 43.07966710069874 L 239.94140625 12.16535141020438 L 241.1635405139381 -8" stroke-linecap="round" stroke-linejoin="round" stroke-miterlimit="10" stroke-width="5" stroke-dasharray=""/></g></g><g id="sketch-d98090fe"><title>Expression 2</title><path fill="#2d70b3" stroke="none" paint-order="stroke fill markers" d="" fill-opacity="0.4"/><g><path fill="none" stroke="#2d70b3" class="dcg-svg-curve" paint-order="fill stroke markers" d=" M 115.22023544274484 -8 L 115.22023544274484 -8 L 117.08984374999997 18.833069433164212 L 119.14062499999997 45.47592482835216 L 121.19140625 69.5246508767911 L 123.14453125 90.1347950104396 L 125.09765625 108.62109270900865 L 126.95312500000001 124.31765399125618 L 128.80859375 138.29412522376444 L 130.56640625 150.03515336099485 L 132.32421874999997 160.39985919197088 L 133.984375 168.99841844090403 L 135.64453125 176.5106370935586 L 137.20703125 182.65006132502143 L 138.76953124999997 187.9452079688926 L 140.33203125 192.45329748415688 L 141.79687499999997 196.01570879813306 L 143.26171875 198.9838103070387 L 144.7265625 201.40475021621356 L 146.2890625 203.43711508461953 L 147.75390625 204.8766617783835 L 149.21875 205.91363470212573 L 150.5859375 206.55985796240347 L 152.05078125 206.95221295302312 L 153.59477124183056 207.08061002178667 L 155.2734375 206.95153987123157 L 157.32421875 206.51485123628908 L 160.44921874999997 205.5365514801241 L 164.0625 204.46940289979943 L 166.015625 204.1573786380566 L 167.67578124999997 204.14664299563185 L 169.140625 204.38948647322502 L 170.5078125 204.8730412073299 L 171.875 205.6438840473901 L 173.2421875 206.74034823057673 L 174.609375 208.200766994061 L 176.07421875 210.21293052486686 L 177.5390625 212.73405225555595 L 179.00390625 215.81128039146807 L 180.46874999999997 219.49176313794317 L 181.93359375 223.82264870032137 L 183.39843749999997 228.85108528394215 L 184.96093749999997 235.03672984954147 L 186.52343749999997 242.12689710525933 L 188.0859375 250.17880751008013 L 189.74609375 259.85175010475564 L 191.40625 270.74364090225964 L 193.1640625 283.6811178402458 L 194.921875 298.14358443577436 L 196.77734375 315.1539708741952 L 198.6328125 334.0500921580803 L 200.58593749999997 356.08329919447465 L 202.5390625 380.4238926058107 L 204.54709065125041 408" stroke-linecap="round" stroke-linejoin="round" stroke-miterlimit="10" stroke-width="5" stroke-dasharray=""/></g></g><g id="sketch-d98090fe"><title>Expression 3</title><path fill="#fa7e19" stroke="none" paint-order="stroke fill markers" d="" fill-opacity="0.4"/><g><path fill="none" stroke="#fa7e19" class="dcg-svg-curve" paint-order="fill stroke markers" d=" M 74.98692810457578 408 L 74.98692810457578 408 L 282.9869281045758 -8" stroke-linecap="round" stroke-linejoin="round" stroke-miterlimit="10" stroke-width="5" stroke-dasharray=""/></g></g><g id="sketch-d98090fe"><title>Expression 4</title><path fill="#388c46" stroke="none" paint-order="stroke fill markers" d="" fill-opacity="0.4"/><g><path fill="none" stroke="#388c46" class="dcg-svg-curve" paint-order="fill stroke markers" d=" M 103.03526746685458 -8 L 103.03526746685458 -8 L 104.88281249999997 7.546149473875886 L 108.98437500000001 40.35639805450981 L 112.98828124999999 70.76277339100099 L 116.89453125000001 98.88257742426836 L 120.70312499999999 124.83025107227982 L 124.4140625 148.71737423005553 L 128.02734374999997 170.65266576966545 L 131.54296875 190.74198354023105 L 134.9609375 209.0883243679237 L 138.28125 225.79182405596643 L 141.50390624999997 240.94975738463245 L 144.62890625 254.65653811124622 L 147.65625 267.00371897018255 L 150.5859375 278.0799916728673 L 153.41796875 287.97118690777705 L 156.15234374999997 296.76027434043897 L 158.7890625 304.5273626134315 L 161.42578125 311.5992223097637 L 163.96484375 317.75207967259837 L 166.40625 323.0603212986149 L 168.75 327.595472761544 L 171.09375 331.581307818223 L 173.43749999999997 335.017826468652 L 175.68359374999997 337.79569587396225 L 177.83203125 339.9807195619858 L 179.78515624999997 341.56656152002563 L 181.640625 342.71977504593497 L 183.39843749999997 343.4947195757489 L 185.05859375 343.94289352255345 L 186.71875 344.1154555919166 L 188.37890625 344.01240578383835 L 190.0390625 343.6337440983187 L 191.69921875 342.9794705353576 L 193.45703125 341.98630288255436 L 195.21484375 340.6841447512355 L 197.07031249999994 338.97442797929335 L 199.12109375 336.68419780794017 L 201.26953124999997 333.83382110533876 L 203.515625 330.360355366606 L 205.859375 326.19799706391 L 208.20312499999997 321.4863223549641 L 210.64453125 315.9942023476798 L 213.08593749999997 309.9060358926418 L 215.62499999999997 302.94205670762483 L 218.26171875 295.02787819594926 L 220.99609375 286.08625273798623 L 223.73046875 276.39694661596076 L 226.5625 265.5733820242102 L 229.4921875 253.53258929720755 L 232.51953125 240.18873774647585 L 235.64453125 225.45313566058968 L 238.86718749999997 209.23423030517378 L 242.1875 191.4376079229039 L 245.60546875 171.96599373350685 L 249.12109375 150.71925193375972 L 252.73437499999997 127.59438569749095 L 256.34765625 103.16393932206165 L 260.05859375 76.7142247112829 L 263.8671875 48.136522993083474 L 267.7734375 17.31925427244437 L 270.8295731297433 -8" stroke-linecap="round" stroke-linejoin="round" stroke-miterlimit="10" stroke-width="5" stroke-dasharray=""/></g></g></g><g id="labels-d98090fe"/><g id="labels-d98090fe"/></g></svg>