<svg version="1.1" xmlns="http://www.w3.org/2000/svg" xmlns:xlink="http://www.w3.org/1999/xlink">
    <defs />

        <g id="grid-5a13429f">

        </g>
        <g id="axis-5a13429f">
            <g id="yaxis-5a13429f">
                <title>Y axis</title>
                <g>
                    <path fill="none" stroke="#fafafa" class="dcg-svg-axis-line"
                        paint-order="fill stroke markers" d=" M 200 0 L 200 400"
                        stroke-opacity="0.9" stroke-miterlimit="10" stroke-width="1.5"
                        stroke-dasharray="" />
                </g>
            </g>
            <g id="xaxis-5a13429f">
                <title>X axis</title>
                <g>
                    <path fill="none" stroke="#fafafa" class="dcg-svg-axis-line"
                        paint-order="fill stroke markers" d=" M 0 204 L 400 204"
                        stroke-opacity="0.9" stroke-miterlimit="10" stroke-width="1.5"
                        stroke-dasharray="" />
                </g>
            </g>
            <g>
                <g class="dcg-svg-axis-value">
                    <text fill="none" stroke="#ffffff" font-family="Arial" font-size="14px"
                        font-style="normal" font-weight="normal" text-decoration="normal"
                        x="191.51543032577618" y="220.19635898752986" text-anchor="middle"
                        stroke-miterlimit="2" stroke-width="3" stroke-dasharray="">a</text>
                </g>

                <g class="dcg-svg-axis-value">
                    <text fill="none" stroke="#ffffff" font-family="Arial" font-size="14px"
                        font-style="normal" font-weight="normal" text-decoration="normal"
                        x="191.51543032577618" y="220.19635898752986" text-anchor="middle"
                        stroke-miterlimit="2" stroke-width="3" stroke-dasharray="">b</text>
                </g>

                <g class="dcg-svg-axis-value">
                    <text fill="none" stroke="#ffffff" font-family="Arial" font-size="14px"
                        font-style="normal" font-weight="normal" text-decoration="normal"
                        x="191.51543032577618" y="220.19635898752986" text-anchor="middle"
                        stroke-miterlimit="2" stroke-width="3" stroke-dasharray="">c</text>
                </g>

                <g class="dcg-svg-axis-value">
                    <text fill="none" stroke="#ffffff" font-family="Arial" font-size="14px"
                        font-style="normal" font-weight="normal" text-decoration="normal"
                        x="191.51543032577618" y="220.19635898752986" text-anchor="middle"
                        stroke-miterlimit="2" stroke-width="3" stroke-dasharray="">d</text>
                </g>
            </g>
        </g>
            <g id="sketch-5a13429f">
                <path fill="#c74440" stroke="none" paint-order="stroke fill markers" d=""
                    fill-opacity="0.4" />
                <g>
                    <path fill="none" stroke="#c74440" class="dcg-svg-curve"
                        paint-order="fill stroke markers"
                        d=" M 138.54982040599546 408 L 138.54982040599546 408 L 140.42968749999997 392.1060625439965 L 143.06640625 371.439446028415 L 145.703125 352.31151153950896 L 148.33984375 334.6648547982381 L 150.87890625 319.01819372582133 L 153.41796875 304.64062785943815 L 155.859375 291.96514190879026 L 158.30078125 280.37004430614263 L 160.64453125 270.2128799266244 L 162.98828125 260.9690878596554 L 165.33203125 252.59835124533333 L 167.57812499999997 245.35833606252103 L 169.82421875 238.8476259968274 L 172.07031249999997 233.03073672863215 L 174.31640624999997 227.87218393831478 L 176.46484375 223.52121733691624 L 178.7109375 219.5480846705768 L 180.95703125 216.1283783197591 L 183.203125 213.22661396484273 L 185.44921875 210.80730728620722 L 187.59765625 208.91191445743726 L 189.74609375 207.39441842911322 L 191.796875 206.26989092215993 L 193.9453125 205.40134543444125 L 196.09375 204.81894555991937 L 198.33984374999997 204.48231736043596 L 200.78125 204.3912326675747 L 203.41796874999997 204.5632118487798 L 206.4453125 205.03434905325548 L 210.25390625000003 205.91389547433997 L 222.36328125 208.92800536595755 L 225.29296875 209.2735525567762 L 227.83203124999997 209.32472160095196 L 230.17578125 209.1206443996545 L 232.42187499999997 208.66032434268405 L 234.5703125 207.9443551370674 L 236.62109374999997 206.98052286429046 L 238.671875 205.7153667024228 L 240.72265624999997 204.12187750508454 L 242.77343749999997 202.17304612589567 L 244.921875 199.72085778486507 L 247.16796874999997 196.674822008644 L 249.4140625 193.10071219777345 L 251.56249999999997 189.15514246574946 L 253.7109375 184.66289987804603 L 255.859375 179.59293018667123 L 258.0078125 173.91417914363313 L 260.15625 167.59559250093963 L 262.40234375 160.27196888338636 L 264.6484375 152.17959497636656 L 266.89453125 143.28298646025993 L 269.23828125 133.10374369575192 L 271.58203125 121.96985873497952 L 273.92578125 109.84101471804058 L 276.3671875 96.10532742282649 L 278.80859375 81.20072449704168 L 281.34765625 64.41096723516438 L 283.88671875 46.2563636584249 L 286.5234375 25.903959052654386 L 289.16015625 3.9670184768585557 L 290.49660902617785 -8"
                        stroke-linecap="round" stroke-linejoin="round" stroke-miterlimit="10"
                        stroke-width="5" stroke-dasharray="" />
                </g>
            </g>
            <g id="sketch-5a13429f">
                <path fill="#2d70b3" stroke="none" paint-order="stroke fill markers" d=""
                    fill-opacity="0.4" />
                <g>
                    <path fill="none" stroke="#2d70b3" class="dcg-svg-curve"
                        paint-order="fill stroke markers"
                        d=" M 78.66968129821659 -8 L 78.66968129821659 -8 L 78.80859375 -6.985380966222834 L 81.44531249999997 10.787021358745335 L 83.984375 26.550082108419645 L 86.5234375 41.039447454793304 L 88.96484375 53.81809470164819 L 91.40625 65.51210045953874 L 93.75 75.76021531307089 L 96.09375 85.09103815934094 L 98.4375 93.5448858582514 L 100.68359375 100.86087104748839 L 102.9296875 107.44395126109436 L 105.17578125 113.32961081868976 L 107.421875 118.55333403989505 L 109.5703125 122.96326908754257 L 111.81640625000001 126.99452898333303 L 114.0625 130.46876270508943 L 116.30859375 133.4214545724323 L 118.55468750000001 135.88808890498217 L 120.703125 137.8253831759394 L 122.85156249999999 139.381487014088 L 124.90234374999997 140.53979496138658 L 126.953125 141.4060830106351 L 129.1015625 142.02984214026995 L 131.34765625 142.40467870283857 L 133.69140625 142.5314547178035 L 136.23046875 142.41025608724684 L 139.16015625 142.00162741522342 L 142.67578125 141.23738722287123 L 148.73046875 139.59883713046094 L 153.80859375 138.3422790516384 L 157.12890625 137.78909316467954 L 159.86328125 137.58908099009795 L 162.3046875 137.6615810692468 L 164.55078125 137.9782683645021 L 166.69921875 138.53904484782697 L 168.75 139.33849841950357 L 170.80078125 140.4234133657302 L 172.8515625 141.82079883288688 L 174.90234375 143.5576639673535 L 176.953125 145.66101791551012 L 179.10156249999997 148.28704250081074 L 181.34765625 151.52789640000879 L 183.49609374999997 155.13400746944126 L 185.64453125 159.26655908146745 L 187.79296875 163.95660548407932 L 189.94140624999997 169.2352009252687 L 192.08984375 175.13339965302796 L 194.23828125 181.68225591534875 L 196.48437499999997 189.25818692721074 L 198.73046874999997 197.61469633507937 L 200.9765625 206.78726845857506 L 203.3203125 217.26708393266242 L 205.66406249999997 228.71442059992708 L 208.10546875 241.71102785888178 L 210.546875 255.84677876165682 L 212.98828125 271.16724267572783 L 215.52734375 288.4062532268952 L 218.06640625 307.02719653991664 L 220.703125 327.88196186712565 L 223.33984375 350.3396892292378 L 226.07421875 375.3836805083757 L 228.80859375 402.27732747348955 L 229.35112840862783 408"
                        stroke-linecap="round" stroke-linejoin="round" stroke-miterlimit="10"
                        stroke-width="5" stroke-dasharray="" />
                </g>
            </g>
            <g id="sketch-5a13429f">
                <path fill="#fa7e19" stroke="none" paint-order="stroke fill markers" d=""
                    fill-opacity="0.4" />
                <g>
                    <path fill="none" stroke="#fa7e19" class="dcg-svg-curve"
                        paint-order="fill stroke markers"
                        d=" M 18.495212229245624 408 L 18.495212229245624 408 L 267.57687622924567 -8"
                        stroke-linecap="round" stroke-linejoin="round" stroke-miterlimit="10"
                        stroke-width="5" stroke-dasharray="" />
                </g>
            </g>
            <g id="sketch-5a13429f">
                <path fill="#388c46" stroke="none" paint-order="stroke fill markers" d=""
                    fill-opacity="0.4" />
                <g>
                    <path fill="none" stroke="#388c46" class="dcg-svg-curve"
                        paint-order="fill stroke markers"
                        d=" M 65.62551646005154 -8 L 65.62551646005154 -8 L 67.87109375 4.678561866759026 L 73.14453124999997 33.28058955696329 L 78.3203125 60.22387889484642 L 83.3984375 85.5717422826253 L 88.37890625 109.38629754889038 L 93.26171875 131.7284679486055 L 98.046875 152.6579821631075 L 102.734375 172.23337430010668 L 107.32421875 190.51198389368656 L 111.81640625000001 207.54995590430389 L 116.21093750000001 223.40224071878853 L 120.5078125 238.1225941503439 L 124.8046875 252.07204940144342 L 129.00390625 264.9596549223824 L 133.10546875 276.8367773791105 L 137.109375 287.75358886395094 L 141.015625 297.75906689559986 L 144.921875 307.1274389929879 L 148.73046875 315.64818823061046 L 152.44140625 323.3679029799106 L 156.15234375 330.5126296235401 L 159.76562499999997 336.9168468426019 L 163.37890625 342.77594029666176 L 166.89453125 347.95345662507293 L 170.41015625 352.61491714673275 L 173.828125 356.65214007682744 L 177.05078125 360.0118940173734 L 180.17578125 362.8557183751785 L 183.10546875 365.1514858863318 L 185.9375 367.03007523455466 L 188.671875 368.5261290550227 L 191.30859374999997 369.67309540928466 L 193.9453125 370.529780372249 L 196.48437499999997 371.08038251956975 L 199.0234375 371.36180740966523 L 201.56249999999997 371.3740550425355 L 204.1015625 371.1171254181804 L 206.64062499999997 370.59101853660013 L 209.1796875 369.7957343977946 L 211.81640625 368.6849565975191 L 214.453125 367.28389740594605 L 217.18749999999997 365.52433990234056 L 220.01953125 363.3728360251538 L 222.94921874999997 360.7947431392105 L 225.97656249999997 357.7542240357084 L 229.19921874999997 354.09705249278744 L 232.51953125 349.8755177828259 L 236.03515625 344.9039365784596 L 239.55078124999994 339.41629956734204 L 243.1640625 333.23847096716725 L 246.77734375 326.5155186019905 L 250.39062499999997 319.2474424718117 L 254.1015625 311.2155093789268 L 257.91015625 302.3743255255198 L 261.71875 292.92749284335605 L 265.625 282.60929157207966 L 269.62890625 271.3719387666211 L 273.6328125 259.46522653897955 L 277.734375 246.5740594188943 L 281.93359375 232.64826531404196 L 286.23046875 217.63647755847302 L 290.625 201.48613491261074 L 295.1171875 184.14348156325204 L 299.609375 165.958255615833 L 304.19921875 146.50745178247752 L 308.88671875 125.73492510272871 L 313.671875 103.58333604250313 L 318.5546875 79.9941504940906 L 323.53515625 54.907639776154014 L 328.61328125 28.26288063372988 L 333.7890625 -0.0022447617725447344 L 335.19732115091483 -8"
                        stroke-linecap="round" stroke-linejoin="round" stroke-miterlimit="10"
                        stroke-width="5" stroke-dasharray="" />
                </g>
            </g>
</svg>