<svg xmlns="http://www.w3.org/2000/svg" direction="ltr" width="668.3454020490341" height="628.117898931698" viewBox="-393.24205482298504 45.43157394373634 668.3454020490341 628.117898931698" stroke-linecap="round" stroke-linejoin="round" style="background-color: transparent;"><defs/><g transform="matrix(1, 0, 0, 1, -332.3621, 170.2525)" opacity="1"><g transform="scale(1)"><path d="M-1.9445,0.2158 T-2.1757,-1.9803 -2.5371,-5.8481 -3.2947,-9.1114 -5.0611,-11.82 -6.8273,-11.3927 -7.7461,-7.44 -8.1383,-2.4829 -8.2655,2.265 -8.2982,6.3124 -7.7458,9.8259 -6.2662,13.7708 -4.564,18.1235 -3.5259,22.4781 -3.9501,26.6524 -5.6367,29.8265 -8.3006,32.2271 -11.5358,33.9966 -15.6005,34.8523 -20.2736,34.4224 -24.5326,32.3941 -27.9916,28.6999 -29.963,24.9189 -30.5493,23.4394 A1.8298,1.8298 0 0 1 -27.2107,21.9406 T-26.055,24.3279 -23.7955,27.8073 -20.473,29.7934 -16.206,30.5615 -12.8117,29.8927 -10.214,28.3667 -8.1678,26.1927 -7.5353,23.1896 -8.4247,19.4268 -10.0596,15.177 -11.6352,10.5274 -12.2935,6.3045 -12.2524,2.1973 -12.114,-2.7158 -11.8617,-6.9024 -10.8563,-11.1277 -8.6183,-15.167 -4.9406,-15.957 -1.5409,-13.9217 0.3691,-10.1267 1.306,-6.2184 1.6885,-2.4092 1.9445,-0.2158 A1.9564,1.9564 0 0 1 -1.9445,0.2158 Z" stroke-linecap="round" fill="#4f72fc"/></g></g><g transform="matrix(1, 0, 0, 1, -338.5498, 184.6906)" opacity="1"><g transform="scale(1)"><path d="M-0.1601,1.6024 T-2.6027,1.4023 -7.0333,1.0807 -11.27,0.8197 -13.5188,0.6803 A1.7137,1.7137 0 0 1 -13.3012,-2.7403 T-11.0529,-2.5936 -6.7562,-2.3118 -2.2739,-1.8895 0.1601,-1.6024 A1.6104,1.6104 0 0 1 -0.1601,1.6024 Z" stroke-linecap="round" fill="#4f72fc"/></g></g><g transform="matrix(1, 0, 0, 1, -311.7362, 160.9709)" opacity="1"><g transform="scale(1)"><path d="M1.2949,1.2949 T-0.1662,2.7613 -2.8283,5.6707 -4.847,8.5216 -6.3338,11.3871 -7.5527,14.9737 -8.4041,18.7194 -8.8555,21.8687 -8.7609,25.7719 -7.9277,30.1405 -6.1512,33.6194 -3.4362,36.4699 -1.9089,37.8396 A1.794,1.794 0 0 1 -4.2711,40.5404 T-5.1921,39.7702 -7.6392,37.3692 -10.5062,33.5743 -12.2267,28.7602 -12.7546,24.5574 -12.7058,21.3 -12.1532,17.8422 -11.0993,13.6732 -9.6274,9.6459 -7.8574,6.3929 -5.5448,3.1896 -2.7617,0.1666 -1.2949,-1.2949 A1.8312,1.8312 0 0 1 1.2949,1.2949 Z" stroke-linecap="round" fill="#4f72fc"/></g></g><g transform="matrix(1, 0, 0, 1, -292.1416, 176.4403)" opacity="1"><g transform="scale(1)"><path d="M1.4896,2.5196 T0.0344,3.9928 -2.9839,6.7974 -5.7915,9.2608 -8.7338,11.7625 -11.8771,14.0886 -14.8596,16.0678 -16.3963,17.0904 A1.9776,1.9776 0 0 1 -18.6637,13.8496 T-17.1763,12.7564 -14.4204,10.7208 -11.5481,8.469 -8.6311,5.9907 -5.8764,3.6357 -2.9623,0.9951 -1.4896,-0.4596 A2.1067,2.1067 0 0 1 1.4896,2.5196 Z" stroke-linecap="round" fill="#4f72fc"/></g></g><g transform="matrix(1, 0, 0, 1, -306.5797, 179.5341)" opacity="1"><g transform="scale(1)"><path d="M1.3666,-1.3666 T2.3438,-0.3885 4.7957,2.4151 7.8904,6.3143 11.3342,10.2262 15.3209,13.5243 17.4835,14.9842 A1.8069,1.8069 0 0 1 15.5165,18.0158 T14.2147,17.2233 10.8421,14.7045 7.628,11.9918 4.8637,8.883 1.9144,5.039 -0.3903,2.342 -1.3666,1.3666 A1.9327,1.9327 0 0 1 1.3666,-1.3666 Z" stroke-linecap="round" fill="#4f72fc"/></g></g><g transform="matrix(1, 0, 0, 1, -284.9226, 164.0648)" opacity="1"><g transform="scale(1)"><path d="M1.5501,-1.1078 T2.7465,0.6169 4.8579,3.768 6.5514,6.7448 7.9956,9.8406 9.2709,12.9295 10.2561,16.1586 10.8347,19.4731 11.1614,22.9484 11.1281,27.5811 10.6435,32.6004 9.6218,37.101 8.3132,41.0217 6.7636,44.1851 4.7363,46.8116 2.6036,48.954 1.5629,49.9799 A2.1731,2.1731 0 0 1 -1.5629,46.9601 T-0.5734,45.8847 1.8194,42.8954 3.8029,39.4472 5.0307,35.9892 6.0487,32.0442 6.6612,27.5089 6.8605,23.265 6.4797,18.6982 5.6126,14.36 4.5127,11.399 3.2986,8.5618 1.7968,5.8363 -0.3058,2.7982 -1.5501,1.1078 A1.9053,1.9053 0 0 1 1.5501,-1.1078 Z" stroke-linecap="round" fill="#4f72fc"/></g></g><g transform="matrix(1, 0, 0, 1, -257.0777, 178.5028)" opacity="1"><g transform="scale(1)"><path d="M1.03,-1.9126 T2.4919,-1.9497 6.9012,-2.3359 11.5514,-2.7837 13.254,-2.8824 A1.8589,1.8589 0 0 1 13.566,0.8224 T11.8707,1.0098 8.7324,1.3643 5.6256,1.7591 2.496,1.9497 1.03,1.9126 A1.9126,1.9126 0 0 1 1.03,-1.9126 Z" stroke-linecap="round" fill="#4f72fc"/></g></g><g transform="matrix(1, 0, 0, 1, -255.0151, 188.8158)" opacity="1"><g transform="scale(1)"><path d="M0.7156,-1.5753 T1.9291,-1.8493 5.4439,-2.8585 7.7453,-3.5937 A1.6146,1.6146 0 0 1 8.7547,-0.5263 T6.2767,0.3113 2.5716,1.3621 1.3444,1.5753 A1.6063,1.6063 0 0 1 0.7156,-1.5753 Z" stroke-linecap="round" fill="#4f72fc"/></g></g><g transform="matrix(1, 0, 0, 1, -197.2627, 177.4716)" opacity="1"><g transform="scale(1)"><path d="M1.3291,1.992 T-0.1296,2.9766 -3.0847,4.9723 -6.0973,7.0111 -9.5067,9.7046 -12.9512,12.7418 -16.174,15.3235 -19.6245,17.8423 -21.4035,19.1507 A2.0692,2.0692 0 0 1 -23.9765,15.9093 T-22.2985,14.4737 -19.1894,11.7854 -16.2045,9.0797 -12.5007,5.7816 -8.8172,2.934 -5.7756,0.9385 -2.7983,-1.0231 -1.3291,-1.992 A2.3947,2.3947 0 0 1 1.3291,1.992 Z" stroke-linecap="round" fill="#4f72fc"/></g></g><g transform="matrix(1, 0, 0, 1, -219.9512, 175.409)" opacity="1"><g transform="scale(1)"><path d="M1.5822,-1.5822 T2.5446,-0.5911 5.0259,2.1733 7.8568,5.4038 10.908,8.4014 14.5125,11.0948 18.4675,13.4734 20.5571,14.6989 A2.0443,2.0443 0 0 1 18.6229,18.3011 T16.3964,17.2092 12.0168,14.8467 7.8577,11.747 4.4101,8.2295 1.6843,5.024 -0.5911,2.5446 -1.5822,1.5822 A2.2376,2.2376 0 0 1 1.5822,-1.5822 Z" stroke-linecap="round" fill="#4f72fc"/></g></g><g transform="matrix(1, 0, 0, 1, -186.9498, 185.7219)" opacity="1"><g transform="scale(1)"><path d="M0.2216,-1.5535 T1.93,-1.3567 5.704,-1.3675 9.433,-1.9723 12.1246,-2.5145 13.1529,-2.6595 A1.6496,1.6496 0 0 1 13.6671,0.5995 T12.644,0.7781 9.8072,1.4012 5.5926,1.99 1.4851,1.8439 -0.2216,1.5535 A1.5692,1.5692 0 0 1 0.2216,-1.5535 Z" stroke-linecap="round" fill="#4f72fc"/></g></g><g transform="matrix(1, 0, 0, 1, -154.9797, 164.0648)" opacity="1"><g transform="scale(1)"><path d="M2.2006,-0.4393 T2.4304,0.7845 2.8045,3.4954 3.0277,6.4886 3.1666,9.7681 3.0214,13.5938 2.7253,17.3207 2.5845,20.6027 2.4751,24.028 2.3549,27.8985 2.2944,29.951 A2.2947,2.2947 0 0 1 -2.2944,29.869 T-2.2816,27.8157 -2.2626,23.8951 -2.1814,20.3494 -1.9603,16.8837 -1.57,13.3626 -1.3368,9.9151 -1.5169,5.5374 -1.9432,1.6562 -2.2006,0.4393 A2.244,2.244 0 0 1 2.2006,-0.4393 Z" stroke-linecap="round" fill="#4f72fc"/></g></g><g transform="matrix(1, 0, 0, 1, -158.0736, 164.0648)" opacity="1"><g transform="scale(1)"><path d="M0.4434,1.4734 T-1.6583,3.5017 -3.7601,5.5299 A1.9797,1.9797 0 0 1 -6.5599,2.7301 T-4.5317,0.6283 -2.5034,-1.4734 A2.0838,2.0838 0 0 1 0.4434,1.4734 Z" stroke-linecap="round" fill="#4f72fc"/></g></g><g transform="matrix(1, 0, 0, 1, 40.9659, 78.4675)" opacity="1"><g transform="scale(1)"><path d="M1.2655,0 T1.2605,1.4639 1.2538,5.0935 1.251,9.2224 1.2491,12.8481 1.2507,15.9578 1.2559,19.8008 1.2608,24.3522 1.2644,28.9676 1.267,33.3584 1.2668,37.1853 1.2629,41.0979 1.2585,44.7919 1.2551,48.4252 1.2505,52.0525 0.8698,55.3818 0.3923,58.9 0.2595,63.1411 0.2151,67.9167 0.1989,72.725 0.1888,76.9248 0.179,80.6973 0.1708,84.224 0.1646,87.6825 0.1601,91.8659 0.1564,96.2508 0.154,99.9608 0.1522,103.7269 0.1505,108.1242 0.1533,112.5684 0.1596,117.0257 0.1598,121.7429 0.5243,126.7162 0.9987,131.4483 1.37,136.3211 1.7732,140.4814 2.0232,144.4673 2.1663,148.9718 2.4428,152.958 2.8295,156.3184 3.0837,159.9773 3.4629,164.9711 3.9445,169.8275 4.2193,173.6382 4.3008,177.3162 4.3253,181.5625 4.3306,186.4661 4.3295,191.1814 4.3244,195.0984 4.5429,198.3837 4.9806,202.0299 5.252,206.3142 5.321,210.7299 5.3372,215.56 4.9554,219.7443 4.4764,223.4974 4.3526,227.2838 4.3196,231.3245 4.3157,235.5536 4.321,239.4643 4.3322,243.4012 4.3409,247.0997 4.0767,250.538 3.6393,253.9668 3.414,257.7302 2.9631,261.4746 2.461,265.1107 2.322,268.7715 2.2779,272.3976 2.2656,276.0104 2.2667,279.6216 2.2708,283.4754 2.2726,286.6043 2.2725,287.7301 A1.2425,1.2425 0 0 1 -0.2125,287.7299 T-0.2125,285.5937 -0.2076,281.505 -0.2005,277.8926 -0.1947,274.2737 -0.1782,270.6329 -0.1114,266.9101 0.1699,262.8633 0.6375,259.2335 0.9881,255.5673 1.4676,251.2012 1.8392,247.0996 1.8484,243.4008 1.8611,239.4628 1.8722,235.5495 1.8888,231.3082 1.9296,227.2299 2.0715,223.2378 2.5493,219.5143 2.9078,215.5546 2.885,210.7622 2.8135,206.4359 2.579,202.4531 2.1289,198.7117 1.8552,195.0986 1.8493,191.182 1.8451,186.468 1.8392,181.5708 1.8235,177.3498 1.7601,173.7495 1.5134,170.1214 1.0584,166.5913 0.7485,162.4477 0.5171,157.6209 0.0751,153.2113 -0.212,149.0202 -0.3435,144.612 -0.5758,140.7967 -0.9674,137.8578 -1.2813,133.9953 -1.5205,129.3926 -1.9634,125.6862 -2.2198,121.7462 -2.2196,117.0257 -2.2133,112.5684 -2.2105,108.1242 -2.2122,103.7269 -2.214,99.9608 -2.2164,96.2508 -2.2201,91.8659 -2.2245,87.6824 -2.2306,84.2239 -2.2384,80.6968 -2.2466,76.9235 -2.2511,72.7215 -2.2469,67.9035 -2.218,63.0855 -2.0868,58.6715 -1.6138,55.1766 -1.2505,52.0309 -1.2551,48.4252 -1.2585,44.7919 -1.2629,41.0979 -1.2668,37.1853 -1.267,33.3584 -1.2644,28.9676 -1.2608,24.3522 -1.2559,19.8008 -1.2507,15.9578 -1.2491,12.8481 -1.251,9.2224 -1.2538,5.0935 -1.2605,1.4639 -1.2655,0 A1.2655,1.2655 0 0 1 1.2655,0 Z" stroke-linecap="round" fill="#4f72fc"/></g></g><g transform="matrix(1, 0, 0, 1, -80.7267, 205.3165)" opacity="1"><g transform="scale(1)"><path d="M0.1774,-1.4206 T2.1271,-1.1665 5.564,-0.7806 9.4676,-0.5446 14.4102,-0.421 18.971,-0.6365 23.5902,-1.1029 28.5522,-1.7801 33.1899,-2.7317 37.8728,-3.6215 42.8657,-4.2748 47.7622,-4.6235 52.8432,-4.7436 57.0835,-4.8019 60.086,-4.8347 63.0509,-4.6027 66.5237,-4.1892 70.9676,-3.9881 75.9209,-3.9571 81.0171,-3.9757 85.802,-4.3711 90.0212,-5.082 94.2782,-5.6738 98.9058,-6.0056 103.4336,-6.4612 107.797,-6.9644 111.8753,-7.329 115.9869,-7.8083 120.3363,-8.1039 124.2926,-8.4079 128.3682,-8.8873 132.4746,-9.4088 136.5942,-9.9425 140.4064,-10.2404 144.4451,-10.3215 149.4679,-10.3669 154.2176,-10.3817 158.5161,-10.3873 162.934,-10.118 167.1425,-9.6778 171.0593,-9.4544 174.9001,-9.0044 178.793,-8.5123 183.3232,-8.3895 188.3161,-8.361 193.4279,-8.3659 197.4478,-8.3801 200.3956,-8.3939 204.2009,-8.4079 209.0091,-8.1514 213.5945,-7.7149 218.4108,-7.2324 224.1232,-6.4641 229.624,-5.7813 234.3312,-5.4946 238.3697,-5.4177 242.4675,-5.3993 246.7117,-5.3958 250.9986,-5.4028 255.2859,-5.4145 259.2125,-5.4262 263.4107,-5.4395 268.0433,-5.4507 272.5528,-5.4589 276.6694,-5.4664 280.6781,-5.4704 284.3559,-5.6791 288.8652,-6.1176 294.3733,-6.4022 298.4752,-6.4665 302.3907,-6.7088 306.409,-7.0818 310.0772,-7.3252 314.6394,-7.4495 319.5204,-7.1547 323.1214,-6.5317 324.3024,-6.2245 A2.1471,2.1471 0 0 1 323.3576,-2.0355 T321.3352,-2.4383 317.0766,-2.8081 312.6075,-2.7154 308.0193,-2.4681 302.818,-2.0099 298.5242,-1.7289 294.5223,-1.6633 289.5548,-1.4421 284.929,-0.9928 280.6781,-0.7096 276.6694,-0.7136 272.5528,-0.7211 268.0433,-0.7293 263.4107,-0.7406 259.2124,-0.7539 255.2856,-0.7659 250.9969,-0.7787 246.7068,-0.7896 242.4477,-0.8002 238.3084,-0.8323 234.1432,-0.9375 230.3777,-1.1199 226.1591,-1.7095 220.6599,-2.5979 215.6653,-3.1089 211.9887,-3.369 208.5274,-3.7416 204.2005,-3.9727 200.3947,-3.9876 197.4459,-4.0026 193.4221,-4.0222 188.2949,-4.0483 183.2424,-4.0961 178.4152,-4.248 174.521,-4.7451 170.8537,-5.1782 166.5132,-5.4556 162.4453,-5.8941 158.5182,-6.1104 154.2246,-6.1099 149.4927,-6.1027 144.5183,-6.069 139.6419,-5.9496 135.0445,-5.4603 130.9092,-4.9766 126.7582,-4.515 122.5391,-4.1154 118.5242,-3.9944 114.3769,-3.5037 110.1522,-3.0563 106.0836,-2.8211 101.4514,-2.3446 96.8654,-1.9439 92.7155,-1.4075 88.4612,-0.8089 83.6149,-0.3992 78.2833,-0.1842 73.1834,-0.2602 68.2074,-0.4369 63.6812,-0.9433 60.0861,-1.3342 57.0949,-1.3569 52.8842,-1.3726 47.8959,-1.3267 43.3495,-1.0778 38.493,-0.504 33.5996,0.3462 28.8149,1.2266 23.9932,1.7886 19.2727,2.1811 14.356,2.3795 9.3071,2.2391 5.2714,2.0118 1.7751,1.6537 -0.1774,1.4206 A1.4316,1.4316 0 0 1 0.1774,-1.4206 Z" stroke-linecap="round" fill="#4f72fc"/></g></g><g transform="matrix(1, 0, 0, 1, 81.1863, 197.0661)" opacity="1"><g transform="scale(1)"><path d="M1.1813,-0.5892 T1.6758,0.3848 2.7822,4.1876 3.3941,7.0164 A1.3496,1.3496 0 0 1 0.7259,7.4236 T0.2521,4.9859 -0.7014,1.5687 -1.1813,0.5892 A1.3201,1.3201 0 0 1 1.1813,-0.5892 ZM0.7533,7.5573 T0.5115,6.4797 0.0517,3.6509 -0.2158,-0.0658 -0.2652,-2.0313 A1.2955,1.2955 0 0 1 2.3252,-2.0887 T2.3499,-0.8315 2.4664,2.2288 2.9624,5.4573 3.3667,6.8827 A1.3496,1.3496 0 0 1 0.7533,7.5573 ZM2.3255,-2.0676 T2.3377,-0.7306 2.3466,1.3402 2.3433,2.074 A1.3134,1.3134 0 0 1 -0.2833,2.046 T-0.271,1.3123 -0.262,-0.7369 -0.2655,-2.0524 A1.2955,1.2955 0 0 1 2.3255,-2.0676 Z" stroke-linecap="round" fill="#4f72fc"/></g></g><g transform="matrix(1, 0, 0, 1, 36.8407, 242.443)" opacity="1"><g transform="scale(1)"><path d="M0,-1.6388 T1.4614,-1.644 4.0818,-1.8726 5.2408,-2.0959 A1.6364,1.6364 0 0 1 5.8407,1.1215 T4.3869,1.3854 1.4665,1.644 0,1.6388 A1.6388,1.6388 0 0 1 0,-1.6388 ZM4.3226,0.6055 T3.9846,0.2374 3.2704,-0.5411 2.8941,-0.9514 A1.6602,1.6602 0 0 1 5.3659,-3.1686 T5.7331,-2.7501 6.4296,-1.9557 6.7589,-1.5799 A1.6364,1.6364 0 0 1 4.3226,0.6055 Z" stroke-linecap="round" fill="#4f72fc"/></g></g><g transform="matrix(1, 0, 0, 1, 41.9972, 242.443)" opacity="1"><g transform="scale(1)"><path d="M-1.7445,-0.4351 T-1.4925,-1.4345 -0.7377,-3.2382 -0.235,-4.0424 A1.8088,1.8088 0 0 1 2.6972,-1.9235 T2.456,-1.6983 1.9797,-0.519 1.7445,0.4351 A1.798,1.798 0 0 1 -1.7445,-0.4351 ZM1.1272,-4.7888 T1.5666,-4.8181 2.006,-4.8473 A1.8167,1.8167 0 0 1 2.2148,-1.2199 T1.7749,-1.1985 1.3351,-1.1771 A1.8088,1.8088 0 0 1 1.1272,-4.7888 ZM3.7425,-3.8316 T3.9815,-3.3491 4.145,-0.926 2.1203,1.9556 0.1711,2.8964 A1.8502,1.8502 0 0 1 0.2206,-0.8036 T0.5738,-1.0544 0.7026,-1.7704 0.4783,-2.2356 A1.8167,1.8167 0 0 1 3.7425,-3.8316 ZM-1.3974,1.987 T-1.7001,1.0932 -1.6379,-1.0473 -1.2731,-2.294 A1.8475,1.8475 0 0 1 2.0342,-0.646 T1.6345,-0.3585 1.512,0.0174 1.7891,0.1058 A1.8502,1.8502 0 0 1 -1.3974,1.987 ZM1.5974,-2.8602 T2.0168,-2.4958 2.8583,-1.4398 3.2805,-0.7484 A1.8789,1.8789 0 0 1 -0.0934,0.9062 T-0.0898,0.7441 -0.4613,0.251 -0.8363,-0.0798 A1.8475,1.8475 0 0 1 1.5974,-2.8602 ZM2.7258,1.5784 T2.0968,2.0356 0.7678,3.0034 0.0679,3.5139 A1.8219,1.8219 0 0 1 -2.1279,0.6061 T-1.4452,0.0726 -0.1506,-0.9407 0.4613,-1.4205 A1.8789,1.8789 0 0 1 2.7258,1.5784 Z" stroke-linecap="round" fill="#4f72fc"/></g></g><g transform="matrix(1, 0, 0, 1, 82.2176, 201.1913)" opacity="1"><g transform="scale(1)"><path d="M1.4971,-2.5271 T1.9742,-2.0298 2.4513,-1.5325 A2.0887,2.0887 0 0 1 -0.5025,1.4213 T-0.9998,0.9442 -1.4971,0.4671 A2.1172,2.1172 0 0 1 1.4971,-2.5271 ZM2.5288,1.3395 T2.2939,1.5923 2.0591,1.8451 A2.0768,2.0768 0 0 1 -1.0321,-0.9293 T-0.8061,-1.19 -0.58,-1.4508 A2.0887,2.0887 0 0 1 2.5288,1.3395 ZM-0.4309,2.3076 T-1.4145,1.7233 -3.0833,-0.6761 -2.4711,-4.7285 0.3862,-7.0902 1.946,-7.2147 A2.0288,2.0288 0 0 1 1.8559,-3.1581 T1.0385,-2.5086 0.8395,-1.6255 1.4579,-1.3918 A2.0768,2.0768 0 0 1 -0.4309,2.3076 ZM3.7973,-5.9076 T4.0875,-5.1675 4.3792,-2.186 2.4357,1.6589 0.4906,3.2622 A2.081,2.081 0 0 1 -1.0903,-0.5878 T-0.2706,-1.7878 0.2769,-3.7265 0.0047,-4.4652 A2.0288,2.0288 0 0 1 3.7973,-5.9076 ZM-1.5587,2.9942 T-2.0254,2.6094 -3.1112,0.9658 -3.7304,-0.2931 A2.066,2.066 0 0 1 0.1256,-1.7777 T0.1765,-1.2965 0.5932,-0.5675 0.959,-0.3198 A2.081,2.081 0 0 1 -1.5587,2.9942 ZM-3.3554,-2.3978 T-2.8729,-2.9172 -0.1604,-3.8893 2.0695,-4.3421 A2.0712,2.0712 0 0 1 1.3531,-0.2621 T0.9219,-0.42 0.1207,-0.1254 -0.2493,0.327 A2.066,2.066 0 0 1 -3.3554,-2.3978 ZM3.4882,-3.3663 T3.8261,-2.8093 4.311,-0.0655 4.458,2.1213 A2.113,2.113 0 0 1 0.344,1.155 T0.4534,0.4905 0.2486,-0.706 -0.0656,-1.2379 A2.0712,2.0712 0 0 1 3.4882,-3.3663 ZM3.4944,3.4462 T2.9253,3.7876 2.3562,4.1289 A2.1082,2.1082 0 0 1 0.1745,0.5209 T0.7411,0.1754 1.3077,-0.17 A2.113,2.113 0 0 1 3.4944,3.4462 ZM0.5004,4.2894 T-0.2741,3.9524 -1.9128,3.2434 -2.777,2.8713 A1.976,1.976 0 0 1 -1.343,-0.8113 T-0.4547,-0.501 1.2319,0.0848 2.0303,0.3604 A2.1082,2.1082 0 0 1 0.5004,4.2894 Z" stroke-linecap="round" fill="#4f72fc"/></g></g><g transform="matrix(1, 0, 0, 1, 120.3754, 164.0648)" opacity="1"><g transform="scale(1)"><path d="M-1.0013,-1.0013 T-0.7595,-1.2467 -0.5177,-1.492 A1.4211,1.4211 0 0 1 1.492,0.5177 T1.2467,0.7595 1.0013,1.0013 A1.416,1.416 0 0 1 -1.0013,-1.0013 ZM-0.8703,-0.0667 T-0.9821,-0.5503 -0.8974,-1.8474 -0.701,-2.6609 A1.4334,1.4334 0 0 1 1.9459,-1.5598 T1.7767,-1.4941 1.726,-1.168 1.8446,-0.9077 A1.4211,1.4211 0 0 1 -0.8703,-0.0667 ZM0.0936,-3.4426 T0.673,-3.6849 1.2523,-3.9271 A1.4561,1.4561 0 0 1 2.3269,-1.2204 T1.7392,-0.9993 1.1514,-0.7781 A1.4334,1.4334 0 0 1 0.0936,-3.4426 ZM2.9033,-3.5118 T3.2162,-3.1513 3.5291,-2.7907 A1.4702,1.4702 0 0 1 1.2803,-0.8964 T0.9781,-1.266 0.676,-1.6356 A1.4561,1.4561 0 0 1 2.9033,-3.5118 ZM3.1535,-0.5783 T2.6888,-0.359 0.4461,-0.401 -1.3318,-0.6622 A1.43,1.43 0 0 1 -0.7282,-3.4578 T0.2783,-3.1178 1.4704,-2.9433 1.6559,-3.1088 A1.4702,1.4702 0 0 1 3.1535,-0.5783 Z" stroke-linecap="round" fill="#4f72fc"/></g></g><g transform="matrix(1, 0, 0, 1, 159.5645, 121.7818)" opacity="1"><g transform="scale(1)"><path d="M1.5854,0 T1.5852,0.515 1.585,1.03 A1.585,1.585 0 0 1 -1.585,1.03 T-1.5852,0.515 -1.5854,0 A1.5854,1.5854 0 0 1 1.5854,0 ZM-1.4784,1.6014 T-1.6483,1.1059 -1.7512,-1.4478 0.4851,-4.325 3.7283,-4.5809 4.8021,-4.0177 A1.6333,1.6333 0 0 1 3.4481,-1.045 T2.1459,-1.0581 1.1611,-0.3064 1.4784,0.4586 A1.585,1.585 0 0 1 -1.4784,1.6014 ZM5.7584,-2.5367 T5.7644,-2.1817 5.7705,-1.8266 A1.6431,1.6431 0 0 1 2.4844,-1.8158 T2.4881,-2.1709 2.4918,-2.526 A1.6333,1.6333 0 0 1 5.7584,-2.5367 ZM5.2135,-0.5883 T4.7177,-0.1654 3.6701,0.7294 3.1182,1.2013 A1.6009,1.6009 0 0 1 1.0018,-1.2013 T1.5395,-1.6892 2.5592,-2.6156 3.0413,-3.0541 A1.6431,1.6431 0 0 1 5.2135,-0.5883 Z" stroke-linecap="round" fill="#4f72fc"/></g></g><g transform="matrix(1, 0, 0, 1, -47.7253, 329.0716)" opacity="1"><g transform="scale(1)"><path d="M-1.1633,-0.8704 T-0.4317,-1.8466 1.5471,-4.2742 3.815,-7.0318 5.988,-9.3499 8.1024,-11.6503 10.2078,-14.0325 12.4144,-16.1687 14.8746,-18.3745 17.5832,-20.888 20.1651,-23.7128 22.6522,-26.2817 25.2866,-28.6475 28.2646,-31.4001 30.8999,-33.8721 33.479,-36.0729 36.4818,-38.7451 39.3597,-41.3252 41.8836,-43.4147 44.0853,-45.3977 46.1781,-47.4346 48.2439,-49.4904 50.306,-51.5535 52.7278,-53.7187 55.259,-55.823 57.4583,-57.8064 59.5501,-59.8441 61.5203,-62.0379 63.6152,-64.2119 66.0908,-66.372 68.5611,-68.7744 71.0687,-71.5503 73.6192,-74.2078 76.2508,-76.5078 79.055,-78.8934 81.6839,-81.3323 84.3933,-83.746 86.9344,-85.9828 89.1217,-87.9984 91.2122,-90.0574 93.276,-92.1377 95.43,-94.5584 97.5111,-97.102 99.5164,-99.269 101.6446,-101.5869 104.2122,-104.2257 106.5044,-107.015 108.6677,-109.8502 111.3209,-112.8771 113.6542,-115.951 115.7457,-118.6586 117.8834,-120.9898 120.0734,-123.3587 122.6193,-126.0735 124.8847,-128.8597 126.8992,-131.6779 129.1338,-134.313 131.2572,-136.5472 133.2454,-138.9388 135.2805,-141.4717 137.4208,-143.7638 139.508,-145.8922 141.5742,-147.9752 144.0937,-150.1209 146.6011,-152.2731 149.1518,-154.9035 151.7734,-157.448 153.9059,-159.4091 155.9792,-161.4352 157.9063,-163.5723 160.0222,-165.7574 163.1462,-168.4001 166.1184,-170.9747 168.2707,-172.9348 170.8609,-174.981 173.4348,-177.0393 176.011,-179.1045 178.5786,-181.1676 180.7942,-183.3768 183.8209,-186.1093 186.7817,-188.5199 189.3683,-190.5041 192.3998,-193.1575 195.4859,-196.2572 198.134,-199.1877 200.2554,-201.6752 202.3318,-204.1636 204.3951,-206.7216 206.2927,-208.9882 208.3948,-211.5325 211.0195,-214.8252 213.9242,-218.0754 216.5777,-220.8844 218.624,-223.4539 220.7264,-226.0006 222.7989,-228.5754 224.8588,-231.1591 227.0571,-233.6713 229.095,-236.1783 231.169,-239.122 233.2184,-241.8044 235.6902,-244.1855 238.2377,-246.3427 240.3758,-248.2462 242.4088,-250.9573 243.3959,-252.698 A2.3105,2.3105 0 0 1 247.5041,-250.582 T247.122,-249.706 245.8888,-247.1989 243.9124,-244.4777 241.445,-242.2586 238.6331,-239.8095 236.1256,-236.9516 233.9553,-233.8114 231.4799,-230.7794 229.0526,-228.1135 226.9751,-225.5343 224.8669,-222.9287 222.1748,-219.7563 219.5405,-216.6054 217.0299,-213.933 214.5699,-211.146 212.4465,-208.5253 209.7647,-205.361 207.0512,-201.8664 204.8936,-199.2464 202.6259,-196.8424 199.804,-193.6708 196.694,-190.5813 193.7817,-187.9156 191.1276,-185.5939 188.5034,-183.7016 185.7559,-181.605 183.0717,-178.9737 180.419,-176.3706 177.8304,-174.312 175.2391,-172.2559 172.6152,-170.1885 170.2255,-168.388 167.8144,-166.3943 165.4813,-164.2418 162.9154,-161.6636 160.3737,-159.0677 158.2529,-156.9876 156.0025,-154.8667 153.28,-152.4869 150.147,-149.398 146.7255,-146.1385 143.8613,-143.6345 141.8079,-141.5701 139.7864,-139.4919 137.846,-137.3344 135.7374,-134.7783 133.5566,-132.2917 131.5656,-130.1499 129.4981,-127.4515 127.2624,-124.7152 124.769,-122.1741 122.2759,-119.3391 120.1367,-116.86 118.1994,-114.6718 116.1809,-112.0471 113.5299,-109.0185 110.9415,-105.9233 108.7376,-102.9584 106.1363,-100.3861 103.1048,-97.3272 100.2981,-94.0953 98.0953,-91.4859 95.4496,-88.8776 92.7442,-86.2782 90.4704,-84.1183 87.9875,-82.0844 85.5152,-79.8077 82.7421,-77.2283 79.7779,-74.8067 77.2296,-72.7252 74.7592,-70.532 72.2896,-67.9844 69.7224,-65.0191 67.1002,-62.6189 64.9189,-60.6418 62.9112,-58.5207 60.7815,-56.4447 58.5168,-54.3394 55.9899,-52.3041 53.6143,-50.3028 51.5441,-48.2426 49.4637,-46.1828 47.344,-44.1101 45.0825,-41.9989 42.5511,-39.9635 40.1737,-37.9821 38.102,-35.9724 35.7203,-33.9729 33.2338,-31.9046 31.0927,-29.7117 28.8939,-27.6617 26.2092,-25.6292 23.2683,-22.9772 20.5743,-19.9306 18.1148,-17.3365 15.8494,-15.2116 13.707,-13.0888 11.4804,-10.9519 8.7941,-8.2909 6.0956,-5.2351 3.7905,-2.436 1.8933,-0.1069 1.1633,0.8704 A1.4528,1.4528 0 0 1 -1.1633,-0.8704 Z" stroke-linecap="round" fill="#4f72fc"/></g></g><g transform="matrix(1, 0, 0, 1, -343.7063, 456.9519)" opacity="1"><g transform="scale(1)"><path d="M-0.6967,1.6278 T-2.3923,0.8996 -5.9572,0.2453 -9.1751,1.7911 -9.8084,4.5848 -7.1402,5.7767 -3.8355,3.9181 -2.4517,1.0332 -2.4196,-0.1231 A1.7022,1.7022 0 0 1 0.934,-0.7091 T1.0621,0.3422 0.5146,3.3841 -1.5472,6.9142 -4.6325,8.8746 -8.4436,9.2223 -12.1187,7.7763 -13.6889,4.0618 -12.0285,-0.3122 -8.1948,-2.9188 -4.3854,-3.2938 -1.0228,-2.3612 0.6967,-1.6278 A1.7707,1.7707 0 0 1 -0.6967,1.6278 ZM-0.23,1.2071 T-0.5423,1.303 -0.8546,1.399 A1.6971,1.6971 0 0 1 -1.877,-1.8376 T-1.5663,-1.9384 -1.2555,-2.0393 A1.7022,1.7022 0 0 1 -0.23,1.2071 ZM0.2577,0.2752 T0.0929,0.7634 0.7782,2.926 2.9318,6.4133 5.7346,10.2158 8.621,14.3837 10.825,19.1749 11.2104,24.2479 9.4142,28.6539 5.7808,32.1082 0.8711,34.5786 -3.3156,35.7278 -6.3766,35.7538 -9.3704,34.9112 -13.1579,32.7597 -16.265,30.0977 -17.9252,26.6591 -19.0608,23.2939 -19.3342,22.1754 A1.8764,1.8764 0 0 1 -15.7258,21.1446 T-15.1295,23.0051 -13.6694,26.3597 -10.8159,29.0298 -7.0663,30.8371 -2.9397,31.1712 1.5082,29.9042 4.7846,27.8158 6.7788,25.4241 7.5201,22.334 6.7157,18.4619 4.4791,14.3534 1.5652,10.284 -1.0496,6.3677 -2.7785,2.4665 -3.1529,-0.1238 -2.9893,-0.7137 A1.6971,1.6971 0 0 1 0.2577,0.2752 Z" stroke-linecap="round" fill="#e03131"/></g></g><g transform="matrix(1, 0, 0, 1, -315.8614, 441.4825)" opacity="1"><g transform="scale(1)"><path d="M1.1606,1.1606 T-0.3065,2.6212 -3.7235,6.289 -6.9244,10.1258 -9.3181,13.3461 -11.2432,17.4038 -11.8173,21.659 -10.0288,23.9414 -7.0579,24.8857 -4.151,25.8212 -2.6349,26.3064 A1.5997,1.5997 0 0 1 -3.5451,29.3736 T-6.4284,28.5908 -10.7708,27.4045 -13.8497,25.1958 -15.4381,21.2486 -15.0156,17.506 -13.916,14.4302 -12.0118,11.3292 -9.478,8.0022 -6.1112,4.0376 -2.6213,0.3066 -1.1606,-1.1606 A1.6414,1.6414 0 0 1 1.1606,1.1606 Z" stroke-linecap="round" fill="#e03131"/></g></g><g transform="matrix(1, 0, 0, 1, -299.3607, 451.7954)" opacity="1"><g transform="scale(1)"><path d="M1.3727,1.544 T-0.809,3.5099 -4.6081,6.9916 -7.5794,9.7754 -10.2274,12.0262 -13.9305,14.9249 -16.3394,16.8406 A1.8155,1.8155 0 0 1 -18.7206,14.0994 T-17.5149,12.9658 -14.0767,9.9039 -10.4864,6.6672 -7.4584,3.8437 -3.5805,0.3924 -1.3727,-1.544 A2.066,2.066 0 0 1 1.3727,1.544 Z" stroke-linecap="round" fill="#e03131"/></g></g><g transform="matrix(1, 0, 0, 1, -313.7988, 453.858)" opacity="1"><g transform="scale(1)"><path d="M2.3714,-1.0736 T3.361,0.1364 6.0449,3.4358 9.4048,7.395 12.5438,10.4707 15.5633,12.234 17.1096,12.7915 A1.7576,1.7576 0 0 1 15.8904,16.0885 T14.9246,15.7522 12.1295,14.3882 8.537,11.7053 5.7911,8.8727 3.2124,5.6151 0.6525,2.3043 -0.3114,1.0736 A1.7181,1.7181 0 0 1 2.3714,-1.0736 Z" stroke-linecap="round" fill="#e03131"/></g></g><g transform="matrix(1, 0, 0, 1, -291.1103, 443.5451)" opacity="1"><g transform="scale(1)"><path d="M1.7185,-0.8603 T2.6622,1.1074 4.3576,4.5962 5.569,7.5414 6.6389,11.5057 7.1183,17.5454 6.5334,22.6056 5.018,26.4051 1.6827,30.1257 -2.6321,31.1676 -4.6731,30.7278 A1.926,1.926 0 0 1 -3.5869,27.0322 T-1.6338,26.8219 1.2145,24.7738 2.5573,21.5715 3.2777,17.6128 3.1997,13.5967 2.34,9.9618 1.066,6.2392 -0.7087,2.7949 -1.7185,0.8603 A1.9218,1.9218 0 0 1 1.7185,-0.8603 Z" stroke-linecap="round" fill="#e03131"/></g></g><g transform="matrix(1, 0, 0, 1, -271.5158, 455.9206)" opacity="1"><g transform="scale(1)"><path d="M0.3209,-1.9284 T1.7895,-1.7156 4.9155,-1.4218 9.527,-1.2085 12.4811,-1.0762 A2.1086,2.1086 0 0 1 12.2789,3.1362 T10.7086,3.0564 7.7023,2.9027 4.4319,2.6529 1.1383,2.2027 -0.3209,1.9284 A1.9549,1.9549 0 0 1 0.3209,-1.9284 Z" stroke-linecap="round" fill="#e03131"/></g></g><g transform="matrix(1, 0, 0, 1, -271.5158, 463.1396)" opacity="1"><g transform="scale(1)"><path d="M0.8119,-1.6278 T1.7979,-1.169 4.2817,-0.6954 7.2762,-0.9656 9.7784,-1.5371 10.7839,-1.8238 A1.9067,1.9067 0 0 1 11.8961,1.8238 T10.9017,2.1469 8.0516,2.8467 3.6596,2.9411 0.1556,2.1433 -0.8119,1.6278 A1.8191,1.8191 0 0 1 0.8119,-1.6278 Z" stroke-linecap="round" fill="#e03131"/></g></g><g transform="matrix(1, 0, 0, 1, -223.045, 454.8893)" opacity="1"><g transform="scale(1)"><path d="M1.2802,2.9488 T-0.1683,3.9412 -2.6924,6.0523 -5.2345,8.3984 -8.307,11.3351 -11.1071,14.231 -13.6554,16.2137 -16.243,17.6862 -17.4763,18.3627 A2.155,2.155 0 0 1 -19.6437,14.6373 T-17.6187,13.4261 -14.4967,10.9931 -11.5828,7.8344 -8.4442,4.8379 -5.6807,2.4058 -2.7596,0.0722 -1.2802,-0.8888 A2.3067,2.3067 0 0 1 1.2802,2.9488 Z" stroke-linecap="round" fill="#e03131"/></g></g><g transform="matrix(1, 0, 0, 1, -242.6396, 456.9519)" opacity="1"><g transform="scale(1)"><path d="M1.783,-1.4271 T2.7635,-0.2135 6.0944,2.8753 9.6673,5.5558 12.2914,7.3085 15.9616,9.5974 19.4867,11.6612 20.743,12.3833 A2.3578,2.3578 0 0 1 18.437,16.4967 T15.9874,15.1591 12.2593,13.0445 9.5703,11.3134 6.8197,9.4147 3.947,7.214 1.2886,4.9195 -0.81,2.6541 -1.783,1.4271 A2.2838,2.2838 0 0 1 1.783,-1.4271 Z" stroke-linecap="round" fill="#e03131"/></g></g><g transform="matrix(1, 0, 0, 1, -223.045, 437.3573)" opacity="1"><g transform="scale(1)"><path d="M-0.2207,-2.2092 T2.2463,-2.4403 6.4353,-2.2376 9.0051,-1.1252 9.853,-0.4465 A2.179,2.179 0 0 1 6.7747,2.6382 T5.9073,2.1676 2.6303,1.9531 0.2207,2.2092 A2.2202,2.2202 0 0 1 -0.2207,-2.2092 ZM10.3636,1.8348 T10.0976,2.5544 8.9295,4.8517 7.3479,7.604 6.6684,8.7786 A2.1455,2.1455 0 0 1 2.713,7.115 T3.4918,5.7471 5.0159,3.0835 6.0126,1.0724 6.264,0.3569 A2.179,2.179 0 0 1 10.3636,1.8348 ZM6.5024,6.7975 T6.7841,7.2798 9.0046,7.8187 13.3068,7.9334 18.1608,8.0895 20.6515,8.1874 A2.1227,2.1227 0 0 1 20.6085,12.4326 T19.2909,12.455 15.4436,12.4786 10.473,12.3139 5.883,11.2574 3.3065,9.7316 2.8791,9.0962 A2.1455,2.1455 0 0 1 6.5024,6.7975 Z" stroke-linecap="round" fill="#e03131"/></g></g><g transform="matrix(1, 0, 0, 1, 40.9659, 399.1995)" opacity="1"><g transform="scale(1)"><path d="M1.3528,0 T1.3584,1.7075 1.3651,5.8947 0.9888,10.7572 0.5095,14.9773 0.3773,18.9204 0.3375,23.1019 0.3306,27.3738 0.3443,31.7987 0.3656,36.1353 0.3854,40.8062 0.3967,45.5701 0.397,50.6223 0.0129,55.8209 -0.4806,60.9805 -0.6241,65.9559 -0.6547,70.4479 -0.6446,74.7872 -0.6283,78.6002 -0.611,83.0105 -0.6008,87.9691 -0.974,92.403 -1.4481,96.0086 -1.9612,99.3916 -2.4831,103.1596 -2.6204,107.0901 -2.6558,110.7912 -2.6641,114.1831 -2.294,118.5101 -1.813,123.1793 -1.6733,127.796 -1.6347,132.6848 -1.3863,137.5107 -0.9367,142.4373 -0.6699,146.9062 -0.2277,150.9315 0.2713,155.7834 0.6408,160.7908 1.1101,164.9002 1.3828,169.2943 1.4583,173.8789 1.4774,177.8854 1.4839,181.6058 1.4898,185.4904 1.49,189.5486 1.4848,193.4114 1.4774,197.0917 1.2035,201.1338 0.7502,205.2362 0.5125,209.1845 0.4448,213.2601 0.4334,217.3727 0.4395,221.4942 0.4449,225.6183 0.446,229.4994 0.4399,233.3131 0.4248,237.5952 0.4102,241.1156 0.4049,242.35 A1.4349,1.4349 0 0 1 -2.4649,242.35 T-2.4702,241.1155 -2.4848,237.5952 -2.4998,233.313 -2.5057,229.4992 -2.5038,225.6175 -2.4954,221.4916 -2.4785,217.3633 -2.4513,213.2264 -2.3799,209.0628 -2.1167,204.8003 -1.6907,200.7933 -1.4774,197.0917 -1.4849,193.4115 -1.4903,189.5488 -1.491,185.4912 -1.4882,181.6093 -1.4929,177.8958 -1.514,173.912 -1.5836,169.4277 -1.833,165.302 -2.3193,161.1232 -2.7117,155.9888 -3.202,151.1367 -3.6433,147.0338 -3.8791,142.7838 -4.3154,139.0126 -4.5698,135.3011 -4.5859,130.546 -4.652,125.5301 -4.8634,121.3101 -5.3071,117.723 -5.5873,114.1766 -5.5735,110.771 -5.5293,107.0188 -5.3796,102.8892 -4.8684,99.0914 -4.3664,95.7634 -3.8899,92.2275 -3.519,87.9528 -3.5084,83.0101 -3.4895,78.5989 -3.4676,74.7829 -3.4371,70.4294 -3.3944,65.9071 -3.3385,62.2405 -3.2428,59.3198 -2.8168,55.6695 -2.457,50.613 -2.4567,45.57 -2.4452,40.8061 -2.425,36.1349 -2.4021,31.7974 -2.3828,27.3697 -2.3693,23.0877 -2.3358,18.8496 -2.2039,14.7617 -1.7327,10.5958 -1.3651,5.8891 -1.3584,1.7075 -1.3528,0 A1.3528,1.3528 0 0 1 1.3528,0 Z" stroke-linecap="round" fill="#e03131"/></g></g><g transform="matrix(1, 0, 0, 1, -114.7593, 602.3641)" opacity="1"><g transform="scale(1)"><path d="M-0.1706,-1.5367 T2.0262,-1.7621 5.8918,-2.1114 10.4014,-2.3479 14.7436,-2.4906 19.0665,-2.3071 24.2995,-1.9367 28.9665,-1.7451 33.4713,-1.7096 37.8329,-1.7228 42.023,-1.7524 46.5379,-1.7981 51.3868,-1.8514 56.7028,-1.8958 61.1188,-1.9291 64.1607,-1.9545 68.1531,-1.9878 73.1627,-2.0276 78.5233,-2.0624 83.7354,-2.0933 87.7471,-2.3199 91.8579,-2.7803 97.1433,-3.0987 102.1884,-3.1883 106.7402,-3.4428 111.2481,-4.0969 114.9398,-4.7109 117.9134,-4.9961 121.4679,-5.156 125.5154,-4.8589 129.6054,-4.4024 134.1629,-4.2872 139.1648,-4.2721 143.5342,-4.2914 147.3551,-4.3131 151.7698,-4.3399 156.9628,-4.3727 162.3776,-4.4059 166.4627,-4.16 169.9778,-3.7311 173.8823,-3.133 178.1518,-2.6104 182.0213,-2.505 185.8498,-2.4835 190.1188,-2.6865 194.2787,-3.122 198.1325,-3.3851 202.3187,-3.8113 207.6337,-4.3106 212.6983,-4.4462 217.2144,-4.474 222.0682,-4.4755 226.2471,-4.4717 230.1282,-4.4623 234.1758,-4.8135 238.302,-5.2785 242.957,-5.4085 247.4657,-5.434 251.9415,-5.4339 256.1634,-5.4315 260.3153,-5.4284 265.3861,-5.1632 270.8982,-4.4324 274.9942,-3.7476 278.8562,-3.4634 283.5004,-3.3781 287.904,-3.3548 292.479,-3.3463 297.1014,-3.3412 301.7391,-3.3383 306.4936,-3.3303 311.0502,-3.3047 315.7954,-3.2465 319.4565,-3.1858 320.73,-3.1644 A2.1344,2.1344 0 0 1 320.73,1.1044 T319.4565,1.1258 315.7954,1.1865 311.0502,1.2447 306.4935,1.2702 301.7386,1.2779 297.1001,1.2797 292.4731,1.281 287.8872,1.2758 283.4396,1.2497 278.5939,1.1573 274.174,0.8014 269.9053,0.1061 265.0001,-0.5295 260.3159,-0.7509 256.1653,-0.7463 251.948,-0.7383 247.4929,-0.7178 243.0537,-0.6699 238.7005,-0.5359 234.5252,-0.0501 230.1544,0.3435 224.8377,0.3576 219.6095,0.3721 215.0697,0.4033 210.3268,0.4884 205.3108,0.7464 201.3357,1.2312 198.356,1.5537 194.9842,1.7508 190.6523,2.1823 185.8008,2.4222 180.5006,2.3147 175.1747,1.941 171.0862,1.3498 167.2192,0.6766 162.3686,0.2859 156.9626,0.2525 151.7692,0.2193 147.3529,0.191 143.5276,0.164 139.1425,0.1254 134.078,0.071 129.2024,-0.0641 125.2157,-0.5088 121.6366,-0.7775 117.1559,-0.4906 112.2318,0.1874 107.1452,0.9105 102.2263,1.1818 97.3042,1.2313 92.5901,1.4139 88.3471,1.8328 83.7354,2.0933 78.5233,2.0624 73.1627,2.0276 68.1531,1.9878 64.1607,1.9545 61.1188,1.9291 58.1244,1.9055 53.9093,1.8737 48.9153,1.8271 44.3401,1.7744 39.9332,1.7283 35.6714,1.6849 31.0509,1.6171 26.5125,1.4548 22.8918,1.1837 18.8209,0.7878 14.8001,0.5519 10.5551,0.6534 6.1747,0.8803 2.3633,1.275 0.1706,1.5367 A1.5462,1.5462 0 0 1 -0.1706,-1.5367 Z" stroke-linecap="round" fill="#e03131"/></g></g><g transform="matrix(1, 0, 0, 1, 40.9659, 601.3328)" opacity="1"><g transform="scale(1)"><path d="M-1.4383,-0.3497 T-1.1951,-1.3517 -0.952,-2.3538 A1.4811,1.4811 0 0 1 1.9263,-1.654 T1.6823,-0.6522 1.4383,0.3497 A1.4802,1.4802 0 0 1 -1.4383,-0.3497 ZM1.9167,-2.3911 T2.0467,-1.9176 2.1767,-1.4442 A1.4844,1.4844 0 0 1 -0.6889,-0.6679 T-0.8156,-1.1423 -0.9424,-1.6166 A1.4811,1.4811 0 0 1 1.9167,-2.3911 ZM0.7657,0.4282 T0.3462,0.4349 -0.5408,0.4491 -1.0082,0.4565 A1.4866,1.4866 0 0 1 -1.0518,-2.5165 T-0.5844,-2.5228 0.3026,-2.5347 0.7222,-2.5403 A1.4844,1.4844 0 0 1 0.7657,0.4282 Z" stroke-linecap="round" fill="#e03131"/></g></g><g transform="matrix(1, 0, 0, 1, 78.0924, 562.1437)" opacity="1"><g transform="scale(1)"><path d="M1.6902,-1.8751 T2.1932,-0.605 2.478,1.6973 2.2598,2.7295 A1.9141,1.9141 0 0 1 -1.2329,1.1621 T-0.9901,1.1673 -1.2188,0.4938 -1.6902,-0.1849 A1.8897,1.8897 0 0 1 1.6902,-1.8751 ZM-1.1561,2.8819 T-1.2764,2.6648 -1.3968,2.4476 A1.9116,1.9116 0 0 1 1.938,0.5776 T2.0605,0.7936 2.1831,1.0096 A1.9141,1.9141 0 0 1 -1.1561,2.8819 ZM-0.9635,0.0527 T-0.5276,-0.3132 0.6173,-1.0254 1.3263,-1.3717 A1.9325,1.9325 0 0 1 2.7742,2.2119 T2.55,2.2427 1.9152,2.623 1.5047,2.9725 A1.9116,1.9116 0 0 1 -0.9635,0.0527 ZM3.028,-1.2468 T3.2763,-1.1067 3.5246,-0.9665 A1.942,1.942 0 0 1 1.5595,2.3837 T1.316,2.2354 1.0725,2.087 A1.9325,1.9325 0 0 1 3.028,-1.2468 ZM4.1815,1.7495 T3.8191,2.3097 3.0533,3.4942 2.6499,4.1185 A1.9189,1.9189 0 0 1 -0.5899,2.0615 T-0.1965,1.4308 0.5498,0.2339 0.9026,-0.3324 A1.942,1.942 0 0 1 4.1815,1.7495 Z" stroke-linecap="round" fill="#e03131"/></g></g><g transform="matrix(1, 0, 0, 1, 120.3754, 442.5138)" opacity="1"><g transform="scale(1)"><path d="M -1.03 0 m -2.633441917710341, 0 a 2.633441917710341,2.633441917710341 0 1,1 5.266883835420682,0 a 2.633441917710341,2.633441917710341 0 1,1 -5.266883835420682,0" stroke-linecap="round" fill="#e03131"/></g></g><g transform="matrix(1, 0, 0, 1, -37.4124, 441.4825)" opacity="1"><g transform="scale(1)"><path d="M-1.8621,1.8621 T-2.3771,1.3471 -2.8921,0.8321 A2.6334,2.6334 0 0 1 0.8321,-2.8921 T1.3471,-2.3771 1.8621,-1.8621 A2.6334,2.6334 0 0 1 -1.8621,1.8621 Z" stroke-linecap="round" fill="#e03131"/></g></g><g transform="matrix(1, 0, 0, 1, 0.7455, 561.1124)" opacity="1"><g transform="scale(1)"><path d="M 0 0 m -2.633441917710341, 0 a 2.633441917710341,2.633441917710341 0 1,1 5.266883835420682,0 a 2.633441917710341,2.633441917710341 0 1,1 -5.266883835420682,0" stroke-linecap="round" fill="#e03131"/></g></g><g transform="matrix(1, 0, 0, 1, 39.9346, 599.2702)" opacity="1"><g transform="scale(1)"><path d="M1.03,-1.5164 T2.2468,-1.5153 5.4359,-2.0839 9.1323,-3.5028 12.7678,-5.3748 15.9489,-7.3446 18.3734,-9.2199 20.5241,-11.2129 22.5425,-13.3178 24.5107,-15.5323 26.6612,-18.0835 28.7439,-20.6475 30.614,-23.2868 32.6557,-26.4336 34.7148,-29.5422 36.749,-32.4661 38.8032,-35.5131 40.817,-39.1116 42.8903,-43.2443 44.6009,-46.7703 45.8819,-49.8175 47.0835,-53.0116 48.4426,-56.8464 49.8338,-60.9638 50.9596,-64.6637 52.4095,-68.7104 53.9645,-72.6327 55.1357,-76.0581 56.2858,-79.8434 57.4693,-83.4554 58.5376,-86.7745 59.5731,-90.6558 60.8675,-95.2054 62.3396,-99.4777 63.5927,-102.9425 64.6724,-106.4833 65.587,-110.5097 66.5616,-114.9701 67.6809,-119.2775 68.7395,-123.2411 69.7649,-127.518 70.7853,-131.7708 71.4357,-135.4862 71.9904,-139.27 73.1645,-143.7445 74.2152,-147.9022 74.9653,-151.5377 75.5249,-156.104 75.9218,-161.3131 76.4005,-165.7446 76.9117,-169.9637 77.4305,-174.4792 77.682,-178.7764 77.7525,-182.9595 77.7552,-187.6002 77.7287,-192.4985 77.7226,-197.4537 77.7519,-201.6183 77.7707,-203.1601 A1.6393,1.6393 0 0 1 81.0493,-203.1599 T81.0679,-201.618 81.0962,-197.4528 81.0869,-192.4955 81.0488,-187.5904 81.0097,-182.9247 80.9298,-178.657 80.6397,-173.9983 80.133,-169.4763 79.6307,-165.2886 79.1386,-160.9053 78.8184,-157.2177 78.4502,-153.0669 77.7435,-148.7585 76.6977,-144.9133 75.5899,-140.6856 74.8395,-136.884 74.2212,-132.8484 73.4069,-128.7502 72.3913,-124.8362 71.33,-120.7838 70.2182,-116.5329 68.9602,-112.1525 67.947,-107.8423 67.0407,-103.7583 65.8377,-100.1151 64.358,-96.2826 62.9853,-92.0981 61.9039,-87.7544 60.8003,-83.9239 59.7087,-80.8267 58.4109,-77.2008 57.0897,-73.4796 55.7725,-69.6161 54.3046,-65.5809 53.0198,-61.753 51.8042,-57.8517 50.5553,-53.7476 49.3868,-50.1738 48.0035,-47.0986 46.399,-43.7922 44.5474,-39.8149 42.4069,-35.5286 40.2868,-32.1137 38.2076,-29.0592 36.2105,-26.2959 34.1768,-23.2057 32.0854,-19.9351 29.8787,-16.9879 27.7161,-14.3626 25.7331,-12.2272 23.283,-9.6893 20.4782,-7.0532 17.5896,-4.8298 14.23,-2.7564 10.3868,-0.794 5.9318,0.8527 2.2539,1.5153 1.03,1.5164 A1.5164,1.5164 0 0 1 1.03,-1.5164 Z" stroke-linecap="round" fill="#e03131"/></g></g><g transform="matrix(1, 0, 0, 1, -47.7253, 394.043)" opacity="1"><g transform="scale(1)"><path d="M1.3807,0 T1.3773,1.4639 1.3693,5.0884 1.7289,9.1306 2.4075,12.6614 2.9881,16.3404 3.686,20.3327 4.4622,24.2589 5.0543,27.7639 5.7262,31.0428 6.4946,34.6856 7.3003,38.2134 8.0675,41.9527 8.8221,46.0611 9.4023,49.5441 9.9448,52.7388 10.8511,56.4106 11.6969,60.0402 12.7351,63.8403 13.9298,67.5908 14.9477,70.7668 16.0087,74.7239 17.1545,79.33 18.1937,83.3985 19.1351,86.8737 20.1463,90.1661 21.1949,93.7025 22.2512,97.5705 23.2893,101.2329 24.3245,104.5727 25.3741,108.1205 26.4246,111.6041 27.4606,114.8924 28.4914,118.1413 29.5302,121.5697 30.7343,124.933 32.0478,128.3903 33.3704,132.1442 34.6249,135.5726 36.0295,139.0609 37.749,142.7604 39.4336,146.3579 41.0302,149.954 42.5913,153.5338 44.2311,156.9575 45.6735,160.0723 47.0824,162.9972 48.9085,165.9978 50.9942,169.4004 53.1502,172.3695 55.4865,174.6073 57.8751,176.8265 59.9771,179.1649 61.7635,181.7285 63.3956,184.3075 65.3642,186.8995 67.9931,189.7104 70.5211,192.2445 72.672,194.1609 75.1338,196.1582 77.5955,198.3129 80.0511,199.9368 83.0105,200.6233 86.5261,201.0546 89.9022,201.5269 92.8422,201.5697 95.3715,201.2686 96.4453,201.0756 A2.1423,2.1423 0 0 1 97.4347,205.2444 T95.137,205.8689 91.0831,206.3596 86.8446,205.7803 82.291,205.1165 78.7134,204.2057 75.9067,202.5435 73.5386,200.5913 70.9908,198.4878 68.4841,196.3251 66.4357,194.2401 64.3967,192.1268 62.3849,189.8998 60.2929,187.0563 58.2051,183.559 56.1826,180.711 54.0532,178.6086 51.4227,176.1642 48.8343,173.0296 46.7783,169.689 44.8117,166.4436 43.0559,162.9734 41.6782,159.4689 40.4186,156.3432 38.7709,153.0234 37.2363,149.4327 35.6753,145.9196 33.7581,141.8895 32.2696,138.2475 31.1178,135.1829 29.7101,131.4616 28.2601,127.7983 27.1332,124.3181 26.1038,120.8482 25.0644,117.6266 24.0642,114.2012 23.0552,110.6806 22.0164,107.2821 21.0136,103.8176 19.9917,100.1654 18.9598,96.4038 17.9493,92.8326 16.9588,89.38 15.9816,85.7847 14.9635,81.7023 13.9459,77.7219 13.0397,74.5366 12.1147,71.4714 11.0842,68.2476 10.0821,65.2267 9.1388,62.32 8.4692,58.9132 7.8071,55.1327 7.0283,51.5921 6.491,48.2782 5.8995,44.5194 5.0287,40.6009 4.0967,36.9111 3.4464,33.3211 2.7075,29.2688 1.7828,24.8291 0.9571,20.6498 0.3368,16.9127 -0.2258,13.2916 -0.985,9.3142 -1.3693,5.0986 -1.3773,1.4639 -1.3807,0 A1.3807,1.3807 0 0 1 1.3807,0 Z" stroke-linecap="round" fill="#e03131"/></g></g></svg>