<svg xmlns="http://www.w3.org/2000/svg" direction="ltr" width="735.9586637548625" height="336.61138304872054" viewBox="-362.10762198933975 767.1740013125108 735.9586637548625 336.61138304872054" stroke-linecap="round" stroke-linejoin="round" style="background-color: transparent;"><defs/><g transform="matrix(1, 0, 0, 1, -252.4852, 854.3612)" opacity="1"><g transform="scale(1)"><path d="M-0.7852,1.3079 T-2.1126,0.5018 -5.8252,-1.6014 -10.1109,-4.0792 -13.8859,-5.4684 -17.3794,-5.8254 -21.1623,-5.8417 -25.0942,-5.2928 -28.5624,-4.3577 -31.6013,-3.1191 -34.4287,-1.1606 -37.0231,1.1501 -39.2484,3.3378 -41.6944,5.4562 -44.6288,7.439 -47.4559,9.1734 -49.3012,11.2998 -50.0195,14.1869 -49.7355,17.6628 -48.676,20.9591 -47.1224,24.2403 -45.0829,27.9783 -43.0866,31.2363 -41.1888,33.8624 -39.1122,36.5169 -37.0667,39.172 -35.0439,41.6685 -32.6545,44.8966 -30.1662,48.495 -28.2877,51.8922 -27.0764,55.1955 -26.5463,58.3959 -26.3942,61.6349 -26.3394,65.1044 -26.6262,68.9535 -27.4313,72.7622 -28.5125,75.9258 -30.1676,78.6444 -32.44,80.8312 -34.9345,82.5567 -37.6161,84.2412 -40.857,85.966 -44.5705,87.7468 -48.2224,89.2959 -51.2324,90.8481 -54.074,92.822 -57.2857,95.3795 -60.5336,98.4584 -64.1436,102.0206 -67.4415,105.9442 -69.9859,110.0967 -71.9677,114.5089 -73.2137,118.1283 -73.9634,121.8902 -74.6113,125.7348 -75.1994,129.6477 -75.4766,133.621 -75.1558,137.6028 -74.2769,142.7868 -73.0089,147.6597 -71.2358,152.0337 -69.1476,156.0368 -66.5796,159.9066 -63.2804,164.0793 -59.4014,167.9219 -55.258,171.0326 -51.9635,173.3533 -48.4298,175.5817 -43.1071,178.3173 -38.4369,180.4804 -34.1121,181.9954 -28.7053,183.4469 -23.532,184.35 -18.7554,184.3141 -13.7329,183.5105 -9.074,182.0902 -5.5685,180.4524 -1.7193,178.3832 2.1644,176.2303 5.6961,173.8544 9.3898,170.5161 12.7355,166.5929 15.3017,162.5169 16.9351,158.4848 18.2152,154.1465 18.9587,149.4227 19.1481,144.8419 19.1997,140.9819 19.211,137.2074 19.2097,133.1878 19.2058,128.55 19.1991,123.1918 19.1918,117.9046 19.1858,113.3087 19.507,109.0968 20.0269,104.9194 20.677,101.0603 22.0567,97.1958 24.1414,93.707 26.5386,91.3496 29.3162,89.3965 32.501,87.2375 36.0475,84.7651 40.1658,81.6095 44.0333,77.9863 47.1562,74.6415 49.7697,71.5725 51.9531,68.2366 54.1099,64.3347 55.8862,59.7371 57.5778,54.603 59.1709,50.6131 60.4159,46.961 61.3757,42.8542 61.7374,39.3894 61.8542,36.0626 61.2933,33.0781 59.9993,30.4244 57.7507,28.3159 54.3273,27.3529 50.5437,27.1562 46.6511,27.1339 42.719,27.1382 38.973,27.537 35.7055,28.0616 32.6916,28.601 29.0969,29.1645 25.1198,29.0096 21.6379,27.6188 19.2314,24.9147 18.1787,21.0507 17.5846,17.1069 17.0373,13.4897 16.0009,9.5492 14.5296,5.8493 12.408,3.3462 8.9752,2.4292 4.8452,2.8781 2.6156,3.4157 A2.3147,2.3147 0 0 1 1.8844,-1.1557 T3.4143,-1.3713 6.6851,-1.9132 10.1321,-2.1175 13.4038,-1.4219 16.1434,0.1093 18.3464,3.1477 19.9803,6.6572 21.0482,9.6613 21.6315,12.7745 22.1991,15.7694 22.6918,18.712 23.4079,21.9344 25.464,24.1166 28.7794,24.4129 32.3276,23.8592 35.7112,23.3083 39.1242,22.7902 42.7211,22.4234 46.6693,22.4369 50.6415,22.4774 54.9085,22.7699 59.1292,24.0003 62.1328,25.9167 63.9674,28.1688 65.2733,30.8349 66.1546,34.0718 66.4389,37.7376 66.1925,41.5383 65.3469,45.9196 63.8343,50.919 62.4319,55.019 61.0469,58.7526 59.2295,63.7909 57.0765,68.7321 54.687,72.6033 52.0549,76.0443 48.8977,79.5834 45.136,83.1855 41.9865,85.9923 39.715,87.9141 36.8929,89.9322 33.6107,92.104 30.3246,94.2038 27.3791,96.9206 25.6287,100.2259 24.8643,103.2655 24.3085,106.5236 23.8275,109.8037 23.6142,113.3087 23.6081,117.9046 23.6017,121.9107 23.5956,126.0884 23.5899,131.1994 23.5821,135.4542 23.569,139.0576 23.5317,142.7385 23.407,147.188 23.1848,151.2168 22.4421,155.0087 21.0626,159.6651 19.7873,163.3843 18.459,165.9389 16.0222,169.3072 13.4232,172.627 10.2925,175.4317 6.8947,178.1439 4.3422,179.845 1.6732,181.4271 -0.9836,182.9845 -3.5814,184.1847 -6.3025,185.6014 -10.3006,186.982 -15.5991,187.9803 -19.8525,188.646 -22.9365,188.7437 -27.0208,188.0238 -32.4195,186.6947 -36.8565,185.5392 -40.2031,184.367 -44.957,182.1635 -49.4608,179.9821 -52.1868,178.4634 -55.585,176.136 -60.0387,172.7996 -63.4842,170.0261 -65.716,167.8974 -68.3783,164.5258 -71.4353,160.1776 -74.0238,155.8939 -76.1785,151.2883 -77.7292,146.2495 -78.7425,140.9143 -79.4665,136.5937 -79.6716,133.4315 -79.5187,130.3188 -78.9158,126.3617 -78.2789,122.3875 -77.4818,118.3541 -76.4254,114.2216 -74.8269,110.3026 -72.2282,105.6967 -69.9307,102.1972 -68.0023,99.9971 -65.2814,97.3043 -61.8747,94.003 -58.3547,90.8891 -54.99,88.3591 -51.4717,86.3356 -47.7901,84.672 -44.489,83.3549 -41.2414,81.707 -37.796,79.6544 -34.5897,77.4902 -32.2701,74.6869 -30.9195,71.3919 -30.2354,68.3533 -30.0062,65.1283 -30.0181,61.7212 -30.1957,58.2217 -30.9578,54.7899 -32.348,51.8804 -34.0981,48.8348 -36.2271,45.4814 -38.5244,42.5911 -40.7914,39.9592 -42.8053,37.0784 -44.9196,34.0089 -47.1477,30.5539 -49.3387,26.88 -51.2113,23.6926 -52.3635,20.8177 -53.1488,17.4478 -53.3198,13.781 -52.6631,10.5371 -50.7512,7.8901 -48.0222,5.6875 -45.2626,3.9413 -42.7208,2.0618 -40.451,-0.165 -38.1133,-2.3672 -35.0532,-4.5999 -31.4317,-6.6682 -27.8296,-8.0958 -23.7775,-8.9345 -20.134,-9.1783 -17.0067,-8.9102 -11.8761,-7.7106 -6.4184,-5.4877 -3.1449,-3.5912 -0.5504,-2.1005 0.7852,-1.3079 A1.5255,1.5255 0 0 1 -0.7852,1.3079 Z" stroke-linecap="round" fill="#e03131"/></g></g><g transform="matrix(1, 0, 0, 1, -241.7804, 911.9381)" opacity="1"><g transform="scale(1)"><path d="M 0 0 m -2.633441917710341, 0 a 2.633441917710341,2.633441917710341 0 1,1 5.266883835420682,0 a 2.633441917710341,2.633441917710341 0 1,1 -5.266883835420682,0" stroke-linecap="round" fill="#e03131"/></g></g><g transform="matrix(1, 0, 0, 1, -239.9131, 912.0479)" opacity="1"><g transform="scale(1)"><path d="M 0 0 m -2.633441917710341, 0 a 2.633441917710341,2.633441917710341 0 1,1 5.266883835420682,0 a 2.633441917710341,2.633441917710341 0 1,1 -5.266883835420682,0" stroke-linecap="round" fill="#4dabf7"/></g></g><g transform="matrix(1, 0, 0, 1, -241.6706, 912.4873)" opacity="1"><g transform="scale(1)"><path d="M-1.4694,1.1021 T-1.7768,0.678 -2.369,-0.3117 -2.6538,-0.8773 A1.8097,1.8097 0 0 1 0.6084,-2.4453 T0.7219,-2.1821 1.1524,-1.5105 1.4694,-1.1021 A1.8368,1.8368 0 0 1 -1.4694,1.1021 ZM-2.1559,-3.0723 T-1.8697,-3.3024 -1.5835,-3.5324 A1.8101,1.8101 0 0 1 0.6833,-0.7099 T0.3969,-0.4801 0.1104,-0.2503 A1.8097,1.8097 0 0 1 -2.1559,-3.0723 ZM1.3128,-2.5317 T1.447,-1.8813 0.7797,0.1274 -1.6995,0.5771 -3.3772,-0.3313 A1.8212,1.8212 0 0 1 -0.0583,-1.8319 T-1.0491,-1.4736 -2.1265,-1.4129 -2.213,-1.7106 A1.8101,1.8101 0 0 1 1.3128,-2.5317 ZM-2.8677,-2.4938 T-2.1631,-2.9678 -0.013,-2.6885 0.7644,-0.1695 0.0962,1.5962 A1.8553,1.8553 0 0 1 -2.2748,-1.2582 T-1.4005,-0.5804 -0.547,0.2139 -0.5678,0.3306 A1.8212,1.8212 0 0 1 -2.8677,-2.4938 ZM-2.6147,1.2251 T-2.8279,0.9193 -3.041,0.6136 A1.8577,1.8577 0 0 1 0.0137,-1.5013 T0.2249,-1.1942 0.4361,-0.8871 A1.8553,1.8553 0 0 1 -2.6147,1.2251 ZM-2.4504,-2.0482 T-1.9231,-2.3581 -1.3958,-2.668 A1.8613,1.8613 0 0 1 0.4812,0.5467 T-0.0479,0.8535 -0.5769,1.1604 A1.8577,1.8577 0 0 1 -2.4504,-2.0482 ZM0.7078,-2.5121 T1.3327,-1.9206 1.8588,0.0942 0.346,2.0201 -2.2237,1.6288 -3.1079,-1.0688 -1.9058,-3.1989 -0.9749,-3.5251 A1.9024,1.9024 0 0 1 -0.5067,0.2508 T-0.9121,0.3534 -1.47,0.4234 -1.6225,0.3908 A1.8613,1.8613 0 0 1 0.7078,-2.5121 ZM1.0721,-2.2139 T1.3092,-1.3879 1.5464,-0.562 A1.8536,1.8536 0 0 1 -1.9864,0.562 T-2.2701,-0.2492 -2.5537,-1.0604 A1.9024,1.9024 0 0 1 1.0721,-2.2139 Z" stroke-linecap="round" fill="#4dabf7"/></g></g><g transform="matrix(1, 0, 0, 1, -232.4441, 900.6246)" opacity="1"><g transform="scale(1)"><path d="M0.7961,1.0615 T0.1768,1.5365 -1.5549,2.9137 -3.586,4.435 -4.5048,5.0539 A1.3432,1.3432 0 0 1 -6.0352,2.8461 T-5.2099,2.2562 -3.2198,0.7639 -1.4255,-0.5999 -0.7961,-1.0615 A1.3269,1.3269 0 0 1 0.7961,1.0615 Z" stroke-linecap="round" fill="#4dabf7"/></g></g><g transform="matrix(1, 0, 0, 1, -238.1557, 899.3066)" opacity="1"><g transform="scale(1)"><path d="M1.1742,-0.9785 T1.7058,-0.3636 3.6135,2.0319 5.4494,4.5729 5.9093,5.3333 A1.5346,1.5346 0 0 1 3.3107,6.9667 T2.8249,6.2226 1.0914,3.8623 -0.6652,1.6123 -1.1742,0.9785 A1.5284,1.5284 0 0 1 1.1742,-0.9785 Z" stroke-linecap="round" fill="#4dabf7"/></g></g><g transform="matrix(1, 0, 0, 1, -63.0432, 867.3162)" opacity="1"><g transform="scale(1)"><path d="M0.3,1.3462 T-1.8112,1.8203 -5.5017,2.6563 -9.2125,3.5931 -12.9984,4.6822 -16.2748,6.1052 -19.2006,7.8859 -21.7845,9.8034 -24.2828,12.0114 -26.5068,14.2766 -28.5704,17.2398 -30.2497,20.9525 -31.0514,24.7642 -31.252,28.1785 -30.9932,31.1304 -30.2857,34.1113 -29.2987,36.9902 -27.9665,39.8859 -26.0875,43.0605 -23.5945,46.6437 -20.7734,50.3612 -17.7072,53.9011 -14.4282,57.3079 -11.1456,60.7373 -7.8694,64.3812 -5.3617,67.4188 -3.6872,69.7616 -2.0138,72.1244 -0.3111,74.5401 1.424,77.1364 3.1577,79.7975 4.8725,82.3462 6.5965,84.8629 8.1529,87.4514 10.1126,91.3283 12.2687,96.44 13.6989,101.5963 14.5452,106.4204 14.8406,110.728 14.4316,114.8251 13.4016,118.952 11.7156,123.1812 9.313,127.4665 6.338,131.6755 2.9512,135.5367 -0.7878,138.9693 -4.663,142.3178 -8.5693,145.8268 -12.526,149.489 -16.1699,153.0617 -19.1895,156.2924 -21.4308,159.5899 -22.9235,163.1903 -23.7148,166.8599 -23.8518,170.4928 -23.4145,174.3432 -22.3011,178.611 -20.3898,183.1801 -17.7802,187.5473 -14.5226,191.1895 -10.7907,194.0303 -6.8876,196.2846 -2.7711,197.9162 1.7834,199.2469 6.7194,200.6309 11.5923,201.6986 16.3814,202.2614 21.2009,202.475 25.9417,202.5232 30.4924,202.3369 34.6865,201.9708 38.4018,201.398 41.7036,200.2995 44.7142,198.6587 47.6354,196.5733 50.5042,194.3286 53.1004,192.0416 55.304,189.6464 57.2999,187.0352 59.0903,184.2159 60.5972,181.298 61.8374,178.1695 62.8096,174.6697 63.533,170.4972 63.9078,166.6097 64.0417,163.1428 64.068,159.6265 63.8795,156.2428 63.3282,152.8542 61.9933,149.636 59.4382,146.6296 56.3929,144.0694 53.8851,141.964 51.593,139.9388 49.1114,137.8933 46.5216,135.648 44.1006,133.1254 42.1014,130.2419 40.5604,127.0187 39.8255,123.5662 40.0644,119.7537 41.2454,116.3879 43.2172,113.7651 45.5449,111.3117 47.6872,108.8344 49.9588,106.0449 52.3502,103.42 54.7179,101.449 57.3896,99.881 60.3384,98.9455 63.5347,98.8591 67.0009,99.633 70.1522,100.9519 73.3338,102.8008 76.5591,104.9417 79.1033,106.9054 82.015,109.122 84.8168,111.4496 86.8704,113.8402 88.9072,116.712 90.8283,119.8702 92.0998,122.9694 92.9322,125.8636 93.5903,129.1552 94.0294,133.0658 94.3997,137.0105 94.8367,140.7827 95.458,144.3131 96.4672,147.5605 98.0614,150.5334 100.3641,153.5559 103.5952,156.4914 107.6423,158.7359 112.2869,160.2687 117.0885,161.0774 121.4801,161.1918 125.1426,160.4901 128.2397,158.6909 131.3274,155.5516 134.3371,151.1211 136.4575,147.2227 137.6268,144.355 138.4493,141.5404 139.1353,138.7547 139.8706,134.7838 140.2886,129.7313 139.8175,124.5024 138.9529,120.205 138.1034,116.8698 137.0831,113.4035 135.7634,110.0519 134.2563,106.7812 132.7461,103.6215 131.2613,100.6945 129.706,98.0614 127.2944,94.4274 124.0548,89.965 120.6872,85.8715 117.1575,81.9275 113.4421,78.1909 109.5555,75.0812 105.476,72.677 101.0247,70.5736 96.1487,68.4148 92.2168,66.4348 89.4464,64.6724 86.868,62.7493 84.4577,60.7906 82.2119,58.7701 79.3028,55.8503 76.0513,52.0841 73.6118,48.2894 72.05,44.1968 71.3218,39.6855 71.0503,35.2358 71.2592,30.7927 71.8251,26.6149 72.5015,22.6778 73.0242,18.5043 73.2168,13.8346 73.1759,8.6812 72.6167,3.7227 71.2583,-0.8213 69.2473,-5.0126 66.6352,-8.755 63.5256,-12.0473 60.2752,-14.9547 57.0067,-17.1593 53.6477,-18.8185 50.0867,-20.1714 46.3687,-21.0509 42.7585,-21.5157 39.3101,-21.5948 35.8615,-21.3439 32.6133,-20.7676 29.6028,-19.9156 26.6232,-18.9632 23.331,-17.569 20.0827,-15.596 17.6399,-13.4352 15.5864,-11.027 13.6575,-8.3246 11.5425,-5.6274 9.156,-3.4218 6.6378,-1.7714 3.7267,-0.5703 0.2944,-0.7183 -3.1278,-2.0538 -4.6553,-2.7946 A1.8101,1.8101 0 0 1 -3.2847,-6.1454 T-2.6302,-5.9065 -0.6317,-5.0739 2.1688,-4.6351 5.2017,-5.8375 7.9716,-7.92 9.9512,-10.186 11.8695,-12.9502 14.0342,-15.6726 16.7111,-18.1253 19.6012,-20.1329 22.3546,-21.6002 25.3741,-22.8135 28.4512,-23.7899 31.7574,-24.716 35.3311,-25.367 39.2229,-25.6604 43.2783,-25.5733 47.3293,-25.0447 51.3984,-24.0709 55.2271,-22.6253 59.1102,-20.6748 62.9914,-18.0641 66.5759,-14.846 70.0106,-11.171 72.8878,-7.0492 75.159,-2.2906 76.5733,1.6778 77.2389,5.8051 77.5306,11.2311 77.4205,16.4851 76.9805,21.2256 76.321,25.3815 75.6192,29.313 75.1318,33.1625 75.1174,37.1781 75.5319,41.2716 76.3732,44.7116 77.9842,47.8364 80.5646,51.1903 83.9431,54.7559 88.1336,58.4795 91.6686,61.1692 95.3694,63.3602 100.2885,65.7442 105.1724,67.9329 109.8201,70.4825 114.1346,73.5886 118.1515,77.3242 121.8077,81.3813 125.2795,85.5216 128.7153,89.9947 131.231,93.5476 132.961,96.1415 134.6341,98.9859 136.152,102.001 137.6738,105.216 139.2543,108.6923 140.67,112.3542 141.7168,115.9583 142.5639,119.353 143.299,122.5266 143.784,125.5591 143.9288,129.8373 143.4754,135.3803 142.7148,139.6178 142.0186,142.5697 141.107,145.7418 139.8834,148.8937 138.4763,151.8211 136.8743,154.6932 135.0773,157.1978 133.2195,159.4287 130.2953,161.9915 126.0913,164.1645 121.5309,164.903 116.5607,164.6424 111.3262,163.7057 107.3012,162.5853 103.5962,160.8336 99.2808,157.7952 95.8986,154.3052 93.6005,150.7964 92.0308,147.075 91.1356,143.2707 90.4899,139.3728 89.9948,135.4416 89.5524,131.0657 88.7692,127.1071 87.796,124.0806 86.4984,121.1745 84.63,118.2363 82.3604,115.2623 79.4109,112.5832 75.9169,109.8603 72.398,107.1925 69.0097,105.0957 65.4344,103.6509 61.9189,103.0828 58.8708,103.7423 56.1918,105.4312 53.9025,107.8103 51.6423,110.5544 49.3094,113.1522 46.8951,115.72 44.8935,118.3168 43.9222,121.0961 44.0812,124.4301 45.2519,127.725 47.0607,130.4416 49.2565,132.7309 51.7087,134.8407 54.281,136.9613 56.9886,139.3221 59.8434,141.8158 62.8549,144.4589 65.3701,147.3782 66.7984,150.7816 67.6084,154.6975 67.9465,158.4288 67.9056,161.9824 67.8137,165.3763 67.5376,168.5769 67.1716,171.9694 66.7378,175.1012 65.9196,178.2602 64.6661,181.7534 63.1835,184.8329 61.4556,187.7713 59.3779,190.8615 57.0334,193.5865 54.4723,196.118 51.6082,198.6586 48.4182,201.0992 44.9079,203.227 41.0938,204.766 37.045,205.7102 32.8894,206.1112 28.423,206.2866 23.5479,206.3555 18.6183,206.2218 14.7204,205.9914 10.6833,205.3927 5.6673,204.2383 0.8209,202.7966 -4.0491,201.254 -8.5083,199.4294 -12.6993,196.989 -17.0135,193.6992 -20.7775,189.5038 -23.0766,185.9231 -24.7754,182.0937 -26.3632,177.1482 -27.1806,172.5953 -27.2968,168.3513 -26.6569,164.1571 -25.3169,159.9401 -23.1272,155.8739 -20.1827,152.3213 -16.7069,148.8948 -12.8135,145.1561 -8.8447,141.489 -4.9385,138.0537 -1.2541,134.8461 2.0958,131.3637 5.0586,127.5718 7.5559,123.7718 9.3802,119.837 10.5618,116.0474 11.3129,112.5999 11.4046,108.9752 10.9054,104.6814 9.9089,99.9863 8.3449,95.2111 6.0862,90.3703 3.9319,86.6893 2.1901,84.1548 0.4427,81.5705 -1.2786,78.9434 -2.9763,76.4056 -4.6639,73.9797 -7.065,70.5638 -10.2052,66.447 -13.3967,62.8219 -16.6193,59.4358 -19.9715,55.9368 -23.1564,52.2377 -26.06,48.3872 -28.6889,44.5352 -30.6669,41.1559 -32.0631,38.062 -33.1503,34.857 -33.9014,31.4319 -34.168,28.0921 -34.0141,25.0339 -33.2765,21.4196 -31.9812,17.8522 -30.515,14.9564 -28.5972,12.3433 -26.1855,9.9167 -23.6167,7.6813 -20.8552,5.6733 -17.4333,3.6443 -13.7935,2.0603 -9.8996,0.9236 -6.1133,-0.0459 -2.4127,-0.8791 -0.3,-1.3462 A1.3792,1.3792 0 0 1 0.3,1.3462 Z" stroke-linecap="round" fill="#e03131"/></g></g><g transform="matrix(1, 0, 0, 1, -287.8674, 821.6565)" opacity="1"><g transform="scale(1)"><path d="M2.35,-0.5429 T2.7366,0.975 3.5934,4.9443 4.3029,9.3513 4.6251,12.8263 4.7385,15.59 4.769,16.8343 A2.7792,2.7792 0 0 1 -0.789,16.9057 T-0.7966,16.1514 -0.817,13.5406 -0.9382,10.0239 -1.3803,5.9863 -2.0318,2.0758 -2.35,0.5429 A2.4118,2.4118 0 0 1 2.35,-0.5429 ZM-0.643,17.7595 T-0.8685,17.0113 -1.094,16.263 A2.7275,2.7275 0 0 1 4.074,14.517 T4.3485,15.2487 4.623,15.9805 A2.7792,2.7792 0 0 1 -0.643,17.7595 Z" stroke-linecap="round" fill="#e03131"/></g></g><g transform="matrix(1, 0, 0, 1, -287.8674, 821.6565)" opacity="1"><g transform="scale(1)"><path d="M-0.8754,-1.7464 T0.0713,-2.2011 2.977,-3.3876 6.7066,-3.9027 10.2384,-2.9362 13.221,-1.3747 15.6278,0.6943 17.6253,3.8758 18.8027,7.6726 18.8656,11.4707 17.7566,14.7959 15.3571,17.3531 12.3556,18.9354 9.3648,19.1957 7.7827,19.0314 A1.6688,1.6688 0 0 1 8.0973,15.7086 T9.5609,15.7116 12.4557,14.8679 14.5568,12.7046 15.1626,9.7457 14.3816,6.16 12.5898,3.1284 10.0202,1.2106 7.0686,-0.0046 4.1747,0.1916 1.8065,1.2598 0.8754,1.7464 A1.9535,1.9535 0 0 1 -0.8754,-1.7464 Z" stroke-linecap="round" fill="#e03131"/></g></g><g transform="matrix(1, 0, 0, 1, -257.5931, 809.249)" opacity="1"><g transform="scale(1)"><path d="M-1.8775,-0.7489 T-1.7562,-1.0441 -1.6348,-1.3393 A2.0147,2.0147 0 0 1 2.1078,0.1535 T1.9927,0.4512 1.8775,0.7489 A2.0214,2.0214 0 0 1 -1.8775,-0.7489 ZM-1.3207,0.6855 T-1.4969,0.475 -1.6732,0.2646 A2.0201,2.0201 0 0 1 1.4495,-2.299 T1.6216,-2.0852 1.7937,-1.8713 A2.0147,2.0147 0 0 1 -1.3207,0.6855 ZM0.204,0.978 T-0.4083,1.0643 -1.7684,2.444 -3.0712,5.5756 -3.9131,8.9357 -4.1667,11.9067 -3.7823,14.8948 -2.9731,18.1639 -1.8893,21.3908 -0.2922,24.2559 0.6793,25.6239 A2.0421,2.0421 0 0 1 -2.6593,27.9761 T-3.2388,27.1673 -4.7634,24.6974 -6.3345,21.1382 -7.3905,17.3982 -8.0961,13.6946 -8.2012,10.0108 -7.6776,6.4485 -6.7573,3.2772 -5.4834,0.5641 -3.5781,-1.7001 -1.4037,-2.8473 -0.4277,-3.0125 A2.0201,2.0201 0 0 1 0.204,0.978 Z" stroke-linecap="round" fill="#e03131"/></g></g><g transform="matrix(1, 0, 0, 1, -248.1634, 819.175)" opacity="1"><g transform="scale(1)"><path d="M-1.7034,0.1429 T-1.8182,-1.2665 -2.2924,-4.0789 -3.0743,-5.905 -3.4969,-6.3283 A1.7507,1.7507 0 0 1 -2.3555,-9.6384 T-0.869,-8.1128 1.0387,-4.7747 1.5817,-1.5525 1.7034,-0.1429 A1.7094,1.7094 0 0 1 -1.7034,0.1429 ZM-1.3717,-7.178 T-1.686,-6.5747 -2.4569,-4.558 -3.2325,-1.3656 -3.1505,1.9122 -1.1446,4.211 1.855,5.8187 3.725,8.621 3.38,12.4065 1.2508,15.2303 -2.581,15.9996 -5.9265,15.2453 -6.7488,14.7545 A1.5675,1.5675 0 0 1 -5.1712,12.0455 T-3.2743,12.6996 -0.2791,12.1088 0.1006,9.5092 -2.261,7.6091 -5.1871,5.4672 -6.7232,1.8894 -6.5992,-2.154 -5.6664,-5.891 -4.7957,-8.1773 -4.4806,-8.7887 A1.7507,1.7507 0 0 1 -1.3717,-7.178 Z" stroke-linecap="round" fill="#e03131"/></g></g><g transform="matrix(1, 0, 0, 1, -246.6745, 824.138)" opacity="1"><g transform="scale(1)"><path d="M0.5099,1.5297 T-0.5413,1.9 -3.8001,2.8763 -6.0077,3.4822 A1.5564,1.5564 0 0 1 -6.8923,0.4978 T-4.7642,-0.1815 -1.573,-1.1952 -0.5099,-1.5297 A1.6124,1.6124 0 0 1 0.5099,1.5297 Z" stroke-linecap="round" fill="#e03131"/></g></g><g transform="matrix(1, 0, 0, 1, -242.2078, 808.2564)" opacity="1"><g transform="scale(1)"><path d="M1.4306,-1.2286 T2.117,-0.392 3.9937,2.0676 6.2974,5.5417 8.0891,9.0468 9.2517,12.1761 10.1637,16.2801 10.4649,21.2698 9.7942,25.2 7.6744,28.0425 6.0986,29.3156 A1.9037,1.9037 0 0 1 3.8214,26.2644 T4.7564,25.6637 6.2542,23.2467 6.6745,19.2186 5.9352,14.5306 4.7721,10.556 3.2379,7.4265 1.143,4.3167 -0.7074,2.0333 -1.4306,1.2286 A1.8857,1.8857 0 0 1 1.4306,-1.2286 Z" stroke-linecap="round" fill="#e03131"/></g></g><g transform="matrix(1, 0, 0, 1, -3.4871, 805.2786)" opacity="1"><g transform="scale(1)"><path d="M1.6511,-0.5157 T2.2271,1.3654 3.2317,4.7227 4.1341,8.4341 4.8572,12.0856 5.482,15.3989 6.0009,18.1933 6.1441,19.0908 A1.6956,1.6956 0 0 1 2.7959,19.6292 T2.5299,17.9806 1.7753,13.8678 0.841,9.2785 -0.0309,5.709 -1.0541,2.3902 -1.6511,0.5157 A1.7297,1.7297 0 0 1 1.6511,-0.5157 ZM2.8187,18.9753 T2.9811,18.3566 3.5924,16.0638 4.6938,12.7612 6.0535,9.6776 7.5864,6.1432 9.1547,2.6072 10.8482,-0.765 11.7989,-2.6805 A1.7436,1.7436 0 0 1 15.0011,-1.2995 T14.4081,0.2176 13.1148,2.9971 11.7595,5.6791 10.5591,8.4692 9.278,11.2762 7.767,14.4068 6.6035,17.6422 6.1684,19.4641 6.1213,19.7447 A1.6956,1.6956 0 0 1 2.8187,18.9753 Z" stroke-linecap="round" fill="#e03131"/></g></g><g transform="matrix(1, 0, 0, 1, 29.7651, 800.8119)" opacity="1"><g transform="scale(1)"><path d="M0.5798,1.3935 T-0.8271,1.9783 -3.6925,3.8597 -6.2349,6.9658 -8.0201,10.694 -8.8668,14.0485 -8.8566,17.7815 -8.3167,21.8501 -7.0918,25.2385 -6.2509,26.8556 A1.5123,1.5123 0 0 1 -8.6291,28.7244 T-9.0927,28.1427 -10.2239,25.9881 -11.3126,22.4157 -11.8848,17.7831 -11.8264,13.406 -10.8134,9.4995 -8.7006,5.2248 -5.3976,1.4478 -1.9919,-0.8052 -0.5798,-1.3935 A1.5093,1.5093 0 0 1 0.5798,1.3935 Z" stroke-linecap="round" fill="#e03131"/></g></g><g transform="matrix(1, 0, 0, 1, 35.7207, 814.212)" opacity="1"><g transform="scale(1)"><path d="M-1.4831,-0.1244 T-1.3581,-1.5322 -1.3736,-4.4243 -1.5995,-5.8236 -1.6849,-5.7386 A1.4942,1.4942 0 0 1 0.0626,-8.1627 T0.8041,-6.965 1.6258,-4.2327 1.5946,-1.2869 1.4831,0.1244 A1.4883,1.4883 0 0 1 -1.4831,-0.1244 ZM-0.0933,-5.6402 T-0.5099,-5.4669 -1.1531,-3.5472 -1.4281,-0.0128 -0.8349,3.5363 0.3967,6.6097 0.6291,9.5616 -1.3489,12.3733 -4.8761,13.7371 -8.1241,13.3196 -10.3629,11.1807 -11.2607,9.651 A1.5135,1.5135 0 0 1 -8.5993,8.209 T-8.1359,9.1914 -6.2644,10.4223 -3.3318,9.7966 -2.5233,7.4348 -3.8477,4.3782 -4.4291,1.1016 -4.1878,-2.6777 -3.4178,-6.0852 -2.1957,-7.841 -1.529,-8.2611 A1.4942,1.4942 0 0 1 -0.0933,-5.6402 Z" stroke-linecap="round" fill="#e03131"/></g></g><g transform="matrix(1, 0, 0, 1, 37.2096, 820.1676)" opacity="1"><g transform="scale(1)"><path d="M0,1.5783 T-1.2913,1.5904 -4.0837,1.5879 -7.2575,1.5601 -8.93,1.5468 A1.5468,1.5468 0 0 1 -8.93,-1.5468 T-7.2575,-1.5601 -4.0837,-1.5879 -1.2913,-1.5904 0,-1.5783 A1.5783,1.5783 0 0 1 0,1.5783 Z" stroke-linecap="round" fill="#e03131"/></g></g><g transform="matrix(1, 0, 0, 1, 43.6615, 806.7675)" opacity="1"><g transform="scale(1)"><path d="M1.4687,-1.3044 T2.3898,-0.2299 4.4238,3.032 6.0248,7.3311 6.2254,11.9711 5.316,16.2258 3.5642,20.2609 0.9746,24.4841 -0.4848,26.3987 A1.8576,1.8576 0 0 1 -3.4952,24.2213 T-2.2895,22.451 -0.0553,18.6187 1.5574,15.065 2.4384,11.7927 2.3492,8.2248 1.2041,4.9108 -0.512,2.3442 -1.4687,1.3044 A1.9643,1.9643 0 0 1 1.4687,-1.3044 Z" stroke-linecap="round" fill="#e03131"/></g></g><g transform="matrix(1, 0, 0, 1, -238.7336, 918.4352)" opacity="1"><g transform="scale(1)"><path d="M1.3182,-0.6591 T1.6704,0.0454 2.8304,2.0818 4.5855,4.5951 6.4982,6.8346 8.689,9.1209 11.3016,11.5296 13.9939,13.7433 16.3333,15.7631 18.5962,17.6372 21.2722,19.4918 24.0825,21.1667 26.9187,22.6086 29.882,24.0816 32.924,25.5325 36.1283,27.0022 39.4453,28.486 42.9503,29.93 46.6892,31.4025 50.3493,32.6767 53.9343,33.8999 57.5567,35.1223 61.1807,36.149 64.851,37.1586 68.6538,38.15 72.0117,39.0788 74.8107,39.7998 77.6097,40.3847 80.4764,40.9527 83.4247,41.4657 86.5659,41.9586 89.8728,42.448 93.2319,42.9355 96.7992,43.3699 100.4142,43.6603 104.0374,43.9119 107.9115,44.1564 112.0345,44.2726 116.3491,44.3029 120.8353,44.3063 125.3062,44.2961 129.7752,44.2812 134.4219,44.2651 139.0569,44.2449 143.5691,44.2262 148.1088,44.2122 152.5448,44.0227 156.7106,43.6708 160.9712,43.2048 165.3778,42.6364 169.5317,42.0024 173.7894,41.2717 178.013,40.5238 181.8247,39.5931 185.8614,38.5283 189.9557,37.5994 193.6525,36.7168 197.1748,35.757 200.5796,34.9364 203.6936,34.1735 206.6287,33.2562 210.1302,32.038 213.8221,30.7332 216.927,29.3484 219.9111,27.4145 221.4572,26.2953 A2.0363,2.0363 0 0 1 224.2228,29.2847 T222.8859,30.5233 220.2139,32.4728 217.27,33.9072 213.9759,35.2052 210.8553,36.2883 207.8974,37.2809 204.7848,38.2242 201.5972,38.9855 198.2348,39.7778 194.6309,40.7506 190.7432,41.6687 186.8859,42.5225 182.9412,43.562 178.6637,44.5839 174.41,45.3055 170.0843,46.0002 165.7216,46.6235 161.4124,47.1473 157.0747,47.5901 152.6533,47.9362 148.1102,48.1078 143.569,48.0938 139.0568,48.0751 134.4218,48.0548 129.7748,48.0382 125.3046,48.0217 120.8295,48.0059 116.3283,47.9887 111.9545,47.9452 107.5947,47.7957 103.7092,47.5324 100.042,47.2558 96.3328,46.9444 92.8862,46.5126 89.5051,46.0069 86.1685,45.4949 82.9978,44.9826 79.9929,44.4509 76.2587,43.6619 72.4899,42.7682 68.9727,41.8814 65.0674,40.8611 61.3233,39.8321 57.7205,38.7139 54.0747,37.4758 50.4007,36.3001 46.8098,35.0164 43.0922,33.5136 39.2575,31.9701 35.8477,30.4487 32.6314,28.943 29.4498,27.4249 26.4812,25.9213 23.5329,24.401 20.8538,22.8608 18.4394,21.2619 16.0099,19.413 13.7189,17.4043 11.4914,15.5113 8.828,13.3036 6.1822,10.8434 3.8549,8.2641 1.732,5.7006 0.0876,3.3129 -0.9657,1.3641 -1.3182,0.6591 A1.4738,1.4738 0 0 1 1.3182,-0.6591 Z" stroke-linecap="round" fill="#ffc034"/></g></g><g transform="matrix(1, 0, 0, 1, -15.8946, 944.7391)" opacity="1"><g transform="scale(1)"><path d="M-1.0193,1.0193 T-1.9767,0.0986 -4.4041,-2.301 -7.6073,-4.805 -10.6745,-6.4747 -12.0086,-7.1194 A1.45,1.45 0 0 1 -10.8114,-9.7606 T-9.4472,-9.1822 -5.9132,-7.3452 -2.2824,-4.5102 0.0989,-1.9765 1.0193,-1.0193 A1.4415,1.4415 0 0 1 -1.0193,1.0193 Z" stroke-linecap="round" fill="#ffc034"/></g></g><g transform="matrix(1, 0, 0, 1, -16.8872, 944.2428)" opacity="1"><g transform="scale(1)"><path d="M1.4056,-0.5849 T1.9963,0.8232 3.1243,4.2245 3.7035,7.9188 3.3556,11.1005 1.8793,14.1772 0.793,15.7732 A1.5659,1.5659 0 0 1 -1.793,14.0068 T-0.7694,12.2518 0.4134,8.647 0.1658,5.102 -0.8232,1.9959 -1.4056,0.5849 A1.5224,1.5224 0 0 1 1.4056,-0.5849 Z" stroke-linecap="round" fill="#ffc034"/></g></g><g transform="matrix(1, 0, 0, 1, -135.0068, 934.8131)" opacity="1"><g transform="scale(1)"><path d="M-1.6851,-0.3732 T-1.4413,-1.4281 -1.1595,-4.0889 -1.9044,-6.2688 -2.6871,-6.8428 A1.6676,1.6676 0 0 1 -1.7835,-10.0534 T-0.2071,-9.0617 1.8337,-6.4987 2.2161,-3.3365 1.9095,-0.6862 1.6851,0.3732 A1.726,1.726 0 0 1 -1.6851,-0.3732 ZM-0.7673,-7.657 T-1.1221,-7.0033 -1.9757,-4.7293 -2.5945,-1.3222 -2.7326,1.8991 -2.3234,4.7642 -0.7851,7.8554 1.0692,10.9874 1.3056,14.2562 -0.8776,16.9217 -4.3279,17.932 -7.4975,17.4968 -9.9605,15.7248 -11.4038,13.9144 -11.7795,13.2987 A1.6242,1.6242 0 0 1 -9.0605,11.5213 T-8.4497,12.4506 -6.4143,13.9808 -3.4581,14.3863 -2.2428,12.7194 -3.5322,9.9209 -5.2015,6.7355 -6.0198,3.3485 -6.0947,0.3353 -5.8516,-2.6728 -5.0945,-5.9433 -4.1182,-8.4647 -3.7034,-9.2392 A1.6676,1.6676 0 0 1 -0.7673,-7.657 Z" stroke-linecap="round" fill="#ffc034"/></g></g><g transform="matrix(1, 0, 0, 1, -134.0142, 941.7613)" opacity="1"><g transform="scale(1)"><path d="M0.1799,1.608 T-0.8753,1.7438 -3.7899,1.9886 -6.7673,2.1318 -7.8855,2.166 A1.6669,1.6669 0 0 1 -7.9945,-1.166 T-6.8765,-1.2049 -4.0283,-1.3253 -1.239,-1.5073 -0.1799,-1.608 A1.618,1.618 0 0 1 0.1799,1.608 Z" stroke-linecap="round" fill="#ffc034"/></g></g><g transform="matrix(1, 0, 0, 1, -3.9834, 943.2502)" opacity="1"><g transform="scale(1)"><path d="M-0.9767,-0.9767 T-0.8595,-1.096 -0.7424,-1.2154 A1.3844,1.3844 0 0 1 1.2154,0.7424 T1.096,0.8595 0.9767,0.9767 A1.3812,1.3812 0 0 1 -0.9767,-0.9767 ZM1.5412,0.2264 T1.3683,0.7275 1.1954,1.2285 A1.3936,1.3936 0 0 1 -1.4314,0.2965 T-1.2498,-0.2015 -1.0682,-0.6994 A1.3844,1.3844 0 0 1 1.5412,0.2264 ZM-1.4133,1.2766 T-1.5767,0.8659 -1.7401,0.4552 A1.3944,1.3944 0 0 1 0.852,-0.5736 T1.0147,-0.1626 1.1774,0.2484 A1.3936,1.3936 0 0 1 -1.4133,1.2766 ZM0.0625,-1.3583 T0.401,-1.2243 1.1166,-0.9411 1.4938,-0.7919 A1.3867,1.3867 0 0 1 0.4862,1.7919 T0.1076,1.6464 -0.6108,1.3704 -0.9507,1.2399 A1.3944,1.3944 0 0 1 0.0625,-1.3583 Z" stroke-linecap="round" fill="#40c057"/></g></g><g transform="matrix(1, 0, 0, 1, -7.9538, 926.8723)" opacity="1"><g transform="scale(1)"><path d="M-1.4996,0.86 T-1.9235,0.0746 -2.9919,-0.992 -3.6365,-1.2733 A1.6963,1.6963 0 0 1 -1.8989,-4.1874 T-0.717,-3.3796 0.9822,-1.716 1.4996,-0.86 A1.7287,1.7287 0 0 1 -1.4996,0.86 ZM-1.2525,-1.9676 T-1.4481,-1.6285 -1.4284,0.54 -0.8863,3.7689 -0.1522,7.0626 -0.7725,10.3157 -3.7801,11.7149 -7.2558,10.6562 -9.1934,9.028 -9.6354,8.4984 A1.5966,1.5966 0 0 1 -7.2446,6.3816 T-6.5173,7.1899 -4.3325,7.958 -3.3721,6.5714 -4.3453,3.4667 -4.8637,-0.2238 -4.5945,-2.8245 -4.2829,-3.493 A1.6963,1.6963 0 0 1 -1.2525,-1.9676 Z" stroke-linecap="round" fill="#40c057"/></g></g><g transform="matrix(1, 0, 0, 1, -9.4427, 932.3316)" opacity="1"><g transform="scale(1)"><path d="M0,1.6201 T-2.48,1.573 -4.96,1.5259 A1.5259,1.5259 0 0 1 -4.96,-1.5259 T-2.48,-1.573 0,-1.6201 A1.6201,1.6201 0 0 1 0,1.6201 Z" stroke-linecap="round" fill="#40c057"/></g></g><g transform="matrix(1, 0, 0, 1, -2.4945, 924.8871)" opacity="1"><g transform="scale(1)"><path d="M0.7739,0.6353 T0.3198,1.5803 -0.5474,4.1831 -0.8527,7.4277 0.2652,10.0698 1.2753,11.1251 A1.5007,1.5007 0 0 1 -0.2753,13.6949 T-1.7265,12.4409 -3.5876,9.8185 -3.9452,6.8181 -3.3159,3.2082 -2.2563,0.2975 -1.7739,-0.6353 A1.4235,1.4235 0 0 1 0.7739,0.6353 Z" stroke-linecap="round" fill="#40c057"/></g></g><g transform="matrix(1, 0, 0, 1, 3.9575, 928.8575)" opacity="1"><g transform="scale(1)"><path d="M1.2051,1.2051 T0.5086,1.9177 -1.2708,3.9953 -2.9789,6.1712 -3.6042,6.9822 A1.698,1.698 0 0 1 -6.3158,4.9378 T-5.7082,4.1135 -3.8659,1.739 -1.9181,-0.5082 -1.2051,-1.2051 A1.7043,1.7043 0 0 1 1.2051,1.2051 Z" stroke-linecap="round" fill="#40c057"/></g></g><g transform="matrix(1, 0, 0, 1, -2.4945, 928.8575)" opacity="1"><g transform="scale(1)"><path d="M0.8754,-1.0909 T1.4668,-0.6263 3.1252,1.0937 5.1956,3.6399 6.8588,5.7303 7.5187,6.53 A1.4036,1.4036 0 0 1 5.3813,8.35 T4.0391,6.8183 1.4924,3.6655 -0.2937,1.5676 -0.8754,1.0909 A1.3987,1.3987 0 0 1 0.8754,-1.0909 Z" stroke-linecap="round" fill="#40c057"/></g></g><g transform="matrix(1, 0, 0, 1, 3.4612, 921.9093)" opacity="1"><g transform="scale(1)"><path d="M1.1539,-1.3437 T1.9654,-0.627 3.8108,1.5093 5.337,4.2936 6.1433,7.1237 6.4432,10.5204 5.765,14.509 5.1009,16.5664 A1.7694,1.7694 0 0 1 1.8391,15.1936 T2.3709,13.6142 2.9582,10.5549 2.6737,7.315 1.4197,4.1422 -0.3241,2.0365 -1.1539,1.3437 A1.7712,1.7712 0 0 1 1.1539,-1.3437 Z" stroke-linecap="round" fill="#40c057"/></g></g><g transform="matrix(1, 0, 0, 1, 59.9254, 813.9551)" opacity="1"><g transform="scale(1)"><path d="M0,-1.573 T1.3081,-1.5982 4.4778,-1.9572 7.6474,-2.5116 8.9555,-2.7321 A1.5288,1.5288 0 0 1 9.5245,0.2721 T8.2264,0.5452 4.7765,1.2209 1.3123,1.5982 0,1.573 A1.573,1.573 0 0 1 0,-1.573 Z" stroke-linecap="round" fill="#f76707"/></g></g><g transform="matrix(1, 0, 0, 1, 59.9254, 820.1139)" opacity="1"><g transform="scale(1)"><path d="M0.62,-2.0896 T2.2211,-2.071 5.6061,-2.0356 7.39,-2.0188 A2.0188,2.0188 0 0 1 7.39,2.0188 T5.6061,2.0356 2.2211,2.071 0.62,2.0896 A2.0896,2.0896 0 0 1 0.62,-2.0896 Z" stroke-linecap="round" fill="#f76707"/></g></g><g transform="matrix(1, 0, 0, 1, 80.8653, 806.5646)" opacity="1"><g transform="scale(1)"><path d="M1.5755,0.0835 T1.4948,2.854 1.3667,7.3677 1.1021,10.6821 0.6547,13.9283 0.4244,15.6032 A1.6669,1.6669 0 0 1 -2.8844,15.1968 T-2.7025,13.5159 -2.3677,10.3945 -2.1078,7.1987 -1.7881,2.6801 -1.5755,-0.0835 A1.5777,1.5777 0 0 1 1.5755,0.0835 Z" stroke-linecap="round" fill="#f76707"/></g></g><g transform="matrix(1, 0, 0, 1, 80.2495, 805.3328)" opacity="1"><g transform="scale(1)"><path d="M-0.2356,-1.8731 T0.9316,-2.0045 3.9272,-2.4613 7.3814,-2.4787 10.5474,-1.1873 13.3082,0.9837 15.4129,3.5108 16.9301,6.5773 17.6997,9.8242 17.3696,12.7478 15.3676,15.5115 12.067,18.1127 8.2131,20.1047 5.1937,21.1316 4.2632,21.4076 A1.7886,1.7886 0 0 1 3.1368,18.0124 T5.3471,17.1247 9.0027,15.4947 11.8222,13.659 13.6129,11.1951 13.6421,8.3909 12.3007,5.6171 10.2553,3.2005 7.6762,1.4855 4.3766,1.1982 1.4003,1.7112 0.2356,1.8731 A1.8879,1.8879 0 0 1 -0.2356,-1.8731 Z" stroke-linecap="round" fill="#f76707"/></g></g><g transform="matrix(1, 0, 0, 1, 111.0434, 799.174)" opacity="1"><g transform="scale(1)"><path d="M1.3067,1.1218 T0.4245,2.1304 -1.2075,4.5381 -2.3898,7.3499 -3.18,10.9645 -3.8636,14.9354 -4.0604,18.6235 -3.3161,22.1649 -1.8396,25.7037 -0.9783,27.6202 A1.643,1.643 0 0 1 -3.9417,29.0398 T-4.4504,28.0373 -5.7206,25.4489 -6.9994,21.7714 -7.5664,17.9715 -7.2728,14.5008 -6.4906,10.2358 -5.4942,6.0473 -3.9896,2.6499 -2.1746,-0.0918 -1.3067,-1.1218 A1.7222,1.7222 0 0 1 1.3067,1.1218 Z" stroke-linecap="round" fill="#f76707"/></g></g><g transform="matrix(1, 0, 0, 1, 120.8975, 813.9551)" opacity="1"><g transform="scale(1)"><path d="M-1.2382,0.6191 T-1.5274,0.0479 -2.9493,0.7194 -4.236,3.3881 -3.0288,5.3439 -1.0018,4.6125 -0.2606,2.5375 -0.1854,1.724 A1.421,1.421 0 0 1 2.6454,1.976 T2.5695,2.86 1.93,5.3574 -0.193,7.8797 -3.4202,8.5138 -6.1478,6.9193 -7.1343,3.7442 -6.3162,0.4795 -3.8174,-2.0714 -0.7054,-2.5084 0.9456,-1.2114 1.2382,-0.6191 A1.3844,1.3844 0 0 1 -1.2382,0.6191 ZM2.6499,1.9066 T2.61,2.243 3.4776,3.991 5.2061,6.6251 6.676,9.8694 7.4747,13.87 6.9107,17.7083 4.8748,20.4612 1.2434,21.446 -3.3535,20.3957 -5.6409,19.2539 A1.5647,1.5647 0 0 1 -4.2191,16.4661 T-2.374,17.432 1.2573,18.3485 3.8279,17.0969 4.5204,14.1948 3.9808,10.9064 2.4798,7.8762 0.6162,4.8309 -0.192,2.5103 -0.1899,1.7934 A1.421,1.421 0 0 1 2.6499,1.9066 Z" stroke-linecap="round" fill="#f76707"/></g></g><g transform="matrix(1, 0, 0, 1, 130.7516, 804.101)" opacity="1"><g transform="scale(1)"><path d="M1.6236,-0.8663 T2.7767,1.3259 4.7059,5.1451 5.9346,8.1601 6.9812,11.9509 7.3793,16.7019 6.482,21.2907 4.6854,25.7409 3.5903,27.9504 A1.937,1.937 0 0 1 0.1097,26.2496 T0.6714,25.0844 2.0872,22.2206 3.3551,18.5909 3.6921,14.7653 2.9159,10.5983 1.4754,6.7742 -0.4448,3.0446 -1.6236,0.8663 A1.8403,1.8403 0 0 1 1.6236,-0.8663 Z" stroke-linecap="round" fill="#f76707"/></g></g><g transform="matrix(1, 0, 0, 1, 230.5241, 861.9937)" opacity="1"><g transform="scale(1)"><path d="M-0.534,1.2026 T-1.8452,0.6258 -5.1507,-0.3706 -8.9787,-0.7742 -12.9894,-0.4025 -16.9058,0.5534 -19.9046,1.8486 -22.8052,3.8248 -25.6807,6.5791 -27.6587,9.6857 -28.4068,13.08 -28.2945,16.4432 -27.7338,19.9875 -26.8532,23.9818 -25.7064,28.1831 -24.4148,31.9009 -23.2224,35.0128 -21.773,38.2309 -20.0381,41.4559 -18.1288,44.4472 -15.852,47.335 -13.1855,50.6099 -10.4827,54.528 -8.2184,59.0671 -6.4486,63.7045 -4.972,68.4274 -3.7739,73.1745 -2.9824,77.7309 -2.6412,82.0629 -2.6911,86.0811 -3.3292,89.977 -4.4492,93.2887 -5.8748,96.3451 -7.3893,99.2031 -9.2984,101.8088 -11.6498,104.259 -14.2591,106.5853 -17.2485,108.8895 -20.0867,110.8709 -22.7084,112.8168 -25.1617,114.8711 -27.564,117.0236 -30.0157,119.3973 -32.2254,122.5609 -34.1087,126.2817 -35.8207,130.1638 -37.3602,134.1831 -38.7,138.2132 -39.7917,142.3336 -40.7592,146.8017 -41.628,151.6426 -42.1428,156.3779 -42.3489,160.9211 -42.4056,165.15 -42.2031,168.987 -41.2775,172.5628 -39.5777,176.3017 -37.2656,180.156 -34.4656,183.8925 -31.6363,187.205 -28.8755,189.9454 -26.1324,192.1934 -23.3156,194.0889 -20.1825,195.6824 -17.0854,196.7896 -14.242,197.5925 -11.4363,198.3179 -8.9576,197.4903 -7.1853,194.6669 -6.1173,191.2106 -5.8176,187.6723 -6.0086,184.3471 -6.1601,181.1701 -6.0269,178.0841 -5.5697,174.6343 -4.3002,171.1399 -1.7958,168.4038 1.1173,166.6452 4.6857,165.8416 8.3856,165.6007 11.6551,165.5516 15.0732,165.3926 18.5378,164.9912 21.9888,164.4408 25.3088,163.3226 28.3775,161.4626 30.6584,159.0809 32.2787,156.3353 33.6771,153.3436 34.5686,149.4985 34.4966,145.6985 33.8989,142.7319 32.7753,139.6857 30.8508,136.3789 28.7923,132.8496 27.2825,129.5735 26.2853,126.1464 25.944,122.5991 26.5856,119.0415 27.6741,115.6597 29.1609,112.7735 31.0549,110.1619 33.3928,107.9588 36.6114,106.0313 40.6439,104.3826 44.2029,103.0831 47.4017,102.2272 51.079,101.6336 54.9919,101.3622 59.1875,101.4553 63.1484,101.9257 66.8001,103.0746 69.972,104.8564 72.4405,106.9195 74.7952,109.5092 77.3226,112.7207 79.8953,116.4852 82.2153,120.731 84.1254,125.4268 85.8611,129.8748 87.4535,134.2261 88.8088,138.618 90.235,142.502 91.9667,145.8388 94.0612,148.4851 96.5495,150.6712 99.7256,152.2461 103.3788,152.4947 106.4872,150.6856 108.33,147.5107 109.0344,143.388 108.9065,138.2563 107.984,133.0101 106.859,129.0658 105.2546,125.1254 102.7855,120.3268 99.9393,115.8934 97.1124,111.5569 94.5357,107.4506 92.0483,103.3723 89.4022,99.6564 86.763,96.6912 84.1037,94.0919 81.3641,91.599 78.7039,88.8652 75.9275,85.9283 73.3403,82.8405 71.0902,79.9347 68.8491,77.2931 66.8637,74.3665 65.3134,70.7978 64.1948,66.8135 63.5554,62.7776 63.2788,58.9748 63.2043,55.6133 62.9606,51.7271 62.5352,47.7806 61.9693,44.2367 61.1674,40.9075 59.9068,37.5342 57.9154,34.4278 54.8789,32.3123 51.1719,31.2493 47.6771,31.6665 44.1852,33.0574 40.7453,34.7489 37.5612,36.3067 33.9525,37.592 29.9068,38.2983 26.2803,38.0096 23.2599,36.7301 20.672,34.5411 18.9292,31.8384 18.0905,28.9652 17.7419,25.514 17.9167,21.6416 18.4311,17.9362 19.0031,14.2682 19.0596,10.7891 17.4696,8.2252 14.4071,6.6575 11.2099,5.9186 7.9335,6.043 4.4226,5.9703 2.7134,5.6339 A1.9684,1.9684 0 0 1 3.4466,1.7661 T4.2364,1.8965 6.6596,2.0426 10.0597,1.9205 13.4034,2.1713 16.8118,3.2208 19.8171,4.7606 22.0542,7.2948 23.3153,10.3779 23.2092,13.502 22.6244,17.1054 22.1859,20.8888 21.9406,24.3221 22.0197,27.3651 23.0982,30.5504 25.9078,33.2124 29.461,34.0846 32.5937,33.615 35.4688,32.6246 38.6855,31.0275 41.8076,29.4292 44.5857,28.2308 47.7464,27.2536 51.4175,27.005 55.2736,27.7997 58.8294,29.6695 61.7434,32.3437 63.5934,35.2 64.7807,38.2815 65.6834,41.6714 66.4482,45.3956 66.971,48.9432 67.2308,52.2276 67.4074,55.5501 67.4673,58.7793 67.6746,62.1312 68.2213,65.6939 69.2132,69.3033 70.839,72.7807 73.1191,75.8902 75.5657,78.8491 77.8081,81.7887 80.2783,84.628 82.9463,87.3468 85.5073,89.8021 88.3346,92.4796 91.176,95.5396 94.012,99.1816 96.7457,103.2548 99.2158,107.3842 101.8402,111.5054 104.7407,115.8523 107.0676,119.5233 108.4741,122.1895 109.6678,124.883 110.7893,127.7237 111.7877,130.6408 112.5177,133.5567 112.998,136.6283 113.3328,139.6926 113.2475,143.9721 112.2405,149.165 110.085,153.2447 106.8306,155.9738 102.9241,157.0397 99.0343,156.6446 95.4297,155.1616 92.1876,152.7348 89.41,149.7167 87.2169,146.2089 85.4676,142.1348 84.0067,137.7419 82.645,133.5621 81.0455,129.2785 79.2046,124.8397 77.2751,120.7191 75.0987,117.0354 72.6977,113.8855 70.4089,111.226 68.0042,108.9619 65.0879,107.1605 61.9074,106.1624 58.7227,105.7959 55.1945,105.7328 51.77,105.9285 48.6037,106.4052 44.8118,107.3288 40.8412,108.7795 37.6946,110.2591 35.2451,111.7706 33.0819,114.2026 31.2838,117.6635 30.1566,121.0949 29.9692,124.1446 30.7879,127.4211 32.3689,130.9287 34.2876,134.2139 36.1214,137.2142 37.4709,140.2767 38.3094,143.5593 38.7111,147.3111 38.4475,151.3645 37.4239,155.0127 35.8368,158.349 33.6614,161.8122 30.8417,164.7273 27.7556,166.7013 24.5078,168.0199 20.9292,168.7903 17.146,169.2942 13.4366,169.5123 9.9959,169.5039 6.417,169.5551 2.7387,170.2601 -0.3199,172.3107 -1.8982,175.5392 -2.2627,179.1682 -2.2461,183.0677 -1.9889,186.7004 -1.9483,189.8103 -2.5523,193.3859 -3.9139,197.0395 -6.0662,199.899 -9.4209,201.7883 -13.3245,201.9891 -16.8165,201.0631 -20.1247,199.9523 -23.6568,198.3655 -27.0793,196.4033 -30.043,194.1422 -32.9346,191.3842 -35.9938,188.0418 -39.084,184.2611 -41.9414,180.0329 -44.1796,175.7349 -45.5037,171.5228 -46.0852,167.2669 -46.2023,162.9547 -46.0737,158.3604 -45.638,153.5132 -44.8814,148.5487 -44.0373,143.6668 -42.9672,139.1183 -41.6032,134.7956 -40.026,130.7402 -38.344,126.7491 -36.7039,122.9518 -34.876,119.6553 -32.713,116.8579 -30.1903,114.4055 -27.4855,111.9848 -24.9188,109.8377 -22.2772,107.8817 -19.5161,105.9751 -16.7606,103.8766 -14.1479,101.559 -11.764,98.8944 -9.816,96.1366 -8.4435,93.4376 -7.3377,90.6307 -6.4866,87.6358 -6.1612,84.1233 -6.2824,80.3012 -6.7909,76.1928 -7.6322,71.747 -8.9537,67.2071 -10.5516,62.6884 -12.3028,58.4201 -14.5611,54.5549 -17.1948,51.0044 -19.7855,47.7211 -21.8701,44.5376 -23.683,41.274 -25.3881,37.9304 -26.7961,34.6722 -27.9598,31.4215 -29.0733,27.6097 -29.926,24.0529 -30.4841,21.2255 -30.9421,18.3006 -31.3133,15.2034 -31.301,12.0573 -30.4917,9.0729 -28.9448,6.5029 -26.573,3.8178 -23.8834,1.3103 -21.1124,-0.4755 -17.6773,-1.9592 -13.4396,-2.9987 -8.9216,-3.3972 -4.4101,-2.8929 -0.7753,-1.7894 0.534,-1.2026 A1.3159,1.3159 0 0 1 -0.534,1.2026 Z" stroke-linecap="round" fill="#f76707"/></g></g><g transform="matrix(1, 0, 0, 1, 245.9211, 807.7963)" opacity="1"><g transform="scale(1)"><path d="M1.8821,-0.3758 T2.1735,1.0809 2.9319,4.8606 3.8709,9.0358 4.7181,12.8014 5.4342,17.0868 5.9407,20.6426 6.1061,21.8264 A1.9423,1.9423 0 0 1 2.2595,22.3682 T2.0941,21.2031 1.6261,17.8206 0.9762,13.7565 0.1129,9.8279 -0.8523,5.518 -1.5917,1.8328 -1.8821,0.3758 A1.9192,1.9192 0 0 1 1.8821,-0.3758 ZM2.4836,21.1564 T2.6626,20.8953 3.4038,19.0601 4.4751,15.9293 5.7955,12.675 7.4951,9.1743 9.2412,5.4806 10.9009,2.1919 12.7445,-1.0535 13.7862,-2.9008 A1.9258,1.9258 0 0 1 17.0138,-0.7992 T16.5891,-0.1254 15.2951,2.2078 13.5895,5.4686 11.9343,9.0029 10.2556,12.6689 8.5829,16.3753 7.1868,19.9799 6.2426,22.3247 5.882,23.0382 A1.9423,1.9423 0 0 1 2.4836,21.1564 Z" stroke-linecap="round" fill="#f76707"/></g></g><g transform="matrix(1, 0, 0, 1, 278.5627, 800.4058)" opacity="1"><g transform="scale(1)"><path d="M-0.2825,1.6859 T-1.1034,1.5357 -3.035,2.3964 -5.0546,5.3073 -6.6341,8.8343 -7.6236,11.94 -8.2079,16.0646 -8.5442,20.9909 -8.6344,24.9456 -8.4391,28.1033 -7.6207,31.7241 -7.0169,33.8616 A1.7219,1.7219 0 0 1 -10.2231,35.1184 T-10.5891,34.2396 -11.4499,30.9784 -12.0886,26.8132 -12.1828,22.9015 -11.9581,18.2161 -11.5675,14.1501 -10.9326,10.8881 -9.7825,7.3953 -7.0945,2.5904 -3.3565,-1.2233 -0.6467,-1.829 0.2825,-1.6859 A1.7094,1.7094 0 0 1 -0.2825,1.6859 Z" stroke-linecap="round" fill="#f76707"/></g></g><g transform="matrix(1, 0, 0, 1, 285.9532, 817.0345)" opacity="1"><g transform="scale(1)"><path d="M-0.4269,1.4959 T-1.415,1.2138 -3.5436,2.629 -3.7808,5.6001 -1.7644,5.6341 -0.6895,4.0298 -0.7277,3.6652 A1.5516,1.5516 0 0 1 2.3193,3.0773 T2.1908,4.5262 1.2229,7.3242 -0.9529,9.3999 -4.161,9.764 -6.9763,8.0902 -7.8578,5.1789 -6.7796,1.3568 -3.7189,-1.4803 -0.6236,-1.7956 0.4269,-1.4959 A1.5556,1.5556 0 0 1 -0.4269,1.4959 ZM2.1641,4.103 T2.1224,4.1807 2.0808,4.2584 A1.5515,1.5515 0 0 1 -0.6555,2.7951 T-0.614,2.7173 -0.5725,2.6395 A1.5516,1.5516 0 0 1 2.1641,4.103 ZM2.054,2.7471 T2.402,3.3476 3.4227,5.5044 4.9913,8.8734 6.6623,12.4534 7.7924,16.0335 8.2401,19.4858 7.8358,23.0805 5.667,26.0903 1.8732,27.1473 -1.7338,26.3925 -3.8899,25.1692 -4.561,24.7031 A1.5618,1.5618 0 0 1 -2.839,22.0969 T-2.147,22.5315 -0.1332,23.5454 2.9381,23.6405 4.8628,21.4859 4.7808,17.6624 3.7929,13.7905 2.2916,10.4462 0.7651,7.1105 -0.3098,4.8534 -0.6287,4.3064 A1.5515,1.5515 0 0 1 2.054,2.7471 Z" stroke-linecap="round" fill="#f76707"/></g></g><g transform="matrix(1, 0, 0, 1, 298.2708, 802.2534)" opacity="1"><g transform="scale(1)"><path d="M1.7638,-0.8801 T2.3363,0.2919 3.411,2.9297 4.6641,6.7608 6.0879,11.5757 6.9685,15.6817 7.2814,18.7648 7.3269,22.5923 6.7862,27.0956 5.2917,31.1772 3.626,34.1097 2.9738,35.0632 A2.113,2.113 0 0 1 -0.5138,32.6768 T0.6041,31.1052 2.2229,27.9196 3.0457,24.5188 3.2624,20.2569 2.7249,15.1959 1.6445,10.2678 0.2072,5.5627 -1.1727,2.04 -1.7638,0.8801 A1.9712,1.9712 0 0 1 1.7638,-0.8801 Z" stroke-linecap="round" fill="#f76707"/></g></g><g transform="matrix(1, 0, 0, 1, -1.0466, 950.6804)" opacity="1"><g transform="scale(1)"><path d="M1.3339,-1.3339 T2.0556,-0.5988 4.077,1.5954 6.6826,4.3555 9.4361,6.653 12.3088,8.7929 15.0601,10.6 18.1125,12.1475 21.6736,13.9376 25.2658,15.4986 28.4037,16.7003 31.8504,17.8923 35.3999,19.122 38.2687,20.277 41.6365,21.5133 45.4313,22.4978 48.852,22.9224 52.3402,23.2995 55.7346,23.8222 59.0499,24.1322 63.1485,24.3548 67.4274,24.7965 70.9851,25.3308 74.6301,25.7254 78.4549,26.1025 81.7083,26.3946 84.9549,26.458 88.5234,26.4642 92.3281,26.4495 96.4218,26.4249 100.5289,26.3968 104.7348,26.5937 109.0143,26.8574 113.2192,26.9272 117.5632,26.7309 121.9422,26.2344 126.4298,25.8683 131.1025,25.7635 135.6617,25.7377 139.951,25.5147 144.1696,25.0168 148.2958,24.3186 152.4797,23.5465 157.0025,23.0002 161.5197,22.5421 165.8012,21.9768 169.687,21.2559 173.6419,20.4691 178.0466,19.6822 182.3172,19.0047 186.2865,18.4531 190.2816,17.843 194.0344,17.2263 197.5104,16.4252 201.3544,15.5135 205.2185,14.6854 208.6919,13.9318 211.9484,13.2819 215.0768,12.6591 218.7476,11.7725 222.6376,10.7035 225.7804,9.7878 228.7329,8.6974 232.186,7.3783 236.1075,5.9208 240.0289,4.4744 243.2219,3.2041 246.1109,1.7861 248.3812,0.4833 249.079,-0.0307 A2.4569,2.4569 0 0 1 252.241,3.7307 T251.6148,4.3298 249.3553,6.0707 246.1635,7.8475 242.7992,9.1496 239.2408,10.4568 236.1496,11.6862 233.0273,12.9042 229.3712,14.1495 225.9785,15.3025 222.6149,16.2616 219.0969,17.1866 215.8705,18.001 212.7476,18.6269 209.5157,19.274 206.203,19.992 202.7567,20.7069 198.9408,21.596 195.1109,22.4676 191.2941,23.0717 187.2524,23.6587 183.0984,24.2094 178.9337,24.8325 174.8271,25.5299 170.5708,26.3411 166.2691,27.1192 161.8846,27.6879 157.6254,28.1139 153.5215,28.6082 149.078,29.4231 144.5748,30.1843 140.1394,30.7035 135.6866,30.9438 131.1859,30.974 126.7199,31.0706 122.3317,31.4296 117.7175,31.9319 113.1537,32.1327 108.7671,32.0461 104.5382,31.7468 100.5257,31.5028 96.4203,31.4737 92.322,31.4453 88.5004,31.4171 84.8673,31.3747 81.4018,31.2631 78.1202,30.9249 74.8399,30.5674 71.6286,30.16 68.0448,29.5406 64.0177,28.9814 60.0731,28.6732 56.0078,28.2896 52.4712,27.7979 49.3106,27.3882 45.6778,26.7827 41.6469,25.8113 38.0224,24.5762 34.6716,23.1335 31.2664,21.8924 28.2634,20.8697 24.9164,19.5859 21.1888,17.9621 17.536,16.1011 14.2737,14.3477 11.2922,12.466 8.4711,10.6534 5.8225,8.7572 3.49,6.5214 1.3272,4.102 -0.5988,2.0556 -1.3339,1.3339 A1.8864,1.8864 0 0 1 1.3339,-1.3339 Z" stroke-linecap="round" fill="#e599f7"/></g></g><g transform="matrix(1, 0, 0, 1, 248.3846, 952.528)" opacity="1"><g transform="scale(1)"><path d="M-1.175,0.9781 T-1.927,0.1243 -3.8016,-1.6888 -6.3823,-3.0609 -8.7414,-3.7357 -9.6423,-3.9976 A1.594,1.594 0 0 1 -8.8377,-7.0824 T-7.9237,-6.871 -4.8536,-5.8981 -1.4661,-3.9536 0.4702,-1.8744 1.175,-0.9781 A1.5289,1.5289 0 0 1 -1.175,0.9781 Z" stroke-linecap="round" fill="#e599f7"/></g></g><g transform="matrix(1, 0, 0, 1, 249.6163, 952.528)" opacity="1"><g transform="scale(1)"><path d="M1.5272,-0.1709 T1.6842,1.1382 1.9886,4.664 1.9606,8.9014 1.3585,13.2906 0.9318,15.6592 A1.5732,1.5732 0 0 1 -2.1718,15.1408 T-1.8315,12.9172 -1.2844,8.8469 -1.1661,4.8969 -1.3909,1.4823 -1.5272,0.1709 A1.5367,1.5367 0 0 1 1.5272,-0.1709 Z" stroke-linecap="round" fill="#e599f7"/></g></g><g transform="matrix(1, 0, 0, 1, 245.3052, 924.8134)" opacity="1"><g transform="scale(1)"><path d="M-1.0944,0.7276 T-1.6831,-0.1401 -3.6633,-0.4693 -4.8573,1.619 -3.6803,2.6143 -2.7008,2.0598 A1.3682,1.3682 0 0 1 -0.1557,3.065 T-0.5309,3.9156 -2.5989,5.4066 -5.8244,5.1654 -7.7445,2.2459 -7.4084,-1.0344 -4.8075,-3.2364 -1.4927,-3.3441 0.5195,-1.61 1.0944,-0.7276 A1.3142,1.3142 0 0 1 -1.0944,0.7276 ZM-1.6002,1.2051 T-1.4091,1.1808 -1.218,1.1565 A1.3683,1.3683 0 0 1 -0.8739,3.8714 T-1.0651,3.8956 -1.2562,3.9198 A1.3682,1.3682 0 0 1 -1.6002,1.2051 ZM0.1657,1.8782 T0.427,2.3814 1.5187,4.268 3.219,7.2787 4.2899,10.6117 3.779,14.0293 1.5495,16.5344 -1.8607,16.5312 -4.4389,15.2836 -5.1247,14.8323 A1.5192,1.5192 0 0 1 -3.4953,12.2677 T-2.7954,12.6968 -0.5386,13.3346 1.2418,12.105 0.7561,8.954 -0.7658,5.8375 -1.918,3.7917 -2.2576,3.1498 A1.3683,1.3683 0 0 1 0.1657,1.8782 Z" stroke-linecap="round" fill="#e599f7"/></g></g><g transform="matrix(1, 0, 0, 1, 258.8545, 910.0323)" opacity="1"><g transform="scale(1)"><path d="M1.3373,0.3335 T0.6079,1.3512 -0.787,3.8057 -2.1635,7.128 -3.0518,10.6388 -3.2585,14.0731 -3.0728,17.7198 -2.2793,20.7519 -1.7011,21.9464 A1.6165,1.6165 0 0 1 -4.4589,23.6336 T-4.812,23.0683 -5.7004,20.808 -6.3859,16.8626 -6.4687,12.6883 -5.9495,8.7613 -4.9451,5.2956 -3.5923,2.1555 -2.0647,-0.5478 -1.3373,-1.5735 A1.6424,1.6424 0 0 1 1.3373,0.3335 Z" stroke-linecap="round" fill="#e599f7"/></g></g><g transform="matrix(1, 0, 0, 1, 268.0927, 918.0388)" opacity="1"><g transform="scale(1)"><path d="M-1.5502,-0.3442 T-1.2813,-1.6557 -1.0384,-4.0026 -1.0644,-5.038 A1.6738,1.6738 0 0 1 2.2831,-5.0068 T2.2296,-3.6402 1.8631,-0.9647 1.5502,0.3442 A1.5879,1.5879 0 0 1 -1.5502,-0.3442 ZM-0.2466,-3.584 T-0.191,-3.7394 -0.8424,-2.5087 -1.9834,0.5104 -2.536,3.6942 -1.9178,7.1087 -0.9548,10.7122 -2.3654,13.6319 -5.7423,14.7723 -8.4551,14.589 -9.4279,14.4451 A1.5267,1.5267 0 0 1 -9.0521,11.4149 T-8.0737,11.5129 -5.7273,10.4739 -4.9496,7.9477 -5.6754,4.5139 -5.3938,0.8515 -4.1319,-2.8568 -1.8543,-6.0769 0.5218,-6.8338 1.4653,-6.4608 A1.6738,1.6738 0 0 1 -0.2466,-3.584 Z" stroke-linecap="round" fill="#e599f7"/></g></g><g transform="matrix(1, 0, 0, 1, 266.2451, 924.8134)" opacity="1"><g transform="scale(1)"><path d="M-0.3437,1.7073 T-1.8805,1.3817 -3.4174,1.0561 A1.7097,1.7097 0 0 1 -2.7426,-2.2961 T-1.1995,-2.0017 0.3437,-1.7073 A1.7415,1.7415 0 0 1 -0.3437,1.7073 Z" stroke-linecap="round" fill="#e599f7"/></g></g><g transform="matrix(1, 0, 0, 1, 273.6357, 914.3435)" opacity="1"><g transform="scale(1)"><path d="M1.2625,0.5606 T0.6957,1.8775 -0.526,4.7985 -1.6139,8.1403 -1.9782,11.5246 -1.0203,14.1226 -0.1312,15.0739 A1.4434,1.4434 0 0 1 -2.3288,16.9461 T-3.5696,15.3973 -4.9131,11.6837 -4.4652,7.4689 -3.1853,3.7327 -1.8593,0.743 -1.2625,-0.5606 A1.3814,1.3814 0 0 1 1.2625,0.5606 Z" stroke-linecap="round" fill="#e599f7"/></g></g><g transform="matrix(1, 0, 0, 1, 281.0262, 921.1182)" opacity="1"><g transform="scale(1)"><path d="M1.0814,0.9284 T0.2293,1.9674 -1.6957,4.2309 -4.3058,6.6792 -5.843,7.903 A1.4639,1.4639 0 0 1 -7.697,5.637 T-6.3565,4.5063 -3.9467,2.2233 -1.9794,0.0712 -1.0814,-0.9284 A1.4253,1.4253 0 0 1 1.0814,0.9284 Z" stroke-linecap="round" fill="#e599f7"/></g></g><g transform="matrix(1, 0, 0, 1, 275.4833, 921.734)" opacity="1"><g transform="scale(1)"><path d="M1.325,-0.7563 T1.9202,0.2527 3.63,3.1174 5.1997,5.8029 5.6547,6.6327 A1.5433,1.5433 0 0 1 2.9653,8.1473 T2.4916,7.3281 0.9149,4.6622 -0.7566,1.7859 -1.325,0.7563 A1.5256,1.5256 0 0 1 1.325,-0.7563 Z" stroke-linecap="round" fill="#e599f7"/></g></g><g transform="matrix(1, 0, 0, 1, 282.8738, 914.9594)" opacity="1"><g transform="scale(1)"><path d="M1.3749,-0.4129 T1.8215,1.0416 2.6569,4.5754 2.8751,9.002 1.6578,13.4123 -0.0562,16.2254 -0.7235,16.9754 A1.4836,1.4836 0 0 1 -2.9765,15.0446 T-2.3375,14.2703 -1.0085,12.1428 -0.1028,8.9505 -0.2026,5.2214 -0.9465,1.8721 -1.3749,0.4129 A1.4356,1.4356 0 0 1 1.3749,-0.4129 Z" stroke-linecap="round" fill="#e599f7"/></g></g><g transform="matrix(1, 0, 0, 1, 286.5691, 911.88)" opacity="1"><g transform="scale(1)"><path d="M1.812,-0.68 T2.2421,0.4883 3.2665,3.1804 4.283,7.1957 4.6787,12.3605 4.1673,17.3566 3.0943,21.1277 2.0693,23.3854 1.6321,24.1949 A1.8154,1.8154 0 0 1 -1.6321,22.6051 T-0.863,20.5635 0.3319,16.6178 0.8118,12.3851 0.5224,7.907 -0.3716,4.3823 -1.367,1.8436 -1.812,0.68 A1.9354,1.9354 0 0 1 1.812,-0.68 Z" stroke-linecap="round" fill="#e599f7"/></g></g><g transform="matrix(1, 0, 0, 1, 156.0027, 944.5216)" opacity="1"><g transform="scale(1)"><path d="M-1.5154,0.218 T-1.6788,-0.7929 -2.5521,-0.4412 -2.2961,0.6952 -1.3303,0.4689 A1.5512,1.5512 0 0 1 0.3997,3.0442 T-1.3106,3.6077 -4.5306,3.1586 -6.0745,0.2091 -5.375,-3.278 -2.8964,-5.2988 0.0521,-4.0212 1.3855,-1.2457 1.5154,-0.218 A1.531,1.531 0 0 1 -1.5154,0.218 ZM-0.1599,0.2358 T-0.0499,0.2582 0.0601,0.2806 A1.5506,1.5506 0 0 1 -0.5505,3.3209 T-0.6606,3.2991 -0.7707,3.2773 A1.5512,1.5512 0 0 1 -0.1599,0.2358 ZM1.0777,0.992 T1.2644,1.3076 2.1289,3.0388 3.6427,6.1369 4.9557,9.5103 5.4782,12.6602 4.6577,15.7876 2.2417,18.3287 -0.8607,18.9435 -3.6403,17.8588 -5.8892,15.4169 -6.9111,13.8018 A1.6248,1.6248 0 0 1 -4.1689,12.0582 T-3.42,13.2281 -1.2551,15.1048 1.3162,14.4676 2.1314,11.6302 1.1281,8.4908 -0.2679,5.181 -1.2845,3.0634 -1.5681,2.6095 A1.5506,1.5506 0 0 1 1.0777,0.992 Z" stroke-linecap="round" fill="#e599f7"/></g></g><g transform="matrix(1, 0, 0, 1, 167.0885, 934.0516)" opacity="1"><g transform="scale(1)"><path d="M1.7541,0.8753 T1.17,2.04 -0.0248,5.0391 -1.0073,9.5767 -1.2654,14.2965 -0.3805,16.9125 0.3906,17.5118 A1.8741,1.8741 0 0 1 -1.6306,20.6682 T-2.2304,20.3223 -4.0026,18.2356 -5.2779,14.2256 -4.9204,8.9539 -3.6865,3.7053 -2.3336,0.2919 -1.7541,-0.8753 A1.9604,1.9604 0 0 1 1.7541,0.8753 Z" stroke-linecap="round" fill="#e599f7"/></g></g><g transform="matrix(1, 0, 0, 1, 174.479, 942.0581)" opacity="1"><g transform="scale(1)"><path d="M-1.6014,-0.4376 T-1.1803,-2.0432 -0.4401,-5.1802 -0.3643,-7.0808 -0.6076,-7.4499 A1.7476,1.7476 0 0 1 2.6845,-8.6237 T2.982,-7.4762 2.8944,-4.5422 2.0553,-1.159 1.6014,0.4376 A1.6602,1.6602 0 0 1 -1.6014,-0.4376 ZM1.9751,-6.5614 T1.5528,-6.3323 0.4662,-4.7908 -0.284,-1.8343 0.5331,1.2913 2.3493,4.6524 2.8516,8.2861 0.8703,10.8628 -2.8982,11.2205 -5.7207,10.3557 -6.345,9.9562 A1.56,1.56 0 0 1 -4.735,7.2838 T-4.09,7.649 -1.8633,8.0871 -0.6038,6.6772 -2.11,3.471 -3.6448,-0.0189 -3.7084,-3.2655 -2.4352,-6.5977 -0.6737,-8.9809 0.1018,-9.5122 A1.7476,1.7476 0 0 1 1.9751,-6.5614 Z" stroke-linecap="round" fill="#e599f7"/></g></g><g transform="matrix(1, 0, 0, 1, 177.5584, 945.1375)" opacity="1"><g transform="scale(1)"><path d="M0.3441,1.3794 T-0.8266,1.6509 -3.3011,2.228 -4.6048,2.5335 A1.3435,1.3435 0 0 1 -5.2552,-0.0735 T-3.9608,-0.4162 -1.5053,-1.0691 -0.3441,-1.3794 A1.4217,1.4217 0 0 1 0.3441,1.3794 Z" stroke-linecap="round" fill="#e599f7"/></g></g><g transform="matrix(1, 0, 0, 1, 185.5649, 934.6675)" opacity="1"><g transform="scale(1)"><path d="M1.2241,0.6987 T0.6503,1.7223 -0.7031,4.5934 -1.9677,7.853 -2.3544,10.7177 -0.3461,13.0627 1.564,13.9551 A1.483,1.483 0 0 1 0.896,16.8449 T0.1846,16.6921 -2.4358,15.5593 -5.0236,13.0196 -5.5268,9.9889 -4.7753,6.9289 -3.3015,3.3356 -1.8139,0.3163 -1.2241,-0.6987 A1.4095,1.4095 0 0 1 1.2241,0.6987 Z" stroke-linecap="round" fill="#e599f7"/></g></g><g transform="matrix(1, 0, 0, 1, 195.4189, 937.7469)" opacity="1"><g transform="scale(1)"><path d="M1.118,0.7989 T0.4016,1.8269 -1.5201,4.3254 -4.2483,7.3723 -5.7711,8.9487 A1.3707,1.3707 0 0 1 -7.7689,7.0713 T-6.3326,5.4985 -3.7475,2.574 -1.8584,0.2117 -1.118,-0.7989 A1.3741,1.3741 0 0 1 1.118,0.7989 Z" stroke-linecap="round" fill="#e599f7"/></g></g><g transform="matrix(1, 0, 0, 1, 190.4919, 939.5945)" opacity="1"><g transform="scale(1)"><path d="M1.2415,-0.4127 T1.5389,0.4592 2.6327,2.5752 4.5128,4.4227 5.5966,5.026 A1.3154,1.3154 0 0 1 4.2634,7.294 T2.8154,6.409 0.3473,3.8465 -0.9571,1.2909 -1.2415,0.4127 A1.3083,1.3083 0 0 1 1.2415,-0.4127 Z" stroke-linecap="round" fill="#e599f7"/></g></g><g transform="matrix(1, 0, 0, 1, 196.6507, 935.2834)" opacity="1"><g transform="scale(1)"><path d="M0.8463,-1.2728 T1.7307,-0.7 3.8141,1.3534 5.5881,4.412 5.779,8.1739 4.8574,11.6824 2.9748,14.2113 1.6296,15.4157 A1.6035,1.6035 0 0 1 -0.3896,12.9243 T0.1851,12.442 1.4802,10.6862 2.4925,7.47 1.8347,3.9909 0.0194,1.8636 -0.8463,1.2728 A1.5285,1.5285 0 0 1 0.8463,-1.2728 Z" stroke-linecap="round" fill="#e599f7"/></g></g><g transform="matrix(1, 0, 0, 1, 202.1936, 930.9722)" opacity="1"><g transform="scale(1)"><path d="M1.3287,-1.3287 T2.0508,-0.594 4.0368,1.5763 5.8662,4.8179 6.7955,8.9304 6.8655,13.3835 5.541,17.2105 3.8652,19.5944 3.2202,20.2982 A1.8268,1.8268 0 0 1 0.4798,17.8818 T1.0974,17.1537 2.4723,14.9408 3.2204,11.6776 2.7661,7.543 1.2309,3.9799 -0.594,2.0508 -1.3287,1.3287 A1.879,1.879 0 0 1 1.3287,-1.3287 Z" stroke-linecap="round" fill="#e599f7"/></g></g><g transform="matrix(1, 0, 0, 1, 138.1421, 948.2169)" opacity="1"><g transform="scale(1)"><path d="M-0.3567,-1.25 T1.8065,-1.8361 3.9698,-2.4222 A1.2398,1.2398 0 0 1 4.6502,-0.0378 T2.5035,0.6061 0.3567,1.25 A1.2999,1.2999 0 0 1 -0.3567,-1.25 Z" stroke-linecap="round" fill="#e599f7"/></g></g><g transform="matrix(1, 0, 0, 1, 136.9104, 953.1439)" opacity="1"><g transform="scale(1)"><path d="M0,-1.5615 T1.018,-1.5997 3.9778,-1.9274 5.9198,-2.2169 A1.6149,1.6149 0 0 1 6.4002,0.9769 T4.2208,1.3074 1.0207,1.5997 0,1.5615 A1.5615,1.5615 0 0 1 0,-1.5615 Z" stroke-linecap="round" fill="#e599f7"/></g></g><g transform="matrix(1, 0, 0, 1, 115.3546, 940.8263)" opacity="1"><g transform="scale(1)"><path d="M1.2203,0.4692 T0.5107,2.3708 -0.9722,6.4812 -1.941,10.2607 -0.3342,12.3358 1.468,12.8402 A1.351,1.351 0 0 1 0.992,15.4998 T-1.1797,15.0331 -4.1345,13.155 -4.663,9.8346 -3.5616,5.6153 -1.9675,1.4179 -1.2203,-0.4692 A1.3074,1.3074 0 0 1 1.2203,0.4692 Z" stroke-linecap="round" fill="#e599f7"/></g></g><g transform="matrix(1, 0, 0, 1, 123.9769, 945.7533)" opacity="1"><g transform="scale(1)"><path d="M1.6799,1.0624 T0.6644,2.0881 -2.4865,4.8667 -4.6218,6.6195 A1.4172,1.4172 0 0 1 -6.4582,4.4605 T-4.4769,2.7119 -1.4678,-0.0495 -0.4399,-1.0624 A1.5007,1.5007 0 0 1 1.6799,1.0624 Z" stroke-linecap="round" fill="#e599f7"/></g></g><g transform="matrix(1, 0, 0, 1, 118.434, 946.9851)" opacity="1"><g transform="scale(1)"><path d="M0.9891,-0.8233 T1.7267,0.043 4.1253,2.4521 5.7862,3.9949 A1.2679,1.2679 0 0 1 4.0738,5.8651 T2.2616,4.228 -0.2699,1.7071 -0.9891,0.8233 A1.2869,1.2869 0 0 1 0.9891,-0.8233 Z" stroke-linecap="round" fill="#e599f7"/></g></g><g transform="matrix(1, 0, 0, 1, 127.0563, 940.2104)" opacity="1"><g transform="scale(1)"><path d="M1.4432,-0.5763 T2.0351,0.8768 3.1599,4.5511 3.463,8.8374 2.3574,13.1256 1.4816,15.3485 A1.5869,1.5869 0 0 1 -1.4816,14.2115 T-0.7313,12.1964 0.2631,8.7264 0.1036,5.3844 -0.8716,2.0368 -1.4432,0.5763 A1.554,1.554 0 0 1 1.4432,-0.5763 Z" stroke-linecap="round" fill="#e599f7"/></g></g><g transform="matrix(1, 0, 0, 1, 103.037, 942.6739)" opacity="1"><g transform="scale(1)"><path d="M-0.7909,1.5691 T-1.0808,1.4204 -1.3706,1.2716 A1.7525,1.7525 0 0 1 0.207,-1.8582 T0.499,-1.7136 0.7909,-1.5691 A1.7571,1.7571 0 0 1 -0.7909,1.5691 ZM1.0579,0.3251 T0.8596,0.8068 0.9853,3.2886 1.9825,7.0179 3.1029,10.1312 3.654,13.5571 2.6929,16.692 -0.2052,18.1369 -3.5514,17.055 -5.396,14.9806 -5.7275,14.3397 A1.6226,1.6226 0 0 1 -2.8925,12.7603 T-1.2047,13.2367 0.0041,11.963 -1.2207,8.3117 -2.3639,3.5091 -2.4914,-0.1519 -2.2215,-0.9117 A1.7525,1.7525 0 0 1 1.0579,0.3251 Z" stroke-linecap="round" fill="#e599f7"/></g></g><g transform="matrix(1, 0, 0, 1, 106.1164, 951.9121)" opacity="1"><g transform="scale(1)"><path d="M0.3104,1.8521 T-1.5423,2.1462 -3.395,2.4403 A1.8457,1.8457 0 0 1 -4.005,-1.2003 T-2.1577,-1.5262 -0.3104,-1.8521 A1.8779,1.8779 0 0 1 0.3104,1.8521 Z" stroke-linecap="round" fill="#e599f7"/></g></g><g transform="matrix(1, 0, 0, 1, 89.4877, 949.4486)" opacity="1"><g transform="scale(1)"><path d="M1.2281,0.8165 T0.6579,1.6957 1.0679,3.8153 1.5549,3.5163 1.0615,1.977 A1.5695,1.5695 0 0 1 2.6385,-0.737 T4.0591,0.1453 5.8729,2.7613 5.5781,5.8975 3.4128,7.8167 -0.2593,7.6799 -3.0174,5.4893 -2.9978,2.4388 -1.8215,0.0544 -1.2281,-0.8165 A1.4748,1.4748 0 0 1 1.2281,0.8165 Z" stroke-linecap="round" fill="#e599f7"/></g></g><g transform="matrix(1, 0, 0, 1, 79.6336, 951.2963)" opacity="1"><g transform="scale(1)"><path d="M0,1.5978 T-0.8697,1.611 -2.2136,2.9738 -2.6879,4.3232 A1.6616,1.6616 0 0 1 -6.0092,4.4334 T-5.6659,2.7591 -3.5417,-0.2698 -0.8804,-1.611 0,-1.5978 A1.5978,1.5978 0 0 1 0,1.5978 ZM-3.3466,3.0528 T-2.7094,3.5587 -1.8677,2.5938 -1.6633,1.1229 A1.6667,1.6667 0 0 1 1.6633,1.3371 T1.611,2.2024 0.853,4.8283 -1.7408,6.7728 -4.4897,6.3302 -5.3505,5.7038 A1.6616,1.6616 0 0 1 -3.3466,3.0528 ZM1.6661,1.2775 T1.64,1.6447 1.9234,3.504 2.9968,6.2433 4.6179,8.7461 6.1654,11.7368 6.4522,14.8556 4.4741,16.853 1.2578,17.369 -1.2381,17.1211 -2.0924,16.9711 A1.5897,1.5897 0 0 1 -1.6076,13.8289 T-0.7478,13.9433 1.3564,12.9073 1.6942,10.3697 0.0125,7.6849 -1.2181,4.4625 -1.6698,1.8601 -1.6661,1.1825 A1.6667,1.6667 0 0 1 1.6661,1.2775 Z" stroke-linecap="round" fill="#e599f7"/></g></g><g transform="matrix(1, 0, 0, 1, 70.3954, 945.7533)" opacity="1"><g transform="scale(1)"><path d="M1.3018,0.391 T0.8627,1.8472 0.0987,5.1127 -0.1731,8.3545 1.0705,10.924 3.0247,12.5289 3.7884,12.9968 A1.3705,1.3705 0 0 1 2.3716,15.3432 T0.767,14.3577 -1.8404,11.8053 -2.8877,8.3868 -2.553,4.5295 -1.7378,1.0665 -1.3018,-0.391 A1.3592,1.3592 0 0 1 1.3018,0.391 Z" stroke-linecap="round" fill="#e599f7"/></g></g><g transform="matrix(1, 0, 0, 1, 107.3482, 940.2104)" opacity="1"><g transform="scale(1)"><path d="M1.6273,-0.4887 T2.0453,0.9739 3.1489,4.2741 4.4822,7.7443 5.4513,10.9307 5.7061,14.4315 5.0446,18.3081 3.4682,21.4111 2.4865,22.5847 A1.6214,1.6214 0 0 1 -0.0265,20.5353 T0.9299,19.2664 2.2056,16.3185 2.3009,12.6439 1.4342,8.9969 0.0392,5.3681 -1.1702,1.9397 -1.6273,0.4887 A1.6992,1.6992 0 0 1 1.6273,-0.4887 Z" stroke-linecap="round" fill="#e599f7"/></g></g></svg>