<svg xmlns="http://www.w3.org/2000/svg" direction="ltr" width="1636.0567497409465" height="521.1127869257407" viewBox="-290.6147564616644 3593.555632475214 1636.0567497409465 521.1127869257407" stroke-linecap="round" stroke-linejoin="round" data-color-mode="dark" class="tl-container tl-theme__force-sRGB tl-theme__dark" style="background-color: transparent;"><defs/><g transform="matrix(1, 0, 0, 1, -184.0548, 3669.607)" opacity="1"><g transform="scale(1)"><path d="M-2.2576,0.5644 T-3.7741,-5.4791 -6.5886,-15.6476 -9.0447,-22.3447 -12.2508,-27.2712 -16.3146,-30.2252 -20.1331,-29.4651 -23.233,-26.2145 -25.4352,-20.1891 -27.0854,-13.4971 -28.1577,-8.3728 -28.6702,-2.9308 -28.4582,3.2912 -27.837,10.0994 -27.0064,16.699 -25.5728,23.5468 -23.8087,30.6824 -21.8685,37.4194 -19.8035,44.5377 -18.1498,52.0001 -16.7623,59.448 -15.0455,66.7102 -13.1285,73.5114 -11.0803,80.6644 -8.974,87.9576 -7.308,95.5108 -6.3848,103.2311 -5.8977,110.8198 -5.6257,118.8621 -5.4655,126.6216 -5.8725,134.4428 -7.1048,142.3325 -9.3477,149.7637 -12.6894,156.5122 -16.6179,162.2385 -21.7189,166.6507 -27.2786,169.6228 -33.3863,170.6208 -40.7556,169.1089 -48.08,166.1124 -55.115,161.8333 -61.5085,156.2901 -67.3801,149.6967 -73.6065,142.1846 -76.8548,138.2815 A3.0124,3.0124 0 0 1 -72.2652,134.3785 T-68.9345,138.2114 -62.6771,145.3787 -57.1834,151.2569 -51.5786,155.9968 -45.4052,159.7596 -37.228,162.9857 -30.0348,163.4918 -25.8595,161.4597 -22.0465,158.2882 -18.6192,153.4476 -15.6499,147.792 -13.5647,141.2447 -12.3194,134.0802 -11.8484,126.7179 -11.9341,119.0483 -12.1287,111.1957 -12.5269,103.9172 -13.2836,96.8088 -14.8053,89.6063 -16.836,82.2821 -18.8145,75.0803 -20.7147,68.0252 -22.4177,60.4649 -23.6959,53.1779 -25.1886,46.0715 -27.1824,38.9274 -29.1203,31.9831 -30.8917,24.6284 -32.3432,17.3628 -33.1638,10.5638 -33.7639,3.4183 -33.9576,-3.4552 -33.3282,-9.4801 -32.2338,-14.6441 -31.103,-19.6878 -29.746,-24.9009 -27.3315,-29.4168 -21.5265,-33.6707 -15.2997,-35.2655 -10.8542,-32.5153 -7.0717,-28.5842 -4.5788,-24.0349 -2.0567,-16.9185 0.7516,-6.6108 2.2576,-0.5644 A2.327,2.327 0 0 1 -2.2576,0.5644 Z" stroke-linecap="round" fill="#4dabf7"/></g></g><g transform="matrix(1, 0, 0, 1, -79.6771, 3631.2642)" opacity="1"><g transform="scale(1)"><path d="M2.6437,0 T2.6715,2.5187 2.7345,7.8761 2.7977,13.7237 2.3304,20.5293 1.596,28.1328 1.7194,34.7441 2.2793,40.7593 2.5506,46.1294 3.6699,51.3948 4.7151,54.501 A2.7305,2.7305 0 0 1 -0.4551,56.259 T-1.1053,54.4439 -2.4153,50.6235 -3.203,46.4722 -3.5173,41.2799 -4.0686,34.8995 -4.1419,27.5483 -3.3379,20.1283 -2.7977,13.7199 -2.7345,7.8761 -2.6715,2.5187 -2.6437,0 A2.6437,2.6437 0 0 1 2.6437,0 Z" stroke-linecap="round" fill="#4dabf7"/></g></g><g transform="matrix(1, 0, 0, 1, -0.8614, 3716.4704)" opacity="1"><g transform="scale(1)"><path d="M0.5057,2.5285 T-2.0106,3.0431 -7.2751,4.3331 -13.1944,5.5796 -19.8721,6.7899 -27.0849,8.9043 -35.4627,11.6008 -44.562,14.1298 -56.4136,17.0102 -70.3689,19.5883 -82.8832,20.9747 -94.5464,21.7059 -105.7421,22.0604 -116.178,22.1855 -125.7083,22.1249 -135.4436,21.9967 -140.5691,21.9499 A2.78,2.78 0 0 1 -140.6109,16.3901 T-135.4868,16.2662 -125.7732,15.9916 -116.295,15.7305 -105.9558,15.475 -94.9357,15.1073 -83.5612,14.4681 -71.478,13.2541 -57.8762,10.898 -46.1224,8.239 -37.2033,5.9922 -28.5963,3.4497 -20.7854,1.3582 -14.2493,0.323 -8.477,-0.7797 -3.0268,-2.0356 -0.5057,-2.5285 A2.5786,2.5786 0 0 1 0.5057,2.5285 Z" stroke-linecap="round" fill="#4dabf7"/></g></g><g transform="matrix(1, 0, 0, 1, -139.3215, 3765.464)" opacity="1"><g transform="scale(1)"><path d="M2.2733,3.0393 T1.2674,5.5561 -0.2079,10.2279 -1.4447,16.1131 -2.6084,22.7433 -3.2135,28.1571 -3.5379,33.4865 -3.7166,39.3015 -3.8294,44.392 -3.5198,49.0224 -2.6312,53.0757 -2.1017,54.5898 A2.2984,2.2984 0 0 1 -6.4183,56.1702 T-6.9916,54.6722 -8.162,49.7916 -8.745,44.3055 -8.6732,39.1529 -8.5016,33.1781 -8.1615,27.6067 -7.5055,21.8944 -6.2761,15.0596 -4.884,8.7767 -3.2824,3.7413 -2.2733,1.2207 A2.4484,2.4484 0 0 1 2.2733,3.0393 Z" stroke-linecap="round" fill="#4dabf7"/></g></g><g transform="matrix(1, 0, 0, 1, -109.4993, 3784.6354)" opacity="1"><g transform="scale(1)"><path d="M2.745,0 T2.74,2.0352 2.176,6.0385 0.8181,9.9549 -0.8919,13.928 -2.7696,18.0344 -4.8511,21.8532 -7.6426,25.5541 -10.705,28.9907 -13.5954,32.0743 -15.1001,33.6848 A2.6024,2.6024 0 0 1 -18.9799,30.2152 T-16.2954,27.0651 -11.2671,20.7673 -7.9244,15.6062 -6.0182,11.6713 -3.9229,6.8697 -2.74,1.9948 -2.745,0 A2.745,2.745 0 0 1 2.745,0 Z" stroke-linecap="round" fill="#4dabf7"/></g></g><g transform="matrix(1, 0, 0, 1, -122.2802, 3788.8957)" opacity="1"><g transform="scale(1)"><path d="M2.5295,-0.6324 T3.0354,1.3812 4.2786,5.3258 5.4889,9.5512 8.3262,15.2178 13.3681,20.1358 18.0252,22.4757 20.0048,23.2697 A2.4377,2.4377 0 0 1 18.3352,27.8503 T16.3089,27.1842 12.0814,25.7135 8.1648,23.462 4.4017,19.3547 1.2149,12.8875 -0.7252,6.8729 -2.0279,2.6488 -2.5295,0.6324 A2.6073,2.6073 0 0 1 2.5295,-0.6324 Z" stroke-linecap="round" fill="#4dabf7"/></g></g><g transform="matrix(1, 0, 0, 1, -86.0676, 3786.7655)" opacity="1"><g transform="scale(1)"><path d="M1.9355,-0.1936 T2.4786,4.84 3.292,13.0476 3.6856,18.9267 3.9484,24.6096 4.088,27.5875 A1.9607,1.9607 0 0 1 0.172,27.7925 T-0.0002,24.8163 -0.3289,19.201 -0.7461,13.4191 -1.4711,5.2349 -1.9355,0.1936 A1.9452,1.9452 0 0 1 1.9355,-0.1936 Z" stroke-linecap="round" fill="#4dabf7"/></g></g><g transform="matrix(1, 0, 0, 1, -71.1565, 3799.5465)" opacity="1"><g transform="scale(1)"><path d="M0.4874,2.4372 T-2.0252,2.9717 -8.7796,4.3795 -15.7901,5.932 -18.5588,6.6112 A2.4293,2.4293 0 0 1 -19.7812,1.9088 T-17.0321,1.1538 -9.91,-0.5462 -3.0122,-1.9642 -0.4874,-2.4372 A2.4855,2.4855 0 0 1 0.4874,2.4372 Z" stroke-linecap="round" fill="#4dabf7"/></g></g><g transform="matrix(1, 0, 0, 1, -64.766, 3780.3751)" opacity="1"><g transform="scale(1)"><path d="M2.2895,-0.9158 T3.3166,1.6282 4.4711,7.4313 4.6381,13.7036 4.7112,19.3113 4.688,25.2894 4.5913,32.44 4.5515,36.2071 A2.4215,2.4215 0 0 1 -0.2915,36.2129 T-0.3402,32.4458 -0.4537,25.3 -0.5,19.3313 -0.4707,13.7401 -0.3868,8.3208 -1.3016,3.4093 -2.2895,0.9158 A2.4659,2.4659 0 0 1 2.2895,-0.9158 Z" stroke-linecap="round" fill="#4dabf7"/></g></g><g transform="matrix(1, 0, 0, 1, -56.2454, 3763.3338)" opacity="1"><g transform="scale(1)"><path d="M-0.8051,-2.4152 T1.0505,-2.8766 4.9087,-2.5077 8.4205,-0.0201 11.166,3.5089 13.6165,7.97 15.5055,13.0557 17.0005,18.2111 18.3201,23.9984 19.0736,30.2841 19.4724,36.6322 18.6253,43.8763 16.5909,50.9688 14.3159,56.3411 10.5083,60.181 5.612,62.8317 3.2905,63.9755 A2.4922,2.4922 0 0 1 0.9695,59.5645 T3.227,58.2989 7.8502,54.6074 11.1774,49.346 13.0368,43.2401 13.843,36.9102 13.5556,30.8836 13.0068,25.1583 11.8555,19.6247 10.5735,14.7688 8.0806,8.7991 4.6052,3.1165 1.9719,1.8691 0.8051,2.4152 A2.5459,2.5459 0 0 1 -0.8051,-2.4152 Z" stroke-linecap="round" fill="#4dabf7"/></g></g><g transform="matrix(1, 0, 0, 1, -15.7725, 3754.8132)" opacity="1"><g transform="scale(1)"><path d="M2.2452,-0.7484 T2.7512,0.817 3.0679,4.6625 2.2321,9.5445 0.7265,14.5676 -1.619,19.8744 -3.7401,25.4522 -5.26,31.2602 -7.1338,37.0853 -8.5569,43.4158 -9.2483,49.5525 -9.1639,54.0849 -7.1758,58.6163 -4.0471,62.7632 -2.5653,64.3956 A2.3544,2.3544 0 0 1 -5.9547,67.6644 T-7.5324,66.1245 -10.7897,62.8152 -13.2758,58.9912 -14.4614,54.241 -14.5523,48.9418 -13.6647,42.1579 -12.0915,35.4415 -10.1914,29.8919 -8.3737,23.6749 -6.0734,17.9052 -3.8527,13.1503 -2.1414,7.312 -1.7437,2.2054 -2.2452,0.7484 A2.3667,2.3667 0 0 1 2.2452,-0.7484 Z" stroke-linecap="round" fill="#4dabf7"/></g></g><g transform="matrix(1, 0, 0, 1, 9.7894, 3780.3751)" opacity="1"><g transform="scale(1)"><path d="M2.3824,0.3971 T1.9028,3.4385 0.0688,9.4177 -2.4132,15.1678 -5.2656,20.7176 -8.3304,25.7511 -11.5925,30.0291 -14.9561,33.4034 -17.9971,36.3508 -19.5968,37.9059 A2.4036,2.4036 0 0 1 -23.0032,34.5141 T-21.455,32.9078 -18.5229,29.8562 -15.6118,26.9204 -12.7027,23.0485 -9.7926,18.3522 -7.0428,13.0867 -4.6297,7.8729 -2.9103,2.6064 -2.3824,-0.3971 A2.4153,2.4153 0 0 1 2.3824,0.3971 Z" stroke-linecap="round" fill="#4dabf7"/></g></g><g transform="matrix(1, 0, 0, 1, -5.1217, 3782.5052)" opacity="1"><g transform="scale(1)"><path d="M2.1921,-1.096 T3.2007,0.9201 5.5027,5.7419 8.3044,11.0172 11.2431,15.284 15.3082,18.0196 17.9429,18.9581 A2.51,2.51 0 0 1 16.1371,23.6419 T14.4709,23.039 10.8325,21.5589 6.9674,18.101 3.7831,13.3053 1.1563,8.107 -1.1857,3.1098 -2.1921,1.096 A2.4508,2.4508 0 0 1 2.1921,-1.096 Z" stroke-linecap="round" fill="#4dabf7"/></g></g><g transform="matrix(1, 0, 0, 1, 20.4402, 3793.156)" opacity="1"><g transform="scale(1)"><path d="M0,-2.069 T2.015,-2.1028 6.9244,-2.1743 13.4295,-2.1627 17.04,-2.1135 A2.1135,2.1135 0 0 1 17.04,2.1135 T13.4295,2.1627 6.9244,2.1743 2.015,2.1028 0,2.069 A2.069,2.069 0 0 1 0,-2.069 Z" stroke-linecap="round" fill="#4dabf7"/></g></g><g transform="matrix(1, 0, 0, 1, 46.002, 3769.7243)" opacity="1"><g transform="scale(1)"><path d="M2.2979,-0.766 T3.2923,2.2607 5.3012,7.8271 6.9476,13.4605 7.9009,19.1671 8.3983,24.1776 8.6774,29.8728 8.8096,35.9012 8.8745,41.6615 8.9101,44.691 A2.5204,2.5204 0 0 1 3.8699,44.769 T3.8118,41.7398 3.6988,36.0036 3.5873,30.0992 3.4039,24.6219 3.0236,19.9028 2.3117,14.7939 0.7982,9.4634 -1.2773,3.7842 -2.2979,0.766 A2.4222,2.4222 0 0 1 2.2979,-0.766 Z" stroke-linecap="round" fill="#4dabf7"/></g></g><g transform="matrix(1, 0, 0, 1, 54.5227, 3752.683)" opacity="1"><g transform="scale(1)"><path d="M0.8899,-2.2248 T3.4217,-1.1995 8.0909,1.5491 11.7542,4.6395 14.3251,8.0666 16.2839,12.0033 18.1915,15.8746 20.2716,20.5205 21.978,26.2633 22.9104,32.4907 23.3848,38.7976 22.5961,46.9334 20.6106,55.0147 18.5183,60.766 16.3233,65.419 13.3043,69.2448 8.0845,71.8349 4.7461,72.617 A2.3674,2.3674 0 0 1 3.7739,67.983 T6.0378,67.5898 10.4892,64.3385 13.6735,58.982 15.6217,53.6828 17.4797,46.5309 18.249,39.1433 17.8562,33.1995 17.1431,27.6515 15.727,22.5204 13.7939,18.0034 11.9099,14.0464 9.0856,9.5137 5.6462,5.5578 1.6158,3.2145 -0.8899,2.2248 A2.3962,2.3962 0 0 1 0.8899,-2.2248 Z" stroke-linecap="round" fill="#4dabf7"/></g></g><g transform="matrix(1, 0, 0, 1, 116.2972, 3705.8196)" opacity="1"><g transform="scale(1)"><path d="M-2.2948,0.8605 T-3.6519,-2.9739 -7.7198,-6.8996 -12.5142,-4.2936 -15.5851,1.4108 -17.0906,6.9427 -17.891,12.2099 -17.3819,17.024 -15.714,21.3162 -11.8271,23.7571 -6.7991,22.475 -2.6368,18.7387 1.0985,13.9312 4.0328,8.0595 6.61,0.9966 8.4783,-6.643 9.4613,-14.5745 9.5032,-22.6581 8.5326,-30.8252 7.0179,-38.6283 4.7422,-45.5874 2.0805,-51.113 -0.5809,-55.0883 -2.0058,-56.8341 A2.2684,2.2684 0 0 1 0.5047,-60.613 T1.4132,-59.9165 3.5757,-57.3672 6.1394,-53.0665 8.9436,-46.9507 11.3043,-39.4668 12.8521,-31.3342 13.8694,-22.6451 13.8598,-14.0375 12.8332,-5.5908 10.8884,2.5536 8.1419,10.1477 4.7977,16.7941 0.4427,22.3579 -5.0112,26.8311 -11.482,28.929 -17.1155,27.3842 -20.271,23.1585 -22.2247,17.6629 -22.8525,11.5513 -21.9867,5.6452 -20.3305,-0.4659 -17.8428,-6.3789 -14.0815,-10.4557 -9.3244,-12.2649 -3.9802,-10.962 0.6294,-5.086 2.2948,-0.8605 A2.4508,2.4508 0 0 1 -2.2948,0.8605 ZM-0.0092,-56.5797 T-0.5201,-56.6432 -0.7649,-50.9219 -0.3554,-40.5098 0.3823,-31.5557 1.7992,-22.939 3.0974,-14.2449 4.325,-5.118 5.9784,3.5546 7.8642,11.081 9.8445,18.0554 11.9644,25.2754 13.0885,29.0975 A2.5433,2.5433 0 0 1 8.2115,30.5425 T7.0721,26.7249 4.8971,19.4483 2.9029,12.2898 1.0703,4.4691 -0.5086,-4.5095 -1.5908,-13.5822 -2.764,-22.2169 -4.1248,-31.1882 -4.8343,-40.314 -5.2208,-50.1252 -4.6264,-57.4776 -2.641,-60.2299 -1.4919,-60.8674 A2.2684,2.2684 0 0 1 -0.0092,-56.5797 Z" stroke-linecap="round" fill="#4dabf7"/></g></g><g transform="matrix(1, 0, 0, 1, 163.1606, 3701.5593)" opacity="1"><g transform="scale(1)"><path d="M1.1115,-2.223 T2.4925,-1.1442 3.7096,3.781 2.7491,9.6409 1.0282,13.7085 -0.8564,18.2584 -2.9235,22.7649 -5.7406,26.8836 -9.222,31.166 -10.993,33.3404 A2.2642,2.2642 0 0 1 -14.567,30.5596 T-12.8945,28.3084 -8.9072,22.49 -5.5912,16.2833 -2.9773,9.9183 -0.6041,4.1366 -0.4776,2.1517 -1.1115,2.223 A2.4854,2.4854 0 0 1 1.1115,-2.223 Z" stroke-linecap="round" fill="#4dabf7"/></g></g><g transform="matrix(1, 0, 0, 1, 150.3797, 3705.8196)" opacity="1"><g transform="scale(1)"><path d="M2.4191,-1.2095 T3.9161,1.8195 6.6622,6.8333 10.2684,12.2712 15.0125,18.1188 19.089,21.6486 22.8063,24.1404 24.8343,25.497 A2.6041,2.6041 0 0 1 22.0257,29.883 T19.9451,28.6086 15.8663,26.1083 10.8826,21.7449 6.8513,16.842 4.5699,13.3674 1.9831,9.4498 -0.8936,4.2255 -2.4191,1.2095 A2.7046,2.7046 0 0 1 2.4191,-1.2095 Z" stroke-linecap="round" fill="#4dabf7"/></g></g><g transform="matrix(1, 0, 0, 1, 214.2843, 3695.1688)" opacity="1"><g transform="scale(1)"><path d="M0.6465,-2.5858 T2.6863,-2.1864 8.1523,-1.5158 14.5581,-1.9051 21.4569,-2.6584 25.376,-2.7514 A2.7575,2.7575 0 0 1 25.744,2.7514 T23.7596,2.9693 18.7648,3.5817 11.7692,4.2569 5.5589,4.1698 1.3436,3.1939 -0.6465,2.5858 A2.6654,2.6654 0 0 1 0.6465,-2.5858 Z" stroke-linecap="round" fill="#4dabf7"/></g></g><g transform="matrix(1, 0, 0, 1, 220.6748, 3703.6894)" opacity="1"><g transform="scale(1)"><path d="M2.619,1.3095 T1.6425,3.0488 1.2268,5.6203 1.7876,6.4526 A2.9928,2.9928 0 0 1 -3.9687,8.0934 T-4.3323,5.6826 -3.6575,0.9812 -2.619,-1.3095 A2.9282,2.9282 0 0 1 2.619,1.3095 ZM-1.5779,4.3201 T-0.3172,4.0834 3.5241,3.2137 8.3768,1.8118 13.1479,0.5922 18.1979,-0.3079 20.7487,-0.7574 A2.9396,2.9396 0 0 1 21.8513,5.0174 T19.3143,5.5394 14.7098,6.4825 10.0728,7.7892 4.7201,9.2693 0.6669,10.0449 -0.6033,10.2258 A2.9928,2.9928 0 0 1 -1.5779,4.3201 Z" stroke-linecap="round" fill="#4dabf7"/></g></g><g transform="matrix(1, 0, 0, 1, 310.1413, 3654.6959)" opacity="1"><g transform="scale(1)"><path d="M-2.7586,0.4244 T-3.8045,-6.1176 -5.88,-16.4568 -7.8583,-22.0325 -11.1648,-25.0671 -15.0852,-24.8329 -17.6919,-20.1168 -19.6962,-14.6057 -21.0251,-8.5214 -21.6198,-0.5815 -21.9494,7.2593 -22.0842,14.4131 -21.6146,21.482 -20.821,28.7186 -19.8811,35.5118 -18.3819,41.8541 -16.5445,48.7693 -14.9951,56.1855 -13.6727,63.0514 -12.0133,69.4353 -10.1327,75.8157 -8.1046,82.7736 -6.0041,90.5387 -4.3533,98.3412 -3.4469,105.1541 -2.9735,112.8454 -2.7181,120.9578 -3.0885,128.9577 -4.3025,137.4898 -5.9608,145.075 -8.4366,152.379 -11.9562,159.148 -16.7683,164.6826 -22.0727,168.7782 -26.8591,171.8201 -32.999,174.1149 -40.4919,174.8674 -47.6451,174.0356 -54.6563,171.8273 -61.2825,167.755 -66.2636,163.4591 -70.2769,159.8057 -72.3782,157.9024 A3.1765,3.1765 0 0 1 -68.2218,153.0976 T-66.0359,154.9031 -61.9138,158.2872 -57.666,161.7248 -52.5243,164.6798 -46.7641,166.2477 -41.1538,166.8459 -35.8977,166.4883 -31.2284,164.765 -26.9745,162.0944 -22.7714,159.1736 -19.1015,155.2178 -16.085,149.7138 -13.8053,143.288 -12.175,136.291 -10.9724,128.6233 -10.5808,121.1777 -10.7911,113.3638 -11.2016,106.1284 -11.9721,99.9114 -13.5035,92.5478 -15.5294,84.9172 -17.5079,77.955 -19.4064,71.3039 -21.0944,64.4304 -22.3005,57.6196 -23.6372,50.5632 -25.3644,43.3983 -26.8058,36.4055 -27.6223,29.3653 -28.2498,21.8229 -28.5649,14.2306 -28.2772,6.9464 -27.8048,-1.1388 -26.8778,-10.0369 -25.3192,-16.7859 -23.5202,-21.3203 -20.2342,-26.8317 -15.6965,-30.9631 -11.3033,-31.5581 -6.2939,-28.8496 -2.4084,-24.1503 -0.2193,-17.6477 1.7895,-6.9798 2.7586,-0.4244 A2.7911,2.7911 0 0 1 -2.7586,0.4244 Z" stroke-linecap="round" fill="#4dabf7"/></g></g><g transform="matrix(1, 0, 0, 1, 331.4429, 3729.2513)" opacity="1"><g transform="scale(1)"><path d="M0,-2.7207 T3.0225,-2.6462 9.4125,-2.5129 12.78,-2.4541 A2.4541,2.4541 0 0 1 12.78,2.4541 T9.4125,2.5129 3.0225,2.6462 0,2.7207 A2.7207,2.7207 0 0 1 0,-2.7207 Z" stroke-linecap="round" fill="#4dabf7"/></g></g><g transform="matrix(1, 0, 0, 1, 374.046, 3673.8673)" opacity="1"><g transform="scale(1)"><path d="M2.7405,-0.5481 T3.2746,1.9654 4.1329,7.4603 4.6368,13.5157 4.9241,19.7188 5.1064,26.008 5.1954,31.3278 5.5612,35.885 6.3692,41.257 6.8254,44.2318 A2.6133,2.6133 0 0 1 1.6946,45.2282 T1.0043,42.2989 -0.3633,36.4677 -1.0676,31.4057 -1.0973,26.1198 -1.1402,19.9313 -1.2801,13.928 -1.5869,8.2918 -2.2671,3.0721 -2.7405,0.5481 A2.7947,2.7947 0 0 1 2.7405,-0.5481 Z" stroke-linecap="round" fill="#4dabf7"/></g></g><g transform="matrix(1, 0, 0, 1, 391.0873, 3727.1212)" opacity="1"><g transform="scale(1)"><path d="M1.8014,1.8014 T0.7759,2.8733 -2.2263,4.8027 -8.0693,6.2403 -14.1334,6.8939 -20.0107,8.1087 -26.3676,10.0509 -29.045,10.8517 A2.4571,2.4571 0 0 1 -30.595,6.1883 T-27.971,5.227 -22.9961,3.3833 -18.6238,1.8536 -14.4622,1.1244 -10.3112,0.9687 -6.0403,0.4899 -2.7908,-0.8583 -1.8014,-1.8014 A2.5476,2.5476 0 0 1 1.8014,1.8014 Z" stroke-linecap="round" fill="#4dabf7"/></g></g><g transform="matrix(1, 0, 0, 1, 363.3952, 3752.683)" opacity="1"><g transform="scale(1)"><path d="M0.8857,-3.0999 T4.4566,-2.0525 10.4305,0.8136 14.0831,4.2187 16.0403,7.7401 16.03,12.2146 13.2656,17.7189 9.233,23.7143 10.3137,27.2371 17.3944,27.4909 24.2402,26.8266 27.072,26.4006 A3.4748,3.4748 0 0 1 28.308,33.2394 T25.5063,33.8316 17.803,34.9219 10.049,35.2219 4.0773,34.1435 -0.1265,31.5361 -0.8842,27.5132 1.5161,22.6432 5.6409,17.1782 8.9073,11.9619 8.0999,7.3358 2.5958,4.0674 -0.8857,3.0999 A3.2239,3.2239 0 0 1 0.8857,-3.0999 Z" stroke-linecap="round" fill="#4dabf7"/></g></g><g transform="matrix(1, 0, 0, 1, 489.0744, 3641.9149)" opacity="1"><g transform="scale(1)"><path d="M2.333,0 T2.5035,10.0749 2.8076,26.9712 2.537,39.0525 1.9427,48.4635 1.6656,56.3 1.4913,62.9368 1.2715,68.4447 1.013,73.8685 0.8871,76.7355 A3.0175,3.0175 0 0 1 -5.1471,76.6445 T-5.1865,73.7749 -5.2806,68.3132 -5.2753,62.7257 -5.0223,55.9646 -4.4886,47.9458 -3.5445,38.7414 -2.8076,26.9698 -2.5035,10.0749 -2.333,0 A2.333,2.333 0 0 1 2.333,0 Z" stroke-linecap="round" fill="#4dabf7"/></g></g><g transform="matrix(1, 0, 0, 1, 533.8077, 3724.991)" opacity="1"><g transform="scale(1)"><path d="M1.8034,2.7051 T0.2827,3.7382 -3.4691,5.5295 -9.494,6.7076 -17.2011,7.3527 -25.4884,8.2209 -34.377,9.2401 -45.1744,10.3074 -56.8994,11.3672 -66.2142,11.8655 -73.1482,12.0322 -78.8245,12.0108 -85.0293,12.8038 -88.6195,13.6557 A3.1237,3.1237 0 0 1 -90.3205,7.6443 T-88.2587,6.9531 -83.9172,5.5606 -79.0448,4.6979 -73.4565,4.3792 -66.6626,3.9817 -57.5751,3.4092 -45.8607,2.4374 -35.1307,1.5614 -26.1115,0.8049 -17.6237,0.2152 -9.3287,-0.2979 -3.3052,-1.7232 -1.8034,-2.7051 A3.2511,3.2511 0 0 1 1.8034,2.7051 Z" stroke-linecap="round" fill="#4dabf7"/></g></g><g transform="matrix(1, 0, 0, 1, 467.7729, 3769.7243)" opacity="1"><g transform="scale(1)"><path d="M2.0793,1.5122 T-1.8502,7.1266 -8.8932,16.7624 -14.1484,23.4139 -18.3647,28.1251 -22.5701,30.4314 -26.2227,30.5421 -27.7445,30.428 A2.7385,2.7385 0 0 1 -27.6355,24.952 T-25.5061,25.1779 -22.1737,23.7651 -18.8044,19.609 -13.4892,13.2577 -6.2097,3.9558 -2.0793,-1.5122 A2.5711,2.5711 0 0 1 2.0793,1.5122 Z" stroke-linecap="round" fill="#4dabf7"/></g></g><g transform="matrix(1, 0, 0, 1, 442.211, 3771.8544)" opacity="1"><g transform="scale(1)"><path d="M2.3979,-1.5986 T4.4498,1.3993 8.1396,7.0338 11.6274,12.4964 14.9086,17.2525 19.1873,22.4451 23.3924,27.175 26.2841,30.2942 27.8182,31.9461 A3.1069,3.1069 0 0 1 23.3018,36.2139 T21.7393,34.5889 18.7549,31.4899 15.5838,28.1173 12.5127,24.5716 9.6832,20.8099 6.3602,15.758 3.0516,10.2567 -0.4198,4.6456 -2.3979,1.5986 A2.8819,2.8819 0 0 1 2.3979,-1.5986 Z" stroke-linecap="round" fill="#4dabf7"/></g></g><g transform="matrix(1, 0, 0, 1, 491.2046, 3765.464)" opacity="1"><g transform="scale(1)"><path d="M1.9398,-0.485 T2.9784,3.5375 4.5991,10.7629 5.4747,16.6836 7.0506,23.2134 8.333,27.0256 A2.0535,2.0535 0 0 1 4.447,28.3544 T3.7004,26.2399 2.2292,21.9998 1.2386,17.2767 0.4928,11.6195 -0.9634,4.5224 -1.9398,0.485 A1.9995,1.9995 0 0 1 1.9398,-0.485 Z" stroke-linecap="round" fill="#4dabf7"/></g></g><g transform="matrix(1, 0, 0, 1, 506.1157, 3778.2449)" opacity="1"><g transform="scale(1)"><path d="M0,4.4919 T-2.015,4.5429 -6.0993,4.621 -11.2743,4.5862 -17.8399,4.477 -21.3,4.4299 A2.2999,2.2999 0 0 1 -21.3,-0.1699 T-17.8399,-0.217 -11.2743,-0.3262 -6.0993,-0.361 -2.015,-0.2829 0,-0.2319 A2.3619,2.3619 0 0 1 0,4.4919 Z" stroke-linecap="round" fill="#4dabf7"/></g></g><g transform="matrix(1, 0, 0, 1, 516.7664, 3765.464)" opacity="1"><g transform="scale(1)"><path d="M2.2263,-0.6361 T3.2468,2.8875 4.8627,9.9138 5.7843,16.263 6.2281,22.6644 6.4847,30.0996 6.6237,33.9799 A2.3658,2.3658 0 0 1 1.8963,34.1801 T1.7067,30.3019 1.3398,23.0151 0.9291,16.8865 0.2291,10.9301 -1.2318,4.1649 -2.2263,0.6361 A2.3154,2.3154 0 0 1 2.2263,-0.6361 Z" stroke-linecap="round" fill="#4dabf7"/></g></g><g transform="matrix(1, 0, 0, 1, 587.0616, 3710.0799)" opacity="1"><g transform="scale(1)"><path d="M2.0676,-0.1378 T2.6369,7.414 3.8147,23.3814 4.4232,31.7971 A2.2983,2.2983 0 0 1 -0.1632,32.1029 T-0.6772,23.6809 -1.6294,7.6984 -2.0676,0.1378 A2.0722,2.0722 0 0 1 2.0676,-0.1378 Z" stroke-linecap="round" fill="#4dabf7"/></g></g><g transform="matrix(1, 0, 0, 1, 599.8425, 3724.991)" opacity="1"><g transform="scale(1)"><path d="M1.0992,2.1985 T-0.8774,3.2968 -5.1627,5.1033 -10.2634,6.1991 -16.0267,6.6183 -22.2148,6.7107 -25.4315,6.7715 A2.5148,2.5148 0 0 1 -25.6885,1.7485 T-22.4823,1.4807 -16.4828,0.9496 -9.4477,0.1605 -3.1526,-1.2818 -1.0992,-2.1985 A2.458,2.458 0 0 1 1.0992,2.1985 Z" stroke-linecap="round" fill="#4dabf7"/></g></g><g transform="matrix(1, 0, 0, 1, 638.1853, 3663.2165)" opacity="1"><g transform="scale(1)"><path d="M2.5706,-0.3213 T3.1288,3.702 4.0116,11.944 4.0132,20.571 3.4975,29.1461 3.0679,36.5231 2.6177,43.3342 2.4046,46.9351 A2.4058,2.4058 0 0 1 -2.4046,46.7849 T-2.3925,43.1777 -2.4154,36.3111 -2.2595,28.766 -1.664,20.4961 -1.4657,12.4534 -2.1213,4.3579 -2.5706,0.3213 A2.5906,2.5906 0 0 1 2.5706,-0.3213 Z" stroke-linecap="round" fill="#4dabf7"/></g></g><g transform="matrix(1, 0, 0, 1, 659.4869, 3720.7307)" opacity="1"><g transform="scale(1)"><path d="M1.1053,2.7632 T-1.3999,3.8046 -6.7756,5.9322 -11.7674,7.6213 -16.688,8.5805 -22.4442,9.0952 -27.9509,9.3392 -32.8414,9.4118 -38.4968,10.2587 -41.8117,11.1183 A2.7152,2.7152 0 0 1 -43.3883,5.9217 T-41.4846,5.244 -37.4696,3.8799 -33.0315,3.0966 -28.2221,2.9255 -22.9702,2.707 -15.992,1.8565 -8.9765,0.1672 -3.6375,-1.7896 -1.1053,-2.7632 A2.976,2.976 0 0 1 1.1053,2.7632 Z" stroke-linecap="round" fill="#4dabf7"/></g></g><g transform="matrix(1, 0, 0, 1, 629.6647, 3748.4227)" opacity="1"><g transform="scale(1)"><path d="M1.1837,-2.9592 T3.7763,-1.913 8.2791,1.0779 11.1912,5.3487 12.1744,10.3118 10.9886,16.0219 8.673,21.1483 5.2963,25.937 1.4477,30.5272 -1.6711,31.3368 -0.1304,31.1809 5.2112,32.1831 9.764,32.3827 14.9472,32.1164 20.4013,31.1371 25.9578,29.7435 28.9927,28.9758 A3.0871,3.0871 0 0 1 30.6473,34.9242 T27.6518,35.8338 21.7655,37.6231 15.3603,39.0943 9.5107,39.6543 4.5987,39.5102 -0.0106,39.1055 -4.9577,37.2197 -6.6791,31.6621 -3.9103,25.9276 0.5859,20.285 4.7479,13.0976 4.8478,7.3393 1.2612,3.928 -1.1837,2.9592 A3.1872,3.1872 0 0 1 1.1837,-2.9592 Z" stroke-linecap="round" fill="#4dabf7"/></g></g><g transform="matrix(1, 0, 0, 1, 761.7343, 3637.6546)" opacity="1"><g transform="scale(1)"><path d="M2.6658,-0.1666 T3.3033,7.885 4.2975,22.2247 4.8418,33.852 5.125,43.5136 5.7476,50.3301 6.494,55.4305 6.9558,60.7984 7.1982,63.5599 A2.9578,2.9578 0 0 1 1.3218,64.2401 T0.927,61.4962 0.1797,56.4174 -0.731,51.0237 -1.3411,43.6626 -1.4852,34.0686 -1.7516,22.5401 -2.2958,8.2349 -2.6658,0.1666 A2.671,2.671 0 0 1 2.6658,-0.1666 Z" stroke-linecap="round" fill="#4dabf7"/></g></g><g transform="matrix(1, 0, 0, 1, 817.1184, 3714.3402)" opacity="1"><g transform="scale(1)"><path d="M1.1597,2.8993 T-1.3524,3.9606 -8.5931,5.7531 -18.235,6.8743 -26.7177,7.4962 -34.7183,7.8611 -45.176,7.5366 -56.7297,6.8255 -66.6884,6.4174 -76.4605,6.0519 -87.7866,5.6587 -93.7722,5.4765 A3.3468,3.3468 0 0 1 -93.6878,-1.2165 T-87.6995,-1.2477 -76.3048,-1.3546 -66.4077,-1.3276 -56.2493,-0.9907 -44.9329,-0.2885 -34.9438,0.1572 -27.0867,0.0717 -18.8614,-0.161 -10.1815,-0.6612 -3.6851,-1.9456 -1.1597,-2.8993 A3.1227,3.1227 0 0 1 1.1597,2.8993 Z" stroke-linecap="round" fill="#4dabf7"/></g></g><g transform="matrix(1, 0, 0, 1, 748.9534, 3754.8132)" opacity="1"><g transform="scale(1)"><path d="M2.2778,1.5769 T-2.1379,8.2073 -9.3824,18.8892 -15.2804,26.6567 -20.5369,32.879 -25.5122,36.4317 -30.7033,38.1992 -33.1063,38.9201 A2.8797,2.8797 0 0 1 -35.0537,33.4999 T-31.2972,32.0526 -25.5207,28.3144 -20.4981,22.5486 -14.5384,15.2154 -6.9295,4.89 -2.2778,-1.5769 A2.7703,2.7703 0 0 1 2.2778,1.5769 Z" stroke-linecap="round" fill="#4dabf7"/></g></g><g transform="matrix(1, 0, 0, 1, 719.1312, 3759.0735)" opacity="1"><g transform="scale(1)"><path d="M5.0289,-1.9326 T7.0216,1.1049 10.667,6.7822 14.1912,12.2366 17.2137,17.8576 21.0045,23.2034 25.9716,26.1474 28.2991,26.5522 A3.3241,3.3241 0 0 1 27.0809,33.0878 T25.4436,32.8671 21.6153,32.1245 17.2049,29.889 13.1983,25.8167 10.6307,21.2122 8.0565,16.0179 4.7842,10.5083 1.2684,4.9401 -0.7689,1.9326 A3.4841,3.4841 0 0 1 5.0289,-1.9326 Z" stroke-linecap="round" fill="#4dabf7"/></g></g><g transform="matrix(1, 0, 0, 1, 757.474, 3773.9846)" opacity="1"><g transform="scale(1)"><path d="M0.487,-2.4348 T3.0335,-2.0724 7.8081,-1.5325 13.5766,-1.1851 19.3413,-1.3482 24.3952,-2.1034 27.2248,-2.5256 A2.5681,2.5681 0 0 1 28.1552,2.5256 T25.3609,3.1393 19.7432,4.3498 13.1491,4.6892 6.9365,4.0784 2.0039,3.0799 -0.487,2.4348 A2.483,2.483 0 0 1 0.487,-2.4348 Z" stroke-linecap="round" fill="#4dabf7"/></g></g><g transform="matrix(1, 0, 0, 1, 802.2073, 3748.4227)" opacity="1"><g transform="scale(1)"><path d="M2.6912,-0.4485 T3.2458,2.5662 4.1454,9.8324 4.1855,18.0057 3.7461,25.8064 3.4841,33.2466 3.2241,40.8125 3.0914,44.8169 A3.0926,3.0926 0 0 1 -3.0914,44.6431 T-2.9989,40.6375 -2.8317,33.0041 -2.5081,25.3485 -1.8363,17.8865 -1.5994,10.4806 -2.2383,3.4788 -2.6912,0.4485 A2.7283,2.7283 0 0 1 2.6912,-0.4485 Z" stroke-linecap="round" fill="#4dabf7"/></g></g><g transform="matrix(1, 0, 0, 1, 891.6738, 3714.3402)" opacity="1"><g transform="scale(1)"><path d="M-1.8774,2.2528 T-4.8089,-0.1457 -10.1063,-2.5356 -14.4893,-1.7417 -19.0529,2.13 -22.717,9.0197 -23.9826,15.0863 -22.4116,20.5717 -18.6521,25.3747 -14.0929,27.3136 -8.0536,25.6028 -1.4148,21.4717 4.1493,16.5238 8.904,9.691 12.9047,0.3135 15.541,-9.0367 16.9782,-18.4095 17.7506,-27.8068 17.1859,-36.5639 14.9767,-44.7992 12.6679,-44.4034 11.6184,-37.524 11.983,-31.0399 13.2709,-21.6838 15.0291,-11.753 17.0087,-3.0543 18.6386,5.749 20.0092,13.3188 21.5751,18.9696 23.3306,23.8539 24.2997,26.5546 A3.2074,3.2074 0 0 1 18.3003,28.8254 T17.2383,26.16 15.1395,20.862 13.3349,14.4694 12.1331,6.8334 10.7938,-1.7463 9.0508,-10.7385 7.5687,-20.9945 6.5316,-30.8262 6.308,-37.8106 6.7915,-45.1433 9.6058,-52.3554 15.2928,-52.8164 20.0461,-46.2866 22.5066,-36.8635 23.1557,-27.4074 22.4081,-17.5384 20.9607,-7.5585 18.1237,2.6079 13.6502,13.0583 8.06,20.9086 1.6416,26.6165 -6.8101,31.2347 -16.0232,32.7439 -23.2003,29.3222 -28.3285,22.0417 -30.24,14.1569 -28.5551,6.3236 -25.2129,-0.9757 -20.9591,-5.339 -15.3036,-7.9349 -8.1917,-8.179 -1.236,-4.8917 1.8774,-2.2528 A2.9325,2.9325 0 0 1 -1.8774,2.2528 Z" stroke-linecap="round" fill="#4dabf7"/></g></g><g transform="matrix(1, 0, 0, 1, 968.3594, 3695.1688)" opacity="1"><g transform="scale(1)"><path d="M2.6889,0.7682 T1.7615,4.3249 -0.7664,11.0642 -3.639,16.7687 -7.7188,23.3195 -12.4997,29.9283 -17.2301,34.9991 -22.5002,39.2691 -27.659,42.9319 -30.3051,44.8155 A2.7594,2.7594 0 0 1 -33.5949,40.3845 T-31.0264,38.3965 -26.2904,34.7127 -21.8228,30.8259 -17.6344,26.1539 -13.1383,20.0108 -9.1737,13.8349 -6.3405,8.7723 -3.7765,2.7275 -2.6889,-0.7682 A2.7965,2.7965 0 0 1 2.6889,0.7682 Z" stroke-linecap="round" fill="#4dabf7"/></g></g><g transform="matrix(1, 0, 0, 1, 936.4071, 3701.5593)" opacity="1"><g transform="scale(1)"><path d="M1.7885,-1.7885 T4.8305,1.2156 12.2003,9.3427 21.729,19.4551 30.7275,28.1445 37.5277,34.807 42.6214,39.833 46.3982,44.2235 49.8074,48.9356 51.5306,51.3206 A3.1901,3.1901 0 0 1 46.4494,55.1794 T44.6146,52.8791 41.2721,48.7007 37.7074,44.73 32.6937,39.6257 26.0502,32.8007 17.1856,23.544 8.1127,12.9853 1.2145,4.8293 -1.7885,1.7885 A2.5293,2.5293 0 0 1 1.7885,-1.7885 Z" stroke-linecap="round" fill="#4dabf7"/></g></g><g transform="matrix(1, 0, 0, 1, 218.5447, 3963.5684)" opacity="1"><g transform="scale(1)"><path d="M0.7441,-2.9766 T2.783,-2.5698 7.9604,-1.9572 13.7663,-1.694 18.683,-1.9204 22.776,-2.6548 24.6196,-3.1056 A3.2448,3.2448 0 0 1 26.5004,3.1056 T24.7164,3.7533 19.5712,5.0623 13.3819,5.5557 6.896,4.7829 1.247,3.5773 -0.7441,2.9766 A3.0682,3.0682 0 0 1 0.7441,-2.9766 Z" stroke-linecap="round" fill="#4dabf7"/></g></g><g transform="matrix(1, 0, 0, 1, 220.6748, 3984.87)" opacity="1"><g transform="scale(1)"><path d="M-0.4424,-3.5394 T3.5767,-4.118 10.5093,-5.4524 17.1079,-7.0194 24.8942,-8.7724 28.9955,-9.714 A3.4248,3.4248 0 0 1 30.6445,-3.066 T26.5786,-1.9818 18.8674,0.1093 11.8731,1.899 4.4832,3.1105 0.4424,3.5394 A3.5669,3.5669 0 0 1 -0.4424,-3.5394 Z" stroke-linecap="round" fill="#4dabf7"/></g></g><g transform="matrix(1, 0, 0, 1, 314.4017, 3969.9589)" opacity="1"><g transform="scale(1)"><path d="M1.1623,-2.3247 T5.1853,-0.4321 12.285,1.2886 17.47,0.6506 22.2906,-0.4318 28.1331,-1.7927 31.2633,-2.5371 A2.6284,2.6284 0 0 1 32.6367,2.5371 T29.5582,3.4731 23.6195,5.3009 18.0288,6.6768 11.1049,6.8801 2.8746,4.462 -1.1623,2.3247 A2.5991,2.5991 0 0 1 1.1623,-2.3247 Z" stroke-linecap="round" fill="#4dabf7"/></g></g><g transform="matrix(1, 0, 0, 1, 391.0873, 3916.705)" opacity="1"><g transform="scale(1)"><path d="M2.6382,-0.1649 T3.2676,7.8872 4.2541,22.2282 4.2852,33.5117 3.7875,42.0182 2.8431,49.0762 1.2898,56.3674 0.509,60.1124 A2.6809,2.6809 0 0 1 -4.769,59.1676 T-4.2021,55.3842 -3.1982,48.39 -2.5494,41.6046 -1.936,33.4014 -1.7082,22.5366 -2.2601,8.2327 -2.6382,0.1649 A2.6433,2.6433 0 0 1 2.6382,-0.1649 Z" stroke-linecap="round" fill="#4dabf7"/></g></g><g transform="matrix(1, 0, 0, 1, 414.519, 3995.5208)" opacity="1"><g transform="scale(1)"><path d="M2.5388,1.6925 T1.467,3.2723 -1.6549,6.1172 -6.4398,7.9715 -13.7689,9.4505 -21.0379,10.7233 -26.3913,11.7703 -31.159,12.8011 -35.4654,14.1279 -40.5886,16.3269 -43.4946,17.5658 A2.9291,2.9291 0 0 1 -45.9654,12.2542 T-43.1457,10.8297 -35.4769,7.6291 -27.5973,5.1649 -22.1431,4.206 -15.0083,3.142 -7.3611,1.7708 -3.482,-0.2498 -2.5388,-1.6925 A3.0512,3.0512 0 0 1 2.5388,1.6925 Z" stroke-linecap="round" fill="#4dabf7"/></g></g><g transform="matrix(1, 0, 0, 1, 374.046, 4042.3842)" opacity="1"><g transform="scale(1)"><path d="M0.8765,-3.5058 T2.964,-2.9908 7.3532,-0.7944 10.989,3.7462 12.8667,9.6377 13.1543,15.592 12.1446,20.7276 9.8332,25.3078 6.4657,29.8635 3.4629,33.9655 2.3573,36.3303 2.4445,36.7821 A4.137,4.137 0 0 1 -5.6393,35.0177 T-5.074,33.2794 -2.8828,29.2985 1.5111,23.6648 5.1155,17.042 5.6258,11.5199 4.1541,6.8602 1.066,3.9983 -0.8765,3.5058 A3.6137,3.6137 0 0 1 0.8765,-3.5058 ZM0.9475,32.6382 T2.3505,33.6258 6.0907,34.9639 10.8562,35.3456 17.2263,35.0109 24.0127,34.0226 28.5363,32.778 30.2153,32.1557 A4.4098,4.4098 0 0 1 33.6847,40.2643 T32.0752,41.049 26.6697,42.9591 19.8136,44.5957 14.7476,44.9824 7.9985,44.1584 0.9241,42.4842 -2.7747,40.3356 -4.1423,39.1616 A4.137,4.137 0 0 1 0.9475,32.6382 Z" stroke-linecap="round" fill="#4dabf7"/></g></g><g transform="matrix(1, 0, 0, 1, 459.2522, 3955.0478)" opacity="1"><g transform="scale(1)"><path d="M2.2992,2.13 T2.4563,13.7161 2.7135,33.4231 2.8854,50.592 2.9573,59.64 A2.9573,2.9573 0 0 1 -2.9573,59.64 T-2.8854,50.592 -2.7135,33.4231 -2.4563,13.7161 -2.2992,2.13 A2.2992,2.2992 0 0 1 2.2992,2.13 Z" stroke-linecap="round" fill="#4dabf7"/></g></g><g transform="matrix(1, 0, 0, 1, 482.684, 3989.1303)" opacity="1"><g transform="scale(1)"><path d="M2.9121,-1.456 T3.9232,0.5729 5.6495,5.5499 6.6898,10.4903 6.2619,16.2319 5.5088,19.9813 A3.4749,3.4749 0 0 1 -1.2488,18.3587 T-0.7299,14.1065 -0.5577,7.6563 -1.9082,3.4571 -2.9121,1.456 A3.2558,3.2558 0 0 1 2.9121,-1.456 ZM-0.8548,17.3908 T1.1769,14.1264 4.8945,9.2361 9.1462,5.6282 13.4681,2.1891 18.1652,-0.2791 23.1896,-0.4665 26.3909,2.3403 27.9075,6.9406 28.4616,12.3719 28.0981,17.532 27.0516,21.9977 26.5242,24.1171 A3.1695,3.1695 0 0 1 20.3358,22.7429 T21.0855,19.1197 21.6911,12.962 20.5092,8.1789 17.6798,7.4633 13.6348,10.776 9.6572,14.2444 6.524,18.4411 5.1148,20.9492 A3.4749,3.4749 0 0 1 -0.8548,17.3908 Z" stroke-linecap="round" fill="#4dabf7"/></g></g><g transform="matrix(1, 0, 0, 1, 533.8077, 3950.7875)" opacity="1"><g transform="scale(1)"><path d="M2.4711,-0.1977 T3.7057,12.3778 5.6397,33.622 6.7158,48.3838 6.7941,58.9149 6.1159,68.4995 5.3797,79.4799 5.0236,85.3137 A2.8955,2.8955 0 0 1 -0.7636,85.1063 T-0.7013,79.2621 -0.6435,68.0832 -0.2337,58.7682 -0.0024,48.7395 -0.5479,34.0562 -1.6907,12.8095 -2.4711,0.1977 A2.479,2.479 0 0 1 2.4711,-0.1977 Z" stroke-linecap="round" fill="#4dabf7"/></g></g><g transform="matrix(1, 0, 0, 1, 587.0616, 3984.87)" opacity="1"><g transform="scale(1)"><path d="M2.294,1.6386 T-0.1523,5.2165 -4.4161,11.2466 -8.8639,16.176 -14.2814,21.3234 -19.6954,26.0197 -25.104,30.1845 -27.8856,32.3229 A3.1634,3.1634 0 0 1 -31.7544,27.3171 T-28.9838,25.1644 -23.857,21.1867 -18.6553,16.6353 -13.4879,11.8817 -9.3211,7.5824 -4.8851,1.8359 -2.294,-1.6386 A2.8191,2.8191 0 0 1 2.294,1.6386 Z" stroke-linecap="round" fill="#4dabf7"/></g></g><g transform="matrix(1, 0, 0, 1, 563.6299, 3987.0001)" opacity="1"><g transform="scale(1)"><path d="M2.47,-1.5438 T5.058,2.4429 9.5718,9.5587 13.0849,15.9616 15.9204,21.9017 18.2051,26.3631 21.4203,31.3294 23.5987,34.5007 A2.8646,2.8646 0 0 1 19.0013,37.9193 T17.6903,36.2785 15.1158,33.0576 12.5346,29.4472 9.9095,24.7361 7.2519,19.0062 4.1653,12.8237 -0.0206,5.617 -2.47,1.5438 A2.9128,2.9128 0 0 1 2.47,-1.5438 Z" stroke-linecap="round" fill="#4dabf7"/></g></g><g transform="matrix(1, 0, 0, 1, 612.6234, 3989.1303)" opacity="1"><g transform="scale(1)"><path d="M2.3965,-0.9586 T3.4406,1.5533 5.1614,7.6746 6.1443,14.6555 6.5706,20.1975 8.746,25.3564 10.8012,28.3448 A2.7166,2.7166 0 0 1 6.2388,31.2952 T5.0085,29.4392 2.4751,25.3319 0.9973,20.7943 0.5691,15.3341 -0.0695,9.085 -1.4256,3.4841 -2.3965,0.9586 A2.5811,2.5811 0 0 1 2.3965,-0.9586 Z" stroke-linecap="round" fill="#4dabf7"/></g></g><g transform="matrix(1, 0, 0, 1, 627.5345, 4001.9112)" opacity="1"><g transform="scale(1)"><path d="M0.6183,3.0917 T-1.8827,3.6885 -7.3857,4.6614 -13.9961,5.0831 -21.5193,5.2106 -25.434,5.2926 A3.1651,3.1651 0 0 1 -25.686,-1.0326 T-21.7772,-1.2624 -14.455,-1.7264 -8.3664,-2.1155 -3.1547,-2.681 -0.6183,-3.0917 A3.1529,3.1529 0 0 1 0.6183,3.0917 Z" stroke-linecap="round" fill="#4dabf7"/></g></g><g transform="matrix(1, 0, 0, 1, 646.7059, 3965.6986)" opacity="1"><g transform="scale(1)"><path d="M3.0231,-0.6046 T3.5864,1.9035 4.528,7.9377 4.6367,15.5405 4.2567,24.0341 4.1056,32.3077 4.4896,41.0163 5.5067,48.8079 6.8461,55.305 7.5931,58.8622 A3.4226,3.4226 0 0 1 0.9269,60.4178 T0.0224,56.8973 -1.772,49.9642 -3.1382,41.2611 -3.4532,32.0526 -3.0186,23.5336 -2.2875,15.4566 -1.9821,8.8219 -2.5789,3.1339 -3.0231,0.6046 A3.083,3.083 0 0 1 3.0231,-0.6046 Z" stroke-linecap="round" fill="#4dabf7"/></g></g><g transform="matrix(1, 0, 0, 1, 674.398, 3946.5272)" opacity="1"><g transform="scale(1)"><path d="M1.9108,-0.0682 T2.7625,14.0242 4.1184,37.5681 4.9309,53.5188 5.404,65.9731 5.5818,77.0826 5.6193,87.9703 5.6438,93.7035 A3.5139,3.5139 0 0 1 -1.3838,93.7565 T-1.4459,88.0236 -1.5727,77.1541 -1.62,66.0915 -1.5742,53.6792 -1.5724,37.7478 -1.755,14.1855 -1.9108,0.0682 A1.912,1.912 0 0 1 1.9108,-0.0682 Z" stroke-linecap="round" fill="#4dabf7"/></g></g><g transform="matrix(1, 0, 0, 1, 734.0423, 3972.0891)" opacity="1"><g transform="scale(1)"><path d="M2.9761,-0.372 T3.5665,3.6519 3.9963,12.1024 3.2337,20.8812 2.2834,28.3717 1.7312,33.6836 0.7736,37.9043 -0.7111,41.7805 -1.4419,43.6096 A2.9935,2.9935 0 0 1 -7.0781,41.5904 T-6.0433,38.4341 -4.8627,33.0513 -4.4021,27.5254 -3.4305,20.186 -2.4579,12.295 -2.559,4.408 -2.9761,0.372 A2.9993,2.9993 0 0 1 2.9761,-0.372 Z" stroke-linecap="round" fill="#4dabf7"/></g></g><g transform="matrix(1, 0, 0, 1, 744.6931, 3989.1303)" opacity="1"><g transform="scale(1)"><path d="M0,4.7503 T-2.015,4.8737 -6.0993,5.1005 -11.2743,5.3066 -17.5277,5.2062 -24.1828,4.8487 -27.69,4.6945 A2.5645,2.5645 0 0 1 -27.69,-0.4345 T-24.1828,-0.5887 -17.5277,-0.9462 -11.2743,-1.0466 -6.0993,-0.8405 -2.015,-0.6137 0,-0.4903 A2.6203,2.6203 0 0 1 0,4.7503 Z" stroke-linecap="round" fill="#4dabf7"/></g></g><g transform="matrix(1, 0, 0, 1, 795.8168, 3929.4859)" opacity="1"><g transform="scale(1)"><path d="M2.6747,2.2873 T2.1709,10.8511 0.8365,26.0145 -0.891,39.8827 -1.7878,47.1513 A2.4893,2.4893 0 0 1 -6.7322,46.5687 T-5.915,39.2907 -4.3899,25.5562 -3.1784,10.5362 -2.6747,1.9727 A2.6793,2.6793 0 0 1 2.6747,2.2873 Z" stroke-linecap="round" fill="#4dabf7"/></g></g><g transform="matrix(1, 0, 0, 1, 810.7279, 3993.3906)" opacity="1"><g transform="scale(1)"><path d="M-2.7005,2.8525 T-5.2356,2.4371 -10.9282,1.8024 -16.5311,1.9415 -21.2463,2.8699 -25.7367,4.1809 -30.5581,5.812 -33.1589,6.7021 A2.61,2.61 0 0 1 -35.0011,1.8179 T-32.4602,0.7688 -27.525,-1.2799 -22.467,-3.1004 -16.711,-4.2907 -10.0914,-4.3483 -4.0619,-3.4445 -1.5595,-2.8525 A2.909,2.909 0 0 1 -2.7005,2.8525 Z" stroke-linecap="round" fill="#4dabf7"/></g></g><g transform="matrix(1, 0, 0, 1, 783.0359, 4023.2128)" opacity="1"><g transform="scale(1)"><path d="M0.5112,-3.5783 T4.0404,-3.0633 10.2507,-1.7614 15.0782,0.1128 18.8073,3.2625 21.0608,7.2349 21.0262,12.3639 19.3098,17.5482 17.3442,21.4013 14.5114,25.2775 10.1395,29.2118 6.0243,32.5085 3.9894,35.0696 3.5756,36.2797 A4.1377,4.1377 0 0 1 -3.7886,32.5049 T-2.3862,30.1718 0.8413,26.2899 5.9677,22.0944 10.2701,17.5732 12.5573,12.5243 12.2324,7.7082 8.5783,5.3149 3.012,4.0708 -0.5112,3.5783 A3.6146,3.6146 0 0 1 0.5112,-3.5783 ZM3.7766,32.9634 T4.2093,34.2098 7.2441,36.1721 12.9107,37.0822 18.2721,37.4887 24.2645,37.02 32.751,35.4663 37.542,34.5937 A3.8303,3.8303 0 0 1 39.138,42.0863 T34.4073,43.2419 24.8263,45.5369 17.5269,46.5194 11.0488,45.8562 4.538,44.3692 -0.3415,41.2333 -3.3645,37.4496 -3.9896,35.8212 A4.1377,4.1377 0 0 1 3.7766,32.9634 Z" stroke-linecap="round" fill="#4dabf7"/></g></g><g transform="matrix(1, 0, 0, 1, 891.6738, 3940.1367)" opacity="1"><g transform="scale(1)"><path d="M0.3138,0.0905 T0.0246,13.6996 -0.3836,35.9829 -0.5382,49.7328 -0.6303,59.482 -0.7567,69.3847 -0.8266,74.6139 A3.4338,3.4338 0 0 1 -7.6934,74.5061 T-7.599,69.2772 -7.4137,59.3354 -7.0785,49.543 -6.4223,35.7796 -5.2921,13.5027 -4.5738,-0.0905 A2.4454,2.4454 0 0 1 0.3138,0.0905 Z" stroke-linecap="round" fill="#4dabf7"/></g></g><g transform="matrix(1, 0, 0, 1, 910.8452, 3984.87)" opacity="1"><g transform="scale(1)"><path d="M2.9659,-2.2244 T4.4683,-0.1792 7.0099,4.3579 8.341,11.6841 7.9527,19.0716 6.5649,24.1339 5.8574,26.6428 A3.8815,3.8815 0 0 1 -1.5974,24.4772 T-0.8505,21.9797 0.8805,15.8428 0.9694,9.1987 -1.4459,4.2092 -2.9659,2.2244 A3.7073,3.7073 0 0 1 2.9659,-2.2244 ZM-1.0174,23.2885 T0.6649,21.0032 4.2128,16.6868 7.5542,13.1097 11.5236,9.6002 17.0073,6.0326 22.7105,3.6169 27.542,3.646 30.8037,6.4896 32.5749,12.9256 32.7624,19.7552 31.3361,25.3575 29.6429,30.001 28.9355,31.4388 A3.7435,3.7435 0 0 1 22.1845,28.2012 T23.3109,25.9644 25.1056,20.7131 24.5524,14.1525 20.9125,11.9257 16.4603,14.9176 13.0465,18.1197 10.025,21.5429 6.8305,25.6339 5.2774,27.8315 A3.8815,3.8815 0 0 1 -1.0174,23.2885 Z" stroke-linecap="round" fill="#4dabf7"/></g></g><g transform="matrix(1, 0, 0, 1, 970.4896, 3933.7463)" opacity="1"><g transform="scale(1)"><path d="M3.0052,0 T3.0739,5.5412 3.2502,18.0326 3.4693,31.6679 3.6826,44.8987 3.8627,55.9037 3.9968,65.23 4.5811,73.9225 5.4119,80.9821 5.8356,86.9539 6.0931,92.6686 6.2292,95.6453 A4.1048,4.1048 0 0 1 -1.9692,96.0747 T-2.1449,93.1001 -2.4789,87.5219 -2.8659,81.8399 -3.5736,74.433 -3.9968,65.2337 -3.8627,55.9037 -3.6826,44.8987 -3.4693,31.6679 -3.2502,18.0326 -3.0739,5.5412 -3.0052,0 A3.0052,3.0052 0 0 1 3.0052,0 Z" stroke-linecap="round" fill="#4dabf7"/></g></g><g transform="matrix(1, 0, 0, 1, 1025.8736, 3965.6986)" opacity="1"><g transform="scale(1)"><path d="M2.7528,0.7865 T1.8477,4.3422 -0.0702,10.8917 -3.7639,18.2408 -9.3192,26.8017 -14.2373,33.765 -19.7035,39.1792 -26.591,44.485 -30.0559,47.1344 A3.0608,3.0608 0 0 1 -33.8441,42.3256 T-30.4571,39.5773 -24.3429,34.641 -19.6369,29.8414 -14.8115,23.159 -9.5254,15.3853 -6.0292,8.9447 -3.8627,2.7102 -2.7528,-0.7865 A2.8629,2.8629 0 0 1 2.7528,0.7865 Z" stroke-linecap="round" fill="#4dabf7"/></g></g><g transform="matrix(1, 0, 0, 1, 1002.4419, 3967.8287)" opacity="1"><g transform="scale(1)"><path d="M2.7165,0.5777 T4.7738,4.0881 8.6431,12.7429 11.8737,21.9338 14.5414,29.0259 16.9262,34.6654 18.9803,39.5036 23.5583,44.0065 27.2178,46.265 A3.1897,3.1897 0 0 1 23.9022,51.715 T21.4972,50.4169 16.3075,47.2919 12.234,42.8777 9.8044,37.5391 7.5045,31.5146 5.1064,24.121 2.5481,15.3835 -0.7439,7.2244 -2.7165,3.6823 A3.1287,3.1287 0 0 1 2.7165,0.5777 Z" stroke-linecap="round" fill="#4dabf7"/></g></g><g transform="matrix(1, 0, 0, 1, 1049.3053, 3993.3906)" opacity="1"><g transform="scale(1)"><path d="M0,-2.3471 T4.03,-2.5338 11.1912,-2.6673 17.8112,-2.5741 21.3,-2.5341 A2.5341,2.5341 0 0 1 21.3,2.5341 T17.8112,2.5741 11.1912,2.6673 4.03,2.5338 0,2.3471 A2.3471,2.3471 0 0 1 0,-2.3471 Z" stroke-linecap="round" fill="#4dabf7"/></g></g><g transform="matrix(1, 0, 0, 1, 1091.9085, 3963.5684)" opacity="1"><g transform="scale(1)"><path d="M2.521,-1.0804 T4.0432,2.4495 6.5386,10.6299 8.0313,19.7177 8.3615,29.1954 8.0997,37.7499 7.4764,44.4132 6.5108,49.928 5.638,55.0875 5.1801,57.8813 A3.0726,3.0726 0 0 1 -0.9201,57.1387 T-0.6942,54.3166 -0.2697,48.8197 0.5428,43.553 1.3818,37.4051 1.9829,29.2968 2.0388,20.5387 1.0991,12.229 -1.0208,4.6029 -2.521,1.0804 A2.7428,2.7428 0 0 1 2.521,-1.0804 Z" stroke-linecap="round" fill="#4dabf7"/></g></g><g transform="matrix(1, 0, 0, 1, 1123.8608, 3944.397)" opacity="1"><g transform="scale(1)"><path d="M2.8962,-0.1316 T3.5248,10.9451 4.5268,32.4247 4.6171,50.9388 4.1732,64.253 3.916,73.2018 3.1519,79.7549 1.8034,85.3157 1.1226,88.0694 A3.3334,3.3334 0 0 1 -5.3826,86.6106 T-4.8222,83.8298 -3.8155,78.8888 -3.2635,72.9604 -2.9352,63.9607 -2.2679,50.8638 -1.9809,32.6531 -2.5173,11.2197 -2.8962,0.1316 A2.8991,2.8991 0 0 1 2.8962,-0.1316 Z" stroke-linecap="round" fill="#4dabf7"/></g></g><g transform="matrix(1, 0, 0, 1, 1189.8956, 3950.7875)" opacity="1"><g transform="scale(1)"><path d="M2.1714,-0.4343 T3.2967,4.5803 5.4444,20.4345 7.5974,43.2142 8.7281,55.1542 A2.349,2.349 0 0 1 4.0519,55.6058 T2.877,43.67 0.655,21.1446 -1.2817,5.4946 -2.1714,0.4343 A2.2144,2.2144 0 0 1 2.1714,-0.4343 Z" stroke-linecap="round" fill="#4dabf7"/></g></g><g transform="matrix(1, 0, 0, 1, 1215.4575, 3978.4795)" opacity="1"><g transform="scale(1)"><path d="M-1.5431,3.0863 T-3.5887,2.1452 -10.1327,1.1981 -17.9487,1.8049 -24.2459,2.7559 -30.3909,4.1214 -35.7849,6.0376 -40.711,8.0453 -43.4087,9.1641 A3.0727,3.0727 0 0 1 -46.0513,3.6159 T-43.4826,2.2263 -38.4154,-0.5258 -32.0249,-3.2214 -25.3674,-4.8715 -18.8418,-5.8194 -8.7536,-5.8421 -0.4412,-4.1601 1.5431,-3.0863 A3.4506,3.4506 0 0 1 -1.5431,3.0863 Z" stroke-linecap="round" fill="#4dabf7"/></g></g><g transform="matrix(1, 0, 0, 1, 1277.232, 3948.6573)" opacity="1"><g transform="scale(1)"><path d="M1.7258,2.5887 T0.2408,3.6355 -3.9446,6.7674 -11.0285,12.473 -19.0805,19.9285 -25.129,26.7441 -29.0349,32.9848 -30.7126,40.9346 -29.6134,48.6244 -23.6074,53.7232 -14.429,56.5254 -4.5526,56.6405 7.2553,54.4172 18.4834,51.0308 29.0299,47.1925 34.7033,45.1059 A4.1661,4.1661 0 0 1 37.7167,52.8741 T32.1203,55.1592 21.2818,59.6163 8.9363,63.7755 -4.8699,66.3116 -16.8326,65.8992 -27.3592,62.6683 -34.767,57.5236 -38.184,49.8997 -38.6712,38.9603 -35.7121,28.7665 -30.8195,21.6081 -23.9962,14.469 -15.2702,6.9156 -7.7231,1.3469 -3.2633,-1.6205 -1.7258,-2.5887 A3.1112,3.1112 0 0 1 1.7258,2.5887 Z" stroke-linecap="round" fill="#4dabf7"/></g></g></svg>