<svg xmlns="http://www.w3.org/2000/svg" direction="ltr" width="1264.4839142879418" height="915.7522963572837" viewBox="395.95996866712744 3050.145323482263 1264.4839142879418 915.7522963572837" stroke-linecap="round" stroke-linejoin="round" data-color-mode="dark" class="tl-container tl-theme__force-sRGB tl-theme__dark" style="background-color: transparent;"><defs/><g transform="matrix(1, 0, 0, 1, 639.998, 3133.5742)" opacity="1"><g transform="scale(1)"><path d="M2.0482,0.473 T0.9196,5.4114 -1.1674,15.2011 -2.6143,23.7022 -3.3556,30.7621 -4.1319,37.2506 -4.9082,43.3195 -5.6787,49.9017 -6.4533,56.7948 -6.8395,63.351 -7.0344,70.2162 -7.515,77.7478 -8.1428,85.5137 -8.4629,93.2848 -9.0164,101.2928 -10.0822,109.4237 -11.0142,117.392 -11.8827,125.3867 -12.7195,133.3979 -13.541,141.4187 -14.3548,149.4414 -14.774,157.7293 -14.9973,166.2742 -15.4966,174.6885 -16.1315,183.2938 -16.4513,191.8958 -16.6126,200.2321 -16.6947,208.7997 -17.1125,217.9705 -17.6948,227.361 -17.9923,236.7656 -18.1469,246.2772 -18.2201,255.845 -18.2559,265.4446 -18.2665,275.0609 -18.2632,285.0643 -18.2522,295.6527 -18.2307,306.5469 -18.2083,317.6022 -17.8099,329.0404 -17.2042,340.3799 -16.8702,351.757 -16.6893,363.4525 -16.5903,374.9306 -16.5354,386.2963 -16.5044,397.9812 -16.4926,409.4533 -16.4926,420.4347 -16.4938,431.9195 -16.8768,443.7595 -17.4568,455.6917 -17.7599,467.5856 -18.3054,479.2641 -18.9731,490.7325 -19.3211,502.3781 -19.8817,514.3021 -20.5476,526.2804 -20.8925,538.1988 -21.0738,550.1764 -21.5523,562.6478 -22.1778,575.2961 -22.5025,587.5737 -23.0609,599.8242 -23.7333,611.9761 -24.0842,623.6122 -24.2699,635.4361 -24.3682,647.362 -24.8042,659.0571 -25.4141,670.5371 -25.7258,681.8086 -25.8837,693.0623 -25.9651,703.9314 -26.0066,714.595 -26.0213,725.15 -26.0211,735.27 -26.0184,744.7798 -26.0091,753.5872 -26.0017,762.0253 -26.3818,770.0368 -26.9636,777.3022 -27.2742,783.6468 -27.0828,789.0679 -26.5452,794.7445 -25.9849,798.6173 -25.662,799.3002 A2.7772,2.7772 0 0 1 -30.8256,801.3466 T-31.3587,799.8695 -32.1743,795.3123 -32.8025,789.3098 -33.0466,783.384 -32.7477,776.8407 -32.1728,769.7393 -31.7941,762.0225 -31.7828,753.5849 -31.7663,744.7757 -31.7498,735.2627 -31.7235,725.1368 -31.6888,714.5699 -31.6364,703.8855 -31.5396,692.9777 -31.3594,681.6496 -31.0296,670.2388 -30.422,658.846 -29.9931,647.3157 -29.8951,635.3471 -29.7084,623.4431 -29.3526,611.6674 -28.6838,599.5711 -28.1336,587.4223 -27.7905,575.0141 -27.149,562.433 -26.6683,550.0883 -26.4745,538.0342 -26.1077,525.9643 -25.4231,514.0364 -24.857,502.2105 -24.5031,490.4112 -23.8391,479.0049 -23.3026,467.4452 -22.9977,455.4207 -22.4241,443.5793 -22.0538,431.9208 -22.062,420.438 -22.075,409.4592 -22.0879,397.9926 -22.1039,386.3181 -22.138,374.9714 -22.208,363.5281 -22.3477,351.9062 -22.6222,340.6505 -23.1711,329.2109 -23.5275,317.6017 -23.5013,306.5452 -23.4726,295.6493 -23.4479,285.0576 -23.4188,275.0477 -23.3803,265.4197 -23.3229,255.798 -23.2193,246.1881 -23.0384,236.596 -22.6993,227.0372 -22.0736,217.7394 -21.6352,208.7442 -21.5287,200.1276 -21.3322,191.7066 -20.973,182.9255 -20.3194,174.3963 -19.8189,166.1477 -19.5901,157.4796 -19.1512,148.9557 -18.3369,140.9279 -17.514,132.8977 -16.6755,124.8661 -15.8011,116.8333 -14.862,108.7943 -13.8224,100.9563 -13.2619,93.0772 -12.904,85.1164 -12.2456,77.4357 -11.7305,70.0625 -11.481,63.0595 -11.0239,56.2698 -10.1984,49.363 -9.3685,42.7288 -8.5444,36.6884 -7.7286,30.2874 -6.894,22.9773 -5.3506,14.2992 -3.1994,4.4601 -2.0482,-0.473 A2.1022,2.1022 0 0 1 2.0482,0.473 ZM-30.2951,798.4513 T-29.114,797.3115 -27.1091,794.818 -26.2854,793.4644 A2.5328,2.5328 0 0 1 -21.8746,795.9556 T-22.6086,797.36 -24.7676,800.4799 -26.1925,802.1955 A2.7772,2.7772 0 0 1 -30.2951,798.4513 Z" stroke-linecap="round" fill="#f2f2f2"/></g></g><g transform="matrix(1, 0, 0, 1, 1310.97, 3743.6523)" opacity="1"><g transform="scale(1)"><path d="M0.1673,2.0082 T-8.9415,2.8096 -25.5398,4.05 -40.0221,4.7275 -53.3594,5.0906 -66.4674,5.2832 -80.2124,5.3829 -93.9094,5.4312 -107.9625,5.4444 -122.9072,5.8159 -137.9955,6.3949 -153.5456,7.0825 -170.045,8.214 -187.1442,9.2148 -204.5076,10.1448 -222.725,11.424 -241.82,12.8921 -261.3743,14.4557 -281.9828,15.6883 -303.0952,16.7341 -324.4703,17.6788 -346.4135,18.1803 -368.5645,18.8162 -390.8687,19.5272 -413.6804,19.9086 -436.7132,20.1285 -459.8626,20.2485 -483.0739,20.3147 -505.9368,20.3579 -528.9971,20.3835 -552.1613,20.3869 -574.9995,20.3817 -597.6659,20.377 -619.9104,19.9795 -641.505,19.3739 -663.1361,18.671 -684.4089,17.931 -705.117,17.1841 -725.523,16.4328 -745.3936,15.6773 -764.2806,14.5364 -782.2123,13.1707 -799.2636,11.676 -814.6504,10.4859 -828.8396,9.4441 -842.167,7.6997 -854.2262,5.189 -864.7957,2.2731 -873.1416,-0.9046 -880.2527,-4.3019 -883.923,-6.0495 A2.1808,2.1808 0 0 1 -882.097,-10.0105 T-878.3844,-8.3546 -871.486,-5.2937 -863.5126,-2.5012 -853.2039,0.1492 -841.4965,2.4299 -828.4576,4.006 -814.2374,4.9478 -798.774,6.0857 -781.7798,7.5632 -763.9288,8.9565 -745.1725,10.1698 -725.3149,11.0003 -704.9172,11.8223 -684.2258,12.616 -662.9687,13.3542 -641.361,14.0204 -619.8166,14.5763 -597.6664,14.938 -575.0005,14.9289 -552.1632,14.9152 -529.0007,14.9024 -505.9437,14.8974 -483.0867,14.8826 -459.8871,14.8388 -436.7593,14.7499 -413.7689,14.5734 -391.0392,14.2026 -368.7161,13.4863 -346.5295,12.859 -324.6936,12.4086 -303.3406,11.5469 -282.2742,10.6012 -261.755,9.4908 -242.1762,8.0535 -223.0418,6.7084 -204.7447,5.5305 -187.4026,4.6792 -170.3479,3.7358 -153.7398,2.6234 -138.1684,1.9341 -123.0221,1.3364 -107.9707,0.9203 -93.925,0.8838 -80.2421,0.8378 -66.5267,0.7587 -53.4663,0.612 -40.2058,0.3311 -25.8305,-0.2132 -9.2832,-1.2912 -0.1673,-2.0082 A2.0151,2.0151 0 0 1 0.1673,2.0082 Z" stroke-linecap="round" fill="#f2f2f2"/></g></g><g transform="matrix(1, 0, 0, 1, 694.584, 3762.918)" opacity="1"><g transform="scale(1)"><path d="M1.785,0.1491 T1.3829,4.7047 0.541,14.3366 0.1013,19.413 A1.7173,1.7173 0 0 1 -3.3213,19.127 T-2.9126,14.0481 -2.1444,4.41 -1.785,-0.1491 A1.7912,1.7912 0 0 1 1.785,0.1491 Z" stroke-linecap="round" fill="#f2f2f2"/></g></g><g transform="matrix(1, 0, 0, 1, 1254.8926, 3737.2305)" opacity="1"><g transform="scale(1)"><path d="M2.0036,-0.8349 T3.9165,3.7177 6.8893,11.9285 8.5132,18.6996 9.7062,24.0473 10.4909,29.6034 10.4107,34.2931 10.1749,35.6617 A2.172,2.172 0 0 1 5.8851,34.9783 T6.0863,33.6041 6.1435,29.8632 5.3159,25.0456 4.1414,19.6973 2.7087,13.3795 -0.1183,5.397 -2.0036,0.8349 A2.1706,2.1706 0 0 1 2.0036,-0.8349 Z" stroke-linecap="round" fill="#f2f2f2"/></g></g><g transform="matrix(1, 0, 0, 1, 805.3613, 3750.0742)" opacity="1"><g transform="scale(1)"><path d="M2.3334,-0.7794 T2.7477,0.3529 3.5982,5.0209 4.1624,12.0212 4.3207,17.807 4.3543,21.2933 4.3575,22.4586 A2.7476,2.7476 0 0 1 -1.1375,22.5014 T-1.1525,21.3363 -1.1844,17.8766 -1.2435,12.221 -1.4623,5.9671 -1.9861,1.9269 -2.3334,0.7794 A2.4601,2.4601 0 0 1 2.3334,-0.7794 ZM-1.1376,22.4844 T-1.117,21.6553 -0.582,17.1464 0.3123,10.1471 1.4147,4.3479 2.1373,1.8683 A2.2218,2.2218 0 0 1 6.4783,2.8174 T5.8687,4.9858 5.0294,10.786 4.5554,17.6266 4.3343,21.6555 4.3576,22.4756 A2.7476,2.7476 0 0 1 -1.1376,22.4844 ZM6.4972,1.9652 T6.722,3.1429 7.1011,7.9691 7.3169,13.8111 6.994,18.168 6.002,22.2518 4.76,26.1417 4.1257,28.1114 A2.6464,2.6464 0 0 1 -0.9057,26.4686 T-0.2555,24.5041 1.3073,19.2732 2.2627,13.8343 2.3572,8.1582 2.2635,3.6875 2.1183,2.7206 A2.2218,2.2218 0 0 1 6.4972,1.9652 Z" stroke-linecap="round" fill="#f2f2f2"/></g></g><g transform="matrix(1, 0, 0, 1, 800.5449, 3865.668)" opacity="1"><g transform="scale(1)"><path d="M-3.3526,0.658 T-3.729,-1.283 -4.1054,-3.2239 A3.4077,3.4077 0 0 1 2.5824,-4.5365 T2.9675,-2.5972 3.3526,-0.658 A3.4165,3.4165 0 0 1 -3.3526,0.658 ZM0.442,-0.6921 T-1.0746,-0.1277 -4.472,2.1822 -7.854,6.659 -10.4945,12.5063 -11.9748,18.313 -9.6844,20.0264 -3.9543,16.4375 0.6513,12.0955 3.3361,8.7333 5.9609,4.7555 7.2531,2.2284 7.0984,2.0474 A2.7666,2.7666 0 0 1 12.5886,1.3593 T12.6255,2.7071 10.976,7.2335 8.0187,12.3136 5.0443,16.3084 1.7149,19.9526 -1.6088,22.9741 -5.1904,25.7535 -9.4901,27.8372 -14.8237,27.4935 -18.4798,23.3995 -18.823,17.2415 -17.8146,11.6489 -15.3265,5.89 -10.9437,-0.2253 -6.9704,-4.3537 -3.7352,-6.3919 -1.9651,-7.0682 A3.4077,3.4077 0 0 1 0.442,-0.6921 ZM8.7352,4.2382 T8.6849,4.2157 8.6346,4.1931 A2.7656,2.7656 0 0 1 10.8504,-0.8747 T10.9011,-0.8531 10.9518,-0.8315 A2.7666,2.7666 0 0 1 8.7352,4.2382 ZM12.5063,1.7576 T12.4755,2.505 12.4432,5.7194 13.079,11.008 14.4741,15.8394 16.1718,19.4126 17.1117,20.9758 A3.0573,3.0573 0 0 1 11.7883,23.9842 T10.5509,21.6947 8.5961,17.0188 7.3649,11.4171 6.8926,5.629 6.9563,2.3085 6.9787,1.5608 A2.7656,2.7656 0 0 1 12.5063,1.7576 Z" stroke-linecap="round" fill="#f2f2f2"/></g></g><g transform="matrix(1, 0, 0, 1, 712.2441, 3496.4102)" opacity="1"><g transform="scale(1)"><path d="M-2.339,-0.5866 T-1.9476,-2.1079 -0.6537,-5.8593 0.4465,-10.1851 1.1599,-14.9946 1.9228,-20.1724 2.8484,-25.4808 4.1071,-31.3165 5.4192,-37.4507 6.4901,-43.514 7.3061,-48.5845 8.1119,-54.0626 8.9014,-59.6048 10.0886,-65.7896 11.604,-73.4442 13.3726,-80.0465 15.6441,-86.097 18.5184,-92.1673 21.6072,-97.9053 24.839,-103.0908 27.5746,-107.4722 30.0763,-111.6333 33.5404,-115.9482 37.3953,-120.0506 41.4182,-124.3737 45.8875,-129.1479 50.8308,-133.4098 56.4562,-137.0626 62.6128,-140.5115 68.31,-143.7477 74.1011,-146.4521 81.3014,-148.1683 88.8534,-148.9113 95.7654,-149.1024 102.3331,-149.1484 107.8543,-148.7406 112.1129,-147.7003 116.1971,-146.3749 120.2482,-144.9106 124.2766,-143.3888 128.3009,-141.8275 132.33,-140.2622 136.5715,-138.2026 140.7062,-136.0023 144.5833,-134.2034 149.9428,-131.6287 156.684,-128.3367 163.2011,-125.1113 169.3418,-122.399 175.6929,-119.9245 182.009,-117.5997 187.278,-116.3304 192.8741,-115.3037 199.0772,-114.4113 205.2438,-114.1741 210.3702,-113.681 215.2653,-112.9715 221.9041,-112.6201 228.5934,-112.8647 235.0819,-113.5332 241.6862,-114.5396 247.6078,-116.2529 252.998,-118.66 258.5452,-121.6398 263.8793,-125.3292 268.6364,-129.3285 272.623,-132.4827 276.6127,-136.0431 281.245,-140.9835 285.1334,-144.9166 289.116,-148.9079 292.9398,-153.1268 296.9922,-157.2784 301.9116,-162.8226 305.7951,-167.3925 309.0255,-170.3848 313.0124,-174.7116 316.9841,-179.2658 320.2081,-182.3234 323.167,-185.5477 326.2434,-189.1451 329.5078,-192.6952 332.7523,-196.0868 336.1425,-199.1545 340.2275,-203.542 344.1117,-208.3765 347.7822,-212.076 351.503,-215.7974 354.8538,-219.528 358.7592,-223.2491 362.6004,-226.994 366.518,-230.8636 370.6028,-234.5425 374.6634,-237.9953 379.1993,-241.43 383.8643,-244.7494 388.9396,-248.367 394.2666,-252.1752 399.7296,-256.0878 405.2687,-260.0454 410.9776,-263.7296 417.1126,-267.2416 422.9238,-270.5532 428.6496,-273.8111 434.7857,-277.0895 440.5968,-280.2881 446.3198,-283.4926 452.4533,-286.7429 458.8721,-289.6612 465.4488,-292.0216 471.9653,-294.0113 478.0119,-295.7897 484.0523,-297.1297 490.3321,-298.1899 496.6759,-299.0623 502.6571,-299.8159 508.317,-300.8222 514.6578,-302.0419 518.0145,-302.7057 A2.547,2.547 0 0 1 519.1255,-297.7343 T515.8056,-296.9059 509.4773,-295.2942 503.545,-293.856 497.6179,-292.8521 491.4444,-291.8347 485.5057,-290.7451 479.8942,-289.4415 473.9105,-287.6489 467.6872,-285.7435 461.6231,-283.5939 455.5799,-280.8443 449.5906,-277.6657 443.8344,-274.4333 437.9517,-271.1799 431.9867,-267.9776 426.2747,-264.7002 420.4703,-261.3732 414.6528,-258.0503 409.2057,-254.5272 403.6643,-250.571 398.1898,-246.674 392.8508,-242.8704 387.7753,-239.2515 383.2672,-236.0467 379.0401,-232.8635 375.1158,-229.521 371.2562,-226.0676 367.3061,-222.1658 363.4254,-218.3712 359.8763,-214.9931 356.2804,-211.0149 352.5904,-207.3158 349.4061,-204.1418 346.4935,-200.5003 342.1128,-195.7829 337.6341,-191.4126 334.485,-188.117 331.3795,-184.7401 328.1308,-180.9556 323.5758,-176.2467 319.282,-171.6464 315.0658,-167.0129 309.6225,-161.3706 305.6893,-156.7251 301.9195,-152.4836 296.644,-146.9807 292.4823,-142.4391 288.5529,-138.4886 283.5747,-133.7296 278.5948,-128.9198 274.5575,-125.0079 270.4976,-121.8347 264.8854,-117.9277 259.0617,-114.0877 252.8891,-111.0732 246.1952,-108.9149 240.9729,-107.7004 236.0313,-106.9665 230.9954,-106.3058 225.4088,-105.9487 218.0981,-106.1792 211.3183,-106.943 205.0462,-107.5786 198.4325,-107.8426 192.0103,-108.7547 185.5397,-110.0646 179.3342,-111.6023 173.5659,-113.7612 167.0556,-116.3412 160.305,-119.3099 153.8238,-122.5688 147.1548,-125.9111 141.8835,-128.5262 136.1313,-131.5948 128.2624,-135.3455 120.3497,-138.4385 112.6997,-141.1386 105.6732,-142.679 99.1268,-142.9953 92.5778,-142.9111 85.7229,-142.634 79.1727,-141.5275 73.7012,-139.6075 68.3269,-136.8901 62.4836,-133.6223 57.0743,-130.3568 52.2033,-126.9931 47.6191,-123.0562 43.5155,-118.4722 39.4875,-113.9923 36.0486,-110.3095 33.702,-106.8146 31.0344,-102.5277 27.8455,-97.6578 24.7802,-92.6068 21.8675,-87.1291 19.5612,-81.4712 17.537,-75.6583 16.1328,-70.5426 15.0862,-64.6473 13.7671,-57.0936 12.5041,-49.7219 11.3408,-42.5438 10.1311,-36.003 8.8379,-30.1558 7.6275,-24.8239 6.5661,-19.144 5.7803,-13.9708 5.1046,-9.3056 3.9452,-4.5774 2.7091,-0.9288 2.339,0.5866 A2.4114,2.4114 0 0 1 -2.339,-0.5866 Z" stroke-linecap="round" fill="#f76707"/></g></g><g transform="matrix(1, 0, 0, 1, 1291.8184, 3114.3086)" opacity="1"><g transform="scale(1)"><path d="M-3.0139,0 T-3.0099,-3.7939 -3.3799,-10.1417 -4.6324,-15.7386 -6.6278,-20.8627 -8.6653,-25.5051 -11.3128,-25.4987 -14.1816,-20.0713 -16.1064,-14.4825 -17.2331,-8.5338 -17.121,-3.2698 -15.7482,0.6383 -13.6355,4.1647 -10.6383,7.9792 -7.4904,12.232 -5.1214,16.6606 -3.2454,21.5039 -2.5176,27.2772 -4.5843,33.6818 -9.5937,38.9829 -14.5591,41.7973 -20.1939,42.9435 -26.2125,43.1097 -32.176,41.6324 -38.8905,38.0667 -43.0692,34.0667 -44.2163,32.4752 A3.1675,3.1675 0 0 1 -39.2637,28.5248 T-37.4926,30.8238 -32.9445,34.2162 -27.2451,35.7927 -21.4101,36.0143 -16.0099,34.7127 -11.6687,32.3604 -9.1724,28.321 -9.3414,23.0864 -11.1921,18.1802 -13.673,13.7787 -16.8992,9.9666 -20.1097,5.5215 -22.203,0.3347 -23.0725,-5.8175 -22.5399,-12.7695 -21.0528,-19.3625 -18.7266,-25.797 -14.4686,-32.0597 -8.8782,-34.1435 -4.2706,-30.5765 -1.7117,-25.5118 0.0654,-20.3637 1.6075,-15.6173 2.6184,-10.5654 3.0099,-3.7977 3.0139,0 A3.0139,3.0139 0 0 1 -3.0139,0 Z" stroke-linecap="round" fill="#f76707"/></g></g><g transform="matrix(1, 0, 0, 1, 1287.002, 3123.9414)" opacity="1"><g transform="scale(1)"><path d="M1.7127,2.2812 T0.2043,3.4832 -3.665,5.5268 -7.9889,6.7296 -13.6593,7.4482 -17.3666,7.8056 A3,3 0 0 1 -17.9534,1.8344 T-14.4808,1.4863 -7.8887,0.5063 -3.241,-1.2034 -1.7127,-2.2812 A2.8525,2.8525 0 0 1 1.7127,2.2812 Z" stroke-linecap="round" fill="#f76707"/></g></g><g transform="matrix(1, 0, 0, 1, 1055.8145, 3753.2852)" opacity="1"><g transform="scale(1)"><path d="M-2.6254,-1.3168 T-2.2491,-2.0782 -1.8728,-2.8396 A2.9471,2.9471 0 0 1 3.3958,-0.1971 T3.0106,0.5599 2.6254,1.3168 A2.9371,2.9371 0 0 1 -2.6254,-1.3168 ZM0.445,-4.4484 T0.6455,-4.4715 0.846,-4.4946 A2.95,2.95 0 0 1 1.4797,1.3713 T1.2789,1.3915 1.0781,1.4117 A2.9471,2.9471 0 0 1 0.445,-4.4484 ZM4.029,-0.8632 T3.7687,0.2671 3.3648,3.9554 2.7864,8.679 2.0557,13.1763 1.6365,17.4886 1.513,19.469 A3.1293,3.1293 0 0 1 -4.733,19.071 T-4.4641,15.7679 -3.538,9.3241 -2.5818,3.0883 -1.993,-1.1335 -1.7033,-2.2602 A2.95,2.95 0 0 1 4.029,-0.8632 ZM-4.7382,19.1849 T-4.6873,18.0972 -4.6391,14.5193 -4.6029,9.5637 -4.5232,4.6605 -4.447,0.1787 -4.3684,-4.8506 -4.3224,-9.2645 -4.3197,-10.6931 A2.7099,2.7099 0 0 1 1.1001,-10.6942 T1.1034,-9.2658 1.1522,-4.8531 1.2355,0.1739 1.3193,4.6518 1.4136,9.5426 1.5115,14.1058 1.5397,17.7842 1.5182,19.3551 A3.1293,3.1293 0 0 1 -4.7382,19.1849 ZM0.8058,-11.9219 T1.5215,-10.4638 2.5064,-5.5476 3.4563,1.3955 4.3945,7.0895 4.6521,9.2987 A3.0601,3.0601 0 0 1 -1.4321,9.9613 T-1.6562,7.7485 -2.4521,1.8379 -3.0777,-4.8342 -3.5784,-8.6369 -4.0253,-9.4653 A2.7099,2.7099 0 0 1 0.8058,-11.9219 Z" stroke-linecap="round" fill="#e599f7"/></g></g><g transform="matrix(1, 0, 0, 1, 1057.4199, 3835.1641)" opacity="1"><g transform="scale(1)"><path d="M3.0341,1.2129 T2.3037,3.1249 0.3652,7.3714 -2.7246,12.2125 -5.9338,16.3457 -9.0822,20.2596 -12.3539,24.1902 -15.735,26.9443 -19.3494,28.9181 -21.0336,29.7812 A2.8806,2.8806 0 0 1 -23.9264,24.7988 T-21.3385,23.1715 -17.5157,19.9553 -14.4505,15.9565 -11.3454,12.0225 -8.4507,8.4711 -5.7203,4.5017 -3.822,0.6733 -3.0341,-1.2129 A3.2675,3.2675 0 0 1 3.0341,1.2129 Z" stroke-linecap="round" fill="#e599f7"/></g></g><g transform="matrix(1, 0, 0, 1, 1033.3379, 3839.9805)" opacity="1"><g transform="scale(1)"><path d="M1.754,-2.9221 T3.6164,-1.7203 8.5753,1.8863 13.2852,5.7397 16.521,8.6916 21.0795,12.8234 26.711,17.629 29.4068,19.8059 A3.4105,3.4105 0 0 1 25.1732,25.1541 T23.595,23.9429 19.4317,20.2805 15.1134,16.4948 11.8541,13.6369 8.8568,10.6997 4.7515,7.1821 0.1818,4.0001 -1.754,2.9221 A3.4081,3.4081 0 0 1 1.754,-2.9221 Z" stroke-linecap="round" fill="#e599f7"/></g></g><g transform="matrix(1, 0, 0, 1, 805.3613, 3743.6523)" opacity="1"><g transform="scale(1)"><path d="M1.9376,1.6517 T0.763,2.9985 -0.4116,4.3453 A2.5057,2.5057 0 0 1 -4.2254,1.0943 T-3.0815,-0.2787 -1.9376,-1.6517 A2.5461,2.5461 0 0 1 1.9376,1.6517 ZM-4.7333,3.3887 T-5.0963,2.0457 -5.576,-2.647 -5.7162,-7.9982 -5.7558,-12.5741 -5.3849,-17.8339 -4.8129,-23.2494 -4.5267,-28.5738 -3.983,-34.2142 -3.3321,-40.2157 -3.0136,-46.25 -2.471,-52.629 -1.8435,-59.0322 -1.5549,-65.2874 -1.4171,-71.6196 -0.963,-78.1596 -0.3547,-84.6428 -0.0572,-90.9302 0.4915,-97.4523 1.1614,-103.9282 1.499,-110.5824 2.0694,-117.6678 2.7461,-124.4476 3.4864,-131.0642 4.2497,-137.5868 5.0238,-144.0624 5.8004,-150.8787 6.184,-157.7211 6.3881,-164.7537 6.8858,-172.0382 7.5244,-179.2903 7.8484,-186.3685 8.0272,-193.1422 8.1224,-199.7479 8.1732,-206.2672 8.2063,-213.1205 8.6009,-220.3151 9.1719,-227.1463 9.4535,-233.6187 9.5943,-240.0632 9.6654,-246.4961 10.0926,-253.1056 10.6996,-259.6272 11.0182,-265.5494 11.5901,-271.5155 12.2696,-277.6861 13.0124,-283.9668 13.7815,-289.9547 14.1572,-295.5861 14.7516,-301.4106 15.8501,-306.9878 16.7699,-311.9995 17.2122,-316.6956 17.8533,-321.6773 18.5591,-326.582 18.8935,-331.205 19.0668,-335.9152 19.1549,-340.6763 19.2066,-345.0865 19.2416,-349.3067 19.281,-354.8183 19.3428,-360.7899 19.9319,-365.923 20.9394,-369.3901 21.3951,-370.3838 A2.9106,2.9106 0 0 1 26.7649,-368.1362 T26.1707,-365.7908 25.6092,-360.7815 25.6502,-354.7972 25.6532,-349.2618 25.6297,-345.0078 25.5704,-340.5363 25.4479,-335.6513 25.2215,-330.7099 24.7976,-325.662 24.0644,-320.8588 23.42,-316.0719 22.868,-310.8749 21.9011,-305.7573 20.8556,-300.7572 20.2627,-295.1541 19.8304,-289.1896 19.0666,-283.262 18.3454,-277.0211 17.6921,-270.9559 17.1711,-265.2282 16.8518,-259.0495 16.2483,-252.6976 15.8238,-246.4124 15.7236,-239.9105 15.5395,-233.3351 15.2044,-226.6262 14.6052,-219.9697 14.2155,-213.0953 14.1964,-206.2216 14.148,-199.6628 14.0552,-192.9857 13.8771,-186.0881 13.5239,-178.7489 12.8776,-171.6128 12.3821,-164.5645 12.1466,-157.3696 11.6959,-150.1842 10.8896,-143.3516 10.096,-136.8975 9.3208,-130.4096 8.5866,-123.8628 7.9105,-117.1889 7.3499,-110.2698 6.9775,-103.3195 6.3001,-96.9495 5.7372,-90.6294 5.3704,-84.0819 4.7184,-77.7345 4.2171,-71.4523 3.9779,-64.9786 3.551,-58.4583 2.821,-52.1529 2.2327,-45.9502 1.8503,-39.6345 1.1712,-33.7259 0.6363,-28.2908 0.3207,-22.6874 -0.2491,-17.4553 -0.5999,-10.6256 -0.5276,-3.0034 -0.1846,1.0693 0.0963,2.0509 A2.5057,2.5057 0 0 1 -4.7333,3.3887 Z" stroke-linecap="round" fill="#e599f7"/></g></g><g transform="matrix(1, 0, 0, 1, 1054.209, 3748.4688)" opacity="1"><g transform="scale(1)"><path d="M-2.352,0 T-2.3382,-2.657 -2.7007,-8.0835 -3.2952,-13.199 -3.6412,-17.9445 -3.8423,-22.362 -3.9645,-26.5878 -4.0499,-31.0981 -4.1195,-36.1326 -4.1833,-41.8241 -3.8458,-47.6658 -3.3018,-53.3949 -2.6428,-59.4327 -1.9284,-65.6592 -1.5727,-71.4408 -0.9976,-77.3175 -0.3245,-83.4426 0.0175,-89.162 0.206,-94.8344 0.3118,-100.8553 0.3696,-107.0673 0.3951,-113.7585 0.4022,-120.7025 0.4046,-127.0185 0.4053,-132.2462 0.3932,-137.661 0.7666,-143.743 1.3282,-149.2353 1.5905,-154.2182 1.7169,-159.4878 1.7689,-165.3002 1.7829,-171.4057 1.7775,-177.6606 1.761,-183.2353 1.7422,-188.4504 1.7171,-194.9962 1.6909,-201.8635 1.6717,-208.1386 1.6632,-214.1038 1.6684,-219.9071 2.0621,-226.1922 2.6459,-232.5406 2.9476,-238.7347 3.1104,-243.9121 3.1978,-249.6676 3.2335,-256.8641 3.6245,-263.8838 4.1982,-270.6238 4.4788,-277.4083 4.6202,-283.648 4.6915,-289.9748 4.7187,-297.0962 4.7296,-303.891 4.7386,-310.508 4.7484,-317.034 4.766,-323.5122 4.7831,-329.5822 4.7894,-335.4407 5.1789,-341.7622 5.7616,-347.4008 6.0545,-353.1912 6.2032,-360.0089 6.2776,-365.9066 6.315,-371.6696 6.333,-377.3615 6.3474,-383.0209 6.3551,-389.0412 6.3539,-394.4922 6.3525,-399.6422 6.3511,-404.2553 6.3495,-410.325 6.357,-417.93 6.808,-425.2425 7.5586,-431.9122 8.0038,-437.4643 8.2609,-442.4842 8.4546,-446.4402 8.5282,-447.9464 A2.7118,2.7118 0 0 1 13.9518,-447.9136 T14.0073,-446.4067 14.1354,-442.4038 14.1751,-437.1957 13.8373,-430.9817 13.2134,-424.5171 12.9027,-417.9299 12.9096,-410.3243 12.9068,-404.254 12.9035,-399.6399 12.8984,-394.4881 12.8904,-389.0343 12.885,-383.0057 12.8746,-377.3352 12.8456,-371.6166 12.7939,-365.8158 12.699,-359.8593 12.5267,-352.8264 12.2102,-346.7403 11.6367,-341.3672 11.2684,-335.4368 11.2728,-329.5802 11.2862,-323.5087 11.2966,-317.0273 11.2931,-310.4954 11.2766,-303.8679 11.2392,-297.0549 11.1748,-289.8796 11.0723,-283.4834 10.8839,-277.114 10.5386,-270.0606 9.9247,-263.5031 9.5071,-256.8237 9.4537,-249.5589 9.3719,-243.7242 9.2138,-238.433 8.9064,-231.9607 8.3344,-225.8076 7.971,-219.904 7.9756,-214.1033 7.9662,-208.1376 7.945,-201.8619 7.9152,-194.9927 7.8832,-188.4425 7.8512,-183.222 7.8098,-177.6378 7.7571,-171.3617 7.6813,-165.2136 7.5629,-159.3076 7.366,-153.8745 7.0149,-148.6279 6.4124,-143.3526 6.022,-137.655 6.0056,-132.2419 5.9981,-127.0118 5.9851,-120.6907 5.9627,-113.7348 5.9325,-107.0199 5.8843,-100.7625 5.7892,-94.6468 5.5964,-88.8229 5.2149,-82.816 4.5152,-76.7692 3.9214,-71.0827 3.4951,-65.0111 2.7256,-58.8251 2.0138,-52.8429 1.402,-47.2968 0.991,-41.832 0.9522,-36.1572 0.9299,-31.1482 0.9725,-24.7107 1.104,-18.2574 1.3708,-13.7062 1.9392,-8.388 2.3382,-2.6595 2.352,0 A2.352,2.352 0 0 1 -2.352,0 Z" stroke-linecap="round" fill="#e599f7"/></g></g><g transform="matrix(1, 0, 0, 1, 1025.3105, 3626.4531)" opacity="1"><g transform="scale(1)"><path d="M1.5138,1.7669 T-1.1207,4.072 -6.6153,9.0865 -12.8786,15.1274 -19.5404,22.0736 -26.4251,29.8766 -33.854,38.5584 -41.213,46.9785 -48.1242,54.8222 -54.8169,62.3644 -61.0138,69.351 -66.1921,75.2794 -70.5307,79.9437 -74.9699,83.6216 -79.855,86.7946 -82.3202,88.3872 A2.0474,2.0474 0 0 1 -84.6398,85.0128 T-82.2698,83.2816 -77.9798,80.1477 -74.1615,76.6268 -70.0294,71.9572 -64.8963,65.9365 -58.7342,58.8924 -52.0637,51.3441 -45.1422,43.5226 -37.7863,35.1777 -30.2625,26.4619 -23.1795,18.5477 -16.3065,11.5204 -9.8562,5.4606 -4.1958,0.4829 -1.5138,-1.7669 A2.3267,2.3267 0 0 1 1.5138,1.7669 Z" stroke-linecap="round" fill="#e599f7"/></g></g><g transform="matrix(1, 0, 0, 1, 1004.4395, 3570.2617)" opacity="1"><g transform="scale(1)"><path d="M1.286,1.7147 T-1.7282,4.0217 -7.7786,9.0211 -14.2542,15.3784 -21.4069,23.2688 -29.0004,31.6737 -37.1998,40.3398 -45.276,49.0391 -52.915,57.7537 -60.7779,66.5688 -68.3779,74.6677 -75.4337,81.9594 -81.8363,88.4373 -87.6067,93.7563 -92.7054,97.7038 -97.4648,101.0408 -99.9297,102.777 A2.0359,2.0359 0 0 1 -102.3503,99.503 T-99.9679,97.6553 -95.5292,94.1917 -90.9027,90.2548 -85.4174,84.93 -79.1054,78.4184 -72.1229,71.1499 -64.6093,63.1451 -56.7628,54.372 -49.0072,45.5629 -40.8409,36.8607 -32.6251,28.3576 -24.9207,20.0337 -17.4596,12.0309 -10.61,5.526 -4.3451,0.5332 -1.286,-1.7147 A2.1434,2.1434 0 0 1 1.286,1.7147 Z" stroke-linecap="round" fill="#e599f7"/></g></g><g transform="matrix(1, 0, 0, 1, 1014.0723, 3473.9336)" opacity="1"><g transform="scale(1)"><path d="M1.2534,1.7545 T-1.4025,3.6569 -6.9567,7.7015 -12.7641,12.7911 -19.5365,19.6312 -27.7345,27.5354 -36.5742,35.9146 -45.7209,44.8752 -55.0835,54.1719 -64.6104,63.2918 -74.2227,71.9392 -83.0405,79.8901 -91.182,86.7859 -99.4005,92.7701 -106.7794,97.7669 -113.0712,101.5205 -118.5441,103.9275 -123.0388,104.814 -128.0929,103.0924 -131.1236,101.3267 A2.0896,2.0896 0 0 1 -128.9564,97.7533 T-125.7538,99.0293 -120.4933,99.5118 -115.7229,97.1791 -109.785,93.3842 -102.6008,88.3834 -94.7098,82.6042 -86.6973,75.8215 -77.8318,67.9055 -68.2947,59.4143 -58.7717,50.4184 -49.2817,41.1902 -39.9505,32.2948 -31.0143,24.087 -22.7773,16.3672 -15.6594,9.4109 -9.5148,4.1717 -3.9141,0.1413 -1.2534,-1.7545 A2.1562,2.1562 0 0 1 1.2534,1.7545 Z" stroke-linecap="round" fill="#e599f7"/></g></g><g transform="matrix(1, 0, 0, 1, 967.5137, 3420.9531)" opacity="1"><g transform="scale(1)"><path d="M1.7678,1.2629 T-0.1301,3.9226 -4.5932,9.5926 -9.9691,16.0405 -16.1835,23.2592 -23.643,31.3256 -31.6941,40.106 -39.7268,48.9122 -47.3655,57.3507 -54.8143,65.5916 -62.2197,73.3753 -68.8717,79.7715 -74.7746,84.6768 -79.8804,88.3779 -84.3085,90.7643 -88.5913,92.4816 -90.7432,93.3341 A1.9787,1.9787 0 0 1 -92.2768,89.6859 T-88.4638,87.9998 -82.5627,84.7809 -77.8433,81.0673 -72.3097,76.2201 -65.904,69.8817 -58.611,62.1535 -51.1388,53.9202 -43.4334,45.5037 -35.3196,36.7416 -27.1467,28.036 -19.671,20.2175 -13.3957,13.1446 -8.0415,6.8789 -3.6681,1.3939 -1.7678,-1.2629 A2.1725,2.1725 0 0 1 1.7678,1.2629 Z" stroke-linecap="round" fill="#e599f7"/></g></g><g transform="matrix(1, 0, 0, 1, 906.5059, 3417.7422)" opacity="1"><g transform="scale(1)"><path d="M1.1742,2.0558 T-1.4753,3.5895 -7.0558,6.7326 -13.0371,9.9716 -19.9724,13.6029 -27.8435,17.4503 -35.6764,21.657 -43.969,26.7475 -48.4148,29.4768 A2.5727,2.5727 0 0 1 -51.1252,25.1032 T-46.7026,22.3366 -38.1671,16.9983 -30.1438,12.6743 -22.3415,8.9776 -15.3864,5.5009 -9.4157,2.4593 -3.8412,-0.5528 -1.1742,-2.0558 A2.3675,2.3675 0 0 1 1.1742,2.0558 Z" stroke-linecap="round" fill="#e599f7"/></g></g><g transform="matrix(1, 0, 0, 1, 989.9902, 3533.3359)" opacity="1"><g transform="scale(1)"><path d="M2.5745,-1.2912 T2.7794,-0.699 6.7251,0.9891 13.2647,3.2426 19.5597,5.2856 27.3335,7.4359 36.1469,10.0992 45.7038,12.9588 55.5765,15.5244 65.73,17.9767 76.7327,20.3631 88.2319,22.7238 100.357,25.0804 113.075,27.0438 126.1378,28.4471 139.8452,29.5773 153.9082,30.5733 168.0574,31.0839 182.35,31.3376 195.8498,31.0729 208.9382,30.1565 222.2855,28.8942 235.275,27.0865 248.1926,24.9825 261.0681,22.7269 273.2995,19.6834 285.4422,16.1816 297.2351,12.8136 308.2461,9.1973 318.8671,5.0743 328.982,0.6611 338.4381,-3.8976 347.6064,-8.5613 356.737,-12.9553 365.2947,-17.1235 373.4876,-21.528 381.2804,-25.77 388.3525,-29.8591 394.9862,-34.2161 400.6991,-38.3596 405.6541,-42.0794 410.8241,-45.3383 415.3434,-48.0964 419.1625,-50.598 423.7509,-53.3254 429.1284,-56.0932 431.8618,-57.3129 A3.1675,3.1675 0 0 1 435.0982,-51.8671 T434.1334,-51.2497 431.2246,-49.7025 427.0448,-47.3121 423.0802,-44.7372 419.1381,-42.0286 414.6923,-39.2176 410.0492,-36.2351 405.0266,-32.4375 399.0138,-28.0787 392.0409,-23.5095 384.8185,-19.3042 377.0202,-15.0056 368.5977,-10.411 360.0326,-6.1554 351.0865,-1.7722 341.8041,3.0211 332.0998,7.7639 321.7077,12.3486 310.7026,16.656 299.4086,20.3935 287.6177,23.7723 275.1858,27.3106 262.3987,30.4188 249.4134,32.6291 236.308,34.6821 222.9756,36.4454 209.4338,37.633 195.993,38.4843 182.2104,38.6928 167.7912,38.3993 153.3977,37.8717 139.2386,36.8976 125.3323,35.7345 111.936,34.2312 98.9405,32.1154 86.7673,29.6126 75.2171,27.0784 64.0955,24.4939 53.8799,21.8308 43.833,19.0159 34.3235,15.992 25.6892,13.2533 17.6508,10.9152 11.2372,8.7673 6.3389,6.9091 1.2601,4.6412 -2.0178,2.2173 -2.5745,1.2912 A2.8801,2.8801 0 0 1 2.5745,-1.2912 Z" stroke-linecap="round" fill="#e599f7"/></g></g><g transform="matrix(1, 0, 0, 1, 1417.0449, 3467.5117)" opacity="1"><g transform="scale(1)"><path d="M-0.4716,-2.8206 T1.8264,-3.0801 6.1734,-3.478 11.2425,-3.7145 16.8826,-2.6118 19.5027,-1.411 A2.3857,2.3857 0 0 1 16.2814,2.1087 T16.0872,1.7588 13.6858,1.2083 8.2322,1.4121 2.7286,2.3185 0.4716,2.8206 A2.8597,2.8597 0 0 1 -0.4716,-2.8206 ZM18.6186,2.6212 T16.9918,3.1735 11.1952,2.5609 4.2626,0.2161 -1.4777,-2.3252 -7.5474,-5.1515 -13.3277,-7.7232 -18.5499,-9.8125 -23.2518,-11.7464 -26.8299,-12.988 -28.2404,-13.2778 A3.1006,3.1006 0 0 1 -29.2413,-19.3976 T-26.0767,-18.9907 -20.8308,-17.7233 -16.1019,-15.8514 -10.6361,-13.6001 -4.7878,-10.8165 1.1199,-7.807 6.5828,-5.037 11.9448,-2.4696 15.9435,-1.5649 17.1655,-1.9235 A2.3857,2.3857 0 0 1 18.6186,2.6212 ZM-25.7745,-17.2403 T-25.6589,-16.5291 -22.5158,-14.0202 -16.2016,-10.6578 -10.805,-8.3004 -6.44,-6.7152 -1.853,-5.1282 3.1808,-3.5606 8.3576,-1.5172 12.9222,1.2125 16.9012,4.2219 20.0453,7.6533 21.9873,11.8619 23.0062,16.57 22.7271,22.1219 21.0036,28.4199 18.0817,34.8529 13.5865,40.8907 8.3672,45.6991 2.8608,49.6834 -3.5019,52.6172 -10.2481,54.6313 -13.6044,55.6189 A2.771,2.771 0 0 1 -15.2956,50.3411 T-11.9904,49.1941 -6.0963,47.1576 -0.8973,44.54 4.0108,40.8714 8.4652,36.9203 12.2378,32.0989 14.916,26.5694 16.4247,19.7483 15.9603,12.8616 13.3925,8.6525 9.9791,5.9218 6.2786,3.5214 1.5342,1.5927 -3.6146,-0.0511 -8.2611,-1.6677 -12.7646,-3.2802 -17.0278,-4.9126 -22.1205,-7.2825 -27.9,-10.7165 -31.1762,-14.0213 -31.7071,-15.4352 A3.1006,3.1006 0 0 1 -25.7745,-17.2403 Z" stroke-linecap="round" fill="#e599f7"/></g></g><g transform="matrix(1, 0, 0, 1, 1527.8223, 3411.3203)" opacity="1"><g transform="scale(1)"><path d="M3.065,0.3843 T2.7827,3.4331 2.391,9.8757 2.2477,17.3386 2.2085,25.8366 2.1987,34.4993 1.8078,42.6727 1.23,49.298 0.9002,54.1353 0.5951,57.978 0.4282,59.6689 A3.6481,3.6481 0 0 1 -6.8482,59.1311 T-6.7714,57.5239 -6.6139,53.6633 -6.3098,48.6175 -5.6847,42.2515 -5.229,34.4255 -5.0687,25.6984 -4.7849,17.0491 -4.3154,9.2698 -3.5443,2.6402 -3.065,-0.3843 A3.089,3.089 0 0 1 3.065,0.3843 ZM-6.8567,59.2986 T-6.7946,58.2885 -6.6441,55.1576 -6.5555,53.0368 A3.346,3.346 0 0 1 0.1355,52.9232 T0.2918,54.7881 0.4423,58.0772 0.4367,59.5014 A3.6481,3.6481 0 0 1 -6.8567,59.2986 Z" stroke-linecap="round" fill="#e599f7"/></g></g><g transform="matrix(1, 0, 0, 1, 1521.4004, 3401.6875)" opacity="1"><g transform="scale(1)"><path d="M-0.9627,-3.8388 T0.5562,-4.2191 4.9656,-4.9835 12.1562,-5.5249 19.0145,-5.7114 23.7514,-6.1004 30.1615,-7.2809 34.3928,-8.1016 A3.4101,3.4101 0 0 1 36.2472,-1.5384 T33.9921,-0.7119 29.477,0.9388 24.4268,2.1763 19.0918,2.5913 12.507,2.606 6.2326,2.8476 2.4804,3.4576 0.9627,3.8388 A3.9577,3.9577 0 0 1 -0.9627,-3.8388 Z" stroke-linecap="round" fill="#e599f7"/></g></g><g transform="matrix(1, 0, 0, 1, 1521.4004, 3430.5859)" opacity="1"><g transform="scale(1)"><path d="M2.5527,-2.5527 T3.6701,-1.4531 7.5356,0.1036 12.3937,0.088 17.7445,-1.5223 22.8739,-3.0885 24.7626,-3.5172 A3.6374,3.6374 0 0 1 26.6174,3.5172 T23.4437,4.4596 16.9188,6.5787 11.5043,8.0455 6.4653,7.6234 1.6309,5.9122 -1.3902,3.733 -2.5527,2.5527 A3.61,3.61 0 0 1 2.5527,-2.5527 Z" stroke-linecap="round" fill="#e599f7"/></g></g><g transform="matrix(1, 0, 0, 1, 1588.8301, 3388.8438)" opacity="1"><g transform="scale(1)"><path d="M1.777,1.131 T-0.8614,5.3202 -5.6063,13.2091 -9.5341,20.7201 -13.0447,28.4486 -15.5729,35.0893 -16.8009,41.7293 -17.4065,48.5569 -17.7303,54.1082 -17.506,59.8701 -17.0079,65.1144 -15.2475,69.6788 -12.0351,72.5753 -10.4168,73.0302 A2.5654,2.5654 0 0 1 -12.0632,77.8898 T-14.7309,76.8925 -18.9395,74.1744 -21.4498,70.1145 -22.5763,65.6407 -23.0155,59.9936 -23.1336,53.7409 -22.6711,48.0183 -21.7846,40.6515 -20.1813,33.3267 -17.3371,26.438 -13.5343,18.5823 -9.3469,10.936 -4.4551,3.033 -1.777,-1.131 A2.1064,2.1064 0 0 1 1.777,1.131 Z" stroke-linecap="round" fill="#e599f7"/></g></g><g transform="matrix(1, 0, 0, 1, 1614.5176, 3412.9258)" opacity="1"><g transform="scale(1)"><path d="M2.5829,0.5179 T2.2158,2.4228 0.8635,7.0699 -1.7675,13.5116 -4.648,19.8969 -7.8438,25.3239 -12.2116,29.9477 -17.0103,33.6612 -19.4024,35.4921 A2.3086,2.3086 0 0 1 -22.3376,31.9279 T-20.082,29.9313 -16.0617,26.3821 -12.6688,22.4882 -9.7816,17.5145 -6.8816,11.3715 -4.3063,5.5648 -2.9773,1.3754 -2.5829,-0.5179 A2.6343,2.6343 0 0 1 2.5829,0.5179 Z" stroke-linecap="round" fill="#e599f7"/></g></g><g transform="matrix(1, 0, 0, 1, 1595.252, 3420.9531)" opacity="1"><g transform="scale(1)"><path d="M1.9362,-1.548 T3.4104,0.3901 6.159,4.6393 9.7216,10.2775 14.18,15.8082 19.0776,19.0921 21.8051,20.1723 A2.4899,2.4899 0 0 1 19.9349,24.7877 T16.5174,23.3778 10.5181,19.1411 5.65,12.7568 2.2762,7.2338 -0.3737,3.4081 -1.9362,1.548 A2.479,2.479 0 0 1 1.9362,-1.548 Z" stroke-linecap="round" fill="#e599f7"/></g></g><g transform="matrix(1, 0, 0, 1, 1614.5176, 3382.4219)" opacity="1"><g transform="scale(1)"><path d="M1.9482,-1.4627 T3.0589,0.0817 5.6497,4.4949 8.3314,10.404 10.5245,15.6956 12.5792,22.8111 14.5742,31.1762 16.0871,39.8015 16.9976,49.4793 17.1246,57.0341 16.0056,63.6774 14.162,69.9437 11.7196,74.976 7.8663,78.8678 3.4807,81.4669 1.4329,82.5819 A2.72,2.72 0 0 1 -1.4329,77.9581 T1.6912,75.9027 5.7137,72.0779 7.385,67.887 9.0302,62.414 10.2142,56.8701 10.385,49.9426 9.9335,40.7828 8.8621,32.3948 7.3983,24.3271 5.7709,17.5561 3.8581,12.348 1.6299,6.9769 -0.7791,2.955 -1.9482,1.4627 A2.4361,2.4361 0 0 1 1.9482,-1.4627 Z" stroke-linecap="round" fill="#e599f7"/></g></g><g transform="matrix(1, 0, 0, 1, 1321.0927, 3737.8042)" opacity="1"><g transform="scale(1)"><path d="M-1.33,2.3319 T-2.8733,1.4434 -6.1946,-0.6237 -10.7545,-4.4112 -15.5439,-8.5372 -19.1538,-11.3756 -22.5895,-13.9599 -27.5659,-16.973 -32.5467,-19.3985 -34.3845,-20.0739 A2.8096,2.8096 0 0 1 -32.7589,-25.4527 T-30.4686,-24.6283 -24.6776,-21.8232 -17.6733,-17.1191 -11.9769,-12.6413 -8.339,-9.4715 -4.332,-6.0697 -0.2201,-3.2077 1.33,-2.3319 A2.6845,2.6845 0 0 1 -1.33,2.3319 ZM-31.3373,-21.06 T-31.5698,-20.7573 -31.8023,-20.4547 A2.8068,2.8068 0 0 1 -36.2666,-23.8579 T-36.0363,-24.1623 -35.8061,-24.4666 A2.8096,2.8096 0 0 1 -31.3373,-21.06 ZM-31.65,-23.637 T-30.9987,-22.5729 -28.75,-19.7887 -25.6391,-16.5333 -22.4195,-13.63 -18.7786,-10.9604 -14.522,-7.8923 -9.9948,-3.5589 -6.2777,0.9602 -3.3921,5.0232 -1.2176,9.2703 -0.3879,13.8522 -1.5168,18.4632 -4.514,22.4988 -8.2035,25.9091 -12.3161,28.9529 -16.7668,31.6918 -20.3011,33.7033 -21.6471,34.4794 A3.2118,3.2118 0 0 1 -25.0329,29.0206 T-23.7395,28.1596 -20.2833,25.955 -16.0178,23.2925 -12.1758,20.6339 -8.6296,17.5788 -6.6873,13.8254 -7.937,9.1841 -10.7218,4.7133 -13.8673,0.6354 -17.8078,-3.289 -22.1948,-6.5248 -26.2301,-9.5622 -29.622,-12.6441 -33.0279,-16.2233 -35.652,-19.4559 -36.4189,-20.6756 A2.8068,2.8068 0 0 1 -31.65,-23.637 Z" stroke-linecap="round" fill="#f2f2f2"/></g></g><g transform="matrix(1, 0, 0, 1, 1365.9102, 3707.9258)" opacity="1"><g transform="scale(1)"><path d="M3.3928,0.5665 T2.9332,3.2124 2.0176,8.382 1.11,13.3424 0.4538,18.0164 0.3155,24.215 0.6879,30.1536 1.9158,34.6294 5.7929,39.0645 8.7481,41.0011 A3.1499,3.1499 0 0 1 6.1919,46.7589 T4.4597,46.1077 -0.5523,42.6462 -4.9526,36.4899 -6.3679,30.8915 -6.6473,24.0971 -6.3531,17.0308 -5.6085,12.0986 -4.6927,7.214 -3.8177,2.0852 -3.3928,-0.5665 A3.4398,3.4398 0 0 1 3.3928,0.5665 Z" stroke-linecap="round" fill="#f2f2f2"/></g></g><g transform="matrix(1, 0, 0, 1, 1374.3135, 3732.202)" opacity="1"><g transform="scale(1)"><path d="M0.2442,3.3565 T-1.9598,3.6272 -6.3678,4.2588 -11.4868,5.2374 -16.9953,6.8887 -19.5888,7.9224 A2.5096,2.5096 0 0 1 -21.4912,3.2776 T-18.3787,1.9744 -12.3021,0.0745 -7.0049,-0.8354 -2.4581,-1.3225 -0.2442,-1.4965 A2.4387,2.4387 0 0 1 0.2442,3.3565 Z" stroke-linecap="round" fill="#f2f2f2"/></g></g><g transform="matrix(1, 0, 0, 1, 947.0426, 3378.4658)" opacity="1"><g transform="scale(1)"><path d="M 0 0 m -3.663919189857866, 0 a 3.663919189857866,3.663919189857866 0 1,1 7.327838379715732,0 a 3.663919189857866,3.663919189857866 0 1,1 -7.327838379715732,0" stroke-linecap="round" fill="#e03131"/></g></g><g transform="matrix(1, 0, 0, 1, 1068.3921, 3292.0276)" opacity="1"><g transform="scale(1)"><path d="M2.6946,2.0146 T2.1041,2.7568 -1.6617,5.1496 -4.837,6.8001 A3.1974,3.1974 0 0 1 -6.5202,0.6309 T-5.138,0.0653 -3.2252,-1.2574 -2.6946,-2.0146 A3.3644,3.3644 0 0 1 2.6946,2.0146 ZM-8.4136,5.3717 T-9.077,4.1085 -9.3946,0.5534 -7.8223,-3.6761 -4.6442,-6.5012 -0.3016,-6.5923 3.2382,-3.9944 4.8549,-0.1539 4.8022,4.2575 2.5323,8.2178 -1.7238,10.2033 -6.3149,9.591 -9.8584,6.8188 -12.3435,2.1517 -12.9547,-3.1452 -11.3666,-7.2054 -7.9161,-9.9538 -2.1236,-10.7309 3.2072,-8.6596 6.0713,-4.239 6.8947,1.2834 4.6423,6.5175 -0.2317,10.0237 -5.1558,10.9646 -9.8983,9.6753 -14.3854,6.645 -16.5935,1.1438 -15.6474,-4.6732 -11.5162,-8.2551 -5.1034,-9.1357 1.5267,-6.1408 5.1403,-1.6061 5.0248,2.6307 2.1779,6.2922 -3.0292,8.441 -6.1035,9.1814 A3.7807,3.7807 0 0 1 -8.1365,1.8986 T-6.0755,0.4437 -6.4971,-1.2766 -8.2729,0.4352 -5.5279,2.8267 -1.8765,1.6708 -1.5402,-1.994 -4.639,-3.0983 -5.08,-0.4802 -3.3213,1.6034 -2.9436,2.0593 A3.1974,3.1974 0 0 1 -8.4136,5.3717 Z" stroke-linecap="round" fill="#e03131"/></g></g><g transform="matrix(1, 0, 0, 1, 1046.2357, 3292.8189)" opacity="1"><g transform="scale(1)"><path d="M0,1.9357 T-5.4277,1.9135 -15.9601,1.9005 -24.6916,1.9289 -31.7266,1.9747 -38.3698,2.2182 -45.2402,2.5703 -52.2855,2.7958 -59.1189,3.132 -66.4682,3.5293 -74.0831,3.9453 -81.8393,4.3689 -90.2931,4.6224 -98.8605,4.778 -107.305,4.8881 -116.0604,4.9691 -125.0358,4.8461 -133.8836,4.6046 -142.7932,4.4795 -151.8505,4.2349 -160.7422,3.9235 -169.86,3.77 -179.2136,3.5098 -189.3787,3.1958 -198.9879,3.0357 -207.2388,2.9536 -215.945,2.724 -225.0237,2.4179 -234.0535,2.2593 -243.117,2.17 -252.3842,2.1223 -261.5725,2.0966 -270.4724,2.2684 -279.2797,2.5458 -287.9109,2.6931 -296.2034,2.7823 -304.1286,2.8436 -311.4863,2.8919 -318.4411,2.7575 -325.7298,2.3305 -332.4207,1.737 -337.9395,1.2591 -344.3453,0.8569 -350.8479,0.2882 -356.4479,-0.1712 -362.359,-0.5708 -368.572,-1.1578 -375.4712,-1.6606 -382.7562,-1.9361 -389.4239,-2.0933 -394.8105,-2.1824 -399.5164,-2.2363 -405.1704,-2.2767 -411.0391,-2.1304 -415.9926,-1.8862 -420.2554,-1.6063 -426.2664,-1.239 -430.2756,-1.0735 A2.893,2.893 0 0 1 -430.6644,-6.8465 T-426.8086,-7.2107 -420.7407,-7.8483 -416.3388,-8.2367 -411.2411,-8.5515 -405.1459,-8.757 -399.4609,-8.7559 -394.7222,-8.731 -389.2869,-8.6706 -382.5193,-8.5442 -374.9639,-8.2814 -367.9111,-7.7628 -361.8577,-7.1208 -355.8556,-6.6064 -350.2125,-6.0405 -343.9077,-5.3726 -337.3739,-4.8554 -331.8291,-4.3069 -325.3438,-3.6617 -318.2843,-3.1564 -311.5028,-2.9398 -304.1581,-2.9345 -296.2568,-2.9548 -288.0079,-3.0203 -279.4594,-3.1667 -270.5845,-3.4465 -261.5578,-3.6232 -252.356,-3.6008 -243.0623,-3.5576 -233.9503,-3.4741 -224.8264,-3.305 -215.7929,-2.989 -207.1747,-2.7475 -198.8872,-2.6447 -189.1861,-2.4538 -179.0443,-2.1018 -169.7542,-1.8074 -160.5392,-1.6173 -151.6879,-1.277 -142.7034,-0.9939 -133.7132,-0.8268 -124.9306,-0.5139 -116.0778,-0.2937 -107.3386,-0.2708 -98.9217,-0.2708 -90.4111,-0.3241 -82.0757,-0.467 -74.309,-0.7957 -66.6767,-1.0981 -59.2929,-1.3549 -52.3777,-1.5508 -45.4154,-1.626 -38.4869,-1.8445 -31.7268,-1.9747 -24.6916,-1.9289 -15.9601,-1.9005 -5.4277,-1.9135 0,-1.9357 A1.9357,1.9357 0 0 1 0,1.9357 Z" stroke-linecap="round" fill="#e03131"/></g></g><g transform="matrix(1, 0, 0, 1, 542.9693, 3266.706)" opacity="1"><g transform="scale(1)"><path d="M-0.8011,3.478 T-3.2138,2.9118 -5.0362,5.0935 -2.2711,10.0127 2.253,13.584 7.0582,15.9961 12.0223,18.2045 16.4239,20.796 19.6104,23.9985 21.5636,28.5137 22.1876,33.8207 21.2457,38.9965 18.8316,44.14 15.0083,48.4615 11.6103,50.7993 10.5272,51.3824 A3.6091,3.6091 0 0 1 6.8728,45.1576 T7.9098,44.496 10.5588,42.2931 13.1792,38.6345 14.6805,34.3014 14.3482,29.6292 11.5209,25.8093 6.9323,23.5068 1.1698,21.1102 -4.8135,17.278 -10.0402,11.9208 -13.4603,5.8557 -12.9343,-0.2064 -7.7578,-3.8867 -1.6534,-4.0328 0.8011,-3.478 A3.5691,3.5691 0 0 1 -0.8011,3.478 Z" stroke-linecap="round" fill="#e03131"/></g></g><g transform="matrix(1, 0, 0, 1, 557.2127, 3283.3233)" opacity="1"><g transform="scale(1)"><path d="M0.7602,2.3236 T-0.8934,3.488 -4.2446,6.6639 -7.1122,11.496 -8.2821,14.3166 A2.929,2.929 0 0 1 -13.8779,12.5834 T-13.5313,11.369 -12.0113,7.6319 -8.3032,2.4752 -4.0544,-1.2412 -2.3402,-2.3236 A2.7932,2.7932 0 0 1 0.7602,2.3236 Z" stroke-linecap="round" fill="#e03131"/></g></g><g transform="matrix(1, 0, 0, 1, 544.5519, 3248.5061)" opacity="1"><g transform="scale(1)"><path d="M3.561,-0.6467 T3.9262,1.4071 5.8874,7.0191 8.695,12.6217 11.4297,16.7835 14.4703,20.7275 17.5662,23.9225 22.0534,27.0516 27.4249,29.6537 32.0831,29.7807 34.2785,29.0662 A3.3432,3.3432 0 0 1 38.5215,34.2338 T37.6157,35.0721 34.9597,36.9523 30.5861,37.8386 24.7576,36.6236 19.6681,34.5901 15.9396,32.279 12.1289,29.1389 8.498,25.2716 5.1645,20.7869 2.1948,16.0545 -0.1151,11.5878 -1.9606,7.1013 -3.1789,2.708 -3.561,0.6467 A3.6192,3.6192 0 0 1 3.561,-0.6467 Z" stroke-linecap="round" fill="#e03131"/></g></g><g transform="matrix(1, 0, 0, 1, 568.2909, 3246.9235)" opacity="1"><g transform="scale(1)"><path d="M2.5055,-0.836 T3.3355,1.3839 5.204,6.6605 6.957,12.102 7.8119,16.9669 8.0662,21.8812 8.1801,24.3155 A2.6488,2.6488 0 0 1 2.8999,24.7445 T2.4056,20.4462 1.2451,13.8184 -0.294,8.436 -1.8361,3.1096 -2.5055,0.836 A2.6413,2.6413 0 0 1 2.5055,-0.836 Z" stroke-linecap="round" fill="#e03131"/></g></g><g transform="matrix(1, 0, 0, 1, 561.1692, 3258.0017)" opacity="1"><g transform="scale(1)"><path d="M0.2497,-3.0029 T2.4949,-2.7925 8.1654,-2.1843 14.5456,-1.4134 19.1803,-0.8937 20.8601,-0.7471 A3.1306,3.1306 0 0 1 20.2799,5.4871 T18.6019,5.3212 13.9826,4.7159 7.6442,3.8029 1.9986,3.1661 -0.2497,3.0029 A3.0133,3.0133 0 0 1 0.2497,-3.0029 Z" stroke-linecap="round" fill="#e03131"/></g></g><g transform="matrix(1, 0, 0, 1, 555.6301, 3236.6366)" opacity="1"><g transform="scale(1)"><path d="M-1.2034,-3.3028 T0.8776,-4.0162 4.9895,-5.0103 9.2737,-5.0261 13.7645,-3.9958 18.2237,-2.0342 22.434,0.5675 26.3296,3.714 29.8755,7.4037 32.8642,11.6933 35.1205,16.2943 36.664,20.4694 37.8094,25.7866 38.4387,31.0184 38.5596,32.8479 A3.759,3.759 0 0 1 31.0804,33.6121 T30.8288,31.7959 30.1168,27.446 28.4209,21.3957 26.2638,16.0791 24.0899,12.6253 21.3849,9.43 18.3914,6.6205 13.6757,3.676 7.8862,1.8652 3.2375,2.5168 1.2034,3.3028 A3.5152,3.5152 0 0 1 -1.2034,-3.3028 Z" stroke-linecap="round" fill="#e03131"/></g></g></svg>