<svg xmlns="http://www.w3.org/2000/svg" direction="ltr" width="1439.5802647003493" height="470.93055803275" viewBox="-29.1437560479104 1895.6202482167464 1439.5802647003493 470.93055803275" stroke-linecap="round" stroke-linejoin="round" data-color-mode="dark" class="tl-container tl-theme__force-sRGB tl-theme__dark" style="background-color: transparent;"><defs/><g transform="matrix(1, 0, 0, 1, 66.6906, 2020.4517)" opacity="1"><g transform="scale(1)"><path d="M-2.1634,-0.155 T-1.8619,-4.745 -1.4402,-14.9851 -1.9116,-25.4018 -2.7886,-32.0911 -5.7273,-30.0686 -9.0853,-20.6533 -9.8459,-9.367 -8.9434,4.0155 -6.156,21.48 -3.3241,41.9891 -3.0927,65.5518 -7.5934,91.1413 -17.8435,110.9717 -30.2147,117.1235 -41.8716,114.7144 -47.6783,113.3463 A2.5384,2.5384 0 0 1 -46.5617,108.3937 T-40.7297,109.6495 -30.3017,112.2194 -21.111,107.774 -12.8401,90.0747 -8.3147,65.5962 -8.368,42.6649 -11.0579,22.2231 -13.7669,4.2827 -14.5879,-9.7111 -13.6466,-21.768 -10.8863,-32.1739 -6.2918,-37.7031 -0.6854,-34.8125 2.7871,-25.6726 3.1016,-14.759 2.5194,-4.4312 2.1634,0.155 A2.169,2.169 0 0 1 -2.1634,-0.155 Z" stroke-linecap="round" fill="#4dabf7"/></g></g><g transform="matrix(1, 0, 0, 1, 147.0737, 1977.4883)" opacity="1"><g transform="scale(1)"><path d="M2.0188,0.092 T1.7877,7.3074 1.3172,19.2939 0.8361,29.3935 0.5945,34.7219 A1.9858,1.9858 0 0 1 -3.3745,34.5781 T-3.2301,29.2462 -2.9786,19.1176 -2.4452,7.1144 -2.0188,-0.092 A2.0209,2.0209 0 0 1 2.0188,0.092 Z" stroke-linecap="round" fill="#4dabf7"/></g></g><g transform="matrix(1, 0, 0, 1, 210.8257, 2039.8545)" opacity="1"><g transform="scale(1)"><path d="M0,2.6821 T-2.9492,2.7599 -14.6634,2.9834 -34.6035,3.2446 -59.4936,3.6841 -84.4079,3.9839 -108.0679,4.0059 -120.5288,4.0522 A2.6625,2.6625 0 0 1 -120.6112,-1.2722 T-108.1549,-1.6119 -84.5338,-2.3225 -59.5737,-3.0266 -34.6035,-3.2446 -14.6634,-2.9834 -2.9492,-2.7599 0,-2.6821 A2.6821,2.6821 0 0 1 0,2.6821 Z" stroke-linecap="round" fill="#4dabf7"/></g></g><g transform="matrix(1, 0, 0, 1, 105.4962, 2095.2911)" opacity="1"><g transform="scale(1)"><path d="M-1.8351,1.8351 T-2.8301,0.0455 -5.8661,-0.4913 -9.1119,3.0636 -9.2542,7.0655 -5.8636,7.3791 -0.2814,4.2838 6.1674,6.2314 11.0717,11.6726 14.8421,15.5966 16.9029,17.7361 A2.3453,2.3453 0 0 1 13.5971,21.0639 T11.4439,19.0175 7.2183,14.9984 3.604,10.8589 0.5562,7.2825 -0.5213,7.9547 -2.8432,12 -8.7034,13.1801 -13.5088,8.6673 -12.9356,0.6718 -7.3564,-4.8605 -1.1053,-3.9809 1.8351,-1.8351 A2.5953,2.5953 0 0 1 -1.8351,1.8351 Z" stroke-linecap="round" fill="#4dabf7"/></g></g><g transform="matrix(1, 0, 0, 1, 148.4596, 2082.8178)" opacity="1"><g transform="scale(1)"><path d="M1.9694,0.7574 T0.4405,5.0825 -4.7534,13.9358 -11.0445,21.0186 -16.4972,26.3637 -19.3239,29.1542 A2.051,2.051 0 0 1 -22.2561,26.2858 T-19.5287,23.3984 -14.4423,17.9694 -8.7754,11.5336 -3.7184,3.441 -1.9694,-0.7574 A2.11,2.11 0 0 1 1.9694,0.7574 Z" stroke-linecap="round" fill="#4dabf7"/></g></g><g transform="matrix(1, 0, 0, 1, 130.4427, 2091.1333)" opacity="1"><g transform="scale(1)"><path d="M0.9785,-1.957 T2.9773,-1.0081 7.6246,2.2177 13.5048,7.6109 19.5689,13.0019 25.7006,17.8849 28.9998,20.4933 A2.1094,2.1094 0 0 1 26.4402,23.8467 T23.054,21.3522 16.5,16.5523 10.1592,11.1587 4.9405,6.0325 0.958,2.9758 -0.9785,1.957 A2.188,2.188 0 0 1 0.9785,-1.957 Z" stroke-linecap="round" fill="#4dabf7"/></g></g><g transform="matrix(1, 0, 0, 1, 173.406, 2084.2037)" opacity="1"><g transform="scale(1)"><path d="M1.8581,-0.5577 T2.9348,2.6933 4.596,9.1021 5.4066,14.5753 5.8876,19.4104 6.1425,21.9299 A1.997,1.997 0 0 1 2.1775,22.4101 T1.8236,19.9026 1.1491,15.1987 0.3763,10.0848 -0.9671,3.8624 -1.8581,0.5577 A1.94,1.94 0 0 1 1.8581,-0.5577 Z" stroke-linecap="round" fill="#4dabf7"/></g></g><g transform="matrix(1, 0, 0, 1, 184.4933, 2096.677)" opacity="1"><g transform="scale(1)"><path d="M1.39,2.095 T-2.2164,2.1388 -10.2724,2.4402 -19.7654,3.0144 -24.8089,3.331 A1.9461,1.9461 0 0 1 -25.0911,-0.551 T-20.0548,-0.967 -10.4211,-1.7828 -2.2168,-2.1388 1.39,-2.095 A2.095,2.095 0 0 1 1.39,2.095 Z" stroke-linecap="round" fill="#4dabf7"/></g></g><g transform="matrix(1, 0, 0, 1, 195.5807, 2074.5023)" opacity="1"><g transform="scale(1)"><path d="M2.4004,-0.7061 T4.0864,4.8527 6.713,15.1031 8.1499,22.9323 7.0686,29.8859 4.5386,30.8621 6.0811,24.2842 12.4085,19.8935 19.7741,20.3729 25.1115,22.511 28.5027,25.4512 29.8717,30.772 26.8448,35.8032 19.2247,36.6881 9.7796,35.0271 5.1456,34.1259 A2.2802,2.2802 0 0 1 5.9344,29.6341 T10.5983,30.3659 18.7964,31.8035 24.025,31.1915 23.6341,28.0941 19.0936,25.2743 14.08,24.4319 9.6645,26.1675 6.1006,30.584 4.5368,30.8498 3.9324,27.5106 2.7711,23.7895 1.5702,16.3354 -0.8085,6.2912 -2.4004,0.7061 A2.5021,2.5021 0 0 1 2.4004,-0.7061 Z" stroke-linecap="round" fill="#4dabf7"/></g></g><g transform="matrix(1, 0, 0, 1, 277.3496, 2045.3981)" opacity="1"><g transform="scale(1)"><path d="M-2.0191,0.6736 T-2.2645,-1.7467 -4.7574,-3.9809 -9.4961,-0.6387 -12.1731,4.7524 -9.3122,7.3227 -3.4269,5.7919 1.8665,0.2528 5.6513,-9.7307 7.1066,-22.3009 6.6877,-32.783 4.7888,-39.8412 3.4306,-42.9335 3.4856,-43.4391 3.6599,-43.9169 3.9436,-44.339 4.32,-44.681 4.7673,-44.923 5.2596,-45.0508 5.7681,-45.0572 6.2634,-44.9417 6.7166,-44.711 7.1015,-44.3785 7.3956,-43.9636 7.5818,-43.4903 8.022,-39.8035 8.2968,-31.4505 9.1219,-20.108 11.1785,-8.3092 12.8511,0.6444 14.0104,8.1677 14.6278,12.1078 A2.188,2.188 0 0 1 10.3122,12.8322 T9.6093,8.9064 8.2635,1.504 6.5026,-7.5123 4.5304,-19.8675 3.9303,-31.9645 3.8092,-39.9617 3.4306,-42.9335 3.4856,-43.4391 3.6599,-43.9169 3.9436,-44.339 4.32,-44.681 4.7673,-44.923 5.2596,-45.0508 5.7681,-45.0572 6.2634,-44.9417 6.7166,-44.711 7.1015,-44.3785 7.3956,-43.9636 7.5818,-43.4903 8.9962,-40.438 10.9825,-33.0594 11.4972,-21.7874 9.7517,-8.0045 4.9767,3.4134 -2.2476,9.871 -10.1705,11.1969 -14.8513,5.5094 -11.9316,-3.5211 -4.8031,-7.6463 0.2968,-4.1516 2.0191,-0.6736 A2.1285,2.1285 0 0 1 -2.0191,0.6736 Z" stroke-linecap="round" fill="#4dabf7"/></g></g><g transform="matrix(1, 0, 0, 1, 335.558, 2031.539)" opacity="1"><g transform="scale(1)"><path d="M1.4794,1.4794 T-2.76,5.7636 -10.9049,13.655 -18.3307,19.5338 -25.6102,24.2317 -29.3693,26.6581 A2.0429,2.0429 0 0 1 -31.6107,23.2419 T-27.8881,20.7597 -20.9708,16.1433 -13.9118,10.5042 -5.7635,2.7599 -1.4794,-1.4794 A2.0922,2.0922 0 0 1 1.4794,1.4794 Z" stroke-linecap="round" fill="#4dabf7"/></g></g><g transform="matrix(1, 0, 0, 1, 309.2256, 2032.9249)" opacity="1"><g transform="scale(1)"><path d="M3.2431,-0.9266 T3.9046,0.3803 5.8936,3.938 11.0416,9.7832 17.9018,16.4392 24.3404,22.8902 27.7393,26.2797 A2.0151,2.0151 0 0 1 24.9207,29.1603 T21.4582,25.8358 14.877,19.5469 7.627,12.4761 2.1649,5.9616 0.1856,2.2401 -0.4631,0.9266 A2.0719,2.0719 0 0 1 3.2431,-0.9266 Z" stroke-linecap="round" fill="#4dabf7"/></g></g><g transform="matrix(1, 0, 0, 1, 394.0316, 2030.3248)" opacity="1"><g transform="scale(1)"><path d="M0.7281,2.9222 T-0.7035,3.3256 -5.3944,4.4234 -11.0796,5.3246 -15.9265,5.3316 -19.6768,4.8927 -21.0062,4.6535 A3.1637,3.1637 0 0 1 -20.1338,-1.6135 T-16.9954,-1.4036 -11.6173,-1.3021 -6.5065,-1.8508 -2.1818,-2.6067 -0.7281,-2.9222 A3.0115,3.0115 0 0 1 0.7281,2.9222 Z" stroke-linecap="round" fill="#ffc034"/></g></g><g transform="matrix(1, 0, 0, 1, 393.2697, 2045.5635)" opacity="1"><g transform="scale(1)"><path d="M0.2412,2.4187 T-1.56,2.6283 -6.7903,2.7852 -12.8498,2.7209 -18.2478,2.9966 -21.0153,3.284 A2.5436,2.5436 0 0 1 -21.6447,-1.764 T-18.5394,-2.2089 -12.753,-2.5933 -6.9595,-2.3259 -2.0442,-2.2688 -0.2412,-2.4187 A2.4307,2.4307 0 0 1 0.2412,2.4187 Z" stroke-linecap="round" fill="#ffc034"/></g></g><g transform="matrix(1, 0, 0, 1, 523.1083, 1993.5138)" opacity="1"><g transform="scale(1)"><path d="M3.1536,0.7361 T3.3686,3.2346 3.7163,7.8508 4.2001,12.9574 4.7698,18.4509 5.3536,23.042 6.0934,29.3528 6.5584,35.6016 6.1201,41.4992 5.0428,46.9836 4.4941,48.5949 A3.6326,3.6326 0 0 1 -2.3941,46.2851 T-1.4721,43.7917 -0.5521,37.5722 -0.7074,29.9724 -1.1517,23.7366 -1.5265,19.2166 -1.9714,13.7097 -2.4613,8.354 -2.872,3.8556 -3.1536,1.3639 A3.1692,3.1692 0 0 1 3.1536,0.7361 Z" stroke-linecap="round" fill="#ffc034"/></g></g><g transform="matrix(1, 0, 0, 1, 536.8131, 2023.0318)" opacity="1"><g transform="scale(1)"><path d="M2.9006,-0.726 T3.4106,1.2657 4.3846,6.7216 5.2222,11.9702 5.5957,13.7547 A3.1281,3.1281 0 0 1 -0.5539,14.9042 T-0.9001,12.8383 -1.5854,7.7448 -2.4125,2.7217 -2.9006,0.726 A2.99,2.99 0 0 1 2.9006,-0.726 ZM3.2892,11.2972 T3.6929,11.3918 4.0966,11.4865 A3.1429,3.1429 0 0 1 2.5525,17.5797 T2.1525,17.4707 1.7525,17.3617 A3.1281,3.1281 0 0 1 3.2892,11.2972 ZM0.7109,12.7876 T1.5606,11.5231 3.5239,8.5864 6.4218,4.3712 9.7691,-0.0396 13.8152,-2.8787 18.576,-2.2363 21.6654,1.7888 22.742,8.1494 23.0971,14.4382 23.187,16.7779 A3.1584,3.1584 0 0 1 16.873,16.9621 T16.8264,14.6211 16.7457,10.2439 15.6444,5.6514 13.0169,5.3712 9.7543,10.3726 6.9951,14.6883 5.9382,16.2786 A3.1429,3.1429 0 0 1 0.7109,12.7876 Z" stroke-linecap="round" fill="#ffc034"/></g></g><g transform="matrix(1, 0, 0, 1, 571.6023, 1996.6764)" opacity="1"><g transform="scale(1)"><path d="M2.7179,-0.4186 T3.2133,2.822 4.2462,9.2555 5.0779,14.6834 5.7817,19.2586 6.4382,24.7404 6.8082,29.9905 7.0032,34.7368 7.1098,39.5027 7.182,43.989 7.2195,46.3471 A2.9998,2.9998 0 0 1 1.2205,46.4329 T1.1905,44.0747 1.1346,39.6116 1.0657,34.9574 0.9276,30.3462 0.6656,25.4062 0.1228,20.0697 -0.4977,15.4707 -1.2275,10.1138 -2.2153,3.6581 -2.7179,0.4186 A2.75,2.75 0 0 1 2.7179,-0.4186 Z" stroke-linecap="round" fill="#ffc034"/></g></g><g transform="matrix(1, 0, 0, 1, 602.1745, 2014.5981)" opacity="1"><g transform="scale(1)"><path d="M2.4605,1.7571 T1.2025,3.4921 -1.1178,7.2101 -2.6499,11.4815 -3.4065,15.796 -1.6364,15.1843 0.8874,11.376 1.3542,10.2054 A2.6826,2.6826 0 0 1 6.3942,12.0449 T5.4795,14.6654 2.8506,20.4485 -1.3274,24.8748 -6.6236,24.5544 -9.546,19.9501 -9.2808,14.6804 -8.1771,9.4419 -6.1793,4.1037 -3.6952,-0.0013 -2.4605,-1.7571 A3.0235,3.0235 0 0 1 2.4605,1.7571 ZM6.1932,9.7767 T6.9984,11.202 9.0223,15.61 12.7207,20.936 15.2004,23.2795 A2.5167,2.5167 0 0 1 12.1996,27.3205 T10.9614,26.4602 7.5647,23.2762 4.185,17.8837 2.2595,13.6443 1.5551,12.4736 A2.6826,2.6826 0 0 1 6.1932,9.7767 Z" stroke-linecap="round" fill="#ffc034"/></g></g><g transform="matrix(1, 0, 0, 1, 635.9094, 2017.7607)" opacity="1"><g transform="scale(1)"><path d="M2.3231,1.5481 T0.3868,4.5781 -3.0808,9.9448 -5.9249,14.2614 -8.9074,17.8958 -12.2542,21.1955 -13.9314,22.8407 A2.5747,2.5747 0 0 1 -17.6886,19.3193 T-14.9436,16.1193 -10.8801,10.9503 -7.9934,6.67 -4.3741,1.4054 -2.3231,-1.5481 A2.7917,2.7917 0 0 1 2.3231,1.5481 Z" stroke-linecap="round" fill="#ffc034"/></g></g><g transform="matrix(1, 0, 0, 1, 624.313, 2021.9776)" opacity="1"><g transform="scale(1)"><path d="M1.4369,-2.1553 T2.9324,-1.1542 7.1573,2.3356 11.8553,7.4752 15.7502,12.0027 17.6765,13.8793 A2.6854,2.6854 0 0 1 13.9435,17.7407 T11.6306,15.5192 7.6338,10.8577 3.7551,6.2815 0.0617,3.1503 -1.4369,2.1553 A2.5904,2.5904 0 0 1 1.4369,-2.1553 Z" stroke-linecap="round" fill="#ffc034"/></g></g><g transform="matrix(1, 0, 0, 1, 656.9937, 2016.7065)" opacity="1"><g transform="scale(1)"><path d="M2.112,-1.0543 T2.9012,0.4353 4.2388,4.2537 4.9375,9.809 5.2595,16.4559 5.4311,19.8763 A2.2763,2.2763 0 0 1 0.8889,20.1837 T0.5979,16.7714 -0.197,8.7112 -1.4065,2.5588 -2.112,1.0543 A2.3605,2.3605 0 0 1 2.112,-1.0543 Z" stroke-linecap="round" fill="#ffc034"/></g></g><g transform="matrix(1, 0, 0, 1, 670.6985, 2024.086)" opacity="1"><g transform="scale(1)"><path d="M0,2.6317 T-2.742,2.7257 -8.8203,3.2706 -14.3001,4.3214 -17.7803,5.3384 -19.117,5.7556 A2.7515,2.7515 0 0 1 -20.943,0.5644 T-18.3341,-0.4518 -12.7331,-1.931 -7.6154,-2.6068 -2.7448,-2.7257 0,-2.6317 A2.6317,2.6317 0 0 1 0,2.6317 Z" stroke-linecap="round" fill="#ffc034"/></g></g><g transform="matrix(1, 0, 0, 1, 684.4033, 2001.9475)" opacity="1"><g transform="scale(1)"><path d="M2.6456,-0.4956 T3.3853,3.4957 4.5512,10.397 5.2097,15.3519 5.573,19.5199 5.5266,23.6904 4.1583,29.2968 2.9674,32.8561 A2.8944,2.8944 0 0 1 -1.671,29.3926 T-1.0585,28.9171 -0.1587,25.1856 -0.142,17.9906 -0.7741,11.2619 -1.8906,4.4838 -2.6456,0.4956 A2.6916,2.6916 0 0 1 2.6456,-0.4956 ZM-2.2096,31.5829 T-2.4104,29.9635 -1.0381,25.3531 2.4825,20.6514 7.2691,18.0243 13.3397,17.8342 18.4324,21.5517 19.7741,28.1681 16.8614,34.068 11.5512,36.879 6.1928,36.7551 2.4447,35.509 1.138,34.9233 A2.4448,2.4448 0 0 1 3.082,30.4367 T5.1571,31.3879 9.4859,32.1898 13.6135,30.1118 15.3904,26.0576 13.109,22.9314 8.3575,23.1728 4.3809,26.242 3.2386,29.3674 3.506,30.6657 A2.8944,2.8944 0 0 1 -2.2096,31.5829 Z" stroke-linecap="round" fill="#ffc034"/></g></g><g transform="matrix(1, 0, 0, 1, 717.084, 1992.4596)" opacity="1"><g transform="scale(1)"><path d="M2.7263,-0.2729 T3.2411,4.711 4.0647,13.8664 4.5557,21.4891 4.8406,27.5066 5.0153,33.1856 5.1045,38.4299 5.1267,44.517 5.1316,48.4727 A3.0217,3.0217 0 0 1 -0.9116,48.5073 T-0.9519,44.5635 -1.0155,38.4972 -1.0438,33.3096 -1.0922,27.7114 -1.2305,21.7898 -1.5426,14.324 -2.2431,5.2599 -2.7263,0.2729 A2.7399,2.7399 0 0 1 2.7263,-0.2729 Z" stroke-linecap="round" fill="#ffc034"/></g></g><g transform="matrix(1, 0, 0, 1, 955.2915, 2028.8291)" opacity="1"><g transform="scale(1)"><path d="M-0.9851,-2.628 T1.0206,-3.3459 5.8571,-4.7124 11.0106,-5.935 16.6281,-6.7043 22.7424,-6.9716 28.8807,-7.084 36.2239,-6.9 44.2225,-6.5139 50.4419,-6.0692 54.9269,-5.6645 60.7488,-5.4453 67.9843,-5.3315 73.6435,-5.3187 79.4032,-5.3302 85.18,-5.3429 90.5991,-5.7284 97.7278,-6.2244 104.7807,-6.3524 111.5527,-6.0869 117.3943,-5.6103 121.9607,-5.3453 126.3731,-5.0429 128.6091,-4.8076 A3.0965,3.0965 0 0 1 128.8121,1.3822 T125.293,1.1669 119.3329,0.8543 114.1143,0.4075 108.1188,0.0934 101.5271,0.188 94.7138,0.4268 89.2413,0.8648 85.1799,1.1171 79.3907,1.0928 73.6146,1.0593 67.8965,0.9928 60.4821,0.7979 52.3803,0.1888 45.873,-0.361 41.6288,-0.6011 35.8579,-1.027 28.9205,-1.3143 22.8787,-1.3183 17.0924,-1.1954 11.9048,-0.5597 7.3519,0.5202 2.9668,1.8512 0.9851,2.628 A2.8066,2.8066 0 0 1 -0.9851,-2.628 ZM125.7042,-0.971 T125.528,-1.8469 123.5417,-4.9306 119.434,-9.6223 114.9146,-13.929 110.5202,-17.4584 106.2798,-21.397 104.2122,-23.6289 A2.817,2.817 0 0 1 108.7478,-26.9711 T109.4163,-25.9932 112.0468,-23.6077 116.3725,-20.3703 121.1671,-16.0839 125.9874,-11.4662 129.6539,-7.3116 131.3239,-3.8862 131.717,-2.4544 A3.0965,3.0965 0 0 1 125.7042,-0.971 ZM108.2958,-27.4537 T108.8877,-26.8405 112.1521,-24.4149 117.5551,-20.3573 122.8377,-16.4404 128.187,-12.3858 133.5162,-7.3338 137.4549,-1.6403 138.9858,4.359 136.8604,10.5665 132.3095,15.8606 127.211,19.7806 123.0212,22.4955 121.6284,23.352 A2.6944,2.6944 0 0 1 118.7316,18.808 T121.2442,17.146 126.2063,13.5848 130.6488,9.7431 133.0359,5.3839 132.4855,0.7807 129.306,-3.7943 124.6039,-8.3049 119.4398,-12.213 114.2949,-15.9863 109.6685,-19.4829 106.0771,-22.0693 104.6642,-23.1463 A2.817,2.817 0 0 1 108.2958,-27.4537 Z" stroke-linecap="round" fill="#ffc034"/></g></g><g transform="matrix(1, 0, 0, 1, 989.0263, 1971.9014)" opacity="1"><g transform="scale(1)"><path d="M-1.7197,2.2902 T-3.7265,0.8169 -8.341,-1.5808 -12.1143,0.425 -12.2032,6.3688 -9.5222,10.9565 -5.7784,11.482 -2.6683,7.7437 -1.2009,1.6016 -0.5654,-4.3921 -0.5842,-9.1654 -1.2232,-14.5021 -2.7021,-19.3604 -3.6994,-21.1135 A2.1129,2.1129 0 0 1 -0.1095,-23.343 T1.2161,-20.7897 3.1483,-15.0131 4.0074,-9.2854 4.2249,-4.1237 3.7321,2.4919 1.7587,10.3065 -1.4446,15.7493 -7.0247,17.2859 -13.5635,14.5948 -17.2975,9.7319 -18.4153,3.115 -17.5532,-3.3324 -14.8117,-6.7626 -9.3594,-7.6782 -3.9989,-6.2737 -0.2609,-3.811 1.7197,-2.2902 A2.864,2.864 0 0 1 -1.7197,2.2902 ZM-1.7563,-20.1205 T-2.0532,-20.0999 -2.3502,-20.0793 A2.1125,2.1125 0 0 1 -2.6464,-24.2938 T-2.3495,-24.3149 -2.0526,-24.336 A2.1129,2.1129 0 0 1 -1.7563,-20.1205 ZM-0.4788,-21.5669 T-0.6294,-21.0908 -0.239,-18.3523 1.492,-12.672 3.8591,-6.8624 5.9172,-2.692 7.7858,1.3118 10.8176,6.8716 12.862,10.2063 A2.7081,2.7081 0 0 1 8.218,12.9937 T7.1189,11.1395 4.9536,7.4607 2.9904,3.4599 1.2833,-0.5587 -0.6072,-4.9872 -2.7982,-11.2829 -4.3757,-18.3554 -4.6802,-22.2622 -4.5178,-22.8062 A2.1125,2.1125 0 0 1 -0.4788,-21.5669 Z" stroke-linecap="round" fill="#ffc034"/></g></g><g transform="matrix(1, 0, 0, 1, 1002.7311, 1971.9014)" opacity="1"><g transform="scale(1)"><path d="M-0.3524,-2.4771 T1.2628,-2.6546 4.2382,-4.6487 5.3187,-8.4112 5.039,-10.3571 A2.5134,2.5134 0 0 1 7.938,-14.4638 T9.4033,-13.0998 10.8188,-8.9311 9.1642,-3.5462 5.8315,0.4364 2.228,2.1579 0.3524,2.4771 A2.5021,2.5021 0 0 1 -0.3524,-2.4771 ZM8.4167,-10.7981 T7.6411,-9.8883 6.5032,-6.6991 6.8029,-1.9041 9.1138,1.905 12.7493,3.0403 15.7731,0.6756 16.8679,-3.6139 17.8244,-8.6598 18.7233,-11.6225 A2.9825,2.9825 0 0 1 23.8308,-8.5411 T23.3956,-7.0262 22.7917,-3.0815 21.8734,1.7537 19.5907,5.7722 15.0975,7.9576 10.1772,8.1341 5.435,5.003 1.9032,-1.3904 2.0581,-8.5627 3.7616,-13.0498 4.5604,-14.0228 A2.5134,2.5134 0 0 1 8.4167,-10.7981 ZM22.7859,-12.6545 T24.0626,-11.8081 26.4179,-10.4071 27.4964,-9.8523 A2.721,2.721 0 0 1 25.2236,-4.9077 T24.1003,-5.365 21.3726,-6.6658 19.7682,-7.5091 A2.9825,2.9825 0 0 1 22.7859,-12.6545 Z" stroke-linecap="round" fill="#ffc034"/></g></g><g transform="matrix(1, 0, 0, 1, 1035.4118, 1963.4677)" opacity="1"><g transform="scale(1)"><path d="M1.9132,-0.766 T3.0184,1.8489 4.1237,4.4637 A2.1691,2.1691 0 0 1 0.0963,6.0763 T-0.9084,3.4211 -1.9132,0.766 A2.0608,2.0608 0 0 1 1.9132,-0.766 Z" stroke-linecap="round" fill="#ffc034"/></g></g><g transform="matrix(1, 0, 0, 1, 1028.0323, 1927.6244)" opacity="1"><g transform="scale(1)"><path d="M3.3458,-1.0209 T4.3341,1.2278 6.4259,5.9809 7.5293,8.4853 A2.4726,2.4726 0 0 1 3.0107,10.4947 T1.8902,7.9979 -0.2381,3.261 -1.2458,1.0209 A2.5126,2.5126 0 0 1 3.3458,-1.0209 Z" stroke-linecap="round" fill="#ffc034"/></g></g><g transform="matrix(1, 0, 0, 1, 1042.7913, 1953.9798)" opacity="1"><g transform="scale(1)"><path d="M2.1276,-2.4303 T4.1167,-0.6781 7.5341,2.6133 10.9893,6.5054 14.9146,10.1904 16.8129,11.5225 A3.3208,3.3208 0 0 1 13.6839,17.3808 T11.6073,16.1281 7.8172,12.7012 3.9864,8.2172 -0.1293,4.1689 -2.1276,2.4303 A3.23,3.23 0 0 1 2.1276,-2.4303 ZM12.1855,13.1686 T12.6878,12.0772 13.3725,8.7201 13.7798,2.2545 14.1279,-4.6711 14.2509,-7.3967 A2.6191,2.6191 0 0 1 19.4891,-7.3633 T19.5774,-4.6363 19.8004,2.3895 19.7921,9.507 18.9802,14.0302 18.3113,15.7347 A3.3208,3.3208 0 0 1 12.1855,13.1686 Z" stroke-linecap="round" fill="#ffc034"/></g></g><g transform="matrix(1, 0, 0, 1, 1062.8214, 1955.034)" opacity="1"><g transform="scale(1)"><path d="M0.5196,-1.4166 T2.5158,-2.1623 6.4986,-4.2341 8.8652,-8.1398 7.7261,-9.1389 6.2954,-5.2639 8.3909,-0.5353 12.6505,2.4999 16.9222,2.5631 20.1942,0.4322 21.3526,-3.143 20.2662,-8.3161 19.4299,-13.9055 21.73,-17.4985 24.92,-18.8538 25.9652,-19.0142 A2.1803,2.1803 0 0 1 26.7548,-14.7258 T25.3164,-13.5164 24.4666,-10.1832 25.5313,-5.1807 25.0607,0.2921 22.1422,4.3516 17.3629,6.3067 11.346,5.6109 6.3853,2.3713 3.7839,-2.4643 3.3435,-8.0436 5.5818,-12.997 9.4835,-14.2488 12.0354,-10.6559 11.5289,-5.6645 8.058,-1.7217 3.5763,0.6677 1.5804,1.4166 A1.5127,1.5127 0 0 1 0.5196,-1.4166 Z" stroke-linecap="round" fill="#ffc034"/></g></g><g transform="matrix(1, 0, 0, 1, 1093.3937, 1946.6002)" opacity="1"><g transform="scale(1)"><path d="M-1.3171,-1.0965 T-0.0836,-2.604 2.3722,-6.3522 3.6661,-10.0864 3.7376,-11.5801 A1.8127,1.8127 0 0 1 7.3277,-12.085 T7.1309,-9.6644 5.3848,-4.5602 2.5763,-0.3901 1.3171,1.0965 A1.7138,1.7138 0 0 1 -1.3171,-1.0965 ZM5.8488,-10.0476 T5.5376,-9.9968 5.2265,-9.9461 A1.8041,1.8041 0 0 1 4.5971,-13.499 T4.9068,-13.5582 5.2165,-13.6174 A1.8127,1.8127 0 0 1 5.8488,-10.0476 ZM6.6934,-11.4387 T6.5143,-10.4147 6.1927,-6.6521 6.6483,-0.8198 8.7771,4.0734 12.4527,5.8878 16.8223,3.2952 19.8539,-2.3044 20.0431,-7.1861 18.3698,-11.7211 19.6412,-16.2904 24.2951,-18.8789 28.7933,-20.2379 30.9647,-20.9324 A2.0627,2.0627 0 0 1 32.2953,-17.0276 T31.098,-16.592 27.7475,-15.5372 23.7953,-13.9048 23.3099,-10.427 24.5676,-4.6053 23.6372,0.8086 20.2059,5.9527 14.7178,9.6384 9.8571,9.5163 5.8486,5.9402 3.1809,-0.4704 2.7132,-6.986 2.982,-10.9764 3.1301,-12.0064 A1.8041,1.8041 0 0 1 6.6934,-11.4387 Z" stroke-linecap="round" fill="#ffc034"/></g></g><g transform="matrix(1, 0, 0, 1, 591.1052, 2044.6432)" opacity="1"><g transform="scale(1)"><path d="M2.5304,-0.3152 T2.7516,1.682 3.1599,7.0134 4.058,13.1297 5.9297,17.5525 9.5105,20.1721 14.6046,21.373 19.7728,21.6258 24.6242,21.6635 29.1952,21.3046 33.3764,20.2298 37.6902,18.9079 42.4535,17.9585 47.6301,18.6758 52.3952,21.525 55.6705,26.1923 57.7589,31.0737 59.4107,35.8473 60.2443,38.6112 A2.7283,2.7283 0 0 1 54.9035,39.7295 T54.3107,37.5935 52.7295,32.937 50.6584,28.2332 48.0855,24.6148 44.1101,23.2355 38.7144,24.1624 33.3656,25.6012 28.945,26.49 24.5872,26.7941 19.5827,26.7216 14.8806,26.4873 10.7958,25.725 6.8575,24.3379 3.0179,21.4705 0.2244,17.1683 -1.1052,12.7702 -1.767,7.4531 -2.255,2.3054 -2.5304,0.3152 A2.5499,2.5499 0 0 1 2.5304,-0.3152 ZM56.572,36.6327 T56.6677,36.594 56.7635,36.5554 A2.7298,2.7298 0 0 1 58.7684,41.6336 T58.6721,41.6708 58.5758,41.708 A2.7283,2.7283 0 0 1 56.572,36.6327 ZM55.0396,38.9579 T55.1047,37.4481 55.4694,33.5595 56.6678,28.8669 58.1965,24.6462 60.3896,20.9675 64.031,18.4194 69.0696,17.7641 73.956,18.6506 78.3212,20.4441 83.0965,22.1642 88.1606,22.9917 93.9735,22.8953 99.5962,21.5477 104.281,18.1038 107.8545,12.794 109.1043,6.796 108.9278,3.7795 A2.8894,2.8894 0 0 1 114.5722,2.5405 T114.9681,4.0241 115.6853,7.5657 114.8352,12.7953 112.5405,18.0487 110.0004,21.707 105.2485,25.4414 98.0243,28.4935 90.4068,29.1894 83.9769,28.4415 78.6841,26.7842 73.2054,24.4769 68.2742,23.2708 64.7828,24.7152 62.5919,28.4366 61.26,33.3943 60.5819,37.6565 60.4924,39.2311 A2.7298,2.7298 0 0 1 55.0396,38.9579 Z" stroke-linecap="round" fill="#40c057"/></g></g><g transform="matrix(1, 0, 0, 1, 619.5691, 2139.5226)" opacity="1"><g transform="scale(1)"><path d="M2.8737,-0.7193 T3.3822,1.2717 4.8759,5.9397 7.0111,11.2153 10.1977,14.4796 14.0722,13.3595 17.0399,9.399 18.6307,5.0174 18.9586,2.1867 18.8255,1.5626 A2.6395,2.6395 0 0 1 24.038,0.7273 T24.2206,2.0733 23.8434,6.4773 21.6891,12.6115 18.0885,17.6653 12.9418,20.4068 7.7684,20.1046 4.0953,17.3369 1.3579,13.2276 -0.8169,7.7659 -2.3841,2.7156 -2.8737,0.7193 A2.9624,2.9624 0 0 1 2.8737,-0.7193 ZM21.2534,3.7784 T20.9221,3.7521 20.5909,3.7258 A2.6318,2.6318 0 0 1 20.9466,-1.5257 T21.2784,-1.5071 21.6101,-1.4885 A2.6395,2.6395 0 0 1 21.2534,3.7784 ZM23.3595,1.5628 T23.1017,2.9297 23.8,7.5418 26.1801,12.7627 29.1522,16.1037 31.2089,17.6016 31.7176,17.7342 A2.7279,2.7279 0 0 1 29.6416,22.7795 T27.5916,21.4749 23.4449,17.8052 20.0762,12.4323 18.2153,6.6512 17.9022,2.2576 18.178,0.6373 A2.6318,2.6318 0 0 1 23.3595,1.5628 ZM28.6073,18.4829 T29.0994,17.9465 30.1385,16.8114 30.6855,16.2127 A2.6254,2.6254 0 0 1 34.6745,19.6273 T34.1673,20.2601 33.206,21.4619 32.7519,22.0308 A2.7279,2.7279 0 0 1 28.6073,18.4829 Z" stroke-linecap="round" fill="#40c057"/></g></g><g transform="matrix(1, 0, 0, 1, 658.575, 2143.7395)" opacity="1"><g transform="scale(1)"><path d="M0.381,-2.2968 T1.8855,-2.0944 5.7584,-2.398 9.2382,-3.5477 10.3498,-4.1915 A2.4281,2.4281 0 0 1 12.8502,-0.0285 T10.3988,1.4082 5.2727,2.8651 1.1086,2.591 -0.381,2.2968 A2.3281,2.3281 0 0 1 0.381,-2.2968 Z" stroke-linecap="round" fill="#40c057"/></g></g><g transform="matrix(1, 0, 0, 1, 663.8461, 2147.9563)" opacity="1"><g transform="scale(1)"><path d="M1.4102,-1.4102 T2.4255,-0.451 5.7716,1.1364 10.444,1.965 12.7855,2.1652 A2.0592,2.0592 0 0 1 12.5145,6.2748 T11.2121,6.2154 7.736,5.9227 3.0568,4.5866 -0.4294,2.4471 -1.4102,1.4102 A1.9943,1.9943 0 0 1 1.4102,-1.4102 Z" stroke-linecap="round" fill="#40c057"/></g></g><g transform="matrix(1, 0, 0, 1, 694.4184, 2142.6853)" opacity="1"><g transform="scale(1)"><path d="M-2.5647,-0.3649 T-2.3066,-2.0999 -2.7435,-5.5373 -3.4385,-7.2398 A2.5669,2.5669 0 0 1 1.0643,-9.7056 T2.053,-6.4261 2.8032,-1.3909 2.5647,0.3649 A2.5906,2.5906 0 0 1 -2.5647,-0.3649 ZM-1.151,-5.9061 T-1.8682,-5.8911 -2.5854,-5.8762 A2.5766,2.5766 0 0 1 -2.6579,-11.0288 T-1.9405,-11.0341 -1.2232,-11.0393 A2.5669,2.5669 0 0 1 -1.151,-5.9061 ZM-0.6411,-6.8044 T-1.2335,-6.1021 -2.0525,-2.6867 -2.0412,3.0685 -0.6773,7.9904 1.3517,7.5739 2.807,2.7267 3.3595,0.1759 A2.3901,2.3901 0 0 1 7.9907,1.3602 T7.6717,2.6936 6.8178,6.463 4.7079,11.2557 0.253,13.8074 -4.4719,11.5123 -6.743,6.3188 -7.3273,1.5993 -6.7042,-4.4556 -5.2625,-9.2976 -4.6022,-10.1006 A2.5766,2.5766 0 0 1 -0.6411,-6.8044 ZM7.0397,-1.1942 T8.1275,-0.3632 10.3396,2.8542 13.0608,7.8251 15.64,11.9836 16.6222,13.5575 A2.2167,2.2167 0 0 1 12.8978,15.9625 T11.8674,14.4197 9.0936,10.1923 6.4706,5.4896 4.9508,3.101 4.3105,2.7304 A2.3901,2.3901 0 0 1 7.0397,-1.1942 Z" stroke-linecap="round" fill="#40c057"/></g></g><g transform="matrix(1, 0, 0, 1, 728.1533, 2133.1973)" opacity="1"><g transform="scale(1)"><path d="M1.4764,1.4764 T0.9976,1.9901 -1.0579,5.5783 -4.1871,11.2564 -6.7108,15.3858 -7.6821,16.9116 A2.1171,2.1171 0 0 1 -11.2979,14.7084 T-9.6029,11.7906 -6.5092,6.3819 -3.8127,1.6916 -1.9956,-0.9921 -1.4764,-1.4764 A2.0879,2.0879 0 0 1 1.4764,1.4764 Z" stroke-linecap="round" fill="#40c057"/></g></g><g transform="matrix(1, 0, 0, 1, 718.6653, 2135.3057)" opacity="1"><g transform="scale(1)"><path d="M1.842,-1.6362 T3.8479,0.5973 7.3951,4.4894 11.4364,8.7207 15.2696,12.6569 16.6028,14.0204 A2.5688,2.5688 0 0 1 12.9172,17.5996 T11.5933,16.2271 7.7533,12.2056 3.679,7.8517 0.1395,3.8915 -1.842,1.6362 A2.4638,2.4638 0 0 1 1.842,-1.6362 Z" stroke-linecap="round" fill="#40c057"/></g></g><g transform="matrix(1, 0, 0, 1, 745.0207, 2125.8178)" opacity="1"><g transform="scale(1)"><path d="M-0.8807,-2.6505 T-0.1387,-2.9149 0.6033,-3.1794 A2.8269,2.8269 0 0 1 2.3861,2.1861 T1.6334,2.4183 0.8807,2.6505 A2.793,2.793 0 0 1 -0.8807,-2.6505 ZM3.4486,-2.5396 T4.1143,-1.9306 6.6974,2.157 9.9725,8.733 11.6012,13.8144 12.1105,17.7146 12.3487,19.6309 A2.8864,2.8864 0 0 1 6.6313,20.4291 T6.3355,18.5209 5.4684,14.0287 3.9829,9.6724 1.9281,5.3471 0.1641,2.1702 -0.4593,1.5463 A2.8269,2.8269 0 0 1 3.4486,-2.5396 Z" stroke-linecap="round" fill="#40c057"/></g></g><g transform="matrix(1, 0, 0, 1, 756.6171, 2133.1973)" opacity="1"><g transform="scale(1)"><path d="M-1.05,2.6246 T-3.0434,2.6367 -8.1233,3.068 -11.2098,3.4872 A2.4682,2.4682 0 0 1 -11.9902,-1.3872 T-8.5188,-2.018 -3.0487,-2.6367 -1.05,-2.6246 A2.6246,2.6246 0 0 1 -1.05,2.6246 Z" stroke-linecap="round" fill="#40c057"/></g></g><g transform="matrix(1, 0, 0, 1, 766.105, 2126.872)" opacity="1"><g transform="scale(1)"><path d="M2.0886,-0.8362 T3.1357,1.6319 5.4174,5.1006 6.6521,6.1012 A2.3509,2.3509 0 0 1 6.0079,10.7588 T4.3072,10.2801 1.2079,7.8362 -1.1396,3.3536 -2.0886,0.8362 A2.2498,2.2498 0 0 1 2.0886,-0.8362 Z" stroke-linecap="round" fill="#40c057"/></g></g><g transform="matrix(1, 0, 0, 1, 757.6713, 2099.4624)" opacity="1"><g transform="scale(1)"><path d="M2.6919,-2.397 T4.1967,0.5909 7.0374,6.4397 9.6024,12.0488 11.807,17.8946 13.4927,22.9608 15.1181,27.5032 16.5736,32.6424 16.9796,38.676 15.4837,43.4822 14.1222,44.8201 A3.3104,3.3104 0 0 1 10.3966,39.347 T10.3777,37.9367 9.9803,34.386 8.7736,29.6689 7.2412,24.9686 5.7711,20.0717 3.8812,14.5783 1.5219,9.0732 -1.2026,3.2926 -2.6919,0.297 A3.0101,3.0101 0 0 1 2.6919,-2.397 ZM9.2074,43.3656 T8.5953,41.5703 7.9013,36.8023 8.5756,31.4187 11.5496,27.2985 16.2942,24.854 22.2743,24.5328 29.0896,26.6096 34.9915,30.8499 38.2498,35.5976 38.7391,39.8576 37.3762,43.7857 34.4685,47.0899 30.9675,49.5409 27.2219,51.2952 22.5473,52.6435 17.1451,53.8245 14.3994,54.4261 A2.8532,2.8532 0 0 1 13.0006,48.8939 T15.7024,48.1182 20.6371,46.6857 25.7572,44.6853 30.7085,41.2694 32.017,37.1222 29.1444,33.415 24.4494,30.859 19.8252,29.9023 15.6523,31.7541 13.7889,36.0593 14.6817,39.6405 15.3114,40.8014 A3.3104,3.3104 0 0 1 9.2074,43.3656 Z" stroke-linecap="round" fill="#40c057"/></g></g><g transform="matrix(1, 0, 0, 1, 628.0028, 2218.5888)" opacity="1"><g transform="scale(1)"><path d="M3.5067,-1.0026 T4.0038,0.743 5.477,4.9464 7.8254,9.8856 10.6067,13.8525 13.7581,13.6816 16.259,9.8599 17.3564,5.5744 17.5935,2.2751 17.4915,1.096 A3.0382,3.0382 0 0 1 23.5342,0.4565 T23.7457,2.2385 23.6362,6.9952 22.64,12.4272 20.3312,17.9423 15.6196,22.2332 9.7592,22.188 4.8082,18.3801 1.1542,13.0451 -1.418,7.3662 -3.0057,2.7477 -3.5067,1.0026 A3.6472,3.6472 0 0 1 3.5067,-1.0026 ZM23.5042,1.3081 T23.3227,2.1405 24.2694,5.9997 26.9335,10.8437 29.7928,13.6084 31.1162,14.5559 A2.8112,2.8112 0 0 1 27.9238,19.1841 T26.568,18.2835 23.5894,16.1301 20.2552,11.4547 17.8654,5.2672 17.3542,1.3733 17.5216,0.2443 A3.0382,3.0382 0 0 1 23.5042,1.3081 Z" stroke-linecap="round" fill="#40c057"/></g></g><g transform="matrix(1, 0, 0, 1, 651.1955, 2197.5045)" opacity="1"><g transform="scale(1)"><path d="M2.9238,-1.2499 T4.4971,0.9437 7.1795,4.84 8.9298,8.7369 10.1435,13.0386 10.7162,15.146 A2.3807,2.3807 0 0 1 6.1438,16.474 T5.4984,14.3878 3.4354,9.0709 0.597,3.545 -0.8238,1.2499 A2.2524,2.2524 0 0 1 2.9238,-1.2499 Z" stroke-linecap="round" fill="#40c057"/></g></g><g transform="matrix(1, 0, 0, 1, 675.4425, 2217.5346)" opacity="1"><g transform="scale(1)"><path d="M0,-2.5117 T1.497,-2.5683 5.576,-2.6417 9.879,-2.6435 11.6,-2.6287 A2.6287,2.6287 0 0 1 11.6,2.6287 T9.879,2.6435 5.576,2.6417 1.497,2.5683 0,2.5117 A2.5117,2.5117 0 0 1 0,-2.5117 Z" stroke-linecap="round" fill="#40c057"/></g></g><g transform="matrix(1, 0, 0, 1, 678.6051, 2225.9683)" opacity="1"><g transform="scale(1)"><path d="M0.7098,-2.4826 T2.4512,-2.016 6.2623,-1.6283 11.3323,-2.1826 14.3326,-2.6579 A2.6921,2.6921 0 0 1 15.1874,2.6579 T11.7482,3.2181 5.5489,3.6619 1.0396,3.014 -0.7098,2.4826 A2.582,2.582 0 0 1 0.7098,-2.4826 Z" stroke-linecap="round" fill="#40c057"/></g></g><g transform="matrix(1, 0, 0, 1, 717.6111, 2208.0466)" opacity="1"><g transform="scale(1)"><path d="M0,2.2308 T-1.2464,2.2448 -2.4927,2.2588 A3.3088,3.3088 0 0 1 -2.4927,-4.3588 T-1.2464,-4.3448 0,-4.3308 A3.2808,3.2808 0 0 1 0,2.2308 ZM0.1821,0.8976 T-0.7098,2.1418 -1.5333,6.103 -0.0739,10.7442 2.8054,10.9476 4.9454,7.0036 5.3782,3.1277 5.1595,1.4751 A2.9234,2.9234 0 0 1 10.5035,-0.8969 T11.0246,2.7303 10.7594,9.3416 8.414,14.4434 4.0902,17.8234 -1.6308,17.9805 -5.8711,14.7409 -7.8881,9.5393 -7.8175,2.9857 -6.0906,-1.7491 -5.1675,-2.9976 A3.3088,3.3088 0 0 1 0.1821,0.8976 ZM10.7354,0.6262 T10.5505,1.9312 11.628,5.5869 15.1404,9.9036 20.1934,13.3489 24.734,15.6575 26.4715,16.4869 A2.7546,2.7546 0 0 1 24.1285,21.4731 T20.6936,19.8787 15.5224,17.2424 12.1735,14.8408 8.3402,10.685 5.3824,5.4252 4.7865,1.4568 4.9277,-0.0479 A2.9234,2.9234 0 0 1 10.7354,0.6262 Z" stroke-linecap="round" fill="#40c057"/></g></g><g transform="matrix(1, 0, 0, 1, 1179.8393, 2021.4495)" opacity="1"><g transform="scale(1)"><path d="M-2.5335,2.0287 T-3.536,0.786 -6.6546,0.6136 -8.4391,4.7033 -6.496,9.2388 -2.9412,9.8166 -0.1124,6.8834 0.9615,2.9741 1.15,1.0594 A3.2683,3.2683 0 0 1 7.6521,1.7303 T7.3691,4.3854 6.277,9.2073 3.4417,13.5741 -1.8219,16.5992 -7.8078,16.2507 -12.5158,12.2112 -15.0321,6.1891 -14.9485,0.0646 -12.2563,-5.3561 -7.4482,-8.0654 -2.0727,-6.4255 1.54,-3.2787 2.5335,-2.0287 A3.2457,3.2457 0 0 1 -2.5335,2.0287 ZM3.1955,-1.643 T3.402,-1.7221 3.6085,-1.8012 A3.263,3.263 0 0 1 6.0157,4.2647 T5.8112,4.3487 5.6066,4.4327 A3.2683,3.2683 0 0 1 3.1955,-1.643 ZM7.8664,0.0836 T8.2231,1.0356 9.6891,3.9434 12.2782,7.888 16.3902,12.0173 20.4703,15.2704 21.9183,16.3832 A3.2108,3.2108 0 0 1 18.1417,21.5768 T15.1714,19.5315 10.5131,16.0046 6.8775,11.7478 3.7052,6.6344 2.119,3.338 1.7577,2.3798 A3.263,3.263 0 0 1 7.8664,0.0836 Z" stroke-linecap="round" fill="#40c057"/></g></g><g transform="matrix(1, 0, 0, 1, 1224.1164, 2027.7748)" opacity="1"><g transform="scale(1)"><path d="M 0 0 m -3.663919189857866, 0 a 3.663919189857866,3.663919189857866 0 1,1 7.327838379715732,0 a 3.663919189857866,3.663919189857866 0 1,1 -7.327838379715732,0" stroke-linecap="round" fill="#ffc034"/></g></g><g transform="matrix(1, 0, 0, 1, 1297.9115, 1967.6846)" opacity="1"><g transform="scale(1)"><path d="M3.1412,-0.7816 T3.3847,0.22 4.1437,5.3514 4.8685,12.4809 5.441,18.6773 6.2573,25.3074 6.949,32.159 7.5484,38.4817 8.0624,44.3082 8.3908,49.8898 8.8138,55.6187 9.0613,58.6882 A2.7539,2.7539 0 0 1 3.5987,59.3918 T3.0603,56.3597 1.9919,50.5107 1.2279,44.9632 0.6202,39.141 0.0335,32.8198 -0.583,26.0818 -1.2975,19.2211 -1.7362,13.066 -2.2493,6.5168 -2.8881,1.7761 -3.1412,0.7816 A3.237,3.237 0 0 1 3.1412,-0.7816 Z" stroke-linecap="round" fill="#ffc034"/></g></g><g transform="matrix(1, 0, 0, 1, 1362.2186, 2043.5881)" opacity="1"><g transform="scale(1)"><path d="M-0.5432,3.2563 T-3.5347,2.7555 -8.9341,1.7348 -15.414,0.7866 -22.6463,0.1496 -29.9085,-0.1445 -39.4239,-0.2552 -49.4455,-0.2792 -58.2258,-0.2635 -66.0909,-0.2293 -72.2301,-0.2024 -77.7085,-0.191 -83.0871,-0.2244 -87.6674,-0.3138 -92.077,-0.4909 -96.6766,-0.7324 -99.1007,-0.8485 A3.3715,3.3715 0 0 1 -99.0993,-7.5915 T-96.6751,-7.7066 -92.0748,-7.9462 -87.6632,-8.1207 -83.0802,-8.2051 -77.6948,-8.229 -72.2084,-8.1997 -66.059,-8.1387 -58.1724,-8.04 -49.3594,-7.9018 -39.2448,-7.6932 -29.48,-7.3628 -21.9226,-6.8197 -14.2818,-5.8682 -7.6808,-4.7535 -2.4488,-3.7535 0.5432,-3.2563 A3.3013,3.3013 0 0 1 -0.5432,3.2563 Z" stroke-linecap="round" fill="#ffc034"/></g></g><g transform="matrix(1, 0, 0, 1, 1278.9356, 2083.6483)" opacity="1"><g transform="scale(1)"><path d="M-1.8794,2.819 T-3.3445,1.7849 -6.8788,0.6128 -10.3433,2.1967 -11.5262,6.7944 -9.5549,10.9264 -5.9405,10.775 -3.9607,6.7041 -3.8364,4.0409 A3.0724,3.0724 0 0 1 2.1575,2.6871 T2.5012,4.3834 2.4139,9.0858 0.0626,14.8733 -5.0635,18.3678 -11.4033,17.2745 -16.4759,11.9572 -18.3432,5.8077 -17.0925,0.7449 -14.1545,-3.3619 -9.5068,-5.8871 -3.898,-5.7363 0.3504,-3.7809 1.8794,-2.819 A3.3881,3.3881 0 0 1 -1.8794,2.819 ZM2.2111,2.9979 T2.3599,4.2778 3.6717,8.0612 6.6046,12.807 9.8873,16.4549 11.4,17.8604 A2.8905,2.8905 0 0 1 7.58,22.1996 T5.994,20.8772 1.9071,16.5965 -2.0462,10.2755 -3.6942,5.3215 -3.89,3.7301 A3.0724,3.0724 0 0 1 2.2111,2.9979 Z" stroke-linecap="round" fill="#ffc034"/></g></g><g transform="matrix(1, 0, 0, 1, 1306.3452, 2084.7025)" opacity="1"><g transform="scale(1)"><path d="M2.3388,0.8767 T1.6642,2.8978 0.1195,7.0536 -2.7387,12.4098 -6.0099,17.505 -7.2931,19.3788 A2.6371,2.6371 0 0 1 -11.6869,16.4612 T-10.4578,14.5515 -7.5194,9.8116 -4.8946,5.0186 -3.1589,1.0896 -2.3388,-0.8767 A2.4977,2.4977 0 0 1 2.3388,0.8767 Z" stroke-linecap="round" fill="#ffc034"/></g></g><g transform="matrix(1, 0, 0, 1, 1293.6946, 2082.594)" opacity="1"><g transform="scale(1)"><path d="M1.771,-2.0647 T3.5173,-0.5672 6.8131,2.5592 10.5259,6.3879 13.8496,10.2729 16.4663,14.047 19.5837,18.9275 21.2446,21.7189 A2.7005,2.7005 0 0 1 16.7154,24.6611 T14.812,21.9653 11.5342,17.2004 8.4712,12.8789 4.2502,7.8422 -0.0266,3.5613 -1.771,2.0647 A2.7202,2.7202 0 0 1 1.771,-2.0647 Z" stroke-linecap="round" fill="#ffc034"/></g></g><g transform="matrix(1, 0, 0, 1, 1329.5379, 2082.594)" opacity="1"><g transform="scale(1)"><path d="M2.6519,-1.0618 T3.6922,1.4151 5.611,6.8438 7.1463,11.995 9.0371,17.6528 10.2711,21.1113 A3.0686,3.0686 0 0 1 4.4889,23.1687 T3.205,19.5512 1.2604,13.6758 -0.0703,8.7485 -1.6961,3.5703 -2.6519,1.0618 A2.8565,2.8565 0 0 1 2.6519,-1.0618 Z" stroke-linecap="round" fill="#ffc034"/></g></g><g transform="matrix(1, 0, 0, 1, 1341.1343, 2092.082)" opacity="1"><g transform="scale(1)"><path d="M0,3.8177 T-2.2444,3.8769 -7.5594,3.9801 -13.5049,3.4208 -16.3798,2.8176 A2.8746,2.8746 0 0 1 -15.2402,-2.8176 T-12.9234,-2.3708 -7.5477,-1.8801 -2.2444,-1.7769 0,-1.7177 A2.7677,2.7677 0 0 1 0,3.8177 Z" stroke-linecap="round" fill="#ffc034"/></g></g><g transform="matrix(1, 0, 0, 1, 1356.9475, 2069.9435)" opacity="1"><g transform="scale(1)"><path d="M2.9669,0.3083 T3.4565,2.3094 4.2463,7.3313 4.9304,12.7284 5.5433,17.7682 6.1857,23.8417 6.783,29.3062 6.5913,33.8524 6.2157,36.3441 A3.097,3.097 0 0 1 0.1043,35.3359 T0.2878,31.8401 0.0551,24.6332 -0.5398,18.4852 -1.1086,13.4847 -1.7243,8.3475 -2.4585,3.7827 -2.9669,1.7917 A3.0583,3.0583 0 0 1 2.9669,0.3083 ZM0.0711,35.6155 T0.2762,34.9594 0.2371,30.575 0.5245,24.2812 3.0958,19.2382 8.7734,16.6677 15.8917,18.5738 20.7192,22.1614 23.2365,27.0706 24.0771,32.4655 21.71,37.1298 17.3568,40.455 12.516,41.1437 7.6057,41.0094 5.2206,40.9213 A2.9718,2.9718 0 0 1 5.3194,34.9787 T7.7061,34.9699 13.4868,34.4605 17.5203,31.7004 17.0858,27.2661 13.5172,23.5089 8.8511,22.3367 6.2956,24.9632 6.0693,29.6065 6.238,34.0489 6.2489,36.0645 A3.097,3.097 0 0 1 0.0711,35.6155 Z" stroke-linecap="round" fill="#ffc034"/></g></g><g transform="matrix(1, 0, 0, 1, 470.9247, 1978.2276)" opacity="1"><g transform="scale(1)"><path d="M3.4854,1.4836 T3.2573,3.4821 2.8598,10.786 2.3785,19.4086 1.9093,24.8704 1.3769,29.3031 0.1936,33.9574 -1.6503,38.1762 -3.7031,41.7993 -4.7203,43.57 A3.0056,3.0056 0 0 1 -10.0397,40.77 T-9.1559,38.9291 -7.0661,33.8086 -5.5789,28.5266 -5.1526,24.3069 -4.7452,19.0228 -4.2527,10.28 -3.754,2.6101 -3.4854,0.6164 A3.5123,3.5123 0 0 1 3.4854,1.4836 Z" stroke-linecap="round" fill="#e599f7"/></g></g><g transform="matrix(1, 0, 0, 1, 495.1716, 2041.4806)" opacity="1"><g transform="scale(1)"><path d="M0.3796,3.4305 T-1.8673,3.659 -7.1522,4.0537 -13.5185,4.3578 -20.3432,4.609 -27.6768,4.802 -35.4108,4.6884 -42.4898,4.4072 -48.5879,4.2775 -54.2304,3.9034 -58.9654,3.3434 -63.0016,2.6431 -67.0703,1.6905 -69.1112,1.2105 A3.3727,3.3727 0 0 1 -67.9288,-5.4305 T-64.1757,-4.9906 -58.247,-4.4798 -53.6945,-4.1749 -48.3377,-3.8503 -42.0817,-3.5966 -35.1786,-3.1502 -27.7348,-2.8256 -20.4579,-2.7436 -13.7487,-2.7031 -7.6816,-2.7987 -2.6215,-3.1623 -0.3796,-3.4305 A3.4514,3.4514 0 0 1 0.3796,3.4305 Z" stroke-linecap="round" fill="#e599f7"/></g></g><g transform="matrix(1, 0, 0, 1, 461.4367, 2069.9444)" opacity="1"><g transform="scale(1)"><path d="M-3.3018,1.2568 T-3.9133,-0.4051 -4.5248,-2.067 A3.4935,3.4935 0 0 1 2.0053,-4.5525 T2.6535,-2.9046 3.3018,-1.2568 A3.5329,3.5329 0 0 1 -3.3018,1.2568 ZM-0.0977,-0.0151 T-1.3514,0.3843 -4.2442,2.4831 -6.9965,6.3386 -7.9253,10.9513 -5.8729,15.5285 -1.7923,18.4888 1.936,17.2722 3.6121,12.2993 3.737,7.0821 3.7015,4.7817 A3.3906,3.3906 0 0 1 10.4775,4.5188 T10.6192,9.008 10.4405,16.4025 8.5035,22.1511 4.2219,25.726 -0.9369,26.0782 -6.0315,24.3415 -10.7892,20.6643 -14.1366,15.3067 -14.8644,8.7459 -12.831,2.4303 -8.7235,-2.7766 -4.3042,-5.8976 -2.4218,-6.6043 A3.4935,3.4935 0 0 1 -0.0977,-0.0151 ZM6.0532,1.4219 T6.3713,1.3233 6.6893,1.2247 A3.384,3.384 0 0 1 8.7578,7.6689 T8.4418,7.7737 8.1258,7.8786 A3.3906,3.3906 0 0 1 6.0532,1.4219 ZM10.4573,2.4522 T11.5285,3.9255 14.3493,7.4945 18.1432,11.8369 21.9571,15.4163 24.8828,17.5572 26.039,18.3653 A3.2512,3.2512 0 0 1 22.461,23.7947 T21.2624,23.051 17.603,20.5466 12.9297,16.3072 9.0561,11.7783 6.1925,8.0847 4.9898,6.4413 A3.384,3.384 0 0 1 10.4573,2.4522 Z" stroke-linecap="round" fill="#e599f7"/></g></g><g transform="matrix(1, 0, 0, 1, 1127.1286, 1987.7147)" opacity="1"><g transform="scale(1)"><path d="M2.6593,-0.9674 T3.6603,1.7749 5.4661,7.0116 6.9886,13.7779 7.3538,21.0496 6.5621,26.5118 5.3344,31.2332 3.5389,35.2723 1.1878,39.2698 -1.0267,42.6433 -1.8969,43.7996 A2.8377,2.8377 0 0 1 -6.5431,40.5404 T-5.7521,39.3286 -3.8792,36.0694 -1.3439,30.9235 0.5736,25.5031 1.4565,20.8815 1.3468,14.9076 0.0746,8.8449 -1.6643,3.7119 -2.6593,0.9674 A2.8298,2.8298 0 0 1 2.6593,-0.9674 Z" stroke-linecap="round" fill="#e599f7"/></g></g><g transform="matrix(1, 0, 0, 1, 1150.3213, 2041.4796)" opacity="1"><g transform="scale(1)"><path d="M0,3.1171 T-2.4927,3.14 -7.5454,3.1719 -12.7003,3.1927 -17.7608,3.4454 -22.7723,4.0629 -27.5322,4.6099 -33.5736,5.419 -37.4011,6.0578 A2.9493,2.9493 0 0 1 -38.4989,0.2622 T-36.4233,-0.176 -32.3425,-1.0353 -28.2896,-1.6882 -23.5372,-2.3065 -18.0651,-2.9488 -12.7016,-3.1927 -7.5454,-3.1719 -2.4927,-3.14 0,-3.1171 A3.1171,3.1171 0 0 1 0,3.1171 Z" stroke-linecap="round" fill="#e599f7"/></g></g><g transform="matrix(1, 0, 0, 1, 1129.237, 2060.4555)" opacity="1"><g transform="scale(1)"><path d="M2.2631,2.7182 T0.7799,3.9386 -1.7301,7.8281 -2.6999,13.7635 -2.4056,19.3041 -1.2969,23.7431 0.2696,25.9912 0.9648,26.0746 A3.6769,3.6769 0 0 1 -0.794,33.215 T-3.84,31.2954 -8.1408,25.8192 -9.6178,19.6098 -9.7034,12.7679 -8.8191,6.2708 -6.6781,1.8947 -3.7739,-1.4459 -2.2631,-2.7182 A3.537,3.537 0 0 1 2.2631,2.7182 ZM-2.916,27.5208 T-2.1795,26.5198 -0.7623,23.6474 0.3328,18.8161 0.7339,13.9699 0.7209,12.0836 A3.0197,3.0197 0 0 1 6.5608,10.544 T6.8468,13.4007 6.8185,20.1579 5.5133,26.8595 3.8046,30.7147 3.0868,31.7687 A3.6769,3.6769 0 0 1 -2.916,27.5208 ZM6.0421,9.4829 T6.584,10.2206 8.5892,12.7746 12.0877,17.4093 16.5564,22.2834 20.5895,25.6186 22.1889,26.8981 A3.3964,3.3964 0 0 1 17.8711,32.1419 T16.3084,30.8177 13.2319,28.1973 10.2782,25.3755 6.9866,21.0235 3.5603,16.1332 1.6126,13.607 1.2395,13.1447 A3.0197,3.0197 0 0 1 6.0421,9.4829 Z" stroke-linecap="round" fill="#e599f7"/></g></g><g transform="matrix(1, 0, 0, 1, 1153.484, 2035.1543)" opacity="1"><g transform="scale(1)"><path d="M 0 0 m -3.663919189857866, 0 a 3.663919189857866,3.663919189857866 0 1,1 7.327838379715732,0 a 3.663919189857866,3.663919189857866 0 1,1 -7.327838379715732,0" stroke-linecap="round" fill="#e599f7"/></g></g><g transform="matrix(1, 0, 0, 1, 1196.7068, 2010.9074)" opacity="1"><g transform="scale(1)"><path d="M1.8968,1.4751 T0.1869,3.747 -2.8986,7.939 -7.2962,13.6581 -12.6697,20.2188 -17.0638,25.1517 -21.3417,29.7239 -23.5769,32.1248 A2.3209,2.3209 0 0 1 -27.0231,29.0152 T-24.8636,26.5459 -20.8025,21.8766 -16.6038,16.98 -11.3448,10.5611 -6.9205,4.8988 -3.6776,0.7418 -1.8968,-1.4751 A2.4028,2.4028 0 0 1 1.8968,1.4751 Z" stroke-linecap="round" fill="#e599f7"/></g></g><g transform="matrix(1, 0, 0, 1, 1142.9418, 2068.8892)" opacity="1"><g transform="scale(1)"><path d="M1.3908,1.5971 T-6.2827,8.3914 -19.4999,20.0201 -31.227,30.2217 -37.4103,35.5889 A2.4525,2.4525 0 0 1 -40.6097,31.8711 T-34.3809,26.5568 -22.5556,16.49 -9.175,5.0702 -1.3908,-1.5971 A2.1178,2.1178 0 0 1 1.3908,1.5971 Z" stroke-linecap="round" fill="#e599f7"/></g></g><g transform="matrix(1, 0, 0, 1, 761.8881, 2008.7999)" opacity="1"><g transform="scale(1)"><path d="M3.1435,1.05 T3.2027,3.2944 3.2919,7.7168 3.619,13.5633 3.9827,19.593 4.0494,21.9544 A3.0052,3.0052 0 0 1 -1.9494,22.3256 T-2.1743,19.974 -2.8606,13.7642 -3.2919,7.7224 -3.2027,3.2944 -3.1435,1.05 A3.1435,3.1435 0 0 1 3.1435,1.05 Z" stroke-linecap="round" fill="#f2f2f2"/></g></g><g transform="matrix(1, 0, 0, 1, 774.5387, 2018.2878)" opacity="1"><g transform="scale(1)"><path d="M-0.5873,2.9336 T-3.0964,2.5172 -9.1773,1.8219 -14.7769,1.7382 -19.1605,2.173 -24.2526,2.7126 -26.9888,3.0126 A3.0419,3.0419 0 0 1 -27.8312,-3.0126 T-25.1177,-3.4746 -19.8686,-4.3809 -14.8093,-4.9853 -8.3255,-4.6211 -1.889,-3.5152 0.5873,-2.9336 A2.9918,2.9918 0 0 1 -0.5873,2.9336 Z" stroke-linecap="round" fill="#f2f2f2"/></g></g><g transform="matrix(1, 0, 0, 1, 814.5989, 1995.0951)" opacity="1"><g transform="scale(1)"><path d="M-2.1977,3.6651 T-3.2064,2.9569 -6.5621,4.8093 -10.2555,8.8279 -12.3314,12.4714 -13.179,16.9753 -12.6618,21.3002 -10.8627,25.0614 -8.5285,28.7066 -3.3805,33.4728 3.2133,37.3952 8.2581,38.9794 13.5756,39.0274 19.0282,37.0441 21.5919,35.5502 A5.2349,5.2349 0 0 1 26.9081,44.5698 T25.2986,45.5703 21.6682,47.7272 16.4572,49.7335 10.7241,50.415 4.8869,49.4302 -1.9202,47.0919 -8.8256,43.2767 -14.5358,38.5729 -18.0309,33.9506 -20.6056,28.5461 -22.449,21.7591 -22.2197,14.586 -19.826,7.6745 -16.703,2.9044 -13.1603,-0.6692 -8.4213,-4.125 -3.2952,-5.3413 0.7137,-4.4516 2.1977,-3.6651 A4.2735,4.2735 0 0 1 -2.1977,3.6651 Z" stroke-linecap="round" fill="#f2f2f2"/></g></g><g transform="matrix(1, 0, 0, 1, 19.7205, 2230.1851)" opacity="1"><g transform="scale(1)"><path d="M-0.5297,2.1164 T-2.5388,1.6798 -7.4673,0.616 -13.2581,-0.4576 -16.1293,-0.904 A2.2785,2.2785 0 0 1 -15.4907,-5.416 T-12.2701,-5.0002 -6.2382,-3.9119 -1.4486,-2.6779 0.5297,-2.1164 A2.1817,2.1817 0 0 1 -0.5297,2.1164 Z" stroke-linecap="round" fill="#4dabf7"/></g></g><g transform="matrix(1, 0, 0, 1, 18.6662, 2245.9984)" opacity="1"><g transform="scale(1)"><path d="M-0.2663,2.1377 T-2.2646,1.9271 -7.9095,1.2667 -13.8523,0.4463 -16.1487,0.0758 A2.2119,2.2119 0 0 1 -15.4713,-4.2958 T-13.1705,-3.954 -7.2908,-3.161 -1.7228,-2.4238 0.2663,-2.1377 A2.1542,2.1542 0 0 1 -0.2663,2.1377 Z" stroke-linecap="round" fill="#4dabf7"/></g></g><g transform="matrix(1, 0, 0, 1, 63.9975, 2203.8298)" opacity="1"><g transform="scale(1)"><path d="M-2.6214,0.4623 T-3.3587,-3.7757 -4.9535,-10.5639 -6.5305,-14.9959 -8.4551,-18.6174 -10.9932,-17.4459 -12.5897,-12.3506 -12.9428,-7.2728 -13.0644,-1.0403 -12.5095,6.0261 -11.4888,11.7837 -10.5805,15.8804 -9.6112,20.0344 -8.382,24.3761 -6.9905,28.9086 -5.7326,33.6691 -4.5746,38.4249 -3.476,42.8941 -2.6279,47.3849 -1.9318,52.0189 -1.0906,56.5691 -0.3815,61.3425 0.2568,66.3705 0.863,71.7617 1.4603,77.3482 2.0542,83.0309 2.4076,88.6321 2.3749,93.9595 1.8781,99.177 1.1288,103.9574 -0.0609,108.4468 -2.0426,112.8585 -4.766,116.9106 -7.9848,120.0323 -13.5679,122.8282 -19.7652,124.3257 -24.4592,123.7614 -28.9938,122.0112 -32.8899,119.7427 -36.212,117.1413 -39.3143,114.1416 -40.831,112.6562 A2.68,2.68 0 0 1 -37.189,108.7238 T-34.3825,111.1964 -28.4385,115.5035 -22.0643,117.8415 -16.0834,117.3498 -10.953,114.2158 -6.83,108.6019 -4.6399,102.9566 -3.8106,98.532 -3.2055,93.8488 -3.0414,88.9069 -3.2569,83.5393 -3.7424,77.8684 -4.2509,72.3224 -4.8006,67.0006 -5.4043,62.1029 -6.1007,57.5018 -6.9837,52.7814 -7.6659,48.3417 -8.4817,44.1321 -9.5979,39.6586 -10.7487,35.0114 -11.9783,30.4471 -13.4218,25.8029 -14.736,21.249 -15.7478,17.0412 -16.7048,12.8371 -17.5673,8.6299 -18.2233,2.5789 -18.4358,-4.473 -18.2072,-10.5792 -17.3787,-16.1124 -15.5428,-20.906 -12.5108,-24.4609 -8.1455,-24.8988 -3.9078,-21.4015 -1.4727,-16.7644 0.1784,-11.8534 1.864,-4.7004 2.6214,-0.4623 A2.6619,2.6619 0 0 1 -2.6214,0.4623 Z" stroke-linecap="round" fill="#4dabf7"/></g></g><g transform="matrix(1, 0, 0, 1, 101.9493, 2191.1792)" opacity="1"><g transform="scale(1)"><path d="M2.714,0.208 T2.4961,3.4504 2.1582,9.3596 1.9414,14.6663 1.7793,19.6974 1.6599,24.0972 1.2737,28.3089 0.5945,32.8002 0.2475,35.0884 A2.3764,2.3764 0 0 1 -4.4675,34.4916 T-4.044,30.2718 -3.6362,24.0298 -3.6446,19.5862 -3.5961,14.4603 -3.4132,9.0117 -2.9927,3.0297 -2.714,-0.208 A2.722,2.722 0 0 1 2.714,0.208 Z" stroke-linecap="round" fill="#4dabf7"/></g></g><g transform="matrix(1, 0, 0, 1, 115.6541, 2250.2152)" opacity="1"><g transform="scale(1)"><path d="M-0.3264,1.8721 T-2.573,1.6426 -6.9242,1.3081 -11.1305,1.1518 -16.7035,1.4237 -23.301,2.3441 -28.9022,4.2283 -31.3771,5.5153 A2.6917,2.6917 0 0 1 -33.9829,0.8047 T-32.569,-0.0409 -27.9155,-2.2633 -20.9586,-4.1071 -15.1424,-4.792 -10.853,-4.9222 -6.4102,-4.6751 -1.9157,-4.244 0.3264,-3.9721 A2.9402,2.9402 0 0 1 -0.3264,1.8721 Z" stroke-linecap="round" fill="#4dabf7"/></g></g><g transform="matrix(1, 0, 0, 1, 100.8951, 2281.8417)" opacity="1"><g transform="scale(1)"><path d="M-2.5288,-1.0828 T-1.78,-2.8114 -0.9788,-5.3524 -0.9265,-6.1649 A2.7332,2.7332 0 0 1 4.4979,-5.4891 T4.2593,-3.9653 3.2747,-0.6793 2.5288,1.0828 A2.7509,2.7509 0 0 1 -2.5288,-1.0828 ZM-0.0625,-3.8135 T-0.5949,-4.3636 -2.344,-1.8444 -3.916,3.8114 -4.1611,8.7831 -1.795,10.0228 1.3002,6.9151 2.138,3.503 2.1364,2.0531 A2.4444,2.4444 0 0 1 7.0251,2.059 T7.0192,4.1678 6.049,8.8048 3.3683,13.901 -1.6082,17.4362 -6.7673,16.4571 -9.3127,11.5264 -9.6933,5.5314 -8.4175,-0.6575 -5.5917,-6.247 -0.8797,-8.9303 2.825,-8.5216 3.634,-7.8405 A2.7332,2.7332 0 0 1 -0.0625,-3.8135 ZM4.9423,4.4735 T4.8567,4.4842 4.7711,4.4949 A2.4402,2.4402 0 0 1 4.0491,-0.3317 T4.1341,-0.3466 4.2191,-0.3614 A2.4444,2.4444 0 0 1 4.9423,4.4735 ZM6.7661,1.4462 T6.9583,2.2032 7.8935,5.0788 10.1951,9.7704 14.2842,15.3623 16.8147,18.3811 A2.6345,2.6345 0 0 1 12.7053,21.6789 T11.3817,19.9728 8.7838,16.6013 5.843,11.953 3.3297,6.5947 2.2686,3.4681 2.0541,2.717 A2.4402,2.4402 0 0 1 6.7661,1.4462 Z" stroke-linecap="round" fill="#4dabf7"/></g></g><g transform="matrix(1, 0, 0, 1, 144.1179, 2242.8357)" opacity="1"><g transform="scale(1)"><path d="M1.1426,-0.7286 T1.3985,0.0163 1.6545,0.7611 A2.3265,2.3265 0 0 1 -2.7612,2.2283 T-3.0019,1.4784 -3.2426,0.7286 A2.3105,2.3105 0 0 1 1.1426,-0.7286 ZM-1.1924,3.7317 T-1.9677,3.4988 -2.743,3.266 A2.3046,2.3046 0 0 1 -1.477,-1.166 T-0.6956,-0.9542 0.0857,-0.7423 A2.3265,2.3265 0 0 1 -1.1924,3.7317 Z" stroke-linecap="round" fill="#4dabf7"/></g></g><g transform="matrix(1, 0, 0, 1, 244.2684, 2177.4744)" opacity="1"><g transform="scale(1)"><path d="M2.7489,0.1956 T2.5143,3.6872 2.1673,10.7165 2.0043,17.6158 1.9301,24.2448 1.9088,30.7282 1.9036,36.6391 1.6239,41.6663 1.126,47.2863 0.2208,53.5219 -0.4589,56.4701 A2.767,2.767 0 0 1 -5.8611,55.2699 T-5.3323,52.7789 -4.6171,46.8023 -4.191,41.3121 -3.9384,36.6087 -3.8851,30.679 -3.7954,24.1548 -3.659,17.455 -3.4224,10.4164 -3.011,3.2942 -2.7489,-0.1956 A2.7559,2.7559 0 0 1 2.7489,0.1956 Z" stroke-linecap="round" fill="#4dabf7"/></g></g><g transform="matrix(1, 0, 0, 1, 292.7623, 2255.4863)" opacity="1"><g transform="scale(1)"><path d="M0,2.4426 T-3.7391,2.4692 -12.9984,2.2959 -23.4382,1.7538 -32.6315,1.2494 -41.4662,0.7566 -50.1075,0.273 -58.0785,0.0392 -65.7633,-0.0874 -72.952,0.0775 -79.4772,0.3951 -85.385,0.7938 -90.6055,1.4506 -95.3281,2.2372 -99.8165,3.0748 -104.5148,3.977 -107.0043,4.463 A2.411,2.411 0 0 1 -108.0557,-0.243 T-105.5961,-0.8627 -100.9034,-2.0586 -96.3087,-3.1451 -91.362,-4.1158 -85.801,-4.9087 -79.768,-5.3671 -73.0952,-5.7244 -65.6515,-5.8978 -57.8761,-5.7239 -49.7585,-5.3874 -41.1187,-4.789 -32.2942,-4.1711 -23.1112,-3.5102 -12.8803,-2.7925 -3.739,-2.4692 0,-2.4426 A2.4426,2.4426 0 0 1 0,2.4426 Z" stroke-linecap="round" fill="#4dabf7"/></g></g><g transform="matrix(1, 0, 0, 1, 201.0455, 2291.3296)" opacity="1"><g transform="scale(1)"><path d="M2.6016,1.1139 T1.8592,2.862 0.1759,6.4011 -2.1549,9.8458 -5.6752,14.402 -9.7985,19.6525 -13.4973,23.2024 -16.8105,25.4874 -18.4179,26.5705 A2.8255,2.8255 0 0 1 -21.6421,21.9295 T-18.9151,20.0183 -14.3895,15.9804 -10.2393,10.7574 -5.9969,5.0163 -3.3539,0.6288 -2.6016,-1.1139 A2.83,2.83 0 0 1 2.6016,1.1139 Z" stroke-linecap="round" fill="#4dabf7"/></g></g><g transform="matrix(1, 0, 0, 1, 182.0696, 2294.4923)" opacity="1"><g transform="scale(1)"><path d="M0.919,-2.757 T2.4225,-2.2112 6.4553,0.275 10.7155,4.4714 14.2326,8.9795 17.5202,13.0904 21.9951,17.464 24.9685,19.9785 A2.7991,2.7991 0 0 1 21.4115,24.3015 T19.7594,22.9782 16.5301,20.3891 13.1661,16.879 9.569,12.2411 6.547,8.1392 3.6988,5.0463 0.5716,3.2093 -0.919,2.757 A2.9062,2.9062 0 0 1 0.919,-2.757 Z" stroke-linecap="round" fill="#4dabf7"/></g></g><g transform="matrix(1, 0, 0, 1, 234.7804, 2290.2754)" opacity="1"><g transform="scale(1)"><path d="M2.1944,-0.5492 T2.7149,1.4469 3.3125,6.824 3.4064,13.1056 3.9015,18.3045 4.3797,20.6028 A2.3193,2.3193 0 0 1 -0.1597,21.5572 T-0.7455,18.7952 -1.3248,13.1289 -1.2789,7.3782 -1.7169,2.5405 -2.1944,0.5492 A2.2621,2.2621 0 0 1 2.1944,-0.5492 Z" stroke-linecap="round" fill="#4dabf7"/></g></g><g transform="matrix(1, 0, 0, 1, 245.3226, 2301.8718)" opacity="1"><g transform="scale(1)"><path d="M0.7837,2.138 T-1.2127,1.9118 -6.3687,1.5038 -13.6122,1.7218 -17.6961,2.1217 A2.1335,2.1335 0 0 1 -18.1439,-2.1217 T-15.9081,-2.3787 -11.4985,-2.8751 -5.9952,-2.8967 -0.6747,-2.4085 1.3163,-2.138 A2.1545,2.1545 0 0 1 0.7837,2.138 Z" stroke-linecap="round" fill="#4dabf7"/></g></g><g transform="matrix(1, 0, 0, 1, 276.949, 2276.5706)" opacity="1"><g transform="scale(1)"><path d="M2.1227,-0.302 T2.4048,1.4386 2.9422,5.9369 2.6372,11.6493 1.5228,15.6946 0.9687,16.7852 A2.2419,2.2419 0 0 1 -3.0687,14.8348 T-2.2367,11.892 -1.5492,6.3757 -1.9082,2.0521 -2.1227,0.302 A2.1441,2.1441 0 0 1 2.1227,-0.302 Z" stroke-linecap="round" fill="#4dabf7"/></g></g><g transform="matrix(1, 0, 0, 1, 280.1117, 2280.7875)" opacity="1"><g transform="scale(1)"><path d="M0,-2.3764 T1.7508,-2.3818 6.0394,-1.6476 10.2461,0.6408 13.0648,4.1593 14.2063,7.303 14.1979,8.4769 A2.4262,2.4262 0 0 1 9.3956,7.7823 T9.5638,7.7352 8.5019,6.0286 5.3758,3.3783 1.7399,2.3818 0,2.3764 A2.3764,2.3764 0 0 1 0,-2.3764 ZM13.0292,10.2194 T12.4857,10.5422 9.5469,11.9556 5.0955,13.5979 0.5193,14.6469 -3.3177,15.5022 -4.6346,15.86 A2.2515,2.2515 0 0 1 -5.9054,11.54 T-4.6046,11.1278 -0.9103,10.1527 3.414,9.0546 7.407,7.6003 10.0167,6.3605 10.5643,6.0398 A2.4262,2.4262 0 0 1 13.0292,10.2194 Z" stroke-linecap="round" fill="#4dabf7"/></g></g><g transform="matrix(1, 0, 0, 1, 295.9249, 2306.0887)" opacity="1"><g transform="scale(1)"><path d="M-0.1498,2.1059 T-3.6437,1.899 -9.8108,1.3309 -14.778,0.7927 -20.7975,0.4521 -28.482,0.6694 -32.4411,1.0504 A2.1139,2.1139 0 0 1 -32.9189,-3.1504 T-30.7562,-3.4355 -24.6665,-3.9455 -18.7118,-4.055 -14.2555,-3.7144 -9.3261,-3.0873 -3.3377,-2.3956 0.1498,-2.1059 A2.1112,2.1112 0 0 1 -0.1498,2.1059 Z" stroke-linecap="round" fill="#4dabf7"/></g></g><g transform="matrix(1, 0, 0, 1, 282.2201, 2316.6308)" opacity="1"><g transform="scale(1)"><path d="M0.7931,1.5374 T-0.4604,3.03 -2.9025,6.6373 -2.8978,10.5888 -0.2857,10.6699 0.8482,7.3096 0.5629,5.7051 A2.3264,2.3264 0 0 1 4.9333,4.1087 T5.3652,7.0473 4.3462,12.8811 0.026,16.4093 -4.8287,15.3709 -7.6771,10.3921 -6.9605,4.2751 -4.137,-0.0359 -2.8931,-1.5374 A2.4001,2.4001 0 0 1 0.7931,1.5374 ZM1.8757,7.0635 T1.4767,6.8948 1.0776,6.726 A2.3128,2.3128 0 0 1 2.8122,2.438 T3.2164,2.5942 3.6205,2.7503 A2.3264,2.3264 0 0 1 1.8757,7.0635 ZM4.2529,4.7303 T4.1566,5.5616 4.7671,8.3115 6.8061,11.7444 10.0496,14.6085 11.9609,15.9583 A2.4222,2.4222 0 0 1 9.1191,19.8817 T6.9677,18.2889 2.9548,14.2394 0.3164,9.5328 -0.4118,5.8582 -0.3631,4.4337 A2.3128,2.3128 0 0 1 4.2529,4.7303 Z" stroke-linecap="round" fill="#4dabf7"/></g></g><g transform="matrix(1, 0, 0, 1, 348.6357, 2254.4321)" opacity="1"><g transform="scale(1)"><path d="M-1.3889,2.7745 T-3.3716,1.7645 -8.1704,0.3539 -13.0727,1.153 -16.5153,4.4402 -18.2515,9.4444 -17.7382,14.393 -14.3262,16.469 -8.3497,13.8693 -2.8945,8.7584 0.6584,3.5904 3.2947,-1.92 5.2382,-7.6937 6.5643,-13.3841 7.2978,-19.0238 7.723,-24.4846 7.9613,-29.1187 7.5452,-33.4984 6.7767,-36.0514 6.5067,-36.3114 A2.3273,2.3273 0 0 1 10.214,-39.1259 T10.8239,-38.2269 12.0911,-34.1997 12.7016,-28.9385 12.5654,-24.1819 12.2801,-18.4473 11.6654,-12.3035 10.4334,-6.0366 8.4651,0.4676 5.5723,6.9011 1.4699,13.0434 -3.3097,18.0361 -8.1352,21.4133 -14.7421,22.4873 -20.5543,20.9474 -23.0789,17.915 -24.2198,12.1496 -24,6.0854 -22.6225,2.1722 -20.2598,-1.1314 -17.0058,-3.824 -13.0817,-5.6006 -8.8669,-6.0717 -4.69,-5.3673 -0.6158,-3.7605 1.3889,-2.7745 A3.1028,3.1028 0 0 1 -1.3889,2.7745 ZM10.6373,-37.2371 T10.3168,-35.6875 9.9709,-30.475 10.2256,-24.5973 10.7038,-19.5759 11.2904,-13.9242 12.1661,-7.8207 13.1614,-1.6338 13.9342,4.177 15.7601,10.2621 17.3212,13.4652 A2.8699,2.8699 0 0 1 12.1988,16.0548 T11.1529,14.1553 9.0033,10.0187 7.6701,5.0274 7.0108,-0.7629 6.2397,-7.1295 5.6577,-13.4929 5.3721,-19.2015 5.1465,-24.3828 5.137,-30.7458 5.6958,-36.4016 6.0834,-38.2002 A2.3273,2.3273 0 0 1 10.6373,-37.2371 Z" stroke-linecap="round" fill="#4dabf7"/></g></g><g transform="matrix(1, 0, 0, 1, 392.9127, 2245.9984)" opacity="1"><g transform="scale(1)"><path d="M1.8046,1.3115 T-0.1488,4.0841 -3.8949,9.3154 -7.4807,13.6686 -11.0247,17.0397 -14.6338,20.0868 -16.4921,21.6573 A2.1649,2.1649 0 0 1 -19.3479,18.4027 T-17.5491,16.7643 -14.2186,13.7223 -11.0879,10.642 -7.6807,6.541 -3.8386,1.4027 -1.8046,-1.3115 A2.2308,2.2308 0 0 1 1.8046,1.3115 Z" stroke-linecap="round" fill="#4dabf7"/></g></g><g transform="matrix(1, 0, 0, 1, 378.1537, 2247.0526)" opacity="1"><g transform="scale(1)"><path d="M1.9258,-1.9258 T3.6768,-0.181 6.7616,3.3997 9.2394,6.8586 12.5048,11.3339 17.3192,17.2207 20.0123,20.2552 A2.8161,2.8161 0 0 1 15.8277,24.0248 T14.3542,22.4125 11.4995,19.2884 7.9237,14.7244 3.6413,8.545 -0.1861,3.6718 -1.9258,1.9258 A2.7236,2.7236 0 0 1 1.9258,-1.9258 Z" stroke-linecap="round" fill="#4dabf7"/></g></g></svg>