<svg xmlns="http://www.w3.org/2000/svg" direction="ltr" width="973.6916254449643" height="683.5507586489306" viewBox="30 107 973.6916254449643 683.5507586489306" stroke-linecap="round" stroke-linejoin="round" data-color-mode="dark" class="tl-container tl-theme__force-sRGB tl-theme__dark" style="background-color: transparent;"><defs/><g transform="matrix(1, 0, 0, 1, 95, 187)" opacity="1"><g transform="scale(1)"><path d="M-2.3287,-0.9315 T-1.842,-2.1079 -0.9805,-5.6596 -0.2799,-10.2217 0.2059,-14.7557 0.4138,-19.9366 0.1161,-25.2559 -0.3276,-30.0941 -0.8754,-34.8064 -2.2976,-35.2803 -3.7986,-30.9308 -4.3902,-26.1548 -4.4556,-21.0072 -4.4484,-15.6231 -4.4231,-10.1397 -4.3982,-4.8595 -4.0246,-0.3003 -3.5457,4.4556 -3.0398,9.3909 -2.5237,14.4973 -2.3562,20.0105 -1.9401,25.382 -1.4479,30.852 -1.2882,36.7164 -1.2292,42.6741 -1.2021,48.6621 -1.1835,54.6588 -1.4192,60.879 -1.8318,66.943 -2.682,73.0751 -4.6081,79.3092 -7.311,85.0525 -10.7979,90.4234 -15.4563,94.1563 -21.4794,94.5801 -26.3972,92.2805 -29.2226,89.0659 -31.7425,85.1671 -34.1859,80.641 -35.4094,78.3621 A2.7677,2.7677 0 0 1 -30.5906,75.6379 T-29.2689,77.8613 -25.6428,83.4072 -21.4331,88.1176 -17.5011,88.4264 -13.8996,85.0051 -11.0391,79.9508 -8.986,74.6928 -7.891,69.2843 -7.1994,63.5373 -6.8256,57.6564 -6.8108,51.6634 -6.8012,45.6787 -6.8009,39.7339 -6.8464,33.9366 -7.0565,28.646 -7.482,23.1141 -7.7848,17.516 -7.9967,12.4857 -8.4718,7.2886 -8.9346,2.4005 -9.3471,-2.274 -9.5883,-7.9455 -9.5564,-13.9123 -9.5282,-19.3681 -9.468,-24.5674 -9.0471,-29.7414 -8.1033,-34.3729 -6.7007,-38.1612 -4.4891,-41.7788 -1.0364,-43.5988 2.2255,-41.8925 3.6837,-37.5397 4.298,-32.6966 4.805,-28.0769 5.1862,-22.7185 5.2796,-16.8737 4.7644,-11.8512 4.2571,-7.6527 3.6941,-3.5187 2.788,-0.2571 2.3287,0.9315 A2.5081,2.5081 0 0 1 -2.3287,-0.9315 Z" stroke-linecap="round" fill="#4dabf7"/></g></g><g transform="matrix(1, 0, 0, 1, 179, 146)" opacity="1"><g transform="scale(1)"><path d="M2.7115,0.8192 T2.3814,1.8436 1.9718,5.3778 1.8799,11.5275 1.8736,18.7056 1.8057,25.6296 1.6584,31.0083 1.5849,33.0011 A2.5849,2.5849 0 0 1 -3.5849,32.9989 T-3.6567,31.0061 -3.7981,25.624 -3.8462,18.6852 -3.7814,11.4595 -3.6169,4.8483 -3.1037,0.5469 -2.7115,-0.8192 A2.8325,2.8325 0 0 1 2.7115,0.8192 Z" stroke-linecap="round" fill="#4dabf7"/></g></g><g transform="matrix(1, 0, 0, 1, 275, 206)" opacity="1"><g transform="scale(1)"><path d="M0.1544,2.1622 T-3.1577,2.3825 -9.668,2.7363 -16.2872,2.7221 -23.1663,2.2739 -30.3317,1.5968 -38.1147,0.7988 -46.2393,-0.0638 -54.7084,-0.7176 -63.6591,-1.2783 -72.707,-2.0425 -81.5044,-2.9119 -89.9335,-3.8386 -97.8544,-4.5471 -105.3507,-5.1412 -112.3766,-5.6676 -118.8318,-5.9138 -124.8297,-6.0368 -130.3535,-6.1131 -135.3912,-6.167 -139.9375,-6.2185 -144.2222,-6.2813 -149.3412,-6.0479 -154.0857,-5.69 -155.8078,-5.5988 A2.4089,2.4089 0 0 1 -156.1922,-10.4012 T-154.4775,-10.5851 -149.5399,-11.2179 -144.2114,-11.6917 -139.9099,-11.7304 -135.3439,-11.7359 -130.271,-11.7026 -124.6872,-11.6135 -118.5837,-11.4227 -111.9489,-11.0733 -104.9063,-10.4698 -97.3753,-9.8172 -89.3468,-9.0575 -80.9743,-8.096 -72.2507,-7.1773 -63.3101,-6.3436 -54.2823,-5.6675 -45.69,-4.8718 -37.5957,-3.8815 -29.8606,-2.9587 -22.8381,-2.1657 -16.2581,-1.6191 -9.9038,-1.541 -3.4643,-1.9095 -0.1544,-2.1622 A2.1677,2.1677 0 0 1 0.1544,2.1622 Z" stroke-linecap="round" fill="#4dabf7"/></g></g><g transform="matrix(1, 0, 0, 1, 136, 243)" opacity="1"><g transform="scale(1)"><path d="M2.4595,0.3514 T2.2387,2.0342 1.082,5.7018 -1.0877,9.4124 -4.7835,14.1041 -10.3648,19.2213 -15.1122,22.2649 -16.7401,23.1572 A2.4982,2.4982 0 0 1 -19.2599,18.8428 T-17.6828,17.8633 -13.5826,15.0647 -8.8084,10.6149 -4.7606,5.4446 -2.7117,1.2768 -2.4595,-0.3514 A2.4845,2.4845 0 0 1 2.4595,0.3514 Z" stroke-linecap="round" fill="#4dabf7"/></g></g><g transform="matrix(1, 0, 0, 1, 120, 245)" opacity="1"><g transform="scale(1)"><path d="M2.1154,-1.5385 T3.9799,1.083 7.2837,5.501 10.0066,9.0071 13.3388,12.8032 17.4671,16.3598 19.5467,17.8299 A2.6648,2.6648 0 0 1 16.4533,22.1701 T14.1513,20.5172 9.4992,16.3274 5.9372,12.1374 3.2245,8.593 -0.1959,4.12 -2.1154,1.5385 A2.6157,2.6157 0 0 1 2.1154,-1.5385 Z" stroke-linecap="round" fill="#4dabf7"/></g></g><g transform="matrix(1, 0, 0, 1, 140, 220)" opacity="1"><g transform="scale(1)"><path d="M0.2471,-2.9652 T3.0848,-2.7086 9.1948,-1.5795 14.353,0.6602 16.7009,4.611 15.9342,9.1905 12.8517,12.7964 9.2427,15.7086 6.2064,18.3757 4.9253,19.7406 A2.9428,2.9428 0 0 1 0.4022,15.9747 T2.095,14.175 5.3937,11.1765 8.7051,7.3913 7.9201,4.1014 2.5912,3.1816 -0.2471,2.9652 A2.9755,2.9755 0 0 1 0.2471,-2.9652 ZM4.071,15.2731 T5.1363,15.8555 8.2403,16.6173 12.8211,16.8787 18.198,17.0418 21.0328,17.1229 A2.8773,2.8773 0 0 1 20.9672,22.8771 T18.0937,22.8931 12.5143,22.8217 6.8512,22.304 2.5754,21.1579 1.2566,20.4422 A2.9428,2.9428 0 0 1 4.071,15.2731 Z" stroke-linecap="round" fill="#4dabf7"/></g></g><g transform="matrix(1, 0, 0, 1, 159, 258)" opacity="1"><g transform="scale(1)"><path d="M-0.2604,-2.344 T1.8643,-2.6142 6.9686,-3.1211 12.0107,-3.4153 16.3319,-2.9354 18.5906,-2.398 A2.4697,2.4697 0 0 1 17.4094,2.398 T16.3802,2.1567 12.7747,1.783 7.3617,1.7944 2.3927,2.1412 0.2604,2.344 A2.3584,2.3584 0 0 1 -0.2604,-2.344 Z" stroke-linecap="round" fill="#4dabf7"/></g></g><g transform="matrix(1, 0, 0, 1, 196, 240)" opacity="1"><g transform="scale(1)"><path d="M2.4324,-0.7297 T3.1384,1.6381 4.2721,6.6021 4.9247,11.752 5.2794,16.8341 5.4768,21.6396 5.2836,26.43 4.7481,31.5801 4.4736,34.2167 A2.483,2.483 0 0 1 -0.4736,33.7833 T-0.2854,31.139 0.0572,26.2686 0.1698,21.813 0.0501,17.1518 -0.197,12.3485 -0.6862,7.7156 -1.7194,3.0919 -2.4324,0.7297 A2.5394,2.5394 0 0 1 2.4324,-0.7297 Z" stroke-linecap="round" fill="#4dabf7"/></g></g><g transform="matrix(1, 0, 0, 1, 317, 202)" opacity="1"><g transform="scale(1)"><path d="M-1.6587,1.6587 T-2.5824,0.7146 -5.8464,0.6581 -9.99,4.1182 -12.424,9.6985 -12.5232,14.9157 -10.2575,18.2065 -6.4278,19.4713 -2.3676,18.1302 1.1783,13.8348 3.4592,9.0679 4.799,4.6236 5.7956,-0.681 6.3753,-6.7142 6.9752,-13.0635 7.5534,-19.2539 7.8649,-24.8131 7.7129,-30.8806 6.9571,-36.2965 6.4634,-38.186 A1.7633,1.7633 0 0 1 9.8941,-39.0032 T10.1231,-38.0563 10.7774,-34.3415 11.411,-29.401 11.5475,-24.6455 11.3316,-18.9482 10.9091,-12.7547 10.5076,-6.3753 10.0847,0.0766 9.1788,5.8975 7.8061,10.8962 6.0317,15.2401 2.4435,20.0348 -3.8944,23.6603 -10.7422,23.106 -15.7001,18.6823 -17.321,12.0138 -16.4147,6.3094 -13.5652,1.2315 -8.6131,-3.5057 -3.0644,-4.3899 0.6904,-2.6066 1.6587,-1.6587 A2.3457,2.3457 0 0 1 -1.6587,1.6587 ZM8.973,-37.0203 T8.6937,-36.8806 8.4144,-36.741 A1.7611,1.7611 0 0 1 6.828,-39.8858 T7.1063,-40.0274 7.3846,-40.169 A1.7633,1.7633 0 0 1 8.973,-37.0203 ZM9.3522,-37.9888 T9.2043,-37.2064 8.9579,-33.5431 9.211,-26.162 9.8874,-18.9833 10.6445,-13.4752 11.5741,-7.4925 12.8123,-1.3517 13.9773,4.2903 14.626,9.0617 15.5574,14.3428 16.264,17.5071 A2.3171,2.3171 0 0 1 11.736,18.4929 T11.0053,15.0552 10.1067,9.6039 9.6181,5.0998 8.625,-0.5758 7.563,-6.9355 6.8206,-13.005 6.2001,-18.6984 5.8424,-23.9497 5.5374,-28.5739 5.4604,-33.9069 5.7443,-37.8532 5.8902,-38.6379 A1.7611,1.7611 0 0 1 9.3522,-37.9888 Z" stroke-linecap="round" fill="#4dabf7"/></g></g><g transform="matrix(1, 0, 0, 1, 363, 192)" opacity="1"><g transform="scale(1)"><path d="M2.0306,0.5538 T1.3029,3.1555 -0.593,8.0358 -2.8204,12.1636 -4.8786,15.8888 -6.9038,19.5153 -10.4541,23.8752 -14.3788,27.53 -15.7795,28.5754 A1.9929,1.9929 0 0 1 -18.2205,25.4246 T-15.8362,23.5467 -11.5073,18.7233 -8.5152,13.8582 -6.4391,10.1762 -4.4118,6.5312 -2.7219,2.0475 -2.0306,-0.5538 A2.1048,2.1048 0 0 1 2.0306,0.5538 Z" stroke-linecap="round" fill="#4dabf7"/></g></g><g transform="matrix(1, 0, 0, 1, 349, 197)" opacity="1"><g transform="scale(1)"><path d="M2.0011,-0.8894 T2.9385,1.243 5.2726,6.5477 7.4456,12.1997 8.7091,17.6596 9.1963,20.6399 A2.2257,2.2257 0 0 1 4.8037,21.3601 T4.3778,18.7718 3.2511,13.778 1.2292,8.2556 -1.0465,3.014 -2.0011,0.8894 A2.1899,2.1899 0 0 1 2.0011,-0.8894 Z" stroke-linecap="round" fill="#4dabf7"/></g></g><g transform="matrix(1, 0, 0, 1, 390, 201)" opacity="1"><g transform="scale(1)"><path d="M1.1847,-2.3694 T2.6085,-1.6764 6.4073,-0.4751 11.4438,-0.7794 14.1053,-1.5921 A2.7421,2.7421 0 0 1 15.8947,3.5921 T13.303,4.3607 8.5751,5.187 4.0413,4.5331 0.2295,3.0954 -1.1847,2.3694 A2.649,2.649 0 0 1 1.1847,-2.3694 Z" stroke-linecap="round" fill="#4dabf7"/></g></g><g transform="matrix(1, 0, 0, 1, 393, 215)" opacity="1"><g transform="scale(1)"><path d="M0.3078,-2.4621 T2.2045,-2.2635 6.5008,-1.9041 11.2425,-2.1502 13.5845,-2.5572 A2.5908,2.5908 0 0 1 14.4155,2.5572 T11.5042,3.0038 6.0298,3.2307 1.5795,2.7365 -0.3078,2.4621 A2.4812,2.4812 0 0 1 0.3078,-2.4621 Z" stroke-linecap="round" fill="#4dabf7"/></g></g><g transform="matrix(1, 0, 0, 1, 452, 178)" opacity="1"><g transform="scale(1)"><path d="M-2.0902,-0.3216 T-1.5965,-3.3928 -0.8483,-8.7429 -0.7563,-14.1842 -1.3252,-19.7472 -2.8337,-24.0825 -6.2031,-26.0892 -9.6701,-23.9185 -11.8378,-19.0289 -13.504,-13.0755 -14.3869,-6.019 -14.6032,1.6634 -14.6201,9.3264 -14.3679,15.0392 -13.99,19.1414 -13.1578,25.1469 -12.018,31.2745 -11.1014,35.6187 -10.1475,40.0383 -9.1748,44.7601 -8.2011,49.3531 -7.4362,53.7697 -6.7911,58.5005 -6.0011,63.2349 -5.3357,67.9612 -4.9709,72.4636 -4.7844,76.969 -4.6834,81.7198 -4.622,86.1081 -4.8228,90.4541 -6.1231,96.4533 -9.4087,103.1956 -13.3466,107.4139 -18.5928,109.7854 -25.7268,110.6539 -31.1828,109.3497 -34.6476,106.9846 -37.6448,104.1997 -40.4019,101.201 -41.7859,99.688 A2.4574,2.4574 0 0 1 -38.2141,96.312 T-35.6265,98.9679 -30.4977,103.4698 -25.5502,105.5333 -20.5856,105.0934 -15.6761,102.5529 -11.9848,98.0855 -10.0628,91.8907 -9.4919,86.1626 -9.5326,81.8186 -9.7439,75.2556 -10.14,68.6461 -10.7991,64.0446 -11.6249,59.1569 -12.2506,54.605 -12.9998,50.3825 -14.0014,45.7629 -14.9819,41.0812 -15.9392,36.6328 -16.8541,32.2274 -17.6913,27.9043 -18.3932,23.6913 -18.8046,19.5505 -19.1398,15.2983 -19.3219,9.2982 -19.2394,3.5503 -19.1531,-0.4432 -19.0158,-4.432 -18.7749,-8.4148 -17.7866,-14.1367 -15.9049,-20.657 -13.6805,-25.6513 -10.1352,-29.6388 -4.9868,-30.8153 -0.736,-28.6803 1.5457,-24.898 2.7607,-20.0712 3.3243,-14.046 3.2389,-8.2146 2.5425,-2.7562 2.0902,0.3216 A2.1148,2.1148 0 0 1 -2.0902,-0.3216 Z" stroke-linecap="round" fill="#4dabf7"/></g></g><g transform="matrix(1, 0, 0, 1, 547, 139)" opacity="1"><g transform="scale(1)"><path d="M2.2426,-0.2492 T2.5016,1.8769 2.984,7.8318 3.2588,15.0186 3.2936,20.4176 3.2637,24.724 3.2502,26.9894 A2.2503,2.2503 0 0 1 -1.2502,27.0106 T-1.2851,24.7455 -1.3557,20.455 -1.4458,15.1261 -1.6574,8.1668 -2.0286,2.3801 -2.2426,0.2492 A2.2564,2.2564 0 0 1 2.2426,-0.2492 Z" stroke-linecap="round" fill="#4dabf7"/></g></g><g transform="matrix(1, 0, 0, 1, 466, 215)" opacity="1"><g transform="scale(1)"><path d="M0,-2.3194 T4.257,-2.3011 11.2304,-2.2768 16.5609,-2.2867 21.7351,-2.3245 26.8269,-2.3731 33.5372,-2.4431 40.148,-2.5159 46.2268,-2.5761 53.3634,-2.8565 60.5092,-3.708 67.316,-4.8706 75.4162,-6.4223 84.9247,-8.1821 93.7823,-9.5926 101.337,-10.577 108.2444,-11.1024 116.4209,-11.3791 124.8998,-11.7435 131.9477,-12.1572 138.1062,-12.3634 144.3497,-12.686 151.3576,-13.293 157.9556,-13.8178 163.2847,-14.2966 168.4825,-14.7539 173.3396,-15.1976 178.2799,-15.59 183.9357,-15.8215 186.8705,-15.948 A1.9523,1.9523 0 0 1 187.1295,-12.052 T184.2038,-11.7889 178.7391,-11.2812 173.8236,-10.6604 168.9543,-10.0792 163.7738,-9.4893 158.385,-8.8784 151.8257,-8.233 144.6376,-7.517 138.3042,-7.1242 132.2656,-6.8704 125.1443,-6.4113 116.6098,-6.0172 108.6582,-5.7519 102.0152,-5.249 94.6279,-4.2823 85.9031,-2.8878 76.4087,-1.1203 68.1963,0.4312 61.1023,1.5667 53.5388,2.3835 46.2272,2.5761 40.148,2.5159 33.5372,2.4431 26.8269,2.3731 21.7351,2.3245 16.5609,2.2867 11.2304,2.2768 4.257,2.3011 0,2.3194 A2.3194,2.3194 0 0 1 0,-2.3194 Z" stroke-linecap="round" fill="#4dabf7"/></g></g><g transform="matrix(1, 0, 0, 1, 487, 235)" opacity="1"><g transform="scale(1)"><path d="M1.7101,1.7101 T0.0554,3.3636 -2.8243,6.7008 -5.5585,11.9507 -7.5561,19.492 -7.8944,25.8417 -7.4283,30.6457 -6.7162,35.2788 -5.2845,40.0352 -2.6836,44.5049 -1.1184,46.4221 A2.4556,2.4556 0 0 1 -4.8816,49.5779 T-6.8938,47.2291 -10.1774,41.6319 -11.8468,36.0395 -12.5374,31.0856 -12.9382,25.7756 -12.3518,18.435 -10.8639,11.7356 -9.0125,7.594 -6.4886,3.5581 -3.3664,-0.0526 -1.7101,-1.7101 A2.4184,2.4184 0 0 1 1.7101,1.7101 Z" stroke-linecap="round" fill="#4dabf7"/></g></g><g transform="matrix(1, 0, 0, 1, 507, 250)" opacity="1"><g transform="scale(1)"><path d="M1.8587,0.697 T1.1716,2.6009 -0.8853,6.8702 -4.666,12.6351 -9.6352,18.3449 -13.4586,21.6295 -14.7239,22.6038 A2.0495,2.0495 0 0 1 -17.2761,19.3962 T-16.0424,18.3822 -12.6633,15.4052 -8.1902,10.2464 -4.5926,5.057 -2.5906,1.1831 -1.8587,-0.697 A1.9851,1.9851 0 0 1 1.8587,0.697 Z" stroke-linecap="round" fill="#4dabf7"/></g></g><g transform="matrix(1, 0, 0, 1, 492, 256)" opacity="1"><g transform="scale(1)"><path d="M1.2724,-1.6966 T3.1528,-0.2598 6.8652,2.946 10.1482,6.3639 13.2045,10.1431 16.7756,14.9983 18.7413,17.7232 A2.1592,2.1592 0 0 1 15.2587,20.2768 T13.3211,17.6784 9.8341,12.9635 6.9909,9.2916 4.116,6.1176 0.6312,3.0978 -1.2724,1.6966 A2.1207,2.1207 0 0 1 1.2724,-1.6966 Z" stroke-linecap="round" fill="#4dabf7"/></g></g><g transform="matrix(1, 0, 0, 1, 526, 253)" opacity="1"><g transform="scale(1)"><path d="M1.8393,-0.6131 T2.5759,1.5073 3.7395,5.5695 4.5051,10.2969 4.9089,16.5073 4.9741,19.9323 A1.9752,1.9752 0 0 1 1.0259,20.0677 T0.9387,18.2919 0.6833,13.7959 0.0204,7.981 -1.1569,2.7497 -1.8393,0.6131 A1.9388,1.9388 0 0 1 1.8393,-0.6131 Z" stroke-linecap="round" fill="#4dabf7"/></g></g><g transform="matrix(1, 0, 0, 1, 534, 263)" opacity="1"><g transform="scale(1)"><path d="M0.4952,1.9808 T-1.3948,2.4618 -6.1347,3.5571 -10.7659,4.5677 -12.5473,4.9641 A2.0156,2.0156 0 0 1 -13.4527,1.0359 T-11.6775,0.6126 -7.0927,-0.4308 -2.3892,-1.5158 -0.4952,-1.9808 A2.0417,2.0417 0 0 1 0.4952,1.9808 Z" stroke-linecap="round" fill="#4dabf7"/></g></g><g transform="matrix(1, 0, 0, 1, 544, 248)" opacity="1"><g transform="scale(1)"><path d="M2.2002,-0.8801 T3.1688,1.476 5.0065,7.3046 6.0506,12.9729 6.3452,17.8496 6.4687,23.2455 6.4726,25.9606 A2.4729,2.4729 0 0 1 1.5274,26.0394 T1.4456,23.3768 1.2606,18.1091 1.0554,13.5141 0.3001,8.576 -1.2768,3.254 -2.2002,0.8801 A2.3697,2.3697 0 0 1 2.2002,-0.8801 Z" stroke-linecap="round" fill="#4dabf7"/></g></g><g transform="matrix(1, 0, 0, 1, 563, 242)" opacity="1"><g transform="scale(1)"><path d="M-2.6353,-0.4392 T-2.3508,-1.8742 -1.5039,-4.4743 -0.9415,-5.6394 A2.5849,2.5849 0 0 1 3.5947,-3.1597 T3.3035,-2.7632 2.8238,-0.9638 2.6353,0.4392 A2.6716,2.6716 0 0 1 -2.6353,-0.4392 ZM3.4469,-5.8781 T3.8549,-5.2877 5.0247,-1.8983 6.2213,2.931 7.1307,7.2108 7.8824,12.2049 8.303,17.0725 8.5286,21.7579 8.1065,28.4561 5.2146,35.1644 2.8268,37.7368 A2.5207,2.5207 0 0 1 -0.8268,34.2632 T0.798,32.6151 2.7569,27.7171 3.0392,21.9978 2.8769,17.4886 2.5614,12.987 1.9164,8.2805 0.7248,2.102 -0.4101,-2.3764 -0.7936,-2.921 A2.5849,2.5849 0 0 1 3.4469,-5.8781 Z" stroke-linecap="round" fill="#4dabf7"/></g></g><g transform="matrix(1, 0, 0, 1, 590, 228)" opacity="1"><g transform="scale(1)"><path d="M2.3902,0.3415 T1.9044,3.6517 0.6704,9.7931 -1.1177,16.7447 -2.8448,25.3336 -3.8399,33.4987 -4.0269,39.2383 -2.7575,43.3996 -0.8673,46.5146 -0.1256,47.5111 A2.3937,2.3937 0 0 1 -3.8744,50.4889 T-4.6773,49.541 -6.8397,46.6192 -8.8287,42.201 -9.2669,36.4658 -8.828,31.0649 -8.1272,26.4351 -7.2573,21.6693 -6.1748,17.3668 -5.1061,13.3468 -4.0069,8.8327 -2.8504,2.9703 -2.3902,-0.3415 A2.4145,2.4145 0 0 1 2.3902,0.3415 Z" stroke-linecap="round" fill="#4dabf7"/></g></g><g transform="matrix(1, 0, 0, 1, 616, 241)" opacity="1"><g transform="scale(1)"><path d="M2.3093,0.5773 T1.6135,3.4223 -0.4556,9.3913 -2.7535,14.5407 -4.9394,18.6898 -7.6721,22.5227 -12.1326,26.1082 -16.62,28.5605 -18.1183,29.1368 A2.3115,2.3115 0 0 1 -19.8817,24.8632 T-17.4238,23.8332 -12.7071,20.5278 -9.308,16.3663 -7.2283,12.4878 -5.0223,7.79 -3.0325,2.2537 -2.3093,-0.5773 A2.3804,2.3804 0 0 1 2.3093,0.5773 Z" stroke-linecap="round" fill="#4dabf7"/></g></g><g transform="matrix(1, 0, 0, 1, 603, 246)" opacity="1"><g transform="scale(1)"><path d="M1.8369,-1.1021 T3.9759,2.4391 7.5016,8.325 10.4173,13.5953 13.3068,18.0244 14.6673,19.5281 A2.2241,2.2241 0 0 1 11.3327,22.4719 T9.5749,20.4434 6.4379,15.6526 3.7288,10.55 0.2811,4.6559 -1.8369,1.1021 A2.1421,2.1421 0 0 1 1.8369,-1.1021 Z" stroke-linecap="round" fill="#4dabf7"/></g></g><g transform="matrix(1, 0, 0, 1, 628, 252)" opacity="1"><g transform="scale(1)"><path d="M0,-2.0371 T1.892,-2.0715 5.9,-2.1379 10.3021,-2.6093 12.5883,-3.0485 A2.0895,2.0895 0 0 1 13.4117,1.0485 T10.7222,1.6093 5.9084,2.1379 1.892,2.0715 0,2.0371 A2.0371,2.0371 0 0 1 0,-2.0371 Z" stroke-linecap="round" fill="#4dabf7"/></g></g><g transform="matrix(1, 0, 0, 1, 657, 236)" opacity="1"><g transform="scale(1)"><path d="M2.0478,0.0931 T1.8363,5.2972 1.5187,14.1781 1.108,20.3684 0.383,24.9391 -0.4895,29.2036 -0.9416,31.4108 A2.099,2.099 0 0 1 -5.0584,30.5892 T-4.2575,26.4688 -3.1569,20.0287 -2.714,14.0098 -2.3093,5.1088 -2.0478,-0.0931 A2.0499,2.0499 0 0 1 2.0478,0.0931 Z" stroke-linecap="round" fill="#4dabf7"/></g></g><g transform="matrix(1, 0, 0, 1, 668, 219)" opacity="1"><g transform="scale(1)"><path d="M2.0491,-0.8196 T3.4364,2.7405 5.7876,8.6322 7.7922,14.1748 9.3984,19.8307 10.7576,25.3809 11.9929,30.9194 12.6848,35.6239 12.8255,40.4106 12.4045,45.2054 11.672,49.4266 9.8695,54.2434 7.6815,58.2218 6.8747,59.3248 A2.2956,2.2956 0 0 1 3.1253,56.6752 T4.4273,54.8536 6.4942,49.9212 7.5545,44.7352 7.9942,40.5013 7.9731,36.2336 7.4604,31.8349 6.41,26.3824 5.2271,20.9498 3.8045,15.6384 1.857,10.2429 -0.5984,4.3545 -2.0491,0.8196 A2.207,2.207 0 0 1 2.0491,-0.8196 Z" stroke-linecap="round" fill="#4dabf7"/></g></g><g transform="matrix(1, 0, 0, 1, 714, 209)" opacity="1"><g transform="scale(1)"><path d="M-2.5759,0 T-2.5484,-2.1253 -3.0446,-6.4107 -5.8203,-8.7733 -9.1309,-6.7351 -10.9887,-0.7901 -11.2419,6.4084 -9.3508,11.5314 -5.2153,11.4306 -1.0031,7.4634 1.6615,2.4322 4.0681,-3.4891 6.0793,-10.0697 7.3992,-16.7179 8.1394,-23.0091 8.3202,-29.0772 7.9452,-34.5438 7.2729,-39.0294 6.0282,-43.8062 4.5686,-47.0874 3.9696,-47.5834 A2.0257,2.0257 0 0 1 6.2217,-50.9512 T7.5745,-49.5417 9.8933,-44.9539 11.2597,-39.637 11.963,-34.8478 12.4031,-28.998 12.3357,-22.5681 11.7071,-15.9144 10.4298,-8.7695 8.4103,-1.7428 5.861,4.6931 2.7119,10.5448 -0.991,15.0342 -5.0006,17.5958 -10.4531,16.5985 -14.7131,12.9949 -16.1545,8.9164 -16.7901,4.4077 -16.5288,-0.0029 -14.8195,-6.0837 -10.9862,-12.5198 -5.217,-14.6197 -0.3647,-12.1643 1.8494,-7.1973 2.5484,-2.1317 2.5759,0 A2.5759,2.5759 0 0 1 -2.5759,0 ZM6.5833,-47.8923 T6.1227,-47.4404 5.4651,-43.8749 5.4363,-38.3109 5.9335,-32.8923 6.6873,-26.7015 7.5774,-19.8799 8.7824,-12.8098 10.4082,-5.8631 12.2029,0.0574 13.997,4.769 15.9047,9.6167 16.9268,12.1977 A2.0871,2.0871 0 0 1 13.0732,13.8023 T11.9614,11.2587 9.8198,6.3824 7.8595,1.3569 6.1199,-4.9162 4.6296,-12.1319 3.5118,-19.3701 2.6869,-26.2358 1.9816,-32.5542 1.5051,-38.3066 1.946,-45.2024 3.0774,-50.0217 3.608,-50.6423 A2.0257,2.0257 0 0 1 6.5833,-47.8923 Z" stroke-linecap="round" fill="#4dabf7"/></g></g><g transform="matrix(1, 0, 0, 1, 756, 190)" opacity="1"><g transform="scale(1)"><path d="M2.0391,0.7647 T1.345,2.6625 -0.1899,6.5701 -2.2244,10.6835 -4.4673,14.748 -6.5916,18.4969 -9.0404,22.0071 -11.8502,25.5247 -13.2865,27.3202 A2.1631,2.1631 0 0 1 -16.7135,24.6798 T-14.1986,21.2863 -10.6723,16.1706 -8.5459,12.4407 -6.3129,8.5968 -4.3419,4.8841 -2.764,1.1215 -2.0391,-0.7647 A2.1777,2.1777 0 0 1 2.0391,0.7647 Z" stroke-linecap="round" fill="#4dabf7"/></g></g><g transform="matrix(1, 0, 0, 1, 742, 198)" opacity="1"><g transform="scale(1)"><path d="M1.9871,-0.9462 T4.3671,4.0131 8.7218,12.9913 11.9998,19.8694 14.4564,25.4229 16.8842,31.0986 18.1588,34.0801 A2.3466,2.3466 0 0 1 13.8412,35.9199 T12.5736,32.9353 10.1776,27.29 7.8181,21.8152 4.6499,14.9474 0.3629,5.9199 -1.9871,0.9462 A2.2009,2.2009 0 0 1 1.9871,-0.9462 Z" stroke-linecap="round" fill="#4dabf7"/></g></g><g transform="matrix(1, 0, 0, 1, 430.0917, 367.6586)" opacity="1"><g transform="scale(1)"><path d="M0.6577,2.638 T-1.1223,3.0966 -6.1147,3.763 -11.6603,3.6489 -16.6026,2.9521 -22.005,2.2145 -24.7983,1.8518 A2.8088,2.8088 0 0 1 -24.1817,-3.7318 T-22.6273,-3.5907 -18.3223,-3.0328 -12.2505,-2.1332 -6.5799,-1.7135 -2.4441,-2.2073 -0.6577,-2.638 A2.7188,2.7188 0 0 1 0.6577,2.638 Z" stroke-linecap="round" fill="#4dabf7"/></g></g><g transform="matrix(1, 0, 0, 1, 424.4402, 381.7873)" opacity="1"><g transform="scale(1)"><path d="M-0.94,2.4706 T-3.8371,2.4298 -9.9621,2.3549 -13.19,2.3209 A2.3209,2.3209 0 0 1 -13.19,-2.3209 T-9.9621,-2.3549 -3.8371,-2.4298 -0.94,-2.4706 A2.4706,2.4706 0 0 1 -0.94,2.4706 Z" stroke-linecap="round" fill="#4dabf7"/></g></g><g transform="matrix(1, 0, 0, 1, 464.0007, 354.4718)" opacity="1"><g transform="scale(1)"><path d="M-3.1701,-0.7028 T-2.6782,-2.6902 -2.5863,-7.8618 -3.7926,-13.159 -5.6513,-16.0538 -6.7038,-16.8356 A3.1603,3.1603 0 0 1 -2.8767,-21.8657 T-0.9359,-19.93 2.0323,-15.212 3.539,-10.1663 3.9914,-5.6237 3.5674,-1.3208 3.1701,0.7028 A3.2471,3.2471 0 0 1 -3.1701,-0.7028 ZM-3.3333,-16.5463 T-4.1977,-16.1514 -5.4263,-13.439 -5.9385,-7.9269 -5.9265,-1.2816 -5.0715,5.985 -3.5447,12.5289 -2.0504,17.1652 -0.3639,21.87 1.6514,27.2408 3.6225,32.2791 5.5717,37.153 7.484,41.6687 9.2223,46.1837 10.8521,51.1053 12.3734,56.1463 13.6448,61.1255 14.7327,68.0298 15.1081,75.0984 14.6746,79.8093 12.7428,86.0128 10.0197,91.8349 5.5391,96.4802 -1.1628,100.8267 -6.8571,102.5463 -13.0159,101.8485 -18.5445,99.5813 -22.2348,95.6795 -25.0887,91.675 -25.9985,90.3066 A3.0193,3.0193 0 0 1 -21.1015,86.7734 T-19.2183,89.169 -15.6051,93.0469 -11.9307,95.1793 -7.2273,95.3591 -1.533,93.4515 3.2237,89.4955 6.0118,85.22 7.6091,80.3924 8.3898,75.1145 8.1279,69.0124 7.1628,62.7634 5.9819,58.0483 4.5372,53.1489 3.0699,48.5065 1.4623,44.1719 -0.4342,39.5064 -2.3286,34.5697 -4.2673,29.4469 -6.2872,23.9825 -8.0303,19.1129 -9.6601,14.0361 -10.9908,8.8673 -11.7572,4.748 -12.3374,0.2888 -12.4793,-5.3537 -12.0331,-11.874 -10.5233,-17.8146 -7.8134,-21.2871 -6.2472,-22.1551 A3.1603,3.1603 0 0 1 -3.3333,-16.5463 Z" stroke-linecap="round" fill="#4dabf7"/></g></g><g transform="matrix(1, 0, 0, 1, 512.0385, 349.7622)" opacity="1"><g transform="scale(1)"><path d="M3.5196,-0.3901 T3.7166,1.6182 4.5086,7.0419 5.4346,12.8863 6.1392,17.2846 7.1811,22.482 6.937,28.846 6.0246,31.9819 A3.3194,3.3194 0 0 1 -0.3646,30.1781 T0.1169,28.3765 0.0026,23.5389 -0.9468,18.3332 -1.5057,14.1223 -2.3676,8.2383 -3.272,2.3928 -3.5196,0.3901 A3.5412,3.5412 0 0 1 3.5196,-0.3901 Z" stroke-linecap="round" fill="#4dabf7"/></g></g><g transform="matrix(1, 0, 0, 1, 531.8187, 361.0652)" opacity="1"><g transform="scale(1)"><path d="M2.0041,-1.6644 T3.439,-0.4602 5.7327,2.7846 7.1712,7.3684 8.3269,13.0997 8.9028,16.2878 A3.3195,3.3195 0 0 1 2.3972,17.6122 T2.0096,15.8928 1.1401,11.5285 -0.0637,6.5828 -1.3949,3.9131 -2.0041,3.5444 A3.2862,3.2862 0 0 1 2.0041,-1.6644 Z" stroke-linecap="round" fill="#4dabf7"/></g></g><g transform="matrix(1, 0, 0, 1, 542.1798, 368.6005)" opacity="1"><g transform="scale(1)"><path d="M0.2592,2.598 T-1.9625,2.8819 -7.9322,3.1077 -13.503,2.8305 -15.3257,2.6113 A2.6238,2.6238 0 0 1 -14.8143,-2.6113 T-12.9836,-2.4727 -7.9401,-2.3053 -2.4932,-2.4373 -0.2592,-2.598 A2.6109,2.6109 0 0 1 0.2592,2.598 Z" stroke-linecap="round" fill="#4dabf7"/></g></g><g transform="matrix(1, 0, 0, 1, 559.1343, 353.5298)" opacity="1"><g transform="scale(1)"><path d="M2.474,0.2742 T2.2957,2.2977 1.2855,6.6116 -0.3998,10.8796 -2.4683,14.7445 -5.9859,19.4828 -8.2884,22.3338 A2.626,2.626 0 0 1 -12.4316,19.1062 T-11.3036,17.6042 -8.1969,13.3603 -4.6124,7.1597 -2.7403,1.7133 -2.474,-0.2742 A2.4891,2.4891 0 0 1 2.474,0.2742 Z" stroke-linecap="round" fill="#4dabf7"/></g></g><g transform="matrix(1, 0, 0, 1, 545.9475, 359.1813)" opacity="1"><g transform="scale(1)"><path d="M1.5264,-2.034 T4.2359,-0.0777 9.1077,3.6022 12.8638,6.6822 16.0164,9.7684 19.2011,13.3068 20.8269,15.1154 A2.7043,2.7043 0 0 1 16.8531,18.7846 T15.1796,17.02 12.1036,13.7779 9.2158,10.9461 5.7375,7.8675 1.109,4.0887 -1.5264,2.034 A2.5431,2.5431 0 0 1 1.5264,-2.034 Z" stroke-linecap="round" fill="#4dabf7"/></g></g><g transform="matrix(1, 0, 0, 1, 590.2175, 358.2394)" opacity="1"><g transform="scale(1)"><path d="M0.3978,-2.7888 T1.9492,-2.5576 6.8519,-2.441 10.2031,-2.5557 A2.5605,2.5605 0 0 1 10.5169,2.5557 T8.6119,2.7309 4.7203,3.0608 1.1679,3.0022 -0.3978,2.7888 A2.817,2.817 0 0 1 0.3978,-2.7888 Z" stroke-linecap="round" fill="#4dabf7"/></g></g><g transform="matrix(1, 0, 0, 1, 630.72, 345.0526)" opacity="1"><g transform="scale(1)"><path d="M2.2253,0.7426 T1.6018,2.7695 -0.1126,6.7706 -3.4407,11.9851 -8.1375,17.4305 -12.1081,20.6993 -13.6189,21.763 A2.4572,2.4572 0 0 1 -16.5211,17.797 T-13.9559,15.8802 -9.4653,11.6036 -5.5977,6.2347 -2.9404,1.2415 -2.2253,-0.7426 A2.3459,2.3459 0 0 1 2.2253,0.7426 Z" stroke-linecap="round" fill="#4dabf7"/></g></g><g transform="matrix(1, 0, 0, 1, 613.7655, 352.5879)" opacity="1"><g transform="scale(1)"><path d="M1.467,-2.0157 T3.9246,-0.2428 8.0862,2.6523 11.7303,5.3203 15.2656,8.0491 19.6331,11.6234 22.4053,14.0147 A2.6118,2.6118 0 0 1 19.0347,18.0053 T16.3142,15.7571 11.9464,12.2153 8.6264,9.4641 5.186,6.8046 0.9757,3.8092 -1.467,2.0157 A2.493,2.493 0 0 1 1.467,-2.0157 Z" stroke-linecap="round" fill="#4dabf7"/></g></g><g transform="matrix(1, 0, 0, 1, 668.3966, 396.858)" opacity="1"><g transform="scale(1)"><path d="M-0.5015,2.5038 T-3.8403,1.8215 -9.9602,0.8151 -14.973,0.5567 -19.9397,0.8876 -25.6819,1.5273 -33.1562,2.5539 -41.7096,4 -49.0891,5.4497 -56.1849,6.6891 -65.2539,8.2518 -74.4238,9.9826 -82.8385,11.5986 -92.0103,13.1687 -102.673,14.7152 -112.914,16.2306 -122.8894,17.2798 -133.6162,17.8556 -142.246,18.3835 -150.3802,18.8696 -158.1089,19.103 -165.2922,19.1371 -171.983,19.0572 -177.1636,19.1421 -182.128,19.2929 -187.3995,19.366 -190.146,19.4133 A2.4664,2.4664 0 0 1 -190.394,14.4867 T-187.6567,14.2578 -182.5225,13.8069 -177.453,13.2395 -172.0487,12.8054 -165.4216,12.5842 -158.3287,12.3501 -150.7971,12.0747 -142.6567,11.5954 -133.9396,11.1351 -123.5795,10.6793 -113.8262,9.771 -103.5408,8.4158 -93.0071,7.0552 -83.9388,5.6489 -75.4953,4.1481 -66.2022,2.496 -57.1465,1.0229 -50.1433,-0.1143 -42.6079,-1.487 -33.8457,-2.8564 -26.2163,-3.7887 -20.2081,-4.335 -14.7075,-4.5671 -9.1568,-4.1977 -2.8432,-3.1601 0.5015,-2.5038 A2.5535,2.5535 0 0 1 -0.5015,2.5038 Z" stroke-linecap="round" fill="#4dabf7"/></g></g><g transform="matrix(1, 0, 0, 1, 512.0385, 436.4185)" opacity="1"><g transform="scale(1)"><path d="M3.1611,1.5918 T2.6178,2.5891 1.3698,7.05 0.6249,13.7499 0.8678,19.0108 1.8581,22.9166 3.7923,27.4594 5.019,30.1212 A3.4985,3.4985 0 0 1 -1.4186,32.8628 T-1.8426,31.9332 -3.2939,29.1503 -5.2453,24.6611 -6.4514,19.7062 -6.5649,13.2173 -5.5934,5.427 -3.9757,0.1073 -3.1611,-1.5918 A3.5392,3.5392 0 0 1 3.1611,1.5918 ZM3.0542,28.2259 T3.9413,28.6363 5.8187,29.4989 6.809,29.9512 A3.2337,3.2337 0 0 1 4.491,35.9888 T3.4525,35.6622 1.4801,35.0468 0.5463,34.7581 A3.4985,3.4985 0 0 1 3.0542,28.2259 Z" stroke-linecap="round" fill="#4dabf7"/></g></g><g transform="matrix(1, 0, 0, 1, 539.354, 443.0119)" opacity="1"><g transform="scale(1)"><path d="M2.5105,0 T2.5544,1.8031 1.9124,6.0593 -1.0497,12.3004 -5.7022,18.4868 -9.366,21.8467 -10.6535,22.8082 A2.6225,2.6225 0 0 1 -13.8265,18.6318 T-12.555,17.6491 -9.5357,14.8525 -6.5703,11.2492 -3.9755,6.4933 -2.5544,1.7633 -2.5105,0 A2.5105,2.5105 0 0 1 2.5105,0 Z" stroke-linecap="round" fill="#4dabf7"/></g></g><g transform="matrix(1, 0, 0, 1, 525.2253, 447.7215)" opacity="1"><g transform="scale(1)"><path d="M1.3562,-2.2611 T3.6043,-0.9586 8.99,2.4505 14.6998,6.527 18.8889,9.7453 20.5058,10.9937 A2.7565,2.7565 0 0 1 17.1742,15.3863 T15.5361,14.1658 11.3886,11.0347 5.969,7.0625 0.8514,3.631 -1.3562,2.2611 A2.6366,2.6366 0 0 1 1.3562,-2.2611 Z" stroke-linecap="round" fill="#4dabf7"/></g></g><g transform="matrix(1, 0, 0, 1, 558.1924, 445.8377)" opacity="1"><g transform="scale(1)"><path d="M1.8978,-1.2645 T3.2734,0.7169 5.6805,4.7802 8.6422,10.3888 10.5724,13.9154 A2.3898,2.3898 0 0 1 6.3876,16.2246 T5.3388,14.3399 3.3144,10.6999 1.5174,7.1342 -0.601,3.2941 -1.8978,1.2645 A2.2805,2.2805 0 0 1 1.8978,-1.2645 Z" stroke-linecap="round" fill="#4dabf7"/></g></g><g transform="matrix(1, 0, 0, 1, 569.4954, 449.6053)" opacity="1"><g transform="scale(1)"><path d="M1.5346,2.1471 T-0.0094,3.2816 -5.0731,5.8648 -10.5824,7.773 -12.572,8.2323 A2.6553,2.6553 0 0 1 -13.808,3.0677 T-11.826,2.5766 -7.2624,1.0626 -3.1077,-1.0537 -1.5346,-2.1471 A2.6391,2.6391 0 0 1 1.5346,2.1471 Z" stroke-linecap="round" fill="#4dabf7"/></g></g><g transform="matrix(1, 0, 0, 1, 578.9145, 438.3023)" opacity="1"><g transform="scale(1)"><path d="M2.3961,-0.9589 T3.3313,1.2521 5.3168,6.9612 6.6297,12.9263 7.1462,17.9091 7.4001,20.4246 A2.7063,2.7063 0 0 1 2.0199,21.0154 T1.722,18.5046 1.1913,13.9497 0.1292,8.6768 -1.5481,3.2036 -2.3961,0.9589 A2.5809,2.5809 0 0 1 2.3961,-0.9589 Z" stroke-linecap="round" fill="#4dabf7"/></g></g><g transform="matrix(1, 0, 0, 1, 594.9271, 426.9993)" opacity="1"><g transform="scale(1)"><path d="M3.0105,-1.6721 T4.0673,0.3652 6.1547,4.3855 8.7321,9.879 10.8855,15.3647 12.0523,19.269 12.9479,23.301 13.0401,29.1466 11.147,36.2877 8.4516,41.0472 7.4063,42.4081 A3.3032,3.3032 0 0 1 2.0137,38.5919 T3.5326,36.3883 5.7671,31.6409 6.1504,26.0563 4.8518,19.2074 2.6413,12.4186 0.3643,7.5288 -1.8394,3.6459 -3.0105,1.6721 A3.4437,3.4437 0 0 1 3.0105,-1.6721 Z" stroke-linecap="round" fill="#4dabf7"/></g></g><g transform="matrix(1, 0, 0, 1, 617.5331, 421.3478)" opacity="1"><g transform="scale(1)"><path d="M3.6133,0.2122 T3.4085,3.9995 3.118,11.0767 2.9897,16.5558 3.1432,21.5134 3.6298,26.6008 4.7378,32.1942 6.1965,37.3937 6.8376,39.319 A3.2871,3.2871 0 0 1 0.7024,41.681 T-0.1131,39.8229 -1.7591,36.0079 -3.0331,31.9742 -3.831,27.3328 -4.3685,21.6531 -4.471,16.3217 -4.2416,10.732 -3.8531,3.5732 -3.6133,-0.2122 A3.6196,3.6196 0 0 1 3.6133,0.2122 Z" stroke-linecap="round" fill="#4dabf7"/></g></g><g transform="matrix(1, 0, 0, 1, 641.081, 430.767)" opacity="1"><g transform="scale(1)"><path d="M2.5723,0.5134 T2.1793,2.7527 1.0897,7.2267 -0.4523,11.368 -3.4138,16.6068 -6.8309,21.9572 -8.1318,23.9754 A2.6133,2.6133 0 0 1 -12.5882,21.2446 T-11.3807,19.1692 -9.0868,15.2067 -6.4485,10.5162 -4.2307,5.8159 -3.0686,1.7029 -2.5723,-0.5134 A2.623,2.623 0 0 1 2.5723,0.5134 Z" stroke-linecap="round" fill="#4dabf7"/></g></g><g transform="matrix(1, 0, 0, 1, 630.72, 433.5928)" opacity="1"><g transform="scale(1)"><path d="M1.4762,-1.97 T3.2514,-0.6231 7.3344,2.6368 11.7517,6.814 15.3969,10.6968 17.8485,13.28 18.7643,14.2447 A2.5314,2.5314 0 0 1 15.1357,17.7753 T14.1964,16.8333 11.6556,14.2385 8.2106,10.4139 4.2366,6.4316 0.315,3.2955 -1.4762,1.97 A2.4617,2.4617 0 0 1 1.4762,-1.97 Z" stroke-linecap="round" fill="#4dabf7"/></g></g><g transform="matrix(1, 0, 0, 1, 649.5583, 441.1281)" opacity="1"><g transform="scale(1)"><path d="M0,-2.341 T1.5585,-2.3848 5.2555,-2.6584 10.6661,-3.1234 13.9383,-3.3587 A2.4263,2.4263 0 0 1 14.3217,1.4787 T11.3437,1.7387 5.7414,2.2137 1.5585,2.3848 0,2.341 A2.341,2.341 0 0 1 0,-2.341 Z" stroke-linecap="round" fill="#4dabf7"/></g></g><g transform="matrix(1, 0, 0, 1, 671.2224, 422.2898)" opacity="1"><g transform="scale(1)"><path d="M2.8089,-0.5606 T3.2611,1.6657 4.1953,6.1741 5.5045,12.484 6.9753,19.2187 7.619,21.9253 A2.9885,2.9885 0 0 1 1.801,23.2947 T1.1699,20.5851 -0.2621,13.7413 -1.4988,7.3132 -2.3718,2.7899 -2.8089,0.5606 A2.8643,2.8643 0 0 1 2.8089,-0.5606 Z" stroke-linecap="round" fill="#4dabf7"/></g></g><g transform="matrix(1, 0, 0, 1, 674.99, 405.3353)" opacity="1"><g transform="scale(1)"><path d="M2.1394,-2.1394 T4.3554,0.1007 8.0451,4.0376 10.98,7.511 13.8537,12.0356 16.2295,17.3465 17.7623,22.5232 18.5738,29.4665 18.5309,35.8259 16.341,41.1731 13.1657,45.885 11.8953,47.2794 A3.2264,3.2264 0 0 1 6.9447,43.1406 T8.8036,40.8626 11.2126,36.0332 11.7309,29.9287 11.376,24.2109 10.3224,19.7696 8.6342,15.285 6.3271,11.3644 3.659,8.1111 0.1003,4.355 -2.1394,2.1394 A3.0256,3.0256 0 0 1 2.1394,-2.1394 Z" stroke-linecap="round" fill="#4dabf7"/></g></g><g transform="matrix(1, 0, 0, 1, 729.6212, 377.0778)" opacity="1"><g transform="scale(1)"><path d="M-1.4552,2.9104 T-3.1766,2.0514 -6.9816,2.4937 -10.3927,5.6669 -11.6212,9.6944 -9.65,13.5991 -5.2566,15.5016 -1.121,14.494 1.95,8.913 4.1485,1.9358 4.8381,-3.808 4.5833,-9.44 3.6789,-14.078 2.1893,-18.1226 0.3965,-21.7811 -1.5906,-24.4239 -2.5727,-25.2606 A2.4844,2.4844 0 0 1 0.7283,-28.9745 T2.2369,-27.5973 4.9921,-24.1702 7.1922,-20.0393 9.0518,-15.218 10.2752,-9.791 10.6743,-3.0918 10.0645,3.5685 8.3855,9.7232 6.103,15.6634 2.9635,19.5509 -2.67,21.5923 -8.6839,21.6533 -13.4046,18.9924 -16.9435,15.0331 -18.2931,11.043 -18.1304,6.6774 -15.5577,1.6163 -9.9078,-3.1866 -4.2981,-4.9437 -0.3898,-3.8346 1.4552,-2.9104 A3.2539,3.2539 0 0 1 -1.4552,2.9104 ZM1.412,-26.2667 T1.185,-25.7429 1.7189,-22.6459 4.3951,-15.6804 7.4668,-8.6566 9.4639,-3.9434 11.4394,0.9999 13.3822,5.7724 16.3144,11.0692 18.4385,14.4552 A2.8836,2.8836 0 0 1 13.5815,17.5648 T12.3448,15.6878 9.8696,11.8901 7.8421,7.9637 6.0102,3.0841 4.2067,-1.8329 2.4078,-6.5315 0.1857,-12.1602 -2.0747,-18.6031 -3.4299,-24.3016 -3.4825,-27.2494 -3.2564,-27.9684 A2.4844,2.4844 0 0 1 1.412,-26.2667 Z" stroke-linecap="round" fill="#4dabf7"/></g></g><g transform="matrix(1, 0, 0, 1, 769.1817, 362.0071)" opacity="1"><g transform="scale(1)"><path d="M2.5396,0.3166 T2.3631,2.1095 1.4189,6.6532 -0.7502,12.995 -3.0871,18.4242 -5.7515,21.74 -9.0203,24.3991 -10.5601,25.5809 A2.6357,2.6357 0 0 1 -13.9199,21.5191 T-12.4704,20.2282 -9.286,16.6664 -6.1187,11.0586 -3.8811,5.4762 -2.8077,1.457 -2.5396,-0.3166 A2.5592,2.5592 0 0 1 2.5396,0.3166 Z" stroke-linecap="round" fill="#4dabf7"/></g></g><g transform="matrix(1, 0, 0, 1, 753.1691, 364.8328)" opacity="1"><g transform="scale(1)"><path d="M2.1746,-1.9006 T3.7206,-0.1064 6.732,3.2602 9.7244,6.6053 13.5359,10.8065 17.6589,15.1627 20.69,18.343 21.8824,19.5956 A2.9465,2.9465 0 0 1 17.6776,23.7244 T16.4469,22.5094 13.2934,19.3357 9.0629,14.756 5.3773,10.431 2.4835,7.086 -0.6035,3.6729 -2.1746,1.9006 A2.8881,2.8881 0 0 1 2.1746,-1.9006 Z" stroke-linecap="round" fill="#4dabf7"/></g></g><g transform="matrix(1, 0, 0, 1, 447.9881, 528.7263)" opacity="1"><g transform="scale(1)"><path d="M0.2525,2.278 T-1.7489,2.53 -6.4446,3.3271 -11.9341,4.5513 -16.503,5.6457 -18.2766,6.0611 A2.3594,2.3594 0 0 1 -19.4034,1.4789 T-17.6394,1.0243 -12.8542,-0.1699 -7.0524,-1.4011 -2.2621,-2.0853 -0.2525,-2.278 A2.292,2.292 0 0 1 0.2525,2.278 Z" stroke-linecap="round" fill="#4dabf7"/></g></g><g transform="matrix(1, 0, 0, 1, 447.0462, 540.0293)" opacity="1"><g transform="scale(1)"><path d="M0.8645,2.3032 T-0.9339,3.0507 -5.2609,3.785 -10.0752,3.6723 -12.361,3.5726 A2.6354,2.6354 0 0 1 -12.119,-1.6926 T-8.2598,-1.4068 -2.6325,-1.7121 -0.8645,-2.3032 A2.4601,2.4601 0 0 1 0.8645,2.3032 Z" stroke-linecap="round" fill="#4dabf7"/></g></g><g transform="matrix(1, 0, 0, 1, 479.0714, 517.4233)" opacity="1"><g transform="scale(1)"><path d="M-2.7683,0 T-2.7591,-1.555 -3.2742,-5.3767 -4.5944,-9.648 -7.0815,-13.2519 -8.7728,-14.8513 A2.8784,2.8784 0 0 1 -5.5769,-19.6395 T-3.9709,-18.4523 -1.2881,-15.5342 0.6701,-11.4044 2.1506,-6.0648 2.7591,-1.5621 2.7683,0 A2.7683,2.7683 0 0 1 -2.7683,0 ZM-5.3438,-15.0245 T-5.9084,-14.6291 -6.91,-11.3085 -7.4583,-5.1529 -7.4015,1.5422 -6.5297,8.6168 -4.5562,15.8645 -2.3533,21.7772 -0.4953,26.0952 2.1429,31.5968 4.941,37.4816 6.8255,42.0922 8.2808,46.3285 9.3279,50.5096 9.8166,56.6817 8.9881,64.6435 6.555,71.5635 3.3646,76.3426 -0.2712,79.354 -4.1834,81.4339 -10.1199,82.7724 -16.0948,82.7341 -19.9557,81.1128 -23.2536,78.6384 -26.019,75.9284 -27.3498,74.602 A2.8247,2.8247 0 0 1 -23.5102,70.458 T-21.0484,72.5912 -16.2828,75.8247 -11.2967,76.6638 -5.703,75.0129 -1.0275,71.5445 2.0037,66.4594 3.7331,60.128 3.792,53.4455 2.8077,48.141 1.5333,44.1733 -0.0658,39.9842 -2.7707,34.0869 -5.5034,28.2176 -7.3421,23.7961 -9.6398,17.4265 -11.7972,9.4829 -12.7938,3.6219 -13.0112,-1.9497 -12.8561,-8.5991 -11.9177,-14.6333 -10.063,-18.5248 -9.0059,-19.4663 A2.8784,2.8784 0 0 1 -5.3438,-15.0245 Z" stroke-linecap="round" fill="#4dabf7"/></g></g><g transform="matrix(1, 0, 0, 1, 517.69, 517.4233)" opacity="1"><g transform="scale(1)"><path d="M2.7505,-0.6858 T3.2435,1.085 4.6957,5.7987 6.5828,11.946 7.5108,15.1503 A2.9298,2.9298 0 0 1 1.9092,16.8697 T0.8628,13.6415 -1.0708,7.3452 -2.3542,2.4814 -2.7505,0.6858 A2.8347,2.8347 0 0 1 2.7505,-0.6858 Z" stroke-linecap="round" fill="#4dabf7"/></g></g><g transform="matrix(1, 0, 0, 1, 538.4121, 515.5395)" opacity="1"><g transform="scale(1)"><path d="M1.813,-1.007 T2.9724,0.9748 5.3306,6.0702 7.0987,10.8197 7.6681,12.4554 A2.1477,2.1477 0 0 1 3.6319,13.9246 T3.0165,12.3056 1.3625,7.8761 -0.7446,3.0363 -1.813,1.007 A2.0738,2.0738 0 0 1 1.813,-1.007 Z" stroke-linecap="round" fill="#4dabf7"/></g></g><g transform="matrix(1, 0, 0, 1, 548.7732, 519.3072)" opacity="1"><g transform="scale(1)"><path d="M0.825,2.1979 T-0.9481,2.8965 -5.5895,4.3744 -10.0203,5.586 -11.5828,6.0183 A2.3423,2.3423 0 0 1 -12.8972,1.5217 T-11.3478,1.0444 -7.1051,-0.1754 -2.6183,-1.5579 -0.825,-2.1979 A2.3476,2.3476 0 0 1 0.825,2.1979 Z" stroke-linecap="round" fill="#4dabf7"/></g></g><g transform="matrix(1, 0, 0, 1, 569.4954, 510.8299)" opacity="1"><g transform="scale(1)"><path d="M2.521,0.8413 T1.8906,2.8628 0.1756,7.0415 -3.4398,12.0595 -7.3082,16.0131 -8.6456,17.106 A2.6617,2.6617 0 0 1 -12.0744,13.034 T-9.8497,11.1616 -5.7811,6.2135 -3.2292,1.1483 -2.521,-0.8413 A2.6577,2.6577 0 0 1 2.521,0.8413 Z" stroke-linecap="round" fill="#4dabf7"/></g></g><g transform="matrix(1, 0, 0, 1, 559.1343, 513.6557)" opacity="1"><g transform="scale(1)"><path d="M1.7301,-1.7301 T3.7637,0.2478 7.1651,3.7817 10.5977,7.2292 13.8111,10.2205 14.9597,11.3204 A2.5743,2.5743 0 0 1 11.4203,15.0596 T9.2369,13.0182 4.6391,8.3866 0.2473,3.7633 -1.7301,1.7301 A2.4468,2.4468 0 0 1 1.7301,-1.7301 Z" stroke-linecap="round" fill="#4dabf7"/></g></g><g transform="matrix(1, 0, 0, 1, 598.6948, 538.1455)" opacity="1"><g transform="scale(1)"><path d="M0.7393,2.8343 T-4.3698,4.2245 -13.8633,6.4162 -22.0508,7.9089 -28.4411,9.1969 -34.756,10.4153 -41.9437,11.6121 -48.5427,12.7205 -54.8172,13.5455 -60.9498,13.987 -66.6389,14.2075 -72.7314,14.4895 -79.6297,15.1838 -83.1274,15.6668 A3.498,3.498 0 0 1 -84.5326,8.8132 T-80.8178,7.8173 -73.3247,6.4752 -66.9326,6.059 -61.4756,5.8725 -55.7568,5.5417 -49.6848,4.9011 -42.998,4.0724 -35.9612,3.2807 -29.6544,2.4133 -23.0893,1.4396 -15.1481,0.3371 -5.8754,-1.552 -0.7393,-2.8343 A2.9291,2.9291 0 0 1 0.7393,2.8343 Z" stroke-linecap="round" fill="#4dabf7"/></g></g><g transform="matrix(1, 0, 0, 1, 519.5738, 572.9964)" opacity="1"><g transform="scale(1)"><path d="M-1.014,3.0527 T-1.6864,2.8398 -2.3588,2.6269 A3.2365,3.2365 0 0 1 -0.3184,-3.5161 T0.3478,-3.2844 1.014,-3.0527 A3.2167,3.2167 0 0 1 -1.014,3.0527 ZM1.5889,0.9355 T0.9405,2.3596 -0.2724,6.4716 -0.7768,12.6569 -0.124,19.2105 1.635,23.959 3.8594,26.9212 4.9172,28.1911 A2.8557,2.8557 0 0 1 0.7428,32.0889 T-1.7673,29.6002 -5.5708,23.9483 -7.1966,18.7508 -7.6901,14.5498 -7.7034,10.288 -6.7843,4.988 -5.1396,-0.0209 -4.266,-1.8248 A3.2365,3.2365 0 0 1 1.5889,0.9355 Z" stroke-linecap="round" fill="#4dabf7"/></g></g><g transform="matrix(1, 0, 0, 1, 543.1217, 578.6479)" opacity="1"><g transform="scale(1)"><path d="M2.0734,0.9218 T1.2484,2.9569 -1.3117,8.3586 -5.2724,14.4526 -8.9847,18.785 -10.4715,20.3897 A2.3514,2.3514 0 0 1 -14.0085,17.2903 T-12.6127,15.6056 -9.3208,11.4779 -5.7072,6.0324 -3.0316,1.0541 -2.0734,-0.9218 A2.269,2.269 0 0 1 2.0734,0.9218 Z" stroke-linecap="round" fill="#4dabf7"/></g></g><g transform="matrix(1, 0, 0, 1, 533.7025, 582.4156)" opacity="1"><g transform="scale(1)"><path d="M2.131,-0.2436 T3.2735,1.7459 5.9426,6.3929 9.0192,10.5148 11.7643,13.0337 12.9594,14.0883 A2.539,2.539 0 0 1 9.6406,17.9317 T8.4231,16.903 5.0124,13.6084 1.4294,8.7545 -1.0457,4.1452 -2.131,2.1236 A2.4377,2.4377 0 0 1 2.131,-0.2436 Z" stroke-linecap="round" fill="#4dabf7"/></g></g><g transform="matrix(1, 0, 0, 1, 556.3085, 581.4737)" opacity="1"><g transform="scale(1)"><path d="M1.9276,-0.6414 T2.4023,0.6858 3.8877,5.6077 5.3265,10.9366 5.7544,12.6707 A2.0512,2.0512 0 0 1 1.7856,13.7093 T0.9269,10.5864 -0.5152,5.3978 -1.513,1.9867 -1.9276,0.6414 A2.0315,2.0315 0 0 1 1.9276,-0.6414 Z" stroke-linecap="round" fill="#4dabf7"/></g></g><g transform="matrix(1, 0, 0, 1, 564.7858, 585.2413)" opacity="1"><g transform="scale(1)"><path d="M1.1575,2.9632 T-0.3825,3.8874 -5.1951,6.1859 -10.4622,8.1885 -12.4565,8.8169 A2.3446,2.3446 0 0 1 -13.9235,4.3631 T-11.9462,3.6832 -7.1403,1.8191 -2.7346,-0.2242 -1.1575,-1.0832 A2.3309,2.3309 0 0 1 1.1575,2.9632 Z" stroke-linecap="round" fill="#4dabf7"/></g></g><g transform="matrix(1, 0, 0, 1, 572.3211, 575.8222)" opacity="1"><g transform="scale(1)"><path d="M2.5733,-0.7731 T3.2673,1.4477 4.5961,7.0312 5.5912,13.1146 6.2419,17.5633 6.5324,19.2914 A2.8053,2.8053 0 0 1 1.0076,20.2686 T0.6876,18.5457 -0.0158,13.9521 -0.8417,8.1621 -1.9287,3.008 -2.5733,0.7731 A2.6869,2.6869 0 0 1 2.5733,-0.7731 Z" stroke-linecap="round" fill="#4dabf7"/></g></g><g transform="matrix(1, 0, 0, 1, 576.0888, 563.5773)" opacity="1"><g transform="scale(1)"><path d="M2.1497,-2.1497 T4.1247,-0.1131 7.4522,3.5167 10.8022,8.0065 13.7402,14.3766 14.9435,20.9121 15.0351,27.1137 14.396,32.8374 13.5753,36.858 13.2226,38.2946 A2.9278,2.9278 0 0 1 7.4974,37.0654 T7.9734,34.4896 8.733,29.4803 8.9388,24.2979 8.5754,18.9308 7.2216,13.6438 4.0381,8.5368 -0.1136,4.1241 -2.1497,2.1497 A3.0401,3.0401 0 0 1 2.1497,-2.1497 Z" stroke-linecap="round" fill="#4dabf7"/></g></g><g transform="matrix(1, 0, 0, 1, 598.6948, 559.8096)" opacity="1"><g transform="scale(1)"><path d="M3.3138,0.3673 T3.0948,2.3732 2.723,7.6564 2.5483,13.6863 2.5066,19.2336 2.6829,24.2374 3.5121,29.5351 5.7527,34.4238 7.3601,36.2236 A2.944,2.944 0 0 1 3.9399,41.0164 T1.5072,39.1374 -1.9968,34.2053 -3.4488,29.102 -4.0599,24.521 -4.2758,19.1748 -4.2182,13.5374 -3.97,7.1791 -3.5394,1.6379 -3.3138,-0.3673 A3.3341,3.3341 0 0 1 3.3138,0.3673 Z" stroke-linecap="round" fill="#4dabf7"/></g></g><g transform="matrix(1, 0, 0, 1, 620.3589, 568.2868)" opacity="1"><g transform="scale(1)"><path d="M2.3785,0.7145 T1.7832,2.9653 -0.3321,8.9076 -2.815,14.4554 -5.7177,19.2244 -8.8921,23.6403 -10.1267,25.1435 A2.6467,2.6467 0 0 1 -14.3533,21.9565 T-12.3902,19.1093 -8.7162,13.2242 -5.4351,6.9407 -3.1218,1.4904 -2.3785,-0.7145 A2.4835,2.4835 0 0 1 2.3785,0.7145 Z" stroke-linecap="round" fill="#4dabf7"/></g></g><g transform="matrix(1, 0, 0, 1, 610.9397, 572.9964)" opacity="1"><g transform="scale(1)"><path d="M2.0112,-1.7244 T3.3555,-0.1726 6.9511,4.0609 10.689,8.5948 13.9444,11.6247 15.7133,12.8024 A2.7656,2.7656 0 0 1 12.5467,17.3376 T10.0786,15.5568 6.2813,12.0755 2.7987,7.6149 -0.683,3.2896 -2.0112,1.7244 A2.6493,2.6493 0 0 1 2.0112,-1.7244 Z" stroke-linecap="round" fill="#4dabf7"/></g></g><g transform="matrix(1, 0, 0, 1, 631.6619, 579.5898)" opacity="1"><g transform="scale(1)"><path d="M0.94,-2.4902 T4.24,-2.4301 7.54,-2.3699 A2.3699,2.3699 0 0 1 7.54,2.3699 T4.24,2.4301 0.94,2.4902 A2.4902,2.4902 0 0 1 0.94,-2.4902 Z" stroke-linecap="round" fill="#4dabf7"/></g></g><g transform="matrix(1, 0, 0, 1, 647.6745, 563.5773)" opacity="1"><g transform="scale(1)"><path d="M2.2564,-0.5651 T2.9614,2.0984 4.263,6.803 5.3978,12.1859 6.5121,19.3412 7.0883,23.1548 A2.4109,2.4109 0 0 1 2.3317,23.9452 T1.612,19.9597 0.505,13.0653 -0.4358,8.0421 -1.6228,3.2465 -2.2564,0.5651 A2.3261,2.3261 0 0 1 2.2564,-0.5651 Z" stroke-linecap="round" fill="#4dabf7"/></g></g><g transform="matrix(1, 0, 0, 1, 653.326, 555.1)" opacity="1"><g transform="scale(1)"><path d="M2.3038,-2.0135 T3.8274,-0.1984 6.7088,3.5842 9.2467,7.4801 11.5501,11.594 13.3342,15.766 14.5709,19.8688 15.7085,24.7075 16.5796,29.8265 16.8288,34.5705 15.5531,40.7152 13.2411,46.4939 12.1446,48.4755 A3.0522,3.0522 0 0 1 6.6954,45.7245 T8.3071,42.4551 10.0676,36.0771 10.0075,30.8018 9.3771,26.0823 8.0833,19.994 6.2719,14.4603 4.2868,10.6797 2.062,7.2067 -0.7103,3.7648 -2.3038,2.0135 A3.0596,3.0596 0 0 1 2.3038,-2.0135 Z" stroke-linecap="round" fill="#4dabf7"/></g></g><g transform="matrix(1, 0, 0, 1, 676.8739, 533.4359)" opacity="1"><g transform="scale(1)"><path d="M0,-2.8356 T2.0018,-2.9047 5.9434,-3.5305 10.259,-5.532 14.5058,-8.0519 16.3768,-9.127 A2.9592,2.9592 0 0 1 19.4232,-4.053 T17.5948,-2.9069 12.7486,0.0396 6.8747,2.4069 2.0093,2.9047 0,2.8356 A2.8356,2.8356 0 0 1 0,-2.8356 Z" stroke-linecap="round" fill="#4dabf7"/></g></g><g transform="matrix(1, 0, 0, 1, 784.2524, 468.4437)" opacity="1"><g transform="scale(1)"><path d="M2.7972,0.5583 T2.386,2.7941 1.2726,7.2769 -0.7459,12.1742 -3.1232,17.1629 -6.818,23.2975 -11.2204,29.0404 -12.9892,30.9872 A2.743,2.743 0 0 1 -17.1508,27.4128 T-15.4933,25.3704 -11.7863,20.1336 -8.5905,14.494 -6.2591,9.8495 -4.4137,5.7657 -3.2753,1.6616 -2.7972,-0.5583 A2.8524,2.8524 0 0 1 2.7972,0.5583 Z" stroke-linecap="round" fill="#4dabf7"/></g></g><g transform="matrix(1, 0, 0, 1, 767.2979, 477.8628)" opacity="1"><g transform="scale(1)"><path d="M1.7422,-2.0899 T3.0925,-0.9902 7.1603,3.3528 11.8741,9.5429 16.2137,14.716 20.0473,18.2642 21.5376,19.586 A2.7186,2.7186 0 0 1 18.0224,23.734 T14.9801,21.2686 10.4128,17.2323 7.0269,12.8205 3.0342,7.1628 -0.42,3.2181 -1.7422,2.0899 A2.7209,2.7209 0 0 1 1.7422,-2.0899 Z" stroke-linecap="round" fill="#4dabf7"/></g></g><g transform="matrix(1, 0, 0, 1, 847.3608, 513.6557)" opacity="1"><g transform="scale(1)"><path d="M0.7302,2.4347 T-3.7183,3.795 -12.7303,6.5693 -21.9731,9.2387 -31.1003,11.633 -39.6497,13.8525 -48.0125,15.7781 -56.1469,17.1009 -63.6367,17.8405 -70.0432,18.2381 -75.6562,18.4563 -81.0796,18.5446 -86.6145,18.4493 -91.7595,18.2365 -96.4294,18.0238 -98.889,17.9229 A2.8529,2.8529 0 0 1 -98.911,12.2171 T-96.4522,12.0973 -91.7896,11.8487 -86.6748,11.5866 -81.1964,11.3979 -75.8728,11.309 -70.3913,11.1909 -64.2005,10.9503 -57.0849,10.479 -49.3346,9.5041 -41.0814,7.9133 -32.4799,6.0004 -23.4321,3.9371 -14.2443,1.5225 -5.193,-1.1225 -0.7302,-2.4347 A2.5418,2.5418 0 0 1 0.7302,2.4347 Z" stroke-linecap="round" fill="#4dabf7"/></g></g><g transform="matrix(1, 0, 0, 1, 772.0075, 558.8677)" opacity="1"><g transform="scale(1)"><path d="M2.4268,0.94 T2.4929,3.1762 2.136,7.568 0.7587,11.8738 -1.434,15.8675 -5.7593,20.1792 -10.8544,23.7267 -12.8627,24.8059 A2.5354,2.5354 0 0 1 -15.3973,20.4141 T-12.1108,18.4698 -7.0108,14.0546 -3.8781,8.4812 -2.4929,3.1595 -2.4268,0.94 A2.4268,2.4268 0 0 1 2.4268,0.94 Z" stroke-linecap="round" fill="#4dabf7"/></g></g><g transform="matrix(1, 0, 0, 1, 756.9368, 563.5773)" opacity="1"><g transform="scale(1)"><path d="M1.5195,-2.1261 T3.0939,-1.0345 6.8666,1.4826 11.3089,4.4443 15.5262,7.1918 18.7805,9.0886 20.0613,9.7742 A2.7517,2.7517 0 0 1 17.6187,14.7058 T16.2972,14.1025 12.7212,12.2021 8.1361,9.1427 3.6856,5.8894 0.0232,3.2623 -1.5195,2.1261 A2.6133,2.6133 0 0 1 1.5195,-2.1261 Z" stroke-linecap="round" fill="#4dabf7"/></g></g><g transform="matrix(1, 0, 0, 1, 794.6135, 554.1581)" opacity="1"><g transform="scale(1)"><path d="M2.0285,-0.6769 T2.757,1.3105 3.9017,5.3948 4.6791,11.1596 5.0403,14.8276 A2.2235,2.2235 0 0 1 0.6197,15.3124 T0.3914,13.4263 -0.3226,8.1321 -1.4184,2.7005 -2.0285,0.6769 A2.1384,2.1384 0 0 1 2.0285,-0.6769 Z" stroke-linecap="round" fill="#4dabf7"/></g></g><g transform="matrix(1, 0, 0, 1, 801.2069, 562.6353)" opacity="1"><g transform="scale(1)"><path d="M0.2555,2.3048 T-1.7556,2.4767 -6.0064,2.8497 -8.246,3.0507 A2.1236,2.1236 0 0 1 -8.714,-1.1707 T-6.4847,-1.465 -2.2554,-2.0321 -0.2555,-2.3048 A2.3189,2.3189 0 0 1 0.2555,2.3048 Z" stroke-linecap="round" fill="#4dabf7"/></g></g><g transform="matrix(1, 0, 0, 1, 808.7422, 547.5647)" opacity="1"><g transform="scale(1)"><path d="M2.3285,-1.1643 T3.2402,0.6108 4.94,4.5955 6.3504,8.8183 7.4941,13.8985 8.1856,18.701 8.3559,20.4366 A2.7207,2.7207 0 0 1 2.9441,21.0034 T2.751,19.2703 2.1344,14.9672 1.1589,10.4651 0.0108,6.6399 -1.457,2.9556 -2.3285,1.1643 A2.6034,2.6034 0 0 1 2.3285,-1.1643 Z" stroke-linecap="round" fill="#4dabf7"/></g></g><g transform="matrix(1, 0, 0, 1, 814.3937, 537.2036)" opacity="1"><g transform="scale(1)"><path d="M1.924,-1.924 T3.2675,-0.5661 5.7793,2.9342 7.9702,7.7274 9.777,13.158 11.2016,18.4885 12.2118,23.3818 12.6369,29.404 11.855,36.1192 8.8638,41.6361 6.7096,44.1173 A2.6423,2.6423 0 0 1 2.7104,40.6627 T4.2259,38.8955 6.2446,34.8743 6.7394,29.5891 6.4693,24.4677 5.6495,19.8916 4.4453,14.8558 2.2666,8.4294 -0.595,3.2385 -1.924,1.924 A2.7209,2.7209 0 0 1 1.924,-1.924 Z" stroke-linecap="round" fill="#4dabf7"/></g></g><g transform="matrix(1, 0, 0, 1, 754.111, 550.3904)" opacity="1"><g transform="scale(1)"><path d="M2.9057,1.0894 T1.5989,4.6641 -0.5739,11.3422 -1.8864,16.6911 -2.5829,21.3505 -3.065,27.5263 -2.7459,33.3543 -1.6425,36.9563 -1.0903,38.4922 A2.8846,2.8846 0 0 1 -6.4497,40.6278 T-7.1051,39.1331 -8.6625,34.3631 -9.3824,27.1088 -8.9357,20.3804 -8.141,15.1497 -6.624,9.343 -4.2713,2.464 -2.9057,-1.0894 A3.1032,3.1032 0 0 1 2.9057,1.0894 Z" stroke-linecap="round" fill="#4dabf7"/></g></g><g transform="matrix(1, 0, 0, 1, 837.9416, 535.3198)" opacity="1"><g transform="scale(1)"><path d="M2.3328,2.0001 T1.0161,3.5163 -1.0205,8.5428 -1.7637,14.8627 -1.1435,21.6833 0.5499,28.6062 2.9029,33.8723 4.2059,36.2263 A2.7428,2.7428 0 0 1 -0.4459,39.1337 T-1.3411,37.8575 -3.7996,33.7564 -6.0916,28.8636 -7.2069,24.5773 -7.8789,20.2415 -8.0351,14.5249 -7.4674,8.6999 -6.0367,3.8378 -3.6886,-0.3992 -2.3328,-2.0001 A3.0729,3.0729 0 0 1 2.3328,2.0001 Z" stroke-linecap="round" fill="#4dabf7"/></g></g><g transform="matrix(1, 0, 0, 1, 860.5476, 542.8551)" opacity="1"><g transform="scale(1)"><path d="M1.9338,1.0741 T0.8645,3.1042 -2.2857,9.1626 -5.7641,15.315 -9.3909,20.2136 -12.9397,24.4865 -14.2593,25.9848 A2.302,2.302 0 0 1 -17.7607,22.9952 T-16.4876,21.4571 -13.2324,17.3372 -9.9246,12.7303 -6.4249,6.7965 -3.0923,0.9069 -1.9338,-1.0741 A2.212,2.212 0 0 1 1.9338,1.0741 Z" stroke-linecap="round" fill="#4dabf7"/></g></g><g transform="matrix(1, 0, 0, 1, 848.3027, 547.5647)" opacity="1"><g transform="scale(1)"><path d="M1.8615,-1.596 T3.189,-0.03 6.5579,3.9712 10.3909,8.0348 14.0289,11.4721 15.8752,13.281 A2.4992,2.4992 0 0 1 12.3848,16.859 T10.5495,15.0763 6.6903,11.3234 2.7473,7.0257 -0.5166,3.1471 -1.8615,1.596 A2.452,2.452 0 0 1 1.8615,-1.596 Z" stroke-linecap="round" fill="#4dabf7"/></g></g><g transform="matrix(1, 0, 0, 1, 869.0249, 555.1)" opacity="1"><g transform="scale(1)"><path d="M-0.2038,-2.0421 T2.0223,-2.2816 6.7291,-2.7843 9.2097,-3.0474 A2.1179,2.1179 0 0 1 9.6303,1.1674 T7.1466,1.3997 2.4333,1.837 0.2038,2.0421 A2.0523,2.0523 0 0 1 -0.2038,-2.0421 Z" stroke-linecap="round" fill="#4dabf7"/></g></g><g transform="matrix(1, 0, 0, 1, 885.9794, 543.797)" opacity="1"><g transform="scale(1)"><path d="M2.1699,-0.7241 T2.8463,1.2801 4.1312,6.5662 5.235,12.5389 5.9131,16.9042 6.0958,18.5787 A2.3404,2.3404 0 0 1 1.4442,19.1013 T1.2508,17.428 0.5747,13.1229 -0.3768,7.6145 -1.5077,2.731 -2.1699,0.7241 A2.2875,2.2875 0 0 1 2.1699,-0.7241 Z" stroke-linecap="round" fill="#4dabf7"/></g></g><g transform="matrix(1, 0, 0, 1, 890.689, 531.5521)" opacity="1"><g transform="scale(1)"><path d="M2.4209,-1.1175 T3.7369,1.7872 6.0425,7.4402 8.2159,14.5515 9.7324,22.2441 9.8987,28.7809 8.6709,34.6569 6.7666,38.6263 5.9238,39.9269 A2.5193,2.5193 0 0 1 1.6162,37.3131 T2.9679,34.285 4.4348,28.6017 4.2779,22.87 3.7228,17.7496 2.7293,13.827 1.1554,9.4177 -1.0644,4.0023 -2.4209,1.1175 A2.6664,2.6664 0 0 1 2.4209,-1.1175 Z" stroke-linecap="round" fill="#4dabf7"/></g></g><g transform="matrix(1, 0, 0, 1, 927.4237, 501.4108)" opacity="1"><g transform="scale(1)"><path d="M-2.4788,0 T-2.4593,-1.4875 -4.3844,-0.9608 -6.8574,3.8199 -7.0601,8.551 -5.3746,13.1634 -1.9962,15.7735 1.5435,13.5159 3.7289,9.0334 5.0146,3.9876 6.2603,-2.6633 7.0334,-10.2685 6.8488,-17.0199 5.9078,-22.9578 4.7625,-27.8607 3.5113,-31.9795 1.8031,-35.9525 1.7263,-37.7958 3.2041,-33.8751 4.0123,-27.7876 4.8669,-22.1253 6.0187,-15.8843 7.5482,-8.8339 9.2887,-1.3509 11.1156,5.6708 13.1233,12.6631 15.1397,19.3475 16.2183,22.8932 A2.1891,2.1891 0 0 1 12.0417,24.2068 T10.8965,20.682 8.6933,13.9497 6.6142,6.7815 4.9135,-0.3846 3.3351,-7.9852 1.9505,-15.1869 0.9566,-21.6201 0.2706,-27.3253 -0.2809,-32.3541 -0.0662,-37.9555 2.018,-40.2996 4.85,-37.6358 6.965,-33.0565 8.3494,-28.7618 9.6739,-23.6146 10.8796,-17.2405 11.3847,-9.9279 10.9355,-1.8411 9.8617,5.2184 8.4336,10.9755 5.1033,16.9644 0.3693,21.1112 -3.8057,21.4067 -7.7923,18.2306 -10.7589,13.4827 -12.0191,8.6534 -11.5983,2.4836 -8.7139,-4.0456 -4.6173,-7.4885 -0.1068,-5.6032 2.4593,-1.6296 2.4788,0 A2.4788,2.4788 0 0 1 -2.4788,0 Z" stroke-linecap="round" fill="#4dabf7"/></g></g><g transform="matrix(1, 0, 0, 1, 968.868, 489.1658)" opacity="1"><g transform="scale(1)"><path d="M1.9719,0.5387 T1.3319,2.9971 -0.3197,8.3936 -2.049,13.8912 -3.6476,18.7964 -6.4414,24.0589 -9.5098,28.2896 -10.6654,29.6037 A2.07,2.07 0 0 1 -13.8146,26.9163 T-12.6986,25.5684 -10.1189,21.9106 -7.8415,17.4063 -6.2261,12.5399 -4.3967,7.1065 -2.6705,1.9032 -1.9719,-0.5387 A2.0442,2.0442 0 0 1 1.9719,0.5387 Z" stroke-linecap="round" fill="#4dabf7"/></g></g><g transform="matrix(1, 0, 0, 1, 950.9716, 493.8754)" opacity="1"><g transform="scale(1)"><path d="M1.8444,-1.8444 T4.05,0.4073 7.9794,4.8353 12.2207,10.3052 17.15,16.8728 20.7592,22.7579 22.5191,26.788 23.0816,28.2071 A2.5618,2.5618 0 0 1 18.3584,30.1929 T17.224,27.6464 14.5466,22.4791 10.6654,16.5878 7.0051,11.74 4.1693,8.2073 0.4057,4.0484 -1.8444,1.8444 A2.6084,2.6084 0 0 1 1.8444,-1.8444 Z" stroke-linecap="round" fill="#4dabf7"/></g></g><g transform="matrix(1, 0, 0, 1, 579.8565, 504.2365)" opacity="1"><g transform="scale(1)"><path d="M-3.269,0.7111 T-3.4649,-0.3167 -3.6607,-1.3445 A3.2913,3.2913 0 0 1 2.7715,-2.7436 T3.0203,-1.7273 3.269,-0.7111 A3.3455,3.3455 0 0 1 -3.269,0.7111 ZM-1.0411,1.1928 T-2.0142,0.9996 -6.535,2.2942 -12.4469,4.9642 -17.6597,7.4851 -23.5591,10.2085 -29.504,12.9779 -34.9851,15.7312 -39.4282,18.0644 -43.1589,19.9865 -47.0801,22.061 -50.8673,24.1886 -55.1976,26.8389 -60.6193,29.9842 -64.96,32.152 -66.4685,32.814 A2.9962,2.9962 0 0 1 -69.1715,27.466 T-67.7438,26.6441 -64.0526,24.3124 -59.0369,20.9272 -54.4768,17.9402 -50.5221,15.6059 -46.5199,13.4413 -42.818,11.5469 -38.2286,9.1783 -32.4938,6.3934 -26.4546,3.7249 -20.5997,1.2007 -15.3467,-1.1648 -10.6386,-3.3044 -5.1563,-4.9705 -0.8925,-5.4595 0.1518,-5.2809 A3.2913,3.2913 0 0 1 -1.0411,1.1928 Z" stroke-linecap="round" fill="#4dabf7"/></g></g><g transform="matrix(1, 0, 0, 1, 587.3918, 556.0419)" opacity="1"><g transform="scale(1)"><path d="M1.6916,2.6312 T-1.4191,4.6502 -7.8805,9.062 -14.7135,14.2619 -22.4947,20.583 -29.9018,26.8256 -35.7954,31.9276 -41.9173,36.7423 -48.1147,41.1403 -53.431,44.5871 -59.0863,48.0216 -65.7078,51.1606 -70.9206,52.7024 -72.7118,53.0495 A3.22,3.22 0 0 1 -74.2282,46.7905 T-72.4768,46.2793 -68.318,44.7306 -62.8152,41.7323 -57.4125,38.3665 -52.3116,35.112 -46.353,31.0214 -40.3942,26.496 -34.3502,21.4772 -26.7166,15.2735 -18.6395,8.9721 -11.4468,3.7464 -4.8198,-0.6391 -1.6916,-2.6312 A3.128,3.128 0 0 1 1.6916,2.6312 Z" stroke-linecap="round" fill="#4dabf7"/></g></g><g transform="matrix(1, 0, 0, 1, 438.569, 683.2007)" opacity="1"><g transform="scale(1)"><path d="M0.3167,-2.5401 T2.1107,-2.405 6.3711,-2.1969 11.0744,-2.0161 14.6795,-1.8245 16.0474,-1.7407 A2.6809,2.6809 0 0 1 15.9726,3.6207 T14.6028,3.6663 10.8814,3.7203 5.8789,3.444 1.4557,2.8497 -0.3167,2.5401 A2.5597,2.5597 0 0 1 0.3167,-2.5401 Z" stroke-linecap="round" fill="#4dabf7"/></g></g><g transform="matrix(1, 0, 0, 1, 445.1624, 698.2713)" opacity="1"><g transform="scale(1)"><path d="M0,-2.6855 T2.2267,-2.6806 8.1936,-3.0754 11.9339,-3.4751 A2.5535,2.5535 0 0 1 12.5461,1.5951 T10.4985,1.8722 6.4544,2.4125 2.229,2.6806 0,2.6855 A2.6855,2.6855 0 0 1 0,-2.6855 Z" stroke-linecap="round" fill="#4dabf7"/></g></g><g transform="matrix(1, 0, 0, 1, 489.4325, 678.4911)" opacity="1"><g transform="scale(1)"><path d="M-2.856,-1.2265 T-2.1654,-2.7716 -1.0278,-6.8516 -0.6681,-11.8698 -1.397,-16.2832 -3.1622,-19.3276 -4.2857,-20.442 A3.1154,3.1154 0 0 1 -0.2122,-25.1567 T1.7768,-22.7367 4.5261,-17.7055 5.3495,-11.8572 4.7822,-5.2688 3.504,-0.3455 2.856,1.2265 A3.1082,3.1082 0 0 1 -2.856,-1.2265 ZM-0.9401,-19.9722 T-1.5227,-19.7039 -2.1052,-19.4355 A3.113,3.113 0 0 1 -4.7208,-25.0854 T-4.1393,-25.3559 -3.5577,-25.6264 A3.1154,3.1154 0 0 1 -0.9401,-19.9722 ZM-0.4292,-21.3729 T-0.7473,-20.345 -1.6298,-17.0044 -2.3594,-12.54 -2.3756,-6.956 -2.1126,-1.3451 -1.3895,4.0453 -0.127,9.8221 1.1083,14.8839 2.4182,19.9428 3.9709,24.9346 5.6797,29.7554 7.4873,34.5149 9.1871,39.6226 10.5908,44.8861 11.79,49.8538 12.7094,54.6016 13.2597,59.0472 13.0987,63.4022 12.0293,67.5239 10.0856,71.1583 5.4692,75.0372 0.021,77.6968 -5.9736,77.9448 -11.8356,76.9951 -16.7414,73.99 -20.7584,69.4875 -22.612,65.3883 -23.4175,63.4771 A2.9975,2.9975 0 0 1 -18.0225,60.8629 T-16.4486,63.8374 -13.0619,68.1137 -8.5585,70.067 -3.4151,70.5655 1.1028,69.3802 4.5126,66.2483 6.132,60.9594 6.1904,55.7377 5.476,51.3031 4.4188,46.4579 3.2283,41.5559 1.6929,36.6728 -0.0984,31.7727 -1.835,26.7191 -3.4363,21.4285 -4.7276,16.2745 -6.2935,9.6109 -7.6136,3.2658 -8.0107,-0.8627 -8.3197,-6.8083 -8.3645,-13.1839 -7.5958,-18.3492 -6.6922,-22.1133 -6.3968,-23.148 A3.113,3.113 0 0 1 -0.4292,-21.3729 Z" stroke-linecap="round" fill="#4dabf7"/></g></g><g transform="matrix(1, 0, 0, 1, 559.1343, 652.1174)" opacity="1"><g transform="scale(1)"><path d="M2.3743,-0.7133 T3.093,1.5009 4.2484,5.9258 5.2679,11.6878 5.8596,18.6301 5.659,23.8326 5.4496,25.6443 A2.6284,2.6284 0 0 1 0.2104,25.2157 T0.3739,22.0418 0.1045,15.6285 -0.7315,8.7926 -1.7544,2.9547 -2.3743,0.7133 A2.4791,2.4791 0 0 1 2.3743,-0.7133 Z" stroke-linecap="round" fill="#4dabf7"/></g></g><g transform="matrix(1, 0, 0, 1, 619.417, 694.5037)" opacity="1"><g transform="scale(1)"><path d="M1.1964,2.691 T-0.812,3.5791 -7.3466,5.3529 -15.0899,6.4381 -21.9008,6.9949 -29.7186,7.5717 -38.3034,8.1359 -47.1909,8.8983 -55.864,9.7718 -63.7435,10.6835 -70.8885,11.8025 -76.7699,13.0349 -82.1015,14.2739 -87.9294,15.434 -94.1105,16.4923 -97.3262,17.0603 A2.9981,2.9981 0 0 1 -98.5938,11.1997 T-95.4308,10.388 -89.5081,8.8283 -83.8184,7.244 -78.2898,5.8156 -72.0183,4.5263 -64.5485,3.3915 -56.5345,2.5575 -47.7314,1.8148 -38.6703,1.2068 -30.1066,0.8578 -22.294,0.5456 -15.5116,0.2593 -8.8276,-0.3515 -3.1991,-1.7959 -1.1964,-2.691 A2.945,2.945 0 0 1 1.1964,2.691 Z" stroke-linecap="round" fill="#4dabf7"/></g></g><g transform="matrix(1, 0, 0, 1, 550.657, 727.4708)" opacity="1"><g transform="scale(1)"><path d="M2.9566,1.2665 T1.629,4.3903 -1.1082,10.1969 -3.7352,14.7939 -6.7189,19.102 -9.8641,23.2092 -12.9208,26.7657 -17.0157,29.9542 -21.6798,32.4727 -23.9268,33.6455 A2.9734,2.9734 0 0 1 -26.9332,28.5145 T-23.308,26.1759 -18.1478,22.1645 -15.2796,18.9179 -12.2531,15.187 -9.4405,11.3805 -6.9837,7.3472 -4.3015,1.8486 -2.9566,-1.2665 A3.2164,3.2164 0 0 1 2.9566,1.2665 Z" stroke-linecap="round" fill="#4dabf7"/></g></g><g transform="matrix(1, 0, 0, 1, 529.9349, 736.8899)" opacity="1"><g transform="scale(1)"><path d="M1.7859,-2.2313 T2.8951,-1.3292 6.0886,1.9996 9.8188,6.4438 13.6619,10.8471 17.952,14.7386 21.6044,17.2713 23.1639,18.2981 A2.8509,2.8509 0 0 1 20.1561,23.1419 T18.5442,22.1994 14.1526,19.3288 9.0314,14.7644 5.0863,9.9999 1.9671,5.9326 -0.6673,3.1124 -1.7859,2.2313 A2.858,2.858 0 0 1 1.7859,-2.2313 Z" stroke-linecap="round" fill="#4dabf7"/></g></g><g transform="matrix(1, 0, 0, 1, 561.0181, 744.4253)" opacity="1"><g transform="scale(1)"><path d="M0,-2.666 T1.7805,-2.7074 5.9785,-3.1244 10.9127,-3.9175 15.0479,-4.481 16.6666,-4.6269 A2.7615,2.7615 0 0 1 17.2334,0.8669 T15.619,1.0546 11.4878,1.6921 6.2714,2.4455 1.786,2.7074 0,2.666 A2.666,2.666 0 0 1 0,-2.666 Z" stroke-linecap="round" fill="#4dabf7"/></g></g><g transform="matrix(1, 0, 0, 1, 588.3337, 728.4127)" opacity="1"><g transform="scale(1)"><path d="M2.8219,-1.0269 T3.7392,1.414 5.6965,7.6872 7.0326,13.6788 7.4608,17.8809 7.7325,22.1012 7.8718,24.2788 A3.1689,3.1689 0 0 1 1.5482,24.7012 T1.3967,22.5244 0.9171,16.6091 -0.2505,9.4081 -1.9559,3.4863 -2.8219,1.0269 A3.003,3.003 0 0 1 2.8219,-1.0269 Z" stroke-linecap="round" fill="#4dabf7"/></g></g><g transform="matrix(1, 0, 0, 1, 645.7906, 702.039)" opacity="1"><g transform="scale(1)"><path d="M-0.3046,-2.4173 T2.1394,-2.6971 8.5192,-3.9242 16.0859,-5.5553 21.7481,-6.6313 23.7793,-7.0235 A3.3302,3.3302 0 0 1 25.2007,-0.5165 T23.1909,-0.026 17.6864,1.2327 9.7044,2.9843 2.7609,4.1325 0.3046,4.2973 A3.3711,3.3711 0 0 1 -0.3046,-2.4173 Z" stroke-linecap="round" fill="#4dabf7"/></g></g><g transform="matrix(1, 0, 0, 1, 755.9949, 646.4659)" opacity="1"><g transform="scale(1)"><path d="M2.2694,2.8827 T0.9447,4.4535 -1.7092,7.7101 -4.3947,11.1829 -7.0494,15.1223 -9.6518,18.8839 -12.2551,22.0781 -15.0248,25.4696 -16.4951,27.2761 A2.9845,2.9845 0 0 1 -21.1849,23.5839 T-19.7739,21.7306 -16.0129,16.9374 -12.157,11.5866 -9.2257,7.3755 -6.3827,3.8372 -3.6172,0.5483 -2.2694,-1.0027 A2.9873,2.9873 0 0 1 2.2694,2.8827 Z" stroke-linecap="round" fill="#4dabf7"/></g></g><g transform="matrix(1, 0, 0, 1, 739.9823, 650.2336)" opacity="1"><g transform="scale(1)"><path d="M2.2252,-1.2977 T3.8058,1.3618 7.5648,7.0045 11.8424,11.9599 16.9135,15.1741 19.8853,16.4161 A2.6397,2.6397 0 0 1 17.7947,21.2639 T16.0084,20.5182 11.3094,17.9496 6.9723,14.7332 4.2634,11.6891 1.9133,8.3535 -0.6888,3.9831 -2.2252,1.2977 A2.576,2.576 0 0 1 2.2252,-1.2977 Z" stroke-linecap="round" fill="#4dabf7"/></g></g><g transform="matrix(1, 0, 0, 1, 706.0733, 700.1552)" opacity="1"><g transform="scale(1)"><path d="M-0.4309,-3.4566 T1.3543,-3.664 7.0221,-4.2981 13.3011,-5.1285 18.6594,-6.1953 25.1156,-7.8772 31.5484,-9.8823 39.4834,-12.2965 48.1384,-14.8839 56.186,-16.9139 64.1503,-18.4203 70.351,-19.3964 76.0068,-19.8756 81.3434,-20.2657 85.9073,-20.6372 90.2015,-21.1451 94.7737,-22.0294 97.3094,-22.5263 A2.8223,2.8223 0 0 1 98.6106,-17.0337 T96.1214,-16.3403 91.1587,-14.9658 86.6122,-14.0653 82.012,-13.4517 76.7266,-12.8252 71.5253,-12.2282 65.5701,-11.1621 58.0793,-9.637 50.335,-7.6021 41.6976,-5.007 33.7202,-2.6585 26.8681,-0.6972 19.9544,0.92 14.3213,1.8857 7.9244,2.6065 2.2121,3.2194 0.4309,3.4566 A3.4834,3.4834 0 0 1 -0.4309,-3.4566 Z" stroke-linecap="round" fill="#4dabf7"/></g></g><g transform="matrix(1, 0, 0, 1, 727.7374, 730.2965)" opacity="1"><g transform="scale(1)"><path d="M2.4122,1.38 T1.5816,2.9729 -0.7166,7.4182 -3.8178,12.8967 -7.973,17.7521 -11.8616,21.0043 -13.2286,22.0272 A2.9053,2.9053 0 0 1 -16.9114,17.5328 T-15.6397,16.3936 -12.5674,13.548 -9.0777,9.3443 -5.853,4.2576 -3.3648,0.1442 -2.4122,-1.38 A2.779,2.779 0 0 1 2.4122,1.38 Z" stroke-linecap="round" fill="#4dabf7"/></g></g><g transform="matrix(1, 0, 0, 1, 712.6667, 736.8899)" opacity="1"><g transform="scale(1)"><path d="M1.2961,-1.1348 T3.0929,-0.0421 7.6253,3.1377 12.3716,6.8482 17.1927,10.1611 20.0031,11.8505 A2.5591,2.5591 0 0 1 17.6769,16.4095 T16.4798,15.8223 13.2778,13.9918 9.1396,10.9768 4.6246,7.2451 0.4735,4.1499 -1.2961,3.0148 A2.4464,2.4464 0 0 1 1.2961,-1.1348 Z" stroke-linecap="round" fill="#4dabf7"/></g></g><g transform="matrix(1, 0, 0, 1, 732.447, 711.4582)" opacity="1"><g transform="scale(1)"><path d="M-1.0981,-2.9258 T0.685,-3.6016 6.1882,-4.7275 12.4336,-4.3627 16.3225,-1.4743 17.3133,3.4856 15.1353,8.7294 11.5147,12.6141 9.6995,14.1413 A3.2063,3.2063 0 0 1 5.7737,9.0709 T7.8322,7.3166 9.8031,3.4035 7.19,1.4225 2.8814,2.263 1.0981,2.9258 A3.1251,3.1251 0 0 1 -1.0981,-2.9258 ZM10.9184,12.001 T10.8767,12.3762 10.8349,12.7514 A3.2158,3.2158 0 0 1 4.4522,11.9592 T4.5035,11.5852 4.5547,11.2112 A3.2063,3.2063 0 0 1 10.9184,12.001 ZM8.8078,9.3576 T10.225,9.906 14.2352,10.0207 18.8399,9.0907 20.8516,8.5943 A2.8238,2.8238 0 0 1 22.4684,14.0057 T20.5141,14.6943 16.6517,16.0547 12.4948,16.7731 8.3627,16.0864 6.4794,15.353 A3.2158,3.2158 0 0 1 8.8078,9.3576 Z" stroke-linecap="round" fill="#4dabf7"/></g></g><g transform="matrix(1, 0, 0, 1, 765.414, 735.0061)" opacity="1"><g transform="scale(1)"><path d="M-0.4848,-2.1868 T1.507,-2.6888 6.7176,-4.4616 12.2903,-6.4373 17.2986,-7.9877 19.9529,-8.8332 A2.3707,2.3707 0 0 1 21.4871,-4.3468 T20.1133,-3.846 16.3192,-2.4755 11.3053,-0.774 6.6176,0.735 2.5041,1.7995 0.4848,2.1868 A2.2399,2.2399 0 0 1 -0.4848,-2.1868 Z" stroke-linecap="round" fill="#4dabf7"/></g></g><g transform="matrix(1, 0, 0, 1, 792.7296, 715.2258)" opacity="1"><g transform="scale(1)"><path d="M2.4048,-1.0933 T3.5377,1.3514 5.3596,6.1751 7.1181,11.9381 8.481,17.5233 9.05,21.9235 9.3254,24.1225 A2.76,2.76 0 0 1 3.8546,24.8575 T3.3038,20.9222 1.7541,13.4824 0.2701,7.9911 -1.3099,3.5488 -2.4048,1.0933 A2.6417,2.6417 0 0 1 2.4048,-1.0933 Z" stroke-linecap="round" fill="#4dabf7"/></g></g><g transform="matrix(1, 0, 0, 1, 850.1865, 666.2462)" opacity="1"><g transform="scale(1)"><path d="M-2.0909,1.0455 T-2.9747,-0.7225 -5.6079,-3.4467 -8.2993,-2.5906 -9.4703,1.3088 -8.8759,5.656 -6.2583,9.6653 -1.5791,12.1428 3.1203,11.8509 6.3123,8.9675 8.6332,3.7029 9.5527,-3.2297 9.1343,-8.932 8.3125,-13.4797 6.8902,-19.1807 4.807,-24.9194 3.167,-27.9245 2.6151,-28.5149 A2.4562,2.4562 0 0 1 6.338,-31.7199 T7.8476,-29.3649 10.4192,-24.0366 12.2436,-18.9597 13.4991,-14.4729 14.5293,-7.8542 15.089,-1.157 14.6586,3.6303 13.4021,7.8951 10.2131,12.6766 4.2794,16.8342 -1.3035,17.7973 -5.4786,16.3825 -9.9497,12.728 -13.1374,8.301 -14.0602,3.5597 -13.3415,-2.2256 -10.2959,-6.9832 -5.2481,-8.2231 -1.0846,-6.1133 1.1915,-2.8439 2.0909,-1.0455 A2.3377,2.3377 0 0 1 -2.0909,1.0455 ZM4.4428,-27.6614 T4.0535,-27.6712 3.6641,-27.6811 A2.4473,2.4473 0 0 1 3.7314,-32.5751 T4.1208,-32.5742 4.5103,-32.5734 A2.4562,2.4562 0 0 1 4.4428,-27.6614 ZM6.1447,-30.1657 T6.1534,-29.0573 6.8777,-25.5365 8.1587,-21.0975 9.968,-14.9683 12.0539,-8.2743 13.7824,-3.2378 15.3682,1.4623 16.6239,5.8132 17.7973,10.2086 18.4142,12.5077 A2.4992,2.4992 0 0 1 13.6058,13.8723 T12.9231,11.5917 11.6304,7.2969 10.35,3.1214 8.8107,-1.5904 7.1494,-6.8021 5.6846,-11.9135 4.0371,-17.9175 2.1819,-24.667 1.2763,-28.9766 1.2508,-30.0904 A2.4473,2.4473 0 0 1 6.1447,-30.1657 Z" stroke-linecap="round" fill="#4dabf7"/></g></g><g transform="matrix(1, 0, 0, 1, 899.1662, 648.3498)" opacity="1"><g transform="scale(1)"><path d="M2.8519,1.6392 T1.5335,3.2106 -1.0237,6.8122 -3.3513,11.005 -5.5263,15.0778 -8.5044,19.03 -12.3108,23.1094 -14.2253,25.1469 A2.3949,2.3949 0 0 1 -17.7947,21.9531 T-15.9818,19.8247 -12.7153,15.9994 -10.2271,12.5015 -7.9444,8.3613 -5.1882,3.737 -2.326,-0.0936 -0.9719,-1.6392 A2.5184,2.5184 0 0 1 2.8519,1.6392 Z" stroke-linecap="round" fill="#4dabf7"/></g></g><g transform="matrix(1, 0, 0, 1, 879.386, 652.1174)" opacity="1"><g transform="scale(1)"><path d="M1.7083,-2.1982 T3.7127,-0.6383 8.8135,4.0367 13.4498,9.0399 16.3043,12.9173 18.7435,16.8645 21.0778,20.9281 22.2874,23.0338 A2.8996,2.8996 0 0 1 17.2726,25.9462 T16.0431,23.8521 13.7492,19.9466 11.5327,16.3555 8.9363,12.6961 4.8985,8.0644 0.2983,3.7554 -1.7083,2.1982 A2.784,2.784 0 0 1 1.7083,-2.1982 Z" stroke-linecap="round" fill="#4dabf7"/></g></g></svg>