<svg xmlns="http://www.w3.org/2000/svg" direction="ltr" width="726.6395917884502" height="797.6695488989644" viewBox="2284.5974125956163 23409.09762589461 726.6395917884502 797.6695488989644" stroke-linecap="round" stroke-linejoin="round" style="background-color: transparent;"><defs/><g transform="matrix(1, 0, 0, 1, 2318.3811, 23759.9691)" opacity="1"><g transform="scale(1)"><path d="M0,0 Q1.751,-0.5837 2.5214,-1.0343 T5.462,-2.8996 9.1068,-5.3759 11.6755,-7.3066 13.9485,-8.9407 16.0604,-10.4132 17.793,-11.8003 19.3193,-13.1408 20.7355,-14.1619 22.0919,-15.0092 23.4134,-16.0538 24.716,-17.2057 26.0083,-18.4161 27.295,-19.6582 28.5786,-20.6257 29.8629,-21.4462 31.1475,-22.4785 32.43,-23.6237 33.7114,-24.8304 34.9921,-26.0706 36.2725,-27.3289 37.5527,-28.5971 38.8328,-30.1648 40.1152,-31.8954 41.3987,-33.4205 42.6807,-34.8339 43.9617,-36.4783 45.2423,-38.2483 46.5226,-39.7972 47.8028,-41.2258 49.0852,-42.5866 50.3687,-43.9105 51.6507,-45.2145 52.9317,-46.5075 54.2123,-47.7945 55.7844,-49.3725 57.5175,-51.1087 59.0462,-52.6369 60.4616,-54.0519 61.8152,-55.4054 63.1352,-57.0194 64.437,-58.7753 66.023,-60.3142 67.7635,-61.735 69.2941,-63.3834 70.7104,-65.1557 72.0645,-66.7058 73.6767,-68.4268 75.4315,-70.2386 76.9721,-71.8079 78.3939,-73.2452 79.751,-74.6109 81.0729,-75.9397 82.6676,-77.2486 84.4129,-78.5443 85.9483,-79.8328 87.3672,-81.1174 89.0147,-82.6918 90.7864,-84.4261 92.628,-85.9555 94.5076,-87.663 96.4057,-89.4674 98.3137,-91.3245 99.9354,-93.2126 101.6954,-94.8256 103.5306,-96.5787 105.4045,-98.4078 107.2994,-99.9866 109.2058,-101.7232 111.1183,-103.5458 113.0366,-105.1209 114.9579,-106.8533 116.5868,-108.6712 118.0566,-110.2439 119.4398,-111.3912 120.776,-112.3072 122.0888,-113.3915 123.389,-114.5673 124.6799,-116.0824 125.9659,-117.7822 127.2491,-119.2906 128.5309,-120.6948 129.8118,-122.0446 131.0946,-123.3649 132.3784,-124.6668 133.6605,-126.2506 134.9416,-127.9877 136.2223,-129.5163 137.5026,-131.2257 138.7828,-133.0334 140.0651,-134.6005 141.3487,-136.0367 142.6307,-137.4016 143.9117,-139.022 145.1923,-140.7812 146.4726,-142.3219 147.7528,-143.7438 149.0352,-145.1009 150.3187,-146.4229 151.6007,-147.7257 152.5899,-149.0204 153.4199,-150.3107 154.455,-151.5963 155.6019,-152.8794 156.8094,-154.161 158.0523,-155.4419 159.3144,-156.7224 160.5846,-158.0049 161.8593,-158.9968 163.1364,-159.5363 164.5377,-159.9532 L165.3,-160.18 " stroke-linecap="round" fill="none" stroke="#e599f7" stroke-width="3" stroke-dasharray="none" stroke-dashoffset="0"/></g></g><g transform="matrix(1, 0, 0, 1, 2318.3811, 23761.2505)" opacity="1"><g transform="scale(1)"><path d="M0,0 Q3.5066,-0.5837 4.7523,-0.7424 T7.5511,-1.2794 10.5351,-2.1552 13.3281,-2.9235 16.0148,-3.3414 20.6912,-3.8629 26.4499,-4.4407 30.75,-4.755 33.9648,-4.926 36.8833,-5.019 39.9324,-5.0696 42.7585,-5.0972 45.1714,-5.1121 47.3619,-5.1203 49.7231,-5.1247 52.175,-5.1271 54.6761,-5.1284 57.2064,-5.1291 59.7525,-5.1295 62.0131,-5.1297 64.4125,-5.1299 67.4711,-5.1299 70.5942,-5.13 73.1687,-5.13 75.7389,-5.13 78.5985,-5.13 81.3215,-5.13 83.6806,-5.13 86.1336,-5.13 88.6354,-5.13 90.8719,-5.13 93.2582,-5.13 95.4341,-5.13 97.4934,-5.13 99.781,-5.13 102.195,-5.13 104.6779,-5.13 107.196,-5.13 110.0273,-4.8359 113.029,-4.3818 115.8293,-4.1347 118.52,-4.0003 121.1534,-3.9272 123.7556,-3.8874 126.0467,-3.8658 128.1686,-3.854 130.4926,-3.5558 132.9264,-3.1017 135.4178,-2.8547 137.9428,-2.7203 140.486,-2.6472 143.0369,-2.6074 145.5919,-2.5858 148.1515,-2.574 150.7135,-2.5676 152.9828,-2.5642 155.0928,-2.5623 157.1184,-2.5612 158.8064,-2.5607 160.6001,-2.5604 162.7433,-2.5602 164.7846,-2.5601 166.7765,-2.56 L167.86,-2.56 " stroke-linecap="round" fill="none" stroke="#e599f7" stroke-width="3" stroke-dasharray="none" stroke-dashoffset="0"/></g></g><g transform="matrix(1, 0, 0, 1, 2481.1194, 23595.9494)" opacity="1"><g transform="scale(1)"><path d="M0,0 Q0,4.0903 0,6.0784 T0,10.0258 0,13.6347 -0.2918,18.5186 -0.7424,24.3902 -1.2794,28.754 -1.8634,32.2953 -2.181,35.3891 -2.3538,37.95 -2.4478,40.5127 -2.499,43.366 -2.5268,46.3797 -2.5419,48.897 -2.5502,51.4337 -2.5547,53.9811 -2.5571,56.2446 -2.5584,58.3538 -2.2673,60.6685 -1.8171,63.6811 -1.2803,66.7814 -0.6965,69.6353 -0.3789,72.3552 -0.2061,75.0045 -0.1121,77.3235 0.2308,79.4605 0.7093,82.0846 0.9695,84.9735 1.1111,88.0043 1.1881,91.1145 1.23,94.268 1.2528,97.1508 1.557,99.8887 2.0144,102.5478 2.2632,104.8698 2.3985,107.3004 2.4722,109.79 2.5122,112.3139 2.534,114.8566 2.5459,117.1154 2.5523,119.2196 2.5558,121.534 2.5577,123.6708 2.5588,125.4169 2.5593,127.5342 2.5596,129.8556 2.5598,131.7044 2.5599,133.8775 2.5599,136.5189 2.56,139.4173 2.56,142.4555 2.56,144.9838 2.8518,147.5288 3.3024,150.083 3.5476,152.0561 3.6809,154.2968 3.7535,156.6854 3.7929,158.5708 3.8144,160.7638 3.8261,163.1241 4.4184,164.9919 5.7083,166.8495 L6.41,167.86 " stroke-linecap="round" fill="none" stroke="#e599f7" stroke-width="3" stroke-dasharray="none" stroke-dashoffset="0"/></g></g><g transform="matrix(1, 0, 0, 1, 2516.9987, 23640.7985)" opacity="1"><g transform="scale(1)"><path d="M0,0 Q0,7.0133 0,10.0883 T0,15.1278 0,19.4362 L0,21.78 " stroke-linecap="round" fill="none" stroke="#e599f7" stroke-width="3" stroke-dasharray="none" stroke-dashoffset="0"/></g></g><g transform="matrix(1, 0, 0, 1, 2525.9685, 23672.8336)" opacity="1"><g transform="scale(1)"><path d="M0,0 Q-8.1806,0.5837 -11.8673,0.7424 T-19.9519,1.0906 L-24.35,1.28 " stroke-linecap="round" fill="none" stroke="#e599f7" stroke-width="3" stroke-dasharray="none" stroke-dashoffset="0"/></g></g><g transform="matrix(1, 0, 0, 1, 2509.3103, 23686.9291)" opacity="1"><g transform="scale(1)"><path d="M0,0 Q2.3393,0.5837 3.5592,0.7424 T5.4429,1.2794 6.7594,1.8634 8.0593,2.767 8.1827,5.5956 6.7884,9.1795 4.8603,11.7151 3.2277,13.6781 2.0477,15.3297 1.4058,16.52 1.6403,17.4594 2.3515,18.5541 3.6162,19.4414 5.4739,20.216 7.6518,20.9292 10.0062,21.6113 12.4567,22.2764 15.2489,22.6383 17.9352,23.127 20.4254,23.9191 L21.78,24.35 " stroke-linecap="round" fill="none" stroke="#e599f7" stroke-width="3" stroke-dasharray="none" stroke-dashoffset="0"/></g></g><g transform="matrix(1, 0, 0, 1, 2387.5769, 23784.3157)" opacity="1"><g transform="scale(1)"><path d="M0,0 Q-0.5837,7.0133 -0.7424,9.2127 T-1.0906,14.0361 L-1.28,16.66 " stroke-linecap="round" fill="none" stroke="#e599f7" stroke-width="3" stroke-dasharray="none" stroke-dashoffset="0"/></g></g><g transform="matrix(1, 0, 0, 1, 2385.0141, 23799.6926)" opacity="1"><g transform="scale(1)"><path d="M0,0 Q1.1674,-2.3393 1.7767,-3.5592 T3.5954,-7.1962 5.7544,-11.5117 7.2207,-14.7348 8.3102,-17.3638 9.4866,-19.3776 10.4184,-21.059 11.5112,-22.5597 13.2754,-23.3761 15.1106,-23.8202 16.9845,-24.0618 19.4654,-24.1932 22.2764,-24.2647 24.973,-24.3036 27.3155,-24.3248 29.7594,-24.6281 32.2586,-25.085 34.4936,-25.3335 36.2932,-25.4687 37.564,-25.2504 38.5471,-24.548 39.082,-23.5799 39.3729,-21.8836 39.5312,-19.7935 39.6173,-17.7809 39.956,-15.8083 40.6322,-13.8664 L41,-12.81 " stroke-linecap="round" fill="none" stroke="#e599f7" stroke-width="3" stroke-dasharray="none" stroke-dashoffset="0"/></g></g><g transform="matrix(1, 0, 0, 1, 2404.2352, 23784.3157)" opacity="1"><g transform="scale(1)"><path d="M0,0 Q1.751,0.5837 2.5214,1.0343 T4.0028,1.73 4.5145,2.9863 3.6233,4.8393 2.5547,6.4311 1.6816,7.8807 1.2066,9.2529 1.5319,10.2913 2.5867,11.148 4.3301,12.2 6.1541,13.3582 7.73,14.572 9.1709,16.1078 9.9548,17.527 9.5057,18.299 8.3859,19.0108 6.8989,19.6899 4.9204,20.0593 2.9685,20.2603 0.7394,20.0777 -1.6429,19.6866 -3.5249,19.182 -5.1323,18.6156 -6.7889,18.1781 L-7.69,17.94 " stroke-linecap="round" fill="none" stroke="#e599f7" stroke-width="3" stroke-dasharray="none" stroke-dashoffset="0"/></g></g><g transform="matrix(1, 0, 0, 1, 2431.1446, 23813.788)" opacity="1"><g transform="scale(1)"><path d="M0,0 Q-1.751,1.751 -3.1051,2.2273 T-6.3632,3.2568 -10.4726,4.111 -15.0474,4.5757 -19.873,4.8284 -28.3396,4.6718 -38.4972,4.2925 -45.4844,4.0862 -50.1609,3.9739 -52.705,3.9129 -54.2562,3.8657 L-55.1,3.84 " stroke-linecap="round" fill="none" stroke="#e599f7" stroke-width="3" stroke-dasharray="none" stroke-dashoffset="0"/></g></g><g transform="matrix(1, 0, 0, 1, 2391.4211, 23834.2905)" opacity="1"><g transform="scale(1)"><path d="M0,0 Q2.923,1.1674 4.5935,1.4849 T7.4647,1.9751 9.6103,2.5337 11.3635,3.1294 12.0254,4.6231 11.2158,6.8971 9.608,8.7179 7.8579,10.292 6.028,11.4402 4.1548,12.359 2.2602,13.4447 0.354,14.619 -0.9748,15.8416 -1.114,16.7984 -0.3142,17.6108 1.2906,18.6365 3.625,19.7781 6.3542,20.691 9.5922,21.4817 13.1069,22.206 16.7723,22.6 20.8511,22.9044 L23.07,23.07 " stroke-linecap="round" fill="none" stroke="#e599f7" stroke-width="3" stroke-dasharray="none" stroke-dashoffset="0"/></g></g><g transform="matrix(1, 0, 0, 1, 2602.3568, 23759.5004)" opacity="1"><g transform="scale(1)"><path d="M0,0 Q1.2905,-1.2905 1.9653,-1.6415 T3.3286,-2.5072 6.0059,-5.2376 9.3982,-8.9802 11.8888,-11.6614 13.8889,-13.7652 15.6222,-15.5549 17.2104,-17.1737 18.7196,-18.6996 19.8643,-20.175 20.8085,-21.6228 21.9675,-22.7342 23.2431,-23.6602 24.5823,-24.8092 25.9561,-26.0795 27.3487,-27.4158 28.43,-28.788 29.3397,-30.1797 30.4798,-31.582 31.7453,-32.9902 33.079,-34.4014 34.1282,-35.8144 35.0205,-37.2283 36.1512,-38.6427 37.4115,-40.0573 38.7423,-41.4721 40.1115,-43.2108 41.5016,-45.1234 42.9031,-46.809 44.3107,-48.3713 45.7217,-49.8664 46.8108,-51.3249 47.727,-52.7637 49.1944,-54.1915 50.6379,-55.6136 51.7447,-57.0347 52.992,-58.453 54.3158,-59.8698 55.6811,-61.2858 57.0714,-63.0228 58.473,-64.9367 59.8807,-66.9469 61.2917,-69.3309 63.026,-71.5945 64.9385,-73.7927 66.6241,-75.9575 68.1863,-77.7803 69.3599,-79.4172 70.3198,-80.9529 71.4873,-82.4336 73.0914,-83.8843 74.9307,-85.3187 76.2528,-86.7443 77.2958,-88.1651 78.5084,-89.5832 79.8133,-90.9999 80.8469,-92.4158 81.7307,-93.8313 82.8567,-95.2466 84.1145,-96.9832 85.444,-98.897 86.8124,-100.5833 88.2021,-102.1459 89.6034,-103.6411 90.6871,-105.0998 91.6004,-106.5386 93.0663,-107.9665 94.5089,-109.3885 95.6152,-110.8074 96.8623,-112.2267 98.1859,-113.6441 99.2275,-115.0604 100.1178,-116.4761 101.2474,-117.8915 102.5072,-119.3067 103.8377,-121.0433 105.2067,-122.957 106.5967,-124.6433 107.9982,-126.2059 109.0843,-127.7011 109.9966,-129.1598 111.1382,-130.5986 112.0829,-132.0265 112.9206,-133.1271 114.0216,-134.0472 114.942,-135.1931 115.7664,-136.1401 116.8602,-136.9768 118.1004,-138.0772 119.0989,-139.3211 119.9635,-140.3192 120.7553,-141.186 121.5099,-142.3027 122.5656,-143.2317 123.7851,-144.0609 124.7723,-145.1571 125.6308,-146.075 126.4193,-146.8981 127.4935,-147.6696 129.0469,-148.4108 130.2157,-149.4592 131.173,-150.3533 132.0152,-151.1612 132.7972,-151.9222 133.5463,-152.6599 134.2753,-153.7065 135.3171,-154.921 136.2076,-156.227 137.0136,-157.2589 138.0972,-158.1441 139.0105,-159.2708 139.8288,-160.2052 140.9192,-161.0373 142.4814,-162.1352 143.9764,-163.3777 145.1112,-164.3774 146.3738,-165.2427 147.7059,-166.3587 149.0757,-167.611 150.4662,-168.6137 151.8679,-169.483 152.9541,-170.6034 153.8665,-171.5366 154.6843,-172.3658 155.453,-173.4621 156.5164,-174.3823 157.7401,-175.2043 159.0511,-176.2967 160.7309,-177.5363 162.6138,-178.8558 163.9618,-180.2189 165.0166,-181.6056 166.2357,-183.0053 167.5441,-184.4119 168.9011,-185.8224 169.9631,-187.2349 170.8646,-188.3271 172.0002,-189.2427 173.2632,-190.386 174.5956,-191.6532 175.6418,-192.9878 176.8562,-194.6829 178.4859,-196.8954 180.0176,-199.0658 181.8176,-200.8917 183.7658,-202.854 185.4709,-204.8882 187.0437,-206.6401 188.8683,-208.2383 190.8276,-209.753 192.5387,-211.2222 194.1148,-212.6667 195.6174,-214.4215 197.0801,-216.3429 198.521,-218.0333 199.9501,-219.5982 201.3728,-221.0947 202.7919,-222.8778 204.2092,-224.8145 205.6255,-226.5133 207.0411,-228.085 208.4565,-229.5852 209.8717,-231.0466 211.2868,-232.4868 212.7019,-234.237 214.1169,-235.8344 215.5319,-237.0271 216.9469,-238.3212 218.3619,-239.6704 219.4554,-241.0496 220.6956,-242.7666 222.3369,-244.6697 223.875,-246.674 225.357,-248.731 226.8085,-250.4953 228.2456,-252.424 229.6726,-254.44 231.0941,-256.1819 232.5127,-257.7748 233.9296,-259.2865 235.3457,-260.7541 236.7612,-262.1978 237.8551,-263.6283 238.7716,-264.7281 239.9154,-265.9715 241.1829,-267.617 242.5177,-269.1574 243.889,-270.3168 244.9565,-271.2713 245.861,-272.4358 246.9983,-273.7145 248.2622,-275.0554 249.595,-276.43 250.9653,-277.8231 252.3559,-279.2262 253.7577,-280.6347 255.1655,-282.3676 256.5766,-284.2793 257.668,-285.9668 258.2617,-287.5301 258.9062,-289.0257 259.902,-290.4846 261.089,-291.9235 262.3799,-293.3514 263.406,-294.7735 264.2856,-296.1923 265.4094,-297.6094 266.6659,-299.0256 267.9947,-300.4412 269.0414,-301.8565 269.9322,-303.2717 270.7383,-304.6868 271.5006,-306.1019 272.2391,-307.5169 272.8096,-309.0668 L273.12,-309.91 " stroke-linecap="round" fill="none" stroke="#e599f7" stroke-width="3" stroke-dasharray="none" stroke-dashoffset="0"/></g></g><g transform="matrix(1, 0, 0, 1, 2878.3059, 23441.0976)" opacity="1"><g transform="scale(1)"><path d="M0,0 Q1.2905,1.938 1.6415,3.1104 T2.1835,5.5658 2.4783,8.192 2.3172,10.9111 1.9081,13.6808 1.6855,16.478 1.5644,22.1926 1.4986,29.818 1.4627,35.5805 1.4433,40.0057 1.4326,44.025 1.4269,47.8235 1.4237,51.1803 1.422,53.9755 1.4211,57.1103 1.4206,60.4298 1.4203,63.8499 1.4202,67.6461 1.4201,71.0018 1.4201,74.4392 1.42,77.9211 1.42,81.1058 1.42,84.1287 1.42,87.3874 1.42,91.0959 1.42,94.7252 1.42,97.9901 1.42,101.0566 1.42,104.0153 1.42,106.9153 1.0962,109.7857 0.5964,112.6399 0.3244,115.4831 0.1765,118.3203 0.096,121.1542 0.0522,123.9863 0.0284,127.139 0.0155,130.466 0.0084,133.5663 -0.3192,136.2219 -0.8212,138.6356 -1.0942,141.2391 -1.2428,143.6221 -1.3236,146.2089 -1.3676,149.2304 -1.3915,152.1646 -1.4045,155.0513 -1.4116,157.9121 -1.4154,160.7589 -1.4175,163.598 -1.4186,166.1092 -1.4193,168.4443 -1.4196,170.6836 -1.4198,172.8685 -1.4199,175.3475 -1.4199,177.6651 -1.7414,179.8949 -2.2378,182.3984 -2.5079,184.727 -2.6548,186.9605 -2.7347,189.466 -2.7781,192.1195 -2.8018,194.5319 -2.8147,196.8133 -2.8217,199.0211 -2.504,201.1889 -2.0097,203.3372 -1.7408,205.4748 -1.5945,207.9282 -1.5149,210.2295 -1.4716,212.4482 -1.1243,214.9456 -0.6116,217.2732 -0.3327,219.5084 -0.181,222.0149 -0.0985,224.3451 0.2702,226.5817 0.7945,228.7675 1.0797,230.9232 1.2349,233.065 1.3193,235.1991 1.3652,237.3267 1.3902,239.4509 1.4038,241.5754 1.4112,243.7002 1.7367,245.8228 2.2352,247.9442 2.5064,250.3887 2.654,252.6875 2.7342,254.9071 2.7779,257.0813 2.8017,259.2307 2.8146,261.6905 2.8216,264.3191 2.8254,266.7181 2.8275,268.9921 2.8286,271.1959 2.8293,273.04 2.8296,275.0122 2.8298,277.0518 2.8299,278.8066 2.8299,280.4064 2.83,281.922 2.83,283.7154 2.83,285.6601 2.83,287.687 2.83,289.7563 2.83,291.5273 2.83,293.1359 2.83,294.6563 2.83,296.1286 2.83,297.5747 2.83,299.0067 3.1538,300.4309 3.6536,301.8509 3.9256,303.2687 4.0735,305.0089 4.154,306.9223 4.1978,308.6085 4.2216,310.171 4.2345,311.6662 4.2416,313.1249 4.2454,314.5636 4.2475,315.9915 4.2486,317.4135 4.5707,318.5109 5.2762,319.3588 L5.66,319.82 " stroke-linecap="round" fill="none" stroke="#e599f7" stroke-width="3" stroke-dasharray="none" stroke-dashoffset="0"/></g></g><g transform="matrix(1, 0, 0, 1, 2599.5265, 23765.1609)" opacity="1"><g transform="scale(1)"><path d="M0,0 Q6.4524,-0.6475 8.5312,-0.8236 T12.3861,-1.4171 15.7737,-2.0614 18.907,-2.4119 21.902,-2.6025 24.8218,-2.7063 27.7006,-2.7627 30.8786,-2.7934 37.7694,-2.4886 46.3584,-2.0013 52.3214,-1.7362 57.1794,-1.592 61.7579,-1.5136 66.1844,-1.4709 70.528,-1.4477 74.8267,-1.4351 79.1009,-1.4282 83.3618,-1.4245 87.294,-1.4224 91.0451,-1.4213 95.0213,-1.097 98.7987,-0.5967 102.4655,-0.3246 106.396,-0.1766 110.1484,-0.0961 113.804,-0.0523 117.4068,-0.0284 121.3025,-0.0155 125.679,-0.0084 129.6717,-0.0046 133.458,-0.0025 137.132,-0.0014 140.4211,-0.0007 143.5009,-0.0004 146.4668,-0.0002 149.6922,-0.0001 153.3825,-0.0001 157.3258,0 161.0829,-0.3238 164.741,-0.8237 168.3452,-1.0956 171.9201,-1.2435 175.4792,-1.324 178.7057,-1.3678 181.7515,-1.3916 184.6988,-1.0808 189.2047,-0.5879 194.5583,-0.3198 198.7611,-0.174 202.3379,-0.0947 205.5742,-0.0515 208.6252,-0.028 211.5754,-0.0152 214.4708,-0.0083 217.3364,-0.0045 220.1858,-0.0025 223.0263,-0.0013 226.1858,-0.0007 229.8425,-0.0004 233.4461,-0.0002 236.6969,-0.0001 239.432,-0.0001 241.8867,0 244.5125,0 246.9099,-0.3238 249.1831,-0.8237 251.3864,-1.0956 253.8755,-1.2435 256.5201,-1.324 259.2492,-1.3678 262.3481,-1.7131 265.3244,-2.2224 267.9102,-2.4995 269.9621,-2.6502 272.3688,-3.0559 275.29,-3.6004 278.1697,-3.8966 280.7052,-4.0578 282.7297,-4.4669 284.1526,-5.3347 285.2519,-6.4651 L285.85,-7.08 " stroke-linecap="round" fill="none" stroke="#e599f7" stroke-width="3" stroke-dasharray="none" stroke-dashoffset="0"/></g></g><g transform="matrix(1, 0, 0, 1, 2927.8352, 23584.0251)" opacity="1"><g transform="scale(1)"><path d="M0,0 Q1.2905,2.581 1.6415,4.252 T2.1835,8.1225 2.4783,12.4853 2.6387,17.1158 2.7259,21.5706 2.7734,25.2844 2.4777,27.6285 1.9954,28.2585 1.733,27.9559 1.5303,27.2656 L1.42,26.89 " stroke-linecap="round" fill="none" stroke="#e599f7" stroke-width="3" stroke-dasharray="none" stroke-dashoffset="0"/></g></g><g transform="matrix(1, 0, 0, 1, 2925.005, 23572.7041)" opacity="1"><g transform="scale(1)"><path d="M0,0 Q-1.2905,1.938 -1.9653,3.1104 T-3.3286,5.5658 -5.0369,7.8682 -7.5805,10.4112 -10.9222,13.7524 L-12.74,15.57 " stroke-linecap="round" fill="none" stroke="#e599f7" stroke-width="3" stroke-dasharray="none" stroke-dashoffset="0"/></g></g><g transform="matrix(1, 0, 0, 1, 2869.8151, 23728.3677)" opacity="1"><g transform="scale(1)"><path d="M0,0 Q1.938,-0.6475 1.4961,-0.8236 T-0.1551,-1.0956 -2.6676,-1.2435 -5.3249,-1.0002 -9.0277,-0.5441 -14.1781,-0.1917 L-16.98,0 " stroke-linecap="round" fill="none" stroke="#e599f7" stroke-width="3" stroke-dasharray="none" stroke-dashoffset="0"/></g></g><g transform="matrix(1, 0, 0, 1, 2854.2488, 23729.7829)" opacity="1"><g transform="scale(1)"><path d="M0,0 Q0,2.581 0,3.6067 T0,5.8358 0,8.3389 0,11.3125 -0.3238,14.5421 -0.4999,20.4942 0.0518,26.9584 0.9379,31.4931 L1.42,33.96 " stroke-linecap="round" fill="none" stroke="#e599f7" stroke-width="3" stroke-dasharray="none" stroke-dashoffset="0"/></g></g><g transform="matrix(1, 0, 0, 1, 2480.6561, 23731.198)" opacity="1"><g transform="scale(1)"><path d="M0,0 Q-2.581,0 -3.9282,0 T-6.3322,0 -10.2209,0 -14.5935,0.3238 -16.9722,1.1451 -18.2663,2.2372 -18.9702,3.4765 -19.3531,4.7959 -19.5615,6.4827 -19.6748,8.6908 -19.7365,10.8587 -19.77,13.0048 -19.7882,15.4627 -19.7982,17.7688 -19.8036,19.6686 -19.8065,21.3473 -19.4866,22.9058 -18.9911,23.7536 -18.6083,23.952 L-18.4,24.06 " stroke-linecap="round" fill="none" stroke="#e599f7" stroke-width="3" stroke-dasharray="none" stroke-dashoffset="0"/></g></g><g transform="matrix(1, 0, 0, 1, 2358.9555, 23729.7829)" opacity="1"><g transform="scale(1)"><path d="M0,0 Q1.938,1.938 2.7866,2.7866 T4.4206,4.4206 5.9548,5.9548 7.1108,7.4346 8.0635,9.2086 8.9055,11.1404 9.0398,15.0937 8.4676,19.8253 7.5111,22.7231 6.9908,24.2994 7.0486,25.0576 L7.08,25.47 " stroke-linecap="round" fill="none" stroke="#e599f7" stroke-width="3" stroke-dasharray="none" stroke-dashoffset="0"/></g></g><g transform="matrix(1, 0, 0, 1, 2378.7672, 23715.6316)" opacity="1"><g transform="scale(1)"><path d="M1.42,0 Q3.3534,0 4.2031,0.3238 T5.1912,2.1141 5.0835,4.3786 4.3797,5.9319 3.9968,7.4222 4.1122,8.8781 4.8203,9.9916 5.8507,10.9211 6.7328,11.7505 7.8578,12.5232 8.7936,13.5888 8.9789,14.8137 8.756,16.1253 7.9895,17.1626 6.282,17.7268 4.0626,18.0338 1.8863,18.2008 0.3786,17.9679 -0.7863,17.3281 L-1.42,16.98 " stroke-linecap="round" fill="none" stroke="#e599f7" stroke-width="3" stroke-dasharray="none" stroke-dashoffset="0"/></g></g><g transform="matrix(1, 0, 0, 1, 2398.579, 23718.4619)" opacity="1"><g transform="scale(1)"><path d="M0,0 Q-2.581,3.2285 -3.283,4.7519 T-4.0454,7.4255 -3.4935,9.5251 -1.9004,10.9911 -0.0648,11.7886 1.579,11.8987 3.1184,11.3133 4.6011,10.3496 5.7315,8.8564 6.6679,7.0774 7.4988,5.4643 7.9508,3.9416 8.1967,2.468 8.3304,1.0188 8.4032,-0.4148 8.1213,-1.5161 7.4469,-2.3671 L7.08,-2.83 " stroke-linecap="round" fill="none" stroke="#e599f7" stroke-width="3" stroke-dasharray="none" stroke-dashoffset="0"/></g></g><g transform="matrix(1, 0, 0, 1, 2414.1453, 23708.556)" opacity="1"><g transform="scale(1)"><path d="M0,0 Q-0.6475,2.581 -0.1761,3.6067 T1.1969,5.1905 2.9106,6.0521 4.4881,6.1971 5.9915,5.6307 7.1308,4.3559 8.0744,2.6933 8.9114,1.1414 9.3668,-0.3481 9.7186,-1.9555 L9.91,-2.83 " stroke-linecap="round" fill="none" stroke="#e599f7" stroke-width="3" stroke-dasharray="none" stroke-dashoffset="0"/></g></g><g transform="matrix(1, 0, 0, 1, 2641.9802, 23724.1224)" opacity="1"><g transform="scale(1)"><path d="M0,0 Q5.8094,5.1619 7.3896,7.2112 T9.8294,11.0205 11.4781,14.3833 12.6965,17.1816 13.0378,19.9944 12.5782,22.815 11.683,24.9947 10.5508,26.8257 9.6111,28.467 8.7784,29.6813 7.6784,30.6196 L7.08,31.13 " stroke-linecap="round" fill="none" stroke="#e599f7" stroke-width="3" stroke-dasharray="none" stroke-dashoffset="0"/></g></g><g transform="matrix(1, 0, 0, 1, 2658.9617, 23718.4619)" opacity="1"><g transform="scale(1)"><path d="M0,0 Q3.2285,-0.6475 4.4281,-0.8236 T6.6041,-0.7718 8.4331,-0.0961 8.7828,1.562 8.0063,3.7544 7.9054,5.9161 8.4957,7.7373 9.4621,9.0495 10.6331,10.4086 11.9153,11.7932 12.9343,13.1917 13.4887,14.5977 13.145,16.0078 11.6676,17.0986 9.5734,17.6921 7.1436,18.0149 4.8551,17.8667 2.6303,17.2924 L1.42,16.98 " stroke-linecap="round" fill="none" stroke="#e599f7" stroke-width="3" stroke-dasharray="none" stroke-dashoffset="0"/></g></g><g transform="matrix(1, 0, 0, 1, 2685.8491, 23717.0467)" opacity="1"><g transform="scale(1)"><path d="M0,0 Q-1.938,1.2905 -2.7866,1.9653 T-4.0969,5.2643 -4.4882,9.6399 -3.7343,12.6655 -2.3552,14.6329 -0.3122,16.027 2.0896,16.7853 4.0415,16.5526 5.7485,15.7808 6.9986,14.0704 7.6787,11.528 8.0487,9.176 8.2499,7.2512 8.0379,5.5589 7.4175,3.7915 L7.08,2.83 " stroke-linecap="round" fill="none" stroke="#e599f7" stroke-width="3" stroke-dasharray="none" stroke-dashoffset="0"/></g></g><g transform="matrix(1, 0, 0, 1, 2705.6608, 23708.556)" opacity="1"><g transform="scale(1)"><path d="M-0.6452,-0.3238 Q-1.2905,-0.6475 -1.9653,-0.4999 T-3.0071,0.0518 -2.9286,1.9662 -1.9169,4.2981 -0.719,5.2429 0.5778,4.7878 1.6048,3.5736 2.1635,2.2678 2.4674,0.9099 2.7023,-0.5991 1.415,-0.71 -0.6452,-0.3238 Z" stroke-linecap="round" fill="none" stroke="#e599f7" stroke-width="3" stroke-dasharray="none" stroke-dashoffset="0"/></g></g><g transform="matrix(1, 0, 0, 1, 2912.2688, 23585.4402)" opacity="1"><g transform="scale(1)"><path d="M0.6452,-0.3238 Q1.2905,-0.6475 1.9653,-1.1451 T4.9428,-4.4944 8.8198,-9.2211 11.2504,-12.4377 12.8964,-14.8327 14.1155,-16.1357 14.7788,-16.1992 15.1396,-15.267 15.3358,-13.791 15.4426,-12.3427 15.5007,-10.9096 15.2085,-9.4848 14.7258,-8.0645 14.4633,-6.6465 14.3204,-4.9085 14.2427,-2.6702 14.2004,-0.4836 14.5012,1.6726 14.9886,4.1361 15.5752,6.7667 16.2158,9.1668 16.888,11.1176 17.5775,12.8242 18.274,14.3977 18.9744,15.899 19.3555,17.3609 19.5627,18.8015 19.6755,20.2304 19.7368,21.6529 19.7702,22.4268 19.7883,22.2025 19.7982,21.4353 19.4821,20.3727 18.9887,19.1494 18.7202,17.8387 18.5742,16.4804 18.4948,15.0963 18.4516,13.0528 18.428,10.3269 18.0915,7.5536 17.5847,4.7544 17.3089,1.9411 17.1589,-0.8797 17.0773,-3.3833 16.7115,-5.7142 16.191,-7.949 15.9078,-9.8099 15.43,-11.4675 14.5248,-12.3693 13.3872,-12.5383 12.1231,-12.3065 10.7902,-11.5352 9.4198,-10.4703 8.0291,-9.2458 6.6273,-8.2582 5.2195,-7.0757 3.8084,-5.4634 2.3955,-3.9411 0.9794,-2.4677 -0.4362,-1.3424 -1.2063,-0.7303 -1.3037,-0.721 -1.379,-1.1737 -0.71,-0.71 0.6452,-0.3238 Z" stroke-linecap="round" fill="none" stroke="#e599f7" stroke-width="3" stroke-dasharray="none" stroke-dashoffset="0"/></g></g><g transform="matrix(1, 0, 0, 1, 2932.0806, 23610.9125)" opacity="1"><g transform="scale(1)"><path d="M-1.42,0 Q-4.6439,0 -5.8446,0 T-6.7294,0 -5.9203,0 -2.8992,0 1.3276,0 3.3054,0 3.0909,0 2.0052,0 0.4456,0 -1.3718,0.3238 -3.3295,0.8236 -5.7586,1.2099 L-7.08,1.42 " stroke-linecap="round" fill="none" stroke="#e599f7" stroke-width="3" stroke-dasharray="none" stroke-dashoffset="0"/></g></g><g transform="matrix(1, 0, 0, 1, 2383.0126, 23640.6301)" opacity="1"><g transform="scale(1)"><path d="M0,0 Q0.6475,1.2905 0.8236,1.9653 T1.0956,3.6523 1.2435,5.8606 1.0002,8.3524 0.5441,11.3198 -0.0278,14.5461 -0.6626,18.5607 -1.008,21.7136 -1.2748,23.2333 L-1.42,24.06 " stroke-linecap="round" fill="none" stroke="#e599f7" stroke-width="3" stroke-dasharray="none" stroke-dashoffset="0"/></g></g><g transform="matrix(1, 0, 0, 1, 2378.7672, 23642.0452)" opacity="1"><g transform="scale(1)"><path d="M0,0 Q-1.938,-1.938 -4.4009,-0.8509 T-8.525,1.1514 -10.7685,2.2406 -11.3438,2.5094 -10.3662,2.3341 -8.5439,1.5935 -6.9074,0.5431 -5.3719,-0.3521 -3.8913,-1.1605 -2.1169,-1.9218 -0.5041,-2.6597 0.3733,-3.0611 1.1721,-2.6342 1.9281,-1.7568 2.3394,-0.6319 2.5631,0.6252 2.6848,2.2758 2.751,4.1428 2.787,6.1274 2.8066,8.4975 2.8173,10.7536 2.8231,12.6261 2.8262,14.6138 2.828,16.6618 2.8289,18.4211 2.8294,20.0234 2.8297,20.8951 2.8298,20.7241 2.8299,20.1321 L2.83,19.81 " stroke-linecap="round" fill="none" stroke="#e599f7" stroke-width="3" stroke-dasharray="none" stroke-dashoffset="0"/></g></g><g transform="matrix(1, 0, 0, 1, 2690.083, 23574.1016)" opacity="1"><g transform="scale(1)"><path d="M0,0 Q0,-1.2449 0.415,-1.5835 T1.8879,-2.3138 4.3512,-2.9185 6.9362,-3.2475 10.212,-2.5966 13.6562,-1.2051 15.7373,-0.0331 16.8694,1.2269 17.2778,2.7445 17.085,4.4023 16.5652,6.134 15.6599,7.906 14.5428,9.6999 13.3103,11.3005 12.0174,12.5885 10.6916,13.9116 9.1405,15.4613 7.4667,16.9267 5.724,18.1389 4.1513,19.2133 2.4658,20.2127 0.7189,21.3811 -0.0239,22.434 0.402,23.0067 1.6733,23.3183 3.6121,23.4878 5.7042,23.58 7.8797,23.6302 10.3103,23.6574 12.6722,23.6723 14.7871,23.6804 17.3922,23.4773 20.264,23.1593 22.6562,22.9864 25.0939,22.8527 L26.42,22.78 " stroke-linecap="round" fill="none" stroke="#e599f7" stroke-width="3" stroke-dasharray="none" stroke-dashoffset="0"/></g></g><g transform="matrix(1, 0, 0, 1, 2712.4921, 23797.8419)" opacity="1"><g transform="scale(1)"><path d="M0,0 Q-0.5746,8.0758 -0.7308,11.426 T-1.2617,17.1757 -1.84,21.1677 -1.8651,23.3393 -1.5892,23.9438 -1.1518,23.4063 -0.6266,22.2497 -0.0536,20.7565 0.835,19.0777 1.8952,17.2981 3.3361,15.1763 4.9863,12.8683 6.7504,10.1719 8.5742,7.264 10.4305,4.2412 12.3067,1.1558 13.9042,-1.389 15.3501,-3.6398 16.7135,-5.7284 17.7425,-7.7287 18.5918,-9.6832 19.3434,-11.3234 20.3291,-12.5029 21.7294,-13.1445 23.3553,-13.4936 25.3935,-13.6835 27.6559,-13.7868 30.0404,-13.843 32.4912,-13.8735 34.9781,-13.8902 37.772,-13.8992 41.0224,-13.9041 43.9442,-13.9068 46.1106,-13.9083 47.5786,-14.1986 48.6645,-14.6461 49.5425,-14.3127 50.0202,-12.9777 49.9927,-11.0977 49.6905,-8.9214 49.2366,-6.5837 48.7001,-4.1584 48.4082,-1.6853 47.9621,1.101 47.4322,3.4809 47.1439,4.1987 46.9212,3.934 L46.8,3.79 " stroke-linecap="round" fill="none" stroke="#e599f7" stroke-width="3" stroke-dasharray="none" stroke-dashoffset="0"/></g></g><g transform="matrix(1, 0, 0, 1, 2744.1131, 23799.1067)" opacity="1"><g transform="scale(1)"><path d="M0,0 Q1.7282,2.3074 2.1983,3.5118 T1.4832,6.2356 -0.6341,8.871 -2.3628,10.5942 -3.3031,11.5317 -3.2379,12.3289 -2.6255,13.0499 -1.7156,13.7317 -0.646,14.6794 0.5127,16.0591 1.7199,17.676 2.9534,19.1325 3.914,20.7889 4.4366,22.8437 4.4313,24.8279 3.8516,26.1968 2.9594,27.2288 1.6099,28.0775 -0.2756,28.5392 -2.455,28.7904 -4.7943,28.927 -6.9333,28.714 -8.9632,28.0214 -10.9317,26.7781 -12.5794,25.2377 -14.2637,23.6395 L-15.18,22.77 " stroke-linecap="round" fill="none" stroke="#e599f7" stroke-width="3" stroke-dasharray="none" stroke-dashoffset="0"/></g></g><g transform="matrix(1, 0, 0, 1, 2344.4239, 23920.5313)" opacity="1"><g transform="scale(1)"><path d="M0,0 Q-1.1537,8.6503 -1.7548,11.58 T-2.6828,16.9699 -3.1877,21.6326 -3.5778,26.4625 L-3.79,29.09 " stroke-linecap="round" fill="none" stroke="#e599f7" stroke-width="3" stroke-dasharray="none" stroke-dashoffset="0"/></g></g><g transform="matrix(1, 0, 0, 1, 2348.2184, 23918.0016)" opacity="1"><g transform="scale(1)"><path d="M0,0 Q0,3.461 0.2873,4.9793 T1.0204,7.6107 1.7088,9.6191 2.3705,11.2885 3.3074,13.0607 5.8371,15.1785 9.2311,16.6202 11.9415,16.8276 14.2824,16.3636 16.1327,15.5343 17.716,14.5063 19.1542,13.3703 20.5135,12.1754 21.8297,10.9486 23.1226,9.7044 24.4028,8.4507 25.676,7.1918 26.9455,5.6429 28.213,4.5107 29.192,4.7589 29.7246,5.7603 29.7248,7.1715 29.4353,9.0929 29.2779,11.579 28.9049,14.3725 28.4148,17.3353 27.8585,20.3904 27.2664,23.206 26.9443,25.8914 26.4818,28.2164 25.9429,30.058 25.937,31.0598 26.3405,31.4226 L26.56,31.62 " stroke-linecap="round" fill="none" stroke="#e599f7" stroke-width="3" stroke-dasharray="none" stroke-dashoffset="0"/></g></g><g transform="matrix(1, 0, 0, 1, 2381.1042, 23940.7687)" opacity="1"><g transform="scale(1)"><path d="M0,0 Q2.8819,1.1537 4.2426,1.1779 T6.6332,0.9281 8.5104,0.2176 10.1085,-0.7458 11.2674,-1.8466 12.1852,-3.0224 12.6844,-3.9515 12.3792,-4.1674 11.6363,-3.708 10.368,-2.8813 8.8117,-1.2779 7.3882,1.3226 6.3265,3.891 6.0363,6.1546 6.4552,8.2501 7.5495,9.9669 9.5858,11.1904 12.1345,11.856 14.6746,12.218 17.2102,12.1255 20.0327,10.6318 22.4346,8.0888 23.7412,5.8413 24.1625,3.7545 24.3916,2.0424 25.3827,1.1111 26.7859,0.6044 28.703,0.3288 31.4764,0.1789 34.8466,0.063 L36.68,0 " stroke-linecap="round" fill="none" stroke="#e599f7" stroke-width="3" stroke-dasharray="none" stroke-dashoffset="0"/></g></g><g transform="matrix(1, 0, 0, 1, 2422.8439, 23921.7961)" opacity="1"><g transform="scale(1)"><path d="M0,0 Q0.5746,2.3074 0.7308,3.7991 T0.6849,6.9687 0.3726,10.7131 0.2027,14.7678 0.1103,18.4145 0.06,21.552 0.6095,24.1252 1.7725,25.8146 2.982,26.4441 4.5064,26.2096 6.1998,25.5053 7.6979,24.5453 8.5128,24.023 8.3793,24.3158 7.7298,25.0519 7.0869,26.3164 6.4499,28.158 5.8161,30.0262 5.7586,31.6194 6.3042,32.7733 7.4673,33.6907 9.2538,34.4792 11.6666,34.9082 14.7582,35.2397 L16.44,35.42 " stroke-linecap="round" fill="none" stroke="#e599f7" stroke-width="3" stroke-dasharray="none" stroke-dashoffset="0"/></g></g><g transform="matrix(1, 0, 0, 1, 2456.9946, 23934.4445)" opacity="1"><g transform="scale(1)"><path d="M0,0 L0,2.53 " stroke-linecap="round" fill="none" stroke="#e599f7" stroke-width="3" stroke-dasharray="none" stroke-dashoffset="0"/></g></g><g transform="matrix(1, 0, 0, 1, 2454.4649, 23944.5632)" opacity="1"><g transform="scale(1)"><path d="M0,0 L1.26,3.79 " stroke-linecap="round" fill="none" stroke="#e599f7" stroke-width="3" stroke-dasharray="none" stroke-dashoffset="0"/></g></g><g transform="matrix(1, 0, 0, 1, 2489.8804, 23921.7961)" opacity="1"><g transform="scale(1)"><path d="M0,0 Q-1.7282,9.804 -2.4879,13.0475 T-3.6608,18.6324 -4.5861,22.5369 -5.3768,25.2379 -5.9877,27.7328 L-6.32,29.09 " stroke-linecap="round" fill="none" stroke="#e599f7" stroke-width="3" stroke-dasharray="none" stroke-dashoffset="0"/></g></g><g transform="matrix(1, 0, 0, 1, 2491.1452, 23923.061)" opacity="1"><g transform="scale(1)"><path d="M0,-1.26 Q2.3074,-1.8391 3.5118,-1.9966 T5.9483,-2.2399 9.2916,-2.949 13.9214,-4.3162 L16.44,-5.06 " stroke-linecap="round" fill="none" stroke="#e599f7" stroke-width="3" stroke-dasharray="none" stroke-dashoffset="0"/></g></g><g transform="matrix(1, 0, 0, 1, 2487.3507, 23934.4445)" opacity="1"><g transform="scale(1)"><path d="M1.26,0 Q4.721,0 5.952,-0.2873 T8.7167,-0.7308 12.0802,-1.0736 L13.91,-1.26 " stroke-linecap="round" fill="none" stroke="#e599f7" stroke-width="3" stroke-dasharray="none" stroke-dashoffset="0"/></g></g><g transform="matrix(1, 0, 0, 1, 2512.6475, 23935.7093)" opacity="1"><g transform="scale(1)"><path d="M0,0 Q-2.3074,1.1537 -4.3759,3.7748 T-7.2825,8.1092 -8.2868,11.0439 -7.9668,12.93 -6.639,13.956 -5.0526,14.5141 -3.0382,14.8178 -0.7886,14.6934 1.0119,13.7593 2.5683,12.0975 3.7045,10.0398 4.3226,7.7667 4.6589,5.6661 4.8418,3.9465 4.9831,2.2065 L5.06,1.26 " stroke-linecap="round" fill="none" stroke="#e599f7" stroke-width="3" stroke-dasharray="none" stroke-dashoffset="0"/></g></g><g transform="matrix(1, 0, 0, 1, 2524.031, 23948.3577)" opacity="1"><g transform="scale(1)"><path d="M0,0 Q0,-1.7282 0,-2.7752 T0,-5.258 0.2873,-7.7624 1.3077,-9.412 3.306,-10.3094 5.5468,-10.5103 7.6299,-10.3323 9.6295,-10.2355 11.5858,-10.1607 L12.65,-10.12 " stroke-linecap="round" fill="none" stroke="#e599f7" stroke-width="3" stroke-dasharray="none" stroke-dashoffset="0"/></g></g><g transform="matrix(1, 0, 0, 1, 2545.5333, 23914.2071)" opacity="1"><g transform="scale(1)"><path d="M0,0 Q0,7.4966 -0.2873,11.2662 T-0.7308,17.9529 -0.9721,23.321 -1.1034,27.6822 -1.4644,30.9211 -1.3735,32.1062 -0.4599,31.3076 0.6139,30.0091 1.7749,28.7259 2.9834,27.451 4.5072,26.1806 6.4898,25.1999 8.4324,24.6664 10.0661,25.2426 11.2444,26.7097 11.8853,28.372 12.234,30.4299 12.4237,32.4158 12.5703,34.3615 L12.65,35.42 " stroke-linecap="round" fill="none" stroke="#e599f7" stroke-width="3" stroke-dasharray="none" stroke-dashoffset="0"/></g></g><g transform="matrix(1, 0, 0, 1, 2573.3598, 23942.0335)" opacity="1"><g transform="scale(1)"><path d="M0,0 Q-4.0356,1.7282 -5.4228,3.0647 T-7.5647,5.4155 -8.4404,7.2712 -8.0503,8.5703 -6.6845,9.2769 -4.7877,9.6614 -2.6045,9.5809 -0.2655,8.9604 2.1607,8.0459 4.3469,6.3948 6.113,3.7683 7.0738,0.8986 7.4081,-2.1381 L7.59,-3.79 " stroke-linecap="round" fill="none" stroke="#e599f7" stroke-width="3" stroke-dasharray="none" stroke-dashoffset="0"/></g></g><g transform="matrix(1, 0, 0, 1, 2588.5378, 23916.7368)" opacity="1"><g transform="scale(1)"><path d="M0,0 Q0.5746,7.4966 0.7308,10.1126 T0.9721,15.018 1.1034,19.417 0.8875,23.2511 0.4828,26.78 0.1701,30.7373 L0,32.89 " stroke-linecap="round" fill="none" stroke="#e599f7" stroke-width="3" stroke-dasharray="none" stroke-dashoffset="0"/></g></g><g transform="matrix(1, 0, 0, 1, 2602.4511, 23940.7687)" opacity="1"><g transform="scale(1)"><path d="M0,0 Q-1.1537,0 -1.7548,0.2873 T-2.3955,2.7509 -2.1673,6.1112 -1.179,7.9392 0.51,8.6441 2.5825,8.1611 4.5764,6.4575 6.5274,3.8024 8.7425,0.6276 10.8116,-3.1196 12.514,-7.1759 13.7297,-11.1131 14.391,-14.9854 14.7508,-18.2456 14.657,-20.596 14.0291,-21.8746 13.1107,-21.9934 12.3215,-21.1915 11.6049,-19.6017 10.9278,-17.2958 10.5594,-14.3109 10.359,-10.6671 10.25,-6.3797 10.1907,-1.7423 10.1585,2.5109 10.4282,5.9784 11.1518,8.7311 12.1223,10.2285 13.2801,10.9743 L13.91,11.38 " stroke-linecap="round" fill="none" stroke="#e599f7" stroke-width="3" stroke-dasharray="none" stroke-dashoffset="0"/></g></g><g transform="matrix(1, 0, 0, 1, 2645.4556, 23944.5632)" opacity="1"><g transform="scale(1)"><path d="M0,0 Q4.0356,-1.7282 5.4228,-2.7752 T7.2752,-4.6812 5.9755,-4.5644 3.2507,-2.483 1.4811,-0.4866 0.2312,1.4658 -0.1615,3.6816 0.489,5.7511 1.9965,7.4538 3.9703,8.9568 6.1977,10.0618 8.8504,10.6629 11.7344,10.7026 14.457,10.1474 16.8045,9.2685 18.6584,7.9263 20.2437,6.0424 21.3957,3.8639 22.0224,1.8147 22.0737,0.1231 21.5248,-1.374 20.6494,-2.4757 20.4604,-3.075 21.8009,-3.4011 24.2606,-3.5784 27.3292,-3.9645 30.729,-4.464 34.5833,-4.85 L36.68,-5.06 " stroke-linecap="round" fill="none" stroke="#e599f7" stroke-width="3" stroke-dasharray="none" stroke-dashoffset="0"/></g></g><g transform="matrix(1, 0, 0, 1, 2702.3734, 23921.7961)" opacity="1"><g transform="scale(1)"><path d="M0,0 Q-0.5746,13.8442 -0.4436,17.6098 T0.046,23.1343 0.8891,25.5628 3.9447,24.2893 8.2016,21.2891 11.0942,19.3675 12.9573,17.7453 13.9709,16.8628 14.2327,16.9596 14.0855,17.8786 13.7182,19.2427 13.2311,20.8489 12.6766,22.8763 12.0853,24.8456 11.7637,26.7833 11.8783,28.7016 12.807,30.0324 14.4659,30.7563 16.5221,30.8629 18.7943,30.6336 20.8945,30.2193 22.9253,29.4879 L24.03,29.09 " stroke-linecap="round" fill="none" stroke="#e599f7" stroke-width="3" stroke-dasharray="none" stroke-dashoffset="0"/></g></g><g transform="matrix(1, 0, 0, 1, 2737.7889, 23942.0335)" opacity="1"><g transform="scale(1)"><path d="M0,0 Q-2.3074,0 -3.5118,0.2873 T-5.6587,1.5972 -5.3834,4.6172 -2.9286,7.701 -0.729,9.3786 1.0444,10.004 2.8732,9.1905 4.4449,7.0174 5.3,4.6816 5.9606,2.4655 L6.32,1.26 " stroke-linecap="round" fill="none" stroke="#e599f7" stroke-width="3" stroke-dasharray="none" stroke-dashoffset="0"/></g></g><g transform="matrix(1, 0, 0, 1, 2751.7021, 23942.0335)" opacity="1"><g transform="scale(1)"><path d="M0,0 Q0.5746,3.461 0.7308,4.9793 T0.9721,7.6107 0.8161,9.6191 1.0208,9.8475 2.2858,8.5285 3.8381,6.9446 5.2594,5.2188 6.899,3.4159 8.6551,1.571 10.1872,-0.0095 11.8871,-1.1589 13.6759,-1.2073 15.2259,-0.3695 16.3587,1.24 16.9749,3.5587 17.3101,5.6843 17.2029,7.1278 16.7088,8.2432 L16.44,8.85 " stroke-linecap="round" fill="none" stroke="#e599f7" stroke-width="3" stroke-dasharray="none" stroke-dashoffset="0"/></g></g><g transform="matrix(1, 0, 0, 1, 2783.3231, 23938.239)" opacity="1"><g transform="scale(1)"><path d="M0,0 Q-1.7282,0.5746 -2.7752,1.0204 T-4.1043,2.5729 -4.2506,4.5711 -3.7533,6.235 -2.9059,8.0043 -2.4449,9.8332 -2.771,11.1176 -3.8125,11.8164 -5.2455,12.1965 -6.6019,12.4033 -8.0579,12.5631 L-8.85,12.65 " stroke-linecap="round" fill="none" stroke="#e599f7" stroke-width="3" stroke-dasharray="none" stroke-dashoffset="0"/></g></g><g transform="matrix(1, 0, 0, 1, 2799.766, 23915.4719)" opacity="1"><g transform="scale(1)"><path d="M0,0 Q-1.7282,5.1893 -2.4879,7.7544 T-3.948,12.5815 -5.3192,16.9379 -6.3547,20.7487 -7.2053,23.9755 -6.8016,27.1741 -5.141,29.7806 -3.4499,31.7944 L-2.53,32.89 " stroke-linecap="round" fill="none" stroke="#e599f7" stroke-width="3" stroke-dasharray="none" stroke-dashoffset="0"/></g></g><g transform="matrix(1, 0, 0, 1, 2799.766, 23935.7093)" opacity="1"><g transform="scale(1)"><path d="M0,0 Q-1.7282,0.5746 -2.7752,0.7308 T-4.6812,0.9721 -6.2949,1.1034 -8.0369,1.1748 -10.1382,1.5032 -12.5811,2.1682 L-13.91,2.53 " stroke-linecap="round" fill="none" stroke="#e599f7" stroke-width="3" stroke-dasharray="none" stroke-dashoffset="0"/></g></g><g transform="matrix(1, 0, 0, 1, 2808.6199, 23938.239)" opacity="1"><g transform="scale(1)"><path d="M0,0 Q-1.7282,1.7282 -2.4879,2.4879 T-3.948,5.1017 -4.1655,7.9646 -3.1302,9.2348 -1.9901,9.3489 -0.7953,8.8341 0.4315,7.9772 1.3884,6.9343 1.909,6.6564 2.4794,7.659 3.3666,9.358 4.4261,10.8592 5.6527,12.019 L6.32,12.65 " stroke-linecap="round" fill="none" stroke="#e599f7" stroke-width="3" stroke-dasharray="none" stroke-dashoffset="0"/></g></g><g transform="matrix(1, 0, 0, 1, 2821.2683, 23940.7687)" opacity="1"><g transform="scale(1)"><path d="M0,0 Q0.5746,3.461 0.7308,4.6897 T0.9721,7.1636 1.1034,9.3759 2.6181,8.8488 5.1725,6.2547 7.139,4.2667 8.7856,2.6084 10.2582,1.7062 11.3489,1.7923 11.9422,2.7055 12.2649,4.356 12.7278,6.118 13.2669,7.9406 13.8497,9.7985 14.7436,10.8092 15.8067,11.0695 17.2515,10.6343 18.9015,9.2438 20.6633,7.3337 22.4881,4.8537 24.0576,2.3531 25.7755,-0.7377 27.5765,-5.016 29.133,-9.6508 30.5567,-14.1899 31.6207,-18.1002 32.1995,-21.6706 32.5144,-25.0561 32.6857,-26.8978 32.4893,-26.7461 31.8056,-25.5098 31.1464,-23.6836 30.4982,-20.9597 29.5688,-17.4577 28.4864,-13.5326 27.6079,-9.3795 27.1301,-5.6793 26.8701,-1.9359 27.0183,1.8311 27.6757,3.8803 28.5917,4.6444 L29.09,5.06 " stroke-linecap="round" fill="none" stroke="#e599f7" stroke-width="3" stroke-dasharray="none" stroke-dashoffset="0"/></g></g><g transform="matrix(1, 0, 0, 1, 2855.4189, 23934.4445)" opacity="1"><g transform="scale(1)"><path d="M0,0 Q-2.8819,0.5746 -4.5322,0.7308 T-7.3675,0.9721 -9.774,1.393 -11.9496,1.6219 -14.0418,1.3875 L-15.18,1.26 " stroke-linecap="round" fill="none" stroke="#e599f7" stroke-width="3" stroke-dasharray="none" stroke-dashoffset="0"/></g></g><g transform="matrix(1, 0, 0, 1, 2863.008, 23943.2984)" opacity="1"><g transform="scale(1)"><path d="M0,0 Q4.0356,-3.461 4.5564,-4.4024 T5.0733,-5.856 4.2009,-6.3571 2.5725,-5.7634 1.1122,-4.5762 -0.2591,-1.3358 -0.7178,3.3112 0.4736,6.416 2.5627,8.105 5.1425,9.0239 8.2763,9.2341 11.999,8.7717 16.5139,8.0063 L18.97,7.59 " stroke-linecap="round" fill="none" stroke="#e599f7" stroke-width="3" stroke-dasharray="none" stroke-dashoffset="0"/></g></g><g transform="matrix(1, 0, 0, 1, 2888.3047, 23931.9148)" opacity="1"><g transform="scale(1)"><path d="M0,0 L2.53,1.26 " stroke-linecap="round" fill="none" stroke="#e599f7" stroke-width="3" stroke-dasharray="none" stroke-dashoffset="0"/></g></g><g transform="matrix(1, 0, 0, 1, 2888.3047, 23947.0929)" opacity="1"><g transform="scale(1)"><path d="M0,0 L2.53,1.26 " stroke-linecap="round" fill="none" stroke="#e599f7" stroke-width="3" stroke-dasharray="none" stroke-dashoffset="0"/></g></g><g transform="matrix(1, 0, 0, 1, 2424.1087, 24007.8052)" opacity="1"><g transform="scale(1)"><path d="M0,0 Q-0.5746,5.1893 -0.7308,7.4672 T-0.9721,11.5611 -1.1586,15.5435 L-1.26,17.71 " stroke-linecap="round" fill="none" stroke="#e599f7" stroke-width="3" stroke-dasharray="none" stroke-dashoffset="0"/></g></g><g transform="matrix(1, 0, 0, 1, 2436.7571, 24030.5723)" opacity="1"><g transform="scale(1)"><path d="M0,0 Q-2.3074,0.5746 -3.7991,0.7308 T-6.9687,0.9721 -10.4235,1.1034 -14.0334,1.4644 -17.7277,1.9503 -21.7553,2.2146 -26.5057,2.4189 L-29.09,2.53 " stroke-linecap="round" fill="none" stroke="#e599f7" stroke-width="3" stroke-dasharray="none" stroke-dashoffset="0"/></g></g><g transform="matrix(1, 0, 0, 1, 2413.99, 24047.0152)" opacity="1"><g transform="scale(1)"><path d="M0,0 Q3.461,1.1537 4.4024,2.0443 T5.5664,3.7068 5.91,5.188 5.8097,6.8601 4.0269,9.7876 1.9033,12.8211 1.3227,14.4713 1.8709,15.369 3.3229,15.8574 5.8432,16.1231 9.2344,16.2676 12.8097,16.3462 16.7725,16.389 20.3715,16.4122 23.5635,16.4302 L25.3,16.44 " stroke-linecap="round" fill="none" stroke="#e599f7" stroke-width="3" stroke-dasharray="none" stroke-dashoffset="0"/></g></g><g transform="matrix(1, 0, 0, 1, 2496.2046, 24078.6362)" opacity="1"><g transform="scale(1)"><path d="M0,0 Q-21.9154,2.3074 -29.8964,2.935 T-44.237,3.904 -55.7866,4.4311 -65.5306,4.7179 -74.0028,4.8739 -81.4959,4.6692 -88.169,4.2683 -94.3939,4.0502 -103.8359,3.9315 -113.8743,3.867 -119.3352,3.8319 -123.1466,3.8048 L-125.22,3.79 " stroke-linecap="round" fill="none" stroke="#e599f7" stroke-width="3" stroke-dasharray="none" stroke-dashoffset="0"/></g></g><g transform="matrix(1, 0, 0, 1, 2411.4604, 24102.6681)" opacity="1"><g transform="scale(1)"><path d="M0,0 Q-0.5746,6.9221 -0.7308,9.3817 T-0.9721,13.1794 -1.1034,14.9558 -0.8875,15.3453 -0.4828,14.6931 0.0246,12.895 0.588,10.4737 1.184,8.2923 1.7978,6.2415 2.4189,3.685 3.3337,1.1405 4.1209,-1.1101 4.8364,-3.1985 5.8025,-4.3346 6.9049,-4.6654 8.3687,-4.8453 10.0314,-4.6537 11.8023,-4.2598 13.9194,-4.0456 16.512,-3.929 19.3634,-3.8656 22.3578,-3.8311 25.4299,-4.1019 28.5422,-4.5388 31.6762,-5.0638 34.5348,-5.6366 36.954,-5.9482 38.8468,-6.4073 40.743,-6.9466 42.6386,-6.9504 43.9571,-6.3757 44.6743,-4.9093 44.7772,-2.958 44.5459,-0.745 44.4201,1.6125 44.3229,3.8453 L44.27,5.06 " stroke-linecap="round" fill="none" stroke="#e599f7" stroke-width="3" stroke-dasharray="none" stroke-dashoffset="0"/></g></g><g transform="matrix(1, 0, 0, 1, 2431.6978, 24105.1978)" opacity="1"><g transform="scale(1)"><path d="M0,0 Q2.3074,1.1537 3.2222,1.7548 T4.6348,2.9724 5.116,4.2116 3.9368,5.7499 2.4289,7.1635 2.4727,8.2221 3.6502,9.3748 4.8676,10.5788 5.8195,12.1001 6.3373,13.7918 5.4653,14.9994 3.2627,15.6563 0.6235,16.0137 -2.2555,16.2081 -5.2649,16.3138 -7.7661,16.0841 -10.1067,15.4985 L-11.38,15.18 " stroke-linecap="round" fill="none" stroke="#e599f7" stroke-width="3" stroke-dasharray="none" stroke-dashoffset="0"/></g></g><g transform="matrix(1, 0, 0, 1, 2445.611, 24134.2891)" opacity="1"><g transform="scale(1)"><path d="M0,0 Q-9.2294,0.5746 -12.8935,0.7308 T-19.415,0.6849 -24.6932,0.3726 -29.0078,0.2027 -32.219,0.1103 -34.8301,0.06 -37.4042,0.0326 -40.2123,0.0115 L-41.74,0 " stroke-linecap="round" fill="none" stroke="#e599f7" stroke-width="3" stroke-dasharray="none" stroke-dashoffset="0"/></g></g><g transform="matrix(1, 0, 0, 1, 2416.5197, 24149.4672)" opacity="1"><g transform="scale(1)"><path d="M0,0 Q0.5746,1.1537 1.3077,1.4675 T2.7292,1.952 4.9457,3.3692 6.7283,5.5812 6.8317,7.6486 6.0215,9.6397 4.4271,11.2997 2.4083,12.7795 0.1587,14.1614 -1.9314,15.49 -3.3581,16.5023 -3.8446,17.053 -3.5324,17.6399 -2.4985,18.2464 -0.7823,18.8659 1.3049,19.4925 3.8814,20.1206 6.7239,20.7496 9.7135,21.0918 12.4935,21.5675 14.5827,22.1158 16.6081,22.5395 L17.71,22.77 " stroke-linecap="round" fill="none" stroke="#e599f7" stroke-width="3" stroke-dasharray="none" stroke-dashoffset="0"/></g></g><g transform="matrix(1, 0, 0, 1, 2486.0859, 23600.5269)" opacity="1"><g transform="scale(1)"><path d="M0,0 Q0,2.3074 0,3.5118 T0,6.2356 0.2873,9.4478 0.7308,12.6385 1.549,18.989 2.5709,27.3457 3.4164,33.3326 4.1659,37.7432 4.5736,41.2963 4.7954,44.3828 4.9161,47.5029 4.9817,50.3538 5.0174,52.7712 5.0368,55.2399 5.0474,57.447 5.0531,59.8013 5.0563,62.8126 5.058,66.1813 5.0589,69.1675 5.0594,71.9457 5.0597,75.1875 5.0598,78.3921 5.0599,80.9994 5.0599,84.1484 5.06,87.8815 5.06,91.066 5.3473,94.2393 5.7908,97.1193 6.0321,99.5524 6.1634,102.0296 6.2348,104.531 6.5632,106.7558 7.0314,108.543 7.2861,110.6688 7.4247,112.979 7.5001,115.0999 7.5411,117.6946 7.5634,120.5493 7.5755,123.256 7.5821,125.8821 7.5857,128.7517 7.5877,131.7537 7.5887,134.83 7.5893,137.9468 7.5896,140.5064 7.5898,142.763 7.5899,145.1442 7.5899,147.306 7.59,149.6357 7.59,152.6313 7.3004,155.125 6.6654,157.0518 L6.32,158.1 " stroke-linecap="round" fill="none" stroke="#40c057" stroke-width="3" stroke-dasharray="none" stroke-dashoffset="0"/></g></g><g transform="matrix(1, 0, 0, 1, 2425.3736, 24005.2755)" opacity="1"><g transform="scale(1)"><path d="M0,1.26 Q-0.5746,4.1465 -1.0204,5.5084 T-1.7088,8.1882 -2.0833,10.7996 -2.287,13.3739 -2.1082,15.3512 -1.5589,16.8789 L-1.26,17.71 " stroke-linecap="round" fill="none" stroke="#40c057" stroke-width="3" stroke-dasharray="none" stroke-dashoffset="0"/></g></g><g transform="matrix(1, 0, 0, 1, 2434.2275, 24031.8371)" opacity="1"><g transform="scale(1)"><path d="M0,0 Q-2.3074,-0.5746 -3.5118,-0.7308 T-6.2356,-0.9721 -12.332,-1.1034 -19.6864,-1.1748 -23.6872,-1.5032 -26.3703,-2.1682 L-27.83,-2.53 " stroke-linecap="round" fill="none" stroke="#40c057" stroke-width="3" stroke-dasharray="none" stroke-dashoffset="0"/></g></g><g transform="matrix(1, 0, 0, 1, 2408.9307, 24044.4855)" opacity="1"><g transform="scale(1)"><path d="M0,1.26 Q2.3074,1.26 3.2222,1.26 T5.5012,2.4137 7.6074,4.4845 8.4636,6.4775 8.3525,8.7153 7.7152,10.7968 6.7917,12.2164 6.0021,13.2783 5.5725,14.4327 5.6261,15.348 6.2321,15.846 7.4281,16.1169 8.9429,16.5538 10.6311,17.081 12.7031,17.3678 14.6967,17.8111 16.6476,18.3396 18.8626,18.6271 20.9316,18.7834 22.9213,18.8685 25.278,18.9342 L26.56,18.97 " stroke-linecap="round" fill="none" stroke="#40c057" stroke-width="3" stroke-dasharray="none" stroke-dashoffset="0"/></g></g><g transform="matrix(1, 0, 0, 1, 2316.5974, 23764.956)" opacity="1"><g transform="scale(1)"><path d="M0,0 Q2.8819,0.5746 3.9554,0.7308 T6.1896,0.6849 8.2691,0.3726 12.5719,0.2027 18.0863,0.1103 21.6631,0.3473 24.1856,0.7635 26.4243,0.9899 28.7958,1.4026 30.95,1.9167 32.6988,2.1964 34.8038,2.3485 37.3899,2.4313 39.9504,2.4763 42.7842,2.5008 45.7668,2.5141 48.543,2.5214 50.9197,2.5253 52.7894,2.5274 54.9603,2.5286 57.5844,2.5292 59.8761,2.5296 61.9869,2.5298 64.2888,2.5299 66.4075,2.5299 68.4264,2.53 70.6784,2.53 73.0572,2.53 75.2153,2.53 77.2535,2.53 79.5159,2.53 81.6108,2.53 83.9041,2.53 86.3054,2.53 88.4758,2.53 90.8101,2.53 93.2337,2.53 95.4185,2.53 97.4735,2.53 99.7451,2.53 102.1345,2.53 104.588,2.53 106.7868,2.53 108.5598,2.53 110.1012,2.2404 111.8038,1.7934 113.5964,1.5501 115.4357,1.4178 117.5877,1.3459 119.9121,1.3067 122.3302,1.2854 124.5121,1.2738 126.5654,1.2675 128.8361,0.9768 130.9355,0.5314 132.9417,0.2891 135.1867,0.1573 137.5617,0.0855 140.0074,0.0465 142.2042,0.0253 144.2657,0.0138 146.5408,0.0075 148.9322,0.0041 151.674,0.0022 154.6065,0.0012 157.066,0.0007 159.268,0.0004 161.3323,0.0002 163.609,0.0001 166.0012,0.0001 167.8794,0 169.7386,0 L170.75,0 " stroke-linecap="round" fill="none" stroke="#4dabf7" stroke-width="3" stroke-dasharray="none" stroke-dashoffset="0"/></g></g><g transform="matrix(1, 0, 0, 1, 2405.1362, 24103.933)" opacity="1"><g transform="scale(1)"><path d="M0,0 Q0.5746,1.7282 1.0204,3.9288 T1.9961,6.7497 2.8141,7.4202 3.5487,7.2081 4.2378,6.2263 4.9,4.5385 5.5475,2.7562 6.1893,0.6353 7.1153,-1.6722 7.9063,-3.5043 8.6262,-4.7883 9.8842,-5.4867 11.4327,-5.8667 13.4287,-6.0734 15.9578,-6.1859 18.1978,-6.247 20.2804,-6.2803 22.5671,-6.2984 25.2542,-6.3083 28.1593,-6.3136 30.8933,-6.3165 33.2448,-6.3181 35.3881,-6.319 37.4182,-6.609 39.6762,-7.0563 42.6351,-7.2997 45.6857,-7.7193 48.4989,-8.2349 50.6061,-7.9386 51.7524,-6.6237 52.3761,-4.7547 52.7153,-2.297 52.8998,0.7682 53.0002,3.5894 53.0778,6.1805 L53.12,7.59 " stroke-linecap="round" fill="none" stroke="#4dabf7" stroke-width="3" stroke-dasharray="none" stroke-dashoffset="0"/></g></g><g transform="matrix(1, 0, 0, 1, 2429.1681, 24106.4626)" opacity="1"><g transform="scale(1)"><path d="M0,0 Q1.7282,-0.5746 2.7752,-0.7308 T4.3916,-0.6849 5.8478,0.4916 6.9295,1.9956 6.6539,3.1034 5.9271,4.2829 5.2421,5.5014 4.8695,6.4538 5.2437,7.2592 6.024,8.2742 7.0254,9.4031 7.8574,10.8814 8.0228,12.2625 7.5359,13.0137 6.6941,13.712 5.0826,14.3814 2.7649,14.7456 0.64,14.9437 -1.3824,15.0514 -3.3466,15.1101 -4.9921,14.8524 -6.464,14.4227 -7.8416,13.9016 -9.3172,13.091 L-10.12,12.65 " stroke-linecap="round" fill="none" stroke="#4dabf7" stroke-width="3" stroke-dasharray="none" stroke-dashoffset="0"/></g></g><g transform="matrix(1, 0, 0, 1, 2445.611, 24133.0243)" opacity="1"><g transform="scale(1)"><path d="M0,0 Q-4.0356,0.5746 -5.9997,0.7308 T-10.4732,0.9721 -15.5014,1.1034 -20.5441,1.1748 -25.5947,1.2137 -30.3623,0.9475 -34.3969,0.5154 -39.1863,0.5677 -45.7561,1.0161 L-49.33,1.26 " stroke-linecap="round" fill="none" stroke="#4dabf7" stroke-width="3" stroke-dasharray="none" stroke-dashoffset="0"/></g></g><g transform="matrix(1, 0, 0, 1, 2411.4604, 24149.4672)" opacity="1"><g transform="scale(1)"><path d="M0,0 Q1.7282,2.3074 2.4879,2.935 T4.5249,4.1913 7.074,5.4515 9.0375,6.7139 10.1057,9.1312 10.3995,12.1767 9.6952,14.4104 8.1584,16.2023 6.456,17.7539 4.6634,18.8876 3.401,19.7916 3.2911,20.8602 3.8082,21.7311 4.9558,22.4921 6.7339,23.1934 9.1421,23.8644 12.1826,24.5191 15.28,24.8752 18.4059,25.0689 21.5473,25.1743 24.7939,25.2557 L26.56,25.3 " stroke-linecap="round" fill="none" stroke="#4dabf7" stroke-width="3" stroke-dasharray="none" stroke-dashoffset="0"/></g></g><g transform="matrix(1, 0, 0, 1, 2516.442, 24067.2526)" opacity="1"><g transform="scale(1)"><path d="M0,0 Q2.8819,0.5746 5.109,0.4436 T8.835,0.2413 12.1219,0.085 L13.91,0 " stroke-linecap="round" fill="none" stroke="#e599f7" stroke-width="3" stroke-dasharray="none" stroke-dashoffset="0"/></g></g><g transform="matrix(1, 0, 0, 1, 2517.7069, 24074.8417)" opacity="1"><g transform="scale(1)"><path d="M0,0 Q2.8819,1.1537 4.2426,1.7548 T6.6332,2.6828 9.0873,3.1877 12.2108,3.5778 L13.91,3.79 " stroke-linecap="round" fill="none" stroke="#e599f7" stroke-width="3" stroke-dasharray="none" stroke-dashoffset="0"/></g></g><g transform="matrix(1, 0, 0, 1, 2458.2594, 24030.5723)" opacity="1"><g transform="scale(1)"><path d="M 0 0 m -0.5, 0 a 0.5,0.5 0 1,0 1,0 a 0.5,0.5 0 1,0 -1,0" stroke-linecap="round" fill="#e599f7" stroke="#e599f7" stroke-width="3" stroke-dasharray="none" stroke-dashoffset="0"/></g></g><g transform="matrix(1, 0, 0, 1, 2472.1726, 24022.9833)" opacity="1"><g transform="scale(1)"><path d="M0,0 Q3.461,-0.5746 4.6897,-0.7308 T7.1636,-0.9721 9.3759,-0.8161 11.4457,-0.1567 13.4358,0.7789 14.5184,4.172 14.5306,9.1894 13.6707,12.7852 12.0493,15.3182 9.7263,17.5603 7.0216,19.9336 4.6839,21.8016 2.8353,23.1073 1.2551,24.3944 0.3955,25.3819 0.5024,26.2087 1.1374,26.948 2.3493,27.3502 4.4495,27.569 7.033,27.688 9.5921,28.04 12.1379,28.5188 14.6765,29.0688 16.9239,29.9449 19.0716,31.0298 L20.24,31.62 " stroke-linecap="round" fill="none" stroke="#e599f7" stroke-width="3" stroke-dasharray="none" stroke-dashoffset="0"/></g></g><g transform="matrix(1, 0, 0, 1, 2465.8484, 24138.0836)" opacity="1"><g transform="scale(1)"><path d="M 0 1.26 m -0.5, 0 a 0.5,0.5 0 1,0 1,0 a 0.5,0.5 0 1,0 -1,0" stroke-linecap="round" fill="#e599f7" stroke="#e599f7" stroke-width="3" stroke-dasharray="none" stroke-dashoffset="0"/></g></g><g transform="matrix(1, 0, 0, 1, 2478.4968, 24124.1704)" opacity="1"><g transform="scale(1)"><path d="M0,0 Q3.461,0.5746 4.6897,0.7308 T6.8764,1.2617 8.6427,2.1273 10.1805,3.1751 11.5939,4.3219 11.4963,8.1172 9.7128,13.3556 7.8784,17.0718 6.0164,19.9574 3.5625,22.1041 1.3634,23.8487 -0.1224,25.3746 -0.9307,26.4943 -0.5063,27.1034 0.876,27.4347 2.7816,27.615 5.2615,27.713 8.3411,27.7664 11.4574,28.0827 14.5958,28.542 18.0337,28.7919 21.9173,28.985 L24.03,29.09 " stroke-linecap="round" fill="none" stroke="#e599f7" stroke-width="3" stroke-dasharray="none" stroke-dashoffset="0"/></g></g><g transform="matrix(1, 0, 0, 1, 2492.4101, 24012.8645)" opacity="1"><g transform="scale(1)"><path d="M0,0 Q-15.5724,10.9577 -24.8612,17.4938 L-34.15,24.03 " stroke-linecap="round" fill="none" stroke="#e599f7" stroke-width="3" stroke-dasharray="none" stroke-dashoffset="0"/></g></g><g transform="matrix(1, 0, 0, 1, 2431.6978, 24050.8097)" opacity="1"><g transform="scale(1)"><path d="M0,0 Q-6.9221,4.6147 -9.3817,6.1572 T-13.7563,9.1156 -17.2897,11.5914 -20.076,13.5151 -22.6369,15.4095 L-24.03,16.44 " stroke-linecap="round" fill="none" stroke="#e599f7" stroke-width="3" stroke-dasharray="none" stroke-dashoffset="0"/></g></g><g transform="matrix(1, 0, 0, 1, 2597.3917, 24040.691)" opacity="1"><g transform="scale(1)"><path d="M0,0 Q-1.1537,12.1114 -1.7548,15.9825 T-3.0729,24.4718 L-3.79,29.09 " stroke-linecap="round" fill="none" stroke="#e599f7" stroke-width="3" stroke-dasharray="none" stroke-dashoffset="0"/></g></g><g transform="matrix(1, 0, 0, 1, 2597.3917, 24041.9558)" opacity="1"><g transform="scale(1)"><path d="M0,0 Q-2.8819,1.1537 -4.5322,2.0443 T-7.6571,3.9963 -10.798,6.2119 -13.9476,8.2813 -17.1042,10.848 -20.7738,14.4697 L-22.77,16.44 " stroke-linecap="round" fill="none" stroke="#e599f7" stroke-width="3" stroke-dasharray="none" stroke-dashoffset="0"/></g></g><g transform="matrix(1, 0, 0, 1, 2634.0721, 24083.6955)" opacity="1"><g transform="scale(1)"><path d="M0,0 Q-9.2294,1.1537 -14.624,1.4675 T-24.3943,1.952 -32.3039,2.2156 -38.6246,2.3589 -43.7935,2.4369 -48.336,2.4794 -53.4017,2.7897 -59.7736,3.4376 L-63.24,3.79 " stroke-linecap="round" fill="none" stroke="#e599f7" stroke-width="3" stroke-dasharray="none" stroke-dashoffset="0"/></g></g><g transform="matrix(1, 0, 0, 1, 2565.7707, 24110.2572)" opacity="1"><g transform="scale(1)"><path d="M0,0 Q0,5.7684 0,8.7784 T0.2873,13.7153 0.9173,17.9411 L1.26,20.24 " stroke-linecap="round" fill="none" stroke="#e599f7" stroke-width="3" stroke-dasharray="none" stroke-dashoffset="0"/></g></g><g transform="matrix(1, 0, 0, 1, 2565.7707, 24127.9649)" opacity="1"><g transform="scale(1)"><path d="M0,0 Q1.7282,-1.7282 2.1983,-2.7752 T3.2137,-4.6812 4.0556,-6.5844 4.8009,-8.4839 7.2241,-13.5551 10.5624,-20.3518 12.9553,-24.9132 14.8339,-27.6842 16.4327,-28.9044 17.8793,-29.2786 19.5326,-29.1926 21.5857,-29.1458 23.5667,-29.1204 25.798,-29.1065 28.4551,-29.099 31.0543,-29.0949 33.9092,-29.0927 37.1905,-29.381 40.4165,-29.8274 43.3251,-30.0703 46.061,-30.4897 48.9926,-31.0051 51.7411,-31.2855 53.8131,-31.7276 55.5171,-32.2576 57.021,-32.2564 58.1286,-31.6789 58.4416,-30.7879 58.3223,-29.4368 58.2574,-27.5482 58.2221,-25.6566 57.9156,-23.4739 57.4616,-21.1328 57.2146,-19.2825 56.7907,-17.9863 56.0519,-16.9848 L55.65,-16.44 " stroke-linecap="round" fill="none" stroke="#e599f7" stroke-width="3" stroke-dasharray="none" stroke-dashoffset="0"/></g></g><g transform="matrix(1, 0, 0, 1, 2593.5972, 24111.522)" opacity="1"><g transform="scale(1)"><path d="M0,0 Q4.0356,0 5.1333,0.2873 T7.1177,1.0204 8.4867,1.9961 7.7883,3.9678 5.6778,6.4836 4.2424,8.4291 4.0384,10.0643 4.7915,11.5306 5.7781,12.9052 6.8916,14.2298 8.0742,15.5272 9.5839,16.8098 10.9821,18.3717 11.4531,20.0878 11.1325,21.5981 10.0939,22.7071 8.3753,23.5999 6.574,24.3751 4.4404,24.7969 1.8387,25.0263 -1.0175,24.8615 -4.0123,24.1951 -7.1455,23.2721 L-8.85,22.77 " stroke-linecap="round" fill="none" stroke="#e599f7" stroke-width="3" stroke-dasharray="none" stroke-dashoffset="0"/></g></g><g transform="matrix(1, 0, 0, 1, 2888.3047, 23451.2759)" opacity="1"><g transform="scale(1)"><path d="M0,1.26 Q-1.7282,22.6008 -2.1983,29.5592 T-2.9241,41.4566 -3.319,50.2361 -3.2465,57.3196 -2.9198,63.4803 -2.742,68.8519 -2.6453,73.7918 -2.3032,83.6884 -1.8275,95.9943 -1.5687,104.4192 -1.4279,110.7329 -1.0641,115.8958 -0.5789,120.1453 -0.3149,123.9003 -0.1713,127.6736 -0.0932,131.4568 -0.0507,135.5349 -0.0276,139.7712 -0.015,143.5167 -0.0082,146.9975 -0.0044,150.3343 -0.0024,153.5904 -0.0013,156.8028 -0.0007,159.9912 -0.0004,163.4563 -0.0002,167.0718 -0.0001,170.4796 -0.0001,173.7766 0,177.0135 0,180.2153 0,183.398 0,186.5727 0,189.7429 0,192.9085 0,196.0716 0,198.9459 0,201.9505 0,205.026 0,207.8528 0,210.5442 0,213.162 0,215.7398 0,218.2958 0,220.8399 0.2873,223.3776 0.7308,226.2013 0.9721,229.1807 1.1034,231.9528 1.1748,234.6123 1.2137,237.2127 1.2348,239.781 1.2463,242.3319 1.2525,244.8732 1.2559,247.4094 1.2578,249.9428 1.2588,252.7641 1.2593,255.7422 1.5492,258.516 1.9964,261.1786 2.2397,263.7807 2.3721,266.6372 2.4441,269.6321 2.4833,272.7023 2.5046,275.8135 2.5162,278.9492 2.5225,282.3855 2.5259,285.9854 2.5278,289.6743 2.5288,293.122 2.5293,295.8639 2.8169,298.2219 3.4472,300.8632 L3.79,302.3 " stroke-linecap="round" fill="none" stroke="#f76707" stroke-width="3" stroke-dasharray="none" stroke-dashoffset="0"/></g></g><g transform="matrix(1, 0, 0, 1, 2606.2456, 23778.8693)" opacity="1"><g transform="scale(1)"><path d="M0,0 Q2.8819,-1.7282 4.5322,-2.4879 T7.9444,-3.6608 11.8184,-4.2988 16.2332,-4.9332 20.6549,-5.5656 25.0804,-5.9096 35.2741,-6.0967 48.3161,-6.1985 57.1415,-6.2539 63.673,-6.2841 68.9567,-6.3004 73.5615,-6.3094 78.0843,-6.3142 82.5626,-6.3169 87.0165,-6.3183 91.4595,-6.3191 95.8966,-6.3195 100.3282,-6.6093 105.0463,-7.0565 109.6331,-7.2998 113.5692,-7.4321 117.1515,-7.5041 120.5412,-7.5433 123.5388,-7.5646 126.6128,-7.8635 130.3028,-8.3133 134.0407,-8.558 137.8047,-8.6912 141.5828,-8.7636 145.6582,-8.803 149.893,-8.8244 153.6376,-8.8361 156.8284,-8.8424 159.7179,-8.8459 162.4435,-8.8478 165.3671,-8.8488 168.3986,-8.8493 170.9141,-8.8496 173.1489,-8.8498 175.8056,-8.8499 178.6918,-8.8499 181.7051,-8.85 185.0749,-8.85 188.349,-8.5627 191.2838,-8.1192 193.7445,-7.8779 195.9472,-7.7466 198.2992,-7.6752 200.445,-7.6363 202.4788,-7.6152 204.7388,-7.6037 207.122,-7.5975 209.5721,-7.5941 212.3459,-7.5922 215.5854,-7.5912 219.3677,-7.5907 223.4431,-7.5904 227.1011,-7.5902 230.532,-7.5901 233.8394,-7.5901 236.7923,-7.59 239.5523,-7.3005 242.2075,-6.8534 244.5183,-6.6102 247.2186,-6.4778 250.4181,-6.4059 253.0227,-6.3667 255.5933,-6.3454 258.1454,-6.3338 260.3979,-6.0402 262.2,-5.8805 263.5925,-6.1652 L264.35,-6.32 " stroke-linecap="round" fill="none" stroke="#ff8787" stroke-width="3" stroke-dasharray="none" stroke-dashoffset="0"/></g></g><g transform="matrix(1, 0, 0, 1, 2909.807, 23680.2118)" opacity="1"><g transform="scale(1)"><path d="M0,0 Q12.6905,10.9577 17.8728,15.9582 T27.0257,24.8328 34.0227,32.2552 39.5596,39.4645 44.3022,46.2705 48.3254,52.5676 53.9751,67.5278 60.2199,87.7798 64.194,102.8347 66.6455,115.0602 67.9791,125.1719 68.7045,133.5569 69.0992,141.2898 69.3139,148.9575 69.1411,156.3003 68.1807,163.4662 66.7942,171.115 65.1757,178.7371 63.1416,186.0549 60.8814,193.4969 58.2086,200.7168 55.3114,207.239 52.5816,213.3841 49.6556,219.3239 46.6229,225.1498 43.2426,231.4906 39.386,237.8242 35.2701,244.1538 30.7237,250.7686 26.2304,256.9617 21.766,262.6381 17.03,268.0335 11.859,272.9863 6.4513,277.6985 0.9149,282.5693 -4.6916,287.239 -10.6257,291.2226 -17.0276,294.8307 -23.3945,298.524 -30.0295,302.2636 -36.8105,306.0285 -43.6708,309.8072 -50.8638,313.3037 -58.2379,316.6468 -65.7104,319.9064 -73.5238,322.8333 -81.5226,325.5792 -89.335,327.9394 -97.0459,329.8001 -104.7018,331.6765 -112.3276,333.5637 -119.937,335.4567 -127.5376,337.3506 -134.8438,338.9577 -141.9899,340.6984 -149.0488,342.5094 -155.7731,344.0715 -162.3153,345.4981 -168.7584,346.851 -174.8604,348.1638 -180.7746,349.7421 -186.8738,351.4648 -193.0759,352.9788 -199.0468,354.3793 -204.8896,356.0053 -210.6628,357.7562 -216.1107,359.2855 -221.3817,360.9816 -226.2693,362.7707 -230.9459,364.3208 -235.5078,365.7409 -239.7199,367.0902 -244.0292,368.4011 -248.1039,369.6911 -251.7638,370.9697 -255.7749,372.5316 -259.9747,374.2454 -263.7004,375.465 -267.1704,376.4181 -270.2117,377.5133 -272.7303,378.3965 -275.2541,379.1664 -277.4912,379.8749 -279.285,380.2602 -280.2609,380.1803 -280.2149,379.56 -279.9026,378.3585 -279.4431,376.8384 -278.6163,375.1451 -277.5897,373.3598 -276.4544,371.5245 -275.2622,369.6597 -274.3264,367.7788 -273.8173,366.1788 -273.5404,365.5979 -273.677,365.8588 -274.3259,366.5775 -275.2557,367.5454 -276.3384,368.6487 -277.5042,369.8258 -278.7152,371.0429 -279.6613,372.5715 -280.4656,374.2671 -281.1926,376.3432 -281.2986,378.6263 -280.7794,380.4452 -279.9201,382.0114 -278.8758,383.4403 -277.7309,384.5072 -275.9544,385.3749 -273.2597,386.1342 -270.6401,386.5472 -268.2048,386.8664 L-266.88,387.04 " stroke-linecap="round" fill="none" stroke="#f76707" stroke-width="3" stroke-dasharray="none" stroke-dashoffset="0"/></g></g><g transform="matrix(1, 0, 0, 1, 2804.8254, 23785.1935)" opacity="1"><g transform="scale(1)"><path d="M0,0 Q4.6147,4.6147 6.4468,6.734 T9.8523,10.8727 12.569,14.5673 14.6237,18.0182 16.3184,21.3364 17.8171,24.2952 19.2092,27.348 21.1202,34.4876 23.3135,44.4272 24.7939,52.1417 25.5992,58.0689 26.0373,62.447 26.5652,66.2697 27.142,70.6565 27.4557,74.7735 27.9137,78.4541 28.4501,81.8973 29.0314,85.2137 29.6373,88.7483 30.2541,92.4016 30.877,96.1196 31.2158,99.8726 31.6897,103.6448 32.237,107.1379 32.8221,110.4813 33.4276,113.7411 33.757,116.9554 34.2258,120.4345 34.7703,123.7681 35.0666,127.0248 35.2277,130.2397 35.3154,133.4296 35.3631,136.6058 35.389,139.7769 35.4032,142.9452 35.1213,146.1098 34.6784,149.5618 34.4374,152.8807 34.0191,156.1271 33.5042,159.3364 32.9346,162.5232 32.0478,165.6978 30.9886,169.1553 30.1229,172.7667 29.3646,176.1745 28.3753,179.4716 27.2602,182.7062 26.0768,185.9068 24.8562,188.8016 23.6153,191.8173 22.3635,194.6115 20.8183,197.2853 19.1114,200.4703 17.3164,203.9335 15.4758,207.2584 13.6104,210.5104 11.7292,214.01 9.8395,217.6443 7.6577,221.0646 5.3172,224.3662 3.1798,227.8928 1.153,231.2523 -1.1033,234.2312 -3.4844,237.295 -5.6438,240.4049 -7.6827,243.2504 -10.2351,246.2393 -13.0668,249.3062 -15.7609,252.4179 -18.3802,255.5538 -20.9588,258.4135 -23.5152,261.4101 -26.0596,264.4812 -28.5974,267.3056 -31.1317,269.9957 -33.664,272.6128 -36.193,275.1902 -38.7201,277.746 -41.5382,280.29 -44.5144,282.8277 -47.2872,285.6491 -50.2365,288.6249 -53.2819,291.3974 -56.3818,293.7721 -59.5114,295.9303 -62.3676,298.258 -65.0751,300.3885 -67.9889,302.4115 -71.0149,304.6657 -73.8148,306.7584 -76.7789,308.7633 -79.8323,310.718 -82.9366,312.356 -86.0686,313.8238 -89.2134,315.4888 -92.3651,317.2586 -95.2333,318.7982 -97.66,319.9254 -99.8465,320.8258 -102.1897,321.6029 -104.3285,322.3152 -106.3561,322.9923 -108.3255,323.6479 -110.5506,324.5814 -113.2019,325.666 -116.0853,326.8329 -119.0947,328.0445 -121.5983,329.2805 -123.5371,330.2424 -125.4559,331.053 -127.3661,331.7812 -128.9821,332.467 -131.0149,333.1295 -133.2744,333.7773 -135.0805,334.4169 -136.6398,335.0544 -138.3522,335.6908 -140.1501,336.3243 -141.705,336.6689 -142.5509,336.2795 -142.4342,335.4909 -141.7939,334.485 -140.5814,333.0714 -139.0555,331.4383 -137.3589,329.6857 -135.5719,327.866 -134.0229,326.2992 -132.6034,324.5827 -131.8312,323.3594 -132.2753,322.9812 -133.3832,323.065 -134.8524,323.6874 -136.5157,324.8902 -138.2847,326.4109 -140.1134,328.1045 -141.685,330.1795 -143.1169,332.462 -144.4726,334.8574 -145.4974,337.6014 -146.0549,340.5351 -146.0709,342.7079 -145.2155,344.1795 -143.8838,345.2695 -142.2929,346.1498 -140.2738,346.916 -137.8944,347.508 L-136.6,347.83 " stroke-linecap="round" fill="none" stroke="#f76707" stroke-width="3" stroke-dasharray="none" stroke-dashoffset="0"/></g></g></svg>