<svg xmlns="http://www.w3.org/2000/svg" direction="ltr" width="477.3480370997443" height="485.9398127028427" viewBox="361.6519629002557 120.06018729715731 477.3480370997443 485.9398127028427" stroke-linecap="round" stroke-linejoin="round" data-color-mode="dark" class="tl-container tl-theme__force-sRGB tl-theme__dark" style="background-color: transparent;"><defs/><g transform="matrix(1, 0, 0, 1, 441, 158)" opacity="1"><g transform="scale(1)"><path d="M1.5899,0 T1.5839,1.1825 1.5725,4.1507 1.5662,7.5158 1.5672,10.7418 1.5727,14.1657 1.5821,18.0819 1.5929,22.0047 1.603,25.5665 1.6162,29.0756 1.634,32.5769 1.6495,36.0771 1.659,39.3407 2.0121,42.5773 2.4815,45.7431 2.6349,48.6884 2.6795,51.6656 2.6936,54.6429 3.0553,57.5135 3.5499,60.8116 3.7109,64.7187 3.7497,68.9518 3.7689,72.6765 3.78,75.7865 3.7903,79.473 3.7984,83.0248 3.8038,86.0078 3.8085,89.2396 3.8113,92.6651 3.8076,95.9079 3.8003,98.9754 3.7935,102.5201 3.7878,106.1934 3.7812,109.7845 3.773,113.2978 3.765,117.0363 3.7584,120.69 3.7526,123.6656 3.7437,127.2065 3.7352,130.7178 3.7294,133.6733 3.7244,136.7856 3.72,140.1779 3.7161,143.8845 3.7129,147.5665 3.7105,151.2417 3.7046,155.2633 3.6961,159.5059 3.6897,163.6978 3.6849,167.7512 3.6813,171.766 3.6785,175.7701 3.4274,180.2427 2.9906,185.1088 2.7495,189.2425 2.6789,192.9055 2.6569,196.4476 2.649,199.9595 2.6454,203.5873 2.6434,206.8864 2.642,209.9694 2.641,212.9924 2.6402,215.9989 2.6395,219.0006 2.6418,222.0011 2.3748,225.1141 1.9142,228.5331 1.6899,232.0749 1.6523,236.0056 1.6493,239.6846 1.6522,242.7887 1.6532,246.1916 1.2781,249.4635 0.7999,252.853 0.6771,256.5455 0.6546,259.8969 0.6493,262.9724 0.6495,266.2298 0.653,269.5377 0.6532,272.6386 0.2822,275.7852 -0.2003,279.3438 -0.3314,282.7413 -0.3538,285.6796 -0.3594,288.6627 -0.3613,291.7826 -0.3648,295.4721 -0.3709,299.5476 -0.3762,303.2735 -0.3787,306.911 -0.3775,310.5739 -0.3749,313.8826 -0.3729,316.9683 -0.3738,320.5184 -0.378,324.7908 -0.382,328.5768 -0.3844,331.6341 -0.3831,335.1986 -0.3751,339.2583 -0.3654,343.267 -0.1888,346.7082 0.2386,349.781 0.5625,353.3536 0.6452,357.0457 0.6638,360.3354 0.6715,363.3784 0.6772,366.7459 0.6848,370.2265 0.6962,373.3625 0.708,376.3824 1.1388,379.7731 1.6372,383.2569 1.7252,386.3667 1.7451,389.383 1.7533,392.3854 1.7536,395.3858 1.7466,398.3858 1.7389,401.3858 1.7316,404.3858 1.7092,407.6223 1.6753,410.1794 1.6599,411 A1.6599,1.6599 0 0 1 -1.6599,411 T-1.6921,408.9429 -1.7288,405.3858 -1.7367,402.3858 -1.7439,399.3858 -1.7515,396.3859 -1.7554,393.3861 -1.7519,390.3873 -1.7477,387.3959 -1.802,384.0068 -2.2788,380.533 -2.7036,377.4193 -2.7004,374.3735 -2.689,371.3019 -2.6798,367.8121 -2.6736,364.3823 -2.6688,361.3619 -2.6671,358.2211 -2.696,354.712 -2.8809,351.1343 -3.3382,347.3553 -3.6346,343.267 -3.6249,339.2583 -3.6169,335.1986 -3.6156,331.6341 -3.618,328.5768 -3.622,324.7908 -3.6262,320.5184 -3.6271,316.9683 -3.6251,313.8826 -3.6225,310.5739 -3.6213,306.911 -3.6237,303.2735 -3.629,299.5475 -3.6349,295.4718 -3.6376,291.7816 -3.6366,288.6591 -3.6318,285.6666 -3.6166,282.6928 -3.4813,279.0599 -3.0064,274.6904 -2.6542,270.9388 -2.6509,267.7763 -2.6481,264.6399 -2.6473,261.5974 -2.6403,257.9118 -2.5704,253.9225 -2.0801,250.0042 -1.653,246.1658 -1.6516,242.7882 -1.6472,239.6827 -1.6394,235.9887 -1.6015,231.9863 -1.4545,228.7174 -0.9922,225.3716 -0.6418,222.0011 -0.6395,219.0006 -0.6402,215.9988 -0.641,212.9924 -0.642,209.9693 -0.6431,206.8861 -0.6443,203.5864 -0.645,199.9562 -0.6425,196.4364 -0.627,192.8642 -0.5625,189.116 -0.3172,184.769 0.0996,179.9965 0.3215,175.7701 0.3187,171.766 0.3151,167.7512 0.3103,163.6978 0.3039,159.5059 0.2954,155.2633 0.2895,151.2417 0.2871,147.5665 0.2839,143.8845 0.28,140.1779 0.2756,136.7856 0.2706,133.6733 0.2648,130.7178 0.2563,127.2065 0.2474,123.6656 0.2416,120.69 0.235,117.0363 0.227,113.2978 0.2188,109.7845 0.2122,106.1934 0.2065,102.5201 0.1997,98.9754 0.1924,95.9079 0.1887,92.6651 0.1915,89.2396 0.1962,86.0079 0.2016,83.0249 0.2096,79.4731 0.2197,75.7868 0.23,72.6775 0.2435,68.9608 0.2425,64.7844 0.1312,61.1245 -0.3351,57.8023 -0.7012,54.6819 -0.7069,51.6911 -0.7335,48.7838 -0.9362,45.6101 -1.3896,42.369 -1.659,39.3407 -1.6495,36.0771 -1.634,32.5769 -1.6162,29.0756 -1.603,25.5665 -1.5929,22.0047 -1.5821,18.0819 -1.5727,14.1657 -1.5672,10.7418 -1.5662,7.5158 -1.5725,4.1507 -1.5839,1.1825 -1.5899,0 A1.5899,1.5899 0 0 1 1.5899,0 Z" stroke-linecap="round" fill="#9398b0"/></g></g><g transform="matrix(1, 0, 0, 1, 399, 522)" opacity="1"><g transform="scale(1)"><path d="M0,-1.6721 T1.1825,-1.6696 3.9142,-1.6657 7.1437,-1.6668 10.3504,-1.6719 13.8075,-1.6753 17.6623,-1.6764 21.5553,-1.3693 25.1798,-0.9107 28.3579,-0.7306 31.3827,-0.7024 34.5921,-0.3226 38.1091,0.1519 41.4049,0.2466 44.3887,0.2419 47.3863,0.231 50.3859,0.219 53.3858,0.2062 56.3858,0.1946 59.4232,0.1925 62.5426,0.6154 66.0145,1.0884 69.3966,1.1425 72.8142,1.1398 76.3022,1.1338 79.8004,1.1286 83.4805,0.7802 87.2471,0.297 90.729,0.1436 94.2226,0.1217 97.845,0.1157 100.9481,0.1189 104.0888,-0.2299 107.3714,-0.6887 110.6971,-0.823 114.1522,-0.8572 117.5169,-0.8654 120.733,-0.8656 124.0315,-1.2212 127.3567,-1.688 130.5695,-1.8279 133.6318,-1.8671 136.7739,-1.8793 140.1746,-1.8842 143.5225,-1.8866 146.6191,-1.888 149.6459,-1.8891 152.6533,-1.8899 155.78,-1.8906 158.9399,-1.8912 161.9842,-1.8917 164.9966,-1.8921 168,-1.8924 171.0009,-1.8926 174.5265,-1.8929 178.5555,-1.8931 182.0383,-1.8933 185.5358,-1.8934 189.0351,-1.8935 192.535,-1.8936 196.5568,-1.8936 200.5599,-1.8937 204.2385,-2.0735 207.6242,-2.4957 210.7721,-2.7954 214.2364,-2.8678 218.0271,-2.8828 221.7599,-2.8796 225.6554,-2.8751 229.5744,-2.8723 233.0414,-2.8702 236.0124,-2.8688 239.6925,-3.2181 243.4787,-3.6775 246.969,-3.8171 250.5907,-3.8574 254.1232,-3.8736 257.6329,-3.8845 261.1355,-3.89 264.5116,-3.888 267.7407,-3.8803 271.1654,-3.8706 274.5199,-3.8645 277.6183,-3.8628 281.1947,-3.8626 285.0212,-3.8625 288.7593,-3.8624 292.9574,-3.8623 297.223,-3.8622 300.7205,-3.8637 304.2201,-3.8649 307.72,-3.8643 310.6739,-3.8639 314.2085,-3.8671 317.7181,-3.8725 320.6734,-3.8761 323.9719,-3.8804 327.9886,-3.8883 332.2275,-3.897 336.026,-3.9 339.6943,-3.8954 343.2189,-3.8888 346.3614,-3.884 349.3823,-3.8803 352.3853,-3.8799 355.3858,-3.8823 358.3858,-3.8842 361.3858,-3.8859 364.7626,-4.309 368.2444,-4.8018 371.365,-4.8805 374.3828,-4.8894 377.3854,-4.8905 380.4246,-4.8826 383.5478,-4.4482 386.9601,-4.1635 390.7376,-4.5746 394.2713,-4.8851 397.3684,-4.9405 400.2408,-4.506 402.4959,-3.9901 403.3914,-3.9235 A1.9629,1.9629 0 0 1 402.6086,-0.0765 T401.9264,-0.2136 399.0671,-0.7015 395.4008,-1.0429 392.443,-0.9416 389.4276,-0.4881 386.2602,-0.1986 382.7628,-0.6895 379.386,-1.1088 376.3867,-1.1089 373.3916,-1.1045 370.4254,-1.0835 367.3209,-0.9146 364.2864,-0.4379 361.3858,-0.1141 358.3858,-0.1158 355.3858,-0.1177 352.3853,-0.1201 349.3823,-0.1197 346.3614,-0.116 343.2189,-0.1112 339.6943,-0.1046 336.026,-0.1 332.2275,-0.103 327.9886,-0.1117 323.9719,-0.1196 320.6734,-0.1239 317.7181,-0.1275 314.2085,-0.1329 310.6739,-0.1361 307.72,-0.1357 304.2201,-0.1351 300.7205,-0.1363 297.223,-0.1378 293.7318,-0.1377 290.2921,-0.1377 286.4302,-0.1376 282.5216,-0.1374 278.9814,-0.1373 275.9295,-0.1371 272.7427,-0.1333 269.5189,-0.125 266.1617,-0.1161 262.7272,-0.1106 259.4631,-0.1111 255.961,-0.117 252.4529,-0.1192 248.9248,-0.1058 244.7234,0.0146 240.8144,0.4925 237.6796,0.8652 234.6773,0.8694 231.7322,0.871 228.2949,0.8732 224.4489,0.8775 220.6498,0.8835 216.722,0.8948 212.7655,0.9352 209.0038,1.1374 204.8823,1.6005 200.5599,1.8937 196.5568,1.8936 192.535,1.8936 189.0351,1.8935 185.5358,1.8934 182.0383,1.8933 178.5555,1.8931 174.5265,1.8929 171.0009,1.8926 168,1.8924 164.9966,1.8921 161.9842,1.8917 158.9399,1.8912 155.78,1.8906 152.6533,1.8899 149.6459,1.8891 146.6192,1.8882 143.523,1.8872 140.177,1.8863 136.7819,1.8869 133.6596,1.8944 130.6672,1.9265 127.6834,2.043 124.3007,2.4995 120.7532,2.8677 117.5239,2.873 114.1825,2.8846 110.7982,2.9216 107.7019,3.0436 104.3629,3.5078 100.9684,3.8817 97.8474,3.8864 94.2362,3.8913 90.0678,3.9243 86.4003,4.1362 82.7396,4.5957 78.7236,4.8698 75.2263,4.8638 71.7441,4.8551 68.3655,4.8359 65.2488,4.7473 62.2291,4.2382 59.3484,3.8075 56.3858,3.8054 53.3858,3.7938 50.3858,3.7809 47.3854,3.7685 44.383,3.7545 41.3667,3.7288 38.257,3.635 35.2374,3.1237 32.3391,2.6879 29.3065,2.666 25.9034,2.5138 21.8227,2.0297 17.6623,1.6764 13.8075,1.6753 10.3504,1.6719 7.1437,1.6668 3.9142,1.6657 1.1825,1.6696 0,1.6721 A1.6721,1.6721 0 0 1 0,-1.6721 Z" stroke-linecap="round" fill="#9398b0"/></g></g><g transform="matrix(1, 0, 0, 1, 521, 442)" opacity="1"><g transform="scale(1)"><path d="M-1.8737,0.4684 T-2.0991,-0.4806 -2.8871,-3.4406 -4.3088,-6.7586 -6.2777,-9.7623 -7.9641,-12.9122 -9.2806,-15.6827 -10.4106,-18.8423 -11.2647,-22.1288 -12.2321,-25.4569 -13.2325,-28.9317 -14.2325,-32.0344 -15.249,-35.3364 -16.1821,-38.4942 -17.1043,-41.8805 -18.1036,-45.997 -19.0999,-50.1082 -19.7375,-53.6368 -20.2525,-56.6076 -20.9495,-59.7299 -21.5251,-63.5302 -22.1876,-67.304 -22.9295,-70.6541 -23.5262,-74.1273 -24.2071,-77.342 -25.113,-80.6633 -25.9516,-84.3906 -26.7503,-87.8122 -27.5054,-91.2526 -28.2425,-94.871 -29.1538,-98.5441 -30.1362,-102.4567 -30.9789,-105.9303 -31.7572,-108.9947 -32.5258,-112.3823 -33.2783,-115.6194 -34.1925,-118.8195 -35.0386,-122.4208 -35.8533,-126.1961 -36.7956,-129.7334 -37.5974,-133.2129 -38.3428,-136.5595 -39.1071,-139.6753 -39.8749,-142.9265 -40.8223,-146.366 -41.8521,-150.1697 -42.6776,-153.9649 -43.4266,-157.2733 -44.3712,-160.788 -45.2198,-164.5518 -45.8288,-168.4467 -46.5254,-172.9175 -47.2786,-177.1553 -48.0579,-181.0859 -48.8095,-185.3135 -49.5365,-189.4938 -50.0928,-193.2939 -50.6067,-196.8714 -51.2761,-200.0658 -51.8536,-203.6389 -52.5671,-207.6012 -53.1236,-211.5664 -53.6448,-215.1758 -54.1579,-218.4722 -54.5131,-221.7919 -54.9786,-225.4911 -55.4782,-229.4219 -55.9884,-233.0249 -56.3061,-236.8226 -56.7432,-240.3468 -57.2354,-243.8618 -57.7357,-247.3613 -58.241,-250.6152 -58.4087,-254.1291 -58.6496,-257.7236 -59.0927,-260.9671 -59.3969,-263.9535 -59.479,-266.9918 -59.5025,-269.9989 -59.5068,-273.526 -59.5033,-277.1943 -59.4991,-280.3578 -59.4897,-283.3817 -59.4725,-286.3852 -59.4563,-288.9428 -59.4502,-290 A2.4502,2.4502 0 0 1 -54.5498,-290 T-54.5437,-288.9428 -54.5275,-286.3852 -54.5103,-283.3818 -54.5008,-280.358 -54.4962,-277.1952 -54.4896,-273.5321 -54.483,-270.0235 -54.4528,-266.4547 -54.2555,-262.6537 -53.7991,-259.1759 -53.5025,-255.8042 -53.3911,-251.9833 -52.8837,-247.9038 -52.3942,-244.3827 -51.9229,-240.8234 -51.4918,-237.0802 -51.284,-233.8127 -50.7995,-230.1811 -50.3182,-226.2669 -49.8525,-222.5245 -49.4552,-218.9573 -48.9622,-215.6609 -48.4613,-212.0328 -47.9383,-208.1436 -47.3654,-204.6296 -46.8094,-201.1914 -45.9979,-197.3448 -45.4835,-193.7744 -44.9379,-190.0423 -44.298,-186.2035 -43.6263,-182.3625 -42.7787,-178.0462 -41.9776,-173.3951 -41.382,-169.2657 -40.7777,-165.0747 -39.8283,-160.4448 -38.7469,-155.8964 -37.6995,-151.5797 -36.7575,-147.9192 -35.8064,-144.3905 -34.8215,-140.1776 -33.9253,-136.0342 -33.0388,-132.5334 -32.071,-128.941 -31.1515,-125.0977 -30.5334,-121.4802 -29.8757,-118.3433 -29.0011,-115.143 -28.1197,-111.8724 -27.2027,-108.4073 -26.5515,-104.9913 -25.8515,-101.4598 -24.9048,-97.6066 -24.0417,-93.9994 -23.1666,-90.4909 -22.2525,-86.8578 -21.6149,-83.3084 -20.9821,-79.9019 -20.0235,-75.8385 -19.1284,-71.5808 -18.3178,-67.8318 -17.6941,-64.249 -17.1365,-60.6624 -16.3543,-57.0952 -15.7325,-53.6475 -15.0193,-49.8658 -14.0606,-45.6712 -13.0976,-41.4561 -12.1334,-37.601 -11.1756,-34.2976 -10.161,-31.1817 -9.2165,-28.1562 -8.3159,-25.0612 -7.3925,-21.7988 -6.4977,-18.4925 -5.4136,-15.4702 -3.9366,-12.9214 -2.381,-10.4073 -0.7915,-7.7812 0.7281,-4.3922 1.6261,-1.4114 1.8737,-0.4684 A1.9313,1.9313 0 0 1 -1.8737,0.4684 ZM-54.5498,-290 T-54.5604,-288.9711 -54.587,-286.5156 -54.6222,-283.2386 -54.6552,-279.4101 -54.3391,-275.654 -53.8768,-272.0589 -53.7315,-268.6876 -53.4176,-265.341 -52.9444,-261.8542 -52.7582,-258.6399 -52.7584,-255.6638 -52.3465,-252.5235 -51.8593,-249.0355 -51.7927,-245.6815 -51.7892,-242.6242 -51.7962,-239.6156 -51.3941,-236.2561 -50.9223,-232.7767 -50.8552,-229.638 -50.8569,-226.6176 -50.8657,-223.6147 -50.4575,-220.2521 -49.9793,-216.7723 -49.7274,-213.7183 -49.2775,-210.3038 -48.9945,-206.7759 -48.5451,-203.5261 -47.7188,-199.7347 -47.2,-196.1045 -46.6191,-192.6149 -45.7603,-189.2847 -45.2253,-186.2662 -44.6402,-182.6108 -43.6953,-178.6253 -42.7977,-175.1547 -41.8933,-171.3967 -40.9037,-167.0229 -39.9073,-162.544 -38.9068,-158.0477 -38.1093,-154.4647 -37.5068,-151.3409 -36.7004,-147.789 -35.685,-144.1975 -34.7557,-140.5547 -34.1857,-136.9452 -33.6025,-133.8484 -32.672,-130.9244 -31.7709,-128.0268 -30.8709,-124.6352 -30.2209,-120.9123 -29.6316,-117.2843 -28.7994,-113.9997 -27.902,-110.6239 -26.9167,-107.1414 -26.2565,-103.6982 -25.6429,-100.1121 -24.6941,-96.6705 -23.767,-93.271 -22.8383,-89.6677 -22.157,-85.9224 -21.5371,-82.2937 -21.0195,-78.8128 -20.5089,-75.814 -19.5648,-72.4021 -18.6483,-68.529 -18.0833,-64.9586 -17.4798,-61.8375 -16.5318,-58.4348 -15.531,-54.9523 -14.6135,-52.0613 -13.6071,-49.0139 -12.5881,-45.5036 -12.0125,-41.9681 -11.4161,-38.8434 -10.5863,-35.9825 -9.6825,-32.6295 -8.637,-29.2279 -7.4732,-25.9928 -6.3673,-22.7787 -5.3906,-19.3748 -4.3864,-15.9124 -3.0225,-12.6158 -1.6055,-9.2757 -0.1023,-6.2111 1.7377,-3.3591 4.4678,-0.6433 7.9803,2.0209 10.6138,4.6074 13.0911,7.0468 16.0691,9.5321 19.3964,11.8748 21.2573,12.8806 A2.4643,2.4643 0 0 1 18.7427,17.1194 T16.9197,15.9484 13.9085,13.6744 11.5297,11.7289 9.0448,9.6405 6.4341,7.0766 3.961,4.6811 1.4279,2.622 -1.2847,0.0422 -3.4532,-2.8692 -4.7822,-5.5668 -5.9726,-8.4041 -7.4679,-11.9507 -8.852,-15.4103 -9.8869,-18.2787 -10.7456,-21.1879 -11.7106,-24.5338 -12.9023,-28.2584 -13.8681,-31.5961 -14.7678,-34.9819 -15.7791,-38.3831 -16.3701,-41.5312 -16.8454,-45.0993 -17.8415,-48.6077 -19.0104,-52.107 -20.0006,-55.6148 -20.9791,-59.1609 -21.8632,-63.0019 -22.7007,-66.3912 -23.2968,-69.5607 -23.9387,-73.1876 -24.7774,-76.6234 -25.2668,-79.6283 -25.7543,-82.627 -26.246,-85.6234 -26.8971,-89.3257 -27.7782,-92.9442 -28.6279,-96.1732 -29.5575,-99.7204 -30.1755,-103.3612 -30.8315,-106.7024 -31.8235,-110.2274 -32.8216,-114.2449 -33.6714,-117.6487 -34.1875,-120.6238 -34.7959,-123.9009 -35.7003,-127.2015 -36.6493,-130.3041 -37.5927,-133.381 -38.208,-136.6059 -38.7667,-140.0789 -39.6559,-143.6842 -40.6289,-147.3026 -41.5708,-151.087 -42.2517,-154.624 -42.9498,-158.4922 -43.9481,-162.9841 -44.8602,-166.8277 -45.681,-169.948 -46.5801,-173.2678 -47.225,-176.7179 -47.8311,-179.725 -48.6748,-182.731 -49.301,-186.2646 -49.899,-189.7726 -50.6834,-192.8085 -51.2386,-195.795 -51.7875,-199.4044 -52.6143,-203.2422 -53.0944,-206.5408 -53.3302,-209.5286 -53.8175,-212.5466 -54.1819,-215.9656 -54.6777,-219.4326 -55.1219,-222.5702 -55.1422,-225.6123 -55.1593,-228.6016 -55.2381,-231.9615 -55.7397,-235.4275 -56.1897,-238.5694 -56.2105,-241.6157 -56.2236,-244.625 -56.2682,-247.7007 -56.4315,-250.7147 -56.9102,-254.1329 -57.2755,-257.5765 -57.2755,-260.5907 -57.7725,-263.6229 -58.2927,-266.6086 -58.3378,-269.5808 -58.5585,-272.5563 -59.0371,-275.7438 -59.3448,-279.4101 -59.3778,-283.2386 -59.413,-286.5156 -59.4396,-288.9711 -59.4502,-290 A2.4502,2.4502 0 0 1 -54.5498,-290 Z" stroke-linecap="round" fill="#ffc034"/></g></g><g transform="matrix(1, 0, 0, 1, 541, 457)" opacity="1"><g transform="scale(1)"><path d="M1.5276,-2.0368 T2.4682,-1.3256 4.6939,0.3475 7.6613,2.474 10.7046,4.5162 13.3293,6.6178 15.993,8.7615 19.3313,10.4426 22.698,11.6847 25.6472,12.8716 29.2147,14.3633 32.5762,15.7437 35.58,17.2661 39.2636,19.1698 42.7983,20.7242 45.9483,21.7739 49.0739,22.7419 52.3139,23.7009 55.5667,24.66 58.5992,25.6555 61.6041,26.6544 65.0724,27.6579 69.0376,28.6618 72.7098,29.3751 75.7718,29.9915 79.2487,30.5111 82.7456,31.0102 85.5939,31.7863 88.7102,32.3839 91.7723,32.9878 95.0841,33.432 98.6142,33.905 102.1159,34.4017 105.6161,34.9018 109.1161,35.4021 112.6162,35.9014 116.0661,36.3861 119.4421,36.8019 122.4757,37.288 125.4394,37.4292 128.3937,37.449 131.4269,37.8096 134.4723,38.2928 137.439,38.4355 140.3936,38.455 143.387,38.4575 146.386,38.4575 149.3859,38.459 152.3858,38.4696 155.3858,38.4868 158.3858,38.5019 161.3858,38.5144 164.3858,38.5214 167.587,38.1975 171.0418,37.7174 174.334,37.5441 177.3782,37.5245 180.3847,37.5259 183.3857,37.5299 186.3858,37.5326 189.3858,37.5349 192.3858,37.5368 195.3858,37.5384 198.3858,37.5397 202.0492,37.541 205.8168,37.5421 209.356,37.5429 213.0448,37.5446 216.6971,37.5491 220.2193,37.5545 223.3792,37.5629 226.4978,37.9544 229.5052,38.4416 232.7847,38.5631 236.3096,38.9644 239.8324,39.4531 243.1743,39.9469 246.4953,40.4443 249.7876,40.5763 252.8868,40.9785 256.0247,41.4565 259.2485,41.5952 262.5394,41.6816 265.0563,41.7557 266.007,41.7849 A2.2151,2.2151 0 0 1 265.993,46.2151 T264.1841,46.2616 260.7155,46.3122 257.4304,46.2698 253.4658,45.8011 249.668,45.3697 246.7581,45.3017 243.3667,44.8006 239.9268,44.3065 236.9756,44.0209 233.6717,43.5895 230.139,43.3272 226.6517,42.8466 223.3437,42.4371 220.2193,42.4455 216.6971,42.4509 213.0448,42.4554 209.356,42.4571 205.8168,42.4579 202.0492,42.459 198.3858,42.4603 195.3858,42.4616 192.3858,42.4632 189.3858,42.4651 186.3859,42.4674 183.386,42.4703 180.3869,42.4751 177.3934,42.4823 174.4377,42.5025 171.4564,42.6447 168.4112,43.1242 165.3858,43.478 162.3858,43.4828 159.3858,43.4937 156.3858,43.5079 153.3858,43.5249 150.3858,43.5384 147.3857,43.5425 144.3852,43.5419 141.3817,43.54 138.3578,43.5288 135.1956,43.4488 131.7191,42.9624 128.378,42.5441 125.3323,42.524 122.03,42.35 118.5519,41.8595 115.1938,41.4484 111.6939,40.9453 108.194,40.4447 104.6942,39.9451 101.1953,39.446 97.7119,38.9504 94.3184,38.4902 91.0783,37.8895 87.8228,37.2467 84.4538,36.7631 81.2609,35.9411 78.3185,35.4832 75.077,34.8839 71.8062,34.238 68.2233,33.6517 64.1988,32.6332 60.6768,31.6155 57.6802,30.6175 54.7027,29.6343 51.2023,28.6329 47.6979,27.6281 44.1393,26.5775 40.0686,25.0188 36.2695,23.1436 33.1769,21.5832 30.026,19.9996 26.1815,18.137 22.8302,16.7449 19.9999,15.8037 16.8286,14.6 13.6044,12.8834 10.997,10.8482 8.4029,8.7779 5.374,6.7277 2.1111,4.5939 -0.5762,2.7446 -1.5276,2.0368 A2.546,2.546 0 0 1 1.5276,-2.0368 Z" stroke-linecap="round" fill="#ffc034"/></g></g><g transform="matrix(1, 0, 0, 1, 496, 519)" opacity="1"><g transform="scale(1)"><path d="M1.7755,0 T1.7868,0.5976 1.8447,3.289 1.9171,7.0974 1.8891,10.4061 1.8354,12 A1.8354,1.8354 0 0 1 -1.8354,12 T-1.8891,10.4061 -1.9171,7.0974 -1.8447,3.289 -1.7868,0.5976 -1.7755,0 A1.7755,1.7755 0 0 1 1.7755,0 Z" stroke-linecap="round" fill="#4dabf7"/></g></g><g transform="matrix(1, 0, 0, 1, 497, 558)" opacity="1"><g transform="scale(1)"><path d="M1.5795,0.7897 T1.1221,1.7587 -0.8032,4.3352 -3.2909,7.3442 -5.3019,10.0158 -6.8826,12.141 -7.4722,12.9962 A1.8239,1.8239 0 0 1 -10.5278,11.0038 T-9.9831,10.1194 -8.3771,7.7761 -6.1473,4.7971 -3.7677,2.1666 -2.0681,0.1333 -1.5795,-0.7897 A1.7659,1.7659 0 0 1 1.5795,0.7897 Z" stroke-linecap="round" fill="#4dabf7"/></g></g><g transform="matrix(1, 0, 0, 1, 490, 559)" opacity="1"><g transform="scale(1)"><path d="M1.3349,-1.0012 T2.0531,-0.0691 4.3919,2.2402 7.6037,5.1979 9.1949,6.7785 A1.7088,1.7088 0 0 1 6.8051,9.2215 T5.9605,8.4073 3.8587,6.3858 1.3342,4.0498 -0.6341,1.9611 -1.3349,1.0012 A1.6686,1.6686 0 0 1 1.3349,-1.0012 Z" stroke-linecap="round" fill="#4dabf7"/></g></g><g transform="matrix(1, 0, 0, 1, 602, 520)" opacity="1"><g transform="scale(1)"><path d="M1.3282,0 T1.3427,0.8341 1.3711,3.108 1.3509,6.7738 1.3167,9 A1.3167,1.3167 0 0 1 -1.3167,9 T-1.3509,6.7738 -1.3711,3.108 -1.3427,0.8341 -1.3282,0 A1.3282,1.3282 0 0 1 1.3282,0 Z" stroke-linecap="round" fill="#4dabf7"/></g></g><g transform="matrix(1, 0, 0, 1, 596, 562)" opacity="1"><g transform="scale(1)"><path d="M1.3404,0.8042 T0.6568,2.0023 -1.192,5.1728 -3.4653,8.4775 -5.6141,11.342 -6.6547,12.8743 A1.6044,1.6044 0 0 1 -9.3453,11.1257 T-8.2357,9.3494 -6.1407,6.3996 -3.9832,3.3779 -2.0758,0.3627 -1.3404,-0.8042 A1.5632,1.5632 0 0 1 1.3404,0.8042 Z" stroke-linecap="round" fill="#4dabf7"/></g></g><g transform="matrix(1, 0, 0, 1, 588, 560)" opacity="1"><g transform="scale(1)"><path d="M1.1552,-0.8664 T1.883,0.0658 3.6428,2.4479 5.4193,5.6087 7.2895,9.0341 8.8499,11.446 9.2847,12.1432 A1.5442,1.5442 0 0 1 6.7153,13.8568 T5.967,12.7615 4.1448,10.0187 2.4813,6.8466 1.0594,4.0539 -0.464,1.8262 -1.1552,0.8664 A1.444,1.444 0 0 1 1.1552,-0.8664 Z" stroke-linecap="round" fill="#4dabf7"/></g></g><g transform="matrix(1, 0, 0, 1, 607, 563)" opacity="1"><g transform="scale(1)"><path d="M1.473,-0.2946 T1.7329,0.8833 2.2219,3.6821 2.96,6.9134 3.4689,8.5239 A1.5442,1.5442 0 0 1 0.5311,9.4761 T-0.1063,7.55 -0.8953,4.1464 -1.2599,1.4817 -1.473,0.2946 A1.5022,1.5022 0 0 1 1.473,-0.2946 Z" stroke-linecap="round" fill="#4dabf7"/></g></g><g transform="matrix(1, 0, 0, 1, 612, 569)" opacity="1"><g transform="scale(1)"><path d="M-0.3187,1.5933 T-1.5077,1.3897 -4.1631,1.0383 -7.8344,0.793 -10.0392,0.6955 A1.696,1.696 0 0 1 -9.9608,-2.6955 T-9.0812,-2.6901 -6.7495,-2.6412 -3.6653,-2.3649 -0.8573,-1.8627 0.3187,-1.5933 A1.6248,1.6248 0 0 1 -0.3187,1.5933 Z" stroke-linecap="round" fill="#4dabf7"/></g></g><g transform="matrix(1, 0, 0, 1, 617, 560)" opacity="1"><g transform="scale(1)"><path d="M1.5212,-0.7606 T2.0111,0.1782 2.9821,2.6793 3.6139,5.8355 3.5335,9.2738 3.0584,11.8662 2.8142,12.614 A1.9153,1.9153 0 0 1 -0.8142,11.386 T-0.554,10.6435 -0.1333,8.1357 -0.291,4.5187 -1.0651,1.7138 -1.5212,0.7606 A1.7007,1.7007 0 0 1 1.5212,-0.7606 ZM-0.6927,11.1038 T-0.4377,10.6353 0.6952,8.2736 2.5992,5.1768 5.0069,3.293 6.3888,2.6128 A1.7922,1.7922 0 0 1 7.4204,6.0456 T7.1153,6.1135 5.7474,7.2709 3.9805,10.064 2.9846,12.332 2.6927,12.8962 A1.9153,1.9153 0 0 1 -0.6927,11.1038 ZM7.9867,2.9005 T8.6799,3.4373 9.9596,5.5757 11.0751,9.1432 11.6812,11.9615 11.7584,12.8139 A1.7682,1.7682 0 0 1 8.2416,13.1861 T7.9798,11.3208 7.3412,8.0274 6.3935,6.1786 5.8225,5.7579 A1.7922,1.7922 0 0 1 7.9867,2.9005 Z" stroke-linecap="round" fill="#4dabf7"/></g></g><g transform="matrix(1, 0, 0, 1, 493, 526)" opacity="1"><g transform="scale(1)"><path d="M-1.5722,-0.262 T-1.3255,-1.6793 -0.8882,-4.9947 -0.6443,-8.8532 -0.2189,-12.8943 0.2384,-17.2602 0.3387,-21.6324 0.7203,-25.6323 1.1708,-29.2601 1.2748,-32.5414 1.5662,-35.8545 1.9919,-39.2966 2.188,-42.9121 2.2342,-46.5752 2.5189,-50.1653 2.968,-54.1177 3.1591,-57.8253 3.1792,-61.4259 3.1679,-65.3135 3.1467,-69.047 3.1256,-73.0523 3.1155,-76.6927 3.1139,-79.6663 3.1124,-83.0201 3.1112,-86.6042 3.1074,-89.891 3.0988,-92.9707 3.0891,-96.5189 3.0884,-100.4298 3.0935,-104.0556 3.375,-107.3555 3.8311,-110.6368 4.0352,-114.0895 4.0653,-117.3453 4.0658,-120.38 4.0625,-123.385 4.0592,-126.3857 4.0537,-129.3858 4.0528,-132.3456 3.6242,-135.2173 3.1221,-138.2387 3.0504,-141.4173 3.0491,-142.9866 A1.951,1.951 0 0 1 6.9509,-143.0134 T6.9614,-142.1929 7.0361,-139.2573 7.5222,-135.5543 7.9472,-132.4261 7.9463,-129.3858 7.9408,-126.3856 7.9373,-123.3845 7.9323,-120.3767 7.9218,-117.3244 7.8764,-113.9856 7.7175,-110.709 7.2508,-107.5135 6.9065,-104.0556 6.9116,-100.4298 6.9109,-96.5189 6.9012,-92.9707 6.8926,-89.891 6.8888,-86.6042 6.8875,-83.0201 6.8861,-79.6663 6.8844,-76.6926 6.8738,-73.0518 6.8512,-69.0449 6.8245,-65.3076 6.7933,-61.3974 6.7418,-57.7262 6.59,-54.4699 6.1097,-51.4424 5.7335,-48.394 5.6784,-44.7666 5.5212,-40.7478 5.0333,-36.4005 4.6245,-32.4591 4.4665,-28.9293 3.9735,-25.3397 3.5588,-21.5566 3.3923,-17.0072 2.8892,-12.6556 2.4572,-8.7136 2.2149,-4.6334 1.7985,-1.1587 1.5722,0.262 A1.5939,1.5939 0 0 1 -1.5722,-0.262 Z" stroke-linecap="round" fill="#4dabf7"/></g></g><g transform="matrix(1, 0, 0, 1, 602, 528)" opacity="1"><g transform="scale(1)"><path d="M-1.5119,0 T-1.5115,-1.1825 -1.5106,-3.9142 -1.5074,-7.5049 -1.5024,-11.5523 -1.5017,-15.1982 -1.5071,-18.7852 -1.5133,-22.2979 -1.5215,-25.373 -1.5421,-28.384 -1.2588,-31.7212 -0.7976,-34.9946 -0.5854,-37.2521 -0.5362,-38.0722 A1.5379,1.5379 0 0 1 2.5362,-37.9278 T2.3982,-35.7157 1.9086,-31.6945 1.5421,-28.384 1.5215,-25.373 1.5133,-22.2979 1.5071,-18.7852 1.5017,-15.1982 1.5024,-11.5523 1.5074,-7.5049 1.5106,-3.9142 1.5115,-1.1825 1.5119,0 A1.5119,1.5119 0 0 1 -1.5119,0 Z" stroke-linecap="round" fill="#4dabf7"/></g></g><g transform="matrix(1, 0, 0, 1, 495, 524)" opacity="1"><g transform="scale(1)"><path d="M-1.5645,0 T-1.5558,-1.1825 -1.5406,-4.2754 -1.5336,-7.9845 -1.5343,-10.8917 -1.5358,-12 A1.5358,1.5358 0 0 1 1.5358,-12 T1.5343,-10.8917 1.5336,-7.9845 1.5406,-4.2754 1.5558,-1.1825 1.5645,0 A1.5645,1.5645 0 0 1 -1.5645,0 ZM1.5358,-12 T1.5245,-11.44 1.9879,-9.0388 2.5034,-4.9957 2.5594,-1.3117 2.5945,2.0845 2.6142,3.9989 A1.6142,1.6142 0 0 1 -0.6142,4.0011 T-0.6031,2.7565 -0.5812,0.0256 -0.5709,-2.9108 -0.6227,-6.1086 -1.0935,-9.272 -1.5245,-11.3439 -1.5358,-12 A1.5358,1.5358 0 0 1 1.5358,-12 ZM-0.6142,4.0001 T-0.6188,3.3863 -0.6389,0.9302 -0.6241,-2.4561 -0.5938,-4 A1.5938,1.5938 0 0 1 2.5938,-4 T2.624,-2.4561 2.6388,0.9304 2.6188,3.3864 2.6142,3.9999 A1.6142,1.6142 0 0 1 -0.6142,4.0001 Z" stroke-linecap="round" fill="#4dabf7"/></g></g><g transform="matrix(1, 0, 0, 1, 525, 294)" opacity="1"><g transform="scale(1)"><path d="M1.7748,0 T1.7696,1.1825 1.7617,3.9142 2.179,7.1344 4.2353,8.5686 6.8699,7.2791 8.0503,5.0444 8.2323,3.8624 A1.7333,1.7333 0 0 1 11.6772,4.2504 T11.5262,5.4074 10.7379,7.9315 9.007,10.2636 6.3905,11.9442 2.9928,12.2754 -0.0052,10.7196 -1.4437,7.5059 -1.7617,3.9142 -1.7696,1.1825 -1.7748,0 A1.7748,1.7748 0 0 1 1.7748,0 ZM11.6874,4.0074 T11.6927,4.5448 12.6896,6.8049 15.0818,10.4143 17.531,14.1615 19.448,18.1638 20.5835,22.4704 20.6582,26.7561 19.4931,30.4712 16.7045,32.8959 12.9901,33.9145 8.8575,33.8866 5.3285,32.958 2.0833,30.7394 -0.7046,27.279 -1.725,23.2802 -1.908,21.2357 A1.9225,1.9225 0 0 1 1.908,20.7643 T2.0705,21.7617 2.7414,24.4605 4.8003,27.2755 7.7061,29.0554 10.7969,29.6847 14.2426,29.1095 16.3887,26.7506 16.6696,23.1236 15.8627,19.5618 14.2839,16.0382 12.4512,12.972 10.6897,10.2756 9.0555,7.1082 8.2495,4.7225 8.2222,4.1054 A1.7333,1.7333 0 0 1 11.6874,4.0074 Z" stroke-linecap="round" fill="#ffc034"/></g></g><g transform="matrix(1, 0, 0, 1, 545, 295)" opacity="1"><g transform="scale(1)"><path d="M-0.6285,-1.2571 T0.3043,-1.7584 2.8737,-2.8897 5.4764,-3.9116 6.4426,-4.3035 A1.4177,1.4177 0 0 1 7.5574,-1.6965 T6.6064,-1.2687 4.1011,-0.2366 1.5877,0.8124 0.6285,1.2571 A1.4054,1.4054 0 0 1 -0.6285,-1.2571 Z" stroke-linecap="round" fill="#ffc034"/></g></g><g transform="matrix(1, 0, 0, 1, 547, 301)" opacity="1"><g transform="scale(1)"><path d="M-0.9712,-1.2949 T-0.0338,-2.0194 2.8116,-3.4455 5.6823,-4.3485 6.645,-4.5499 A1.59,1.59 0 0 1 7.355,-1.4501 T5.1177,-0.7721 1.9258,0.6004 0.9712,1.2949 A1.6187,1.6187 0 0 1 -0.9712,-1.2949 Z" stroke-linecap="round" fill="#ffc034"/></g></g><g transform="matrix(1, 0, 0, 1, 562, 273)" opacity="1"><g transform="scale(1)"><path d="M1.3223,-0.5289 T1.8317,0.6406 2.9813,3.6735 3.9733,6.9667 4.8918,10.5515 5.4586,12.7066 A1.4878,1.4878 0 0 1 2.5414,13.2934 T2.2493,11.8988 1.3481,8.6694 0.145,4.8772 -0.8857,1.7244 -1.3223,0.5289 A1.4242,1.4242 0 0 1 1.3223,-0.5289 Z" stroke-linecap="round" fill="#ffc034"/></g></g><g transform="matrix(1, 0, 0, 1, 578, 287)" opacity="1"><g transform="scale(1)"><path d="M1.2399,1.2399 T0.7766,1.7272 -1.2956,3.1901 -4.7408,4.8217 -8.0389,6.5022 -11.2616,8.55 -13.0224,9.5732 A1.8522,1.8522 0 0 1 -14.9776,6.4268 T-13.4958,5.435 -10.6508,3.4473 -7.6556,1.9377 -4.1145,0.5508 -1.7226,-0.7812 -1.2399,-1.2399 A1.7535,1.7535 0 0 1 1.2399,1.2399 Z" stroke-linecap="round" fill="#ffc034"/></g></g><g transform="matrix(1, 0, 0, 1, 572, 300)" opacity="1"><g transform="scale(1)"><path d="M1.6362,0 T1.6568,1.1825 1.6983,3.9142 1.9198,7.0902 3.5406,9.7302 6.6495,10.2277 9.2093,9.1632 10.0803,8.6145 A1.6629,1.6629 0 0 1 11.9197,11.3855 T9.9832,12.6319 6.5344,14.0909 2.9047,13.2744 -0.1936,11.0613 -1.4468,7.6703 -1.6983,3.9142 -1.6568,1.1825 -1.6362,0 A1.6362,1.6362 0 0 1 1.6362,0 Z" stroke-linecap="round" fill="#ffc034"/></g></g><g transform="matrix(1, 0, 0, 1, 575, 304)" opacity="1"><g transform="scale(1)"><path d="M0.7063,1.7658 T-0.4863,2.2134 -3.0061,3.1639 -4.3333,3.6669 A1.7953,1.7953 0 0 1 -5.6667,0.3331 T-4.3589,-0.2179 -1.8787,-1.2674 -0.7063,-1.7658 A1.9019,1.9019 0 0 1 0.7063,1.7658 Z" stroke-linecap="round" fill="#ffc034"/></g></g><g transform="matrix(1, 0, 0, 1, 597, 508)" opacity="1"><g transform="scale(1)"><path d="M0.9351,0.9351 T0.2264,1.6454 -1.7865,3.3953 -4.8531,5.7584 -8.0567,8.0703 -10.9854,10.0496 -13.391,11.5897 -14.3093,12.1389 A1.332,1.332 0 0 1 -15.6907,9.8611 T-14.7793,9.3007 -12.3921,7.7427 -9.4903,5.7757 -6.847,3.9201 -3.9927,1.7582 -1.6454,-0.2264 -0.9351,-0.9351 A1.3225,1.3225 0 0 1 0.9351,0.9351 Z" stroke-linecap="round" fill="#4dabf7"/></g></g><g transform="matrix(1, 0, 0, 1, 595, 497)" opacity="1"><g transform="scale(1)"><path d="M0.8369,1.0461 T-0.3438,1.9947 -3.7442,4.3603 -7.9804,7.2256 -12.2214,10.3694 -16.5325,13.6102 -19.9407,16.0898 -21.2623,17.0241 A1.2621,1.2621 0 0 1 -22.7377,14.9759 T-21.4329,14.0182 -18.0771,11.4805 -13.7548,8.1447 -9.4187,4.9157 -5.2795,2.1415 -2.0212,-0.1027 -0.8369,-1.0461 A1.3397,1.3397 0 0 1 0.8369,1.0461 Z" stroke-linecap="round" fill="#4dabf7"/></g></g><g transform="matrix(1, 0, 0, 1, 579, 487)" opacity="1"><g transform="scale(1)"><path d="M1.1464,0.6878 T0.4321,1.8726 -2.2163,4.7941 -6.397,8.0944 -9.9697,10.4712 -12.7055,12.1892 -15.5716,14.0383 -18.726,16.1762 -22.0476,18.4788 -25.1888,20.8437 -28.2685,23.2638 -31.1469,25.2903 -34.9275,27.5878 -37.3918,29.0234 A1.1905,1.1905 0 0 1 -38.6082,26.9766 T-36.2202,25.5281 -32.5883,23.2506 -29.8439,21.2749 -26.7417,18.7932 -23.5378,16.3445 -20.2044,14.0009 -17.0136,11.81 -14.1222,9.9329 -11.3182,8.1702 -7.8491,5.8598 -4.1542,3.0343 -1.8511,0.4924 -1.1464,-0.6878 A1.3369,1.3369 0 0 1 1.1464,0.6878 Z" stroke-linecap="round" fill="#4dabf7"/></g></g><g transform="matrix(1, 0, 0, 1, 556, 484)" opacity="1"><g transform="scale(1)"><path d="M1.3753,0.8252 T0.6652,2.0086 -1.1888,4.6222 -3.6916,7.3139 -6.6991,9.9417 -10.1571,12.7357 -13.8617,15.6295 -17.7055,18.572 -21.6326,21.5287 -25.3277,24.4617 -28.719,27.1848 -32.0603,29.4009 -35.9604,31.4502 -39.3535,32.9481 -40.5131,33.3427 A1.4283,1.4283 0 0 1 -41.4869,30.6573 T-40.3439,30.2169 -37.2409,28.7084 -33.8098,26.7853 -30.7519,24.6809 -27.3855,21.8982 -23.6429,18.8715 -19.7395,15.9047 -15.905,12.9923 -12.2198,10.1615 -8.8359,7.4781 -6.0409,5.0975 -3.816,2.7732 -2.0842,0.3564 -1.3753,-0.8252 A1.6039,1.6039 0 0 1 1.3753,0.8252 Z" stroke-linecap="round" fill="#4dabf7"/></g></g><g transform="matrix(1, 0, 0, 1, 547, 476)" opacity="1"><g transform="scale(1)"><path d="M1.1484,0.8203 T-0.0346,2.4756 -2.3417,5.5123 -4.8247,8.1464 -7.6106,10.5291 -10.7174,12.9592 -13.9527,15.6246 -17.3582,18.2551 -20.7995,20.8342 -23.9927,23.3516 -27.2192,25.4668 -30.1421,27.0707 -32.7021,28.4465 -33.9638,29.1302 A1.4497,1.4497 0 0 1 -35.8895,26.9627 T-34.36,26.064 -31.5576,24.4791 -28.8257,22.9863 -25.8099,21.0206 -22.5432,18.4868 -19.1117,15.9688 -15.7587,13.415 -12.4522,10.7307 -9.4285,8.3948 -6.8644,6.2215 -4.5806,3.8006 -2.3304,0.8354 -1.1484,-0.8203 A1.4113,1.4113 0 0 1 1.1484,0.8203 ZM-35.9387,29.0845 T-36.465,28.5506 -36.9913,28.0168 A1.4201,1.4201 0 0 1 -35.0087,25.9832 T-34.4617,26.4958 -33.9146,27.0084 A1.4497,1.4497 0 0 1 -35.9387,29.0845 Z" stroke-linecap="round" fill="#4dabf7"/></g></g><g transform="matrix(1, 0, 0, 1, 534, 462)" opacity="1"><g transform="scale(1)"><path d="M1.2576,0.7546 T0.5505,1.9392 -1.0519,4.291 -3.1383,6.7875 -5.7096,9.3336 -8.8082,11.6928 -12.096,13.8812 -15.205,15.9463 -18.0569,17.7564 -20.7483,19.4075 -23.679,21.2389 -25.2305,22.2101 A1.4341,1.4341 0 0 1 -26.7695,19.7899 T-25.232,18.7968 -22.3012,16.9008 -19.6519,15.2385 -16.8573,13.454 -13.7396,11.3908 -10.597,9.3356 -7.7766,7.2326 -4.6005,3.8764 -1.9695,0.4258 -1.2576,-0.7546 A1.4666,1.4666 0 0 1 1.2576,0.7546 Z" stroke-linecap="round" fill="#4dabf7"/></g></g><g transform="matrix(1, 0, 0, 1, 524, 453)" opacity="1"><g transform="scale(1)"><path d="M1.0187,1.0187 T0.0723,1.965 -2.1396,3.9344 -4.4885,5.9238 -6.978,7.7297 -9.7538,9.4335 -13.5,11.4116 -17.2439,12.9104 -18.611,13.2951 A1.3523,1.3523 0 0 1 -19.389,10.7049 T-18.0361,10.2727 -14.6791,8.8302 -10.079,6.27 -6.347,3.7164 -4.0604,1.7927 -1.9643,-0.073 -1.0187,-1.0187 A1.4407,1.4407 0 0 1 1.0187,1.0187 Z" stroke-linecap="round" fill="#4dabf7"/></g></g><g transform="matrix(1, 0, 0, 1, 512, 441)" opacity="1"><g transform="scale(1)"><path d="M1.0167,0.7625 T0.3128,1.7166 -1.9945,4.1225 -5.9225,7.2893 -8.247,9.0043 A1.2553,1.2553 0 0 1 -9.753,6.9957 T-7.5559,5.3205 -3.9029,2.3794 -1.7318,0.1754 -1.0167,-0.7625 A1.2709,1.2709 0 0 1 1.0167,0.7625 Z" stroke-linecap="round" fill="#4dabf7"/></g></g><g transform="matrix(1, 0, 0, 1, 603.5178, 491.1912)" opacity="1"><g transform="scale(1)"><path d="M0.4092,2.0458 T-0.7645,2.2666 -4.202,2.6762 -8.5312,2.9208 -12.6007,3.0031 -16.2341,3.0441 -19.746,3.071 -23.3476,3.0949 -26.8505,3.1158 -30.2027,3.1318 -33.8255,3.1453 -37.8711,3.1596 -41.4316,3.1714 -44.5097,3.1777 -48.2651,3.1858 -52.0649,3.1919 -55.0874,2.8156 -58.3639,2.3445 -61.7875,2.2384 -64.9268,2.2251 -68.4876,2.224 -72.1013,2.2248 -75.1869,2.2233 -78.7102,2.2169 -82.7046,1.9386 -86.1959,1.1657 -89.4433,0.4377 -93.0124,-0.242 -96.362,-0.7258 -99.3225,-0.7704 -103.2183,-0.4078 -105.6713,-0.0334 A1.9624,1.9624 0 0 1 -106.1687,-3.9266 T-105.1026,-4.1247 -102.488,-4.7384 -99.3858,-5.1555 -96.1983,-5.118 -93.0173,-4.9129 -89.6819,-4.2657 -86.5142,-3.3308 -83.7279,-2.5417 -80.8777,-2.2106 -77.391,-2.2189 -73.8149,-2.2244 -70.0354,-2.2229 -66.2808,-2.216 -63.1941,-2.2019 -59.5478,-2.125 -55.509,-1.635 -52.0248,-1.2119 -48.2651,-1.2058 -44.5097,-1.1977 -41.4316,-1.1914 -37.8711,-1.1796 -33.8255,-1.1653 -30.2028,-1.1519 -26.8509,-1.1362 -23.3488,-1.116 -19.7502,-1.095 -16.2478,-1.0784 -12.6475,-1.0745 -8.6939,-1.1259 -4.7315,-1.3628 -1.5769,-1.7984 -0.4092,-2.0458 A2.0863,2.0863 0 0 1 0.4092,2.0458 Z" stroke-linecap="round" fill="#f76707"/></g></g><g transform="matrix(1, 0, 0, 1, 496.6057, 490.2013)" opacity="1"><g transform="scale(1)"><path d="M0,0.99 Q-1.8058,0.5386 -2.5226,0.4158 T-3.8552,0.2262 -5.0316,0.123 -6.3487,0.0669 -7.7424,0.0364 -8.952,0.0198 -10.0614,0.0108 -11.1164,0.0059 -12.1418,0.2289 -13.151,0.576 -14.1515,0.7648 -15.1472,0.8675 -16.1403,0.9233 -17.1319,0.9537 -18.1229,0.7446 -19.1134,0.405 -20.1036,0.2203 -21.0938,0.1199 -22.0839,0.0652 -23.0739,-0.1902 -24.0639,-0.5549 -25.0539,-0.7533 -26.0439,-0.8612 -27.2597,-1.1457 -28.5982,-1.5261 -29.7778,-1.7331 -30.8709,-1.8457 -31.917,-1.9069 -32.9375,-1.9403 -33.9441,-2.1841 -34.9432,-2.5425 -35.9381,-2.7374 -36.9308,-2.8435 -37.9222,-2.9012 -38.913,-2.7068 -39.9034,-2.3754 -40.8937,-2.1951 -41.8838,-2.097 -42.6481,-1.8179 -43.2897,-1.4404 -44.0901,-1.235 -44.977,-1.1233 -45.9109,-1.0625 -46.8704,-1.0294 -47.8438,-1.0115 -49.0504,-1.0017 -50.384,-0.9964 -51.561,-0.7677 -52.6526,-0.4176 -53.698,0.2242 -54.8262,1.3614 L-55.44,1.98 " stroke-linecap="round" fill="none" stroke="#f76707" stroke-width="3" stroke-dasharray="0.1 6" stroke-dashoffset="0"/></g></g><g transform="matrix(1, 0, 0, 1, 498.5856, 384.2791)" opacity="1"><g transform="scale(1)"><path d="M0,-2.49 T1.1707,-2.4706 4.2659,-2.1345 8.0966,-1.347 11.8528,-0.6966 15.3026,-0.5029 18.7487,-0.2098 22.5592,0.2357 26.4803,0.4155 30.0754,0.4204 33.2425,0.4009 36.8129,0.3751 40.4305,0.3502 43.5167,0.3296 47.0402,0.3066 51.2725,0.2804 55.021,0.2561 58.5925,0.2394 62.2104,0.2266 65.2943,0.2136 68.403,0.2029 71.6341,0.1964 75.2513,-0.1589 79.4782,-0.6177 83.7755,-0.7534 87.5997,-0.7934 91.1652,-0.8048 94.8807,-1.1433 98.7813,-1.5851 102.6165,-1.668 105.6776,-1.6145 106.8874,-1.5826 A2.5727,2.5727 0 0 1 106.9326,3.5626 T105.7235,3.6157 102.741,3.7457 98.7931,3.9687 94.7935,4.442 91.1771,4.7723 87.6357,4.7805 83.893,4.8109 79.8557,4.929 75.5584,5.3839 71.6547,5.7436 67.7308,5.7351 63.9249,5.7216 60.1451,5.7066 56.3898,5.6918 53.312,5.6729 49.7534,5.6503 45.7209,5.6258 42.1448,5.6017 38.3645,5.5758 34.6075,5.5476 31.524,5.5206 27.9265,5.4713 23.6514,5.2911 19.1206,4.7731 15.1774,4.3511 11.7309,4.1522 8.0281,3.5365 4.2247,2.7609 1.1707,2.4706 0,2.49 A2.49,2.49 0 0 1 0,-2.49 Z" stroke-linecap="round" fill="#40c057"/></g></g><g transform="matrix(1, 0, 0, 1, 605.4977, 388.2388)" opacity="1"><g transform="scale(1)"><path d="M1.8834,-0.3767 T2.1028,0.8133 2.1605,4.2249 1.5997,8.6322 0.8488,12.8117 0.3089,17.081 -0.3057,21.5301 -0.8429,25.4015 -0.9882,28.8618 -1.3312,32.2922 -1.8093,36.0461 -2.0102,39.8425 -2.314,43.6822 -2.7552,47.3979 -2.9675,50.7073 -3.016,54.3428 -3.0198,57.8594 -3.017,61.3389 -3.0127,65.1629 -3.0122,68.7241 -3.0181,72.2145 -3.019,76.0441 -3.0136,79.6104 -3.005,83.0971 -2.6297,86.8032 -2.1416,90.3361 -1.9869,93.9434 -1.9707,98.0457 -2.0143,101.5927 -2.0385,102.9458 A1.9215,1.9215 0 0 1 -5.8815,102.9542 T-5.9116,101.6012 -5.9764,98.0702 -6.0307,94.0435 -6.1297,90.6644 -6.5553,87.0644 -6.895,83.1098 -6.8864,79.6103 -6.8809,76.0441 -6.8818,72.2144 -6.8875,68.7238 -6.8862,65.1619 -6.879,61.335 -6.8658,57.8462 -6.832,54.2952 -6.7452,50.5049 -6.4705,46.7852 -6.0468,43.2143 -5.8109,39.7281 -5.68,36.2548 -5.2206,32.5721 -4.8376,28.7381 -4.6859,25.0335 -4.1536,21.1291 -3.4919,16.4913 -2.8996,12.1022 -2.1486,8.2775 -1.5621,4.4618 -1.6345,1.528 -1.8834,0.3767 A1.9207,1.9207 0 0 1 1.8834,-0.3767 Z" stroke-linecap="round" fill="#40c057"/></g></g><g transform="matrix(1, 0, 0, 1, 495.6158, 384.2791)" opacity="1"><g transform="scale(1)"><path d="M0,0 Q-1.8058,0 -2.5226,0 T-3.8552,0 -5.2573,0 -6.6972,0 -7.932,0 -9.0551,0 -10.3433,0.2257 -11.7212,0.5742 -12.9222,0.7638 -14.027,0.867 -15.0794,0.9231 -16.3291,0.9536 -17.6861,0.9702 -18.8758,0.9792 -19.9744,0.9841 -21.0235,0.9868 -22.0456,0.9883 -22.8274,0.7633 -23.4784,0.4153 -24.284,0.2259 -24.9479,-0.1028 -25.5348,-0.5074 -26.5313,-0.7275 -27.7505,-0.8472 -28.8652,-0.9123 -29.923,-0.9477 -30.9499,-1.1927 -31.96,-1.5517 -32.9609,-1.747 -33.9569,-1.8533 -34.9501,-1.6853 -35.9418,-1.3683 -37.1585,-1.1958 -38.4976,-1.1019 -39.6774,-1.0509 -40.7707,-1.0231 -41.8169,-1.008 -42.8375,-0.7741 -43.8441,-0.4211 -44.8432,-0.2291 -45.8381,-0.1246 -46.8308,-0.0678 -48.2737,-0.0369 -50.3503,-0.013 L-51.48,0 " stroke-linecap="round" fill="none" stroke="#40c057" stroke-width="3" stroke-dasharray="0.1 6" stroke-dashoffset="0"/></g></g><g transform="matrix(1, 0, 0, 1, 399.5929, 358.541)" opacity="1"><g transform="scale(1)"><path d="M1.5215,0.6587 T1.2471,1.3303 0.9408,4.0723 1.2702,7.5715 2.5433,10.9608 3.4551,12.9213 A1.7485,1.7485 0 0 1 0.5049,14.7987 T-0.089,13.9438 -1.5148,10.7297 -2.5389,6.3881 -2.5669,2.8535 -1.9622,0.3212 -1.5215,-0.6587 A1.658,1.658 0 0 1 1.5215,0.6587 Z" stroke-linecap="round" fill="#40c057"/></g></g><g transform="matrix(1, 0, 0, 1, 412.462, 377.3496)" opacity="1"><g transform="scale(1)"><path d="M1.6519,1.6519 T0.9408,2.3563 -1.3555,3.8989 -4.7181,5.3147 -8.1412,6.5818 -11.6795,8.181 -15.5104,10.4314 -17.4487,11.7723 A2.3149,2.3149 0 0 1 -20.1713,8.0277 T-19.0955,7.1999 -15.8665,5.0353 -11.6717,2.8244 -7.9054,1.5024 -4.61,0.4018 -2.3456,-0.9514 -1.6519,-1.6519 A2.3361,2.3361 0 0 1 1.6519,1.6519 Z" stroke-linecap="round" fill="#40c057"/></g></g><g transform="matrix(1, 0, 0, 1, 412.462, 390.2187)" opacity="1"><g transform="scale(1)"><path d="M1.8177,0.9089 T1.1347,2.3251 -0.4453,5.0875 -2.5808,8.2 -4.9785,11.9259 -6.1376,13.8856 A2.0514,2.0514 0 0 1 -9.7024,11.8544 T-9.1112,10.7789 -7.3166,7.6851 -4.6872,3.7724 -2.5395,0.4846 -1.8177,-0.9089 A2.0323,2.0323 0 0 1 1.8177,0.9089 Z" stroke-linecap="round" fill="#40c057"/></g></g><g transform="matrix(1, 0, 0, 1, 401.5728, 392.1985)" opacity="1"><g transform="scale(1)"><path d="M1.0199,-1.3599 T1.9695,-0.6787 4.2585,0.7586 7.06,2.4389 9.9183,3.9184 12.7014,5.854 14.6711,8.0232 15.254,8.8117 A1.7685,1.7685 0 0 1 12.466,10.9883 T10.9803,9.3707 7.9424,7.0726 4.9599,5.4423 2.1783,3.6498 -0.0964,2.0835 -1.0199,1.3599 A1.6999,1.6999 0 0 1 1.0199,-1.3599 Z" stroke-linecap="round" fill="#40c057"/></g></g><g transform="matrix(1, 0, 0, 1, 420.3814, 480.302)" opacity="1"><g transform="scale(1)"><path d="M 0 0 m -2.633441917710341, 0 a 2.633441917710341,2.633441917710341 0 1,1 5.266883835420682,0 a 2.633441917710341,2.633441917710341 0 1,1 -5.266883835420682,0" stroke-linecap="round" fill="#f76707"/></g></g><g transform="matrix(1, 0, 0, 1, 401.5728, 461.4934)" opacity="1"><g transform="scale(1)"><path d="M2.0255,0.99 T2.0639,2.388 2.5004,5.612 3.2359,9.2502 4.2533,13.0783 4.9334,15.0942 A2.1003,2.1003 0 0 1 1.0066,16.5858 T0.0986,14.4207 -1.1389,10.121 -1.7854,5.8998 -2.0639,2.4016 -2.0255,0.99 A2.0255,2.0255 0 0 1 2.0255,0.99 Z" stroke-linecap="round" fill="#f76707"/></g></g><g transform="matrix(1, 0, 0, 1, 425.331, 477.3322)" opacity="1"><g transform="scale(1)"><path d="M1.3535,2.2558 T0.1763,2.9453 -3.0921,5.1183 -7.1085,7.9174 -10.7541,10.5256 -14.2074,12.5741 -17.4521,13.9334 -20.4994,14.8967 -23.4751,15.6783 -24.9155,16.1 A2.3869,2.3869 0 0 1 -26.5645,11.62 T-25.7254,11.244 -23.4552,10.3926 -20.2416,9.2966 -16.8926,8.0399 -13.7791,6.2586 -11.0809,4.244 -8.0115,2.204 -4.8876,0.1042 -2.5176,-1.5405 -1.3535,-2.2558 A2.6307,2.6307 0 0 1 1.3535,2.2558 Z" stroke-linecap="round" fill="#f76707"/></g></g><g transform="matrix(1, 0, 0, 1, 402.5627, 503.0703)" opacity="1"><g transform="scale(1)"><path d="M1.6707,1.6583 T1.22,2.8367 -0.032,5.4082 -1.6678,8.2506 -2.5024,9.7 A1.6579,1.6579 0 0 1 -5.4176,8.12 T-4.03,5.3838 -2.1565,1.4846 -1.6707,0.3217 A1.7994,1.7994 0 0 1 1.6707,1.6583 Z" stroke-linecap="round" fill="#f76707"/></g></g><g transform="matrix(1, 0, 0, 1, 396.6231, 504.0603)" opacity="1"><g transform="scale(1)"><path d="M1.465,-0.9766 T1.9441,-0.2818 3.8182,1.4265 6.7788,3.0993 9.9835,4.5155 11.6227,5.2725 A1.8122,1.8122 0 0 1 10.1573,8.5875 T9.3185,8.2348 6.7112,7.0572 3.4097,5.505 0.6632,3.587 -1.0076,1.6866 -1.465,0.9766 A1.7607,1.7607 0 0 1 1.465,-0.9766 Z" stroke-linecap="round" fill="#f76707"/></g></g><g transform="matrix(1, 0, 0, 1, 409.4922, 501.0905)" opacity="1"><g transform="scale(1)"><path d="M1.3285,-0.7971 T2.0484,0.3631 4.0646,3.8366 5.3609,6.1499 A1.6035,1.6035 0 0 1 2.5591,7.7101 T1.3002,5.4348 -0.6436,1.9783 -1.3285,0.7971 A1.5493,1.5493 0 0 1 1.3285,-0.7971 Z" stroke-linecap="round" fill="#f76707"/></g></g><g transform="matrix(1, 0, 0, 1, 415.4317, 503.0703)" opacity="1"><g transform="scale(1)"><path d="M0.6883,2.3667 T-0.23,2.8736 -2.7707,4.0118 -5.352,5.0253 -6.311,5.4077 A1.5745,1.5745 0 0 1 -7.549,2.5123 T-6.61,2.0831 -4.1344,1.0632 -1.6431,0.0429 -0.6883,-0.3867 A1.5392,1.5392 0 0 1 0.6883,2.3667 Z" stroke-linecap="round" fill="#f76707"/></g></g><g transform="matrix(1, 0, 0, 1, 416.4217, 496.1408)" opacity="1"><g transform="scale(1)"><path d="M2.0067,0.7033 T2.2677,2.3375 3.3016,6.2454 4.6695,9.3579 5.2647,10.1968 A2.2008,2.2008 0 0 1 1.5824,12.6083 T0.35,10.0477 -1.2373,6.0255 -1.7995,2.9204 -2.0067,1.2767 A2.027,2.027 0 0 1 2.0067,0.7033 ZM2.723,9.3162 T3.0839,9.1948 3.4449,9.0734 A2.2012,2.2012 0 0 1 4.8462,13.2468 T4.4852,13.3678 4.1241,13.4889 A2.2008,2.2008 0 0 1 2.723,9.3162 ZM2.0729,10.4191 T2.2689,9.8818 3.3818,8.0447 5.3078,4.8367 7.0282,2.3976 7.7395,1.8668 A2.1037,2.1037 0 0 1 10.0363,5.392 T9.2724,6.299 7.5479,9.0266 6.4027,11.3742 6.2182,11.9011 A2.2012,2.2012 0 0 1 2.0729,10.4191 ZM10.7588,2.6677 T11.1928,3.5359 12.6272,6.145 13.6277,7.8859 A2.0256,2.0256 0 0 1 10.1323,9.9341 T8.8717,7.8165 7.314,5.1451 7.0169,4.5912 A2.1037,2.1037 0 0 1 10.7588,2.6677 Z" stroke-linecap="round" fill="#f76707"/></g></g></svg>