<svg xmlns="http://www.w3.org/2000/svg" direction="ltr" width="391.20844973164344" height="343.5699999999997" viewBox="1352.629452757903 7276.691288995402 391.20844973164344 343.5699999999997" stroke-linecap="round" stroke-linejoin="round" style="background-color: transparent;"><defs/><g transform="matrix(1, 0, 0, 1, 1530.9062, 7308.6913)" opacity="0.5"><g transform="scale(1)"><path d="M0,0 Q0,2.0748 0,2.8466 T0,4.3484 0,5.6829 -0.1026,6.9265 -0.3659,9.9856 -0.614,13.9297 -0.8516,16.5952 -1.0834,18.6676 -1.2095,20.4152 -1.2781,21.9883 -1.3155,23.4665 -1.3358,24.8931 -1.3468,26.3942 -1.3528,27.831 -1.3561,29.3399 -1.3579,30.9907 -1.3588,32.6137 -1.3594,34.2217 -1.2571,35.8215 -1.0988,37.5217 -1.0127,39.2765 -0.9659,41.0588 -0.9404,42.856 -0.8217,44.6636 -0.6522,46.4768 -0.56,48.0857 -0.4072,49.7908 -0.2215,51.7535 -0.1205,53.6489 0.037,55.6147 0.2253,57.6167 0.3278,59.5334 0.4884,61.406 0.6806,63.2546 0.7852,65.0902 0.8421,66.9187 0.9757,68.8459 1.1509,70.7219 1.2463,72.4675 1.2981,74.3497 1.3263,76.0986 1.3417,77.8799 1.35,79.8863 1.3546,81.8078 1.3571,83.6829 1.3584,85.3232 1.3591,87.148 1.2569,89.1781 1.0987,91.1101 1.0127,92.9911 0.861,94.7416 0.6736,96.5216 0.5716,98.3175 0.4136,100.1244 0.225,102.0399 0.1224,104.0144 0.0666,105.9185 -0.0664,107.7842 -0.2413,109.6291 -0.3365,111.3577 -0.3882,113.0232 -0.4164,114.7591 -0.4317,116.4285 -0.4401,118.0616 -0.4446,119.5725 -0.5519,121.1195 -0.7152,122.8936 -0.804,124.6886 -0.8524,126.3901 -0.8786,128.0408 -0.8929,129.7687 -0.9007,131.4337 -0.905,133.0645 -0.9073,134.7816 -0.9085,136.4407 -0.9092,138.0683 -0.9096,139.7836 -1.0124,141.4418 -1.1709,143.0689 -1.2571,144.784 -1.304,146.442 -1.3296,148.069 -1.4483,149.6814 -1.6178,151.2836 -1.71,152.8802 -1.7602,154.3713 -1.89,155.9074 -2.0633,157.573 -2.1576,159.2041 -2.2088,160.7139 -2.2367,162.2602 -2.3568,163.8265 -2.527,165.301 -2.6196,166.8281 -2.6699,168.3839 -2.6973,169.8527 -2.7122,171.2742 -2.7203,172.6677 -2.7247,174.0481 -2.7271,175.5264 -2.7284,177.0557 -2.7292,178.5077 -2.7295,179.9201 -2.7297,181.3108 -2.7299,182.7925 -2.7299,184.3235 -2.73,185.6739 -2.73,186.9284 -2.73,188.2333 -2.73,189.5633 -2.73,190.9093 -2.73,192.2639 -2.73,193.6233 -2.73,194.9852 -2.73,196.3463 -2.73,197.6043 -2.73,198.911 -2.73,200.2444 -2.73,201.4873 -2.73,202.8884 -2.73,204.2731 -2.73,205.6488 -2.73,207.1222 -2.73,208.5462 -2.73,209.8407 -2.73,211.0625 -2.73,212.3473 -2.73,213.6686 -2.73,215.0099 -2.73,216.3597 -2.73,217.7164 -2.73,219.0769 -2.73,220.4395 -2.73,221.8032 -2.73,223.1652 -2.73,224.4236 -2.73,225.6281 -2.73,226.9058 -2.73,228.1184 -2.73,229.193 -2.73,230.2952 -2.73,231.4123 -2.73,232.5398 -2.73,233.6708 -2.73,234.8036 -2.73,235.9397 -2.73,236.9727 -2.73,238.0522 -2.6251,239.157 -2.4632,240.173 -2.3751,241.1406 -2.3272,242.082 -2.3011,243.1116 -2.2869,244.1893 -2.2792,245.1906 -2.275,246.1502 -2.2727,247.1898 -2.2715,248.2729 -2.2708,249.277 -2.2704,250.3409 -2.2702,251.4372 -2.2701,252.5534 -2.2701,253.6804 -2.27,254.7085 -2.27,255.7854 -2.27,256.8887 -2.27,258.0065 -2.27,259.237 -2.27,260.5289 -2.27,261.7492 -2.1674,263.1381 -2.009,264.8262 -1.9228,266.4695 -1.8759,267.9859 -1.8504,269.4333 -1.8366,270.8408 -1.7241,272.3316 -1.5581,273.8699 -1.4678,275.2265 -1.4186,276.3795 -1.3919,277.4194 -1.1699,278.2952 -0.7036,279.1208 L-0.45,279.57 " stroke-linecap="round" fill="none" stroke="#f2f2f2" stroke-width="3" stroke-dasharray="none" stroke-dashoffset="0"/></g></g><g transform="matrix(1, 0, 0, 1, 1411.8053, 7440.0659)" opacity="0.5"><g transform="scale(1)"><path d="M0,0 Q2.695,0.415 3.6355,0.5278 T5.3977,0.7021 6.9788,0.7969 9.8088,0.7436 13.316,0.6097 15.8463,0.5369 17.8453,0.6021 19.5529,0.7425 21.2068,0.9215 22.729,1.1215 24.077,1.2302 25.4327,1.2894 26.7903,1.3216 28.0465,1.3391 29.2496,1.3486 30.5266,1.3538 31.7388,1.3566 32.9158,1.3582 34.0737,1.2564 35.2234,1.0984 36.3687,1.0125 37.5093,0.9658 38.7499,0.8355 40.0473,0.6597 41.2729,0.4615 42.4572,0.251 43.7216,0.034 45.0319,-0.1867 46.3671,-0.3068 47.7136,-0.3721 49.0686,-0.4076 50.4281,-0.4269 51.8927,-0.4375 53.4145,-0.4432 54.8648,-0.4463 56.2762,-0.448 57.6665,-0.4489 59.0452,-0.4494 60.5203,-0.3471 61.9451,-0.1888 63.2378,-0.1027 64.5612,0.0467 65.9036,0.2306 67.2563,0.3307 68.6146,0.3851 69.9759,0.5196 71.2341,0.6976 72.4361,0.7945 73.6075,0.8471 74.6597,0.8758 75.7497,0.8914 76.7576,1.0025 77.7208,1.1655 78.6598,1.2542 79.5856,1.3024 80.6068,1.3287 81.5772,1.343 82.4153,1.3507 83.0786,1.355 83.7518,1.3573 84.533,1.4634 85.373,1.626 86.2426,1.7145 87.0257,1.7626 87.7641,1.7888 88.4759,1.803 89.1732,1.8108 89.9674,1.815 90.9194,1.8173 92.0597,1.9211 93.3001,2.0802 94.4925,2.1668 95.5561,2.2138 96.5497,2.2394 97.5052,2.2534 98.4399,2.261 99.3633,2.2651 100.2807,2.2673 101.1946,2.2685 102.1068,2.2692 103.0157,2.2696 103.9228,2.2698 104.8313,2.2699 105.7404,2.2699 106.7548,2.27 107.8242,2.27 108.8187,2.27 109.8795,2.27 110.9764,2.27 112.0907,2.27 113.1118,2.27 114.1849,2.1674 115.2862,2.009 116.4051,1.9228 117.7389,1.771 118.982,1.5836 120.0732,1.4816 121.2893,1.4262 122.4684,1.2934 123.6273,1.1186 124.8803,1.0235 125.9768,0.9717 127.1958,0.8387 128.584,0.6615 129.7518,0.565 130.9047,0.41 132.1543,0.223 133.4565,0.0187 134.8899,-0.195 136.2922,-0.3113 137.6774,-0.4794 139.0534,-0.6758 140.2169,-0.7826 141.2626,-0.8407 142.4538,-0.8723 143.8292,-0.8895 145.4051,-1.0014 146.8825,-1.1649 148.206,-1.2539 149.5485,-1.3023 151.1064,-1.3286 152.7838,-1.4478 154.3188,-1.6175 155.5688,-1.7099 156.7663,-1.7601 158.1429,-1.7874 159.5141,-1.8023 160.8825,-1.8104 162.4568,-1.8148 163.9334,-1.8171 165.3592,-1.8184 166.8621,-1.8192 168.1972,-1.8195 169.5437,-1.8197 171.1061,-1.8199 172.7859,-1.8199 174.32,-1.82 175.7769,-1.7151 176.9844,-1.5532 178.2615,-1.4651 179.5787,-1.4172 180.7101,-1.3911 182.0507,-1.2743 183.4024,-1.1082 184.6553,-1.0178 186.0619,-0.9687 187.4496,-0.9419 188.7243,-0.8225 189.9353,-0.6526 191.1116,-0.5602 192.1665,-0.51 193.0505,-0.4826 194.0512,-0.4677 195.218,-0.4597 196.3703,-0.4553 197.4121,-0.4529 198.3938,-0.4516 199.238,-0.4508 200.0073,-0.4505 200.7381,-0.4503 201.4458,-0.555 202.2434,-0.7169 203.0923,-0.8049 203.9691,-0.8529 204.861,-0.8789 205.8637,-0.8931 206.8242,-0.9008 207.659,-0.905 208.6308,-0.9073 209.6769,-0.9085 210.661,-0.9092 211.6113,-0.9096 212.4384,-0.9098 213.0957,-0.9099 213.7657,-0.9099 214.5452,-0.8051 215.3841,-0.6432 216.2555,-0.5551 217.0396,-0.5072 217.8788,-0.3785 218.8529,-0.2059 219.6952,-0.112 220.5683,-0.0609 221.6658,-0.0331 222.8852,-0.018 224.0662,-0.0098 225.1236,0.0973 226.1137,0.2581 227.0674,0.3456 228.1037,0.3932 229.2876,0.4191 230.4492,0.4332 231.4961,0.4409 232.378,0.445 233.3752,0.4473 234.5379,0.4485 235.5854,0.4492 236.6751,0.4496 237.6828,0.4498 238.6437,0.4499 239.684,0.4499 240.7697,0.45 241.8802,0.45 243.1068,0.45 244.6016,0.45 245.9324,0.45 246.9687,0.45 247.9474,0.45 249.1,0.45 250.3472,0.45 251.4406,0.45 252.4504,0.45 253.4146,0.45 254.2516,0.45 255.1218,0.45 256.0079,0.45 256.8,0.45 257.6459,0.45 258.521,0.45 259.412,0.45 260.3117,0.45 261.1112,0.5549 261.8562,0.7168 262.7813,0.8049 264.1145,0.9554 265.8797,1.2175 L266.84,1.36 " stroke-linecap="round" fill="none" stroke="#f2f2f2" stroke-width="3" stroke-dasharray="none" stroke-dashoffset="0"/></g></g><g transform="matrix(1, 0, 0, 1, 1538.6341, 7479.6147)" opacity="1"><g transform="scale(1)"><path d="M0,0 Q2.28,0.415 3.005,0.5278 T4.3297,0.5972 5.6447,0.5019 L6.36,0.45 " stroke-linecap="round" fill="none" stroke="#f76707" stroke-width="3" stroke-dasharray="none" stroke-dashoffset="0"/></g></g><g transform="matrix(1, 0, 0, 1, 1552.7262, 7473.2505)" opacity="1"><g transform="scale(1)"><path d="M0,0 Q0.415,2.28 0.4229,3.3151 T0.4353,5.3283 0.442,6.941 0.343,8.4385 0.1209,10.3307 L0,11.36 " stroke-linecap="round" fill="none" stroke="#f76707" stroke-width="3" stroke-dasharray="none" stroke-dashoffset="0"/></g></g><g transform="matrix(1, 0, 0, 1, 1553.1807, 7472.3413)" opacity="1"><g transform="scale(1)"><path d="M0,0 L-2.73,0.91 " stroke-linecap="round" fill="none" stroke="#f76707" stroke-width="3" stroke-dasharray="none" stroke-dashoffset="0"/></g></g><g transform="matrix(1, 0, 0, 1, 1508.177, 7398.6988)" opacity="1"><g transform="scale(1)"><path d="M0,0 Q1.865,-0.2052 2.5798,-0.261 T3.9935,-0.4521 5.5262,-0.7487 L6.36,-0.91 " stroke-linecap="round" fill="none" stroke="#f76707" stroke-width="3" stroke-dasharray="none" stroke-dashoffset="0"/></g></g><g transform="matrix(1, 0, 0, 1, 1519.9962, 7392.3346)" opacity="1"><g transform="scale(1)"><path d="M0,0 Q0.2052,3.3151 0.261,4.5292 T0.3472,6.8187 0.4138,9.177 L0.45,10.46 " stroke-linecap="round" fill="none" stroke="#f76707" stroke-width="3" stroke-dasharray="none" stroke-dashoffset="0"/></g></g><g transform="matrix(1, 0, 0, 1, 1519.087, 7392.3346)" opacity="1"><g transform="scale(1)"><path d="M0,0 Q-1.4501,0.415 -2.315,0.6625 L-3.18,0.91 " stroke-linecap="round" fill="none" stroke="#f76707" stroke-width="3" stroke-dasharray="none" stroke-dashoffset="0"/></g></g><g transform="matrix(1, 0, 0, 1, 1509.9953, 7394.6076)" opacity="1"><g transform="scale(1)"><path d="M0,0 Q0.6202,1.6598 0.7888,2.3188 T1.1542,3.5437 1.6653,4.9351 2.3549,6.7453 L2.73,7.73 " stroke-linecap="round" fill="none" stroke="#f76707" stroke-width="3" stroke-dasharray="none" stroke-dashoffset="0"/></g></g><g transform="matrix(1, 0, 0, 1, 1384.9849, 7479.1601)" opacity="1"><g transform="scale(1)"><path d="M0.45,0 Q1.9046,0.415 2.5078,0.5278 T3.5416,0.7021 4.4141,0.7969 5.1988,0.8485 5.9358,0.8765 6.6491,0.8918 7.3495,0.9001 8.0405,0.9046 8.7266,1.0097 9.4121,1.1694 10.0952,1.2563 10.7768,1.3036 11.46,1.4342 12.1417,1.6101 12.8227,1.7058 13.5054,1.8605 14.1892,2.0472 14.8713,2.1488 15.5524,2.309 16.233,2.501 16.9134,2.6054 17.5958,2.6622 18.2795,2.6931 18.9614,2.7099 19.6425,2.7191 20.3254,2.7241 21.0069,2.7268 21.6878,2.7282 22.3705,2.729 23.052,2.7295 23.7328,2.7297 24.4155,2.7298 25.0993,2.7299 25.7813,2.73 26.565,2.73 27.4063,2.73 28.1764,2.73 28.9053,2.73 29.612,2.73 30.3088,2.73 31.0002,2.73 31.6864,2.73 32.3697,2.73 33.0516,2.73 33.7326,2.6251 34.4154,2.4632 35.0992,2.3751 35.7813,2.3272 36.4624,2.3011 37.1453,2.2869 37.8269,2.1766 38.5078,2.014 39.1905,1.9255 39.872,1.8774 40.5528,1.8512 41.2355,1.837 41.9193,1.7244 42.6013,1.5582 43.2824,1.4678 43.963,1.4187 44.5408,1.3919 45.1674,1.3774 45.8184,1.3694 46.4826,1.3651 47.1563,1.2602 47.8351,1.1005 48.722,1.0136 49.722,0.9664 50.681,0.9407 51.5127,0.8218 52.2753,0.6523 53.0025,0.56 53.7081,0.5099 54.4021,0.4826 55.092,0.4677 55.8822,0.4596 56.8297,0.4552 57.8627,0.4529 58.8396,0.4516 59.786,0.4508 60.6109,0.4505 61.3697,0.4502 62.1975,0.4501 63.0628,0.4501 63.8458,0.45 64.5819,0.45 65.395,0.45 66.1497,0.3474 66.8726,0.189 67.7834,0.1028 68.9013,-0.0467 70.1319,-0.2306 71.214,-0.4355 72.1128,-0.6519 72.9141,-0.7696 73.6623,-0.8336 74.3795,-0.8684 74.9771,-0.8874 75.5096,-1.0003 76.0046,-1.1643 76.5839,-1.2536 77.4189,-1.3021 78.2881,-1.3285 79.071,-1.3429 79.8093,-1.3507 80.4184,-1.3549 81.0598,-1.3572 81.7188,-1.3585 82.3874,-1.3592 83.0635,-1.3596 83.7436,-1.3598 84.4237,-1.3599 85.0011,-1.3599 85.6276,-1.36 86.3811,-1.36 87.1011,-1.36 87.8051,-1.36 88.4982,-1.36 89.1853,-1.36 89.8714,-1.36 90.4522,-1.36 91.0782,-1.36 91.8337,-1.36 92.5548,-1.36 93.2571,-1.36 94.159,-1.36 95.0646,-1.36 95.8674,-1.36 96.6164,-1.36 97.2314,-1.36 97.876,-1.36 98.5367,-1.36 99.2063,-1.36 99.8828,-1.36 100.5633,-1.36 101.451,-1.36 102.3489,-1.2574 103.1474,-1.099 103.8919,-1.0128 104.6092,-0.9659 105.3095,-0.9404 106.0006,-0.9266 106.6889,-0.919 107.3757,-0.9149 108.0594,-0.9127 108.7414,-0.9114 109.4225,-0.9108 110.0005,-0.9104 110.6273,-0.9102 111.2783,-0.9101 111.9426,-0.9101 112.7189,-0.91 113.4535,-0.91 114.1633,-0.91 114.8595,-0.91 115.5506,-0.91 116.2366,-0.91 116.9199,-0.8051 117.6039,-0.6432 118.2884,-0.5551 118.9709,-0.5072 119.6522,-0.4811 120.3329,-0.4669 121.0133,-0.4592 121.6958,-0.455 122.3794,-0.4527 123.0614,-0.4515 123.7425,-0.4508 124.4254,-0.4504 125.1069,-0.4502 125.7878,-0.4501 126.4705,-0.4501 127.152,-0.45 127.8328,-0.45 128.5155,-0.45 129.1993,-0.45 129.8813,-0.45 130.5624,-0.45 131.243,-0.45 131.9234,-0.45 132.6058,-0.45 133.1846,-0.45 133.8095,-0.45 134.4618,-0.45 135.129,-0.3474 135.8021,-0.189 136.4783,-0.1028 137.1562,-0.0559 137.8351,-0.0304 138.4119,0.086 138.8306,0.252 139.5781,0.3423 140.7451,0.4121 L141.38,0.45 " stroke-linecap="round" fill="none" stroke="#f76707" stroke-width="3" stroke-dasharray="none" stroke-dashoffset="0"/></g></g><g transform="matrix(1, 0, 0, 1, 1529.0699, 7475.7701)" opacity="1"><g transform="scale(1)"><path d="M0,0 Q-1.2221,0.5426 -1.6229,0.827 T-2.3101,1.3345 -2.8208,1.7474 -3.2354,2.175 -3.5293,2.9502 -3.6208,3.8484 -3.5338,4.4739 -3.3497,4.9509 -3.1127,5.3472 -2.8493,5.7657 -2.5714,6.1963 -2.2835,6.5674 -1.9901,6.906 -1.6252,7.227 -1.2238,7.4701 -0.871,7.6684 -0.5422,7.8424 -0.1582,7.9371 0.2537,7.9224 0.6806,7.8484 1.1181,7.7397 1.5613,7.5437 2.0053,7.232 2.3814,6.8571 2.7227,6.5187 3.0453,6.2001 3.2891,5.89 3.4217,5.5161 3.4939,5.0413 3.4648,4.5118 3.3121,3.8817 3.0923,3.2676 2.7698,2.7306 2.323,2.2333 1.6034,1.7576 0.5649,1.1957 L0,0.89 " stroke-linecap="round" fill="none" stroke="#f76707" stroke-width="3" stroke-dasharray="none" stroke-dashoffset="0"/></g></g><g transform="matrix(1, 0, 0, 1, 1532.053, 7397.9108)" opacity="1"><g transform="scale(1)"><path d="M0,0 Q-1.4957,-0.1368 -2.0393,-0.1056 T-2.9471,0.0109 -3.5754,0.2773 -4.0517,0.6251 -4.4477,0.9511 -4.8683,1.7417 -5.1654,2.8513 -5.1219,3.6578 -4.893,4.2334 -4.5656,4.6833 -4.1162,5.0648 -3.5981,5.4092 -2.9765,5.6649 -2.2987,5.8702 -1.6586,6.0479 -1.0391,6.1446 -0.4285,6.1972 0.175,6.2259 0.7747,6.2414 1.3061,6.1838 1.7981,6.0179 2.2686,5.7909 2.6614,5.5305 3.0119,5.2521 3.2709,4.8978 3.4803,4.5021 3.6625,4.0816 3.7617,3.5793 3.8156,3.0347 3.7766,2.5355 3.5501,2.0588 3.2218,1.5942 2.7718,1.207 2.1189,0.7934 1.323,0.2795 L0.89,0 " stroke-linecap="round" fill="none" stroke="#f76707" stroke-width="3" stroke-dasharray="none" stroke-dashoffset="0"/></g></g><g transform="matrix(1, 0, 0, 1, 1537.6591, 7401.1913)" opacity="1"><g transform="scale(1)"><path d="M0,0 Q1.5048,0.3739 2.3838,0.4756 T4.0237,0.6327 5.3854,0.7181 6.5024,0.7646 7.4863,0.8856 8.3042,1.0472 9.0319,1.1351 9.7082,1.1829 10.4523,1.209 11.2333,1.2231 12.0343,1.2308 12.9421,1.3285 13.8121,1.4751 14.5658,1.5549 15.352,1.5982 16.2517,1.6218 17.2108,1.7282 18.2022,1.8795 19.0243,1.9618 19.8477,2.0066 20.6718,2.0309 21.4964,2.0442 22.3211,1.9579 23.146,1.8175 24.0644,1.6476 25.0337,1.4618 26.0329,1.2649 26.9527,1.062 27.8293,0.8582 28.7758,0.6538 29.6669,0.5426 30.4344,0.4822 31.3216,0.3558 32.1804,0.1935 32.9304,0.1053 33.7145,0.0573 34.5173,0.0312 35.4237,0.0169 36.4799,0.0092 37.7134,0.005 39.0434,0.0027 40.4258,-0.092 41.741,-0.237 43.0196,-0.3159 44.3741,-0.3588 45.7699,-0.3821 47.1881,-0.3948 48.5228,-0.4018 49.9055,-0.4055 51.3166,-0.4076 52.7431,-0.4087 54.3651,-0.4093 56.0933,-0.4096 57.5989,-0.4098 59.0768,-0.4099 60.5398,-0.4099 61.9945,-0.41 63.5383,-0.41 64.8478,-0.41 66.3126,-0.41 68.051,-0.41 69.6534,-0.41 71.1817,-0.41 72.7655,-0.41 74.1926,-0.41 75.7213,-0.41 77.4923,-0.41 79.2081,-0.41 80.8939,-0.41 82.5633,-0.41 84.1305,-0.41 85.6419,-0.41 87.2165,-0.41 88.732,-0.41 90.2154,-0.3165 91.7747,-0.1722 93.2819,-0.0937 94.5715,-0.051 95.8362,-0.0277 97.3701,-0.0151 98.9569,-0.0082 100.4791,-0.0045 101.9661,-0.0024 103.2447,-0.0013 104.4099,-0.0007 105.6092,-0.0004 106.9206,0.0933 108.4798,0.2377 109.9847,0.3163 111.273,0.359 112.5393,0.3823 113.7936,0.4884 115.2284,0.6396 116.6655,0.7219 118.1062,0.7666 119.6424,0.791 120.9477,0.8042 122.1298,0.8114 123.4318,0.8153 125.0794,0.8175 126.9151,0.8186 128.5726,0.8192 130.1332,0.8196 131.6411,0.8198 133.0246,0.8199 134.3403,0.8199 135.715,0.82 137.1218,0.82 138.4525,0.82 139.7396,0.9158 141.0029,1.0636 142.2556,1.144 143.5959,1.1878 144.9818,1.2116 146.2988,1.2246 147.5807,1.2316 148.8435,1.2354 150.0936,1.2375 151.3369,1.2386 152.5786,1.2393 153.8196,1.2396 155.0578,1.144 156.2011,0.9963 157.1992,0.9159 158.2119,0.8722 159.2348,0.8484 160.1674,0.8354 161.0509,0.8284 161.9078,0.8246 162.7501,0.8225 163.5845,0.8214 164.5082,0.8207 165.576,0.8204 166.6266,0.8202 167.5744,0.9159 168.6554,1.0637 170.025,1.1779 L170.77,1.24 " stroke-linecap="round" fill="none" stroke="#f76707" stroke-width="3" stroke-dasharray="none" stroke-dashoffset="0"/></g></g><g transform="matrix(1, 0, 0, 1, 1708.8379, 7402.4287)" opacity="1"><g transform="scale(1)"><path d="M-0.41,0 Q-1.7278,-1.1263 -2.1798,-1.7154 T-3.3472,-3.0011 -4.9164,-4.5289 L-5.77,-5.36 " stroke-linecap="round" fill="none" stroke="#f76707" stroke-width="3" stroke-dasharray="none" stroke-dashoffset="0"/></g></g><g transform="matrix(1, 0, 0, 1, 1709.2504, 7402.0163)" opacity="1"><g transform="scale(1)"><path d="M0,0 Q-0.9394,1.6918 -1.3841,2.4346 T-2.2578,3.8644 -3.1092,5.1118 -4.0421,6.0709 -5.1612,6.9447 L-5.77,7.42 " stroke-linecap="round" fill="none" stroke="#f76707" stroke-width="3" stroke-dasharray="none" stroke-dashoffset="0"/></g></g><g transform="matrix(1, 0, 0, 1, 1384.6295, 7476.675)" opacity="1"><g transform="scale(1)"><path d="M0,0 Q0.187,0 0.4271,-0.0935 T1.7371,-0.7075 3.6719,-1.5112 5.5683,-2.1322 L6.6,-2.47 " stroke-linecap="round" fill="none" stroke="#f76707" stroke-width="3" stroke-dasharray="none" stroke-dashoffset="0"/></g></g><g transform="matrix(1, 0, 0, 1, 1385.8669, 7477.9124)" opacity="1"><g transform="scale(1)"><path d="M0,0 Q-0.187,1.5048 -0.2378,2.1011 T-0.2229,3.3044 -0.0278,4.431 0.2653,5.5135 1.2707,7.231 3.1161,9.7628 L4.12,11.14 " stroke-linecap="round" fill="none" stroke="#f76707" stroke-width="3" stroke-dasharray="none" stroke-dashoffset="0"/></g></g></svg>