<svg xmlns="http://www.w3.org/2000/svg" direction="ltr" width="586.2619394884939" height="326.59967614589823" viewBox="1290.494852857117 6662.179574010779 586.2619394884939 326.59967614589823" stroke-linecap="round" stroke-linejoin="round" style="background-color: transparent;"><defs/><g transform="matrix(1, 0, 0, 1, 1419.8082, 6699.9124)" opacity="1"><g transform="scale(1)"><path d="M0,0 Q0.7068,-1.8377 0.8284,-2.4789 T0.6627,-3.893 0.0778,-5.0863 -0.3818,-5.5942 -0.7024,-5.6584 -0.9476,-5.4813 -1.1516,-5.1022 -1.3333,-4.6133 -1.5028,-4.0646 -1.6657,-3.4834 -1.7543,-2.8845 -1.8025,-2.2053 -1.8287,-1.4824 -1.843,-0.7357 -1.8507,0.0945 -1.855,0.9703 -1.7866,1.8001 -1.608,2.6049 -1.4402,3.3961 -1.2782,4.1092 -1.0488,4.8506 -0.8532,5.6073 -0.6762,6.3016 -0.4385,6.9621 -0.2386,7.6041 -0.0591,8.2361 0.1092,8.8626 0.2008,9.4861 0.2506,10.1081 0.2777,10.7291 0.2924,11.3497 0.2298,11.8993 0.0543,12.4103 -0.1825,12.9004 -0.4527,13.3083 -0.8117,13.6009 -1.2897,13.7601 -1.9032,13.8467 -2.5903,13.8938 -3.2468,13.9194 -3.8867,13.8627 -4.5175,13.7611 -5.214,13.4939 -6.0534,12.9862 L-6.51,12.71 " stroke-linecap="round" fill="none" stroke="#4f72fc" stroke-width="3" stroke-dasharray="none" stroke-dashoffset="0"/></g></g><g transform="matrix(1, 0, 0, 1, 1422.2886, 6707.0433)" opacity="1"><g transform="scale(1)"><path d="M0,0 L-4.34,0 " stroke-linecap="round" fill="none" stroke="#4f72fc" stroke-width="3" stroke-dasharray="none" stroke-dashoffset="0"/></g></g><g transform="matrix(1, 0, 0, 1, 1361.5208, 6774.632)" opacity="1"><g transform="scale(1)"><path d="M0,0 Q0.7068,0.2827 0.8284,0.4303 T0.6627,0.7288 0.2191,0.8913 0.0485,0.8382 0.1678,0.7387 0.586,0.6139 1.0963,0.4753 1.5152,0.4706 1.8138,0.6094 2.0469,0.8263 2.103,1.0856 1.9215,1.2974 1.3987,1.4126 0.4928,1.5016 L0,1.55 " stroke-linecap="round" fill="none" stroke="#4f72fc" stroke-width="3" stroke-dasharray="none" stroke-dashoffset="0"/></g></g><g transform="matrix(1, 0, 0, 1, 1365.2413, 6756.0296)" opacity="1"><g transform="scale(1)"><path d="M0,0 Q-2.8272,2.4031 -4.5136,3.8366 L-6.2,5.27 " stroke-linecap="round" fill="none" stroke="#4f72fc" stroke-width="3" stroke-dasharray="none" stroke-dashoffset="0"/></g></g><g transform="matrix(1, 0, 0, 1, 1359.0405, 6755.0995)" opacity="1"><g transform="scale(1)"><path d="M0,0 Q1.2722,1.1309 1.7596,1.5798 T2.7242,2.4144 3.6024,3.1511 4.4335,3.7639 5.239,4.3093 6.172,4.9594 7.3948,5.7629 L8.06,6.2 " stroke-linecap="round" fill="none" stroke="#4f72fc" stroke-width="3" stroke-dasharray="none" stroke-dashoffset="0"/></g></g><g transform="matrix(1, 0, 0, 1, 1364.6212, 6776.1822)" opacity="1"><g transform="scale(1)"><path d="M0,0 Q0.5654,-1.2722 0.8606,-1.689 T1.4577,-2.4031 2.1359,-2.9329 2.9289,-3.3625 3.7844,-3.7376 5.5927,-4.5777 7.99,-5.7416 9.8596,-6.6574 11.4421,-7.4383 12.9391,-8.1459 14.3896,-8.8842 15.7441,-9.6393 17.1171,-10.4034 18.5708,-11.1725 20.0684,-11.9443 21.5899,-12.7882 23.1244,-13.6007 24.6659,-14.3961 26.282,-15.2529 28.0093,-16.0724 29.7972,-16.8009 31.6179,-17.5506 33.4565,-18.3118 35.3049,-19.0087 37.2316,-19.6705 39.2008,-20.2425 41.1202,-20.7658 43.0832,-21.3331 45.0699,-21.8538 46.9988,-22.2784 48.8963,-22.6508 50.7767,-22.9947 52.6478,-23.2525 54.5139,-23.4634 56.3771,-23.6488 58.2389,-23.7497 60.0292,-23.8045 61.7806,-23.8344 63.5815,-23.8506 65.3387,-23.9301 67.0721,-24.0441 68.8632,-24.1061 70.6858,-24.1398 72.4547,-24.1581 74.1945,-24.1681 75.9891,-24.1735 77.7428,-24.1765 79.4743,-24.1781 81.2644,-24.1083 83.0864,-23.9996 84.9257,-23.9405 86.7745,-23.8377 88.5577,-23.7111 90.3759,-23.5715 92.2838,-23.3542 94.1699,-23.0947 96.0441,-22.7414 97.9118,-22.3372 99.776,-21.9053 101.6383,-21.4583 103.5703,-21.0031 105.5401,-20.4727 107.4598,-19.9015 109.3523,-19.2373 111.23,-18.5226 113.1703,-17.8511 115.0762,-17.1324 116.8928,-16.388 118.7292,-15.6297 120.5764,-14.7931 122.3587,-13.9845 124.1765,-13.1913 126.0135,-12.3357 127.7903,-11.4462 129.605,-10.5382 131.3697,-9.6202 133.1072,-8.6967 134.9006,-7.6996 136.6536,-6.6624 138.3141,-5.674 139.9949,-4.6416 141.616,-3.5853 143.134,-2.5865 144.6666,-1.5484 146.1365,-0.4889 147.5015,0.5115 148.8096,1.4798 150.0866,2.4307 151.276,3.3013 152.4178,4.1284 153.5337,4.9317 154.4942,5.6514 155.3701,6.3256 156.2,6.9751 156.9341,7.5405 157.5456,7.9894 158.0902,8.375 158.5986,8.7261 159.0871,8.9878 159.6356,9.0595 160.1461,8.9571 160.4944,8.6894 160.7546,8.3317 161.0375,7.9251 161.2621,7.4212 161.3843,6.8643 161.5214,6.2787 161.6667,5.6774 161.7457,4.9968 161.7887,4.2732 161.8121,3.5969 161.8248,2.9462 161.8317,2.3802 161.7648,1.931 161.6577,1.5452 161.5288,1.2647 161.388,1.2534 161.3114,1.4593 161.3404,1.7127 161.4269,2.0626 161.5446,2.5357 161.75,3.1464 162.0031,3.9027 162.2821,4.8089 162.6459,5.8673 162.9852,6.9379 163.2405,7.9443 163.45,8.9866 163.4933,10.0483 163.3755,11.05 163.1701,12.019 162.8463,12.8995 162.3874,13.6613 161.8551,14.3584 161.2828,14.9496 160.618,15.342 159.7616,15.4847 158.8717,15.3503 157.9635,14.8531 156.8602,14.0674 L156.26,13.64 " stroke-linecap="round" fill="none" stroke="#4f72fc" stroke-width="3" stroke-dasharray="none" stroke-dashoffset="0"/></g></g><g transform="matrix(1, 0, 0, 1, 1534.8329, 6807.1861)" opacity="1"><g transform="scale(1)"><path d="M0,0 Q-0.2827,-0.5654 -0.1476,-0.7192 T0.1318,-0.886 0.4251,-0.8354 0.514,-0.3838 0.3503,0.286 0.1199,0.7917 -0.2882,1.1375 -0.7929,1.3256 -1.3502,1.2866 -2.0819,1.0556 L-2.48,0.93 " stroke-linecap="round" fill="none" stroke="#4f72fc" stroke-width="3" stroke-dasharray="none" stroke-dashoffset="0"/></g></g><g transform="matrix(1, 0, 0, 1, 1545.3743, 6782.693)" opacity="1"><g transform="scale(1)"><path d="M0,0 Q0.1414,-1.4136 0.1798,-1.9395 T0.2392,-2.8927 0.2715,-3.6941 0.289,-4.4127 0.2986,-5.0863 0.2331,-5.6648 0.0561,-6.1916 -0.1108,-6.6902 -0.2723,-7.1028 -0.5015,-7.4686 -0.7676,-7.809 -1.0537,-8.1355 -1.3507,-8.3838 -1.6536,-8.5189 -1.8891,-8.5217 -2.0879,-8.3818 -2.3374,-8.1644 -2.6144,-7.9047 -2.8359,-7.6221 -3.027,-7.327 -3.2723,-6.9545 -3.5471,-6.5398 -3.7673,-6.1021 -3.8871,-5.5813 -4.0229,-5.0153 -4.1675,-4.4953 -4.2462,-4.0004 -4.289,-3.4485 -4.3122,-2.9362 -4.3249,-2.4454 -4.3318,-1.8958 -4.2648,-1.314 -4.1578,-0.7148 -4.0995,-0.1061 -3.9971,0.5784 -3.8708,1.3042 -3.7313,1.9817 -3.5141,2.7037 -3.2546,3.4498 -3.0427,4.1385 -2.9275,5.644 -2.9355,7.5938 -3.0812,8.9373 -3.3018,9.8802 -3.6339,10.6051 -4.0972,11.2116 -4.5613,11.6828 -5.0258,12.0098 -5.6319,12.2584 -6.3151,12.4643 -6.9694,12.5764 -7.6081,12.6373 -8.2382,12.5998 -8.7931,12.438 -9.2363,12.2086 -9.6187,11.6598 -10.0146,10.7338 L-10.23,10.23 " stroke-linecap="round" fill="none" stroke="#4f72fc" stroke-width="3" stroke-dasharray="none" stroke-dashoffset="0"/></g></g><g transform="matrix(1, 0, 0, 1, 1544.1341, 6787.6536)" opacity="1"><g transform="scale(1)"><path d="M0,0 L-5.89,0.31 " stroke-linecap="round" fill="none" stroke="#4f72fc" stroke-width="3" stroke-dasharray="none" stroke-dashoffset="0"/></g></g><g transform="matrix(1, 0, 0, 1, 1554.6755, 6777.7324)" opacity="1"><g transform="scale(1)"><path d="M0.31,0 Q-0.5382,1.2722 -0.9102,1.901 T-1.626,3.2252 -2.2982,4.6524 -2.9465,6.1356 -3.5113,7.5786 -3.8892,8.929 -4.0947,10.1584 -4.2066,11.2512 -4.2674,12.2698 -4.2298,13.1773 -4.068,13.9538 -3.8386,14.6588 -3.5725,15.2545 -3.0036,15.7905 -2.0622,16.4055 L-1.55,16.74 " stroke-linecap="round" fill="none" stroke="#4f72fc" stroke-width="3" stroke-dasharray="none" stroke-dashoffset="0"/></g></g><g transform="matrix(1, 0, 0, 1, 1563.0465, 6784.2432)" opacity="1"><g transform="scale(1)"><path d="M0,0 Q-0.9895,1.555 -1.4707,2.1899 T-2.4257,3.3824 -3.2986,4.4552 -4.0562,5.3215 -4.9631,5.8635 -6.1658,6.2822 L-6.82,6.51 " stroke-linecap="round" fill="none" stroke="#4f72fc" stroke-width="3" stroke-dasharray="none" stroke-dashoffset="0"/></g></g><g transform="matrix(1, 0, 0, 1, 1556.8457, 6784.8633)" opacity="1"><g transform="scale(1)"><path d="M0,0 Q3.1099,3.1099 4.965,4.965 L6.82,6.82 " stroke-linecap="round" fill="none" stroke="#4f72fc" stroke-width="3" stroke-dasharray="none" stroke-dashoffset="0"/></g></g><g transform="matrix(1, 0, 0, 1, 1565.5268, 6778.3524)" opacity="1"><g transform="scale(1)"><path d="M0,0 Q0.8482,2.1204 1.1495,2.9799 T1.6149,4.5896 1.868,6.0307 2.0057,7.4508 2.0806,8.9302 1.3439,11.4313 -0.3296,15.2711 L-1.24,17.36 " stroke-linecap="round" fill="none" stroke="#4f72fc" stroke-width="3" stroke-dasharray="none" stroke-dashoffset="0"/></g></g><g transform="matrix(1, 0, 0, 1, 1347.569, 6725.0256)" opacity="1"><g transform="scale(1)"><path d="M-2.3324,-0.5654 Q-4.6649,-1.1309 -6.2871,-1.3678 T-9.1453,-1.6629 -11.3362,-1.6114 -13.0935,-1.23 -14.615,-0.6691 -16.0081,0.0601 -17.3313,0.9515 -18.546,1.9312 -19.6308,2.9589 -20.645,4.0128 -22.257,6.7065 -23.982,11.1404 -24.7791,15.0367 -25.0007,17.9338 -24.9092,20.358 -24.5767,22.4542 -24.1131,24.3014 -23.5781,26.013 -22.9338,27.5803 -22.1591,29.069 -21.3136,30.5857 -20.3589,32.0468 -19.2741,33.5485 -18.0479,35.1429 -16.674,36.79 -15.2198,38.5365 -13.7219,40.3347 -12.271,42.1611 -10.8455,44.0029 -9.434,45.8529 -8.1713,47.7075 -6.9897,49.6352 -5.8521,51.7441 -4.8092,53.9516 -3.8178,56.1419 -2.925,58.3937 -2.1567,60.7495 -1.5266,63.162 -1.0425,65.5346 -0.6378,67.8854 -0.347,70.2952 -0.1888,72.737 -0.1734,75.1962 -0.377,77.6649 -0.7705,80.0681 -1.2673,82.3649 -1.891,84.6039 -2.6543,86.7408 -3.5644,88.6807 -4.6249,90.5135 -5.7672,92.2173 -6.9541,93.7804 -8.1652,95.3374 -9.4601,96.8913 -10.8007,98.4434 -12.1661,99.9945 -13.545,101.4745 -14.9312,102.9863 -16.3215,104.5863 -17.6432,106.0928 -18.9277,107.4778 -20.1212,108.8673 -21.1238,110.1887 -21.8813,111.4022 -22.5054,112.6279 -23.057,113.9307 -23.4277,115.4192 -23.6294,117.1501 -23.7391,119.0105 -23.7281,120.8708 -23.5101,122.7309 -23.1088,124.591 -22.5371,126.451 -21.7313,128.311 -20.6568,130.171 -19.3655,132.031 -17.8149,133.8204 -16.0525,135.5006 -14.1749,137.0507 -12.164,138.4594 -10.0805,139.7205 -7.8869,140.76 -5.6334,141.6081 -3.3473,142.2816 -1.0434,142.7186 1.3407,142.9564 3.91,143.015 6.5799,142.9056 9.3752,142.7047 12.2388,142.3127 15.1395,141.746 18.2018,141.0137 21.2812,140.1205 24.158,139.2106 26.8539,138.2915 29.3806,137.2967 31.8154,136.1901 34.2001,134.952 36.3478,133.501 38.2252,131.8635 39.812,130.1246 41.0993,128.3304 42.153,126.4355 42.9382,124.4152 43.5068,122.3266 43.8867,120.0573 44.0934,117.6896 44.2059,115.2707 44.1257,112.6826 43.7993,110.0731 43.3391,107.5226 42.806,104.9336 42.2333,102.3943 41.639,100.0234 40.9623,97.7442 40.2385,95.6561 39.6304,93.7427 39.0876,91.8536 38.5802,89.9778 38.1629,88.1799 37.8652,86.4243 37.7032,84.6918 37.6151,83.1132 37.6379,81.6184 37.8623,80.0983 38.2671,78.6353 38.843,77.274 39.5826,76.0387 40.4091,74.9426 41.2827,73.9223 42.1821,73.0138 43.0954,72.2369 44.087,71.4608 45.1919,70.6146 46.3584,69.8008 47.6291,68.934 48.9565,67.9678 50.3147,67.018 51.6897,66.0773 53.0031,65.1414 54.283,64.2083 55.5448,63.2765 56.7259,62.2749 57.7925,61.2353 58.7262,60.1043 59.4461,58.8529 60.0498,57.6067 60.5903,56.2926 60.9549,54.9417 61.1533,53.5706 61.2613,52.0473 61.2493,50.4411 61.1014,48.7899 60.8089,47.0435 60.3671,45.3159 59.844,43.6693 59.2061,42.0668 58.5056,40.5566 57.7712,39.0967 56.8769,37.5957 55.8956,36.143 54.9377,34.7166 53.9219,33.2339 52.8745,31.7205 51.8807,30.1904 50.9159,28.7219 50.0377,27.3576 49.2065,26.05 48.401,24.7732 47.6801,23.5132 47.0052,22.2623 46.3553,20.9457 45.719,19.5933 45.0902,18.3629 44.4654,17.1988 43.8428,16.0707 43.1507,15.033 42.4208,14.0444 41.741,13.0825 41.0178,12.0645 40.2687,11.0159 39.5055,10.0214 38.6662,8.9857 37.7856,7.9274 36.8118,6.9277 35.7872,5.9597 34.8058,5.0798 33.7772,4.3184 32.7228,3.6214 31.6545,3.0303 30.5786,2.4966 29.4985,1.9236 28.4162,1.3292 27.3326,0.7937 26.2484,0.2904 25.2346,-0.1954 24.2589,-0.6011 23.2334,-0.9631 22.2515,-1.2307 21.3639,-1.447 20.4569,-1.6353 19.6102,-1.8085 18.8668,-1.9733 18.1797,-2.063 17.5232,-2.1118 16.8127,-2.1383 16.0727,-2.1528 15.3875,-2.2313 14.732,-2.3447 14.0927,-2.4064 13.5329,-2.44 13.0163,-2.4582 12.4525,-2.3975 11.9338,-2.2937 11.4396,-2.2373 10.8173,-2.1359 10.1254,-2.0101 9.4663,-1.9417 8.825,-1.9044 8.1228,-1.8842 7.3874,-1.8731 6.7046,-1.8672 6.0504,-1.8639 5.4118,-1.8621 4.711,-1.7905 3.835,-1.5395 2.7566,-1.1447 1.085,-0.465 -2.3324,-0.5654 Z" stroke-linecap="round" fill="none" stroke="#f76707" stroke-width="3" stroke-dasharray="none" stroke-dashoffset="0"/></g></g><g transform="matrix(1, 0, 0, 1, 1532.6626, 6729.9863)" opacity="1"><g transform="scale(1)"><path d="M-1.8377,-0.9895 Q-3.6754,-1.979 -4.8871,-2.5173 T-6.9701,-3.3485 -8.598,-3.8006 -9.9783,-4.0466 -11.2946,-4.1804 -12.5762,-4.1825 -15.111,-3.4768 -18.3983,-2.3155 -20.6814,-1.3303 -22.3474,-0.441 -23.7485,0.3962 -25.0055,1.2758 -26.1133,2.1783 -27.1401,3.0933 -28.1227,4.0152 -29.0814,5.0115 -30.0976,6.1896 -31.1452,7.4666 -32.1392,8.7267 -33.104,9.9776 -34.0529,11.2943 -34.9932,12.576 -35.9288,13.768 -36.7912,14.9819 -37.6137,16.2076 -38.4169,17.4399 -39.1388,18.7464 -39.8142,20.1639 -40.3937,21.6419 -40.8503,23.1526 -41.3107,24.752 -41.7026,26.3995 -41.9864,28.0733 -42.2115,29.7613 -42.3339,31.457 -42.4005,33.157 -42.3661,34.7179 -42.206,36.1324 -41.9069,37.5404 -41.4614,38.9447 -40.9364,40.3447 -40.4387,41.8132 -39.9537,43.3188 -39.4755,44.8447 -39.074,46.3815 -38.7142,47.9244 -38.3771,49.5412 -38.1231,51.2689 -37.9849,53.0569 -37.9097,54.9484 -37.8688,56.8963 -37.8465,58.8747 -37.9051,60.9405 -38.0783,62.9832 -38.3139,64.9425 -38.5835,66.8566 -38.9444,68.6753 -39.4964,70.3715 -40.2208,72.0717 -41.039,73.7034 -41.9788,75.2272 -43.0555,76.7629 -44.136,78.3051 -45.2185,79.7096 -46.3729,80.9683 -47.4956,82.0772 -48.6011,83.0338 -49.768,83.9076 -50.8975,84.7363 -52.0067,85.5406 -53.1756,86.3315 -54.3062,87.1151 -55.416,87.8948 -56.5852,88.6724 -57.716,89.3781 -58.7552,90.1154 -59.8153,90.8699 -60.8868,91.6337 -61.8937,92.4734 -62.8656,93.4249 -63.7477,94.5079 -64.5103,95.6626 -65.2078,96.8561 -65.87,98.1415 -66.4423,99.5476 -66.9656,101.0193 -67.4624,102.5267 -67.874,104.0535 -68.1686,105.5909 -68.3995,107.2047 -68.5958,108.8601 -68.7733,110.4675 -68.9405,112.1193 -68.9608,113.7954 -68.9012,115.487 -68.7273,117.187 -68.4208,118.8186 -67.9713,120.4129 -67.3026,121.9164 -66.5148,123.3704 -65.5915,124.7975 -64.5238,126.1393 -63.4482,127.364 -62.3683,128.525 -61.2154,129.6513 -60.0228,130.6881 -58.8085,131.6762 -57.5826,132.6378 -56.2795,133.585 -54.8639,134.5244 -53.4576,135.3888 -52.0565,136.2124 -50.5168,137.0139 -48.9017,137.8033 -47.175,138.5861 -45.3168,139.224 -43.4578,139.7124 -41.5254,140.1194 -39.4823,140.4115 -37.4521,140.5704 -35.4288,140.6569 -33.4092,140.7039 -31.3918,140.7295 -29.2341,140.6727 -27.0708,140.4298 -24.9044,140.0149 -22.595,139.3652 -20.2079,138.5169 -17.7077,137.5607 -15.146,136.3338 -12.6216,134.8888 -10.2588,133.3959 -8.0546,131.8064 -6.0073,130.2348 -4.1868,128.7438 -2.4897,127.2965 -0.8596,125.8731 0.7339,124.392 2.3076,122.8794 3.7998,121.3498 5.177,119.8086 6.5623,118.2611 7.9521,116.8539 9.2735,115.5935 10.5578,114.3425 11.8219,113.2378 13.0044,112.3542 14.1424,111.6614 15.3269,111.0725 16.5367,110.5401 17.7603,110.1092 18.9914,109.804 20.2265,109.5673 21.4639,109.3679 22.7024,109.2594 23.9416,109.2004 25.1812,109.1683 26.421,109.2215 27.7315,109.3211 29.1513,109.3753 30.5597,109.4048 32.0327,109.4209 33.6115,109.3589 35.2479,109.1838 36.9885,108.8766 38.7858,108.4267 40.6117,107.8992 42.4532,107.2589 44.3031,106.4865 46.1576,105.6422 48.0146,104.6882 49.873,103.533 51.7321,102.1979 53.5916,100.694 55.4514,99.0278 57.2405,97.2732 58.9913,95.3999 60.7212,93.3912 62.2984,91.2384 63.7219,88.9363 65.0617,86.4824 66.3559,83.8753 67.5548,81.1848 68.631,78.3782 69.5699,75.5085 70.3634,72.6751 71.0071,69.8616 71.4986,67.1294 71.9074,64.3709 72.2711,61.598 72.5396,58.9587 72.6857,56.392 72.7652,53.9355 72.7377,51.539 72.5815,49.1044 72.2844,46.7198 71.8401,44.4331 71.245,42.1266 70.4971,39.8801 69.6662,37.7391 68.7902,35.5849 67.8188,33.4942 66.7956,31.5087 65.7443,29.5097 64.6069,27.5741 63.4227,25.8144 62.1424,24.0796 60.8098,22.3584 59.5194,20.7152 58.1813,19.1852 56.8173,17.7875 55.5098,16.5324 54.2331,15.3548 52.9731,14.2901 51.7223,13.3576 50.4057,12.4968 49.0533,11.7459 47.7522,11.0546 46.479,10.3959 45.2209,9.7548 43.9004,9.1233 42.5459,8.5678 41.2413,8.1242 39.9639,7.7415 38.7036,7.392 37.3818,7.0605 36.0267,6.7388 34.6533,6.4224 33.2701,6.109 31.8816,5.7264 30.49,5.3062 29.0969,4.9363 27.703,4.523 26.3792,4.0862 25.0937,3.7072 23.8289,3.3596 22.5047,3.0999 21.2189,2.8879 20.0247,2.6312 18.7389,2.4209 17.4033,2.2358 16.1113,2.0644 14.843,1.9005 13.5877,1.7407 12.3393,1.6537 11.0947,1.6064 9.9229,1.5807 8.7907,1.5667 7.6093,1.5591 6.4719,1.4843 5.4291,1.3022 4.4377,1.0618 3.545,0.6483 2.6545,0.0276 1.085,-0.155 -1.8377,-0.9895 Z" stroke-linecap="round" fill="none" stroke="#f76707" stroke-width="3" stroke-dasharray="none" stroke-dashoffset="0"/></g></g><g transform="matrix(1, 0, 0, 1, 1536.9783, 6814.7616)" opacity="1"><g transform="scale(1)"><path d="M0,0 Q1.2859,1.7146 1.7429,2.3952 T2.5555,3.4462 3.1048,4.1251 3.5107,4.7087 3.9459,5.2406 4.3969,5.7442 4.8566,6.2325 5.321,6.7124 5.8951,7.1878 6.4217,7.6608 6.8154,8.1324 7.2438,8.4961 7.5841,8.8011 7.8763,9.0742 8.2497,9.3299 8.6671,9.6834 9.1084,10.0899 9.5629,10.4183 9.9172,10.7041 10.2172,11.0739 10.5947,11.4893 11.0143,11.9297 11.457,12.3835 11.9121,12.7376 12.374,13.0374 12.7324,13.4148 13.0345,13.7272 13.4132,14.0044 13.8336,14.2623 14.2765,14.5098 14.7318,14.8587 15.1938,15.1557 15.6595,15.4244 16.1271,15.6778 16.5958,15.9227 17.0651,16.1632 17.6419,16.4011 18.2772,16.6377 18.8371,16.7664 19.356,16.9436 19.9597,17.2543 20.6096,17.6377 21.1775,17.9534 21.7008,18.2323 22.1997,18.4912 22.8998,18.7392 23.7093,19.0884 24.4711,19.3855 25.3142,19.6543 26.2015,19.9077 27.1128,20.1527 28.0372,20.3932 28.9687,20.6311 29.9041,20.8677 30.8416,20.9964 31.7802,21.1736 32.7195,21.3772 33.6591,21.4879 34.706,21.5481 35.8114,21.6881 36.9485,21.8713 38.1028,21.9711 39.2666,22.0253 40.4355,22.0548 41.5,22.178 42.6149,22.3522 43.7572,22.447 44.8073,22.4985 45.9143,22.5265 47.0524,22.5418 48.1001,22.5501 49.2058,22.5546 50.3432,22.5571 51.3905,22.5584 52.3889,22.5591 53.4679,22.5595 54.5906,22.5597 55.7372,22.5599 56.8967,22.5599 57.9561,22.56 58.9611,22.56 59.9364,22.4528 60.8957,22.2874 61.8461,22.1974 62.899,22.0413 64.0075,21.8492 65.0392,21.7447 66.0291,21.6878 67.1034,21.6569 68.2236,21.5329 69.2616,21.3583 70.255,21.2633 71.224,21.1045 72.1798,20.9109 73.1284,20.8056 74.073,20.6412 75.0156,20.4446 75.9569,20.3376 76.8977,20.1723 77.9453,19.9751 78.9438,19.8679 79.8085,19.7024 80.7075,19.5052 81.6252,19.2908 82.5531,19.067 83.4865,18.9452 84.4229,18.7719 85.3609,18.5704 86.2999,18.4608 87.2393,18.294 88.2861,18.0961 89.3891,17.9884 90.4155,17.8227 91.4025,17.6254 92.3681,17.5181 93.4292,17.4597 94.5422,17.3207 95.5763,17.138 96.6747,17.0386 97.808,16.9845 98.9603,16.8479 100.123,16.6665 101.1841,16.5678 102.2971,16.5141 103.4384,16.3777 104.488,16.1963 105.5947,16.0977 106.7326,15.9369 107.8873,15.7422 109.1585,15.6363 110.3858,15.4716 111.5893,15.2748 112.8869,15.1677 114.1287,15.1095 115.3399,14.9706 116.6419,14.7879 117.8859,14.6886 119.0984,14.6345 120.2939,14.4979 121.48,14.3165 122.661,14.1106 123.8393,13.8914 125.1233,13.7722 126.4647,13.6002 127.8374,13.3995 129.2271,13.1831 130.6261,12.8511 132.0301,12.5633 133.4368,12.2996 134.845,11.9418 136.254,11.64 137.7707,11.3687 139.3459,11.1139 140.8457,10.9753 142.3046,10.7928 143.7412,10.5863 145.2728,10.474 146.8561,10.3057 148.4676,10.107 150.0943,9.9989 151.7294,9.9401 153.369,9.801 154.9039,9.6181 156.489,9.4115 158.2086,9.0848 159.8941,8.6927 161.4541,8.2651 162.9456,7.9253 164.4,7.6333 165.9413,7.2602 167.637,6.95 169.3096,6.7813 170.9696,6.5823 172.6228,6.2598 174.1651,5.9772 175.7542,5.7163 177.476,5.4672 179.1627,5.2245 180.7233,4.9853 182.3223,4.7481 183.9424,4.5118 185.5738,4.2762 187.2114,4.0408 188.8523,3.8056 190.388,3.5705 191.8663,3.3354 193.4207,3.1004 195.0164,2.8654 196.6345,2.5232 198.1578,2.2299 199.6294,1.9632 201.0729,1.7109 202.6083,1.4665 204.1937,1.2264 205.6991,0.9887 207.161,0.7522 208.5992,0.5163 210.0246,0.2809 211.3358,0.0456 212.5849,-0.1895 213.8002,-0.4246 214.8899,-0.6596 215.9114,-0.7875 216.8957,-0.9642 217.967,-1.1675 219.0856,-1.3852 220.0155,-1.6108 220.7358,-1.7336 221.3419,-1.9075 221.886,-2.1093 222.3962,-2.3262 222.6738,-2.5514 222.7177,-2.781 222.6344,-3.1203 222.4819,-3.5192 222.2918,-3.9505 221.9741,-4.3994 221.5869,-4.9651 221.1619,-5.5943 220.7165,-6.151 220.2598,-6.6681 219.6899,-7.1637 219.0584,-7.6477 218.5005,-8.1252 217.9827,-8.5994 217.4867,-8.9645 217.2169,-9.0559 217.2844,-8.9985 217.5355,-8.9673 217.7792,-8.8431 218.019,-8.6684 218.3637,-8.4662 218.7656,-8.1419 219.3057,-7.8583 219.921,-7.5969 220.47,-7.2403 220.983,-6.7249 221.5836,-6.123 222.2317,-5.4741 222.7987,-4.6925 223.3214,-3.9458 223.8201,-3.3253 224.1985,-2.5591 224.4044,-1.6065 224.5164,-0.7668 224.4702,0.0115 224.2307,0.8636 223.8861,1.7557 223.4843,2.6697 222.9443,3.5955 222.329,4.5278 221.78,5.4636 221.1598,6.4013 220.2867,7.2329 219.1554,8.0277 L218.54,8.46 " stroke-linecap="round" fill="none" stroke="#40c057" stroke-width="3" stroke-dasharray="none" stroke-dashoffset="0"/></g></g><g transform="matrix(1, 0, 0, 1, 1765.8557, 6797.3726)" opacity="1"><g transform="scale(1)"><path d="M0,0 Q-0.643,-0.4286 -0.7107,-0.6524 T-0.7081,-0.7835 -0.5995,-0.5334 -0.6476,-0.2902 -0.7809,-0.265 -0.6392,-0.3585 -0.3477,-0.3022 -0.082,-0.0572 -0.2589,0.1832 -1.0044,0.3689 L-1.41,0.47 " stroke-linecap="round" fill="none" stroke="#40c057" stroke-width="3" stroke-dasharray="none" stroke-dashoffset="0"/></g></g><g transform="matrix(1, 0, 0, 1, 1639.9027, 6850.9496)" opacity="1"><g transform="scale(1)"><path d="M0,0 Q-1.0716,-1.9289 -1.5774,-2.3464 T-2.5727,-2.8838 -3.4356,-2.7476 -4.2265,-2.1376 -4.871,-0.4128 -5.0074,1.8115 -4.6529,3.2358 -3.6028,4.1178 -2.2814,4.5976 -1.3482,4.7515 -0.6263,4.5137 -0.1264,3.9557 0.0384,3.545 0.0209,3.5359 0.1185,3.8524 0.386,4.4532 0.8529,5.3159 1.4284,6.5353 2.063,7.9487 2.8368,9.4678 3.6864,11.1514 4.4701,12.9246 5.1107,14.7465 5.5664,16.5949 5.8143,18.4577 5.842,20.3284 5.5356,22.0961 5.0474,23.5936 4.4603,24.8368 3.6052,25.8346 2.6042,26.5918 1.5238,27.218 0.2932,27.6658 -1.0193,27.9094 -2.3762,28.0419 -3.7573,28.0068 -5.1516,27.7734 -6.5531,27.325 -7.8513,26.6524 -9.1587,25.8283 L-9.87,25.38 " stroke-linecap="round" fill="none" stroke="#40c057" stroke-width="3" stroke-dasharray="none" stroke-dashoffset="0"/></g></g><g transform="matrix(1, 0, 0, 1, 1761.156, 6777.6337)" opacity="1"><g transform="scale(1)"><path d="M0,0 Q0.2143,-1.9289 0.0583,-2.4535 T-0.2898,-3.2636 -0.8006,-3.7043 -1.5071,-3.8368 -2.4273,-3.5875 -3.3565,-3.0232 -4.3978,-1.6446 -5.2857,0.1769 -5.5544,1.3822 -5.272,2.145 -4.5825,2.6671 -3.7788,2.9511 -3.0201,2.9985 -2.3931,2.8099 -1.8376,2.4931 -1.4283,2.1063 -1.2056,1.896 -0.9773,1.9958 -0.746,2.3717 -0.513,3.0047 -0.2791,3.7778 -0.1518,4.5198 0.0246,5.2449 0.2277,6.068 0.4453,6.9445 0.6709,7.8499 0.7936,8.771 0.8604,9.7008 0.8967,10.7424 0.8093,11.7377 0.5474,12.6006 0.1906,13.4986 -0.2178,14.3087 -0.7614,14.8565 -1.3787,15.2616 -2.0359,15.5892 -2.9293,15.7674 -4.1654,15.7572 -5.3736,15.6445 -6.5667,15.476 -7.8587,15.17 -9.0973,14.6821 -10.1998,13.988 -11.0138,13.289 -11.5638,12.48 -11.9888,11.3984 L-12.22,10.81 " stroke-linecap="round" fill="none" stroke="#40c057" stroke-width="3" stroke-dasharray="none" stroke-dashoffset="0"/></g></g><g transform="matrix(1, 0, 0, 1, 1778.075, 6761.6545)" opacity="1"><g transform="scale(1)"><path d="M0,0 Q-1.7146,2.1432 -2.3952,3.1548 T-3.6605,5.0382 -4.6703,6.8128 -5.434,8.5284 -5.9566,10.1046 -6.0265,13.2124 -5.7431,17.0463 -5.2675,19.5605 -4.6872,21.2498 -4.0501,22.4902 -3.2534,23.753 L-2.82,24.44 " stroke-linecap="round" fill="none" stroke="#40c057" stroke-width="3" stroke-dasharray="none" stroke-dashoffset="0"/></g></g><g transform="matrix(1, 0, 0, 1, 1788.8845, 6772.4639)" opacity="1"><g transform="scale(1)"><path d="M0,0 Q-0.2143,-3.0005 -0.3798,-3.8166 T-0.7424,-5.0767 -1.154,-5.7622 -1.5922,-6.028 -2.0449,-5.8511 -2.6127,-4.4689 -3.1359,-2.3239 -3.4205,-0.6213 -3.5753,0.7336 -3.6595,1.8993 -3.5982,2.9621 -3.3505,3.9689 -3.0014,5.1596 -2.5972,6.4502 -2.2702,7.4739 -2.0922,8.4593 -1.9955,9.5312 -2.05,10.4358 -2.2939,11.1423 -2.641,11.7409 -3.0441,12.2808 -3.5849,12.6817 -4.3077,13.007 -5.1295,13.2911 -6.0053,13.4456 -6.9103,13.4225 -7.7241,13.1957 -8.3812,12.8579 -8.9529,12.4599 -9.4783,11.9218 -10.0364,11.2017 L-10.34,10.81 " stroke-linecap="round" fill="none" stroke="#40c057" stroke-width="3" stroke-dasharray="none" stroke-dashoffset="0"/></g></g><g transform="matrix(1, 0, 0, 1, 1788.4145, 6778.5736)" opacity="1"><g transform="scale(1)"><path d="M0,0 Q-1.2859,0 -1.9572,0 T-3.2079,0.1072 -4.4787,0.3422 L-5.17,0.47 " stroke-linecap="round" fill="none" stroke="#40c057" stroke-width="3" stroke-dasharray="none" stroke-dashoffset="0"/></g></g><g transform="matrix(1, 0, 0, 1, 1798.7539, 6768.2342)" opacity="1"><g transform="scale(1)"><path d="M0,0 Q-1.5002,2.3575 -1.9083,3.2131 T-2.7527,4.9627 -3.5335,6.4503 -4.0654,7.6882 -4.3548,8.8974 -4.1907,10.734 -3.5657,12.8047 -2.7783,14.5568 L-2.35,15.51 " stroke-linecap="round" fill="none" stroke="#40c057" stroke-width="3" stroke-dasharray="none" stroke-dashoffset="0"/></g></g><g transform="matrix(1, 0, 0, 1, 1806.2735, 6773.8739)" opacity="1"><g transform="scale(1)"><path d="M0,0 Q-1.5002,1.7146 -2.1226,2.3952 T-3.1907,3.6605 -4.0933,4.7775 -5.0129,5.7066 -6.0279,6.5767 L-6.58,7.05 " stroke-linecap="round" fill="none" stroke="#40c057" stroke-width="3" stroke-dasharray="none" stroke-dashoffset="0"/></g></g><g transform="matrix(1, 0, 0, 1, 1800.1638, 6774.3438)" opacity="1"><g transform="scale(1)"><path d="M0,0 Q2.7862,3.4291 4.4481,5.4746 L6.11,7.52 " stroke-linecap="round" fill="none" stroke="#40c057" stroke-width="3" stroke-dasharray="none" stroke-dashoffset="0"/></g></g><g transform="matrix(1, 0, 0, 1, 1809.5633, 6766.3543)" opacity="1"><g transform="scale(1)"><path d="M0,0 Q1.0716,0.8573 1.3631,1.3048 T1.9203,2.5315 2.4377,4.0561 2.8264,5.6357 3.0378,7.3522 3.1528,9.1433 2.5724,11.6179 1.2107,15.0519 L0.47,16.92 " stroke-linecap="round" fill="none" stroke="#40c057" stroke-width="3" stroke-dasharray="none" stroke-dashoffset="0"/></g></g><g transform="matrix(1, 0, 0, 1, 1815.673, 6763.5344)" opacity="1"><g transform="scale(1)"><path d="M0,0 Q1.7146,6.2153 2.1809,8.3345 T2.901,11.928 2.3283,16.0261 0.5159,21.7799 L-0.47,24.91 " stroke-linecap="round" fill="none" stroke="#40c057" stroke-width="3" stroke-dasharray="none" stroke-dashoffset="0"/></g></g><g transform="matrix(1, 0, 0, 1, 1751.7565, 6710.4274)" opacity="1"><g transform="scale(1)"><path d="M0,0 Q-1.7146,0.643 -2.5024,0.8178 T-4.0403,1.0879 -5.5199,1.3419 -6.9677,1.6944 -8.5055,2.2077 -10.0921,3.0227 -11.7054,4.109 -13.4403,5.4501 -15.1342,7.0369 -16.8058,8.8646 -18.5724,10.8233 -20.3908,12.7461 -23.6303,16.6855 -27.4286,21.8289 -29.9236,25.6986 -31.6023,28.8753 -32.7299,31.675 -33.5576,34.3768 -34.115,37.0253 -34.4182,39.5377 -34.5832,41.9761 -34.6729,44.4813 -34.7218,47.0229 -34.6412,49.5843 -34.4901,52.1565 -34.3008,54.8416 -33.9835,57.6954 -33.5966,60.641 -33.279,63.6365 -32.999,66.7662 -32.6324,70.0762 -32.2186,73.4843 -31.672,76.9456 -31.1604,80.436 -30.7749,84.1565 -30.3509,87.8927 -30.013,91.6375 -29.7221,95.4964 -29.4567,99.3102 -29.3123,103.2066 -29.3409,107.148 -29.5708,111.0067 -29.9101,114.9275 -30.4162,118.8822 -31.1202,122.6409 -31.9318,126.293 -32.9091,129.8872 -33.9765,133.1284 -35.2002,135.856 -36.616,138.3043 -38.1363,140.4934 -39.8206,142.4344 -41.5942,144.3476 -43.4163,146.1385 -45.3719,147.8629 -47.4003,149.7654 -49.3609,151.8719 -51.1777,154.1966 -52.8089,156.7472 -54.3393,159.4206 -55.7076,162.2681 -56.8806,165.3173 -57.9474,168.4763 -58.8492,171.6951 -59.5541,175.0535 -60.1519,178.595 -60.5842,182.2362 -60.8194,186.0387 -60.8402,189.929 -60.53,193.7598 -59.9327,197.5584 -58.9647,201.3394 -57.5809,205.1108 -55.7565,208.9841 -53.4781,212.913 -50.7384,216.7648 -47.5334,220.5748 -43.9682,224.2548 -40.207,227.757 -36.3392,231.0552 -32.4134,234.0282 -28.5632,236.7172 -24.7542,239.1444 -20.9675,241.3221 -17.1929,243.1497 -13.3179,244.5725 -9.3881,245.5609 -5.5358,246.0986 -1.6184,246.2839 2.4416,245.9561 6.579,245.0276 10.6516,243.5581 14.4744,241.6871 18.0543,239.5977 21.2876,237.3894 24.1182,235.0094 26.6225,232.5359 28.8421,230.0115 30.9068,227.2452 32.8873,224.1329 34.7148,220.7253 36.2448,217.1569 37.5057,213.3941 38.5132,209.5253 39.2755,205.599 39.7974,201.6414 40.0813,197.881 40.2358,194.228 40.2126,190.6334 39.9857,187.1776 39.6479,183.6903 39.2499,180.0786 38.819,176.3993 38.3703,172.4689 38.019,168.1876 37.7208,163.8225 37.3442,159.4118 37.0322,154.9764 36.7553,150.849 36.4975,147.2106 36.2501,143.9453 36.0084,141.0975 35.8769,138.6909 35.9125,136.5245 36.2534,134.4887 36.8674,132.4168 37.7373,130.3252 38.8534,128.3301 40.2108,126.3875 41.9136,124.5806 43.6972,123.169 45.4176,122.1868 47.3179,121.5453 49.3162,121.1963 51.3676,121.0065 53.4481,120.9032 55.5443,120.847 57.649,120.8165 59.7585,120.7998 62.0848,120.6836 64.529,120.2989 66.9303,119.7682 69.3082,119.2651 71.6734,118.67 74.0316,118.0248 76.1718,117.4594 78.0862,116.8304 79.9849,115.9524 81.7679,114.8318 83.488,113.5793 85.1738,112.0406 86.7339,110.132 88.2255,107.9149 89.5705,105.4229 90.6213,102.7813 91.4073,100.0584 92.0492,97.2912 92.5056,94.5022 92.7538,91.5942 92.8889,88.512 92.9624,85.4422 92.8952,82.3792 92.6443,79.3198 92.2935,76.2624 91.8883,73.2061 91.4559,70.2576 91.0086,67.3676 90.4438,64.4024 89.8151,61.3963 89.1516,58.475 88.362,55.5999 87.5038,52.8571 86.7155,50.2934 85.858,47.72 84.8557,45.1413 83.8818,42.5598 82.9234,39.7623 81.8662,36.9546 80.7553,34.2484 79.6152,31.4903 78.4591,28.8112 77.2944,26.175 76.0179,23.4549 74.7877,20.7965 73.5826,18.2787 72.3913,15.9446 71.3145,13.8175 70.3001,11.9103 69.4268,10.1226 68.7374,8.4 68.1481,6.7128 67.506,5.0449 66.8352,3.3874 66.1488,1.8427 65.3468,0.4666 64.4819,-0.8177 63.5827,-1.9451 62.5577,-2.987 61.3572,-3.8753 60.0612,-4.5728 58.606,-5.2738 56.9571,-5.9766 55.2028,-6.5732 53.3912,-7.1121 51.5484,-7.5124 49.6887,-7.8374 47.8197,-8.1213 45.9457,-8.2757 44.1761,-8.3598 42.4633,-8.2983 40.6743,-8.1577 38.8438,-7.9741 36.9907,-7.6599 35.1253,-7.3818 33.2533,-7.2305 31.2705,-7.1482 29.2274,-7.1034 27.2587,-6.9719 25.3304,-6.7932 23.4241,-6.5888 21.5298,-6.3705 19.6421,-6.1445 17.865,-5.7001 16.2553,-5.1369 14.7367,-4.6162 13.2676,-4.1186 11.8255,-3.6336 10.398,-3.1554 9.0856,-2.681 7.8359,-2.2086 6.6202,-1.7373 5.4231,-1.3737 4.2361,-1.0688 3.0546,-0.6886 1.876,-0.2674 0.8062,0.176 -0.0972,0.6315 -0.9102,1.0937 -1.8882,1.4522 -3.1005,1.7293 L-3.76,1.88 " stroke-linecap="round" fill="none" stroke="#f76707" stroke-width="3" stroke-dasharray="none" stroke-dashoffset="0"/></g></g></svg>