<svg xmlns="http://www.w3.org/2000/svg" direction="ltr" width="1450.8978619617856" height="754.0734446622105" viewBox="126.08830607199121 2475.5482873671413 1450.8978619617856 754.0734446622105" stroke-linecap="round" stroke-linejoin="round" data-color-mode="dark" class="tl-container tl-theme__force-sRGB tl-theme__dark" style="background-color: transparent;"><defs/><g transform="matrix(1, 0, 0, 1, 481.6304, 2507.5483)" opacity="1"><g transform="scale(1)"><path d="M3.478,0.2423 T2.8344,5.9497 1.8824,20.9567 1.771,42.1902 2.4344,69.485 2.8342,100.3737 2.4054,130.4642 1.854,154.359 1.5628,173.9651 2.0237,195.2825 3.11,215.8708 4.2696,236.0667 4.9055,246.7175 A2.0704,2.0704 0 0 1 0.7745,247.0025 T-0.0583,236.3653 -1.6857,216.1666 -3.1446,195.3943 -3.6897,173.8785 -3.3408,154.2298 -2.6776,130.3747 -2.0763,100.4194 -2.2708,69.5785 -2.7349,42.1358 -2.437,20.6253 -1.3377,5.459 -0.638,-0.2423 A2.0722,2.0722 0 0 1 3.478,0.2423 Z" stroke-linecap="round" fill="#f2f2f2"/></g></g><g transform="matrix(1, 0, 0, 1, 480.2116, 2752.9944)" opacity="1"><g transform="scale(1)"><path d="M1.2106,-1.6146 T3.8979,0.3949 11.4549,6.867 24.1817,17.6027 42.5174,30.8143 65.2699,45.7902 91.7205,62.7385 121.4221,81.0214 153.5538,100.6932 185.2856,120.4444 210.0869,136.2221 230.5497,149.565 253.407,164.6583 275.4135,179.0916 296.4873,192.5113 307.6254,199.5749 A2.2215,2.2215 0 0 1 305.2746,203.3451 T294.0299,196.4526 272.6317,183.3902 250.4304,169.1667 227.6009,154.0715 207.2175,140.6918 182.5239,124.862 150.8985,105.0106 118.8405,85.1944 89.1368,66.7465 62.7113,49.6469 39.888,34.4001 21.4029,20.8244 8.8233,10.0166 1.4707,3.6303 -1.2106,1.6146 A2.018,2.018 0 0 1 1.2106,-1.6146 Z" stroke-linecap="round" fill="#f2f2f2"/></g></g><g transform="matrix(1, 0, 0, 1, 475.9553, 2752.9944)" opacity="1"><g transform="scale(1)"><path d="M1.7312,-2.4874 T4.4013,-2.1507 9.8207,-2.3078 15.3618,-3.7077 21.7155,-5.788 29.5337,-8.2595 38.2928,-11.233 48.6034,-14.8345 60.8205,-18.783 74.2544,-23.2108 87.963,-28.2128 102.5612,-33.8682 118.6082,-40.5287 135.8045,-47.7467 152.9726,-54.5962 169.6774,-61.5329 186.7758,-69.514 203.8176,-78.085 220.8455,-86.9753 237.193,-95.6968 253.5838,-104.0203 271.2828,-112.7719 290.058,-121.4439 307.7013,-129.0458 323.3727,-135.6695 336.0735,-140.727 346.752,-144.8076 352.3618,-146.9723 A2.4378,2.4378 0 0 1 354.1782,-142.4477 T348.6289,-140.1324 338.1325,-135.7118 325.6269,-130.3839 310.019,-123.6644 292.5061,-116.134 273.858,-107.5537 256.2039,-98.8532 239.8954,-90.6114 223.4816,-81.91 206.3558,-73.025 189.1506,-64.4172 171.8255,-56.3515 155.0459,-49.3894 137.9628,-42.6013 120.7271,-35.4032 104.5486,-28.7191 89.8332,-23.0632 75.9392,-18.0541 62.4592,-13.6725 50.344,-9.8263 39.955,-6.2753 31.0847,-3.3146 23.2754,-0.8981 16.5258,1.2076 9.9392,2.6618 3.8072,2.8224 1.1088,2.4874 A2.5068,2.5068 0 0 1 1.7312,-2.4874 Z" stroke-linecap="round" fill="#e599f7"/></g></g><g transform="matrix(1, 0, 0, 1, 831.4431, 2609.7041)" opacity="1"><g transform="scale(1)"><path d="M0.1873,1.8696 T-2.6031,2.1383 -8.2468,3.8657 -14.5008,8.7828 -22.2756,17.4762 -30.878,29.0754 -39.2819,42.9856 -47.3229,59.2418 -54.8979,77.598 -61.661,97.3398 -67.4545,117.2627 -73.0553,136.7904 -78.8366,155.2816 -83.5698,169.5289 -87.4586,181.7672 -92.0349,197.1773 -97.5432,215.9828 -103.5277,237.392 -108.9068,261.2261 -112.8492,287.4523 -115.2,315.2604 -116.1521,343.9223 -115.8059,372.4693 -114.2262,399.8252 -111.4328,425.4196 -107.4268,448.9478 -102.2287,469.3754 -95.5899,487.0193 -87.1139,502.9065 -77.3793,516.793 -66.415,529.3763 -53.7245,540.9644 -40.4447,550.3729 -29.3867,556.4626 -19.7141,560.9976 -14.5509,563.4106 A2.1335,2.1335 0 0 1 -16.3291,567.2894 T-21.5271,564.9523 -31.5153,560.474 -43.1398,554.2107 -56.9066,544.442 -69.9494,532.4398 -81.1672,519.4489 -91.1393,505.0559 -99.8091,488.607 -106.5156,470.4809 -111.7148,449.6815 -115.7163,425.891 -118.5226,400.0753 -120.1013,372.5207 -120.4167,343.7782 -119.429,314.8995 -117.031,286.8182 -113.0303,260.2878 -107.6005,236.2511 -101.6013,214.7968 -96.101,195.9685 -91.5188,180.4728 -87.6236,168.1816 -82.9087,154.0043 -77.1526,135.6123 -71.5232,116.0728 -65.6018,95.9797 -58.6622,76.0322 -50.8984,57.4551 -42.6323,40.9395 -33.951,26.7705 -25.0507,14.9316 -16.6666,5.807 -9.3207,0.3663 -3.0162,-1.5754 -0.1873,-1.8696 A1.879,1.879 0 0 1 0.1873,1.8696 Z" stroke-linecap="round" fill="#e599f7"/></g></g><g transform="matrix(1, 0, 0, 1, 832.6308, 2619.2058)" opacity="1"><g transform="scale(1)"><path d="M1.2131,-1.4928 T5.7152,2.161 15.2823,12.6873 25.5389,29.3874 35.1775,52.6225 43.6423,82.6479 51.4534,117.2804 57.8281,153.2625 61.7617,191.696 63.2729,233.9213 62.6553,277.8332 60.6216,322.0519 57.3021,365.605 52.4636,407.9811 45.6995,448.3572 36.5215,484.6437 24.3303,514.655 9.5381,535.7764 -6.7323,552.2474 -15.212,560.8089 A1.9919,1.9919 0 0 1 -18.048,558.0111 T-9.6022,549.4162 6.2443,533.3323 20.5434,513.0314 32.6337,483.6317 41.815,447.6987 48.5719,407.5354 53.3957,365.307 56.689,321.8729 58.6768,277.7785 59.2907,234.0657 57.8074,192.1087 53.9227,153.9509 47.5981,118.1513 39.8471,83.7292 31.5725,54.1469 22.2371,31.4367 12.4842,15.3176 3.2718,5.1421 -1.2131,1.4928 A1.9235,1.9235 0 0 1 1.2131,-1.4928 Z" stroke-linecap="round" fill="#e599f7"/></g></g><g transform="matrix(1, 0, 0, 1, 475.1319, 2755.7917)" opacity="1"><g transform="scale(1)"><path d="M1.6691,-1.0014 T5.0513,4.608 13.5645,17.6077 25.0841,33.6514 40.7615,54.4247 61.6942,81.049 87.058,111.8874 115.8691,145.5292 145.953,180.9881 174.7561,216.867 201.4577,251.5184 227.0274,284.352 252.0082,315.0921 274.7561,342.8029 295.4801,368.3634 311.7415,388.5789 324.7859,404.547 337.1697,419.4798 348.4607,433.1975 354.4292,440.4147 A2.196,2.196 0 0 1 351.0708,443.2453 T344.9684,436.1409 333.3545,422.6829 320.7457,407.838 307.6911,391.8225 291.4822,371.5964 270.8409,346.0063 248.1441,318.2308 223.1343,287.3848 197.5551,254.5251 170.9099,219.9529 142.1865,184.1817 112.1442,148.7083 83.3636,114.9074 58.0809,83.865 37.2739,57.0269 21.7131,36.0484 10.2084,19.7717 1.689,6.6257 -1.6691,1.0014 A1.9464,1.9464 0 0 1 1.6691,-1.0014 Z" stroke-linecap="round" fill="#e599f7"/></g></g><g transform="matrix(1, 0, 0, 1, 680.6047, 2595.4517)" opacity="1"><g transform="scale(1)"><path d="M2.4671,-1.6436 T3.6141,0.027 6.5299,4.9383 9.8041,11.1229 13.0721,15.543 16.8653,16.5176 19.2181,13.7106 19.0396,9.2931 17.7847,4.6877 17.0303,2.1944 A2.5608,2.5608 0 0 1 21.891,0.5805 T22.548,2.0024 23.8837,5.946 24.7481,11.7522 23.9687,18.2122 20.1975,22.7966 14.2389,23.1173 8.5376,19.7469 4.322,14.125 1.194,7.9163 -1.3674,3.3455 -2.4671,1.6436 A2.9645,2.9645 0 0 1 2.4671,-1.6436 ZM18.7915,-1.0844 T18.9644,-1.1297 19.1373,-1.175 A2.5579,2.5579 0 0 1 20.474,3.7631 T20.3019,3.8112 20.1298,3.8593 A2.5608,2.5608 0 0 1 18.7915,-1.0844 ZM22.0861,0.1355 T22.6799,1.3506 24.7122,4.6129 28.3022,9.2613 33.0117,14.5775 37.9083,20.3247 41.2566,25.1761 42.9083,30.489 42.2333,37.0886 37.5176,42.3362 30.5082,45.3945 23.702,46.5712 20.5061,46.8313 A2.8986,2.8986 0 0 1 19.8739,41.0687 T22.8438,40.6525 28.8533,39.394 33.913,37.4552 36.7954,34.224 36.6119,29.3784 33.5986,23.8248 29.0121,17.9737 24.291,12.407 20.6669,7.6979 18.3348,3.9999 17.5252,2.4526 A2.5579,2.5579 0 0 1 22.0861,0.1355 Z" stroke-linecap="round" fill="#e599f7"/></g></g><g transform="matrix(1, 0, 0, 1, 716.2358, 2583.5746)" opacity="1"><g transform="scale(1)"><path d="M-0.5069,-3.037 T1.1744,-3.3395 4.8786,-4.4794 9.1855,-7.4211 12.5294,-10.2416 13.5894,-10.9579 A3.2304,3.2304 0 0 1 17.2906,-5.6621 T15.5435,-4.4228 11.8085,-1.3667 6.8549,1.4831 2.1981,2.7766 0.5069,3.037 A3.079,3.079 0 0 1 -0.5069,-3.037 Z" stroke-linecap="round" fill="#e599f7"/></g></g><g transform="matrix(1, 0, 0, 1, 724.5498, 2593.0763)" opacity="1"><g transform="scale(1)"><path d="M-0.4467,-2.6763 T1.1977,-2.9836 5.1364,-5.4121 8.5985,-8.8434 9.7664,-10.1536 A2.8046,2.8046 0 0 1 13.9936,-6.4664 T11.6031,-3.7203 6.5578,0.5955 2.1748,2.4208 0.4467,2.6763 A2.7133,2.7133 0 0 1 -0.4467,-2.6763 Z" stroke-linecap="round" fill="#e599f7"/></g></g><g transform="matrix(1, 0, 0, 1, 751.8669, 2558.6328)" opacity="1"><g transform="scale(1)"><path d="M-2.8944,-1.9283 T-1.7549,-3.6395 0.9021,-6.6459 5.0334,-9.0092 11.0901,-9.0158 16.3478,-6.0963 19.045,-1.6219 19.0828,3.7731 17.9259,7.3938 17.6136,8.2357 A3.6672,3.6672 0 0 1 10.7045,5.7745 T11.4092,3.0267 10.6267,-1.402 7.1242,-2.2385 4.0017,0.267 2.8944,1.9283 A3.4779,3.4779 0 0 1 -2.8944,-1.9283 ZM15.846,3.749 T17.2557,4.5353 21.6286,5.9601 26.5017,7.2768 30.1034,9.5634 32.0586,14.1299 30.8817,19.9454 27.2886,25.4929 22.2158,29.9711 16.8333,32.7542 14.3707,33.7494 A3.1545,3.1545 0 0 1 11.7493,28.0106 T13.0241,27.363 17.0724,25.1299 21.5408,21.5065 24.2531,16.7951 23.0867,13.4062 18.1835,12.1948 13.9681,10.9803 12.4722,10.2613 A3.6672,3.6672 0 0 1 15.846,3.749 Z" stroke-linecap="round" fill="#e599f7"/></g></g><g transform="matrix(1, 0, 0, 1, 798.1874, 2536.0665)" opacity="1"><g transform="scale(1)"><path d="M3.3285,-1.3336 T3.915,0.1105 4.6644,4.0309 4.8682,8.9039 4.6603,14.1662 3.9789,19.9282 3.0275,25.5175 1.1308,31.0452 -1.6069,36.6055 -2.9668,39.3311 A3.2535,3.2535 0 0 1 -8.9132,36.6889 T-7.8019,33.8529 -5.8504,28.8599 -4.5157,24.1871 -3.5985,18.9563 -2.8704,13.7813 -2.4074,7.6929 -2.7893,2.6991 -3.3285,1.3336 A3.5857,3.5857 0 0 1 3.3285,-1.3336 Z" stroke-linecap="round" fill="#e599f7"/></g></g><g transform="matrix(1, 0, 0, 1, 786.3104, 2549.1312)" opacity="1"><g transform="scale(1)"><path d="M1.4832,-2.6693 T4.0152,-1.2713 8.7882,1.4116 13.0751,3.9188 18.4229,7.1259 24.7269,10.888 27.7291,12.6654 A3.2024,3.2024 0 0 1 24.5309,18.2146 T21.3871,16.4499 14.9464,12.6802 9.7151,9.4007 5.6731,6.8093 1.0412,4.0809 -1.4832,2.6693 A3.0537,3.0537 0 0 1 1.4832,-2.6693 Z" stroke-linecap="round" fill="#e599f7"/></g></g><g transform="matrix(1, 0, 0, 1, 781.5595, 2945.8244)" opacity="1"><g transform="scale(1)"><path d="M2.2079,-0.3026 T2.9787,4.9467 4.2283,13.8583 4.707,17.5205 A2.3462,2.3462 0 0 1 0.053,18.1195 T-0.4259,14.3407 -1.5564,5.4323 -2.2079,0.3026 A2.2285,2.2285 0 0 1 2.2079,-0.3026 ZM0.0455,18.0538 T-1.1227,6.1717 -2.2908,-5.7105 A2.3023,2.3023 0 0 1 2.2908,-6.1695 T3.5027,5.7083 4.7145,17.5862 A2.3462,2.3462 0 0 1 0.0455,18.0538 ZM2.2933,-6.1429 T2.851,0.0218 4.0275,12.796 4.6636,22.7266 4.6826,28.4481 4.6846,30.8484 A2.3048,2.3048 0 0 1 0.0754,30.9116 T0.0115,28.5013 -0.0945,22.9582 -0.6888,13.1295 -1.7673,0.3482 -2.2933,-5.7371 A2.3023,2.3023 0 0 1 2.2933,-6.1429 Z" stroke-linecap="round" fill="#e599f7"/></g></g><g transform="matrix(1, 0, 0, 1, 777.9964, 3000.4588)" opacity="1"><g transform="scale(1)"><path d="M0.621,-2.4789 T2.8761,-1.9261 6.8605,-0.3211 9.3442,3.3548 9.3508,8.065 11.5499,13.7958 14.3508,20.8253 12.7867,26.3934 7.8393,29.1237 2.1811,29.6872 -2.2947,29.7347 -4.6416,29.7663 A2.4487,2.4487 0 0 1 -4.8584,24.8737 T-2.518,24.6976 1.9005,24.351 6.4038,23.7585 9.4254,21.4118 8.0459,17.2567 4.9573,12.4749 3.8502,6.774 1.6174,3.0518 -0.621,2.4789 A2.5555,2.5555 0 0 1 0.621,-2.4789 Z" stroke-linecap="round" fill="#e599f7"/></g></g><g transform="matrix(1, 0, 0, 1, 486.5564, 2758.8059)" opacity="1"><g transform="scale(1)"><path d="M0.327,-1.9587 T1.8295,-1.6936 5.642,-0.5141 9.9422,1.4695 13.8644,3.9753 17.7145,7.0322 21.3863,9.7267 25.4478,12.4418 30.0971,15.7129 34.7274,18.8494 39.4786,22.0056 44.3397,25.1903 48.6034,28.269 52.2668,31.3019 56.431,34.3256 61.0878,37.3762 65.544,40.4642 70.1156,43.6819 74.8772,47.3011 79.6413,50.9861 84.7355,54.6597 89.8545,58.2499 94.6946,61.539 99.298,64.8118 103.8526,67.6641 108.6776,70.424 113.4942,73.121 118.0336,75.3679 122.3721,77.4708 126.4052,79.1533 130.1013,80.8088 133.3403,83.386 136.5013,87.0395 139.958,91.0744 143.3678,94.619 146.4812,97.7414 149.8866,101.0538 153.4511,104.3471 157.2329,107.1565 161.5874,109.3677 165.8713,111.293 170.0174,112.9236 174.6642,114.9249 179.5033,117.4307 183.9498,120.0611 188.6659,123.1046 193.5003,125.7718 198.2457,128.0185 202.9248,130.6363 207.2891,133.2622 211.4774,135.4568 215.3764,137.6193 219.7578,140.2949 224.1308,143.3881 227.7866,145.9848 231.8053,148.5782 235.9809,151.2081 240.1091,153.4118 244.278,156.0772 248.1989,159.158 252.1639,162.1391 256.3279,165.2635 261.1039,168.7494 266.4845,172.2431 271.8947,175.6019 277.332,178.9346 282.3337,182.1809 286.8099,185.8852 290.6249,189.6676 293.096,192.3915 293.9062,193.4107 A2.1989,2.1989 0 0 1 290.5138,196.2093 T289.6672,195.2202 287.1241,192.6159 283.7634,189.3944 279.8675,186.2163 274.9464,183.0011 269.4394,179.5914 263.9265,176.1384 258.4691,172.5709 253.5502,168.9684 249.3868,165.8408 245.3954,162.8338 241.7531,159.9162 237.9603,157.4972 233.6433,155.1777 229.4385,152.5218 225.3096,149.8403 220.6616,146.6825 215.5215,143.1396 211.1624,140.491 207.2441,138.3307 202.8369,135.8518 198.5336,133.2848 193.8553,130.8926 188.8331,128.3643 184.0034,125.4387 179.5481,122.618 175.1891,120.1423 170.7371,117.9158 166.3236,116.0488 162.0077,114.2492 157.8516,112.5047 154.0508,110.4664 150.8824,107.7773 147.0923,104.2821 142.7349,99.9172 138.8043,95.9503 135.3726,92.2752 132.0501,88.3862 128.3646,85.0546 124.569,82.8712 120.5877,81.0591 116.2911,78.8398 111.7662,76.5251 106.9245,73.807 101.7573,70.8524 96.9061,67.8378 92.4268,64.6948 87.5418,61.4136 82.4195,57.8608 77.2278,54.1435 72.4798,50.4872 67.7759,46.9434 63.05,43.6408 58.8129,40.7172 54.1959,37.7107 49.7437,34.4874 46.215,31.5414 42.0903,28.5631 37.2866,25.3937 33.115,22.6926 29.0454,19.9489 24.723,16.7736 20.8338,14.0508 17.334,11.5569 13.5448,8.6775 8.98,5.558 4.5505,3.1873 1.174,2.1949 -0.327,1.9587 A1.9858,1.9858 0 0 1 0.327,-1.9587 Z" stroke-linecap="round" fill="#f76707"/></g></g><g transform="matrix(1, 0, 0, 1, 1149.3193, 2684.695)" opacity="1"><g transform="scale(1)"><path d="M-2.1998,-1.3047 T-1.9465,-3.5582 -1.7425,-8.8964 -1.9451,-14.6401 -2.6974,-19.198 -3.8174,-21.6088 -4.3383,-22.1208 A2.214,2.214 0 0 1 -0.9659,-24.9901 T-0.0705,-23.8375 1.5736,-20.0913 2.4606,-14.9816 2.6474,-8.8945 2.4479,-3.0695 2.1998,-0.8153 A2.2134,2.2134 0 0 1 -2.1998,-1.3047 ZM-2.4304,-21.3526 T-3.0543,-21.2894 -3.6781,-21.2261 A2.2149,2.2149 0 0 1 -4.1216,-25.6336 T-3.4977,-25.696 -2.8737,-25.7583 A2.214,2.214 0 0 1 -2.4304,-21.3526 ZM-2.0133,-22.2694 T-2.3366,-21.7399 -3.0878,-18.8717 -3.6954,-14.2736 -3.9197,-9.4676 -3.9634,-4.4386 -3.569,0.6555 -2.8149,6.0823 -2.1836,12.1716 -1.602,18.0508 -0.8077,23.6875 -0.0131,29.9289 0.6205,36.2483 1.1795,42.7166 1.4738,49.6869 1.9277,57.1427 2.4028,63.0911 2.5453,68.7853 1.9373,75.4223 0.2668,80.9 -2.4122,85.244 -6.5529,88.0827 -11.913,88.9307 -17.3113,87.9751 -21.9678,85.2161 -25.6473,81.5407 -27.8642,78.7518 -28.5593,77.7577 A2.5882,2.5882 0 0 1 -24.3807,74.7023 T-22.3944,77.0603 -18.0837,81.166 -12.9147,83.3452 -7.818,82.4492 -4.6951,79.0213 -3.2618,74.6714 -2.7524,68.902 -3.0017,61.4469 -3.4973,53.7301 -3.9112,46.5983 -4.447,39.9475 -4.9741,33.433 -5.5596,27.306 -6.4375,21.3485 -6.9333,15.4945 -7.455,9.5823 -8.0411,3.923 -8.4387,-1.6662 -8.62,-7.0955 -8.413,-12.1571 -7.7872,-17.1322 -6.8847,-21.4773 -6.1206,-24.0509 -5.7863,-24.5904 A2.2149,2.2149 0 0 1 -2.0133,-22.2694 Z" stroke-linecap="round" fill="#f76707"/></g></g><g transform="matrix(1, 0, 0, 1, 1148.2606, 2789.5089)" opacity="1"><g transform="scale(1)"><path d="M0.6615,2.1529 T-0.5999,3.1349 -3.3696,5.7827 -5.7058,9.6946 -6.6543,14.0895 -5.2206,17.8308 -1.1404,19.5831 2.6026,17.7426 3.5525,13.2531 1.7069,8.3484 0.1286,5.933 A2.6203,2.6203 0 0 1 4.1114,2.527 T4.9382,3.4426 7.2386,6.8255 9.1965,12.4131 8.9244,17.7497 6.3449,22.2269 1.791,25.0211 -3.9512,24.632 -9.2261,21.2487 -11.7216,16.0595 -11.6221,10.969 -10.0492,6.2226 -7.0353,1.8616 -4.0223,-1.1341 -2.7815,-2.1529 A2.7565,2.7565 0 0 1 0.6615,2.1529 Z" stroke-linecap="round" fill="#f76707"/></g></g><g transform="matrix(1, 0, 0, 1, 1148.2606, 2622.2301)" opacity="1"><g transform="scale(1)"><path d="M0.5663,-3.8861 T1.839,-3.6436 5.875,-0.992 9.0736,4.0492 7.8408,8.949 5.2104,11.9939 4.248,12.7708 A2.9392,2.9392 0 0 1 0.387,8.3384 T1.9691,7.2164 2.7219,4.1892 0.6632,2.025 -0.5663,1.7661 A2.8823,2.8823 0 0 1 0.5663,-3.8861 ZM3.9769,8.1287 T4.9467,8.8196 8.4123,10.5613 12.1506,14.0955 12.0633,18.8278 8.4197,22.2016 3.1071,23.5631 -1.8653,23.5062 -5.7717,22.9069 -7.7043,22.601 A2.4984,2.4984 0 0 1 -7.1157,17.639 T-5.1652,17.7936 -0.3909,17.9672 4.8712,17.0406 4.8968,15.1347 1.571,13.5774 0.6581,12.9805 A2.9392,2.9392 0 0 1 3.9769,8.1287 Z" stroke-linecap="round" fill="#f76707"/></g></g><g transform="matrix(1, 0, 0, 1, 1098.5004, 2712.2219)" opacity="1"><g transform="scale(1)"><path d="M2.4022,-0.802 T2.9194,0.6969 3.9411,5.8558 4.8203,12.7448 5.3403,17.9693 5.6338,22.0515 5.7821,24.1379 A2.6107,2.6107 0 0 1 0.5779,24.5621 T0.2266,20.7327 -0.4754,13.4119 -1.1286,6.8659 -1.9166,2.3067 -2.4022,0.802 A2.5325,2.5325 0 0 1 2.4022,-0.802 Z" stroke-linecap="round" fill="#f76707"/></g></g><g transform="matrix(1, 0, 0, 1, 1110.1464, 2711.1632)" opacity="1"><g transform="scale(1)"><path d="M2.2033,-1.1034 T2.9657,0.3999 4.4795,5.392 5.4335,11.9003 5.6745,17.548 5.7144,21.7185 5.7161,23.2605 A2.5363,2.5363 0 0 1 0.6439,23.3195 T0.6097,21.7779 0.5204,17.6905 0.3318,12.3488 -0.2608,6.8284 -1.4615,2.6037 -2.2033,1.1034 A2.4642,2.4642 0 0 1 2.2033,-1.1034 Z" stroke-linecap="round" fill="#f76707"/></g></g><g transform="matrix(1, 0, 0, 1, 1117.5575, 2701.6346)" opacity="1"><g transform="scale(1)"><path d="M-1.06,3.1473 T-3.0632,3.1704 -7.121,3.2244 -12.7768,3.8821 -19.3127,5.3892 -24.129,7.1416 -28.152,9.0816 -30.2933,10.1494 A3.1073,3.1073 0 0 1 -33.2267,4.6706 T-31.2325,3.5242 -26.8206,1.1995 -21.0619,-0.9769 -15.7337,-2.3785 -11.4639,-3.0186 -7.1238,-3.2244 -3.0632,-3.1704 -1.06,-3.1473 A3.1473,3.1473 0 0 1 -1.06,3.1473 Z" stroke-linecap="round" fill="#f76707"/></g></g><g transform="matrix(1, 0, 0, 1, 1180.0224, 2689.9886)" opacity="1"><g transform="scale(1)"><path d="M2.4021,1.6001 T1.3997,3.1005 -0.6691,6.6078 -2.6727,11.0512 -4.5892,17.2628 -5.9291,24.5232 -6.3958,31.5105 -6.3087,37.9106 -4.9711,43.5537 -2.4464,48.3046 -1.0663,50.3106 A2.6327,2.6327 0 0 1 -5.2937,53.4494 T-7.1099,51.1506 -9.9828,46.7483 -11.7308,41.534 -12.355,34.7275 -12.0489,27.4129 -10.9823,19.8334 -9.5852,13.6344 -8.0165,8.8438 -5.7082,3.8489 -3.4005,-0.097 -2.4021,-1.6001 A2.8862,2.8862 0 0 1 2.4021,1.6001 Z" stroke-linecap="round" fill="#f76707"/></g></g><g transform="matrix(1, 0, 0, 1, 1192.7271, 2707.987)" opacity="1"><g transform="scale(1)"><path d="M1.521,-2.7616 T3.0791,-2.5132 6.4857,-1.1778 9.888,2.2738 10.9975,7.5081 8.979,11.6654 7.1237,13.5587 6.8422,14.1646 A2.9391,2.9391 0 0 1 1.829,11.0951 T3.9234,8.9454 4.7538,5.0316 2.0444,3.0146 0.599,2.7616 A2.7998,2.7998 0 0 1 1.521,-2.7616 ZM6.4781,10.6179 T7.435,11.6594 10.1822,14.4093 13.0072,17.5325 14.0419,18.9473 A2.8915,2.8915 0 0 1 9.1585,22.0451 T8.2754,20.8448 5.7921,18.1849 3.1925,15.6836 2.1931,14.6418 A2.9391,2.9391 0 0 1 6.4781,10.6179 ZM14.1982,21.7657 T13.4,23.2496 10.1846,25.7683 5.5996,26.9397 0.7991,26.7679 -3.2658,26.1474 -4.6981,25.8354 A2.5881,2.5881 0 0 1 -3.7619,20.7446 T-2.3122,20.9626 1.1546,21.2992 5.6543,21.3576 8.5694,20.2621 9.0022,19.2267 A2.8915,2.8915 0 0 1 14.1982,21.7657 Z" stroke-linecap="round" fill="#f76707"/></g></g><g transform="matrix(1, 0, 0, 1, 1226.6063, 2713.2806)" opacity="1"><g transform="scale(1)"><path d="M2.1625,1.08 T1.204,3.1042 -0.7885,7.0119 -4.0172,11.8251 -8.6015,16.6197 -12.1786,19.2876 -13.3663,20.0906 A2.5463,2.5463 0 0 1 -16.2737,15.9094 T-15.1075,15.0756 -12.112,12.8015 -8.2881,8.8546 -5.2703,4.6161 -3.2048,0.9021 -2.1625,-1.08 A2.4172,2.4172 0 0 1 2.1625,1.08 Z" stroke-linecap="round" fill="#f76707"/></g></g><g transform="matrix(1, 0, 0, 1, 1213.9016, 2716.4568)" opacity="1"><g transform="scale(1)"><path d="M2.0092,-1.147 T3.0317,0.5959 5.2469,5.432 7.8477,10.7809 10.4738,14.6762 13.9567,16.4812 16.2217,16.6464 A2.4377,2.4377 0 0 1 15.5383,21.4736 T14.0065,21.307 10.4846,20.6531 6.6148,17.8699 3.2601,12.8804 0.8662,7.429 -1.0309,2.909 -2.0092,1.147 A2.3136,2.3136 0 0 1 2.0092,-1.147 Z" stroke-linecap="round" fill="#f76707"/></g></g><g transform="matrix(1, 0, 0, 1, 1231.9, 2696.341)" opacity="1"><g transform="scale(1)"><path d="M2.448,-1.2226 T3.4208,0.7945 5.1935,4.6928 6.6906,8.6264 8.0245,12.755 9.2675,19.2698 10.0094,26.1095 9.9782,30.946 9.4601,35.4599 8.1412,40.6288 5.5447,46.1608 1.8595,50.3194 -0.1967,52.0368 A2.9804,2.9804 0 0 1 -4.0433,47.4832 T-1.9727,45.3995 1.1614,41.2363 3.0124,35.9943 4.0422,30.7767 4.2447,26.3979 3.8474,20.2135 2.929,14.3649 0.988,8.7889 -1.42,3.2118 -2.448,1.2226 A2.7364,2.7364 0 0 1 2.448,-1.2226 Z" stroke-linecap="round" fill="#f76707"/></g></g><g transform="matrix(1, 0, 0, 1, 1240.3698, 2679.4014)" opacity="1"><g transform="scale(1)"><path d="M-1.5803,-2.2137 T0.1917,-3.4388 4.6731,-5.8554 9.7767,-6.662 12.1709,-6.2773 A2.6643,2.6643 0 0 1 10.1471,-1.3481 T9.4761,-1.6664 6.9257,-1.1625 3.3133,0.9366 1.5803,2.2137 A2.7199,2.7199 0 0 1 -1.5803,-2.2137 ZM13.6291,-4.8111 T13.9989,-3.9066 14.4863,-0.4974 12.8851,4.6643 9.9216,9.4482 8.6769,11.5752 A2.7293,2.7293 0 0 1 3.6067,9.5531 T4.2082,8.2546 6.0288,5.3148 8.3275,1.3285 9.048,-1.9154 8.6889,-2.8143 A2.6643,2.6643 0 0 1 13.6291,-4.8111 ZM8.1516,8.7176 T8.6085,9.2553 11.7553,9.9764 14.4454,10.16 A2.5675,2.5675 0 0 1 15.1946,15.24 T12.6919,15.6116 8.1211,15.2019 5.0925,13.4157 4.132,12.4107 A2.7293,2.7293 0 0 1 8.1516,8.7176 Z" stroke-linecap="round" fill="#f76707"/></g></g><g transform="matrix(1, 0, 0, 1, 1272.1316, 2714.3394)" opacity="1"><g transform="scale(1)"><path d="M1.1464,2.295 T-1.3611,3.5327 -5.7515,6.8137 -7.8639,11.0467 -7.1769,15.065 -4.2467,17.7514 -0.0531,17.3737 3.0587,14.0129 4.9411,9.8416 6.8743,4.3932 8.4152,-1.5577 9.0557,-7.7721 9.1985,-13.9898 8.8377,-19.1975 7.4554,-25.5417 5.3517,-30.6041 4.209,-31.9784 A2.1491,2.1491 0 0 1 7.1886,-35.0761 T8.0038,-34.2561 10.2784,-30.1089 12.2862,-24.699 13.3964,-19.5685 13.9819,-13.9574 14.0173,-7.248 13.5116,-0.3316 11.9352,6.2746 9.847,12.3037 5.484,18.3524 -0.4139,22.9799 -6.6921,21.8807 -11.7926,16.6621 -12.5781,9.7799 -10.8409,4.5429 -7.9272,1.5372 -3.6479,-1.0306 -1.1464,-2.295 A2.5655,2.5655 0 0 1 1.1464,2.295 ZM6.6311,-31.5909 T6.2834,-31.4245 5.9356,-31.258 A2.1473,2.1473 0 0 1 4.0725,-35.1274 T4.4195,-35.2955 4.7665,-35.4635 A2.1491,2.1491 0 0 1 6.6311,-31.5909 ZM7.1021,-32.7356 T6.9214,-31.9126 7.0194,-28.146 8.0519,-20.7452 9.0651,-13.9649 9.7553,-8.2104 10.6616,-2.2999 11.6813,3.5635 12.7233,9.1135 14.2838,14.7684 15.3463,18.2577 A2.7652,2.7652 0 0 1 10.0537,19.8623 T8.9396,16.1721 7.3122,10.1064 6.3756,4.4012 5.5436,-1.5876 4.8392,-7.7197 4.3755,-13.4177 3.5637,-20.3194 2.7275,-28.4655 2.7206,-32.7924 2.906,-33.6498 A2.1473,2.1473 0 0 1 7.1021,-32.7356 Z" stroke-linecap="round" fill="#f76707"/></g></g><g transform="matrix(1, 0, 0, 1, 1308.1283, 2707.987)" opacity="1"><g transform="scale(1)"><path d="M1.9357,0.4306 T1.5012,2.704 0.2549,6.8887 -1.8544,10.4327 -5.5786,14.6585 -8.0054,17.2516 A2.0508,2.0508 0 0 1 -11.0546,14.5084 T-8.7892,11.8859 -4.798,6.6507 -2.5039,1.8037 -1.9357,-0.4306 A1.983,1.983 0 0 1 1.9357,0.4306 Z" stroke-linecap="round" fill="#f76707"/></g></g><g transform="matrix(1, 0, 0, 1, 1298.5997, 2710.1045)" opacity="1"><g transform="scale(1)"><path d="M1.9829,-1.7623 T3.9547,0.5205 7.5841,5.0888 10.5396,8.9551 13.0883,12.1833 16.2586,16.7528 18.178,19.675 A2.7415,2.7415 0 0 1 13.582,22.665 T12.6053,21.1519 9.6551,16.7446 6.3403,12.122 3.5426,8.303 0.0516,3.9872 -1.9829,1.7623 A2.6529,2.6529 0 0 1 1.9829,-1.7623 Z" stroke-linecap="round" fill="#f76707"/></g></g><g transform="matrix(1, 0, 0, 1, 1335.1258, 2710.1045)" opacity="1"><g transform="scale(1)"><path d="M-1.0541,-3.6902 T1.6362,-4.6372 4.3265,-5.5842 A2.5901,2.5901 0 0 1 6.2535,-0.7758 T3.6538,0.3972 1.0541,1.5702 A2.8335,2.8335 0 0 1 -1.0541,-3.6902 Z" stroke-linecap="round" fill="#f76707"/></g></g><g transform="matrix(1, 0, 0, 1, 1333.0084, 2716.4568)" opacity="1"><g transform="scale(1)"><path d="M0,-2.2227 T1.7525,-2.271 6.0501,-2.2997 10.1226,-2.2472 11.65,-2.2143 A2.2143,2.2143 0 0 1 11.65,2.2143 T10.1226,2.2472 6.0501,2.2997 1.7525,2.271 0,2.2227 A2.2227,2.2227 0 0 1 0,-2.2227 Z" stroke-linecap="round" fill="#f76707"/></g></g><g transform="matrix(1, 0, 0, 1, 1363.7114, 2701.6346)" opacity="1"><g transform="scale(1)"><path d="M2.3438,-0.5214 T2.8506,1.7314 3.812,7.4707 4.3895,14.1193 4.55,19.198 4.5875,21.1145 A2.4682,2.4682 0 0 1 -0.3475,21.2255 T-0.3962,19.3092 -0.546,14.3836 -0.9995,8.2028 -1.8479,2.7763 -2.3438,0.5214 A2.4011,2.4011 0 0 1 2.3438,-0.5214 Z" stroke-linecap="round" fill="#f76707"/></g></g><g transform="matrix(1, 0, 0, 1, 1375.3574, 2702.6934)" opacity="1"><g transform="scale(1)"><path d="M3.6078,-0.2834 T3.8655,1.9735 3.9708,7.9934 3.2048,15.6184 2.5912,19.4803 A2.6251,2.6251 0 0 1 -2.5912,18.6397 T-2.0056,15.1088 -1.2102,8.1814 -1.2441,2.5342 -1.4878,0.2834 A2.5635,2.5635 0 0 1 3.6078,-0.2834 Z" stroke-linecap="round" fill="#f76707"/></g></g><g transform="matrix(1, 0, 0, 1, 1382.7685, 2696.341)" opacity="1"><g transform="scale(1)"><path d="M0.6316,2.8391 T-1.6188,3.3608 -6.4646,4.2089 -11.4174,4.7068 -16.0223,4.9822 -21.7261,5.1272 -28.461,5.1206 -31.7395,5.0727 A2.9528,2.9528 0 0 1 -31.7805,-0.8327 T-28.5232,-0.926 -21.872,-1.0961 -16.3131,-1.216 -11.9295,-1.3659 -7.4285,-1.675 -2.8889,-2.3581 -0.6316,-2.8391 A2.9085,2.9085 0 0 1 0.6316,2.8391 Z" stroke-linecap="round" fill="#f76707"/></g></g><g transform="matrix(1, 0, 0, 1, 1397.5907, 2681.5188)" opacity="1"><g transform="scale(1)"><path d="M-2.6621,-0.4844 T-2.1104,-3.2303 -1.302,-8.332 -1.1845,-12.7829 -1.6542,-17.7373 -3.8095,-22.2319 -5.6343,-23.867 A2.7346,2.7346 0 0 1 -2.1307,-28.0665 T-0.551,-26.6987 2.1343,-23.5933 3.5901,-18.4946 4.024,-12.638 3.836,-7.5937 3.1132,-2.2802 2.6621,0.4844 A2.7059,2.7059 0 0 1 -2.6621,-0.4844 ZM-2.3838,-23.6794 T-2.955,-23.3177 -4.2947,-20.8803 -5.36,-16.2514 -5.7777,-10.6771 -5.9638,-3.8936 -5.6902,3.9005 -5.0502,9.9253 -4.3449,13.9725 -3.3509,19.887 -2.5458,25.8943 -2.2145,30.1744 -2.0311,34.4336 -2.1814,38.5889 -2.8059,44.6862 -3.6231,50.8913 -4.9928,56.9225 -6.7963,62.6125 -9.7117,67.3514 -14.0919,72.0049 -19.3193,74.1934 -24.8113,73.4465 -29.3417,70.3163 -31.2986,68.4111 A2.383,2.383 0 0 1 -27.9814,64.9889 T-27.0622,65.8372 -23.9577,68.1343 -19.5682,68.863 -15.6763,66.6161 -12.4382,62.3177 -9.9116,55.7972 -8.2015,48.0964 -7.1015,40.4096 -6.7757,34.6066 -7.0752,28.5654 -7.9202,20.7629 -8.9393,14.7782 -9.7097,10.425 -10.1881,6.2233 -10.6114,0.0678 -10.883,-7.504 -10.7208,-14.0886 -9.9268,-20.0831 -7.9289,-25.1809 -5.9771,-27.8511 -5.3811,-28.2541 A2.7346,2.7346 0 0 1 -2.3838,-23.6794 Z" stroke-linecap="round" fill="#f76707"/></g></g><g transform="matrix(1, 0, 0, 1, 1388.0621, 2770.4519)" opacity="1"><g transform="scale(1)"><path d="M3.1473,2.0873 T1.8751,3.3163 -1.2904,6.9681 -3.5315,11.7864 -1.4154,15.0978 2.2426,14.3965 3.8389,9.8969 4.2473,3.2605 4.0935,-2.7739 3.9334,-5.0542 A2.4281,2.4281 0 0 1 8.7666,-5.5258 T9.0503,-3.2575 9.6047,1.2403 9.8137,5.5191 9.5742,9.5781 7.9829,15.066 3.7072,20.102 -1.6024,21.2611 -6.2974,19.0513 -9.0645,14.5252 -8.6883,9.025 -5.6401,3.3494 -2.2573,-0.8142 -1.0273,-2.0873 A2.9519,2.9519 0 0 1 3.1473,2.0873 Z" stroke-linecap="round" fill="#f76707"/></g></g><g transform="matrix(1, 0, 0, 1, 1400.7669, 2616.9365)" opacity="1"><g transform="scale(1)"><path d="M-2.2982,-1.7277 T-1.564,-2.7416 -0.8299,-3.7554 A2.92,2.92 0 0 1 3.8381,-0.2461 T3.0682,0.7408 2.2982,1.7277 A2.8751,2.8751 0 0 1 -2.2982,-1.7277 ZM1.4122,-4.9193 T2.3372,-4.9592 5.6945,-3.7325 9.441,0.2345 11.0062,5.2017 9.4874,10.1286 7.7174,12.7889 A3.0278,3.0278 0 0 1 3.4878,8.4552 T4.288,7.2345 4.2079,3.4492 2.4618,0.9012 1.596,0.9178 A2.92,2.92 0 0 1 1.4122,-4.9193 ZM7.0347,7.9543 T8.1643,8.5771 10.9916,10.7914 13.7476,14.3574 14.806,16.3318 A2.9796,2.9796 0 0 1 9.2871,18.5798 T7.9074,16.5511 5.3491,13.9061 4.1705,13.2897 A3.0278,3.0278 0 0 1 7.0347,7.9543 ZM14.0832,19.6307 T12.6767,20.8468 8.9549,22.4453 3.9035,22.8578 1.1673,22.888 A2.7701,2.7701 0 0 1 0.9527,17.352 T2.3473,17.2588 6.2277,16.9314 9.3617,15.9891 10.0099,15.281 A2.9796,2.9796 0 0 1 14.0832,19.6307 Z" stroke-linecap="round" fill="#f76707"/></g></g><g transform="matrix(1, 0, 0, 1, 1438.881, 2698.4585)" opacity="1"><g transform="scale(1)"><path d="M-2.4991,0 T-2.4851,-1.7291 -3.3458,-5.3264 -6.1618,-8.095 -8.6496,-6.3131 -9.2934,-0.3327 -8.5173,5.5981 -6.3192,9.7697 -3.1299,9.7224 -0.6159,6.0087 0.1046,2.4198 0.176,0.9584 A2.2855,2.2855 0 0 1 4.6672,0.1083 T4.8212,1.1962 4.3634,4.9241 2.632,10.2039 -0.7028,14.5545 -5.8109,15.4868 -10.4827,12.4877 -13.3413,6.7699 -14.2414,-0.7917 -12.666,-8.6167 -8.0099,-12.9015 -2.2972,-11.4736 1.3132,-6.5366 2.4851,-1.7758 2.4991,0 A2.4991,2.4991 0 0 1 -2.4991,0 ZM4.5638,1.3297 T4.1119,2.4525 3.788,6.1505 4.3622,12.5522 5.2358,18.3741 6.15,22.4178 7.1803,26.7802 7.7238,29.0941 A2.4942,2.4942 0 0 1 2.8562,30.1859 T2.3594,27.8615 1.4155,23.4227 0.5755,19.2007 -0.2004,13.185 -0.6834,6.0295 -0.2522,1.2595 0.2794,-0.2631 A2.2855,2.2855 0 0 1 4.5638,1.3297 Z" stroke-linecap="round" fill="#f76707"/></g></g><g transform="matrix(1, 0, 0, 1, 1466.4079, 2705.8695)" opacity="1"><g transform="scale(1)"><path d="M2.2026,0.49 T1.7462,2.7561 0.5063,7.1513 -1.5111,11.285 -4.633,16.2527 -8.8345,21.1088 -11.148,23.0017 A2.4008,2.4008 0 0 1 -14.252,19.3383 T-13.1582,18.3661 -10.4316,15.7686 -7.8647,12.3558 -5.113,7.2807 -2.749,1.7516 -2.2026,-0.49 A2.2564,2.2564 0 0 1 2.2026,0.49 Z" stroke-linecap="round" fill="#f76707"/></g></g><g transform="matrix(1, 0, 0, 1, 1455.8206, 2707.987)" opacity="1"><g transform="scale(1)"><path d="M1.9369,-1.1057 T2.9612,0.6331 5.8597,5.3966 9.3241,10.5712 12.1161,14.0293 13.3179,15.3376 A2.3129,2.3129 0 0 1 9.9821,18.5424 T7.401,15.9115 3.4365,10.6838 1.0346,6.3624 -0.9604,2.8718 -1.9369,1.1057 A2.2303,2.2303 0 0 1 1.9369,-1.1057 Z" stroke-linecap="round" fill="#f76707"/></g></g><g transform="matrix(1, 0, 0, 1, 1465.3492, 2678.3427)" opacity="1"><g transform="scale(1)"><path d="M0.3616,-2.8894 T2.3637,-2.6069 7.3228,-0.3988 10.8466,4.0913 10.6242,9.0916 7.3647,13.8665 4.8945,16.2055 A2.8104,2.8104 0 0 1 1.6979,11.5823 T3.7486,9.84 4.7231,5.7125 1.6426,3.1083 -0.3616,2.8894 A2.912,2.912 0 0 1 0.3616,-2.8894 ZM6.1017,14.058 T6.0796,14.528 6.0575,14.998 A2.8211,2.8211 0 0 1 0.425,14.6686 T0.4578,14.1992 0.4906,13.7298 A2.8104,2.8104 0 0 1 6.1017,14.058 ZM3.9282,12.0972 T4.9166,12.33 8.956,12.7778 13.4522,13.0547 14.8972,13.1166 A2.7644,2.7644 0 0 1 14.7428,18.6434 T11.9443,18.6076 6.8334,18.3329 3.5377,17.8317 2.5542,17.5694 A2.8211,2.8211 0 0 1 3.9282,12.0972 Z" stroke-linecap="round" fill="#f76707"/></g></g><g transform="matrix(1, 0, 0, 1, 1500.2872, 2719.633)" opacity="1"><g transform="scale(1)"><path d="M-2.4416,-0.5431 T-1.9148,-2.7854 -1.6312,-8.0303 -3.6303,-13.2792 -6.4999,-12.7813 -7.7691,-7.1987 -7.3634,-1.5832 -5.5472,2.884 -1.758,3.7444 2.4771,-0.1837 4.541,-5.2328 5.1364,-9.4804 5.5143,-14.0002 5.5013,-18.2559 4.997,-23.8607 3.8884,-29.5683 2.712,-32.3547 2.2982,-33.0054 A2.3486,2.3486 0 0 1 6.2648,-35.5211 T6.8396,-34.613 8.4053,-30.9782 9.8507,-24.4793 10.5184,-18.3314 10.6308,-13.6184 10.2953,-8.7219 9.537,-3.6461 8.0617,0.942 5.8396,4.824 2.8823,8.1236 -0.7601,10.0153 -5.3739,9.2732 -9.8994,5.2603 -12.372,-1.0804 -12.7714,-7.7024 -11.8243,-13.6617 -9.1668,-18.457 -4.5485,-19.7196 0.11,-16.7121 2.769,-11.3995 3.4325,-6.1794 2.9176,-1.7222 2.4416,0.5431 A2.5012,2.5012 0 0 1 -2.4416,-0.5431 ZM5.0533,-32.0451 T4.7916,-31.9578 4.5299,-31.8705 A2.3415,2.3415 0 0 1 2.991,-36.2935 T3.2504,-36.3874 3.5097,-36.4814 A2.3486,2.3486 0 0 1 5.0533,-32.0451 ZM6.0869,-33.8168 T5.87,-32.049 5.9858,-26.5862 6.8751,-20.7213 8.0035,-16.3108 9.1611,-11.3401 10.3058,-6.2213 11.6127,-1.6996 13.6954,3.999 15.0302,7.5645 A2.4999,2.4999 0 0 1 10.3698,9.3755 T8.9098,5.7494 6.6318,-0.2953 5.3041,-5.1663 4.3035,-10.2683 3.2932,-15.1869 2.2108,-20.0459 1.3386,-26.5815 1.2317,-32.4371 1.434,-34.3472 A2.3415,2.3415 0 0 1 6.0869,-33.8168 Z" stroke-linecap="round" fill="#f76707"/></g></g><g transform="matrix(1, 0, 0, 1, 1540.5188, 2700.5759)" opacity="1"><g transform="scale(1)"><path d="M1.5949,1.3668 T0.1169,3.1393 -4.0668,9.2125 -8.5744,15.8966 -12.3097,20.8516 -14.243,23.4233 A2.0258,2.0258 0 0 1 -17.517,21.0367 T-15.6603,18.4092 -12.204,13.4986 -7.6251,6.6568 -3.1204,0.3657 -1.5949,-1.3668 A2.1005,2.1005 0 0 1 1.5949,1.3668 Z" stroke-linecap="round" fill="#f76707"/></g></g><g transform="matrix(1, 0, 0, 1, 1525.6966, 2710.1045)" opacity="1"><g transform="scale(1)"><path d="M1.7394,-1.4905 T3.2469,0.2571 6.0924,3.7204 9.638,8.5744 13.2334,13.6379 14.621,15.563 A2.3635,2.3635 0 0 1 10.779,18.317 T9.4015,16.3846 5.8861,11.3643 2.5004,6.6407 -0.2434,3.2479 -1.7394,1.4905 A2.2906,2.2906 0 0 1 1.7394,-1.4905 Z" stroke-linecap="round" fill="#f76707"/></g></g><g transform="matrix(1, 0, 0, 1, 1321.3624, 2841.3865)" opacity="1"><g transform="scale(1)"><path d="M1.3975,-2.359 T3.156,-2.151 7.7182,-1.4531 11.9043,-0.5665 13.2868,-0.17 A2.3639,2.3639 0 0 1 12.1132,4.41 T10.7104,4.0927 6.7615,3.3607 2.469,2.6524 0.7225,2.359 A2.383,2.383 0 0 1 1.3975,-2.359 Z" stroke-linecap="round" fill="#f76707"/></g></g><g transform="matrix(1, 0, 0, 1, 1323.4798, 2853.0325)" opacity="1"><g transform="scale(1)"><path d="M0.4969,-1.9853 T2.5105,-1.5556 8.0949,-1.0802 11.6657,-1.0345 A2.0945,2.0945 0 0 1 11.6343,3.1545 T9.62,3.1632 5.5471,3.1517 1.4958,2.5584 -0.4969,1.9853 A2.0466,2.0466 0 0 1 0.4969,-1.9853 Z" stroke-linecap="round" fill="#f76707"/></g></g><g transform="matrix(1, 0, 0, 1, 1360.5352, 2842.4453)" opacity="1"><g transform="scale(1)"><path d="M3.692,0 T3.7209,2.5045 3.7796,7.3294 3.8413,13.4164 3.5705,19.3025 2.9506,23.5855 2.6334,25.7492 A2.6552,2.6552 0 0 1 -2.6334,25.0708 T-2.1934,21.1241 -1.7213,13.4135 -1.6596,7.3294 -1.6009,2.5045 -1.572,0 A2.632,2.632 0 0 1 3.692,0 Z" stroke-linecap="round" fill="#f76707"/></g></g><g transform="matrix(1, 0, 0, 1, 1373.24, 2841.3865)" opacity="1"><g transform="scale(1)"><path d="M2.1645,-0.7226 T2.6747,0.7783 3.6797,5.6428 4.069,12.4326 3.6748,19.6453 3.3859,23.4317 A2.3302,2.3302 0 0 1 -1.2659,23.1483 T-1.0824,19.1783 -0.7269,12.3179 -0.8672,6.5776 -1.672,2.2252 -2.1645,0.7226 A2.2819,2.2819 0 0 1 2.1645,-0.7226 Z" stroke-linecap="round" fill="#f76707"/></g></g><g transform="matrix(1, 0, 0, 1, 1380.6511, 2840.3278)" opacity="1"><g transform="scale(1)"><path d="M-1.06,2.3446 T-3.3138,2.3946 -9.2783,2.5023 -16.5074,2.2954 -23.3457,1.6808 -26.6655,1.3307 A2.3987,2.3987 0 0 1 -26.2745,-3.4507 T-22.7632,-3.2422 -16.1204,-2.7968 -9.2783,-2.5023 -3.3138,-2.3946 -1.06,-2.3446 A2.3446,2.3446 0 0 1 -1.06,2.3446 Z" stroke-linecap="round" fill="#f76707"/></g></g><g transform="matrix(1, 0, 0, 1, 1401.8256, 2829.7406)" opacity="1"><g transform="scale(1)"><path d="M-1.3403,-3.1231 T0.4394,-3.8797 4.4375,-4.9061 8.6433,-4.6945 13.257,-2.1237 16.8197,3.1622 17.2272,9.0216 14.5804,13.8975 11.3292,16.7593 10.1961,17.4084 A3.1111,3.1111 0 0 1 6.7439,12.2316 T8.8396,9.8474 10.4424,5.2254 7.3703,2.3079 3.0656,2.3756 1.3403,3.1231 A3.3985,3.3985 0 0 1 -1.3403,-3.1231 Z" stroke-linecap="round" fill="#f76707"/></g></g><g transform="matrix(1, 0, 0, 1, 1410.2954, 2830.7993)" opacity="1"><g transform="scale(1)"><path d="M-1.8655,2.333 T-3.1071,1.3246 -6.4405,0.8241 -9.5257,3.5552 -9.7191,7.934 -6.7215,11.1828 -2.4837,11.9952 1.0891,9.0909 2.8332,4.1886 2.5731,1.0463 2.1013,0.1828 A3.1654,3.1654 0 0 1 7.9907,-2.1399 T8.6897,-0.035 9.1906,4.5168 7.8208,10.0443 5.227,14.7638 1.1697,17.5968 -3.8868,18.4501 -8.707,16.9621 -13.1308,13.8222 -15.8332,9.4793 -16.2044,4.8026 -14.8422,0.5841 -12.1902,-2.8789 -8.42,-5.2525 -3.4509,-5.1864 0.6049,-3.3254 1.8655,-2.333 A2.9872,2.9872 0 0 1 -1.8655,2.333 ZM7.5318,0.9812 T7.0852,1.3969 6.8909,3.8802 7.4969,8.4895 8.3921,14.032 9.2876,20.1543 9.6556,26.9411 9.6698,30.6063 A3.3211,3.3211 0 0 1 3.0302,30.7937 T2.9324,28.902 2.6803,24.1271 2.0975,18.1105 1.3026,11.9575 0.8424,6.8998 0.7532,2.2555 1.6591,-1.6445 2.5602,-2.9383 A3.1654,3.1654 0 0 1 7.5318,0.9812 Z" stroke-linecap="round" fill="#f76707"/></g></g><g transform="matrix(1, 0, 0, 1, 1440.9985, 2831.858)" opacity="1"><g transform="scale(1)"><path d="M2.4865,1.1037 T1.4864,3.3576 -0.2613,7.5085 -2.256,12.6395 -4.6142,18.7063 -7.6216,23.8479 -9.5178,26.1566 A2.7947,2.7947 0 0 1 -13.7822,22.5434 T-12.3347,20.9059 -9.7677,16.498 -7.3762,10.5437 -5.2961,5.3818 -3.4872,1.1501 -2.4865,-1.1037 A2.7204,2.7204 0 0 1 2.4865,1.1037 Z" stroke-linecap="round" fill="#f76707"/></g></g><g transform="matrix(1, 0, 0, 1, 1430.4112, 2836.0929)" opacity="1"><g transform="scale(1)"><path d="M2.6944,-0.7709 T3.1767,0.9877 4.3067,5.391 5.9093,10.4903 7.866,15.168 10.2773,18.8238 12.6844,21.331 13.682,22.4054 A2.8125,2.8125 0 0 1 9.618,26.2946 T8.5884,25.2508 5.5994,22.0337 2.5863,17.361 0.6002,12.2722 -0.9929,6.9733 -2.1739,2.5172 -2.6944,0.7709 A2.8025,2.8025 0 0 1 2.6944,-0.7709 Z" stroke-linecap="round" fill="#f76707"/></g></g><g transform="matrix(1, 0, 0, 1, 1440.9985, 2804.3311)" opacity="1"><g transform="scale(1)"><path d="M0,-2.9514 T1.2652,-2.9537 4.8772,-2.1514 9.0897,1.1337 10.8272,5.9585 9.3795,9.6073 8.0599,10.9118 A3.0496,3.0496 0 0 1 4.7432,5.7934 T5.1189,6.0008 3.9843,4.5821 1.237,2.9537 0,2.9514 A2.9514,2.9514 0 0 1 0,-2.9514 ZM9.1938,9.5787 T9.1811,9.6063 9.1684,9.6338 A3.0485,3.0485 0 0 1 3.5859,7.1824 T3.5976,7.1544 3.6093,7.1265 A3.0496,3.0496 0 0 1 9.1938,9.5787 ZM7.6588,5.6421 T8.2364,5.9626 11.1386,7.8458 14.7284,11.7899 15.0306,16.9042 11.9819,21.0651 6.9137,23.3052 0.7741,24.9844 -2.3827,25.8513 A2.6826,2.6826 0 0 1 -3.9773,20.7287 T-2.3321,20.1594 2.2816,18.6223 7.7582,16.6844 8.852,13.9341 6.2666,11.664 5.0955,11.1741 A3.0485,3.0485 0 0 1 7.6588,5.6421 Z" stroke-linecap="round" fill="#f76707"/></g></g><g transform="matrix(1, 0, 0, 1, 1447.3508, 2876.3245)" opacity="1"><g transform="scale(1)"><path d="M0,2.9081 T-2.7552,2.907 -7.9628,2.919 -12.9587,2.9618 -18.0961,3.0295 -23.0574,3.09 -27.423,3.1127 -32.7054,3.6586 -38.3529,4.9966 -42.0778,6.2859 -43.4392,6.7828 A2.7531,2.7531 0 0 1 -45.5008,1.6772 T-42.9098,0.5278 -37.1145,-1.5976 -31.6685,-2.8433 -27.4258,-3.1127 -23.0574,-3.09 -18.0961,-3.0295 -12.9587,-2.9618 -7.9628,-2.919 -2.7552,-2.907 0,-2.9081 A2.9081,2.9081 0 0 1 0,2.9081 Z" stroke-linecap="round" fill="#f76707"/></g></g><g transform="matrix(1, 0, 0, 1, 1417.7065, 2890.088)" opacity="1"><g transform="scale(1)"><path d="M1.5661,-2.089 T3.5594,-0.574 7.9993,3.1989 11.2314,7.986 10.2913,12.5963 6.8165,15.4743 5.0672,16.2712 A2.7108,2.7108 0 0 1 2.4062,11.5474 T4.4774,10.2343 4.5043,6.9936 0.4469,3.5775 -1.5661,2.089 A2.6109,2.6109 0 0 1 1.5661,-2.089 ZM6.1203,12.6182 T6.2354,12.8344 6.3506,13.0506 A2.7074,2.7074 0 0 1 1.5895,15.6295 T1.4713,15.415 1.3531,15.2004 A2.7108,2.7108 0 0 1 6.1203,12.6182 ZM4.7754,11.7553 T6.2158,12.2187 10.4975,13.701 15.2902,16.7867 17.1385,21.8215 15.0799,26.6509 10.2774,29.1654 4.2485,29.237 -0.3249,28.2572 -1.7164,27.8588 A2.5353,2.5353 0 0 1 -0.4036,22.9612 T2.0715,23.5885 6.7158,24.2261 10.8112,23.2725 11.1864,20.5093 7.6812,18.202 4.446,17.3095 3.1647,16.9249 A2.7074,2.7074 0 0 1 4.7754,11.7553 Z" stroke-linecap="round" fill="#f76707"/></g></g><g transform="matrix(1, 0, 0, 1, 1473.819, 2790.5677)" opacity="1"><g transform="scale(1)"><path d="M2.3914,0.3421 T2.137,2.0938 1.7107,8.1523 1.5202,15.2695 1.5099,21.3144 1.5401,28.257 1.586,36.1733 1.8827,44.5224 2.3197,53.1811 2.5701,62.0805 2.9586,70.6925 3.4335,78.9836 3.4487,87.0336 3.2181,94.5378 2.8532,101.5168 2.4149,107.7112 1.9288,113.0217 1.1548,117.9752 0.0767,123.5646 -1.6132,129.501 -2.6592,132.2216 A2.7942,2.7942 0 0 1 -7.9208,130.3384 T-7.0896,127.8141 -5.7192,122.2728 -4.7614,117.0271 -4.0154,112.4508 -3.5203,107.2804 -3.0479,101.18 -2.6363,94.334 -2.3446,87.0127 -2.29,79.2807 -2.6915,70.9264 -3.0146,62.206 -3.1631,53.4209 -3.4831,44.6782 -3.6713,36.1631 -3.5943,28.2347 -3.505,21.2671 -3.4032,15.1697 -3.2623,9.7581 -3.0309,5.1783 -2.6384,1.4111 -2.3914,-0.3421 A2.4157,2.4157 0 0 1 2.3914,0.3421 Z" stroke-linecap="round" fill="#f76707"/></g></g><g transform="matrix(1, 0, 0, 1, 1483.3475, 2945.1418)" opacity="1"><g transform="scale(1)"><path d="M1.4507,2.5412 T-0.292,3.5165 -3.2413,6.5164 -4.8273,11.7518 -4.131,16.7601 -0.5709,18.5597 3.4016,16.6191 5.5325,10.866 5.8807,4.9037 5.0122,0.0407 3.7449,-5.8242 3.0517,-8.9779 A2.3054,2.3054 0 0 1 7.5283,-10.0821 T8.3812,-6.9679 10.0477,-0.9392 11.2972,4.7989 11.4981,10.1562 10.6432,15.1707 8.7787,19.607 5.8261,22.8671 -0.0481,24.2843 -5.9125,23.3143 -8.8284,20.4296 -10.5067,16.6004 -10.7709,12.4819 -10.1543,8.3364 -8.8687,4.4696 -6.4892,1.0831 -3.2129,-1.5157 -1.4507,-2.5412 A2.9261,2.9261 0 0 1 1.4507,2.5412 Z" stroke-linecap="round" fill="#f76707"/></g></g><g transform="matrix(1, 0, 0, 1, 1498.1697, 2770.4519)" opacity="1"><g transform="scale(1)"><path d="M1.3935,-3.4954 T3.1602,-2.5063 7.1161,1.3554 8.4738,7.0228 6.1583,11.4407 4.6742,13.0638 A2.8238,2.8238 0 0 1 0.0015,9.8918 T1.0422,6.65 0.3447,2.3918 -1.3935,1.3754 A2.8059,2.8059 0 0 1 1.3935,-3.4954 ZM4.0962,9.2682 T5.3349,10.2634 8.3767,13.248 10.1797,15.2373 A2.83,2.83 0 0 1 5.673,18.6615 T4.2569,17.0648 1.7102,14.5777 0.5795,13.6874 A2.8238,2.8238 0 0 1 4.0962,9.2682 ZM10.4605,18.2093 T10.0871,18.9589 9.7137,19.7084 A2.8287,2.8287 0 0 1 4.6478,17.1898 T5.02,16.4396 5.3923,15.6895 A2.83,2.83 0 0 1 10.4605,18.2093 ZM7.9257,21.1779 T6.4704,21.5505 1.6195,22.2725 -1.7761,22.622 A2.5255,2.5255 0 0 1 -2.4639,17.618 T0.5461,17.0869 4.996,16.138 6.4358,15.7203 A2.8287,2.8287 0 0 1 7.9257,21.1779 Z" stroke-linecap="round" fill="#f76707"/></g></g><g transform="matrix(1, 0, 0, 1, 1303.364, 3013.959)" opacity="1"><g transform="scale(1)"><path d="M0.3509,-2.8041 T2.3575,-2.5823 8.6252,-2.0994 12.8862,-1.8382 A2.9041,2.9041 0 0 1 12.5138,3.9582 T10.2233,3.8062 5.7906,3.5088 1.6488,3.0837 -0.3509,2.8041 A2.826,2.826 0 0 1 0.3509,-2.8041 Z" stroke-linecap="round" fill="#f76707"/></g></g><g transform="matrix(1, 0, 0, 1, 1304.4227, 3028.7812)" opacity="1"><g transform="scale(1)"><path d="M0.3617,-2.8901 T2.3675,-2.7094 7.256,-2.7302 11.8883,-3.0013 13.6378,-3.0709 A3.0733,3.0733 0 0 1 13.8822,3.0709 T12.1327,3.1405 7.0113,3.3708 1.6388,3.2108 -0.3617,2.8901 A2.9126,2.9126 0 0 1 0.3617,-2.8901 Z" stroke-linecap="round" fill="#f76707"/></g></g><g transform="matrix(1, 0, 0, 1, 1418.7652, 2827.6231)" opacity="1"><g transform="scale(1)"><path d="M1.9364,1.0428 T0.2207,4.3168 -3.1661,10.5879 -6.203,16.1327 -8.806,21.0139 -11.2082,25.571 -13.6708,30.2829 -14.9685,32.7712 A2.2157,2.2157 0 0 1 -18.9115,30.7488 T-17.6479,28.2431 -15.2502,23.4786 -12.8941,18.8446 -10.2735,13.8875 -7.195,8.3659 -3.7256,2.1917 -1.9364,-1.0428 A2.1993,2.1993 0 0 1 1.9364,1.0428 Z" stroke-linecap="round" fill="#f76707"/></g></g><g transform="matrix(1, 0, 0, 1, 1426.1763, 2890.088)" opacity="1"><g transform="scale(1)"><path d="M1.8804,1.164 T-1.3081,6.462 -7.4715,16.3165 -13.7462,25.9173 -17.0459,30.9618 A2.4091,2.4091 0 0 1 -21.0741,28.3182 T-17.7592,23.2837 -11.4823,13.7593 -5.2004,4.0528 -1.8804,-1.164 A2.2115,2.2115 0 0 1 1.8804,1.164 Z" stroke-linecap="round" fill="#f76707"/></g></g><g transform="matrix(1, 0, 0, 1, 1416.6478, 2799.0375)" opacity="1"><g transform="scale(1)"><path d="M1.2441,-4.1643 T2.4921,-3.6499 6.0018,-0.7535 8.4445,4.8157 8.6255,8.0028 A3.2319,3.2319 0 0 1 2.2305,7.0618 T1.7474,5.0414 0.0101,2.5327 -1.2441,2.0443 A3.3443,3.3443 0 0 1 1.2441,-4.1643 ZM7.1106,4.7729 T8.1894,5.4512 10.634,8.6851 10.932,13.8229 7.3098,17.5565 2.4505,19.0711 -3.2054,19.1759 -6.5564,18.9175 A3.0445,3.0445 0 0 1 -6.1436,12.8425 T-4.633,12.8893 -0.8677,12.6571 3.4204,11.8352 4.5995,10.792 3.7454,10.2917 A3.2319,3.2319 0 0 1 7.1106,4.7729 Z" stroke-linecap="round" fill="#f76707"/></g></g><g transform="matrix(1, 0, 0, 1, 1353.1242, 3012.9003)" opacity="1"><g transform="scale(1)"><path d="M2.4702,-0.2748 T2.7571,1.9783 2.9631,6.3871 2.8454,11.9525 2.3669,18.5627 1.7236,23.6918 1.522,25.6203 A2.5906,2.5906 0 0 1 -3.642,25.1997 T-3.4135,21.3766 -2.8615,14.6941 -2.2896,8.3093 -2.2557,2.5294 -2.4702,0.2748 A2.4854,2.4854 0 0 1 2.4702,-0.2748 Z" stroke-linecap="round" fill="#f76707"/></g></g><g transform="matrix(1, 0, 0, 1, 1366.8876, 3011.8415)" opacity="1"><g transform="scale(1)"><path d="M2.6108,-0.2179 T2.8578,2.7874 2.9967,8.5457 2.8414,13.6367 2.7709,17.9614 2.1798,23.4395 1.612,26.9309 A2.7115,2.7115 0 0 1 -3.732,26.0091 T-3.1665,22.9297 -2.5583,17.8422 -2.438,13.4461 -2.2311,8.6398 -2.3564,3.2197 -2.6108,0.2179 A2.6199,2.6199 0 0 1 2.6108,-0.2179 Z" stroke-linecap="round" fill="#f76707"/></g></g><g transform="matrix(1, 0, 0, 1, 1379.5923, 3003.3717)" opacity="1"><g transform="scale(1)"><path d="M0.7892,3.153 T-1.2215,3.6245 -5.2858,4.6195 -9.7133,5.698 -14.7386,6.5994 -21.0525,7.8046 -27.0293,9.6688 -30.7854,11.4872 -32.2273,12.3 A3.2256,3.2256 0 0 1 -35.5327,6.76 T-34.1326,5.8772 -29.5585,3.4931 -24.4544,1.5179 -20.3249,0.6688 -15.8116,0.0923 -11.1975,-0.5935 -6.839,-1.5842 -2.7849,-2.6217 -0.7892,-3.153 A3.2503,3.2503 0 0 1 0.7892,3.153 Z" stroke-linecap="round" fill="#f76707"/></g></g><g transform="matrix(1, 0, 0, 1, 1394.4145, 3020.3113)" opacity="1"><g transform="scale(1)"><path d="M0,-2.8433 T2.2575,-2.8526 7.6376,-1.6593 12.1881,1.549 13.2764,6.262 11.3882,10.8065 9.2532,13.1613 8.6668,13.6789 A2.9772,2.9772 0 0 1 4.7059,9.233 T6.4446,7.1211 6.3419,3.9356 2.2502,2.8526 0,2.8433 A2.8433,2.8433 0 0 1 0,-2.8433 ZM9.3778,10.1832 T9.79,11.1114 11.5287,13.9305 13.8581,17.7361 14.3287,22.0034 11.4946,25.896 6.5367,27.4613 1.4267,26.0958 -1.8802,23.9129 -2.7334,23.1207 A2.5701,2.5701 0 0 1 0.6134,19.2193 T2.7138,20.5886 6.5102,20.6503 6.7124,17.273 4.6067,13.966 3.9949,12.7287 A2.9772,2.9772 0 0 1 9.3778,10.1832 Z" stroke-linecap="round" fill="#f76707"/></g></g><g transform="matrix(1, 0, 0, 1, 1417.7065, 3033.0161)" opacity="1"><g transform="scale(1)"><path d="M 1.06 1.06 m -3.663919189857866, 0 a 3.663919189857866,3.663919189857866 0 1,1 7.327838379715732,0 a 3.663919189857866,3.663919189857866 0 1,1 -7.327838379715732,0" stroke-linecap="round" fill="#f76707"/></g></g><g transform="matrix(1, 0, 0, 1, 1434.6461, 3019.2526)" opacity="1"><g transform="scale(1)"><path d="M-0.879,-1.5728 T0.6147,-2.0992 4.7632,-3.1296 9.8549,-3.0051 13.9992,-0.5005 15.4258,4.3285 12.6808,9.4413 9.3815,11.8742 8.5465,12.147 A2.9565,2.9565 0 0 1 6.6887,6.5335 T7.5937,6.3708 8.2307,4.171 5.9307,2.4371 2.3888,3.2165 0.879,3.6928 A2.7756,2.7756 0 0 1 -0.879,-1.5728 ZM8.7635,6.6149 T9.4625,6.9201 11.9647,8.2316 15.8372,11.7728 17.4731,16.9898 15.1936,21.6061 10.3348,24.5463 4.3576,25.0967 0.2079,24.1121 -0.9773,23.5832 A2.6036,2.6036 0 0 1 0.9773,18.7568 T2.6972,19.515 6.9525,19.7965 10.5588,17.1247 9.7577,13.7835 7.1787,12.3515 6.4717,12.0656 A2.9565,2.9565 0 0 1 8.7635,6.6149 Z" stroke-linecap="round" fill="#f76707"/></g></g><g transform="matrix(1, 0, 0, 1, 1448.4096, 2988.5495)" opacity="1"><g transform="scale(1)"><path d="M0,-3.0501 T1.5671,-3.0338 6.1388,-0.9406 9.8327,4.1058 9.7442,8.5517 8.9664,10.0284 A3.1291,3.1291 0 0 1 3.8292,6.4542 T3.3511,4.7359 1.4365,3.0338 0,3.0501 A3.0501,3.0501 0 0 1 0,-3.0501 ZM6.6946,5.1263 T7.5256,5.222 10.2712,6.2524 13.7577,9.2356 14.8089,14.5866 12.1519,19.6254 7.3162,22.1998 1.6294,23.5635 -3.0034,24.4419 -4.6488,24.7948 A2.6437,2.6437 0 0 1 -5.9312,19.6652 T-4.3134,19.2023 -0.0419,18.0947 4.6525,16.8223 7.3,13.8449 7.0039,11.4258 6.101,11.3563 A3.1291,3.1291 0 0 1 6.6946,5.1263 Z" stroke-linecap="round" fill="#f76707"/></g></g><g transform="matrix(1, 0, 0, 1, 1480.1713, 3026.6637)" opacity="1"><g transform="scale(1)"><path d="M0,-2.8698 T1.5115,-2.9296 5.2987,-2.6458 9.7856,-2.197 13.4507,-2.0239 14.9048,-1.9561 A3.0173,3.0173 0 0 1 14.7352,4.0761 T11.9143,4.0498 6.0387,3.5065 1.4921,2.9296 0,2.8698 A2.8698,2.8698 0 0 1 0,-2.8698 Z" stroke-linecap="round" fill="#f76707"/></g></g><g transform="matrix(1, 0, 0, 1, 1535.2251, 3019.2526)" opacity="1"><g transform="scale(1)"><path d="M-2.6539,0 T-2.6222,-2.23 -4.0472,-6.3185 -7.3073,-6.3758 -10.0489,-2.5911 -11.7472,1.8739 -12.9099,7.0686 -13.271,12.3459 -12.5184,16.9939 -9.516,21.3547 -4.3641,23.5425 1.2085,19.443 4.9581,12.4361 6.3556,6.3299 6.4802,-0.0763 5.2656,-6.1778 3.1063,-10.9316 0.4607,-15.318 -1.0048,-17.7559 A2.4421,2.4421 0 0 1 3.1248,-20.3641 T4.6964,-17.9931 7.8138,-13.2546 10.7078,-7.405 12.4312,-0.0371 12.4225,7.7078 10.7128,15.1434 7.313,21.9628 2.6426,27.2183 -2.9433,29.5952 -8.2301,29.077 -12.4567,26.6212 -15.686,22.8877 -17.7976,17.8689 -18.6031,12.0003 -18.1153,5.8755 -16.7158,-0.1184 -14.5035,-5.4854 -11.7005,-9.635 -8.3076,-12.192 -3.4694,-12.0535 1.0375,-7.7874 2.6222,-2.2777 2.6539,0 A2.6539,2.6539 0 0 1 -2.6539,0 Z" stroke-linecap="round" fill="#f76707"/></g></g><g transform="matrix(1, 0, 0, 1, 1320.3036, 3107.1269)" opacity="1"><g transform="scale(1)"><path d="M1.2566,2.5093 T-0.2227,3.3138 -4.5617,4.9278 -10.6091,5.8616 -15.8546,5.9738 -17.9125,5.9617 A2.783,2.783 0 0 1 -18.0875,0.3983 T-16.0344,0.2569 -11.2345,-0.0963 -6.3964,-0.7091 -2.7809,-1.8097 -1.2566,-2.5093 A2.8064,2.8064 0 0 1 1.2566,2.5093 Z" stroke-linecap="round" fill="#f76707"/></g></g><g transform="matrix(1, 0, 0, 1, 1316.0687, 3125.1253)" opacity="1"><g transform="scale(1)"><path d="M0.5257,2.6236 T-0.7158,2.9244 -5.5441,3.8938 -10.7547,4.7273 -12.3783,4.8922 A2.7908,2.7908 0 0 1 -13.0217,-0.6522 T-10.2777,-0.9777 -5.2904,-1.7628 -1.7864,-2.423 -0.5257,-2.6236 A2.6758,2.6758 0 0 1 0.5257,2.6236 Z" stroke-linecap="round" fill="#f76707"/></g></g><g transform="matrix(1, 0, 0, 1, 1362.6527, 3103.9507)" opacity="1"><g transform="scale(1)"><path d="M-2.387,1.4349 T-3.1281,0.1873 -5.0491,0.568 -5.5927,4.1672 -2.7288,8.1632 1.1053,11.7223 3.9374,15.6566 5.2536,20.7932 4.445,25.8563 1.7529,30.3941 -2.1189,34.1505 -6.7434,35.8526 -11.598,33.7013 -14.5881,29.0478 -14.6843,24.1354 -12.6361,19.5024 -9.3337,15.5901 -4.9894,11.6547 -0.7083,7.7678 1.3174,4.3344 1.5671,2.6982 A2.7061,2.7061 0 0 1 6.8929,3.6618 T6.7339,4.8454 5.1821,8.9672 1.4412,14.0901 -3.0054,18.1407 -6.8352,22.0358 -8.6391,26.2103 -6.6007,28.4942 -2.733,26.4625 -0.62,22.0587 -1.4181,17.6692 -4.038,14.0838 -7.0752,11.3865 -10.0761,8.0329 -11.4536,3.1274 -10.236,-2.1529 -5.9692,-5.7933 -1.0037,-5.4583 1.624,-2.6895 2.387,-1.4349 A2.7851,2.7851 0 0 1 -2.387,1.4349 Z" stroke-linecap="round" fill="#f76707"/></g></g><g transform="matrix(1, 0, 0, 1, 1382.7685, 3106.0682)" opacity="1"><g transform="scale(1)"><path d="M3.0126,-0.2321 T3.2466,3.0235 3.6285,8.7802 3.864,13.3625 3.7646,19.0342 3.1232,25.5769 2.315,29.9798 1.9615,31.4305 A3.1086,3.1086 0 0 1 -4.0815,29.9695 T-3.7332,28.5175 -2.9658,24.3627 -2.3443,18.6551 -2.1935,13.6271 -2.3615,9.1709 -2.7452,3.485 -3.0126,0.2321 A3.0215,3.0215 0 0 1 3.0126,-0.2321 Z" stroke-linecap="round" fill="#f76707"/></g></g><g transform="matrix(1, 0, 0, 1, 1410.2954, 3113.4793)" opacity="1"><g transform="scale(1)"><path d="M3.4248,0 T3.4021,2.0032 3.3973,7.2657 3.4507,13.3432 3.7237,18.925 4.242,23.2371 4.5229,24.7854 A3.5188,3.5188 0 0 1 -2.4029,26.0346 T-2.6806,24.4857 -3.2223,19.549 -3.4507,13.3432 -3.3973,7.2657 -3.4021,2.0032 -3.4248,0 A3.4248,3.4248 0 0 1 3.4248,0 Z" stroke-linecap="round" fill="#f76707"/></g></g><g transform="matrix(1, 0, 0, 1, 1425.1176, 3115.5967)" opacity="1"><g transform="scale(1)"><path d="M4.0504,0 T4.0919,2.5045 4.1639,7.0787 4.2042,11.2446 3.7993,16.666 3.2056,21.7658 3.0266,23.5406 A3.037,3.037 0 0 1 -3.0266,23.0394 T-2.9112,21.2593 -2.4449,16.4042 -2.0842,11.2388 -2.0439,7.0787 -1.9719,2.5045 -1.9304,0 A2.9904,2.9904 0 0 1 4.0504,0 Z" stroke-linecap="round" fill="#f76707"/></g></g><g transform="matrix(1, 0, 0, 1, 1438.881, 3107.1269)" opacity="1"><g transform="scale(1)"><path d="M0.3227,3.2237 T-2.1847,3.4473 -7.3385,3.8343 -12.8836,4.1116 -18.1365,4.5536 -22.7086,5.3105 -28.5121,6.6876 -34.8311,9.0455 -37.5646,10.4552 A3.4425,3.4425 0 0 1 -40.7754,4.3648 T-39.1821,3.4868 -33.9372,1.1712 -28.2048,-0.719 -23.6975,-1.547 -18.6087,-2.1691 -13.1318,-2.4412 -7.8216,-2.5673 -2.8244,-2.9459 -0.3227,-3.2237 A3.2398,3.2398 0 0 1 0.3227,3.2237 Z" stroke-linecap="round" fill="#f76707"/></g></g><g transform="matrix(1, 0, 0, 1, 1442.0572, 3145.2411)" opacity="1"><g transform="scale(1)"><path d="M 1.06 0 m -3.663919189857866, 0 a 3.663919189857866,3.663919189857866 0 1,1 7.327838379715732,0 a 3.663919189857866,3.663919189857866 0 1,1 -7.327838379715732,0" stroke-linecap="round" fill="#f76707"/></g></g><g transform="matrix(1, 0, 0, 1, 483.8403, 2729.7889)" opacity="1"><g transform="scale(1)"><path d="M0,-2.6927 T1.7727,-2.7266 6.6977,-1.8025 12.9238,0.4133 17.6061,2.6443 19.2146,3.6173 A2.7025,2.7025 0 0 1 16.4854,8.2827 T14.849,7.3575 10.5134,5.4194 5.6535,3.5835 1.7464,2.7266 0,2.6927 A2.6927,2.6927 0 0 1 0,-2.6927 Z" stroke-linecap="round" fill="#f2f2f2"/></g></g><g transform="matrix(1, 0, 0, 1, 512.1069, 2737.2275)" opacity="1"><g transform="scale(1)"><path d="M4.6915,0 T4.6799,2.1119 4.2966,8.3255 3.2776,15.98 1.9083,22.6826 -0.2372,29.0946 -1.6607,32.3567 A3.0138,3.0138 0 0 1 -7.2593,30.1233 T-6.1389,27.0084 -4.3111,20.8574 -2.979,14.5748 -2.0214,7.776 -1.6999,2.1119 -1.7115,0 A3.2015,3.2015 0 0 1 4.6915,0 Z" stroke-linecap="round" fill="#f2f2f2"/></g></g><g transform="matrix(1, 0, 0, 1, 515.1848, 2735.1497)" opacity="1"><g transform="scale(1)"><path d="M 0 0 m -3.663919189857866, 0 a 3.663919189857866,3.663919189857866 0 1,1 7.327838379715732,0 a 3.663919189857866,3.663919189857866 0 1,1 -7.327838379715732,0" stroke-linecap="round" fill="#f2f2f2"/></g></g><g transform="matrix(1, 0, 0, 1, 515.8292, 2737.7272)" opacity="1"><g transform="scale(1)"><path d="M-1.0327,-1.328 T0.3306,-2.4055 3.9739,-5.1526 8.5431,-8.2432 12.7789,-10.6368 17.2333,-12.995 19.7409,-14.3804 A1.7304,1.7304 0 0 1 21.4991,-11.3996 T18.903,-9.9107 14.5126,-7.5391 10.4949,-5.3089 6.0322,-2.3724 2.4128,0.2723 1.0327,1.328 A1.6823,1.6823 0 0 1 -1.0327,-1.328 Z" stroke-linecap="round" fill="#f2f2f2"/></g></g><g transform="matrix(1, 0, 0, 1, 487.281, 2703.8768)" opacity="1"><g transform="scale(1)"><path d="M0.5337,-1.8714 T2.4343,-1.3344 7.1509,0.3893 12.031,2.7653 16.0819,5.0531 20.3564,7.7533 24.4839,10.6195 28.4304,13.0597 31.7619,14.9039 32.9866,15.5722 A1.853,1.853 0 0 1 31.2534,18.8478 T30.012,18.2112 26.5281,16.3892 22.4025,13.9472 18.3483,11.1714 14.0377,8.4584 10.0182,6.1738 5.6999,4.0233 1.3639,2.4176 -0.5337,1.8714 A1.946,1.946 0 0 1 0.5337,-1.8714 Z" stroke-linecap="round" fill="#f2f2f2"/></g></g><g transform="matrix(1, 0, 0, 1, 499.8981, 2713.0529)" opacity="1"><g transform="scale(1)"><path d="M0.6243,-1.665 T4.9662,-0.0433 12.4543,3.0217 19.0487,6.0404 22.497,7.6159 A1.7165,1.7165 0 0 1 21.083,10.7441 T17.6221,9.1967 11.1061,6.2896 3.7134,3.2975 -0.6243,1.665 A1.7782,1.7782 0 0 1 0.6243,-1.665 Z" stroke-linecap="round" fill="#f2f2f2"/></g></g><g transform="matrix(1, 0, 0, 1, 513.6623, 2772.6975)" opacity="1"><g transform="scale(1)"><path d="M-0.7348,-1.8417 T0.6148,-2.4032 3.9894,-4.0408 7.8898,-6.7115 11.5887,-10.1199 15.3187,-13.1454 17.2254,-14.3568 A2.0691,2.0691 0 0 1 19.4746,-10.8832 T17.3204,-9.3081 13.2542,-5.8602 9.7618,-2.7645 5.8235,-0.3717 2.1002,1.32 0.7348,1.8417 A1.9829,1.9829 0 0 1 -0.7348,-1.8417 Z" stroke-linecap="round" fill="#f2f2f2"/></g></g><g transform="matrix(1, 0, 0, 1, 529.7205, 2733.6991)" opacity="1"><g transform="scale(1)"><path d="M1.949,-0.2172 T2.235,2.222 2.6702,7.083 2.8972,11.8675 3.2682,16.4485 3.7238,20.752 4.1433,26.2429 4.2951,31.5019 4.1901,33.3552 A1.9024,1.9024 0 0 1 0.3899,33.1648 T0.4707,31.3103 0.2591,26.3062 -0.1966,21.1735 -0.686,16.7758 -1.0849,12.0532 -1.2956,7.4233 -1.6911,2.6594 -1.949,0.2172 A1.961,1.961 0 0 1 1.949,-0.2172 Z" stroke-linecap="round" fill="#f2f2f2"/></g></g><g transform="matrix(1, 0, 0, 1, 533.1615, 2733.6991)" opacity="1"><g transform="scale(1)"><path d="M1.9644,-0.197 T2.2291,2.5165 2.6399,7.5082 2.909,13.2779 2.6522,20.0506 1.668,25.8752 1.0636,28.4186 A1.9786,1.9786 0 0 1 -2.6386,27.0209 T-2.1607,24.9959 -1.2961,19.9109 -1.0171,13.4438 -1.2653,7.8286 -1.6852,2.9089 -1.9644,0.197 A1.9742,1.9742 0 0 1 1.9644,-0.197 ZM-1.705,29.4728 T-1.7906,29.4277 -1.8762,29.3825 A1.9781,1.9781 0 0 1 -0.0417,25.8774 T0.0442,25.9221 0.13,25.9667 A1.9786,1.9786 0 0 1 -1.705,29.4728 ZM-2.9341,27.7377 T-3.0007,26.4431 -3.0873,22.9723 -2.7015,18.4161 -1.7817,13.4788 -1.1471,8.0888 -1.0027,2.5449 -0.97,-2.3855 -0.961,-4.6049 A2.1111,2.1111 0 0 1 3.261,-4.5751 T3.2386,-2.3506 3.1583,2.6416 2.9271,8.4248 2.2095,13.9902 1.2509,18.6699 0.8551,22.9257 0.9448,26.2869 1.0162,27.5223 A1.9781,1.9781 0 0 1 -2.9341,27.7377 ZM3.2611,-4.586 T3.2596,-3.9507 3.2523,-0.5292 3.2466,4.4705 3.2492,9.2259 3.2558,14.2748 3.2627,19.1344 3.2222,23.6485 1.8562,27.8665 0.5335,29.923 A2.0926,2.0926 0 0 1 -2.8335,27.437 T-2.2309,26.6137 -1.2969,23.6386 -0.9627,19.1344 -0.9558,14.2748 -0.9493,9.226 -0.947,4.4709 -0.9551,-0.5238 -0.962,-3.9497 -0.9611,-4.594 A2.1111,2.1111 0 0 1 3.2611,-4.586 Z" stroke-linecap="round" fill="#f2f2f2"/></g></g><g transform="matrix(1, 0, 0, 1, 495.3101, 2705.0238)" opacity="1"><g transform="scale(1)"><path d="M1.1581,-1.7372 T3.5961,-0.1061 8.1376,2.9209 12.0714,5.2648 15.7774,7.3065 19.4538,9.5207 24.1278,12.5441 29.4521,16.2373 33.2281,19.105 34.5531,20.1823 A2.0632,2.0632 0 0 1 31.9669,23.3977 T30.6305,22.3345 26.8791,19.55 21.7367,16.0343 17.2576,13.1438 13.728,10.9909 9.9355,8.8658 5.8247,6.3905 1.2852,3.3603 -1.1581,1.7372 A2.0879,2.0879 0 0 1 1.1581,-1.7372 Z" stroke-linecap="round" fill="#f2f2f2"/></g></g><g transform="matrix(1, 0, 0, 1, 487.281, 2729.111)" opacity="1"><g transform="scale(1)"><path d="M-1.2071,-2.1117 T0.6887,-3.2028 4.6564,-5.7754 8.683,-9.0396 12.3987,-12.5598 16.84,-15.7132 19.5199,-17.1291 A2.4903,2.4903 0 0 1 21.7801,-12.6909 T20.8393,-12.2023 18.2099,-10.6195 14.6575,-7.7423 11.2572,-4.6393 7.3663,-1.6837 3.1095,1.0317 1.2071,2.1117 A2.4323,2.4323 0 0 1 -1.2071,-2.1117 Z" stroke-linecap="round" fill="#f2f2f2"/></g></g><g transform="matrix(1, 0, 0, 1, 504.4862, 2714.1999)" opacity="1"><g transform="scale(1)"><path d="M 0 0 m -3.663919189857866, 0 a 3.663919189857866,3.663919189857866 0 1,1 7.327838379715732,0 a 3.663919189857866,3.663919189857866 0 1,1 -7.327838379715732,0" stroke-linecap="round" fill="#f2f2f2"/></g></g><g transform="matrix(1, 0, 0, 1, 488.428, 2730.258)" opacity="1"><g transform="scale(1)"><path d="M1.7276,1.15 T1.7389,3.0491 1.7557,7.845 1.7473,13.476 1.7264,17.8551 1.7195,19.5 A1.7195,1.7195 0 0 1 -1.7195,19.5 T-1.7264,17.8551 -1.7473,13.476 -1.7557,7.845 -1.7389,3.0491 -1.7276,1.15 A1.7276,1.7276 0 0 1 1.7276,1.15 Z" stroke-linecap="round" fill="#f2f2f2"/></g></g><g transform="matrix(1, 0, 0, 1, 158.0883, 2800.2258)" opacity="1"><g transform="scale(1)"><path d="M1.8367,-0.7328 T2.3773,0.6256 3.4178,4.5565 3.7517,9.4766 3.3886,14.3323 3.1595,19.5646 3.1251,24.3099 3.1247,28.9204 3.1276,34.1187 3.1261,39.2872 3.1224,44.4497 3.522,49.9186 4.0722,55.3386 4.2459,60.5024 4.2752,65.6699 4.2815,70.83 4.5028,75.6628 5.0399,80.7809 5.947,85.7301 6.5366,87.7914 A2.0171,2.0171 0 0 1 2.6434,88.8486 T1.9943,86.3485 1.1453,81.5255 0.6206,77.1258 0.2969,72.3207 0.2979,67.1641 0.292,62.0299 0.2227,57.045 -0.3266,52.4459 -0.8172,47.5714 -0.8235,42.6499 -0.8276,37.485 -0.8269,32.3124 -0.817,27.075 -0.7946,21.3846 -0.6603,15.9759 -0.2749,10.4835 -0.3798,5.509 -1.2941,2.0894 -1.8367,0.7328 A1.9775,1.9775 0 0 1 1.8367,-0.7328 Z" stroke-linecap="round" fill="#f2f2f2"/></g></g></svg>