<svg xmlns="http://www.w3.org/2000/svg" direction="ltr" width="179.15624503783556" height="267.4450675371663" viewBox="2104.037095551058 29241.073518244637 179.15624503783556 267.4450675371663" stroke-linecap="round" stroke-linejoin="round" data-color-mode="dark" class="tl-container tl-theme__force-sRGB tl-theme__dark" style="background-color: transparent;"><defs/><g transform="matrix(1, 0, 0, 1, 2137.2971, 29392.665) scale(0.2524743723799738, 0.2524743723799738)" opacity="1"><g transform="scale(3.9607980428801723)"><path d="M0.6624,0 T0.6646,0.3571 0.6013,1.3317 0.4283,2.6831 0.1799,4.1865 -0.1605,5.6683 -0.483,6.8112 -0.6061,7.2417 A0.6761,0.6761 0 0 1 -1.9139,6.8983 T-1.715,6.0641 -1.315,4.4316 -0.985,2.8977 -0.7615,1.4382 -0.6646,0.3571 -0.6624,0 A0.6624,0.6624 0 0 1 0.6624,0 Z" stroke-linecap="round" fill="#ffc034"/></g></g><g transform="matrix(1, 0, 0, 1, 2137.2971, 29391.6551) scale(0.2524743723799738, 0.2524743723799738)" opacity="1"><g transform="scale(3.9607980428801723)"><path d="M0.25,-0.8421 T0.6686,-0.834 1.7599,-0.8159 3.2217,-0.5991 4.5558,0.1265 5.4217,1.2061 5.8274,2.4708 5.531,3.7343 4.5335,4.7493 3.2907,5.5986 1.9424,6.1321 1.2206,6.2716 A0.8054,0.8054 0 0 1 1.0207,4.6732 T1.6634,4.4953 2.8337,3.9708 3.872,3.1449 3.9969,2.0194 3.0175,1.0895 1.7555,0.8159 0.6686,0.834 0.25,0.8421 A0.8421,0.8421 0 0 1 0.25,-0.8421 ZM0.532,6.0221 T0.3363,5.792 -0.0782,5.3064 -0.2971,5.0509 A0.7485,0.7485 0 0 1 0.7971,4.0291 T1.037,4.265 1.4931,4.7118 1.7093,4.9227 A0.8054,0.8054 0 0 1 0.532,6.0221 Z" stroke-linecap="round" fill="#ffc034"/></g></g><g transform="matrix(1, 0, 0, 1, 2143.609, 29397.7145) scale(0.2524743723799738, 0.2524743723799738)" opacity="1"><g transform="scale(3.9607980428801723)"><path d="M-0.5761,-0.288 T-0.5161,-0.4059 -0.4562,-0.5237 A0.6423,0.6423 0 0 1 0.6927,0.0507 T0.6344,0.1694 0.5761,0.288 A0.644,0.644 0 0 1 -0.5761,-0.288 ZM0.0528,-0.8754 T0.084,-0.8785 0.1151,-0.8815 A0.642,0.642 0 0 1 0.246,0.3958 T0.2149,0.3991 0.1837,0.4024 A0.6423,0.6423 0 0 1 0.0528,-0.8754 ZM0.8198,-0.3026 T0.8365,-0.127 0.9134,0.7 1.5319,1.1309 2.1015,0.7653 2.1128,0.62 A0.6354,0.6354 0 0 1 3.3794,0.722 T3.149,1.4399 2.4343,2.5576 1.3178,2.8383 0.2214,2.2422 -0.3346,0.9668 -0.4425,-0.0074 -0.4586,-0.1831 A0.642,0.642 0 0 1 0.8198,-0.3026 ZM2.4182,0.1268 T2.4857,0.0868 2.5531,0.0469 A0.6342,0.6342 0 0 1 3.2076,1.1334 T3.1408,1.1743 3.074,1.2153 A0.6354,0.6354 0 0 1 2.4182,0.1268 ZM3.4351,0.2827 T3.5423,0.4803 4.01,1.356 4.6554,2.6631 5.0575,4.1918 5.1249,5.7259 4.6228,7.1393 3.4566,8.3831 2.0909,8.8685 0.7207,8.6073 -0.5841,7.8494 -1.6115,6.557 -2.222,5.2605 -2.3915,4.7804 A0.6664,0.6664 0 0 1 -1.1485,4.2996 T-0.6701,5.2813 0.4684,6.7784 1.8482,7.3622 3.0903,6.8892 3.7294,5.7483 3.79,4.4582 3.4867,3.1973 2.9213,2.0084 2.4644,1.1438 2.3257,0.8976 A0.6342,0.6342 0 0 1 3.4351,0.2827 Z" stroke-linecap="round" fill="#ffc034"/></g></g><g transform="matrix(1, 0, 0, 1, 2150.9307, 29391.1502) scale(0.2524743723799738, 0.2524743723799738)" opacity="1"><g transform="scale(3.9607980428801723)"><path d="M0.8473,0.1197 T0.776,0.5369 0.4799,1.7104 0.0094,3.131 -0.4042,4.4611 -0.7101,5.7699 -0.6163,7.0532 0.1917,7.4373 1.0184,6.9731 1.2689,6.7647 A0.748,0.748 0 0 1 2.2711,7.8753 T2.0383,8.1032 1.2439,8.7743 0.0331,9.2522 -1.1578,9.0031 -2.0321,8.1392 -2.4161,6.8749 -2.3136,5.5191 -1.953,4.0548 -1.5176,2.6294 -1.1151,1.3583 -0.8943,0.3003 -0.8473,-0.1197 A0.8557,0.8557 0 0 1 0.8473,0.1197 Z" stroke-linecap="round" fill="#ffc034"/></g></g><g transform="matrix(1, 0, 0, 1, 2151.6881, 29394.4324) scale(0.2524743723799738, 0.2524743723799738)" opacity="1"><g transform="scale(3.9607980428801723)"><path d="M-0.1028,0.5948 T-0.5804,0.7139 -2.0007,0.9669 -2.9432,1.1007 A0.6069,0.6069 0 0 1 -3.1168,-0.1007 T-2.2348,-0.2304 -0.875,-0.4774 -0.3972,-0.5948 A0.6128,0.6128 0 0 1 -0.1028,0.5948 Z" stroke-linecap="round" fill="#ffc034"/></g></g><g transform="matrix(1, 0, 0, 1, 2156.2327, 29394.6848) scale(0.2524743723799738, 0.2524743723799738)" opacity="1"><g transform="scale(3.9607980428801723)"><path d="M 0 0 m -1.0928255784898389, 0 a 1.0928255784898389,1.0928255784898389 0 1,1 2.1856511569796777,0 a 1.0928255784898389,1.0928255784898389 0 1,1 -2.1856511569796777,0" stroke-linecap="round" fill="#ffc034"/></g></g><g transform="matrix(1, 0, 0, 1, 2155.7277, 29397.967) scale(0.2524743723799738, 0.2524743723799738)" opacity="1"><g transform="scale(3.9607980428801723)"><path d="M 0 0 m -1.0928255784898389, 0 a 1.0928255784898389,1.0928255784898389 0 1,1 2.1856511569796777,0 a 1.0928255784898389,1.0928255784898389 0 1,1 -2.1856511569796777,0" stroke-linecap="round" fill="#ffc034"/></g></g><g transform="matrix(1, 0, 0, 1, 2178.7029, 29395.4423) scale(0.2524743723799738, 0.2524743723799738)" opacity="1"><g transform="scale(3.9607980428801723)"><path d="M0.4851,0.3453 T0.1909,0.7675 -0.7001,1.7453 -1.8895,2.7693 -3.0549,3.8263 -4.2361,5.0698 -4.8445,5.7245 A0.6227,0.6227 0 0 1 -5.7555,4.8755 T-5.5359,4.6317 -4.7687,3.7374 -3.7612,2.6717 -2.6826,1.7875 -1.5763,0.9017 -0.7869,0.0698 -0.4851,-0.3453 A0.5955,0.5955 0 0 1 0.4851,0.3453 Z" stroke-linecap="round" fill="#ffc034"/></g></g><g transform="matrix(1, 0, 0, 1, 2174.6633, 29396.4521) scale(0.2524743723799738, 0.2524743723799738)" opacity="1"><g transform="scale(3.9607980428801723)"><path d="M0.3667,-0.4575 T0.6689,-0.2238 1.5634,0.4697 2.682,1.4653 3.5149,2.5514 3.9568,3.4558 4.0921,3.81 A0.6073,0.6073 0 0 1 2.9679,4.27 T2.736,3.7008 1.9746,2.5501 0.8331,1.4571 -0.0729,0.7015 -0.3667,0.4575 A0.5864,0.5864 0 0 1 0.3667,-0.4575 Z" stroke-linecap="round" fill="#ffc034"/></g></g><g transform="matrix(1, 0, 0, 1, 2179.7128, 29389.3829) scale(0.2524743723799738, 0.2524743723799738)" opacity="1"><g transform="scale(3.9607980428801723)"><path d="M0.25,-0.6927 T0.6702,-0.6966 1.8916,-0.473 2.9878,0.5607 2.7994,2.089 2.9344,2.8144 3.5529,2.818 A0.7124,0.7124 0 0 1 3.5071,4.242 T2.5885,4.2113 1.1024,3.819 0.8186,2.7042 1.0932,1.3258 0.667,0.6966 0.25,0.6927 A0.6927,0.6927 0 0 1 0.25,-0.6927 Z" stroke-linecap="round" fill="#ffc034"/></g></g><g transform="matrix(1, 0, 0, 1, 2187.792, 29395.4423) scale(0.2524743723799738, 0.2524743723799738)" opacity="1"><g transform="scale(3.9607980428801723)"><path d="M0.5585,0.3191 T0.5027,0.7973 0.3966,1.9083 0.324,2.9238 0.3018,3.3064 A0.5524,0.5524 0 0 1 -0.8018,3.2536 T-0.7875,2.8706 -0.7283,1.8116 -0.621,0.6582 -0.5585,0.1809 A0.5627,0.5627 0 0 1 0.5585,0.3191 Z" stroke-linecap="round" fill="#f2f2f2"/></g></g><g transform="matrix(1, 0, 0, 1, 2188.8019, 29397.462) scale(0.2524743723799738, 0.2524743723799738)" opacity="1"><g transform="scale(3.9607980428801723)"><path d="M0,0.6846 T-0.4186,0.6892 -1.5452,0.7467 -2.7191,0.8604 -3.1849,0.9212 A0.6779,0.6779 0 0 1 -3.3751,-0.4212 T-2.9107,-0.4922 -1.6418,-0.6284 -0.4186,-0.6892 0,-0.6846 A0.6846,0.6846 0 0 1 0,0.6846 Z" stroke-linecap="round" fill="#f2f2f2"/></g></g><g transform="matrix(1, 0, 0, 1, 2197.6385, 29390.8977) scale(0.2524743723799738, 0.2524743723799738)" opacity="1"><g transform="scale(3.9607980428801723)"><path d="M0.3239,0.2159 T0.145,0.694 -0.2626,1.7832 -0.7156,3.0148 -1.1272,4.2204 -1.4441,5.4433 -1.704,6.6923 -1.8662,8.0121 -1.9013,9.3253 -1.7759,10.6186 -1.5519,11.6236 -1.4565,11.9398 A0.5916,0.5916 0 0 1 -2.5835,12.3002 T-2.6893,11.9872 -2.9648,10.9601 -3.1333,9.624 -3.1114,8.2755 -2.9434,6.7238 -2.6539,5.1935 -2.2992,3.8307 -1.8771,2.5978 -1.4262,1.3807 -1.0045,0.2615 -0.8239,-0.2159 A0.6132,0.6132 0 0 1 0.3239,0.2159 Z" stroke-linecap="round" fill="#ae3ec9"/></g></g><g transform="matrix(1, 0, 0, 1, 2202.183, 29390.8977) scale(0.2524743723799738, 0.2524743723799738)" opacity="1"><g transform="scale(3.9607980428801723)"><path d="M0.4468,0.4468 T0.1503,0.7462 -0.572,1.565 -0.9978,2.0843 A0.6427,0.6427 0 0 1 -2.0006,1.2802 T-1.5231,0.7133 -0.7462,-0.1503 -0.4468,-0.4468 A0.6319,0.6319 0 0 1 0.4468,0.4468 ZM-0.9691,1.3189 T-0.8843,1.4647 -0.1513,2.1922 0.4337,3.5498 -0.1946,4.6427 -1.6152,5.0546 -2.8642,5.1569 -3.2577,5.164 A0.6244,0.6244 0 0 1 -3.3023,3.916 T-2.5809,3.8772 -1.2042,3.6745 -1.083,3.0568 -1.8231,2.3243 -2.0293,2.0457 A0.6427,0.6427 0 0 1 -0.9691,1.3189 Z" stroke-linecap="round" fill="#ae3ec9"/></g></g><g transform="matrix(1, 0, 0, 1, 2203.1929, 29397.7145) scale(0.2524743723799738, 0.2524743723799738)" opacity="1"><g transform="scale(3.9607980428801723)"><path d="M0.2127,0.4953 T-0.204,0.6803 -1.3207,1.0346 -2.6563,1.2434 -3.6544,1.2928 -4.0169,1.3026 A0.5431,0.5431 0 0 1 -4.0631,0.2174 T-3.391,0.1779 -1.8863,-0.004 -0.6332,-0.3209 -0.2127,-0.4953 A0.539,0.539 0 0 1 0.2127,0.4953 Z" stroke-linecap="round" fill="#ae3ec9"/></g></g><g transform="matrix(1, 0, 0, 1, 2199.6583, 29400.9967) scale(0.2524743723799738, 0.2524743723799738)" opacity="1"><g transform="scale(3.9607980428801723)"><path d="M0.1857,-0.5608 T0.5431,-0.4421 1.4386,0.1116 1.9524,1.1552 1.4232,2.2501 0.6538,2.9021 0.3894,3.0678 A0.6114,0.6114 0 0 1 -0.3372,2.0843 T0.0954,1.4403 0.1711,0.6786 -0.1857,0.5608 A0.5908,0.5908 0 0 1 0.1857,-0.5608 ZM0.6364,2.6111 T0.632,2.7185 0.6275,2.826 A0.6148,0.6148 0 0 1 -0.6,2.7555 T-0.5922,2.6483 -0.5843,2.541 A0.6114,0.6114 0 0 1 0.6364,2.6111 ZM0.2242,2.2132 T0.4306,2.2855 1.2225,2.4807 2.43,2.6395 3.0519,2.6755 A0.6049,0.6049 0 0 1 3.0081,3.8845 T2.3518,3.8742 1.0173,3.7165 0.0711,3.4688 -0.1967,3.3684 A0.6148,0.6148 0 0 1 0.2242,2.2132 Z" stroke-linecap="round" fill="#ae3ec9"/></g></g><g transform="matrix(1, 0, 0, 1, 2206.7275, 29389.3829) scale(0.2524743723799738, 0.2524743723799738)" opacity="1"><g transform="scale(3.9607980428801723)"><path d="M0.6507,-0.0805 T0.7049,0.3978 0.8053,1.5839 0.9525,2.8892 1.1374,4.1066 1.2876,5.4176 1.4618,6.7891 1.6037,8.1413 1.5858,9.5142 1.4215,10.8233 1.0853,11.9978 0.6248,13.1642 0.1331,14.3099 -0.4193,15.4954 -0.853,16.3152 -0.9895,16.4954 A0.6716,0.6716 0 0 1 -2.056,15.6788 T-1.8226,15.2307 -1.2184,14.0114 -0.6056,12.639 -0.0964,11.3352 0.2578,10.0372 0.3327,8.8174 0.2732,7.5729 0.1033,5.9845 -0.1161,4.32 -0.3187,2.9928 -0.4736,1.6983 -0.5866,0.5576 -0.6507,0.0805 A0.6556,0.6556 0 0 1 0.6507,-0.0805 ZM-2.1073,16.4178 T-2.2241,16.1954 -2.3408,15.9729 A0.6558,0.6558 0 0 1 -1.1992,15.3271 T-1.0687,15.5417 -0.9382,15.7564 A0.6716,0.6716 0 0 1 -2.1073,16.4178 Z" stroke-linecap="round" fill="#ae3ec9"/></g></g><g transform="matrix(1, 0, 0, 1, 2209.5048, 29385.3433) scale(0.2524743723799738, 0.2524743723799738)" opacity="1"><g transform="scale(3.9607980428801723)"><path d="M0.1926,-0.5817 T0.5622,-0.4583 1.3726,0.1238 1.8811,1.2557 1.5909,2.6434 0.8412,3.6781 0.4495,3.9983 A0.6272,0.6272 0 0 1 -0.4005,3.0759 T0.0932,2.6066 0.5418,1.4726 0.152,0.6948 -0.1926,0.5817 A0.6127,0.6127 0 0 1 0.1926,-0.5817 ZM0.2828,2.9656 T0.4213,3.0329 1.1988,3.1249 2.1836,3.1605 2.5292,3.1713 A0.6188,0.6188 0 0 1 2.5108,4.4087 T2.165,4.4092 1.0584,4.3745 0.0318,4.2239 -0.2339,4.1086 A0.6272,0.6272 0 0 1 0.2828,2.9656 Z" stroke-linecap="round" fill="#ae3ec9"/></g></g><g transform="matrix(1, 0, 0, 1, 2214.8067, 29394.1799) scale(0.2524743723799738, 0.2524743723799738)" opacity="1"><g transform="scale(3.9607980428801723)"><path d="M0.25,-0.711 T0.7869,-0.7075 1.9219,-0.7007 2.52,-0.6974 A0.6974,0.6974 0 0 1 2.52,0.6974 T1.9219,0.7007 0.7869,0.7075 0.25,0.711 A0.711,0.711 0 0 1 0.25,-0.711 Z" stroke-linecap="round" fill="#f2f2f2"/></g></g><g transform="matrix(1, 0, 0, 1, 2214.0493, 29396.4521) scale(0.2524743723799738, 0.2524743723799738)" opacity="1"><g transform="scale(3.9607980428801723)"><path d="M0.0864,-0.6116 T0.506,-0.5595 1.5928,-0.4587 2.6591,-0.3864 3.0581,-0.3627 A0.6133,0.6133 0 0 1 3.0019,0.8627 T2.6024,0.8498 1.4759,0.7904 0.3313,0.6777 -0.0864,0.6116 A0.6177,0.6177 0 0 1 0.0864,-0.6116 Z" stroke-linecap="round" fill="#f2f2f2"/></g></g><g transform="matrix(1, 0, 0, 1, 2227.1553, 29392.0082) scale(0.2503887994196496, 0.2503887994196496)" opacity="1"><g transform="scale(3.9937888688223953)"><path d="M0.3421,0.5987 T-0.0736,0.832 -0.6341,1.6403 -0.2416,2.6959 0.6553,3.6792 1.1121,4.6238 1.2094,5.0657 A0.6718,0.6718 0 0 1 -0.1173,5.2777 T-0.2406,4.8782 -0.8871,3.9889 -1.9467,2.8025 -2.438,1.4912 -1.7795,0.3787 -0.7542,-0.359 -0.3421,-0.5987 A0.6896,0.6896 0 0 1 0.3421,0.5987 ZM0.8808,5.7541 T0.5594,5.9405 -0.4832,6.4145 -1.8226,6.7277 -3.0358,6.3319 -3.8219,5.6634 -4.013,5.4164 A0.6467,0.6467 0 0 1 -3.007,4.6036 T-2.3321,5.0094 -1.0325,5.1784 -0.0983,4.7654 0.2113,4.5893 A0.6718,0.6718 0 0 1 0.8808,5.7541 Z" stroke-linecap="round" fill="#f76707"/></g></g><g transform="matrix(1, 0, 0, 1, 2227.9065, 29387.5012) scale(0.2503887994196496, 0.2503887994196496)" opacity="1"><g transform="scale(3.9937888688223953)"><path d="M0,-0.7497 T0.473,-0.7465 1.6281,-0.7176 2.772,-0.2886 3.1256,0.8811 2.4443,2.0072 1.6638,2.5684 1.4564,2.7702 A0.7371,0.7371 0 0 1 0.472,1.6729 T0.709,1.2081 0.473,0.7465 0,0.7497 A0.7497,0.7497 0 0 1 0,-0.7497 ZM1.3556,1.597 T1.6895,1.8129 2.3921,2.1685 2.761,2.3083 A0.7393,0.7393 0 0 1 2.239,3.6917 T1.8697,3.553 1.0366,3.1302 0.5728,2.8461 A0.7371,0.7371 0 0 1 1.3556,1.597 Z" stroke-linecap="round" fill="#f76707"/></g></g><g transform="matrix(1, 0, 0, 1, 2176.3264, 29416.2959) scale(0.2503887994196496, 0.2503887994196496)" opacity="1"><g transform="scale(3.9937888688223953)"><path d="M0.4364,0.4364 T0.027,0.8546 -0.9073,1.8969 -1.8802,2.966 -3.1119,3.9673 -3.8956,4.5237 A0.6298,0.6298 0 0 1 -4.6244,3.4963 T-3.9686,3.0316 -2.8512,2.1144 -1.8314,1.0224 -0.8548,-0.0268 -0.4364,-0.4364 A0.6172,0.6172 0 0 1 0.4364,0.4364 Z" stroke-linecap="round" fill="#ffc034"/></g></g><g transform="matrix(1, 0, 0, 1, 2172.5706, 29416.0455) scale(0.2503887994196496, 0.2503887994196496)" opacity="1"><g transform="scale(3.9937888688223953)"><path d="M0.5051,-0.2886 T0.7465,0.1224 1.3293,1.0664 2.1631,2.1596 3.284,3.3949 3.9125,4.0699 A0.5965,0.5965 0 0 1 3.1075,4.9501 T2.8228,4.6989 2.1161,3.9777 1.1642,2.8651 0.2962,1.6723 -0.2735,0.7053 -0.5051,0.2886 A0.5818,0.5818 0 0 1 0.5051,-0.2886 Z" stroke-linecap="round" fill="#ffc034"/></g></g><g transform="matrix(1, 0, 0, 1, 2177.0776, 29409.5354) scale(0.2503887994196496, 0.2503887994196496)" opacity="1"><g transform="scale(3.9937888688223953)"><path d="M0,-0.6454 T0.475,-0.6473 1.7612,-0.3465 2.7685,0.7531 2.5211,2.0284 1.6597,2.841 1.2419,3.1754 A0.6524,0.6524 0 0 1 0.3105,2.2616 T0.4335,2.1382 0.7492,1.332 0.471,0.6473 0,0.6454 A0.6454,0.6454 0 0 1 0,-0.6454 ZM1.1897,2.2139 T1.3615,2.3544 2.4649,2.6866 3.3965,2.8784 A0.6462,0.6462 0 0 1 3.1235,4.1416 T2.745,4.0639 1.5909,3.7905 0.589,3.4089 0.3627,3.2231 A0.6524,0.6524 0 0 1 1.1897,2.2139 Z" stroke-linecap="round" fill="#ffc034"/></g></g><g transform="matrix(1, 0, 0, 1, 2185.3404, 29414.5432) scale(0.2503887994196496, 0.2503887994196496)" opacity="1"><g transform="scale(3.9937888688223953)"><path d="M0.6045,-0.2015 T0.7283,0.1517 0.9098,1.2762 0.8803,2.7567 0.5833,4.1994 0.3734,4.933 A0.6469,0.6469 0 0 1 -0.8734,4.587 T-0.7717,4.2083 -0.5248,3.2573 -0.3793,1.7996 -0.4918,0.5578 -0.6045,0.2015 A0.6372,0.6372 0 0 1 0.6045,-0.2015 Z" stroke-linecap="round" fill="#f2f2f2"/></g></g><g transform="matrix(1, 0, 0, 1, 2186.5923, 29416.5463) scale(0.2503887994196496, 0.2503887994196496)" opacity="1"><g transform="scale(3.9937888688223953)"><path d="M-0.0778,0.6227 T-0.5511,0.566 -1.9098,0.4388 -2.7952,0.3684 A0.62,0.62 0 0 1 -2.7048,-0.8684 T-1.7862,-0.8071 -0.3949,-0.6842 0.0778,-0.6227 A0.6275,0.6275 0 0 1 -0.0778,0.6227 Z" stroke-linecap="round" fill="#f2f2f2"/></g></g><g transform="matrix(1, 0, 0, 1, 2199.3622, 29413.5416) scale(0.2503887994196496, 0.2503887994196496)" opacity="1"><g transform="scale(3.9937888688223953)"><path d="M0.1142,0.6373 T-0.3014,0.8712 -1.1628,1.4354 -1.6087,1.7657 A0.7177,0.7177 0 0 1 -2.6728,0.8023 T-2.0557,0.3216 -1.0264,-0.3982 -0.6142,-0.6373 A0.734,0.734 0 0 1 0.1142,0.6373 ZM-1.6021,0.8097 T-1.4097,1.0337 -0.5812,1.8681 0.1999,3.1438 0.0737,4.3414 -1.0079,5.2333 -2.4888,5.4769 -3.6802,5.0263 -4.4421,4.4978 -4.683,4.3038 A0.6889,0.6889 0 0 1 -3.837,3.2162 T-3.4214,3.5339 -2.3722,3.9896 -1.4893,3.5807 -1.7517,2.627 -2.4714,1.9892 -2.6794,1.7583 A0.7177,0.7177 0 0 1 -1.6021,0.8097 Z" stroke-linecap="round" fill="#ae3ec9"/></g></g><g transform="matrix(1, 0, 0, 1, 2200.1133, 29410.537) scale(0.2503887994196496, 0.2503887994196496)" opacity="1"><g transform="scale(3.9937888688223953)"><path d="M0.1742,-0.6821 T0.7057,-0.7466 2.0156,-0.7766 2.7939,-0.7421 A0.7051,0.7051 0 0 1 2.5224,0.6418 T1.9568,0.6082 0.8585,0.6284 0.3258,0.6821 A0.6863,0.6863 0 0 1 0.1742,-0.6821 ZM3.294,-0.3547 T3.4356,-0.0562 3.4277,0.9297 2.7834,2.0668 2.7943,2.5455 3.3,2.5746 A0.6865,0.6865 0 0 1 3.22,3.9454 T2.5861,3.9196 1.3952,3.6502 0.9599,2.5531 1.6573,1.1941 2.1276,0.4715 2.0222,0.2544 A0.7051,0.7051 0 0 1 3.294,-0.3547 Z" stroke-linecap="round" fill="#ae3ec9"/></g></g><g transform="matrix(1, 0, 0, 1, 2201.8661, 29422.0549) scale(0.2503887994196496, 0.2503887994196496)" opacity="1"><g transform="scale(3.9937888688223953)"><path d="M0,0.7308 T-0.7095,0.7457 -2.5009,0.7772 -4.5984,0.7324 -6.2969,0.6171 -7.8662,0.6297 -9.1161,0.7016 -9.4796,0.7068 A0.7074,0.7074 0 0 1 -9.5404,-0.7068 T-8.8715,-0.7558 -7.5595,-0.8974 -6.1613,-0.9487 -4.4945,-0.8507 -2.5009,-0.7772 -0.7095,-0.7457 0,-0.7308 A0.7308,0.7308 0 0 1 0,0.7308 Z" stroke-linecap="round" fill="#ae3ec9"/></g></g><g transform="matrix(1, 0, 0, 1, 2195.356, 29424.3084) scale(0.2503887994196496, 0.2503887994196496)" opacity="1"><g transform="scale(3.9937888688223953)"><path d="M0.5806,0.0829 T0.5309,0.4984 0.3505,1.5052 0.7613,2.4005 1.6156,2.6763 1.9284,2.6482 A0.616,0.616 0 0 1 2.0716,3.8718 T1.7608,3.9167 0.6686,3.8324 -0.5918,3.0623 -0.8943,1.5814 -0.6491,0.3293 -0.5806,-0.0829 A0.5865,0.5865 0 0 1 0.5806,0.0829 Z" stroke-linecap="round" fill="#ae3ec9"/></g></g><g transform="matrix(1, 0, 0, 1, 2197.8598, 29425.0595) scale(0.2503887994196496, 0.2503887994196496)" opacity="1"><g transform="scale(3.9937888688223953)"><path d="M0.6617,0.0827 T0.6078,0.5563 0.5184,1.7766 0.411,3.2458 0.2624,4.648 0.1856,5.3278 A0.689,0.689 0 0 1 -1.1856,5.1922 T-1.1205,4.4364 -0.9825,3.0688 -0.8501,1.6596 -0.7261,0.3897 -0.6617,-0.0827 A0.6668,0.6668 0 0 1 0.6617,0.0827 Z" stroke-linecap="round" fill="#ae3ec9"/></g></g><g transform="matrix(1, 0, 0, 1, 2209.8785, 29418.5494) scale(0.2503887994196496, 0.2503887994196496)" opacity="1"><g transform="scale(3.9937888688223953)"><path d="M0.1597,-0.5589 T0.5728,-0.4484 1.7453,-0.3375 2.5047,-0.337 A0.587,0.587 0 0 1 2.4953,0.837 T1.5824,0.824 0.255,0.6849 -0.1597,0.5589 A0.5813,0.5813 0 0 1 0.1597,-0.5589 Z" stroke-linecap="round" fill="#f2f2f2"/></g></g><g transform="matrix(1, 0, 0, 1, 2209.6281, 29421.0533) scale(0.2503887994196496, 0.2503887994196496)" opacity="1"><g transform="scale(3.9937888688223953)"><path d="M0.1471,-0.6619 T0.6769,-0.5332 1.7974,-0.2628 2.388,-0.1212 A0.6364,0.6364 0 0 1 2.112,1.1212 T1.5169,0.9993 0.3874,0.7697 -0.1471,0.6619 A0.678,0.678 0 0 1 0.1471,-0.6619 Z" stroke-linecap="round" fill="#f2f2f2"/></g></g><g transform="matrix(1, 0, 0, 1, 2222.6483, 29415.7951) scale(0.2503887994196496, 0.2503887994196496)" opacity="1"><g transform="scale(3.9937888688223953)"><path d="M0.4326,0.6056 T0.0118,0.8904 0.0704,1.8618 0.8292,3.2634 1.033,4.5687 0.4825,5.7022 -0.5736,6.4413 -2.0793,6.5224 -3.2778,6.2776 -3.5516,6.1476 A0.7011,0.7011 0 0 1 -2.9684,4.8724 T-2.5881,5.0749 -1.5745,5.2445 -0.5951,4.7087 -0.6304,3.6026 -1.5914,2.5438 -2.1444,1.4925 -1.6822,0.4521 -0.8396,-0.2991 -0.4326,-0.6056 A0.7443,0.7443 0 0 1 0.4326,0.6056 Z" stroke-linecap="round" fill="#f76707"/></g></g><g transform="matrix(1, 0, 0, 1, 2224.6514, 29408.7842) scale(0.2503887994196496, 0.2503887994196496)" opacity="1"><g transform="scale(3.9937888688223953)"><path d="M0.2271,-0.7949 T0.6423,-0.6723 1.7276,-0.1427 2.581,0.9614 2.43,2.3161 1.6216,3.4383 1.6811,3.6432 2.5323,3.4292 2.8497,3.4747 A0.7916,0.7916 0 0 1 2.6503,5.0453 T1.8447,4.9086 0.4036,4.3066 0.1034,3.1388 0.5185,1.7295 0.1854,0.9088 -0.2271,0.7949 A0.8267,0.8267 0 0 1 0.2271,-0.7949 Z" stroke-linecap="round" fill="#f76707"/></g></g><g transform="matrix(1, 0, 0, 1, 2174.3233, 29442.5867) scale(0.2503887994196496, 0.2503887994196496)" opacity="1"><g transform="scale(3.9937888688223953)"><path d="M0.5723,0.4578 T0.3373,0.7547 -0.3099,1.5237 -1.3588,2.5587 -2.5697,3.584 -3.5649,4.4287 -3.9856,4.8112 A0.7608,0.7608 0 0 1 -5.0344,3.7088 T-4.8162,3.492 -4.0213,2.7641 -2.8229,1.751 -1.6248,0.6899 -0.8103,-0.1635 -0.5723,-0.4578 A0.7329,0.7329 0 0 1 0.5723,0.4578 Z" stroke-linecap="round" fill="#ffc034"/></g></g><g transform="matrix(1, 0, 0, 1, 2171.0682, 29441.5852) scale(0.2503887994196496, 0.2503887994196496)" opacity="1"><g transform="scale(3.9937888688223953)"><path d="M0.5935,-0.3957 T0.8336,-0.0433 1.4676,0.8661 2.4292,2.1058 3.5805,3.4852 4.3846,4.4954 4.6053,4.8091 A0.7468,0.7468 0 0 1 3.4147,5.7109 T2.9791,5.1771 2.0206,4.0048 1.0888,2.8498 0.2761,1.7215 -0.3606,0.7528 -0.5935,0.3957 A0.7133,0.7133 0 0 1 0.5935,-0.3957 Z" stroke-linecap="round" fill="#ffc034"/></g></g><g transform="matrix(1, 0, 0, 1, 2176.3264, 29434.3239) scale(0.2503887994196496, 0.2503887994196496)" opacity="1"><g transform="scale(3.9937888688223953)"><path d="M0.3204,-0.7475 T0.7333,-0.5635 1.6548,0.0153 2.2505,1.0606 1.8335,2.2571 1.0608,3.1629 0.7922,3.5226 A0.7699,0.7699 0 0 1 -0.6309,2.9346 T-0.4435,2.5622 0.1266,1.6394 0.0945,0.9183 -0.3204,0.7475 A0.8132,0.8132 0 0 1 0.3204,-0.7475 ZM0.697,2.7673 T0.805,2.9067 1.5869,3.1263 2.6399,3.2234 3.019,3.2401 A0.7702,0.7702 0 0 1 2.981,4.7799 T2.6016,4.7779 1.616,4.7493 0.3696,4.3885 -0.4032,3.872 -0.5358,3.6898 A0.7699,0.7699 0 0 1 0.697,2.7673 Z" stroke-linecap="round" fill="#ffc034"/></g></g><g transform="matrix(1, 0, 0, 1, 2207.1242, 29441.3348) scale(0.2503887994196496, 0.2503887994196496)" opacity="1"><g transform="scale(3.9937888688223953)"><path d="M0.1807,-0.6326 T0.5937,-0.5231 1.8806,-0.4074 2.7546,-0.4011 A0.6512,0.6512 0 0 1 2.7454,0.9011 T1.6971,0.8939 0.2341,0.7596 -0.1807,0.6326 A0.6579,0.6579 0 0 1 0.1807,-0.6326 Z" stroke-linecap="round" fill="#f2f2f2"/></g></g><g transform="matrix(1, 0, 0, 1, 2206.8738, 29443.8387) scale(0.2503887994196496, 0.2503887994196496)" opacity="1"><g transform="scale(3.9937888688223953)"><path d="M0.1407,-0.7034 T0.7308,-0.5794 1.9786,-0.3183 2.6362,-0.1812 A0.6947,0.6947 0 0 1 2.3638,1.1812 T1.7039,1.0548 0.4517,0.8159 -0.1407,0.7034 A0.7174,0.7174 0 0 1 0.1407,-0.7034 Z" stroke-linecap="round" fill="#f2f2f2"/></g></g><g transform="matrix(1, 0, 0, 1, 2221.6468, 29436.327) scale(0.2503887994196496, 0.2503887994196496)" opacity="1"><g transform="scale(3.9937888688223953)"><path d="M0.335,0.5862 T-0.0821,0.8171 -0.8975,1.5122 -0.7069,2.4593 0.3074,3.479 0.5357,4.8021 -0.4207,5.8573 -1.9505,6.0709 -3.3472,5.688 -4.1897,5.1817 -4.406,5.0028 A0.6322,0.6322 0 0 1 -3.614,4.0172 T-3.2494,4.3088 -2.2487,4.7224 -1.0259,4.6337 -0.9528,3.9267 -1.9403,2.8923 -2.3141,1.6303 -1.6853,0.4021 -0.7457,-0.3441 -0.335,-0.5862 A0.6751,0.6751 0 0 1 0.335,0.5862 Z" stroke-linecap="round" fill="#f76707"/></g></g><g transform="matrix(1, 0, 0, 1, 2214.8863, 29435.3255) scale(0.2503887994196496, 0.2503887994196496)" opacity="1"><g transform="scale(3.9937888688223953)"><path d="M0.5066,-0.5988 T0.922,-0.4214 1.965,0.2996 2.6554,1.4425 2.3269,2.5329 1.446,3.3423 0.9564,3.6606 A0.6518,0.6518 0 0 1 0.1422,2.6425 T0.4889,2.451 0.8268,1.6065 0.4057,0.7762 -0.0066,0.5988 A0.6515,0.6515 0 0 1 0.5066,-0.5988 ZM1.0064,2.6869 T1.0625,2.7626 1.652,3.3144 2.3041,4.5126 1.9418,5.6354 0.847,6.3054 -0.6814,6.3656 -1.8551,5.9579 -2.1143,5.7594 A0.6182,0.6182 0 0 1 -1.3857,4.7606 T-1.1176,4.9469 -0.2274,5.1912 0.4505,4.616 0.2993,3.7994 0.0922,3.6162 A0.6518,0.6518 0 0 1 1.0064,2.6869 Z" stroke-linecap="round" fill="#f76707"/></g></g><g transform="matrix(1, 0, 0, 1, 2222.6483, 29432.3208) scale(0.2503887994196496, 0.2503887994196496)" opacity="1"><g transform="scale(3.9937888688223953)"><path d="M0.25,-0.6416 T0.6639,-0.6445 1.6636,-0.5294 2.467,0.1907 2.3315,1.3471 1.5942,2.2005 1.2099,2.4995 A0.6577,0.6577 0 0 1 0.337,1.5154 T0.7074,1.0814 0.6639,0.6445 0.25,0.6416 A0.6416,0.6416 0 0 1 0.25,-0.6416 ZM1.0373,1.4049 T1.1734,1.4679 2.2443,1.8324 3.179,2.134 A0.6415,0.6415 0 0 1 2.821,3.366 T1.9293,3.1002 0.7736,2.7222 0.5097,2.6099 A0.6577,0.6577 0 0 1 1.0373,1.4049 Z" stroke-linecap="round" fill="#f76707"/></g></g><g transform="matrix(1, 0, 0, 1, 2212.8832, 29445.5914) scale(0.2503887994196496, 0.2503887994196496)" opacity="1"><g transform="scale(3.9937888688223953)"><path d="M0.0863,-0.7764 T0.6183,-0.7164 1.7655,-0.6109 3.0553,-0.5549 4.4598,-0.5432 5.9928,-0.5409 7.6016,-0.674 9.3804,-1.0141 10.3536,-1.2199 A0.7389,0.7389 0 0 1 10.6864,0.2199 T9.709,0.465 7.7639,0.8742 5.9903,1.0373 4.447,1.0302 3.0022,1.0081 1.6365,0.9426 0.446,0.8347 -0.0863,0.7764 A0.7812,0.7812 0 0 1 0.0863,-0.7764 Z" stroke-linecap="round" fill="#f76707"/></g></g><g transform="matrix(1, 0, 0, 1, 2216.639, 29447.8449) scale(0.2503887994196496, 0.2503887994196496)" opacity="1"><g transform="scale(3.9937888688223953)"><path d="M0.5329,0.2131 T0.4155,0.5091 0.1016,1.437 0.4938,2.3384 1.7031,2.4016 2.3237,2.1953 A0.5821,0.5821 0 0 1 2.6763,3.3047 T1.8383,3.562 0.2532,3.6107 -0.8743,2.6641 -1.013,1.1517 -0.652,0.0821 -0.5329,-0.2131 A0.5739,0.5739 0 0 1 0.5329,0.2131 Z" stroke-linecap="round" fill="#f76707"/></g></g><g transform="matrix(1, 0, 0, 1, 2219.1429, 29448.5961) scale(0.2503887994196496, 0.2503887994196496)" opacity="1"><g transform="scale(3.9937888688223953)"><path d="M0.6763,0 T0.6809,0.5912 0.6309,2.0691 0.4701,3.702 0.2801,5.3763 0.1963,6.3043 A0.6977,0.6977 0 0 1 -1.1963,6.2157 T-1.1773,5.8479 -1.0928,4.8027 -0.92,3.4394 -0.7492,1.9681 -0.6809,0.5912 -0.6763,0 A0.6763,0.6763 0 0 1 0.6763,0 Z" stroke-linecap="round" fill="#f76707"/></g></g><g transform="matrix(1, 0, 0, 1, 2174.0729, 29464.1202) scale(0.2503887994196496, 0.2503887994196496)" opacity="1"><g transform="scale(3.9937888688223953)"><path d="M0.4964,0.4255 T0.1444,0.8421 -0.8997,1.9203 -2.2392,3.1359 -3.4469,4.162 -4.5116,5.174 -5.0159,5.7139 A0.6709,0.6709 0 0 1 -6.0041,4.8061 T-5.4209,4.1621 -4.319,3.0861 -3.1629,2.1276 -1.8685,0.999 -0.8539,-0.0143 -0.4964,-0.4255 A0.6538,0.6538 0 0 1 0.4964,0.4255 Z" stroke-linecap="round" fill="#ffc034"/></g></g><g transform="matrix(1, 0, 0, 1, 2169.8163, 29464.3706) scale(0.2503887994196496, 0.2503887994196496)" opacity="1"><g transform="scale(3.9937888688223953)"><path d="M0.5056,-0.6067 T0.8599,-0.3096 1.7077,0.4602 2.8547,1.5941 4.0081,2.9615 4.7184,3.9927 4.9288,4.3174 A0.802,0.802 0 0 1 3.5912,5.2026 T3.3745,4.8819 2.6915,3.9024 1.7095,2.7018 0.6994,1.6774 -0.1504,0.9009 -0.5056,0.6067 A0.7897,0.7897 0 0 1 0.5056,-0.6067 Z" stroke-linecap="round" fill="#ffc034"/></g></g><g transform="matrix(1, 0, 0, 1, 2205.6219, 29464.6209) scale(0.2503887994196496, 0.2503887994196496)" opacity="1"><g transform="scale(3.9937888688223953)"><path d="M0.2319,-0.541 T0.6497,-0.373 1.9681,-0.2689 2.8687,-0.3327 A0.5973,0.5973 0 0 1 3.1313,0.8327 T2.4777,0.9883 1.2061,1.0292 0.1781,0.7278 -0.2319,0.541 A0.5886,0.5886 0 0 1 0.2319,-0.541 Z" stroke-linecap="round" fill="#f2f2f2"/></g></g><g transform="matrix(1, 0, 0, 1, 2205.8723, 29467.3752) scale(0.2503887994196496, 0.2503887994196496)" opacity="1"><g transform="scale(3.9937888688223953)"><path d="M0.0952,-0.5112 T0.5678,-0.4496 1.5672,-0.3196 2.0939,-0.2513 A0.7571,0.7571 0 0 1 1.9061,1.2513 T1.3788,1.1878 0.3782,1.0678 -0.0952,1.0112 A0.7672,0.7672 0 0 1 0.0952,-0.5112 Z" stroke-linecap="round" fill="#f2f2f2"/></g></g><g transform="matrix(1, 0, 0, 1, 2213.7595, 29462.9934) scale(0.2503887994196496, 0.2503887994196496)" opacity="1"><g transform="scale(3.9937888688223953)"><path d="M0.6082,-0.2027 T0.7283,0.1515 1.0568,1.1072 1.3284,2.323 1.3916,2.9372 A0.6446,0.6446 0 0 1 0.1084,3.0628 T0.0636,2.5735 -0.1783,1.4988 -0.4918,0.558 -0.6082,0.2027 A0.6411,0.6411 0 0 1 0.6082,-0.2027 Z" stroke-linecap="round" fill="#f76707"/></g></g><g transform="matrix(1, 0, 0, 1, 2214.7611, 29465.7477) scale(0.2503887994196496, 0.2503887994196496)" opacity="1"><g transform="scale(3.9937888688223953)"><path d="M-0.5376,-0.1792 T-0.3582,-0.7107 0.0464,-1.9985 0.4979,-3.4124 0.8777,-4.8803 1.1161,-6.0413 1.201,-6.3919 A0.5646,0.5646 0 0 1 2.299,-6.1281 T2.1461,-5.4945 1.8837,-4.2619 1.572,-3.0953 1.1291,-1.7071 0.713,-0.3536 0.5376,0.1792 A0.5667,0.5667 0 0 1 -0.5376,-0.1792 Z" stroke-linecap="round" fill="#f76707"/></g></g><g transform="matrix(1, 0, 0, 1, 2218.0161, 29461.7415) scale(0.2503887994196496, 0.2503887994196496)" opacity="1"><g transform="scale(3.9937888688223953)"><path d="M0,-0.703 T0.533,-0.7019 1.8585,-0.4037 2.8653,0.3013 3.0797,0.7093 A0.7025,0.7025 0 0 1 1.7645,1.2034 T1.4135,0.9521 0.5312,0.7019 0,0.703 A0.703,0.703 0 0 1 0,-0.703 ZM2.8872,1.4828 T2.5566,1.7728 2.2259,2.0627 A0.6992,0.6992 0 0 1 1.3,1.0147 T1.6285,0.7223 1.957,0.4299 A0.7025,0.7025 0 0 1 2.8872,1.4828 ZM2.4621,1.5532 T2.4287,1.7071 2.9269,2.358 3.4585,2.855 A0.6947,0.6947 0 0 1 2.2947,3.6139 T2.1439,3.3483 1.5524,2.601 1.0878,1.8217 1.0639,1.5242 A0.6992,0.6992 0 0 1 2.4621,1.5532 ZM3.2921,3.7911 T2.9581,4.0268 1.9486,4.3489 0.4054,4.1783 -0.7627,3.746 -1.0633,3.5704 A0.6508,0.6508 0 0 1 -0.4367,2.4296 T0.1664,2.743 1.4408,3.011 2.2865,2.8216 2.461,2.6778 A0.6947,0.6947 0 0 1 3.2921,3.7911 Z" stroke-linecap="round" fill="#f76707"/></g></g><g transform="matrix(1, 0, 0, 1, 2216.7642, 29458.9872) scale(0.2503887994196496, 0.2503887994196496)" opacity="1"><g transform="scale(3.9937888688223953)"><path d="M0.0857,-0.6858 T0.5593,-0.6311 1.6328,-0.5369 3.0184,-0.4882 4.5247,-0.4764 5.7636,-0.135 6.4818,0.8825 6.6962,2.2652 6.7015,3.6129 6.6924,4.2568 A0.6824,0.6824 0 0 1 5.3276,4.2632 T5.3199,3.9252 5.2929,2.8353 5.0001,1.53 4.047,0.969 2.7539,0.9428 1.4998,0.8685 0.3867,0.7494 -0.0857,0.6858 A0.6911,0.6911 0 0 1 0.0857,-0.6858 Z" stroke-linecap="round" fill="#f76707"/></g></g><g transform="matrix(1, 0, 0, 1, 2228.7829, 29461.4911) scale(0.2503887994196496, 0.2503887994196496)" opacity="1"><g transform="scale(3.9937888688223953)"><path d="M0.3102,0.6205 T-0.0474,0.7922 -0.8331,1.3706 -0.7043,2.1149 0.3538,2.7812 1.0317,3.721 0.5604,4.9136 -0.9442,5.6238 -2.412,5.5576 -3.7399,5.1116 -4.4567,4.8607 A0.6321,0.6321 0 0 1 -4.0633,3.6593 T-3.3405,3.8798 -1.9838,4.2936 -0.8238,4.1681 -0.9102,3.5475 -1.9959,2.6708 -2.2824,1.2765 -1.5549,0.1013 -0.6621,-0.4374 -0.3102,-0.6205 A0.6937,0.6937 0 0 1 0.3102,0.6205 Z" stroke-linecap="round" fill="#f76707"/></g></g><g transform="matrix(1, 0, 0, 1, 2214.0099, 29469.0028) scale(0.2503887994196496, 0.2503887994196496)" opacity="1"><g transform="scale(3.9937888688223953)"><path d="M0.1073,-0.7511 T0.5207,-0.6887 1.7517,-0.5728 3.1767,-0.5146 4.4943,-0.5101 5.9437,-0.5107 7.3395,-0.5112 8.6315,-0.5107 9.8896,-0.5982 11.2358,-0.7116 12.7002,-0.7427 14.0393,-0.7478 15.6005,-0.7341 17.0469,-0.7115 17.5298,-0.7019 A0.7019,0.7019 0 0 1 17.5302,0.7019 T17.0472,0.7117 15.6024,0.7358 14.0459,0.7547 12.7235,0.7673 11.3312,0.8003 9.9683,0.9176 8.633,1.0105 7.339,1.0107 5.9419,1.0088 4.4874,1.0032 3.1508,0.99 1.6251,0.9217 0.3071,0.8069 -0.1073,0.7511 A0.7587,0.7587 0 0 1 0.1073,-0.7511 Z" stroke-linecap="round" fill="#f76707"/></g></g><g transform="matrix(1, 0, 0, 1, 2218.7673, 29472.7586) scale(0.2503887994196496, 0.2503887994196496)" opacity="1"><g transform="scale(3.9937888688223953)"><path d="M0.1699,-0.7207 T0.7035,-0.7781 2.006,-0.7223 3.316,0.0579 3.573,1.4295 2.7591,2.5214 1.7487,3.3216 1.2681,3.7346 A0.6937,0.6937 0 0 1 0.3081,2.7331 T0.749,2.3346 1.2907,1.2676 0.8607,0.6599 0.3301,0.7207 A0.7251,0.7251 0 0 1 0.1699,-0.7207 ZM1.1042,2.6164 T1.2226,2.6839 2.0648,2.878 3.4704,3.0099 4.4584,3.0174 4.7645,3.0198 A0.7403,0.7403 0 0 1 4.7555,4.5002 T4.1707,4.4977 2.9033,4.4635 1.6176,4.2735 0.7431,3.9833 0.472,3.8513 A0.6937,0.6937 0 0 1 1.1042,2.6164 Z" stroke-linecap="round" fill="#f76707"/></g></g><g transform="matrix(1, 0, 0, 1, 2150.0356, 29340.1777) scale(0.2503887994196496, 0.2503887994196496)" opacity="1"><g transform="scale(3.9937888688223953)"><path d="M0.0715,-0.5721 T0.5442,-0.5105 1.6758,-0.4016 3.0457,-0.3384 4.436,-0.3205 5.9619,-0.3195 7.4222,-0.2563 8.7551,-0.1452 10.0575,-0.0022 11.4226,0.1217 13.0467,0.152 14.7168,0.0472 16.3702,-0.078 18.0166,-0.1002 19.6452,-0.107 21.3042,-0.1107 22.9384,-0.1147 24.5148,-0.0279 26.0262,0.0852 27.4894,0.1101 28.9881,0.1092 30.5664,0.173 32.1673,0.2842 33.7148,0.335 35.2432,0.3397 36.8418,0.3373 38.4629,0.3345 39.9971,0.3323 41.5057,0.3305 43.0112,0.3291 44.5127,0.328 46.0129,0.3271 47.6068,0.3264 49.2315,0.3258 50.6082,0.3256 51.8204,0.4172 53.2851,0.5356 55.0063,0.5652 56.4952,0.568 57.7117,0.6598 59.1565,0.7784 60.6062,0.8084 61.9921,0.759 63.3668,0.6536 64.7458,0.5842 66.2265,0.5653 67.5401,0.5129 68.9067,0.3973 70.3624,0.3227 71.7218,0.3127 73.0373,0.3112 74.5573,0.3108 76.1968,0.3107 77.5989,0.3098 78.9188,0.3079 80.3179,0.3058 81.7345,0.2561 83.0893,0.1487 84.3521,0.0757 85.7086,0.0563 87.0616,0.0503 88.352,-0.0678 89.7676,-0.1951 91.1294,-0.2067 92.4215,-0.2955 93.7862,-0.4169 95.3496,-0.5445 96.9616,-0.7774 98.4196,-0.9339 99.8183,-0.8204 100.4953,-0.6901 A0.6954,0.6954 0 0 1 100.3247,0.6901 T100.0503,0.6605 99.0003,0.558 97.5006,0.6151 96.1205,0.854 94.8079,0.9716 93.5602,1.0277 92.0687,1.1426 90.568,1.2112 89.2541,1.2392 87.9209,1.3594 86.6772,1.4525 85.2421,1.4598 83.6169,1.5118 82.1731,1.626 80.8203,1.6949 79.4302,1.693 78.0819,1.6907 76.6926,1.6894 75.3832,1.6893 74.0524,1.6892 72.6323,1.6895 71.2694,1.6919 69.9754,1.7089 68.5974,1.8308 67.1923,1.9386 65.7936,1.9434 64.2928,1.9747 62.9062,2.0936 61.4493,2.1825 59.7341,2.1631 57.9728,2.0388 56.4907,1.9301 54.9953,1.9231 53.5091,1.9024 52.0506,1.7809 50.35,1.6744 48.6944,1.674 47.0744,1.6734 45.5128,1.6726 44.0124,1.6716 42.5097,1.6704 41.0037,1.6689 39.4918,1.667 37.9269,1.6645 36.3083,1.6608 34.732,1.6542 33.1471,1.6307 31.7105,1.5547 30.4177,1.445 28.9862,1.3891 27.4762,1.3783 25.9378,1.3352 24.438,1.2085 22.9385,1.1148 21.3043,1.1108 19.646,1.1079 18.0228,1.1063 16.4065,1.1196 14.7491,1.2376 13.2943,1.3388 11.9008,1.3157 10.4603,1.2343 9.0894,1.0871 7.5857,0.9111 5.9611,0.8186 4.4294,0.8143 3.0099,0.7965 1.5751,0.7332 0.4018,0.6288 -0.0715,0.5721 A0.5766,0.5766 0 0 1 0.0715,-0.5721 Z" stroke-linecap="round" fill="#f2f2f2"/></g></g><g transform="matrix(1, 0, 0, 1, 2201.1149, 29273.8247) scale(0.2503887994196496, 0.2503887994196496)" opacity="1"><g transform="scale(3.9937888688223953)"><path d="M 0 0 m -1.0885273074197999, 0 a 1.0885273074197999,1.0885273074197999 0 1,1 2.1770546148395997,0 a 1.0885273074197999,1.0885273074197999 0 1,1 -2.1770546148395997,0" stroke-linecap="round" fill="#f2f2f2"/></g></g><g transform="matrix(1, 0, 0, 1, 2200.8645, 29273.5743) scale(0.2503887994196496, 0.2503887994196496)" opacity="1"><g transform="scale(3.9937888688223953)"><path d="M0.5586,0.3724 T0.3196,0.7255 -0.2672,1.6098 -1.058,2.7415 -2.0078,3.8916 -2.8763,4.9108 -3.6,5.848 -4.313,6.8564 -5.145,8.109 -5.9997,9.4395 -6.7151,10.603 -7.4217,11.7514 -8.1723,12.9398 -8.923,14.0712 -9.6392,15.1618 -10.3938,16.2603 -11.1591,17.4414 -11.9125,18.6709 -12.7615,19.92 -13.593,21.1341 -14.3601,22.2802 -15.1448,23.44 -16.0018,24.6733 -16.9468,25.9124 -17.8276,27.1397 -18.7134,28.4287 -19.6951,29.7114 -20.6717,31.0074 -21.7527,32.4122 -22.8698,33.8868 -23.899,35.2875 -24.9164,36.5941 -25.9215,37.8606 -26.9329,39.1575 -27.964,40.3871 -28.9667,41.4981 -29.8805,42.5852 -30.7933,43.6685 -31.681,44.6899 -32.5938,45.6655 -33.6247,46.7878 -34.6715,48.0184 -35.6847,49.1986 -36.701,50.3398 -37.7152,51.4544 -38.8227,52.6017 -39.939,53.8052 -40.8622,54.9246 -41.7889,55.957 -42.7407,56.8616 -43.6133,57.732 -44.4347,58.7066 -45.3069,59.7992 -46.1781,60.9223 -46.9646,61.9442 -47.8797,63.0441 -48.7861,64.3172 -49.3282,65.313 -49.4907,65.6385 A0.6562,0.6562 0 0 1 -50.6693,65.0615 T-50.3758,64.4498 -49.6451,63.239 -48.8233,62.1699 -47.975,61.1014 -47.0561,59.9111 -46.1738,58.783 -45.2312,57.638 -44.1562,56.4887 -43.103,55.4496 -42.1613,54.4618 -41.2036,53.3428 -40.122,52.0883 -39.0619,50.9367 -38.0312,49.8419 -37.007,48.7474 -35.9958,47.5771 -34.9415,46.292 -33.9987,45.2333 -33.1686,44.301 -32.2971,43.292 -31.4251,42.2638 -30.5015,41.115 -29.4975,39.9858 -28.5287,38.9202 -27.5347,37.6594 -26.5162,36.321 -25.5182,35.0528 -24.5178,33.7376 -23.4476,32.2981 -22.3337,30.8365 -21.2931,29.5147 -20.3177,28.2665 -19.4068,27.0377 -18.4989,25.7019 -17.5812,24.4484 -16.7371,23.2973 -15.9093,22.1012 -15.0928,20.9142 -14.2951,19.7403 -13.5068,18.5768 -12.748,17.3275 -11.9649,16.0776 -11.1453,14.901 -10.2249,13.5715 -9.3559,12.2728 -8.6262,11.131 -7.7634,9.713 -6.9218,8.3893 -6.1862,7.2924 -5.3999,6.1024 -4.6129,5.0033 -3.8362,4.0137 -2.9383,2.9554 -2.0595,1.8854 -1.3583,0.8595 -0.7926,-0.016 -0.5586,-0.3724 A0.6714,0.6714 0 0 1 0.5586,0.3724 Z" stroke-linecap="round" fill="#f2f2f2"/></g></g><g transform="matrix(1, 0, 0, 1, 2201.6157, 29273.5743) scale(0.2503887994196496, 0.2503887994196496)" opacity="1"><g transform="scale(3.9937888688223953)"><path d="M0.5713,-0.457 T0.8029,-0.1567 1.3902,0.7626 2.0705,2.0523 2.7064,3.3301 3.4523,4.5976 4.2266,5.8673 4.864,7.0228 5.6414,8.2715 6.6084,9.585 7.4859,10.8029 8.3832,12.0807 9.2603,13.2456 10.0553,14.2569 10.911,15.3487 11.8341,16.5159 12.8017,17.6357 13.7338,18.5767 14.6719,19.5769 15.6039,20.6659 16.5713,21.7621 17.5166,22.9904 18.3887,24.1453 19.2738,25.3829 20.1741,26.7171 21.1216,27.9606 22.0302,29.233 22.9175,30.4873 23.8447,31.7586 24.745,33.1174 25.6402,34.3631 26.5195,35.5482 27.43,36.8783 28.3717,38.2423 29.2388,39.4171 30.0651,40.5543 30.949,41.7768 31.909,42.9822 32.847,44.1724 33.7138,45.2235 34.5177,46.2644 35.2617,47.324 35.9216,48.3439 36.6757,49.3926 37.528,50.4371 38.4473,51.5801 39.2696,52.7524 39.9265,53.8128 40.7184,54.8803 41.6496,56.072 42.5341,57.2314 43.3959,58.2472 44.2808,59.3516 45.2982,60.5864 46.4018,61.7184 47.2911,62.7006 48.0869,63.7173 49.0077,64.8021 49.7233,65.5512 49.9234,65.7602 A0.8367,0.8367 0 0 1 48.7366,66.9398 T48.5289,66.7385 47.7479,65.9591 46.7994,64.859 45.9366,63.7524 45.0395,62.6578 44.048,61.6045 43.0923,60.4904 42.213,59.3961 41.2823,58.2432 40.3987,57.0826 39.4354,55.9157 38.5306,54.7008 37.7819,53.4906 37.0288,52.417 36.2384,51.4699 35.3194,50.3204 34.3734,48.9747 33.595,47.7538 32.8337,46.7467 32.0319,45.7293 31.1302,44.579 30.1484,43.3526 29.1726,42.1212 28.2949,40.941 27.5109,39.7625 26.6153,38.4626 25.6488,37.1334 24.7788,35.9153 23.8798,34.6396 23.0104,33.2903 22.1452,32.019 21.1751,30.7282 20.2872,29.4778 19.3833,28.2438 18.4123,26.9112 17.5413,25.6781 16.6766,24.4896 15.8101,23.2982 14.9122,22.2136 13.8235,20.9351 12.6963,19.697 11.6396,18.6162 10.6474,17.4562 9.7152,16.2657 8.8673,15.1719 8.1058,14.1908 7.376,13.1936 6.6855,12.2021 6.0255,11.2116 5.2915,10.2245 4.5513,9.1999 3.8208,8.0274 3.0488,6.6699 2.3859,5.4093 1.757,4.3069 1.0619,3.0388 0.3108,1.6849 -0.3299,0.748 -0.5713,0.457 A0.7316,0.7316 0 0 1 0.5713,-0.457 Z" stroke-linecap="round" fill="#f2f2f2"/></g></g><g transform="matrix(1, 0, 0, 1, 2201.1149, 29275.0766) scale(0.2503887994196496, 0.2503887994196496)" opacity="1"><g transform="scale(3.9937888688223953)"><path d="M0.5754,0.0719 T0.5154,0.5448 0.4094,1.6765 0.3503,2.9682 0.267,4.2009 0.1471,5.5669 0.0895,7.1933 0.0832,8.871 0.0881,10.4488 0.0948,12.0511 0.1011,13.7631 0.1058,15.4209 0.1095,17.1141 0.1123,18.6522 0.1143,20.1742 0.1173,21.9443 0.1207,23.4412 0.1233,24.6799 0.1255,25.9267 0.1266,27.1758 0.1264,28.4604 0.1257,29.7547 0.1251,31.017 0.1236,32.2393 0.1211,33.4505 0.119,34.692 0.117,36.1464 0.1167,37.8276 0.1185,39.2963 0.055,40.5974 -0.0596,41.9191 -0.1177,43.3467 -0.1261,44.7741 -0.2327,46.2245 -0.353,47.6742 -0.3685,49.1037 -0.369,50.7005 -0.4373,52.2536 -0.5518,53.7622 -0.6051,55.1699 -0.614,56.5531 -0.6151,57.9456 -0.6791,59.4624 -0.7959,61.1044 -0.8503,62.5791 -0.8514,64 -0.8675,65.4144 -0.8841,66.1 A0.6159,0.6159 0 0 1 -2.1159,66.1 T-2.1242,65.7386 -2.141,64.6823 -2.1455,63.309 -2.1214,61.8341 -1.9939,60.3247 -1.8856,58.889 -1.8841,57.4783 -1.8812,56.0637 -1.8623,54.6353 -1.7391,53.1639 -1.6312,51.6906 -1.6286,50.1337 -1.6219,48.55 -1.5837,47.115 -1.4605,45.6111 -1.3657,43.9124 -1.3283,42.2567 -1.2074,40.707 -1.1185,39.2963 -1.1167,37.8276 -1.117,36.1464 -1.119,34.692 -1.1211,33.4505 -1.1236,32.2393 -1.1251,31.017 -1.1257,29.7547 -1.1264,28.4604 -1.1266,27.1758 -1.1255,25.9267 -1.1233,24.6799 -1.1207,23.4412 -1.1173,21.9443 -1.1143,20.1742 -1.1123,18.6522 -1.1095,17.1141 -1.1058,15.4209 -1.101,13.7631 -1.0947,12.0511 -1.0876,10.4484 -1.0799,8.8682 -1.0669,7.1746 -1.0299,5.7081 -0.9094,4.3498 -0.8035,2.9291 -0.7411,1.5744 -0.6337,0.4012 -0.5754,-0.0719 A0.5799,0.5799 0 0 1 0.5754,0.0719 Z" stroke-linecap="round" fill="#9398b0"/></g></g><g transform="matrix(1, 0, 0, 1, 2240.6763, 29331.9149) scale(0.2503887994196496, 0.2503887994196496)" opacity="1"><g transform="scale(3.9937888688223953)"><path d="M 0 0 m -1.0885273074197999, 0 a 1.0885273074197999,1.0885273074197999 0 1,1 2.1770546148395997,0 a 1.0885273074197999,1.0885273074197999 0 1,1 -2.1770546148395997,0" stroke-linecap="round" fill="#e599f7"/></g></g><g transform="matrix(1, 0, 0, 1, 2241.1771, 29331.6645) scale(0.2503887994196496, 0.2503887994196496)" opacity="1"><g transform="scale(3.9937888688223953)"><path d="M0.4994,0.2494 T0.2017,0.5433 -0.5606,1.2649 -1.4485,2.1898 -2.1353,3.2717 -2.5507,4.4804 -2.7529,5.7554 -2.7197,7.1798 -2.389,8.5833 -2.142,9.2133 A0.6765,0.6765 0 0 1 -3.358,9.8067 T-3.6899,8.9858 -4.1123,7.5553 -4.1759,6.2436 -4.0105,4.9615 -3.7457,3.7999 -3.3195,2.5706 -2.5438,1.3493 -1.5771,0.3105 -0.7929,-0.4521 -0.4994,-0.7494 A0.7062,0.7062 0 0 1 0.4994,0.2494 Z" stroke-linecap="round" fill="#e599f7"/></g></g><g transform="matrix(1, 0, 0, 1, 2230.6608, 29328.6598) scale(0.2503887994196496, 0.2503887994196496)" opacity="1"><g transform="scale(3.9937888688223953)"><path d="M0.5467,0.3124 T0.309,0.7255 -0.2593,1.839 -0.7834,3.3036 -1.0457,4.8039 -0.8714,4.9623 -0.6283,4.3846 A0.6065,0.6065 0 0 1 0.3993,3.7401 T0.6085,4.5831 0.5697,6.0705 -0.4116,6.9141 -1.6012,6.6957 -2.1899,5.6819 -2.2568,4.4534 -1.9531,2.9129 -1.3661,1.2608 -0.782,0.1023 -0.5467,-0.3124 A0.6296,0.6296 0 0 1 0.5467,0.3124 ZM-0.1503,4.6678 T-0.3595,4.651 -0.8017,4.6157 -1.0347,4.5972 A0.5882,0.5882 0 0 1 -0.9653,3.4228 T-0.7317,3.4319 -0.2884,3.449 -0.0787,3.4569 A0.6065,0.6065 0 0 1 -0.1503,4.6678 Z" stroke-linecap="round" fill="#e599f7"/></g></g><g transform="matrix(1, 0, 0, 1, 2233.4151, 29329.9118) scale(0.2503887994196496, 0.2503887994196496)" opacity="1"><g transform="scale(3.9937888688223953)"><path d="M0.5907,0.2532 T0.4066,0.6637 0.02,1.688 -0.3657,3.0936 0.0599,3.9003 0.8626,3.3568 0.6917,2.2294 0.3267,1.6601 A0.5894,0.5894 0 0 1 1.1733,0.8399 T1.6799,1.3885 2.1908,2.7002 1.9564,4.0202 1.3612,5.059 0.3574,5.7622 -0.8923,5.4515 -1.6181,4.3218 -1.538,2.8027 -1.1332,1.2312 -0.7614,0.164 -0.5907,-0.2532 A0.6427,0.6427 0 0 1 0.5907,0.2532 Z" stroke-linecap="round" fill="#e599f7"/></g></g><g transform="matrix(1, 0, 0, 1, 2236.9205, 29328.1591) scale(0.2503887994196496, 0.2503887994196496)" opacity="1"><g transform="scale(3.9937888688223953)"><path d="M0.5921,0.148 T0.4738,0.621 0.2479,0.8313 0.1403,0.5687 A0.6136,0.6136 0 0 1 1.3597,0.4313 T1.398,0.7451 1.3723,1.739 0.6044,2.7543 -0.5069,2.5869 -0.8714,1.4411 -0.7103,0.325 -0.5921,-0.148 A0.6104,0.6104 0 0 1 0.5921,0.148 Z" stroke-linecap="round" fill="#e599f7"/></g></g><g transform="matrix(1, 0, 0, 1, 2206.6234, 29284.5914) scale(0.2503887994196496, 0.2503887994196496)" opacity="1"><g transform="scale(3.9937888688223953)"><path d="M0.5787,0.229 T0.4923,0.4354 -0.0938,1.4046 -0.9408,2.6538 -1.8216,3.561 -2.9714,4.1651 -4.4702,4.2471 -5.6738,4.0101 -5.9952,3.8746 A0.658,0.658 0 0 1 -5.5248,2.6454 T-5.195,2.759 -4.1524,2.8957 -2.8819,2.6047 -1.8104,1.6386 -0.9694,0.4712 -0.6105,-0.1366 -0.5787,-0.229 A0.6224,0.6224 0 0 1 0.5787,0.229 Z" stroke-linecap="round" fill="#e599f7"/></g></g><g transform="matrix(1, 0, 0, 1, 2202.8676, 29291.1015) scale(0.2503887994196496, 0.2503887994196496)" opacity="1"><g transform="scale(3.9937888688223953)"><path d="M0,-0.6327 T0.3684,-0.6326 1.3468,-0.3349 2.2693,0.6578 2.2868,1.9921 1.7867,2.8253 1.5816,3.0194 A0.657,0.657 0 0 1 0.6844,2.0595 T0.825,1.9304 0.8239,1.2169 0.3411,0.6326 0,0.6327 A0.6327,0.6327 0 0 1 0,-0.6327 ZM1.6585,2.1452 T1.7424,2.2618 2.2613,2.8184 2.8072,3.9313 2.9182,4.6044 A0.6499,0.6499 0 0 1 1.6334,4.4073 T1.6701,4.248 1.276,3.6649 0.7263,3.0874 0.6074,2.9337 A0.657,0.657 0 0 1 1.6585,2.1452 ZM2.4613,5.1287 T2.1156,5.2295 0.9511,5.2236 0.1323,5.1169 A0.6182,0.6182 0 0 1 0.3677,3.9031 T0.9584,3.9758 1.8197,3.9657 2.0902,3.8829 A0.6499,0.6499 0 0 1 2.4613,5.1287 Z" stroke-linecap="round" fill="#e599f7"/></g></g><g transform="matrix(1, 0, 0, 1, 2207.1242, 29291.3519) scale(0.2503887994196496, 0.2503887994196496)" opacity="1"><g transform="scale(3.9937888688223953)"><path d="M0.6241,0.406 T0.5035,0.8784 0.4149,2.0799 0.8796,2.4009 1.063,1.338 0.5704,0.4341 0.3271,0.1851 A0.6068,0.6068 0 0 1 1.1729,-0.6851 T1.7216,-0.1495 2.4521,1.2232 2.5212,2.857 1.908,4.0537 0.7707,4.3339 -0.4055,3.4154 -0.9004,1.829 -0.74,0.5676 -0.6241,0.094 A0.6433,0.6433 0 0 1 0.6241,0.406 Z" stroke-linecap="round" fill="#e599f7"/></g></g><g transform="matrix(1, 0, 0, 1, 2209.1273, 29289.3488) scale(0.2503887994196496, 0.2503887994196496)" opacity="1"><g transform="scale(3.9937888688223953)"><path d="M0.5483,0.1097 T0.4759,0.3366 0.5676,0.6801 0.7318,0.7968 A0.5723,0.5723 0 0 1 -0.1998,1.4619 T-0.4199,1.0405 -0.5942,0.2547 -0.5483,-0.1097 A0.5592,0.5592 0 0 1 0.5483,0.1097 ZM-0.0109,0.6285 T0.0442,0.5975 0.0993,0.5665 A0.5733,0.5733 0 0 1 0.654,1.5699 T0.5984,1.6001 0.5429,1.6303 A0.5723,0.5723 0 0 1 -0.0109,0.6285 ZM-0.1928,1.0024 T-0.1605,0.7502 -0.0923,0.2168 -0.0565,-0.0643 A0.5602,0.5602 0 0 1 1.0565,0.0643 T1.0273,0.3461 0.9721,0.8809 0.9461,1.1339 A0.5733,0.5733 0 0 1 -0.1928,1.0024 Z" stroke-linecap="round" fill="#e599f7"/></g></g><g transform="matrix(1, 0, 0, 1, 2230.6608, 29297.1108) scale(0.2503887994196496, 0.2503887994196496)" opacity="1"><g transform="scale(3.9937888688223953)"><path d="M0.1466,0.7332 T-0.1485,0.7872 -0.3522,1.5336 0.1143,2.6879 0.6983,3.8361 0.3597,5.1715 -0.9276,5.7006 -2.2007,5.3712 -2.7341,5.1618 A0.6926,0.6926 0 0 1 -2.2659,3.8582 T-1.5286,3.7899 -1.2844,3.2089 -2.1448,2.1912 -2.3131,0.9337 -1.4265,-0.2117 -0.4427,-0.6689 -0.1466,-0.7332 A0.7477,0.7477 0 0 1 0.1466,0.7332 Z" stroke-linecap="round" fill="#f76707"/></g></g><g transform="matrix(1, 0, 0, 1, 2200.1133, 29341.68) scale(0.2503887994196496, 0.2503887994196496)" opacity="1"><g transform="scale(3.9937888688223953)"><path d="M1.0428,-0.1133 T1.0898,0.3024 1.347,1.3474 2.2931,2.329 3.6842,2.9429 5.0569,3.4402 6.6013,3.701 8.201,3.792 9.6623,3.988 11.1237,4.1465 12.6652,4.2556 14.0289,4.3633 15.3071,4.3933 16.727,4.3947 18.0812,4.2841 19.3683,4.1583 20.6585,4.0932 22.1814,4.0508 23.8146,4.2912 25.0798,5.0307 25.8671,6.2842 26.1326,7.643 25.9233,9.0156 25.7014,9.7782 A0.8513,0.8513 0 0 1 24.2145,8.9489 T24.3263,8.8253 24.417,7.9348 24.0591,6.6132 23.1228,5.8612 21.7626,5.7736 20.319,5.8887 18.8739,5.9337 17.2944,6.0476 15.7436,6.113 14.2959,6.0662 12.7302,5.93 11.1937,5.8033 9.8215,5.6304 8.2728,5.3834 6.7355,5.2511 5.3723,5.0594 3.961,4.6289 2.6963,4.1047 1.4425,3.5491 0.3013,2.7335 -0.2637,1.5777 -0.4716,0.5254 -0.5428,0.1133 A0.8009,0.8009 0 0 1 1.0428,-0.1133 ZM24.2145,9.7782 T24.0772,9.5179 23.9079,8.3232 24.0059,6.7464 24.6192,5.5473 25.6703,4.6751 26.9148,4.1073 28.4311,3.7535 29.9001,3.6797 31.3925,3.7982 32.9172,3.921 34.2184,3.9575 35.4555,4.0555 36.8885,4.1761 38.3796,4.2077 39.8307,4.2118 41.3371,4.2119 42.6445,4.107 43.8642,3.8792 45.2353,3.5852 46.632,3.185 47.8438,2.5849 48.9209,1.728 49.8984,0.6206 50.3611,-0.0012 A0.7616,0.7616 0 0 1 51.7989,0.5012 T51.7142,0.7794 51.0913,1.7315 49.9856,2.9343 48.8972,3.845 47.6949,4.4801 46.3765,4.9343 44.9829,5.2562 43.5937,5.4987 42.2826,5.715 40.8073,5.8083 39.2833,5.8052 37.8518,5.7952 36.5082,5.7591 35.1574,5.6427 33.7671,5.5449 32.3811,5.4508 31.0851,5.3279 29.6859,5.2168 28.2636,5.3021 26.9605,5.7836 25.9081,6.6952 25.5217,7.9471 25.5992,8.7796 25.7014,8.9488 A0.8513,0.8513 0 0 1 24.2145,9.7782 Z" stroke-linecap="round" fill="#ae3ec9"/></g></g><g transform="matrix(1, 0, 0, 1, 2225.1522, 29354.4499) scale(0.2503887994196496, 0.2503887994196496)" opacity="1"><g transform="scale(3.9937888688223953)"><path d="M0.2964,0.5929 T-0.0572,0.7723 -0.6292,1.0912 -0.8477,1.2307 A0.6716,0.6716 0 0 1 -1.5556,0.0892 T-1.2819,-0.0765 -0.6523,-0.4175 -0.2964,-0.5929 A0.6628,0.6628 0 0 1 0.2964,0.5929 ZM-0.5378,0.5583 T-0.5166,0.755 -0.1368,1.4392 0.4055,2.5234 0.2865,3.6403 -0.6896,4.3825 -2.2835,4.3924 -3.5951,4.0302 -3.9862,3.8798 A0.6598,0.6598 0 0 1 -3.5338,2.6402 T-2.8654,2.8803 -1.6024,2.7676 -1.3746,1.9359 -1.8034,1.1094 -1.8655,0.7616 A0.6716,0.6716 0 0 1 -0.5378,0.5583 Z" stroke-linecap="round" fill="#ae3ec9"/></g></g><g transform="matrix(1, 0, 0, 1, 2227.6561, 29359.2073) scale(0.2503887994196496, 0.2503887994196496)" opacity="1"><g transform="scale(3.9937888688223953)"><path d="M0.1256,0.8778 T-0.4641,1.005 -1.7552,1.2115 -3.419,1.2948 -5.0018,1.2695 -6.4463,1.2051 -7.2704,1.1698 A0.6699,0.6699 0 0 1 -7.2496,-0.1698 T-6.4081,-0.1792 -4.9046,-0.1505 -3.413,-0.0905 -1.9472,-0.1139 -0.7184,-0.2685 -0.1256,-0.3778 A0.6403,0.6403 0 0 1 0.1256,0.8778 Z" stroke-linecap="round" fill="#ae3ec9"/></g></g><g transform="matrix(1, 0, 0, 1, 2223.1491, 29361.4608) scale(0.2503887994196496, 0.2503887994196496)" opacity="1"><g transform="scale(3.9937888688223953)"><path d="M0.2111,-0.7389 T0.6232,-0.6127 1.6302,-0.0931 2.2658,0.9653 1.8045,2.1902 0.6053,3.2034 -0.0919,3.6566 A0.7082,0.7082 0 0 1 -0.8056,2.4331 T-0.566,2.2953 0.1469,1.5584 0.2046,0.8492 -0.2111,0.7389 A0.7685,0.7685 0 0 1 0.2111,-0.7389 ZM0.2553,3.1225 T0.2441,3.2326 0.233,3.3427 A0.7102,0.7102 0 0 1 -1.1789,3.187 T-1.1658,3.0771 -1.1527,2.9672 A0.7082,0.7082 0 0 1 0.2553,3.1225 ZM-0.0495,2.6947 T0.1237,2.8209 1.0807,3.0723 2.225,3.2401 2.5856,3.2827 A0.7324,0.7324 0 0 1 2.4144,4.7373 T1.6812,4.6479 0.2501,4.3659 -0.6721,4.0041 -0.8965,3.835 A0.7102,0.7102 0 0 1 -0.0495,2.6947 Z" stroke-linecap="round" fill="#ae3ec9"/></g></g><g transform="matrix(1, 0, 0, 1, 2206.8738, 29312.6349) scale(0.2503887994196496, 0.2503887994196496)" opacity="1"><g transform="scale(3.9937888688223953)"><path d="M0.5452,0.2726 T0.3712,0.6292 -0.2127,1.5102 -1.1335,2.6608 -2.0793,3.8171 -2.7767,4.6338 -3.0394,4.9205 A0.6245,0.6245 0 0 1 -3.9806,4.0995 T-3.5254,3.5499 -2.4818,2.3161 -1.4001,1.0326 -0.726,0.0803 -0.5452,-0.2726 A0.6095,0.6095 0 0 1 0.5452,0.2726 Z" stroke-linecap="round" fill="#ffc034"/></g></g><g transform="matrix(1, 0, 0, 1, 2203.3684, 29313.1357) scale(0.2503887994196496, 0.2503887994196496)" opacity="1"><g transform="scale(3.9937888688223953)"><path d="M0.6892,-0.3446 T0.8652,0.011 1.3275,0.9032 2.0616,1.9129 3.1075,3.0133 3.9302,3.9841 4.1547,4.3276 A0.7763,0.7763 0 0 1 2.8653,5.1924 T2.6327,4.8544 1.8831,3.9938 0.8671,2.9123 0.0182,1.7028 -0.5105,0.6985 -0.6892,0.3446 A0.7705,0.7705 0 0 1 0.6892,-0.3446 Z" stroke-linecap="round" fill="#ffc034"/></g></g><g transform="matrix(1, 0, 0, 1, 2199.6126, 29334.6692) scale(0.2503887994196496, 0.2503887994196496)" opacity="1"><g transform="scale(3.9937888688223953)"><path d="M0.1698,-0.5942 T0.5865,-0.4859 1.7398,-0.1974 3.187,0.1242 4.535,0.1898 5.1726,0.114 A0.642,0.642 0 0 1 5.3474,1.386 T4.5466,1.5078 2.9984,1.4654 1.4517,1.0759 0.2413,0.7224 -0.1698,0.5942 A0.6179,0.6179 0 0 1 0.1698,-0.5942 Z" stroke-linecap="round" fill="#9398b0"/></g></g><g transform="matrix(1, 0, 0, 1, 2204.6203, 29335.6707) scale(0.2503887994196496, 0.2503887994196496)" opacity="1"><g transform="scale(3.9937888688223953)"><path d="M0.6466,0 T0.6477,0.473 0.5861,1.6027 0.4786,2.8805 0.2885,4.3123 0.1433,5.123 A0.6531,0.6531 0 0 1 -1.1433,4.897 T-1.0752,4.4925 -0.9199,3.2643 -0.7407,1.6933 -0.6477,0.473 -0.6466,0 A0.6466,0.6466 0 0 1 0.6466,0 Z" stroke-linecap="round" fill="#9398b0"/></g></g></svg>