<svg xmlns="http://www.w3.org/2000/svg" direction="ltr" width="666" height="784.622547068199" viewBox="-132.5 102 666 784.622547068199" stroke-linecap="round" stroke-linejoin="round" data-color-mode="dark" class="tl-container tl-theme__force-sRGB tl-theme__dark" style="background-color: transparent;"><defs/><g transform="matrix(1, 0, 0, 1, 90, 146)" opacity="1"><g transform="scale(1)"><path d="M-2.7946,-1.9962 T-1.5662,-3.6176 0.2069,-6.8749 0.7516,-8.5109 A3.2883,3.2883 0 0 1 7.2484,-7.4891 T6.1581,-4.4361 3.9312,0.3066 2.7946,1.9962 A3.4343,3.4343 0 0 1 -2.7946,-1.9962 ZM7.2448,-7.4669 T6.9618,-5.6959 5.9563,-0.9058 5.0778,4.1628 4.5722,8.9068 4.0527,14.5184 3.7394,20.1739 3.4911,25.5353 3.2713,30.2524 3.0452,34.6923 2.9338,37.0379 A2.934,2.934 0 0 1 -2.9338,36.9621 T-2.9845,34.6143 -3.0955,30.1485 -3.1574,25.3526 -3.1063,19.8429 -2.8513,13.8455 -2.2925,8.1158 -1.6496,3.0073 -0.5509,-2.5808 0.5083,-7.0789 0.7552,-8.5331 A3.2883,3.2883 0 0 1 7.2448,-7.4669 Z" stroke-linecap="round" fill="#e599f7"/></g></g><g transform="matrix(1, 0, 0, 1, 116, 134)" opacity="1"><g transform="scale(1)"><path d="M2.5193,-0.7956 T3.9497,3.6977 6.2568,13.8393 7.6045,23.8314 8.3431,31.6612 8.52,37.6213 7.717,42.3094 6.2931,46.6258 5.5817,48.7281 A2.6824,2.6824 0 0 1 0.4183,47.2719 T1.2775,43.4924 2.3003,37.6131 2.3159,32.1158 1.8509,24.4874 0.9148,15.0199 -1.1117,5.2893 -2.5193,0.7956 A2.6419,2.6419 0 0 1 2.5193,-0.7956 Z" stroke-linecap="round" fill="#e599f7"/></g></g><g transform="matrix(1, 0, 0, 1, 122, 170)" opacity="1"><g transform="scale(1)"><path d="M-0.5879,2.3514 T-2.5023,1.9682 -6.3743,1.1569 -10.3107,0.2732 -15.0841,-0.5699 -20.2752,-0.7145 -22.6718,-0.4715 A2.5497,2.5497 0 0 1 -23.3282,-5.5285 T-20.3692,-5.9807 -14.1704,-6.0278 -8.9697,-5.0933 -5.0799,-4.0204 -1.2817,-2.9142 0.5879,-2.3514 A2.4238,2.4238 0 0 1 -0.5879,2.3514 Z" stroke-linecap="round" fill="#e599f7"/></g></g><g transform="matrix(1, 0, 0, 1, 129, 167)" opacity="1"><g transform="scale(1)"><path d="M2.1415,-2.1415 T3.5161,-0.6768 6.7817,3.3534 9.9527,8.1081 12.13,11.2212 13.0273,12.1453 A2.9209,2.9209 0 0 1 8.6566,16.0215 T7.4399,14.5618 5.0922,11.104 2.3733,6.997 -0.6781,3.5148 -2.1415,2.1415 A3.0285,3.0285 0 0 1 2.1415,-2.1415 ZM8.6954,12.1024 T9.5116,11.2321 11.2169,8.121 13.1306,3.0838 16.0875,-2.359 19.1516,-5.9429 20.2833,-6.8805 A2.5462,2.5462 0 0 1 23.7167,-3.1195 T21.6657,-0.4735 18.6368,5.0829 16.5392,10.6977 14.2041,14.7332 12.9885,16.0644 A2.9209,2.9209 0 0 1 8.6954,12.1024 Z" stroke-linecap="round" fill="#e599f7"/></g></g><g transform="matrix(1, 0, 0, 1, 165, 170)" opacity="1"><g transform="scale(1)"><path d="M-2.0181,-2.0181 T-0.8106,-3.1718 0.0361,-1.477 -1.3547,3.5936 -2.2275,7.1174 -2.0702,8.4191 A2.8095,2.8095 0 0 1 -7.208,10.6943 T-7.6498,8.3856 -7.213,3.7237 -5.2303,-1.064 -2.544,-5.8374 1.5576,-8.5688 5.2722,-7.1775 5.4003,-2.8991 3.1756,0.8068 2.0181,2.0181 A2.854,2.854 0 0 1 -2.0181,-2.0181 ZM-4.7895,6.7513 T-3.6263,6.7077 -0.6717,4.8539 3.0929,0.9878 5.066,-1.068 A2.6671,2.6671 0 0 1 9.142,2.373 T7.788,3.9194 4.9624,7.0426 1.19,10.3815 -2.7998,12.2529 -4.4888,12.3622 A2.8095,2.8095 0 0 1 -4.7895,6.7513 ZM8.0795,-1.8299 T9.1975,-1.3763 12.2682,1.0096 16.0721,4.8638 20.9053,8.0512 23.8875,9.3165 A2.8265,2.8265 0 0 1 22.1125,14.6835 T19.1023,13.6316 13.9764,10.5971 9.7192,6.1452 6.853,3.4053 6.1286,3.1349 A2.6671,2.6671 0 0 1 8.0795,-1.8299 Z" stroke-linecap="round" fill="#e599f7"/></g></g><g transform="matrix(1, 0, 0, 1, 223, 169)" opacity="1"><g transform="scale(1)"><path d="M0,-3.0224 T1.6555,-2.9982 5.8385,-2.9729 10.5038,-2.9989 13.9867,-4.573 15.3784,-8.3001 13.4967,-9.5946 11.3066,-5.8064 11.5557,-0.1667 13.8623,4.7221 18.2921,7.8664 23.7593,8.7196 28.798,7.1729 32.2372,3.9455 33.838,0.1106 34.4349,-4.4308 36.7536,-8.8732 41.5962,-10.3166 46.9763,-9.3296 51.6876,-8.9243 55.5549,-9.3857 57.3369,-9.7379 A2.817,2.817 0 0 1 58.6631,-4.2621 T56.9175,-3.7599 53.0623,-2.7701 48.3227,-2.7214 43.4748,-4.0534 41.0758,-2.86 40.0907,2.3365 37.2024,8.1801 33.3959,12.1791 29.7523,14.1631 25.6219,15.1972 21.2961,15.1633 17.0435,14.0985 13.0023,12.0643 9.8256,9.1456 7.1431,3.86 5.6394,-3.0186 6.3405,-9.2745 9.0615,-13.8961 13.5119,-15.956 18.1381,-15.2926 21.056,-11.735 21.5106,-6.632 19.6558,-1.5779 15.4188,1.8959 10.5212,2.9989 5.8385,2.9729 1.6555,2.9982 0,3.0224 A3.0224,3.0224 0 0 1 0,-3.0224 Z" stroke-linecap="round" fill="#e599f7"/></g></g><g transform="matrix(1, 0, 0, 1, 119, 289)" opacity="1"><g transform="scale(1)"><path d="M2.8523,1.7114 T1.4422,4.0818 -1.4642,8.7115 -4.4533,13.1147 -7.134,17.222 -9.7235,21.2865 -12.4155,25.0113 -15.3784,27.9031 -18.5916,30.2774 -20.1325,31.3837 A3.0281,3.0281 0 0 1 -23.8675,26.6163 T-22.4246,25.385 -18.8775,21.8636 -15.4366,17.6184 -12.7846,13.5197 -10.007,9.3175 -7.1264,5.1332 -4.2802,0.6482 -2.8523,-1.7114 A3.3263,3.3263 0 0 1 2.8523,1.7114 Z" stroke-linecap="round" fill="#e599f7"/></g></g><g transform="matrix(1, 0, 0, 1, 98, 295)" opacity="1"><g transform="scale(1)"><path d="M2.5581,-2.2383 T4.2011,-0.3354 8.4485,4.5602 13.106,10.4115 16.6346,15.0221 19.9765,17.9102 21.843,19.0464 A3.4814,3.4814 0 0 1 18.157,24.9536 T16.9337,24.2233 13.4491,21.5922 9.4605,17.2211 5.6202,11.8787 2.1425,7.5036 -0.8901,4.1194 -2.5581,2.2383 A3.3991,3.3991 0 0 1 2.5581,-2.2383 Z" stroke-linecap="round" fill="#e599f7"/></g></g><g transform="matrix(1, 0, 0, 1, 123, 246)" opacity="1"><g transform="scale(1)"><path d="M2.493,-0.6233 T2.9941,1.2707 3.5785,5.1955 2.6017,10.1856 0.4373,14.3773 -0.667,15.6097 A2.8008,2.8008 0 0 1 -4.6793,11.7009 T-3.627,10.3755 -2.0889,6.7268 -2.0481,2.5133 -2.493,0.6233 A2.5697,2.5697 0 0 1 2.493,-0.6233 ZM-2.9111,10.8647 T-1.7617,10.798 2.1531,10.5845 7.9954,11.061 13.209,13.7699 15.6861,18.532 14.5695,23.9642 10.6699,28.7694 4.8472,31.6105 -1.6625,31.5361 -4.7923,30.6702 A2.7853,2.7853 0 0 1 -3.2077,25.3298 T-0.0302,25.8018 5.0426,25.5183 8.4585,23.3385 9.738,19.3435 7.3068,16.2873 2.8189,15.9666 -0.9571,16.2886 -2.4351,16.446 A2.8008,2.8008 0 0 1 -2.9111,10.8647 Z" stroke-linecap="round" fill="#e599f7"/></g></g><g transform="matrix(1, 0, 0, 1, 120, 243)" opacity="1"><g transform="scale(1)"><path d="M0.2261,-2.9397 T3.3054,-2.7654 8.4514,-2.5301 12.8548,-2.9576 17.1353,-4.9869 19.0791,-6.5276 A3.1747,3.1747 0 0 1 22.9209,-1.4724 T21.6502,-0.4615 18.6891,1.7254 13.5758,3.4075 8.0331,3.7254 2.8436,3.2384 -0.2261,2.9397 A2.9483,2.9483 0 0 1 0.2261,-2.9397 Z" stroke-linecap="round" fill="#e599f7"/></g></g><g transform="matrix(1, 0, 0, 1, 150, 304)" opacity="1"><g transform="scale(1)"><path d="M 0 0 m -3.663919189857866, 0 a 3.663919189857866,3.663919189857866 0 1,1 7.327838379715732,0 a 3.663919189857866,3.663919189857866 0 1,1 -7.327838379715732,0" stroke-linecap="round" fill="#e599f7"/></g></g><g transform="matrix(1, 0, 0, 1, 178, 297)" opacity="1"><g transform="scale(1)"><path d="M0.4063,-2.8441 T2.0589,-2.5877 5.7018,-2.292 9.6479,-3.5883 13.149,-6.6241 15.6569,-10.8853 14.751,-12.1609 11.0841,-8.6233 7.6691,-3.2075 5.158,3.1716 4.5904,8.5354 6.8849,12.4162 11.2643,14.4419 17.1648,14.4672 23.6895,13.5935 29.8254,11.7517 32.9257,10.516 A2.7063,2.7063 0 0 1 35.0743,15.484 T33.3612,16.2883 28.1564,18.3273 20.9306,19.894 13.2805,20.0685 6.345,18.4662 1.6071,14.4315 -0.4403,8.6657 0.28,1.7332 2.1629,-4.0046 5.062,-9.1277 9.2036,-14.4782 13.8182,-18.0847 18.4748,-18.8979 21.5575,-16.0991 22.0252,-11.6718 20.3652,-7.071 17.2056,-2.5853 13.2356,0.9424 9.1394,3.0151 4.9638,3.4678 1.2521,3.0607 -0.4063,2.8441 A2.873,2.873 0 0 1 0.4063,-2.8441 Z" stroke-linecap="round" fill="#e599f7"/></g></g><g transform="matrix(1, 0, 0, 1, 223, 256)" opacity="1"><g transform="scale(1)"><path d="M2.3157,0 T2.2951,1.2843 0.5827,5.5103 -3.3575,11.3645 -7.6739,17.3456 -11.3529,23.2583 -12.9638,26.1024 A2.3155,2.3155 0 0 1 -17.0362,23.8976 T-16.2045,22.2841 -13.5828,17.787 -10.6821,13.1024 -7.344,8.5564 -3.6955,3.9864 -2.2951,1.0807 -2.3157,0 A2.3157,2.3157 0 0 1 2.3157,0 Z" stroke-linecap="round" fill="#e599f7"/></g></g><g transform="matrix(1, 0, 0, 1, 211, 259)" opacity="1"><g transform="scale(1)"><path d="M1.5133,-1.5133 T3.1885,0.1232 7.0147,3.9786 10.6636,7.5227 14.9516,9.887 17.7417,10.926 A2.2026,2.2026 0 0 1 16.2583,15.074 T13.0623,13.9724 7.994,11.2296 3.9401,7.2254 0.1225,3.1878 -1.5133,1.5133 A2.1401,2.1401 0 0 1 1.5133,-1.5133 Z" stroke-linecap="round" fill="#e599f7"/></g></g><g transform="matrix(1, 0, 0, 1, 234, 211)" opacity="1"><g transform="scale(1)"><path d="M2.3583,0.5896 T1.8728,2.4785 0.4024,7.9372 -1.5499,15.3743 -2.8718,22.4074 -2.141,27.314 1.4,28.7113 5.3984,27.0447 6.7602,23.635 4.6694,20.5337 1.0102,20.6768 -2.6139,23.6643 -4.4888,25.4941 A2.1251,2.1251 0 0 1 -7.5112,22.5059 T-6.56,21.5106 -3.7848,18.6694 0.6735,15.9323 5.5317,15.5665 9.2919,17.9041 11.3901,22.0379 11.1966,26.6531 8.8751,30.5014 5.0066,32.9333 0.0708,33.7976 -4.7441,32.3474 -7.5417,28.043 -7.7105,21.6063 -6.7498,16.078 -5.7293,12.1941 -4.2509,6.7347 -2.8188,1.3055 -2.3583,-0.5896 A2.4308,2.4308 0 0 1 2.3583,0.5896 Z" stroke-linecap="round" fill="#e599f7"/></g></g><g transform="matrix(1, 0, 0, 1, 277, 285)" opacity="1"><g transform="scale(1)"><path d="M0.3838,2.3025 T-2.4527,2.762 -8.2682,4.8009 -12.0527,8.4771 -12.8905,13.4228 -12.0418,18.9684 -9.5475,23.3263 -5.9252,26.1885 -2.1634,26.1039 1.3994,21.3423 4.2268,15.5381 5.9817,10.5008 7.1342,5.0067 7.7999,-0.8945 7.9584,-7.2316 7.6059,-13.5694 6.9689,-19.4973 5.9456,-24.6124 4.7126,-28.8963 2.822,-33.1749 0.9274,-36.4729 0.3373,-37.4718 A2.2617,2.2617 0 0 1 3.5228,-40.6832 T4.4537,-39.2829 6.9564,-35.0417 9.1333,-30.1755 10.4547,-25.5486 11.5857,-20.0377 12.3441,-13.8801 12.8442,-7.1585 12.8255,-0.3827 12.2573,6.0326 11.0686,12.2418 9.2787,17.7439 7.1791,22.586 4.9245,26.7482 2.2773,29.9783 -2.4905,31.9284 -8.44,30.6664 -13.3854,26.2468 -16.6316,20.0818 -17.4421,12.9385 -15.6467,6.0049 -12.2227,1.5042 -8.2435,-0.5413 -3.2233,-1.816 -0.3838,-2.3025 A2.3343,2.3343 0 0 1 0.3838,2.3025 ZM2.1178,-36.8236 T1.8977,-36.8069 1.6776,-36.7901 A2.2585,2.2585 0 0 1 1.3026,-41.2916 T1.5224,-41.3115 1.7422,-41.3313 A2.2617,2.2617 0 0 1 2.1178,-36.8236 ZM3.7011,-38.5798 T3.5398,-37.8481 3.5797,-34.7714 4.2509,-28.942 4.931,-23.2098 5.5033,-18.4828 6.3247,-13.0246 7.512,-6.6658 9.3276,0.3068 11.4891,7.2422 13.3684,13.0574 15.3376,17.0004 16.5011,18.4709 A2.941,2.941 0 0 1 13.4989,23.5291 T11.7327,22.276 9.1509,19.1956 7.5743,14.8589 5.8121,8.931 3.7562,1.6614 2.057,-5.755 1.0624,-12.3394 0.4363,-17.9782 0.0568,-22.6403 -0.4029,-28.1931 -0.9328,-34.6366 -0.9136,-38.5358 -0.7209,-39.5018 A2.2585,2.2585 0 0 1 3.7011,-38.5798 Z" stroke-linecap="round" fill="#e599f7"/></g></g><g transform="matrix(1, 0, 0, 1, 327, 275)" opacity="1"><g transform="scale(1)"><path d="M2.3308,1.0877 T0.6997,4.6466 -2.9696,12.2691 -6.8406,19.2707 -10.1374,24.2348 -13.8583,28.6601 -18.7594,31.7653 -21.4035,32.4711 A2.5421,2.5421 0 0 1 -22.5965,27.5289 T-21.0316,27.2187 -17.7737,24.9624 -14.7095,21.1278 -11.5861,16.5444 -7.7623,9.917 -4.0107,2.4484 -2.3308,-1.0877 A2.5721,2.5721 0 0 1 2.3308,1.0877 Z" stroke-linecap="round" fill="#e599f7"/></g></g><g transform="matrix(1, 0, 0, 1, 313, 287)" opacity="1"><g transform="scale(1)"><path d="M1.675,-1.8425 T4.3229,0.4715 8.8769,4.4635 13.0386,8.9188 16.2389,13.0533 17.1838,14.4105 A2.7011,2.7011 0 0 1 12.8162,17.5895 T11.8152,16.2732 8.9065,12.5764 5.2171,8.4352 0.8801,4.2585 -1.675,1.8425 A2.49,2.49 0 0 1 1.675,-1.8425 Z" stroke-linecap="round" fill="#e599f7"/></g></g><g transform="matrix(1, 0, 0, 1, 75, 260)" opacity="1"><g transform="scale(1)"><path d="M-2.6946,0.8982 T-2.9169,0.184 -3.1391,-0.5303 A2.8103,2.8103 0 0 1 2.1931,-2.3077 T2.4439,-1.603 2.6946,-0.8982 A2.8404,2.8404 0 0 1 -2.6946,0.8982 ZM-0.3779,1.3897 T-0.639,1.2593 -2.4293,4.2991 -5.0073,10.4948 -6.5666,15.4538 -7.5742,19.3533 -8.6712,25.213 -9.537,32.55 -10.1039,38.0648 -10.6143,43.1088 -10.5178,48.7974 -9.601,53.4988 -7.0238,56.9306 -2.9502,57.9295 1.5298,55.6632 4.7709,51.6522 4.9938,46.8751 2.3973,43.1999 -1.4879,42.6074 -5.6967,45.1013 -9.155,48.0429 -10.3393,48.9886 A2.5908,2.5908 0 0 1 -13.6607,45.0114 T-11.6648,43.2848 -7.9312,39.9517 -3.43,37.4001 1.5783,36.8137 5.7048,38.4668 8.9903,41.9539 10.9587,46.6303 11.0277,51.2791 9.3275,55.7355 6.0769,59.9555 1.3798,63.1302 -4.153,64.3041 -9.362,62.9744 -13.2175,59.5986 -15.4945,54.7128 -16.5289,48.8482 -16.5539,42.4993 -15.8909,35.4956 -14.8787,27.9597 -13.9447,22.0231 -13.0825,17.8831 -11.9869,13.917 -10.1071,8.3452 -7.5322,2.2892 -4.739,-2.0168 -1.8829,-4.0439 -0.5681,-4.2277 A2.8103,2.8103 0 0 1 -0.3779,1.3897 Z" stroke-linecap="round" fill="#e599f7"/></g></g><g transform="matrix(1, 0, 0, 1, 39, 235)" opacity="1"><g transform="scale(1)"><path d="M-2.7041,0.208 T-2.8777,-2.871 -3.3872,-8.1799 -5.0956,-13.4056 -7.9593,-18.3384 -11.0742,-19.0012 -13.2779,-15.21 -14.2503,-9.1689 -14.599,-1.8606 -14.2325,3.9103 -13.4914,8.1486 -12.6104,12.77 -11.6579,17.5697 -10.4482,22.6005 -9.0903,27.8487 -7.6634,33.2205 -6.19,38.9147 -4.7042,44.4849 -3.201,50.2851 -1.8924,56.8168 -0.7374,63.3047 0.3388,69.7975 1.3837,76.7987 2.4165,83.7818 3.2269,90.6248 3.6877,97.6618 3.7192,104.1021 3.0228,109.9195 1.382,115.4685 -1.1151,120.1828 -4.5063,123.7706 -8.7476,126.1441 -13.7911,126.9136 -19.1092,125.9333 -23.8796,123.7371 -27.875,120.9136 -31.3246,117.8782 -33.0068,116.3789 A3.1123,3.1123 0 0 1 -28.9932,111.6211 T-25.9087,114.0974 -19.3933,118.2173 -13.179,119.7497 -8.1121,117.5467 -4.9004,113.4389 -3.4165,109.0318 -2.6712,104.0351 -2.5966,98.0331 -2.9515,91.3331 -3.689,84.6754 -4.6958,77.7084 -5.7262,70.8043 -6.7927,64.3741 -7.9085,58.0083 -9.1139,51.8176 -10.586,46.0422 -12.0532,40.4175 -13.4909,34.7421 -14.8949,29.3099 -16.2164,23.9301 -17.3983,18.6668 -18.2914,13.8059 -19.1174,9.0713 -19.8203,4.5316 -20.2695,-0.0793 -19.9314,-6.1993 -19.0737,-13.299 -17.7657,-19.4777 -14.7549,-24.0623 -10.2328,-25.5723 -5.8092,-23.5215 -1.9487,-18.636 0.6286,-13.3676 1.719,-8.7777 2.4047,-3.278 2.7041,-0.208 A2.7121,2.7121 0 0 1 -2.7041,0.208 Z" stroke-linecap="round" fill="#e599f7"/></g></g><g transform="matrix(1, 0, 0, 1, -68.5, 256.5)" opacity="1"><g transform="scale(1)"><path d="M2.5059,-1.0441 T3.6791,1.799 5.5349,6.9959 7.1556,13.3098 8.2901,19.3331 8.6154,23.6725 9.0665,28.4282 9.5945,33.7705 9.92,39.5584 10.1173,45.4432 10.4658,51.0014 10.8908,56.0466 11.1125,60.4945 10.9614,65.456 10.7425,68.4163 A3.2746,3.2746 0 0 1 4.2647,67.4527 T4.4255,66.3528 4.4677,62.064 4.231,56.5503 3.8677,51.3609 3.6181,45.5765 3.5778,39.8109 3.4525,34.2623 3.1252,28.8637 2.7335,22.1431 1.7924,14.4706 0.4415,8.7663 -1.3141,3.877 -2.5059,1.0441 A2.7147,2.7147 0 0 1 2.5059,-1.0441 ZM7.9261,71.1817 T7.8065,71.1931 7.6868,71.2045 A3.2663,3.2663 0 0 1 6.844,64.7264 T6.9625,64.7069 7.0811,64.6873 A3.2746,3.2746 0 0 1 7.9261,71.1817 ZM4.4477,69.6175 T3.7964,68.3591 2.2867,65.2213 1.4283,63.342 A2.9008,2.9008 0 0 1 6.5717,60.658 T7.5918,62.3786 9.3475,65.2062 10.0831,66.3134 A3.2663,3.2663 0 0 1 4.4477,69.6175 Z" stroke-linecap="round" fill="#f2f2f2"/></g></g><g transform="matrix(1, 0, 0, 1, -71.5, 249.5)" opacity="1"><g transform="scale(1)"><path d="M2.9895,0.4983 T2.7316,1.9318 0.8385,6.3036 -3.4365,11.968 -8.8949,17.5619 -14.6725,22.9068 -20.0167,27.556 -23.7889,31.4872 -25.9796,34.3549 -26.7833,35.4632 A2.6561,2.6561 0 0 1 -31.2167,32.5368 T-30.5135,31.3622 -28.1759,27.8048 -24.1464,23.0824 -20.1965,19.3623 -15.9078,15.7316 -11.6469,11.8154 -7.9059,7.9663 -4.5557,4.0468 -3.2046,0.9062 -2.9895,-0.4983 A3.0308,3.0308 0 0 1 2.9895,0.4983 Z" stroke-linecap="round" fill="#f2f2f2"/></g></g><g transform="matrix(1, 0, 0, 1, -39.5, 327.5)" opacity="1"><g transform="scale(1)"><path d="M-0.1419,-1.7859 T1.425,-1.9394 2.9919,-2.0929 A1.8495,1.8495 0 0 1 3.2848,1.5944 T1.7133,1.6902 0.1419,1.7859 A1.7916,1.7916 0 0 1 -0.1419,-1.7859 ZM3.9626,1.4063 T2.8738,1.9471 1.7849,2.4878 A1.8469,1.8469 0 0 1 0.1386,-0.819 T1.2263,-1.3619 2.3141,-1.9049 A1.8495,1.8495 0 0 1 3.9626,1.4063 ZM-0.2997,2.1835 T-0.7597,1.7454 -1.7325,0.8196 -2.2453,0.3318 A1.8233,1.8233 0 0 1 0.2453,-2.3318 T0.7664,-1.8528 1.7553,-0.9443 2.2232,-0.5146 A1.8469,1.8469 0 0 1 -0.2997,2.1835 Z" stroke-linecap="round" fill="#f2f2f2"/></g></g><g transform="matrix(1, 0, 0, 1, -80.5, 498.5)" opacity="1"><g transform="scale(1)"><path d="M-2.4669,-1.0572 T-1.7379,-2.7051 0.8357,-6.5791 5.217,-9.856 10.6044,-10.9409 16.6828,-9.9232 22.646,-6.5751 26.4847,-2.4725 28.9781,2.7828 30.7532,8.5749 31.0949,13.226 30.7851,17.922 30.1341,22.5327 29.0383,27.0272 27.4853,31.6297 25.3812,36.1239 23.025,40.0287 20.5596,43.5166 17.6677,46.7371 13.8531,50.4537 9.3344,54.6464 5.2741,58.6424 5.4413,60.6875 10.528,60.3993 17.5398,59.2686 24.8704,57.5344 31.8909,56.2669 35.5095,55.8899 A3.1485,3.1485 0 0 1 36.4905,62.1101 T34.7247,62.4905 29.8425,63.689 24.7804,64.9827 20.6402,65.8446 16.4481,66.552 10.8017,66.9694 4.7341,66.7988 0.3094,65.5358 -2.3697,62.1755 -1.3937,57.6166 1.8665,53.656 5.4247,50.1683 9.6926,46.1692 14.4407,41.2388 18.9574,35.2434 22.4981,27.8071 24.3273,21.6589 25.0895,15.6734 24.7074,8.2843 22.7788,2.2685 19.6427,-2.1377 15.2405,-4.855 10.0756,-5.6327 5.593,-3.9054 3.1569,-0.6059 2.4669,1.0572 A2.6839,2.6839 0 0 1 -2.4669,-1.0572 Z" stroke-linecap="round" fill="#f2f2f2"/></g></g><g transform="matrix(1, 0, 0, 1, -15.5, 559.5)" opacity="1"><g transform="scale(1)"><path d="M-0.3658,2.1948 T-1.784,1.9474 -5.6141,0.7982 -8.7696,-0.7607 -9.5132,-1.4178 A2.1923,2.1923 0 0 1 -6.4203,-4.5258 T-4.4471,-3.5859 -1.054,-2.4204 0.3658,-2.1948 A2.2251,2.2251 0 0 1 -0.3658,2.1948 ZM-9.1407,-4.8233 T-8.2293,-5.3102 -4.4256,-5.2356 -0.401,-3.6302 0.7312,-2.5863 A2.3189,2.3189 0 0 1 -2.6138,0.626 T-4.4434,-0.5029 -6.5329,-1.376 -6.7928,-1.1203 A2.1923,2.1923 0 0 1 -9.1407,-4.8233 ZM0.5461,0.7989 T-0.6249,1.7088 -4.7841,2.9156 -7.7725,3.2124 A2.2241,2.2241 0 0 1 -8.2275,-1.2124 T-5.8678,-1.4656 -2.9684,-2.2389 -2.4286,-2.7592 A2.3189,2.3189 0 0 1 0.5461,0.7989 Z" stroke-linecap="round" fill="#f2f2f2"/></g></g><g transform="matrix(1, 0, 0, 1, 40.5, 477.5)" opacity="1"><g transform="scale(1)"><path d="M-2.1833,0 T-2.1684,-2.6015 -2.1523,-7.2835 -2.1542,-11.4064 -2.1637,-15.4712 -2.1793,-19.5044 -2.7858,-25.3286 -3.9079,-32.1401 -5.2642,-37.7785 -7.1735,-42.3843 -9.4105,-46.1376 -12.6558,-48.7371 -15.5091,-47.4932 -16.794,-43.044 -17.4404,-37.6726 -17.5933,-31.096 -17.6147,-25.2525 -17.3746,-21.0088 -16.7748,-16.7601 -15.9775,-12.1402 -15.0833,-7.5975 -14.1342,-3.0749 -13.1475,1.6954 -12.1556,6.3117 -11.1565,10.873 -10.1484,15.6664 -9.1423,20.5554 -7.9389,25.1162 -6.5786,29.9139 -5.3482,35.186 -4.0262,40.1913 -2.6112,45.4555 -1.3637,50.938 -0.017,56.3247 1.41,62.0225 2.654,67.9623 3.7749,73.9309 4.8425,79.9131 5.8897,85.9021 6.7003,92.2396 7.376,98.9016 7.9752,105.7181 8.0702,112.8025 7.4112,120.2495 6.3688,127.5017 4.8614,134.502 2.613,141.4571 0.0042,147.9946 -2.8346,153.8988 -5.8453,158.8269 -8.6958,162.6968 -11.7439,165.5016 -17.4023,167.2718 -23.4647,167.0656 -27.5577,165.0671 -31.2855,162.4991 -34.9801,159.0746 -38.8896,154.943 -40.8787,152.8379 A2.6282,2.6282 0 0 1 -37.1213,149.1621 T-35.0604,151.1969 -29.7515,156.0861 -23.8036,160.5394 -18.772,161.9048 -14.2747,159.6923 -10.7263,155.7767 -7.9673,151.3739 -5.2432,145.8549 -2.6813,139.6917 -0.5034,133.3174 1.0032,126.6925 2.0898,119.7585 2.7781,112.8521 2.737,106.1636 2.1802,99.4109 1.5602,92.8903 0.8095,86.7788 -0.2083,80.8134 -1.2642,74.8822 -2.3775,69.0151 -3.578,63.2667 -4.9944,57.5562 -6.3507,52.0656 -7.5394,46.7809 -8.9522,41.4868 -10.3034,36.3303 -11.453,31.2954 -12.8136,26.4081 -14.0806,21.5666 -15.0696,16.6923 -16.0524,11.9347 -17.0357,7.3481 -18.0106,2.6837 -18.9608,-2.0787 -19.8922,-6.6692 -20.771,-11.3413 -21.5431,-16.1287 -22.1261,-20.7556 -22.3354,-25.2759 -22.2913,-29.569 -22.1669,-34.9583 -21.7223,-41.305 -20.6892,-46.5965 -18.2558,-51.1955 -13.5167,-53.371 -8.7244,-51.9121 -5.7236,-48.721 -3.2003,-44.3968 -0.9722,-39.0204 0.4631,-33.0197 1.3581,-27.8595 1.956,-23.6538 2.1793,-19.5062 2.1637,-15.4712 2.1542,-11.4064 2.1523,-7.2835 2.1684,-2.6015 2.1833,0 A2.1833,2.1833 0 0 1 -2.1833,0 Z" stroke-linecap="round" fill="#f76707"/></g></g><g transform="matrix(1, 0, 0, 1, 70.5, 509.5)" opacity="1"><g transform="scale(1)"><path d="M-2.8978,-1.9319 T-1.9438,-3.3527 1.5509,-7.1351 7.7873,-11.0071 14.6535,-12.8874 20.4472,-12.6456 24.8867,-9.9155 27.031,-5.5466 26.7467,-0.3478 24.558,5.7835 20.7814,12.4942 17.1539,17.7981 13.4434,22.4818 8.7494,27.3447 4.1496,30.8836 1.4945,33.0822 1.0282,33.6971 A3.5569,3.5569 0 0 1 -4.0964,28.763 T-1.7899,26.7999 2.2502,23.5512 5.8794,20.3149 10.2386,15.2239 13.8256,10.4126 16.6232,5.6355 19.3043,-0.1233 19.3294,-4.5118 15.7354,-5.9735 10.7936,-4.8915 6.6191,-2.493 3.8358,0.5147 2.8978,1.9319 A3.4827,3.4827 0 0 1 -2.8978,-1.9319 ZM0.0172,28.0292 T1.0708,28.5651 4.5648,29.5228 10.6995,30.0198 16.4316,30.1248 20.496,30.4382 26.158,31.0795 31.9531,31.6367 34.113,31.8362 A3.1658,3.1658 0 0 1 33.887,38.1638 T31.7183,38.2087 27.5407,38.3099 21.95,38.0493 16.2943,37.7115 10.1976,37.4868 3.3376,36.7006 -1.2926,35.2745 -3.0854,34.4309 A3.5569,3.5569 0 0 1 0.0172,28.0292 Z" stroke-linecap="round" fill="#f76707"/></g></g><g transform="matrix(1, 0, 0, 1, 145.5, 515.5)" opacity="1"><g transform="scale(1)"><path d="M3.0216,1.1331 T2.3159,3.0294 0.447,7.0999 -2.0874,11.199 -5.1377,15.1108 -8.6285,19.0939 -12.0338,22.9936 -15.3412,26.5408 -18.7311,29.5195 -22.3555,31.6687 -26.0394,33.1388 -27.7748,33.7951 A3.0518,3.0518 0 0 1 -30.2252,28.2049 T-28.5665,27.3735 -24.3981,24.8221 -20.4355,21.7327 -17.2599,18.3449 -13.7485,14.4707 -9.2077,9.3405 -5.4518,4.3543 -3.7349,0.7546 -3.0216,-1.1331 A3.2271,3.2271 0 0 1 3.0216,1.1331 Z" stroke-linecap="round" fill="#f76707"/></g></g><g transform="matrix(1, 0, 0, 1, 120.5, 524.5)" opacity="1"><g transform="scale(1)"><path d="M1.1016,-2.4785 T3.2205,-1.5038 7.3566,0.7873 11.3277,3.4583 15.172,5.9227 18.9359,8.4327 23.6877,11.7748 29.0013,15.1319 31.4368,16.5471 A2.8427,2.8427 0 0 1 28.5632,21.4529 T27.2576,20.6832 23.3403,18.2876 19.0849,15.4449 15.8373,12.963 12.2174,10.4428 6.6879,6.7504 1.0365,3.3958 -1.1016,2.4785 A2.7123,2.7123 0 0 1 1.1016,-2.4785 Z" stroke-linecap="round" fill="#f76707"/></g></g><g transform="matrix(1, 0, 0, 1, 173.5, 526.5)" opacity="1"><g transform="scale(1)"><path d="M 0 0 m -3.663919189857866, 0 a 3.663919189857866,3.663919189857866 0 1,1 7.327838379715732,0 a 3.663919189857866,3.663919189857866 0 1,1 -7.327838379715732,0" stroke-linecap="round" fill="#f76707"/></g></g><g transform="matrix(1, 0, 0, 1, 219.5, 502.5)" opacity="1"><g transform="scale(1)"><path d="M-0.6439,3.2197 T-1.7521,2.9812 -4.9811,3.6704 -10.0689,6.8671 -15.2525,12.4127 -18.546,18.5202 -19.3562,23.348 -16.6804,26.7778 -11.4583,28.3479 -5.0448,27.8432 1.7723,26.2119 4.9889,25.2227 A2.9556,2.9556 0 0 1 7.0111,30.7773 T3.7425,32.1491 -1.7893,34.296 -6.2632,35.3981 -10.9448,35.7621 -15.5021,35.2757 -20.6595,32.6614 -25.1228,27.0573 -26.435,21.5302 -25.7643,17.5943 -24.2119,13.8428 -21.9581,10.0312 -19.103,6.109 -15.5884,2.4784 -9.7503,-1.0824 -3.8668,-3.3207 -0.6129,-3.4542 0.6439,-3.2197 A3.2834,3.2834 0 0 1 -0.6439,3.2197 Z" stroke-linecap="round" fill="#f76707"/></g></g><g transform="matrix(1, 0, 0, 1, 252.5, 509.5)" opacity="1"><g transform="scale(1)"><path d="M-3.0803,-0.1772 T-2.9315,-2.3426 -2.7827,-4.508 A3.037,3.037 0 0 1 3.2812,-4.1592 T3.1808,-1.991 3.0803,0.1772 A3.0854,3.0854 0 0 1 -3.0803,-0.1772 ZM-0.3609,-1.3586 T-1.0898,-1.5159 -3.9273,0.0891 -8.362,4.8637 -11.7669,10.9194 -11.1299,15.6152 -6.5261,17.3727 0.3386,16.1136 5.9981,13.672 9.1712,11.2278 12.2993,7.1602 13.3247,2.4159 10.1908,-1.0225 7.6691,-2.4176 A2.9052,2.9052 0 0 1 10.3309,-7.5824 T11.9517,-6.8404 15.4371,-5.1396 18.6137,-2.6258 20.4245,0.9553 20.609,5.1844 19.3027,9.4867 16.9378,13.3992 13.5671,17.0199 9.3251,20.1832 4.3903,22.5793 -0.9333,24.0988 -6.0603,24.4918 -10.6534,23.772 -14.5806,21.9055 -17.5366,18.8796 -18.8794,14.7825 -18.5162,10.4803 -16.9163,6.3873 -14.5341,2.3751 -10.1383,-2.4216 -3.9297,-6.4628 0.0515,-7.4666 0.8594,-7.3087 A3.037,3.037 0 0 1 -0.3609,-1.3586 Z" stroke-linecap="round" fill="#f76707"/></g></g><g transform="matrix(1, 0, 0, 1, 295.5, 496.5)" opacity="1"><g transform="scale(1)"><path d="M1.7139,2.5709 T0.9971,3.0329 -2.0888,5.062 -6.6822,8.2692 -10.3558,11.6196 -11.8051,13.3299 A3.045,3.045 0 0 1 -16.9064,10.0037 T-14.598,7.4365 -10.0626,3.2179 -5.4769,-0.0182 -2.4161,-2.0869 -1.7139,-2.5709 A3.0899,3.0899 0 0 1 1.7139,2.5709 ZM-11.5351,10.5196 T-11.4112,11.0943 -8.1057,12.318 -1.7211,13.9535 4.4968,16.37 8.336,18.6562 9.1603,19.5126 A3.175,3.175 0 0 1 4.3935,23.7078 T3.492,22.7803 -0.4383,20.8645 -6.7762,18.8935 -13.1134,16.3642 -16.659,13.8159 -17.1763,12.814 A3.045,3.045 0 0 1 -11.5351,10.5196 ZM9.3959,23.4051 T8.403,24.8013 4.0443,27.3859 -3.3089,28.7303 -9.5946,28.8952 -11.8931,28.9041 A2.9061,2.9061 0 0 1 -12.1069,23.0959 T-9.8139,22.9358 -5.5427,22.6232 -0.2176,21.9459 3.6436,20.6182 4.1579,19.8153 A3.175,3.175 0 0 1 9.3959,23.4051 Z" stroke-linecap="round" fill="#f76707"/></g></g><g transform="matrix(1, 0, 0, 1, 336.5, 459.5)" opacity="1"><g transform="scale(1)"><path d="M-3.1217,0.8919 T-3.4825,-0.6546 -4.1595,-2.2079 -4.4756,-2.2148 A3.1552,3.1552 0 0 1 -0.3055,-6.951 T0.8229,-5.6859 2.5365,-2.6564 3.1217,-0.8919 A3.2466,3.2466 0 0 1 -3.1217,0.8919 ZM-0.671,-1.9374 T-1.8312,-1.2132 -4.8405,2.3538 -7.6389,7.0905 -9.2562,11.2329 -10.7944,16.233 -12.0348,21.8107 -12.6108,27.7924 -12.9242,34.2668 -12.6187,40.7409 -11.5349,46.6909 -10.2438,52.2635 -8.8877,57.2539 -6.9606,61.859 -3.6076,64.4138 -1.446,64.5759 A3.4531,3.4531 0 0 1 -0.554,71.4241 T-3.1884,71.7637 -8.8462,70.3572 -13.6149,65.2216 -16.2005,59.2419 -17.6162,53.907 -18.8919,47.9647 -19.9862,41.04 -20.2236,33.8546 -19.7721,26.9749 -18.8968,20.1823 -17.3831,14.0858 -15.4906,8.6016 -13.2904,3.6201 -9.7504,-1.7996 -5.7807,-6.1126 -4.1101,-7.2283 A3.1552,3.1552 0 0 1 -0.671,-1.9374 Z" stroke-linecap="round" fill="#f76707"/></g></g><g transform="matrix(1, 0, 0, 1, 372.5, 482.5)" opacity="1"><g transform="scale(1)"><path d="M2.3626,1.7182 T0.4923,4.3355 -3.0305,9.4715 -6.5026,14.7711 -9.9729,20.1725 -12.9418,25.0812 -15.4693,29.3402 -17.8348,33.0374 -20.2558,36.6688 -21.5209,38.5738 A2.9365,2.9365 0 0 1 -26.4791,35.4262 T-25.2934,33.4707 -23.0641,29.7767 -20.8511,26.1267 -18.2809,21.8295 -15.1669,16.7852 -11.5825,11.3783 -7.9507,6.0415 -4.2763,0.8675 -2.3626,-1.7182 A2.9213,2.9213 0 0 1 2.3626,1.7182 Z" stroke-linecap="round" fill="#f76707"/></g></g><g transform="matrix(1, 0, 0, 1, 353.5, 492.5)" opacity="1"><g transform="scale(1)"><path d="M1.6122,-1.7734 T4.2193,0.5855 8.9402,4.8939 12.8211,8.2781 16.2275,10.9169 20.1074,13.6442 23.7786,15.9844 25.2093,16.8015 A2.5092,2.5092 0 0 1 22.7907,21.1985 T21.3346,20.4277 17.304,17.9481 13.0466,14.9124 9.5187,12.0128 5.6268,8.4778 0.9837,4.1445 -1.6122,1.7734 A2.3967,2.3967 0 0 1 1.6122,-1.7734 Z" stroke-linecap="round" fill="#f76707"/></g></g><g transform="matrix(1, 0, 0, 1, 369.5, 458.5)" opacity="1"><g transform="scale(1)"><path d="M0,-3.4211 T1.419,-3.4052 5.3857,-3.09 9.7688,-1.7556 13.1618,1.3877 14.7196,3.4962 A3.3738,3.3738 0 0 1 8.5927,6.3232 T7.7373,5.2647 4.8599,3.7977 1.419,3.4052 0,3.4211 A3.4211,3.4211 0 0 1 0,-3.4211 ZM14.2578,7.0578 T13.2963,8.1836 10.8711,10.7609 12.119,12.0738 16.9147,11.465 18.9988,10.9946 A3.1678,3.1678 0 0 1 21.0012,17.0054 T20.1177,17.344 16.9074,18.2312 12.1682,18.9833 7.5599,18.8106 3.6563,16.0386 2.8534,11.1366 5.6126,6.6963 8.2606,3.7618 9.0546,2.7616 A3.3738,3.3738 0 0 1 14.2578,7.0578 Z" stroke-linecap="round" fill="#f76707"/></g></g><g transform="matrix(1, 0, 0, 1, 390.5, 440.5)" opacity="1"><g transform="scale(1)"><path d="M1.4368,-2.5143 T3.0944,-1.5583 6.3458,0.7752 9.4917,3.8375 12.4864,8.0335 15.3617,13.4367 18.2742,19.492 21.0746,26.3319 23.3604,33.6627 25.0908,41.1602 26.2787,49.0238 26.6956,56.9265 26.4412,64.2931 25.8286,71.0456 24.7422,77.1793 23.1133,82.3551 21.1292,86.5136 18.1354,89.8558 14.5826,92.4732 12.9457,93.5965 A3.2446,3.2446 0 0 1 9.0543,88.4035 T10.5919,87.1479 13.8014,83.9454 16.2186,80.1195 17.5802,75.8485 18.5783,70.3391 19.2284,63.9739 19.5749,57.2194 19.3371,49.9951 18.3851,42.6177 16.9525,35.5552 15.0314,28.7212 12.5419,22.1457 9.9041,16.208 7.6328,11.4193 4.2521,6.9054 0.2166,3.4503 -1.4368,2.5143 A2.8959,2.8959 0 0 1 1.4368,-2.5143 Z" stroke-linecap="round" fill="#f76707"/></g></g><g transform="matrix(1, 0, 0, 1, 446.5, 492.5)" opacity="1"><g transform="scale(1)"><path d="M-2.8113,0.4686 T-3.0215,-0.9168 -5.3059,-0.6674 -8.6007,3.9704 -10.0142,10.0161 -8.1946,13.6817 -2.8613,11.4163 2.0726,6.2124 4.971,1.146 7.4661,-4.9066 9.58,-11.5496 10.9906,-18.2168 11.332,-24.8008 10.8539,-31.5169 9.9162,-37.8768 8.5181,-42.9503 6.6337,-47.4634 5.1707,-50.0627 4.8184,-50.3205 A2.1533,2.1533 0 0 1 7.6198,-53.5913 T8.3617,-52.912 10.5106,-49.4216 12.7875,-44.1744 14.3563,-38.5894 15.4583,-31.9048 16.1578,-24.6388 16.0414,-17.2569 14.788,-9.9887 12.7445,-2.7542 10.0434,4.0631 6.6721,9.9549 2.5628,14.9416 -1.8934,18.5986 -6.2815,20.4881 -10.507,20.3024 -14.2942,16.4589 -16.0439,11.2961 -15.6398,7.1312 -14.4809,3.051 -12.7461,-0.7957 -10.2695,-4.2912 -5.7649,-6.9561 -0.2255,-5.6996 2.5485,-1.9212 2.8113,-0.4686 A2.8501,2.8501 0 0 1 -2.8113,0.4686 ZM7.6429,-50.3405 T7.1856,-50.007 6.8262,-46.7998 7.2327,-41.193 8.2096,-35.4436 9.7468,-28.9315 11.5945,-21.4572 13.8075,-13.8496 16.204,-6.8517 18.2067,-1.2875 20.7318,3.6921 22.4165,6.4763 A2.8568,2.8568 0 0 1 17.5835,9.5237 T16.5393,7.9549 14.4105,4.6912 12.5386,0.6611 10.7225,-5.1074 8.5653,-12.4334 6.6252,-20.3378 5.0799,-27.9375 3.769,-34.7709 2.9316,-40.882 2.595,-46.1596 3.0646,-50.4796 4.203,-52.9796 4.7953,-53.5713 A2.1533,2.1533 0 0 1 7.6429,-50.3405 Z" stroke-linecap="round" fill="#f76707"/></g></g><g transform="matrix(1, 0, 0, 1, 499.5, 469.5)" opacity="1"><g transform="scale(1)"><path d="M1.5445,1.5445 T0.5967,2.4887 -2.8285,6.1738 -6.9792,10.7444 -10.1388,14.6143 -12.9136,18.4663 -16.7533,23.3249 -19.3045,26.3716 A2.1808,2.1808 0 0 1 -22.6955,23.6284 T-20.335,20.6039 -16.6497,15.7371 -13.6473,11.6938 -10.3323,7.7624 -6.0639,3.1915 -2.4887,-0.5967 -1.5445,-1.5445 A2.1842,2.1842 0 0 1 1.5445,1.5445 Z" stroke-linecap="round" fill="#f76707"/></g></g><g transform="matrix(1, 0, 0, 1, 479.5, 473.5)" opacity="1"><g transform="scale(1)"><path d="M2.1452,-2.1452 T3.7447,-0.4337 6.9189,2.867 10.0428,5.994 12.9919,9.1137 16.8021,13.0681 21.6309,17.5595 24.0493,19.6786 A3.0965,3.0965 0 0 1 19.9507,24.3214 T18.5906,23.1236 15.0397,19.6597 10.1896,14.4923 5.9934,10.0422 2.867,6.9189 -0.4337,3.7447 -2.1452,2.1452 A3.0338,3.0338 0 0 1 2.1452,-2.1452 Z" stroke-linecap="round" fill="#f76707"/></g></g><g transform="matrix(1, 0, 0, 1, -69.5, 727.5)" opacity="1"><g transform="scale(1)"><path d="M-1.4727,-2.9454 T0.4516,-3.837 4.3632,-5.3087 10.0618,-5.4365 16.6086,-3.1828 21.4264,1.6144 23.9203,6.6407 23.8591,12.6676 22.0781,18.4249 18.4218,22.6649 13.6679,26.5866 10.2955,28.575 9.2287,29.1207 A3.269,3.269 0 0 1 5.105,24.0471 T7.3211,22.7577 11.5779,19.8453 15.2787,16.3492 17.4639,12.245 17.2689,7.646 15.1171,3.6951 11.8163,1.1358 7.5697,0.5522 3.3324,1.945 1.4727,2.9454 A3.293,3.293 0 0 1 -1.4727,-2.9454 ZM9.9844,24.9262 T10.1731,25.266 10.3618,25.6058 A3.2497,3.2497 0 0 1 4.76,28.9016 T4.5547,28.5716 4.3493,28.2416 A3.269,3.269 0 0 1 9.9844,24.9262 ZM8.2501,24.0779 T9.0591,24.2756 12.6629,25.6208 18.6602,28.1384 24.547,31.0677 29.2792,35.2348 31.4651,41.1121 30.5224,46.1031 27.7774,49.1763 24.3218,51.6549 20.1868,53.7169 15.4381,55.3501 10.4197,56.4367 5.245,56.9956 0.2124,57.0012 -4.3127,56.4577 -8.5303,55.2936 -12.828,53.7179 -14.9621,52.9277 A3.0817,3.0817 0 0 1 -13.0379,47.0723 T-10.851,47.7021 -5.2344,49.0657 0.1835,49.9201 4.4816,49.855 8.9344,49.3824 13.2093,48.5115 18.6612,46.4396 23.7135,43.4209 24.5251,39.8188 21.3687,36.3876 15.9201,33.6887 10.6071,31.5449 7.6894,30.5849 6.8718,30.4295 A3.2497,3.2497 0 0 1 8.2501,24.0779 Z" stroke-linecap="round" fill="#f2f2f2"/></g></g><g transform="matrix(1, 0, 0, 1, -25.5, 781.5)" opacity="1"><g transform="scale(1)"><path d="M 0 0 m -3.663919189857866, 0 a 3.663919189857866,3.663919189857866 0 1,1 7.327838379715732,0 a 3.663919189857866,3.663919189857866 0 1,1 -7.327838379715732,0" stroke-linecap="round" fill="#f2f2f2"/></g></g><g transform="matrix(1, 0, 0, 1, 47.5, 710.5)" opacity="1"><g transform="scale(1)"><path d="M-2.3331,0.4117 T-3.0483,-3.6077 -4.38,-10.4081 -5.5697,-15.6046 -7.5184,-21.3243 -9.9489,-26.6469 -12.3087,-30.0283 -13.6134,-31.3912 A2.5679,2.5679 0 0 1 -10.1328,-35.1677 T-8.9505,-34.0464 -6.5826,-31.0647 -4.1809,-26.3286 -2.1671,-21.2869 -0.8263,-16.6636 0.3212,-11.3305 1.6293,-4.4333 2.3331,-0.4117 A2.3691,2.3691 0 0 1 -2.3331,0.4117 ZM-9.5185,-32.2547 T-9.8518,-31.554 -10.638,-28.4539 -11.2175,-22.3353 -11.3686,-16.3431 -11.4111,-11.6893 -11.2086,-6.7458 -10.6398,-1.4029 -9.8749,4.0116 -9.0037,9.2155 -8.0641,14.3192 -7.0858,19.1107 -6.2938,24.1323 -5.6152,29.4012 -4.7927,34.6611 -3.8769,40.2874 -2.6942,45.9878 -1.1429,51.731 0.6236,57.8637 2.3008,64.52 3.9085,71.3336 5.4795,78.231 6.8162,85.2628 7.7861,92.6164 8.5515,99.7909 9.2071,106.4021 9.1096,113.0527 8.3692,119.5223 6.9965,125.6923 4.7879,131.5765 2.1133,136.7058 -1.136,141.0734 -5.0911,144.5969 -9.4274,146.6779 -14.0521,147.0356 -18.9334,145.5044 -23.4555,142.1884 -27.162,137.2156 -30.2562,131.1916 -32.9604,125.0056 -35.2761,118.8309 -37.1176,113.425 -38.758,108.5212 -39.626,105.9474 A2.7917,2.7917 0 0 1 -34.374,104.0526 T-33.3988,106.5877 -31.5417,111.3784 -29.4872,116.5665 -27.1027,122.4164 -24.4783,128.2771 -21.9491,133.4443 -19.4725,137.1416 -15.5293,139.7867 -10.3126,139.86 -6.1865,137.1716 -3.4424,133.6812 -1.0273,129.2849 1.0368,124.2745 2.3868,118.7466 3.2224,112.8922 3.4229,106.9277 2.8488,100.372 2.1784,93.3321 1.3214,86.2789 0.089,79.4364 -1.4199,72.5722 -2.9638,65.8383 -4.5743,59.3532 -6.3536,53.1152 -7.9405,47.0523 -9.1225,41.1208 -10.0011,35.4456 -10.7887,30.0309 -11.3702,24.9172 -12.0716,20.1103 -13.0297,15.2273 -13.9693,10.0511 -14.869,4.7238 -15.6693,-0.8695 -16.2754,-6.5415 -16.5074,-11.7286 -16.4768,-16.4252 -16.3166,-22.6688 -15.6843,-29.2881 -14.7083,-33.1348 -14.2276,-34.3043 A2.5679,2.5679 0 0 1 -9.5185,-32.2547 Z" stroke-linecap="round" fill="#4dabf7"/></g></g><g transform="matrix(1, 0, 0, 1, 75.5, 751.5)" opacity="1"><g transform="scale(1)"><path d="M-3.0193,-1.5096 T-2.5194,-2.4702 0.2594,-5.5632 4.3901,-8.5887 8.2618,-10.3484 12.381,-11.9523 16.7166,-13.1271 22.5922,-13.6589 28.7071,-12.7657 32.5622,-9.1943 33.0925,-3.5073 30.5334,2.2288 27.5226,6.4259 24.8246,9.4954 21.9785,12.4933 18.0244,16.2605 13.7272,20.1307 10.484,22.7972 9.0329,23.8679 A3.1781,3.1781 0 0 1 4.8324,19.0975 T6.2201,18.0484 9.5252,15.2352 13.5942,11.4495 18.3674,6.5547 22.8677,1.0712 25.1353,-4.1989 22.839,-6.8517 16.5155,-5.9506 10.9295,-4.2501 6.4466,-1.8984 3.4654,0.5782 3.0193,1.5096 A3.3757,3.3757 0 0 1 -3.0193,-1.5096 ZM10.0842,21.0723 T10.1004,21.1946 10.1167,21.3169 A3.1788,3.1788 0 0 1 3.8123,22.1378 T3.7967,22.0154 3.7811,21.893 A3.1781,3.1781 0 0 1 10.0842,21.0723 ZM8.0948,18.7563 T9.0785,19.1302 12.4528,19.8119 18.2179,20.2232 23.582,20.3275 27.565,20.3425 32.7147,20.4037 38.1301,20.1377 40.3895,19.8246 A3.2336,3.2336 0 0 1 41.6105,26.1754 T38.7384,26.8489 32.6737,27.5347 27.4535,27.5178 23.3754,27.4073 17.3768,26.978 11.064,26.2095 7.2667,25.2437 5.8342,24.6984 A3.1788,3.1788 0 0 1 8.0948,18.7563 Z" stroke-linecap="round" fill="#4dabf7"/></g></g><g transform="matrix(1, 0, 0, 1, 159.5, 742.5)" opacity="1"><g transform="scale(1)"><path d="M2.1828,2.1828 T-0.1709,4.559 -4.8866,9.564 -10.0063,14.8729 -15.404,19.9168 -20.1894,24.0053 -24.037,26.916 -27.8188,28.6073 -31.631,29.4238 -33.3638,29.7353 A2.8083,2.8083 0 0 1 -34.6362,24.2647 T-32.9438,23.7796 -28.8184,22.0163 -24.3661,19.0825 -19.7772,15.172 -14.5671,10.4228 -9.4311,5.2267 -4.5591,0.171 -2.1828,-2.1828 A3.087,3.087 0 0 1 2.1828,2.1828 Z" stroke-linecap="round" fill="#4dabf7"/></g></g><g transform="matrix(1, 0, 0, 1, 135.5, 746.5)" opacity="1"><g transform="scale(1)"><path d="M1.5491,-2.3237 T3.6465,-0.858 7.5824,1.8184 11.2107,4.4343 14.7316,6.913 18.3256,9.0139 23.6944,11.4464 29.5104,13.6407 31.8204,14.4298 A2.698,2.698 0 0 1 30.1796,19.5702 T27.8396,18.8751 23.2165,17.4943 19.1172,15.937 15.3447,13.8967 11.4625,11.4297 7.9773,8.8307 4.594,6.2992 0.6105,3.696 -1.5491,2.3237 A2.7928,2.7928 0 0 1 1.5491,-2.3237 Z" stroke-linecap="round" fill="#4dabf7"/></g></g><g transform="matrix(1, 0, 0, 1, 245.5, 667.5)" opacity="1"><g transform="scale(1)"><path d="M2.9923,-0.4987 T3.2313,0.9207 3.6331,4.4201 3.892,8.7524 4.0599,14.0848 3.9442,20.5558 3.674,27.0371 3.5422,33.4071 3.4579,39.3658 3.2602,44.6354 2.9502,50.1219 2.8029,53.0181 A2.8029,2.8029 0 0 1 -2.8029,52.9819 T-2.9127,50.0839 -3.1515,44.5758 -3.2516,39.2645 -3.1509,33.2234 -2.9314,26.6962 -2.535,20.3728 -2.2834,14.2141 -2.4025,7.2639 -2.7583,1.9173 -2.9923,0.4987 A3.0336,3.0336 0 0 1 2.9923,-0.4987 Z" stroke-linecap="round" fill="#4dabf7"/></g></g><g transform="matrix(1, 0, 0, 1, 322.5, 733.5)" opacity="1"><g transform="scale(1)"><path d="M1.3796,2.2993 T-0.9776,3.7487 -6.7451,6.3607 -14.4943,8.6259 -23.772,10.5982 -34.3959,12.2013 -45.583,13.8215 -56.9012,15.4503 -68.2131,16.5906 -78.6468,17.4363 -87.9266,18.0973 -96.1071,18.6449 -103.2555,19.0855 -108.8544,19.4098 -113.2198,19.7087 -117.5151,19.889 -119.7345,19.9878 A2.9996,2.9996 0 0 1 -120.2655,14.0122 T-116.1711,13.4468 -109.5288,12.4297 -103.8036,11.7123 -96.6445,11.0741 -88.4464,10.4718 -79.2128,9.8486 -68.8772,9.1549 -57.8318,8.2718 -46.472,6.9585 -35.2703,5.6886 -24.9512,4.5002 -16.0299,2.9708 -8.9917,1.2839 -3.7524,-0.9107 -1.3796,-2.2993 A2.6814,2.6814 0 0 1 1.3796,2.2993 Z" stroke-linecap="round" fill="#4dabf7"/></g></g><g transform="matrix(1, 0, 0, 1, 232.5, 793.5)" opacity="1"><g transform="scale(1)"><path d="M2.568,0.9877 T1.4009,4.0766 -1.462,9.7773 -4.7385,14.4313 -8.1186,18.5179 -11.9544,22.2393 -15.7375,25.2058 -20.6151,28.3466 -25.3577,30.8237 -26.9693,31.4495 A2.6575,2.6575 0 0 1 -29.0307,26.5505 T-27.4565,25.8358 -23.4206,23.4861 -19.3143,20.6036 -15.9635,18.0139 -12.5454,14.7822 -9.3412,11.0603 -6.4064,7.1802 -3.7659,2.0724 -2.568,-0.9877 A2.7514,2.7514 0 0 1 2.568,0.9877 Z" stroke-linecap="round" fill="#4dabf7"/></g></g><g transform="matrix(1, 0, 0, 1, 214.5, 799.5)" opacity="1"><g transform="scale(1)"><path d="M2.2462,-1.6847 T3.6548,0.2152 6.3017,3.8476 9.5623,8.5632 12.9434,14.2835 16.4811,18.1729 18.66,19.3253 A2.755,2.755 0 0 1 17.34,24.6747 T14.6956,23.9486 10.5592,21.3963 7.9034,17.0686 4.8793,11.6906 1.8159,7.1336 -0.8168,3.5688 -2.2462,1.6847 A2.8078,2.8078 0 0 1 2.2462,-1.6847 Z" stroke-linecap="round" fill="#4dabf7"/></g></g><g transform="matrix(1, 0, 0, 1, 237.5, 763.5)" opacity="1"><g transform="scale(1)"><path d="M-0.8966,-3.138 T0.7678,-3.5824 5.2233,-4.45 10.4818,-4.7191 14.8447,-3.9387 17.8238,-1.1441 17.9089,3.5972 14.5085,8.1337 9.6378,11.6608 5.693,14.7689 4.217,16.3136 A3.1574,3.1574 0 0 1 -1.3832,13.3958 T-0.4761,11.8977 2.1387,9.0695 6.1043,6.252 10.9274,3.3482 11.1052,1.6951 6.4537,1.7968 2.5432,2.6364 0.8966,3.138 A3.2635,3.2635 0 0 1 -0.8966,-3.138 ZM3.6129,12.5861 T4.4637,13.4484 8.5577,14.5381 15.3414,14.9486 20.9556,15.2301 23.0294,15.3286 A2.6715,2.6715 0 0 1 22.9706,20.6714 T19.0153,20.7835 11.7078,20.8446 5.0269,20.1186 0.4596,18.2835 -0.7791,17.1233 A3.1574,3.1574 0 0 1 3.6129,12.5861 Z" stroke-linecap="round" fill="#4dabf7"/></g></g><g transform="matrix(1, 0, 0, 1, 271.5, 791.5)" opacity="1"><g transform="scale(1)"><path d="M2.0371,-0.2716 T2.5404,3.2719 3.3216,9.1831 3.721,13.5373 3.976,17.6906 4.1097,19.8574 A2.1146,2.1146 0 0 1 -0.1097,20.1426 T-0.4101,16.0759 -0.9311,9.692 -1.5944,3.8231 -2.0371,0.2716 A2.0551,2.0551 0 0 1 2.0371,-0.2716 Z" stroke-linecap="round" fill="#4dabf7"/></g></g><g transform="matrix(1, 0, 0, 1, 281.5, 800.5)" opacity="1"><g transform="scale(1)"><path d="M0,2.5815 T-2.6015,2.6568 -7.5191,2.7794 -11.8451,3.0942 -17.676,3.9704 -21.4969,4.5792 A2.6278,2.6278 0 0 1 -22.5031,-0.5792 T-20.4531,-1.0477 -16.4451,-1.966 -12.163,-2.6212 -7.5209,-2.7794 -2.6015,-2.6568 0,-2.5815 A2.5815,2.5815 0 0 1 0,2.5815 Z" stroke-linecap="round" fill="#4dabf7"/></g></g><g transform="matrix(1, 0, 0, 1, 299.5, 786.5)" opacity="1"><g transform="scale(1)"><path d="M2.5725,-1.2863 T4.037,1.5294 6.5998,6.8711 8.3335,11.5658 10.4173,17.2601 11.8657,20.7858 A3.1124,3.1124 0 0 1 6.1343,23.2142 T5.2764,21.2627 3.1669,15.5163 1.0448,9.3641 -1.199,4.1466 -2.5725,1.2863 A2.8762,2.8762 0 0 1 2.5725,-1.2863 Z" stroke-linecap="round" fill="#4dabf7"/></g></g><g transform="matrix(1, 0, 0, 1, 375.5, 724.5)" opacity="1"><g transform="scale(1)"><path d="M-3.1073,0.4439 T-3.3316,-1.1797 -6.5393,-3.1529 -12.0246,-1.7622 -15.9981,2.9011 -16.9982,9.1117 -14.3253,14.5443 -8.9619,16.9879 -2.1498,15.0595 2.8006,11.1543 5.2638,7.27 7.0241,2.8942 7.9763,-1.793 8.3261,-6.9536 8.107,-12.4208 7.3485,-17.8022 6.0577,-22.8901 4.4606,-27.6637 2.7168,-32.0312 0.0375,-36.2622 -1.7487,-38.3687 A2.4215,2.4215 0 0 1 1.6361,-41.8326 T2.6442,-40.8497 5.0154,-38.0167 7.3711,-33.9481 9.2964,-29.3218 11.0713,-24.2095 12.5888,-18.6165 13.5691,-12.7056 13.957,-6.6184 13.6633,-0.6246 12.497,5.0838 10.2374,10.5611 6.8676,15.5006 2.5728,19.3552 -2.5816,22.0877 -7.9328,23.2545 -13.0672,22.3998 -17.7052,19.8452 -21.0726,16.2278 -23.0913,11.6477 -23.6609,6.3833 -22.6153,1.4335 -20.1258,-3.0292 -16.7292,-6.5149 -12.8624,-8.8607 -8.4473,-10.1764 -4.1533,-9.977 0.2133,-6.6511 2.8586,-2.1313 3.1073,-0.4439 A3.1389,3.1389 0 0 1 -3.1073,0.4439 ZM1.1369,-37.9935 T0.6726,-37.7414 0.2083,-37.4893 A2.4027,2.4027 0 0 1 -2.1596,-41.6708 T-1.7045,-41.9393 -1.2495,-42.2078 A2.4215,2.4215 0 0 1 1.1369,-37.9935 ZM1.3691,-39.0556 T1.1116,-37.9882 1.2594,-33.0997 2.283,-26.8087 3.751,-21.3556 5.7707,-14.9704 8.5161,-7.9621 11.6675,-1.0415 14.5775,4.9519 17.3541,9.8631 18.7968,12.0954 A3.0776,3.0776 0 0 1 14.015,15.9709 T13.147,14.8561 11.3416,11.9733 9.1872,7.4255 6.5006,1.1922 3.5202,-6.1125 0.913,-13.5317 -0.9414,-20.1627 -2.3369,-25.9451 -3.268,-30.9857 -3.668,-35.6066 -3.5474,-39.0055 -3.3205,-40.1045 A2.4027,2.4027 0 0 1 1.3691,-39.0556 ZM16.3666,10.9558 T17.6641,10.9794 18.9617,11.0029 A2.9973,2.9973 0 0 1 19.0383,16.9971 T17.7418,17.0538 16.4452,17.1105 A3.0776,3.0776 0 0 1 16.3666,10.9558 Z" stroke-linecap="round" fill="#4dabf7"/></g></g><g transform="matrix(1, 0, 0, 1, 429.5, 705.5)" opacity="1"><g transform="scale(1)"><path d="M3.0185,0.7546 T2.5551,2.6529 1.0697,6.99 -1.4806,11.9754 -4.4507,16.9384 -7.4665,21.4674 -10.6856,25.2669 -15.3358,28.4557 -20.6669,29.3849 -22.993,28.8125 A2.9826,2.9826 0 0 1 -21.007,23.1875 T-19.962,23.3414 -16.6259,21.5454 -12.9359,17.7478 -10.0301,13.4945 -7.149,8.9733 -4.8793,4.9372 -3.5011,1.1311 -3.0185,-0.7546 A3.1114,3.1114 0 0 1 3.0185,0.7546 Z" stroke-linecap="round" fill="#4dabf7"/></g></g><g transform="matrix(1, 0, 0, 1, 411.5, 709.5)" opacity="1"><g transform="scale(1)"><path d="M1.8562,-2.3202 T4.2118,-0.4164 8.5779,3.2267 12.5499,6.515 16.426,9.9385 20.9612,14.4183 25.7376,18.8172 27.8935,20.6108 A3.0486,3.0486 0 0 1 24.1065,25.3892 T22.8458,24.4394 19.1057,21.2782 15.2405,17.6295 12.2668,14.479 8.687,11.097 4.7938,7.7545 0.5182,4.2004 -1.8562,2.3202 A2.9714,2.9714 0 0 1 1.8562,-2.3202 Z" stroke-linecap="round" fill="#4dabf7"/></g></g></svg>