<svg xmlns="http://www.w3.org/2000/svg" direction="ltr" width="608.9171953565824" height="1025.014306457575" viewBox="2092.87448610019 29242.7612523629 608.9171953565824 1025.014306457575" stroke-linecap="round" stroke-linejoin="round" data-color-mode="dark" class="tl-container tl-theme__force-sRGB tl-theme__dark" style="background-color: transparent;"><defs/><g transform="matrix(1, 0, 0, 1, 2130.8345, 29838.9819) scale(0.2524743723799738, 0.2524743723799738)" opacity="1"><g transform="scale(3.9607980428801723)"><path d="M0.6615,0 T0.657,0.8514 0.6525,2.4306 0.655,3.8209 0.6619,5.1141 0.6719,6.6544 0.3862,8.4305 -0.028,10.1986 -0.2168,12.1452 -0.6116,14.3972 -1.0939,16.7171 -1.639,19.0702 -2.2163,21.7088 -2.7977,24.5016 -3.3867,27.3991 -3.9952,30.0741 -4.6182,32.0715 -5.1016,33.358 -5.377,33.8191 A0.6847,0.6847 0 0 1 -6.543,33.1009 T-6.3652,32.8263 -5.9886,31.6578 -5.433,29.7322 -4.8643,27.0906 -4.2783,24.1897 -3.6893,21.3741 -3.1049,18.7289 -2.5495,16.405 -2.0476,14.1403 -1.6427,11.9833 -1.3824,9.8537 -0.9444,8.1774 -0.6719,6.6397 -0.6619,5.1141 -0.655,3.8209 -0.6525,2.4306 -0.657,0.8514 -0.6615,0 A0.6615,0.6615 0 0 1 0.6615,0 Z" stroke-linecap="round" fill="#ffc034"/></g></g><g transform="matrix(1, 0, 0, 1, 2130.8345, 29834.2031) scale(0.2524743723799738, 0.2524743723799738)" opacity="1"><g transform="scale(3.9607980428801723)"><path d="M1.18,-0.6408 T2.3105,-0.6442 4.609,-0.6538 6.6718,-0.6659 8.8869,-0.6784 11.1876,-0.6893 13.3268,-0.409 15.3187,0.0095 16.9822,0.5262 18.5383,1.4179 19.9724,2.805 21.2939,4.3702 22.5163,5.7154 23.5094,7.0866 24.0934,8.4821 24.6515,10.0095 25.2253,11.6836 25.2657,13.373 24.6753,14.971 23.7439,16.3799 22.6739,17.6825 21.2088,18.9796 19.5821,20.2254 17.8835,21.4374 16.1496,22.6487 14.3802,23.8494 12.2647,25.0708 9.6415,26.0156 6.7234,26.5072 4.1595,26.113 2.3744,24.617 1.2111,22.7338 0.6604,21.8055 A0.6132,0.6132 0 0 1 1.6996,21.1545 T2.2946,22.0551 3.3053,23.6423 4.4998,24.7305 6.5215,24.9497 9.0738,24.4871 11.4367,23.6215 13.4332,22.4664 15.1852,21.2759 16.9021,20.0769 18.5652,18.8875 20.0954,17.7394 21.3896,16.6122 22.3689,15.4417 23.3412,13.8402 23.6815,12.1448 22.9923,9.9937 22.2163,7.9705 21.3477,6.7543 20.1054,5.3527 18.9221,3.8778 17.7664,2.6826 16.5264,1.8963 15.0114,1.4009 13.1439,0.9671 11.182,0.6893 8.8869,0.6784 6.6718,0.6659 4.609,0.6538 2.3105,0.6442 1.18,0.6408 A0.6408,0.6408 0 0 1 1.18,-0.6408 Z" stroke-linecap="round" fill="#ffc034"/></g></g><g transform="matrix(1, 0, 0, 1, 2160.7023, 29862.8762) scale(0.2524743723799738, 0.2524743723799738)" opacity="1"><g transform="scale(3.9607980428801723)"><path d="M-0.3254,-0.4943 T0.5206,-1.0309 1.736,-2.2762 2.1725,-2.8526 2.0972,-1.3129 1.9198,0.9271 1.8696,2.752 1.8482,4.5471 2.1045,6.2457 3.0226,7.8248 4.5651,9.1628 6.4168,10.1404 8.0872,10.3688 9.3843,10.0116 10.2381,9.1267 11.0228,7.7966 11.7728,6.5234 12.2612,4.446 13.0987,2.5702 14.1946,2.9963 15.4416,4.6881 16.4668,6.5413 17.1566,8.1493 18.0613,9.7659 19.1024,11.4783 19.9653,13.2894 20.7249,15.4024 21.4,17.6426 21.778,20.0278 21.9761,22.7121 22.0823,25.5372 21.8544,28.231 21.1549,30.6086 20.2174,32.7112 18.8183,34.7402 17.2053,36.423 15.4839,37.8704 13.3233,38.9885 10.9739,39.5952 8.5037,39.6166 5.726,39.05 2.8009,37.8551 0.0681,36.0456 -2.4842,33.9417 -4.6821,31.6483 -6.436,28.9481 -7.6474,26.0355 -8.4999,23.1439 -8.9404,21.6529 A0.5864,0.5864 0 0 1 -7.8196,21.3071 T-7.3437,22.7872 -6.4572,25.5333 -5.2853,28.1754 -3.6206,30.6211 -1.504,32.7431 0.9448,34.7273 3.4111,36.3849 6.0615,37.4786 8.5143,38.0327 10.6108,38.0534 12.6365,37.5907 14.4967,36.6798 16.1146,35.345 17.6071,33.8757 18.8784,32.0864 19.777,30.1659 20.4346,28.0959 20.6636,25.5811 20.5777,22.8131 20.4111,20.2335 20.0973,18.0246 19.4597,15.8374 18.7872,13.8395 17.992,12.1402 16.9458,10.3778 16.0169,8.632 15.3994,7.082 14.7606,5.7798 13.9405,4.3055 13.5195,3.3987 13.4481,4.256 13.2919,5.7597 12.8554,7.1237 12.105,8.4596 11.1465,9.9534 9.7965,11.1957 7.9709,11.6527 5.8342,11.3081 3.6837,10.1392 1.9223,8.4633 0.8613,6.4415 0.5932,4.5295 0.6448,2.7046 0.7333,0.8464 1.1631,-1.6169 2.14,-3.4614 2.9189,-3.2048 2.567,-1.6966 1.1822,-0.0901 0.3254,0.4943 A0.5918,0.5918 0 0 1 -0.3254,-0.4943 Z" stroke-linecap="round" fill="#ffc034"/></g></g><g transform="matrix(1, 0, 0, 1, 2195.3489, 29831.8137) scale(0.2524743723799738, 0.2524743723799738)" opacity="1"><g transform="scale(3.9607980428801723)"><path d="M0.6154,0 T0.6055,1.1305 0.5937,3.1384 0.3108,5.1262 -0.3982,7.3741 -1.3287,9.9411 -2.3757,12.7048 -3.471,15.5733 -4.5883,18.7703 -5.433,22.1055 -6.1618,25.2969 -6.826,28.3817 -6.8629,31.2585 -6.5973,33.8824 -5.9536,35.9935 -4.8269,37.5475 -3.7528,38.6277 -2.5033,39.1191 -0.7942,39.4083 1.1454,39.3473 2.8592,38.5786 4.6245,37.1058 6.8136,35.2038 7.9735,34.1889 A0.6072,0.6072 0 0 1 8.7865,35.0911 T7.6565,36.1394 5.5005,38.1523 3.4828,39.8819 1.2492,40.8997 -1.0794,41.0425 -3.179,40.6592 -4.9024,39.8747 -6.2383,38.5336 -7.5217,36.5523 -8.2649,34.0822 -8.504,31.2442 -8.3945,28.0381 -7.677,24.9298 -6.8878,21.7279 -5.9562,18.2808 -4.771,15.0615 -3.6243,12.217 -2.5351,9.4895 -1.5751,6.986 -0.8689,4.9617 -0.5937,3.1331 -0.6055,1.1305 -0.6154,0 A0.6154,0.6154 0 0 1 0.6154,0 Z" stroke-linecap="round" fill="#ffc034"/></g></g><g transform="matrix(1, 0, 0, 1, 2198.933, 29847.3449) scale(0.2524743723799738, 0.2524743723799738)" opacity="1"><g transform="scale(3.9607980428801723)"><path d="M-1.0315,0.6017 T-2.1595,0.8846 -4.1062,1.576 -6.3182,2.236 -9.2834,2.6037 -12.5743,2.8481 -14.2932,2.9762 A0.608,0.608 0 0 1 -14.3868,1.7638 T-12.6686,1.6267 -9.4374,1.3679 -6.6951,1.046 -4.53,0.3972 -2.4615,-0.3264 -1.3285,-0.6017 A0.6198,0.6198 0 0 1 -1.0315,0.6017 Z" stroke-linecap="round" fill="#ffc034"/></g></g><g transform="matrix(1, 0, 0, 1, 2220.4379, 29848.5396) scale(0.2524743723799738, 0.2524743723799738)" opacity="1"><g transform="scale(3.9607980428801723)"><path d="M0.4729,-0.2354 T0.7476,0.3272 1.3292,1.5164 1.6361,2.1429 A0.5095,0.5095 0 0 1 0.7239,2.5971 T0.409,1.9746 -0.1894,0.7938 -0.4729,0.2354 A0.5282,0.5282 0 0 1 0.4729,-0.2354 Z" stroke-linecap="round" fill="#ffc034"/></g></g><g transform="matrix(1, 0, 0, 1, 2218.0484, 29864.0709) scale(0.2524743723799738, 0.2524743723799738)" opacity="1"><g transform="scale(3.9607980428801723)"><path d="M0.4117,-0.4117 T0.9735,0.1475 2.1608,1.3302 2.7863,1.9537 A0.5888,0.5888 0 0 1 1.9537,2.7863 T1.3302,2.1608 0.1475,0.9735 -0.4117,0.4117 A0.5823,0.5823 0 0 1 0.4117,-0.4117 Z" stroke-linecap="round" fill="#ffc034"/></g></g><g transform="matrix(1, 0, 0, 1, 2326.7672, 29852.1238) scale(0.2524743723799738, 0.2524743723799738)" opacity="1"><g transform="scale(3.9607980428801723)"><path d="M0.5427,0.2691 T-0.0216,1.403 -1.5031,3.4862 -3.1191,5.4384 -4.821,7.3265 -6.9141,8.9537 -9.4124,10.647 -12.0961,12.6416 -14.3419,14.5166 -16.3764,16.3497 -18.2539,18.4029 -19.8164,20.3304 -21.2253,22.186 -22.5831,23.7561 -23.9928,24.9344 -24.7045,25.5227 A0.5804,0.5804 0 0 1 -25.4555,24.6373 T-24.7589,24.0312 -23.4964,22.9429 -22.2509,21.4066 -20.8472,19.4948 -19.2447,17.5048 -17.2795,15.3465 -15.2086,13.4783 -12.8953,11.5612 -10.1502,9.5463 -7.6965,7.9219 -5.7424,6.4754 -4.0545,4.6495 -2.4696,2.7853 -1.0994,0.8579 -0.5427,-0.2691 A0.6057,0.6057 0 0 1 0.5427,0.2691 Z" stroke-linecap="round" fill="#ffc034"/></g></g><g transform="matrix(1, 0, 0, 1, 2307.6518, 29856.9026) scale(0.2524743723799738, 0.2524743723799738)" opacity="1"><g transform="scale(3.9607980428801723)"><path d="M0.4756,-0.4756 T1.0333,0.0877 2.1749,1.2333 3.9078,2.5328 5.6709,3.7723 6.8974,4.8485 8.3479,5.9442 9.9534,7.0891 11.4586,8.6186 12.8232,10.2846 14.0529,11.6977 15.2825,13.3352 16.2392,15.1351 16.7352,16.7083 17.0736,18.2162 17.246,18.987 A0.562,0.562 0 0 1 16.154,19.253 T15.9526,18.4893 15.5817,17.0856 15.1056,15.7363 14.2176,14.1628 13.0061,12.6213 11.7218,11.1882 10.4431,9.6255 9.1047,8.2507 7.4773,7.0619 5.9706,5.8923 4.8079,4.8422 3.6963,3.9247 2.4914,3.1401 1.2397,2.1813 0.0877,1.0333 -0.4756,0.4756 A0.6726,0.6726 0 0 1 0.4756,-0.4756 Z" stroke-linecap="round" fill="#ffc034"/></g></g><g transform="matrix(1, 0, 0, 1, 2331.546, 29823.4507) scale(0.2524743723799738, 0.2524743723799738)" opacity="1"><g transform="scale(3.9607980428801723)"><path d="M1.18,-0.7087 T2.0314,-0.7084 4.1829,-0.7133 6.4542,-0.723 8.3289,-0.4335 9.9093,0.0065 11.1099,0.5953 12.1713,1.8624 12.9995,3.4733 13.1425,5.0857 12.5958,6.6315 11.6134,8.5831 10.1772,10.5003 8.6564,11.7765 7.3594,12.9562 6.5871,14.3535 7.5108,15.3646 9.656,15.6637 12.1411,15.8234 15.135,15.9516 16.7219,16.0163 A0.6841,0.6841 0 0 1 16.6781,17.3837 T15.0902,17.3465 12.0599,17.2814 9.4749,17.1761 7.1395,16.8501 5.4864,16.0988 4.9402,14.7643 5.2707,13.1963 6.3408,11.849 7.7007,10.6189 9.0941,9.4945 10.1169,8.4803 10.6736,7.291 11.3843,5.6221 11.6549,4.0618 10.7985,2.5209 9.4503,1.4039 8.0684,0.9917 6.4402,0.723 4.1829,0.7133 2.0314,0.7084 1.18,0.7087 A0.7087,0.7087 0 0 1 1.18,-0.7087 Z" stroke-linecap="round" fill="#ffc034"/></g></g><g transform="matrix(1, 0, 0, 1, 2369.7768, 29852.1238) scale(0.2524743723799738, 0.2524743723799738)" opacity="1"><g transform="scale(3.9607980428801723)"><path d="M0.5879,1.3727 T0.3131,2.2247 -0.0951,4.0343 -0.3058,6.3449 -0.4331,8.6995 -0.5169,10.7974 -0.5736,12.752 -0.6188,14.5687 -0.6411,15.5271 A0.5389,0.5389 0 0 1 -1.7189,15.5129 T-1.7159,14.5542 -1.7132,12.7333 -1.7041,10.7615 -1.6631,8.6399 -1.5538,6.2192 -1.3154,3.7497 -0.8713,1.8381 -0.5879,0.9873 A0.6187,0.6187 0 0 1 0.5879,1.3727 Z" stroke-linecap="round" fill="#f2f2f2"/></g></g><g transform="matrix(1, 0, 0, 1, 2374.5557, 29861.6815) scale(0.2524743723799738, 0.2524743723799738)" opacity="1"><g transform="scale(3.9607980428801723)"><path d="M0,0.7144 T-0.5605,0.7159 -1.9864,0.7193 -3.5868,0.7238 -5.2817,0.731 -7.304,0.7369 -9.7089,1.0078 -12.0958,1.4113 -14.2821,1.6969 -15.4239,1.8488 A0.6757,0.6757 0 0 1 -15.6161,0.5112 T-14.4778,0.3354 -12.3375,-0.0008 -9.8537,-0.4497 -7.3067,-0.7369 -5.2817,-0.731 -3.5868,-0.7238 -1.9864,-0.7193 -0.5605,-0.7159 0,-0.7144 A0.7144,0.7144 0 0 1 0,0.7144 Z" stroke-linecap="round" fill="#f2f2f2"/></g></g><g transform="matrix(1, 0, 0, 1, 2416.3706, 29830.619) scale(0.2524743723799738, 0.2524743723799738)" opacity="1"><g transform="scale(3.9607980428801723)"><path d="M-0.6006,0.1915 T-0.8803,1.0436 -1.6077,2.9291 -2.2707,4.7369 -2.8971,6.54 -3.8036,8.6647 -4.5427,10.5843 -5.206,12.7082 -6.1442,15.2844 -6.9214,17.4689 -7.6103,19.4713 -8.2512,21.3728 -8.5736,22.8742 -9.0349,24.8329 -9.557,27.2687 -9.8237,29.354 -10.2592,31.377 -10.767,33.2881 -11.0195,35.0644 -11.1537,36.8415 -11.2264,38.6329 -11.2649,40.4234 -11.2854,41.9297 -11.2963,43.2831 -11.302,44.566 -11.3051,46.0932 -11.3067,47.7376 -11.3095,49.1706 -11.0467,50.6915 -10.6358,52.3264 -10.1588,54.0557 -9.4399,56.0762 -9.0521,57.1639 A0.5409,0.5409 0 0 1 -10.0679,57.5361 T-10.4745,56.4552 -11.2632,54.3609 -11.7933,52.6136 -12.2342,50.8738 -12.5286,49.1774 -12.5298,47.7365 -12.5283,46.0906 -12.5254,44.5606 -12.5198,43.2735 -12.5091,41.9134 -12.4888,40.3977 -12.4498,38.5811 -12.3755,36.75 -12.2306,34.8845 -11.9538,32.9799 -11.457,31.1286 -11.0454,29.1984 -10.7638,27.0136 -10.2454,24.5689 -9.7915,22.6159 -9.4364,20.985 -8.7916,19.07 -8.0999,17.0615 -7.3165,14.8574 -6.3975,12.3372 -5.7086,10.1489 -4.9499,8.1761 -4.0734,6.1368 -3.4348,4.32 -2.7564,2.4902 -2.0426,0.6592 -1.7594,-0.1915 A0.6102,0.6102 0 0 1 -0.6006,0.1915 Z" stroke-linecap="round" fill="#ae3ec9"/></g></g><g transform="matrix(1, 0, 0, 1, 2437.8754, 29830.619) scale(0.2524743723799738, 0.2524743723799738)" opacity="1"><g transform="scale(3.9607980428801723)"><path d="M0.4472,0.4472 T-0.1172,1.0038 -1.2688,2.1458 -2.4411,3.3221 -3.6121,4.5052 -4.7831,5.6892 -6.092,7.2381 -6.1191,8.8512 -4.8833,9.9711 -3.2208,11.0715 -1.4915,12.2274 -0.2468,13.6246 0.7403,15.3128 0.9775,16.9685 0.4556,18.305 -0.4215,19.269 -1.5112,20.0513 -3.2779,20.7841 -5.3392,21.4315 -7.3222,21.7735 -9.5159,21.941 -11.7981,22.0049 -14.228,22.0412 -15.504,22.0634 A0.5836,0.5836 0 0 1 -15.536,20.8966 T-14.2607,20.8487 -11.8495,20.752 -9.624,20.6337 -7.5544,20.4554 -5.7288,20.1412 -3.3409,19.365 -1.3437,18.3405 -0.498,17.1988 -0.3772,15.8737 -1.1824,14.4713 -2.2796,13.2262 -3.3589,12.3681 -4.5216,11.7083 -5.6643,11.0027 -6.7059,10.169 -7.5829,9.0122 -7.4736,7.5009 -6.6628,6.0591 -5.6957,4.7897 -4.5052,3.6121 -3.3221,2.4411 -2.1458,1.2688 -1.0038,0.1172 -0.4472,-0.4472 A0.6324,0.6324 0 0 1 0.4472,0.4472 Z" stroke-linecap="round" fill="#ae3ec9"/></g></g><g transform="matrix(1, 0, 0, 1, 2442.6542, 29862.8762) scale(0.2524743723799738, 0.2524743723799738)" opacity="1"><g transform="scale(3.9607980428801723)"><path d="M0.4315,0.4315 T-0.1318,0.996 -1.3593,1.9123 -2.97,2.4492 -4.8962,2.9945 -7.0267,3.5669 -9.3548,3.8823 -11.712,4.0381 -14.0838,4.1101 -16.184,4.1256 -18.1018,4.1235 -19.1112,4.1255 A0.5255,0.5255 0 0 1 -19.1288,3.0745 T-18.1198,3.0427 -16.2077,2.9766 -14.1268,2.9042 -11.7961,2.8095 -9.5203,2.6489 -7.3472,2.3642 -5.218,1.7976 -2.843,1.0466 -0.9892,0.125 -0.4315,-0.4315 A0.6102,0.6102 0 0 1 0.4315,0.4315 Z" stroke-linecap="round" fill="#ae3ec9"/></g></g><g transform="matrix(1, 0, 0, 1, 2425.9283, 29878.4074) scale(0.2524743723799738, 0.2524743723799738)" opacity="1"><g transform="scale(3.9607980428801723)"><path d="M0.1833,-0.5592 T1.0332,-0.2781 2.8448,0.1396 4.6921,0.6565 6.3581,1.5541 7.6158,3.0225 7.9786,5.0361 7.526,6.768 6.7167,8.0565 5.6528,9.0524 4.5351,9.8462 3.4446,10.7635 2.2242,11.5817 1.0326,12.3807 1.4856,13.1131 3.3864,13.7265 5.2562,14.2571 7.2823,14.5286 9.4841,14.6925 11.5,14.8031 13.3697,14.9013 14.3575,14.9499 A0.5704,0.5704 0 0 1 14.3225,16.0901 T13.3335,16.0779 11.4521,16.0607 9.395,16.0133 7.0995,15.8773 4.8729,15.5796 2.9633,15.0302 1.5064,14.5142 0.2502,13.9457 -0.3554,12.6952 0.8516,11.0728 2.6393,9.7834 4.2534,8.577 5.9648,6.9167 6.8144,5.1373 6.6982,3.6603 5.7606,2.5463 4.3648,1.7659 2.5745,1.2708 0.6696,0.8362 -0.1833,0.5592 A0.5885,0.5885 0 0 1 0.1833,-0.5592 Z" stroke-linecap="round" fill="#ae3ec9"/></g></g><g transform="matrix(1, 0, 0, 1, 2459.3802, 29823.4507) scale(0.2524743723799738, 0.2524743723799738)" opacity="1"><g transform="scale(3.9607980428801723)"><path d="M0.5067,-0.2523 T0.7828,0.3136 1.23,1.819 1.4837,3.8004 1.6109,5.9587 1.6833,8.2211 1.7267,10.5413 2.0265,12.8263 2.4728,15.448 2.7203,18.601 3.1343,21.6035 3.6489,24.598 3.9316,27.6568 4.3543,30.6214 4.8609,33.879 5.1377,37.068 5.2852,40.1579 5.364,43.1991 5.1246,46.2801 4.721,49.3208 4.2112,52.0691 3.3564,54.7134 2.3416,57.2356 1.2577,59.953 0.1266,62.7942 -1.0522,65.4474 -2.2439,67.9768 -3.429,70.438 -4.3195,72.545 -5.0938,74.2654 -6.1586,75.8339 -7.4525,76.687 -8.4031,76.1003 -8.7973,74.8077 -8.9457,74.2168 A0.587,0.587 0 0 1 -7.8143,73.9032 T-7.5911,74.8385 -7.5186,75.725 -7.207,75.0451 -6.329,73.7047 -5.589,72.0235 -4.6743,69.8389 -3.4928,67.3878 -2.3119,64.8862 -1.1519,62.2832 -0.0169,59.4406 1.0719,56.7221 2.0617,54.2879 2.8835,51.8174 3.3832,49.1414 3.7913,46.1795 4.0328,43.2288 3.965,40.2186 3.8345,37.1752 3.5837,34.0754 3.0892,30.794 2.6713,27.7679 2.4182,24.8084 1.9159,21.7771 1.5043,18.6949 1.2892,15.6512 0.8577,12.9767 0.5601,10.5615 0.5377,8.2529 0.4854,6.0222 0.3758,3.9361 0.1804,2.1537 -0.2246,0.8074 -0.5067,0.2523 A0.566,0.566 0 0 1 0.5067,-0.2523 Z" stroke-linecap="round" fill="#ae3ec9"/></g></g><g transform="matrix(1, 0, 0, 1, 2472.522, 29804.3353) scale(0.2524743723799738, 0.2524743723799738)" opacity="1"><g transform="scale(3.9607980428801723)"><path d="M0,-0.6119 T1.1348,-0.6074 3.2341,-0.3122 5.0229,0.4506 6.3433,1.8275 7.0674,3.479 7.4133,4.9121 7.5896,6.272 7.3776,7.6896 6.6278,9.9205 5.6606,12.2067 4.6123,13.7144 3.4137,14.8451 2.23,15.7121 1.1492,16.2448 1.3902,16.6417 2.7886,17.02 4.5766,17.1239 6.9243,17.1892 9.0088,17.2506 10.9196,17.3086 11.9275,17.3362 A0.5939,0.5939 0 0 1 11.9125,18.5238 T10.9041,18.5258 8.9888,18.5351 6.8886,18.53 4.473,18.4689 2.5718,18.3329 0.7578,17.6905 0.2523,16.1506 1.977,14.3901 3.5811,12.9752 4.5283,11.6373 5.3008,10.0998 6.016,8.1268 6.3406,6.3997 6.185,5.1942 5.9012,3.9313 5.4303,2.5943 4.4832,1.5227 3.0374,0.8703 1.1261,0.6074 0,0.6119 A0.6119,0.6119 0 0 1 0,-0.6119 Z" stroke-linecap="round" fill="#ae3ec9"/></g></g><g transform="matrix(1, 0, 0, 1, 2497.611, 29846.1502) scale(0.2524743723799738, 0.2524743723799738)" opacity="1"><g transform="scale(3.9607980428801723)"><path d="M1.4021,-0.6777 T2.2551,-0.4044 3.7748,-0.0002 5.932,-0.1918 8.4893,-0.5599 10.719,-0.6589 11.8818,-0.7123 A0.7133,0.7133 0 0 1 11.9582,0.7123 T10.7964,0.7836 8.6151,0.9214 6.739,1.0752 5.0587,1.3682 3.4463,1.4106 1.8077,0.9625 0.9579,0.6777 A0.7132,0.7132 0 0 1 1.4021,-0.6777 Z" stroke-linecap="round" fill="#f2f2f2"/></g></g><g transform="matrix(1, 0, 0, 1, 2494.0268, 29856.9026) scale(0.2524743723799738, 0.2524743723799738)" opacity="1"><g transform="scale(3.9607980428801723)"><path d="M0.1625,-0.6582 T1.2958,-0.3919 3.5469,0.0047 5.5504,0.2097 7.4516,0.3324 9.2853,0.4133 11.1043,0.4789 13.226,0.5398 14.3469,0.568 A0.612,0.612 0 0 1 14.3331,1.792 T13.2119,1.795 11.0791,1.8079 9.2393,1.8077 7.3614,1.7639 5.397,1.6499 3.2875,1.4057 0.9651,0.9501 -0.1625,0.6582 A0.678,0.678 0 0 1 0.1625,-0.6582 Z" stroke-linecap="round" fill="#f2f2f2"/></g></g><g transform="matrix(1, 0, 0, 1, 2556.0447, 29835.8738) scale(0.2503887994196496, 0.2503887994196496)" opacity="1"><g transform="scale(3.9937888688223953)"><path d="M0.1961,0.5899 T-0.6434,0.8691 -2.4605,1.5691 -4.2025,2.4739 -5.6456,3.4859 -7.2697,4.5907 -8.6033,5.9009 -8.6699,7.7701 -7.6765,9.7485 -6.3579,11.3404 -4.8144,13.0495 -2.9194,14.7634 -1.0789,16.2231 0.5289,17.9013 1.9736,19.9472 3.0313,21.9227 3.2788,23.7835 2.4363,25.2779 0.8268,26.3052 -0.7878,27.314 -2.8513,28.166 -5.3673,28.9167 -7.7938,29.5658 -10.0765,29.6319 -12.21,29.0716 -14.2501,27.8559 -15.661,26.2895 -16.6192,24.7867 -17.0984,24.0276 A0.5826,0.5826 0 0 1 -16.1216,23.3924 T-15.6222,24.1384 -14.7234,25.4917 -13.5892,26.7804 -11.8591,27.7964 -10.0695,28.2844 -8.1392,28.2215 -5.7575,27.5668 -3.3953,26.9025 -1.5067,26.1286 0.1328,25.1113 1.5742,23.9454 1.8343,22.4876 0.8865,20.7027 -0.415,18.7994 -1.8913,17.2292 -3.7758,15.7111 -5.7628,13.9018 -7.3402,12.1477 -8.7574,10.399 -9.8254,8.6451 -10.131,6.9847 -9.5259,5.1202 -8.0135,3.5772 -6.3645,2.4542 -4.7829,1.3662 -2.9037,0.4042 -1.0358,-0.3109 -0.1961,-0.5899 A0.6217,0.6217 0 0 1 0.1961,0.5899 Z" stroke-linecap="round" fill="#f76707"/></g></g><g transform="matrix(1, 0, 0, 1, 2559.5992, 29814.5466) scale(0.2503887994196496, 0.2503887994196496)" opacity="1"><g transform="scale(3.9937888688223953)"><path d="M0,-0.6383 T1.4001,-0.6417 4.0961,-0.6512 6.3542,-0.6637 8.3837,-0.6764 10.3957,-0.6372 11.957,0.0512 12.857,1.3505 13.2805,2.6767 13.195,4.101 12.5282,5.5302 10.9345,6.8969 8.6633,8.1849 6.7201,9.351 5.8645,10.6057 6.7167,11.755 8.6034,12.4999 10.8214,13.1308 12.0356,13.4819 A0.747,0.747 0 0 1 11.6244,14.9181 T10.4083,14.5732 8.0146,13.8834 5.708,12.8182 4.2611,11.3186 4.5014,9.6394 5.9649,8.1252 7.9753,6.9275 10.0199,5.8572 11.3024,4.867 11.7416,3.4481 11.3835,1.5621 10.1901,0.6372 8.3837,0.6764 6.3542,0.6637 4.0961,0.6512 1.4001,0.6417 0,0.6383 A0.6383,0.6383 0 0 1 0,-0.6383 Z" stroke-linecap="round" fill="#f76707"/></g></g><g transform="matrix(1, 0, 0, 1, 2315.5216, 29950.8035) scale(0.2503887994196496, 0.2503887994196496)" opacity="1"><g transform="scale(3.9937888688223953)"><path d="M0.4377,0.4377 T-0.9568,1.8434 -3.6417,4.5502 -5.8628,7.0674 -7.8718,9.5162 -10.1102,11.707 -12.1096,13.6783 -14.0234,15.5626 -16.2313,17.1656 -18.5944,18.6946 -19.8243,19.4916 A0.6119,0.6119 0 0 1 -20.4957,18.4684 T-19.2749,17.6575 -16.9876,16.1353 -14.9491,14.6247 -13.0507,12.728 -11.0384,10.7469 -8.8957,8.6689 -6.8456,6.2038 -4.5506,3.6421 -1.8434,0.9568 -0.4377,-0.4377 A0.619,0.619 0 0 1 0.4377,0.4377 Z" stroke-linecap="round" fill="#ffc034"/></g></g><g transform="matrix(1, 0, 0, 1, 2297.749, 29949.6187) scale(0.2503887994196496, 0.2503887994196496)" opacity="1"><g transform="scale(3.9937888688223953)"><path d="M0.516,-0.3445 T1.0736,0.497 2.1912,2.0415 3.0926,3.4673 3.8757,5.0875 4.8099,6.7016 5.8666,8.3913 7.2238,10.0739 8.7877,11.8121 10.2131,13.6226 11.5157,15.4172 13.0099,17.1625 14.3704,18.6541 15.9139,20.1371 16.943,20.8607 A0.5836,0.5836 0 0 1 16.277,21.8193 T15.6792,21.4195 14.4674,20.5862 13.4154,19.5146 12.0167,18.0163 10.4473,16.2064 9.1676,14.441 7.8111,12.6825 6.2237,10.8797 4.7874,9.074 3.7206,7.3309 2.7523,5.6173 2.0527,4.1005 1.1998,2.7599 0.0475,1.1822 -0.516,0.3445 A0.6204,0.6204 0 0 1 0.516,-0.3445 Z" stroke-linecap="round" fill="#ffc034"/></g></g><g transform="matrix(1, 0, 0, 1, 2319.0762, 29918.8128) scale(0.2503887994196496, 0.2503887994196496)" opacity="1"><g transform="scale(3.9937888688223953)"><path d="M0,-0.6412 T1.1186,-0.6368 3.3873,-0.6328 5.7135,-0.6367 7.6251,-0.3377 8.9353,0.1052 10.2473,0.964 11.3518,2.3735 11.9127,4.0494 11.9068,5.9106 11.2779,7.5502 9.71,9.0489 7.4543,10.402 5.8243,11.5663 4.723,12.2536 5.0312,13.1195 6.5048,14.0496 7.9115,14.3584 9.7493,14.5314 11.9386,14.9392 14.3611,15.6386 15.6022,15.9986 A0.6352,0.6352 0 0 1 15.2578,17.2214 T14.0113,16.8809 11.7136,16.2512 9.6057,15.8965 7.5796,15.6816 5.8998,15.2545 4.205,14.1567 3.8056,12.2787 5.0455,10.5626 6.7991,9.2937 8.8367,8.1478 10.1111,7.0317 10.6302,5.8369 10.6754,4.438 10.2741,3.1137 9.553,2.0165 7.9682,1.0493 5.6896,0.6367 3.3873,0.6328 1.1186,0.6368 0,0.6412 A0.6412,0.6412 0 0 1 0,-0.6412 Z" stroke-linecap="round" fill="#ffc034"/></g></g><g transform="matrix(1, 0, 0, 1, 2358.176, 29942.5096) scale(0.2503887994196496, 0.2503887994196496)" opacity="1"><g transform="scale(3.9937888688223953)"><path d="M0.4861,-0.4861 T1.0509,0.0773 1.9737,1.2977 2.5166,2.6043 2.7988,4.1773 2.9412,6.1363 2.7222,8.6253 2.3197,11.6196 1.8142,14.6044 0.9678,17.6284 -0.0374,20.9554 -0.5631,22.7023 A0.6433,0.6433 0 0 1 -1.7969,22.3377 T-1.2886,20.5856 -0.3319,17.2731 0.4515,14.3747 0.9204,11.4261 1.3078,8.5197 1.5197,6.2295 1.4115,4.4241 0.9856,2.6074 0.0701,1.0438 -0.4861,0.4861 A0.6875,0.6875 0 0 1 0.4861,-0.4861 Z" stroke-linecap="round" fill="#f2f2f2"/></g></g><g transform="matrix(1, 0, 0, 1, 2364.1002, 29951.9884) scale(0.2503887994196496, 0.2503887994196496)" opacity="1"><g transform="scale(3.9937888688223953)"><path d="M-0.2841,0.5707 T-0.8419,0.2949 -2.1691,-0.096 -3.649,-0.2829 -5.5586,-0.393 -8.2352,-0.4632 -11.3659,-0.5266 -13.019,-0.5582 A0.6219,0.6219 0 0 1 -13.001,-1.8018 T-11.3476,-1.7855 -8.204,-1.7579 -5.4676,-1.7032 -3.4696,-1.5767 -1.78,-1.3145 -0.2791,-0.853 0.2841,-0.5707 A0.6375,0.6375 0 0 1 -0.2841,0.5707 Z" stroke-linecap="round" fill="#f2f2f2"/></g></g><g transform="matrix(1, 0, 0, 1, 2424.5272, 29937.7703) scale(0.2503887994196496, 0.2503887994196496)" opacity="1"><g transform="scale(3.9937888688223953)"><path d="M-0.9575,0.6695 T-1.7965,0.9498 -3.6109,1.6474 -5.346,2.5439 -6.7853,3.5481 -8.1777,4.3929 -9.3914,5.3107 -9.4569,6.3111 -8.4567,7.2539 -7.3206,8.3596 -5.6082,9.6293 -3.8564,10.8571 -2.5933,12.2836 -1.5751,14.5737 -1.0452,16.9962 -1.3843,18.9981 -2.4383,20.696 -3.6329,21.8734 -5.4659,22.8271 -7.8828,23.6035 -10.3987,23.7266 -12.9308,23.2024 -15.1361,22.323 -17.1779,20.9683 -19.4068,19.2063 -20.5552,18.2979 A0.6435,0.6435 0 0 1 -19.7648,17.2821 T-18.6021,18.1721 -16.4455,19.8224 -14.6039,21.0173 -12.6267,21.7896 -10.4445,22.2815 -8.305,22.2056 -5.6662,21.2535 -3.6073,19.8803 -2.6557,18.6309 -2.3755,17.1586 -2.7977,15.1067 -3.5859,13.1517 -4.6827,11.8813 -5.7889,10.9817 -6.9901,10.2249 -8.2294,9.3187 -9.364,8.2419 -10.5212,7.0794 -11.0564,5.7781 -10.2454,4.2927 -8.9074,3.2121 -7.5848,2.3921 -5.9994,1.2962 -4.1134,0.3259 -2.2426,-0.3917 -1.4025,-0.6695 A0.7055,0.7055 0 0 1 -0.9575,0.6695 Z" stroke-linecap="round" fill="#ae3ec9"/></g></g><g transform="matrix(1, 0, 0, 1, 2428.0817, 29923.5522) scale(0.2503887994196496, 0.2503887994196496)" opacity="1"><g transform="scale(3.9937888688223953)"><path d="M0.9692,-0.6341 T1.8088,-0.916 3.7063,-1.3697 5.876,-1.63 8.1333,-1.7661 10.1874,-1.8303 11.719,-1.5396 13.2995,-0.284 14.424,1.3386 14.6723,2.6771 14.4918,4.1026 13.7863,5.5272 12.8249,6.8111 11.4192,8.0808 9.8361,9.3022 8.4946,10.4512 7.2795,11.8241 6.8961,13.2313 8.4824,14.1136 10.6283,14.4674 12.3281,14.6103 14.3697,14.7325 15.4568,14.7938 A0.6368,0.6368 0 0 1 15.4032,16.0662 T14.3148,16.0359 12.2282,15.9842 10.4422,15.8888 8.6518,15.6464 6.8189,15.06 5.662,13.8995 5.4376,12.5244 6.2229,10.9438 7.5679,9.389 8.9571,8.1686 10.4375,7.0214 11.6587,5.9235 12.4955,4.833 13.0118,3.3294 12.9097,1.2941 11.8393,-0.0905 10.1748,-0.3908 8.2101,-0.3302 6.0276,-0.2295 4.0179,-0.0407 2.2303,0.3578 1.3908,0.6341 A0.6682,0.6682 0 0 1 0.9692,-0.6341 Z" stroke-linecap="round" fill="#ae3ec9"/></g></g><g transform="matrix(1, 0, 0, 1, 2436.3756, 29978.0549) scale(0.2503887994196496, 0.2503887994196496)" opacity="1"><g transform="scale(3.9937888688223953)"><path d="M0,0.7115 T-0.8396,0.7202 -2.6821,0.74 -5.0508,0.7627 -8.2574,0.7882 -11.9173,0.8102 -15.8137,0.8279 -20.1073,0.8371 -24.3867,0.5446 -28.0454,0.0956 -31.312,-0.1538 -34.3601,-0.0295 -37.0871,0.2943 -39.9923,0.4473 -43.2607,0.5514 -44.9738,0.6095 A0.61,0.61 0 0 1 -45.0262,-0.6095 T-43.3145,-0.6988 -40.0844,-0.8745 -37.2694,-1.1049 -34.4464,-1.5086 -31.2086,-1.7058 -27.8608,-1.506 -24.273,-1.1028 -20.1063,-0.8371 -15.8137,-0.8279 -11.9173,-0.8102 -8.2574,-0.7882 -5.0508,-0.7627 -2.6821,-0.74 -0.8396,-0.7202 0,-0.7115 A0.7115,0.7115 0 0 1 0,0.7115 Z" stroke-linecap="round" fill="#ae3ec9"/></g></g><g transform="matrix(1, 0, 0, 1, 2405.5697, 29988.7185) scale(0.2503887994196496, 0.2503887994196496)" opacity="1"><g transform="scale(3.9937888688223953)"><path d="M0.676,0 T0.6744,0.8396 0.6768,2.4047 0.3964,4.1662 -0.0221,5.9446 -0.528,7.713 -1.0748,9.4878 -1.3438,11.1427 -0.8957,12.8809 0.2802,13.9041 1.6564,14.5602 3.2169,15.2213 5.0246,15.5469 6.7361,15.496 8.3875,15.0978 9.3172,14.8803 A0.568,0.568 0 0 1 9.6028,15.9797 T8.6847,16.2421 6.83,16.7546 4.7953,16.8927 2.6717,16.5179 1.0178,15.8499 -0.5192,15.0432 -1.8884,13.9954 -2.6035,12.6741 -2.7525,10.9514 -2.4439,9.0736 -1.8945,7.3315 -1.3883,5.6124 -0.9545,3.9597 -0.6768,2.3967 -0.6744,0.8396 -0.676,0 A0.676,0.676 0 0 1 0.676,0 Z" stroke-linecap="round" fill="#ae3ec9"/></g></g><g transform="matrix(1, 0, 0, 1, 2417.4181, 29992.273) scale(0.2503887994196496, 0.2503887994196496)" opacity="1"><g transform="scale(3.9937888688223953)"><path d="M0.6702,0 T0.6677,0.8396 0.6691,2.4007 0.6805,4.0659 0.4051,6.15 -0.006,8.6338 -0.204,11.2686 -0.3056,14.0782 -0.6487,17.0303 -1.1255,19.707 -1.3922,21.8883 -1.6,23.8877 -1.7069,24.9485 A0.6656,0.6656 0 0 1 -3.0331,24.8315 T-2.9525,23.7683 -2.8045,21.7372 -2.5836,19.4538 -2.1352,16.8446 -1.7907,14.012 -1.6556,11.1494 -1.4044,8.3793 -0.9632,5.9652 -0.6805,4.06 -0.6691,2.4007 -0.6677,0.8396 -0.6702,0 A0.6702,0.6702 0 0 1 0.6702,0 Z" stroke-linecap="round" fill="#ae3ec9"/></g></g><g transform="matrix(1, 0, 0, 1, 2474.2905, 29961.4671) scale(0.2503887994196496, 0.2503887994196496)" opacity="1"><g transform="scale(3.9937888688223953)"><path d="M0.3517,-0.5268 T1.1875,0.0316 2.946,0.8375 4.9108,1.224 6.7889,1.4486 8.598,1.5866 10.5663,1.1334 11.5615,0.6278 A0.614,0.614 0 0 1 12.0985,1.7322 T11.5089,2.0266 10.2548,2.6147 8.5448,2.8743 6.6315,2.7617 4.6327,2.5109 2.4182,1.9953 0.4916,1.0894 -0.3517,0.5268 A0.6334,0.6334 0 0 1 0.3517,-0.5268 Z" stroke-linecap="round" fill="#f2f2f2"/></g></g><g transform="matrix(1, 0, 0, 1, 2473.1057, 29973.3155) scale(0.2503887994196496, 0.2503887994196496)" opacity="1"><g transform="scale(3.9937888688223953)"><path d="M0.6227,-0.31 T0.8405,0.1893 1.9016,0.8429 3.5104,1.1443 5.2161,1.3738 7.2166,1.5245 9.4764,1.6604 10.6758,1.7277 A0.6428,0.6428 0 0 1 10.6242,3.0123 T9.4233,2.9833 7.1282,2.9363 5.0133,2.8365 3.1552,2.5906 1.188,1.9899 -0.2823,0.9317 -0.6227,0.31 A0.6956,0.6956 0 0 1 0.6227,-0.31 Z" stroke-linecap="round" fill="#f2f2f2"/></g></g><g transform="matrix(1, 0, 0, 1, 2534.7175, 29948.4338) scale(0.2503887994196496, 0.2503887994196496)" opacity="1"><g transform="scale(3.9937888688223953)"><path d="M0.3119,0.4673 T-0.5302,1.0237 -2.0753,2.1415 -3.7444,3.3049 -5.4597,4.4783 -6.5587,5.5786 -7.4,6.664 -6.691,8.1025 -4.6542,9.5476 -3.09,10.6867 -1.4546,11.8194 0.0204,13.0329 1.1307,14.2841 2.0343,16.1538 2.5566,18.3395 2.8038,20.0315 2.6372,21.6287 2.2587,23.0624 1.4289,24.4533 0.119,25.8324 -1.0971,27.0484 -2.7094,28.0541 -4.7981,28.6356 -7.0135,28.9093 -9.3006,29.0427 -11.4501,28.8033 -13.2621,28.0616 -14.9178,27.1306 -15.7534,26.6573 A0.6704,0.6704 0 0 1 -15.1066,25.4827 T-14.2599,25.9357 -12.7234,26.7624 -11.2642,27.3617 -9.3787,27.5396 -7.1954,27.4058 -5.1735,27.1725 -3.467,26.7919 -2.1231,25.9719 -0.9161,24.7828 0.2448,23.7254 1.1447,22.0856 1.4263,20.1903 1.216,18.617 0.87,16.7247 0.1261,15.1017 -0.8219,13.9707 -2.1844,12.827 -3.8152,11.6588 -5.2625,10.5589 -7.1113,9.4153 -8.5094,7.7612 -8.3287,6.0901 -7.3648,4.8186 -6.0974,3.5649 -4.3815,2.3985 -2.726,1.2495 -1.1489,0.0973 -0.3119,-0.4673 A0.5618,0.5618 0 0 1 0.3119,0.4673 Z" stroke-linecap="round" fill="#f76707"/></g></g><g transform="matrix(1, 0, 0, 1, 2544.1963, 29915.2583) scale(0.2503887994196496, 0.2503887994196496)" opacity="1"><g transform="scale(3.9937888688223953)"><path d="M0.2231,-0.6713 T1.06,-0.387 2.8424,0.024 4.5847,0.2238 6.2101,0.6529 7.5188,1.5366 8.771,2.761 9.7231,4.3545 9.9769,5.963 10.0839,7.3488 9.8296,8.7916 9.0894,10.2303 8.1168,11.5248 7.0415,12.7578 5.919,13.9766 4.7731,15.1918 3.643,16.3372 3.5934,17.3571 4.7762,17.8905 6.5118,18.2863 8.8341,18.8027 11.6047,19.1842 13.1075,19.3909 A0.7753,0.7753 0 0 1 12.9125,20.9291 T11.4056,20.7543 8.4652,20.4116 6.1467,19.9357 4.3805,19.5076 2.9375,19.1118 2.029,18.3008 1.7804,16.9097 2.4982,15.4059 3.6939,14.1667 4.8341,12.975 5.9311,11.7899 6.9404,10.6334 8.0285,9.0513 8.5997,7.4331 8.4945,6.1639 8.228,4.5738 7.2038,2.9701 5.8,2.0063 4.4007,1.6357 2.5218,1.3864 0.6191,0.9452 -0.2231,0.6713 A0.7074,0.7074 0 0 1 0.2231,-0.6713 Z" stroke-linecap="round" fill="#f76707"/></g></g><g transform="matrix(1, 0, 0, 1, 2306.0429, 30075.212) scale(0.2503887994196496, 0.2503887994196496)" opacity="1"><g transform="scale(3.9937888688223953)"><path d="M0.5858,0.3911 T0.0236,1.2296 -1.1259,2.8169 -2.3005,4.2455 -3.4761,5.5687 -4.9309,7.1143 -6.8552,8.8159 -8.7048,10.2833 -10.4643,11.8595 -12.5636,13.5768 -14.5282,15.0594 -16.0825,16.3595 -17.7911,17.6326 -19.2053,18.7912 -20.201,19.966 -20.77,20.6283 A0.7377,0.7377 0 0 1 -21.91,19.6917 T-21.3707,19.005 -20.2634,17.62 -18.7953,16.3293 -17.1529,15.0819 -15.5347,13.7267 -13.6067,12.2887 -11.5417,10.6272 -9.6896,9.0231 -7.8722,7.6421 -6.0245,6.0659 -4.5671,4.578 -3.403,3.3223 -2.2651,1.9845 -1.1446,0.4495 -0.5858,-0.3911 A0.7044,0.7044 0 0 1 0.5858,0.3911 Z" stroke-linecap="round" fill="#ffc034"/></g></g><g transform="matrix(1, 0, 0, 1, 2290.6399, 30070.4726) scale(0.2503887994196496, 0.2503887994196496)" opacity="1"><g transform="scale(3.9937888688223953)"><path d="M0.5793,-0.3868 T1.1284,0.4605 2.2695,2.3268 3.4356,4.1157 4.6274,5.8862 6.0972,7.9137 7.7196,10.0901 9.3888,12.0431 11.1205,13.9181 12.921,16.0587 14.6805,17.9806 16.1662,19.5613 17.4975,20.9686 18.5153,22.382 19.2526,23.8321 19.6096,24.5481 A0.7164,0.7164 0 0 1 18.3504,25.2319 T17.9443,24.5426 17.2334,23.3262 16.2665,22.1441 14.8998,20.7535 13.3932,19.1523 11.593,17.1545 9.8697,15.0436 8.1461,13.0967 6.4449,11.0197 4.8581,8.7799 3.4158,6.682 2.2679,4.8697 1.1215,3.0374 -0.0073,1.2186 -0.5793,0.3868 A0.6966,0.6966 0 0 1 0.5793,-0.3868 Z" stroke-linecap="round" fill="#ffc034"/></g></g><g transform="matrix(1, 0, 0, 1, 2315.5216, 30036.1122) scale(0.2503887994196496, 0.2503887994196496)" opacity="1"><g transform="scale(3.9937888688223953)"><path d="M0.2903,-0.5793 T1.4111,-0.0241 3.3634,0.8037 5.2448,1.5186 6.9287,2.5276 8.1606,3.7116 8.8488,5.0876 8.6402,6.5689 7.8841,7.9357 6.5732,9.2409 5.0442,10.4777 3.7308,11.6338 2.4846,12.7992 1.4742,14.3416 1.5941,15.7943 2.5756,16.7702 3.7046,17.4122 5.0328,17.7004 6.5726,17.8943 8.7625,18.0077 11.0491,18.1005 13.1217,18.189 14.216,18.231 A0.7491,0.7491 0 0 1 14.184,19.729 T13.089,19.7243 11.0073,19.7241 8.6685,19.6954 6.3357,19.5782 4.598,19.3345 2.8841,18.7925 1.4271,17.859 0.3109,16.2845 -0.1065,14.5037 0.488,13.0613 1.5149,11.7769 2.7993,10.5782 4.1607,9.3755 5.5799,8.2547 6.6771,7.2134 7.361,5.8764 7.1337,4.5821 6.1703,3.6513 4.7479,2.7745 2.8531,2.0291 0.8262,1.1451 -0.2903,0.5793 A0.648,0.648 0 0 1 0.2903,-0.5793 Z" stroke-linecap="round" fill="#ffc034"/></g></g><g transform="matrix(1, 0, 0, 1, 2461.2573, 30069.2878) scale(0.2503887994196496, 0.2503887994196496)" opacity="1"><g transform="scale(3.9937888688223953)"><path d="M0.318,-0.6386 T0.8784,-0.3571 2.0602,0.3773 3.4321,0.9909 5.1465,1.2535 7.1751,1.4202 8.9818,1.2656 10.4929,0.9206 12.0775,0.6617 12.8931,0.5282 A0.6622,0.6622 0 0 1 13.1269,1.8318 T12.3156,1.99 10.8132,2.2846 9.1525,2.6981 7.0587,2.9148 4.8725,2.7181 2.8343,2.291 1.3307,1.596 0.2426,0.9153 -0.318,0.6386 A0.7134,0.7134 0 0 1 0.318,-0.6386 Z" stroke-linecap="round" fill="#f2f2f2"/></g></g><g transform="matrix(1, 0, 0, 1, 2460.0724, 30081.1362) scale(0.2503887994196496, 0.2503887994196496)" opacity="1"><g transform="scale(3.9937888688223953)"><path d="M0.3445,-0.6918 T0.9048,-0.4125 2.3227,0.2839 4.1038,0.8828 6.074,1.169 8.2321,1.3596 10.6075,1.5343 11.8713,1.6227 A0.7485,0.7485 0 0 1 11.7887,3.1173 T10.5228,3.066 8.0981,2.9754 5.8046,2.8026 3.573,2.3992 1.6264,1.6894 0.2162,0.9706 -0.3445,0.6918 A0.7728,0.7728 0 0 1 0.3445,-0.6918 Z" stroke-linecap="round" fill="#f2f2f2"/></g></g><g transform="matrix(1, 0, 0, 1, 2529.9782, 30045.5909) scale(0.2503887994196496, 0.2503887994196496)" opacity="1"><g transform="scale(3.9937888688223953)"><path d="M0.1821,0.5479 T-0.6572,0.8275 -2.4765,1.5272 -4.2246,2.432 -5.6736,3.4454 -6.9817,4.5212 -7.8798,5.8268 -8.3182,7.2786 -8.5858,8.5595 -8.1141,9.7784 -7.0605,10.924 -6.0423,11.9919 -4.9445,13.1266 -3.4656,14.4955 -2.1317,15.763 -0.9,16.9747 0.316,18.1803 0.9864,19.2756 1.3909,20.542 1.3006,21.9127 0.5421,23.6595 -0.4475,25.1223 -1.5129,25.8591 -2.7378,26.2993 -4.5368,26.5221 -6.6016,26.6357 -8.7963,26.6894 -11.1672,26.4215 -12.9969,25.9945 -14.5543,25.4631 -16.0258,24.5722 -17.3472,23.5231 -18.6713,22.3828 -19.36,21.7905 A0.5894,0.5894 0 0 1 -18.6,20.8895 T-17.9001,21.4686 -16.5891,22.5511 -15.3673,23.4893 -14.1399,24.2423 -12.6944,24.7029 -10.9891,25.0993 -8.8242,25.3348 -6.6664,25.2845 -4.7173,25.2007 -2.7111,24.8786 -1.0584,24.0019 -0.0097,22.364 0.0395,20.3801 -0.8446,18.5645 -2.0336,17.3791 -3.2864,16.1547 -4.5944,14.8997 -5.7931,13.9585 -6.9011,12.8089 -7.9414,11.7145 -9.1244,10.1814 -9.7195,8.4355 -9.4354,6.9205 -8.827,5.1943 -7.7387,3.6468 -6.3365,2.4947 -4.7608,1.4081 -2.8877,0.4461 -1.0219,-0.2693 -0.1821,-0.5479 A0.5774,0.5774 0 0 1 0.1821,0.5479 Z" stroke-linecap="round" fill="#f76707"/></g></g><g transform="matrix(1, 0, 0, 1, 2497.9874, 30040.8516) scale(0.2503887994196496, 0.2503887994196496)" opacity="1"><g transform="scale(3.9937888688223953)"><path d="M1.463,-0.5683 T2.0187,-0.2884 3.3506,0.1118 4.9402,0.6158 6.7049,1.4691 8.2407,2.5252 9.3702,3.6687 10.2611,4.8798 10.7894,6.4946 10.7632,8.3254 10.1285,9.9467 9.1351,11.1426 8.0552,12.0311 6.9743,12.9965 5.4413,13.8562 3.8283,14.5716 4.1965,15.6918 5.7658,16.9345 6.8881,17.9742 8.0404,19.0797 8.9847,20.2958 9.5311,21.6239 9.5023,23.0656 8.8206,24.2642 7.5525,25.1711 6.1053,26.1378 4.8293,27.1755 3.1996,28.0684 1.4119,28.5796 -0.3695,28.8262 -2.4488,28.9497 -4.4735,28.7067 -6.1989,27.9654 -7.4376,26.9281 -8.306,25.7887 -8.7215,25.2267 A0.5552,0.5552 0 0 1 -7.8385,24.5533 T-7.0985,25.5225 -5.7006,26.8652 -4.3021,27.4708 -2.5173,27.6563 -0.5542,27.5339 1.0806,27.3138 2.5892,26.9395 4.028,26.1522 5.3883,25.0607 6.8255,24.1144 8.02,23.1081 8.1117,21.5232 7.164,19.9753 6.0405,18.8865 4.5179,17.5219 3.0479,16.3758 2.4931,15.013 3.2565,13.4669 4.8162,12.7539 6.1171,12.0071 7.6248,10.7347 8.9204,9.4111 9.4605,8.23 9.3097,6.3777 8.4218,4.565 7.4709,3.5397 6.1271,2.6076 4.5457,1.8066 2.9632,1.2986 1.4623,0.8465 0.897,0.5683 A0.6349,0.6349 0 0 1 1.463,-0.5683 Z" stroke-linecap="round" fill="#f76707"/></g></g><g transform="matrix(1, 0, 0, 1, 2534.7175, 30026.6335) scale(0.2503887994196496, 0.2503887994196496)" opacity="1"><g transform="scale(3.9937888688223953)"><path d="M0.9726,-0.6238 T1.8129,-0.9038 3.711,-1.3463 5.6048,-1.59 7.2728,-1.4204 8.7441,-1.0398 9.8852,-0.4649 10.6441,0.8794 10.7119,2.6006 10.1091,4.1354 9.1926,5.495 8.1397,6.7621 6.9486,7.7654 5.773,8.5692 4.7212,9.0361 4.9524,9.3588 6.6795,10.0018 8.6404,10.5371 10.4369,10.8131 12.0619,11.2965 13.6672,12.0573 14.4617,12.4413 A0.626,0.626 0 0 1 13.9383,13.5787 T13.1299,13.2251 11.6937,12.5864 10.2183,12.2109 8.2588,11.916 6.2787,11.3681 4.2703,10.4701 3.7766,8.9279 5.5195,7.2164 7.1279,5.9083 8.0922,4.7435 9.0677,3.0877 9.2991,1.1814 8.341,0.2292 7.0973,-0.1177 5.7406,-0.2695 4.0133,-0.0641 2.2263,0.3456 1.3874,0.6238 A0.6574,0.6574 0 0 1 0.9726,-0.6238 Z" stroke-linecap="round" fill="#f76707"/></g></g><g transform="matrix(1, 0, 0, 1, 2488.5087, 30089.4301) scale(0.2503887994196496, 0.2503887994196496)" opacity="1"><g transform="scale(3.9937888688223953)"><path d="M0,-0.6848 T1.1186,-0.6836 3.1083,-0.6851 4.999,-0.6968 7.2019,-0.4248 9.215,-0.0098 11.0236,0.1912 13.3671,0.2904 16.2943,0.3397 19.5197,0.3637 22.8993,0.3729 26.3596,0.3779 30.1409,0.3835 34.322,0.1178 38.4304,-0.5649 42.045,-1.1941 45.0647,-1.7856 48.0135,-2.5974 49.5927,-3.033 A0.689,0.689 0 0 1 49.9673,-1.707 T48.3935,-1.252 45.3593,-0.374 42.3062,0.2825 38.6877,0.9533 34.4202,1.6784 30.1397,1.9658 26.3554,1.9617 22.8912,1.9485 19.5037,1.9231 16.261,1.8814 13.2871,1.8059 10.8416,1.6683 8.912,1.4202 7.0181,0.9829 4.9937,0.6968 3.1083,0.6851 1.1186,0.6836 0,0.6848 A0.6848,0.6848 0 0 1 0,-0.6848 Z" stroke-linecap="round" fill="#f76707"/></g></g><g transform="matrix(1, 0, 0, 1, 2506.2813, 30100.0937) scale(0.2503887994196496, 0.2503887994196496)" opacity="1"><g transform="scale(3.9937888688223953)"><path d="M0.6015,0 T0.592,0.8641 0.2642,2.3055 -0.5037,3.4233 -1.5349,5.3038 -2.3075,7.3263 -2.5945,8.8952 -2.4729,10.4423 -1.8853,11.7162 -0.8174,12.8974 0.7514,13.7506 2.3725,14.2084 4.0511,14.4737 5.9558,14.3417 7.7985,13.997 9.3136,13.5694 10.7764,12.8865 11.5905,12.5113 A0.5532,0.5532 0 0 1 12.0695,13.5087 T11.2676,13.9094 9.664,14.6988 8.0358,15.221 6.0408,15.6104 3.8497,15.7675 2.0016,15.4775 0.1171,14.8814 -1.7799,13.7349 -3.0432,12.2256 -3.6927,10.5661 -3.7917,8.6743 -3.4379,6.904 -2.814,5.2995 -2.1477,3.8394 -1.2297,2.4217 -0.592,0.815 -0.6015,0 A0.6015,0.6015 0 0 1 0.6015,0 Z" stroke-linecap="round" fill="#f76707"/></g></g><g transform="matrix(1, 0, 0, 1, 2518.1297, 30103.6482) scale(0.2503887994196496, 0.2503887994196496)" opacity="1"><g transform="scale(3.9937888688223953)"><path d="M0.5995,0 T0.6008,1.4001 0.6105,4.0961 0.6342,6.9147 0.6624,9.801 0.4039,12.7926 -0.003,16.0567 -0.4996,19.1874 -1.0428,21.9615 -1.3241,24.4721 -1.4893,26.6337 -1.6243,28.6111 -1.6933,29.6578 A0.6778,0.6778 0 0 1 -3.0467,29.5822 T-2.9986,28.5343 -2.9115,26.5372 -2.7722,24.3107 -2.4758,21.6809 -1.9228,18.9463 -1.4074,15.8696 -0.9621,12.668 -0.6624,9.7992 -0.6342,6.9147 -0.6105,4.0961 -0.6008,1.4001 -0.5995,0 A0.5995,0.5995 0 0 1 0.5995,0 Z" stroke-linecap="round" fill="#f76707"/></g></g><g transform="matrix(1, 0, 0, 1, 2304.858, 30177.1085) scale(0.2503887994196496, 0.2503887994196496)" opacity="1"><g transform="scale(3.9937888688223953)"><path d="M0.6169,0.2051 T0.3388,1.0466 -0.3944,2.674 -1.6608,4.4464 -3.4905,6.2582 -5.8718,8.0669 -8.4813,10.1072 -11.261,12.3169 -14.1376,14.6144 -16.7443,16.9229 -19.274,19.0034 -21.4185,20.9001 -23.082,22.6967 -24.7324,24.4222 -25.5976,25.3311 A0.6463,0.6463 0 0 1 -26.5424,24.4489 T-25.695,23.5234 -24.0956,21.7681 -22.3643,19.8533 -20.1852,17.8936 -17.697,15.8427 -15.0272,13.498 -12.137,11.2112 -9.3323,9.0124 -6.6943,6.9776 -4.423,5.2989 -2.7374,3.6795 -1.5789,2.1274 -0.8969,0.6325 -0.6169,-0.2051 A0.6501,0.6501 0 0 1 0.6169,0.2051 Z" stroke-linecap="round" fill="#ffc034"/></g></g><g transform="matrix(1, 0, 0, 1, 2284.7157, 30178.2933) scale(0.2503887994196496, 0.2503887994196496)" opacity="1"><g transform="scale(3.9937888688223953)"><path d="M0.3666,-0.5491 T1.1992,0.022 2.7771,1.1802 4.2023,2.3521 5.528,3.5231 6.839,5.0187 8.3363,6.5839 9.9327,7.9075 11.6674,9.4859 13.4793,11.493 15.0118,13.4014 16.3787,15.2547 17.6548,17.0752 18.8758,18.8794 20.165,21.0043 20.8335,22.1042 A0.7915,0.7915 0 0 1 19.4865,22.9358 T18.8026,21.8455 17.5257,19.8144 16.2888,18.0407 15.0281,16.2495 13.7084,14.4357 12.2614,12.5718 10.5826,10.652 8.9246,9.0692 7.2694,7.5806 5.783,5.9366 4.6186,4.5201 3.3654,3.3514 2.0242,2.2107 0.4799,1.099 -0.3666,0.5491 A0.6602,0.6602 0 0 1 0.3666,-0.5491 Z" stroke-linecap="round" fill="#ffc034"/></g></g><g transform="matrix(1, 0, 0, 1, 2454.1482, 30179.4782) scale(0.2503887994196496, 0.2503887994196496)" opacity="1"><g transform="scale(3.9937888688223953)"><path d="M0.3043,-0.6073 T1.4277,-0.0563 3.7055,1.0586 5.7013,1.9041 7.2262,2.333 9.1009,2.1986 10.8092,1.6291 12.0006,1.1545 13.3534,0.786 14.0317,0.6044 A0.5997,0.5997 0 0 1 14.3683,1.7556 T13.1642,2.1349 11.2502,2.8976 9.9432,3.3877 8.517,3.7015 6.8801,3.7369 5.1436,3.2412 3.0692,2.3324 0.8096,1.1774 -0.3043,0.6073 A0.6793,0.6793 0 0 1 0.3043,-0.6073 Z" stroke-linecap="round" fill="#f2f2f2"/></g></g><g transform="matrix(1, 0, 0, 1, 2455.3331, 30192.5114) scale(0.2503887994196496, 0.2503887994196496)" opacity="1"><g transform="scale(3.9937888688223953)"><path d="M0.2244,0.5105 T1.0694,0.7727 2.8565,1.1522 5.1295,1.3509 7.9817,1.524 9.5032,1.6159 A0.7553,0.7553 0 0 1 9.4168,3.1241 T7.8949,3.0418 4.9722,2.8844 2.5077,2.6301 0.6098,2.1502 -0.2244,1.8495 A0.7061,0.7061 0 0 1 0.2244,0.5105 Z" stroke-linecap="round" fill="#f2f2f2"/></g></g><g transform="matrix(1, 0, 0, 1, 2492.6556, 30171.7767) scale(0.2503887994196496, 0.2503887994196496)" opacity="1"><g transform="scale(3.9937888688223953)"><path d="M0.5791,-0.2883 T0.8578,0.274 1.3043,1.4693 1.7964,2.6007 2.343,3.7557 2.6785,5.0455 2.8466,6.2843 3.3669,8.0232 3.9287,10.0812 4.0648,11.7585 4.1488,13.3361 4.1933,14.161 A0.6444,0.6444 0 0 1 2.9067,14.239 T2.8512,13.4148 2.7453,11.8633 2.486,9.7925 1.8906,7.1727 1.262,4.8321 0.4997,2.5867 -0.2996,0.847 -0.5791,0.2883 A0.6469,0.6469 0 0 1 0.5791,-0.2883 Z" stroke-linecap="round" fill="#f76707"/></g></g><g transform="matrix(1, 0, 0, 1, 2497.395, 30184.81) scale(0.2503887994196496, 0.2503887994196496)" opacity="1"><g transform="scale(3.9937888688223953)"><path d="M0.4797,-0.2388 T0.6565,0.2536 0.8679,0.6832 0.9024,0.6203 A0.531,0.531 0 0 1 0.8021,1.6775 T0.5426,1.5867 -0.0984,0.8674 -0.4797,0.2388 A0.5359,0.5359 0 0 1 0.4797,-0.2388 ZM0.3417,1.0033 T0.4191,0.733 0.5282,-0.185 0.5819,-1.4788 0.9074,-3.0979 1.3542,-5.0634 1.8673,-7.2045 2.7102,-9.5121 3.4128,-12.0682 4.0592,-14.827 4.9749,-17.4661 5.719,-19.9232 6.0937,-22.2799 6.5853,-24.6986 7.1292,-26.8247 7.5192,-28.7209 7.7275,-29.7327 A0.5639,0.5639 0 0 1 8.8325,-29.5073 T8.6278,-28.4948 8.2342,-26.5497 7.7041,-24.4703 7.2168,-22.0952 6.7932,-19.6009 6.0224,-17.0983 5.1227,-14.5714 4.4514,-11.7732 3.7217,-9.1427 2.9058,-6.958 2.3896,-4.8202 1.9423,-2.9116 1.6391,-1.4249 1.568,-0.0115 1.4405,1.0214 1.3629,1.2946 A0.531,0.531 0 0 1 0.3417,1.0033 Z" stroke-linecap="round" fill="#f76707"/></g></g><g transform="matrix(1, 0, 0, 1, 2512.7979, 30165.8525) scale(0.2503887994196496, 0.2503887994196496)" opacity="1"><g transform="scale(3.9937888688223953)"><path d="M0,-0.6351 T1.1186,-0.6352 3.1083,-0.6371 4.7173,-0.6414 6.6879,-0.6497 8.9526,-0.3617 10.894,0.7383 12.0141,2.3462 12.2708,3.884 11.7312,5.4127 10.5051,6.5938 9.3753,7.3115 8.9064,8.469 9.5529,9.845 10.9113,10.8588 12.1379,11.948 13.1214,13.1352 13.9094,14.5326 13.7479,16.1463 12.3745,17.3402 10.7219,17.9333 9.0115,18.2047 6.9768,18.3413 4.7873,18.403 2.6985,18.1244 0.6969,17.3812 -1.1922,16.3827 -2.9441,15.2508 -3.845,14.6694 A0.5544,0.5544 0 0 1 -3.255,13.7306 T-2.3404,14.2901 -0.6473,15.3229 1.126,16.1875 2.8876,16.8163 4.7534,17.0229 6.8816,16.9462 8.7857,16.8204 10.3039,16.5937 11.6004,16.2417 12.4101,15.3058 11.7286,13.5054 10.0581,11.8872 8.456,10.4388 7.6701,8.9105 7.759,7.6025 8.9905,6.1028 10.5831,4.8587 10.923,3.4182 10.1715,1.7931 8.7253,0.9198 6.6799,0.6497 4.7173,0.6414 3.1083,0.6371 1.1186,0.6352 0,0.6351 A0.6351,0.6351 0 0 1 0,-0.6351 Z" stroke-linecap="round" fill="#f76707"/></g></g><g transform="matrix(1, 0, 0, 1, 2506.8737, 30152.8192) scale(0.2503887994196496, 0.2503887994196496)" opacity="1"><g transform="scale(3.9937888688223953)"><path d="M0.2176,-0.6547 T1.0568,-0.3774 2.8418,0.0263 4.8486,0.2206 6.7533,0.3244 8.5967,0.376 10.4049,0.3995 12.4886,0.4103 14.9976,0.4141 17.1605,0.4169 19.1375,0.4198 21.2979,0.4214 23.5723,0.4274 25.4899,0.7642 26.9528,1.8961 28.0196,3.4292 28.5711,5.1515 28.8521,6.9194 28.9861,8.6794 29.0529,10.7356 29.0787,12.9455 29.0814,14.9577 29.0719,16.8576 29.0588,19.0194 29.0541,20.1579 A0.6141,0.6141 0 0 1 27.8259,20.1621 T27.8133,19.0237 27.7852,16.8648 27.7551,14.9704 27.7186,12.9688 27.6703,10.7847 27.5963,8.7933 27.4631,7.1272 27.2373,5.5802 26.827,4.1896 25.6156,2.7703 23.5421,1.931 21.297,1.9356 19.1356,1.9346 17.1572,1.9324 14.9921,1.9256 12.4746,1.9111 10.3787,1.8872 8.546,1.845 6.6671,1.7719 4.6949,1.639 2.5225,1.3842 0.6223,0.9356 -0.2176,0.6547 A0.6899,0.6899 0 0 1 0.2176,-0.6547 Z" stroke-linecap="round" fill="#f76707"/></g></g><g transform="matrix(1, 0, 0, 1, 2563.7462, 30164.6676) scale(0.2503887994196496, 0.2503887994196496)" opacity="1"><g transform="scale(3.9937888688223953)"><path d="M0.2547,0.5116 T-0.3072,0.7908 -1.4952,1.2359 -2.6296,1.7293 -3.7843,2.2727 -4.9545,2.8379 -6.3568,3.6744 -7.6115,4.6257 -8.1705,5.8313 -8.4714,7.248 -8.0204,9.0152 -6.9851,10.6839 -5.7583,11.805 -4.3445,12.6317 -2.7453,13.3734 -0.7389,14.3527 0.9565,15.4782 2.1218,16.3548 3.078,17.4982 3.4022,19.1914 2.9175,20.7422 1.7135,22.1802 -0.1587,23.2685 -2.2483,24.0901 -4.4729,24.7888 -6.9209,24.8927 -9.4007,24.3586 -12.0812,23.4903 -15.1509,22.4582 -18.5499,21.3139 -20.3412,20.7143 A0.5832,0.5832 0 0 1 -19.9788,19.6057 T-18.1792,20.1802 -14.7641,21.2639 -11.6813,22.2262 -9.1045,23.0242 -6.9577,23.5247 -4.8719,23.4647 -2.7388,22.7932 -0.8047,22.074 0.7036,21.2978 1.6692,20.2656 1.9385,18.7004 1.2883,17.342 0.201,16.5285 -1.319,15.5059 -3.2868,14.5274 -4.9743,13.717 -6.6111,12.7026 -7.9867,11.3983 -8.9092,10.06 -9.5459,8.5732 -9.6278,7.0139 -9.192,5.309 -8.3532,3.7684 -6.9554,2.6949 -4.913,1.6541 -2.551,0.5648 -0.8138,-0.2327 -0.2547,-0.5116 A0.5715,0.5715 0 0 1 0.2547,0.5116 Z" stroke-linecap="round" fill="#f76707"/></g></g><g transform="matrix(1, 0, 0, 1, 2493.8405, 30200.2129) scale(0.2503887994196496, 0.2503887994196496)" opacity="1"><g transform="scale(3.9937888688223953)"><path d="M0,-0.6603 T0.8396,-0.6557 2.4106,-0.649 3.9187,-0.3459 5.5306,0.0746 7.1042,0.2623 8.7821,0.361 11.0696,0.4049 13.6883,0.4199 16.468,0.4226 19.6117,0.4212 22.9479,0.4184 26.3852,0.4154 29.8758,0.4146 33.1131,0.4156 36.2169,0.4161 39.2527,0.4182 42.2612,0.4198 45.4736,0.147 48.5619,-0.2765 51.6532,-0.5034 54.9675,-0.6201 58.3915,-0.6803 61.8746,-0.7114 65.1076,-0.7256 67.9299,-0.7287 70.5361,-0.7274 73.0401,-0.72 75.7716,-0.7067 78.6089,-0.6839 81.4517,-0.6563 82.9499,-0.6447 A0.6447,0.6447 0 0 1 82.9501,0.6447 T81.452,0.6568 78.6092,0.6855 75.7724,0.7097 73.0415,0.7256 70.5387,0.7381 67.9346,0.7491 65.1154,0.7642 61.8888,0.7846 58.419,0.8193 55.0222,0.8838 51.7663,1.0038 48.7628,1.2261 45.5995,1.6548 42.2628,1.9399 39.2526,1.9413 36.2167,1.9431 33.1128,1.9429 29.8753,1.9424 26.3841,1.9389 22.9457,1.9309 19.6074,1.9184 16.4586,1.8988 13.6705,1.8668 11.0286,1.8161 8.6832,1.7353 6.9283,1.5973 5.1742,1.3358 3.6491,0.9041 2.3907,0.649 0.8396,0.6557 0,0.6603 A0.6603,0.6603 0 0 1 0,-0.6603 Z" stroke-linecap="round" fill="#f76707"/></g></g><g transform="matrix(1, 0, 0, 1, 2516.3525, 30217.9856) scale(0.2503887994196496, 0.2503887994196496)" opacity="1"><g transform="scale(3.9937888688223953)"><path d="M1.18,-0.6395 T2.0165,-0.637 3.7737,-0.9043 5.823,-1.335 8.1116,-1.5824 10.2532,-1.4252 12.3121,-0.7668 14.0396,0.207 15.047,1.3989 15.5864,2.9902 15.5461,4.8152 14.8958,6.4182 13.9571,7.815 12.8915,9.1048 11.692,10.1225 10.1808,10.9632 8.6214,11.9088 7.2831,12.9395 6.0207,14.048 4.8112,14.7365 4.9783,15.2073 6.7115,15.9236 8.4067,16.4538 10.0389,16.7011 12.0071,16.8266 14.1821,16.8928 16.1713,16.9309 18.3373,16.9665 21.078,17.0017 22.5246,17.0183 A0.7717,0.7717 0 0 1 22.5154,18.5617 T21.0686,18.5608 18.3188,18.563 16.1373,18.5533 14.1222,18.5055 11.8852,18.4087 9.7716,18.2246 7.9488,17.8847 6.2742,17.3007 4.3272,16.3442 3.8745,14.6998 5.1473,13.0514 6.4769,11.8886 7.93,10.7814 10.0226,9.5406 11.8641,8.2435 12.841,7.0546 13.6598,5.8751 14.2171,4.7078 14.0793,2.9476 13.3017,1.3391 11.8709,0.5143 10.1091,-0.1129 8.2318,-0.2772 6.0806,-0.0754 3.9505,0.3462 2.0227,0.637 1.18,0.6395 A0.6395,0.6395 0 0 1 1.18,-0.6395 Z" stroke-linecap="round" fill="#f76707"/></g></g><g transform="matrix(1, 0, 0, 1, 2191.1131, 29590.6114) scale(0.2503887994196496, 0.2503887994196496)" opacity="1"><g transform="scale(3.9937888688223953)"><path d="M0.1724,-0.5186 T1.0099,-0.2357 2.8053,0.1832 4.83,0.3943 6.7423,0.5097 8.5901,0.5692 10.6818,0.5983 12.9156,0.613 14.9423,0.6186 16.8499,0.619 18.6947,0.6183 20.5064,0.6173 22.8613,0.6161 25.5,0.6133 28.0093,0.6092 30.7317,0.6063 33.5657,0.6043 36.2399,0.8891 38.7707,1.3164 41.1616,1.5316 43.5493,1.6437 46.0041,1.99 48.6903,2.4478 51.4411,2.6793 54.0162,2.8038 56.4902,2.8694 58.9121,2.9038 61.5857,2.9219 64.3932,2.9315 66.927,2.6643 69.3808,2.2426 72.1539,2.0127 75.0256,1.893 77.654,1.8306 80.1609,1.7959 82.601,1.7754 85.0057,1.7639 87.6732,1.7574 90.4766,1.7537 93.0726,1.7514 95.5593,1.7501 97.9885,1.7492 100.6688,1.7487 103.4908,1.7483 106.1085,1.7463 108.6066,1.7429 111.0418,1.7404 113.4481,1.737 115.9067,2.0201 118.3202,2.4452 120.6391,2.6597 122.9789,2.7722 125.3327,2.8295 127.6918,2.859 130.0536,2.8739 132.4169,2.8814 134.7928,2.8849 137.1754,2.8866 139.5497,2.8873 141.9219,2.8875 144.2928,2.8878 146.7356,3.1756 149.1404,3.604 151.7268,3.8201 154.49,3.9342 157.0692,3.9929 159.5461,4.0233 161.9722,4.0389 164.3811,4.0467 166.7811,4.0506 169.1645,4.0525 171.5392,4.0534 174.1907,4.0538 176.9858,4.0539 179.5775,4.0539 182.0643,4.0539 184.4935,4.0538 186.8923,4.0538 189.2751,4.0537 191.6495,4.0537 194.0218,4.0537 196.4025,4.0537 198.7853,4.0537 201.1596,4.0537 203.5319,4.0537 205.9007,4.0536 208.2677,4.0536 210.6338,4.0536 212.9994,4.0536 215.367,4.0536 217.7334,4.0536 220.0992,4.0536 222.4646,4.0536 225.1207,4.0536 227.9323,4.0536 230.5327,4.0536 233.0218,4.0536 235.4545,4.0536 238.1343,4.0536 240.946,4.0538 243.621,4.3433 246.4236,4.7745 249.2282,4.9935 251.8309,5.1095 254.6092,5.1687 257.4824,5.1994 260.1187,5.2152 262.9052,5.2232 265.7714,5.2271 268.6834,5.2292 271.6856,5.516 274.3882,5.9446 277.1397,6.1629 279.9877,6.2792 282.6107,6.3412 285.4009,6.3738 288.2807,6.3911 290.9176,6.4002 293.427,6.405 296.0865,6.1343 298.8829,5.7114 301.5368,5.4824 304.0578,5.3625 306.5061,5.2998 308.9177,5.2668 311.3074,5.2495 313.6855,5.2404 315.7781,5.2356 317.73,5.233 319.8869,5.232 322.0639,4.9598 324.3317,4.5321 326.7263,4.2963 328.8245,4.1744 330.7708,4.1108 332.9192,4.0773 335.169,4.0597 337.4754,4.0505 339.5303,4.0456 341.4504,4.0431 343.5811,4.0417 345.825,4.041 347.8589,4.0406 350.0612,4.0404 352.6196,4.0403 355.3655,4.0403 358.2127,4.0403 360.5528,4.0402 362.9046,4.0402 365.2627,4.0402 367.345,4.0384 369.2819,4.0353 371.4213,4.0331 373.6675,4.0314 375.6907,4.0301 377.8875,4.0292 379.8966,4.0286 382.074,4.0281 384.6192,4.0278 387.3577,4.0279 389.8328,3.7599 392.2686,3.3352 395.0375,3.0998 397.8885,2.9796 400.7897,2.9166 403.4355,2.8836 405.949,2.8662 408.1131,2.8553 409.8258,2.8475 411.8594,2.8428 414.0426,2.841 415.6352,2.5808 417.3307,2.1562 419.1732,1.9116 420.6902,1.7893 422.6197,1.7249 424.759,1.6911 427.0035,1.6734 429.8643,1.6641 432.7689,1.6592 435.4186,1.6568 437.8676,1.3827 439.9948,0.9564 442.0363,0.7217 444.246,0.598 446.245,0.5341 448.4204,0.5006 450.6801,0.4842 452.3133,0.2165 454.3205,-0.2132 456.5986,-0.4585 458.2227,-0.8332 459.9402,-1.3196 461.7939,-1.6017 463.6047,-1.7425 465.686,-1.8162 467.9126,-1.8494 469.7823,-1.555 471.3043,-1.1282 472.8234,-0.9206 474.3766,-0.7438 475.206,-0.6503 A0.6537,0.6537 0 0 1 475.074,0.6503 T474.2428,0.5753 472.6447,0.4325 470.4457,-0.0399 467.9079,-0.4265 465.7369,-0.3842 463.7191,-0.3147 461.9969,-0.1838 460.333,0.0497 458.5619,0.5418 456.7526,0.9646 454.6429,1.1736 452.5693,1.6059 450.7044,1.9148 448.4447,1.9334 446.2895,1.9663 444.3256,2.0284 442.2015,2.1438 440.265,2.3628 438.03,2.7974 435.4238,3.0889 432.7713,3.0916 429.8691,3.0962 427.0156,3.1052 424.7807,3.1222 422.6745,3.1542 420.8021,3.2146 419.3504,3.3292 417.6778,3.5342 415.8895,3.9626 414.0578,4.262 411.8614,4.2628 409.8297,4.2632 408.1189,4.2651 405.9587,4.2724 403.4529,4.2896 400.8197,4.3224 397.9492,4.3841 395.1526,4.5006 392.5185,4.7144 390.0152,5.1419 387.3635,5.4321 384.6192,5.4322 382.074,5.4319 379.8966,5.4314 377.8875,5.4308 375.6907,5.4299 373.6675,5.4286 371.4213,5.4269 369.2819,5.4247 367.345,5.4216 365.2627,5.4198 362.9047,5.4198 360.5528,5.4198 358.2128,5.4198 355.3656,5.4198 352.6196,5.4199 350.0614,5.42 347.8591,5.4202 345.8254,5.4206 343.582,5.4213 341.4523,5.4226 339.5335,5.4252 337.481,5.43 335.1798,5.4392 332.9409,5.4567 330.817,5.4895 328.902,5.5517 326.8595,5.6688 324.5831,5.8863 322.233,6.3189 319.8925,6.611 317.7319,6.6126 315.7812,6.6151 313.6907,6.6199 311.3174,6.629 308.9365,6.6462 306.5412,6.6788 304.1226,6.7404 301.6535,6.8565 299.0841,7.0751 296.2143,7.5019 293.4265,7.7842 290.9128,7.7795 288.2725,7.7703 285.3841,7.7528 282.5783,7.7196 279.9318,7.6566 277.0261,7.5358 274.1733,7.3042 271.5459,6.8792 268.6795,6.6051 265.7691,6.6021 262.9006,6.5963 260.1097,6.5859 257.4669,6.5667 254.5774,6.5311 251.7699,6.4645 249.1229,6.3418 246.2111,6.1079 243.4712,5.6796 240.9425,5.4062 238.1343,5.4064 235.4545,5.4064 233.0218,5.4064 230.5327,5.4064 227.9323,5.4064 225.1207,5.4064 222.4646,5.4064 220.0992,5.4064 217.7334,5.4064 215.367,5.4064 212.9994,5.4064 210.6338,5.4064 208.2677,5.4064 205.9007,5.4064 203.5319,5.4063 201.1596,5.4063 198.7853,5.4063 196.4025,5.4063 194.0218,5.4063 191.6495,5.4063 189.2751,5.4062 186.8923,5.4062 184.4934,5.4061 182.0642,5.4059 179.5774,5.4057 176.9856,5.4053 174.1904,5.4047 171.5384,5.4036 169.1631,5.4018 166.7784,5.3986 164.376,5.3929 161.9627,5.3825 159.5285,5.3635 157.0373,5.3281 154.4345,5.262 151.61,5.1393 148.9071,4.9062 146.5798,4.4821 144.2885,4.2114 141.9215,4.2109 139.5489,4.2097 137.174,4.2078 134.7901,4.2043 132.4118,4.1983 130.044,4.1875 127.6736,4.1678 125.2985,4.1315 122.9144,4.0641 120.5181,3.9399 118.0955,3.7053 115.7571,3.2781 113.4442,3.003 111.0418,2.9996 108.6066,2.9972 106.1085,2.9939 103.4908,2.9919 100.6689,2.9917 97.9887,2.9916 95.5597,2.9915 93.0732,2.9915 90.4777,2.992 87.6755,2.9932 85.0104,2.9963 82.6097,3.003 80.1768,3.0169 77.6825,3.0475 75.0751,3.109 72.257,3.2245 69.5829,3.4408 67.0588,3.866 64.3921,4.1466 61.5769,4.1365 58.8945,4.1172 56.4576,4.0808 53.9573,4.012 51.3388,3.8813 48.4801,3.6288 45.8353,3.1679 43.4878,2.8303 41.0532,2.7037 38.5748,2.4659 36.1111,2.0337 33.5627,1.7556 30.7317,1.7535 28.0092,1.7503 25.4998,1.7459 22.8609,1.7423 20.5056,1.7397 18.6932,1.7361 16.8471,1.7303 14.9375,1.7211 12.9071,1.7084 10.6646,1.6885 8.5527,1.6518 6.6781,1.5866 4.7136,1.4653 2.5589,1.2272 0.6692,0.7938 -0.1724,0.5186 A0.5465,0.5465 0 0 1 0.1724,-0.5186 Z" stroke-linecap="round" fill="#f2f2f2"/></g></g><g transform="matrix(1, 0, 0, 1, 2432.8211, 29276.628) scale(0.2503887994196496, 0.2503887994196496)" opacity="1"><g transform="scale(3.9937888688223953)"><path d="M-0.4625,0.2303 T-0.6242,-0.6741 -0.3745,-1.8732 0.3802,-0.9703 0.703,0.1694 0.6763,0.0503 0.6789,-0.0717 0.7106,-0.1896 0.7696,-0.2964 0.8525,-0.386 0.9544,-0.4532 1.0694,-0.494 1.1908,-0.5061 1.3117,-0.4888 1.4248,-0.4431 1.5237,-0.3716 1.6027,-0.2786 0.9077,-0.3938 -0.0048,-0.6338 -0.1884,-0.7073 A0.5088,0.5088 0 0 1 0.1884,-1.6527 T0.3722,-1.5797 0.6398,-0.6397 0.703,0.1694 0.6763,0.0503 0.6789,-0.0717 0.7106,-0.1896 0.7696,-0.2964 0.8525,-0.386 0.9544,-0.4532 1.0694,-0.494 1.1908,-0.5061 1.3117,-0.4888 1.4248,-0.4431 1.5237,-0.3716 1.6027,-0.2786 1.0638,-0.7415 0.0804,-0.9596 0.0661,-0.4469 0.4625,-0.2303 A0.5167,0.5167 0 0 1 -0.4625,0.2303 Z" stroke-linecap="round" fill="#f2f2f2"/></g></g><g transform="matrix(1, 0, 0, 1, 2431.6362, 29275.4432) scale(0.2503887994196496, 0.2503887994196496)" opacity="1"><g transform="scale(3.9937888688223953)"><path d="M0.5353,0.2665 T0.256,0.8269 -0.4511,2.2428 -1.4039,3.8657 -2.4871,5.3187 -3.5897,6.8826 -4.7263,8.5459 -5.9108,10.0274 -7.0933,11.3682 -7.9432,12.5615 -8.6725,13.7705 -9.6697,15.0552 -10.7549,16.2872 -11.887,17.496 -13.0561,18.6961 -14.2016,20.1205 -15.3573,21.7077 -16.5631,23.153 -17.7602,24.4762 -18.9112,25.9665 -20.072,27.5905 -21.248,29.2889 -22.4268,31.023 -23.6062,32.7765 -24.7632,34.781 -25.9378,36.9636 -27.4551,39.0375 -29.0866,40.9683 -30.4417,43.0323 -31.7181,45.2498 -33.2631,47.5867 -34.901,50.1913 -36.5998,52.9603 -38.3369,55.8221 -40.0913,58.7277 -41.8696,61.4026 -43.35,63.8935 -45.0097,66.3705 -46.7216,68.7941 -48.443,71.4426 -50.4967,74.2873 -52.4087,76.9038 -54.2393,79.657 -56.0303,82.7584 -57.8298,85.8162 -59.6304,88.5718 -61.4031,91.4006 -63.4842,94.3301 -65.4101,96.9788 -67.2437,99.7494 -69.0499,102.6063 -70.8594,105.2689 -72.9524,108.0962 -74.8796,110.9443 -76.7336,113.8467 -78.8557,116.8147 -81.1138,119.5215 -83.4019,122.3185 -85.4044,125.4099 -87.3195,128.4651 -89.4704,131.5087 -91.725,134.5216 -94.0307,137.5205 -96.3659,140.5 -98.7148,143.4678 -101.0523,146.6864 -103.7201,150.0924 -106.5356,153.5672 -109.1153,157.0485 -111.5936,160.5615 -114.0348,163.8444 -116.4432,166.9827 -118.8344,170.0367 -121.2119,173.0445 -123.5825,176.0287 -125.9499,179.0012 -128.3012,182.2219 -130.6796,185.3401 -133.0824,188.1275 -135.4819,190.7186 -137.8677,193.2019 -140.2207,195.8911 -142.5799,198.7156 -144.6591,201.3151 -146.5971,203.8065 -148.7677,206.2717 -151.0308,208.687 -153.0343,211.0434 -154.9312,213.406 -157.1103,215.5545 -159.0645,217.4898 -160.5941,219.5632 -162.306,221.5641 -164.0452,223.4543 -165.7808,225.5469 -167.579,227.5362 -169.0561,229.3816 -170.7116,231.2305 -172.4212,233.0449 -173.8439,234.8011 -175.4697,236.6055 -177.1684,238.3975 -178.9023,240.1774 -180.6557,241.9546 -182.1051,243.6917 -183.7436,245.4837 -185.4457,247.2703 -187.1825,249.0493 -188.9362,250.8261 -190.3558,252.8103 -192.0089,254.7671 -193.7142,256.6462 -195.1374,258.4505 -196.4928,260.0025 -198.0601,261.6645 -199.722,263.3788 -201.156,264.8411 -202.7504,266.4537 -204.7441,268.1764 -206.5957,269.8907 -208.0941,271.6002 -209.481,273.0925 -210.7709,274.4401 -212.0071,275.708 -212.8825,276.8591 -213.628,278.0336 -214.637,279.2899 -215.7262,280.5058 -216.8229,281.9374 -217.958,283.5297 -219.1513,284.9743 -220.3407,286.296 -221.193,287.4763 -221.9209,288.6755 -222.9162,289.955 -224.4522,291.8072 -225.7773,293.567 -226.6722,294.503 -227.7484,295.3236 -228.8816,296.991 -230.0987,298.7762 -231.2049,299.7943 -231.9481,301.0016 -232.6629,302.2658 -233.7309,304.0636 -234.8184,306.0728 -235.5648,307.4199 -236.0872,308.7435 -236.3801,309.4754 A0.6445,0.6445 0 0 1 -237.5799,309.0046 T-237.2969,308.2688 -236.7264,306.8072 -235.9751,305.4054 -235.1164,303.9099 -234.0667,302.1595 -233.0535,300.293 -231.6955,298.4772 -230.2697,296.7673 -229.4865,295.3315 -228.163,294.0333 -226.7712,292.6836 -225.7198,291.5332 -224.7836,290.3793 -223.9751,289.134 -223.0597,287.9801 -222.2804,286.7251 -221.3317,285.4115 -220.1717,284.1282 -219.034,282.7568 -217.8643,281.1239 -216.7145,279.6218 -215.6682,278.4569 -214.7432,277.3231 -213.9461,276.0892 -212.9623,274.7884 -211.7297,273.5222 -210.4532,272.1881 -209.0885,270.7191 -207.4927,268.9276 -205.6002,267.185 -203.6755,265.5343 -202.08,263.9319 -200.6473,262.4798 -198.9966,260.7822 -197.4556,259.1564 -196.1349,257.6557 -194.6521,255.7947 -192.9703,253.9499 -191.3827,252.0626 -189.8391,249.9386 -188.0882,248.1655 -186.3612,246.3944 -184.677,244.631 -183.0759,242.8731 -181.5644,241.0603 -179.8174,239.2877 -178.0956,237.518 -176.4233,235.7517 -174.8385,233.9904 -173.3553,232.1669 -171.6691,230.3748 -170.0672,228.5665 -168.5496,226.6585 -166.7924,224.7119 -165.0124,222.5671 -163.3029,220.707 -161.657,218.7686 -160.0014,216.5534 -158.0387,214.6052 -155.9715,212.5709 -154.0562,210.1828 -152.0124,207.7699 -149.7817,205.3807 -147.6705,202.9744 -145.729,200.4674 -143.633,197.8365 -141.2558,194.9816 -138.8667,192.243 -136.4994,189.7764 -134.1342,187.2201 -131.7858,184.4945 -129.4303,181.397 -127.0438,178.1277 -124.6755,175.1575 -122.3055,172.1787 -119.9327,169.1758 -117.5554,166.1288 -115.1608,163.0037 -112.7424,159.7509 -110.2447,156.2114 -107.6277,152.683 -104.8274,149.2291 -102.1886,145.8599 -99.8149,142.595 -97.4694,139.6327 -95.1421,136.6639 -92.846,133.6803 -90.6139,130.6993 -88.5054,127.7186 -86.5834,124.6471 -84.4911,121.4261 -82.1956,118.6177 -80.0013,115.9923 -77.9203,113.0878 -76.044,110.1602 -74.0792,107.2593 -72.0179,104.482 -70.2349,101.8589 -68.4104,98.9762 -66.5409,96.1603 -64.6172,93.5217 -62.58,90.6637 -60.7922,87.8151 -59.0231,85.1109 -57.235,82.063 -55.4048,78.8829 -53.5412,76.0802 -51.6296,73.4677 -49.6141,70.6805 -47.8594,67.9913 -46.1616,65.6001 -44.5374,63.1859 -43.0178,60.6411 -41.2665,58.015 -39.5095,55.107 -37.7699,52.2418 -36.0579,49.457 -34.4098,46.8364 -32.9058,44.5628 -31.5828,42.277 -30.1237,40.086 -28.5334,38.233 -27.1235,36.3135 -25.9297,34.1045 -24.7197,32.0212 -23.5351,30.2632 -22.346,28.5204 -21.1561,26.8076 -19.9547,25.1448 -18.7414,23.5848 -17.5705,22.306 -16.41,20.9321 -15.2027,19.2971 -13.9825,17.7934 -12.8258,16.6146 -11.7167,15.4364 -10.6762,14.2662 -9.758,13.1109 -8.9798,11.853 -8.0374,10.5373 -6.8779,9.2444 -5.7366,7.8464 -4.5782,6.1729 -3.4531,4.5912 -2.4362,3.2529 -1.5222,1.7063 -0.8141,0.2941 -0.5353,-0.2665 A0.5979,0.5979 0 0 1 0.5353,0.2665 Z" stroke-linecap="round" fill="#f2f2f2"/></g></g><g transform="matrix(1, 0, 0, 1, 2435.1907, 29275.4432) scale(0.2503887994196496, 0.2503887994196496)" opacity="1"><g transform="scale(3.9937888688223953)"><path d="M0.4258,-0.4258 T0.985,0.1421 1.8898,1.3546 2.646,2.5387 3.5549,3.6516 4.3665,4.8808 5.0767,6.0773 5.7339,7.2723 6.3627,8.4591 6.9763,9.6484 7.6064,11.1518 8.4781,13.0195 9.4855,14.8212 10.3229,16.3709 11.0417,17.7366 11.6915,19.0048 12.5526,20.4477 13.7773,22.3142 14.7506,23.9033 15.6232,25.2839 16.6524,26.8696 17.4958,28.3037 18.2212,29.6093 18.8895,30.8668 19.5496,32.4111 20.4066,33.963 21.1638,35.3963 21.8364,36.7017 22.6957,37.854 23.4894,39.1229 24.1877,40.3418 25.0517,41.4456 26.1105,42.9394 27.2359,44.5782 28.3473,45.9471 29.4893,47.2264 30.6918,48.7939 31.888,50.4622 33.0722,52.1781 34.2847,54.246 35.7225,56.3953 37.3196,58.644 39.0033,60.9508 40.7318,63.2855 42.4825,65.6344 44.4983,67.9456 46.4464,70.326 48.3383,73.0219 50.4225,75.8139 52.6179,78.3735 54.9171,81.1499 57.2501,84.0129 59.5748,86.6093 61.917,89.0947 64.2365,91.2092 66.3387,93.1993 68.3484,95.7129 70.4894,98.3967 72.7122,100.8969 75.0135,103.3454 77.3837,106.0759 79.5055,108.9566 81.4596,111.8725 83.5779,114.7655 85.7912,117.3816 87.8466,120.2325 89.7903,123.4403 91.8835,126.4582 94.1051,129.4495 96.3939,132.4371 98.7189,135.4216 100.8126,138.4343 102.7536,141.4207 104.8762,144.3494 107.1282,147.291 109.4366,150.243 111.52,153.2392 113.4777,156.5224 115.6002,159.8898 117.8232,163.0478 120.0945,165.8147 122.1769,168.741 124.1169,171.6765 126.2337,174.5781 128.4892,177.8162 130.7776,180.8935 132.8532,183.9539 134.7962,186.9596 136.9006,189.5925 138.9013,192.4568 140.7966,195.3756 142.8591,197.9681 145.085,200.7656 147.3771,203.6422 149.7027,206.558 152.0467,209.4928 154.1309,212.1685 156.0688,214.6957 158.1749,217.1034 160.1614,219.5345 161.8068,221.9812 163.4791,224.3541 165.2006,226.7335 166.7127,229.1568 168.0772,231.5548 169.5653,233.5632 171.1967,235.4628 172.657,237.3542 173.9464,238.8634 175.2222,240.552 176.4554,242.2834 177.6224,243.6984 178.7945,245.0011 179.9712,246.2474 181.1988,247.8013 182.4146,249.4692 183.3685,251.2668 184.156,253.0458 185.0539,254.4023 186.0752,255.6767 186.9576,257.0249 187.6999,258.2966 188.5776,259.4218 189.5963,260.5816 190.6966,261.7611 191.6271,263.0423 192.394,264.2614 193.2902,265.3648 194.1158,266.6203 194.8212,267.8209 195.9891,269.1266 197.1709,270.3879 197.8396,271.5093 198.4812,272.6453 199.3152,273.6856 200.3167,274.8145 201.4457,276.304 202.5388,277.5828 203.6357,278.4835 204.8395,279.587 205.8244,280.8222 206.6199,282.0196 207.5287,283.1163 208.3597,284.367 209.0661,285.5655 210.43,286.7716 211.8027,288.0996 212.5715,289.2296 213.7678,290.4903 214.9686,291.7185 215.8501,292.7066 216.8806,293.7931 217.9881,294.9251 219.134,296.081 220.2973,297.2472 221.4764,298.4252 222.4574,299.7111 223.2504,300.933 224.1509,302.0323 224.9816,303.2975 225.6953,304.5117 226.5505,305.5923 227.5673,306.7336 228.6687,307.9048 229.8049,309.0968 230.7357,310.3742 231.9528,311.7132 233.378,312.8765 233.9428,313.3779 A0.7833,0.7833 0 0 1 232.9172,314.5621 T232.3403,314.0748 231.2762,313.1765 229.9712,311.8179 228.5662,310.2889 227.3968,309.1165 226.2413,307.9194 225.1386,306.6939 223.94,304.9211 222.741,303.1573 221.4976,301.4071 220.1999,299.679 219.0331,298.5002 217.8722,297.3215 216.726,296.146 215.6113,294.9813 214.5524,293.8368 213.4525,292.4017 212.2646,291.1581 210.9991,289.7526 209.841,288.3183 208.7347,287.4988 207.4431,285.9238 206.2373,284.1601 204.9976,282.4464 203.7121,280.7945 202.5747,279.7453 201.3473,278.6882 200.1572,277.3202 199.0808,275.9054 198.0157,274.7005 196.8834,272.9891 195.6712,271.0061 194.4817,269.7272 193.2111,268.16 192.0062,266.3803 190.772,264.6183 189.4952,262.872 188.3623,261.6669 187.2707,260.4289 186.0388,258.5844 184.77,256.7082 183.66,255.3123 182.6406,253.72 181.9173,252.0308 181.0633,250.4335 179.9078,248.8369 178.7629,247.3824 177.5646,246.1064 176.3486,244.7502 175.1109,243.2469 173.9086,241.5589 172.681,239.9455 171.3383,238.3751 169.9313,236.5411 168.249,234.5578 166.6355,232.3847 165.3009,230.0343 163.8545,227.7017 162.1251,225.302 160.4354,222.8965 158.8875,220.5663 156.9419,218.1783 154.773,215.687 152.8439,213.1635 150.777,210.5098 148.4301,207.5772 146.1001,204.6636 143.8033,201.7921 141.5669,198.9959 139.4074,196.2787 137.5456,193.4033 135.6034,190.622 133.4122,187.8559 131.4944,184.8709 129.466,181.8684 127.1534,178.7454 124.9235,175.5318 122.7747,172.5634 120.8746,169.665 118.8566,166.8254 116.5246,163.965 114.258,160.735 112.1155,157.3303 110.2256,154.1359 108.1944,151.2128 105.8814,148.2463 103.6094,145.2707 101.4379,142.2758 99.5209,139.3263 97.48,136.3891 95.1459,133.3965 92.8392,130.3919 90.5859,127.362 88.4332,124.2589 86.5655,121.1563 84.575,118.4057 82.2973,115.7058 80.1389,112.757 78.2233,109.8924 76.1884,107.1178 73.8574,104.4305 71.5283,101.9477 69.2549,99.3811 67.1185,96.6957 65.257,94.3255 63.1908,92.3617 60.7868,90.1598 58.4204,87.6409 56.0556,84.9869 53.7356,82.1325 51.4507,79.3733 49.1931,76.7332 47.0818,73.9041 45.2581,71.2919 43.3418,68.9494 41.256,66.5443 39.505,64.1889 37.775,61.8423 36.0825,59.5208 34.4593,57.2322 32.9728,55.0171 31.8224,53.0489 30.6502,51.3516 29.4933,49.7291 28.3489,48.2389 27.1647,46.9021 25.9892,45.4341 24.8933,43.8168 23.8643,42.3544 22.6811,40.549 21.4953,38.7227 20.5245,37.3769 19.8517,36.0693 19.115,34.6712 18.0103,32.4326 16.9584,30.2969 16.2564,29.0053 15.4593,27.6382 14.4347,26.0358 13.3672,24.081 12.218,22.037 11.1915,20.6662 10.5118,19.6427 9.8542,18.3506 9.1513,16.9763 8.3499,15.4538 7.3158,13.5532 6.2681,11.092 5.0927,8.492 3.8127,6.1545 2.624,4.3915 1.4018,2.6605 0.136,0.9789 -0.4258,0.4258 A0.6022,0.6022 0 0 1 0.4258,-0.4258 Z" stroke-linecap="round" fill="#f2f2f2"/></g></g><g transform="matrix(1, 0, 0, 1, 2432.8211, 29282.5523) scale(0.2503887994196496, 0.2503887994196496)" opacity="1"><g transform="scale(3.9937888688223953)"><path d="M0.5666,0 T0.5649,1.1186 0.5627,3.1147 0.2667,4.8225 -0.1608,6.5445 -0.3676,8.4732 -0.4804,10.6188 -0.5385,13.1601 -0.5704,15.9095 -0.5893,18.48 -0.8864,21.0165 -1.3205,23.4739 -1.5408,25.8246 -1.6581,28.4579 -1.7201,31.2458 -1.7529,33.8357 -1.77,36.5976 -1.777,39.4531 -1.7766,42.0887 -1.7734,44.6081 -1.7687,47.0544 -1.7651,49.4623 -1.7623,51.8522 -1.7583,54.2304 -1.7554,56.8814 -1.7533,59.6785 -1.7517,62.2713 -1.7506,65.0353 -1.7498,67.8921 -1.7492,70.5163 -1.7487,73.0297 -1.7484,75.4847 -1.7482,77.8971 -1.748,80.5686 -1.7479,83.6556 -1.7478,86.6801 -1.7477,89.6718 -1.7477,92.6485 -1.7477,95.3358 -1.7476,98.1498 -1.7476,101.0328 -1.7458,103.6827 -1.7425,106.4887 -1.7402,109.3675 -1.7385,112.2847 -1.7373,115.2198 -1.7364,118.1643 -1.7357,121.1162 -1.7353,124.0719 -1.7349,127.0272 -1.7366,129.9824 -1.7396,133.2308 -1.7418,136.3522 -1.7434,139.3949 -1.7445,142.3985 -1.7454,145.3815 -1.746,148.3512 -1.7483,151.0349 -1.7518,153.8493 -1.7544,156.7302 -1.7562,159.6462 -1.7576,162.5829 -1.7586,165.5425 -1.7593,168.5118 -1.7598,171.1952 -1.7602,173.728 -1.7586,176.1815 -1.7555,178.8745 -1.7533,181.6938 -1.7518,184.5773 -1.7487,187.4946 -1.7467,190.4333 -2.0303,193.4434 -2.4584,195.8918 -2.6786,197.9684 -2.7947,200.1691 -2.8569,202.4489 -2.89,204.7693 -2.9075,207.3921 -2.9169,210.4534 -2.9201,213.4662 -3.2056,216.2378 -3.6329,218.8202 -3.8502,221.2353 -3.9659,223.3465 -4.027,225.3089 -4.0591,227.4699 -4.0759,229.7283 -4.0847,232.0396 -4.0893,234.6578 -4.0917,237.4353 -4.0929,240.0177 -4.0916,242.4973 -4.0906,244.9227 -4.0902,247.0434 -4.382,249.0818 -4.8145,251.5435 -5.0316,254.1587 -5.15,256.6774 -5.2129,258.8566 -5.2463,260.8438 -5.2639,263.0078 -5.2733,265.2673 -5.2783,267.5768 -5.2809,269.9126 -5.2824,272.2645 -5.2831,274.3436 -5.2835,276.2765 -5.2819,278.6928 -5.2789,281.0885 -5.5622,283.5356 -5.99,285.9555 -6.2077,288.0144 -6.3222,289.9389 -6.3814,291.7934 -6.4105,293.6079 -6.4234,295.4044 -6.4276,297.1901 -6.4293,298.6922 -6.4293,300.323 -6.43,302.0196 -6.4339,303.7533 -6.4399,305.5066 -6.4497,307.2701 -6.465,309.0391 -6.4891,310.5318 -6.5185,312.0107 -6.5323,312.79 A0.5677,0.5677 0 0 1 -7.6677,312.79 T-7.6815,312.0106 -7.7108,310.5318 -7.7348,309.039 -7.7499,307.27 -7.7593,305.5063 -7.7645,303.7528 -7.767,302.0186 -7.7651,300.3208 -7.76,298.688 -7.7521,297.1835 -7.738,295.3913 -7.7163,293.5849 -7.6796,291.7488 -7.6141,289.8626 -7.4918,287.8753 -7.2603,285.7335 -6.8358,283.4046 -6.5608,281.0859 -6.5577,278.6927 -6.5556,276.2762 -6.5553,274.3432 -6.5546,272.2638 -6.5534,269.9112 -6.5509,267.5741 -6.5462,265.2621 -6.5371,262.9975 -6.5199,260.8222 -6.4869,258.8209 -6.424,256.6179 -6.3037,254.0523 -6.0677,251.3101 -5.6406,248.9103 -5.3693,247.0375 -5.3686,244.9225 -5.3668,242.497 -5.3641,240.0171 -5.3627,237.4341 -5.3599,234.6553 -5.3549,232.0346 -5.3454,229.7185 -5.3275,227.4505 -5.2936,225.2677 -5.2296,223.2779 -5.1078,221.1208 -4.8745,218.614 -4.4469,216.1021 -4.1692,213.4614 -4.1628,210.4496 -4.1539,207.3835 -4.1368,204.7517 -4.1041,202.4149 -4.0415,200.1027 -3.921,197.8353 -3.692,195.6789 -3.2678,193.3172 -2.9933,190.4309 -2.9913,187.4946 -2.9882,184.5773 -2.9867,181.6938 -2.9845,178.8745 -2.9814,176.1815 -2.9798,173.728 -2.9802,171.1952 -2.9807,168.5118 -2.9814,165.5425 -2.9824,162.5829 -2.9838,159.6462 -2.9856,156.7302 -2.9882,153.8493 -2.9917,151.0349 -2.994,148.3512 -2.9946,145.3815 -2.9955,142.3985 -2.9966,139.3949 -2.9982,136.3522 -3.0004,133.2308 -3.0034,129.9824 -3.0051,127.0272 -3.0047,124.0719 -3.0043,121.1162 -3.0036,118.1643 -3.0027,115.2198 -3.0015,112.2847 -2.9998,109.3675 -2.9975,106.4887 -2.9942,103.6827 -2.9924,101.0328 -2.9924,98.1498 -2.9923,95.3358 -2.9923,92.6485 -2.9923,89.6718 -2.9922,86.6801 -2.9921,83.6556 -2.992,80.5686 -2.9918,77.8971 -2.9916,75.4847 -2.9913,73.0297 -2.9908,70.5163 -2.9902,67.8921 -2.9894,65.0353 -2.9882,62.2712 -2.9866,59.6785 -2.9844,56.8813 -2.9812,54.2303 -2.9769,51.852 -2.9733,49.4619 -2.9682,47.0538 -2.9608,44.6069 -2.9525,42.0866 -2.9422,39.4494 -2.9307,36.5899 -2.9124,33.8208 -2.8781,31.2198 -2.813,28.4033 -2.6889,25.7152 -2.4512,23.2728 -2.0161,20.8806 -1.7321,18.4692 -1.7163,15.896 -1.6825,13.1307 -1.6159,10.5567 -1.492,8.3452 -1.2496,6.2603 -0.8248,4.6121 -0.5627,3.1018 -0.5649,1.1186 -0.5666,0 A0.5666,0.5666 0 0 1 0.5666,0 Z" stroke-linecap="round" fill="#9398b0"/></g></g><g transform="matrix(1, 0, 0, 1, 2620.0262, 29551.5115) scale(0.2503887994196496, 0.2503887994196496)" opacity="1"><g transform="scale(3.9937888688223953)"><path d="M 0 0 m -1.0885273074197999, 0 a 1.0885273074197999,1.0885273074197999 0 1,1 2.1770546148395997,0 a 1.0885273074197999,1.0885273074197999 0 1,1 -2.1770546148395997,0" stroke-linecap="round" fill="#e599f7"/></g></g><g transform="matrix(1, 0, 0, 1, 2622.3959, 29550.3267) scale(0.2503887994196496, 0.2503887994196496)" opacity="1"><g transform="scale(3.9937888688223953)"><path d="M0,-0.5432 T-0.251,-0.5521 -0.904,-0.0157 -1.7337,1.0834 -2.6613,2.2002 -3.7064,3.3395 -5.1401,4.5379 -6.6877,5.9678 -8.015,7.5209 -9.314,8.9406 -10.5183,10.4803 -11.3726,12.3148 -12.1288,14.1781 -13.1282,16.0684 -13.9012,18.0776 -14.2886,20.1855 -14.8038,22.237 -15.3467,24.1505 -15.6071,25.9041 -15.7483,27.6693 -15.8189,29.4328 -15.8559,30.9248 -15.8749,32.2671 -15.8836,33.8047 -15.6286,35.3349 -15.2074,36.9999 -14.9673,38.8225 -14.594,40.2036 -14.1083,41.491 -13.5945,42.7344 -12.8655,43.972 -12.4606,44.6685 A0.6417,0.6417 0 0 1 -13.5594,45.3315 T-13.9868,44.6485 -14.8369,43.2686 -15.4195,41.9836 -15.9459,40.5915 -16.3893,39.0152 -16.595,37.3534 -17.0196,35.5927 -17.3105,33.8088 -17.2958,32.2441 -17.2705,30.8859 -17.2236,29.3718 -17.1349,27.5494 -16.9737,25.6963 -16.6605,23.7705 -16.1149,21.8883 -15.6237,19.9235 -15.1604,17.5968 -14.3194,15.4364 -13.36,13.66 -12.5714,11.7521 -11.5624,9.6616 -10.2902,8.0436 -9.008,6.6578 -7.5646,5.0147 -5.9819,3.5568 -4.653,2.4617 -3.2738,0.9179 -2.1083,-0.5969 -1.2017,-1.462 -0.3072,-1.8079 0,-1.8168 A0.6368,0.6368 0 0 1 0,-0.5432 Z" stroke-linecap="round" fill="#e599f7"/></g></g><g transform="matrix(1, 0, 0, 1, 2572.6325, 29536.1086) scale(0.2503887994196496, 0.2503887994196496)" opacity="1"><g transform="scale(3.9937888688223953)"><path d="M0.4162,0.4162 T-0.1378,0.965 -0.9234,2.2673 -1.597,4.052 -2.5656,5.9351 -3.6191,8.0158 -4.7163,10.4796 -5.8478,13.7273 -6.7072,17.3556 -7.1605,20.3761 -7.3974,23.0785 -7.5263,25.3217 -7.0645,27.2054 -6.023,28.9389 -4.7599,30.08 -2.887,30.0781 -1.1672,29.3273 -0.196,27.7692 0.2912,25.9223 0.4366,24.3152 0.5307,22.6772 0.0759,21.4097 -0.7101,20.1956 -1.6042,19.2951 -2.9541,19.0551 -4.086,19.2497 -4.4729,19.4533 A0.5386,0.5386 0 0 1 -4.9871,18.5067 T-4.1136,18.0831 -2.4794,17.8432 -0.9001,18.4739 0.2034,19.538 1.0808,20.9838 1.6641,22.6364 1.6099,24.4212 1.4739,26.1228 1.1721,27.791 0.5528,29.3171 -0.5368,30.3923 -1.9879,31.2027 -3.6391,31.5544 -5.5001,31.0282 -7.0733,29.5918 -8.2274,27.4934 -8.7455,25.2923 -8.6157,22.9707 -8.3618,20.1974 -7.8837,17.0818 -6.9759,13.3122 -5.813,9.9895 -4.6746,7.4621 -3.6133,5.3853 -2.696,3.6247 -1.9093,1.6818 -0.9832,0.156 -0.4162,-0.4162 A0.5886,0.5886 0 0 1 0.4162,0.4162 Z" stroke-linecap="round" fill="#e599f7"/></g></g><g transform="matrix(1, 0, 0, 1, 2585.6658, 29542.0328) scale(0.2503887994196496, 0.2503887994196496)" opacity="1"><g transform="scale(3.9937888688223953)"><path d="M0.5282,0.1318 T0.2463,1.251 -0.4848,3.2931 -1.44,5.2319 -2.1913,7.2906 -2.8624,9.4989 -3.4954,11.7935 -4.1069,14.1342 -4.7051,16.7535 -4.7242,19.1265 -4.1859,21.1591 -3.367,23.0355 -2.4502,24.2136 -1.2646,24.7592 0.3215,24.7806 1.8575,24.038 3.1865,22.6052 4.4726,20.7535 5.7167,18.6604 6.6302,16.4886 7.1,14.5444 7.3621,12.6972 7.2414,10.9941 6.6643,9.6268 5.8436,8.3503 4.3274,7.0427 3.2686,6.3598 A0.5221,0.5221 0 0 1 3.8314,5.4802 T4.437,5.8558 5.656,6.6305 6.7975,7.7129 7.7638,9.1678 8.4505,10.8652 8.6097,12.8594 8.3438,14.8416 7.8118,16.9775 6.8244,19.317 5.5205,21.4938 4.0897,23.499 2.3907,25.1395 0.3081,25.9833 -1.7861,25.8288 -3.3385,24.9814 -4.4309,23.5163 -5.2976,21.4361 -5.8395,19.1474 -5.7811,16.5067 -5.1641,13.8575 -4.5379,11.5057 -3.8904,9.1862 -3.1907,6.9294 -2.4001,4.7608 -1.4885,2.9234 -0.8045,0.9862 -0.5282,-0.1318 A0.5444,0.5444 0 0 1 0.5282,0.1318 Z" stroke-linecap="round" fill="#e599f7"/></g></g><g transform="matrix(1, 0, 0, 1, 2602.2536, 29533.7389) scale(0.2503887994196496, 0.2503887994196496)" opacity="1"><g transform="scale(3.9937888688223953)"><path d="M0.5167,0.2573 T0.2352,0.8151 -0.546,2.7933 -1.2205,4.9098 -1.4826,6.5106 -1.6197,8.1735 -1.4277,9.5076 -0.8192,10.6468 0.1911,11.4424 1.5688,11.297 2.717,10.2489 3.3406,8.7208 3.6776,7.121 3.6096,5.5197 3.1883,3.579 2.9627,2.4974 A0.601,0.601 0 0 1 4.1373,2.2426 T4.3801,3.3205 4.8477,5.4776 4.9388,7.3742 4.5186,9.2256 3.7054,11.0601 2.6716,12.2583 1.301,12.746 -0.4747,12.391 -1.8461,11.224 -2.5707,9.6984 -2.7811,8.094 -2.6138,6.3081 -2.2982,4.551 -1.7485,2.9537 -1.236,1.4987 -0.7933,0.306 -0.5167,-0.2573 A0.5772,0.5772 0 0 1 0.5167,0.2573 Z" stroke-linecap="round" fill="#e599f7"/></g></g><g transform="matrix(1, 0, 0, 1, 2458.8876, 29327.5763) scale(0.2503887994196496, 0.2503887994196496)" opacity="1"><g transform="scale(3.9937888688223953)"><path d="M-0.485,-0.485 T0.2787,-0.7637 1.0428,-0.147 0.6269,1.2605 -0.2415,2.5366 -1.2452,4.038 -2.3324,5.6774 -3.7484,7.6738 -5.3337,9.8526 -7.0049,12.1281 -9.0727,14.2603 -11.3387,15.9784 -13.7398,17.1928 -16.2003,17.8519 -18.3393,18.1859 -20.3111,18.3597 -22.487,18.4488 -24.5936,18.18 -26.1459,17.3741 -27.2009,16.3818 -27.6912,15.8991 A0.6372,0.6372 0 0 1 -26.8288,14.9609 T-25.9625,15.7348 -24.3595,16.7384 -22.5377,16.9349 -20.4455,16.8479 -18.5638,16.6874 -16.577,16.3872 -14.3949,15.8426 -12.2317,14.7733 -10.127,13.2169 -8.1915,11.2539 -6.5118,8.9896 -4.9247,6.8442 -3.5074,4.8808 -2.4044,3.2516 -1.3703,1.7369 -0.3898,0.4102 0.2795,0.2055 0.485,0.485 A0.6859,0.6859 0 0 1 -0.485,-0.485 Z" stroke-linecap="round" fill="#e599f7"/></g></g><g transform="matrix(1, 0, 0, 1, 2441.115, 29358.3822) scale(0.2503887994196496, 0.2503887994196496)" opacity="1"><g transform="scale(3.9937888688223953)"><path d="M-0.1563,-0.6267 T0.9638,-0.9009 3.2839,-1.3313 5.2379,-1.2656 6.718,-0.303 8.0424,1.0694 9.0278,2.7017 9.5939,4.4911 9.8638,6.003 9.7032,7.5083 9.0136,8.9737 8.0537,10.2913 6.9163,11.3021 6.5555,12.2745 7.49,13.3285 8.9065,14.6695 10.2732,16.2659 11.2972,18.0356 11.6001,19.7324 11.3747,21.0019 10.5543,22.0524 8.9168,22.65 7.2051,22.9007 5.748,23.0094 4.3012,22.7578 2.3059,22.1761 1.0608,21.8801 A0.553,0.553 0 0 1 1.2992,20.7999 T1.9861,20.9393 3.8507,21.4449 5.6691,21.7622 7.0277,21.6301 9.0236,21.2773 10.3913,20.2137 10.2076,18.6054 9.2973,17.0729 8.0526,15.5898 6.641,14.2735 5.3162,12.8689 5.6456,11.0299 6.9559,9.4718 7.9969,7.8645 8.4944,6.2047 8.2601,4.8693 7.8695,3.3741 7.0394,1.96 5.5198,0.557 3.4908,-0.0791 1.2735,0.3428 0.1563,0.6267 A0.6459,0.6459 0 0 1 -0.1563,-0.6267 Z" stroke-linecap="round" fill="#e599f7"/></g></g><g transform="matrix(1, 0, 0, 1, 2461.2573, 29359.567) scale(0.2503887994196496, 0.2503887994196496)" opacity="1"><g transform="scale(3.9937888688223953)"><path d="M0.5568,1.3651 T0.2773,2.2037 -0.1383,3.9968 -0.6434,6.0869 -1.191,8.0484 -1.4581,9.8444 -1.3168,11.8281 -0.7019,13.633 0.1459,15.1018 1.6182,16.3485 3.6849,17.2276 5.4883,17.4236 6.8399,17.0377 7.7027,16.1503 8.139,14.6698 8.4289,12.7816 8.6059,10.6579 8.7128,8.4188 8.5082,6.1917 7.8776,4.265 7.0278,2.7102 5.8044,1.3658 4.1362,-0.0237 3.2265,-0.785 A0.5106,0.5106 0 0 1 3.8735,-1.575 T4.7991,-0.8329 6.6133,0.6304 8.0356,2.1367 9.0197,3.873 9.7509,6.0641 10.0124,8.4645 9.9443,10.761 9.7895,12.9982 9.4496,15.1397 8.691,17.0516 7.2863,18.311 5.3944,18.7765 3.1612,18.461 0.7546,17.3014 -0.9478,15.7476 -1.8788,14.0297 -2.5211,11.9058 -2.6383,9.6655 -2.3277,7.7368 -1.7791,5.8167 -1.2721,3.7274 -0.8354,1.8355 -0.5568,0.9949 A0.5867,0.5867 0 0 1 0.5568,1.3651 Z" stroke-linecap="round" fill="#e599f7"/></g></g><g transform="matrix(1, 0, 0, 1, 2470.736, 29350.0883) scale(0.2503887994196496, 0.2503887994196496)" opacity="1"><g transform="scale(3.9937888688223953)"><path d="M0.6137,0 T0.5978,0.8641 0.2627,2.3004 -0.2674,3.7369 0.2759,4.9541 1.2311,4.2911 1.5246,2.496 1.7187,0.8304 1.8205,-0.0559 A0.5523,0.5523 0 0 1 2.9195,0.0559 T2.8406,0.9446 2.6918,2.6474 2.4,4.5842 1.7094,6.0729 0.474,6.3676 -0.9147,5.5389 -1.4763,4.1045 -0.999,2.5288 -0.5978,0.8151 -0.6137,0 A0.6137,0.6137 0 0 1 0.6137,0 Z" stroke-linecap="round" fill="#e599f7"/></g></g><g transform="matrix(1, 0, 0, 1, 2572.6325, 29386.8184) scale(0.2503887994196496, 0.2503887994196496)" opacity="1"><g transform="scale(3.9937888688223953)"><path d="M-0.4362,0.4362 T-0.9389,-0.0989 -2.3053,-0.3387 -3.7071,0.3513 -4.8126,1.2348 -5.9597,2.2609 -7.1214,3.3571 -8.0942,4.911 -7.9459,6.8519 -6.9433,8.3585 -5.9531,9.4928 -4.8668,10.647 -3.7309,11.8131 -2.5655,12.9977 -1.3853,14.192 -0.4218,15.4606 0.4024,17.0078 1.1161,18.6753 1.5188,20.5094 1.4224,22.2258 0.725,23.5419 -0.6811,24.5868 -2.4884,24.8745 -4.2323,24.6794 -5.9825,24.2431 -8.0672,23.4196 -10.6618,22.4383 -12.0392,21.9225 A0.619,0.619 0 0 1 -11.6208,20.7575 T-10.2299,21.2359 -7.5715,22.1411 -5.643,22.844 -3.5182,23.3168 -1.4659,23.3458 -0.3622,22.4068 0.0485,20.776 -0.2604,19.2311 -1.1431,17.159 -2.4044,15.1737 -3.5665,13.9677 -4.7185,12.7607 -5.8528,11.5608 -6.9562,10.3524 -7.9938,9.1219 -8.9014,7.8374 -9.5089,6.4319 -9.5152,5.0106 -8.957,3.6769 -7.991,2.4477 -6.7943,1.3224 -5.5846,0.2513 -4.3361,-0.7178 -2.991,-1.4656 -1.5421,-1.6859 -0.1821,-1.0221 0.4362,-0.4362 A0.6169,0.6169 0 0 1 -0.4362,0.4362 Z" stroke-linecap="round" fill="#f76707"/></g></g><g transform="matrix(1, 0, 0, 1, 2428.0817, 29597.7204) scale(0.2503887994196496, 0.2503887994196496)" opacity="1"><g transform="scale(3.9937888688223953)"><path d="M1.7651,0 T1.7597,0.8396 1.7523,2.4007 1.7507,4.0571 2.0192,5.675 2.4544,7.377 2.9557,9.1004 4.2303,10.6262 5.7232,11.9846 7.022,12.7351 8.807,13.3935 10.6194,14.051 12.1752,14.6891 13.5618,15.2943 14.8729,15.8935 16.679,16.5722 18.4862,17.2032 20.3947,18.1251 22.3556,18.821 23.8301,19.0631 25.3265,19.5241 26.9239,20.0274 28.4742,20.2514 30.1409,20.3788 31.8504,20.442 33.8723,20.4691 36.3354,20.4766 38.4797,20.477 40.5581,20.7668 42.7791,21.1923 45.0698,21.7014 47.3983,22.2513 49.3777,22.5231 50.9846,22.6707 52.6561,22.7465 54.9278,22.7845 57.5262,22.8042 59.7461,22.8158 61.6187,23.124 63.692,23.5512 66.0409,23.7497 68.1465,23.8642 70.0935,23.9247 72.2354,23.9562 74.4958,23.9727 76.8177,23.9813 79.1601,23.9857 81.5073,23.9888 83.4547,23.7308 85.3331,23.3087 87.5726,23.0674 89.8655,22.948 91.9091,22.8885 93.8259,22.8599 95.9574,22.8477 98.1957,22.8445 100.3954,22.5746 102.6754,22.1484 105.1158,21.912 107.3753,22.0858 109.3915,22.4534 111.5538,22.9294 113.6731,23.7846 115.3911,24.8323 116.8702,25.9678 118.0048,27.221 118.8779,28.4379 119.6154,29.6693 120.0686,31.0165 120.2934,32.6058 120.4021,34.2846 120.4546,35.9964 120.4809,38.0207 120.4884,40.2212 120.1733,42.1078 118.9104,43.9191 117.0976,43.7818 116.0169,41.4683 115.6962,39.2086 115.8267,36.8152 116.1784,34.7098 116.3586,32.8497 116.7566,30.921 117.5669,29.2193 118.5847,27.7488 119.7678,26.6252 120.9438,25.7592 122.1451,25.0253 123.3318,24.3577 124.5242,23.7264 126.0387,23.0813 127.8923,22.2103 130.076,21.4401 132.3413,20.7532 134.6753,20.1173 136.9449,20.0463 138.9681,20.29 141.0496,20.4148 143.2692,20.4823 145.2809,20.5164 147.1805,20.5322 149.03,20.5402 150.7029,20.8479 152.1452,21.2817 153.8671,21.4783 155.8871,21.5858 157.8073,21.6461 159.6556,21.6792 161.7508,21.6986 163.9745,21.7096 166.3579,22.0055 169.025,22.4412 171.7444,22.6618 174.5755,22.7797 177.1902,22.8429 179.4078,22.8763 181.4153,22.894 183.5906,22.9034 185.8559,22.9083 188.1684,22.9091 190.7872,22.9074 193.5674,22.9059 195.884,22.9047 197.9474,22.9066 199.7503,22.6476 201.5542,22.2227 203.7452,21.9794 205.6104,21.6026 207.4429,21.1176 209.6491,20.8369 211.8312,20.4305 214.39,19.9313 217.1445,19.3875 219.62,18.5634 221.8185,17.8339 223.8105,17.1721 225.9327,16.2858 228.1231,15.0049 230.0745,13.5075 231.9538,11.8791 233.7786,10.1846 235.3015,8.7283 236.9964,7.3589 238.7296,6.0764 240.0881,4.6924 240.8657,2.5059 241.0311,1.1051 A0.683,0.683 0 0 1 242.3889,1.2549 T242.3257,2.0909 242.1426,3.8511 241.2628,5.7586 239.7052,7.3822 238.023,8.6204 236.4234,9.9071 234.8813,11.3727 233.008,13.1044 231.0566,14.7909 228.9252,16.3976 226.5546,17.7756 224.3123,18.7037 222.3128,19.3665 220.1234,20.0913 217.459,20.9588 214.7059,21.4978 212.1183,21.994 209.8481,22.4174 207.8514,22.6521 205.9539,23.1452 203.9277,23.5653 201.9207,23.7748 200.0133,24.2093 197.9601,24.513 195.8837,24.5145 193.567,24.5125 190.7863,24.5095 188.1667,24.5051 185.8525,24.5008 183.5838,24.496 181.4011,24.4868 179.3845,24.4694 177.1522,24.4361 174.5096,24.3727 171.61,24.2506 168.7688,24.0155 166.1886,23.5866 163.9647,23.31 161.7359,23.3026 159.6276,23.2871 157.7539,23.254 155.7979,23.1887 153.64,23.0579 151.6794,22.8024 150.3884,22.3782 149.0018,22.1172 147.1641,22.1048 145.2532,22.0819 143.2206,22.0427 140.9524,21.9711 138.7635,21.8319 136.9289,21.5748 135.0641,21.6125 132.7843,22.2419 130.5849,22.897 128.5421,23.6139 126.1161,24.6755 123.5686,25.8815 121.3604,27.2622 119.8089,28.6268 118.9092,29.8897 118.2082,31.2478 117.8565,33.0068 117.6734,34.9582 117.3355,36.8989 117.2257,38.9968 117.517,41.0143 117.8804,42.691 118.4448,42.3545 118.8177,40.1984 118.7949,38.0454 118.7636,36.0543 118.7067,34.3919 118.6079,32.8544 118.2518,31.0409 117.1995,28.9475 115.8046,27.3256 114.4786,26.301 113.0012,25.3772 111.1841,24.6184 109.0633,24.15 107.1974,23.7846 105.268,23.6356 102.9907,23.8549 100.6091,24.2932 98.2085,24.5958 95.9719,24.6108 93.8574,24.6332 91.9627,24.6703 89.9601,24.7353 87.7614,24.8522 85.7233,25.0593 83.7301,25.4881 81.5173,25.7855 79.1564,25.7835 76.8106,25.7782 74.4819,25.7684 72.2076,25.75 70.0349,25.7153 68.0494,25.6501 65.879,25.526 63.2915,25.2719 61.3021,24.8404 59.7199,24.578 57.5113,24.566 54.8928,24.5412 52.5697,24.4945 50.8268,24.4096 49.141,24.2522 46.9996,23.9455 44.6949,23.3975 42.4394,22.8914 40.3239,22.4585 38.464,22.1786 36.3215,22.1572 33.8364,22.1234 31.7823,22.0718 30.0029,21.9858 28.2266,21.8303 26.4298,21.5172 24.8623,21.0015 23.5394,20.5878 21.7912,20.2294 20.2997,19.6422 18.6429,18.7836 16.8462,18.1406 15.518,17.771 14.2843,17.1641 13.0081,16.5584 11.6481,15.9364 10.1641,15.305 8.3358,14.6126 6.3984,13.8135 4.8793,12.9025 3.7999,11.8551 2.7504,10.8473 1.8378,9.461 1.3279,7.6675 0.9036,5.8821 0.6093,4.0688 0.6077,2.4007 0.6003,0.8396 0.5949,0 A0.5851,0.5851 0 0 1 1.7651,0 Z" stroke-linecap="round" fill="#ae3ec9"/></g></g><g transform="matrix(1, 0, 0, 1, 2546.5659, 29658.1474) scale(0.2503887994196496, 0.2503887994196496)" opacity="1"><g transform="scale(3.9937888688223953)"><path d="M0.1565,0.6273 T-0.96,0.9139 -3.1839,1.6201 -4.8026,2.4937 -5.8414,3.2245 -5.7254,4.4576 -4.6063,5.975 -3.6006,7.1132 -2.5075,8.28 -1.5902,9.5375 -0.8275,10.7495 -0.1445,11.9645 0.262,13.6529 -0.1393,15.5986 -1.2577,17.2476 -3.1097,18.4247 -5.5869,19.0786 -7.806,19.0867 -9.8031,18.7973 -11.9666,18.3454 -14.3089,17.5151 -16.7466,16.5212 -18.0176,16.0053 A0.6187,0.6187 0 0 1 -17.5624,14.8547 T-16.2825,15.3481 -13.88,16.2691 -11.7067,17.0043 -9.5919,17.4049 -7.7612,17.674 -5.9029,17.6737 -3.8292,17.2435 -2.3505,16.3637 -1.3939,15.1777 -1.2297,13.3568 -2.2316,10.9467 -3.5065,9.2059 -4.6249,8.0174 -5.6885,6.8137 -6.6477,5.5664 -7.3085,4.2275 -6.8545,2.7157 -5.4842,1.3464 -3.5908,0.3532 -1.2772,-0.3557 -0.1565,-0.6273 A0.6465,0.6465 0 0 1 0.1565,0.6273 Z" stroke-linecap="round" fill="#ae3ec9"/></g></g><g transform="matrix(1, 0, 0, 1, 2558.4144, 29680.6594) scale(0.2503887994196496, 0.2503887994196496)" opacity="1"><g transform="scale(3.9937888688223953)"><path d="M0.2874,1.7523 T-0.279,2.0351 -2.0757,2.5045 -4.7644,2.7796 -7.4781,3.1889 -11.1741,3.6998 -15.4382,3.9881 -19.1228,3.86 -22.4736,3.5154 -25.3025,3.328 -27.9072,3.2174 -30.1192,3.1361 -31.8431,3.0674 -33.4889,3.0114 -34.3574,2.9841 A0.6141,0.6141 0 0 1 -34.3426,1.7559 T-33.4736,1.7497 -31.8223,1.7336 -30.0867,1.7196 -27.8522,1.742 -25.2058,1.8283 -22.3159,2.0147 -19.0604,2.3792 -15.5228,2.5376 -11.3868,2.3105 -7.6789,1.8433 -4.8881,1.4558 -2.4363,1.2779 -0.842,0.8878 -0.2874,0.6077 A0.6404,0.6404 0 0 1 0.2874,1.7523 Z" stroke-linecap="round" fill="#ae3ec9"/></g></g><g transform="matrix(1, 0, 0, 1, 2537.0872, 29691.323) scale(0.2503887994196496, 0.2503887994196496)" opacity="1"><g transform="scale(3.9937888688223953)"><path d="M0,-0.6132 T1.4015,-0.6106 4.1675,-0.3199 6.3086,0.4313 7.7591,1.4189 8.8504,2.6074 9.2037,4.2838 8.7835,6.1145 7.9446,7.6464 6.5994,9.0595 5.048,10.3597 3.3915,11.5873 1.676,12.7975 0.1805,13.7332 -1.1073,14.4408 -0.8156,15.5128 0.594,16.4105 2.0004,16.6797 4.1887,17.1185 7.0275,17.6456 10.2124,18.0281 11.9182,18.2338 A0.7514,0.7514 0 0 1 11.7418,19.7262 T10.035,19.5287 6.7443,19.1459 3.8944,18.6242 1.6607,18.1409 -0.0195,17.7286 -1.7925,16.5104 -2.7246,14.7926 -1.8541,13.4682 -0.4866,12.6312 0.9295,11.7399 2.6116,10.5513 4.2158,9.3544 5.6656,8.1721 6.829,7.0018 7.5641,5.7588 7.7561,4.016 7.0351,2.4211 5.8417,1.542 4.0248,0.8781 1.3986,0.6106 0,0.6132 A0.6132,0.6132 0 0 1 0,-0.6132 Z" stroke-linecap="round" fill="#ae3ec9"/></g></g><g transform="matrix(1, 0, 0, 1, 2460.0724, 29460.2787) scale(0.2503887994196496, 0.2503887994196496)" opacity="1"><g transform="scale(3.9937888688223953)"><path d="M0.6419,0 T0.6381,0.8473 0.3344,2.5245 -0.4219,4.074 -1.3991,5.4505 -2.4735,6.7347 -3.9231,8.0135 -5.4775,9.4883 -7.0866,11.3523 -8.8097,13.229 -10.5236,15.3181 -12.2775,17.5358 -13.4732,19.2218 -14.4252,20.6923 -15.701,21.7061 -16.4076,21.9709 A0.6626,0.6626 0 0 1 -16.8124,20.7091 T-16.4009,20.6151 -15.5551,19.8891 -14.6585,18.417 -13.4055,16.6374 -11.6168,14.3974 -9.8396,12.2731 -8.1246,10.4447 -6.3958,8.5095 -4.803,7.0293 -3.4666,5.8873 -2.441,4.6962 -1.5514,3.4938 -0.8926,2.2768 -0.6381,0.8318 -0.6419,0 A0.6419,0.6419 0 0 1 0.6419,0 Z" stroke-linecap="round" fill="#ffc034"/></g></g><g transform="matrix(1, 0, 0, 1, 2443.4846, 29462.6483) scale(0.2503887994196496, 0.2503887994196496)" opacity="1"><g transform="scale(3.9937888688223953)"><path d="M0.6406,-0.2129 T0.9052,0.6318 1.3244,2.2313 1.8113,3.5598 2.5964,4.7184 3.3446,5.9809 4.0241,7.1891 4.8942,8.2826 6.1967,9.6917 7.7295,11.2689 9.1089,12.6723 10.6212,13.9299 12.2543,15.1463 13.7881,16.725 15.1158,18.093 16.1357,19.4686 16.9452,21.324 17.3124,22.224 A0.7622,0.7622 0 0 1 15.9076,22.816 T15.5199,21.9247 14.8969,20.3809 13.9536,19.2162 12.615,17.8817 11.2526,16.4598 9.562,15.1686 7.9538,13.786 6.5982,12.3427 5.0684,10.6902 3.7366,9.157 2.5963,7.3115 1.4804,5.4283 0.6111,4.008 0.086,2.5701 -0.347,1.0474 -0.6406,0.2129 A0.675,0.675 0 0 1 0.6406,-0.2129 Z" stroke-linecap="round" fill="#ffc034"/></g></g><g transform="matrix(1, 0, 0, 1, 2425.712, 29564.5448) scale(0.2503887994196496, 0.2503887994196496)" opacity="1"><g transform="scale(3.9937888688223953)"><path d="M0.2287,-0.6879 T1.0697,-0.4144 2.5952,-0.0069 4.0369,0.5178 5.6041,1.0573 7.1493,1.3017 8.6717,1.7584 10.5507,2.2591 12.901,2.7827 15.302,3.3506 17.3333,3.64 19.2355,3.804 21.3297,3.8999 23.5185,3.4528 24.6267,2.9681 A0.6387,0.6387 0 0 1 25.1533,4.1319 T24.513,4.4471 23.1547,5.0786 21.3037,5.3752 19.1108,5.3052 17.1233,5.1544 14.9511,4.8465 12.5621,4.2808 10.1134,3.7125 8.2355,3.2005 6.8832,2.7946 5.1008,2.4613 3.5308,1.9047 2.2061,1.4173 0.6094,0.9725 -0.2287,0.6879 A0.7249,0.7249 0 0 1 0.2287,-0.6879 Z" stroke-linecap="round" fill="#9398b0"/></g></g><g transform="matrix(1, 0, 0, 1, 2449.4088, 29569.2842) scale(0.2503887994196496, 0.2503887994196496)" opacity="1"><g transform="scale(3.9937888688223953)"><path d="M0.6162,0 T0.6115,1.1186 0.6087,3.1083 0.6148,4.7173 0.625,6.4024 0.6357,8.1336 0.3575,9.9745 -0.0585,11.794 -0.2583,13.5098 -0.3644,15.5301 -0.4266,17.7206 -0.7623,20.0717 -1.4085,22.5844 -1.7418,23.8693 A0.648,0.648 0 0 1 -2.9982,23.5507 T-2.6791,22.2622 -2.0873,19.8918 -1.7944,17.6776 -1.7319,15.4507 -1.6012,13.334 -1.352,11.49 -0.9156,9.7858 -0.6357,8.1266 -0.625,6.4024 -0.6148,4.7173 -0.6087,3.1083 -0.6115,1.1186 -0.6162,0 A0.6162,0.6162 0 0 1 0.6162,0 Z" stroke-linecap="round" fill="#9398b0"/></g></g></svg>