<svg xmlns="http://www.w3.org/2000/svg" direction="ltr" width="1288.141360520309" height="761.7487920001606" viewBox="-137.64004743578857 1526.7703631017464 1288.141360520309 761.7487920001606" stroke-linecap="round" stroke-linejoin="round" data-color-mode="dark" class="tl-container tl-theme__force-sRGB tl-theme__dark" style="background-color: transparent;"><defs/><g transform="matrix(1, 0, 0, 1, 187.3016, 1568.5992)" opacity="1"><g transform="scale(1)"><path d="M1.959,0.5595 T1.1879,3.2844 0.0421,8.8613 -0.9438,14.9044 -1.8565,21.5879 -2.3151,28.492 -2.1658,35.9319 -1.307,44.4347 -0.4465,53.6907 0.4212,63.2385 1.6896,73.25 3.1787,83.9822 4.7754,95.4818 6.4285,107.7754 7.7325,120.1595 8.8498,132.9144 10.2494,146.1786 11.4149,159.8614 12.4475,174.0817 13.4123,188.5785 14.3421,203.2208 15.2471,218.3355 15.7514,233.7747 16.0446,249.305 15.8244,265.3538 15.3159,281.208 15.0421,296.4913 14.5001,312.4017 13.4203,328.6494 12.4524,344.5311 11.5369,361.0632 10.6406,377.951 10.1577,394.5673 9.8898,411.4965 9.7425,428.5918 9.6723,445.3873 10.0411,462.3434 10.6528,479.4513 11.3926,496.6397 12.5905,514.1904 14.0299,531.6051 15.5891,548.5598 17.211,565.2773 18.4773,581.5555 19.5465,597.1311 20.8938,611.863 22.0115,625.1474 22.9988,637.1907 23.9127,648.6044 24.3823,658.6167 24.5921,667.0124 24.642,674.1696 24.5913,679.4958 23.2469,684.9214 21.0339,689.0847 20.1273,689.9128 A2.8427,2.8427 0 0 1 16.0727,685.9272 T17.0967,683.7935 18.035,679.5794 17.8464,674.2925 17.6347,667.2167 17.3479,658.9444 16.8752,649.1491 16.0011,637.7506 15.0677,625.7053 14.0126,612.4791 12.718,597.5852 11.727,582.0579 10.5557,565.9024 9.0333,549.1416 7.5789,532.1169 6.2528,514.6013 5.1649,496.8894 4.5204,479.6566 3.9771,462.4679 3.6354,445.3637 3.6977,428.5475 3.8017,411.4102 4.011,394.4006 4.4334,377.6358 5.255,360.7286 6.1184,344.1524 7.0449,328.2286 8.0879,312.1901 8.6211,296.3744 8.9067,280.9941 9.4595,265.2481 9.7724,249.4001 9.5962,233.9522 9.2098,218.675 8.4247,203.5702 7.6284,188.936 6.7986,174.4644 5.9071,160.3012 4.9023,146.7103 3.6558,133.3346 2.7049,120.6525 1.5651,108.4012 0.0532,96.1083 -1.4028,84.5863 -2.7537,73.7853 -3.9211,63.6161 -4.7138,54.0774 -5.5231,44.8425 -6.3607,35.9844 -6.4777,28.208 -5.9604,21.0118 -5.0214,14.232 -3.9746,8.0206 -2.7441,2.1645 -1.959,-0.5595 A2.0373,2.0373 0 0 1 1.959,0.5595 Z" stroke-linecap="round" fill="#9398b0"/></g></g><g transform="matrix(1, 0, 0, 1, -105.64, 2101.8189)" opacity="1"><g transform="scale(1)"><path d="M0.1396,-1.9069 T16.105,-0.8265 42.8023,0.8053 62.2902,1.6404 78.7677,2.0724 93.6707,2.2942 108.1382,2.4098 122.7665,2.4727 137.8709,2.5039 154.0043,2.5005 170.6803,2.4694 187.6984,2.8217 205.6172,3.3681 223.9559,3.6267 242.1287,3.3596 261.0488,2.822 280.7525,2.1487 300.8679,1.4062 322.0331,1.018 343.3031,0.8201 364.6291,0.7174 387.1565,0.6643 410.3164,0.637 433.8536,1.0141 458.0195,2.3794 482.043,4.2528 505.9489,6.0064 530.6086,7.6951 555.2843,9.3464 579.2401,11.363 603.1528,13.5558 626.9508,15.0652 650.7817,16.2249 675.063,17.5942 698.7123,18.6937 721.3021,19.6561 743.7651,20.9208 766.1165,22.3348 788.0211,23.8369 810.0699,25.3911 831.8155,26.969 852.6284,28.5539 872.9422,30.1374 892.149,31.3413 910.0656,32.3549 927.2875,33.2703 943.6798,33.7787 959.3218,34.0968 973.7914,34.3112 986.8659,34.4748 998.8163,34.6384 1009.7848,34.8335 1019.4555,35.0812 1028.6671,35.3298 1033.522,35.436 A2.414,2.414 0 0 1 1033.518,40.264 T1028.6629,40.362 1019.4495,40.5952 1009.7738,40.8215 998.7962,40.9764 986.8296,41.0635 973.7279,41.082 959.2067,41.021 943.4696,40.8167 926.904,40.3336 909.653,39.3676 891.703,38.2833 872.3896,36.9782 852.1005,35.2818 831.3209,33.6047 809.5957,31.9459 787.5626,30.311 765.6979,28.7147 743.4009,27.2025 721.0286,25.8672 698.4192,24.8491 674.7072,23.6713 650.4768,22.2002 626.5667,20.9233 602.6137,19.281 578.7565,16.9743 554.9066,14.8868 530.2276,13.1751 505.5466,11.4354 481.6188,9.6454 457.7156,7.7474 433.7693,6.3815 410.3233,6.0097 387.1702,6.0423 364.6565,6.1027 343.3547,6.2155 322.1335,6.4265 301.0669,6.8143 280.9321,7.544 261.1934,8.1837 242.1946,8.6563 223.8676,8.8344 205.4464,8.4656 187.5837,7.8216 170.6771,7.3869 153.9983,7.3346 137.8587,7.2909 122.7428,7.2457 108.093,7.1635 93.5893,7.0039 78.6313,6.7035 62.0788,6.1446 42.5231,5.0994 15.813,3.1631 -0.1396,1.9069 A1.912,1.912 0 0 1 0.1396,-1.9069 Z" stroke-linecap="round" fill="#9398b0"/></g></g><g transform="matrix(1, 0, 0, 1, 44.1223, 1810.5229)" opacity="1"><g transform="scale(1)"><path d="M-1.5972,-1.0648 T-0.0637,-3.4132 2.5702,-8.7249 3.9867,-14.202 4.4097,-19.7753 4.9803,-26.2893 6.6406,-33.2533 9.4789,-40.3552 11.9592,-45.8288 13.5932,-49.8075 15.2224,-53.8532 16.8547,-57.9322 18.4688,-62.3569 20.1258,-66.6949 21.7812,-70.927 23.901,-75.2394 26.2169,-79.135 28.5686,-83.0592 31.4407,-87.1949 34.4998,-91.3153 37.661,-95.4383 40.9338,-99.2557 44.6003,-103.2331 48.3983,-107.6063 51.9411,-111.8593 55.8164,-116.1292 60.1895,-120.7288 64.4293,-125.1024 68.6024,-129.3614 73.208,-133.6323 78.0476,-137.5115 82.9365,-141.1157 88.3037,-144.6181 93.8581,-148.0235 99.1731,-151.0096 104.7552,-153.7852 110.4274,-156.4146 115.8241,-158.6094 121.4492,-160.5617 127.1418,-162.3694 132.8646,-164.098 139.1717,-165.4372 145.3404,-166.16 151.3169,-166.5304 157.5926,-166.7239 163.6192,-166.8248 169.5204,-166.8776 175.8894,-166.5032 181.9781,-165.9181 187.9139,-165.2193 194.2825,-164.0562 200.7462,-162.668 207.0504,-160.7256 213.5599,-158.1322 219.9855,-155.6476 226.1494,-153.159 232.585,-150.271 239.0915,-147.2023 245.307,-144.0077 251.3082,-140.7701 257.2008,-137.5043 262.8091,-133.7326 268.1966,-129.3289 273.3587,-124.6623 278.7281,-119.9208 284.6731,-114.6928 290.5908,-109.1491 296.3588,-103.9485 302.8513,-98.5236 309.5044,-92.4401 315.7829,-86.0768 322.0914,-80.1024 328.142,-74.6239 334.1185,-68.9621 339.9956,-63.2527 345.8171,-57.5209 352.0009,-51.388 358.4189,-44.5984 365.2503,-37.5622 372.6944,-30.4009 380.1676,-23.0717 387.2165,-16.0948 394.3887,-9.3558 401.6181,-3.1364 408.5353,2.4641 415.2957,7.7402 421.9713,12.852 428.6087,17.8757 435.6327,23.2527 442.7625,28.3639 449.9544,32.9535 457.3262,37.7542 464.6332,42.1729 472.2418,45.9708 480.1478,49.5208 487.8708,52.9484 495.451,56.2869 503.1887,59.134 511.0512,61.3596 519.0856,63.284 527.4569,64.623 536.3992,65.2816 545.2689,65.2214 554.0971,64.3859 562.8797,62.7892 571.6655,60.4113 580.7854,56.9029 589.2845,52.427 596.9035,47.8026 604.4279,42.7402 611.9251,37.3919 619.059,32.2797 625.9961,27.3331 633.2408,22.1335 637.0498,19.3786 A2.5092,2.5092 0 0 1 640.0502,23.4014 T636.3237,26.2668 629.2695,31.7318 622.5243,36.9677 615.5161,42.3095 607.9896,47.9303 600.2986,53.3425 592.3382,58.2545 583.0957,63.0157 573.3234,66.6954 563.9871,69.0893 554.6278,70.6416 545.2763,71.3477 535.9038,71.2598 526.4762,70.3937 517.7164,68.8398 509.4892,66.7467 501.2595,64.3017 493.2347,61.2482 485.6788,57.8238 477.9727,54.3246 469.8942,50.6362 461.945,46.6049 454.5039,42.0734 447.1831,37.2772 439.7879,32.5242 432.5305,27.2941 425.5468,21.9069 418.9057,16.8447 412.2054,11.6858 405.3962,6.3315 398.385,0.6191 391.0054,-5.7605 383.7488,-12.5889 376.7112,-19.545 369.2664,-26.8337 361.6954,-34.1089 354.8088,-41.1739 348.4887,-47.8494 342.3221,-53.9744 336.5289,-59.6909 330.7061,-65.3655 324.8214,-70.9656 318.7044,-76.5174 312.2642,-82.6055 306.1633,-88.7919 299.6653,-94.7101 293.0238,-100.2385 287.1622,-105.4825 281.3518,-110.8991 275.382,-116.1291 269.9542,-120.8924 264.9678,-125.3938 259.9658,-129.5191 254.7272,-133.0729 248.8963,-136.3295 242.9913,-139.5538 236.954,-142.7061 230.55,-145.7751 224.3078,-148.6278 218.2269,-151.1267 211.7571,-153.6721 205.6177,-156.1896 199.7407,-158.0394 193.4297,-159.4133 187.3694,-160.5386 181.5325,-161.2291 175.6218,-161.7993 169.561,-162.1452 163.6969,-162.0929 157.7379,-161.9942 151.6101,-161.809 145.8711,-161.4609 140.1487,-160.8203 134.2317,-159.5723 128.5706,-157.8637 123.0013,-156.1019 117.5961,-154.2339 112.4021,-152.1325 106.8458,-149.5626 101.4607,-146.9061 96.3051,-144.0185 90.8585,-140.7031 85.6907,-137.3585 80.9287,-133.885 76.3138,-130.2487 71.8379,-126.1646 67.6464,-121.9562 63.4005,-117.6496 59.0586,-113.1646 55.2556,-109.0549 51.6062,-104.7852 47.6714,-100.3729 44.0515,-96.5471 40.8847,-92.9443 37.7414,-88.8931 34.7433,-84.8895 32.0273,-80.9961 29.6813,-77.0716 27.517,-73.4607 25.5691,-69.4352 23.9307,-65.2324 22.2907,-60.9516 20.6104,-56.4086 18.9443,-52.3298 17.2677,-48.2736 15.5816,-44.2653 12.9973,-38.6832 10.2381,-31.8684 8.8652,-25.784 8.4086,-19.5657 7.9427,-13.5193 6.159,-7.117 3.1761,-1.2553 1.5972,1.0648 A1.9196,1.9196 0 0 1 -1.5972,-1.0648 Z" stroke-linecap="round" fill="#e599f7"/></g></g><g transform="matrix(1, 0, 0, 1, 72.0999, 1978.3884)" opacity="1"><g transform="scale(1)"><path d="M-1.1252,-1.6895 T0.0374,-2.4453 2.5839,-5.2171 5.4988,-9.8249 8.5434,-14.1778 11.6573,-17.6166 14.7595,-21.2018 17.9686,-25.1807 21.2737,-29.5461 25.1095,-34.0853 29.7467,-38.7421 35.0866,-43.7229 40.569,-48.7346 45.0935,-53.5055 48.4294,-57.405 52.1856,-62.1357 56.5499,-68.4127 59.8788,-73.2864 63.1802,-78.2028 66.4755,-83.1292 69.8405,-87.7869 73.179,-92.1845 76.4063,-96.6547 79.6577,-101.3509 83.4232,-106.3696 88.2685,-112.9528 93.2598,-119.2731 98.1839,-125.2104 102.9856,-131.3269 107.0525,-135.9225 111.1339,-140.1804 115.1073,-144.6566 119.1778,-149.4756 123.2643,-154.3596 126.5203,-157.4194 129.786,-160.1984 132.938,-163.1078 137.139,-167.7544 141.4219,-172.2734 144.6335,-175.0504 147.752,-177.9536 151.9377,-182.5906 156.5863,-187.4704 160.5257,-190.5462 164.051,-193.2349 167.331,-196.1002 170.6207,-199.1662 173.9134,-202.3409 177.3356,-205.2919 180.6884,-208.011 183.8833,-210.8905 187.6194,-214.0544 191.5358,-217.2829 195.1912,-220.1721 199.155,-222.9342 203.1982,-225.5574 206.792,-228.0333 210.729,-230.5601 214.7518,-233.0606 218.341,-235.4841 222.2747,-237.9863 226.2986,-240.4675 230.3638,-242.9401 234.4512,-245.4093 238.2299,-247.5263 242.1021,-249.7756 246.0811,-252.1294 249.807,-254.1892 253.8082,-256.1038 257.8644,-257.8997 263.65,-260.454 269.4279,-262.9736 273.6877,-264.3065 279.5893,-266.0968 286.5393,-268.3563 293.3421,-270.2132 298.9437,-271.4252 304.933,-272.0138 310.7836,-272.2991 316.4316,-272.9585 323.4573,-273.764 329.7127,-274 335.2243,-274.0672 340.5293,-274.0879 345.5692,-274.093 350.9516,-273.6333 356.0428,-272.9153 360.5969,-271.9669 365.3869,-270.4875 369.98,-268.8633 374.4733,-267.214 379.2975,-265.0857 383.9593,-262.7255 388.5788,-260.1942 392.8214,-257.7269 396.9772,-255.2499 401.3879,-252.2602 405.2656,-249.6239 409.6133,-247.051 414.603,-244.0385 419.26,-240.8811 423.8403,-237.6771 428.6814,-234.4105 433.8715,-231.0867 439.408,-227.8316 444.8354,-224.6036 450.26,-221.2527 455.6124,-217.8965 460.9062,-214.6753 466.7864,-211.4886 472.654,-208.1888 478.4482,-204.9011 483.9515,-202.1198 489.1149,-199.5383 494.2515,-197.1927 498.9544,-195.258 503.6656,-193.3765 508.7787,-191.6557 514.3301,-190.0028 520.0907,-187.8831 525.4483,-185.6651 530.4566,-183.7456 536.0916,-181.3904 541.9779,-179.0951 547.6307,-177.3366 553.202,-175.5288 558.4754,-173.6513 563.2508,-171.9486 567.8908,-170.2898 573.047,-168.1388 578.4615,-165.8911 583.2651,-164.6203 587.9885,-163.543 592.9941,-162.1709 597.6129,-160.6617 602.4574,-158.3238 605.1039,-156.8562 A2.427,2.427 0 0 1 602.8761,-152.5438 T601.4283,-153.2419 598.0182,-154.95 593.8123,-156.618 589.2314,-157.7194 584.5465,-158.7575 579.5945,-160.2431 573.864,-162.2601 568.2948,-164.211 563.4327,-165.8859 559.017,-167.5248 554.3515,-169.2654 548.8164,-171.3796 543.2819,-173.4407 537.3181,-175.4672 531.3952,-177.5602 526.0469,-179.7322 520.6411,-182.0277 515.3282,-183.9164 510.1432,-185.548 504.5798,-187.3083 499.0195,-189.2354 494.2544,-191.3932 489.3416,-193.7341 483.9874,-196.0261 478.622,-198.7265 472.8434,-202.0294 467.0556,-205.3199 461.1942,-208.5791 455.5647,-211.9004 450.5179,-215.166 444.9235,-218.5173 439.2643,-221.8431 434.1003,-225.0751 428.564,-228.4518 423.1232,-231.8489 418.279,-235.1657 414.0045,-238.303 409.8066,-241.2121 405.0593,-243.8197 400.2838,-246.6316 395.4909,-250.0974 390.5446,-253.2645 386.3635,-255.7177 382.0555,-258.0559 377.4478,-260.3909 373.0923,-262.3211 368.7463,-263.9359 364.3872,-265.5084 358.676,-267.0679 353.0482,-268.4296 348.2885,-269.0081 343.3266,-269.0018 338.2078,-268.9956 332.6295,-268.9671 326.7595,-268.8546 320.5633,-268.463 315.1477,-267.7158 309.2524,-267.1488 301.8761,-266.6428 294.9697,-265.4054 288.308,-263.6058 283.0825,-261.9172 277.2485,-260.1663 271.3593,-258.3163 267.4099,-256.6779 263.5899,-255.0342 259.879,-253.319 255.9592,-251.6133 252.2035,-249.8364 248.5969,-247.8534 244.5771,-245.4888 240.6489,-243.2093 237.013,-241.1668 232.9457,-238.6961 228.9146,-236.2289 224.9624,-233.7705 221.1476,-231.3244 217.4208,-228.7922 213.4758,-226.3229 209.6714,-223.8531 205.9624,-221.2816 202.0629,-218.7521 198.333,-216.1705 194.776,-213.3537 190.9214,-210.1798 187.2895,-207.1005 182.3628,-202.9148 177.4518,-198.6679 174.0985,-195.4331 170.683,-192.2516 167.1454,-189.1769 163.6397,-186.4999 160.1525,-183.8191 156.9818,-180.7592 154.2342,-177.4845 151.2234,-174.2093 146.5475,-170.0861 142.1277,-165.9645 139.3658,-162.6928 136.3326,-159.4146 131.5599,-155.2534 126.9529,-151.054 124.1083,-147.9077 121.464,-144.6286 118.6707,-141.3366 115.805,-138.2908 111.7406,-134.1349 107.7363,-129.9413 103.9128,-125.2657 98.9485,-119.4796 95.3296,-115.1284 92.8596,-111.8617 90.4009,-108.5915 87.9609,-105.3315 85.5638,-102.0841 82.2562,-97.2236 78.924,-92.4327 75.6501,-88.2285 72.4011,-83.941 69.1031,-79.0044 65.7989,-74.0717 62.4622,-69.1427 59.0872,-64.2209 56.6407,-60.9851 52.9706,-56.3809 48.3494,-50.6923 43.5148,-45.6037 39.3741,-41.7284 35.3934,-37.9125 30.5849,-33.1511 26.4007,-29.0661 22.8685,-25.0478 19.4339,-20.4703 16.1006,-16.5407 12.9944,-13.3266 10.0052,-9.3316 7.4963,-5.2106 4.9788,-1.7032 2.2992,0.8891 1.1252,1.6895 A2.0299,2.0299 0 0 1 -1.1252,-1.6895 Z" stroke-linecap="round" fill="#f76707"/></g></g><g transform="matrix(1, 0, 0, 1, 514.8039, 1641.0117)" opacity="1"><g transform="scale(1)"><path d="M-2.2857,0 T-2.273,-1.5562 -2.2513,-5.3484 -2.8111,-9.9857 -3.8777,-14.4638 -5.3127,-18.3451 -7.25,-20.8756 -8.2504,-21.6014 A2.28,2.28 0 0 1 -5.152,-24.9471 T-3.6576,-23.4719 -1.1922,-20.1676 0.5262,-15.2244 1.7581,-9.8474 2.2513,-5.3484 2.273,-1.5562 2.2857,0 A2.2857,2.2857 0 0 1 -2.2857,0 ZM-6.5331,-21.0004 T-7.0867,-21.0385 -7.9574,-18.9953 -8.6093,-13.9788 -9.0437,-7.2983 -8.2227,0.3844 -6.2357,7.6912 -3.3698,14.5337 -0.1812,21.1536 2.5503,27.0391 5.0943,32.19 7.2519,37.1374 8.088,42.7996 6.5447,48.2216 1.7775,52.6103 -3.4957,55.2387 -8.993,56.1918 -15.6769,56.2648 -21.5035,53.8347 -25.2849,50.5077 -26.3557,49.2659 A2.2657,2.2657 0 0 1 -23.0243,46.1941 T-21.8733,47.3619 -19.1357,49.7578 -15.2465,51.2226 -9.8227,51.1602 -3.6593,49.8018 0.8745,47.3673 2.9526,43.5013 2.6577,38.6592 0.6273,33.9637 -1.8801,28.7499 -4.4895,22.9935 -6.6318,18.3184 -8.9143,13.0593 -11.0305,7.5383 -12.3544,3.1762 -13.339,-1.3734 -13.6814,-6 -13.4136,-11.3574 -12.4127,-17.5607 -10.1981,-23.023 -7.8146,-25.3992 -6.8693,-25.548 A2.28,2.28 0 0 1 -6.5331,-21.0004 Z" stroke-linecap="round" fill="#f76707"/></g></g><g transform="matrix(1, 0, 0, 1, 529.6155, 1664.0521)" opacity="1"><g transform="scale(1)"><path d="M-2.3082,0.5788 T-2.7018,-0.9434 -5.6196,-2.6221 -10.133,-1.9912 -14.5341,-0.4039 -19.3992,1.1643 -24.567,2.8013 -27.2819,3.67 A2.1372,2.1372 0 0 1 -28.6781,-0.37 T-26.006,-1.3629 -20.952,-3.2582 -16.2414,-5.0503 -9.5521,-6.9989 -1.8284,-5.9085 1.9213,-2.1689 2.3082,-0.5788 A2.3797,2.3797 0 0 1 -2.3082,0.5788 Z" stroke-linecap="round" fill="#f76707"/></g></g><g transform="matrix(1, 0, 0, 1, 592.1537, 1925.7247)" opacity="1"><g transform="scale(1)"><path d="M-2.478,0.6214 T-2.8501,-0.9044 -4.6578,-0.0899 -6.5083,5.5501 -6.1254,12.409 -3.2672,18.7055 1.5654,22.2288 6.7995,22.425 10.4998,19.4537 11.9697,14.7064 10.8901,10.3695 9.1256,8.1917 8.6725,7.9851 A2.3697,2.3697 0 0 1 11.1395,3.9383 T12.9856,5.6411 15.9369,9.9415 16.7843,15.3761 15.3045,21.0249 10.9243,25.7063 5.5979,27.7483 1.1587,27.4394 -2.9394,25.983 -6.3197,23.3525 -9.0731,19.4884 -10.8558,15.0195 -11.7517,10.6089 -11.5028,4.4488 -9.6597,-2.4213 -5.4642,-6.5798 -0.444,-5.8363 2.0696,-2.208 2.478,-0.6214 A2.5547,2.5547 0 0 1 -2.478,0.6214 ZM10.7262,8.185 T10.3287,8.3281 9.9311,8.4712 A2.3631,2.3631 0 0 1 8.2954,4.0371 T8.6906,3.8878 9.0858,3.7384 A2.3697,2.3697 0 0 1 10.7262,8.185 ZM11.4241,6.7483 T11.1134,8.093 12.8099,12.4327 16.0863,17.2819 19.04,20.6812 22.3723,23.4255 25.9163,26.6198 29.49,30.3318 32.5688,33.8691 35.2061,38.4169 37.0832,43.8478 38.0408,49.1874 37.6861,55.1352 35.3534,61.4799 31.1233,67.3003 25.1716,72.7036 17.1245,77.5028 8.4753,81.1574 0.1512,84.2525 -4.1873,85.8764 A2.0869,2.0869 0 0 1 -5.6927,81.9836 T-1.3904,80.266 6.6818,77.0204 14.5894,73.4568 21.7052,68.9843 26.8083,64.1807 30.2624,59.5009 32.1712,54.7886 32.4782,50.0951 31.7297,45.5821 29.2286,39.5847 25.538,34.0021 22.3784,30.4655 19.0515,27.2921 15.2517,23.8593 11.2769,18.7333 7.7085,12.3184 6.4751,7.3986 6.8024,5.76 A2.3631,2.3631 0 0 1 11.4241,6.7483 Z" stroke-linecap="round" fill="#f76707"/></g></g><g transform="matrix(1, 0, 0, 1, 72.0999, 1976.7426)" opacity="1"><g transform="scale(1)"><path d="M-2.3892,-0.479 T-1.9902,-2.4074 -1.9018,-7.9813 -2.278,-14.3319 -2.3853,-19.6243 -2.46,-25.1328 -2.5209,-31.1501 -2.169,-37.5923 -1.5974,-44.1011 -0.8978,-50.2766 -0.1459,-56.2493 0.2307,-61.9503 0.8322,-67.85 1.5247,-73.6884 1.8588,-79.3206 2.0252,-85.3892 2.5018,-91.8691 3.121,-98.3996 3.4169,-104.7912 3.5687,-111.2712 3.6447,-117.8006 3.6753,-124.3562 3.6878,-130.9233 3.6857,-137.4988 3.6754,-144.0788 3.6605,-150.6588 3.6429,-157.2412 3.6239,-163.826 4.0045,-170.5834 4.5881,-177.637 4.8818,-184.6844 5.0374,-191.5228 5.1125,-198.2402 5.5428,-205.0675 6.1519,-211.7777 6.4531,-218.2535 6.6057,-224.7799 6.6789,-230.9454 6.703,-236.9184 6.7056,-242.7892 6.7083,-248.2202 6.7126,-253.4162 6.7183,-258.0986 6.7358,-263.5142 7.2775,-269.4725 8.2608,-273.2242 8.7155,-274.3076 A3.019,3.019 0 0 1 14.3245,-272.0724 T13.6571,-269.4375 13.0006,-263.5115 13.0135,-258.0937 13.0119,-253.4078 13.0022,-248.2051 12.9785,-242.7628 12.931,-236.8686 12.8601,-230.8569 12.7527,-224.6205 12.5629,-217.9536 12.2143,-211.2151 11.5904,-204.6714 11.1531,-198.1602 11.0536,-191.379 10.8781,-184.424 10.5435,-177.1185 9.9347,-170.2294 9.5337,-163.8226 9.5125,-157.2394 9.4909,-150.6554 9.4684,-144.0724 9.4435,-137.4867 9.4136,-130.9004 9.3735,-124.313 9.3044,-117.719 9.191,-111.1171 8.9836,-104.5006 8.5978,-97.8527 7.9234,-91.4519 7.4176,-85.2146 7.1915,-78.9725 6.7809,-73.0562 6.0603,-67.3207 5.4614,-61.5978 5.0411,-55.5844 4.2809,-49.6682 3.5831,-43.6236 2.975,-37.284 2.5693,-31.1663 2.552,-25.1712 2.5598,-19.6975 2.609,-14.4905 2.7306,-9.798 2.9836,-5.598 2.7706,-1.4854 2.3892,0.479 A2.4367,2.4367 0 0 1 -2.3892,-0.479 Z" stroke-linecap="round" fill="#f2f2f2"/></g></g><g transform="matrix(1, 0, 0, 1, 68.8084, 1968.5139)" opacity="1"><g transform="scale(1)"><path d="M3.5646,0 T3.5663,2.3343 3.5736,7.067 3.5881,11.8977 3.6052,17.168 3.6191,22.6699 3.6247,27.9061 3.6197,32.9998 3.612,37.6282 3.5979,43.7883 3.5707,51.5514 3.5425,58.2778 3.5345,64.3062 3.8558,69.6059 4.5808,75.2599 5.0939,81.3162 5.2323,86.5405 5.2678,92.1555 5.2583,98.4715 5.2218,104.3855 5.1694,109.2045 5.0578,114.0404 4.2756,118.7206 3.2742,123.4324 2.8314,128.3254 2.615,131.9038 2.5386,133.3167 A2.5387,2.5387 0 0 1 -2.5386,133.2833 T-2.5964,131.8695 -2.7457,128.2229 -2.8522,123.5854 -2.2708,118.8255 -1.758,113.9076 -1.8699,109.2051 -1.9236,104.3874 -1.9649,98.4783 -1.9916,92.183 -2.018,86.6399 -2.1025,81.647 -2.3919,76.5831 -3.0753,70.6756 -3.5345,64.3062 -3.5425,58.2778 -3.5707,51.5514 -3.5979,43.7883 -3.612,37.6282 -3.6197,32.9998 -3.6247,27.9061 -3.6191,22.6699 -3.6052,17.168 -3.5881,11.8977 -3.5736,7.067 -3.5663,2.3343 -3.5646,0 A3.5646,3.5646 0 0 1 3.5646,0 Z" stroke-linecap="round" fill="#f2f2f2"/></g></g><g transform="matrix(1, 0, 0, 1, 72.0999, 2147.8996)" opacity="1"><g transform="scale(1)"><path d="M-0.5714,2.8502 T-2.4997,2.4676 -7.0254,3.03 -11.5995,5.1704 -15.1761,7.9757 -17.9457,11.4607 -20.148,15.4599 -21.9791,20.6194 -20.5378,22.2562 -16.7498,19.3863 -12.6431,14.3147 -7.9977,7.4526 -4.5249,2.4768 -3.1388,0.7629 A2.3708,2.3708 0 0 1 1.0036,3.0703 T-0.3867,4.8598 -2.7646,8.3994 -4.9117,11.9891 -7.3615,15.5471 -10.0105,19.5045 -12.8863,23.2964 -16.2892,26.5582 -21.3887,28.7065 -26.1448,27.8379 -27.7665,22.9803 -27.1804,17.2159 -25.3197,12.5503 -22.5385,7.7181 -18.8048,3.3037 -14.4749,-0.0128 -10.08,-2.3015 -5.6123,-3.4763 -1.3931,-3.248 0.5714,-2.8502 A2.9069,2.9069 0 0 1 -0.5714,2.8502 ZM-1.642,-0.3836 T-1.3894,-0.4461 -1.1368,-0.5087 A2.3697,2.3697 0 0 1 0.0115,4.0896 T-0.2408,4.1532 -0.4932,4.2168 A2.3708,2.3708 0 0 1 -1.642,-0.3836 ZM1.7795,1.4299 T2.004,2.8341 2.9329,7.3127 4.8375,13.9809 7.6935,20.3633 10.6361,24.7001 11.923,26.2482 A2.6859,2.6859 0 0 1 7.817,29.7118 T6.5079,28.1825 3.8048,24.9168 1.6622,21.1832 0.2963,17.0509 -0.8309,12.9602 -1.9408,7.8127 -2.7229,3.3861 -2.9048,2.1511 A2.3697,2.3697 0 0 1 1.7795,1.4299 Z" stroke-linecap="round" fill="#f2f2f2"/></g></g><g transform="matrix(1, 0, 0, 1, 676.0864, 1825.3346)" opacity="1"><g transform="scale(1)"><path d="M2.8332,-0.7104 T3.222,0.8464 3.9697,5.2724 4.4299,11.3307 4.57,17.389 4.6182,22.4744 4.6341,27.025 4.6447,31.3695 4.2508,36.2147 3.6701,41.4952 3.3907,46.3948 3.2493,51.309 3.1878,56.2318 3.1659,61.16 3.5449,67.9363 4.1512,75.001 4.4901,80.3811 4.6648,85.5613 4.7575,90.6279 4.8114,95.2432 4.8415,99.6225 4.8597,104.6574 4.8712,110.0348 4.8782,115.2023 4.8874,120.2623 4.8986,125.2632 4.9071,130.2329 4.9182,135.1886 4.9268,140.1368 4.9335,145.0788 4.9388,150.0175 4.9384,154.9568 4.9382,159.8964 4.9379,164.446 4.9377,169.177 5.3166,175.3912 5.9042,181.7493 6.2237,187.2125 6.3876,192.4573 6.4678,197.1673 6.5075,201.592 7.1113,207.9428 7.8143,214.4109 7.9817,219.2499 8.6651,225.8523 9.4126,232.0473 9.6254,238.0695 10.3282,245.5814 11.1143,252.6303 11.3348,259.5277 11.3896,265.214 11.4022,270.6215 11.4071,276.0805 11.4129,281.4932 11.4177,287.7527 11.7428,293.3851 12.4466,298.7002 12.9163,303.6097 13.0127,307.7628 13.008,312.1196 12.9957,314.3269 A3.1257,3.1257 0 0 1 6.7443,314.3531 T6.6946,310.9353 6.5387,304.8623 6.189,299.9447 5.4929,294.329 5.0421,287.7528 5.0466,281.4938 5.051,276.0826 5.0493,271.5795 5.0367,267.4599 4.999,262.569 4.8767,256.3967 4.4833,249.8597 3.7405,244.3931 3.2642,240.0913 3.0573,234.3232 2.6861,228.5754 2.0355,224.176 1.5217,219.4909 1.351,214.8707 1.0508,210.5685 0.4249,206.2367 -0.0293,201.6721 -0.0809,197.2866 -0.1741,192.6657 -0.3392,187.5917 -0.644,182.333 -1.2409,175.7328 -1.6377,169.1788 -1.638,164.446 -1.6382,159.8964 -1.6385,154.9568 -1.6389,150.0175 -1.6337,145.0789 -1.6271,140.137 -1.6188,135.1889 -1.6082,130.2336 -1.6008,125.2644 -1.5915,120.2646 -1.586,115.2067 -1.586,110.0427 -1.5879,104.6743 -1.5948,99.6583 -1.6126,95.3055 -1.6497,90.7377 -1.7294,85.766 -1.8819,80.7568 -2.164,75.6697 -2.7193,68.3425 -3.0636,61.1023 -2.9938,56.1238 -2.8812,51.1069 -2.6921,46.0189 -2.3445,40.8066 -1.7355,35.7672 -1.3526,31.3694 -1.3491,27.0339 -1.3466,22.5004 -1.3557,17.4652 -1.4384,11.6103 -1.7807,6.2048 -2.4415,2.2659 -2.8332,0.7104 A2.9209,2.9209 0 0 1 2.8332,-0.7104 ZM6.7443,314.34 T6.7687,312.69 6.7931,311.04 A3.0769,3.0769 0 0 1 12.9469,311.04 T12.9713,312.69 12.9957,314.34 A3.1257,3.1257 0 0 1 6.7443,314.34 Z" stroke-linecap="round" fill="#f2f2f2"/></g></g><g transform="matrix(1, 0, 0, 1, 676.0864, 2189.0431)" opacity="1"><g transform="scale(1)"><path d="M2.9367,-0.9809 T3.3357,0.1768 4.7439,4.6901 5.9528,10.4307 6.2643,15.2423 6.0204,20.0202 4.5553,25.7037 3.4459,29.0357 A3.2664,3.2664 0 0 1 -2.3063,25.9392 T-1.7508,25.0951 -0.6893,21.0666 -0.2452,15.5839 -0.4371,11.1384 -1.3704,6.1651 -2.5552,2.1598 -2.9367,0.9809 A3.0962,3.0962 0 0 1 2.9367,-0.9809 ZM-2.595,28.2956 T-2.7853,27.1213 -1.2714,23.5251 3.5382,20.6441 10.3789,20.1471 17.8556,20.5354 24.5919,22.4038 28.9331,27.3024 29.6795,34.8119 27.795,40.7708 24.9156,44.1902 21.644,46.9032 17.5488,48.8867 10.767,49.7454 3.9522,48.7399 -1.6294,45.6209 -4.7594,43.5819 A2.85,2.85 0 0 1 -1.8206,38.6981 T-0.1804,39.6027 4.3156,41.9528 10.2634,43.3674 16.1985,42.1314 21.2224,38.6356 23.8849,34.1583 23.5988,29.512 20.2088,26.5439 14.1471,26.1106 6.9999,25.9952 3.5134,26.2419 3.7346,26.6793 A3.2664,3.2664 0 0 1 -2.595,28.2956 Z" stroke-linecap="round" fill="#f2f2f2"/></g></g><g transform="matrix(1, 0, 0, 1, 345.2927, 1715.07)" opacity="1"><g transform="scale(1)"><path d="M0,2.376 T-0.3902,2.3751 -0.7804,2.3742 A2.3742,2.3742 0 0 1 -0.7804,-2.3742 T-0.3902,-2.3751 0,-2.376 A2.376,2.376 0 0 1 0,2.376 ZM-2.8808,1.1069 T-3.0864,0.7166 -3.2919,0.3263 A2.3739,2.3739 0 0 1 0.9084,-1.8872 T1.1142,-1.4971 1.3199,-1.1069 A2.3742,2.3742 0 0 1 -2.8808,1.1069 ZM-3.3362,-1.7988 T-3.0547,-2.3986 -1.065,-4.6175 2.6682,-6.6839 7.1081,-6.0656 9.5229,-5.0001 A2.5495,2.5495 0 0 1 6.6064,-0.8176 T6.036,-1.2763 3.4914,-1.3358 1.2349,-0.3493 0.9527,0.2379 A2.3739,2.3739 0 0 1 -3.3362,-1.7988 ZM10.5925,-3.2408 T10.6367,-2.9437 10.6808,-2.6467 A2.5597,2.5597 0 0 1 5.6049,-1.9802 T5.5709,-2.2785 5.5369,-2.5769 A2.5495,2.5495 0 0 1 10.5925,-3.2408 ZM8.5926,0.2065 T7.1346,0.4737 3.3041,0.3207 0.2993,-0.2311 -0.3328,-0.3628 A2.5624,2.5624 0 0 1 0.8031,-5.3602 T3.0211,-4.8848 6.4661,-4.6213 7.6932,-4.8333 A2.5597,2.5597 0 0 1 8.5926,0.2065 ZM-2.0113,-1.6288 T-2.0661,-1.7306 -2.1208,-1.8324 A2.5605,2.5605 0 0 1 2.3687,-4.296 T2.4251,-4.1951 2.4816,-4.0942 A2.5624,2.5624 0 0 1 -2.0113,-1.6288 ZM0.918,-5.4984 T2.1583,-5.0274 5.0876,-2.4219 7.5977,0.7301 8.4189,1.7477 A2.4,2.4 0 0 1 4.7411,4.8323 T3.882,3.8465 1.814,1.257 -0.0325,-0.4884 -0.6702,-0.6299 A2.5605,2.5605 0 0 1 0.918,-5.4984 Z" stroke-linecap="round" fill="#f2f2f2"/></g></g><g transform="matrix(1, 0, 0, 1, 346.9384, 1724.9444)" opacity="1"><g transform="scale(1)"><path d="M2.4392,0 T2.4465,2.7245 2.4668,7.6628 2.5048,14.0119 2.9089,20.2639 3.5114,24.8723 3.8459,29.8446 4.0146,35.1924 4.1019,40.7335 4.15,48.1034 4.1685,55.4907 4.1681,60.7689 4.1712,65.8872 4.1824,70.9212 4.1954,75.9084 4.2101,80.8709 4.2262,85.8228 4.2388,90.7667 4.2486,95.7064 4.2564,100.6462 4.2576,105.5837 4.6213,110.3202 5.198,115.1525 5.5158,119.8348 5.6827,124.6447 5.7689,129.914 5.8132,135.0199 5.8409,140.0477 5.8561,144.6435 5.8649,149.4001 5.8654,154.6317 5.8551,159.7251 5.8429,164.3557 5.8203,170.9038 5.7966,177.8572 5.7796,183.2507 5.7621,188.4274 5.7509,192.7116 5.7406,197.6939 5.3305,205.7965 4.7261,213.5768 4.419,218.8198 4.2486,224.3004 3.7464,230.0812 3.0922,235.4683 2.7605,240.4749 2.1409,247.304 1.4258,254.0152 1.0985,258.4258 0.9219,262.6926 0.8028,269.0759 0.726,276.9667 0.6966,284.1186 0.6844,289.5908 0.6814,293.8993 0.682,299.3378 0.6881,305.7854 0.6952,311.9407 0.7,317.4226 0.7035,322.5108 0.7107,327.4883 0.7257,332.2331 0.7446,336.523 0.7628,340.6853 0.7748,345.2013 0.7811,350.0212 0.7858,354.5376 0.7896,358.9685 0.793,364.0301 1.3442,368.9427 1.8938,371.1521 A2.4236,2.4236 0 0 1 -2.8103,372.3217 T-2.9506,371.7173 -3.5928,368.9231 -4.093,364.0301 -4.0896,358.9685 -4.0858,354.5376 -4.0811,350.0212 -4.0748,345.2013 -4.0628,340.6853 -4.0446,336.523 -4.0257,332.2331 -4.0107,327.4883 -4.0035,322.5108 -4,317.4226 -3.9951,311.9406 -3.9878,305.7852 -3.981,299.3373 -3.979,293.8982 -3.9799,289.5882 -3.983,284.1106 -3.9771,276.9421 -3.9267,268.9927 -3.8225,262.4938 -3.6407,258.0781 -3.2878,253.4002 -2.5891,246.7932 -2.0071,240.1622 -1.6626,234.8984 -1.0336,229.6648 -0.582,224.151 -0.4235,218.5393 -0.1064,213.0829 0.4737,205.4831 0.8394,197.6939 0.829,192.7117 0.8178,188.4274 0.8002,183.2508 0.7831,177.8574 0.7588,170.9043 0.7349,164.3567 0.7208,159.727 0.7068,154.6352 0.7002,149.4077 0.6956,144.6575 0.6855,140.0724 0.665,135.066 0.6179,129.9992 0.5308,124.8332 0.3687,120.1811 0.0623,115.7677 -0.5456,110.7272 -0.9576,105.5886 -0.9565,100.6463 -0.9488,95.7065 -0.9391,90.7668 -0.9268,85.8231 -0.9112,80.8715 -0.8976,75.9094 -0.8865,70.9231 -0.8791,65.8907 -0.8831,60.7753 -0.8969,55.5021 -0.9357,48.1396 -0.9962,40.8137 -1.0833,35.3575 -1.2457,30.177 -1.5392,25.5113 -2.1284,20.69 -2.5048,14.0176 -2.4668,7.6628 -2.4465,2.7245 -2.4392,0 A2.4392,2.4392 0 0 1 2.4392,0 ZM0.6112,369.562 T1.4814,370.0309 3.3227,371.0192 4.2938,371.5386 A2.2749,2.2749 0 0 1 2.2862,375.6214 T1.2819,375.1695 -0.625,374.3147 -1.5277,373.9118 A2.4236,2.4236 0 0 1 0.6112,369.562 Z" stroke-linecap="round" fill="#f2f2f2"/></g></g><g transform="matrix(1, 0, 0, 1, 346.9384, 2134.7337)" opacity="1"><g transform="scale(1)"><path d="M2.2634,2.2634 T1.2792,3.2359 -0.9135,6.2833 -3.0175,11.7625 -4.3138,17.5998 -1.7866,20.6628 3.9599,20.5065 10.2415,18.4008 13.7047,17.0814 A2.8885,2.8885 0 0 1 15.9153,22.4186 T14.083,23.2352 8.6507,25.4878 2.9574,27.3048 -2.6395,27.2771 -8.2017,24.9499 -10.4251,19.5516 -9.6762,13.017 -8.2103,7.6572 -5.9441,2.5393 -3.2467,-1.2684 -2.2634,-2.2634 A3.2009,3.2009 0 0 1 2.2634,2.2634 Z" stroke-linecap="round" fill="#f2f2f2"/></g></g><g transform="matrix(1, 0, 0, 1, 83.62, 1896.1014)" opacity="1"><g transform="scale(1)"><path d="M0.47,-2.8116 T2.8065,-2.4075 7.0154,-1.3451 11.7498,0.8314 16.9932,4.0801 21.837,8.115 26.308,12.149 29.7099,14.9064 31.1031,15.9344 A2.6248,2.6248 0 0 1 28.1369,20.2656 T25.1709,18.3592 20.1803,14.542 16.0296,10.7431 11.4513,7.352 6.5965,4.7066 1.862,3.1879 -0.47,2.8116 A2.8506,2.8506 0 0 1 0.47,-2.8116 Z" stroke-linecap="round" fill="#f2f2f2"/></g></g><g transform="matrix(1, 0, 0, 1, 93.4945, 1853.3122)" opacity="1"><g transform="scale(1)"><path d="M1.24,-2.0658 T3.1828,-0.8896 7.0483,1.7539 10.7653,4.7698 14.5863,7.8213 19.2757,11.3038 24.5887,15.5372 29.7055,19.6932 34.201,22.9712 38.0498,25.4612 43.3454,27.8248 46.8213,29.0741 A2.3177,2.3177 0 0 1 45.3387,33.4659 T43.3475,32.8451 39.326,31.5633 35.339,29.7449 31.1987,27.1334 26.4403,23.6839 21.3841,19.4994 16.2613,15.2928 11.4881,11.628 7.693,8.5038 4.3449,5.7069 0.71,3.2262 -1.24,2.0658 A2.4094,2.4094 0 0 1 1.24,-2.0658 Z" stroke-linecap="round" fill="#f2f2f2"/></g></g><g transform="matrix(1, 0, 0, 1, 105.0147, 1794.0655)" opacity="1"><g transform="scale(1)"><path d="M1.1587,-1.7386 T4.6619,0.5952 11.2623,5.364 17.5051,10.2063 23.936,15.4759 30.7974,20.9177 37.4627,25.6428 42.9195,29.2861 47.5962,31.9421 52.6091,34.4573 55.3127,35.814 A2.2696,2.2696 0 0 1 53.3073,39.886 T50.5837,38.5698 45.2981,36.0131 40.2944,33.1899 34.7687,29.3889 27.9813,24.4222 21.1362,18.8601 14.8511,13.5891 8.7763,8.77 2.3432,4.0733 -1.1587,1.7386 A2.0893,2.0893 0 0 1 1.1587,-1.7386 Z" stroke-linecap="round" fill="#f2f2f2"/></g></g><g transform="matrix(1, 0, 0, 1, 109.9519, 1726.5902)" opacity="1"><g transform="scale(1)"><path d="M1.0905,-1.9093 T3.8081,-0.341 9.1634,2.8362 14.7906,6.4656 21.3258,11.1046 28.6932,16.6446 36.83,22.613 45.7647,28.8128 54.7486,34.7765 63.0129,40.2685 70.4438,45.0924 76.9413,48.737 82.6163,51.4194 87.5726,53.67 93.7553,55.9221 97.6899,57.1043 A2.2253,2.2253 0 0 1 96.5101,61.3957 T94.3112,60.8471 89.9552,59.75 85.5579,58.2257 80.4624,56.0296 74.4503,53.2271 67.639,49.4169 60.1553,44.5289 51.9304,38.979 42.9177,32.8578 33.9578,26.4656 25.8652,20.3521 18.6822,14.7865 12.3808,10.1729 6.9427,6.5849 1.6409,3.4533 -1.0905,1.9093 A2.1988,2.1988 0 0 1 1.0905,-1.9093 Z" stroke-linecap="round" fill="#f2f2f2"/></g></g><g transform="matrix(1, 0, 0, 1, 174.1357, 1673.9265)" opacity="1"><g transform="scale(1)"><path d="M1.2661,-1.9011 T2.4421,-1.112 6.1186,2.434 10.3773,6.5924 15.0741,10.3206 21.521,15.4161 29.1703,21.1595 37.4941,27.2868 45.7662,33.2164 54.0213,39.0644 61.5852,44.9569 67.8545,50.0069 73.0729,54.2589 77.0265,57.7491 80.4055,60.8252 82.178,62.4343 A2.3266,2.3266 0 0 1 79.102,65.9257 T77.2824,64.3701 73.8452,61.441 69.929,58.1729 64.6479,54.0256 58.3809,49.0434 51.0153,43.2862 42.7618,37.3771 34.4815,31.3368 26.17,25.0903 18.4988,19.1746 12.1197,13.958 7.2522,9.9303 3.1757,5.8631 -0.1055,2.6682 -1.2661,1.9011 A2.2842,2.2842 0 0 1 1.2661,-1.9011 Z" stroke-linecap="round" fill="#f2f2f2"/></g></g><g transform="matrix(1, 0, 0, 1, 216.925, 1668.9893)" opacity="1"><g transform="scale(1)"><path d="M-0.7734,-1.9346 T1.1967,-2.7225 5.7253,-3.6094 11.2896,-2.9083 17.4827,-0.458 24.2215,3.2045 31.7076,8.3041 39.5874,14.5391 46.8121,20.5442 53.7085,26.5494 57.3252,29.6974 A2.0826,2.0826 0 0 1 54.5948,32.8426 T50.9698,29.7041 44.125,23.7805 36.9507,17.8706 29.3284,11.8361 22.1722,6.9463 15.9001,3.4741 8.8675,1.1901 2.6961,1.1664 0.7734,1.9346 A2.0835,2.0835 0 0 1 -0.7734,-1.9346 Z" stroke-linecap="round" fill="#f2f2f2"/></g></g><g transform="matrix(1, 0, 0, 1, 393.0191, 1752.922)" opacity="1"><g transform="scale(1)"><path d="M0.489,-1.7121 T3.2204,-0.9424 8.3365,1.0933 13.0886,3.796 17.942,7.2142 23.2329,11.3679 29.0723,15.8554 35.2615,20.5577 42.0322,25.7758 49.5019,31.6506 57.3323,37.8544 65.0019,44.256 72.1644,50.3308 79.0197,55.8227 85.0544,61.125 89.8371,65.9015 94.3467,70.4129 96.723,72.7914 A1.7972,1.7972 0 0 1 94.177,75.3286 T91.8068,72.944 87.3099,68.4174 82.7015,63.7598 76.8224,58.5472 69.9293,52.9546 62.8243,46.8546 55.2414,40.4938 47.4222,34.301 39.9696,28.4645 33.1982,23.2804 26.9832,18.5838 21.097,14.0953 15.9493,10.0843 11.3349,6.8774 6.9892,4.3953 2.2286,2.4986 -0.489,1.7121 A1.7806,1.7806 0 0 1 0.489,-1.7121 Z" stroke-linecap="round" fill="#f2f2f2"/></g></g><g transform="matrix(1, 0, 0, 1, 429.2254, 1738.1104)" opacity="1"><g transform="scale(1)"><path d="M1.118,-1.6766 T5.795,1.429 14.5208,7.3384 21.9703,13.262 28.6261,19.1117 35.2022,24.889 42.1218,30.6266 49.5597,35.9134 57.3648,41.0545 65.4188,46.5414 73.5477,52.1726 81.7078,57.8843 89.1199,63.2764 95.65,67.6597 102.5611,71.9432 106.2351,74.2129 A1.7409,1.7409 0 0 1 104.4249,77.1871 T100.7211,74.9667 93.6325,70.7302 86.8902,66.3894 79.4573,61.1329 71.26,55.4974 63.1235,49.9364 55.0868,44.5251 47.1327,39.3263 39.4404,33.8603 32.4232,28.053 25.8463,22.2628 19.3554,16.5024 12.1982,10.7352 3.5468,4.8004 -1.118,1.6766 A2.0151,2.0151 0 0 1 1.118,-1.6766 Z" stroke-linecap="round" fill="#f2f2f2"/></g></g><g transform="matrix(1, 0, 0, 1, 453.9115, 1739.7561)" opacity="1"><g transform="scale(1)"><path d="M1.1274,-1.6917 T4.6247,0.6514 11.6106,5.8332 18.8506,11.6727 26.5288,17.807 34.4743,24.1478 42.5503,30.6084 50.9912,36.6811 60.0718,42.5863 69.5707,48.8662 78.8229,54.9138 87.9601,60.859 97.0294,66.7595 105.6524,72.2407 114.6367,77.8784 119.3804,80.8438 A1.6983,1.6983 0 0 1 117.5996,83.7362 T112.8159,80.8361 103.7215,75.3439 94.9539,70.0049 85.7882,64.2414 76.5693,58.3933 67.2445,52.4023 57.7383,46.1782 48.4825,40.1681 39.8556,33.9708 31.7903,27.4883 23.8805,21.0896 16.2462,14.8707 9.2037,9.0812 2.3805,4.0171 -1.1274,1.6917 A2.033,2.033 0 0 1 1.1274,-1.6917 Z" stroke-linecap="round" fill="#f2f2f2"/></g></g><g transform="matrix(1, 0, 0, 1, 504.9294, 1820.3974)" opacity="1"><g transform="scale(1)"><path d="M0.648,-1.9428 T4.1611,-0.7904 10.8916,2.2212 17.3028,6.2217 23.7317,10.659 30.5714,15.3019 38.3725,20.0363 47.1736,25.2849 56.4774,30.799 65.9809,36.0352 74.864,40.7805 82.9995,44.8572 91.6244,48.9131 96.1928,51.0547 A1.7688,1.7688 0 0 1 94.7072,54.2653 T90.1176,52.1695 81.365,48.1847 73.0707,44.1942 64.0702,39.5375 54.4034,34.3199 45.0572,28.8563 36.1956,23.6138 28.2073,18.7807 21.3405,14.1274 15.0534,9.7926 9.147,6.0153 2.844,3.1271 -0.648,1.9428 A2.048,2.048 0 0 1 0.648,-1.9428 Z" stroke-linecap="round" fill="#f2f2f2"/></g></g><g transform="matrix(1, 0, 0, 1, 578.9877, 1810.5229)" opacity="1"><g transform="scale(1)"><path d="M0.8409,-1.922 T7.0859,0.7631 18.6699,6.4818 29.5758,13.4961 40.3819,21.5283 49.5552,28.9104 57.8416,35.9113 62.1937,39.5815 A2.0319,2.0319 0 0 1 59.5863,42.6985 T55.2051,39.063 46.9198,32.2011 37.806,25.0086 27.2039,17.1965 16.6944,10.4001 5.3681,4.6859 -0.8409,1.922 A2.0979,2.0979 0 0 1 0.8409,-1.922 Z" stroke-linecap="round" fill="#f2f2f2"/></g></g><g transform="matrix(1, 0, 0, 1, 259.7142, 1680.5095)" opacity="1"><g transform="scale(1)"><path d="M-2.141,-0.7142 T-0.9694,-4.2156 1.1963,-10.7337 3.0928,-16.5133 4.8641,-21.5713 6.5449,-26.1923 8.6059,-31.0765 11.3347,-35.8461 14.3793,-40.0166 17.4556,-44.0906 20.5351,-48.4963 23.6974,-53.1706 27.3083,-58.4153 31.6109,-64.0264 36.2671,-69.3986 41.5132,-74.6604 47.0871,-79.4806 52.7395,-83.9699 58.9118,-88.3567 65.3817,-92.3132 72.2406,-96.323 80.2458,-100.45 88.8522,-104.248 97.6619,-107.7993 107.021,-111.2442 116.3134,-114.2535 125.6103,-116.6628 135.6273,-118.7339 145.9619,-120.6162 156.4637,-122.3955 167.5839,-123.7487 178.6113,-124.4929 189.481,-124.8985 200.6639,-125.1241 212.0048,-125.2604 223.4305,-125.3503 235.0246,-125.0186 246.7074,-124.0589 258.1902,-123.1671 268.5684,-122.3064 280.0511,-120.6693 293.4394,-118.6442 307.1305,-116.3995 321.0622,-113.6414 333.084,-111.0213 344.5647,-108.0599 358.8739,-103.757 374.2091,-98.7655 388.8119,-94.2195 401.2534,-90.2381 413.7249,-85.783 427.2018,-81.1294 438.9746,-77.0836 449.8295,-73.3429 459.4959,-69.6922 467.28,-66.4747 473.2846,-63.9207 478.7736,-61.4942 481.6449,-60.2348 A2.8495,2.8495 0 0 1 479.4751,-54.9652 T476.5496,-56.0927 471.039,-58.1952 464.9301,-60.3676 457.1152,-63.1656 447.5214,-66.5047 436.6031,-70.1125 424.7776,-74.0962 411.2025,-78.7731 398.9356,-83.1641 386.5952,-87.1099 371.9,-91.7004 356.7452,-96.6588 342.7365,-100.8967 331.5018,-103.8022 319.6273,-106.3998 305.9416,-109.1087 292.3316,-111.332 279.0281,-113.3514 267.9282,-114.9551 257.6153,-115.8189 246.0902,-116.7274 234.794,-117.7032 223.4637,-118.0912 212.069,-118.0748 200.7866,-118.0092 189.72,-117.8519 179.0497,-117.5308 168.4025,-116.8961 157.5928,-115.6329 147.1611,-113.9193 136.9807,-112.1265 127.2772,-110.1771 118.3519,-107.9101 109.3125,-104.9988 100.1315,-101.6432 91.4873,-98.2049 83.2285,-94.6459 75.477,-90.7182 68.6822,-86.8308 62.5363,-83.1887 56.5903,-79.0628 51.0683,-74.7857 45.7779,-70.358 40.7481,-65.4582 36.2452,-60.4072 32.0267,-55.0986 28.3271,-49.9623 25.0044,-45.278 21.6839,-40.7929 18.5309,-36.8641 15.6699,-33.2357 13.0984,-29.1124 11.0077,-24.5086 9.2442,-19.9845 7.4329,-15.0671 5.484,-9.3048 3.306,-2.7895 2.141,0.7142 A2.257,2.257 0 0 1 -2.141,-0.7142 Z" stroke-linecap="round" fill="#f2f2f2"/></g></g><g transform="matrix(1, 0, 0, 1, 559.2389, 1808.8772)" opacity="1"><g transform="scale(1)"><path d="M2.3848,-1.7904 T3.5168,-0.2348 4.9509,1.4487 5.253,1.5767 A2.9325,2.9325 0 0 1 1.8831,6.3769 T0.9538,5.6404 -1.1802,3.3472 -2.3848,1.7904 A2.982,2.982 0 0 1 2.3848,-1.7904 ZM2.088,1.4452 T2.7611,1.1629 4.5586,-1.2535 6.8684,-5.3412 8.9471,-9.3009 11.6642,-13.8808 15.5318,-19.2466 19.8753,-24.7671 24.5554,-30.1046 29.357,-35.2571 34.1382,-40.6126 38.9863,-46.1614 44.349,-51.9042 50.2913,-58.0484 56.0752,-64.3142 62.3096,-70.799 68.7831,-77.0209 74.8442,-82.9543 81.2256,-88.8815 87.7817,-94.4187 94.3445,-99.6833 100.9109,-104.8052 107.1174,-109.4801 112.6322,-113.825 118.3571,-118.1251 124.7014,-122.0946 130.8498,-125.3829 136.9853,-127.9564 142.9747,-130.0882 148.6278,-131.6303 154.5989,-132.4916 160.2577,-133.2781 165.5535,-134.0583 170.9221,-134.4415 175.6951,-134.5757 179.9178,-134.9026 184.5516,-135.5713 187.1121,-135.9483 A2.6947,2.6947 0 0 1 188.1079,-130.6517 T185.5853,-130.073 180.5737,-128.9283 176.002,-128.2416 171.465,-127.9247 166.5543,-127.4518 161.2123,-126.6076 155.5532,-125.7927 150.3877,-125.096 145.2484,-123.682 139.6176,-121.6762 134.0429,-119.3516 128.3105,-116.2984 122.4499,-112.6685 116.8363,-108.4633 111.1755,-104.0468 105.0345,-99.4833 98.5108,-94.4617 92.055,-89.3374 85.7196,-84.0289 79.4594,-78.2347 73.3533,-72.2659 67.0786,-66.2425 60.9345,-59.8311 55.0411,-53.4465 49.1651,-47.3975 43.9226,-41.8239 38.9957,-36.2391 34.087,-30.8078 29.3603,-25.8315 24.8278,-20.8079 20.5489,-15.5357 16.9138,-10.7615 14.2618,-6.4398 12.0582,-2.3762 9.5,1.9619 6.5504,5.519 5.048,6.5085 A2.9325,2.9325 0 0 1 2.088,1.4452 Z" stroke-linecap="round" fill="#f2f2f2"/></g></g><g transform="matrix(1, 0, 0, 1, 814.3285, 1599.8682)" opacity="1"><g transform="scale(1)"><path d="M2.5202,-1.6784 T3.3136,-0.5087 5.103,3.1294 7.0142,8.8192 8.4476,15.8279 9.2409,23.1421 10.0519,32.3317 10.8653,43.403 11.2774,53.2167 11.3002,61.1154 11.1328,68.479 11.0773,72.3489 A2.8479,2.8479 0 0 1 5.3827,72.4711 T5.1612,68.6071 4.6791,61.2954 4.2704,53.5059 3.8637,43.8904 3.1235,32.8675 2.4673,23.7646 1.9576,17.0474 0.3138,8.8481 -1.7575,2.8453 -2.5202,1.6784 A3.0279,3.0279 0 0 1 2.5202,-1.6784 Z" stroke-linecap="round" fill="#f2f2f2"/></g></g><g transform="matrix(1, 0, 0, 1, 842.3061, 1588.348)" opacity="1"><g transform="scale(1)"><path d="M2.2726,-0.4542 T3.0574,3.4377 4.3105,11.4323 5.4226,19.9304 6.4379,29.4783 7.0046,39.6734 7.6806,48.8048 8.4208,56.7216 8.8102,63.3377 8.9576,68.3838 9.0041,73.1326 9.0334,75.6234 A2.4546,2.4546 0 0 1 4.1266,75.7766 T4.0005,73.2888 3.752,68.5906 3.4951,63.6422 3.1175,57.1992 2.4021,49.1943 1.7882,39.9255 1.379,29.9789 0.5426,20.5146 -0.3781,12.1347 -1.5012,4.3479 -2.2726,0.4542 A2.3175,2.3175 0 0 1 2.2726,-0.4542 Z" stroke-linecap="round" fill="#f2f2f2"/></g></g><g transform="matrix(1, 0, 0, 1, 847.2433, 1644.3032)" opacity="1"><g transform="scale(1)"><path d="M-0.4449,2.6612 T-2.7847,2.3045 -8.3356,2.0687 -14.1802,3.2962 -18.5381,5.1423 -20.2624,5.8818 A2.8264,2.8264 0 0 1 -22.5176,0.6982 T-20.8011,-0.0593 -15.7228,-2.1312 -8.2867,-3.4772 -1.8838,-3.085 0.4449,-2.6612 A2.6982,2.6982 0 0 1 -0.4449,2.6612 Z" stroke-linecap="round" fill="#f2f2f2"/></g></g><g transform="matrix(1, 0, 0, 1, 862.055, 1639.366)" opacity="1"><g transform="scale(1)"><path d="M0.6625,-2.6418 T2.3278,-2.1442 5.7479,0.0694 10.0507,5.682 13.7191,11.6827 16.1984,15.9672 19.3624,20.1679 21.767,22.4083 22.3662,22.6285 A3.0265,3.0265 0 0 1 19.7006,28.063 T17.2969,26.2705 13.7612,22.7705 11.2892,18.6797 8.9017,14.1746 6.7504,9.7781 3.9391,5.3554 0.7846,2.9247 -0.6625,2.6418 A2.7236,2.7236 0 0 1 0.6625,-2.6418 ZM19.8254,22.5708 T21.0352,22.0304 23.5025,19.3257 26.4105,13.2621 28.9796,7.243 30.8232,3.2176 33.2528,-0.3585 36.1711,-3.5083 37.585,-4.9874 A2.559,2.559 0 0 1 41.415,-1.5926 T40.1165,-0.0114 37.1464,4.4804 34.7117,9.4059 32.1166,15.7944 29.0784,22.2232 26.3522,25.6493 23.5368,27.5705 22.2414,28.1208 A3.0265,3.0265 0 0 1 19.8254,22.5708 Z" stroke-linecap="round" fill="#f2f2f2"/></g></g><g transform="matrix(1, 0, 0, 1, 916.3644, 1647.5947)" opacity="1"><g transform="scale(1)"><path d="M-1.763,-1.763 T-0.1935,-3.3036 3.0081,-7.36 4.4059,-11.715 4.1716,-13.5543 A2.4477,2.4477 0 0 1 7.9374,-16.6822 T8.8965,-13.919 8.6676,-7.9989 6.1641,-3.1113 3.3058,0.1913 1.763,1.763 A2.4933,2.4933 0 0 1 -1.763,-1.763 ZM7.4645,-13.1175 T6.8491,-12.6993 5.5026,-9.5308 4.9496,-3.6648 6.0941,1.2405 9.0555,2.9958 12.5871,1.4764 15.4127,-2.117 18.7961,-5.5569 24.2478,-5.4634 29.942,-2.4351 34.6322,0.2139 38.6355,1.7764 40.2854,2.2934 A2.7607,2.7607 0 0 1 38.7146,7.5866 T35.2175,6.553 29.2677,3.7661 24.0284,0.0309 20.2206,-0.1669 17.4236,3.6966 13.9984,6.9427 8.8114,8.0195 3.2758,5.9699 0.3751,0.4163 -0.3309,-5.3978 0.2914,-9.7073 1.9886,-13.9547 3.9523,-16.6156 4.6445,-17.119 A2.4477,2.4477 0 0 1 7.4645,-13.1175 Z" stroke-linecap="round" fill="#f2f2f2"/></g></g><g transform="matrix(1, 0, 0, 1, 1005.2344, 1636.0745)" opacity="1"><g transform="scale(1)"><path d="M-1.5618,-3.1236 T-0.0044,-3.8993 5.5375,-6.7052 12.0492,-9.8183 16.36,-12.0921 19.853,-14.6548 23.2148,-18.2819 24.608,-21.4398 24.3486,-22.3423 A3.4343,3.4343 0 0 1 26.3474,-28.9136 T28.0999,-28.1641 31.0594,-24.0737 30.7858,-17.3095 27.6966,-12.1082 24.0681,-8.7564 19.7085,-5.7375 15.0337,-3.3348 8.6851,-0.4074 3.1168,2.3431 1.5618,3.1236 A3.4923,3.4923 0 0 1 -1.5618,-3.1236 ZM27.2274,-22.7536 T26.4152,-22.3668 25.3548,-19.877 25.5596,-14.9385 27.9031,-9.3475 32.9219,-5.4644 39.4364,-5.7849 44.3002,-9.0199 47.0714,-12.5633 49.1547,-17.8299 50.2297,-24.2104 52.0107,-30.3119 55.5167,-34.7874 59.9389,-36.624 67.034,-37.1385 73.8338,-36.4322 78.3814,-35.0042 83.5758,-33.3332 86.3393,-32.4618 A2.9415,2.9415 0 0 1 84.8207,-26.7782 T81.9908,-27.4014 75.0679,-29.0024 68.7333,-30.2059 63.6859,-29.9898 59.2451,-27.9906 57.2516,-23.3286 56.3528,-17.3433 54.8249,-12.3322 52.2506,-8.1893 48.1573,-3.7648 42.9903,-0.2266 37.4601,1.3206 32.3483,1.0281 26.4548,-2.7183 21.5072,-7.8892 19.4042,-12.6339 18.9995,-18.8393 20.3751,-24.6326 22.4086,-27.665 23.4685,-28.5024 A3.4343,3.4343 0 0 1 27.2274,-22.7536 Z" stroke-linecap="round" fill="#f2f2f2"/></g></g><g transform="matrix(1, 0, 0, 1, 848.8891, 1754.5678)" opacity="1"><g transform="scale(1)"><path d="M-1.0041,3.0063 T-1.9808,2.6209 -5.2932,3.7424 -9.4765,7.3636 -11.6866,11.4379 -12.0862,16.1317 -9.6743,19.6176 -5.4262,18.6954 -2.382,13.967 -0.5454,7.9655 0.0024,3.8484 -0.0412,2.6788 A2.6971,2.6971 0 0 1 4.8032,0.3063 T5.2612,1.5863 5.4453,6.1272 4.0001,13.0549 1.7676,19.0848 -0.8064,22.8589 -4.1342,25.4468 -9.9298,26.2962 -16.2234,22.8908 -18.4446,15.8753 -17.5853,9.022 -13.9331,2.9597 -8.9758,-1.4242 -4.3095,-3.2288 -0.3558,-3.4013 1.0041,-3.0063 A3.1696,3.1696 0 0 1 -1.0041,3.0063 ZM2.9489,4.1292 T2.7757,4.165 2.6025,4.2008 A2.6942,2.6942 0 0 1 1.4679,-1.0667 T1.6405,-1.1054 1.8131,-1.1441 A2.6971,2.6971 0 0 1 2.9489,4.1292 ZM4.712,1.8727 T4.6178,2.6475 5.4014,6.5137 6.6166,11.5651 8.2424,16.2518 12.1059,20.8357 14.6807,22.6929 A2.5042,2.5042 0 0 1 11.6593,26.6871 T10.0371,25.524 6.0783,21.5742 2.4026,14.9349 0.4836,8.9906 -0.4568,4.9006 -0.7295,2.082 -0.6415,1.2613 A2.6942,2.6942 0 0 1 4.712,1.8727 Z" stroke-linecap="round" fill="#f2f2f2"/></g></g><g transform="matrix(1, 0, 0, 1, 880.1581, 1775.9624)" opacity="1"><g transform="scale(1)"><path d="M0,-2.807 T1.1683,-2.8161 2.3366,-2.8251 A2.8251,2.8251 0 0 1 2.3366,2.8251 T1.1683,2.8161 0,2.807 A2.807,2.807 0 0 1 0,-2.807 ZM-0.3769,-0.7863 T-0.163,-1.566 -0.235,-4.4842 -1.7338,-9.7138 -4.1347,-15.8529 -5.8067,-20.6885 -6.291,-22.4762 A2.9494,2.9494 0 0 1 -0.6227,-24.1094 T-0.06,-22.2634 1.604,-17.6258 3.9877,-11.2183 5.3973,-4.1846 5.2872,0.0098 5.0501,0.7863 A2.8251,2.8251 0 0 1 -0.3769,-0.7863 ZM-4.5621,-26.0273 T-3.553,-26.3429 0.643,-25.8729 6.9041,-23.4544 11.3341,-20.9517 12.69,-20.0817 A2.3013,2.3013 0 0 1 10.35,-16.1183 T7.827,-17.4842 2.1022,-20.0494 -1.7256,-20.9035 -2.3516,-20.5583 A2.9494,2.9494 0 0 1 -4.5621,-26.0273 Z" stroke-linecap="round" fill="#f2f2f2"/></g></g><g transform="matrix(1, 0, 0, 1, 908.1357, 1766.0879)" opacity="1"><g transform="scale(1)"><path d="M-1.5245,-2.5398 T0.4416,-3.673 4.0751,-6.092 7.6,-10.2663 10.7188,-16.4244 12.0872,-21.1401 12.1944,-22.5862 A3.0445,3.0445 0 0 1 18.242,-21.8782 T17.9299,-19.7427 16.0399,-13.8952 11.8603,-6.5269 7.3181,-1.3688 3.4512,1.3364 1.5245,2.5398 A2.9622,2.9622 0 0 1 -1.5245,-2.5398 ZM17.9471,-20.8825 T17.4016,-19.8059 15.4953,-15.2728 13.2446,-8.5233 12.3008,-2.2794 14.4743,2.5073 18.9538,4.1517 21.2059,3.9601 A2.6264,2.6264 0 0 1 21.5741,9.1999 T18.3543,9.3928 12.8543,8.7355 8.5327,4.6711 6.2637,-0.7045 6.3793,-4.8805 7.2874,-8.8093 8.9538,-13.8153 10.7472,-19.1566 11.9643,-22.494 12.4893,-23.5819 A3.0445,3.0445 0 0 1 17.9471,-20.8825 Z" stroke-linecap="round" fill="#f2f2f2"/></g></g><g transform="matrix(1, 0, 0, 1, 954.2164, 1746.3391)" opacity="1"><g transform="scale(1)"><path d="M-2.9253,-0.7336 T-2.5253,-2.2128 -2.3217,-3.8927 -2.5181,-4.0932 A3.0027,3.0027 0 0 1 3.3407,-5.4119 T3.5135,-3.9722 3.3058,-0.8995 2.9253,0.7336 A3.0159,3.0159 0 0 1 -2.9253,-0.7336 ZM2.9123,-3.0909 T2.4351,-2.3568 1.2051,1.0154 0.2152,6.3167 0.2084,11.5752 1.6872,15.0346 2.9357,15.8986 A3.0444,3.0444 0 0 1 -0.3649,21.0151 T-1.5762,20.179 -4.0689,17.68 -5.744,12.2667 -5.8278,5.4515 -4.3016,-1.2803 -2.5875,-5.6808 -2.0897,-6.4142 A3.0027,3.0027 0 0 1 2.9123,-3.0909 ZM0.2111,15.6084 T1.3617,15.2348 3.8964,12.247 6.0329,6.5427 7.1467,0.7758 7.508,-1.901 A2.3753,2.3753 0 0 1 12.232,-1.399 T12.1143,0.0495 11.6555,4.7381 10.7894,10.0203 9.2494,14.2335 6.6508,18.2839 3.7135,20.7344 2.3597,21.3054 A3.0444,3.0444 0 0 1 0.2111,15.6084 ZM12.2445,-1.5897 T12.2097,-0.7701 13.0957,2.9352 15.0703,7.5901 17.8627,11.6665 21.8393,14.9395 24.0773,15.9051 A2.4277,2.4277 0 0 1 22.0027,20.2949 T18.9488,18.7595 13.9084,14.4992 10.1677,8.2453 7.9443,2.4518 7.4853,-0.7615 7.4955,-1.7103 A2.3753,2.3753 0 0 1 12.2445,-1.5897 Z" stroke-linecap="round" fill="#f2f2f2"/></g></g><g transform="matrix(1, 0, 0, 1, 982.194, 1693.6754)" opacity="1"><g transform="scale(1)"><path d="M2.1463,-1.0724 T3.7046,2.043 6.1511,7.7259 7.8941,13.1725 9.2722,19.2596 10.4986,27.5934 11.6024,36.2216 12.5976,43.8251 13.5261,50.9451 14.3499,56.1239 15.0965,60.434 15.6232,64.8377 15.8932,67.0912 A2.7508,2.7508 0 0 1 10.4468,67.8688 T9.7565,63.7477 8.4638,57.097 7.6037,51.6408 6.8177,44.4863 6.0406,36.8151 5.2624,28.2796 4.3894,20.2989 3.2558,14.627 1.7137,9.572 -0.5923,4.1864 -2.1463,1.0724 A2.3993,2.3993 0 0 1 2.1463,-1.0724 Z" stroke-linecap="round" fill="#f2f2f2"/></g></g><g transform="matrix(1, 0, 0, 1, 1006.8801, 1749.6305)" opacity="1"><g transform="scale(1)"><path d="M1.0593,-2.6498 T2.9831,-1.8169 6.9101,-0.372 10.9101,-2.5968 14.1579,-8.5079 15.9379,-15.0979 16.5993,-20.0784 16.7317,-21.543 A2.7843,2.7843 0 0 1 22.286,-21.1429 T22.2021,-19.6034 21.9043,-15.7865 21.2433,-11.5103 19.2436,-5.9318 16.1398,-0.1028 11.828,3.7617 5.9731,4.7366 0.9097,3.3731 -1.0593,2.6498 A2.8537,2.8537 0 0 1 1.0593,-2.6498 ZM20.5731,-18.77 T20.0702,-18.785 19.0741,-15.7478 18.3022,-10.4824 18.2559,-6.1284 18.6148,-1.8917 20.3369,3.0706 24.2937,7.0808 29.6787,5.4231 34.8705,-0.2522 39.3014,-7.9731 43.2231,-16.6231 46.5123,-26.5423 49.0266,-37.8101 50.3668,-49.1312 51.0771,-59.7548 51.0609,-68.3758 50.6421,-75.2059 49.8293,-79.3585 49.1648,-80.8479 A2.4555,2.4555 0 0 1 52.397,-84.5453 T53.3508,-83.484 54.8745,-80.2849 55.5736,-75.4951 55.9587,-68.3964 55.9871,-59.4457 55.301,-48.5469 53.9914,-36.7549 51.4779,-24.8438 48.1793,-14.4124 44.0344,-5.1257 39.0732,3.4626 34.1326,8.9736 29.0072,12.3637 24.3162,12.9767 20.0683,10.8799 16.2484,7.0312 14.1205,2.6631 13.494,-1.4752 13.1249,-6.1752 13.178,-11.3921 13.9846,-16.1742 15.1787,-20.4171 17.1542,-23.1591 18.4447,-23.9159 A2.7843,2.7843 0 0 1 20.5731,-18.77 ZM53.075,-81.821 T52.7364,-80.9662 52.2662,-77.6578 52.029,-72.9783 51.8657,-66.4862 52.167,-58.1197 52.7332,-49.4146 53.4312,-41.7618 54.2142,-34.5995 55.0389,-26.9115 56.2173,-19.9012 57.2153,-14.1811 57.0246,-8.2764 56.4816,-4.6554 A2.1902,2.1902 0 0 1 52.1384,-5.2246 T52.4616,-8.2121 52.4336,-13.3751 51.3932,-19.0952 50.1845,-26.4064 49.4416,-34.0823 48.7309,-41.3001 48.0665,-49.1135 47.5196,-57.9446 47.1896,-66.6081 47.3093,-73.224 47.6092,-78.6437 48.158,-82.6786 48.4868,-83.5722 A2.4555,2.4555 0 0 1 53.075,-81.821 Z" stroke-linecap="round" fill="#f2f2f2"/></g></g><g transform="matrix(1, 0, 0, 1, 1041.4406, 1698.6126)" opacity="1"><g transform="scale(1)"><path d="M1.7148,-1.7148 T2.885,-0.5519 6.78,2.3089 12.1023,5.6497 16.8892,8.2684 19.0786,9.2444 A2.4772,2.4772 0 0 1 17.1214,13.7956 T14.907,12.8778 9.7433,10.1584 3.706,6.2097 -0.5484,2.8886 -1.7148,1.7148 A2.425,2.425 0 0 1 1.7148,-1.7148 Z" stroke-linecap="round" fill="#f2f2f2"/></g></g><g transform="matrix(1, 0, 0, 1, 1087.5214, 1665.6978)" opacity="1"><g transform="scale(1)"><path d="M-0.823,-2.8817 T1.9162,-3.613 7.4425,-4.7924 12.3453,-5.0893 18.0881,-4.4053 24.5188,-2.3534 29.3716,0.9065 32.5522,5.5887 33.4532,11.4511 31.7653,17.3324 29.018,21.8302 24.9292,26.2821 19.4162,31.7097 15.1261,36.8393 13.4877,41.9948 14.8433,46.7538 18.8171,50.8472 24.1958,54.6293 28.5812,58.4928 30.9312,61.4079 31.7185,62.3685 A2.7722,2.7722 0 0 1 27.5215,65.9915 T25.5008,63.6101 20.6822,59.3919 16.2138,56.306 12.4853,52.3187 9.3501,47.8184 8.1883,42.875 9.2199,37.0222 11.5736,32.583 15.5614,28.1622 20.8688,22.6717 24.9679,17.6547 27.1328,12.7189 26.6685,7.7868 23.8718,4.2984 19.7914,2.0412 14.2526,0.7924 8.6636,0.86 3.5327,2.0568 0.823,2.8817 A2.997,2.997 0 0 1 -0.823,-2.8817 Z" stroke-linecap="round" fill="#f2f2f2"/></g></g><g transform="matrix(1, 0, 0, 1, 1108.916, 1749.6305)" opacity="1"><g transform="scale(1)"><path d="M0.5345,-2.1314 T3.8528,-1.4192 7.171,-0.707 A2.43,2.43 0 0 1 5.989,4.007 T2.7272,3.0692 -0.5345,2.1314 A2.1974,2.1974 0 0 1 0.5345,-2.1314 Z" stroke-linecap="round" fill="#f2f2f2"/></g></g></svg>