<svg xmlns="http://www.w3.org/2000/svg" direction="ltr" width="799.7569891610365" height="626.1880687603589" viewBox="2688.506803747215 26536.17470646955 799.7569891610365 626.1880687603589" stroke-linecap="round" stroke-linejoin="round" style="background-color: transparent;"><defs/><g transform="matrix(1, 0, 0, 1, 2722.1881, 27045.6547)" opacity="1"><g transform="scale(1)"><path d="M-1.1045,-0.8272 T0.0945,-2.4196 2.4338,-4.9648 6.0188,-8.6777 10.6413,-13.3855 14.2648,-17.0617 17.3843,-20.2182 20.1996,-23.0615 22.4027,-25.6873 24.3492,-28.2462 26.158,-30.7929 29.3378,-34.0657 32.8762,-37.7876 35.6944,-41.454 39.457,-45.6769 43.5323,-49.9109 47.2552,-53.4853 50.7967,-56.6126 54.1374,-59.855 57.4905,-63.1923 60.8478,-66.5551 63.88,-69.18 67.1463,-71.7401 70.8032,-75.0229 73.914,-77.6218 77.0933,-80.456 80.3363,-83.5469 83.7704,-86.559 87.179,-89.3316 89.4979,-91.3913 91.3967,-93.5757 93.7006,-96.0236 96.111,-98.5111 98.569,-101.0157 100.9682,-103.83 103.0146,-106.4965 105.7736,-109.6105 108.8233,-112.8549 111.611,-115.7489 114.2699,-118.4724 116.861,-121.101 119.4175,-123.6806 121.9568,-126.2341 124.3997,-129.0702 126.47,-131.7478 128.8463,-134.4617 131.6999,-137.4957 134.7904,-140.6801 138.006,-143.9493 140.8047,-147.1742 143.5581,-150.1641 146.6737,-153.0267 149.8153,-156.0355 152.6693,-158.818 155.3631,-161.4751 157.8845,-164.3648 160.5006,-167.187 163.5508,-169.9681 166.1687,-172.8237 168.8425,-175.618 171.4322,-178.2821 173.9926,-180.8869 176.5331,-183.4519 179.0676,-185.9974 181.5929,-188.53 184.1195,-191.0609 187.2531,-193.3841 189.8817,-195.6032 192.4582,-197.9756 195.0119,-200.4096 197.5504,-202.8907 200.5716,-205.4942 203.2506,-207.965 205.8617,-210.4634 208.927,-213.0579 211.6301,-215.5193 214.1413,-218.3215 216.7613,-221.0901 219.3353,-223.7398 221.8869,-226.3315 224.5435,-228.5984 228.4881,-231.85 232.0368,-235.0547 235.5809,-238.0891 239.9008,-242.2565 243.247,-245.5442 245.6094,-247.7734 247.5118,-250.0268 250.3081,-253.0497 253.7043,-256.9578 256.1835,-260.0859 259.356,-263.2738 263.5537,-266.995 267.0789,-270.5716 269.5912,-273.5989 272.2342,-276.624 275.7664,-280.574 279.0893,-284.6211 282.3414,-288.4956 285.7544,-292.0988 288.5765,-295.3148 291.2707,-298.1403 294.4887,-301.2655 298.1598,-305.1148 301.4152,-308.8389 304.2939,-312.2587 307.5928,-315.7231 310.2222,-319.0041 312.7804,-322.3657 316.0137,-325.8518 318.8869,-328.8079 321.0367,-331.3751 322.9476,-333.9115 325.75,-337.1332 329.2844,-340.9125 332.693,-344.3997 336.6278,-347.9365 340.6671,-351.8842 343.9229,-355.1133 347.7886,-358.5828 351.129,-362.1356 353.4832,-364.8965 356.0353,-367.6819 358.5646,-370.3447 361.0888,-372.9499 364.6891,-376.184 369.5707,-380.5944 374.0093,-384.7389 377.3279,-387.7993 379.577,-390.3666 382.0955,-393.0584 385.1284,-395.8097 387.785,-398.3213 390.9208,-401.3698 395.2074,-405.179 399.4349,-408.6781 402.7791,-411.2426 406.1402,-413.781 409.5023,-416.3099 412.8604,-418.8317 416.5011,-422.04 419.935,-425.3477 423.3181,-428.696 426.2373,-431.6125 428.5281,-433.8998 431.0953,-436.0331 434.5104,-439.3158 438.3564,-442.9077 441.9337,-445.7919 445.2446,-448.9074 448.6031,-452.197 452.3605,-455.9367 455.4845,-459.0616 457.8793,-461.4649 460.3303,-463.9311 463.1892,-467.1761 466.4247,-470.6238 469.7595,-473.8466 472.7626,-477.3194 473.912,-478.8853 A2.562,2.562 0 0 1 477.8443,-475.6001 T477.198,-474.8328 474.7848,-472.2631 471.069,-468.4028 467.0817,-463.8899 463.9303,-460.3305 461.4632,-457.8796 459.0585,-455.4851 456.7676,-453.2013 453.8433,-450.2855 450.4655,-446.923 447.0401,-443.5787 443.4004,-440.3178 439.9013,-437.3166 436.9719,-434.4054 434.445,-432.0754 432.2108,-430.2043 429.077,-427.0779 425.2838,-423.3129 421.8156,-419.9166 418.0881,-416.4556 414.9465,-413.7973 411.5877,-411.2774 408.2325,-408.7574 404.9036,-406.2355 400.5149,-402.993 396.4389,-399.5563 393.5579,-396.7398 391.3092,-394.5846 388.5396,-391.9856 385.7996,-389.5717 383.3952,-386.9952 379.8077,-383.1592 376.2776,-379.937 373.9152,-378.038 371.398,-375.6554 367.9238,-372.3937 364.6415,-369.4738 362.1308,-366.9304 359.6298,-364.3473 357.1603,-361.7108 354.5094,-358.7162 352.0099,-356.2665 349.5262,-353.8735 346.1843,-350.5783 342.844,-347.3246 339.6412,-344.3385 336.0387,-341.0996 332.6631,-337.6752 329.2461,-334.071 326.6114,-331.0962 324.5364,-328.4158 321.3179,-324.7781 317.7063,-321.0849 314.9307,-317.9891 312.2495,-314.5825 309.168,-310.9684 306.1062,-307.6671 302.7554,-304.118 299.2273,-300.521 295.8368,-296.8272 293.1442,-293.6613 290.5318,-290.8114 287.1836,-287.3944 283.9099,-283.8346 280.6281,-280.2079 277.1871,-276.1492 273.781,-271.9677 271.1411,-268.6597 268.23,-265.5062 264.1419,-262.0937 260.3471,-258.5303 257.7669,-255.2298 255.0696,-252.0705 251.4971,-248.3036 248.3888,-244.8345 245.0051,-241.4971 241.6021,-238.1869 238.1196,-234.9794 234.7763,-232.1272 232.193,-229.722 229.5709,-227.4383 227.1169,-225.5822 224.7118,-223.5414 222.1822,-220.9749 219.6381,-218.3603 217.0787,-215.6633 214.2946,-212.6268 211.4729,-210.0496 208.5786,-207.6067 205.9125,-205.07 203.1103,-202.5102 200.2634,-200.1005 197.6983,-197.6014 195.0913,-195.1088 192.3988,-192.6566 189.562,-190.2441 186.8572,-188.3113 184.3366,-185.7911 181.8083,-183.2627 179.2772,-180.7281 176.7378,-178.1772 174.1917,-175.5979 171.6152,-172.9576 169.0095,-170.2191 166.1328,-167.0996 163.2894,-164.5743 160.7626,-161.8509 158.0488,-158.7503 155.3323,-156.0809 152.4434,-153.2796 149.2204,-150.2167 146.2991,-147.5986 143.6289,-144.7209 140.6598,-141.3356 137.4541,-138.0931 134.4005,-134.9529 131.636,-132.0259 129.3832,-129.4692 127.1931,-126.6692 124.5674,-123.6349 122.0215,-121.0895 119.4611,-118.5263 116.8664,-115.9198 114.2085,-113.2331 111.431,-110.3847 108.4533,-107.2563 105.8153,-104.3181 103.6523,-101.5408 101.0795,-98.5488 98.6266,-96.067 95.2969,-92.5868 91.7963,-88.8132 88.3485,-85.7107 85.0429,-83.0364 82.7634,-81.1572 79.384,-77.9941 75.1462,-74.1468 71.2198,-70.8334 67.0931,-67.4947 63.1832,-64.2058 59.8064,-60.8604 56.4149,-57.52 52.9731,-54.2208 49.5692,-51.2967 45.7607,-47.6972 41.7283,-43.5767 38.9459,-40.4202 36.5566,-37.428 33.0974,-33.9307 29.4099,-30.0175 26.6728,-26.4587 24.618,-23.7982 22.2444,-21.0437 19.3908,-18.2015 16.2769,-15.0928 12.6051,-11.4134 7.0015,-5.9711 2.2894,-0.7637 1.1045,0.8272 A1.3799,1.3799 0 0 1 -1.1045,-0.8272 ZM475.6934,-479.798 T476.4704,-479.8422 478.1131,-479.9368 478.9787,-479.9872 A2.5138,2.5138 0 0 1 479.3413,-474.9728 T478.4774,-474.8981 476.8382,-474.7554 476.0629,-474.6874 A2.562,2.562 0 0 1 475.6934,-479.798 Z" stroke-linecap="round" fill="#9398b0"/></g></g><g transform="matrix(1, 0, 0, 1, 2720.5068, 27043.9735)" opacity="1"><g transform="scale(1)"><path d="M-0.6568,-1.644 T1.3339,-2.4342 5.587,-4.0593 9.4965,-5.3544 12.8772,-6.0765 16.1169,-6.8385 19.413,-7.6563 22.9459,-8.1412 30.7441,-8.8286 40.7964,-9.6367 47.7026,-10.0884 53.1953,-10.7353 58.4848,-11.4978 63.406,-11.929 67.9936,-12.1697 72.1878,-12.6794 75.9743,-13.3543 79.7795,-13.7409 83.39,-13.9438 86.8821,-14.0508 90.0434,-14.4756 93.3007,-15.1112 96.8776,-15.4883 100.3586,-15.6858 103.7832,-15.794 107.1776,-15.8569 110.5582,-15.8964 113.9315,-15.924 117.2985,-15.9422 120.6622,-15.9578 124.424,-15.9774 128.3954,-15.9962 132.0846,-16.0084 135.9024,-15.5887 139.5051,-14.9837 142.7128,-14.7045 145.9866,-14.5535 149.3021,-14.4742 152.6446,-14.4332 156.6344,-13.9921 160.7353,-13.372 164.2559,-13.0749 167.9755,-12.4772 171.5234,-11.7753 174.7086,-11.4514 177.9606,-10.8037 182.3064,-9.9779 186.9025,-9.1744 190.6221,-8.465 194.2712,-8.1447 197.826,-7.9625 201.5784,-7.433 205.1457,-6.7684 208.3207,-6.4623 211.5768,-6.2969 214.8879,-6.2111 218.5335,-5.7311 222.4078,-5.0975 226.1346,-4.8058 229.7213,-4.6402 233.1958,-4.5525 236.6217,-4.5055 240.3264,-4.0493 244.2321,-3.4302 247.9766,-3.1448 251.5695,-2.9832 255.4399,-2.8982 259.4672,-2.8538 263.1832,-2.8338 267.1264,-2.8244 271.2001,-2.8165 275.2354,-2.3828 279.3201,-1.7719 283.174,-1.4876 286.8209,-1.3288 290.7172,-1.2453 294.7554,-1.2018 298.881,-1.1787 303.321,-0.7412 307.6275,-0.123 311.6173,0.1729 315.7194,0.3329 320.2592,0.4138 324.9154,0.881 329.3429,1.5109 333.4056,1.8091 337.7911,2.4002 342.4703,3.1024 346.6918,3.4425 351.2974,3.628 356.1021,3.7262 360.6339,3.7747 365.6369,4.2085 370.6581,4.8151 374.6923,5.1032 379.462,5.2788 384.3314,5.3645 389.3297,5.3851 394.3494,5.3966 397.8832,5.3966 401.7318,5.3851 405.3408,5.3719 409.8807,4.7564 415.0854,4.0187 419.5698,3.8284 423.899,3.7302 427.7646,3.6781 431.3961,3.6468 435.9906,3.6208 441.8324,2.9965 447.7099,2.1957 452.1596,1.9709 456.4238,1.9077 462.0759,1.2746 466.8035,0.5492 471.3504,0.3565 475.7832,0.2599 477.4138,0.2359 A3.1248,3.1248 0 0 1 477.5462,6.4841 T475.916,6.5291 471.6327,6.6812 467.4337,6.8914 464.4638,7.1678 461.1089,7.7897 456.5292,8.2603 452.3498,8.3088 448.2426,8.4859 444.2186,8.8068 440.8184,9.4199 436.0336,9.8634 431.4382,9.8682 427.8394,9.8862 424.0257,9.9276 419.8145,10.0069 415.6415,10.1534 412.242,10.4157 408.8332,11.0168 405.3611,11.4458 401.7286,11.4305 397.8769,11.4151 394.3381,11.4078 389.2946,11.3878 384.2536,11.3486 379.2157,11.2192 374.242,10.9867 369.9239,10.6194 365.128,9.9825 360.5586,9.5645 355.9827,9.5046 351.0446,9.3971 346.2189,9.1922 341.6002,8.7916 337.0442,8.0883 332.9618,7.5292 328.5045,7.1616 324.3044,6.5282 320.1377,6.1061 315.484,6.0073 311.1883,5.8265 306.7911,5.4758 302.7313,4.8668 298.8353,4.4836 294.6911,4.4572 290.5857,4.4068 286.5682,4.3121 282.738,4.1329 278.444,3.7756 274.6163,3.1692 271.1767,2.8009 267.1069,2.7948 263.1457,2.7776 259.4022,2.7472 255.3063,2.6959 251.3109,2.5993 247.5265,2.4164 243.3036,2.048 239.6392,1.4266 236.5278,1.0366 233.0511,0.9859 229.4593,0.8881 225.6777,0.7018 221.4635,0.3256 217.8087,-0.308 214.7157,-0.7247 211.2806,-0.8326 207.767,-1.0348 204.1276,-1.4262 200.8049,-2.0853 197.5235,-2.5594 193.763,-2.7738 189.5624,-3.2062 185.9353,-3.9249 182.8906,-4.497 178.5504,-5.3466 174.1171,-6.1876 170.4864,-6.5987 167.1319,-7.2916 163.7857,-7.8328 159.9389,-8.1889 156.1004,-8.8082 152.5642,-9.2111 149.1651,-9.2636 145.7287,-9.3618 142.2308,-9.5478 138.6205,-9.9079 135.3172,-10.516 132.0711,-10.8903 128.3967,-10.9015 124.4268,-10.9182 120.6679,-10.9338 117.3092,-10.9419 113.9516,-10.9458 110.5961,-10.9462 107.2491,-10.9342 103.9179,-10.8994 100.6122,-10.8221 97.3534,-10.6676 94.1816,-10.3769 90.6736,-9.7453 87.0289,-9.2734 83.6378,-9.1868 80.2275,-9.022 76.7511,-8.7113 72.7518,-8.0629 68.2037,-7.5694 63.7509,-7.4143 59.0656,-7.0945 53.6658,-6.4321 47.9313,-5.8829 41.0819,-5.5729 31.0638,-4.9355 23.4135,-4.3879 20.2683,-4.0373 16.9238,-3.2697 13.6031,-2.5401 10.5757,-1.9487 6.8491,-0.7515 2.644,0.845 0.6568,1.644 A1.7703,1.7703 0 0 1 -0.6568,-1.644 Z" stroke-linecap="round" fill="#9398b0"/></g></g><g transform="matrix(1, 0, 0, 1, 3196.3018, 26573.2222)" opacity="1"><g transform="scale(1)"><path d="M1.654,-0.2361 T2.4924,5.325 3.8001,15.8523 4.5281,24.2236 5.3145,30.0799 6.141,34.7539 6.6061,38.9569 6.8626,42.7841 7.0032,46.4011 7.4962,56.6182 8.1822,70.737 8.5621,80.596 8.7747,88.1864 8.8933,94.1805 8.9648,99.3323 9.0109,104.4347 9.0434,110.3052 9.0726,116.5798 9.1007,122.2723 9.1245,127.6586 9.1413,132.8835 9.1572,138.0211 9.5596,142.924 10.1777,148.3058 10.5216,154.1105 10.7046,159.9436 10.8028,166.2027 10.8559,172.2817 10.885,177.4728 10.9012,182.1959 10.91,186.6756 10.4994,191.2385 9.8914,196.0225 9.5908,200.7154 9.4279,205.5784 9.341,210.5263 9.295,215.5205 9.2708,220.5387 9.258,225.5673 9.2513,230.6037 9.252,235.6441 9.257,240.2871 9.2607,244.3256 9.2634,248.0455 9.2658,251.9924 9.2712,256.0614 9.2753,259.7975 9.275,263.3556 9.271,267.2174 9.2641,271.2451 8.8391,275.5805 8.218,279.8645 7.9117,283.4952 7.7469,287.3752 7.658,291.7973 7.6101,296.1241 7.5844,300.3941 7.5748,305.0269 7.5742,309.4581 7.5781,313.3852 7.5849,317.0438 7.5905,320.5612 7.5946,324.0022 7.9796,327.5662 8.5923,331.4201 8.9411,335.2738 9.1557,340.4364 9.2692,345.947 9.2973,350.5076 9.3128,355.2959 9.3215,360.2029 9.3305,365.1752 9.3401,369.7844 9.3462,373.8027 9.3507,377.9094 9.3501,382.46 9.3463,386.4474 9.3472,390.1404 9.3508,393.6782 9.3531,396.7346 9.3551,399.9347 9.3569,403.61 9.3584,407.5359 9.3564,411.1941 9.3511,415.1086 9.3473,418.7632 9.3445,422.2808 9.342,426.1212 9.3402,429.7343 9.3328,434.3386 8.886,439.0653 8.2618,442.4337 7.9156,446.5126 7.7195,450.6499 7.6664,453.793 7.6228,457.7123 7.146,461.7181 6.415,466.2378 5.9637,470.8324 5.7908,472.5998 A2.4367,2.4367 0 0 1 0.9292,472.2602 T1.0037,470.486 1.1958,467.0352 1.9075,462.6529 2.5035,457.6473 2.5185,453.7164 2.5595,450.4956 2.7641,446.077 3.5374,440.1925 4.1272,434.3193 4.1198,429.7343 4.118,426.1212 4.1155,422.2808 4.1127,418.7632 4.1088,415.1086 4.1036,411.1941 4.1016,407.5359 4.1031,403.61 4.1049,399.9347 4.1069,396.7347 4.1091,393.6783 4.1126,390.1405 4.1134,386.4476 4.1092,382.4603 4.1081,377.9101 4.1115,373.804 4.1157,369.7865 4.1214,365.179 4.1232,360.2103 4.118,355.3102 4.1074,350.5362 4.0859,346.0082 3.9884,340.6377 3.8024,335.7172 3.508,332.185 2.9004,328.0554 2.4865,324.0099 2.4917,320.5597 2.4993,317.0412 2.51,313.3805 2.5212,309.4504 2.5344,305.0126 2.5509,300.3644 2.5748,296.0706 2.621,291.6955 2.7108,287.1538 2.885,283.0718 3.222,279.1426 3.8215,275.1218 4.1959,271.2378 4.1891,267.2173 4.1851,263.3556 4.1849,259.7974 4.1891,256.0613 4.1949,251.9921 4.1978,248.0448 4.2015,244.3244 4.2072,240.2851 4.216,235.6405 4.2239,230.5969 4.2308,225.5544 4.244,220.5142 4.2689,215.4737 4.3162,210.4371 4.4064,205.4075 4.5794,200.3851 4.9163,195.376 5.5179,190.8064 5.8948,186.6767 5.8898,182.2098 5.8801,177.4961 5.8598,172.3198 5.8193,166.2744 5.7398,160.0912 5.5858,154.3862 5.29,148.8611 4.6943,143.3083 4.3016,138.0262 4.3164,132.8845 4.3311,127.6604 4.3508,122.2754 4.3712,116.5852 4.3859,110.3168 4.3909,104.4583 4.3849,99.3763 4.3573,94.2501 4.2879,88.2897 4.1438,80.744 3.8468,70.9292 3.2483,56.7722 2.821,46.5349 2.732,43.0218 2.5529,39.3598 2.1913,35.3923 1.4492,30.594 0.767,24.5075 0.216,16.2575 -0.9031,5.8095 -1.654,0.2361 A1.6708,1.6708 0 0 1 1.654,-0.2361 Z" stroke-linecap="round" fill="#9398b0"/></g></g><g transform="matrix(1, 0, 0, 1, 2806.2508, 27030.5234)" opacity="1"><g transform="scale(1)"><path d="M-0.2238,-0.4752 T0.1708,-2.0667 0.7515,-5.1795 1.0436,-8.2963 1.2034,-11.9187 1.2909,-15.7911 -1.8236,-25.4207 -7.3837,-37.3447 -11.7485,-43.5597 -15.1127,-46.8 -17.1453,-49.3883 -18.1562,-51.9731 -18.5461,-53.1347 A1.8592,1.8592 0 0 1 -15.0739,-54.4653 T-14.4224,-52.7121 -12.1824,-49.7383 -8.3618,-46.0659 -3.6169,-39.1642 2.0774,-26.1985 5.2313,-15.7585 5.1411,-11.7322 4.964,-7.9149 4.6165,-4.454 3.9838,-1.1165 3.5838,0.4752 A1.9622,1.9622 0 0 1 -0.2238,-0.4752 Z" stroke-linecap="round" fill="#9398b0"/></g></g><g transform="matrix(1, 0, 0, 1, 2824.7446, 26976.7233)" opacity="1"><g transform="scale(1)"><path d="M2.2102,-1.1051 T2.6158,-0.2975 3.3476,2.0841 3.3975,5.5248 2.5525,9.1191 1.7939,12.5396 2.9673,17.4529 5.5491,21.8662 8.5256,22.791 12.1011,21.357 13.9185,20.1908 A2.0626,2.0626 0 0 1 16.3415,23.5292 T14.3742,25.11 11.1325,27.342 8.2465,28.1416 4.8802,27.5685 1.2355,24.7843 -2.1651,18.257 -3.2873,11.4666 -2.3707,7.7661 -1.6372,4.5301 -1.8212,1.8868 -2.2102,1.1051 A2.4711,2.4711 0 0 1 2.2102,-1.1051 Z" stroke-linecap="round" fill="#9398b0"/></g></g><g transform="matrix(1, 0, 0, 1, 2829.7883, 26988.4921)" opacity="1"><g transform="scale(1)"><path d="M-1.68,3.0599 T-3.2716,3.0524 -6.6366,3.0381 -8.41,3.0314 A3.0314,3.0314 0 0 1 -8.41,-3.0314 T-6.6366,-3.0381 -3.2716,-3.0524 -1.68,-3.0599 A3.0599,3.0599 0 0 1 -1.68,3.0599 Z" stroke-linecap="round" fill="#9398b0"/></g></g><g transform="matrix(1, 0, 0, 1, 2792.8007, 26825.4104)" opacity="1"><g transform="scale(1)"><path d="M1.8061,-0.8336 T4.2747,4.2983 8.8877,14.1267 12.5709,22.0592 15.295,27.3049 17.2334,31.4416 19.5396,36.5378 21.1558,39.8308 21.2026,40.4839 21.0917,41.1292 20.8296,41.7292 20.4316,42.2491 19.9207,42.6586 19.3266,42.9339 18.6839,43.059 18.0299,43.0267 17.4027,42.8388 16.8387,42.5062 16.3706,42.0484 16.0258,41.4918 15.4817,37.5692 15.2719,32.3437 15.616,28.654 15.8431,25.0268 16.5028,21.8317 18.9116,18.6177 22.6244,16.749 26.1917,17.3121 29.0822,19.5726 31.2944,22.4658 33.9143,25.936 36.4787,29.0157 37.4271,30.1313 A2.7845,2.7845 0 0 1 33.1929,33.7487 T31.3316,31.5777 28.5548,28.1487 26.8741,25.5706 24.7447,22.7129 22.095,22.4537 20.7762,25.271 20.6797,29.0554 20.4097,33.398 20.6479,37.5011 21.1558,39.8308 21.2026,40.4839 21.0917,41.1292 20.8296,41.7292 20.4316,42.2491 19.9207,42.6586 19.3266,42.9339 18.6839,43.059 18.0299,43.0267 17.4027,42.8388 16.8387,42.5062 16.3706,42.0484 16.0258,41.4918 14.3786,38.215 12.3828,33.5344 10.7277,29.5898 8.1408,24.0245 4.7619,15.9751 0.4979,6.0415 -1.8061,0.8336 A1.9892,1.9892 0 0 1 1.8061,-0.8336 Z" stroke-linecap="round" fill="#9398b0"/></g></g><g transform="matrix(1, 0, 0, 1, 3194.6205, 27005.3046)" opacity="1"><g transform="scale(1)"><path d="M-0.1187,1.5442 T-5.2966,1.2611 -15.0854,1.104 -24.9471,1.3927 -30.1979,1.5555 A1.5567,1.5567 0 0 1 -30.3221,-1.5555 T-25.0749,-1.8115 -15.0164,-2.3174 -5.0431,-2.0557 0.1187,-1.5442 A1.5487,1.5487 0 0 1 -0.1187,1.5442 Z" stroke-linecap="round" fill="#9398b0"/></g></g><g transform="matrix(1, 0, 0, 1, 3167.7205, 27008.6671)" opacity="1"><g transform="scale(1)"><path d="M2.2679,1.8958 T1.5017,10.2493 0.3377,23.3958 -0.6971,30.8972 -1.711,34.6434 -2.0879,35.6812 A2.3574,2.3574 0 0 1 -6.5406,34.1306 T-6.2661,33.2978 -5.3926,30.1162 -4.3538,22.9638 -3.091,9.8123 -2.2679,1.4642 A2.2782,2.2782 0 0 1 2.2679,1.8958 ZM-3.3949,32.7351 T-2.9232,32.9499 -2.4515,33.1647 A2.3297,2.3297 0 0 1 -4.2685,37.4553 T-4.751,37.266 -5.2336,37.0767 A2.3574,2.3574 0 0 1 -3.3949,32.7351 Z" stroke-linecap="round" fill="#9398b0"/></g></g><g transform="matrix(1, 0, 0, 1, 2833.1508, 26842.2229)" opacity="1"><g transform="scale(1)"><path d="M-2.1256,-0.3539 T-1.3056,-5.4022 -0.4109,-10.7045 -0.2031,-11.187 0.1142,-11.6058 0.5224,-11.9365 0.998,-12.1599 1.5132,-12.2629 2.038,-12.2397 2.5421,-12.0916 2.9961,-11.8271 3.3736,-11.4616 3.6526,-11.0165 3.817,-10.5174 3.8572,-9.9936 3.4781,-7.4563 3.8072,-2.2589 5.1144,2.2537 5.0089,4.8641 7.5906,3.3944 12.5771,-1.4603 15.1668,-5.6195 15.623,-8.2204 15.178,-9.0244 A2.0468,2.0468 0 0 1 19.0872,-10.2394 T19.4811,-8.3443 18.794,-3.9043 15.6403,1.5007 9.7284,7.2462 3.7018,7.7785 0.8504,3.6239 -0.2488,-0.6016 -0.5847,-6.738 -0.4109,-10.7045 -0.2031,-11.187 0.1142,-11.6058 0.5224,-11.9365 0.998,-12.1599 1.5132,-12.2629 2.038,-12.2397 2.5421,-12.0916 2.9961,-11.8271 3.3736,-11.4616 3.6526,-11.0165 3.817,-10.5174 3.8572,-9.9936 2.9856,-4.6876 2.1256,0.3539 A2.1549,2.1549 0 0 1 -2.1256,-0.3539 ZM19.1669,-9.4058 T19.0851,-8.7998 20.4763,-6.5654 22.8495,-3.5996 25.4307,0.0951 29.3783,4.8062 33.6028,9.7397 36.2338,14.6196 37.2127,18.8887 37.2564,22.6588 36.3578,25.9117 34.9765,28.846 32.6374,31.5723 29.581,33.653 26.5521,35.3299 23.0724,36.7226 19.3359,37.5251 15.7405,37.8785 11.929,37.5666 8.0566,36.4462 4.7694,34.896 1.9157,33.2182 0.5165,32.3861 A2.4236,2.4236 0 0 1 2.8435,28.1339 T5.4058,29.4199 10.787,31.4076 15.1529,31.9762 19.4554,31.3422 23.7118,30.0614 26.5563,28.5532 29.2322,26.3392 31.2773,23.1866 31.7972,19.8699 31.3309,16.6704 30.2919,13.8717 28.5543,11.4305 26.721,9.0078 24.4454,6.3914 21.465,2.5822 18.5227,-1.8555 16.0516,-6.0974 15.0275,-9.0914 15.0983,-9.858 A2.0468,2.0468 0 0 1 19.1669,-9.4058 Z" stroke-linecap="round" fill="#9398b0"/></g></g><g transform="matrix(1, 0, 0, 1, 2860.0509, 26818.6854)" opacity="1"><g transform="scale(1)"><path d="M1.634,-0.769 T4.9719,5.9175 9.755,16.6524 11.9725,23.2436 12.7024,27.2884 12.6601,28.7903 A2.5787,2.5787 0 0 1 7.5199,28.3697 T7.6556,27.6966 7.2154,24.5986 5.5267,18.3031 1.3899,7.6008 -1.634,0.769 A1.8059,1.8059 0 0 1 1.634,-0.769 ZM7.5664,29.1102 T6.0105,21.6797 3.5968,9.7746 2.2829,2.1059 1.9758,-3.8362 3.1226,-8.7657 5.2297,-12.1744 8.0868,-14.1978 11.8649,-14.9494 15.4851,-14.3353 18.5849,-12.4046 20.9489,-9.2505 22.208,-5.2086 22.3247,-0.9945 20.8153,2.7315 17.9253,5.7278 14.5361,7.2804 11.6116,7.668 10.4072,7.7387 A2.7172,2.7172 0 0 1 9.7728,2.3413 T10.9607,2.1308 13.4732,1.2246 15.6456,-0.815 16.1229,-4.6185 14.5011,-8.1925 11.6244,-9.4242 8.618,-7.8046 7.0639,-3.9293 7.331,1.2709 8.6145,8.7048 11.0356,20.5633 12.6136,28.0498 A2.5787,2.5787 0 0 1 7.5664,29.1102 Z" stroke-linecap="round" fill="#9398b0"/></g></g><g transform="matrix(1, 0, 0, 1, 2890.3135, 26795.1478)" opacity="1"><g transform="scale(1)"><path d="M2.1143,1.1752 T0.1671,4.6655 -1.5045,10.5418 0.6238,13.9018 3.3547,12.9095 3.1089,7.2898 0.7534,-1.2466 -0.4784,-6.1297 A2.2403,2.2403 0 0 1 3.8384,-7.3303 T5.3049,-2.5126 8.0694,7.3588 8.6191,14.1204 6.6519,17.5149 3.2572,19.6372 -0.9616,19.2141 -4.5735,16.0302 -6.1591,9.9313 -4.1451,2.491 -2.1143,-1.1752 A2.419,2.419 0 0 1 2.1143,1.1752 Z" stroke-linecap="round" fill="#9398b0"/></g></g><g transform="matrix(1, 0, 0, 1, 2897.0385, 26749.7539)" opacity="1"><g transform="scale(1)"><path d="M1.744,-0.4026 T4.2928,9.8973 8.6055,26.375 12.0243,35.9882 15.8907,39.6363 18.102,39.8492 A2.2151,2.2151 0 0 1 18.878,44.2108 T17.6964,44.4799 14.8201,44.816 11.1389,43.2709 7.4739,37.7174 4.2494,27.4643 0.4798,10.7775 -1.744,0.4026 A1.7898,1.7898 0 0 1 1.744,-0.4026 Z" stroke-linecap="round" fill="#9398b0"/></g></g><g transform="matrix(1, 0, 0, 1, 2913.8511, 26776.654)" opacity="1"><g transform="scale(1)"><path d="M0.6903,1.15 T-3.2923,3.5246 -11.7095,8.5494 -16.144,11.1996 A1.2941,1.2941 0 0 1 -17.476,8.9804 T-13.0517,6.3132 -4.6588,1.248 -0.6903,-1.15 A1.3412,1.3412 0 0 1 0.6903,1.15 Z" stroke-linecap="round" fill="#9398b0"/></g></g><g transform="matrix(1, 0, 0, 1, 2917.2136, 26771.6102)" opacity="1"><g transform="scale(1)"><path d="M1.9928,-1.3285 T2.7964,-0.1231 4.1751,2.8202 5.0431,6.6964 5.8236,10.4167 5.8176,12.4824 6.8533,10.6255 8.986,6.6873 9.5893,5.0896 A2.1812,2.1812 0 0 1 13.9507,4.9904 T13.9226,6.3006 13.0907,9.4044 9.5123,14.5849 4.1087,15.7441 0.9401,11.4611 -0.0105,6.5457 -1.2071,2.507 -1.9928,1.3285 A2.395,2.395 0 0 1 1.9928,-1.3285 Z" stroke-linecap="round" fill="#9398b0"/></g></g><g transform="matrix(1, 0, 0, 1, 2915.5323, 26780.0165)" opacity="1"><g transform="scale(1)"><path d="M-1.7284,-1.4817 T0.6102,-4.2899 3.6162,-8.6727 4.0918,-10.5694 3.8999,-10.8915 A2.4155,2.4155 0 0 1 7.8298,-13.701 T8.3748,-12.5826 8.8111,-9.9042 7.6494,-6.1902 4.1624,-1.2773 1.7284,1.4817 A2.2766,2.2766 0 0 1 -1.7284,-1.4817 ZM7.9523,-11.0809 T7.2604,-10.1594 7.6982,-6.4359 10.0865,-2.4324 13.1667,-1.6164 16.4089,-3.1041 18.8529,-6.676 19.8763,-9.146 A2.1158,2.1158 0 0 1 23.8437,-7.674 T23.3584,-6.1178 22.2329,-2.7955 20.3182,0.4167 17.6579,2.598 14.5398,3.6876 10.4322,3.5249 5.9504,0.4832 3.1122,-6.3098 3.0789,-12.045 3.7774,-13.5116 A2.4155,2.4155 0 0 1 7.9523,-11.0809 Z" stroke-linecap="round" fill="#9398b0"/></g></g><g transform="matrix(1, 0, 0, 1, 2932.3449, 26761.5227)" opacity="1"><g transform="scale(1)"><path d="M2.2984,-0.6561 T3.1657,2.1086 4.54,8.011 6.411,12.9519 7.7799,15.088 7.7103,15.7449 7.4856,16.3661 7.1187,16.9155 6.631,17.3611 6.0508,17.677 5.4119,17.8449 4.7513,17.855 4.1076,17.7067 3.518,17.4087 3.0169,16.9782 2.6334,16.4403 2.3897,15.8263 2.4187,9.0788 3.4602,0.3678 5.556,-2.9978 6.7238,-4.078 A2.6,2.6 0 0 1 9.8545,0.0739 T9.406,0.2125 8.3262,1.8863 7.7349,9.0884 7.7799,15.088 7.7103,15.7449 7.4856,16.3661 7.1187,16.9155 6.631,17.3611 6.0508,17.677 5.4119,17.8449 4.7513,17.855 4.1076,17.7067 3.518,17.4087 3.0169,16.9782 2.6334,16.4403 2.3897,15.8263 1.0559,13.8576 -0.5239,9.2359 -1.5764,3.4586 -2.2984,0.6561 A2.3902,2.3902 0 0 1 2.2984,-0.6561 ZM10.4288,-3.4791 T11.5546,-1.9065 13.5375,0.75 14.3945,1.8339 A2.7066,2.7066 0 0 1 12.392,6.8631 T11.0827,6.0813 8.9309,3.8499 7.119,0.9377 6.1495,-0.525 A2.6,2.6 0 0 1 10.4288,-3.4791 ZM11.7273,2.2154 T12.5076,1.7087 13.7473,-0.9033 14.4278,-4.6785 14.7958,-8.0253 14.972,-11.6091 15.0014,-13.5159 A1.8098,1.8098 0 0 1 18.6186,-13.3841 T18.5091,-11.4802 18.4217,-7.8332 18.4286,-4.2856 18.2621,-0.4081 17.4208,3.3178 15.895,5.7261 15.0592,6.4816 A2.7066,2.7066 0 0 1 11.7273,2.2154 ZM18.6196,-13.4236 T18.5866,-12.2394 19.3064,-9.0451 20.9287,-5.8455 23.1694,-5.9351 26.5634,-9.4533 29.4685,-10.2119 31.9447,-8.7892 33.5387,-8.8468 A2.1188,2.1188 0 0 1 33.7213,-4.6132 T31.3539,-4.6527 27.7874,-6.121 27.72,-6.3521 27.8892,-3.155 25.568,0.0511 22.0669,0.8833 18.8955,-0.941 16.9164,-4.3637 15.4777,-8.4431 14.9948,-12.013 15.0004,-13.4764 A1.8098,1.8098 0 0 1 18.6196,-13.4236 Z" stroke-linecap="round" fill="#9398b0"/></g></g><g transform="matrix(1, 0, 0, 1, 2971.0137, 26727.8976)" opacity="1"><g transform="scale(1)"><path d="M1.7623,0 T1.8789,2.3712 2.7899,6.899 3.6319,12.6765 2.7426,18.3872 0.8721,22.3753 -0.0615,24.2735 A1.7769,1.7769 0 0 1 -3.2985,22.8065 T-2.4866,20.8531 -1.0449,17.5325 -0.4104,13.2265 -1.2007,7.5452 -1.8789,2.4013 -1.7623,0 A1.7623,1.7623 0 0 1 1.7623,0 Z" stroke-linecap="round" fill="#9398b0"/></g></g><g transform="matrix(1, 0, 0, 1, 2972.695, 26743.0289)" opacity="1"><g transform="scale(1)"><path d="M-1.3722,-1.2198 T1.7415,-4.8442 6.733,-12.5452 9.6499,-19.2093 10.9851,-25.2965 11.2812,-28.796 A2.1795,2.1795 0 0 1 15.6188,-28.364 T15.1598,-24.2814 13.5541,-17.4891 10.138,-10.3119 4.6203,-2.3123 1.3722,1.2198 A1.836,1.836 0 0 1 -1.3722,-1.2198 ZM15.6136,-28.3175 T14.7591,-20.9002 14.3679,-10.9635 15.3143,-8.1231 15.7975,-7.8022 A2.4236,2.4236 0 0 1 14.592,-3.1073 T13.3503,-3.6993 11.1406,-5.9648 9.785,-10.8282 10.3418,-21.4303 11.2864,-28.8425 A2.1795,2.1795 0 0 1 15.6136,-28.3175 ZM13.5766,-7.259 T14.3509,-7.9636 16.7161,-10.2031 19.3086,-13.5925 20.9571,-16.8168 21.856,-20.1918 23.2196,-24.2411 26.1841,-27.5394 29.4831,-28.562 32.99,-26.8696 36.8711,-23.7315 38.6915,-22.0542 A2.5313,2.5313 0 0 1 35.2885,-18.3058 T33.5321,-19.8758 30.1426,-22.5766 27.6829,-22.5351 26.446,-18.7726 24.8763,-13.6125 22.7279,-9.6378 20.0603,-6.635 17.5973,-4.3437 16.8129,-3.6504 A2.4236,2.4236 0 0 1 13.5766,-7.259 Z" stroke-linecap="round" fill="#9398b0"/></g></g><g transform="matrix(1, 0, 0, 1, 3244.2527, 26739.0224)" opacity="1"><g transform="scale(1)"><path d="M2.256,0 T2.3338,4.16 2.3937,10.1964 2.8088,12.5428 3.2418,13.0127 A2.4059,2.4059 0 0 1 -0.9085,15.4473 T-1.6422,13.9285 -2.3937,10.3648 -2.3338,4.16 -2.256,0 A2.256,2.256 0 0 1 2.256,0 ZM-0.4574,12.455 T0.1966,11.8733 3.4268,9.4297 7.6359,7.5342 10.4628,8.4414 11.9757,11.5101 12.2947,13.6377 A2.525,2.525 0 0 1 7.2453,13.7223 T7.6092,12.8337 6.0255,13.3696 3.4343,15.3995 2.7907,16.005 A2.4059,2.4059 0 0 1 -0.4574,12.455 ZM7.245,13.696 T7.2393,12.9492 7.2336,12.2024 A2.527,2.527 0 0 1 12.2875,12.1703 T12.2912,12.9171 12.295,13.664 A2.525,2.525 0 0 1 7.245,13.696 ZM7.9343,10.4398 T8.7688,9.5761 11.7452,6.9201 15.7454,4.3229 20.2331,3.2801 24.176,3.8093 26.7155,6.5723 28.4567,10.5814 29.1097,14.2704 29.8284,16.8364 30.4096,17.7266 A2.7592,2.7592 0 0 1 26.2504,21.3534 T25.6937,20.7807 24.2292,17.5869 23.1112,13.0252 21.4488,9.5886 18.2617,8.7983 15.1011,10.6175 12.631,12.8321 11.5868,13.9329 A2.527,2.527 0 0 1 7.9343,10.4398 Z" stroke-linecap="round" fill="#9398b0"/></g></g><g transform="matrix(1, 0, 0, 1, 3292.1272, 26752.7008)" opacity="1"><g transform="scale(1)"><path d="M-1.4148,1.7694 T-2.53,0.8396 -4.4627,1.2138 -3.9546,3.0517 -1.3993,2.6452 2.2035,-0.3268 4.5767,-2.3585 A1.8834,1.8834 0 0 1 7.1433,0.3985 T5.9175,1.6346 3.4589,4.101 -0.0103,6.6691 -4.9934,7.8209 -8.6867,4.6443 -8.7483,-0.4649 -5.8193,-3.509 -2.378,-4.0217 0.217,-2.689 1.4148,-1.7694 A2.2655,2.2655 0 0 1 -1.4148,1.7694 Z" stroke-linecap="round" fill="#9398b0"/></g></g><g transform="matrix(1, 0, 0, 1, 3310.6908, 26730.2291)" opacity="1"><g transform="scale(1)"><path d="M2.0644,0.4952 T0.7973,6.3014 -1.0994,15.5982 -2.0419,21.3577 -2.4026,25.4001 -2.4506,27.1737 A2.7471,2.7471 0 0 1 -7.8754,28.0442 T-7.9942,26.8917 -7.8815,24.2415 -7.193,20.3949 -5.9049,14.5246 -3.5691,5.254 -2.0644,-0.4952 A2.1229,2.1229 0 0 1 2.0644,0.4952 ZM-3.8776,25.1811 T-3.1312,25.5876 0.4842,25.5786 3.3532,25.163 A2.2664,2.2664 0 0 1 4.4668,29.557 T2.955,30.0427 -1.7292,30.6807 -5.675,30.4349 -6.4484,30.0368 A2.7471,2.7471 0 0 1 -3.8776,25.1811 Z" stroke-linecap="round" fill="#9398b0"/></g></g><g transform="matrix(1, 0, 0, 1, 3311.6678, 26743.9076)" opacity="1"><g transform="scale(1)"><path d="M0.3457,1.7249 T-0.8025,1.9993 -4.2896,2.5541 -6.6284,2.8344 A1.8664,1.8664 0 0 1 -7.0516,-0.8744 T-4.8634,-1.1105 -1.5104,-1.5358 -0.3457,-1.7249 A1.7592,1.7592 0 0 1 0.3457,1.7249 Z" stroke-linecap="round" fill="#9398b0"/></g></g><g transform="matrix(1, 0, 0, 1, 3334.1396, 26741.9535)" opacity="1"><g transform="scale(1)"><path d="M0.6586,2.3102 T-0.9508,2.7736 -3.883,3.8185 -2.745,6.6291 0.6522,10.6078 1.6365,14.0141 0.9644,17.0364 -1.3573,19.4476 -4.583,20.9545 -7.751,21.3852 -11.6608,20.0383 -14.635,16.9413 -15.5695,13.7577 -15.8954,12.3549 A2.3046,2.3046 0 0 1 -11.4646,11.0851 T-10.8953,13.1485 -8.8932,15.6955 -5.4088,15.6 -3.7591,13.4708 -6.659,8.5334 -8.2782,2.7455 -5.6548,-0.5238 -2.2845,-1.8512 -0.6586,-2.3102 A2.4023,2.4023 0 0 1 0.6586,2.3102 Z" stroke-linecap="round" fill="#9398b0"/></g></g><g transform="matrix(1, 0, 0, 1, 3354.6572, 26720.4588)" opacity="1"><g transform="scale(1)"><path d="M2.196,0.5786 T1.1087,4.9862 -0.7508,12.6441 -2.1637,18.137 -3.0844,22.0833 -3.7662,25.5295 -3.4546,28.899 -1.1438,31.9345 0.4534,33.3431 A2.3221,2.3221 0 0 1 -2.4134,36.9969 T-4.1616,35.7806 -7.7717,32.8273 -9.6194,28.4984 -9.169,24.3273 -8.3027,20.779 -7.1654,16.7125 -5.5529,11.3896 -3.4216,3.7926 -2.196,-0.5786 A2.271,2.271 0 0 1 2.196,0.5786 Z" stroke-linecap="round" fill="#9398b0"/></g></g><g transform="matrix(1, 0, 0, 1, 3344.8869, 26739.0224)" opacity="1"><g transform="scale(1)"><path d="M0.7608,-1.5255 T1.7028,-1.1084 4.4902,-0.4621 8.3946,-0.1089 11.6075,0.0855 12.7616,0.1557 A1.7953,1.7953 0 0 1 12.6384,3.7443 T11.4823,3.7353 8.1273,3.6442 3.4912,3.0491 0.1467,2.0307 -0.7608,1.5255 A1.7047,1.7047 0 0 1 0.7608,-1.5255 Z" stroke-linecap="round" fill="#9398b0"/></g></g><g transform="matrix(1, 0, 0, 1, 3368.3357, 26745.8616)" opacity="1"><g transform="scale(1)"><path d="M-0.6779,2.0267 T-1.3264,1.8143 -2.8597,1.2348 -2.0269,1.933 1.2891,3.3127 4.6322,3.9783 7.5953,5.7452 10.5872,7.9755 12.3605,8.79 A2.062,2.062 0 0 1 11.0795,12.71 T10.0372,12.4094 7.6169,11.5308 5.2254,9.4957 2.2698,7.9826 -1.2157,7.3581 -5.0487,5.2286 -6.5517,1.351 -3.2811,-1.7472 -0.0595,-2.2778 0.6779,-2.0267 A2.1371,2.1371 0 0 1 -0.6779,2.0267 Z" stroke-linecap="round" fill="#9398b0"/></g></g><g transform="matrix(1, 0, 0, 1, 3369.3127, 26729.2521)" opacity="1"><g transform="scale(1)"><path d="M-0.8333,-1.6666 T0.5307,-2.4045 4.1564,-3.611 7.8005,-1.6285 6.7302,2.1677 2.6295,3.6354 -0.4349,3.7893 -1.8513,3.8207 A1.8733,1.8733 0 0 1 -2.0487,0.0793 T0.2535,-0.05 4.0492,-0.8477 4.5958,-0.5727 2.2411,1.0186 0.8333,1.6666 A1.8634,1.8634 0 0 1 -0.8333,-1.6666 Z" stroke-linecap="round" fill="#9398b0"/></g></g><g transform="matrix(1, 0, 0, 1, 3379.083, 26744.8846)" opacity="1"><g transform="scale(1)"><path d="M0,-2.095 T2.5297,-2.1517 7.0589,-3.2324 10.4584,-5.7502 11.8584,-7.244 A2.2877,2.2877 0 0 1 15.5016,-4.476 T13.5623,-2.4453 10.2584,0.4176 7.0019,1.7291 2.555,2.1517 0,2.095 A2.095,2.095 0 0 1 0,-2.095 ZM15.6159,-4.641 T13.569,-1.3161 10.7267,3.6189 10.0996,7.1025 10.2679,8.976 A2.4669,2.4669 0 0 1 5.7614,10.9845 T5.3351,9.9663 5.2631,5.9749 6.54,1.2869 9.6034,-3.7535 11.7441,-7.079 A2.2877,2.2877 0 0 1 15.6159,-4.641 ZM8.8734,7.6676 T9.9694,8.1055 13.5104,8.3064 17.0735,7.9175 18.1918,7.7656 A2.038,2.038 0 0 1 18.9282,11.7744 T17.0028,12.2234 12.2368,12.8677 8.276,12.678 7.1559,12.2929 A2.4669,2.4669 0 0 1 8.8734,7.6676 Z" stroke-linecap="round" fill="#9398b0"/></g></g><g transform="matrix(1, 0, 0, 1, 3400.5777, 26745.8616)" opacity="1"><g transform="scale(1)"><path d="M1.9452,0 T2.0034,1.5948 2.2512,3.464 2.4409,3.7385 A2.1107,2.1107 0 0 1 -1.5138,5.2151 T-1.7877,4.2481 -2.0034,1.6405 -1.9452,0 A1.9452,1.9452 0 0 1 1.9452,0 ZM-0.9213,2.884 T0.4564,2.1211 5.0546,2.0979 9.8179,4.2819 12.6681,7.0719 13.9753,8.4175 A1.859,1.859 0 0 1 11.4247,11.1225 T9.0999,9.0328 4.4712,5.9327 2.0078,5.496 1.8484,6.0696 A2.1107,2.1107 0 0 1 -0.9213,2.884 Z" stroke-linecap="round" fill="#9398b0"/></g></g><g transform="matrix(1, 0, 0, 1, 3425.9805, 26742.9305)" opacity="1"><g transform="scale(1)"><path d="M-1.0184,2.042 T-1.7697,1.6044 -4.2078,2.7275 -5.2115,5.6676 -2.7329,5.8379 0.3923,2.9945 2.8363,-0.6599 4.4336,-4.224 5.3022,-8.0557 5.8243,-12.7102 5.5999,-16.9489 5.2388,-18.8213 A1.7594,1.7594 0 0 1 8.705,-19.4277 T9.113,-17.2076 9.4523,-12.4607 9.0296,-7.3114 8.2398,-3.0357 7.26,0.1832 5.2346,3.7411 2.6542,7.0846 0.1792,9.3081 -3.0922,10.6195 -6.6346,10.0251 -9.4551,7.0068 -9.978,3.031 -8.1051,-0.1383 -5.5886,-2.0157 -2.7361,-2.8632 -0.0797,-2.5267 1.0184,-2.042 A2.2819,2.2819 0 0 1 -1.0184,2.042 ZM8.3966,-18.0921 T8.158,-17.766 7.6545,-15.6372 7.0086,-11.1553 6.3265,-6.3849 5.8765,-2.7713 5.4294,0.5861 4.9912,3.9375 5.0358,8.4858 5.2203,11.5174 A2.2992,2.2992 0 0 1 0.6397,11.9226 T0.4361,10.2052 0.0426,6.7021 0.0737,3.1976 0.6811,-0.1958 1.3383,-3.4978 2.4484,-8.5317 3.5129,-13.3595 4.3554,-17.0692 5.2598,-19.7572 5.5472,-20.1568 A1.7594,1.7594 0 0 1 8.3966,-18.0921 Z" stroke-linecap="round" fill="#9398b0"/></g></g><g transform="matrix(1, 0, 0, 1, 3434.7738, 26750.7468)" opacity="1"><g transform="scale(1)"><path d="M-0.6217,-2.1809 T0.9863,-2.6684 3.957,-3.8199 6.8518,-6.0471 9.653,-9.0049 10.9221,-10.3994 A2.3982,2.3982 0 0 1 14.4779,-7.1806 T12.45,-4.9033 8.8775,-1.4066 5.6045,0.562 2.249,1.7461 0.6217,2.1809 A2.2678,2.2678 0 0 1 -0.6217,-2.1809 ZM14.4178,-7.1166 T13.11,-5.7946 10.6099,-2.3721 9.0254,1.6719 10.4864,3.7173 14.7083,3.2689 18.8959,2.1784 20.7149,1.6383 A2.4003,2.4003 0 0 1 22.2651,6.1817 T20.4954,6.8661 16.8817,8.2403 12.1572,8.9699 7.3438,8.3762 4.4595,5.3882 3.9127,1.1081 5.4435,-2.9152 7.5461,-6.4552 9.7524,-9.1804 10.9822,-10.4634 A2.3982,2.3982 0 0 1 14.4178,-7.1166 Z" stroke-linecap="round" fill="#9398b0"/></g></g><g transform="matrix(1, 0, 0, 1, 2915.9701, 27067.305)" opacity="1"><g transform="scale(1)"><path d="M1.9537,0.1953 T1.4099,7.142 0.5221,17.5186 -0.8079,21.2601 0.9242,20.385 5.9274,18.4965 10.0387,17.8544 13.309,18.5875 16.0987,21.4992 17.7641,25.861 18.0954,30.5617 18.107,33.1391 A2.4783,2.4783 0 0 1 13.153,33.3009 T13.0734,31.9765 12.8848,28.6732 12.51,25.0231 10.8421,22.8087 7.3685,22.8833 1.5079,24.8181 -3.346,23.2996 -4.0243,17.0512 -2.7957,6.7216 -1.9537,-0.1953 A1.9635,1.9635 0 0 1 1.9537,0.1953 Z" stroke-linecap="round" fill="#9398b0"/></g></g><g transform="matrix(1, 0, 0, 1, 2955.0514, 27093.6848)" opacity="1"><g transform="scale(1)"><path d="M-0.7718,2.3195 T-2.0853,1.8719 -4.6397,2.6137 -6.8548,4.0151 -3.8922,3.7808 2.2059,2.7669 5.2429,0.5503 6.4251,-2.2359 6.7319,-3.3732 A2.1053,2.1053 0 0 1 10.8481,-2.4868 T10.6595,-1.324 10.0832,1.3384 7.9114,4.7916 3.3498,7.5618 -3.983,8.7995 -9.7595,6.8888 -10.4017,2.334 -7.718,-1.4008 -3.8791,-3.0908 -0.6865,-2.7943 0.7718,-2.3195 A2.4446,2.4446 0 0 1 -0.7718,2.3195 Z" stroke-linecap="round" fill="#9398b0"/></g></g><g transform="matrix(1, 0, 0, 1, 2985.3393, 27089.7767)" opacity="1"><g transform="scale(1)"><path d="M0.6669,2.2238 T-1.6379,2.934 -5.2771,4.2129 -7.7282,5.6088 -8.8448,6.4362 A2.4309,2.4309 0 0 1 -12.2623,2.9782 T-10.3455,1.6782 -6.8642,-0.2472 -2.9833,-1.5481 -0.6669,-2.2238 A2.3216,2.3216 0 0 1 0.6669,2.2238 ZM-9.5006,2.5162 T-5.7686,4.2305 -0.0026,6.9992 3.1072,9.0436 4.1831,10.0336 A2.7395,2.7395 0 0 1 0.2576,13.856 T-0.1831,13.2885 -2.347,11.6998 -7.8385,8.7883 -11.6065,6.8982 A2.4309,2.4309 0 0 1 -9.5006,2.5162 ZM4.7075,13.0934 T3.9002,14.682 0.7717,17.3222 -3.0715,18.6335 -6.0835,18.7444 -9.3455,17.9054 -12.7769,16.5382 -14.4363,15.8609 A2.3083,2.3083 0 0 1 -12.9237,11.4991 T-11.2012,11.9946 -7.4552,12.9511 -3.1595,12.9354 -0.5771,11.6275 -0.2668,10.7961 A2.7395,2.7395 0 0 1 4.7075,13.0934 Z" stroke-linecap="round" fill="#9398b0"/></g></g><g transform="matrix(1, 0, 0, 1, 2999.0178, 27075.1212)" opacity="1"><g transform="scale(1)"><path d="M2.0493,0.1028 T1.9794,4.7321 1.8939,12.7083 1.9173,18.3935 2.0491,23.4831 2.1419,26.2345 A2.1468,2.1468 0 0 1 -2.1419,26.5255 T-2.4221,23.7869 -2.9982,18.4592 -3.0653,12.4967 -2.4429,4.5103 -2.0493,-0.1028 A2.0518,2.0518 0 0 1 2.0493,0.1028 Z" stroke-linecap="round" fill="#9398b0"/></g></g><g transform="matrix(1, 0, 0, 1, 3008.7881, 27093.6848)" opacity="1"><g transform="scale(1)"><path d="M1.4453,-0.1811 T1.9688,3.7247 2.4924,7.6305 A1.5242,1.5242 0 0 1 -0.5324,8.0095 T-0.9888,4.0953 -1.4453,0.1811 A1.4566,1.4566 0 0 1 1.4453,-0.1811 Z" stroke-linecap="round" fill="#9398b0"/></g></g><g transform="matrix(1, 0, 0, 1, 3017.5814, 27067.305)" opacity="1"><g transform="scale(1)"><path d="M1.3196,-0.4391 T2.3011,2.4887 3.2825,5.4166 A1.4044,1.4044 0 0 1 0.6175,6.3034 T-0.3511,3.3713 -1.3196,0.4391 A1.3908,1.3908 0 0 1 1.3196,-0.4391 Z" stroke-linecap="round" fill="#9398b0"/></g></g><g transform="matrix(1, 0, 0, 1, 3027.3517, 27092.7078)" opacity="1"><g transform="scale(1)"><path d="M0.8312,2.1048 T-0.1041,2.5067 -2.1093,2.4874 -1.6393,2.9514 1.8629,3.4322 4.1284,2.4095 4.4317,1.7913 A2.2959,2.2959 0 0 1 8.2979,4.2684 T6.4325,6.1736 2.9169,8.5911 -0.7477,8.5298 -5.1361,6.2446 -5.5709,1.7345 -2.2314,-1.5844 -0.8312,-2.1048 A2.263,2.263 0 0 1 0.8312,2.1048 ZM4.285,4.0021 T4.0367,3.4603 3.7885,2.9184 A2.2867,2.2867 0 0 1 7.9315,0.9816 T8.1881,1.5196 8.4446,2.0576 A2.2959,2.2959 0 0 1 4.285,4.0021 ZM8.1319,1.6904 T8.1853,2.6463 8.2075,5.0666 8.7562,8.7997 9.5802,12.6081 10.5597,16.5531 11.7177,21.3663 11.9908,26.0394 11.1753,29.6896 9.5194,32.2013 6.0471,34.5272 0.6116,35.9284 -4.0459,35.51 -7.1395,34.0189 -9.718,32.1633 -11.9464,29.4475 -13.833,26.1617 -14.6805,24.6066 A2.2935,2.2935 0 0 1 -10.7195,22.2934 T-9.7815,23.7957 -7.308,27.0243 -3.804,29.764 -0.1413,30.7082 3.0951,30.0722 5.8066,27.8488 6.8609,24.3261 6.1846,20.1732 5.186,15.07 4.4098,10.8168 3.8463,7.9251 3.6916,4.6111 3.6749,2.4807 3.5881,2.2096 A2.2867,2.2867 0 0 1 8.1319,1.6904 Z" stroke-linecap="round" fill="#9398b0"/></g></g><g transform="matrix(1, 0, 0, 1, 3050.8004, 27092.7078)" opacity="1"><g transform="scale(1)"><path d="M-0.4521,2.2559 T-1.5389,2.0392 -4.0299,3.2357 -6.5796,4.6312 -5.9221,4.7779 -2.4515,4.4022 -0.3483,3.1364 0.0873,2.4107 A2.07,2.07 0 0 1 4.0482,3.6155 T3.4624,5.0072 1.0052,7.571 -2.7038,9.1432 -7.5043,9.1898 -10.5301,6.1844 -9.0821,1.5792 -6.4003,-1.1971 -3.6146,-2.3849 -0.774,-2.5027 0.4521,-2.2559 A2.3008,2.3008 0 0 1 -0.4521,2.2559 ZM1.9101,5.0771 T1.6531,5.0538 1.3961,5.0305 A2.0627,2.0627 0 0 1 1.7104,0.9171 T1.9679,0.9331 2.2254,0.9491 A2.07,2.07 0 0 1 1.9101,5.0771 ZM3.55,3.491 T3.3632,4.1574 3.1358,6.3558 3.327,9.8618 4.3687,14.331 5.662,18.209 6.6154,22.3659 7.1751,26.5974 7.0624,29.5205 6.2174,32.6008 3.997,36.2961 0.0177,39.2645 -4.591,39.6423 -7.9733,38.3209 -10.1016,36.1573 -11.5104,33.25 -12.3201,30.3036 -12.6744,28.9124 A2.0105,2.0105 0 0 1 -8.8256,27.7476 T-8.349,29.1018 -7.1203,32.05 -4.8486,34.4009 -1.6955,34.461 0.888,31.9437 1.9871,27.8651 1.8803,23.3222 1.2057,19.606 0.0652,15.4469 -0.8517,10.256 -0.9724,6.0569 -0.6708,3.3887 -0.4435,2.4566 A2.0627,2.0627 0 0 1 3.55,3.491 Z" stroke-linecap="round" fill="#9398b0"/></g></g><g transform="matrix(1, 0, 0, 1, 3055.6856, 27099.547)" opacity="1"><g transform="scale(1)"><path d="M-1.0113,-1.7328 T1.7485,-3.3709 6.1492,-6.0724 8.348,-8.605 8.906,-10.0743 A2.0887,2.0887 0 0 1 13.0567,-9.6033 T12.7155,-7.9537 11.2207,-4.9881 8.3229,-2.5668 3.795,0.1356 1.0113,1.7328 A2.0063,2.0063 0 0 1 -1.0113,-1.7328 ZM11.883,-7.9548 T11.4803,-7.8212 9.8852,-4.4518 8.4214,0.6301 10.2969,2.7954 13.8869,2.9731 15.33,2.8317 A2.0801,2.0801 0 0 1 15.93,6.9483 T14.5066,7.2247 11.5597,7.7687 8.3711,7.8005 5.4408,6.3976 3.8181,3.4784 4.0107,-0.6807 6.6865,-7.0427 9.4459,-11.3602 10.0797,-11.7228 A2.0887,2.0887 0 0 1 11.883,-7.9548 Z" stroke-linecap="round" fill="#9398b0"/></g></g><g transform="matrix(1, 0, 0, 1, 3077.1803, 27094.6618)" opacity="1"><g transform="scale(1)"><path d="M2.3325,0.4655 T1.9266,2.7859 1.4395,6.937 1.3584,8.7677 A2.5707,2.5707 0 0 1 -3.7699,8.4009 T-3.5676,6.2685 -2.8489,1.8353 -2.3325,-0.4655 A2.3785,2.3785 0 0 1 2.3325,0.4655 ZM-2.8415,6.6012 T-1.9975,5.9007 0.829,3.5323 6.2515,1.0242 10.8422,2.293 13.196,6.5632 14.3991,8.7245 A1.995,1.995 0 0 1 11.0009,10.8155 T9.6138,8.7675 7.0527,5.0504 5.9067,4.6288 4.1316,7.4432 1.3792,9.7888 0.43,10.5675 A2.5707,2.5707 0 0 1 -2.8415,6.6012 Z" stroke-linecap="round" fill="#9398b0"/></g></g><g transform="matrix(1, 0, 0, 1, 3100.629, 27096.6159)" opacity="1"><g transform="scale(1)"><path d="M-1.8362,1.4561 T-2.7815,0.2833 -3.7269,-0.8896 A2.3674,2.3674 0 0 1 -0.0171,-3.8315 T0.9096,-2.6438 1.8362,-1.4561 A2.3435,2.3435 0 0 1 -1.8362,1.4561 ZM-0.8872,-0.2077 T-1.5712,0.1077 -3.3951,2.297 -5.2391,3.1726 -3.4495,1.5306 1.0893,0.2512 4.5388,-1.2976 7.183,-4.4508 9.0402,-8.2434 9.8929,-12.2258 9.8897,-15.1312 9.6513,-15.6066 A1.7224,1.7224 0 0 1 11.5441,-18.4848 T12.5786,-16.6741 13.684,-13.3706 13.4314,-10.1989 12.5431,-6.8931 11.1897,-3.2933 9.3485,-0.0535 6.4419,2.4825 2.2091,4.627 -4.3201,5.9758 -8.0423,3.1103 -5.9789,-2.0334 -3.6003,-4.1758 -2.8567,-4.5134 A2.3674,2.3674 0 0 1 -0.8872,-0.2077 ZM11.9978,-16.0425 T11.4397,-15.2593 10.4936,-12.7742 9.7757,-8.5289 9.3654,-3.1381 9.3009,1.163 9.5918,4.6123 11.6966,7.1086 13.5262,7.6096 A2.313,2.313 0 0 1 11.8738,11.9304 T10.6223,11.517 7.7849,10.2332 5.5426,7.6096 4.7197,4.174 4.6543,0.9783 4.9012,-2.081 5.2896,-5.2976 6.0098,-9.3496 7.3394,-14.192 8.6944,-17.3508 9.1976,-18.0489 A1.7224,1.7224 0 0 1 11.9978,-16.0425 Z" stroke-linecap="round" fill="#9398b0"/></g></g><g transform="matrix(1, 0, 0, 1, 3121.1467, 27098.57)" opacity="1"><g transform="scale(1)"><path d="M-1.2983,-1.9459 T1.4751,-3.7614 4.7774,-6.3108 5.3064,-7.0446 A2.2567,2.2567 0 0 1 8.8519,-4.2517 T7.8453,-3.0362 4.0685,0.0625 1.2983,1.9459 A2.3392,2.3392 0 0 1 -1.2983,-1.9459 ZM4.8665,-5.2042 T4.8128,-5.4867 4.7592,-5.7691 A2.2508,2.2508 0 0 1 9.1729,-6.6547 T9.2323,-6.3734 9.2918,-6.0921 A2.2567,2.2567 0 0 1 4.8665,-5.2042 ZM7.948,-4.1866 T6.8865,-3.6913 4.384,-2.2431 5.5675,0.6167 10.1963,3.9075 13.7741,5.9894 18.3948,6.6254 21.4421,6.5632 A2.2274,2.2274 0 0 1 21.5379,11.0168 T19.6864,11.1076 15.7032,11.1966 11.4644,10.2696 7.0078,7.6477 1.8137,2.5325 -0.4819,-2.849 1.6605,-5.8435 4.619,-7.556 5.984,-8.2372 A2.2508,2.2508 0 0 1 7.948,-4.1866 Z" stroke-linecap="round" fill="#9398b0"/></g></g><g transform="matrix(1, 0, 0, 1, 2726.426, 27040.9251)" opacity="1"><g transform="scale(1)"><path d="M0.7982,1.6004 T-1.1672,2.5546 -3.1326,3.5087 A1.7418,1.7418 0 0 1 -4.6874,0.3913 T-2.7428,-0.6046 -0.7982,-1.6004 A1.7884,1.7884 0 0 1 0.7982,1.6004 ZM-5.0087,0.5984 T-3.711,-0.4017 -0.9717,-2.4423 1.8464,-4.4052 4.9883,-6.6319 8.7184,-9.0564 12.2339,-11.4512 15.2082,-13.9669 18.1913,-16.5011 21.0681,-19.2809 23.8567,-22.2985 26.7921,-25.3142 29.6722,-28.5763 32.2548,-31.7773 34.6827,-34.2649 37.2302,-36.4789 40.1736,-39.2918 42.9862,-42.1225 45.1626,-44.3243 47.5563,-46.485 50.4769,-48.9857 53.3571,-51.8806 55.7569,-54.6841 58.2719,-57.117 61.2264,-59.6975 64.1111,-62.8522 66.5191,-65.7258 68.8915,-68.2615 71.1755,-70.8185 73.2285,-73.1818 75.3253,-75.539 77.777,-78.2293 80.1298,-80.9953 82.2923,-83.6328 84.6072,-86.3178 87.1903,-89.0345 89.7034,-91.7569 92.0083,-94.3725 94.7082,-97.2086 97.4969,-100.2082 100.5361,-103.0879 104.0707,-106.3496 107.335,-109.4733 110.5268,-112.2136 114.2138,-115.4665 118.038,-118.8597 121.6767,-122.0671 124.6982,-125.2207 127.5132,-128.6495 130.466,-132.153 133.0103,-135.2008 135.1848,-138.0089 137.7949,-140.7055 140.189,-143.1326 142.0707,-145.6287 144.4621,-148.552 147.3062,-151.6871 149.758,-154.5749 152.1559,-157.2113 155.0973,-159.9859 157.648,-162.6342 160.1368,-165.1533 163.0358,-167.7307 166.2595,-170.5318 169.1717,-173.3362 171.7847,-175.9214 174.8765,-178.6253 177.8538,-181.1325 180.7242,-183.9387 183.1886,-186.6658 185.6882,-189.2165 188.6226,-192.1863 191.539,-195.1334 194.4568,-198.0775 197.7067,-201.465 200.5935,-204.4042 203.1801,-206.9049 206.1311,-209.8571 209.0499,-212.807 211.9525,-215.4672 214.87,-217.9594 217.8185,-220.719 221.311,-223.4705 224.7424,-225.9695 227.6841,-228.2316 230.5948,-230.5362 233.3668,-232.8716 235.8587,-234.952 238.3227,-236.9231 240.9175,-239.0583 243.3476,-241.4098 246.1105,-244.0255 249.1335,-246.9423 252.0548,-249.9127 254.4775,-252.6664 256.4191,-255.048 258.4367,-257.5846 260.9046,-260.5624 263.7642,-263.2682 266.3855,-265.5001 268.9848,-267.4473 271.708,-269.1929 274.3483,-270.9717 275.6687,-271.8884 A2.8716,2.8716 0 0 1 279.2913,-267.4316 T277.4532,-265.8703 274.5031,-263.3071 271.8977,-261.4705 268.7481,-259.0684 265.7288,-256.0636 263.3367,-253.1597 261.3048,-250.5598 258.7798,-247.5668 255.8252,-244.259 253.1609,-241.5019 250.2128,-238.91 247.4598,-236.3307 245.3414,-234.0181 242.9151,-232.0074 240.4682,-230.0189 237.8223,-227.7185 234.3719,-224.7566 231.0406,-222.0811 228.2102,-219.963 225.5215,-218.0386 223.143,-216.2672 220.9597,-214.2943 218.5351,-212.1672 215.7384,-209.8153 212.7945,-207.0983 209.8124,-204.1596 207.2585,-201.665 204.9707,-199.5192 202.6259,-197.1578 200.0389,-194.4584 197.0926,-191.5366 194.1488,-188.6188 191.2047,-185.6957 188.2538,-182.7364 185.7449,-180.1378 182.7437,-177.2127 179.5982,-174.3186 177.1877,-172.3318 174.8491,-170.2393 172.0494,-167.5165 168.7885,-164.5145 165.738,-161.9041 163.2202,-159.6323 160.2327,-156.5652 156.857,-153.2477 154.0947,-150.2672 151.5464,-147.2996 149.0783,-144.5913 146.7193,-141.7314 144.2136,-138.6612 141.3889,-135.7676 138.8801,-132.9056 136.4124,-129.711 133.6753,-126.4846 130.7192,-123.0068 127.4873,-119.5336 123.7621,-116.1436 119.8513,-112.7822 115.9972,-109.4803 112.3911,-106.4229 109.5783,-104.147 106.8244,-101.6217 104.0114,-99.0146 101.2952,-96.5206 98.6098,-93.7592 95.9592,-91.0919 93.359,-88.2608 90.9277,-85.7406 88.425,-83.1681 85.567,-79.8624 82.4121,-76.2551 79.5677,-73.0107 77.16,-70.4336 74.8093,-67.7861 72.2854,-65.0009 69.5952,-62.1346 67.0765,-59.2172 64.8647,-56.8271 62.5399,-54.7426 59.8383,-52.2685 57.2538,-49.4909 55.0397,-47.1067 52.6865,-45.0424 49.8249,-42.6297 47.1596,-40.2033 44.7284,-37.8166 41.859,-35.0614 38.9027,-32.5878 36.471,-30.4599 34.186,-27.6758 31.3256,-24.188 28.2912,-20.9178 25.3866,-17.9403 22.381,-15.068 19.2542,-12.2978 16.1274,-9.7677 12.5311,-7.3391 8.7338,-4.9706 5.2897,-2.7077 2.0357,-0.4915 -1.1737,1.9155 -2.8113,3.3016 A1.7418,1.7418 0 0 1 -5.0087,0.5984 Z" stroke-linecap="round" fill="#ffc034"/></g></g><g transform="matrix(1, 0, 0, 1, 2999.0178, 26757.586)" opacity="1"><g transform="scale(1)"><path d="M1.9373,0 T1.9285,1.3859 1.9144,5.056 1.9199,9.7394 1.9535,14.5684 2.0086,21.0665 2.0683,27.7398 2.1116,32.179 2.1398,35.4432 2.1735,39.1919 2.2143,43.5641 2.2536,47.8319 2.2861,52.1939 2.3112,56.7019 2.3338,61.7139 2.5714,66.6608 2.9437,70.443 3.1669,73.4043 3.317,77.463 3.4205,82.5288 3.4691,87.5861 3.4928,91.7156 3.5074,94.7805 3.5242,97.7814 3.5429,100.7488 3.562,103.9303 3.5868,108.402 3.6108,112.6056 3.6266,115.4906 3.6397,118.3993 3.6506,121.3204 3.6596,124.2457 3.667,127.1732 3.6731,130.1019 3.6781,133.0313 3.6823,135.9609 3.6857,138.8907 3.6893,142.9353 3.6969,147.9937 3.7067,153.2808 3.7158,158.6314 3.7234,163.4139 3.7272,168.0387 3.724,173.0832 3.4636,178.8145 3.0312,184.4181 2.7988,189.0579 2.4522,193.4629 1.9956,197.5088 1.7706,201.3817 1.3305,205.7813 0.8526,209.9512 0.7273,214.1335 0.6915,218.4674 0.6829,222.4941 0.6824,226.2045 0.6852,229.6963 1.0306,233.2041 1.4854,237.0035 1.9715,240.8796 2.4655,244.5393 2.618,248.4271 2.6601,253.1588 2.6694,257.8849 2.6701,261.5597 2.6694,264.9288 2.6656,268.5115 3.008,271.7935 3.4663,275.3466 3.6077,279.4615 3.6396,283.0634 4.0121,286.1052 4.3812,287.5462 A2.5229,2.5229 0 0 1 -0.4812,288.8938 T-0.7745,287.976 -1.3873,285.181 -1.7227,281.5906 -1.7864,277.9631 -1.9618,274.3617 -2.3789,270.3793 -2.6692,266.4742 -2.671,263.314 -2.6742,259.9941 -2.6827,255.6646 -2.7013,250.6899 -2.764,246.7384 -2.9735,243.4842 -3.4493,239.578 -3.9122,235.6859 -4.3221,231.8159 -4.5825,228.0433 -4.5775,224.4669 -4.5711,220.4839 -4.5505,216.31 -4.4822,211.8701 -4.2147,207.3448 -3.7809,203.0207 -3.4601,198.8603 -3.0148,194.9429 -2.6517,191.0267 -2.5348,186.5362 -2.306,182.5742 -1.9672,178.3818 -1.764,173.0832 -1.7672,168.0387 -1.7634,163.4139 -1.7558,158.6314 -1.7467,153.2808 -1.7369,147.9937 -1.7293,142.9353 -1.7257,138.8907 -1.7223,135.9609 -1.7181,133.0313 -1.7131,130.1019 -1.707,127.1732 -1.6996,124.2457 -1.6906,121.3204 -1.6797,118.3993 -1.6666,115.4906 -1.6509,112.6056 -1.6269,108.4021 -1.6024,103.9306 -1.5836,100.7494 -1.5655,97.7824 -1.5499,94.7823 -1.5375,91.7197 -1.5232,87.5985 -1.5114,82.5711 -1.5403,77.6047 -1.722,72.4363 -2.1078,67.0711 -2.3338,61.7139 -2.3112,56.7019 -2.2861,52.1939 -2.2536,47.8319 -2.2143,43.5641 -2.1735,39.1919 -2.1398,35.4432 -2.1116,32.179 -2.0683,27.7398 -2.0086,21.0665 -1.9535,14.5684 -1.9199,9.7394 -1.9144,5.056 -1.9285,1.3859 -1.9373,0 A1.9373,1.9373 0 0 1 1.9373,0 Z" stroke-linecap="round" fill="#ffc034"/></g></g><g transform="matrix(1, 0, 0, 1, 2722.5179, 27045.8103)" opacity="1"><g transform="scale(1)"><path d="M-1.145,-1.7161 T0.2457,-2.6351 3.8712,-4.4363 8.1145,-5.9045 12.1783,-7.2143 18.0714,-8.4818 24.7004,-9.533 29.4899,-10.3256 33.2689,-10.7744 37.7916,-11.4333 42.6846,-12.0864 47.175,-12.6506 51.5063,-13.1909 56.0446,-13.3783 61.0552,-13.4598 65.8433,-13.858 69.6089,-14.3101 73.3698,-14.4642 77.814,-14.7687 82.2188,-15.2301 87.0239,-15.5304 92.1271,-15.6326 96.601,-15.6799 100.3143,-15.7104 104.1703,-15.737 108.1861,-15.7611 111.8925,-15.7836 115.392,-15.8075 119.1288,-15.5432 122.6292,-15.1447 126.008,-14.9845 129.7757,-14.9366 133.8757,-14.9274 138.1913,-14.9296 142.3329,-14.9351 146.5365,-14.9453 151.7262,-14.7045 156.2308,-14.3497 159.4848,-14.173 162.841,-14.0643 167.415,-13.7354 172.7013,-13.27 176.9975,-13.0432 180.9782,-12.6157 185.1238,-11.8693 189.1081,-11.3432 193.2592,-11.1313 197.7315,-11.0585 202.1491,-11.036 207.2134,-10.7647 212.1437,-10.3367 216.3825,-10.124 220.5099,-10.0569 224.4746,-10.0321 228.5193,-10.0155 232.4643,-10.0023 236.03,-9.9909 239.2587,-9.9802 242.8561,-9.9707 246.5572,-9.9616 250.0365,-9.6194 253.5284,-9.1632 257.9176,-9.0118 262.6107,-8.9674 267.1121,-8.8984 269.6634,-8.8405 A2.9805,2.9805 0 0 1 269.6566,-2.8795 T267.1004,-2.8274 262.5818,-2.7794 257.7738,-2.8047 253.0438,-2.9586 249.6749,-3.4069 246.5571,-3.7184 242.8561,-3.7093 239.2586,-3.6999 236.0295,-3.6894 232.4625,-3.6788 228.5134,-3.6685 224.4543,-3.662 220.4399,-3.6741 216.1651,-3.7396 211.3582,-4.0045 206.587,-4.4163 202.1278,-4.6201 197.6628,-4.6397 193.0121,-4.718 188.0707,-5.0507 183.8538,-5.6144 180.4586,-6.2695 176.7454,-6.6874 171.9975,-6.9565 166.8063,-7.3967 162.6618,-7.6525 159.1365,-7.7384 154.3354,-8.1384 148.8522,-8.4888 144.3291,-8.5023 140.2952,-8.5105 135.9341,-8.5197 131.6656,-8.5375 127.7259,-8.5848 123.6959,-8.7427 119.4038,-9.2226 115.3921,-9.5925 111.8926,-9.6163 108.1865,-9.6386 104.1717,-9.6619 100.3198,-9.6856 96.6167,-9.7057 92.1753,-9.7155 87.248,-9.6824 82.997,-9.496 78.4519,-9.0841 73.5476,-8.7933 68.844,-8.6276 64.9635,-8.2464 61.0916,-8.0119 56.1659,-8.02 52.0044,-7.943 48.606,-7.5005 45.1539,-7.0833 40.957,-6.8548 36.9648,-6.3704 33.7497,-5.9728 30.1585,-5.6742 25.3431,-5.0485 19.0059,-4.2789 13.249,-3.179 9.0468,-1.8922 5.533,-0.7509 2.5261,0.7857 1.145,1.7161 A2.063,2.063 0 0 1 -1.145,-1.7161 Z" stroke-linecap="round" fill="#ffc034"/></g></g><g transform="matrix(1, 0, 0, 1, 2999.0178, 27019.4304)" opacity="1"><g transform="scale(1)"><path d="M0,1.9532 T-2.0788,1.997 -5.9462,2.0622 -9.3725,2.0959 -13.4938,2.1069 -18.2486,2.079 -20.52,2.0524 A2.0524,2.0524 0 0 1 -20.52,-2.0524 T-18.2486,-2.079 -13.4938,-2.1069 -9.3725,-2.0959 -5.9462,-2.0622 -2.0788,-1.997 0,-1.9532 A1.9532,1.9532 0 0 1 0,1.9532 Z" stroke-linecap="round" fill="#ffc034"/></g></g><g transform="matrix(1, 0, 0, 1, 2974.592, 27021.3845)" opacity="1"><g transform="scale(1)"><path d="M1.905,-0.3818 T2.1624,0.7757 2.4099,5.5393 2.3869,11.3824 2.5115,15.4383 2.6494,17.2572 A2.2384,2.2384 0 0 1 -1.6508,18.5021 T-1.9194,17.4369 -2.1521,14.9377 -2.0139,11.2547 -1.7021,5.8492 -1.6989,1.5373 -1.905,0.3818 A1.9429,1.9429 0 0 1 1.905,-0.3818 ZM-0.6559,15.9624 T-0.4116,15.8242 -0.1672,15.686 A2.223,2.223 0 0 1 2.1272,19.494 T1.8909,19.6455 1.6545,19.7969 A2.2384,2.2384 0 0 1 -0.6559,15.9624 Z" stroke-linecap="round" fill="#ffc034"/></g></g><g transform="matrix(1, 0, 0, 1, 3012.6962, 26879.7149)" opacity="1"><g transform="scale(1)"><path d="M1.8749,0 T1.8976,1.3859 1.9449,4.8243 1.9817,8.5284 1.5432,11.6689 1.0925,13.1578 A2.0171,2.0171 0 0 1 -2.7657,11.9794 T-2.3798,11.0328 -1.9817,8.4814 -1.9449,4.8243 -1.8976,1.3859 -1.8749,0 A1.8749,1.8749 0 0 1 1.8749,0 ZM-2.851,12.6718 T-2.8773,11.9951 -2.5496,9.4554 -1.7254,5.68 -0.7654,1.83 0.8006,-2.3558 1.8768,-4.604 A1.8855,1.8855 0 0 1 5.0053,-2.4987 T4.2261,-0.986 2.9891,2.4551 2.1123,6.2396 1.394,9.6336 1.1363,11.8184 1.1779,12.4653 A2.0171,2.0171 0 0 1 -2.851,12.6718 ZM5.2864,-3.9382 T5.4745,-3.065 5.7503,0.145 6.4752,2.929 7.1125,3.3764 A2.0771,2.0771 0 0 1 4.4408,6.5575 T3.1924,4.6823 1.9204,0.5636 1.7463,-2.4223 1.5957,-3.1644 A1.8855,1.8855 0 0 1 5.2864,-3.9382 ZM5.0892,3.0069 T5.7864,2.7472 7.5414,1.4031 10.1157,-1.2806 13.0626,-4.6561 14.7271,-6.9023 14.9612,-7.3725 A2.1051,2.1051 0 0 1 18.6714,-5.3825 T17.5844,-3.7947 15.6161,-1.0559 13.2913,1.6149 9.884,4.7906 7.1922,6.6867 6.4642,6.9269 A2.0771,2.0771 0 0 1 5.0892,3.0069 ZM17.9867,-8.1273 T18.1693,-8.0043 18.3518,-7.8813 A2.1037,2.1037 0 0 1 16.0127,-4.3841 T15.8293,-4.5059 15.646,-4.6277 A2.1051,2.1051 0 0 1 17.9867,-8.1273 ZM19.2515,-6.5123 T19.3484,-5.9856 19.5704,-3.3552 19.7536,0.2036 20.2655,4.476 20.8285,8.8004 21.4997,13.2291 22.0619,16.1507 A2.5634,2.5634 0 0 1 17.0181,17.0693 T16.7298,15.4378 16.1655,12.1736 15.802,7.7527 15.5398,1.916 15.335,-2.9182 15.209,-5.2285 15.1131,-5.7531 A2.1037,2.1037 0 0 1 19.2515,-6.5123 Z" stroke-linecap="round" fill="#ffc034"/></g></g><g transform="matrix(1, 0, 0, 1, 2852.4631, 27043.8562)" opacity="1"><g transform="scale(1)"><path d="M2.1022,0.4213 T1.8921,1.582 1.2745,4.6211 0.7218,7.947 0.2895,11.3452 -0.344,15.1126 -0.6903,16.9295 A2.2623,2.2623 0 0 1 -5.1697,16.2905 T-4.9491,14.1334 -4.4207,10.4223 -3.7853,6.9865 -3.0334,3.4938 -2.3557,0.7309 -2.1022,-0.4213 A2.144,2.144 0 0 1 2.1022,0.4213 Z" stroke-linecap="round" fill="#ffc034"/></g></g><g transform="matrix(1, 0, 0, 1, 2864.1874, 27043.8562)" opacity="1"><g transform="scale(1)"><path d="M1.4958,0.4989 T0.5109,4.023 -1.1395,9.9695 -2.5417,15.1859 -3.2784,17.9798 A1.6581,1.6581 0 0 1 -6.5016,17.2002 T-5.8802,14.3785 -4.7054,8.9391 -2.8239,2.9112 -1.4958,-0.4989 A1.5768,1.5768 0 0 1 1.4958,0.4989 Z" stroke-linecap="round" fill="#ffc034"/></g></g><g transform="matrix(1, 0, 0, 1, 2862.2334, 27052.6495)" opacity="1"><g transform="scale(1)"><path d="M0.2607,1.4372 T-2.2789,1.9134 -7.6493,2.9142 -10.4799,3.4389 A1.5132,1.5132 0 0 1 -11.0201,0.4611 T-8.1855,-0.0419 -2.8058,-0.9911 -0.2607,-1.4372 A1.4607,1.4607 0 0 1 0.2607,1.4372 Z" stroke-linecap="round" fill="#ffc034"/></g></g><g transform="matrix(1, 0, 0, 1, 2875.9118, 27050.6954)" opacity="1"><g transform="scale(1)"><path d="M0.5511,2.7501 T-0.6041,2.9605 -3.1847,4.3584 -5.2131,7.1152 -4.1419,9.0503 -0.354,9.211 3.44,7.1524 4.2175,3.8506 3.3145,2.4025 A2.4752,2.4752 0 0 1 4.5055,-2.4025 T6.5271,-1.9445 10.0988,0.641 11.5164,4.3381 10.4554,7.4095 7.5041,11.155 2.4716,14.0533 -3.4608,14.3443 -7.6749,13.2206 -10.0318,10.1274 -10.4575,5.7015 -8.5223,2.056 -5.0466,-0.8703 -1.7088,-2.4969 -0.5511,-2.7501 A2.8047,2.8047 0 0 1 0.5511,2.7501 Z" stroke-linecap="round" fill="#ffc034"/></g></g><g transform="matrix(1, 0, 0, 1, 2896.4295, 27048.7414)" opacity="1"><g transform="scale(1)"><path d="M2.5137,0.7618 T2.1994,1.718 3.9066,3.9679 7.1839,6.3739 8.8325,10.2519 4.9274,13.4944 -3.0451,14.0415 -6.7197,14.1118 A2.3948,2.3948 0 0 1 -6.9603,9.3282 T-3.2971,9.0295 2.6542,8.8764 3.8054,9.4099 0.3545,7.9234 -2.6301,4.0229 -2.9072,0.6175 -2.5137,-0.7618 A2.6266,2.6266 0 0 1 2.5137,0.7618 Z" stroke-linecap="round" fill="#ffc034"/></g></g></svg>