<svg xmlns="http://www.w3.org/2000/svg" direction="ltr" width="664" height="449" viewBox="78 48 664 449" stroke-linecap="round" stroke-linejoin="round" data-color-mode="dark" class="tl-container tl-theme__force-sRGB tl-theme__dark" style="background-color: transparent;"><defs/><g transform="matrix(1, 0, 0, 1, 278, 80)" opacity="1"><g transform="scale(1)"><path d="M2.5036,0 T2.4871,1.419 2.4539,4.9387 2.4257,9.2618 2.4116,13.5168 2.4115,17.6198 2.4236,21.937 2.4443,26.3446 2.4609,30.5794 2.9346,35.4046 3.4371,40.2039 3.47,44.3834 3.4623,48.5849 3.9121,53.1459 4.4015,58.1138 4.7749,62.7637 5.2526,67.6113 5.395,72.5621 5.3979,76.8603 5.3899,81.3453 5.3784,86.0048 5.3674,90.3545 5.3585,94.5303 5.3523,98.7065 5.3468,103.2988 5.3421,107.9641 5.3385,112.3486 5.3356,116.5952 5.5138,120.6884 5.9841,125.3705 6.3146,130.5692 6.3632,135.2906 6.3772,139.5207 6.3885,143.5547 6.4031,147.8618 6.7704,152.4051 7.265,157.0276 7.4242,161.7771 7.459,166.5586 7.209,172.1761 6.757,177.766 6.5356,182.6289 6.5007,187.7266 6.494,193.1197 6.0644,198.499 5.5832,203.6035 5.5291,208.9599 5.5342,214.0385 5.5453,218.4433 5.5569,222.6805 5.5681,226.7464 5.58,231.1258 5.5908,235.9534 5.6019,240.9056 5.6151,245.7676 5.6277,250.6047 5.6426,255.5594 5.6585,260.5417 6.0237,265.1499 6.4906,269.8116 6.6278,275.1066 6.8803,280.1922 7.3153,285.3307 7.5819,290.9641 7.8681,296.1543 8.3121,301.3208 8.5862,306.961 8.6659,312.3832 8.692,317.8589 8.703,323.7135 8.7087,329.3119 8.715,334.8393 8.7249,340.5833 8.4791,346.3785 8.0578,351.7276 7.8389,356.5974 7.7771,361.5577 7.7617,366.3102 7.7589,370.8803 7.4841,376.3367 6.9357,382.3214 6.6622,385.1584 A2.6669,2.6669 0 0 1 1.3378,384.8416 T1.3882,383.6099 1.6418,380.2795 2.0439,375.6841 2.2451,370.8759 2.2527,366.2962 2.2748,361.5096 2.3482,356.4263 2.6156,351.1394 3.0479,345.9238 3.275,340.5834 3.2847,334.8395 3.2902,329.3129 3.2929,323.7169 3.2933,317.8718 3.2811,312.4287 3.2227,307.1429 3,301.9373 2.5524,296.6588 2.229,291.1442 2.0037,285.943 1.5653,280.6774 1.2736,275.2055 1.1545,270.1958 0.6986,265.4639 0.3415,260.5521 0.3574,255.5594 0.3723,250.6047 0.3849,245.7676 0.3981,240.9056 0.4092,235.9534 0.42,231.1257 0.432,226.7463 0.4434,222.6802 0.4558,218.4423 0.4698,214.0341 0.4955,208.9284 0.5846,203.3995 1.0822,198.287 1.5079,193.0813 1.5122,187.7094 1.5528,182.5155 1.847,177.089 2.317,171.5989 2.5341,166.5675 2.5292,161.8501 2.4167,157.4228 1.9519,152.7351 1.5968,147.8619 1.6113,143.5551 1.6209,139.5237 1.6238,135.3073 1.5969,130.6811 1.4118,126.2078 0.9592,121.4278 0.6644,116.5952 0.6615,112.3486 0.6579,107.9641 0.6532,103.2988 0.6477,98.7065 0.6415,94.5303 0.6326,90.3545 0.6201,85.4701 0.6078,80.3095 0.597,75.8444 0.5671,71.3483 0.3988,66.8604 -0.1007,62.0975 -0.5197,57.1743 -1.0197,52.8514 -1.4642,48.6184 -1.4829,44.4024 -1.5528,39.6368 -2.039,34.8517 -2.4609,30.6098 -2.4443,26.3446 -2.4236,21.937 -2.4115,17.6198 -2.4116,13.5168 -2.4257,9.2618 -2.4539,4.9387 -2.4871,1.419 -2.5036,0 A2.5036,2.5036 0 0 1 2.5036,0 Z" stroke-linecap="round" fill="#f2f2f2"/></g></g><g transform="matrix(1, 0, 0, 1, 110, 284)" opacity="1"><g transform="scale(1)"><path d="M-0.4425,-2.2125 T0.7234,-2.434 4.2549,-3.3733 8.7426,-4.1485 13.3443,-3.8693 17.8762,-3.3864 22.3796,-2.89 26.8799,-2.3994 31.4083,-2.2597 35.8868,-2.2689 40.247,-2.2868 44.7363,-2.3063 49.3357,-2.3289 53.8434,-2.351 58.3094,-2.3698 63.0433,-2.3895 67.5959,-2.409 71.8635,-2.4249 76.2452,-2.4417 80.6126,-2.451 84.6598,-2.9242 88.7868,-3.4445 93.1237,-3.8017 97.6169,-4.3094 102.2058,-4.939 106.6895,-5.4517 111.2333,-6.0037 115.6733,-6.5178 120.2153,-6.5714 125.1606,-6.5884 130.0907,-6.6023 134.7242,-6.6195 139.3348,-6.6376 144.5131,-6.655 149.2369,-7.0966 153.4481,-7.6094 157.91,-7.707 162.3414,-7.7341 166.5283,-7.7498 170.858,-7.7676 175.1796,-7.7807 179.8023,-8.2565 185.1056,-9.1204 190.5377,-9.6711 195.5553,-9.8498 200.2865,-9.876 205.1661,-9.8908 210.172,-10.2534 215.0869,-10.7523 219.7551,-11.2483 224.4496,-11.7709 229.2749,-11.9626 234.2311,-11.9982 239.2275,-12.0245 244.0369,-12.0483 248.8659,-12.0675 253.4619,-11.6601 257.5513,-11.197 261.8641,-11.1512 266.2087,-11.1596 270.2597,-11.1734 274.3918,-11.1883 278.6015,-11.2038 282.6979,-11.2177 286.712,-11.229 290.7932,-11.2386 294.8787,-11.2466 298.8853,-11.2497 303.1177,-10.9349 307.6377,-10.4445 311.9735,-10.2437 315.9848,-9.7996 320.2805,-9.3251 325.4335,-9.2623 330.2141,-8.8231 334.7347,-8.3374 339.6447,-8.2832 344.5381,-8.2886 349.2862,-8.3012 353.6729,-8.3163 358.4662,-8.6505 363.0464,-9.4645 366.922,-10.5526 368.8281,-11.1524 A3.3632,3.3632 0 0 1 371.1719,-4.8476 T368.7852,-4.1384 364.3508,-2.9353 359.5863,-2.0564 354.7736,-1.6801 350.5696,-1.6951 346.174,-1.7086 341.218,-1.7243 336.5179,-1.7522 332.2502,-1.9267 327.642,-2.4116 323.2732,-2.753 318.5462,-2.9195 312.8095,-3.4243 307.3883,-3.9332 302.4295,-4.4213 297.8848,-4.7511 293.8723,-4.7553 289.71,-4.7638 285.5559,-4.7741 281.5291,-4.786 277.3462,-4.801 272.9481,-4.8168 268.6957,-4.8325 264.5877,-4.8521 260.3064,-4.8905 255.5947,-5.0832 250.3359,-5.5907 245.202,-5.945 240.3026,-5.9702 235.3066,-5.995 230.3596,-6.014 225.6227,-5.9291 221.0352,-5.4371 216.1833,-4.9362 211.1832,-4.4667 206.2702,-4.1056 201.3359,-4.1197 196.7352,-4.1281 192.2258,-4.0791 187.7381,-3.5999 182.9637,-3.077 177.9912,-2.5968 173.6004,-2.2211 169.3844,-2.2399 165.2092,-2.2545 160.8644,-2.2659 156.5717,-2.2636 152.0284,-2.1056 147.0316,-1.6474 142.0939,-1.3499 137.2021,-1.3708 132.3039,-1.3895 127.3239,-1.4047 122.5811,-1.4149 117.8504,-1.407 113.263,-1.2176 108.6041,-0.7126 104.0355,0.0652 99.5134,0.4785 94.4556,0.9726 89.4664,1.5282 84.9104,2.0013 80.6941,2.451 76.2452,2.4417 71.8635,2.4249 67.5959,2.409 63.0433,2.3895 58.3094,2.3698 53.8434,2.351 49.3357,2.3289 44.7363,2.3063 40.2469,2.2867 35.8849,2.268 31.8736,2.2444 27.729,2.1458 23.2292,1.635 18.7305,1.1302 14.2457,0.6354 9.4823,0.2726 4.9558,1.0181 1.6416,1.961 0.4425,2.2125 A2.2563,2.2563 0 0 1 -0.4425,-2.2125 Z" stroke-linecap="round" fill="#f2f2f2"/></g></g><g transform="matrix(1, 0, 0, 1, 161, 281)" opacity="1"><g transform="scale(1)"><path d="M-2.5444,0 T-2.5281,-1.419 -2.1781,-5.642 -1.2833,-10.6206 -0.1564,-15.1965 1.3109,-20.2919 3.4155,-25.5602 4.9902,-30.1897 5.8739,-34.3925 7.2499,-39.2876 8.6784,-44.5033 10.1313,-49.072 11.9974,-53.6794 13.9633,-58.343 15.9483,-62.4165 17.9657,-66.0974 20.712,-70.2079 23.6689,-74.561 26.3803,-79.0297 29.1237,-83.0548 31.6278,-86.2707 34.4723,-89.6204 37.8561,-93.1521 41.612,-96.5501 45.872,-99.3681 50.5277,-101.9869 54.5322,-104.529 58.4101,-107.012 62.749,-109.4099 66.7443,-111.8965 70.7392,-114.413 75.0818,-116.6916 79.3398,-118.8623 83.1835,-120.7574 87.2302,-122.3031 91.5405,-123.5383 96.3195,-124.9402 101.1337,-125.9724 105.8569,-126.6126 110.7676,-127.4546 115.4552,-128.0409 120.2402,-128.6974 124.698,-129.1938 128.6987,-129.6923 132.7642,-130.2025 136.8765,-130.2375 141.5701,-129.8446 146.7759,-128.948 151.421,-127.6915 155.5525,-126.4265 160.1831,-124.834 164.8,-122.7769 168.8573,-120.5905 172.9086,-118.3446 177.349,-115.816 181.8495,-112.5391 185.8684,-109.5323 189.8718,-106.5338 193.5171,-103.5508 196.6406,-100.8599 199.7701,-97.3565 202.8642,-93.4239 205.5782,-89.7406 208.13,-86.121 210.6338,-82.5981 212.7394,-78.9839 214.68,-75.017 216.6914,-70.504 218.6482,-66.0157 221.0303,-62.0603 223.4541,-58.0931 225.4941,-54.0355 227.5212,-49.9748 229.5572,-45.4743 231.5497,-41.0411 233.4975,-37.0142 235.0522,-32.9168 235.708,-28.7848 236.3842,-24.4309 237.2994,-20.0155 237.7989,-15.5257 238.3312,-12.0472 238.6941,-10.8838 A2.8354,2.8354 0 0 1 233.3059,-9.1162 T232.9975,-9.9239 232.223,-13.7805 231.3628,-18.9309 230.5613,-23.2926 229.9519,-27.5994 228.9868,-32.0527 226.9697,-36.9591 225.0225,-41.3669 223.1563,-45.2111 221.1497,-49.1918 219.0154,-53.313 216.5025,-57.8027 213.9646,-62.3164 211.8942,-66.394 210.2057,-70.7738 207.9353,-75.2183 205.4033,-79.2014 202.8979,-82.6983 200.1149,-86.5802 197.4236,-90.4954 194.4322,-93.942 190.8683,-97.4937 187.3071,-100.4668 183.3101,-103.4705 179.3121,-106.4688 175.3325,-109.4072 171.5003,-112.1983 167.8552,-114.3596 163.6329,-116.725 158.979,-119.0238 154.5264,-120.492 150.298,-121.5822 145.5936,-122.6579 140.4977,-123.4516 135.9037,-123.7515 131.5954,-123.6353 126.1925,-123.1011 121.0803,-122.2217 116.6633,-121.6551 112.1887,-121.1201 107.989,-120.2432 103.6236,-119.7183 99.3363,-119.1083 94.9433,-118.0959 90.1094,-116.882 85.2005,-115.1811 80.7514,-113.22 76.6876,-110.9439 72.7286,-108.5021 68.6972,-106.0107 64.0832,-103.2057 59.2208,-100.2915 55.1655,-97.8052 51.145,-95.7617 46.8922,-93.3284 42.9661,-90.2075 39.5059,-86.7195 36.6192,-83.3903 33.7267,-79.8689 30.9034,-75.5563 28.3237,-71.5772 25.6507,-67.9057 23.2146,-64.0288 21.1641,-60.4289 19.124,-56.8416 17.1895,-52.8604 15.2265,-47.7963 13.2975,-42.133 11.8447,-36.956 10.7102,-32.316 9.5371,-28.2025 8.0049,-24.2164 6.3256,-19.8884 4.9342,-15.4386 3.6878,-10.7332 2.821,-5.5206 2.5281,-1.419 2.5444,0 A2.5444,2.5444 0 0 1 -2.5444,0 Z" stroke-linecap="round" fill="#4dabf7"/></g></g><g transform="matrix(1, 0, 0, 1, 161, 285)" opacity="1"><g transform="scale(1)"><path d="M2.5325,0.5065 T2.2829,1.6863 1.8171,5.1861 1.5646,9.6832 1.5277,14.3335 1.5315,19.2043 1.5403,23.733 1.5491,28.1105 1.9733,32.4403 2.9847,36.5235 4.509,40.5105 6.3894,44.3079 8.7522,48.5528 11.5626,52.997 14.0585,57.0709 16.5173,61.0939 19.355,65.0457 22.3325,69.0346 25.3725,73.0091 28.7818,76.8339 32.2259,80.376 35.7339,83.8714 39.4212,86.8256 43.3491,89.4668 47.4942,91.8866 51.4307,93.7923 55.6543,95.7663 60.617,97.7568 66.06,99.7751 70.9983,101.4289 76.0749,102.9445 81.3141,104.3066 86.3935,105.3108 92.1697,106.2524 97.439,106.8286 101.9136,107.0005 106.5647,107.3552 111.6532,107.8244 116.4579,107.9467 120.9836,108.3704 125.475,108.8412 129.8538,108.8939 134.4083,108.5469 138.9954,108.0645 143.2713,107.4827 147.1274,106.3882 151.3727,105.0266 156.5978,103.286 161.8208,101.3262 165.9931,99.3044 169.7891,97.1641 173.4594,94.423 176.8445,90.8348 179.9309,87.4042 182.9339,83.9033 186.027,80.3728 188.9799,76.9479 191.8589,73.2289 194.8772,69.6814 197.4405,66.1336 199.9533,61.8164 202.9603,56.9275 205.8825,52.472 208.3316,48.6191 210.8447,44.2896 213.7612,39.858 216.6574,35.9452 219.6927,31.7633 222.2424,27.0085 224.3624,21.964 225.9745,17.2909 226.5941,12.4331 227.1642,7.2001 228.0735,2.5474 229.309,-2.2737 230.0775,-5.0064 A3.091,3.091 0 0 1 235.9225,-2.9936 T235.4937,-1.1931 234.5791,2.8788 233.6599,7.5273 233.1423,12.3677 232.5334,16.8769 231.3582,21.0768 229.6836,25.7929 227.5951,30.8741 225.0863,35.4427 222.1645,39.465 219.1256,43.5733 216.0431,48.24 213.5288,52.5789 211.0142,56.4919 208.525,60.4198 206.1618,64.3274 203.6342,68.0899 200.9309,72.1033 197.8288,76.4366 194.9589,79.9611 191.9599,83.4503 188.7371,87.172 185.214,91.188 181.8771,94.9822 179.1595,98.0393 175.7038,101.0235 171.6547,103.5828 167.1468,105.7363 162.2681,107.6927 157.6347,109.5193 153.2931,111.0486 148.5868,112.4598 143.7734,113.7102 139.012,114.315 133.4304,114.7852 128.289,115.0658 123.5179,114.8881 118.2535,114.3816 113.5507,113.9855 109.0629,113.4615 104.5399,112.9737 100.3166,112.92 95.7735,112.5565 91.1297,111.9025 86.6379,111.1254 81.9252,110.1621 77.0958,109.0306 72.8047,107.8644 68.2451,106.2991 63.4176,104.5286 59.3236,102.9481 55.139,101.1544 50.4786,99.2469 45.9264,97.0875 42.0077,94.6787 38.3177,92.3777 34.7986,89.7333 31.6564,86.9643 28.5882,84.1468 25.547,81.0144 22.4806,77.4957 19.3602,73.5959 16.2293,69.6406 13.2386,65.5396 10.4139,61.0939 7.9857,56.931 5.4644,53.1083 3.0799,49.1874 1.1065,45.2346 -0.8519,41.1753 -2.2834,36.7773 -3.1615,32.3725 -3.5491,28.1105 -3.5403,23.7329 -3.531,19.2033 -3.5213,14.3195 -3.4815,9.5496 -3.213,4.5644 -2.7559,0.6787 -2.5325,-0.5065 A2.5827,2.5827 0 0 1 2.5325,0.5065 Z" stroke-linecap="round" fill="#9398b0"/></g></g><g transform="matrix(1, 0, 0, 1, 414, 164)" opacity="1"><g transform="scale(1)"><path d="M-2.1046,-2.1046 T-1.38,-2.7857 -3.2451,-3.4737 -7.7477,-2.6229 -11.6424,-0.0555 -15.0507,3.9049 -17.4969,8.4186 -19.5013,13.2368 -20.9472,17.9793 -21.9505,22.357 -22.9327,26.8852 -23.667,30.1092 -23.961,30.9954 A3.1978,3.1978 0 0 1 -30.039,29.0046 T-29.5124,27.0098 -28.6207,23.0252 -27.5558,19.0426 -26.187,14.7134 -24.5099,9.4571 -21.9311,4.0368 -19.0793,-0.4005 -16.2215,-3.8791 -12.5333,-6.4208 -8.5816,-8.2295 -4.4612,-9.368 0.3213,-8.9274 3.8884,-6.0579 4.2233,-1.6649 2.799,1.3667 2.1046,2.1046 A2.9763,2.9763 0 0 1 -2.1046,-2.1046 Z" stroke-linecap="round" fill="#9398b0"/></g></g><g transform="matrix(1, 0, 0, 1, 380, 178)" opacity="1"><g transform="scale(1)"><path d="M2.7698,-0.9233 T3.2043,0.5089 4.0394,3.8882 5.1412,7.9939 6.5571,12.4753 7.8725,17.0163 10.505,19.0651 13.3604,18.6613 14.1841,18.4267 A2.6995,2.6995 0 0 1 15.8159,23.5733 T15.0075,23.8561 11.4308,24.3847 6.5212,23.4308 3.6183,20.1169 1.9117,15.5777 0.3434,11.061 -1.0135,6.3522 -2.2583,2.3291 -2.7698,0.9233 A2.9197,2.9197 0 0 1 2.7698,-0.9233 Z" stroke-linecap="round" fill="#9398b0"/></g></g><g transform="matrix(1, 0, 0, 1, 442, 155)" opacity="1"><g transform="scale(1)"><path d="M2.7401,0.3914 T2.4816,2.0437 2.2441,5.84 3.0661,9.8961 6.1086,12.1304 8.8167,10.2538 9.1142,7.3675 8.9451,6.6799 A2.6285,2.6285 0 0 1 14.0825,5.5649 T14.1998,8.7649 13.444,13.9209 10.2911,16.905 5.1062,17.2822 0.4008,15.1251 -2.2129,11.1835 -3.0977,5.837 -2.9546,1.2673 -2.7401,-0.3914 A2.7679,2.7679 0 0 1 2.7401,0.3914 ZM10.9047,8.6794 T10.7838,8.6479 10.6629,8.6165 A2.6234,2.6234 0 0 1 11.8787,3.5126 T12.0008,3.539 12.1229,3.5654 A2.6285,2.6285 0 0 1 10.9047,8.6794 ZM13.8767,6.3666 T13.7554,7.2671 14.9281,10.5452 17.2824,15.1422 19.1851,19.6871 20.6525,24.5035 21.4926,29.6438 21.117,34.9417 18.7787,39.6065 14.3995,42.1648 8.2836,41.472 1.9778,38.7496 -3.1769,35.2423 -7.2647,30.943 -9.0195,28.6631 A2.6161,2.6161 0 0 1 -4.9805,25.3369 T-4.0479,26.381 -1.3979,29.0561 2.3517,32.1288 7.1091,34.815 12.4248,35.9056 15.4976,33.0272 15.7662,28.1301 15.0117,23.8019 13.5507,19.4433 11.2598,14.8857 9.1671,10.2403 8.555,6.8558 8.6649,5.7624 A2.6234,2.6234 0 0 1 13.8767,6.3666 Z" stroke-linecap="round" fill="#9398b0"/></g></g><g transform="matrix(1, 0, 0, 1, 469, 157)" opacity="1"><g transform="scale(1)"><path d="M-0.3712,-2.227 T1.0426,-2.4949 4.9126,-3.1884 8.3462,-3.8934 9.3237,-4.1728 A2.2756,2.2756 0 0 1 10.6763,0.1728 T9.7129,0.4975 5.9846,1.3196 1.7954,2.0219 0.3712,2.227 A2.2577,2.2577 0 0 1 -0.3712,-2.227 Z" stroke-linecap="round" fill="#9398b0"/></g></g><g transform="matrix(1, 0, 0, 1, 469, 165)" opacity="1"><g transform="scale(1)"><path d="M-0.4155,-2.493 T0.9993,-2.7551 4.7711,-3.1977 8.498,-3.4235 9.868,-3.4689 A2.4724,2.4724 0 0 1 10.132,1.4689 T8.7651,1.5699 5.33,1.8711 1.8387,2.2821 0.4155,2.493 A2.5274,2.5274 0 0 1 -0.4155,-2.493 Z" stroke-linecap="round" fill="#9398b0"/></g></g><g transform="matrix(1, 0, 0, 1, 281, 273)" opacity="1"><g transform="scale(1)"><path d="M2.085,2.085 T1.3465,2.7524 -0.294,4.8164 -1.1959,6.2129 A2.6859,2.6859 0 0 1 -5.7859,3.4221 T-4.6159,1.4201 -2.7655,-1.3334 -2.085,-2.085 A2.9487,2.9487 0 0 1 2.085,2.085 ZM-2.5846,7.3459 T-2.8399,7.4351 -3.0952,7.5242 A2.6815,2.6815 0 0 1 -4.9048,2.4758 T-4.651,2.3824 -4.3972,2.2891 A2.6859,2.6859 0 0 1 -2.5846,7.3459 ZM-4.982,2.5048 T-4.6692,2.4685 -2.6749,0.7182 0.655,-2.2286 4.1145,-5.2031 7.8577,-8.8943 11.3916,-12.7061 14.9349,-16.4021 18.7701,-20.1359 22.9747,-24.1404 27.4349,-27.8899 31.0958,-31.3048 34.3683,-34.6557 37.6016,-37.6873 41.1208,-41.063 45.4229,-45.1716 49.2009,-48.9328 52.7767,-52.5862 56.3943,-55.9234 59.5638,-58.7671 62.7849,-61.8532 65.8943,-65.2707 69.2456,-68.7886 72.629,-71.9209 76.1083,-75.1184 78.062,-76.7879 A3.3954,3.3954 0 0 1 81.938,-71.2121 T79.7568,-69.3613 75.9943,-65.9622 72.9319,-62.8114 69.7701,-59.2467 66.3298,-55.8246 62.7628,-52.7384 58.9423,-49.0981 55.444,-45.5825 52.5111,-42.5654 48.7601,-38.9324 44.2294,-34.9335 39.7068,-30.8393 35.5423,-26.6011 31.4497,-22.9589 27.0941,-19.5028 22.9622,-15.7668 19.289,-12.4354 15.7045,-8.8964 11.7786,-4.862 7.7635,-1.1073 4.0935,1.9235 0.6596,4.8489 -2.061,7.0318 -3.018,7.4952 A2.6815,2.6815 0 0 1 -4.982,2.5048 Z" stroke-linecap="round" fill="#f76707"/></g></g><g transform="matrix(1, 0, 0, 1, 362, 201)" opacity="1"><g transform="scale(1)"><path d="M2.5019,-0.3574 T2.7143,1.3016 3.1069,5.5957 3.3334,10.4239 3.4016,15.2558 3.4418,20.6055 3.4774,25.7228 3.5057,30.3132 3.5256,34.5243 3.5426,38.5552 3.9781,42.9917 4.4814,47.5478 4.5735,51.6897 4.5983,55.7901 4.6163,60.3052 4.6403,64.8064 4.67,69.3527 4.6847,72.9155 4.6844,74 A2.6844,2.6844 0 0 1 -0.6844,74 T-0.675,70.9399 -0.6489,65.844 -0.6213,61.3437 -0.6045,56.8391 -0.5993,52.2782 -0.6982,47.4014 -1.1735,42.8023 -1.5426,38.5552 -1.5256,34.5243 -1.5059,30.3134 -1.4783,25.7242 -1.4486,20.6137 -1.4482,15.3047 -1.5204,10.6011 -1.7802,6.0813 -2.2413,2.0094 -2.5019,0.3574 A2.5273,2.5273 0 0 1 2.5019,-0.3574 Z" stroke-linecap="round" fill="#f76707"/></g></g><g transform="matrix(1, 0, 0, 1, 492, 150)" opacity="1"><g transform="scale(1)"><path d="M1.8617,-0.266 T2.1199,1.3856 2.9602,5.8049 4.0798,11.1428 4.8762,15.8362 5.0421,19.0423 4.949,20.1253 A1.9531,1.9531 0 0 1 1.051,19.8747 T0.8213,17.0665 0.1006,11.6818 -0.9113,6.3451 -1.6469,1.9254 -1.8617,0.266 A1.8806,1.8806 0 0 1 1.8617,-0.266 Z" stroke-linecap="round" fill="#f76707"/></g></g><g transform="matrix(1, 0, 0, 1, 495, 174)" opacity="1"><g transform="scale(1)"><path d="M-2.2608,-0.7536 T-1.5544,-2.8813 -0.0756,-8.9853 1.1641,-15.0001 2.1099,-19.0601 3.064,-23.302 4.0199,-27.8788 5.2454,-32.7708 6.6041,-37.3108 7.9128,-42.6445 8.89,-48.6496 9.5599,-54.3945 10.2373,-58.5517 10.5267,-59.6399 A2.5547,2.5547 0 0 1 15.4733,-58.3601 T15.1986,-57.2681 14.6226,-53.5257 13.9439,-47.8055 12.7858,-41.2777 11.372,-35.8456 10.0167,-31.5507 8.7849,-26.8583 7.7704,-22.2239 6.7809,-17.9626 5.8337,-13.9651 4.9423,-9.9671 4.0997,-5.7365 2.9734,-1.3757 2.2608,0.7536 A2.3831,2.3831 0 0 1 -2.2608,-0.7536 Z" stroke-linecap="round" fill="#f76707"/></g></g><g transform="matrix(1, 0, 0, 1, 517, 135)" opacity="1"><g transform="scale(1)"><path d="M2.1877,-0.4375 T2.4127,0.7474 2.8725,4.489 3.1396,9.9298 3.1762,14.7985 3.1856,18.7792 3.1962,22.7738 3.1794,27.8184 3.1283,32.4321 3.0996,34 A2.0996,2.0996 0 0 1 -1.0996,34 T-1.1576,31.0249 -1.2055,25.412 -1.1924,20.7777 -1.1919,15.8087 -1.228,10.0315 -1.4766,5.0122 -1.9397,1.6176 -2.1877,0.4375 A2.231,2.231 0 0 1 2.1877,-0.4375 Z" stroke-linecap="round" fill="#f76707"/></g></g><g transform="matrix(1, 0, 0, 1, 532, 154)" opacity="1"><g transform="scale(1)"><path d="M0,-2.0698 T1.419,-2.0936 4.9307,-2.1255 8.7558,-2.5803 10.4882,-3.0269 A2.0906,2.0906 0 0 1 11.5118,1.0269 T9.2835,1.5803 4.9466,2.1255 1.419,2.0936 0,2.0698 A2.0698,2.0698 0 0 1 0,-2.0698 Z" stroke-linecap="round" fill="#f76707"/></g></g><g transform="matrix(1, 0, 0, 1, 573, 146)" opacity="1"><g transform="scale(1)"><path d="M1.6916,1.1277 T0.7716,2.5641 -2.1158,6.8008 -6.0697,12.1936 -9.8125,17.0494 -14.0951,21.4468 -16.6215,23.5807 A2.0974,2.0974 0 0 1 -19.3785,20.4193 T-17.2061,18.4556 -13.2697,14.1978 -9.5163,9.3858 -5.5813,4.2718 -2.6636,0.2739 -1.6916,-1.1277 A2.033,2.033 0 0 1 1.6916,1.1277 Z" stroke-linecap="round" fill="#f76707"/></g></g><g transform="matrix(1, 0, 0, 1, 557, 152)" opacity="1"><g transform="scale(1)"><path d="M1.7204,-1.4337 T2.8985,-0.0132 6.005,3.3813 9.2642,7.0644 12.1876,10.8822 14.3459,13.8759 14.9115,14.761 A2.2779,2.2779 0 0 1 11.0885,17.239 T9.5282,15.0549 6.2029,10.5479 2.5457,6.2468 -0.5335,2.8512 -1.7204,1.4337 A2.2395,2.2395 0 0 1 1.7204,-1.4337 Z" stroke-linecap="round" fill="#f76707"/></g></g><g transform="matrix(1, 0, 0, 1, 572, 133)" opacity="1"><g transform="scale(1)"><path d="M-0.7815,-2.3446 T0.6462,-2.7922 4.7019,-3.7173 10.1585,-3.702 13.61,-1.1457 12.9811,3.1711 10.4196,6.683 9.1098,7.9415 A2.3563,2.3563 0 0 1 6.0129,4.3894 T6.9276,2.4464 5.7222,0.9256 2.1918,1.8462 0.7815,2.3446 A2.4714,2.4714 0 0 1 -0.7815,-2.3446 ZM9.5854,4.959 T9.677,5.2767 11.9492,5.6199 14.1298,5.6455 A2.3581,2.3581 0 0 1 13.8702,10.3545 T12.5868,10.2916 9.1186,9.8076 6.2356,8.3793 5.5373,7.3719 A2.3563,2.3563 0 0 1 9.5854,4.959 Z" stroke-linecap="round" fill="#f76707"/></g></g><g transform="matrix(1, 0, 0, 1, 510, 112)" opacity="1"><g transform="scale(1)"><path d="M0,-2.7448 T1.419,-2.7192 5.4167,-2.6712 10.4234,-2.2782 15.1824,-1.8251 19.9775,-1.9532 25.1505,-2.3823 30.2966,-3.0272 35.0986,-3.5938 39.6493,-3.9918 44.4134,-4.4987 49.4814,-5.1807 54.6194,-5.7623 59.8145,-5.9768 64.5306,-6.0695 69.0663,-5.693 73.473,-5.2416 78.5932,-5.6317 81.673,-6.0699 A3.0872,3.0872 0 0 1 82.327,0.0699 T81.0535,0.2279 77.6382,0.7683 73.2122,1.0741 68.7804,0.5488 64.5218,0.0844 59.9406,0.0788 55.0713,0.1715 49.9919,0.6541 45.1749,1.2033 40.3527,1.6312 35.4958,1.9985 30.7275,2.4843 25.7175,3.0283 20.3287,3.3816 14.8041,3.4702 10.1152,3.0004 5.4067,2.6712 1.419,2.7192 0,2.7448 A2.7448,2.7448 0 0 1 0,-2.7448 Z" stroke-linecap="round" fill="#f76707"/></g></g><g transform="matrix(1, 0, 0, 1, 592, 110)" opacity="1"><g transform="scale(1)"><path d="M1.7547,-0.8774 T2.2367,0.0694 3.2137,3.2748 4.1953,7.4924 4.8407,11.5657 5.4808,16.5958 5.962,19.5115 A2.0219,2.0219 0 0 1 2.038,20.4885 T1.7452,19.3786 1.1266,16.0685 0.5812,11.1289 -0.2325,5.5787 -1.2907,1.8226 -1.7547,0.8774 A1.9619,1.9619 0 0 1 1.7547,-0.8774 Z" stroke-linecap="round" fill="#f76707"/></g></g><g transform="matrix(1, 0, 0, 1, 405, 294)" opacity="1"><g transform="scale(1)"><path d="M2.262,-0.377 T2.5085,1.0404 2.9814,4.546 3.3122,9.2649 3.3735,14.4429 3.3306,16.9902 A2.3306,2.3306 0 0 1 -1.3306,17.0098 T-1.3631,15.6716 -1.4268,11.3751 -1.6335,5.8176 -2.0355,1.7976 -2.262,0.377 A2.2932,2.2932 0 0 1 2.262,-0.377 Z" stroke-linecap="round" fill="#f76707"/></g></g><g transform="matrix(1, 0, 0, 1, 405, 296)" opacity="1"><g transform="scale(1)"><path d="M2.0382,0.8153 T1.5849,2.0071 0.1023,5.093 -1.488,8.0123 -2.0491,9.0376 A2.2097,2.2097 0 0 1 -5.9509,6.9624 T-4.4873,4.2468 -2.5309,0.3579 -2.0382,-0.8153 A2.1952,2.1952 0 0 1 2.0382,0.8153 Z" stroke-linecap="round" fill="#f76707"/></g></g><g transform="matrix(1, 0, 0, 1, 175, 257)" opacity="1"><g transform="scale(1)"><path d="M1.3165,-0.9404 T2.5069,0.7096 5.4677,4.8528 9.1352,9.4416 12.6364,13.6968 15.7684,17.9534 17.2962,20.0504 A1.6068,1.6068 0 0 1 14.7038,21.9496 T13.2937,20.0362 10.2431,15.9518 6.6187,11.5834 2.8338,6.8242 -0.1419,2.6014 -1.3165,0.9404 A1.6179,1.6179 0 0 1 1.3165,-0.9404 Z" stroke-linecap="round" fill="#40c057"/></g></g><g transform="matrix(1, 0, 0, 1, 189, 248)" opacity="1"><g transform="scale(1)"><path d="M1.1,-1.5715 T3.4679,0.0801 7.5981,3.1054 11.0201,5.9314 14.0825,8.9154 16.8755,11.9098 20.8083,15.9906 26.0042,21.1821 31.1255,25.9878 36.3359,30.4246 39.0784,32.6288 A1.7445,1.7445 0 0 1 36.9216,35.3712 T34.0208,33.1373 28.5088,28.5903 23.2658,23.7834 18.0479,18.6665 12.7909,13.169 8.5485,8.9095 5.3006,6.2075 1.2621,3.2309 -1.1,1.5715 A1.9182,1.9182 0 0 1 1.1,-1.5715 Z" stroke-linecap="round" fill="#40c057"/></g></g><g transform="matrix(1, 0, 0, 1, 197, 222)" opacity="1"><g transform="scale(1)"><path d="M1.0386,-1.4281 T3.6483,0.4528 8.3817,4.0698 12.3374,7.4405 15.8399,10.656 19.0988,13.7821 22.2353,16.8502 25.3113,19.8825 28.3543,22.8966 31.5679,25.8601 34.9663,29.1172 38.2278,32.5281 41.51,35.6585 46.0446,39.6143 50.3591,43.4171 53.4908,46.2638 55.1223,47.746 A1.6829,1.6829 0 0 1 52.8777,50.254 T49.7763,47.5221 43.7735,42.3174 39.0483,38.2303 35.6513,34.978 32.5217,31.6628 29.1778,28.4399 25.8804,25.3899 22.8513,22.3783 19.7906,19.3619 16.6677,16.3377 13.4342,13.2886 10.0024,10.1716 6.1853,6.9114 1.5547,3.3312 -1.0386,1.4281 A1.7658,1.7658 0 0 1 1.0386,-1.4281 Z" stroke-linecap="round" fill="#40c057"/></g></g><g transform="matrix(1, 0, 0, 1, 210, 195)" opacity="1"><g transform="scale(1)"><path d="M1.3708,-1.5666 T5.1684,1.7289 11.9298,7.7247 17.2082,12.8349 21.6464,17.4342 25.8213,21.7363 30.0955,25.8689 34.7086,30.1828 39.5464,34.8602 44.4657,39.6818 49.5956,44.2758 54.9164,48.8089 59.9369,53.372 64.7301,57.8882 69.1586,62.1521 72.9101,65.8174 76.2361,68.8809 80.4706,72.5536 84.6829,76.1639 86.228,77.4336 A1.9903,1.9903 0 0 1 83.772,80.5664 T82.1701,79.369 77.744,75.8912 73.2214,72.1713 69.7777,68.999 66.0688,65.3193 61.726,61.0309 57.0556,56.4992 52.1964,51.9715 46.8481,47.332 41.6058,42.5987 36.7165,37.7992 31.9174,33.1956 27.2195,28.8737 22.801,24.6975 18.5591,20.4136 14.2064,15.9009 9.0866,10.9011 2.3996,4.8931 -1.3708,1.5666 A2.0817,2.0817 0 0 1 1.3708,-1.5666 Z" stroke-linecap="round" fill="#40c057"/></g></g><g transform="matrix(1, 0, 0, 1, 250, 192)" opacity="1"><g transform="scale(1)"><path d="M1.2361,-1.7511 T5.2672,1.072 12.4262,6.3596 18.2034,11.352 23.1618,16.1257 27.8507,20.7595 32.6231,25.3164 37.6478,29.5579 42.9636,34.2458 48.4,39.3636 53.779,44.1305 59.0123,48.8023 64.1327,53.395 68.951,57.7114 73.3725,61.6367 77.3473,65.1296 82.3398,68.9586 87.2354,72.2951 88.9968,73.5011 A1.8001,1.8001 0 0 1 87.0032,76.4989 T83.5982,74.3061 78.3871,70.9255 74.7532,68.0999 70.7405,64.6186 66.288,60.6951 61.448,56.4011 56.319,51.8356 51.0793,47.207 45.5608,42.4039 40.1917,37.4403 34.8766,32.871 29.6015,28.5221 24.7027,23.9588 20.0155,19.3643 15.2601,14.705 9.7854,9.8756 2.7738,4.604 -1.2361,1.7511 A2.1434,2.1434 0 0 1 1.2361,-1.7511 Z" stroke-linecap="round" fill="#40c057"/></g></g><g transform="matrix(1, 0, 0, 1, 274, 162)" opacity="1"><g transform="scale(1)"><path d="M1.2917,-1.4904 T4.8503,1.5713 11.0157,6.9627 15.6979,11.2498 19.6181,15.238 23.3278,19.25 27.1491,23.5061 31.2768,28.1251 35.7399,32.6225 40.2516,37.1626 44.8018,41.9432 49.5493,46.7754 54.4337,51.6704 59.1595,56.3558 63.5616,60.6976 67.7803,64.8704 71.6562,68.7279 75.1093,72.1882 79.5225,76.0205 84.1091,79.2773 85.9348,80.3645 A1.8838,1.8838 0 0 1 84.0652,83.6355 T82.2018,82.614 77.0954,79.1757 72.1901,75.1053 68.7317,71.6487 64.8778,67.7665 60.7119,63.5357 56.3841,59.1115 51.725,54.3434 46.879,49.378 42.138,44.475 37.6588,39.7582 33.1148,35.2518 28.4721,30.6611 24.2968,26.1128 20.4405,21.9491 16.7619,18.062 12.9456,14.2418 8.3323,9.9948 2.2447,4.5777 -1.2917,1.4904 A1.9722,1.9722 0 0 1 1.2917,-1.4904 Z" stroke-linecap="round" fill="#40c057"/></g></g><g transform="matrix(1, 0, 0, 1, 321, 175)" opacity="1"><g transform="scale(1)"><path d="M1.4014,-1.2103 T5.8868,3.9997 13.9031,13.1235 20.4931,20.5393 26.5805,27.5405 32.3897,34.3074 37.8005,40.4499 42.9973,46.0204 47.8593,51.0869 51.8759,55.4601 55.4759,59.6484 57.3543,61.8347 A1.7867,1.7867 0 0 1 54.6457,64.1653 T52.7641,61.9818 49.2295,57.8785 45.263,53.5802 40.3618,48.4752 35.1105,42.8226 29.6711,36.6442 23.867,29.9047 17.7905,22.945 11.1721,15.5374 3.1002,6.4063 -1.4014,1.2103 A1.8517,1.8517 0 0 1 1.4014,-1.2103 Z" stroke-linecap="round" fill="#40c057"/></g></g><g transform="matrix(1, 0, 0, 1, 426, 369)" opacity="1"><g transform="scale(1)"><path d="M2.5684,0.7338 T2.1022,2.3913 0.6837,7.406 -1.5338,14.3794 -3.996,21.0258 -6.0067,25.9862 -6.8204,27.9163 A2.6852,2.6852 0 0 1 -11.9247,26.2469 T-11.1066,24.0855 -9.1083,18.9217 -6.7322,12.6123 -4.5323,5.9393 -3.0482,0.9197 -2.5684,-0.7338 A2.6711,2.6711 0 0 1 2.5684,0.7338 ZM-9.507,29.7634 T-10.3189,29.6859 -11.1308,29.6083 A2.6116,2.6116 0 0 1 -10.8692,24.3917 T-10.0537,24.3957 -9.2381,24.3998 A2.6852,2.6852 0 0 1 -9.507,29.7634 Z" stroke-linecap="round" fill="#40c057"/></g></g><g transform="matrix(1, 0, 0, 1, 432, 371)" opacity="1"><g transform="scale(1)"><path d="M2.3038,-0.4608 T3.2643,4.2663 4.9752,12.1577 6.1443,17.5364 6.9259,22.8618 7.2889,25.9728 A2.4313,2.4313 0 0 1 2.4584,26.531 T2.0845,23.5757 1.3546,18.5136 0.2789,13.1667 -1.3723,5.1937 -2.3038,0.4608 A2.3494,2.3494 0 0 1 2.3038,-0.4608 ZM6.455,28.0987 T6.2411,28.267 6.0272,28.4354 A2.4088,2.4088 0 0 1 2.8937,24.7761 T3.093,24.5906 3.2923,24.4051 A2.4313,2.4313 0 0 1 6.455,28.0987 ZM2.6563,28.2019 T2.2787,27.7293 0.6712,25.1203 -3.1056,22.5953 -7.8319,22.1626 -10.0114,22.1186 A2.1186,2.1186 0 0 1 -9.9886,17.8814 T-7.7835,17.8609 -3.5946,17.9241 0.4562,18.8922 3.966,21.9551 5.8366,24.5717 6.2645,25.0096 A2.4088,2.4088 0 0 1 2.6563,28.2019 Z" stroke-linecap="round" fill="#40c057"/></g></g><g transform="matrix(1, 0, 0, 1, 449, 398)" opacity="1"><g transform="scale(1)"><path d="M-2.0031,0 T-2.0259,-1.6555 -2.0873,-5.4774 -2.1694,-10.035 -1.6946,-14.6289 1.3323,-17.1768 6.4286,-16.215 9.0165,-14.9076 A2.1616,2.1616 0 0 1 6.9835,-11.0924 T4.5982,-11.7593 2.1694,-10.035 2.0873,-5.4774 2.0259,-1.6555 2.0031,0 A2.0031,2.0031 0 0 1 -2.0031,0 Z" stroke-linecap="round" fill="#40c057"/></g></g><g transform="matrix(1, 0, 0, 1, 463, 390)" opacity="1"><g transform="scale(1)"><path d="M-0.7832,-2.3497 T0.6338,-2.8236 3.5484,-4.6379 4.0659,-3.4046 2.3538,1.6528 3.4915,5.1776 6.9877,5.9246 8.614,5.6304 A2.4008,2.4008 0 0 1 9.386,10.3696 T8.3314,10.5593 4.8083,10.72 0.2215,9.2865 -2.5865,5.8524 -2.9557,1.7047 -1.6221,-2.2198 0.7049,-5.5908 4.1403,-8.0825 7.8297,-7.7205 8.4891,-3.7785 5.6028,0.1401 2.2042,1.8776 0.7832,2.3497 A2.4768,2.4768 0 0 1 -0.7832,-2.3497 Z" stroke-linecap="round" fill="#40c057"/></g></g><g transform="matrix(1, 0, 0, 1, 491, 388)" opacity="1"><g transform="scale(1)"><path d="M1.07,2.4968 T-0.5815,3.2008 -3.8785,5.6049 -3.6851,8.5002 -0.7227,7.2202 0.4007,4.7449 A2.6118,2.6118 0 0 1 5.5993,5.2551 T5.5078,6.4487 4.4619,10.0101 1.352,13.7711 -4.1535,14.9676 -9.2155,13.124 -10.988,9.3277 -9.8834,4.6968 -6.5537,0.5743 -2.7295,-1.7818 -1.07,-2.4968 A2.7164,2.7164 0 0 1 1.07,2.4968 ZM5.5682,4.5248 T5.7308,5.5832 7.6301,8.7252 11.0794,10.6854 12.7919,10.5621 A2.4468,2.4468 0 0 1 13.2081,15.4379 T10.8196,15.5825 6.5621,14.5853 2.8683,10.9327 0.7376,6.9486 0.4318,5.4752 A2.6118,2.6118 0 0 1 5.5682,4.5248 Z" stroke-linecap="round" fill="#40c057"/></g></g><g transform="matrix(1, 0, 0, 1, 504, 369)" opacity="1"><g transform="scale(1)"><path d="M2.7806,-0.5561 T3.4691,2.9957 4.5462,9.1996 5.3776,14.0957 6.0866,18.3548 6.9139,23.339 7.6865,27.9715 7.8979,29.635 A2.9208,2.9208 0 0 1 2.1021,30.365 T1.7368,27.3646 0.8094,20.8756 -0.1769,15.0207 -0.9604,10.1485 -2.0501,4.0993 -2.7806,0.5561 A2.8356,2.8356 0 0 1 2.7806,-0.5561 Z" stroke-linecap="round" fill="#40c057"/></g></g><g transform="matrix(1, 0, 0, 1, 525, 378)" opacity="1"><g transform="scale(1)"><path d="M 0 0 m -3.663919189857866, 0 a 3.663919189857866,3.663919189857866 0 1,1 7.327838379715732,0 a 3.663919189857866,3.663919189857866 0 1,1 -7.327838379715732,0" stroke-linecap="round" fill="#40c057"/></g></g><g transform="matrix(1, 0, 0, 1, 526, 388)" opacity="1"><g transform="scale(1)"><path d="M 0 0 m -3.663919189857866, 0 a 3.663919189857866,3.663919189857866 0 1,1 7.327838379715732,0 a 3.663919189857866,3.663919189857866 0 1,1 -7.327838379715732,0" stroke-linecap="round" fill="#40c057"/></g></g><g transform="matrix(1, 0, 0, 1, 564, 361)" opacity="1"><g transform="scale(1)"><path d="M-2.2798,0 T-2.2464,-1.892 -2.5215,-6.4087 -4.0275,-9.9264 -5.2252,-10.8193 A2.1039,2.1039 0 0 1 -4.6636,-14.9894 T-2.1773,-13.7398 0.9634,-10.5357 1.9154,-6.1827 2.2464,-1.892 2.2798,0 A2.2798,2.2798 0 0 1 -2.2798,0 ZM-3.5271,-11.3495 T-4.1125,-10.8232 -5.6024,-7.7137 -6.6325,-2.3068 -6.5434,2.6415 -5.7725,7.6368 -4.496,13.5803 -2.8651,19.7678 -1.3202,25.992 -0.1521,31.7507 1.0417,37.4014 2.2477,43.0292 3.3084,48.3024 3.9817,53.2471 3.5319,58.0087 1.4911,62.3734 -2.2308,65.0697 -7.451,65.49 -12.8843,63.7693 -17.4485,60.5608 -19.5099,58.698 A2.2722,2.2722 0 0 1 -16.4901,55.302 T-15.417,56.2397 -12.8261,58.5094 -9.3681,60.6681 -4.7363,60.827 -1.2016,57.9388 -0.4832,53.6518 -1.114,48.9208 -2.1483,43.6584 -3.2844,38.2551 -4.4247,32.7939 -5.562,27.1499 -7.1171,20.9237 -8.8462,14.3871 -10.1626,8.3241 -10.9259,2.999 -11.0724,-1.6017 -10.4376,-6.066 -8.772,-10.8749 -7.0118,-13.8593 -6.3617,-14.4592 A2.1039,2.1039 0 0 1 -3.5271,-11.3495 Z" stroke-linecap="round" fill="#40c057"/></g></g><g transform="matrix(1, 0, 0, 1, 576, 380)" opacity="1"><g transform="scale(1)"><path d="M2.2731,-0.6495 T2.7432,1.0074 3.6306,5.3852 4.3559,10.1783 4.9335,14.4265 5.7505,18.9868 6.2979,21.3712 A2.4121,2.4121 0 0 1 1.5217,22.0497 T1.3287,20.592 0.6276,16.3502 -0.2569,11.0959 -0.9773,6.2918 -1.7972,2.3036 -2.2731,0.6495 A2.3641,2.3641 0 0 1 2.2731,-0.6495 ZM1.7871,20.565 T2.0729,20.1271 2.4724,17.3551 2.9838,12.9496 3.8578,8.3128 4.8339,2.649 5.841,-3.6177 6.4865,-9.7407 6.6708,-15.087 7.0178,-19.9835 8.153,-25.0488 8.9874,-27.6097 A2.1029,2.1029 0 0 1 13.0126,-26.3903 T12.1154,-23.2191 11.2114,-17.585 11.1376,-12.2905 10.795,-6.2152 10.0298,0.3544 9.0641,6.4881 7.9566,12.2228 7.1805,17.9816 6.5341,21.8347 6.0326,22.8559 A2.4121,2.4121 0 0 1 1.7871,20.565 Z" stroke-linecap="round" fill="#40c057"/></g></g><g transform="matrix(1, 0, 0, 1, 596, 371)" opacity="1"><g transform="scale(1)"><path d="M2.1047,-0.2631 T2.3465,1.6283 2.8144,6.9227 3.1375,13.8065 3.2334,20.0593 3.2093,24.4118 3.1864,25.9922 A2.1864,2.1864 0 0 1 -1.1864,26.0078 T-1.2206,24.4276 -1.2853,20.0924 -1.3245,13.9208 -1.4877,7.2762 -1.8735,2.1557 -2.1047,0.2631 A2.1211,2.1211 0 0 1 2.1047,-0.2631 Z" stroke-linecap="round" fill="#40c057"/></g></g><g transform="matrix(1, 0, 0, 1, 605, 384)" opacity="1"><g transform="scale(1)"><path d="M0,-2.0829 T1.4153,-2.1028 5.2131,-2.6054 7.5955,-3.0882 A2.127,2.127 0 0 1 8.4045,1.0882 T5.6249,1.6054 1.4227,2.1028 0,2.0829 A2.0829,2.0829 0 0 1 0,-2.0829 Z" stroke-linecap="round" fill="#40c057"/></g></g><g transform="matrix(1, 0, 0, 1, 636, 377)" opacity="1"><g transform="scale(1)"><path d="M2.0417,0.875 T1.3586,2.5422 -1.1617,7.3361 -4.6684,12.7165 -8.4421,16.7177 -11.5978,19.1785 -12.6496,19.8918 A2.3243,2.3243 0 0 1 -15.3504,16.1082 T-12.8548,14.1508 -8.6316,9.9536 -5.2088,5.0632 -2.7776,0.7688 -2.0417,-0.875 A2.2214,2.2214 0 0 1 2.0417,0.875 Z" stroke-linecap="round" fill="#40c057"/></g></g><g transform="matrix(1, 0, 0, 1, 624, 379)" opacity="1"><g transform="scale(1)"><path d="M1.6928,-1.2091 T2.899,0.4294 5.716,4.2505 8.5322,8.3552 11.0277,11.2693 12.3177,12.2612 A2.1816,2.1816 0 0 1 9.6823,15.7388 T7.9427,14.4347 4.9016,10.9926 2.1125,6.7043 -0.534,2.8816 -1.6928,1.2091 A2.0802,2.0802 0 0 1 1.6928,-1.2091 Z" stroke-linecap="round" fill="#40c057"/></g></g><g transform="matrix(1, 0, 0, 1, 634, 365)" opacity="1"><g transform="scale(1)"><path d="M0,-2.0766 T1.4123,-2.0797 5.2287,-2.4945 9.4574,-1.884 11.6392,0.3524 11.9966,1.5664 A2.1778,2.1778 0 0 1 7.7341,2.462 T7.6367,1.8305 5.1954,1.6409 1.4257,2.0797 0,2.0766 A2.0766,2.0766 0 0 1 0,-2.0766 ZM11.7916,3.0302 T11.5578,3.4443 9.2495,5.6592 6.9049,7.8162 6.6348,8.1725 A2.2163,2.2163 0 0 1 3.5687,4.9714 T5.3627,3.7557 7.5479,1.7691 7.9391,0.9982 A2.1778,2.1778 0 0 1 11.7916,3.0302 ZM5.6907,4.4353 T6.1253,4.5573 8.7971,4.7677 11.0341,4.8562 A2.1441,2.1441 0 0 1 10.9659,9.1438 T8.4265,9.1134 5.2,8.8958 4.5129,8.7086 A2.2163,2.2163 0 0 1 5.6907,4.4353 Z" stroke-linecap="round" fill="#40c057"/></g></g><g transform="matrix(1, 0, 0, 1, 587, 354)" opacity="1"><g transform="scale(1)"><path d="M-0.3944,-2.7608 T1.2649,-2.9707 4.9141,-3.5567 9.5816,-4.2274 14.8056,-4.6071 19.8729,-4.9419 24.8873,-5.6207 30.2325,-6.3291 35.693,-6.6759 40.7084,-6.7596 45.4885,-6.4886 50.3908,-6.0214 55.8565,-5.8047 61.121,-5.7541 66.0352,-5.7005 69.8108,-5.6342 71.0003,-5.6078 A2.6078,2.6078 0 0 1 70.9997,-0.3922 T68.7425,-0.3403 64.2661,-0.273 59.4032,-0.2597 54.7424,-0.2866 50.6553,-0.4185 45.8643,-0.8603 40.7778,-1.1736 35.9415,-1.0837 31.0382,-0.8054 25.9714,-0.1605 20.3996,0.5353 15.0598,0.8461 10.5205,1.0878 6.0406,1.757 2.0461,2.4977 0.3944,2.7608 A2.7888,2.7888 0 0 1 -0.3944,-2.7608 Z" stroke-linecap="round" fill="#40c057"/></g></g><g transform="matrix(1, 0, 0, 1, 658, 353)" opacity="1"><g transform="scale(1)"><path d="M1.8979,-0.3796 T2.1426,0.8016 2.6132,4.2587 2.9084,8.6193 3.4494,13.644 3.9212,16.5841 A1.9657,1.9657 0 0 1 0.0788,17.4159 T-0.2045,16.1759 -0.7734,12.8562 -1.0954,8.7797 -1.2866,4.765 -1.6696,1.5634 -1.8979,0.3796 A1.9355,1.9355 0 0 1 1.8979,-0.3796 Z" stroke-linecap="round" fill="#40c057"/></g></g><g transform="matrix(1, 0, 0, 1, 679, 381)" opacity="1"><g transform="scale(1)"><path d="M-2.1955,-0.7318 T-1.7065,-2.1283 -2.6081,-5.0367 -5.4525,-5.0565 -7.5499,-1.125 -7.9035,4.0673 -5.6452,7.5311 -1.121,6.3296 3.2151,1.0649 5.6591,-4.4423 6.8783,-10.2309 7.4082,-17.0061 6.914,-22.6014 6.0684,-25.3961 5.6916,-25.7369 A1.9633,1.9633 0 0 1 8.1353,-28.8105 T9.2366,-27.2627 10.8872,-23.163 11.5792,-17.0295 11.5426,-11.3985 10.9996,-7.3255 9.9349,-2.9238 8.2812,1.7327 6.0557,5.8129 3.3137,9.1198 -1.394,11.7007 -7.057,11.8738 -11.066,8.4278 -12.684,3.2005 -11.9459,-2.3726 -9.5054,-7.5722 -4.8649,-10.3418 0.3856,-8.8926 2.8869,-4.5676 2.6525,-0.7097 2.1955,0.7318 A2.3143,2.3143 0 0 1 -2.1955,-0.7318 ZM7.4771,-25.393 T7.2609,-25.3288 7.0447,-25.2645 A1.9623,1.9623 0 0 1 5.9181,-29.024 T6.134,-29.0892 6.3499,-29.1544 A1.9633,1.9633 0 0 1 7.4771,-25.393 ZM8.3961,-26.7144 T8.2814,-26.2095 8.0994,-23.4586 8.2491,-17.7891 8.9111,-10.636 9.7731,-4.6659 11.1351,1.3562 13.0643,8.2383 14.0486,11.3388 A2.1527,2.1527 0 0 1 9.9514,12.6612 T8.8869,9.4135 7.3676,4.2017 6.4823,0.2653 5.6799,-4.0136 4.9135,-10.1002 4.3139,-17.5888 4.2248,-23.9265 4.4537,-27.0648 4.5667,-27.5741 A1.9623,1.9623 0 0 1 8.3961,-26.7144 Z" stroke-linecap="round" fill="#40c057"/></g></g><g transform="matrix(1, 0, 0, 1, 710, 371)" opacity="1"><g transform="scale(1)"><path d="M1.5866,1.3222 T0.4143,2.7496 -2.5361,6.958 -5.828,12.3924 -8.2706,16.5646 -9.1995,18.0833 A2.1013,2.1013 0 0 1 -12.8005,15.9167 T-11.8938,14.3846 -9.5222,10.2644 -6.0146,4.5876 -2.7793,0.0884 -1.5866,-1.3222 A2.0653,2.0653 0 0 1 1.5866,1.3222 Z" stroke-linecap="round" fill="#40c057"/></g></g><g transform="matrix(1, 0, 0, 1, 698, 371)" opacity="1"><g transform="scale(1)"><path d="M1.8033,-1.2022 T3.2489,0.9086 5.937,4.8369 8.1421,8.4189 10.4066,12.7441 12.3634,16.6378 13.0181,17.9708 A2.2654,2.2654 0 0 1 8.9819,20.0292 T7.6646,17.5448 4.8635,12.1225 2.1806,7.3396 -0.4109,3.3484 -1.8033,1.2022 A2.1673,2.1673 0 0 1 1.8033,-1.2022 Z" stroke-linecap="round" fill="#40c057"/></g></g></svg>