<svg xmlns="http://www.w3.org/2000/svg" direction="ltr" width="205.6631639708903" height="251.63570153316596" viewBox="1366.6372456029412 6423.386002143203 205.6631639708903 251.63570153316596" stroke-linecap="round" stroke-linejoin="round" style="background-color: transparent;"><defs/><g transform="matrix(1, 0, 0, 1, 1437.8475, 6455.386)" opacity="1"><g transform="scale(1)"><path d="M0,0 Q-0.8345,1.5048 -1.1458,2.0805 T-1.8773,3.2203 -2.6925,4.2576 -4.472,5.9915 -6.7762,8.1044 -8.2804,9.5889 -9.3496,10.6473 -10.182,11.4739 -10.8035,12.1744 -11.3924,12.8062 -12.0839,13.5341 L-12.46,13.93 " stroke-linecap="round" fill="none" stroke="#f2f2f2" stroke-width="3" stroke-dasharray="none" stroke-dashoffset="0"/></g></g><g transform="matrix(1, 0, 0, 1, 1423.1895, 6455.7525)" opacity="1"><g transform="scale(1)"><path d="M0,0 Q2.1706,2.8409 3.0118,3.9488 T4.4793,5.9078 5.6971,7.4729 6.7769,8.8259 7.6971,10.0635 8.5306,11.1563 9.2349,12.0016 9.8688,12.7122 10.595,13.5009 L10.99,13.93 " stroke-linecap="round" fill="none" stroke="#f2f2f2" stroke-width="3" stroke-dasharray="none" stroke-dashoffset="0"/></g></g><g transform="matrix(1, 0, 0, 1, 1417.3263, 6510.3536)" opacity="1"><g transform="scale(1)"><path d="M0,0 Q1.1719,1.0032 1.7392,1.5269 T2.7838,2.5862 3.6872,3.5797 5.0975,4.9547 6.6992,6.4551 7.8213,7.4377 8.6826,8.2231 9.3175,8.819 9.6629,9.2253 9.6,9.5284 9.315,9.6933 8.9935,9.783 8.4858,9.8318 7.7079,9.8583 6.7832,9.8728 5.7785,9.8806 4.564,9.8849 3.2352,9.8051 1.8443,9.6797 0.4196,9.5271 -0.9414,9.3597 -2.3498,9.1843 -3.6996,9.0045 -5.0199,8.8246 -6.4062,8.6447 -7.744,8.4624 -8.9734,8.2789 -10.1438,8.097 -11.2,7.916 -12.1097,7.7331 -12.9375,7.5493 -13.6386,7.4493 -14.1864,7.3105 -14.6509,7.2351 -14.9879,7.4448 -15.1713,7.8918 -15.271,8.4701 -15.3253,9.2042 -15.3548,10.1052 -15.3708,11.0969 -15.3796,12.2201 -15.3843,13.4991 -15.3869,14.9473 -15.3883,16.4875 -15.3891,18.0778 -15.3895,19.7774 -15.3897,21.5365 -15.3899,23.3279 -15.3899,25.2212 -15.39,27.2544 -15.39,29.2793 -15.3056,31.2176 -15.1754,33.1088 -15.1045,34.8878 -15.1503,36.6079 -15.2596,38.3804 -15.4034,40.1791 -15.566,42.0765 -15.7366,44.0275 -15.9114,46.0077 -16.0909,48.0037 -16.2729,49.9264 -16.4562,51.809 -16.7224,53.5833 -16.9493,55.2166 -17.1571,56.8574 -17.4389,58.5025 -17.7586,59.9834 -18.0146,61.3726 -18.2382,62.7121 -18.4442,63.9423 -18.5563,65.1132 -18.6173,66.1674 -18.6504,67.076 -18.6685,67.9055 -18.6783,68.6075 -18.6836,69.3223 -18.6865,70.044 -18.6881,70.6053 -18.6046,71.1615 -18.3928,71.6305 -18.1111,71.8856 -17.707,72.1088 -17.2364,72.3145 -16.8117,72.4265 -16.3298,72.4874 -15.7348,72.5205 -15.0783,72.5385 -14.3859,72.5483 -13.5898,72.5536 -12.6551,72.6386 -11.7294,72.7669 -10.8085,72.8367 -9.806,72.8747 -8.759,72.8954 -7.6879,72.9066 -6.6036,72.9127 -5.5121,72.834 -4.419,72.709 -3.2407,72.5567 -1.9294,72.3895 -0.548,72.2142 0.8715,71.9523 2.3118,71.7278 3.7633,71.5213 5.2233,71.3247 6.6012,71.1333 7.768,70.9448 8.9887,70.7602 10.2365,70.5777 11.2504,70.4784 12.1371,70.3401 12.9524,70.1804 13.8131,70.0936 14.8674,69.9643 16.1089,69.8118 17.368,69.6446 18.6388,69.4692 19.8318,69.3738 20.898,69.3219 21.8953,69.2937 22.773,69.2783 23.5856,69.27 24.2784,69.3498 24.9061,69.4776 25.6649,69.5471 26.4105,69.5849 26.9825,69.6875 27.3781,69.9919 27.5089,70.5747 27.4137,71.3934 27.111,72.4247 26.5292,73.8225 25.7954,75.3353 25.061,76.5755 24.4108,77.6674 23.8906,78.5965 23.4412,79.2684 23.0279,79.716 22.7188,80.0439 22.635,80.0558 22.69,79.7088 L22.72,79.52 " stroke-linecap="round" fill="none" stroke="#4f72fc" stroke-width="3" stroke-dasharray="none" stroke-dashoffset="0"/></g></g><g transform="matrix(1, 0, 0, 1, 1467.1636, 6593.1714)" opacity="1"><g transform="scale(1)"><path d="M0,-0.37 Q-0.8345,-1.7061 -1.2302,-2.4024 T-2.0076,-3.8126 -2.8477,-5.1657 -4.2236,-6.9871 -5.7245,-8.8968 -6.6253,-10.1044 -7.1975,-10.8457 -7.5087,-11.331 -7.4272,-11.6771 -7.1321,-11.8654 -6.7207,-11.9678 -6.1618,-12.0235 -5.5249,-12.0538 -4.7611,-12.0703 -3.8441,-12.1637 -2.7592,-12.2988 -1.501,-12.3723 -0.1485,-12.4123 1.2553,-12.5184 2.687,-12.6605 4.1362,-12.7378 5.5105,-12.7798 6.7574,-12.8027 7.9351,-12.8152 9.0773,-12.8219 10.1182,-12.8256 11.104,-12.8276 12.1419,-12.8287 13.1237,-12.7449 14.075,-12.615 15.0098,-12.5443 15.9356,-12.5059 16.8564,-12.485 17.6925,-12.4736 18.3982,-12.4674 19.0306,-12.464 19.6254,-12.4622 20.1177,-12.4612 20.5519,-12.545 20.8703,-12.757 20.9613,-13.0388 20.9288,-13.5273 20.8268,-14.2102 20.6869,-14.999 20.6108,-15.9297 20.485,-16.9376 20.2502,-18.0696 20.0403,-19.4378 19.8418,-21.0188 19.5674,-22.7978 19.2517,-24.7687 18.9112,-26.9262 18.5595,-29.2695 18.2018,-31.6318 17.8384,-34.0022 17.4744,-36.3769 17.1098,-38.7541 16.7428,-41.1325 16.2924,-43.4296 15.8809,-45.516 15.4906,-47.7385 15.1119,-50.1993 14.8214,-52.5389 14.5791,-54.8148 14.3652,-56.9718 14.1667,-58.9819 14.0588,-60.9122 13.9157,-62.7968 13.7535,-64.5744 13.5809,-66.2094 13.4027,-67.849 13.2236,-69.409 13.0441,-70.8436 12.8621,-72.2943 12.6788,-73.6695 12.4946,-74.8348 12.3101,-75.886 12.2097,-76.875 12.1551,-77.746 12.0434,-78.5549 11.9005,-79.4145 11.8227,-80.2994 11.7804,-81.0293 11.6731,-81.5084 11.3639,-81.769 10.8605,-81.8288 10.1672,-81.7792 9.2063,-81.7522 8.0999,-81.6531 6.9121,-81.5149 5.5135,-81.4397 4.0025,-81.3988 2.5125,-81.3765 0.9496,-81.3644 -0.6531,-81.3579 -2.1929,-81.3543 -3.6987,-81.3523 -5.1881,-81.3513 -6.5821,-81.2686 -7.924,-81.1416 -9.3244,-80.9881 -10.6722,-80.8202 -11.989,-80.6446 -13.3734,-80.3826 -14.7125,-80.0736 -15.9426,-79.7368 -17.1133,-79.3871 -18.2495,-79.0305 -19.2849,-78.7521 -20.1832,-78.5163 -21.0892,-78.2216 -21.9993,-77.8948 -22.8295,-77.5483 -23.6163,-77.1091 -24.2952,-76.7036 -24.9153,-76.401 -25.5011,-76.07 -25.9862,-75.7211 -26.4189,-75.447 -26.8207,-75.2158 -27.2057,-75.008 -27.6659,-74.8949 -28.1671,-74.9155 -28.5241,-75.1775 -28.634,-75.5708 -28.6094,-75.9512 -28.596,-76.4089 -28.5066,-76.9908 -28.2916,-77.6425 -28.0058,-78.4166 -27.5996,-79.3393 -27.1278,-80.2584 -26.7047,-81.1757 -26.3081,-82.1763 -25.9259,-83.1379 -25.5516,-84.0782 -25.0971,-85.0913 -24.5096,-86.2304 L-24.19,-86.85 " stroke-linecap="round" fill="none" stroke="#4f72fc" stroke-width="3" stroke-dasharray="none" stroke-dashoffset="0"/></g></g><g transform="matrix(1, 0, 0, 1, 1431.2514, 6481.404)" opacity="1"><g transform="scale(1)"><path d="M0,0 Q-0.1687,2.1706 -0.2967,3.0961 T-0.4943,4.776 -0.6861,6.1914 -0.8749,7.463 -0.9775,8.6564 -1.0334,9.7228 -1.1481,11.5546 -1.2949,13.8052 -1.3747,15.449 -1.4182,16.7604 -1.4418,17.8911 -1.4547,18.9234 -1.4617,19.8179 -1.4655,20.6397 -1.4675,21.4219 -1.4687,22.1803 -1.4693,22.928 -1.4696,23.6699 -1.4698,24.4064 -1.3855,25.2243 -1.2553,26.0864 -1.1845,26.8906 -1.146,27.6633 -1.125,28.4165 -1.1136,29.1614 -1.1074,29.9017 -1.104,30.6374 -1.0178,31.3705 -0.8866,32.1044 -0.8152,32.8388 -0.7763,33.5712 -0.6731,34.3048 -0.5349,35.0391 -0.3753,35.7714 -0.2042,36.5026 -0.0267,37.1512 0.1542,37.7549 0.2526,38.334 0.3882,38.9843 0.5441,39.7552 0.7132,40.5098 0.9739,41.2555 1.2822,41.9096 1.532,42.4319 1.7523,42.8848 2.0408,43.3819 2.3642,43.9032 2.6222,44.3532 2.8469,44.7644 3.1356,45.1568 3.4591,45.6211 3.8038,46.2909 4.1577,46.9905 4.4324,47.6218 4.6661,48.2981 4.962,48.999 5.2894,49.631 5.5496,50.2256 5.7755,50.8843 6.0671,51.5777 6.3101,52.1214 6.4423,52.2507 6.5963,52.0703 6.7621,51.6369 6.9367,50.8996 7.1161,50.0813 7.2136,49.3853 7.351,48.8402 7.5102,48.2109 7.5967,47.4489 7.7259,46.7837 7.9626,46.4218 8.1757,46.3913 8.3738,46.5435 8.5636,46.9614 8.6668,47.5216 8.723,48.0749 8.7535,48.7111 8.7702,49.3923 8.7792,50.0958 8.7841,50.8957 8.7868,51.7504 8.7883,52.5505 8.7891,53.403 8.7895,54.1996 8.7076,54.7994 8.4967,55.2101 8.2155,55.4335 7.8117,55.555 7.2569,55.6211 6.6222,55.6571 5.9417,55.6767 5.2364,55.6873 4.4355,55.6087 3.5826,55.3996 2.6169,55.1193 1.3948,54.783 L0.73,54.6 " stroke-linecap="round" fill="none" stroke="#f2f2f2" stroke-width="3" stroke-dasharray="none" stroke-dashoffset="0"/></g></g><g transform="matrix(1, 0, 0, 1, 1467.1636, 6523.9123)" opacity="1"><g transform="scale(1)"><path d="M0,0 Q-1.0032,-2.508 -1.3604,-3.1902 T-2.0784,-4.1591 -2.7175,-4.4354 -3.2317,-4.3349 -3.7621,-3.3614 -4.2172,-1.8286 -4.4647,-0.6596 -4.5173,0.2271 -4.3794,0.9603 -4.1357,1.61 -3.8367,2.1298 -3.5076,2.6611 -3.1621,3.201 -2.8078,3.6634 -2.4463,4.0814 -2.0832,4.5595 -1.7192,5.0705 -1.4368,5.5992 -1.2832,6.3064 -1.1997,7.0239 -1.2386,7.5807 -1.4262,8.0501 -1.6947,8.4718 -2.0095,8.87 -2.4315,9.253 -2.994,9.5435 -3.7172,9.7015 -4.5279,9.7875 -5.304,9.7521 -5.9771,9.6508 -6.6761,9.5114 -7.4736,9.2668 -8.1582,8.9673 -8.7815,8.5558 -9.4994,8.0015 L-9.89,7.7 " stroke-linecap="round" fill="none" stroke="#4f72fc" stroke-width="3" stroke-dasharray="none" stroke-dashoffset="0"/></g></g><g transform="matrix(1, 0, 0, 1, 1466.0642, 6527.9432)" opacity="1"><g transform="scale(1)"><path d="M0,0 Q-2.1706,0.1687 -3.4653,0.2694 L-4.76,0.37 " stroke-linecap="round" fill="none" stroke="#4f72fc" stroke-width="3" stroke-dasharray="none" stroke-dashoffset="0"/></g></g><g transform="matrix(1, 0, 0, 1, 1447.3753, 6551.7625)" opacity="1"><g transform="scale(1)"><path d="M0,0 Q0.5016,2.3393 0.638,3.142 T0.8487,4.6322 0.9633,5.9445 1.0256,7.0756 1.0595,8.1082 1.1624,9.1715 1.7199,10.9196 2.6069,12.9581 3.4222,14.5686 4.1166,16.0285 4.6631,17.2421 5.0447,18.3196 5.3344,19.4051 5.6584,20.4151 5.9191,21.384 6.1452,22.4128 6.4347,23.3896 6.6742,24.3383 6.8889,25.2716 7.09,26.1965 7.2838,27.117 7.4736,28.0349 7.5768,29.0359 7.633,30.082 7.6636,31.0683 7.6802,32.0221 7.6049,33.127 7.4795,34.3139 7.4113,35.4613 7.2899,36.587 7.1395,37.6167 6.9755,38.594 6.7199,39.6273 6.4965,40.691 6.2906,41.7713 6.0122,42.9426 5.7786,44.0814 5.5672,45.1205 5.3678,46.2694 5.175,47.4781 4.9858,48.6372 4.8828,49.8537 4.8268,51.1015 4.7963,52.3639 4.7798,53.7187 4.7708,55.0417 4.8502,56.3451 5.0622,57.7222 5.2618,59.0573 5.4525,60.3672 5.7227,61.7479 6.0384,63.167 6.3766,64.6071 6.727,66.0608 7.0863,67.5196 7.4482,68.8969 7.8936,70.2321 8.3867,71.5444 8.9058,72.6756 9.5233,73.7082 10.1944,74.7715 10.9767,75.7672 11.8195,76.7261 12.6953,77.6649 13.5889,78.5108 14.4923,79.3062 15.4853,80.0717 16.5271,80.8211 17.5955,81.4795 18.6783,82.0064 19.7689,82.4595 20.9482,82.788 22.1756,83.0511 23.4271,83.2786 24.6915,83.4024 25.9653,83.4697 27.2443,83.5063 28.5237,83.5262 29.8877,83.5371 31.2157,83.543 32.5218,83.5462 33.816,83.5479 35.106,83.5489 36.3938,83.5494 37.678,83.5497 38.9603,83.5498 40.0773,83.5499 41.0202,83.5499 41.866,83.55 42.5769,83.55 43.1301,83.55 43.5131,83.3836 43.6394,83.0422 43.4572,82.6878 43.023,82.2442 42.4539,81.67 41.7271,81.0248 40.8301,80.3386 39.9249,79.6302 39.0152,78.9119 38.1031,78.186 37.2718,77.4559 36.5687,76.7259 36.0198,75.9959 35.7212,75.4323 35.8096,75.2078 36.1085,75.1678 36.5218,75.2304 37.0796,75.5152 37.7159,75.9209 38.4793,76.3925 39.3962,76.9819 40.7317,78.2213 42.2107,79.8988 43.3481,81.313 44.2176,82.6682 44.775,83.9914 45.0783,85.1285 45.0768,86.1643 44.6587,87.2294 43.9297,88.226 42.9472,89.1011 41.7446,89.8279 40.5068,90.392 39.081,90.7833 37.2669,91.0856 L36.28,91.25 " stroke-linecap="round" fill="none" stroke="#f2f2f2" stroke-width="3" stroke-dasharray="none" stroke-dashoffset="0"/></g></g><g transform="matrix(1, 0, 0, 1, 1513.3364, 6626.5184)" opacity="1"><g transform="scale(1)"><path d="M0,0 Q-1.5048,-0.5016 -1.9141,-0.3029 T-2.6282,0.3368 -3.0166,1.2685 -3.0615,2.277 -2.8351,3.3271 -2.0439,5.4853 -1.1119,8.2463 -0.6049,10.2498 -0.4134,11.8413 -0.5601,13.1244 -0.8906,14.1575 -1.4056,14.9703 -2.103,15.5789 -2.8996,15.9944 -3.8346,16.3047 -4.9269,16.4736 -6.1892,16.3146 -7.3774,15.9774 -8.2746,15.5431 -8.9292,15.056 -9.3673,14.3738 -9.7058,13.3739 L-9.89,12.83 " stroke-linecap="round" fill="none" stroke="#f2f2f2" stroke-width="3" stroke-dasharray="none" stroke-dashoffset="0"/></g></g><g transform="matrix(1, 0, 0, 1, 1515.1686, 6636.0461)" opacity="1"><g transform="scale(1)"><path d="M0,0 Q-1.5048,-0.1687 -2.1649,-0.2146 T-3.2662,-0.2855 -4.2825,-0.324 -5.5057,-0.2606 -6.9269,-0.0918 L-7.7,0 " stroke-linecap="round" fill="none" stroke="#f2f2f2" stroke-width="3" stroke-dasharray="none" stroke-dashoffset="0"/></g></g><g transform="matrix(1, 0, 0, 1, 1523.9634, 6624.3197)" opacity="1"><g transform="scale(1)"><path d="M0,0 Q-1.5048,2.508 -2.0805,3.5231 T-3.0539,5.5075 -3.7498,7.4239 -4.2104,9.1367 -4.461,10.6521 -3.7629,12.8969 -2.4642,15.2057 -1.3406,16.4617 0.0005,17.4321 L0.73,17.96 " stroke-linecap="round" fill="none" stroke="#f2f2f2" stroke-width="3" stroke-dasharray="none" stroke-dashoffset="0"/></g></g><g transform="matrix(1, 0, 0, 1, 1533.8576, 6630.1829)" opacity="1"><g transform="scale(1)"><path d="M0,0 Q-2.0064,3.0096 -2.7186,3.9947 T-4.069,5.5999 -5.4686,6.9601 L-6.23,7.7 " stroke-linecap="round" fill="none" stroke="#f2f2f2" stroke-width="3" stroke-dasharray="none" stroke-dashoffset="0"/></g></g><g transform="matrix(1, 0, 0, 1, 1527.9944, 6632.3816)" opacity="1"><g transform="scale(1)"><path d="M0,0 Q1.3361,1.1719 1.8659,1.7392 T2.7684,2.8659 3.5101,3.8983 4.1644,4.7951 4.9399,5.6159 6.0151,6.4864 L6.6,6.96 " stroke-linecap="round" fill="none" stroke="#f2f2f2" stroke-width="3" stroke-dasharray="none" stroke-dashoffset="0"/></g></g><g transform="matrix(1, 0, 0, 1, 1536.7892, 6621.0216)" opacity="1"><g transform="scale(1)"><path d="M0,0 Q1.669,2.508 2.1229,3.5231 T2.8238,5.4255 3.2051,7.2971 3.4125,9.3185 3.4433,11.4191 3.2115,13.5627 2.8346,15.4812 1.9593,17.4437 0.4507,19.9089 L-0.37,21.25 " stroke-linecap="round" fill="none" stroke="#f2f2f2" stroke-width="3" stroke-dasharray="none" stroke-dashoffset="0"/></g></g></svg>