<svg xmlns="http://www.w3.org/2000/svg" direction="ltr" width="1371.9596701136475" height="1199.1488150799103" viewBox="29.083348652190473 96.57519671200342 1371.9596701136475 1199.1488150799103" stroke-linecap="round" stroke-linejoin="round" data-color-mode="dark" class="tl-container tl-theme__force-sRGB tl-theme__dark" style="background-color: transparent;"><defs/><g transform="matrix(1, 0, 0, 1, 188, 177)" opacity="1"><g transform="scale(1)"><path d="M2.0978,0.1907 T1.8549,2.7919 1.2399,7.5574 0.5908,13.0731 0.2414,19.8698 0.1582,27.0359 0.1562,34.4432 0.1767,41.918 0.1997,49.8838 0.2167,56.1755 0.2314,60.3495 0.2473,64.4412 0.2648,70.3737 0.2792,76.3368 0.6476,82.015 1.1184,89.2375 1.2596,96.7358 1.3094,104.2359 1.5575,111.3403 1.9992,118.7338 2.6353,126.5249 3.1906,134.1008 3.3483,139.9646 3.3961,144.2399 3.4215,148.3831 3.4332,152.4588 3.4403,156.4987 3.4447,160.5198 3.4476,164.7675 3.4497,169.1354 3.2067,173.4681 2.7809,179.8598 2.5649,186.1651 2.513,190.3454 2.4857,194.4401 2.228,198.8534 1.8572,203.3112 1.6695,207.6589 1.5735,212.0758 1.5279,216.5341 1.5061,221.0111 1.4963,225.4996 1.4975,230.2295 1.5048,234.851 1.5111,239.1786 1.5174,243.8241 1.523,248.6373 1.5272,253.0659 1.5351,257.5282 1.5463,262.2449 1.5555,267.0955 1.5629,272.0169 1.5688,276.9754 1.5782,281.9535 1.5909,287.1785 1.6061,292.5336 1.6225,297.7207 1.6354,303.0558 1.6516,308.7054 1.6689,314.2843 1.6819,319.8263 1.4501,325.4666 1.1005,331.0373 0.93,336.4584 0.8418,341.6837 0.7978,347.0368 0.5344,352.5807 0.1618,357.8698 -0.0271,362.9007 -0.1271,367.9149 -0.1795,372.6865 -0.2109,377.0925 -0.0028,381.4022 0.4003,387.5543 0.9039,394.8424 1.3144,399.9693 1.4028,401.7898 A2.412,2.412 0 0 1 -3.4028,402.2102 T-3.6318,400.4021 -4.3645,395.1565 -5.0586,387.9192 -5.4902,381.6642 -5.7245,377.0582 -5.698,372.6241 -5.6404,367.8015 -5.5315,362.6883 -5.3244,357.4775 -4.9453,352.3078 -4.68,346.9814 -4.6183,341.5803 -4.5059,336.2722 -4.2958,330.6811 -3.9231,325.2288 -3.6819,319.8253 -3.6689,314.2843 -3.6516,308.7054 -3.6354,303.0558 -3.6225,297.7207 -3.6061,292.5336 -3.5909,287.1785 -3.5782,281.9535 -3.5688,276.9754 -3.5629,272.0168 -3.5554,267.0955 -3.5461,262.2448 -3.5348,257.528 -3.5265,253.0655 -3.5216,248.6366 -3.5148,243.8228 -3.5063,239.176 -3.4955,234.8465 -3.4799,230.2212 -3.4629,225.4828 -3.4427,220.9801 -3.4076,216.4739 -3.3452,211.9641 -3.2364,207.4414 -3.0353,202.9038 -2.6683,198.5793 -2.4237,194.4056 -2.3953,190.284 -2.3415,186.0539 -2.2385,181.6094 -1.8111,175.2875 -1.4512,169.1343 -1.4505,164.769 -1.4501,160.5228 -1.4507,156.5044 -1.453,152.4694 -1.459,148.4029 -1.4673,144.2761 -1.5175,138.1956 -1.7594,130.578 -2.2284,124.8765 -2.6747,119.1342 -3.0921,111.6621 -3.3368,104.2506 -3.3581,96.7903 -3.4732,89.4314 -3.9253,82.1683 -4.2791,76.3393 -4.2647,70.3736 -4.2471,64.4411 -4.2311,60.3493 -4.2161,56.1752 -4.198,49.883 -4.1706,41.9146 -4.1341,34.4319 -4.0789,26.9921 -3.9558,19.7085 -3.5626,12.5891 -2.9082,7.0095 -2.3279,2.4111 -2.0978,-0.1907 A2.1064,2.1064 0 0 1 2.0978,0.1907 Z" stroke-linecap="round" fill="#f2f2f2"/></g></g><g transform="matrix(1, 0, 0, 1, 583, 531)" opacity="1"><g transform="scale(1)"><path d="M0.1852,1.9448 T-4.783,2.3996 -14.0589,3.1119 -21.8191,3.5248 -28.7549,3.7664 -35.729,3.9078 -42.7155,3.9953 -49.7085,4.0539 -56.9414,4.0967 -64.5372,4.131 -72.0876,4.1542 -79.8507,4.1576 -87.9623,4.1597 -96.2576,4.1734 -105.1228,4.202 -114.2882,4.2413 -123.612,4.2759 -133.3121,4.0755 -143.1543,3.7597 -153.0147,3.6099 -163.4663,3.3065 -174.1785,2.911 -184.7915,2.4572 -195.5858,1.9819 -206.4768,1.4951 -217.4196,1.0022 -228.5722,0.7446 -239.941,0.3704 -251.3719,-0.0569 -263.02,-0.273 -274.5991,-0.3852 -286.141,-0.4429 -297.7146,-0.7099 -309.0174,-1.086 -319.8895,-1.2823 -330.8212,-1.3795 -341.7846,-1.4231 -352.2928,-1.4377 -362.5604,-1.4302 -372.7014,-1.4156 -382.7757,-1.3974 -392.8771,-1.6091 -402.6959,-1.9451 -411.8304,-2.1153 -420.6628,-2.2076 -429.1798,-2.4939 -437.2157,-2.8796 -444.9199,-3.0791 -452.3786,-3.4245 -459.3868,-3.8542 -465.9299,-4.3334 -472.3103,-5.0948 -478.0676,-6.0138 -483.2373,-7.0388 -488.0822,-8.13 -492.9176,-9.2798 -495.4514,-9.8761 A2.1713,2.1713 0 0 1 -494.5486,-14.1239 T-491.9913,-13.6383 -487.1663,-12.735 -482.3615,-11.91 -477.2982,-11.094 -471.7159,-10.3147 -465.5543,-9.6486 -459.0689,-9.2142 -452.1256,-8.8077 -444.7788,-8.464 -436.9545,-8.2534 -428.9875,-7.8609 -420.6015,-7.5682 -411.7205,-7.4592 -402.5012,-7.2475 -392.7513,-6.8589 -382.7734,-6.5931 -372.6973,-6.5663 -362.5528,-6.5355 -352.2788,-6.4972 -341.7594,-6.4533 -330.7726,-6.3861 -319.7989,-6.2729 -308.8505,-6.07 -297.5965,-5.6886 -286.1135,-5.4158 -274.5479,-5.3466 -262.9232,-5.2181 -251.1844,-4.9775 -239.7786,-4.538 -228.4574,-4.1652 -217.1984,-3.9029 -206.2575,-3.409 -195.3692,-2.921 -184.5823,-2.444 -173.99,-1.9885 -163.3127,-1.556 -152.9226,-1.1858 -142.981,-0.955 -133.1988,-0.5486 -123.6119,-0.2761 -114.2883,-0.2417 -105.123,-0.2027 -96.258,-0.1748 -87.963,-0.1623 -79.852,-0.1627 -72.0901,-0.1637 -64.5418,-0.1491 -56.9505,-0.1312 -49.726,-0.1193 -42.7483,-0.1194 -35.7905,-0.1434 -28.8704,-0.2134 -22.0069,-0.3729 -14.3528,-0.7214 -5.15,-1.4536 -0.1852,-1.9448 A1.9536,1.9536 0 0 1 0.1852,1.9448 Z" stroke-linecap="round" fill="#f2f2f2"/></g></g><g transform="matrix(1, 0, 0, 1, 288, 273)" opacity="1"><g transform="scale(1)"><path d="M-2.1489,-1.0745 T-1.6641,-2.0128 -0.4377,-5.4081 0.7676,-10.5637 1.7757,-15.7661 3.0837,-20.6427 4.4044,-25.1961 5.8828,-29.5447 7.7794,-33.7611 9.7411,-37.8262 12.0569,-42.0326 14.4838,-46.1091 17.1145,-49.9556 20.5414,-53.6851 24.3912,-57.0204 27.9083,-60.0684 31.4079,-63.1031 35.326,-66.1736 39.4026,-68.8987 43.5356,-71.1638 47.7034,-72.9327 52.1604,-74.0276 56.4256,-74.8553 60.5115,-75.4412 64.7075,-75.6215 69.2167,-74.9994 73.6565,-73.8318 77.77,-72.4133 82.2469,-70.5601 86.9477,-68.2662 91.5191,-65.8528 96.2678,-63.3701 101.2101,-60.9035 106.2494,-58.9015 111.3803,-57.2529 116.5628,-56.0263 122.1618,-54.9943 127.9228,-54.3775 133.5957,-54.5873 139.1374,-55.5676 144.5696,-57.2758 149.8813,-59.6434 154.6545,-62.6768 159.289,-67.1523 163.8789,-72.8445 167.7198,-79.0324 170.4163,-84.1516 172.4611,-87.7694 174.5518,-91.2929 176.7515,-95.0917 177.9136,-97.1139 A2.3651,2.3651 0 0 1 182.0864,-94.8861 T181.0527,-92.7954 178.1944,-87.1219 175.4665,-81.6234 172.8462,-76.1281 169.9701,-70.6758 167.587,-67.2359 163.8456,-62.7575 158.6117,-57.6772 152.961,-54.0134 146.7467,-51.2767 140.1821,-49.3123 133.7353,-48.2771 127.4498,-48.1345 121.3603,-48.8491 115.4981,-50.0104 109.7229,-51.4797 104.0063,-53.4396 98.5945,-55.7309 93.6156,-58.3202 88.6479,-61.0389 84.2408,-63.4531 80.0187,-65.5385 74.9535,-67.6415 70.2161,-69.3254 65.5259,-70.0586 60.2014,-70.0069 54.6129,-69.2275 48.8606,-67.5726 44.0752,-65.4406 40.3275,-63.2701 36.5921,-60.6667 32.9582,-57.8032 29.4164,-54.8111 25.8121,-51.7695 22.6506,-48.7864 19.9805,-45.3562 17.3828,-41.5731 15.0625,-37.6908 13.0784,-33.7146 11.1831,-29.7637 9.5626,-25.9296 8.1905,-21.572 7.0321,-17.1508 5.889,-13.0728 4.6984,-8.1683 3.6145,-3.1204 2.6101,0.1208 2.1489,1.0745 A2.4026,2.4026 0 0 1 -2.1489,-1.0745 Z" stroke-linecap="round" fill="#e599f7"/></g></g><g transform="matrix(1, 0, 0, 1, 288, 279)" opacity="1"><g transform="scale(1)"><path d="M2.3914,-0.3416 T2.6148,1.3158 3.0324,5.2348 3.2826,9.9584 3.3598,15.1458 3.3926,20.7941 3.4138,26.6955 3.43,32.6681 3.4392,38.6604 3.4497,45.0195 3.4637,51.8414 3.481,59.0285 3.5061,66.3181 3.2799,71.9559 2.8674,77.8542 2.4202,83.797 1.705,89.9333 1.1242,96.0822 0.6582,100.4392 -0.0727,104.7892 -0.9238,109.1867 -1.5853,113.4909 -2.1713,117.6798 -2.9685,122.1314 -3.6011,126.6858 -4.1711,131.236 -4.7082,135.7606 -5.2185,140.4919 -5.72,145.1289 -5.9699,149.5686 -6.347,154.3955 -6.7798,159.0785 -6.9969,163.5409 -7.357,168.3819 -7.7815,173.0717 -7.9951,177.5367 -8.1046,182.0122 -8.1571,186.5018 -8.4277,191.1447 -8.7992,195.4877 -8.9789,199.5193 -9.0723,203.5332 -9.367,207.7032 -9.8208,213.3939 -10.0648,220.1886 -10.1314,226.8909 -10.1505,233.0835 -10.1622,238.1785 -10.3147,243.7572 -10.4611,247.0004 A2.5389,2.5389 0 0 1 -15.5389,246.9996 T-15.6107,245.2903 -15.7591,240.9299 -15.8368,235.6383 -15.8279,229.994 -15.7847,223.5701 -15.6355,216.4949 -15.127,209.1368 -14.6935,203.3868 -14.5767,199.2509 -14.3576,194.9987 -13.9723,190.8028 -13.7043,186.4231 -13.6324,181.8701 -13.5059,177.2646 -13.2716,172.5759 -12.8462,167.9741 -12.491,163.2618 -12.2485,158.5717 -11.8093,153.9654 -11.4291,149.2432 -11.1397,144.5387 -10.6177,139.9021 -10.0835,135.114 -9.536,130.5507 -8.9455,125.9343 -8.2737,121.1723 -7.4932,116.9211 -6.8806,112.6741 -6.1651,108.1511 -5.3009,103.8765 -4.5721,99.8485 -3.7554,93.5993 -2.8308,85.4391 -2.3305,79.4909 -1.8894,73.6763 -1.5061,66.3158 -1.481,59.0285 -1.4638,51.8415 -1.4498,45.0195 -1.4395,38.6607 -1.4311,32.6689 -1.4178,26.6984 -1.407,20.8051 -1.4118,15.1925 -1.4697,10.1438 -1.7057,5.72 -2.1418,1.9952 -2.3914,0.3416 A2.4156,2.4156 0 0 1 2.3914,-0.3416 Z" stroke-linecap="round" fill="#9398b0"/></g></g><g transform="matrix(1, 0, 0, 1, 471, 175)" opacity="1"><g transform="scale(1)"><path d="M2.3531,0 T2.3579,1.892 2.3652,6.8502 2.3643,13.5452 2.3617,20.6969 2.3673,27.7263 2.3795,33.3062 2.3932,37.4184 2.4092,41.714 2.4267,46.1063 2.4402,50.313 2.4522,54.895 2.6982,61.9375 3.0741,69.1927 3.2889,74.7751 3.442,82.7847 3.5362,91.0248 3.5715,96.4517 3.5987,101.4405 3.6207,107.618 3.6365,113.7111 3.8752,119.9128 4.2338,126.7207 4.4253,132.2751 4.5318,138.2915 4.5949,145.2546 4.6291,151.0445 4.8877,156.843 5.27,163.4445 5.4778,169.8517 5.5881,175.5936 5.6475,181.4607 5.6799,187.1558 5.6978,193.2307 5.708,199.5076 5.7138,205.6528 5.7113,212.4392 5.709,218.8534 5.7128,224.3622 5.7095,229.8669 5.6978,235.3694 5.6833,240.8706 5.6645,247.0808 5.6471,252.4821 5.6356,257.221 5.3842,262.4345 5.0135,268.0164 4.8211,274.1496 4.7171,279.7565 4.6669,285.0785 4.646,290.9519 4.3942,296.5309 4.0268,301.6072 3.8443,306.2942 3.4953,313.0994 3.0788,319.7697 2.8842,324.147 2.7636,330.1211 2.6962,337.6908 2.9024,344.6737 3.3222,350.3205 3.9093,355.0538 4.8577,359.8954 5.4187,362.3896 A2.4946,2.4946 0 0 1 0.5813,363.6104 T-0.1758,360.8815 -1.3728,355.6157 -1.9913,350.882 -2.4139,345.042 -2.6402,337.6606 -2.5618,330.0108 -2.4267,323.9051 -2.2107,319.3539 -1.7773,312.7653 -1.4111,306.0791 -1.2048,301.2283 -0.8345,296.2841 -0.5839,290.9266 -0.5491,285.0231 -0.4936,279.666 -0.397,273.9843 -0.2088,267.6721 0.1427,262.204 0.3644,257.2201 0.3529,252.4821 0.3353,247.0809 0.3165,240.8707 0.3018,235.3695 0.2898,229.8672 0.2858,224.3628 0.2884,218.8544 0.2838,212.4409 0.2769,205.6568 0.2744,199.5143 0.2688,193.2455 0.2567,187.1823 0.2322,181.5131 0.1836,175.6887 0.089,170.016 -0.092,163.7391 -0.4475,157.0423 -0.6913,151.07 -0.7129,145.2947 -0.7557,138.3903 -0.8501,132.4533 -1.0399,126.9935 -1.4048,120.0818 -1.6413,113.7132 -1.6298,107.6217 -1.616,101.4488 -1.6042,96.4654 -1.5983,91.0476 -1.629,82.8578 -1.713,74.9492 -1.8789,69.5138 -2.2252,62.1428 -2.4522,54.895 -2.4402,50.313 -2.4267,46.1063 -2.4092,41.714 -2.3932,37.4184 -2.3795,33.3062 -2.3673,27.7263 -2.3617,20.6969 -2.3643,13.5452 -2.3652,6.8502 -2.3579,1.892 -2.3531,0 A2.3531,2.3531 0 0 1 2.3531,0 Z" stroke-linecap="round" fill="#9398b0"/></g></g><g transform="matrix(1, 0, 0, 1, 271, 563)" opacity="1"><g transform="scale(1)"><path d="M-2.5961,1.298 T-2.9615,0.4682 -3.7461,2.1578 -4.8239,7.0568 -5.2242,11.7583 -2.453,12.5811 0.7749,9.2242 1.9655,4.5591 2.441,1.7519 A2.571,2.571 0 0 1 7.559,2.2481 T7.4197,3.8139 6.8456,7.4346 5.2939,12.1512 2.3654,16.7354 -2.2494,19.5295 -7.1549,19.302 -10.2756,16.0885 -11.319,11.1538 -10.4764,5.305 -8.4039,0.0239 -5.3613,-3.6488 -1.0444,-4.2457 2.0155,-2.3602 2.5961,-1.298 A2.9025,2.9025 0 0 1 -2.5961,1.298 ZM7.5684,2.1168 T7.4328,2.4756 8.6817,5.2673 11.5715,10.1921 13.0768,12.684 A2.4587,2.4587 0 0 1 8.9232,15.316 T8.0625,14.0162 5.9234,10.6905 3.5929,6.6959 2.4862,3.3053 2.4316,1.8832 A2.571,2.571 0 0 1 7.5684,2.1168 Z" stroke-linecap="round" fill="#9398b0"/></g></g><g transform="matrix(1, 0, 0, 1, 472, 553)" opacity="1"><g transform="scale(1)"><path d="M2.7164,-0.6791 T3.1869,1.2142 4.0919,6.6462 4.6674,13.7168 4.6096,20.2909 4.411,23.3332 A2.9296,2.9296 0 0 1 -1.3808,22.4464 T-1.1758,19.9113 -1.0414,14.0105 -1.4387,7.5527 -2.2409,2.5698 -2.7164,0.6791 A2.8,2.8 0 0 1 2.7164,-0.6791 ZM1.7276,25.8117 T1.3691,25.836 1.0107,25.8602 A2.926,2.926 0 0 1 0.5862,20.0237 T0.9444,19.9958 1.3026,19.9679 A2.9296,2.9296 0 0 1 1.7276,25.8117 ZM-2.0223,23.7196 T-2.39,22.1839 -1.8631,18.4064 0.9012,14.917 5.3,13.1295 10.6029,12.7648 15.7699,13.7558 20.1466,16.3382 22.5398,21.0775 21.6182,26.7803 17.0807,32.0655 11.9265,35.3828 7.8428,36.554 3.7101,36.9163 -0.1792,36.7944 -2.0716,36.7192 A2.7202,2.7202 0 0 1 -1.9284,31.2808 T-0.0347,31.3053 4.88,31.0539 10.7389,29.5526 15.5524,25.879 16.9451,21.5016 13.6856,18.7075 8.7388,17.9975 4.73,19.2216 3.3053,21.2277 3.6192,22.1643 A2.926,2.926 0 0 1 -2.0223,23.7196 Z" stroke-linecap="round" fill="#9398b0"/></g></g><g transform="matrix(1, 0, 0, 1, 388, 143)" opacity="1"><g transform="scale(1)"><path d="M-2.5406,-1.0163 T-2.087,-2.1713 -3.1369,-5.1096 -4.8647,-4.0975 -4.5972,0.9711 -3.2582,5.753 -1.0546,10.5829 1.5399,14.7895 3.9424,18.6541 5.4196,23.3396 5.7324,26.046 A2.6436,2.6436 0 0 1 0.4807,25.4342 T0.7001,24.7901 -0.2426,21.9346 -2.6842,17.8231 -5.5744,13.3121 -8.1398,8.7408 -9.6694,4.2041 -10.4594,-1.0458 -10.371,-6.1117 -8.4831,-10.2951 -4.8838,-12.1637 -0.9363,-11.086 2.3547,-7.8092 3.6194,-3.5457 3.033,-0.1937 2.5406,1.0163 A2.7364,2.7364 0 0 1 -2.5406,-1.0163 ZM4.3991,28.0462 T3.1372,28.7795 -0.7485,30.0071 -5.5248,30.6012 -9.6898,30.3168 -13.7599,29.1709 -15.8175,28.4091 A2.5441,2.5441 0 0 1 -14.1825,23.5909 T-12.53,24.0881 -8.3721,24.8446 -3.232,24.9187 0.6084,24.0837 1.8141,23.434 A2.6436,2.6436 0 0 1 4.3991,28.0462 Z" stroke-linecap="round" fill="#f76707"/></g></g><g transform="matrix(1, 0, 0, 1, 389, 153)" opacity="1"><g transform="scale(1)"><path d="M1.4604,2.0445 T-0.2207,3.1912 -3.7699,5.6223 -5.6381,6.9067 A2.3432,2.3432 0 0 1 -8.3619,3.0933 T-6.5411,1.7427 -3.0903,-0.8262 -1.4604,-2.0445 A2.5126,2.5126 0 0 1 1.4604,2.0445 Z" stroke-linecap="round" fill="#f76707"/></g></g><g transform="matrix(1, 0, 0, 1, 298, 452)" opacity="1"><g transform="scale(1)"><path d="M1.4945,-1.4945 T4.3396,1.3365 9.6703,6.8721 14.1947,11.9501 18.0531,16.807 21.7329,21.7299 25.2887,26.4175 28.5828,30.8005 31.7235,35.0135 35.9111,40.4022 38.5563,43.7127 A2.0197,2.0197 0 0 1 35.4437,46.2873 T33.9768,44.5686 31.1575,41.2723 28.2377,37.6382 25.061,33.4606 21.7526,29.1026 18.1653,24.3842 14.5734,19.5367 10.9163,14.8292 6.565,9.8361 1.3364,4.3395 -1.4945,1.4945 A2.1135,2.1135 0 0 1 1.4945,-1.4945 Z" stroke-linecap="round" fill="#f76707"/></g></g><g transform="matrix(1, 0, 0, 1, 300, 384)" opacity="1"><g transform="scale(1)"><path d="M1.3889,-1.2153 T3.0424,0.6785 6.5222,4.7736 10.2795,9.5875 14.3863,14.9462 18.9201,20.8196 23.7141,27.2405 28.8665,34.41 34.6331,42.1656 40.9708,50.2369 47.6533,58.7603 54.4786,67.2437 61.1643,75.4969 67.5379,83.3906 73.4875,90.6035 78.5281,96.7901 82.5459,101.7144 86.4075,106.3046 88.4607,108.7365 A1.9313,1.9313 0 0 1 85.5393,111.2635 T83.4285,108.8815 79.3886,104.3374 75.2697,99.4352 70.256,93.2585 64.3075,85.987 57.9769,78.064 51.3262,69.7673 44.5134,61.2075 37.8824,52.649 31.5229,44.4622 25.7615,36.6255 20.7071,29.4664 16.0065,23.0588 11.4989,17.155 7.4249,11.8342 3.7367,7.1536 0.2686,3.1055 -1.3889,1.2153 A1.8456,1.8456 0 0 1 1.3889,-1.2153 Z" stroke-linecap="round" fill="#f76707"/></g></g><g transform="matrix(1, 0, 0, 1, 332, 330)" opacity="1"><g transform="scale(1)"><path d="M1.5668,-0.914 T3.223,1.9236 6.6949,7.9188 10.619,14.3599 15.0409,21.2894 19.9811,28.7093 25.6497,36.5894 31.7413,45.011 38.0471,53.6922 44.4803,62.7645 50.747,72.0547 56.8823,81.1835 63.1649,90.225 69.2914,98.7701 75.0728,106.3204 80.6533,112.8659 85.4571,118.2303 89.2307,121.6627 92.9249,124.1628 94.9605,125.551 A1.7384,1.7384 0 0 1 93.0395,128.449 T90.9681,127.1148 86.8693,124.4491 82.6548,120.8015 77.6861,115.4241 71.9034,108.767 65.9956,101.1376 59.8142,92.5468 53.5124,83.4328 47.4364,74.2667 41.3024,64.9971 34.9751,55.9048 28.7354,47.1713 22.6894,38.7032 16.9944,30.6904 12.0396,23.2109 7.5584,16.2289 3.564,9.7355 0.088,3.7524 -1.5668,0.914 A1.8139,1.8139 0 0 1 1.5668,-0.914 Z" stroke-linecap="round" fill="#f76707"/></g></g><g transform="matrix(1, 0, 0, 1, 341, 256)" opacity="1"><g transform="scale(1)"><path d="M1.318,-1.318 T5.0933,2.4749 12.0867,9.9655 18.4032,17.2417 24.5782,24.6161 30.722,32.5535 36.8321,40.9999 43.1359,49.9237 49.7746,59.3395 56.1296,68.5728 62.0855,77.469 68.0331,86.153 73.7547,94.2684 78.6827,101.4164 82.6378,107.0468 87.7547,111.9871 91.0921,114.5541 A1.812,1.812 0 0 1 88.9079,117.4459 T87.0112,116.056 83.2282,113.245 79.4231,109.3707 75.3551,103.7078 70.4441,96.6068 64.6762,88.4545 58.6949,79.733 52.7857,70.8598 46.4993,61.6333 39.9207,52.1766 33.7099,43.2397 27.7411,34.848 21.735,26.9902 15.6257,19.6507 9.4027,12.4698 2.4747,5.0931 -1.318,1.318 A1.8639,1.8639 0 0 1 1.318,-1.318 Z" stroke-linecap="round" fill="#f76707"/></g></g><g transform="matrix(1, 0, 0, 1, 377, 231)" opacity="1"><g transform="scale(1)"><path d="M1.3322,-1.3322 T3.2156,0.569 7.34,5.1892 11.9581,11.2466 17.2252,18.6834 23.2802,27.0496 29.9967,35.9302 37.0982,45.3598 44.1321,54.5816 50.1699,62.2804 55.5697,69.2335 58.4156,72.8925 A1.7973,1.7973 0 0 1 55.5844,75.1075 T52.7178,71.4646 47.2779,64.562 41.1522,56.8614 34.0809,47.6327 26.9826,38.2073 20.2175,29.2606 14.1537,20.8521 8.9905,13.5116 4.5872,7.684 0.5684,3.215 -1.3322,1.3322 A1.884,1.884 0 0 1 1.3322,-1.3322 Z" stroke-linecap="round" fill="#f76707"/></g></g><g transform="matrix(1, 0, 0, 1, 465, 297)" opacity="1"><g transform="scale(1)"><path d="M-1.989,-2.2732 T-0.0944,-3.9261 5.182,-7.9147 11.8443,-12.1551 18.2154,-15.387 23.8713,-17.5462 29.0104,-19.0765 33.8512,-20.3745 38.802,-21.5519 46.0609,-22.8444 53.5666,-23.7818 60.3122,-24.3442 66.9021,-24.8626 72.5943,-25.1346 79.1813,-25.2811 86.0899,-25.1215 92.4589,-24.5557 98.8783,-23.7806 104.6981,-22.89 110.5748,-21.4216 116.3171,-19.676 122.0162,-17.522 128.1429,-14.9333 133.7441,-12.3642 140.5815,-9.1925 146.5728,-6.3252 150.9252,-3.6876 154.9921,-1.3609 156.6382,-0.5878 A3.2646,3.2646 0 0 1 153.9575,5.3658 T152.0745,4.5498 147.7072,2.1669 143.442,-0.3993 139.6457,-2.4101 135.5832,-4.1854 130.9541,-6.2195 125.5141,-8.6621 119.6649,-11.0954 114.3074,-13.0857 108.9422,-14.7163 103.615,-16.0642 98.0479,-16.9277 91.8355,-17.6858 85.9033,-18.2342 79.3429,-18.3939 72.9374,-18.2487 67.439,-17.9673 60.872,-17.4355 54.3199,-16.9026 47.2523,-16.0894 40.3209,-14.9576 35.5092,-13.8997 30.8006,-12.7513 25.8972,-11.4344 20.6758,-9.589 14.8423,-6.7517 8.7676,-3.0401 3.8784,0.6151 1.989,2.2732 A3.0205,3.0205 0 0 1 -1.989,-2.2732 ZM153.8054,-0.5145 T155.1904,-1.1429 156.5754,-1.7714 A3.1161,3.1161 0 0 1 159.4246,3.7714 T158.1075,4.5319 156.7903,5.2925 A3.2646,3.2646 0 0 1 153.8054,-0.5145 Z" stroke-linecap="round" fill="#f76707"/></g></g><g transform="matrix(1, 0, 0, 1, 629, 301)" opacity="1"><g transform="scale(1)"><path d="M-2.2439,0.9617 T-2.9309,-0.7005 -4.8394,-4.2488 -7.4499,-8.1248 -11.0598,-13.3985 -14.9552,-19.2874 -17.2805,-23.9421 -16.9606,-27.7969 -13.959,-29.5492 -10.4182,-27.1913 -7.9452,-22.7739 -6.0793,-18.396 -4.6146,-13.9807 -3.5595,-9.8626 -2.0299,-3.893 -0.7683,3.7988 -2.2699,10.4008 -7.1166,14.4539 -13.6794,15.4097 -17.1222,15.2242 A2.2275,2.2275 0 0 1 -16.8778,10.7758 T-15.2057,10.8528 -11.1145,10.8324 -6.8582,8.9702 -5.127,4.0889 -6.194,-2.9416 -8.0907,-10.5253 -10.0909,-16.6565 -11.7004,-21.6655 -10.754,-21.8463 -7.0809,-16.1612 -3.4779,-10.7749 -0.6384,-6.4831 1.5119,-2.6105 2.2439,-0.9617 A2.4413,2.4413 0 0 1 -2.2439,0.9617 Z" stroke-linecap="round" fill="#f76707"/></g></g><g transform="matrix(1, 0, 0, 1, 673, 249)" opacity="1"><g transform="scale(1)"><path d="M-2.2572,0 T-2.2618,-1.6555 -2.2714,-5.4638 -2.7124,-10.1732 -3.9506,-14.8063 -4.9867,-17.2118 -5.2206,-17.541 A2.313,2.313 0 0 1 -1.2558,-19.9242 T-0.6735,-18.65 0.675,-15.2222 1.8588,-10.3698 2.2714,-5.4909 2.2618,-1.6555 2.2572,0 A2.2572,2.2572 0 0 1 -2.2572,0 ZM-1.7452,-16.966 T-2.4631,-16.3956 -3.4091,-13.5584 -3.6663,-9.1664 -3.7005,-4.3996 -3.4776,0.9902 -2.4758,6.9753 -0.9855,13.3665 0.2941,19.9855 1.363,27.1633 2.2313,33.7635 2.8276,39.8864 3.1251,46.2001 2.8448,52.098 1.0215,57.5122 -2.3093,61.6568 -7.2782,63.7084 -13.1147,63.7136 -18.5598,62.3343 -23.8036,59.8187 -26.3216,58.1868 A2.5552,2.5552 0 0 1 -23.6784,53.8132 T-22.7703,54.3382 -19.526,56.1392 -14.7157,58.1657 -10.0788,59.0385 -6.0463,58.2558 -2.9546,54.7549 -1.5323,49.5569 -1.4527,43.5168 -2.0238,36.8423 -2.7397,30.8028 -3.5286,24.1802 -4.6538,17.5572 -6.1435,11.0922 -7.6597,3.9605 -8.2795,-2.3301 -8.2565,-7.502 -8.1182,-12.1763 -7.3905,-16.5944 -5.7588,-19.5945 -4.7312,-20.4992 A2.313,2.313 0 0 1 -1.7452,-16.966 Z" stroke-linecap="round" fill="#f76707"/></g></g><g transform="matrix(1, 0, 0, 1, 668, 329)" opacity="1"><g transform="scale(1)"><path d="M-2.4972,-0.4994 T-2.2448,-1.6787 -2.144,-3.4358 -2.2954,-4.0136 A2.4916,2.4916 0 0 1 1.7506,-6.9223 T2.3445,-4.3972 2.7178,-0.6863 2.4972,0.4994 A2.5467,2.5467 0 0 1 -2.4972,-0.4994 ZM0.1489,-3.0123 T-0.4797,-2.9055 -2.4906,-0.5744 -4.5523,4.0187 -3.5429,4.421 -1.6294,1.8913 -1.4046,1.328 A2.3669,2.3669 0 0 1 3.0298,2.9849 T2.7673,3.7259 1.8035,6.6929 -0.2093,10.5182 -3.9142,12.495 -8.0943,11.3438 -10.0713,7.7729 -9.4626,2.8791 -7.5708,-2.1588 -4.2474,-6.0197 -1.3553,-7.8091 -0.6937,-7.9236 A2.4916,2.4916 0 0 1 0.1489,-3.0123 ZM2.7177,0.7517 T3.338,1.6083 5.3267,4.5316 8.2676,8.5676 9.8402,10.5367 A2.3511,2.3511 0 0 1 6.1598,13.4633 T4.412,11.2567 1.4961,7.2536 -0.3822,4.5091 -1.0924,3.5611 A2.3669,2.3669 0 0 1 2.7177,0.7517 Z" stroke-linecap="round" fill="#f76707"/></g></g><g transform="matrix(1, 0, 0, 1, 669, 181)" opacity="1"><g transform="scale(1)"><path d="M1.2251,-1.8377 T1.9501,-1.3873 4.145,1.6653 6.3083,7.0769 7.2036,12.9197 7.1894,17.3896 6.9731,18.8263 A2.5141,2.5141 0 0 1 2.0073,18.0373 T2.1165,15.8145 2.0269,10.6387 0.9955,5.2573 -0.5311,2.3333 -1.2251,1.8377 A2.2086,2.2086 0 0 1 1.2251,-1.8377 ZM2.4443,19.8929 T1.7922,18.903 0.8936,15.35 1.836,10.6803 4.9186,7.8033 9.5117,7.4193 14.1258,8.8336 17.3925,11.3731 19.1901,15.1666 18.2783,20.1635 15.0957,23.8238 10.0426,24.5843 6.8148,24.3995 A2.4066,2.4066 0 0 1 7.1852,19.6005 T8.6258,19.6866 12.3571,19.2697 14.3389,16.6578 12.3017,13.4175 8.4594,12.1497 6.0165,13.9748 6.1119,16.4535 6.5361,16.9707 A2.5141,2.5141 0 0 1 2.4443,19.8929 Z" stroke-linecap="round" fill="#f76707"/></g></g><g transform="matrix(1, 0, 0, 1, 704, 253)" opacity="1"><g transform="scale(1)"><path d="M-2.4323,-0.6081 T-1.9708,-2.4945 -1.5502,-6.5552 -2.1307,-9.1001 -2.6703,-9.4707 A2.6148,2.6148 0 0 1 0.5681,-13.5769 T2.0646,-11.1704 3.4812,-5.9755 2.9168,-1.2895 2.4323,0.6081 A2.5072,2.5072 0 0 1 -2.4323,-0.6081 ZM1.2245,-10.2359 T0.6582,-9.2452 -0.1095,-5.7341 -0.3632,-0.2604 -0.2096,5.3706 0.5955,10.4093 2.1689,15.1713 4.0256,20.1312 5.1586,24.9496 5.1844,29.4212 3.1663,33.6591 -1.7557,36.9843 -7.1454,38.3379 -11.9457,36.6824 -14.4851,34.9726 A2.4691,2.4691 0 0 1 -11.5149,31.0274 T-9.5915,32.1089 -4.7774,32.3753 -0.8128,29.5461 -0.0771,24.6909 -1.4867,19.6578 -3.6743,14.1733 -5.1601,8.03 -5.5141,2.405 -5.4297,-3.4437 -4.9358,-8.6091 -3.9187,-11.7558 -3.3267,-12.8118 A2.6148,2.6148 0 0 1 1.2245,-10.2359 Z" stroke-linecap="round" fill="#f76707"/></g></g><g transform="matrix(1, 0, 0, 1, 707, 271)" opacity="1"><g transform="scale(1)"><path d="M0,2.2115 T-1.892,2.1762 -5.892,2.1079 -8,2.0748 A2.0748,2.0748 0 0 1 -8,-2.0748 T-5.892,-2.1079 -1.892,-2.1762 0,-2.2115 A2.2115,2.2115 0 0 1 0,2.2115 Z" stroke-linecap="round" fill="#f76707"/></g></g><g transform="matrix(1, 0, 0, 1, 723, 244)" opacity="1"><g transform="scale(1)"><path d="M2.6863,0 T2.6823,1.6597 2.1924,6.0913 1.2252,11.1773 0.0238,16.9021 -0.8247,22.5808 -1.0864,27.6387 0.3389,32.3749 1.8976,34.3212 A2.5336,2.5336 0 0 1 -1.8976,37.6788 T-2.7168,36.8058 -5.0735,33.1952 -6.5242,27.4958 -6.2922,22.0372 -5.3629,15.9479 -4.0887,10.1129 -3.1384,5.5866 -2.6823,1.6513 -2.6863,0 A2.6863,2.6863 0 0 1 2.6863,0 Z" stroke-linecap="round" fill="#f76707"/></g></g><g transform="matrix(1, 0, 0, 1, 741, 258)" opacity="1"><g transform="scale(1)"><path d="M2.2097,0.8286 T1.5252,2.7328 -0.7963,7.3822 -3.994,12.0778 -6.4405,14.8735 -7.3264,15.7187 A2.399,2.399 0 0 1 -10.6736,12.2813 T-9.8052,11.4182 -7.7302,8.9606 -5.1012,5.1485 -2.9442,1.0512 -2.2097,-0.8286 A2.36,2.36 0 0 1 2.2097,0.8286 Z" stroke-linecap="round" fill="#f76707"/></g></g><g transform="matrix(1, 0, 0, 1, 730, 259)" opacity="1"><g transform="scale(1)"><path d="M1.4435,-1.7321 T2.8628,-0.5415 5.6869,2.3714 8.9685,6.4191 12.4148,10.7111 13.9843,12.6775 A2.4611,2.4611 0 0 1 10.0579,15.6459 T9.2628,14.5817 6.8534,11.3185 3.3165,6.6001 -0.0248,2.9065 -1.4435,1.7321 A2.2548,2.2548 0 0 1 1.4435,-1.7321 ZM10.7752,12.0394 T11.7778,11.481 12.7805,10.9226 A2.4089,2.4089 0 0 1 15.2195,15.0774 T14.2433,15.6807 13.2671,16.2841 A2.4611,2.4611 0 0 1 10.7752,12.0394 Z" stroke-linecap="round" fill="#f76707"/></g></g><g transform="matrix(1, 0, 0, 1, 743, 236)" opacity="1"><g transform="scale(1)"><path d="M2.1702,-2.1702 T3.3335,-0.9628 5.7474,2.0232 8.5872,6.7921 10.9176,12.4196 12.5715,18.7315 13.7683,25.8448 13.872,32.8149 12.3728,38.9286 10.2605,42.5738 9.4671,43.6368 A2.9608,2.9608 0 0 1 4.5329,40.3632 T5.8981,37.8563 7.4275,32.4783 7.4125,26.4942 6.4788,19.9668 4.6397,13.2613 1.8942,7.2278 -0.9685,3.3278 -2.1702,2.1702 A3.0691,3.0691 0 0 1 2.1702,-2.1702 Z" stroke-linecap="round" fill="#f76707"/></g></g><g transform="matrix(1, 0, 0, 1, 771, 261)" opacity="1"><g transform="scale(1)"><path d="M-1.8663,-1.333 T-0.6955,-2.9699 0.1134,-6.9262 -0.9714,-9.9406 -1.6942,-10.6356 A2.3751,2.3751 0 0 1 1.772,-13.8836 T3.3366,-11.5927 4.5779,-5.6585 3.0605,-0.3411 1.8663,1.333 A2.2935,2.2935 0 0 1 -1.8663,-1.333 ZM1.4561,-10.3537 T0.7373,-9.8196 -1.3199,-7.0483 -3.0104,-2.3728 -3.2664,2.1853 -2.4997,5.1126 -1.8291,5.9202 A2.3167,2.3167 0 0 1 -5.0763,9.2252 T-5.9562,8.2517 -7.4866,4.9591 -7.8986,-0.4267 -6.7313,-6.426 -4.3089,-11.2274 -2.0969,-13.6308 -1.3783,-14.1656 A2.3751,2.3751 0 0 1 1.4561,-10.3537 ZM-3.7482,5.275 T-2.7525,5.1548 0.1279,2.4003 3.1349,-2.759 5.3377,-9.6131 6.6894,-16.3237 7.113,-20.9088 6.83,-25.4838 6.3946,-27.8552 A2.4073,2.4073 0 0 1 11.024,-29.1773 T11.5358,-25.987 11.8917,-20.4719 11.4219,-15.5258 10.5313,-10.3232 9.2927,-5.5347 7.4591,-0.7416 5.1919,3.8883 1.5801,7.7507 -2.0468,9.7197 -3.1572,9.8704 A2.3167,2.3167 0 0 1 -3.7482,5.275 ZM11.1161,-28.4699 T11.0702,-27.7333 11.4104,-24.0186 12.8987,-16.4848 14.6167,-9.4969 15.787,-5.1101 17.2854,-0.4778 18.7624,3.6385 19.2955,5.077 A2.4742,2.4742 0 0 1 14.7045,6.923 T14.0934,5.5158 12.3481,1.1809 10.6713,-3.7875 9.5604,-8.2842 7.9791,-15.4785 6.6409,-23.0851 6.3091,-27.2581 6.3025,-28.5626 A2.4073,2.4073 0 0 1 11.1161,-28.4699 Z" stroke-linecap="round" fill="#f76707"/></g></g><g transform="matrix(1, 0, 0, 1, 807, 240)" opacity="1"><g transform="scale(1)"><path d="M2.1243,0.7081 T1.8931,1.4194 0.676,5.2178 -1.1659,10.1953 -3.263,15.0429 -5.6665,19.6106 -7.9852,22.7814 -9.1415,24.3417 A2.2922,2.2922 0 0 1 -12.8585,21.6583 T-11.7414,20.0697 -9.1708,15.9651 -6.2256,10.1378 -3.6709,3.7669 -2.3661,-0.0004 -2.1243,-0.7081 A2.2392,2.2392 0 0 1 2.1243,0.7081 Z" stroke-linecap="round" fill="#f76707"/></g></g><g transform="matrix(1, 0, 0, 1, 796, 243)" opacity="1"><g transform="scale(1)"><path d="M2.0567,-1.6828 T4.1923,0.913 7.9729,5.6041 11.8727,11.0742 15.6101,17.4301 17.7919,22.1977 18.4911,23.9841 A2.6903,2.6903 0 0 1 13.5089,26.0159 T12.7594,24.2501 10.6226,19.8173 7.2551,14.0895 3.7305,8.9629 0.0647,4.29 -2.0567,1.6828 A2.6574,2.6574 0 0 1 2.0567,-1.6828 Z" stroke-linecap="round" fill="#f76707"/></g></g><g transform="matrix(1, 0, 0, 1, 931.1845, 128.5752)" opacity="1"><g transform="scale(1)"><path d="M1.6725,-0.6695 T2.2653,0.8172 3.3857,5.9965 4.049,13.7227 4.2131,20.0843 4.5464,24.7179 5.3153,29.7405 6.3235,35.0619 7.1862,40.6299 7.9691,46.5433 8.984,52.5301 10.1368,58.9618 11.0838,66.0049 11.6135,73.3561 12.1958,80.7055 12.8075,88.4399 13.1415,96.4575 13.3329,104.5367 13.7458,112.5675 14.2752,120.6583 14.5641,128.8636 14.726,137.3426 15.1204,146.1844 15.6365,155.2935 15.9169,164.9199 16.3625,174.3636 16.8988,184.0932 17.1869,194.343 17.6321,204.4156 18.1639,214.4729 18.4479,224.8904 18.6036,235.4224 18.6933,245.7179 18.749,255.893 18.7875,266.3 18.8172,276.829 18.8426,287.4224 18.5622,298.1196 18.1221,308.5044 17.5933,319.0197 17.0123,329.6064 16.4041,340.2285 15.7866,350.8712 15.1618,361.2322 14.534,371.4379 13.907,381.5652 13.2867,391.6488 12.6683,401.4218 11.7512,411.0993 10.9928,420.57 10.3051,429.727 9.352,438.7923 8.5835,447.348 8.2039,455.3304 7.7114,463.1948 7.167,470.6081 6.5874,477.5018 5.6856,484.2262 4.939,490.3311 4.2551,495.6809 3.2803,500.4711 2.0385,506.6915 0.526,513.6915 -1.3229,519.7502 -2.3668,522.7796 A2.7921,2.7921 0 0 1 -7.6732,521.0404 T-7.2056,519.5181 -6.0507,515.1793 -4.4446,509.0317 -3.2141,503.5262 -2.3849,499.2725 -1.4341,494.9022 -0.708,489.6279 0.0989,483.4537 1.0142,477.0112 1.6298,470.1843 2.2312,462.8264 2.7823,455.0478 3.2521,446.8549 4.0951,438.2255 5.0781,429.3202 5.8113,420.1472 6.6184,410.6056 7.5497,401.0893 8.1861,391.3331 8.8159,381.2508 9.439,371.1262 10.0615,360.9256 10.6782,350.5786 11.2857,339.9406 11.88,329.3262 12.4588,318.7604 13.0001,308.2824 13.4595,297.9762 13.7641,287.4251 13.7776,276.8344 13.7847,266.3104 13.7802,255.9129 13.7544,245.755 13.6893,235.4907 13.5514,225.0233 13.2784,214.7289 12.7532,204.6292 12.3145,194.4758 12.0474,184.3595 11.5303,174.5881 11.1077,165.0505 10.8717,155.551 10.4078,146.3812 10.0647,137.421 9.9489,129.0118 9.7111,120.9407 9.2408,112.7852 8.8878,104.6269 8.7567,96.6254 8.4787,88.7684 7.9291,81.0188 7.4299,73.6256 7.0292,66.519 6.2108,59.6359 5.1446,53.15 4.2016,47.0113 3.5221,41.1801 2.7409,35.7264 1.7515,30.2669 0.9828,24.9655 0.6511,20.1422 0.5016,13.9253 -0.0559,6.8229 -1.0781,2.1485 -1.6725,0.6695 A1.8016,1.8016 0 0 1 1.6725,-0.6695 Z" stroke-linecap="round" fill="#9398b0"/></g></g><g transform="matrix(1, 0, 0, 1, 793.179, 520.0088)" opacity="1"><g transform="scale(1)"><path d="M-1.2086,-2.0154 T0.2782,-2.9005 3.9911,-4.6196 8.6732,-5.6927 14.0115,-5.5378 20.3914,-4.5901 25.8404,-3.6253 29.807,-3.0368 33.9675,-2.4442 38.245,-1.8451 42.9855,-1.5644 48.3051,-1.1083 53.7803,-0.5771 59.6107,-0.0078 65.657,0.5851 71.69,0.8851 77.8362,1.0441 84.0416,1.1275 90.6853,1.4678 97.7454,1.9419 104.622,2.1909 111.5115,2.3176 118.9967,2.3775 126.7997,2.4011 134.4744,2.4048 142.3761,2.4036 150.3976,2.3947 158.1844,2.381 165.8473,2.3705 173.7429,2.3627 181.7613,2.3629 189.8442,2.3691 197.9613,2.3735 206.0963,2.3828 214.2407,2.3956 222.3902,2.3988 230.5422,2.395 238.6957,2.3984 246.8499,2.4008 255.0045,2.3965 262.8636,2.3933 270.2691,2.391 278.0291,2.3894 285.9759,2.3882 293.4276,2.3873 300.9163,2.3867 308.4222,2.3862 315.6415,2.3859 323.0078,2.3795 330.1535,2.3689 336.885,2.355 343.6962,2.3389 350.5494,2.3212 357.4247,2.3022 364.6097,2.2824 371.3643,2.2623 377.5936,2.242 384.0192,1.9343 390.3643,1.4705 396.4993,1.2125 402.5735,0.781 408.4354,0.2484 414.1886,-0.3365 420.1986,-0.9602 426.1708,-1.3106 431.5257,-1.7845 437.033,-2.3381 442.7655,-2.6417 448.4517,-2.7891 454.4205,-2.8486 460.2335,-2.87 465.6706,-2.8777 471.2068,-2.8783 476.7946,-2.8707 482.1136,-2.8588 487.2912,-2.854 492.3931,-2.8547 497.6192,-2.5498 502.7475,-2.0959 507.3675,-1.8668 511.8774,-1.7439 516.7948,-1.3685 521.4757,-0.8747 525.5549,-0.6274 531.386,-0.4706 537.3426,-0.0732 542.6232,0.5067 548.6344,0.8665 554.6651,0.4928 557.8536,0.0124 A2.5354,2.5354 0 0 1 558.7264,5.0076 T555.0639,5.7242 548.4577,6.4094 542.0274,6.1345 534.9058,5.5755 529.281,5.2121 525.2081,5.0722 520.8801,4.8032 516.3665,4.3173 511.7173,3.9647 507.0856,3.837 502.2394,3.5906 497.2855,3.1421 492.3918,2.8567 487.2931,2.8578 482.117,2.866 476.8008,2.8842 471.219,2.904 465.6939,2.9266 460.2749,2.9627 454.4992,3.0244 448.6114,3.1228 443.0632,3.2748 437.6112,3.5394 432.0288,4.0639 426.4826,4.5139 420.772,4.7947 414.7466,5.3689 408.9263,5.9259 402.9603,6.4293 396.7237,6.8418 390.7538,7.0634 384.2624,7.5097 377.5945,7.798 371.3643,7.7777 364.6097,7.7576 357.4247,7.7378 350.5494,7.7188 343.6962,7.7011 336.885,7.685 330.1535,7.6711 323.0078,7.6605 315.6415,7.6541 308.4222,7.6538 300.9163,7.6533 293.4276,7.6527 285.9759,7.6518 278.0291,7.6506 270.2691,7.649 262.8636,7.6467 255.0045,7.6435 246.8499,7.6392 238.6957,7.6416 230.5422,7.645 222.3902,7.6412 214.2407,7.6443 206.0962,7.6571 197.9612,7.6662 189.8441,7.6705 181.761,7.6762 173.7424,7.6756 165.8462,7.6661 158.1824,7.6526 150.3941,7.6333 142.3693,7.6135 134.4613,7.5918 126.7754,7.5565 118.9479,7.5061 111.4125,7.4256 104.4386,7.2859 97.3952,7.0296 90.4272,6.5445 83.9692,6.1959 77.6997,6.1027 71.4293,5.9268 65.1566,5.5912 59.1163,4.9781 53.2762,4.3808 47.8611,3.8204 42.6493,3.3358 35.6342,2.5654 27.3623,1.2955 19.9208,0.0908 12.8544,-0.8209 6.7026,-0.4636 2.6875,1.1221 1.2086,2.0154 A2.35,2.35 0 0 1 -1.2086,-2.0154 Z" stroke-linecap="round" fill="#9398b0"/></g></g><g transform="matrix(1, 0, 0, 1, 1039.0797, 522.518)" opacity="1"><g transform="scale(1)"><path d="M2.5875,-0.3221 T2.9266,2.0469 3.5606,8.836 3.9054,15.4578 3.9148,21.3577 3.8743,25.0557 A2.6245,2.6245 0 0 1 -1.3743,25.1243 T-1.5112,21.4476 -1.6847,15.6066 -1.9023,9.2621 -2.3354,2.702 -2.5875,0.3221 A2.6075,2.6075 0 0 1 2.5875,-0.3221 Z" stroke-linecap="round" fill="#9398b0"/></g></g><g transform="matrix(1, 0, 0, 1, 1236.0511, 506.2083)" opacity="1"><g transform="scale(1)"><path d="M2.8348,-0.6302 T3.4677,2.0308 5.1127,9.99 6.308,18.4972 6.586,23.9716 6.7091,30.0141 6.7376,33.7913 A2.9786,2.9786 0 0 1 0.7824,33.9487 T0.6125,30.2166 0.359,24.2629 0.1209,18.9799 -0.2699,13.067 -1.1161,8.102 -2.2805,3.3094 -2.8348,0.6302 A2.904,2.904 0 0 1 2.8348,-0.6302 Z" stroke-linecap="round" fill="#9398b0"/></g></g><g transform="matrix(1, 0, 0, 1, 1034.0613, 590.2662)" opacity="1"><g transform="scale(1)"><path d="M 0 0 m -3.663919189857866, 0 a 3.663919189857866,3.663919189857866 0 1,1 7.327838379715732,0 a 3.663919189857866,3.663919189857866 0 1,1 -7.327838379715732,0" stroke-linecap="round" fill="#40c057"/></g></g><g transform="matrix(1, 0, 0, 1, 1035.3159, 601.5575)" opacity="1"><g transform="scale(1)"><path d="M-2.9991,-0.5979 T-2.6832,-2.0509 -3.7353,-1.9939 -4.7784,1.9624 -2.9162,2.5709 -0.4521,-1.6077 0.5732,-4.5331 0.6718,-5.1179 A2.84,2.84 0 0 1 6.2648,-4.1275 T6.1017,-3.2339 5.1943,-0.3307 3.2992,3.9024 0.1477,7.8464 -4.3129,9.4854 -8.3908,7.833 -10.7454,3.4731 -10.8376,-2.1889 -8.341,-7.747 -3.8527,-11.1363 0.9099,-9.6278 3.2931,-4.9213 3.2744,-0.9148 2.9991,0.5979 A3.0581,3.0581 0 0 1 -2.9991,-0.5979 ZM5.5318,-6.5741 T6.5212,-5.5287 9.0895,-2.945 12.5093,0.6031 15.7324,4.0871 17.1146,5.5614 A2.8455,2.8455 0 0 1 13.0054,9.4986 T11.5915,8.0546 8.1309,4.4148 4.4671,0.5387 2.1274,-1.9064 1.4049,-2.6714 A2.84,2.84 0 0 1 5.5318,-6.5741 Z" stroke-linecap="round" fill="#f2f2f2"/></g></g><g transform="matrix(1, 0, 0, 1, 1247.3424, 567.6835)" opacity="1"><g transform="scale(1)"><path d="M2.8456,-0.9485 T3.4714,0.8219 4.788,5.1125 5.8577,9.6144 6.7193,13.6963 7.3968,19.7292 7.5916,23.662 A3.3238,3.3238 0 0 1 0.9518,23.3407 T0.8544,20.2611 0.0433,13.1788 -1.1966,6.8536 -2.2842,2.7398 -2.8456,0.9485 A2.9995,2.9995 0 0 1 2.8456,-0.9485 ZM1.0829,24.4392 T0.9118,23.8068 0.7406,23.1744 A3.2954,3.2954 0 0 1 7.0637,21.3149 T7.2621,21.9392 7.4605,22.5636 A3.3238,3.3238 0 0 1 1.0829,24.4392 ZM1.64,19.8483 T2.5183,19.0584 5.8777,16.3881 10.4544,13.578 14.6242,12.1963 20.1658,11.7273 26.0874,13.1024 29.3694,17.3851 29.6297,22.321 27.3819,26.927 24.1135,30.8888 19.5698,33.4223 14.0206,35.2941 8.6201,36.8476 5.8131,37.6617 A2.653,2.653 0 0 1 4.2269,32.5983 T6.9967,31.6654 12.1784,29.904 17.7621,27.3868 22.1706,23.9658 23.1062,19.898 20.3833,17.5748 15.1119,18.4568 10.0511,21.1538 7.002,23.811 6.1643,24.641 A3.2954,3.2954 0 0 1 1.64,19.8483 Z" stroke-linecap="round" fill="#f2f2f2"/></g></g><g transform="matrix(1, 0, 0, 1, 1044.0981, 361.9299)" opacity="1"><g transform="scale(1)"><path d="M2.6447,-0.7561 T3.2398,1.32 4.4329,5.3563 5.99,10.0313 7.7181,15.6302 10.0062,21.0049 12.6693,25.6024 15.0536,29.2601 17.7148,33.2019 20.6328,38.2374 23.3714,42.9652 25.94,47.9743 28.4735,52.9839 31.0684,57.1527 34.1716,61.1237 37.2249,64.8357 39.8855,68.4394 42.5695,71.7889 45.583,75.1111 48.8939,78.9557 52.4857,82.7232 56.1493,85.5947 60.4619,87.9544 65.461,89.765 70.209,90.6452 75.2533,90.9037 79.9288,90.2112 83.6982,87.6411 87.315,83.3926 90.248,78.7064 92.6912,74.2506 94.7763,69.9658 96.7252,66.1025 99.0845,62.5693 101.9763,58.3895 104.886,54.1793 107.4533,50.2112 110.0978,46.1076 113.4105,41.8293 117.801,37.7469 122.094,34.6705 126.0087,32.5832 129.8635,31.1636 133.6482,29.8988 137.5422,29.0399 142.0333,28.7998 146.9958,28.2076 151.5091,27.5332 156.1331,27.4389 161.9512,26.894 167.2917,26.3036 171.7904,26.2347 176.2141,26.2486 180.7021,26.3913 183.1671,26.5145 A3.5955,3.5955 0 0 1 183.1729,33.7055 T181.8748,33.7695 178.3326,33.914 173.9639,34.0217 169.6685,34.0914 164.7045,34.3499 159.5341,34.948 154.6383,35.3713 150.0079,35.3828 145.6264,35.9776 140.6317,36.6114 135.7085,37.3482 130.6166,38.9155 125.8244,41.0218 121.8284,43.9314 117.6975,48.1011 114.3445,52.6015 111.9594,56.3296 109.6532,59.8761 106.9561,63.5998 103.6504,67.9919 101.0947,72.3759 99.1395,76.198 96.6554,80.491 94.0636,85.2741 91.3089,89.1636 88.1219,92.2279 83.5265,95.1375 77.4738,96.8156 71.3776,96.9279 65.5799,95.9927 59.7953,94.2252 55.0387,92.2284 51.5119,89.865 48.3145,87.1219 44.921,83.6923 41.7997,79.9953 39.2848,76.765 36.0066,72.7289 32.1253,68.0264 29.0125,64.2091 26.57,60.9209 24.1139,56.9391 21.5065,52.0171 19.0156,47.0475 16.5372,42.4035 14.1108,37.8024 11.7478,33.8617 8.8777,29.5475 5.6349,24.6028 3.497,20.1978 2.2876,16.1144 0.7077,11.5045 -0.8415,6.9214 -2.0526,2.833 -2.6447,0.7561 A2.7506,2.7506 0 0 1 2.6447,-0.7561 Z" stroke-linecap="round" fill="#ffc034"/></g></g><g transform="matrix(1, 0, 0, 1, 1037.8251, 361.9299)" opacity="1"><g transform="scale(1)"><path d="M2.3432,-0.9164 T2.0476,1.1598 1.6052,5.4316 1.3784,9.9745 1.2556,14.4546 1.1902,19.7814 1.1506,25.5533 0.8137,31.6672 0.323,38.1589 0.0613,43.2708 -0.0812,48.3256 -0.1672,53.9477 -0.5281,58.8593 -1.0181,63.5041 -1.3288,70.354 -1.5276,79.142 -1.9035,85.8793 -2.475,91.2468 -3.0844,96.4489 -3.733,101.9652 -4.1157,108.3308 -4.2473,114.6229 -4.2896,120.4663 -4.0104,125.9923 -3.4644,132.0442 -3.1354,137.974 -3.0477,143.8525 -3.0245,150.0172 -3.0262,155.9621 -3.0546,161.099 -3.1241,166.3865 -3.1719,169.3699 A1.8481,1.8481 0 0 1 -6.8681,169.3701 T-6.8919,167.7979 -6.9502,163.8245 -7.0055,158.7439 -7.0292,152.9448 -7.0417,146.7454 -7.0858,140.7336 -7.2301,134.8463 -7.7901,128.9293 -8.2356,123.4159 -8.226,117.649 -8.2013,111.0046 -8.0537,104.5012 -7.4333,97.7402 -6.6978,90.8456 -6.1699,85.5739 -5.864,79.0894 -5.729,70.1738 -5.1646,61.1522 -4.7013,53.8904 -4.6512,48.2018 -4.5356,43.0583 -4.3075,37.8298 -3.8688,31.4497 -3.573,25.5248 -3.5429,19.7169 -3.4762,14.3256 -3.3483,9.732 -3.0993,4.9373 -2.6388,0.4931 -2.3432,-1.5836 A2.3668,2.3668 0 0 1 2.3432,-0.9164 Z" stroke-linecap="round" fill="#ffc034"/></g></g><g transform="matrix(1, 0, 0, 1, 1228.5235, 389.531)" opacity="1"><g transform="scale(1)"><path d="M2.2519,-0.9015 T2.8521,0.5859 3.8525,4.2944 4.7432,9.6387 5.5139,16.2771 6.241,23.6198 6.9369,31.6419 7.6149,40.0272 8.2808,48.5963 8.6442,57.6584 8.845,66.585 8.9551,74.8461 8.7112,82.8689 8.2829,90.3661 8.0489,96.8864 7.9014,102.692 8.0551,107.9769 8.5323,113.4517 8.7936,116.4199 A2.5369,2.5369 0 0 1 3.7464,116.9401 T3.3969,113.9809 2.715,108.2084 2.4021,102.584 2.491,96.7002 2.7058,90.0506 3.1289,82.6907 3.3788,74.9075 3.3038,66.6931 3.1536,57.8647 2.8508,48.9969 2.2527,40.4349 1.6539,32.0741 1.0492,24.0895 0.4392,16.8289 -0.422,8.6791 -1.6649,2.3798 -2.2519,0.9015 A2.4256,2.4256 0 0 1 2.2519,-0.9015 Z" stroke-linecap="round" fill="#ffc034"/></g></g><g transform="matrix(1, 0, 0, 1, 1119.3738, 368.2028)" opacity="1"><g transform="scale(1)"><path d="M-1.5829,1.901 T-3.3651,0.4512 -6.0583,-1.2748 -6.9694,-1.551 A2.5647,2.5647 0 0 1 -5.0905,-6.3238 T-3.5333,-5.6283 -0.1966,-3.4169 1.5829,-1.901 A2.4738,2.4738 0 0 1 -1.5829,1.901 ZM-4.8484,-1.6611 T-5.448,-1.361 -5.7905,1.9621 -4.9382,6.9276 -3.1996,10.7845 -0.0774,11.8652 2.2475,8.502 2.5935,5.9725 A2.4447,2.4447 0 0 1 7.4465,6.5675 T7.2211,8.453 6.0112,12.9729 2.6766,16.8591 -2.7368,17.0212 -7.2234,13.7796 -9.6335,8.7172 -10.7768,2.6859 -9.7735,-2.9491 -7.9127,-5.8387 -7.2115,-6.2137 A2.5647,2.5647 0 0 1 -4.8484,-1.6611 ZM7.4638,6.3341 T7.4418,6.9017 8.5713,9.5788 10.9936,14.7637 13.5247,21.3868 15.3586,28.5779 15.7347,36.0265 14.2312,41.5247 9.1446,44.7804 2.2627,46.6911 -3.1657,46.8702 -7.8404,46.5157 -10.1884,46.3302 A2.4248,2.4248 0 0 1 -9.8916,41.4898 T-5.6459,41.6823 1.2518,41.5831 7.2853,39.9336 10.7839,35.6451 10.4767,29.5588 9.478,24.5003 7.7441,19.396 5.5045,14.151 3.488,9.8909 2.564,6.94 2.5762,6.2059 A2.4447,2.4447 0 0 1 7.4638,6.3341 Z" stroke-linecap="round" fill="#ffc034"/></g></g><g transform="matrix(1, 0, 0, 1, 1034.0613, 482.371)" opacity="1"><g transform="scale(1)"><path d="M1.8512,-1.5876 T3.6297,0.491 6.9859,4.5997 9.9988,8.5868 13.0142,12.3651 16.1015,16.1259 19.0411,20.3511 21.7153,24.2909 25.2013,28.9099 28.4988,33.4451 29.5522,35.0154 A2.3818,2.3818 0 0 1 25.6478,37.7446 T23.6036,34.9401 20.223,30.569 17.5094,27.1686 14.8477,23.2456 12.1676,19.3002 9.097,15.4465 6.0551,11.5343 3.2017,7.678 -0.068,3.662 -1.8512,1.5876 A2.4387,2.4387 0 0 1 1.8512,-1.5876 Z" stroke-linecap="round" fill="#ffc034"/></g></g><g transform="matrix(1, 0, 0, 1, 1047.8618, 456.0245)" opacity="1"><g transform="scale(1)"><path d="M1.6029,-1.2827 T5.1545,3.1764 11.5151,11.4945 16.9802,18.8181 21.9762,25.6328 26.7361,32.507 31.5613,38.9952 36.1497,44.7698 40.0334,49.619 43.6616,53.2197 47.9147,56.681 50.2401,58.5806 A2.0986,2.0986 0 0 1 47.6199,61.8594 T45.2542,60.0102 40.606,56.3582 36.5401,52.4624 32.5824,47.5927 27.9193,41.6836 23.0695,35.0039 18.4821,28.1467 13.6217,21.3006 8.2642,13.9662 1.9689,5.7254 -1.6029,1.2827 A2.053,2.053 0 0 1 1.6029,-1.2827 Z" stroke-linecap="round" fill="#ffc034"/></g></g><g transform="matrix(1, 0, 0, 1, 1075.4629, 451.0061)" opacity="1"><g transform="scale(1)"><path d="M1.4995,-1.4995 T4.1673,1.1732 10.6857,8.2625 18.0395,16.7509 24.8568,24.4098 31.4086,31.3583 37.5869,38.0077 43.2641,44.5178 48.01,49.9977 52.4694,54.584 56.7749,58.4271 60.7007,61.3366 65.1992,64.354 67.6272,65.9763 A2.1069,2.1069 0 0 1 65.3528,69.5237 T62.8652,67.9945 58.0362,65.0318 53.675,61.9983 49.0049,57.948 44.3223,53.1838 39.6102,47.6703 34.0902,41.2094 28.0234,34.5098 21.4821,27.3834 14.7188,19.5987 7.5578,11.1683 1.1729,4.167 -1.4995,1.4995 A2.1207,2.1207 0 0 1 1.4995,-1.4995 Z" stroke-linecap="round" fill="#ffc034"/></g></g><g transform="matrix(1, 0, 0, 1, 1133.1743, 456.0245)" opacity="1"><g transform="scale(1)"><path d="M1.6718,-1.1804 T5.2441,3.8567 11.8876,13 17.7657,20.7456 22.9208,27.1605 28.2991,33.4882 34.1258,40.4071 39.5063,46.3611 44.2925,50.9026 48.6073,53.7729 53.373,55.8899 56.0265,57.0909 A2.0528,2.0528 0 0 1 54.3735,60.8491 T51.6951,59.7049 46.3434,57.372 41.2974,54.1434 36.2018,49.3649 30.7114,43.2705 24.9216,36.3383 19.5121,29.8909 14.3302,23.3285 8.4829,15.4609 1.8793,6.2324 -1.6718,1.1804 A2.0466,2.0466 0 0 1 1.6718,-1.1804 Z" stroke-linecap="round" fill="#ffc034"/></g></g><g transform="matrix(1, 0, 0, 1, 1170.8121, 427.1688)" opacity="1"><g transform="scale(1)"><path d="M1.7778,-1.2438 T3.8716,1.7126 8.316,8.6737 13.1014,17.474 18.2555,27.4277 23.878,38.3056 29.1455,48.1883 34.1904,57.0342 36.8713,61.7174 A2.0144,2.0144 0 0 1 33.3887,63.7426 T30.6444,59.0963 25.3948,50.239 19.937,40.3645 14.2193,29.5133 9.1098,19.6324 4.5529,11.0712 0.2813,4.2236 -1.7778,1.2438 A2.1697,2.1697 0 0 1 1.7778,-1.2438 Z" stroke-linecap="round" fill="#ffc034"/></g></g><g transform="matrix(1, 0, 0, 1, 1130.6651, 508.7175)" opacity="1"><g transform="scale(1)"><path d="M2.0716,1.3829 T1.4935,2.2478 0.2827,5.5331 -0.8301,10.5483 -1.5725,15.4008 -2.2821,20.7093 -2.944,28.1979 -3.5816,36.3079 -4.2088,44.7468 -4.5221,52.9481 -4.9924,60.9329 -5.5335,69.8775 -5.8139,77.4871 -5.9678,85.3471 -6.0496,94.5227 -5.7946,103.1291 -5.351,111.2212 -5.1113,118.2399 -4.6936,124.1865 -3.8701,131.4114 -3.121,139.7933 -2.433,146.8033 -1.4848,153.0652 -0.0984,160.8115 1.5194,169.0304 3.2484,176.5707 4.7678,183.2792 6.1509,189.1429 8.0258,195.0132 10.1868,200.7405 12.5247,206.7732 14.6806,213.0416 17.2979,219.4547 19.8378,224.8756 21.8374,229.6554 24.605,234.8952 27.8099,240.1506 31.2492,244.8567 34.3226,248.4568 36.0429,250.2773 36.5559,250.378 A2.3547,2.3547 0 0 1 34.655,254.6868 T32.6156,253.1006 29.0054,249.7108 25.5047,245.3742 21.7279,240.0154 18.572,234.7073 15.7194,228.8683 13.1044,223.5499 11.194,219.6403 9.4374,214.8455 7.3372,208.788 4.9827,202.6961 2.7454,196.6807 0.7798,190.4018 -0.6187,184.4672 -2.1249,177.7992 -3.8843,170.0903 -5.5109,161.7593 -6.9061,153.8713 -7.8616,147.3583 -8.5331,140.2606 -9.2326,132.0057 -10.036,124.5533 -10.4528,118.4099 -10.6655,111.4988 -11.0803,103.2917 -11.3325,94.4776 -11.2545,85.2362 -11.1053,77.2936 -10.8105,69.556 -10.2602,60.6339 -9.7815,52.7384 -9.4159,44.3233 -8.755,35.8706 -8.0791,27.6891 -7.3797,20.0246 -6.6278,14.6022 -5.719,9.2256 -4.2038,3.3652 -2.6807,-0.4693 -2.0716,-1.3829 A2.4908,2.4908 0 0 1 2.0716,1.3829 ZM34.1429,250.687 T34.5599,250.4039 34.7835,247.427 34.3951,242.1637 33.8645,236.5127 33.2503,230.8754 32.872,227.1745 32.7721,226.0295 A2.3663,2.3663 0 0 1 37.4879,225.6305 T37.6623,227.7645 38.3138,232.911 38.8754,238.6392 39.3087,244.5696 38.9081,250.6014 37.6133,253.8982 37.068,254.3779 A2.3547,2.3547 0 0 1 34.1429,250.687 ZM37.4962,225.8138 T37.497,226.9185 38.1417,230.2612 39.8934,235.8347 41.6263,241.2388 43.475,246.6573 45.0778,252.0098 44.5946,257.6621 40.708,263.7877 33.1403,267.0953 26.598,268.0578 21.6115,267.9026 15.4931,267.3139 12.3622,267.0113 A2.299,2.299 0 0 1 12.7378,262.4287 T15.8761,262.6398 23.5822,262.9097 30.5309,262.803 35.7069,261.8287 39.5672,259.1442 40.4963,254.3983 39.1153,248.0783 37.2938,242.7101 35.5987,237.5144 33.6362,231.1164 32.7779,226.921 32.7638,225.8462 A2.3663,2.3663 0 0 1 37.4962,225.8138 Z" stroke-linecap="round" fill="#ffc034"/></g></g><g transform="matrix(1, 0, 0, 1, 1215.9776, 729.5262)" opacity="1"><g transform="scale(1)"><path d="M-2.6523,0 T-2.6499,-3.8573 -2.6505,-10.0403 -3.268,-14.5485 -4.1482,-16.8612 -4.4139,-16.9914 A2.6862,2.6862 0 0 1 -0.7228,-20.8951 T0.6574,-18.6821 2.3455,-14.423 2.6505,-10.0458 2.6499,-3.8573 2.6523,0 A2.6523,2.6523 0 0 1 -2.6523,0 ZM-2.2921,-16.2712 T-2.5737,-16.2406 -2.8554,-16.2099 A2.6893,2.6893 0 0 1 -3.4086,-21.56 T-3.1266,-21.5876 -2.8447,-21.6152 A2.6862,2.6862 0 0 1 -2.2921,-16.2712 ZM-0.7205,-17.6946 T-1.1655,-16.7898 -2.3041,-13.2701 -3.6811,-7.6055 -4.5637,0.2052 -4.5143,7.813 -3.5707,13.5374 -2.4787,18.6972 -1.0476,23.6978 0.8892,29.5444 2.5492,35.1404 4.001,39.7972 5.114,44.5213 5.8492,50.8729 5.9432,58.4339 4.2523,65.0385 0.0625,69.8201 -6.2397,71.9922 -13.4232,70.9238 -18.7275,68.5405 -22.2584,66.3327 -24.0881,65.1892 A2.8848,2.8848 0 0 1 -21.0719,60.2708 T-19.223,61.3832 -14.6887,64.1144 -9.5866,66.3072 -4.3943,65.8449 -0.5635,63.0392 0.6961,58.1238 0.6285,51.4205 0.0422,45.7042 -0.9664,41.3322 -2.4186,36.6092 -4.016,31.1563 -6.0075,25.0484 -7.5339,19.7508 -8.6791,14.3716 -9.7279,7.9876 -9.9516,1.9357 -9.7731,-3.1421 -8.9723,-8.4434 -7.3674,-14.924 -5.9916,-19.1709 -5.5435,-20.0753 A2.6893,2.6893 0 0 1 -0.7205,-17.6946 Z" stroke-linecap="round" fill="#ffc034"/></g></g><g transform="matrix(1, 0, 0, 1, 1209.7046, 819.857)" opacity="1"><g transform="scale(1)"><path d="M-1.9697,-1.9697 T-1.0905,-2.8561 0.0495,-4.2623 0.3103,-4.7822 A2.8193,2.8193 0 0 1 5.1212,-1.8413 T4.4448,-0.8279 2.869,1.0776 1.9697,1.9697 A2.7856,2.7856 0 0 1 -1.9697,-1.9697 ZM1.0273,-1.0539 T0.1961,-1.6625 -0.635,-2.2711 A2.8401,2.8401 0 0 1 2.7667,-6.82 T3.5854,-6.1948 4.4042,-5.5695 A2.8193,2.8193 0 0 1 1.0273,-1.0539 ZM2.4708,-2.0774 T1.6505,-1.6042 -0.7234,1.3893 -2.6328,6.3497 -2.894,10.9963 -2.4873,13.7846 -2.1752,14.3665 A2.8177,2.8177 0 0 1 -7.2478,16.8216 T-7.7898,15.639 -8.534,11.334 -8.5148,6.1375 -7.0971,1.3285 -3.9909,-3.7205 -1.2102,-6.5241 -0.3392,-7.0137 A2.8401,2.8401 0 0 1 2.4708,-2.0774 ZM-4.1408,12.8347 T-3.3251,13.0182 -2.5094,13.2016 A2.7889,2.7889 0 0 1 -3.6391,18.6638 T-4.4607,18.5086 -5.2822,18.3534 A2.8177,2.8177 0 0 1 -4.1408,12.8347 ZM-4.7926,13.7361 T-3.7575,12.9632 -1.4451,10.2306 0.4865,5.6184 1.594,1.5691 2.0473,0.1724 A2.3587,2.3587 0 0 1 6.5312,1.6381 T6.1217,3.5654 5.0584,8.0598 2.5347,13.551 -0.3456,17.3022 -1.3559,18.1293 A2.7889,2.7889 0 0 1 -4.7926,13.7361 ZM4.6937,-1.4186 T5.1619,-1.3354 5.6301,-1.2522 A2.3554,2.3554 0 0 1 4.8222,3.3888 T4.3535,3.3089 3.8848,3.229 A2.3587,2.3587 0 0 1 4.6937,-1.4186 ZM7.261,-0.118 T7.8167,0.8093 10.0411,3.5939 13.9653,7.9015 17.7609,11.761 19.301,13.1701 A2.5696,2.5696 0 0 1 15.819,16.9499 T14.2886,15.5303 10.403,11.4575 6.1536,6.4713 3.7253,3.1964 3.1913,2.2546 A2.3554,2.3554 0 0 1 7.261,-0.118 Z" stroke-linecap="round" fill="#ffc034"/></g></g><g transform="matrix(1, 0, 0, 1, 1213.4684, 660.5235)" opacity="1"><g transform="scale(1)"><path d="M0.5967,-2.3963 T1.8397,-2.113 5.393,0.9429 8.4997,6.516 9.6816,11.6512 9.7849,15.3066 9.5028,16.6271 A2.829,2.829 0 0 1 4.0829,15.0031 T4.1598,13.967 3.643,10.119 2.3577,5.1596 0.5347,2.7043 -0.5967,2.3963 A2.4694,2.4694 0 0 1 0.5967,-2.3963 ZM7.5535,18.5399 T7.1321,18.6495 6.7108,18.7591 A2.8135,2.8135 0 0 1 5.1978,13.3393 T5.615,13.2148 6.0322,13.0903 A2.829,2.829 0 0 1 7.5535,18.5399 ZM3.4529,17.3373 T3.0418,16.1899 4.0645,12.727 8.4224,9.6916 14.7343,9.5353 20.3363,12.2488 21.7092,17.3852 18.4741,21.5558 13.6503,23.2324 9.1655,24.3784 7.1109,25.032 A2.5922,2.5922 0 0 1 5.4291,20.128 T6.6127,19.6849 9.9095,18.6572 14.0481,16.5622 13.9842,14.6833 9.9117,14.3748 8.192,14.598 8.4557,14.7611 A2.8135,2.8135 0 0 1 3.4529,17.3373 Z" stroke-linecap="round" fill="#ffc034"/></g></g><g transform="matrix(1, 0, 0, 1, 1251.1062, 749.5997)" opacity="1"><g transform="scale(1)"><path d="M1.4326,2.1489 T-0.3286,3.3577 -3.2131,7.1212 -3.3579,10.9794 -2.3794,12.283 A2.7058,2.7058 0 0 1 -2.8518,17.6739 T-4.7134,17.2298 -8.1904,14.4123 -9.38,9.052 -6.9939,3.1237 -3.2331,-0.9833 -1.4326,-2.1489 A2.5826,2.5826 0 0 1 1.4326,2.1489 ZM-4.4566,12.9955 T-3.8487,12.4499 -2.133,8.923 -0.8372,3.448 -0.6491,0.9543 A2.409,2.409 0 0 1 4.1611,0.6804 T4.0232,3.9604 3.3427,9.3415 1.6419,13.5988 -0.1453,16.3583 -0.7746,16.9613 A2.7058,2.7058 0 0 1 -4.4566,12.9955 ZM4.0965,1.3876 T3.9247,1.9159 4.5568,4.705 6.3331,8.8029 9.5243,14.6111 12.7861,20.425 15.3105,25.024 17.6746,30.651 19.0086,35.9369 19.7928,41.9726 19.1305,47.6987 15.7763,51.8588 9.6111,54.2213 3.832,54.0453 -0.1544,51.851 -3.3952,48.26 -5.7862,44.5392 -6.9497,42.6995 A2.3265,2.3265 0 0 1 -3.0903,40.1005 T-0.8689,43.2291 3.8318,47.6749 8.9319,48.663 13.0301,46.8702 14.2069,42.3585 13.5709,37.1676 12.6248,32.6206 10.6623,27.4696 8.3516,22.8813 5.24,16.9098 1.6918,9.4825 -0.3379,4.1875 -0.7782,1.2184 -0.5846,0.247 A2.409,2.409 0 0 1 4.0965,1.3876 Z" stroke-linecap="round" fill="#ffc034"/></g></g><g transform="matrix(1, 0, 0, 1, 1276.1981, 732.0354)" opacity="1"><g transform="scale(1)"><path d="M2.5913,0.7408 T1.9844,2.8135 0.7592,6.8953 -0.4619,11.1032 -1.663,15.6523 -2.5429,20.0032 -2.762,25.2723 -1.8247,30.6502 1.4758,34.0831 3.9015,35.4064 A2.6315,2.6315 0 0 1 1.1185,39.8736 T-0.4427,38.9487 -4.304,35.5477 -7.6301,29.2328 -8.4558,23.2831 -7.8818,18.8989 -6.8632,14.2494 -5.5837,9.6091 -4.3505,5.3824 -3.1716,1.3395 -2.5913,-0.7408 A2.6951,2.6951 0 0 1 2.5913,0.7408 Z" stroke-linecap="round" fill="#ffc034"/></g></g><g transform="matrix(1, 0, 0, 1, 1297.5262, 742.0722)" opacity="1"><g transform="scale(1)"><path d="M2.9369,1.3479 T1.774,2.8483 -0.8645,6.3233 -4.6172,11.4042 -8.8138,17.2766 -10.7332,20.0426 A2.1898,2.1898 0 0 1 -14.3668,17.5974 T-13.3688,16.0684 -10.3169,11.707 -7.1133,7.1914 -4.4071,3.5455 -1.6437,0.1174 -0.4369,-1.3479 A2.1593,2.1593 0 0 1 2.9369,1.3479 Z" stroke-linecap="round" fill="#ffc034"/></g></g><g transform="matrix(1, 0, 0, 1, 1286.2349, 747.0905)" opacity="1"><g transform="scale(1)"><path d="M1.634,-1.634 T3.4192,0.1425 6.7466,3.438 10.3168,6.8167 14.2402,9.5547 16.1357,10.4329 A2.3747,2.3747 0 0 1 13.9843,14.6671 T11.4104,13.2744 6.8998,10.0883 3.441,6.7496 0.1425,3.4192 -1.634,1.634 A2.3109,2.3109 0 0 1 1.634,-1.634 Z" stroke-linecap="round" fill="#ffc034"/></g></g><g transform="matrix(1, 0, 0, 1, 1301.29, 725.7624)" opacity="1"><g transform="scale(1)"><path d="M2.1421,-1.7836 T3.5998,0.0181 6.3972,3.3169 9.8579,8.4912 13.5155,16.2538 15.468,22.284 16.1243,26.5267 15.8609,32.5014 13.6078,38.9494 9.3043,43.8069 6.7502,45.8931 A2.6318,2.6318 0 0 1 3.2898,41.9269 T5.2503,40.0742 8.4219,36.2524 10.0106,31.8187 9.943,25.6606 8.1897,18.1737 5.2883,11.4092 2.2844,6.8708 -0.6341,3.5436 -2.1421,1.7836 A2.7874,2.7874 0 0 1 2.1421,-1.7836 Z" stroke-linecap="round" fill="#ffc034"/></g></g><g transform="matrix(1, 0, 0, 1, 1332.6549, 740.8176)" opacity="1"><g transform="scale(1)"><path d="M-2.3071,-0.988 T-1.3773,-3.0468 -1.0912,-7.2679 -2.7978,-6.2842 -4.2484,0.0803 -4.001,7.0863 -0.7089,8.8952 2.649,3.5268 3.7682,-2.6014 4.4307,-8.802 4.5326,-16.0978 4.0465,-23.7372 3.2454,-29.763 2.5373,-33.9653 2.6086,-36.6409 2.9243,-37.5886 2.9729,-38.0917 3.1405,-38.5684 3.4173,-38.9913 3.7873,-39.3356 4.2289,-39.5813 4.7165,-39.7142 5.2217,-39.7266 5.7152,-39.6177 6.1683,-39.3938 6.5547,-39.068 6.8518,-38.6593 7.0425,-38.1912 7.9618,-34.6257 9.5893,-29.1705 11.4254,-23.4294 13.354,-16.438 14.6948,-10.3064 15.9924,-4.4912 17.2529,0.5976 17.8893,4.6683 18.3,8.8743 18.5102,11.0294 A2.2156,2.2156 0 0 1 14.1098,11.5506 T13.8108,9.406 12.8238,3.5252 11.3145,-3.5025 10.0963,-9.3675 8.916,-15.2663 7.1826,-22.0917 5.1474,-29.2039 3.4964,-35.0749 2.9243,-37.5886 2.9729,-38.0917 3.1405,-38.5684 3.4173,-38.9913 3.7873,-39.3356 4.2289,-39.5813 4.7165,-39.7142 5.2217,-39.7266 5.7152,-39.6177 6.1683,-39.3938 6.5547,-39.068 6.8518,-38.6593 7.0425,-38.1912 7.0496,-35.4199 7.5454,-30.4454 8.549,-24.0749 9.2346,-16.0722 9.3072,-8.3252 8.7831,-1.7515 7.6506,5.105 6.0052,11.0549 1.9985,15.8953 -3.8773,17.1716 -7.5515,13.7559 -8.8894,9.5764 -9.487,5.0713 -9.4717,0.7524 -8.2737,-4.82 -6.3073,-10.3921 -2.5694,-13.1142 2.4852,-11.6402 4.3915,-6.3926 3.1558,-1.1062 2.3071,0.988 A2.5098,2.5098 0 0 1 -2.3071,-0.988 Z" stroke-linecap="round" fill="#ffc034"/></g></g><g transform="matrix(1, 0, 0, 1, 1366.529, 718.2349)" opacity="1"><g transform="scale(1)"><path d="M3.5436,1.3088 T2.3582,3.3849 -0.3374,8.0636 -2.9173,12.6002 -5.4691,17.0666 -8.0133,21.4992 -10.7388,25.2114 -14.0555,28.78 -15.7084,30.5366 A2.4979,2.4979 0 0 1 -19.4116,27.1834 T-16.585,23.9679 -12.6813,18.8164 -10.1496,14.3864 -7.5755,9.9251 -4.9341,5.4013 -2.228,0.768 -1.0436,-1.3088 A2.6407,2.6407 0 0 1 3.5436,1.3088 Z" stroke-linecap="round" fill="#ffc034"/></g></g><g transform="matrix(1, 0, 0, 1, 1353.983, 725.7624)" opacity="1"><g transform="scale(1)"><path d="M1.5383,-1.5383 T3.6076,0.5453 7.3739,4.3083 10.6398,7.8289 13.3904,11.6421 15.7754,15.6505 16.9786,17.6868 A2.2282,2.2282 0 0 1 13.1414,19.9532 T10.9614,16.2326 7.384,10.7909 4.3078,7.3734 0.5453,3.6076 -1.5383,1.5383 A2.1755,2.1755 0 0 1 1.5383,-1.5383 Z" stroke-linecap="round" fill="#ffc034"/></g></g><g transform="matrix(1, 0, 0, 1, 181.3827, 702.344)" opacity="1"><g transform="scale(1)"><path d="M2.1518,0 T2.1557,2.6559 2.1625,7.849 2.1623,13.2417 2.1567,19.1193 1.7641,25.0171 1.1752,30.7739 0.8681,36.3204 0.7014,41.5255 0.6109,46.9196 0.5614,52.4175 0.534,57.9719 0.5182,63.9341 0.1185,69.8735 -0.4646,75.6535 -0.748,81.9661 -0.891,88.3349 -0.9574,94.7292 -0.9758,101.5112 -0.975,107.7431 -0.9643,113.6812 -1.3319,120.3441 -1.9032,127.2733 -2.5874,133.9693 -3.7112,141.0167 -4.6647,148.0223 -5.5459,154.772 -6.3864,161.7291 -7.2082,168.8065 -8.0228,175.5821 -8.8279,182.5529 -9.6308,189.6411 -10.0432,196.2988 -10.2624,203.2141 -10.3787,210.2709 -10.8354,217.157 -11.4618,224.1933 -11.7852,231.5627 -11.9595,238.8667 -12.0529,246.1296 -12.103,253.7491 -12.1363,261.5585 -12.1617,269.4677 -12.1775,277.0505 -11.8186,284.3507 -11.2559,291.9934 -10.9567,299.5422 -10.8025,306.9325 -10.7231,314.2442 -10.6826,321.133 -10.6559,327.7974 -10.2579,334.216 -9.6588,340.6325 -9.3316,347.176 -9.1584,353.6599 -9.0659,360.491 -9.016,367.5059 -8.9888,374.617 -8.9739,381.7789 -8.5921,388.4593 -8.0076,395.3989 -7.6916,402.5968 -7.156,409.6862 -6.4878,416.8319 -6.12,424.1262 -5.9255,431.7695 -5.4512,439.0875 -4.8202,445.9745 -4.4785,453.1422 -4.2932,460.3371 -4.1884,467.5416 -4.1308,475.1334 -4.0987,482.546 -4.0743,489.865 -4.0532,497.5159 -4.0393,504.962 -3.6566,511.7874 -3.0706,518.803 -2.7528,526.046 -2.5805,532.893 -2.1129,539.3992 -1.4861,545.0788 -1.1574,549.7184 -1.0165,554.0892 -0.9386,558.8348 -0.8956,561.318 A2.3152,2.3152 0 0 1 -5.5244,561.442 T-5.6144,558.9601 -5.7889,554.2844 -5.9939,550.06 -6.3216,545.5883 -6.9403,539.7409 -7.4,533.0084 -7.5512,526.2502 -7.8474,519.201 -8.4262,512.0572 -8.8091,504.966 -8.8026,497.5203 -8.7957,489.8738 -8.7983,482.562 -8.8173,475.1636 -8.8568,467.6022 -8.936,460.4496 -9.1001,453.3618 -9.4214,446.388 -10.0484,439.3923 -10.5251,431.8829 -10.6991,424.3511 -11.0305,417.2466 -11.6891,410.0214 -12.2353,402.793 -12.5358,395.7827 -13.1211,388.7223 -13.514,381.7884 -13.5241,374.6324 -13.5445,367.5349 -13.5847,360.549 -13.6632,353.7734 -13.8147,347.3897 -14.1034,341.0318 -14.6729,334.4829 -15.0566,327.8146 -15.077,321.1614 -15.1259,314.295 -15.2161,307.0301 -15.3838,299.7211 -15.6954,292.3289 -16.2917,284.5721 -16.687,277.0475 -16.689,269.4602 -16.6881,261.5439 -16.6714,253.7206 -16.6268,246.0726 -16.5404,238.7616 -16.3736,231.3625 -16.0497,223.7837 -15.4478,216.8517 -15.0188,210.193 -14.8996,203.0633 -14.6719,196.0105 -14.2362,189.1239 -13.4299,182.0266 -12.6174,175.0314 -11.7987,168.2663 -10.9661,161.1653 -10.1126,154.1695 -9.2154,147.4039 -8.2302,140.2878 -7.1115,133.4992 -6.4214,126.8925 -5.8302,120.0946 -5.4278,113.6704 -5.392,107.7266 -5.3437,101.4824 -5.2718,94.67 -5.1671,88.2288 -4.9852,81.7573 -4.6521,75.2203 -4.0655,69.578 -3.6907,63.9226 -3.6816,57.9538 -3.6621,52.3838 -3.6225,46.8522 -3.5438,41.3968 -3.3895,36.0938 -3.0876,30.3351 -2.5209,24.7193 -2.1567,19.1165 -2.1623,13.2417 -2.1625,7.849 -2.1557,2.6559 -2.1518,0 A2.1518,2.1518 0 0 1 2.1518,0 Z" stroke-linecap="round" fill="#f2f2f2"/></g></g><g transform="matrix(1, 0, 0, 1, 59.4833, 1140.2195)" opacity="1"><g transform="scale(1)"><path d="M2.4957,-2.0912 T5.1482,-0.9491 9.8197,0.7375 13.8242,1.9989 18.9908,3.2038 26.3004,3.8269 34.2757,3.6363 40.4913,3.1079 45.2414,2.7983 49.8326,2.2752 54.9219,1.6146 60.271,0.8854 65.3452,0.1209 70.7006,-0.6645 76.1747,-1.4563 81.7138,-2.2584 87.6797,-3.0799 93.8613,-3.912 99.7571,-4.7399 105.5111,-5.5699 111.5943,-6.4074 117.5993,-6.8828 123.4209,-7.1474 129.5306,-7.3016 135.623,-7.7669 141.8679,-8.4086 148.3528,-8.7704 154.8075,-8.9643 161.2438,-9.0638 167.67,-9.1178 174.091,-9.1475 180.8877,-9.158 187.8846,-9.1508 194.6061,-9.1382 201.5611,-9.1283 208.6414,-9.1208 215.4093,-9.1212 222.3911,-9.1274 229.4832,-9.1319 236.6335,-9.1412 243.8174,-9.1661 251.1603,-8.8143 258.4491,-8.2748 265.5591,-8.0311 272.716,-7.9303 279.5246,-7.8881 286.5229,-7.8621 293.6264,-7.846 300.9372,-7.4467 308.2072,-6.8476 315.2961,-6.5261 322.819,-6.339 330.2031,-6.2464 337.5101,-6.2078 344.7739,-6.2007 351.8057,-5.8335 358.9189,-5.2752 366.2912,-5.0034 373.7644,-4.4853 380.744,-3.8482 387.2918,-3.5363 393.7713,-3.3809 400.5952,-3.3034 407.6063,-3.2718 414.7184,-3.2647 422.0549,-2.8767 428.9585,-2.2931 435.8315,-1.9971 442.8639,-1.8397 449.986,-1.7505 456.7758,-1.7083 463.0109,-1.6923 469.7078,-1.6856 476.2717,-1.6831 482.3869,-1.6826 488.2654,-1.6778 493.6386,-1.6696 498.3669,-1.6525 502.7555,-1.6184 509.1375,-1.4732 513.2601,-1.3483 A2.9483,2.9483 0 0 1 513.2599,4.5483 T509.1373,4.673 502.7551,4.8178 498.3662,4.8513 493.6374,4.8674 488.2634,4.8737 482.3832,4.8748 476.2652,4.8684 469.6953,4.8576 462.9859,4.8393 456.7335,4.8077 449.907,4.7596 442.7161,4.6774 435.5406,4.5097 428.4049,4.1888 421.687,3.6018 414.6916,3.2046 407.5599,3.1577 400.5031,3.0869 393.5932,2.9701 386.9639,2.7567 380.1526,2.3689 373.298,1.6782 366.0359,1.1129 358.4078,0.7648 351.4537,0.1471 344.7527,-0.2723 337.4735,-0.3126 330.136,-0.3642 322.692,-0.4426 315.0385,-0.5802 307.7261,-0.8746 300.6207,-1.4442 293.605,-1.8267 286.4839,-1.8579 279.4509,-1.9216 272.586,-2.0495 265.3124,-2.2717 258.0004,-2.6408 250.8743,-3.2642 243.816,-3.6738 236.6335,-3.6986 229.4833,-3.7077 222.3914,-3.7119 215.4098,-3.7176 208.6422,-3.717 201.5626,-3.7074 194.609,-3.6936 187.89,-3.6737 180.8986,-3.6527 174.1124,-3.6369 167.7107,-3.6167 161.3208,-3.576 154.9534,-3.4957 148.6281,-3.3486 142.3867,-3.0633 135.9985,-2.477 129.6344,-2.0572 123.6231,-1.977 117.9597,-1.7968 112.251,-1.4281 106.1864,-0.6641 100.4048,0.1089 94.4818,0.8867 88.3162,1.6565 82.3772,2.4295 76.8415,3.2171 71.3713,4.0056 66.0388,4.7829 60.9116,5.5477 55.5375,6.2752 50.3585,6.9337 45.5445,7.4777 41.0822,7.7569 34.6116,8.2892 28.0781,8.575 21.9561,8.1839 14.3456,6.7612 8.3215,5.0117 3.3636,3.2242 0.7043,2.0912 A2.2749,2.2749 0 0 1 2.4957,-2.0912 Z" stroke-linecap="round" fill="#f2f2f2"/></g></g><g transform="matrix(1, 0, 0, 1, 255.164, 1119.3682)" opacity="1"><g transform="scale(1)"><path d="M2.4916,-0.4971 T2.8994,1.3936 3.9032,5.3271 4.8697,9.799 5.7824,14.4315 6.6146,19.1514 6.9898,23.7387 7.1761,28.0476 7.2774,30.2855 A2.4743,2.4743 0 0 1 2.3426,30.6545 T1.8954,26.4888 1.1696,20.1055 0.354,15.4253 -0.4239,10.8642 -1.2292,6.5341 -2.1426,2.3999 -2.4916,0.4971 A2.5407,2.5407 0 0 1 2.4916,-0.4971 Z" stroke-linecap="round" fill="#f2f2f2"/></g></g><g transform="matrix(1, 0, 0, 1, 484.5273, 1127.3879)" opacity="1"><g transform="scale(1)"><path d="M2.6033,-0.5194 T3.0122,1.37 4.3817,7.1414 5.6284,14.7404 5.8835,20.549 5.8309,24.927 5.8093,27.2133 A2.5999,2.5999 0 0 1 0.6107,27.3267 T0.4894,25.0435 0.178,19.072 -0.3657,11.7785 -1.3135,6.2504 -2.2554,2.4234 -2.6033,0.5194 A2.6546,2.6546 0 0 1 2.6033,-0.5194 Z" stroke-linecap="round" fill="#f2f2f2"/></g></g><g transform="matrix(1, 0, 0, 1, 255.164, 1189.9416)" opacity="1"><g transform="scale(1)"><path d="M1.3432,2.2395 T-0.5494,3.382 -4.0616,5.7851 -7.7348,10.2899 -10.4613,17.2912 -10.4816,23.7545 -7.9477,27.6599 -4.7892,27.1749 -2.5834,23.4538 -1.3182,18.3875 -0.414,14.1646 0.1539,12.971 A2.5262,2.5262 0 0 1 4.4528,15.6256 T4.2069,15.7498 3.8452,18.1418 3.0462,23.2163 0.9592,28.4167 -3.3771,32.3651 -9.7553,32.4974 -14.5896,27.9853 -16.2007,22.6387 -16.0894,17.9781 -15.0424,13.1917 -13.2033,8.9954 -10.5091,5.0605 -7.0428,1.4825 -3.2441,-1.1069 -1.3432,-2.2395 A2.6114,2.6114 0 0 1 1.3432,2.2395 ZM3.6473,12.1592 T5.2106,13.177 8.9535,16.1622 13.9271,21.3531 19.4635,26.7631 23.926,30.1897 25.6459,31.43 A2.7528,2.7528 0 0 1 22.4741,35.93 T20.7278,34.7272 17.2797,32.3423 13.889,29.6111 9.5972,24.8081 4.9857,19.594 1.9681,17.0355 0.9594,16.4374 A2.5262,2.5262 0 0 1 3.6473,12.1592 Z" stroke-linecap="round" fill="#f2f2f2"/></g></g><g transform="matrix(1, 0, 0, 1, 492.547, 1189.9416)" opacity="1"><g transform="scale(1)"><path d="M3.1988,0 T3.1882,1.8925 3.7578,8.0501 4.4613,14.7158 4.6564,19.5179 4.7787,24.3222 4.8477,28.7488 3.6758,35.0684 2.4854,39.3645 A3.2269,3.2269 0 0 1 -3.1203,36.1664 T-2.4276,33.4946 -1.747,28.8142 -1.7672,24.4386 -1.814,19.7389 -1.9398,15.141 -2.2021,10.7486 -2.7774,6.2118 -3.1882,1.901 -3.1988,0 A3.1988,3.1988 0 0 1 3.1988,0 ZM-3.0022,39.5558 T-3.6365,38.4517 -4.3938,34.5874 -2.8019,28.3017 1.3039,22.7182 7.2579,18.8926 12.803,16.6351 16.8625,16.2739 22.4172,17.4835 27.6805,20.9278 29.8808,26.4344 29.8108,31.566 28.2096,35.6179 25.7073,39.5196 22.2205,42.9153 18.002,45.9138 13.2928,48.2524 7.7553,49.5572 2.5573,50.145 -2.1287,50.5244 -4.5618,50.7235 A2.6153,2.6153 0 0 1 -5.0582,45.5165 T-2.6313,45.2523 1.9048,44.7525 6.4649,44.1354 10.8095,43.1538 16.3143,40.2012 22.0158,34.9912 24.5751,29.0596 23.3781,23.7639 18.8179,21.3123 12.6983,22.2453 7.1957,24.9571 3.4553,28.0977 1.8877,32.5474 2.0752,35.69 2.3673,35.9751 A3.2269,3.2269 0 0 1 -3.0022,39.5558 Z" stroke-linecap="round" fill="#f2f2f2"/></g></g><g transform="matrix(1, 0, 0, 1, 255.164, 878.7773)" opacity="1"><g transform="scale(1)"><path d="M-2.3992,-0.5979 T-2.0023,-2.1114 -0.8197,-6.0304 0.7108,-10.521 2.8775,-15.0624 5.8879,-20.2089 8.5161,-24.8521 10.9159,-29.3675 13.9023,-34.1361 16.4081,-38.5018 18.8456,-43.5969 21.3921,-48.3924 23.6484,-53.0098 26.5633,-58.1297 29.9506,-63.026 33.2224,-67.3203 36.3333,-70.7354 40.1743,-74.1094 44.5281,-78.0093 49.066,-81.9289 53.3693,-84.8696 57.8279,-87.3475 63.7047,-89.0092 68.9814,-89.4621 73.9074,-89.5835 79.4124,-89.6491 84.3475,-89.0583 89.0624,-87.7047 94.0286,-86.2991 99.098,-84.8884 103.9644,-83.4272 108.384,-82.0724 113.5644,-79.8583 118.9864,-77.2655 124.4462,-75.357 130.413,-73.7366 136.1308,-72.1324 142.201,-70.487 147.4334,-69.4971 152.1422,-68.5998 156.9614,-67.7477 161.5401,-67.5414 166.2835,-67.4907 171.656,-67.4867 176.766,-67.8108 181.8235,-68.4858 187.0439,-69.479 192.4598,-71.1831 198.252,-73.141 203.3951,-74.8638 207.5194,-76.8624 211.4849,-79.5859 215.4706,-82.6219 218.7569,-85.6691 221.9788,-88.8328 224.9784,-92.1695 228.1036,-95.9919 230.7581,-99.8618 233.0311,-104.4882 235.4347,-109.5556 237.8728,-115.006 240.3469,-120.5697 243.4603,-125.8518 246.7329,-130.24 247.9834,-131.6869 A2.8425,2.8425 0 0 1 252.4366,-128.1531 T250.4675,-125.451 247.5138,-120.1536 245.2546,-115.0657 242.8764,-109.4466 240.4528,-103.9254 237.9966,-98.9893 235.1507,-94.1629 231.7031,-89.5627 228.3395,-85.6412 225.0565,-82.417 221.6204,-79.1413 217.6458,-75.7552 213.2355,-72.5421 208.1299,-69.6779 202.7012,-67.4498 197.273,-65.6303 191.6015,-63.9415 186.0033,-62.6192 180.1089,-61.4246 174.3024,-60.8402 168.775,-60.8612 163.5316,-60.913 158.539,-61.0632 153.1385,-61.6371 148.0402,-62.5822 142.6126,-63.8746 136.3861,-65.5082 131.245,-67.01 126.4857,-68.5463 120.9624,-70.0797 116.0023,-71.7057 111.1745,-74.0629 104.8785,-76.6337 99.4221,-78.5482 95.2498,-79.9755 90.2369,-81.1348 85.3358,-82.2782 81.193,-83.2325 76.5788,-83.5056 70.6742,-83.416 64.7857,-83.1036 60.1888,-81.8861 55.6749,-79.4635 51.0018,-76.4601 47.507,-73.1359 44.064,-69.8765 40.448,-66.8196 37.5664,-63.7666 35.1257,-60.5177 32.5725,-57.0521 29.7771,-52.9965 27.3978,-48.3188 25.2059,-43.9762 22.9116,-40.0316 20.6475,-35.6667 18.1171,-31.4058 15.4787,-27.4156 12.877,-22.6956 10.0146,-17.6586 7.2006,-12.9684 5.0827,-8.5544 3.7038,-4.399 2.7591,-0.9253 2.3992,0.5979 A2.4726,2.4726 0 0 1 -2.3992,-0.5979 Z" stroke-linecap="round" fill="#e599f7"/></g></g><g transform="matrix(1, 0, 0, 1, 251.9561, 997.4689)" opacity="1"><g transform="scale(1)"><path d="M2.5935,-0.6464 T2.9666,0.8736 3.9277,4.3168 5.6147,8.994 7.8886,13.8815 10.1661,17.8169 12.8194,21.9405 15.6782,25.7656 19.0598,29.4672 22.2339,33.3735 24.4927,36.8602 27.4392,40.1204 30.8319,43.1771 34.0502,46.3427 37.1312,49.8295 40.1866,53.2326 44.0619,56.31 48.2294,59.1387 52.363,61.9508 57.7553,64.8208 63.923,67.1344 69.8255,68.346 75.512,69.1847 80.583,69.9375 85.2328,70.6887 89.7529,71.4453 94.7898,71.5998 100.2459,71.6138 105.8196,71.5885 111.4226,71.5579 116.0556,71.2435 120.9577,70.2455 126.2463,67.8506 130.4107,65.069 133.6229,61.9767 136.7627,58.344 139.9082,55.129 143.4098,51.2722 146.6619,47.2507 149.4449,43.9041 153.2736,39.8339 157.7526,35.1019 162.0393,31.3292 165.8692,28.3759 169.8925,25.8947 174.5862,24.2669 179.3052,23.5475 184.4693,23.3786 190.0578,22.8197 195.2038,22.087 199.6,21.837 203.674,21.2546 208.9751,20.485 215.0026,20.2735 220.0453,20.3713 225.0194,20.6209 227.7584,20.7956 A3.2644,3.2644 0 0 1 227.7616,27.3244 T225.0252,27.5018 220.0686,27.761 215.1182,27.9219 209.5271,28.2341 203.3031,29.0482 197.2091,29.7788 192.1711,30.5564 186.8707,31.2237 181.7903,31.3265 177.6013,31.7336 172.8174,33.3324 168.0721,35.9217 164.5739,38.749 161.4679,41.8875 158.277,45.6694 154.6698,50.0009 150.9798,53.8676 148.2912,57.2527 145.3883,60.9172 141.6165,64.7823 138.3067,68.4304 134.6286,71.8345 129.2672,75.2362 123.3658,77.6416 117.2503,78.7739 111.4184,79.2184 105.8037,79.1782 100.1921,79.1184 94.579,79.0082 88.9648,78.7153 84.3396,77.8611 79.6422,76.9994 74.6396,76.1318 69.7212,75.2229 63.9274,73.9523 58.0375,71.8265 53.1451,69.6726 49.217,67.534 45.7021,64.7311 41.3851,61.253 37.3807,57.9344 33.882,54.2949 30.2972,50.5795 27.1329,47.3758 24.1062,44.3313 20.7986,40.6128 17.2938,36.0897 14.1736,32.2015 10.9917,28.0661 7.6912,23.1298 4.7088,18.7034 2.3508,14.4883 0.5629,10.4075 -1.0436,6.1127 -2.2098,2.1631 -2.5935,0.6464 A2.6729,2.6729 0 0 1 2.5935,-0.6464 Z" stroke-linecap="round" fill="#ffc034"/></g></g><g transform="matrix(1, 0, 0, 1, 251.9561, 880.3813)" opacity="1"><g transform="scale(1)"><path d="M1.65,-1.65 T2.4368,-0.8456 4.14,3.0863 5.8168,10.2295 6.7248,16.5701 6.9498,21.2551 7.0682,25.6137 7.1319,29.8075 7.1784,36.0645 7.2119,44.1506 7.2265,50.4371 7.2303,56.438 7.2247,62.2564 7.2132,67.9213 7.7756,74.6807 8.5114,81.1971 8.7028,86.5516 8.7444,91.8918 8.3534,98.9207 7.6634,105.7136 7.2998,111.9897 6.6117,117.9441 5.8551,123.2708 5.665,128.6389 5.6154,133.9722 5.6051,139.1317 5.6085,144.6199 5.6183,150.588 5.032,156.6954 4.2982,162.7992 4.1174,168.9387 4.0758,174.9168 4.081,180.4275 4.0938,185.4327 4.097,189.9185 4.0806,194.6384 4.0504,200.0024 4.0233,205.1693 4.0075,210.0808 3.9989,215.2986 3.5796,221.4616 2.8822,227.8092 2.5097,233.5537 2.3724,239.2691 2.3255,242.2155 A2.3256,2.3256 0 0 1 -2.3255,242.1645 T-2.3156,240.6035 -2.2726,236.3914 -2.0776,230.4422 -1.3525,224.1369 -0.7941,218.1507 -0.8028,212.7529 -0.814,207.887 -0.8343,202.8889 -0.8666,197.4061 -0.8919,192.2624 -0.8942,187.6221 -0.8787,182.7054 -0.8499,177.5128 -0.802,172.0519 -0.6787,165.6014 -0.2461,159.1008 0.4477,153.4212 0.8094,147.5273 0.8217,141.9756 0.8361,136.5864 0.875,131.0669 0.9994,125.8015 1.4716,120.0229 2.2187,114.3258 2.7579,108.4608 3.4922,101.9257 4.0384,95.1049 3.9662,88.0906 3.7572,81.5693 3.0072,74.9839 2.4064,67.9347 2.3946,62.2568 2.3874,56.4392 2.3883,50.4397 2.3923,44.1585 2.3849,36.0924 2.3251,27.904 2.2076,21.471 1.795,15.0342 0.6307,6.983 -0.9184,2.3639 -1.65,1.65 A2.3334,2.3334 0 0 1 1.65,-1.65 Z" stroke-linecap="round" fill="#9398b0"/></g></g><g transform="matrix(1, 0, 0, 1, 482.9233, 1140.2195)" opacity="1"><g transform="scale(1)"><path d="M-2.3445,-0.5843 T-1.9543,-2.0987 -1.2884,-6.906 -0.9699,-12.3366 -0.9164,-16.7407 -0.9184,-21.7182 -0.5661,-27.5393 -0.0369,-33.6429 0.197,-39.7311 0.2943,-45.5975 0.3265,-50.9688 0.7109,-56.636 1.266,-62.2849 1.5256,-67.359 1.6419,-72.6743 1.6819,-78.1267 1.6881,-82.9023 1.6715,-87.3193 2.0508,-91.8421 2.6981,-97.3813 2.9902,-102.6533 3.4632,-106.7748 4.1704,-112.6264 4.4932,-118.4086 4.5773,-124.0688 4.6129,-129.71 4.6037,-135.7065 4.5833,-143.6467 4.9775,-151.6321 5.6334,-159.2621 5.9315,-164.9556 6.0019,-170.9727 6.0239,-177.1841 6.0081,-183.5425 5.9873,-189.9281 6.3717,-196.6515 6.9323,-203.2262 7.1886,-207.6181 7.3153,-212.2128 7.3773,-216.5364 7.4096,-220.7145 7.8267,-225.4922 8.4145,-230.2811 8.6939,-234.7744 8.8453,-239.4211 8.9251,-244.148 8.9667,-248.9178 9.3928,-254.0029 9.9868,-258.9565 10.2679,-263.5486 10.4202,-267.8756 10.9103,-272.3712 11.5365,-277.0009 11.8316,-281.3954 11.9901,-285.9937 12.4754,-290.9937 13.1002,-295.903 13.3981,-300.468 13.5569,-304.778 13.6363,-308.9435 13.6749,-313.4063 14.0996,-320.1695 14.7865,-328.4502 15.1397,-336.2036 15.2316,-342.4007 15.2545,-348.7552 15.2651,-355.139 15.2665,-361.1669 15.2583,-368.2744 15.2437,-374.8816 15.2456,-381.0157 15.8883,-386.2501 17.8829,-390.8852 19.2427,-393.1694 A3.6912,3.6912 0 0 1 25.6773,-389.5506 T25.2025,-388.5506 23.9871,-385.639 23.2543,-380.9297 23.2558,-374.881 23.2399,-368.2726 23.2269,-361.1615 23.2201,-355.127 23.2009,-348.7197 23.1673,-342.318 23.0556,-335.951 22.8424,-329.6069 22.4968,-325.3142 21.8945,-319.4549 21.4976,-313.3219 21.4396,-308.772 21.3358,-304.4786 21.1468,-299.9358 20.785,-294.9007 20.158,-290.2366 19.704,-285.7049 19.516,-280.8511 18.7737,-274.0284 18.0922,-267.5885 17.9144,-263.0514 17.5694,-258.0221 16.9753,-253.3618 16.5918,-248.8385 16.5423,-244.0105 16.4494,-239.1593 16.2729,-234.2746 15.9302,-229.325 15.3374,-224.8299 14.9504,-220.6252 14.8929,-216.3931 14.7846,-211.9565 14.588,-207.1264 14.231,-202.2686 13.6264,-196.0156 13.245,-189.9224 13.2088,-183.5259 13.1637,-177.1454 13.0803,-170.8545 12.8332,-162.7507 12.4111,-156.4177 11.8174,-150.899 11.4498,-143.6417 11.4114,-135.6882 11.3706,-129.6636 11.2927,-123.9426 11.0342,-116.1777 10.1985,-108.2506 9.3601,-100.5665 8.5431,-93.1224 7.894,-87.2739 7.8284,-82.8442 7.7417,-78.0309 7.6056,-72.4863 7.3875,-67.0049 7.0127,-61.6711 6.3638,-56.214 5.8998,-50.8775 5.7582,-45.448 5.5256,-39.4629 5.1337,-33.1329 4.4753,-27.1878 4.0191,-21.6704 3.928,-16.6482 3.8123,-12.1478 3.411,-6.2021 2.7111,-0.938 2.3445,0.5843 A2.4162,2.4162 0 0 1 -2.3445,-0.5843 Z" stroke-linecap="round" fill="#9398b0"/></g></g><g transform="matrix(1, 0, 0, 1, 276.0152, 902.8364)" opacity="1"><g transform="scale(1)"><path d="M1.1539,-1.3841 T3.4388,0.5026 7.774,4.6085 11.6853,9.5852 15.232,14.889 18.8008,20.2653 20.6837,23.0954 A1.728,1.728 0 0 1 17.8163,25.0246 T15.9042,22.2142 12.2717,16.8874 8.8301,11.8395 5.2428,7.2527 1.1114,3.2909 -1.1539,1.3841 A1.802,1.802 0 0 1 1.1539,-1.3841 Z" stroke-linecap="round" fill="#40c057"/></g></g><g transform="matrix(1, 0, 0, 1, 284.0349, 975.0137)" opacity="1"><g transform="scale(1)"><path d="M2.2672,-0.9711 T3.4341,1.6718 5.9476,6.7337 9.1306,11.8889 13.4542,17.9334 19.11,24.8141 25.9341,33.032 33.3762,42.3512 41.0134,51.3407 48.5016,60.3052 55.1545,68.8983 60.1561,75.7476 63.6162,81.4363 66.6461,87.162 68.202,90.1037 A2.7741,2.7741 0 0 1 63.318,92.7363 T61.716,89.8195 58.7536,84.4286 55.4371,79.1988 50.4611,72.5279 43.9433,64.1005 36.5098,55.1553 28.7841,45.9932 21.4711,36.7104 14.6932,28.3531 8.9354,21.0592 4.5615,14.5945 1.32,8.9643 -1.159,3.64 -2.2672,0.9711 A2.4664,2.4664 0 0 1 2.2672,-0.9711 Z" stroke-linecap="round" fill="#40c057"/></g></g><g transform="matrix(1, 0, 0, 1, 285.6388, 917.2719)" opacity="1"><g transform="scale(1)"><path d="M3.4849,-1.1782 T5.3931,1.8487 9.7912,8.301 15.1328,15.4231 21.0775,23.7971 27.667,33.5283 34.9132,43.8936 42.915,55.0214 50.9028,65.799 57.8098,75.7464 64.0437,84.7607 69.1494,91.7758 72.8473,96.6056 76.491,100.6415 78.4794,102.8348 A2.0615,2.0615 0 0 1 75.5006,105.6852 T73.397,103.602 69.276,99.5233 65.2133,94.6766 59.91,87.6565 53.5907,78.6728 46.7569,68.8648 38.7505,57.9883 30.7991,46.7403 23.606,36.2416 17.1929,26.5321 11.4163,18.1753 6.0315,10.8278 1.6004,4.2199 -0.2849,1.1782 A2.2229,2.2229 0 0 1 3.4849,-1.1782 Z" stroke-linecap="round" fill="#40c057"/></g></g><g transform="matrix(1, 0, 0, 1, 301.6782, 865.9458)" opacity="1"><g transform="scale(1)"><path d="M1.7264,-1.1868 T5.9189,4.8676 13.8572,16.3856 21.4523,26.9525 29.2854,37.8304 36.9094,49.3095 44.3597,61.0341 52.4354,73.2103 60.4989,85.3315 67.4372,96.7485 73.2996,106.5409 77.8366,113.9944 80.9216,119.0789 83.6546,123.2974 85.1174,125.5442 A2.0757,2.0757 0 0 1 81.6826,127.8758 T80.1344,125.6869 77.1539,121.4886 73.8446,116.4737 69.1202,109.0801 63.1619,99.3431 56.3131,88.099 48.2947,75.9334 40.2507,63.6192 32.9549,51.9032 25.549,40.4978 17.8139,29.546 10.2641,18.84 2.4248,7.2696 -1.7264,1.1868 A2.095,2.095 0 0 1 1.7264,-1.1868 Z" stroke-linecap="round" fill="#40c057"/></g></g><g transform="matrix(1, 0, 0, 1, 330.5491, 822.6395)" opacity="1"><g transform="scale(1)"><path d="M1.5789,-1.3156 T5.3862,3.2256 12.7636,12.4663 19.7457,21.9097 26.8579,31.7855 34.4419,42.6759 42.2967,54.9038 50.6061,67.7355 59.1838,80.9292 67.5236,93.9544 75.3266,106.1197 82.1339,117.5384 87.9269,127.3269 93.0866,135.0686 97.5728,141.0632 101.8991,146.5689 104.2103,149.4808 A2.024,2.024 0 0 1 101.0897,152.0592 T98.6659,149.2402 94.0073,143.8715 89.0605,137.8432 83.519,129.9695 77.6403,120.2064 70.9344,108.9218 63.1752,96.7203 54.9455,83.6585 46.4784,70.3819 38.2773,57.4611 30.6352,45.2984 23.2097,34.3827 16.2375,24.4753 9.4452,15.093 2.2007,5.8797 -1.5789,1.3156 A2.0551,2.0551 0 0 1 1.5789,-1.3156 Z" stroke-linecap="round" fill="#40c057"/></g></g><g transform="matrix(1, 0, 0, 1, 391.4988, 843.4907)" opacity="1"><g transform="scale(1)"><path d="M1.6485,-1.2604 T6.5966,5.1759 15.7003,17.2909 23.574,28.2347 31.1489,38.9117 38.5804,49.4567 45.189,59.211 50.9251,67.7489 55.7199,74.0153 59.3123,78.0515 62.4993,81.6247 64.1866,83.5113 A2.2191,2.2191 0 0 1 60.9134,86.5087 T59.1822,84.6623 55.8827,81.152 52.021,76.9251 46.9886,70.393 41.2755,61.8346 34.7933,52.0995 27.4637,41.5041 19.9893,30.789 12.2577,19.8544 3.2654,7.7228 -1.6485,1.2604 A2.0751,2.0751 0 0 1 1.6485,-1.2604 Z" stroke-linecap="round" fill="#40c057"/></g></g><g transform="matrix(1, 0, 0, 1, 428.3894, 829.0552)" opacity="1"><g transform="scale(1)"><path d="M1.7504,-1.5552 T4.8382,1.8126 11.1472,9.2908 18.012,19.0272 25.7861,30.9868 33.2094,42.1671 40.1925,52.4367 43.8828,57.8597 A2.6431,2.6431 0 0 1 39.5172,60.8403 T35.8104,55.4285 28.7571,45.1388 21.2601,33.904 13.674,22.0529 7.2248,12.5192 1.2304,5.0175 -1.7504,1.5552 A2.3415,2.3415 0 0 1 1.7504,-1.5552 Z" stroke-linecap="round" fill="#40c057"/></g></g></svg>