<svg xmlns="http://www.w3.org/2000/svg" direction="ltr" width="2322.1885554705127" height="4167.6113281496955" viewBox="66.60723776160273 5103.986485315639 2322.1885554705127 4167.6113281496955" stroke-linecap="round" stroke-linejoin="round" style="background-color: transparent;"><defs/><g transform="matrix(1, 0, 0, 1, 646.4955, 5135.9865) scale(3.7019475924508543, 3.7019475924508543)" opacity="1"><g transform="scale(0.2701280812400576)"><path d="M0,0 Q0,21.9743 -0.6863,30.9462 T-2.4908,46.934 -4.3121,60.4239 -6.1459,73.7154 -7.9876,86.882 -9.146,99.972 -10.561,113.7001 -12.1374,127.8278 -12.4426,142.2067 -11.9482,157.4319 -10.949,173.8758 -9.6323,191.0862 -8.1178,209.4651 -5.7924,228.579 -3.6434,248.1552 -1.6054,268.7104 1.0493,289.8813 3.4054,310.7514 5.5756,331.4323 7.6289,352.6805 8.9204,373.5991 9.7327,394.3105 10.2437,415.5779 11.2514,437.8832 12.5717,460.8414 13.4021,483.5219 13.9244,506.7143 14.253,530.2304 14.4596,553.9501 14.5896,578.4825 14.6714,603.5278 14.7228,628.8957 14.7552,653.7784 14.7755,677.6695 14.102,700.9388 12.9919,724.5033 12.2937,748.938 11.8546,773.2337 11.5783,797.4438 10.7164,822.2864 9.486,846.8387 8.7121,871.8965 8.2253,897.2723 7.9191,922.16 7.7265,947.4288 7.6054,972.251 6.8428,996.7904 5.6768,1021.8402 4.9434,1046.5246 4.4821,1070.291 4.192,1094.1663 4.0094,1118.112 3.8946,1142.102 3.8224,1166.1179 3.777,1189.4639 3.7484,1212.3884 3.7305,1235.736 3.7192,1259.3498 3.7121,1282.4428 3.7076,1305.2082 3.7048,1327.7675 3.703,1350.1991 3.7019,1372.5503 3.7012,1394.8492 3.7007,1417.115 3.7005,1439.3602 3.7003,1461.5923 3.7002,1483.818 3.7001,1506.7262 3.7001,1529.3753 3.7,1551.1751 3.7,1573.1272 3.7,1595.1749 3.7,1617.2847 3.0137,1640.1198 1.8956,1663.4094 1.1923,1685.6121 0.75,1707.1312 0.4717,1728.9066 0.2967,1750.8451 -0.4997,1772.1998 -1.687,1793.1855 -2.4338,1813.9391 -2.9036,1834.5466 -3.1991,1855.0623 -3.3849,1874.8339 -3.5018,1894.1374 -3.5753,1912.4602 -3.6216,1930.1661 -3.6507,1947.4821 -3.669,1963.8666 -3.6805,1979.6669 -3.6877,1995.0998 -3.6923,2010.3016 -3.6951,2026.0425 -3.6969,2042.1226 -3.6981,2057.7315 -3.6988,2073.0439 -3.6992,2088.17 -3.6995,2102.4906 -3.6997,2116.3046 -3.6998,2129.8017 -3.6999,2142.4114 -3.6999,2154.4628 -3.7,2165.4767 -4.3863,2175.1499 -6.2363,2187.4888 L-7.4,2195.25 " stroke-linecap="round" fill="none" stroke="#9398b0" stroke-width="16.658764166028845" stroke-dasharray="none" stroke-dashoffset="0"/></g></g><g transform="matrix(1, 0, 0, 1, 98.6072, 6724.122) scale(3.7019475924508543, 3.7019475924508543)" opacity="1"><g transform="scale(0.2701280812400576)"><path d="M0,0 Q10.989,0 15.8178,0 T24.3701,-0.6863 31.8105,-1.8044 39.2377,-2.5077 47.3431,-2.95 56.5613,-3.2283 66.4795,-3.4033 76.838,-3.5134 87.4735,-2.8963 98.9713,-1.8217 111.6961,-1.1459 125.1927,-0.0344 139.1765,1.3511 153.4669,2.9089 167.95,4.5751 182.5526,5.6231 197.2302,6.2823 211.957,7.3852 226.7146,8.7671 242.178,9.6363 258.0835,10.1831 273.5808,10.527 289.5094,10.7433 306.3957,10.8793 323.8844,11.6513 341.752,12.8231 359.8579,13.5603 377.4274,14.0239 394.6594,14.3156 411.6793,14.499 428.5656,14.6144 445.3661,14.687 462.1126,14.7326 478.8271,14.7613 495.5213,14.093 512.8892,12.9863 530.6808,11.602 547.3662,10.0431 564.7286,8.3761 583.8894,5.9549 602.1224,3.7457 619.7718,1.6697 637.7405,-1.0088 655.9101,-4.0682 674.2059,-7.367 692.5812,-10.8147 711.0065,-13.6697 728.0886,-15.4654 747.0732,-17.2813 769.3153,-19.7962 790.8592,-22.0644 811.9638,-24.1793 833.4785,-26.1978 854.5649,-27.4675 876.0699,-28.9524 897.8384,-30.5728 919.0843,-31.592 941.3742,-32.2331 963.6345,-32.6363 985.1898,-32.89 1007.6762,-32.3632 1030.0619,-31.3454 1051.6961,-30.7053 1073.5439,-29.6145 1095.526,-28.2401 1116.9064,-26.6893 1137.9082,-25.0275 1157.2992,-23.2958 1177.0497,-20.8339 1198.399,-18.5991 1218.6949,-16.507 1239.0165,-14.5047 1259.3541,-12.5571 1279.0138,-10.6438 1298.9332,-8.754 1319.0161,-6.879 1338.5155,-5.0132 1356.2732,-3.1533 1374.9964,-1.2971 1395.7014,0.5568 1415.592,2.4093 1434.9705,4.2608 1454.0267,6.1137 1472.8803,7.9673 1491.6064,9.1333 1510.2523,9.8666 1528.8479,10.3279 1545.3507,10.6181 1561.91,10.8006 1580.5658,10.9154 1599.1674,10.2994 1617.7351,9.2237 1636.2813,8.5471 1654.8141,8.1215 1672.6521,7.8538 1690.0531,7.6855 1707.8655,6.8932 1723.8758,5.7085 1740.1272,4.9634 1758.591,4.4947 1777.072,4.1998 1795.5638,4.0144 1813.3741,3.8978 1830.7558,4.5107 1847.8697,5.5827 1864.8152,6.2569 1881.6548,6.681 1897.0533,6.9477 1912.9197,7.8037 1929.7669,9.0304 1946.5428,9.8019 1963.2757,10.2872 1979.2952,10.5925 1995.5524,10.7845 2011.2726,10.9052 2026.6533,11.6676 2042.5068,12.8334 2056.6004,13.5667 2070.2735,14.028 2085.0528,15.0045 2099.8417,16.305 2113.952,17.1231 2127.6356,17.6376 2141.0489,17.9613 2153.6058,18.1648 2165.624,18.2929 2177.3035,18.3734 2188.0834,18.4241 2198.2977,18.456 2208.156,18.476 2217.1041,18.4886 2226.1661,17.8102 2239.0046,15.9685 L2247.08,14.81 " stroke-linecap="round" fill="none" stroke="#9398b0" stroke-width="16.658764166028845" stroke-dasharray="none" stroke-dashoffset="0"/></g></g><g transform="matrix(1, 0, 0, 1, 650.1974, 5928.2033) scale(3.7019475924508543, 3.7019475924508543)" opacity="1"><g transform="scale(0.2701280812400576)"><path d="M0,0 Q12.3617,0 18.3085,0 T28.6841,0 37.2712,0 44.7316,0 51.485,0 57.7939,0 63.8212,0 69.6714,0 75.4121,0 81.0839,0 86.7105,0 92.3087,0 97.8909,0 104.1493,0 110.8331,0 118.4709,0 126.0204,0 132.83,0 139.1741,0 145.2236,0 151.0896,0 156.8403,0 163.2028,0 169.9521,0 176.2583,-0.6863 182.284,-1.8044 188.8214,-2.5077 194.9943,-2.95 200.9361,-3.2283 206.7326,-4.0896 212.4395,-5.3178 218.09,-6.0903 223.0169,-6.5762 228.1768,-6.8818 234.1696,-7.0741 239.9982,-7.195 245.7252,-7.271 252.7612,-7.3189 259.9322,-7.349 266.5036,-7.3679 272.698,-7.3798 279.3415,-7.3873 286.9539,-7.392 295.1756,-7.395 303.0944,-7.3968 310.1343,-7.398 316.6215,-7.3987 322.0765,-7.3992 327.5686,-7.3995 333.7685,-7.3997 340.4155,-7.3998 347.3438,-7.3999 354.447,-7.3999 360.9759,-7.4 367.1434,-7.4 373.0819,-7.4 378.878,-7.4 384.5848,-7.4 390.2333,-7.4 396.5335,-7.4 403.2436,-7.4 410.2096,-7.4 417.3385,-7.4 424.5699,-7.4 431.8656,-7.4 439.2019,-8.0882 446.5619,-9.2093 453.9385,-9.9145 460.6393,-10.358 466.9132,-10.637 472.9203,-10.8125 478.7598,-10.9229 485.8645,-10.9923 493.0806,-11.036 499.6805,-10.3752 505.8908,-9.2714 512.5444,-8.5771 520.1631,-8.1404 527.0143,-7.8657 533.3846,-7.6929 539.4525,-7.5843 544.6419,-7.5159 549.9669,-6.7865 556.7499,-5.6414 564.45,-4.9212 571.3543,-4.4681 578.4425,-4.1831 589.2267,-3.8866 L596.01,-3.7 " stroke-linecap="round" fill="none" stroke="#f76707" stroke-width="16.658764166028845" stroke-dasharray="none" stroke-dashoffset="0"/></g></g><g transform="matrix(1, 0, 0, 1, 1279.5285, 5954.1169) scale(3.7019475924508543, 3.7019475924508543)" opacity="1"><g transform="scale(0.2701280812400576)"><path d="M-7.1336,-2.7473 Q-10.5672,-5.4945 -14.1015,-9.2816 T-19.8589,-17.5116 -24.1666,-26.1219 -27.5625,-33.5987 -29.0122,-39.6762 -27.8631,-44.1852 -24.3931,-47.7078 -20.1514,-50.6098 -16.1089,-52.4352 -11.5052,-52.897 -6.5504,-52.5012 -0.6866,-51.5658 5.0626,-49.6029 10.0516,-46.9937 15.2487,-43.9798 19.8923,-40.7114 24.1876,-37.2828 27.5757,-33.0654 29.0205,-27.6653 27.182,-21.5214 23.2783,-15.596 18.0757,-9.8099 12.056,-4.7977 4.8359,-0.9587 -7.2242,4.1725 -9.255,3.7 -7.1336,-2.7473 Z" stroke-linecap="round" fill="none" stroke="#f2f2f2" stroke-width="16.658764166028845" stroke-dasharray="none" stroke-dashoffset="0"/></g></g><g transform="matrix(1, 0, 0, 1, 1286.9324, 6698.2084) scale(3.7019475924508543, 3.7019475924508543)" opacity="1"><g transform="scale(0.2701280812400576)"><path d="M0,0 Q5.4945,-8.2399 7.9089,-12.2059 T12.5282,-20.0392 16.8065,-26.3391 20.1839,-30.9881 22.9965,-35.285 25.4538,-39.3623 27.6858,-43.3014 30.4625,-47.8382 33.5817,-52.7509 36.9163,-57.9019 40.3884,-62.5164 43.2605,-66.1053 46.4398,-70.4218 50.4986,-75.1959 53.738,-79.5734 56.4619,-83.7013 58.8615,-87.6705 61.7455,-92.2262 65.6204,-97.1527 69.4304,-101.6259 73.1996,-105.8123 76.9432,-109.8183 80.6724,-114.3989 84.3926,-120.0274 88.7917,-125.6267 93.6178,-131.2096 98.0279,-136.7822 102.1765,-141.66 106.1586,-146.1009 110.0361,-150.2669 113.8477,-154.9482 117.6198,-160.64 121.367,-166.9674 125.0966,-172.3219 128.129,-176.3762 130.7226,-180.2991 133.7268,-184.1393 136.9909,-187.9275 140.4186,-192.3711 143.9473,-197.2271 147.5396,-202.3406 151.1718,-207.616 154.8311,-212.3088 157.8209,-216.6351 161.0743,-220.729 165.1796,-225.3632 169.8228,-231.0253 174.8043,-237.3341 179.9967,-244.0495 185.3218,-250.3344 189.3576,-255.6603 192.5843,-260.383 195.9885,-264.7263 199.5024,-269.5192 203.7717,-274.5947 208.5162,-279.8463 213.5613,-285.8969 218.7957,-292.4499 224.1471,-299.319 229.574,-306.3869 234.3622,-313.578 238.7466,-320.1622 242.8771,-325.6781 246.8479,-329.834 250.72,-333.8208 254.5302,-339.0757 258.2995,-343.7556 262.0431,-348.072 265.7705,-352.846 269.4896,-357.2216 273.2034,-362.0347 276.9122,-367.1231 280.6177,-372.3827 284.3211,-377.7501 288.0251,-382.5007 291.7295,-386.8634 295.4323,-390.9802 298.4477,-394.9424 301.717,-399.4956 305.8344,-404.4204 309.7987,-408.8908 313.665,-413.0754 317.4696,-417.0802 321.2354,-421.6601 324.9787,-427.2881 328.7077,-432.8872 332.426,-437.7836 335.4511,-442.238 338.0403,-446.4125 341.0416,-451.0973 344.3039,-456.1049 348.4169,-461.3157 353.0629,-467.3386 358.0444,-473.8743 363.925,-480.0461 368.9984,-485.3009 372.8759,-489.9789 376.6876,-494.9822 380.4579,-500.1902 384.8903,-506.2115 389.7391,-512.7461 394.1618,-518.2309 398.3163,-523.0536 402.3041,-527.4597 405.5006,-531.6039 408.1975,-536.2715 411.2666,-541.9547 414.5698,-547.5884 418.0202,-552.5066 421.565,-557.6611 425.1693,-562.2759 428.1227,-566.5513 430.6668,-570.6133 432.9533,-573.8565 435.0779,-577.271 437.1006,-580.7914 439.0593,-585.0648 441.6658,-590.5 445.5174,-598.4313 L447.94,-603.42 " stroke-linecap="round" fill="none" stroke="#f76707" stroke-width="16.658764166028845" stroke-dasharray="none" stroke-dashoffset="0"/></g></g><g transform="matrix(1, 0, 0, 1, 1742.272, 6109.5987) scale(3.7019475924508543, 3.7019475924508543)" opacity="1"><g transform="scale(0.2701280812400576)"><path d="M-7.1336,-4.12 Q-10.5672,-8.2399 -12.7269,-12.8923 T-16.2452,-21.8437 -17.7718,-30.9077 -16.673,-38.6699 -13.9209,-44.2386 -9.4426,-48.4277 -3.1921,-51.0627 3.4867,-52.72 9.7467,-53.0762 15.0569,-51.2393 19.7716,-48.023 23.4254,-43.9409 25.7236,-39.3142 27.8555,-33.6567 29.8828,-25.9764 30.4717,-17.7119 28.7811,-10.4544 24.9706,-5.2031 20.5146,-1.9001 15.651,-0.5088 8.3146,-0.1965 0,0 -7.1336,-4.12 Z" stroke-linecap="round" fill="none" stroke="#f2f2f2" stroke-width="16.658764166028845" stroke-dasharray="none" stroke-dashoffset="0"/></g></g><g transform="matrix(1, 0, 0, 1, 1775.5895, 6713.0162) scale(3.7019475924508543, 3.7019475924508543)" opacity="1"><g transform="scale(0.2701280812400576)"><path d="M0,0 Q8.2399,1.3727 11.5177,1.8044 T18.2318,3.194 25.2022,4.7544 31.6457,5.7359 37.7595,6.3533 45.0387,6.0553 52.3646,5.1815 59.0335,4.6318 65.9736,3.5998 73.0862,2.2643 80.3073,1.4242 87.5947,0.2095 94.9258,-1.2409 100.9116,-2.8396 106.0493,-4.5315 111.34,-6.2839 116.7288,-8.0744 122.1792,-9.887 127.6666,-11.7134 133.8654,-13.5486 139.8254,-16.0756 145.6332,-19.0378 152.72,-22.2756 161.2994,-26.3731 169.4431,-31.0094 176.6245,-35.2984 183.2006,-39.3707 189.398,-43.3068 195.357,-47.1552 201.1642,-50.9486 206.1897,-54.7074 211.4117,-59.1325 218.1298,-64.6632 224.4146,-70.201 230.4287,-75.7452 236.2724,-81.2935 242.0072,-86.8423 247.6753,-93.0798 253.3014,-99.0641 258.8993,-104.8873 263.793,-110.6091 268.2458,-115.5827 273.7938,-120.772 280.0289,-126.7815 286.0117,-133.3087 291.8358,-140.1615 297.5581,-146.531 303.2184,-151.912 308.8397,-158.0439 314.4345,-165.3345 320.0145,-172.6675 324.8989,-180.0253 330.0302,-188.087 336.0033,-197.2778 341.8212,-206.4924 347.5416,-215.722 353.1987,-224.961 358.1298,-233.5196 362.606,-243.0229 368.1688,-253.8087 373.7268,-264.7128 378.5955,-274.317 384.4052,-284.4779 390.8067,-296.3637 396.206,-307.2734 400.2885,-316.8829 404.2309,-327.0491 408.7716,-337.5636 413.0004,-347.6089 417.033,-357.3611 420.9441,-366.9288 424.7787,-376.3804 428.5634,-386.4474 432.3167,-396.8994 436.0502,-407.5937 439.7731,-418.4404 443.4894,-428.0102 447.1996,-437.4632 450.906,-448.9018 454.6101,-460.2166 459.0008,-470.7673 463.1372,-481.5236 466.4253,-492.4092 469.8662,-502.6899 473.4032,-512.5901 476.3144,-522.9391 478.8337,-532.8822 481.7929,-543.2564 485.027,-554.5899 487.7475,-565.8387 490.1451,-577.0341 493.0259,-588.196 496.2106,-600.7094 499.5883,-616.134 502.4011,-630.6442 504.1704,-642.5183 505.9696,-653.4208 507.7876,-665.0847 509.6175,-675.855 511.4549,-684.6903 513.297,-693.6814 515.142,-703.4567 516.3025,-713.039 517.7188,-723.1862 519.296,-733.6888 520.9762,-743.0421 523.4077,-751.6727 525.6234,-759.1622 527.7035,-765.2458 529.6982,-771.1314 530.9528,-776.8925 532.4284,-782.5772 534.0428,-788.9 535.0583,-795.6244 536.3834,-801.2286 537.9032,-806.1263 539.485,-813.4951 L540.48,-818.13 " stroke-linecap="round" fill="none" stroke="#f76707" stroke-width="16.658764166028845" stroke-dasharray="none" stroke-dashoffset="0"/></g></g><g transform="matrix(1, 0, 0, 1, 2319.7758, 5894.8857) scale(3.7019475924508543, 3.7019475924508543)" opacity="1"><g transform="scale(0.2701280812400576)"><path d="M0,0 Q-8.2399,4.1218 -12.2059,6.1045 T-19.3529,9.3342 -23.1601,10.6794 -23.494,10.1509 -21.6449,8.444 -18.4228,5.9976 -15.0216,3.0862 -11.5076,-0.1179 -7.9246,-2.8195 -2.9237,-5.2071 2.9692,-6.0225 8.0485,-4.4745 12.616,-0.7536 16.8618,5.0205 20.9069,11.3978 25.5121,19.5291 32.5765,32.5376 L37.02,40.72 " stroke-linecap="round" fill="none" stroke="#f76707" stroke-width="16.658764166028845" stroke-dasharray="none" stroke-dashoffset="0"/></g></g><g transform="matrix(1, 0, 0, 1, 1779.2914, 6720.4201) scale(3.7019475924508543, 3.7019475924508543)" opacity="1"><g transform="scale(0.2701280812400576)"><path d="M0,0 Q-1.3727,6.8672 -3.8653,9.7133 T-9.2985,14.3496 -15.4632,16.5794 -22.0881,15.2348 -27.6278,10.9554 -30.426,5.5182 -30.8133,0.0374 -29.6824,-4.7847 -26.2238,-9.1904 -19.9284,-12.648 -13.2213,-14.8228 -6.9435,-14.818 -0.9339,-11.3815 2.1599,-5.7862 2.0449,-0.2059 -0.0865,3.9923 -5.547,6.633 -13.1036,7.6057 -19.9175,6.8431 -25.5762,4.3043 -29.8218,0.6483 -31.806,-3.0258 -31.6813,-6.7114 -28.8557,-10.4023 -23.6447,-13.4103 -17.6198,-15.3023 -11.7692,-15.806 -7.4028,-14.7501 -5.3427,-11.3387 -5.4196,-7.1321 -8.2152,-3.7997 -13.4073,-1.7037 -18.0458,-3.1325 -20.9634,-7.4649 -22.1123,-11.5626 -21.4622,-14.8264 -18.9942,-17.5657 -14.6946,-19.2888 -9.9293,-19.6862 -5.5592,-18.5635 -1.4377,-15.7964 1.8411,-11.3086 4.5917,-5.7404 6.3218,1.1956 5.3491,8.3056 1.9919,13.4641 -2.8671,16.0225 -7.9842,14.8845 -11.8893,10.0487 -14.3456,4.2616 -15.2042,-0.7531 -14.3716,-5.2818 -11.787,-8.8168 -7.414,-11.0403 -2.6044,-11.7525 2.4818,-8.7669 7.7419,-1.3944 11.7369,7.3628 13.5634,14.932 12.6513,21.0676 9.3304,25.6133 3.8079,27.7861 -1.7266,27.7783 -7.2669,25.7124 -16.4401,21.2911 L-22.21,18.51 " stroke-linecap="round" fill="none" stroke="#f76707" stroke-width="16.658764166028845" stroke-dasharray="none" stroke-dashoffset="0"/></g></g><g transform="matrix(1, 0, 0, 1, 639.0916, 7514.4878) scale(3.7019475924508543, 3.7019475924508543)" opacity="1"><g transform="scale(0.2701280812400576)"><path d="M0,0 Q0,10.989 0,16.5041 T0,26.8628 0,36.1256 0,45.3855 0,54.6436 0,63.8987 0,73.1538 0,82.4088 0,92.3502 0,102.7252 0,113.3709 0,124.1871 0,135.1104 0,146.1011 0,157.1361 0,168.1971 0,179.9607 0.6864,192.1663 1.8044,203.9636 2.5077,215.506 2.95,226.886 3.2283,238.164 3.4033,250.0661 3.5134,262.3588 3.5826,274.2108 3.6262,286.4739 3.6536,298.9937 3.6708,310.9886 3.6816,323.3416 3.6884,335.9179 3.0064,347.9483 1.891,359.6355 1.1894,370.4203 0.7482,380.6375 -0.2158,391.1841 -1.5084,401.9379 -2.3215,412.8219 -2.8329,424.4762 -3.1546,436.613 -3.3569,447.6807 -3.4842,458.0758 -3.5643,468.7344 -3.6146,479.5585 -3.6463,490.4869 -3.6662,501.4826 -3.6788,512.5189 -3.6866,523.5807 -3.6916,534.6585 -3.6947,545.7464 -3.6967,557.5288 -3.6979,569.7463 -3.6987,581.551 -3.6992,593.098 -3.6995,604.481 -3.6997,615.7609 -3.6998,626.9759 -4.3862,638.1501 -5.5043,649.9868 -6.2076,662.2384 -6.65,674.0646 -6.9282,685.6233 -7.1033,697.7 -7.2134,710.1044 -7.2826,722.7149 -7.3262,735.4532 -7.3536,747.5856 -7.3708,760.0231 -7.3816,772.6527 -7.3884,784.7185 -7.3927,796.4278 -7.3954,807.9129 -7.3971,819.257 -8.0864,830.5124 -9.2082,841.7139 -9.9137,852.8795 -10.3576,864.0227 -10.6367,875.1517 -10.8123,886.2718 -10.9227,897.3863 -10.9922,908.4973 -11.0359,919.6079 -11.0634,930.7164 -11.0807,941.8236 -11.0916,952.2437 -11.0984,962.9178 -10.4145,973.7518 -9.2961,984 -7.9063,994.568 -6.3458,1004.6488 -4.6778,1014.4232 -2.9424,1024.6913 -1.1644,1035.2699 0.6403,1046.0438 1.7754,1056.9405 3.1758,1067.9145 4.743,1078.2507 5.7287,1087.4995 7.037,1097.4369 9.2344,1108.4957 11.303,1119.5717 12.6041,1130.6584 14.1088,1141.7519 15.7417,1152.8496 16.7687,1163.2637 18.1011,1173.2478 19.6255,1183.6478 20.5843,1192.9366 21.1875,1202.2128 21.5668,1212.8539 21.8054,1223.669 21.9555,1234.5916 22.0499,1245.5819 22.1093,1256.6147 22.1467,1267.6743 21.4838,1278.7526 20.3805,1289.8409 19.6866,1300.9353 19.2501,1312.0336 18.9755,1323.1345 18.1164,1334.2368 16.8898,1346.0265 16.1182,1358.2504 15.6328,1370.0592 14.6412,1382.2932 13.3311,1394.7966 12.5071,1406.7811 11.9888,1418.4394 11.6627,1429.8942 11.4577,1441.2193 11.3287,1452.4627 11.2476,1463.6548 11.1965,1474.8145 11.1644,1485.2676 10.456,1495.2762 9.3222,1505.0053 8.6091,1514.5584 8.1605,1524.0009 7.8784,1532.6876 7.7009,1540.8987 7.5893,1548.8089 7.519,1556.5317 7.4749,1564.1366 6.7607,1571.6673 5.6252,1579.8377 4.911,1588.4105 4.4617,1596.5501 4.1791,1604.4152 4.0014,1612.1097 3.2032,1619.6968 2.0148,1627.2144 1.2673,1634.0039 0.7971,1640.3354 0.5014,1647.0634 -0.371,1653.3561 -1.606,1659.3752 -3.0692,1665.9066 -4.676,1672.7621 -6.3748,1680.5078 -8.1315,1688.8134 -9.9229,1696.785 -11.736,1703.8581 -12.8765,1710.368 -13.5938,1716.5236 -12.6705,1720.3955 -9.4351,1723.2896 L-7.4,1725.11 " stroke-linecap="round" fill="none" stroke="#9398b0" stroke-width="16.658764166028845" stroke-dasharray="none" stroke-dashoffset="0"/></g></g><g transform="matrix(1, 0, 0, 1, 1675.6369, 5589.4751) scale(3.7019475924508543, 3.7019475924508543)" opacity="1"><g transform="scale(0.2701280812400576)"><path d="M0,0 Q-2.7454,-12.3617 -4.297,-16.2495 T-7.511,-23.9553 -10.9053,-30.8614 -15.0993,-35.8916 -19.7983,-38.3693 -24.1285,-38.5551 -28.9112,-34.5519 -33.2923,-27.2277 -36.048,-19.8735 -38.4676,-11.8141 -40.676,-1.9384 -42.065,10.4543 -42.2524,25.1165 -40.9975,39.1471 -38.8355,50.7197 -36.1029,60.7442 -33.0095,70.4833 -30.3756,80.7291 -29.4071,90.6073 -30.1724,98.8816 -32.7129,106.1452 -36.3699,112.0867 -41.4174,116.5121 -48.0259,119.9839 -56.9889,122.854 -68.8075,124.6593 -79.675,124.4202 -87.8834,122.8953 -95.1074,120.5635 -101.7121,116.3495 -106.5529,110.2653 -111.591,101.6617 L-114.76,96.25 " stroke-linecap="round" fill="none" stroke="#f76707" stroke-width="16.658764166028845" stroke-dasharray="none" stroke-dashoffset="0"/></g></g><g transform="matrix(1, 0, 0, 1, 1657.1272, 5652.4082) scale(3.7019475924508543, 3.7019475924508543)" opacity="1"><g transform="scale(0.2701280812400576)"><path d="M0,0 Q-9.6126,0 -15.383,-0.6863 T-30.2776,-3.179 -54.8708,-8.0476 L-70.34,-11.11 " stroke-linecap="round" fill="none" stroke="#f76707" stroke-width="16.658764166028845" stroke-dasharray="none" stroke-dashoffset="0"/></g></g></svg>