<svg xmlns="http://www.w3.org/2000/svg" direction="ltr" width="370" height="1058.7361949407386" viewBox="6 87.26380505926147 370 1058.7361949407386" stroke-linecap="round" stroke-linejoin="round" data-color-mode="dark" class="tl-container tl-theme__force-sRGB tl-theme__dark" style="background-color: transparent;"><defs/><g transform="matrix(1, 0, 0, 1, 88, 141)" opacity="1"><g transform="scale(1)"><path d="M-1.3564,-0.9043 T-0.8838,-1.6101 -0.0973,-4.2276 -0.0806,-8.7632 -0.4712,-13.1482 -0.9436,-16.3822 -2.26,-19.0072 -3.6301,-18.5363 -4.1847,-14.8429 -4.3214,-11.1725 -4.3333,-7.449 -4.3232,-3.0538 -4.3029,1.6522 -3.9157,6.6064 -3.2061,11.5469 -2.6138,16.4955 -1.9265,21.5586 -1.005,27.1101 -0.0124,32.8707 0.5888,37.3699 0.9624,40.6123 1.4003,43.9761 1.6504,47.5389 1.7838,51.0662 1.8604,54.8214 1.9067,58.4531 1.9339,62.0223 1.9548,65.7969 1.7291,69.7967 1.1263,73.6993 0.3268,77.2041 -0.5545,80.6841 -1.4793,84.1785 -2.4544,87.2907 -3.7271,90.2623 -5.5052,93.0261 -8.9141,95.3608 -14.0755,95.7976 -18.2411,94.0192 -20.9015,91.5842 -23.3206,88.5153 -25.3322,85.125 -26.9735,82.2749 -28.5052,79.5547 -29.9847,76.4501 -30.7301,74.8809 A1.9415,1.9415 0 0 1 -27.2699,73.1191 T-25.7591,75.8877 -23.2596,80.0504 -21.5201,82.8775 -19.809,85.7721 -16.8045,89.2242 -12.8699,91.5869 -9.6107,90.9081 -7.0744,87.2935 -5.4244,83.1037 -4.4678,79.6711 -3.574,76.2898 -2.8003,73.0575 -2.213,69.5615 -1.9755,65.8049 -1.9732,62.0419 -1.9812,58.4885 -2.0018,54.8876 -2.0521,51.2014 -2.1594,47.7886 -2.3661,44.4651 -2.7951,41.0446 -3.3158,36.3842 -3.8822,31.9703 -4.3636,28.9622 -4.9595,24.8442 -5.7551,19.5265 -6.5023,14.4389 -7.0705,9.6318 -7.4634,4.3266 -7.6826,-0.9018 -7.66,-5.3528 -7.6322,-9.2295 -7.5753,-12.801 -7.3751,-16.1622 -6.4757,-19.7292 -4.2288,-22.5066 -0.9035,-22.2512 1.4162,-19.7771 2.3118,-16.7178 2.7972,-13.3995 3.22,-9.7958 3.4336,-5.9136 2.8093,-2.2429 1.8298,0.1911 1.3564,0.9043 A1.6302,1.6302 0 0 1 -1.3564,-0.9043 Z" stroke-linecap="round" fill="#f2f2f2"/></g></g><g transform="matrix(1, 0, 0, 1, 121, 174)" opacity="1"><g transform="scale(1)"><path d="M1.775,1.0143 T0.8424,2.6771 -0.7757,5.8493 -2.3517,8.9727 -3.8902,12.0349 -5.4719,14.8878 -7.3806,17.6387 -9.4269,20.489 -10.4982,21.9933 A1.8005,1.8005 0 0 1 -13.5018,20.0067 T-12.5367,18.4321 -9.9794,14.2941 -7.6552,10.1332 -6.0932,7.0635 -4.4784,3.9366 -2.7344,0.6339 -1.775,-1.0143 A2.0444,2.0444 0 0 1 1.775,1.0143 Z" stroke-linecap="round" fill="#f2f2f2"/></g></g><g transform="matrix(1, 0, 0, 1, 108, 179)" opacity="1"><g transform="scale(1)"><path d="M1.2935,-1.6169 T2.4625,-0.654 5.1289,1.8659 7.6705,5.2235 9.7012,8.5425 11.5832,11.1922 13.8477,13.3487 15.2167,14.374 A2.0308,2.0308 0 0 1 12.7833,17.626 T11.0403,16.3228 8.1988,13.5934 6.1076,10.576 4.2348,7.3907 2.2265,4.636 -0.0975,2.546 -1.2935,1.6169 A2.0707,2.0707 0 0 1 1.2935,-1.6169 Z" stroke-linecap="round" fill="#f2f2f2"/></g></g><g transform="matrix(1, 0, 0, 1, 121, 153)" opacity="1"><g transform="scale(1)"><path d="M-0.325,-1.9498 T1.093,-2.1928 4.4914,-2.366 8.2928,-1.1512 10.2115,1.8218 8.9903,5.0983 6.0772,7.5551 4.3206,9.4614 4.1583,10.3598 A2.0392,2.0392 0 0 1 0.1815,9.4556 T0.5185,8.2085 1.95,5.7278 4.7597,3.139 4.8201,1.6367 1.745,1.7198 0.325,1.9498 A1.9767,1.9767 0 0 1 -0.325,-1.9498 ZM3.4596,8.3282 T4.1353,8.8692 6.9125,9.5702 10.5633,9.2602 13.2175,8.4325 14.3223,8.0749 A2.041,2.041 0 0 1 15.6777,11.9251 T13.489,12.7497 9.0423,13.7358 4.7022,13.4132 1.7501,12.2081 0.8802,11.4872 A2.0392,2.0392 0 0 1 3.4596,8.3282 Z" stroke-linecap="round" fill="#f2f2f2"/></g></g><g transform="matrix(1, 0, 0, 1, 139, 183)" opacity="1"><g transform="scale(1)"><path d="M0.6652,-1.9956 T2.7901,-1.2756 7.0897,-0.2774 10.8354,-0.8697 13.0718,-3.3723 11.8582,-4.4348 8.5051,-2.3604 6.2647,1.3028 5.5206,5.6449 6.562,9.5698 9.6201,12.1712 14.403,12.6976 18.7463,11.8234 21.7163,10.7736 25.5668,9.4979 29.2978,8.4635 30.5491,8.1952 A1.8602,1.8602 0 0 1 31.4509,11.8048 T30.2205,12.1565 26.811,13.3545 23.1839,14.7974 19.7817,16.0552 16.09,16.9606 12.3909,17.1334 8.8366,16.477 5.8816,14.8587 3.1605,11.0375 1.8688,5.4257 2.3351,1.0711 4.2405,-2.8236 7.6698,-6.8109 11.7554,-8.852 15.6261,-7.9795 17.5237,-4.9422 17.0802,-1.661 14.9546,1.2798 11.4498,3.4307 7.9433,4.1761 5.024,3.7855 1.4669,2.6946 -0.6652,1.9956 A2.1036,2.1036 0 0 1 0.6652,-1.9956 Z" stroke-linecap="round" fill="#f2f2f2"/></g></g><g transform="matrix(1, 0, 0, 1, 179, 155)" opacity="1"><g transform="scale(1)"><path d="M1.3242,0.6621 T0.8682,1.6189 -1.1952,4.8799 -4.0287,8.582 -6.5634,11.4731 -7.8721,12.9663 A1.4853,1.4853 0 0 1 -10.1279,11.0337 T-8.8531,9.5114 -6.4856,6.6807 -3.8486,3.2902 -1.8142,0.2731 -1.3242,-0.6621 A1.4805,1.4805 0 0 1 1.3242,0.6621 Z" stroke-linecap="round" fill="#f2f2f2"/></g></g><g transform="matrix(1, 0, 0, 1, 166, 157)" opacity="1"><g transform="scale(1)"><path d="M1.3127,-1.3127 T2.7209,0.1163 5.2798,2.4623 7.5896,4.3888 9.842,6.3969 12.3692,8.3735 15.4192,10.3269 17.9706,11.8407 18.9058,12.3793 A1.8567,1.8567 0 0 1 17.0942,15.6207 T16.1454,15.1063 13.7082,13.7262 10.2773,11.514 7.3054,9.1746 5.2023,7.2079 2.8378,5.1823 0.1171,2.7217 -1.3127,1.3127 A1.8565,1.8565 0 0 1 1.3127,-1.3127 Z" stroke-linecap="round" fill="#f2f2f2"/></g></g><g transform="matrix(1, 0, 0, 1, 211, 182)" opacity="1"><g transform="scale(1)"><path d="M-1.8456,0 T-1.8476,-1.6262 -3.0409,-4.0994 -5.989,-3.2333 -8.2185,1.0293 -8.0911,6.2715 -5.9272,10.7534 -1.8992,12.8462 3.063,11.5314 6.6606,8.5571 8.5615,5.6291 9.7768,2.3847 10.4416,-1.3325 10.8459,-5.6473 10.8614,-10.2182 10.2048,-14.8497 9.1788,-19.4141 7.9844,-23.1668 6.4977,-25.9439 4.6492,-28.462 3.3848,-29.6238 3.1687,-29.5254 A1.4185,1.4185 0 0 1 3.301,-32.3593 T4.1932,-32.2093 6.6327,-30.4344 9.1199,-27.38 10.8801,-24.1651 12.2568,-20.1379 13.4167,-15.3248 14.2156,-10.2401 14.3001,-5.3495 13.9381,-0.686 13.1486,3.658 11.6043,7.6321 9.1663,11.2213 6.077,14.0614 2.5492,16.0015 -1.1277,16.7219 -4.7562,16.0292 -7.9027,14.2404 -10.0722,11.6371 -11.5163,8.4222 -12.2528,4.8956 -12.1644,1.3376 -11.4428,-2.0042 -10.0291,-4.9025 -6.5372,-7.493 -1.6198,-7.544 1.2866,-4.8612 1.8476,-1.6848 1.8456,0 A1.8456,1.8456 0 0 1 -1.8456,0 ZM4.4319,-30.1814 T4.1561,-29.8156 4.0801,-27.362 4.7625,-23.4766 5.771,-19.4579 7.0569,-14.7029 8.7038,-9.6735 10.5616,-4.4313 12.3031,1.2417 13.9105,6.0153 15.2217,9.4479 16.9968,12.4413 18.2975,13.8494 A1.7342,1.7342 0 0 1 15.7025,16.1506 T13.9992,14.1711 11.8691,10.7364 10.5694,7.1542 9.0174,2.2071 7.4562,-3.3852 5.74,-8.7487 4.1951,-13.9711 3.0145,-18.7964 2.0354,-23.0837 1.4736,-27.8871 1.7295,-31.1504 2.0378,-31.7034 A1.4185,1.4185 0 0 1 4.4319,-30.1814 Z" stroke-linecap="round" fill="#f2f2f2"/></g></g><g transform="matrix(1, 0, 0, 1, 254, 171)" opacity="1"><g transform="scale(1)"><path d="M1.3665,0.4555 T0.9158,1.8819 -0.0092,4.7731 -1.2705,7.6294 -3.2612,10.2876 -5.5242,12.6198 -8.8518,15.4078 -11.1201,17.1302 A1.4324,1.4324 0 0 1 -12.8799,14.8698 T-10.8099,13.2147 -7.7004,10.4913 -5.0064,7.3452 -2.8544,3.8175 -1.8618,0.9561 -1.3665,-0.4555 A1.4404,1.4404 0 0 1 1.3665,0.4555 Z" stroke-linecap="round" fill="#f2f2f2"/></g></g><g transform="matrix(1, 0, 0, 1, 241, 173)" opacity="1"><g transform="scale(1)"><path d="M1.2188,-1.3542 T3.5668,0.7931 7.6618,4.5256 10.8731,7.7011 13.5997,10.8396 16.8084,14.4224 19.9049,18.3791 21.4253,21.2919 21.7957,22.2826 A1.9337,1.9337 0 0 1 18.2043,23.7174 T17.5802,22.1421 15.5614,18.8494 12.9788,15.971 10.6537,13.3055 8.2225,10.2917 5.2369,7.1778 1.1632,3.4639 -1.2188,1.3542 A1.8219,1.8219 0 0 1 1.2188,-1.3542 Z" stroke-linecap="round" fill="#f2f2f2"/></g></g><g transform="matrix(1, 0, 0, 1, 81, 423)" opacity="1"><g transform="scale(1)"><path d="M-1.6104,-0.5368 T-1.1379,-1.9552 -0.3338,-5.7624 0.0911,-10.6125 0.2004,-14.7094 0.2242,-17.9177 -0.1297,-22.4774 -1.1164,-27.3493 -2.2683,-29.548 -2.7952,-29.8621 A1.7877,1.7877 0 0 1 -1.1065,-33.0135 T-0.4149,-32.5919 1.3381,-30.3711 2.717,-27.1625 3.1427,-24.2891 3.4869,-21.1497 3.7104,-17.8894 3.6755,-14.6417 3.5349,-10.3991 2.9871,-5.0609 2.0839,-0.8828 1.6104,0.5368 A1.6975,1.6975 0 0 1 -1.6104,-0.5368 ZM-0.4316,-30.4956 T-1.0268,-29.5533 -2.0848,-26.4887 -2.7071,-22.8837 -2.9614,-19.6559 -3.1052,-15.8079 -2.9483,-11.7444 -2.3921,-7.556 -1.6082,-2.7205 -0.7003,2.4296 0.2728,7.4913 1.2824,12.7707 2.3045,18.1514 3.3298,23.3336 4.5763,28.5995 5.9572,34.2264 7.181,40.108 8.306,46.0441 9.158,52.0888 9.8526,58.1109 10.4611,63.8817 10.5684,69.4653 10.1655,74.8808 9.4899,80.1135 8.4005,84.9366 6.5317,89.2048 3.8779,92.6863 0.4163,94.9856 -3.5667,96.2184 -7.7408,96.5459 -12.1936,95.6364 -16.5817,93.5729 -20.5071,90.9492 -24.0377,87.7683 -27.5227,84.1549 -29.3068,82.3108 A1.851,1.851 0 0 1 -26.6932,79.6892 T-24.8437,81.4678 -21.4338,84.7285 -18.2072,87.3787 -14.6959,89.537 -11.2552,91.1622 -8.0331,91.867 -4.8238,91.6676 -0.9232,90.0972 2.3709,87.2491 4.0048,83.847 5.0743,79.5005 5.8024,74.5138 6.2684,69.5129 6.2291,64.3067 5.6622,58.5785 5.0238,52.6539 4.2438,46.7999 3.1696,40.928 2.0156,35.1739 0.6795,29.4923 -0.537,24.0701 -1.4928,18.8442 -2.4347,13.4506 -3.3569,8.1581 -4.2543,3.0323 -5.1008,-2.1734 -5.8508,-7.1154 -6.4101,-11.6074 -6.5749,-15.9374 -6.4316,-19.9386 -6.1411,-23.5271 -5.3426,-27.7824 -4.1057,-31.3378 -3.4701,-32.38 A1.7877,1.7877 0 0 1 -0.4316,-30.4956 Z" stroke-linecap="round" fill="#f2f2f2"/></g></g><g transform="matrix(1, 0, 0, 1, 130, 457)" opacity="1"><g transform="scale(1)"><path d="M1.6564,1.3803 T0.4783,2.803 -2.0059,5.9016 -4.7068,9.413 -7.3069,12.8983 -9.9225,16.2017 -12.627,19.0198 -16.0102,21.5344 -19.1528,23.3101 -20.2066,23.7357 A1.9085,1.9085 0 0 1 -21.7934,20.2643 T-20.7821,19.7459 -18.2844,18.1227 -15.7225,16.0292 -13.3554,13.5061 -10.8352,10.2644 -8.1775,6.7155 -5.3894,3.162 -2.8433,0.035 -1.6564,-1.3803 A2.1561,2.1561 0 0 1 1.6564,1.3803 Z" stroke-linecap="round" fill="#f2f2f2"/></g></g><g transform="matrix(1, 0, 0, 1, 111, 459)" opacity="1"><g transform="scale(1)"><path d="M0.584,-1.7521 T1.9955,-1.2432 4.794,0.078 7.4622,2.1016 9.6565,4.435 11.6977,6.7534 13.7892,9.4472 16.4454,12.8081 19.1809,15.6619 20.2237,16.6522 A1.8204,1.8204 0 0 1 17.7763,19.3478 T16.6901,18.4052 14.5083,16.4925 12.4593,14.2265 10.7905,11.6792 8.1781,8.1284 4.2751,4.2276 0.8425,2.1892 -0.584,1.7521 A1.8469,1.8469 0 0 1 0.584,-1.7521 Z" stroke-linecap="round" fill="#f2f2f2"/></g></g><g transform="matrix(1, 0, 0, 1, 126, 428)" opacity="1"><g transform="scale(1)"><path d="M-0.9019,-1.8039 T1.0107,-2.7114 4.517,-4.159 8.3314,-4.9093 12.1411,-4.1158 14.2146,-1.6859 13.7642,1.6701 11.3459,4.9624 8.7236,7.3097 6.8479,9.7405 6.1111,11.1866 A1.9595,1.9595 0 0 1 2.2395,10.579 T2.3495,9.9526 3.1506,7.8988 4.9973,5.39 7.4327,3.3126 8.9442,0.3786 6.9103,-0.8624 2.7733,0.8194 0.9019,1.8039 A2.0168,2.0168 0 0 1 -0.9019,-1.8039 ZM5.1985,9.2117 T5.6324,9.4718 8.3391,10.2454 12.6712,10.8784 15.8911,11.0709 17.0516,11.1439 A1.8568,1.8568 0 0 1 16.9484,14.8561 T14.7187,14.8762 10.078,14.704 5.8387,13.8012 3.5813,12.8223 3.1521,12.554 A1.9595,1.9595 0 0 1 5.1985,9.2117 Z" stroke-linecap="round" fill="#f2f2f2"/></g></g><g transform="matrix(1, 0, 0, 1, 175, 456)" opacity="1"><g transform="scale(1)"><path d="M0.7468,1.8871 T-0.2678,2.2629 -3.125,3.6561 -6.0718,5.8577 -6.852,8.5904 -4.5905,10.685 -0.3642,12.1896 3.7553,14.6961 5.9318,18.7044 5.1401,23.4387 1.7418,27.1885 -3.4083,29.0062 -8.5317,28.9805 -12.374,27.0276 -14.3469,24.6787 -14.7117,23.9148 A1.9409,1.9409 0 0 1 -11.2883,22.0852 T-9.8209,23.5135 -6.2565,25.0931 -2.3396,24.5806 0.8189,22.3165 2.013,19.1894 0.1905,16.8056 -3.7199,15.1578 -8.2914,13.2849 -11.4299,10.0335 -11.1508,6.0239 -8.4959,2.6576 -5.2091,0.1925 -2.1228,-1.3169 -0.7468,-1.8871 A2.0295,2.0295 0 0 1 0.7468,1.8871 Z" stroke-linecap="round" fill="#f2f2f2"/></g></g><g transform="matrix(1, 0, 0, 1, 188, 472)" opacity="1"><g transform="scale(1)"><path d="M1.2008,-0.8577 T2.4125,0.7775 4.5035,4.4304 5.3829,6.448 A1.6073,1.6073 0 0 1 2.2074,6.9474 T1.6566,5.5783 -0.0475,2.5335 -1.2008,0.8577 A1.4757,1.4757 0 0 1 1.2008,-0.8577 ZM2.7351,7.9059 T2.3443,7.5493 1.9535,7.1927 A1.5868,1.5868 0 0 1 4.0465,4.8073 T4.4509,5.1484 4.8552,5.4896 A1.6073,1.6073 0 0 1 2.7351,7.9059 Z" stroke-linecap="round" fill="#f2f2f2"/></g></g><g transform="matrix(1, 0, 0, 1, 186, 430)" opacity="1"><g transform="scale(1)"><path d="M0.4833,-1.4498 T1.9186,-1.0053 5.0053,1.3602 6.6828,4.8044 6.4219,7.8044 5.8342,10.7835 5.5335,12.2856 A1.5598,1.5598 0 0 1 2.4665,11.7144 T2.9431,8.9787 2.8709,4.3479 0.9194,1.9513 -0.4833,1.4498 A1.5282,1.5282 0 0 1 0.4833,-1.4498 Z" stroke-linecap="round" fill="#f2f2f2"/></g></g><g transform="matrix(1, 0, 0, 1, 201, 468)" opacity="1"><g transform="scale(1)"><path d="M0.6779,-1.6946 T1.8569,-1.2102 4.7806,0.8515 7.0267,4.181 7.3875,7.9337 7.0291,10.7249 6.8113,11.5157 A1.8833,1.8833 0 0 1 3.1887,10.4843 T3.5994,9.2941 3.8915,6.6819 2.7335,3.9388 0.5081,2.1562 -0.6779,1.6946 A1.8252,1.8252 0 0 1 0.6779,-1.6946 ZM3.2251,10.3703 T3.4851,9.6462 4.8955,6.9318 7.9094,2.7945 12.0018,-0.5746 16.154,-1.8595 19.4677,-0.4668 21.2163,2.9508 21.1244,7.5946 20.6741,10.2763 A1.6967,1.6967 0 0 1 17.3259,9.7237 T17.523,8.4208 17.8218,5.4061 17.2986,2.3939 15.281,1.5211 12.2698,3.31 9.8429,5.8859 8.1834,8.5706 7.0536,10.8352 6.7749,11.6297 A1.8833,1.8833 0 0 1 3.2251,10.3703 Z" stroke-linecap="round" fill="#f2f2f2"/></g></g><g transform="matrix(1, 0, 0, 1, 239, 436)" opacity="1"><g transform="scale(1)"><path d="M0,-1.749 T0.473,-1.7467 0.946,-1.7445 A1.7445,1.7445 0 0 1 0.946,1.7445 T0.473,1.7467 0,1.749 A1.749,1.749 0 0 1 0,-1.749 ZM2.6898,-0.0471 T2.7006,0.4337 2.3645,3.4135 1.7184,7.7037 1.0408,11.5937 0.487,16.118 -0.0219,21.1052 -0.5177,26.1124 -0.7651,30.7952 -0.8943,34.9189 -0.4787,38.6424 0.3216,41.0017 0.6619,41.5237 A1.903,1.903 0 0 1 -2.531,43.5951 T-3.4537,41.7987 -4.6059,38.3565 -4.7786,34.7895 -4.6142,30.5738 -4.3046,25.7149 -3.7432,20.6942 -3.1437,15.6285 -2.492,10.9499 -1.7793,7.2501 -1.1232,3.2986 -0.783,0.5123 -0.7978,0.0471 A1.7445,1.7445 0 0 1 2.6898,-0.0471 ZM-0.652,40.6775 T0.0394,40.7993 1.5013,41.0552 2.2719,41.1893 A1.831,1.831 0 0 1 1.7281,44.8107 T0.9522,44.7126 -0.5205,44.5279 -1.2171,44.4413 A1.903,1.903 0 0 1 -0.652,40.6775 Z" stroke-linecap="round" fill="#f2f2f2"/></g></g><g transform="matrix(1, 0, 0, 1, 265, 446)" opacity="1"><g transform="scale(1)"><path d="M1.651,0.2752 T1.4134,1.7124 0.2523,4.8719 -1.5918,8.1 -3.7177,11.3733 -6.3012,14.8213 -8.8819,17.8545 -11.5894,20.231 -14.603,22.2594 -16.1113,23.2638 A1.545,1.545 0 0 1 -17.8887,20.7362 T-16.4332,19.6566 -13.8228,17.7304 -11.5152,15.5847 -9.0671,12.7293 -6.5961,9.4913 -3.771,5.1679 -1.8864,1.1256 -1.651,-0.2752 A1.6738,1.6738 0 0 1 1.651,0.2752 Z" stroke-linecap="round" fill="#f2f2f2"/></g></g><g transform="matrix(1, 0, 0, 1, 253, 449)" opacity="1"><g transform="scale(1)"><path d="M0.956,-1.5933 T2.1229,-0.8465 5.2342,1.8091 8.0481,5.0639 10.1904,8.8924 12.6853,13.3573 14.7382,16.6738 15.5693,18.008 A1.8565,1.8565 0 0 1 12.4307,19.992 T11.582,18.6689 9.9517,16.1293 8.0951,12.6771 5.8572,8.3133 3.0672,4.5613 0.2421,2.2655 -0.956,1.5933 A1.8581,1.8581 0 0 1 0.956,-1.5933 Z" stroke-linecap="round" fill="#f2f2f2"/></g></g><g transform="matrix(1, 0, 0, 1, 267, 434)" opacity="1"><g transform="scale(1)"><path d="M1.0259,-1.4362 T2.6883,-0.2359 5.6661,2.7239 7.905,6.3844 9.5773,10.7639 10.7372,16.0303 11.3719,21.7004 11.9479,27.4366 12.4971,32.8111 12.7922,37.1618 12.3574,40.5277 11.3014,43.353 10.7785,44.6426 A1.8911,1.8911 0 0 1 7.2215,43.3574 T7.9584,41.2198 8.6081,37.3554 8.3649,33.195 7.8928,27.8045 7.4282,22.0892 6.986,16.8001 6.1024,12.0413 4.7946,8.1682 3.1738,5.1445 0.6227,2.6009 -1.0259,1.4362 A1.7649,1.7649 0 0 1 1.0259,-1.4362 Z" stroke-linecap="round" fill="#f2f2f2"/></g></g><g transform="matrix(1, 0, 0, 1, 303, 458)" opacity="1"><g transform="scale(1)"><path d="M-1.4898,-0.6385 T-0.7596,-2.2841 0.2496,-5.869 -0.9076,-7.7641 -3.6944,-5.5852 -5.6038,-2.0357 -6.6753,1.0356 -7.4371,4.1994 -7.8136,7.4256 -7.6829,11.3356 -5.1038,13.3838 -1.5915,12.2248 0.9628,9.549 3.4966,5.6744 5.7948,1.076 7.7413,-3.8886 9.0009,-9.4182 9.6935,-15.1212 9.8569,-20.4416 9.4923,-25.2959 8.8377,-29.48 8.0344,-32.8134 6.5685,-36.0046 5.5272,-37.7577 A1.4354,1.4354 0 0 1 7.6103,-39.733 T8.9887,-37.4004 10.8294,-33.5078 11.699,-29.9492 12.4237,-25.5431 12.8811,-20.3802 12.8094,-14.7702 12.1583,-8.7078 10.8682,-2.6827 8.8741,2.6104 6.3876,7.6035 3.4322,12.0562 0.0583,15.3088 -4.8478,16.8447 -9.2439,16.048 -11.0263,13.4123 -11.4705,10.3231 -11.2083,6.9826 -10.7069,3.3948 -9.8029,-0.0883 -8.6109,-3.3471 -6.3995,-7.2918 -2.5615,-10.89 1.2974,-11.0442 3.2962,-7.8301 3.2717,-4.1495 2.1786,-1.0269 1.4898,0.6385 A1.6208,1.6208 0 0 1 -1.4898,-0.6385 ZM7.9335,-38.3007 T7.8002,-37.8936 7.6142,-34.9636 7.7972,-30.5354 8.4112,-26.4322 9.0147,-21.8139 9.5979,-16.7713 10.3909,-11.3473 11.2941,-5.8984 12.2533,-0.6766 12.9995,4.2762 13.361,8.3745 13.5886,11.9806 13.7103,13.8664 A1.7155,1.7155 0 0 1 10.2897,14.1336 T10.117,12.2518 9.786,8.7088 9.3818,4.804 8.6753,-0.0441 7.7754,-5.3419 6.9459,-10.8792 6.2461,-16.4288 5.7918,-21.4387 5.324,-26.0223 4.803,-30.405 4.7688,-35.4306 5.0683,-38.7716 5.204,-39.1901 A1.4354,1.4354 0 0 1 7.9335,-38.3007 Z" stroke-linecap="round" fill="#f2f2f2"/></g></g><g transform="matrix(1, 0, 0, 1, 335, 446)" opacity="1"><g transform="scale(1)"><path d="M0,-1.3595 T1.6415,-0.6797 3.0633,1.4135 1.6505,4.7524 -0.3159,7.8929 -2.5997,11.2963 -5.03,14.6452 -5.9498,15.806 A1.3239,1.3239 0 0 1 -8.0502,14.194 T-7.167,13.0052 -4.9,9.6894 -2.1897,5.4225 -0.181,1.6413 0.2505,0.6797 0,1.3595 A1.3595,1.3595 0 0 1 0,-1.3595 Z" stroke-linecap="round" fill="#f2f2f2"/></g></g><g transform="matrix(1, 0, 0, 1, 325, 440)" opacity="1"><g transform="scale(1)"><path d="M0.7256,-1.814 T1.9074,-1.3113 4.6629,0.7042 7.8074,5.0301 10.2117,9.5435 11.9717,13.0817 13.6606,16.6514 15.2793,20.1762 16.862,23.6851 18.1693,26.7308 19.6072,30.5269 20.7527,34.2269 21.0414,35.4609 A2.1114,2.1114 0 0 1 16.9586,36.5391 T16.6004,35.3235 15.4164,31.9985 13.9787,28.5042 12.7262,25.4781 11.2467,21.953 9.7474,18.4136 8.2124,14.8614 6.5476,11.1684 5.2361,8.0142 3.1778,4.6785 0.4576,2.2573 -0.7256,1.814 A1.9537,1.9537 0 0 1 0.7256,-1.814 Z" stroke-linecap="round" fill="#f2f2f2"/></g></g><g transform="matrix(1, 0, 0, 1, 78, 691)" opacity="1"><g transform="scale(1)"><path d="M-1.8216,0.2277 T-2.0465,-1.6658 -2.3965,-5.3004 -3.5181,-9.3239 -5.0463,-12.9821 -6.4875,-15.8246 -7.5792,-17.2481 -7.7615,-17.2051 A1.8722,1.8722 0 0 1 -8.0065,-20.9413 T-6.184,-20.1912 -3.2536,-17.5557 -1.1288,-13.1374 0.4826,-8.9786 1.2013,-5.6807 1.5735,-2.1182 1.8216,-0.2277 A1.8357,1.8357 0 0 1 -1.8216,0.2277 ZM-6.2355,-18.1858 T-6.4988,-17.6952 -7.5231,-15.4796 -8.8341,-11.1903 -9.5537,-7.0776 -9.8188,-3.7528 -9.9703,0.1417 -9.829,4.4691 -9.2997,9.2802 -8.3395,14.3514 -7.134,19.3824 -5.7966,24.4011 -4.371,29.6635 -3.1184,35.1111 -1.9804,40.3277 -0.9004,45.4412 0.1491,50.5001 0.9666,55.3664 1.4184,59.6629 1.4298,63.4866 1.2301,66.9511 0.6179,70.1741 -0.7447,73.1694 -2.4865,75.7645 -4.9224,77.876 -8.2583,79.1892 -11.9078,79.5913 -15.7539,79.0286 -19.5721,77.6729 -22.9842,75.895 -26.3368,73.9362 -28.0634,72.9307 A2.2042,2.2042 0 0 1 -25.9366,69.0693 T-24.1639,69.9911 -20.8766,71.6894 -17.881,73.1286 -14.9257,74.2874 -10.9161,74.7342 -6.7529,73.4684 -3.9596,70.2601 -2.68,66.6329 -2.386,63.4413 -2.3354,60.02 -2.7066,55.954 -3.4509,51.2351 -4.4673,46.1835 -5.5123,41.0874 -6.6115,35.9062 -7.8092,30.5989 -9.2379,25.3264 -10.624,20.2277 -11.8939,15.0359 -12.9383,9.6845 -13.5201,4.5909 -13.6922,-0.0032 -13.5408,-4.0621 -12.8871,-9.0707 -12.0581,-13.6605 -10.9207,-17.0529 -9.797,-19.4706 -9.5325,-19.9606 A1.8722,1.8722 0 0 1 -6.2355,-18.1858 Z" stroke-linecap="round" fill="#f2f2f2"/></g></g><g transform="matrix(1, 0, 0, 1, 96, 691)" opacity="1"><g transform="scale(1)"><path d="M2.0032,-0.1821 T2.2453,2.4189 2.6363,7.6146 2.8803,13.2375 3.272,19.4351 3.9573,25.9334 4.7906,32.1768 5.7031,37.8055 6.3196,42.4951 6.6513,46.6177 6.8345,48.7647 A1.8495,1.8495 0 0 1 3.1655,49.2353 T2.8009,47.1116 2.0931,43.1301 1.2848,38.5081 0.3915,32.7503 -0.4068,26.3628 -1.0225,19.6638 -1.3044,13.3849 -1.4411,7.8984 -1.7723,2.7841 -2.0032,0.1821 A2.0114,2.0114 0 0 1 2.0032,-0.1821 Z" stroke-linecap="round" fill="#f2f2f2"/></g></g><g transform="matrix(1, 0, 0, 1, 113, 724)" opacity="1"><g transform="scale(1)"><path d="M1.3444,-1.0756 T2.3012,0.1002 4.175,3.1001 5.0022,6.7761 4.9122,8.6279 A1.8023,1.8023 0 0 1 1.3181,8.3537 T1.3759,7.6404 0.9798,5.1906 -0.4092,2.2648 -1.3444,1.0756 A1.7217,1.7217 0 0 1 1.3444,-1.0756 ZM1.7454,7.3195 T2.2306,6.7671 3.8547,4.2093 6.4067,-0.1461 8.7617,-3.6148 11.6676,-5.8467 15.9739,-5.9505 19.1583,-3.6563 20.8962,0.1306 21.7968,5.3266 21.8014,8.0206 A1.8015,1.8015 0 0 1 18.1986,7.9794 T18.2584,5.8526 17.6547,1.5845 16.0484,-2.0583 13.7189,-3.0398 10.7827,-0.4988 8.5735,2.8771 6.8263,6.1988 5.1118,8.914 4.4849,9.6621 A1.8023,1.8023 0 0 1 1.7454,7.3195 Z" stroke-linecap="round" fill="#f2f2f2"/></g></g><g transform="matrix(1, 0, 0, 1, 156, 692)" opacity="1"><g transform="scale(1)"><path d="M1.7989,0.2249 T1.5711,2.1204 0.7275,6.1167 -0.4054,10.3813 -1.4203,14.8738 -2.404,19.6148 -3.1251,24.6149 -3.4794,29.2992 -3.6661,33.1983 -3.5354,36.51 -2.751,39.682 -0.9501,42.4586 0.2645,43.5723 A1.9072,1.9072 0 0 1 -2.2645,46.4277 T-3.0614,45.7739 -5.3148,43.314 -7.1556,40.0128 -7.7354,36.6771 -7.8479,32.9764 -7.5983,28.9546 -7.125,23.9938 -6.2754,18.7698 -5.1762,13.9832 -4.034,9.372 -2.8687,5.3375 -2.0441,1.6636 -1.7989,-0.2249 A1.8129,1.8129 0 0 1 1.7989,0.2249 Z" stroke-linecap="round" fill="#f2f2f2"/></g></g><g transform="matrix(1, 0, 0, 1, 184, 713)" opacity="1"><g transform="scale(1)"><path d="M1.1939,0.8954 T0.4981,1.8517 -1.0154,4.007 -3.022,6.6243 -5.5418,9.4928 -8.0592,12.166 -10.9438,14.5651 -14.404,16.9538 -16.1661,18.1664 A1.4338,1.4338 0 0 1 -17.8339,15.8336 T-16.1164,14.5586 -12.9742,12.2271 -10.4,9.9519 -7.9444,7.3458 -5.5152,4.6842 -3.5164,2.1931 -1.9171,0.0403 -1.1939,-0.8954 A1.4923,1.4923 0 0 1 1.1939,0.8954 Z" stroke-linecap="round" fill="#f2f2f2"/></g></g><g transform="matrix(1, 0, 0, 1, 172, 713)" opacity="1"><g transform="scale(1)"><path d="M1.0655,-1.4917 T2.6948,-0.2696 5.5334,2.1417 7.8705,4.6752 9.8577,7.2217 11.7263,10.9741 13.2557,14.9448 13.7756,16.3654 A1.8856,1.8856 0 0 1 10.2244,17.6346 T9.2892,14.9463 7.3215,10.2509 4.2934,6.0107 0.6162,2.6346 -1.0655,1.4917 A1.8332,1.8332 0 0 1 1.0655,-1.4917 Z" stroke-linecap="round" fill="#f2f2f2"/></g></g><g transform="matrix(1, 0, 0, 1, 181, 689)" opacity="1"><g transform="scale(1)"><path d="M0.9653,-1.448 T2.3845,-0.4967 5.1639,1.7663 7.5643,4.8414 9.6146,8.9362 11.6466,13.892 13.7033,19.5709 15.5485,25.6982 17.0328,31.8108 18.0776,37.4605 18.6333,42.1631 18.9042,46.114 18.4796,49.5593 17.075,52.28 15.3772,54.3458 14.5734,55.2783 A2.0273,2.0273 0 0 1 11.4266,52.7217 T12.1748,51.7439 13.7596,49.4164 14.4967,46.3518 14.2299,42.6429 13.7652,38.1961 12.8738,32.7671 11.5817,26.833 9.9536,20.8715 8.1121,15.2796 6.3375,10.5166 4.7547,6.94 2.9537,4.4338 0.4535,2.3887 -0.9653,1.448 A1.7403,1.7403 0 0 1 0.9653,-1.448 Z" stroke-linecap="round" fill="#f2f2f2"/></g></g><g transform="matrix(1, 0, 0, 1, 69, 930)" opacity="1"><g transform="scale(1)"><path d="M-1.3843,-0.769 T-0.2063,-2.8937 1.5132,-7.1478 2.1086,-11.2653 1.9704,-14.9838 1.4427,-18.318 0.694,-21.4643 -0.9079,-24.9942 -3.2483,-27.9124 -4.677,-27.114 -5.018,-23.888 -5.1154,-20.6459 -5.1652,-16.7974 -4.9558,-12.2494 -4.1521,-7.158 -3.0198,-1.6218 -1.7036,4.6442 -0.0689,11.4443 1.5229,18.3843 2.6352,25.4686 3.4638,32.022 4.1481,38.0786 4.2929,43.7984 3.9045,48.8103 3.2292,53.1654 2.0879,56.8772 0.0628,59.9225 -2.5115,61.9715 -5.4702,62.8668 -8.9403,62.8372 -12.6683,61.728 -16.2778,59.606 -19.7316,57.0884 -23.2548,54.0416 -26.3199,50.9334 -28.8325,48.0498 -31.3208,44.9314 -32.5999,43.3309 A2.0811,2.0811 0 0 1 -29.4001,40.6691 T-28.0592,42.2183 -25.5758,45.0764 -23.0697,47.6914 -20.2019,50.5291 -16.9547,53.3797 -13.8443,55.7699 -9.8762,57.7995 -5.6517,58.4899 -2.5558,56.2735 -0.6876,52.4935 0.0207,48.4646 0.4627,43.8503 0.3881,38.4846 -0.2414,32.4812 -1.0083,26.0232 -2.0259,19.1884 -3.578,12.2817 -5.2166,5.373 -6.5214,-0.911 -7.6698,-6.6233 -8.5015,-12.1061 -8.7025,-16.8525 -8.6336,-20.7676 -8.5056,-24.1793 -7.6874,-28.3409 -5.1297,-31.4379 -1.9649,-31.0981 0.7172,-28.5354 2.8095,-25.3735 3.9749,-22.2267 4.7242,-18.8129 5.2439,-15.0844 5.298,-10.7862 4.4631,-5.9746 2.5713,-1.3633 1.3843,0.769 A1.5836,1.5836 0 0 1 -1.3843,-0.769 Z" stroke-linecap="round" fill="#f2f2f2"/></g></g><g transform="matrix(1, 0, 0, 1, 112, 945)" opacity="1"><g transform="scale(1)"><path d="M1.5553,0.3456 T1.0908,2.4796 -0.1311,6.3731 -2.0508,9.8194 -4.5862,12.9031 -7.1165,15.4475 -9.4349,17.4996 -12.0106,19.125 -14.8673,20.5706 -16.3094,21.2956 A1.4682,1.4682 0 0 1 -17.6906,18.7044 T-16.2848,17.9113 -12.7408,15.693 -9.4605,13.1098 -7.1234,10.769 -4.9105,8.1733 -3.2055,5.3303 -2.0368,1.7774 -1.5553,-0.3456 A1.5933,1.5933 0 0 1 1.5553,0.3456 Z" stroke-linecap="round" fill="#f2f2f2"/></g></g><g transform="matrix(1, 0, 0, 1, 96, 947)" opacity="1"><g transform="scale(1)"><path d="M1.3076,-1.3076 T3.1979,0.5864 6.6228,4.2214 9.4069,7.2991 11.7893,9.8048 13.8356,12.1482 16.3777,14.6099 19.0554,16.6599 20.1043,17.4228 A1.9254,1.9254 0 0 1 17.8957,20.5772 T15.7582,19.1296 11.83,15.6884 8.9111,12.4715 6.5369,9.84 3.8854,6.7597 0.5861,3.1976 -1.3076,1.3076 A1.8492,1.8492 0 0 1 1.3076,-1.3076 Z" stroke-linecap="round" fill="#f2f2f2"/></g></g><g transform="matrix(1, 0, 0, 1, 146, 917)" opacity="1"><g transform="scale(1)"><path d="M1.7995,-0.2249 T2.027,1.6683 2.3994,5.5587 2.4027,9.8924 1.9642,14.6363 1.5409,19.3994 1.3612,23.9466 1.2931,28.2356 1.2731,32.3816 2.0294,37.1024 3.6897,41.4513 6.37,43.5785 8.1518,44.0294 A1.9765,1.9765 0 0 1 7.8482,47.9706 T6.7522,47.9401 4.143,47.6214 1.1774,45.6904 -0.8492,42.7241 -2.0678,39.6281 -2.9338,36.1196 -3.1105,32.3096 -2.9845,28.1006 -2.7757,23.7161 -2.4299,18.9852 -1.8559,14.2207 -1.2998,9.8609 -1.2041,5.8955 -1.554,2.1157 -1.7995,0.2249 A1.8135,1.8135 0 0 1 1.7995,-0.2249 Z" stroke-linecap="round" fill="#f2f2f2"/></g></g><g transform="matrix(1, 0, 0, 1, 153, 947)" opacity="1"><g transform="scale(1)"><path d="M-0.2311,1.6178 T-1.8911,1.4136 -5.0812,1.1092 -9.1263,1.1218 -13.2029,1.4324 -14.7646,1.6301 A1.647,1.647 0 0 1 -15.2354,-1.6301 T-13.6816,-1.8823 -9.2331,-2.294 -4.7047,-2.3044 -1.4199,-1.8866 0.2311,-1.6178 A1.6342,1.6342 0 0 1 -0.2311,1.6178 Z" stroke-linecap="round" fill="#f2f2f2"/></g></g><g transform="matrix(1, 0, 0, 1, 167, 948)" opacity="1"><g transform="scale(1)"><path d="M0.2993,-1.7956 T1.7145,-1.5354 4.274,-0.9954 5.4182,-0.7156 A1.7658,1.7658 0 0 1 4.5818,2.7156 T3.564,2.4684 1.1235,2.0084 -0.2993,1.7956 A1.8204,1.8204 0 0 1 0.2993,-1.7956 ZM4.8336,2.758 T4.4154,2.6453 2.4048,3.9338 -0.6221,7.1306 -2.8479,10.4714 -2.1796,12.4243 1.3265,11.2543 5.1442,7.897 7.5856,4.8224 8.256,3.5275 A1.6357,1.6357 0 0 1 11.2234,4.9043 T10.8667,5.6944 9.1453,8.4496 6.6975,11.417 4.4376,13.3947 0.5597,15.6443 -3.5853,16.8407 -6.223,14.7763 -6.8236,10.8498 -4.8648,6.8628 -1.9313,3.0343 1.2732,0.2138 4.0381,-0.7917 5.1664,-0.758 A1.7658,1.7658 0 0 1 4.8336,2.758 ZM11.3582,3.9797 T11.4223,4.4015 12.1075,6.6249 13.9815,10.011 16.5215,11.46 17.8089,11.3246 A1.6862,1.6862 0 0 1 18.1911,14.6754 T16.211,14.7978 12.9104,13.8296 10.6058,11.2627 8.9305,7.5414 8.1802,4.8742 8.1212,4.4521 A1.6357,1.6357 0 0 1 11.3582,3.9797 Z" stroke-linecap="round" fill="#f2f2f2"/></g></g><g transform="matrix(1, 0, 0, 1, 187, 950)" opacity="1"><g transform="scale(1)"><path d="M1.25,-1.25 T2.1948,-0.3012 4.441,2.5819 5.7597,7.0086 5.777,9.5011 A1.8463,1.8463 0 0 1 2.223,8.4989 T2.3771,7.3235 1.5878,4.6422 -0.3028,2.1932 -1.25,1.25 A1.7678,1.7678 0 0 1 1.25,-1.25 ZM2.351,8.1695 T2.6234,7.626 3.9648,5.0954 6.9476,1.2166 10.7146,-1.7638 14.6763,-2.1193 17.8882,0.967 19.2276,5.3573 18.423,9.1643 17.3825,10.9343 A1.6686,1.6686 0 0 1 14.6175,9.0657 T15.3973,8.1423 15.9456,5.7496 14.6821,2.3096 12.3806,1.1832 9.5826,3.5974 7.132,6.9449 5.9294,9.2765 5.649,9.8305 A1.8463,1.8463 0 0 1 2.351,8.1695 Z" stroke-linecap="round" fill="#f2f2f2"/></g></g><g transform="matrix(1, 0, 0, 1, 191, 931)" opacity="1"><g transform="scale(1)"><path d="M0,-1.6168 T1.419,-1.6378 4.5775,-1.6882 8.1585,-1.6958 10,-1.6738 A1.6738,1.6738 0 0 1 10,1.6738 T8.1585,1.6958 4.5775,1.6882 1.419,1.6378 0,1.6168 A1.6168,1.6168 0 0 1 0,-1.6168 Z" stroke-linecap="round" fill="#f2f2f2"/></g></g><g transform="matrix(1, 0, 0, 1, 208, 916)" opacity="1"><g transform="scale(1)"><path d="M1.1079,-1.1079 T2.0666,-0.1581 4.0023,3.0911 5.2244,7.8937 5.5214,12.1678 5.589,14.9515 5.6048,15.9642 A1.6052,1.6052 0 0 1 2.3952,16.0358 T2.3658,15.0234 2.2708,12.3102 2.0275,8.4146 1.3043,4.606 -0.1746,2.0501 -1.1079,1.1079 A1.5668,1.5668 0 0 1 1.1079,-1.1079 Z" stroke-linecap="round" fill="#f2f2f2"/></g></g><g transform="matrix(1, 0, 0, 1, 229, 917)" opacity="1"><g transform="scale(1)"><path d="M1.6111,0.4028 T1.3677,1.3471 0.3393,5.0971 -0.6346,9.798 -1.1577,14.2043 -1.646,19.3806 -1.8735,24.8725 -1.9728,30.6083 -2.0117,35.9984 -2.0225,40.4945 -1.8015,44.154 -1.2734,47.2969 -0.964,48.7958 A1.8954,1.8954 0 0 1 -4.3733,50.4529 T-4.9053,48.3741 -5.6763,44.3911 -5.8844,40.462 -5.8115,35.9438 -5.6916,30.5115 -5.4898,24.6869 -5.146,19.013 -4.5499,13.7721 -3.9131,9.1818 -2.8612,4.2683 -1.8407,0.5449 -1.6111,-0.4028 A1.6607,1.6607 0 0 1 1.6111,0.4028 ZM-3.3328,47.8491 T-2.488,47.565 -1.6432,47.2808 A1.8356,1.8356 0 0 1 -0.3568,50.7192 T-1.1806,51.0593 -2.0045,51.3995 A1.8954,1.8954 0 0 1 -3.3328,47.8491 Z" stroke-linecap="round" fill="#f2f2f2"/></g></g><g transform="matrix(1, 0, 0, 1, 253, 932)" opacity="1"><g transform="scale(1)"><path d="M1.6232,0.2319 T1.4023,1.8899 0.8191,5.2025 -0.2502,8.5459 -1.8128,11.8254 -3.3421,14.68 -4.9297,17.1934 -7.9951,19.8637 -10.1466,21.2844 A1.542,1.542 0 0 1 -11.8534,18.7156 T-10.8568,18.0199 -8.4293,15.8479 -6.3319,13.0845 -4.8761,10.3427 -3.467,7.4903 -2.4874,4.5834 -1.8753,1.4211 -1.6232,-0.2319 A1.6396,1.6396 0 0 1 1.6232,0.2319 Z" stroke-linecap="round" fill="#f2f2f2"/></g></g><g transform="matrix(1, 0, 0, 1, 241, 938)" opacity="1"><g transform="scale(1)"><path d="M1.1173,-1.3035 T2.777,0.1168 5.68,3.1145 7.7899,5.9829 9.2008,8.8475 10.1221,12.8874 10.5911,17.6264 10.683,19.8988 A1.6861,1.6861 0 0 1 7.317,20.1012 T7.1411,17.9203 6.6461,13.6209 5.2307,9.1579 3.1599,5.4762 0.534,2.7212 -1.1173,1.3035 A1.7168,1.7168 0 0 1 1.1173,-1.3035 Z" stroke-linecap="round" fill="#f2f2f2"/></g></g><g transform="matrix(1, 0, 0, 1, 255, 919)" opacity="1"><g transform="scale(1)"><path d="M0.4696,-1.6435 T2.1529,-1.1471 5.2421,0.4709 7.6184,2.9674 9.3472,6.0671 10.9416,9.5419 12.2979,13.5989 13.3101,18.4576 14.0702,23.6071 14.2477,28.6147 13.8426,33.0345 12.8409,36.9415 11.2272,40.1815 9.3355,42.6412 6.2198,45.5094 4.0698,47.2605 A1.6533,1.6533 0 0 1 1.9302,44.7395 T3.7779,43.0976 7.1342,39.4871 9.21,35.986 10.0489,32.6476 10.444,28.7041 10.3448,24.1252 9.6824,19.1614 8.8928,14.7028 7.7276,10.9528 6.3325,7.6914 4.2693,4.3933 1.1581,2.0931 -0.4696,1.6435 A1.7092,1.7092 0 0 1 0.4696,-1.6435 Z" stroke-linecap="round" fill="#f2f2f2"/></g></g><g transform="matrix(1, 0, 0, 1, 287, 942)" opacity="1"><g transform="scale(1)"><path d="M-1.4503,-0.3955 T-0.7284,-2.9914 0.1147,-7.0602 -1.1513,-8.9629 -3.8227,-6.7141 -5.6672,-2.4885 -6.481,0.6939 -6.8804,4.1409 -7.1039,7.6059 -6.1889,11.3728 -2.922,13.2847 0.5942,11.9289 2.9498,9.0634 5.1618,5.2657 7.0614,0.7324 8.5453,-4.4273 9.5856,-10.1722 10.1457,-15.9963 10.2131,-21.3866 9.7745,-26.0407 8.861,-29.5445 7.4545,-32.7771 6.4951,-34.492 6.3328,-34.4222 A1.2853,1.2853 0 0 1 7.4288,-36.7474 T8.0571,-36.3049 9.6343,-33.8951 11.246,-30.1984 12.2235,-26.2912 12.6807,-21.3703 12.6528,-15.7719 12.1346,-9.72 11.1288,-3.7002 9.6275,1.796 7.6579,6.7124 5.2203,10.9728 2.3435,14.4226 -0.8994,16.6003 -5.2466,16.2682 -8.7105,13.8178 -9.9708,10.805 -10.3431,7.4195 -10.0703,3.7271 -9.5278,-0.1245 -8.5543,-3.6113 -7.2074,-6.922 -4.6965,-10.8391 -0.8233,-12.8924 2.2138,-10.5303 2.9981,-6.5608 2.1474,-2.2116 1.4503,0.3955 A1.5032,1.5032 0 0 1 -1.4503,-0.3955 ZM8.0956,-35.1651 T7.8115,-34.3645 7.6987,-30.8354 8.2322,-26.0233 8.8182,-21.5879 9.4039,-16.8895 10.2151,-11.6331 11.1483,-5.7813 12.1279,-0.1189 12.89,5.0495 13.0375,9.5995 12.7869,13.8947 12.6552,16.0878 A1.6575,1.6575 0 0 1 9.3448,15.9122 T9.4459,13.7174 9.6369,9.6864 9.4922,5.5177 8.8022,0.4248 7.924,-5.3062 7.127,-11.2008 6.4503,-16.5657 6.0076,-21.2514 5.5398,-25.647 5.0869,-30.8604 5.314,-34.9637 5.666,-36.0045 A1.2853,1.2853 0 0 1 8.0956,-35.1651 Z" stroke-linecap="round" fill="#f2f2f2"/></g></g><g transform="matrix(1, 0, 0, 1, 322, 930)" opacity="1"><g transform="scale(1)"><path d="M1.5908,0 T1.5951,0.4786 0.698,3.4853 -1.524,8.8145 -3.7405,13.1071 -6.2258,17.1841 -8.7819,21.2705 -9.7486,22.7715 A1.4701,1.4701 0 0 1 -12.2514,21.2285 T-11.3446,19.6906 -9.6467,16.7966 -8.1588,14.1715 -6.6072,11.4774 -5.02,8.7121 -3.7104,5.9723 -2.3662,2.7538 -1.5951,0.4674 -1.5908,0 A1.5908,1.5908 0 0 1 1.5908,0 Z" stroke-linecap="round" fill="#f2f2f2"/></g></g><g transform="matrix(1, 0, 0, 1, 308, 928)" opacity="1"><g transform="scale(1)"><path d="M0.8186,-1.6371 T2.2267,-0.8913 4.7892,0.8264 7.549,4.152 9.958,7.7913 11.4935,10.5641 13.0719,13.7157 14.6046,16.7377 15.7284,19.7144 16.793,23.7297 17.6215,28.4623 17.8229,30.7987 A1.834,1.834 0 0 1 14.1771,31.2013 T14.017,30.0204 13.5106,26.8791 12.4446,22.3711 11.0718,18.452 9.6215,15.3615 8.2322,12.2997 6.3018,8.5058 3.5024,4.519 0.6113,2.3103 -0.8186,1.6371 A1.8304,1.8304 0 0 1 0.8186,-1.6371 Z" stroke-linecap="round" fill="#f2f2f2"/></g></g><g transform="matrix(1, 0, 0, 1, 172, 260)" opacity="1"><g transform="scale(1)"><path d="M-1.3406,0 T-1.3348,-1.4167 -1.677,-4.8424 -2.6798,-8.5997 -4.0365,-12.138 -5.1548,-15.3331 -5.8582,-18.3855 -6.596,-22.4029 -7.1754,-26.5283 -7.7119,-30.5998 -8.6017,-34.6627 -9.3911,-37.3569 -9.6988,-38.3039 A1.476,1.476 0 0 1 -8.6423,-41.0603 T-7.5919,-40.1149 -6.3102,-37.7229 -5.5977,-34.1045 -4.8216,-30.1798 -4.4348,-26.8033 -3.9525,-23.3925 -3.3232,-19.6352 -2.6504,-16.1878 -1.559,-13.0273 -0.1606,-9.2857 0.9547,-5.0349 1.3348,-1.4213 1.3406,0 A1.3406,1.3406 0 0 1 -1.3406,0 ZM-8.5543,-38.3409 T-9.204,-38.0512 -11.2558,-36.2309 -13.6196,-33.323 -15.6374,-30.6168 -17.2891,-28.2671 -17.8848,-27.2463 A1.5748,1.5748 0 0 1 -20.4435,-29.0828 T-20.134,-29.4901 -18.9767,-31.1496 -17.1118,-33.862 -15.0323,-36.7043 -12.3008,-39.3519 -10.2093,-40.8203 -9.7869,-41.0233 A1.476,1.476 0 0 1 -8.5543,-38.3409 ZM-18.0492,-29.2767 T-18.0101,-29.238 -17.971,-29.1994 A1.5756,1.5756 0 0 1 -20.2021,-26.974 T-20.2406,-27.0133 -20.2791,-27.0525 A1.5748,1.5748 0 0 1 -18.0492,-29.2767 ZM-20.5109,-28.7602 T-20.1663,-29.4578 -18.6546,-31.303 -16.489,-33.7914 -13.9975,-36.5165 -11.4195,-38.9532 -9.0036,-40.9465 -5.9717,-41.4661 -2.9888,-39.3556 -0.7345,-36.1001 1.7643,-32.2058 3.2906,-29.8779 A1.5609,1.5609 0 0 1 0.7094,-28.1221 T-0.8789,-30.3729 -3.496,-34.2652 -6.289,-36.7864 -9.1756,-36.5887 -11.5516,-34.4277 -13.8943,-31.8983 -16.1319,-29.3678 -17.4712,-27.8483 -17.6621,-27.4133 A1.5756,1.5756 0 0 1 -20.5109,-28.7602 Z" stroke-linecap="round" fill="#f76707"/></g></g><g transform="matrix(1, 0, 0, 1, 168, 282)" opacity="1"><g transform="scale(1)"><path d="M-1.2917,-1.2917 T-1.0544,-1.5274 -0.817,-1.763 A1.8243,1.8243 0 0 1 1.763,0.817 T1.5274,1.0544 1.2917,1.2917 A1.8268,1.8268 0 0 1 -1.2917,-1.2917 ZM2.2438,-0.9116 T2.4504,-0.0643 2.7294,2.4368 2.8233,5.9628 3.3853,9.317 5.1239,8.9299 7.5148,5.1638 8.4919,1.8377 8.2763,0.4087 A1.6834,1.6834 0 0 1 11.0347,-1.5219 T11.4211,-0.984 12.1325,1.0213 11.7471,4.2727 10.2527,7.4502 8.393,10.6488 5.4756,13.4343 2.1789,13.5453 0.2088,11.2994 -0.5899,7.9516 -0.9115,3.6625 -1.1238,0.6552 -1.2978,-0.0344 A1.8243,1.8243 0 0 1 2.2438,-0.9116 ZM11.3389,-0.5561 T11.2823,-0.0404 11.9142,1.9389 13.4644,4.9342 15.6993,7.6038 17.0724,8.7416 A1.6534,1.6534 0 0 1 14.9276,11.2584 T13.2459,9.7928 10.5802,6.5865 8.8403,3.2259 8.0282,0.5245 7.972,-0.557 A1.6834,1.6834 0 0 1 11.3389,-0.5561 Z" stroke-linecap="round" fill="#f76707"/></g></g><g transform="matrix(1, 0, 0, 1, 184, 265)" opacity="1"><g transform="scale(1)"><path d="M1.0925,-0.7283 T1.577,-0.0082 2.5517,3.109 3.1034,7.0556 3.231,10.2725 3.297,11.94 A1.2984,1.2984 0 0 1 0.703,12.06 T0.6147,10.3936 0.4496,7.2842 0.1016,3.9837 -0.631,1.4272 -1.0925,0.7283 A1.313,1.313 0 0 1 1.0925,-0.7283 Z" stroke-linecap="round" fill="#f76707"/></g></g><g transform="matrix(1, 0, 0, 1, 203, 265)" opacity="1"><g transform="scale(1)"><path d="M1.4753,-0.7376 T1.7238,-0.1724 1.6048,2.6958 0.3895,7.7034 -0.9263,11.8525 -1.9777,16.1958 -2.5868,21.5498 -2.1541,25.7775 0.0449,27.996 1.7856,28.4422 A1.5725,1.5725 0 0 1 2.2144,31.5578 T1.4261,31.6907 -1.2744,31.4006 -4.1065,29.6031 -5.5067,26.3065 -6.1146,22.9277 -6.0226,19.8829 -5.4417,16.8735 -4.7955,13.8688 -4.0387,10.8498 -3.1261,8.0383 -1.856,4.0808 -1.2508,1.1184 -1.4753,0.7376 A1.6494,1.6494 0 0 1 1.4753,-0.7376 Z" stroke-linecap="round" fill="#f76707"/></g></g><g transform="matrix(1, 0, 0, 1, 217, 274)" opacity="1"><g transform="scale(1)"><path d="M-0.8217,-1.3694 T0.3634,-2.0807 2.0742,-3.0005 2.5999,-3.209 A1.608,1.608 0 0 1 3.6768,-0.1786 T3.4292,-0.1123 2.0016,0.6617 0.8217,1.3694 A1.597,1.597 0 0 1 -0.8217,-1.3694 ZM4.5868,-0.9955 T4.0041,0.2167 1.7792,3.2728 -1.3583,7.0205 -4.1225,10.6229 -6.5578,14.0625 -7.7244,15.8036 A1.5076,1.5076 0 0 1 -10.2756,14.1964 T-9.1201,12.2513 -6.6924,8.5168 -3.8659,4.7726 -0.7739,1.17 1.2267,-1.4349 1.6899,-2.3922 A1.608,1.608 0 0 1 4.5868,-0.9955 Z" stroke-linecap="round" fill="#f76707"/></g></g><g transform="matrix(1, 0, 0, 1, 208, 273)" opacity="1"><g transform="scale(1)"><path d="M0.8447,-1.267 T2.2665,-0.3251 5.4405,2.4433 8.2474,6.1887 10.4663,9.9762 12.4363,12.959 13.2422,14.0734 A1.5497,1.5497 0 0 1 10.7578,15.9266 T9.9193,14.8367 7.7636,11.6776 5.4709,7.7522 3.2416,4.5316 0.5715,2.2171 -0.8447,1.267 A1.5228,1.5228 0 0 1 0.8447,-1.267 Z" stroke-linecap="round" fill="#f76707"/></g></g><g transform="matrix(1, 0, 0, 1, 217, 262)" opacity="1"><g transform="scale(1)"><path d="M1.1522,-1.1522 T2.5653,0.2766 5.0594,3.2814 6.9751,6.6952 8.2783,10.787 8.9769,14.9082 9.3308,18.7223 9.5201,22.3996 9.6249,26.4804 9.6446,30.9081 9.6251,32.9859 A1.6252,1.6252 0 0 1 6.3749,33.0141 T6.3193,30.9509 6.2093,26.5674 6.1037,22.5571 5.9555,19.0153 5.6689,15.4136 5.1519,11.7459 4.1486,8.2381 2.5852,5.3093 0.2727,2.5614 -1.1522,1.1522 A1.6295,1.6295 0 0 1 1.1522,-1.1522 Z" stroke-linecap="round" fill="#f76707"/></g></g><g transform="matrix(1, 0, 0, 1, 111, 265)" opacity="1"><g transform="scale(1)"><path d="M-1.3533,-0.9022 T-0.8992,-1.5424 -1.4682,-4.3165 -2.9169,-8.9402 -3.4516,-13.9157 -3.3623,-19.2739 -2.8074,-23.664 -1.8342,-27.509 -0.6961,-32.0678 -0.0464,-35.8857 0.1273,-39.1409 -0.0284,-41.3453 -0.2297,-41.8813 A1.8246,1.8246 0 0 1 3.2743,-42.9006 T3.5259,-41.2953 3.6753,-37.6843 3.2511,-33.6548 2.3106,-29.1584 0.9214,-24.1467 -0.0713,-19.0512 -0.2124,-14.1387 0.1268,-9.8426 1.2215,-6.2937 2.1976,-2.6701 1.8452,0.1234 1.3533,0.9022 A1.6264,1.6264 0 0 1 -1.3533,-0.9022 ZM2.3123,-40.7462 T1.6447,-40.4243 -0.2322,-38.6066 -2.8244,-35.6102 -5.2523,-32.6749 -7.7468,-30.406 -9.1961,-29.5719 A1.9583,1.9583 0 0 1 -10.5337,-33.253 T-9.4429,-34.092 -7.0672,-36.4969 -4.6258,-39.3305 -2.2735,-41.8835 -0.1726,-43.6022 0.7323,-44.0356 A1.8246,1.8246 0 0 1 2.3123,-40.7462 ZM-11.6883,-30.6981 T-12.131,-31.9032 -12.6758,-35.0102 -12.113,-39.1699 -10.4899,-43.4712 -7.8914,-46.9965 -4.7493,-48.8849 -1.1507,-47.6428 1.7743,-44.8025 3.3442,-42.1862 5.5756,-38.5766 8.2278,-34.2683 9.987,-30.9945 10.5838,-29.8443 A1.7948,1.7948 0 0 1 7.4162,-28.1557 T6.2432,-30.294 3.8829,-34.5176 1.2487,-39.1666 -1.938,-43.8713 -5.0946,-45.0361 -7.312,-42.1444 -8.5798,-38.6337 -8.9214,-35.4703 -8.4186,-33.0143 -8.0416,-32.1268 A1.9583,1.9583 0 0 1 -11.6883,-30.6981 Z" stroke-linecap="round" fill="#40c057"/></g></g><g transform="matrix(1, 0, 0, 1, 87, 296)" opacity="1"><g transform="scale(1)"><path d="M1.7909,-0.8955 T2.03,-0.41 2.7636,2.0563 3.9273,6.2074 5.6225,10.5467 7.4099,13.1821 8.1712,13.6485 A2.0199,2.0199 0 0 1 7.0254,17.5224 T6.0071,17.0935 4.0207,15.5843 1.9871,12.252 0.1583,7.5523 -0.964,3.4605 -1.557,1.356 -1.7909,0.8955 A2.0023,2.0023 0 0 1 1.7909,-0.8955 ZM6.4855,13.8997 T7.021,13.557 8.2647,11.5266 9.3002,7.3895 10.0126,2.1294 10.7226,-2.0585 11.0475,-3.4356 A2.0005,2.0005 0 0 1 14.9525,-2.5644 T14.4255,-0.1055 13.8144,3.8558 13.5652,6.8721 12.4776,11.2192 10.7335,15.2545 9.3116,16.864 8.7112,17.2712 A2.0199,2.0199 0 0 1 6.4855,13.8997 Z" stroke-linecap="round" fill="#40c057"/></g></g><g transform="matrix(1, 0, 0, 1, 113, 280)" opacity="1"><g transform="scale(1)"><path d="M1.7881,0 T1.7908,1.1849 1.5437,3.8571 0.9216,6.8223 0.1294,9.9892 -0.7519,13.3083 -1.4189,16.6002 -1.7396,19.8591 -1.3789,24.0436 -0.1731,28.0012 2.4389,28.8957 4.3209,28.4199 A1.7199,1.7199 0 0 1 5.6791,31.5801 T3.4224,32.4409 -0.7018,32.3523 -3.5585,29.4761 -4.895,26.1149 -5.4082,22.9299 -5.4329,19.4716 -5.011,15.847 -4.2688,12.3601 -3.3736,9.0988 -2.3667,4.884 -1.7908,1.1801 -1.7881,0 A1.7881,1.7881 0 0 1 1.7881,0 Z" stroke-linecap="round" fill="#40c057"/></g></g><g transform="matrix(1, 0, 0, 1, 129, 288)" opacity="1"><g transform="scale(1)"><path d="M1.318,0.659 T0.858,1.6113 -0.838,4.9719 -3.1996,9.7499 -5.4126,13.9159 -7.0894,16.7285 -7.6786,17.7448 A1.5169,1.5169 0 0 1 -10.3214,16.2552 T-9.2321,14.2657 -7.0926,10.3542 -5.3597,7.0534 -3.4835,3.4475 -1.804,0.2807 -1.318,-0.659 A1.4736,1.4736 0 0 1 1.318,0.659 Z" stroke-linecap="round" fill="#40c057"/></g></g><g transform="matrix(1, 0, 0, 1, 119, 292)" opacity="1"><g transform="scale(1)"><path d="M0.6921,-1.615 T2.336,-0.8774 6.3262,1.3599 10.842,4.6404 14.1521,7.5881 15.2927,8.755 A1.7948,1.7948 0 0 1 12.7073,11.245 T11.5841,10.0614 8.5379,7.2383 4.6285,4.2883 0.975,2.2964 -0.6921,1.615 A1.757,1.757 0 0 1 0.6921,-1.615 Z" stroke-linecap="round" fill="#40c057"/></g></g><g transform="matrix(1, 0, 0, 1, 130, 276)" opacity="1"><g transform="scale(1)"><path d="M1.1621,-1.3282 T3.0534,0.3327 6.3069,3.6899 8.6913,7.5799 10.262,12.1928 11.3145,16.7197 12.106,21.2377 12.747,25.4948 13.2948,28.9126 13.0702,32.3044 12.2115,35.7823 11.7717,37.4391 A1.8253,1.8253 0 0 1 8.2283,36.5609 T8.6132,34.8905 9.1231,30.6518 8.8604,26.0825 8.2514,21.8826 7.5686,17.5332 6.7212,13.3118 5.5843,9.4022 3.7283,6.096 0.7306,2.9783 -1.1621,1.3282 A1.7648,1.7648 0 0 1 1.1621,-1.3282 Z" stroke-linecap="round" fill="#40c057"/></g></g><g transform="matrix(1, 0, 0, 1, 207, 546)" opacity="1"><g transform="scale(1)"><path d="M-1.6584,-0.5528 T-1.4291,-1.2238 -1.9996,-4.3423 -3.7144,-9.5397 -5.6019,-14.8361 -7.023,-19.856 -7.9441,-24.1011 -8.9302,-27.5794 -10.3463,-29.6222 -11.2488,-29.9585 A1.8954,1.8954 0 0 1 -10.6437,-33.7007 T-9.3566,-33.3183 -6.8923,-31.2196 -5.2871,-28.0535 -4.3894,-24.6911 -3.577,-20.6859 -2.255,-15.9986 -0.8051,-11.9882 0.4999,-8.0312 1.7401,-3.2166 1.9021,-0.1952 1.6584,0.5528 A1.7481,1.7481 0 0 1 -1.6584,-0.5528 ZM-9.7031,-30.3988 T-10.2837,-29.8758 -12.039,-27.5143 -14.1727,-24.2075 -16.5236,-20.6515 -17.9155,-18.5637 A2.113,2.113 0 0 1 -21.2047,-21.2171 T-20.3875,-22.4698 -18.5533,-25.1976 -16.5278,-28.1011 -14.5079,-30.8458 -12.843,-32.7112 -12.1894,-33.2604 A1.8954,1.8954 0 0 1 -9.7031,-30.3988 ZM-21.6649,-20.0774 T-21.5503,-21.1568 -21.0414,-23.9437 -20.1714,-27.8936 -18.7957,-32.6568 -16.6717,-36.8402 -13.5935,-39.1788 -9.9548,-38.4762 -6.7321,-34.819 -4.7099,-31.159 -3.1113,-27.579 -1.1125,-23.1417 -0.1283,-20.903 A2.0782,2.0782 0 0 1 -3.8717,-19.097 T-5.023,-21.2846 -7.2151,-25.7888 -9.1873,-30.3727 -11.0837,-34.4884 -13.077,-35.0149 -14.9093,-31.3393 -16.1726,-26.6794 -17.0029,-22.7064 -17.4147,-20.3715 -17.4554,-19.7034 A2.113,2.113 0 0 1 -21.6649,-20.0774 Z" stroke-linecap="round" fill="#f76707"/></g></g><g transform="matrix(1, 0, 0, 1, 202, 572)" opacity="1"><g transform="scale(1)"><path d="M-1.806,0 T-1.7944,-1 -1.7828,-2 A1.7828,1.7828 0 0 1 1.7828,-2 T1.7944,-1 1.806,0 A1.806,1.806 0 0 1 -1.806,0 ZM1.7828,-2 T1.7797,-1.512 1.7735,0.5341 2.3189,3.6656 3.3668,6.8939 5.1085,9.2183 6.3508,9.8877 A1.809,1.809 0 0 1 5.2346,13.3291 T4.5241,13.0789 2.2233,11.4644 0.078,8.2951 -1.1237,4.3051 -1.7735,0.548 -1.7797,-1.512 -1.7828,-2 A1.7828,1.7828 0 0 1 1.7828,-2 ZM4.7274,10.1464 T5.2058,9.8262 6.2775,7.5804 7.0538,4.2209 7.3094,1.5383 7.3821,0.2898 A1.5839,1.5839 0 0 1 10.5488,0.372 T10.5459,0.9833 10.4861,3.2177 10.0906,6.7072 8.8705,10.3814 7.4237,12.6298 6.858,13.0704 A1.809,1.809 0 0 1 4.7274,10.1464 ZM10.3691,-0.4029 T10.8066,0.4998 11.7133,3.0821 12.8167,6.1915 14.3939,9.4595 15.337,11.2978 A1.5102,1.5102 0 0 1 12.663,12.7022 T11.702,10.9154 9.9218,7.2297 8.6419,3.7242 7.8715,1.5913 7.5618,1.0647 A1.5839,1.5839 0 0 1 10.3691,-0.4029 Z" stroke-linecap="round" fill="#f76707"/></g></g><g transform="matrix(1, 0, 0, 1, 216, 552)" opacity="1"><g transform="scale(1)"><path d="M1.1988,-0.7992 T2.159,0.6111 3.9881,4.4879 5.1441,8.3242 5.4313,9.6938 A1.4637,1.4637 0 0 1 2.5687,10.3062 T2.2704,8.9389 1.3185,5.6131 -0.267,2.2269 -1.1988,0.7992 A1.4408,1.4408 0 0 1 1.1988,-0.7992 Z" stroke-linecap="round" fill="#f76707"/></g></g><g transform="matrix(1, 0, 0, 1, 228, 551)" opacity="1"><g transform="scale(1)"><path d="M1.795,0 T1.7933,0.946 1.5459,4.2565 1.1354,9.1398 0.9399,13.1587 0.8884,17.2978 1.0607,22.0449 2.8818,25.295 4.5098,26.437 A1.644,1.644 0 0 1 3.4902,29.563 T1.6822,28.9444 -1.2108,26.6227 -2.5604,22.4153 -2.7899,17.2432 -2.7164,13.0389 -2.462,8.7189 -2.0189,3.9136 -1.7933,0.946 -1.795,0 A1.795,1.795 0 0 1 1.795,0 Z" stroke-linecap="round" fill="#f76707"/></g></g><g transform="matrix(1, 0, 0, 1, 241, 563)" opacity="1"><g transform="scale(1)"><path d="M-1.526,-0.763 T-1.2921,-1.2373 -1.0582,-1.7116 A1.7119,1.7119 0 0 1 2.0042,-0.1804 T1.7651,0.2913 1.526,0.763 A1.7061,1.7061 0 0 1 -1.526,-0.763 ZM0.2788,0.7549 T0.1668,0.7431 0.0549,0.7313 A1.7139,1.7139 0 0 1 0.4437,-2.6744 T0.5554,-2.6606 0.6672,-2.6469 A1.7119,1.7119 0 0 1 0.2788,0.7549 ZM1.697,-0.0542 T1.4086,0.4138 0.6629,2.5387 -0.307,6.1607 -1.4746,9.5588 -2.7819,12.3571 -3.4343,13.7224 A1.7243,1.7243 0 0 1 -6.5657,12.2776 T-5.4674,9.8622 -3.8267,5.4499 -2.5439,1.2466 -1.501,-1.4244 -1.1985,-1.8889 A1.7139,1.7139 0 0 1 1.697,-0.0542 Z" stroke-linecap="round" fill="#f76707"/></g></g><g transform="matrix(1, 0, 0, 1, 236, 560)" opacity="1"><g transform="scale(1)"><path d="M0.9502,-1.6628 T2.6064,-0.7178 6.1967,1.7498 9.197,5.33 10.878,9.0148 12.1557,12.4804 12.8186,14.3189 A1.942,1.942 0 0 1 9.1814,15.6811 T8.389,13.6336 7.0273,10.1037 5.8613,7.2842 3.812,4.752 0.7046,2.6098 -0.9502,1.6628 A1.9152,1.9152 0 0 1 0.9502,-1.6628 Z" stroke-linecap="round" fill="#f76707"/></g></g><g transform="matrix(1, 0, 0, 1, 241, 547)" opacity="1"><g transform="scale(1)"><path d="M0.3072,-1.8433 T1.7301,-1.5649 4.6273,-0.5842 7.2508,1.3446 9.2469,4.2404 10.7425,7.439 11.9992,10.7598 12.954,14.5506 13.4802,18.3014 13.7695,22.9059 13.8473,28.3627 13.8153,30.9665 A1.8156,1.8156 0 0 1 10.1847,31.0335 T10.0572,28.4554 9.7912,23.1481 9.5235,18.7918 9.1555,15.446 8.4135,12.0535 6.7946,7.6215 4.101,3.5478 1.1079,2.0379 -0.3072,1.8433 A1.8687,1.8687 0 0 1 0.3072,-1.8433 Z" stroke-linecap="round" fill="#f76707"/></g></g><g transform="matrix(1, 0, 0, 1, 126, 546)" opacity="1"><g transform="scale(1)"><path d="M-1.7923,-0.2987 T-1.5572,-1.7115 -1.7284,-5.7366 -2.5232,-9.7819 -3.1473,-12.8158 -3.5066,-15.9726 -3.6968,-19.0587 -3.8026,-22.105 -3.8788,-26.0399 -3.5711,-30.6874 -3.1341,-34.844 -3.223,-36.9039 -3.4043,-37.0357 A2.0253,2.0253 0 0 1 -0.9979,-40.294 T-0.175,-39.3733 0.7807,-36.9506 0.7975,-33.9522 0.3172,-30.4613 -0.0351,-26.0825 -0.0021,-22.2159 0.0675,-19.2675 0.3879,-14.977 1.0556,-10.6096 1.7581,-7.48 2.1665,-4.2226 2.0302,-1.1265 1.7923,0.2987 A1.8171,1.8171 0 0 1 -1.7923,-0.2987 ZM-0.8398,-37.1653 T-1.341,-36.7069 -2.9312,-33.9892 -5.0024,-29.5657 -6.7528,-26.0622 -9.4056,-22.9488 -11.2902,-21.1749 A2.1293,2.1293 0 0 1 -13.3835,-24.8835 T-12.2979,-25.8803 -10.0204,-29.0683 -7.806,-33.5356 -5.7218,-37.4933 -4.1113,-39.6696 -3.5624,-40.1644 A2.0253,2.0253 0 0 1 -0.8398,-37.1653 ZM-14.4016,-23.5495 T-14.014,-25.003 -13.2278,-27.8746 -12.3547,-30.7899 -11.0943,-33.9001 -8.7932,-38.0199 -5.9689,-42.1091 -2.8466,-44.2098 0.2951,-43.1632 2.497,-38.9182 4.1529,-33.796 5.1963,-29.8401 6.147,-25.3937 6.8366,-22.4609 A1.8936,1.8936 0 0 1 3.1634,-21.5391 T2.7445,-23.1133 1.9295,-26.176 0.8968,-30.1246 -0.2737,-35.1434 -1.3695,-39.4982 -3.0942,-39.8548 -5.5432,-36.1399 -7.4517,-32.5058 -8.4764,-29.6974 -9.2467,-26.7674 -9.9434,-23.8979 -10.2721,-22.5089 A2.1293,2.1293 0 0 1 -14.4016,-23.5495 Z" stroke-linecap="round" fill="#40c057"/></g></g><g transform="matrix(1, 0, 0, 1, 106, 584)" opacity="1"><g transform="scale(1)"><path d="M0.5548,-2.2191 T1.5241,-1.9512 4.0769,-0.2472 6.7409,3.0511 8.7747,6.5096 10.5672,8.7325 11.4064,9.3589 A2.2691,2.2691 0 0 1 12.7665,13.6885 T10.2147,13.1184 6.2935,10.7316 3.961,7.1145 2.1443,3.9717 0.3679,2.4242 -0.5548,2.2191 A2.2874,2.2874 0 0 1 0.5548,-2.2191 ZM9.8899,10.9542 T10.1059,10.1208 10.862,6.9554 11.5272,3.0745 11.7449,-0.2499 11.9887,-4.8934 12.2182,-9.389 12.2966,-11.0166 A1.7034,1.7034 0 0 1 15.7034,-10.9834 T15.75,-9.3546 15.8497,-6.2547 15.9183,-3.3465 15.924,-0.0654 15.8446,3.5075 15.2451,7.8315 14.499,11.2599 14.2829,12.0932 A2.2691,2.2691 0 0 1 9.8899,10.9542 Z" stroke-linecap="round" fill="#40c057"/></g></g><g transform="matrix(1, 0, 0, 1, 130, 567)" opacity="1"><g transform="scale(1)"><path d="M1.6249,-0.2708 T1.8608,1.1541 2.0009,4.2293 1.8556,7.5599 1.5364,10.9614 1.139,14.407 0.9414,17.756 1.3736,21.9137 2.4514,25.8964 3.6411,28.2015 4.2548,29.0569 A1.5697,1.5697 0 0 1 1.7452,30.9431 T1.0941,30.1158 -0.4748,27.2596 -1.7555,23.7394 -2.3295,20.7437 -2.4616,17.5521 -2.2285,13.9972 -1.8088,10.6254 -1.3469,6.1091 -1.3878,1.6839 -1.6249,0.2708 A1.6473,1.6473 0 0 1 1.6249,-0.2708 Z" stroke-linecap="round" fill="#40c057"/></g></g><g transform="matrix(1, 0, 0, 1, 146, 575)" opacity="1"><g transform="scale(1)"><path d="M1.355,0.3388 T1.1377,1.2896 0.1459,4.6571 -1.5643,9.5601 -4.2017,13.994 -5.9034,15.9416 A1.4454,1.4454 0 0 1 -8.0966,14.0584 T-6.7294,12.432 -4.4158,8.3934 -2.6678,3.7623 -1.6107,0.6024 -1.355,-0.3388 A1.3967,1.3967 0 0 1 1.355,0.3388 Z" stroke-linecap="round" fill="#40c057"/></g></g><g transform="matrix(1, 0, 0, 1, 138, 578)" opacity="1"><g transform="scale(1)"><path d="M0.7787,-1.2459 T2.6734,-0.0674 6.0965,2.2305 8.9328,4.4142 11.0346,6.6811 12.55,9.0346 13.2716,10.1856 A1.51,1.51 0 0 1 10.7284,11.8144 T9.4635,9.8267 7.011,6.8019 4.4117,4.6919 1.1106,2.4324 -0.7787,1.2459 A1.4692,1.4692 0 0 1 0.7787,-1.2459 Z" stroke-linecap="round" fill="#40c057"/></g></g><g transform="matrix(1, 0, 0, 1, 145, 562)" opacity="1"><g transform="scale(1)"><path d="M0.9848,-1.4771 T2.3928,-0.5092 5.3799,2.0118 8.2603,5.0872 10.8032,8.6779 12.9791,13.0773 14.4206,17.6529 15.407,21.6714 16.1436,25.2228 16.2587,28.7921 15.9581,32.3523 15.7996,34.1209 A1.8036,1.8036 0 0 1 12.2004,33.8791 T12.3512,30.7176 12.2669,25.9932 11.5769,22.5583 10.7538,18.7051 9.659,14.6266 7.9201,10.6826 5.727,7.4166 3.2107,4.6613 0.4452,2.4012 -0.9848,1.4771 A1.7753,1.7753 0 0 1 0.9848,-1.4771 Z" stroke-linecap="round" fill="#40c057"/></g></g><g transform="matrix(1, 0, 0, 1, 215, 709)" opacity="1"><g transform="scale(1)"><path d="M1.6896,-1.1264 T2.1995,-0.4415 2.7094,0.2434 A2.1193,2.1193 0 0 1 -0.8174,2.5946 T-1.2535,1.8605 -1.6896,1.1264 A2.0307,2.0307 0 0 1 1.6896,-1.1264 ZM2.7646,2.5072 T2.3029,3.3045 1.8412,4.1017 A2.1457,2.1457 0 0 1 -1.8412,1.8983 T-1.3569,1.1145 -0.8726,0.3308 A2.1193,2.1193 0 0 1 2.7646,2.5072 Z" stroke-linecap="round" fill="#e599f7"/></g></g><g transform="matrix(1, 0, 0, 1, 237, 688)" opacity="1"><g transform="scale(1)"><path d="M2.4206,0 T2.4148,1.6575 2.1664,5.0738 1.8225,8.519 1.6785,12.0483 1.3708,15.7478 0.9924,19.3487 0.5652,22.9105 -0.0039,26.2089 -0.5398,29.4571 -0.8204,31.2245 A2.1912,2.1912 0 0 1 -5.1796,30.7755 T-5.0941,28.988 -4.9352,25.4908 -4.5521,22.2369 -4.0699,18.7509 -3.6203,15.2609 -3.2544,11.7881 -2.7873,6.5851 -2.4148,1.6535 -2.4206,0 A2.4206,2.4206 0 0 1 2.4206,0 Z" stroke-linecap="round" fill="#e599f7"/></g></g><g transform="matrix(1, 0, 0, 1, 235, 686)" opacity="1"><g transform="scale(1)"><path d="M0.9992,2.498 T-0.1816,2.9753 -2.7247,3.9618 -6.1733,6.0979 -9.3871,8.7395 -11.9249,10.8378 -14.8193,13.0586 -16.3034,14.1957 A2.7748,2.7748 0 0 1 -19.6966,9.8043 T-18.2218,8.6551 -15.5017,6.5375 -13.0372,4.4851 -10.3261,2.2199 -6.1009,-0.261 -2.1834,-2.0293 -0.9992,-2.498 A2.6904,2.6904 0 0 1 0.9992,2.498 Z" stroke-linecap="round" fill="#e599f7"/></g></g><g transform="matrix(1, 0, 0, 1, 272, 708)" opacity="1"><g transform="scale(1)"><path d="M0,2.1176 T-1.4168,2.1093 -5.0753,2.8322 -9.2885,5.1062 -12.1797,8.1673 -12.6752,11.217 -10.7755,13.0671 -6.5151,12.3912 -2.0136,10.4031 0.9787,8.2672 3.3447,5.6717 5.2463,2.7905 6.703,-0.2586 7.6702,-3.7718 7.9472,-7.5148 7.6656,-11.5334 7.0853,-15.5242 6.3415,-18.9942 4.8594,-22.2577 3.257,-24.0516 2.7363,-24.2292 A2.0019,2.0019 0 0 1 4.5692,-27.7888 T6.4453,-26.1663 9.1544,-23.1333 10.4524,-19.9432 11.3186,-16.1767 11.9983,-11.8213 12.3126,-7.1828 11.9252,-2.5766 10.7343,1.6752 8.9934,5.2827 6.6224,8.75 3.5737,11.9182 -0.1185,14.4364 -4.0734,16.2572 -7.9579,17.3137 -12.5605,16.772 -16.2246,14.5976 -17.4255,11.8528 -16.7266,7.963 -14.9222,4.4694 -12.8424,2.4528 -10.426,0.643 -7.6323,-0.9088 -4.4774,-1.8458 -1.4212,-2.1093 0,-2.1176 A2.1176,2.1176 0 0 1 0,2.1176 ZM5.5566,-25.3904 T5.3952,-24.9253 5.1473,-22.1936 5.2819,-18.4326 5.8802,-14.9305 6.9362,-10.7861 8.2568,-6.2413 9.7074,-1.2222 11.4057,3.6466 13.0096,7.5739 14.3121,10.5831 16.1596,12.359 17.4191,12.7953 A2.2442,2.2442 0 0 1 16.5809,17.2047 T15.7186,17.0883 12.6262,15.4585 9.7708,12.5328 8.4551,9.3634 6.8858,5.1565 5.2557,-0.0242 3.9805,-5.0991 2.8215,-9.8352 1.8649,-14.3263 1.3837,-19.6121 1.3389,-24.2282 1.6015,-26.1425 1.7488,-26.6276 A2.0019,2.0019 0 0 1 5.5566,-25.3904 Z" stroke-linecap="round" fill="#f2f2f2"/></g></g><g transform="matrix(1, 0, 0, 1, 309, 698)" opacity="1"><g transform="scale(1)"><path d="M1.9563,1.3974 T0.7818,3.0585 -1.7241,6.5571 -4.169,10.223 -6.3578,13.9526 -8.8863,17.6562 -11.84,21.3434 -13.3404,23.228 A2.0645,2.0645 0 0 1 -16.6596,20.772 T-15.2961,18.7862 -12.8157,15.129 -10.589,11.4597 -8.2423,7.4814 -5.6712,3.7018 -3.1468,0.2525 -1.9563,-1.3974 A2.4041,2.4041 0 0 1 1.9563,1.3974 Z" stroke-linecap="round" fill="#f2f2f2"/></g></g><g transform="matrix(1, 0, 0, 1, 296, 695)" opacity="1"><g transform="scale(1)"><path d="M1.6897,-1.1265 T3.1038,1.0049 5.9525,4.8775 8.6873,8.2945 11.1893,11.8608 13.6433,15.3085 16.3831,18.3863 19.0092,21.3262 21.3402,24.2318 22.5329,25.7178 A1.9985,1.9985 0 0 1 19.4671,28.2822 T18.2152,26.8456 15.9075,24.2054 13.0738,21.3396 9.9409,17.8887 7.534,14.3333 5.3,10.8934 2.6381,7.2989 -0.2658,3.2521 -1.6897,1.1265 A2.0308,2.0308 0 0 1 1.6897,-1.1265 Z" stroke-linecap="round" fill="#f2f2f2"/></g></g><g transform="matrix(1, 0, 0, 1, 138, 794)" opacity="1"><g transform="scale(1)"><path d="M1.9988,-0.46 T2.3253,1.1171 2.6518,2.6943 A1.9799,1.9799 0 0 1 -1.2072,3.5824 T-1.603,2.0212 -1.9988,0.46 A2.0511,2.0511 0 0 1 1.9988,-0.46 ZM-0.1606,1.3662 T-0.0948,1.3336 -0.029,1.3011 A1.9795,1.9795 0 0 1 1.7363,4.8447 T1.6707,4.8776 1.6051,4.9106 A1.9799,1.9799 0 0 1 -0.1606,1.3662 ZM-1.0822,3.4861 T-1.2318,2.7507 -1.6186,0.0725 -2.2712,-3.709 -3.0345,-7.6821 -3.547,-11.2877 -3.8363,-15.3571 -4.3514,-20.1328 -4.8605,-24.2262 -5.3614,-28.1764 -5.8794,-31.4432 -6.0149,-32.6761 A2.1003,2.1003 0 0 1 -1.824,-32.9619 T-1.75,-32.0208 -1.2836,-29.5882 -0.8365,-26.4497 -0.599,-22.8098 -0.0986,-18.1509 0.4151,-13.0976 0.9643,-8.4207 1.7215,-4.1453 2.24,-0.7355 2.5718,1.6742 2.7895,2.6598 A1.9795,1.9795 0 0 1 -1.0822,3.4861 ZM-4.2665,-30.7476 T-4.5227,-30.7863 -4.7789,-30.8251 A2.1085,2.1085 0 0 1 -4.0822,-34.9841 T-3.8273,-34.9373 -3.5724,-34.8904 A2.1003,2.1003 0 0 1 -4.2665,-30.7476 ZM-2.7721,-31.6026 T-3.2431,-30.9857 -4.9171,-28.8768 -7.1052,-25.803 -9.0753,-22.6966 -10.9203,-19.8191 -11.7802,-18.4662 A2.2816,2.2816 0 0 1 -15.3396,-21.3214 T-14.5303,-22.5805 -12.7187,-25.3338 -10.7467,-28.3136 -8.3463,-31.4934 -6.5023,-33.6971 -6.089,-34.2066 A2.1085,2.1085 0 0 1 -2.7721,-31.6026 ZM-14.0953,-17.6759 T-14.1994,-17.7009 -14.3035,-17.7259 A2.2818,2.2818 0 0 1 -13.2327,-22.1621 T-13.1286,-22.1369 -13.0246,-22.1116 A2.2816,2.2816 0 0 1 -14.0953,-17.6759 ZM-15.9832,-20.4916 T-15.716,-21.3957 -14.6139,-23.6515 -12.9026,-26.544 -11.0568,-30.1073 -9.3081,-33.9657 -6.8696,-37.6143 -5.2102,-39.4272 A1.9778,1.9778 0 0 1 -2.8627,-36.2435 T-3.4947,-35.8562 -4.6637,-34.0736 -6.1682,-30.2857 -8.106,-26.0071 -10.2764,-22.0905 -11.5147,-19.728 -11.5529,-19.3964 A2.2818,2.2818 0 0 1 -15.9832,-20.4916 ZM-2.4834,-39.0599 T-1.8015,-38.1797 -0.4566,-34.8048 1.436,-29.644 3.7181,-24.6869 5.2725,-21.0225 6.3112,-18.1885 6.8481,-16.7278 A1.9862,1.9862 0 0 1 3.1519,-15.2722 T2.0272,-17.9319 -0.1733,-22.9907 -1.787,-26.7688 -3.0189,-29.6902 -4.1115,-33.2525 -5.0499,-35.9416 -5.5896,-36.6108 A1.9778,1.9778 0 0 1 -2.4834,-39.0599 Z" stroke-linecap="round" fill="#40c057"/></g></g><g transform="matrix(1, 0, 0, 1, 125, 824)" opacity="1"><g transform="scale(1)"><path d="M1.7373,-1.0858 T2.8925,0.8255 4.726,4.3505 6.3024,8.4766 7.8034,12.8603 8.7802,15.6162 9.1542,16.5009 A1.9499,1.9499 0 0 1 5.5352,17.9537 T5.1026,16.829 4.0712,13.8383 2.6455,9.7283 1.2504,6.1577 -0.5275,2.9585 -1.7373,1.0858 A2.0487,2.0487 0 0 1 1.7373,-1.0858 ZM6.7057,15.3852 T6.8592,15.3272 7.0127,15.2693 A1.9587,1.9587 0 0 1 8.2966,18.9703 T8.1402,19.0199 7.9837,19.0695 A1.9499,1.9499 0 0 1 6.7057,15.3852 ZM5.7214,16.8048 T5.7879,16.3016 6.1216,13.8831 6.5306,9.8302 6.7262,5.1582 7.446,0.1008 8.112,-2.4224 A1.9347,1.9347 0 0 1 11.888,-1.5776 T11.5095,0.5685 11.0689,5.327 10.7314,10.4325 10.1188,14.6808 9.6848,16.9353 9.5879,17.4347 A1.9587,1.9587 0 0 1 5.7214,16.8048 Z" stroke-linecap="round" fill="#40c057"/></g></g><g transform="matrix(1, 0, 0, 1, 146, 813)" opacity="1"><g transform="scale(1)"><path d="M1.6973,-1.1316 T2.1941,-0.3322 2.8568,2.9399 2.8001,8.5247 2.4729,13.3724 2.3128,16.7416 2.2237,20.1766 2.1695,23.405 2.2384,26.5583 3.259,28.8822 4.1901,29.4799 A1.9306,1.9306 0 0 1 1.8099,32.5201 T0.2252,31.1481 -1.7138,27.2775 -2.0527,23.3386 -2.0019,20.0541 -1.892,16.516 -1.6745,12.9361 -1.2923,8.2432 -0.9258,3.9036 -1.2481,1.7512 -1.6973,1.1316 A2.0399,2.0399 0 0 1 1.6973,-1.1316 Z" stroke-linecap="round" fill="#40c057"/></g></g><g transform="matrix(1, 0, 0, 1, 161, 821)" opacity="1"><g transform="scale(1)"><path d="M1.5727,0.4459 T1.3301,1.3659 0.6267,4.0374 -0.6049,8.4053 -1.9708,13.1252 -2.9829,16.3837 -3.3998,17.5386 A1.6884,1.6884 0 0 1 -6.6002,16.4614 T-6.2339,15.2894 -5.3235,11.9647 -4.0485,7.5051 -2.6756,3.1245 -1.8031,0.3023 -1.5727,-0.4459 A1.6347,1.6347 0 0 1 1.5727,0.4459 Z" stroke-linecap="round" fill="#40c057"/></g></g><g transform="matrix(1, 0, 0, 1, 154, 822)" opacity="1"><g transform="scale(1)"><path d="M1.0165,-1.5247 T2.4305,-0.5657 4.9676,1.4654 7.6424,4.6489 10.1533,8.2496 11.907,11.4537 12.7015,13.1686 A1.8938,1.8938 0 0 1 9.2985,14.8314 T8.233,12.6512 6.0023,8.705 3.3343,5.1648 0.4075,2.4577 -1.0165,1.5247 A1.8325,1.8325 0 0 1 1.0165,-1.5247 Z" stroke-linecap="round" fill="#40c057"/></g></g><g transform="matrix(1, 0, 0, 1, 162, 808)" opacity="1"><g transform="scale(1)"><path d="M1.4814,-1.4814 T3.1161,0.1986 5.9862,3.5931 7.9446,7.0615 9.2606,10.6279 10.4344,14.5998 11.3512,18.9328 11.8705,23.2058 12.1562,27.1176 12.2932,30.3797 11.7746,33.6401 10.6714,37.0551 10.1216,38.6596 A2.2217,2.2217 0 0 1 5.8784,37.3404 T6.3352,35.7071 7.0961,31.6065 7.3491,27.3924 7.1909,23.6843 6.8677,19.7809 6.1859,15.7791 4.7781,10.6807 2.8537,6.1928 0.1949,3.1124 -1.4814,1.4814 A2.095,2.095 0 0 1 1.4814,-1.4814 Z" stroke-linecap="round" fill="#40c057"/></g></g><g transform="matrix(1, 0, 0, 1, 237, 785)" opacity="1"><g transform="scale(1)"><path d="M-1.5299,-1.0199 T-1.0723,-1.6478 -1.6255,-4.315 -3.4152,-8.3969 -4.7827,-12.7152 -5.9109,-17.4225 -6.5665,-21.3106 -6.9955,-24.924 -7.5596,-29.0654 -7.8825,-32.7094 -7.9542,-34.3689 A2.0002,2.0002 0 0 1 -3.9555,-34.4836 T-3.9396,-33.7916 -3.8324,-31.499 -3.3574,-27.6464 -2.8651,-22.8772 -2.2646,-17.9604 -1.2486,-13.4448 -0.0971,-9.6636 1.3835,-6.368 2.3717,-2.6499 2.0183,0.2288 1.5299,1.0199 A1.8387,1.8387 0 0 1 -1.5299,-1.0199 ZM-6.9174,-32.6729 T-7.1658,-32.8064 -7.4142,-32.9399 A2.0051,2.0051 0 0 1 -5.4843,-36.4553 T-5.2383,-36.3175 -4.9923,-36.1796 A2.0002,2.0002 0 0 1 -6.9174,-32.6729 ZM-4.9524,-33.3634 T-5.3878,-32.8727 -6.6408,-30.3862 -8.3298,-27.0219 -10.2581,-24.2884 -12.7111,-21.2353 -14.107,-19.5473 A2.1079,2.1079 0 0 1 -17.016,-22.5985 T-16.2419,-23.6009 -14.127,-26.1848 -11.698,-29.4203 -9.7133,-33.0669 -8.3814,-35.5457 -7.946,-36.0319 A2.0051,2.0051 0 0 1 -4.9524,-33.3634 ZM-17.6647,-21.2135 T-17.5445,-22.5706 -16.5969,-25.8526 -14.5237,-30.0316 -12.1031,-34.4067 -9.1971,-38.122 -7.466,-39.7162 A1.8881,1.8881 0 0 1 -5.7468,-36.354 T-6.6546,-35.5521 -8.7287,-32.5262 -10.98,-28.2115 -12.7256,-24.5074 -13.4222,-21.9131 -13.4584,-20.9323 A2.1079,2.1079 0 0 1 -17.6647,-21.2135 ZM-4.7969,-38.5742 T-4.6499,-38.0908 -4.1409,-36.0542 -2.9404,-32.4265 -0.9522,-28.1155 0.862,-24.4087 2.265,-21.5678 3.6642,-18.6353 5.4574,-14.4081 6.5901,-11.7427 A1.755,1.755 0 0 1 3.4099,-10.2573 T2.0792,-12.8663 0.0956,-16.8523 -1.4134,-19.7426 -2.8363,-22.5653 -4.6263,-26.4276 -6.6511,-31.147 -7.7944,-34.9256 -8.276,-37.0167 -8.4159,-37.4959 A1.8881,1.8881 0 0 1 -4.7969,-38.5742 Z" stroke-linecap="round" fill="#f76707"/></g></g><g transform="matrix(1, 0, 0, 1, 231, 818)" opacity="1"><g transform="scale(1)"><path d="M2.0755,-0.6271 T2.4599,0.6991 2.9645,3.938 3.4677,7.4017 4.7989,10.6333 6.8089,11.245 8.9027,8.5854 10.5673,5.206 10.9732,1.9063 10.7465,0.3953 A1.9964,1.9964 0 0 1 14.4663,-1.0559 T14.9974,1.0308 14.9475,4.9355 13.4023,8.9521 10.8409,13.0772 6.644,15.608 2.6232,14.8863 0.3764,11.6502 -0.844,7.8882 -1.3193,4.3961 -1.7376,1.6914 -2.0755,0.6271 A2.1682,2.1682 0 0 1 2.0755,-0.6271 ZM13.5614,1.4228 T13.4166,1.4984 13.2719,1.5741 A1.9907,1.9907 0 0 1 11.3673,-1.9222 T11.5093,-2.0028 11.6514,-2.0835 A1.9964,1.9964 0 0 1 13.5614,1.4228 ZM14.294,0.0799 T14.1729,0.913 14.0141,3.3811 14.3238,6.8025 15.1087,10.2451 15.9992,13.0446 16.452,14.188 A1.9058,1.9058 0 0 1 12.7965,15.2677 T12.2721,14 11.2674,10.9088 10.43,7.0419 10.0993,3.2461 10.2355,0.5328 10.3451,-0.4281 A1.9907,1.9907 0 0 1 14.294,0.0799 ZM14.8412,12.8344 T15.4005,12.9206 16.5833,13.1013 17.2067,13.1958 A1.816,1.816 0 0 1 16.7933,16.8042 T16.1647,16.7553 14.9717,16.6638 14.4073,16.6212 A1.9058,1.9058 0 0 1 14.8412,12.8344 Z" stroke-linecap="round" fill="#f76707"/></g></g><g transform="matrix(1, 0, 0, 1, 247, 798)" opacity="1"><g transform="scale(1)"><path d="M1.3261,-0.5741 T1.7407,0.3979 2.2892,3.3307 2.439,6.128 2.4548,6.9647 A1.4553,1.4553 0 0 1 -0.4548,7.0353 T-0.4797,6.199 -0.6076,3.6646 -1.0184,1.2704 -1.3261,0.5741 A1.4451,1.4451 0 0 1 1.3261,-0.5741 Z" stroke-linecap="round" fill="#f76707"/></g></g><g transform="matrix(1, 0, 0, 1, 260, 795)" opacity="1"><g transform="scale(1)"><path d="M1.6041,0.2005 T1.3661,2.0926 0.7614,5.7591 -0.0305,9.3947 -0.6603,12.8633 -1.2241,16.1375 -1.7478,19.4984 -1.9963,22.8041 -1.5862,26.6587 -0.2537,31.3324 1.5528,35.019 3.3104,37.0585 4.0999,37.8421 A1.597,1.597 0 0 1 1.9001,40.1579 T0.1863,38.5468 -2.5417,34.7376 -4.3321,29.8909 -5.2942,25.7338 -5.367,22.5341 -5.0441,18.9632 -4.4835,15.5582 -3.8873,12.2765 -3.2136,8.6904 -2.4297,5.222 -1.8391,1.6914 -1.6041,-0.2005 A1.6166,1.6166 0 0 1 1.6041,0.2005 Z" stroke-linecap="round" fill="#f76707"/></g></g><g transform="matrix(1, 0, 0, 1, 278, 805)" opacity="1"><g transform="scale(1)"><path d="M1.7002,-0.6801 T2.1799,0.5241 2.7381,3.3865 2.3154,6.7424 1.3392,9.8975 0.378,12.8369 -0.9203,15.746 -2.6797,18.3788 -4.608,20.8274 -5.5889,22.0702 A1.771,1.771 0 0 1 -8.4111,19.9298 T-7.479,18.65 -5.126,15.2377 -3.2101,11.6362 -2.2256,8.7175 -1.2518,5.1347 -1.2339,1.8409 -1.7002,0.6801 A1.8312,1.8312 0 0 1 1.7002,-0.6801 Z" stroke-linecap="round" fill="#f76707"/></g></g><g transform="matrix(1, 0, 0, 1, 271, 809)" opacity="1"><g transform="scale(1)"><path d="M1.3562,-1.3562 T2.298,-0.4043 4.5937,2.8203 6.6946,7.5958 7.8562,12.2073 8.5896,16.5001 8.9086,18.6842 A1.9345,1.9345 0 0 1 5.0914,19.3158 T4.7397,17.4463 3.9556,13.2423 2.9247,8.7125 1.4351,4.8768 -0.406,2.2963 -1.3562,1.3562 A1.918,1.918 0 0 1 1.3562,-1.3562 Z" stroke-linecap="round" fill="#f76707"/></g></g><g transform="matrix(1, 0, 0, 1, 282, 795)" opacity="1"><g transform="scale(1)"><path d="M1.0784,-1.5098 T2.7326,-0.297 5.7163,2.6881 7.7765,6.4567 9.1171,10.6248 9.8625,15.5534 10.063,20.606 9.6839,25.2941 8.7655,29.5856 7.4909,33.1645 5.665,36.0542 3.6693,38.3607 2.6992,39.457 A2.2383,2.2383 0 0 1 -0.6992,36.543 T0.2363,35.417 2.5063,32.299 4.3233,28.5228 5.2796,24.834 5.7653,20.6617 5.8118,16.0817 5.3673,11.7074 4.4502,8.0959 3.1236,5.1803 0.5784,2.662 -1.0784,1.5098 A1.8553,1.8553 0 0 1 1.0784,-1.5098 Z" stroke-linecap="round" fill="#f76707"/></g></g><g transform="matrix(1, 0, 0, 1, 219, 1052)" opacity="1"><g transform="scale(1)"><path d="M-1.4965,0 T-1.4875,-1.6536 -2.0411,-5.6214 -3.4904,-10.6653 -4.861,-14.8437 -6.0394,-17.6701 -7.3811,-20.5743 -8.6237,-23.8836 -9.763,-27.2814 -10.8469,-30.721 -11.9052,-34.187 -12.729,-37.5115 -13.4104,-40.6776 -14.4617,-44.3545 -15.3468,-47.9963 -15.8077,-50.1196 -16.0587,-50.7952 A1.7145,1.7145 0 0 1 -12.8084,-51.8879 T-12.4285,-50.2849 -11.7379,-47.1784 -10.9783,-44.3168 -10.1495,-41.3537 -9.5385,-38.265 -8.8072,-35.1062 -7.8123,-31.6551 -6.7953,-28.2521 -5.7431,-24.9483 -4.6223,-21.8242 -3.2745,-18.8032 -2.0419,-15.7718 -1.1064,-12.8969 0.1653,-8.8691 1.2278,-4.7865 1.4875,-1.6574 1.4965,0 A1.4965,1.4965 0 0 1 -1.4965,0 ZM-13.9717,-49.6904 T-14.4129,-49.5674 -14.8541,-49.4444 A1.7138,1.7138 0 0 1 -15.7773,-52.7453 T-15.3363,-52.869 -14.8953,-52.9928 A1.7145,1.7145 0 0 1 -13.9717,-49.6904 ZM-13.6866,-50.5627 T-13.852,-50.0608 -14.7642,-48.0311 -16.4491,-44.4853 -18.3401,-40.2877 -20.3493,-36.0306 -22.4856,-32.5771 -23.5656,-31.2012 A1.7299,1.7299 0 0 1 -26.2086,-33.4338 T-25.2918,-34.5867 -23.443,-37.5662 -21.5058,-41.6736 -19.5899,-45.8909 -17.9703,-49.2382 -17.1031,-51.1381 -16.9448,-51.627 A1.7138,1.7138 0 0 1 -13.6866,-50.5627 ZM-25.7914,-30.8428 T-26.0544,-31.0047 -26.3173,-31.1665 A1.7288,1.7288 0 0 1 -24.5097,-34.1141 T-24.2462,-33.9532 -23.9827,-33.7922 A1.7299,1.7299 0 0 1 -25.7914,-30.8428 ZM-27.0594,-33.1693 T-26.6706,-34.3743 -25.4358,-37.7439 -24.1301,-41.4367 -22.8977,-44.6192 -21.4972,-47.5628 -20.3243,-50.1905 -18.6311,-53.4081 -15.6716,-56.1971 -11.1471,-55.4149 -7.0535,-52.1286 -4.4359,-48.6975 -1.9188,-45.2878 0.5554,-42.1076 2.4444,-38.7681 3.8044,-35.313 4.4695,-33.5901 A1.5836,1.5836 0 0 1 1.5305,-32.4099 T0.8193,-34.1144 -0.4321,-37.1631 -2.1223,-40.0446 -4.6445,-43.2837 -7.1207,-46.6696 -9.4903,-49.8507 -12.7884,-52.3671 -15.7713,-51.8379 -17.9032,-47.5715 -19.7521,-43.4239 -20.8979,-40.3623 -22.189,-36.6171 -23.3847,-33.3075 -23.7676,-32.1114 A1.7288,1.7288 0 0 1 -27.0594,-33.1693 Z" stroke-linecap="round" fill="#40c057"/></g></g><g transform="matrix(1, 0, 0, 1, 203, 1085)" opacity="1"><g transform="scale(1)"><path d="M1.2599,-1.2599 T1.737,-0.7716 3.3761,2.1726 5.2314,5.888 6.7705,8.5273 8.4953,11.048 10.3615,13.5576 12.4524,16.1414 13.6905,17.2171 13.825,17.0776 A1.8637,1.8637 0 0 1 13.6461,20.8008 T12.6456,20.6069 10.0071,18.7275 7.4346,15.7042 5.5276,13.0635 3.6829,10.2992 2.0388,7.3976 0.4724,4.0664 -0.791,1.7176 -1.2599,1.2599 A1.7818,1.7818 0 0 1 1.2599,-1.2599 ZM12.0235,18.2027 T12.3164,17.5138 13.0233,14.4032 13.6845,9.1108 13.9898,4.7647 14.1482,0.9042 14.3015,-2.7497 14.3544,-4.0188 A1.6457,1.6457 0 0 1 17.6456,-3.9812 T17.6696,-2.7113 17.7186,0.9814 17.7082,4.9326 17.5917,8.0146 17.3245,11.1648 16.5982,15.5172 15.7528,18.9744 15.4476,19.6758 A1.8637,1.8637 0 0 1 12.0235,18.2027 Z" stroke-linecap="round" fill="#40c057"/></g></g><g transform="matrix(1, 0, 0, 1, 232, 1067)" opacity="1"><g transform="scale(1)"><path d="M1.5362,0 T1.5341,0.4758 0.9073,3.6819 -0.2228,9.472 -0.8886,14.2936 -1.1352,17.933 -1.2635,21.5119 -1.0997,24.7036 0.0059,28.4091 1.9156,32.0537 4.2762,34.0837 5.6268,34.6841 A1.4575,1.4575 0 0 1 4.3732,37.3159 T2.513,36.3869 -0.5884,33.808 -2.5665,30.8109 -3.674,28.0359 -4.2596,24.8682 -4.4183,21.3929 -4.2609,17.7061 -3.9654,13.8414 -3.4352,10.2844 -2.8863,7.1298 -2.1026,3.2795 -1.5341,0.4702 -1.5362,0 A1.5362,1.5362 0 0 1 1.5362,0 Z" stroke-linecap="round" fill="#40c057"/></g></g><g transform="matrix(1, 0, 0, 1, 251, 1071)" opacity="1"><g transform="scale(1)"><path d="M1.4778,0 T1.4773,1.1845 1.2314,3.8291 0.624,6.9701 -0.4404,10.3567 -1.7104,13.7836 -3.2712,18.4227 -4.995,22.9492 -5.7256,24.5578 A1.3911,1.3911 0 0 1 -8.2744,23.4422 T-7.5883,21.8141 -6.3355,18.8598 -5.4394,16.0531 -4.5055,12.7384 -3.2768,9.4536 -2.0647,5.1821 -1.4773,1.1805 -1.4778,0 A1.4778,1.4778 0 0 1 1.4778,0 Z" stroke-linecap="round" fill="#40c057"/></g></g><g transform="matrix(1, 0, 0, 1, 243, 1078)" opacity="1"><g transform="scale(1)"><path d="M0.3386,-1.3543 T1.2864,-1.1118 3.922,0.3578 6.8019,3.4331 9.6075,7.7746 12.6717,12.192 16.481,16.0351 18.8394,17.954 A1.3412,1.3412 0 0 1 17.1606,20.046 T15.8696,19.0255 13.3574,17.0356 10.5175,13.924 8.026,10.4385 5.8817,7.0193 3.08,3.3793 0.6056,1.5848 -0.3386,1.3543 A1.396,1.396 0 0 1 0.3386,-1.3543 Z" stroke-linecap="round" fill="#40c057"/></g></g><g transform="matrix(1, 0, 0, 1, 252, 1058)" opacity="1"><g transform="scale(1)"><path d="M0.9762,-1.2551 T3.1133,0.3937 6.9682,3.9544 10.1002,8.1098 12.5381,13.0419 14.3282,18.8185 15.513,24.9982 16.1377,30.9021 16.2106,36.4616 15.7316,41.6131 14.9485,45.7991 14.0461,49.4749 13.5813,51.3686 A1.6237,1.6237 0 0 1 10.4187,50.6314 T10.8392,48.7273 11.6168,45.1965 12.2386,41.3008 12.6304,36.5021 12.5606,31.2587 12.0169,25.639 10.9848,19.8252 9.4658,14.5116 7.4195,10.0677 4.7353,6.3045 1.1437,2.9173 -0.9762,1.2551 A1.59,1.59 0 0 1 0.9762,-1.2551 Z" stroke-linecap="round" fill="#40c057"/></g></g><g transform="matrix(1, 0, 0, 1, 111, 1053)" opacity="1"><g transform="scale(1)"><path d="M-1.6572,-1.1048 T-1.1946,-1.7937 -0.7486,-4.2316 -1.2322,-9.2775 -2.0257,-14.4434 -2.5474,-18.3655 -2.8512,-22.4475 -3.0188,-26.252 -3.1362,-30.8921 -3.2113,-36.1223 -2.9705,-40.8404 -2.7475,-44.5616 -2.782,-45.9305 A2.2533,2.2533 0 0 1 1.6824,-46.5465 T1.6729,-44.3718 1.4537,-40.3497 1.2481,-36.1493 1.2686,-30.9697 1.3189,-26.4055 1.4207,-22.7223 1.628,-18.879 2.0762,-14.9426 2.5059,-11.1171 2.9303,-7.8214 3.3138,-4.7397 3.0089,-1.7609 2.1406,0.3747 1.6572,1.1048 A1.9916,1.9916 0 0 1 -1.6572,-1.1048 ZM0.3305,-44.1643 T-0.2423,-43.9438 -1.9456,-41.9099 -4.3539,-38.0959 -6.6917,-34.1195 -8.6818,-31.0071 -9.6118,-29.8708 A2.3304,2.3304 0 0 1 -13.1722,-32.8785 T-11.9754,-34.6357 -9.5236,-38.5277 -7.0807,-42.3049 -4.6091,-45.7052 -2.3778,-47.8879 -1.4301,-48.3128 A2.2533,2.2533 0 0 1 0.3305,-44.1643 ZM-13.6968,-31.7187 T-13.5948,-32.3393 -12.3924,-35.4248 -9.8763,-40.2802 -6.9327,-44.8061 -3.9321,-48.3309 -2.4595,-49.7203 A2.0038,2.0038 0 0 1 -0.1546,-46.4418 T-0.5569,-46.1928 -2.3119,-44.2487 -4.975,-40.4375 -6.8858,-36.9443 -8.2033,-33.9202 -9.0037,-31.6518 -9.0872,-31.0305 A2.3304,2.3304 0 0 1 -13.6968,-31.7187 ZM-0.4568,-49.8955 T0.1177,-49.6173 2.1258,-47.603 4.3563,-44.4458 5.8298,-41.5228 7.0969,-38.5185 8.2141,-35.507 9.2293,-32.4849 10.2651,-29.3015 10.812,-27.6311 A1.9188,1.9188 0 0 1 7.188,-26.3689 T6.579,-28.0177 5.4212,-31.1324 4.3278,-34.0495 3.2387,-36.9227 2.1145,-39.6996 0.2054,-43.4274 -1.6406,-46.0335 -2.1573,-46.2666 A2.0038,2.0038 0 0 1 -0.4568,-49.8955 Z" stroke-linecap="round" fill="#f76707"/></g></g><g transform="matrix(1, 0, 0, 1, 90, 1093)" opacity="1"><g transform="scale(1)"><path d="M2.0498,-0.3416 T2.2681,1.0805 2.8854,4.7434 3.7639,9.0384 4.9985,12.7862 7.0503,13.2122 9.016,10.3075 9.9053,6.876 10.2298,3.0173 10.3341,0.9528 A1.6666,1.6666 0 0 1 13.6659,1.0472 T13.6419,2.404 13.5597,5.5758 13.1176,9.6162 11.9588,13.5569 9.6707,16.8076 6.0174,18.2058 2.6513,16.7791 0.8768,13.898 -0.1513,10.1736 -1.0857,5.607 -1.7951,1.7575 -2.0498,0.3416 A2.078,2.078 0 0 1 2.0498,-0.3416 ZM13.6664,1.0208 T13.6516,1.7994 13.6327,5.0485 14.2021,10.0038 15.4578,14.6424 16.7651,18.0386 17.39,19.2812 A1.5649,1.5649 0 0 1 14.61,20.7188 T13.9572,19.4906 12.4589,15.7855 11.2393,11.8591 10.6153,8.971 10.3431,5.1687 10.3273,1.892 10.3336,0.9792 A1.6666,1.6666 0 0 1 13.6664,1.0208 Z" stroke-linecap="round" fill="#f76707"/></g></g><g transform="matrix(1, 0, 0, 1, 116, 1084)" opacity="1"><g transform="scale(1)"><path d="M1.8253,-0.4563 T2.0584,0.5085 2.2016,2.9769 1.7867,7.3347 1.3496,11.7873 1.1791,15.1839 1.095,18.644 1.0554,21.8899 0.9913,25.5831 0.9079,28.8514 0.8749,30.0103 A1.8749,1.8749 0 0 1 -2.8749,29.9897 T-2.8952,28.8304 -2.9325,25.5466 -2.9221,21.8179 -2.8421,18.5188 -2.6993,14.9448 -2.1774,9.9906 -1.5457,4.613 -1.5854,1.3835 -1.8253,0.4563 A1.8815,1.8815 0 0 1 1.8253,-0.4563 Z" stroke-linecap="round" fill="#f76707"/></g></g><g transform="matrix(1, 0, 0, 1, 129, 1089)" opacity="1"><g transform="scale(1)"><path d="M1.7123,-0.6849 T2.1979,0.5169 2.5337,4.3935 1.5886,9.6116 -0.5414,14.158 -2.6878,17.1681 -3.4997,18.1749 A1.9056,1.9056 0 0 1 -6.5003,15.8251 T-5.7175,14.7955 -3.917,12.2681 -2.1296,8.5097 -1.0757,4.6302 -1.2519,1.8481 -1.7123,0.6849 A1.8443,1.8443 0 0 1 1.7123,-0.6849 Z" stroke-linecap="round" fill="#f76707"/></g></g><g transform="matrix(1, 0, 0, 1, 121, 1091)" opacity="1"><g transform="scale(1)"><path d="M1.1809,-1.4171 T2.5918,-0.2153 5.1303,2.4724 7.7042,5.8878 10.2797,9.4452 12.0042,12.0406 12.5994,13.008 A1.882,1.882 0 0 1 9.4006,14.992 T8.7984,14.0288 7.109,11.4676 4.6885,7.986 2.5143,4.9229 0.2462,2.5803 -1.1809,1.4171 A1.8447,1.8447 0 0 1 1.1809,-1.4171 Z" stroke-linecap="round" fill="#f76707"/></g></g><g transform="matrix(1, 0, 0, 1, 133, 1082)" opacity="1"><g transform="scale(1)"><path d="M1.423,-1.0673 T2.7991,0.8597 5.2467,4.8461 7.1365,8.9461 8.4254,13.1044 9.146,17.5513 9.0381,22.0217 8.217,25.9111 7.2564,29.5505 6.7588,31.4417 A1.8134,1.8134 0 0 1 3.2412,30.5583 T3.6963,28.6564 4.5433,25.0982 5.3022,21.8156 5.4997,18.0622 5.0048,14.0844 3.9872,10.3342 2.398,6.6081 0.0389,2.9243 -1.423,1.0673 A1.7788,1.7788 0 0 1 1.423,-1.0673 Z" stroke-linecap="round" fill="#f76707"/></g></g><g transform="matrix(1, 0, 0, 1, 108.5, 1083)" opacity="1"><g transform="scale(1)"><path d="M1.4257,-0.8554 T2.1534,0.3208 3.7663,3.9669 4.6515,6.4367 A1.7449,1.7449 0 0 1 1.3485,7.5633 T0.6527,5.3981 -0.7344,2.0442 -1.4257,0.8554 A1.6627,1.6627 0 0 1 1.4257,-0.8554 Z" stroke-linecap="round" fill="#f76707"/></g></g></svg>