<svg xmlns="http://www.w3.org/2000/svg" direction="ltr" width="561.1757136901551" height="131.88063763688115" viewBox="2147.6694714326977 30158.503900329022 561.1757136901551 131.88063763688115" stroke-linecap="round" stroke-linejoin="round" data-color-mode="dark" class="tl-container tl-theme__force-sRGB tl-theme__dark" style="background-color: transparent;"><defs/><g transform="matrix(1, 0, 0, 1, 2199.7478, 30201.0211) scale(0.9561125023199899, 0.9561125023199899)" opacity="1"><g transform="scale(1.0459020225899336)"><defs><mask id="shape_rWAoHsY1HhDgTM_XwBwOd_clip"><rect x="-100" y="-100.9561" width="639.8118" height="201" fill="white"/></mask></defs><g fill="none" stroke="#9398b0" stroke-width="3.3463937581199645" stroke-linejoin="round" stroke-linecap="round" pointer-events="none"><g mask="url(#shape_rWAoHsY1HhDgTM_XwBwOd_clip)"><rect x="-100" y="-100.9561" width="639.8118" height="201" opacity="0"/><path d="M0,0L439.811751067195,-0.9561125023210479" stroke-dasharray="none" stroke-dashoffset="none"/></g></g></g></g><g transform="matrix(1, 0, 0, 1, 2239.9046, 30190.5039) scale(0.9561125023199899, 0.9561125023199899)" opacity="1"><g transform="scale(1.0459020225899336)"><path d="M2.4355,0 T2.4154,1.5822 2.1108,5.3388 1.6561,9.7213 1.4704,14.7961 1.4567,18.8768 1.4585,20.0908 A2.4185,2.4185 0 0 1 -3.3785,20.0692 T-3.3404,16.9718 -3.1712,11.0704 -2.7177,5.7154 -2.4154,1.5822 -2.4355,0 A2.4355,2.4355 0 0 1 2.4355,0 Z" stroke-linecap="round" fill="#9398b0"/></g></g><g transform="matrix(1, 0, 0, 1, 2236.0801, 30229.7045) scale(0.9561125023199899, 0.9561125023199899)" opacity="1"><g transform="scale(1.0459020225899336)"><path d="M-0.6115,1.4989 T-1.4741,1.2624 -3.4863,3.2018 -2.5401,4.659 -0.4443,3.94 A2.3635,2.3635 0 0 1 2.2582,7.8183 T0.8855,9.0841 -2.5141,10.9403 -6.4164,10.6053 -8.9368,7.6272 -9.0292,3.6757 -7.0838,-0.4323 -3.4842,-3.2429 -0.3328,-3.6317 0.6115,-3.4189 A2.5338,2.5338 0 0 1 -0.6115,1.4989 ZM2.4705,4.1068 T3.1367,4.714 5.0913,7.1451 7.3161,9.8093 8.2526,10.6496 A2.3689,2.3689 0 0 1 5.1274,14.2104 T4.1727,13.391 1.7931,10.544 -0.1443,8.0841 -0.6566,7.6516 A2.3635,2.3635 0 0 1 2.4705,4.1068 Z" stroke-linecap="round" fill="#9398b0"/></g></g><g transform="matrix(1, 0, 0, 1, 2628.0862, 30192.4161) scale(0.9561125023199899, 0.9561125023199899)" opacity="1"><g transform="scale(1.0459020225899336)"><path d="M2.0361,-0.2555 T2.2815,1.5514 2.7258,6.1509 2.9913,10.6434 3.0581,12.3433 A2.0999,2.0999 0 0 1 -1.1381,12.5167 T-1.2118,10.8171 -1.4522,6.4981 -1.8275,2.067 -2.0361,0.2555 A2.0521,2.0521 0 0 1 2.0361,-0.2555 Z" stroke-linecap="round" fill="#9398b0"/></g></g><g transform="matrix(1, 0, 0, 1, 2625.2179, 30219.1873) scale(0.9561125023199899, 0.9561125023199899)" opacity="1"><g transform="scale(1.0459020225899336)"><path d="M1.9159,0 T1.9221,1.3575 1.9413,4.7243 1.9723,8.8981 1.7376,13.9836 1.2161,18.6317 0.9472,20.3589 A1.9275,1.9275 0 0 1 -2.8672,19.8011 T-2.6302,18.0692 -2.1917,13.7 -1.9723,8.8981 -1.9413,4.7243 -1.9221,1.3575 -1.9159,0 A1.9159,1.9159 0 0 1 1.9159,0 Z" stroke-linecap="round" fill="#9398b0"/></g></g><g transform="matrix(1, 0, 0, 1, 2624.2618, 30232.5729) scale(0.9561125023199899, 0.9561125023199899)" opacity="1"><g transform="scale(1.0459020225899336)"><path d="M-0.3428,-2.3891 T1.24,-2.5908 5.7077,-3.151 10.6585,-2.3323 13.1521,0.8209 13.624,5.1598 12.3821,9.3712 9.0051,11.8935 3.9891,12.6339 1.0638,12.7004 A2.1829,2.1829 0 0 1 0.8562,8.3396 T3.5414,8.1391 7.6583,6.3994 8.1909,2.8069 5.3989,1.319 1.9244,2.1367 0.3428,2.3891 A2.4135,2.4135 0 0 1 -0.3428,-2.3891 Z" stroke-linecap="round" fill="#9398b0"/></g></g><g transform="matrix(1, 0, 0, 1, 2193.055, 30228.7484) scale(0.9561125023199899, 0.9561125023199899)" opacity="1"><g transform="scale(1.0459020225899336)"><path d="M1.5544,1.2944 T0.4527,2.6759 -2.0407,5.8967 -5.5166,9.8593 -8.4342,12.5649 -9.2676,13.1472 A2.0932,2.0932 0 0 1 -11.7724,9.7928 T-10.9774,9.1591 -8.5981,6.8889 -5.4434,3.3125 -2.7137,0.0391 -1.5544,-1.2944 A2.0227,2.0227 0 0 1 1.5544,1.2944 Z" stroke-linecap="round" fill="#9398b0"/></g></g><g transform="matrix(1, 0, 0, 1, 2181.5817, 30228.7484) scale(0.9561125023199899, 0.9561125023199899)" opacity="1"><g transform="scale(1.0459020225899336)"><path d="M1.0849,-0.4335 T1.5456,0.6937 2.9088,3.3512 4.6622,5.9737 6.9332,8.3141 8.3532,9.5622 A1.1882,1.1882 0 0 1 6.9468,11.4778 T6.3139,11.0209 4.3724,9.4279 2.1064,6.9131 0.4748,4.1177 -0.6422,1.5673 -1.0849,0.4335 A1.1683,1.1683 0 0 1 1.0849,-0.4335 Z" stroke-linecap="round" fill="#9398b0"/></g></g><g transform="matrix(1, 0, 0, 1, 2179.6695, 30225.8801) scale(0.9561125023199899, 0.9561125023199899)" opacity="1"><g transform="scale(1.0459020225899336)"><path d="M2.3716,-0.4763 T2.5664,0.6596 3.3884,3.3183 4.8675,6.3838 7.0184,9.2936 9.8529,11.5545 12.9273,13.3534 14.4663,14.2586 A2.2637,2.2637 0 0 1 12.3137,18.2414 T11.4432,17.8085 9.3544,16.6988 6.5169,14.9887 3.9484,12.9305 2.0388,10.7087 0.491,8.2494 -0.9746,4.8567 -2.1123,1.6013 -2.3716,0.4763 A2.419,2.419 0 0 1 2.3716,-0.4763 Z" stroke-linecap="round" fill="#9398b0"/></g></g><g transform="matrix(1, 0, 0, 1, 2198.7917, 30246.9145) scale(0.9561125023199899, 0.9561125023199899)" opacity="1"><g transform="scale(1.0459020225899336)"><path d="M1.557,1.1698 T0.88,2.0619 0.7751,4.4681 1.9674,4.1871 2.3001,0.8999 2.0124,-0.5921 A1.8447,1.8447 0 0 1 5.6276,-1.3279 T5.8535,-0.39 6.1581,2.6608 5.5149,6.2684 3.2659,8.7233 -0.1855,9.0528 -3.0291,6.8296 -3.4332,2.9484 -2.2375,-0.255 -1.557,-1.1698 A1.9475,1.9475 0 0 1 1.557,1.1698 Z" stroke-linecap="round" fill="#9398b0"/></g></g><g transform="matrix(1, 0, 0, 1, 2208.3528, 30232.5729) scale(0.9561125023199899, 0.9561125023199899)" opacity="1"><g transform="scale(1.0459020225899336)"><path d="M0.6532,-1.8311 T2.0049,-2.079 5.1305,-2.6934 7.963,-3.3717 9.0216,-3.6834 A1.8534,1.8534 0 0 1 10.0984,-0.1366 T9.0452,0.1928 5.988,0.9705 2.6254,1.6249 1.2668,1.8311 A1.8566,1.8566 0 0 1 0.6532,-1.8311 Z" stroke-linecap="round" fill="#9398b0"/></g></g><g transform="matrix(1, 0, 0, 1, 2208.3528, 30239.2656) scale(0.9561125023199899, 0.9561125023199899)" opacity="1"><g transform="scale(1.0459020225899336)"><path d="M1.3039,-1.7126 T2.4377,-1.5044 6.1712,-1.0255 8.771,-0.7549 A1.7224,1.7224 0 0 1 8.449,2.6749 T5.6597,2.4396 1.7433,1.9584 0.6161,1.7126 A1.7468,1.7468 0 0 1 1.3039,-1.7126 Z" stroke-linecap="round" fill="#9398b0"/></g></g><g transform="matrix(1, 0, 0, 1, 2268.5879, 30193.3722) scale(0.9561125023199899, 0.9561125023199899)" opacity="1"><g transform="scale(1.0459020225899336)"><path d="M1.4909,0 T1.4957,1.3575 1.5075,4.1092 1.5147,7.9949 1.2745,12.1821 0.7756,15.6494 0.5172,17.4209 A1.4922,1.4922 0 0 1 -2.4372,16.9991 T-2.1896,15.2261 -1.7285,11.9676 -1.5147,7.9927 -1.5075,4.1092 -1.4957,1.3575 -1.4909,0 A1.4909,1.4909 0 0 1 1.4909,0 Z" stroke-linecap="round" fill="#9398b0"/></g></g><g transform="matrix(1, 0, 0, 1, 2269.544, 30220.1434) scale(0.9561125023199899, 0.9561125023199899)" opacity="1"><g transform="scale(1.0459020225899336)"><path d="M1.3962,0.8383 T0.738,1.9813 -1.414,4.8258 -4.5617,8.1831 -7.3563,10.7929 -8.4969,11.7469 A1.6234,1.6234 0 0 1 -10.6231,9.2931 T-9.5165,8.2998 -6.7953,5.6128 -3.9877,2.6583 -2.0955,0.2796 -1.3962,-0.8383 A1.6285,1.6285 0 0 1 1.3962,0.8383 Z" stroke-linecap="round" fill="#9398b0"/></g></g><g transform="matrix(1, 0, 0, 1, 2259.9829, 30221.0995) scale(0.9561125023199899, 0.9561125023199899)" opacity="1"><g transform="scale(1.0459020225899336)"><path d="M1.3231,-0.5287 T1.8124,0.5871 2.8913,3.0917 4.3323,5.9511 6.5535,9.1838 8.4204,11.7509 8.9176,12.5561 A1.5174,1.5174 0 0 1 6.3824,14.2239 T5.4358,12.8622 3.548,10.4769 1.6475,7.7095 0.0967,4.3923 -0.909,1.6738 -1.3231,0.5287 A1.4249,1.4249 0 0 1 1.3231,-0.5287 Z" stroke-linecap="round" fill="#9398b0"/></g></g><g transform="matrix(1, 0, 0, 1, 2271.4563, 30235.4412) scale(0.9561125023199899, 0.9561125023199899)" opacity="1"><g transform="scale(1.0459020225899336)"><path d="M1.5487,0.96 T1.5487,2.3151 1.5487,5.1801 1.5487,6.69 A1.5487,1.5487 0 0 1 -1.5487,6.69 T-1.5487,5.1801 -1.5487,2.3151 -1.5487,0.96 A1.5487,1.5487 0 0 1 1.5487,0.96 Z" stroke-linecap="round" fill="#9398b0"/></g></g><g transform="matrix(1, 0, 0, 1, 2318.3058, 30194.3284) scale(0.9561125023199899, 0.9561125023199899)" opacity="1"><g transform="scale(1.0459020225899336)"><path d="M1.5489,0 T1.5642,1.1305 1.6038,4.3145 1.6131,8.8893 1.5766,12.8753 1.555,14.34 A1.555,1.555 0 0 1 -1.555,14.34 T-1.5766,12.8753 -1.6131,8.8893 -1.6038,4.3145 -1.5642,1.1305 -1.5489,0 A1.5489,1.5489 0 0 1 1.5489,0 Z" stroke-linecap="round" fill="#9398b0"/></g></g><g transform="matrix(1, 0, 0, 1, 2317.3497, 30223.9678) scale(0.9561125023199899, 0.9561125023199899)" opacity="1"><g transform="scale(1.0459020225899336)"><path d="M1.1843,0.7111 T0.5284,1.8554 -1.512,4.8346 -4.4933,8.0373 -7.5213,10.4892 -9.808,12.1229 -10.6637,12.6726 A1.4479,1.4479 0 0 1 -12.2763,10.2674 T-11.443,9.6845 -9.3623,8.0931 -6.6536,5.8847 -3.8898,3.1035 -1.8859,0.4055 -1.1843,-0.7111 A1.3814,1.3814 0 0 1 1.1843,0.7111 Z" stroke-linecap="round" fill="#9398b0"/></g></g><g transform="matrix(1, 0, 0, 1, 2307.7885, 30224.924) scale(0.9561125023199899, 0.9561125023199899)" opacity="1"><g transform="scale(1.0459020225899336)"><path d="M1.352,-0.676 T1.8283,0.2143 3.0671,2.4447 4.9094,5.0882 7.3741,7.9224 8.7591,9.4532 A1.5389,1.5389 0 0 1 6.5409,11.5868 T5.7537,10.8138 3.765,8.7992 1.6909,6.2948 0.1602,3.7705 -0.9249,1.5925 -1.352,0.676 A1.5116,1.5116 0 0 1 1.352,-0.676 Z" stroke-linecap="round" fill="#9398b0"/></g></g><g transform="matrix(1, 0, 0, 1, 2317.3497, 30239.2656) scale(0.9561125023199899, 0.9561125023199899)" opacity="1"><g transform="scale(1.0459020225899336)"><path d="M0,-1.7568 T1.1512,-1.7645 4.1012,-1.058 5.8999,-0.3438 A1.798,1.798 0 0 1 4.3094,2.8815 T3.2644,2.3268 1.1097,1.7645 0,1.7568 A1.7568,1.7568 0 0 1 0,-1.7568 ZM6.8467,1.7143 T6.7348,2.1024 5.6259,4.0729 3.8569,6.9304 3.0851,8.2055 A1.778,1.778 0 0 1 -0.1648,6.7622 T0.5636,5.5984 2.2046,3.158 3.24,1.3524 3.3627,0.8234 A1.798,1.798 0 0 1 6.8467,1.7143 ZM3.182,7.0408 T3.3486,7.6711 3.5153,8.3014 A1.7866,1.7866 0 0 1 0.0548,9.1918 T-0.1035,8.5594 -0.2618,7.927 A1.778,1.778 0 0 1 3.182,7.0408 ZM2.4482,7.0876 T2.9278,7.2781 5.3313,7.6179 9.1992,7.4056 11.1431,7.044 A1.5998,1.5998 0 0 1 11.7969,10.176 T10.6836,10.4417 7.2777,10.9579 3.5365,11.0013 1.6049,10.5999 1.1219,10.4056 A1.7866,1.7866 0 0 1 2.4482,7.0876 Z" stroke-linecap="round" fill="#9398b0"/></g></g><g transform="matrix(1, 0, 0, 1, 2346.9892, 30196.2406) scale(0.9561125023199899, 0.9561125023199899)" opacity="1"><g transform="scale(1.0459020225899336)"><path d="M1.3496,-0.2257 T1.5948,1.1338 1.7277,4.0513 1.4575,8.0957 1.2996,10.582 A1.301,1.301 0 0 1 -1.2996,10.458 T-1.2558,9.1352 -1.0719,5.3746 -1.1407,1.5812 -1.3496,0.2257 A1.3684,1.3684 0 0 1 1.3496,-0.2257 Z" stroke-linecap="round" fill="#9398b0"/></g></g><g transform="matrix(1, 0, 0, 1, 2345.0769, 30219.1873) scale(0.9561125023199899, 0.9561125023199899)" opacity="1"><g transform="scale(1.0459020225899336)"><path d="M1.2959,0.9737 T0.6332,1.894 -1.5825,4.2392 -4.8313,7.24 -6.5272,8.816 A1.6187,1.6187 0 0 1 -8.7728,6.484 T-7.1022,4.8183 -4.0586,1.976 -1.9907,-0.0871 -1.2959,-0.9737 A1.621,1.621 0 0 1 1.2959,0.9737 Z" stroke-linecap="round" fill="#9398b0"/></g></g><g transform="matrix(1, 0, 0, 1, 2338.3841, 30220.1434) scale(0.9561125023199899, 0.9561125023199899)" opacity="1"><g transform="scale(1.0459020225899336)"><path d="M1.13,-0.849 T1.8333,0.0384 3.3397,2.2178 5.4239,4.5317 7.7788,7.138 8.8525,8.7223 A1.4655,1.4655 0 0 1 6.4475,10.3977 T5.5187,9.1074 3.1228,6.562 0.9171,3.9974 -0.4758,1.7685 -1.13,0.849 A1.4134,1.4134 0 0 1 1.13,-0.849 Z" stroke-linecap="round" fill="#9398b0"/></g></g><g transform="matrix(1, 0, 0, 1, 2347.9453, 30231.6167) scale(0.9561125023199899, 0.9561125023199899)" opacity="1"><g transform="scale(1.0459020225899336)"><path d="M1.2142,-0.9703 T2.1302,0.1604 3.4063,2.0644 3.7665,2.8376 A1.5812,1.5812 0 0 1 0.853,4.0673 T0.7103,3.649 -0.3233,2.1006 -1.2142,0.9703 A1.5543,1.5543 0 0 1 1.2142,-0.9703 ZM3.6715,4.256 T3.3539,4.7988 2.5841,5.9329 2.1318,6.524 A1.583,1.583 0 0 1 -0.3702,4.5841 T-0.032,4.1556 0.6271,3.1881 0.9479,2.6489 A1.5812,1.5812 0 0 1 3.6715,4.256 ZM2.0345,4.4701 T2.6236,5.0968 4.3134,6.8102 4.9353,9.5588 2.9273,11.6129 -0.2171,12.0599 -1.8325,12.1145 A1.5964,1.5964 0 0 1 -1.9875,8.9255 T-0.5219,8.4296 0.3354,7.2859 -0.2729,6.6379 A1.583,1.583 0 0 1 2.0345,4.4701 Z" stroke-linecap="round" fill="#9398b0"/></g></g><g transform="matrix(1, 0, 0, 1, 2405.312, 30195.2845) scale(0.9561125023199899, 0.9561125023199899)" opacity="1"><g transform="scale(1.0459020225899336)"><path d="M1.3634,-0.6852 T1.6064,-0.2374 1.8986,1.9037 1.8221,5.4972 1.6206,8.5138 1.5449,9.6302 A1.5465,1.5465 0 0 1 -1.5449,9.4898 T-1.4972,7.3367 -1.1955,3.39 -1.1524,1.1408 -1.3634,0.6852 A1.5259,1.5259 0 0 1 1.3634,-0.6852 Z" stroke-linecap="round" fill="#9398b0"/></g></g><g transform="matrix(1, 0, 0, 1, 2406.2681, 30219.1873) scale(0.9561125023199899, 0.9561125023199899)" opacity="1"><g transform="scale(1.0459020225899336)"><path d="M0.8872,2.2018 T-0.667,3.3713 -4.3186,6.0442 -8.5615,8.7325 -10.707,9.9173 A1.5137,1.5137 0 0 1 -12.233,7.3027 T-10.2162,6.0582 -6.1534,3.3573 -2.4974,0.8096 -0.8872,-0.2818 A1.5261,1.5261 0 0 1 0.8872,2.2018 Z" stroke-linecap="round" fill="#9398b0"/></g></g><g transform="matrix(1, 0, 0, 1, 2393.8387, 30220.1434) scale(0.9561125023199899, 0.9561125023199899)" opacity="1"><g transform="scale(1.0459020225899336)"><path d="M1.2697,-0.9539 T1.965,-0.0701 3.9605,2.2081 6.2046,5.0154 8.1303,8.6042 9.112,10.7799 A1.6167,1.6167 0 0 1 6.188,12.1601 T5.3157,10.408 3.505,7.1996 1.3107,4.2716 -0.6075,1.8769 -1.2697,0.9539 A1.5881,1.5881 0 0 1 1.2697,-0.9539 Z" stroke-linecap="round" fill="#9398b0"/></g></g><g transform="matrix(1, 0, 0, 1, 2404.3559, 30235.4412) scale(0.9561125023199899, 0.9561125023199899)" opacity="1"><g transform="scale(1.0459020225899336)"><path d="M2.2932,0 T2.3306,1.1305 2.3904,3.7237 3.4397,5.8089 4.4666,6.4313 A1.3796,1.3796 0 0 1 3.1734,8.8687 T2.5305,8.5463 0.6974,6.7418 -0.4704,3.7603 -0.4106,1.1305 -0.3732,0 A1.3332,1.3332 0 0 1 2.2932,0 Z" stroke-linecap="round" fill="#9398b0"/></g></g><g transform="matrix(1, 0, 0, 1, 2410.0926, 30236.3973) scale(0.9561125023199899, 0.9561125023199899)" opacity="1"><g transform="scale(1.0459020225899336)"><path d="M1.7006,-0.3415 T1.9473,0.7855 2.4087,4.1967 2.6811,8.9497 2.7388,11.4186 A1.7796,1.7796 0 0 1 -0.8188,11.5214 T-0.9016,9.1276 -1.1351,4.6716 -1.4932,1.4754 -1.7006,0.3415 A1.7345,1.7345 0 0 1 1.7006,-0.3415 Z" stroke-linecap="round" fill="#9398b0"/></g></g><g transform="matrix(1, 0, 0, 1, 2468.4154, 30197.1967) scale(0.9561125023199899, 0.9561125023199899)" opacity="1"><g transform="scale(1.0459020225899336)"><path d="M1.544,-0.3101 T1.7956,0.8157 2.2556,3.8574 2.9273,7.4453 3.3904,9.1172 A1.5452,1.5452 0 0 1 0.4296,10.0028 T-0.1978,8.0287 -0.9821,4.3175 -1.3415,1.4452 -1.544,0.3101 A1.5748,1.5748 0 0 1 1.544,-0.3101 Z" stroke-linecap="round" fill="#9398b0"/></g></g><g transform="matrix(1, 0, 0, 1, 2468.4154, 30223.9678) scale(0.9561125023199899, 0.9561125023199899)" opacity="1"><g transform="scale(1.0459020225899336)"><path d="M1.2681,1.2681 T0.1579,2.4177 -2.69,5.4506 -6.0417,8.5826 -8.5763,10.4411 -9.497,11.0511 A1.8083,1.8083 0 0 1 -11.543,8.0689 T-9.939,6.936 -6.8605,4.4947 -4.4778,2.0705 -2.4189,-0.1568 -1.2681,-1.2681 A1.7934,1.7934 0 0 1 1.2681,1.2681 Z" stroke-linecap="round" fill="#9398b0"/></g></g><g transform="matrix(1, 0, 0, 1, 2457.8982, 30224.924) scale(0.9561125023199899, 0.9561125023199899)" opacity="1"><g transform="scale(1.0459020225899336)"><path d="M1.3119,-0.9856 T2.0058,-0.1009 3.7235,2.1235 5.8982,4.8623 8.1579,7.4558 10.0205,9.466 10.7744,10.2819 A1.6989,1.6989 0 0 1 8.3456,12.6581 T7.5464,11.8865 5.5311,9.8953 3.3661,7.5069 1.2162,4.5841 -0.6483,1.9078 -1.3119,0.9856 A1.6409,1.6409 0 0 1 1.3119,-0.9856 Z" stroke-linecap="round" fill="#9398b0"/></g></g><g transform="matrix(1, 0, 0, 1, 2471.2838, 30241.1779) scale(0.9561125023199899, 0.9561125023199899)" opacity="1"><g transform="scale(1.0459020225899336)"><path d="M2.5884,0 T2.6132,1.3575 2.4098,4.7676 3.2151,7.9977 4.8659,10.7323 4.5591,13.7137 1.5814,15.2353 -1.3422,15.1392 -2.2123,14.9462 A1.5853,1.5853 0 0 1 -1.6077,11.8338 T0.3919,11.9616 1.127,10.7314 -0.6537,7.7708 -0.9439,4.4417 -0.6932,1.3575 -0.6684,0 A1.6284,1.6284 0 0 1 2.5884,0 Z" stroke-linecap="round" fill="#9398b0"/></g></g><g transform="matrix(1, 0, 0, 1, 2470.3277, 30239.2656) scale(0.9561125023199899, 0.9561125023199899)" opacity="1"><g transform="scale(1.0459020225899336)"><path d="M0,-1.3966 T1.5822,-1.4054 4.9272,-1.422 6.69,-1.4298 A1.4298,1.4298 0 0 1 6.69,1.4298 T4.9272,1.422 1.5822,1.4054 0,1.3966 A1.3966,1.3966 0 0 1 0,-1.3966 Z" stroke-linecap="round" fill="#9398b0"/></g></g><g transform="matrix(1, 0, 0, 1, 2490.406, 30239.2656) scale(0.9561125023199899, 0.9561125023199899)" opacity="1"><g transform="scale(1.0459020225899336)"><path d="M 0 0 m -2.542991779928985, 0 a 2.542991779928985,2.542991779928985 0 1,1 5.08598355985797,0 a 2.542991779928985,2.542991779928985 0 1,1 -5.08598355985797,0" stroke-linecap="round" fill="#9398b0"/></g></g><g transform="matrix(1, 0, 0, 1, 2501.8794, 30238.3095) scale(0.9561125023199899, 0.9561125023199899)" opacity="1"><g transform="scale(1.0459020225899336)"><path d="M 0 0 m -2.542991779928985, 0 a 2.542991779928985,2.542991779928985 0 1,1 5.08598355985797,0 a 2.542991779928985,2.542991779928985 0 1,1 -5.08598355985797,0" stroke-linecap="round" fill="#9398b0"/></g></g><g transform="matrix(1, 0, 0, 1, 2512.3966, 30239.2656) scale(0.9561125023199899, 0.9561125023199899)" opacity="1"><g transform="scale(1.0459020225899336)"><path d="M 0 0 m -2.542991779928985, 0 a 2.542991779928985,2.542991779928985 0 1,1 5.08598355985797,0 a 2.542991779928985,2.542991779928985 0 1,1 -5.08598355985797,0" stroke-linecap="round" fill="#9398b0"/></g></g><g transform="matrix(1, 0, 0, 1, 2523.87, 30239.2656) scale(0.9561125023199899, 0.9561125023199899)" opacity="1"><g transform="scale(1.0459020225899336)"><path d="M 0 0 m -2.542991779928985, 0 a 2.542991779928985,2.542991779928985 0 1,1 5.08598355985797,0 a 2.542991779928985,2.542991779928985 0 1,1 -5.08598355985797,0" stroke-linecap="round" fill="#9398b0"/></g></g><g transform="matrix(1, 0, 0, 1, 2553.5095, 30194.3284) scale(0.9561125023199899, 0.9561125023199899)" opacity="1"><g transform="scale(1.0459020225899336)"><path d="M1.4194,0 T1.4303,1.3575 1.451,4.9489 1.4504,9.8064 1.4399,12.43 A1.4399,1.4399 0 0 1 -1.4399,12.43 T-1.4504,9.8064 -1.451,4.9489 -1.4303,1.3575 -1.4194,0 A1.4194,1.4194 0 0 1 1.4194,0 Z" stroke-linecap="round" fill="#9398b0"/></g></g><g transform="matrix(1, 0, 0, 1, 2551.5972, 30230.6606) scale(0.9561125023199899, 0.9561125023199899)" opacity="1"><g transform="scale(1.0459020225899336)"><path d="M2.1696,0.9692 T1.2791,2.112 -0.5536,4.3457 -3.2202,6.9332 -6.712,10.0462 -8.4793,11.6625 A1.5727,1.5727 0 0 1 -10.6407,9.3775 T-9.7265,8.4853 -7.2275,6.1191 -3.8672,2.9561 -1.1707,0.149 -0.2496,-0.9692 A1.55,1.55 0 0 1 2.1696,0.9692 Z" stroke-linecap="round" fill="#9398b0"/></g></g><g transform="matrix(1, 0, 0, 1, 2542.0361, 30231.6167) scale(0.9561125023199899, 0.9561125023199899)" opacity="1"><g transform="scale(1.0459020225899336)"><path d="M1.1241,-0.8446 T1.8232,0.0435 3.5085,2.3211 5.2803,5.016 6.9807,7.6648 8.3949,9.8507 8.8942,10.6931 A1.4668,1.4668 0 0 1 6.4058,12.2469 T5.868,11.4284 4.4097,9.348 2.6333,6.5961 0.9851,3.8941 -0.4657,1.7633 -1.1241,0.8446 A1.406,1.406 0 0 1 1.1241,-0.8446 Z" stroke-linecap="round" fill="#9398b0"/></g></g><g transform="matrix(1, 0, 0, 1, 2549.685, 30249.7829) scale(0.9561125023199899, 0.9561125023199899)" opacity="1"><g transform="scale(1.0459020225899336)"><path d="M1.5401,-0.2576 T1.7871,1.0966 2.2442,4.1741 2.5266,6.7022 2.599,7.5069 A1.6453,1.6453 0 0 1 -0.679,7.7931 T-0.7471,6.9879 -0.9706,4.581 -1.3331,1.6184 -1.5401,0.2576 A1.5615,1.5615 0 0 1 1.5401,-0.2576 ZM-0.6849,7.6834 T-0.6899,7.1297 -0.0314,4.8189 1.6083,1.6759 4.2304,-0.2189 5.8762,-0.7277 A1.5503,1.5503 0 0 1 5.422,2.3394 T4.8329,2.7918 3.4088,4.9711 2.5893,7.1574 2.6049,7.6166 A1.6453,1.6453 0 0 1 -0.6849,7.6834 ZM7.0334,0.1078 T7.2836,0.5976 8.0206,2.8337 8.7857,5.3713 9.0639,6.1626 A1.509,1.509 0 0 1 6.2361,7.2174 T5.9281,6.4373 5.1846,4.067 4.507,1.9904 4.2648,1.5039 A1.5503,1.5503 0 0 1 7.0334,0.1078 Z" stroke-linecap="round" fill="#9398b0"/></g></g><g transform="matrix(1, 0, 0, 1, 2644.3401, 30236.3973) scale(0.9561125023199899, 0.9561125023199899)" opacity="1"><g transform="scale(1.0459020225899336)"><path d="M-0.2233,-1.3349 T1.1297,-1.5891 3.9931,-2.2298 7.2445,-3.3744 8.9857,-4.1325 A1.387,1.387 0 0 1 10.1343,-1.6075 T8.3556,-0.7645 4.7621,0.5069 1.5853,1.135 0.2233,1.3349 A1.3534,1.3534 0 0 1 -0.2233,-1.3349 Z" stroke-linecap="round" fill="#9398b0"/></g></g><g transform="matrix(1, 0, 0, 1, 2645.2963, 30240.2218) scale(0.9561125023199899, 0.9561125023199899)" opacity="1"><g transform="scale(1.0459020225899336)"><path d="M0,-1.4125 T1.127,-1.435 4.3203,-1.9087 6.3866,-2.3599 A1.4324,1.4324 0 0 1 6.9934,0.4399 T4.6307,0.9487 1.134,1.435 0,1.4125 A1.4125,1.4125 0 0 1 0,-1.4125 Z" stroke-linecap="round" fill="#9398b0"/></g></g><g transform="matrix(1, 0, 0, 1, 2671.1113, 30226.8362) scale(0.9561125023199899, 0.9561125023199899)" opacity="1"><g transform="scale(1.0459020225899336)"><path d="M1.5385,0.309 T1.3195,1.4519 0.4625,3.863 -0.9371,6.4037 -2.5436,9.0258 -4.5668,11.8373 -6.8978,14.3143 -9.236,16.3658 -10.4215,17.4021 A1.5578,1.5578 0 0 1 -12.5185,15.0979 T-10.4378,13.1281 -7.2837,9.8636 -5.3583,7.2638 -3.2575,3.9429 -1.7736,0.809 -1.5385,-0.309 A1.5692,1.5692 0 0 1 1.5385,0.309 Z" stroke-linecap="round" fill="#9398b0"/></g></g><g transform="matrix(1, 0, 0, 1, 2660.5941, 30231.6167) scale(0.9561125023199899, 0.9561125023199899)" opacity="1"><g transform="scale(1.0459020225899336)"><path d="M1.0103,-1.0103 T1.7023,-0.3382 3.2499,1.5186 4.7855,4.4268 6.2709,7.7496 8.0044,10.9892 8.9325,12.6294 A1.491,1.491 0 0 1 6.3675,14.1506 T5.4569,12.6904 3.7034,9.862 2.3637,6.9934 1.0937,3.9372 -0.3448,1.6958 -1.0103,1.0103 A1.4288,1.4288 0 0 1 1.0103,-1.0103 Z" stroke-linecap="round" fill="#9398b0"/></g></g><g transform="matrix(1, 0, 0, 1, 2670.1552, 30245.9584) scale(0.9561125023199899, 0.9561125023199899)" opacity="1"><g transform="scale(1.0459020225899336)"><path d="M1.3755,-0.2763 T1.6106,0.8528 1.8171,4.0977 1.7885,6.2135 A1.4542,1.4542 0 0 1 -1.0576,5.6145 T-0.9976,4.0772 -1.1565,1.4081 -1.3755,0.2763 A1.403,1.403 0 0 1 1.3755,-0.2763 ZM-0.043,4.5183 T0.0975,4.4769 0.238,4.4354 A1.4548,1.4548 0 0 1 1.0553,7.228 T0.9146,7.2688 0.7739,7.3097 A1.4542,1.4542 0 0 1 -0.043,4.5183 ZM-0.6245,5.1241 T-0.2356,4.4403 1.344,2.737 3.2319,1.4128 3.9291,1.1079 A1.4335,1.4335 0 0 1 5.0251,3.7571 T3.7582,4.6183 2.2046,6.0095 1.9178,6.5393 A1.4548,1.4548 0 0 1 -0.6245,5.1241 ZM5.2386,1.218 T5.7808,1.5599 7.0347,3.1089 7.9243,6.4036 8.1021,8.4911 A1.4171,1.4171 0 0 1 5.2779,8.7289 T5.0012,6.5024 4.2201,3.9614 3.7156,3.6469 A1.4335,1.4335 0 0 1 5.2386,1.218 Z" stroke-linecap="round" fill="#9398b0"/></g></g><g transform="matrix(1, 0, 0, 1, 2559.2461, 30252.6512) scale(0.9561125023199899, 0.9561125023199899)" opacity="1"><g transform="scale(1.0459020225899336)"><path d="M-0.2143,-1.2814 T1.1437,-1.5054 4.0147,-1.9796 5.5276,-2.2297 A1.2874,1.2874 0 0 1 5.9524,0.3097 T4.4403,0.5655 1.5713,1.0513 0.2143,1.2814 A1.2992,1.2992 0 0 1 -0.2143,-1.2814 Z" stroke-linecap="round" fill="#9398b0"/></g></g><g transform="matrix(1, 0, 0, 1, 2567.8511, 30246.9145) scale(0.9561125023199899, 0.9561125023199899)" opacity="1"><g transform="scale(1.0459020225899336)"><path d="M1.1179,-1.8619 T2.2344,-1.1471 4.6517,1.4211 6.2395,4.7453 5.857,7.8672 4.1988,10.5084 2.5568,11.9962 1.9037,12.4938 A1.8864,1.8864 0 0 1 -0.1239,9.3121 T0.0216,9.3007 1.3239,7.5472 1.8258,4.4761 0.0266,2.5046 -1.1179,1.8619 A2.1718,2.1718 0 0 1 1.1179,-1.8619 ZM1.5034,9.119 T1.9796,9.2696 4.0117,9.4245 7.5695,9.4516 9.5714,9.4743 A1.9957,1.9957 0 0 1 9.5486,13.4657 T7.5181,13.4653 3.5967,13.3349 0.991,12.9458 0.2763,12.6868 A1.8864,1.8864 0 0 1 1.5034,9.119 Z" stroke-linecap="round" fill="#9398b0"/></g></g><g transform="matrix(1, 0, 0, 1, 2588.8856, 30196.2406) scale(0.9561125023199899, 0.9561125023199899)" opacity="1"><g transform="scale(1.0459020225899336)"><path d="M1.4379,-0.2405 T1.6832,1.1141 2.1479,5.0151 2.4119,9.9738 2.4567,12.3861 A1.4974,1.4974 0 0 1 -0.5367,12.4739 T-0.6325,10.0931 -0.8743,5.3369 -1.2292,1.601 -1.4379,0.2405 A1.4579,1.4579 0 0 1 1.4379,-0.2405 Z" stroke-linecap="round" fill="#9398b0"/></g></g><g transform="matrix(1, 0, 0, 1, 2589.8417, 30231.6167) scale(0.9561125023199899, 0.9561125023199899)" opacity="1"><g transform="scale(1.0459020225899336)"><path d="M1.4537,0.7269 T0.7999,2.0972 -1.2911,5.5078 -4.0529,9.4653 -5.3776,11.3825 A1.5704,1.5704 0 0 1 -8.0024,9.6575 T-6.6813,7.5489 -4.1107,3.7014 -2.1574,0.6178 -1.4537,-0.7269 A1.6253,1.6253 0 0 1 1.4537,0.7269 Z" stroke-linecap="round" fill="#9398b0"/></g></g><g transform="matrix(1, 0, 0, 1, 2581.2367, 30228.7484) scale(0.9561125023199899, 0.9561125023199899)" opacity="1"><g transform="scale(1.0459020225899336)"><path d="M1.4453,-1.0859 T2.1289,-0.1857 4.0165,2.6723 5.9753,6.5457 7.5016,9.6409 9.6205,12.4459 10.9678,14.0715 A1.8685,1.8685 0 0 1 8.1522,16.5285 T6.5874,14.817 4.05,11.4353 2.5185,8.1186 0.9312,4.6857 -0.7713,1.9926 -1.4453,1.0859 A1.8078,1.8078 0 0 1 1.4453,-1.0859 Z" stroke-linecap="round" fill="#9398b0"/></g></g><g transform="matrix(1, 0, 0, 1, 2590.7978, 30244.0462) scale(0.9561125023199899, 0.9561125023199899)" opacity="1"><g transform="scale(1.0459020225899336)"><path d="M1.6351,-0.2735 T1.8661,1.0836 2.2284,3.8995 2.4736,5.8413 2.5877,6.3243 A1.6683,1.6683 0 0 1 -0.6677,7.0557 T-0.9283,5.0226 -1.412,1.6314 -1.6351,0.2735 A1.6578,1.6578 0 0 1 1.6351,-0.2735 ZM-0.6651,6.3128 T-0.3904,5.2571 1.2417,2.4508 4.4216,0.8323 7.1027,2.4697 8.5799,6.0166 9.1983,8.0581 A1.6437,1.6437 0 0 1 6.1017,9.1619 T5.8065,8.3281 4.1838,6.5685 2.7208,6.3549 2.5851,7.0672 A1.6683,1.6683 0 0 1 -0.6651,6.3128 Z" stroke-linecap="round" fill="#9398b0"/></g></g><g transform="matrix(1, 0, 0, 1, 2600.359, 30247.8707) scale(0.9561125023199899, 0.9561125023199899)" opacity="1"><g transform="scale(1.0459020225899336)"><path d="M0.3017,-1.502 T1.4266,-1.3008 4.5397,-1.3411 6.5278,-1.5825 A1.5908,1.5908 0 0 1 6.8522,1.5825 T4.4113,1.7952 0.8343,1.7549 -0.3017,1.502 A1.532,1.532 0 0 1 0.3017,-1.502 Z" stroke-linecap="round" fill="#9398b0"/></g></g><g transform="matrix(1, 0, 0, 1, 2611.8323, 30242.134) scale(0.9561125023199899, 0.9561125023199899)" opacity="1"><g transform="scale(1.0459020225899336)"><path d="M1.5996,-0.6392 T2.0658,0.4873 2.7546,4.0795 2.642,8.6362 2.0168,11.8054 1.7269,12.8836 A1.7855,1.7855 0 0 1 -1.7269,11.9764 T-1.4495,10.8949 -0.8935,8.0022 -0.6701,4.5496 -1.1624,1.7736 -1.5996,0.6392 A1.7226,1.7226 0 0 1 1.5996,-0.6392 Z" stroke-linecap="round" fill="#9398b0"/></g></g></svg>