<svg xmlns="http://www.w3.org/2000/svg" direction="ltr" width="966.7405480860943" height="788.4609082624338" viewBox="2406.395034775864 24242.82653119094 966.7405480860943 788.4609082624338" stroke-linecap="round" stroke-linejoin="round" style="background-color: transparent;"><defs/><g transform="matrix(1, 0, 0, 1, 2442.2078, 24558.4294)" opacity="1"><g transform="scale(1)"><path d="M0,0 Q7.6061,-4.4369 9.9919,-5.9606 T14.3093,-8.6302 17.9257,-10.7163 20.8438,-12.485 23.382,-14.081 26.0304,-15.5831 28.7412,-17.3509 34.338,-21.165 41.1858,-26.0943 45.8617,-29.729 49.6731,-32.34 53.0142,-34.7112 56.4163,-37.2688 59.8517,-39.6109 62.9882,-41.8358 66.2791,-43.9969 69.6539,-46.1233 72.7575,-48.2308 75.7135,-50.328 78.5893,-52.7366 81.4214,-55.3146 83.9128,-57.6677 86.5358,-59.8986 89.2304,-62.063 91.647,-64.1911 94.2293,-66.2996 96.9041,-68.3974 99.946,-70.4893 103.1854,-72.5781 106.5323,-74.9821 109.9376,-77.5575 113.3746,-80.2263 116.829,-82.9457 119.9759,-85.6928 122.9554,-88.4549 125.844,-90.9082 128.6831,-93.1936 131.4952,-95.7068 134.6096,-98.3439 137.8884,-100.7293 140.9398,-102.9777 143.8674,-105.4685 146.7277,-108.4081 149.8683,-111.5919 153.1614,-114.9084 156.2205,-118.2972 159.1524,-121.4084 161.7003,-124.3686 164.0395,-127.2466 166.5796,-129.763 169.2292,-132.0827 171.9382,-134.2953 174.6796,-136.4498 177.7555,-139.2064 181.0134,-142.2906 184.3703,-145.553 187.781,-149.2293 190.9042,-152.8138 193.8708,-156.0314 196.7524,-159.3687 199.2707,-162.4541 201.5914,-165.0834 203.8046,-167.4644 205.6425,-169.7105 207.593,-172.2 209.9218,-174.5051 212.4563,-176.7098 214.7859,-178.8599 217.0039,-180.9804 219.4782,-183.4016 221.775,-185.9864 223.9752,-188.3433 226.4398,-190.5762 228.7336,-192.7416 230.9344,-194.8704 233.3994,-196.9792 236.008,-199.0772 238.6947,-201.4861 241.1071,-204.0643 243.3702,-206.7345 245.869,-209.4548 248.496,-212.2023 250.8759,-214.6477 253.1213,-216.9287 255.6105,-219.1204 257.9153,-221.2634 260.1199,-223.6969 262.27,-225.9715 264.3904,-228.1619 266.8116,-230.6234 269.3964,-233.2302 272.0702,-235.9159 274.4755,-238.3278 276.7348,-240.5905 278.9145,-242.7723 280.7342,-244.9099 282.6748,-247.0235 284.6813,-248.8071 286.4067,-250.7282 288.296,-252.724 290.2746,-254.4436 292.3017,-256.3298 294.3552,-258.3066 296.1084,-260.0159 298.0152,-261.8965 300.0033,-263.8703 301.7186,-265.5779 303.2856,-267.1406 304.7719,-268.6246 306.2143,-270.0658 307.6328,-271.4836 309.3552,-272.8887 311.2429,-274.2869 312.9037,-275.6814 314.6371,-277.209 L315.58,-278.04 " stroke-linecap="round" fill="none" stroke="#ffc034" stroke-width="3" stroke-dasharray="none" stroke-dashoffset="0"/></g></g><g transform="matrix(1, 0, 0, 1, 2442.2078, 24558.4294)" opacity="1"><g transform="scale(1)"><path d="M0,0 Q1.9015,-0.6338 4.9541,-0.8062 T9.9842,-1.0724 13.3544,-1.2172 16.4555,-1.296 19.4101,-1.3389 22.2852,-1.3622 25.1168,-1.3749 27.608,-1.3818 30.2332,-1.3855 33.2482,-1.3876 36.4729,-1.3887 39.4949,-1.3893 42.0896,-1.3896 44.7688,-1.3898 48.1278,-1.3899 51.5397,-1.3899 54.6634,-1.39 57.6304,-1.39 60.5121,-1.0731 63.6644,-0.5837 66.9638,-0.3176 70.3433,-0.1728 73.4495,-0.094 76.4069,-0.0511 79.9172,-0.0278 83.7284,-0.0151 87.7031,-0.0082 91.45,-0.0045 94.7583,-0.0024 97.511,-0.0013 99.9593,-0.0007 102.5588,-0.0004 105.2406,-0.0002 107.9672,-0.0001 110.7182,-0.0001 113.4824,0 116.2538,0 119.0291,0 122.1235,0 125.3914,0 128.4368,0 131.3612,0 134.2198,0 137.3594,0 140.652,0 143.7109,0 146.9595,0 150.3113,0 153.4024,0 156.3516,0 159.5429,0 163.1827,0 166.7474,0 169.6373,0 172.4772,0 175.6066,0 178.5767,0 180.8263,0.3169 183.3177,0.8062 186.5746,1.0724 189.9309,1.2172 193.3414,1.296 196.4644,1.3389 199.4309,1.3622 202.3124,1.3749 205.1476,1.3818 207.6408,1.3855 210.2647,1.3876 213.5936,1.3887 217.3061,1.3893 220.5934,1.3896 223.3324,1.3898 226.0901,1.3899 229.1772,1.3899 232.4434,1.39 235.4879,1.39 238.4118,1.39 241.2701,1.39 244.0927,1.7069 246.8959,2.1962 249.6885,2.4624 252.1584,2.6072 254.4528,2.686 257.2856,2.7289 260.4112,2.7522 263.3792,2.7649 265.9446,2.7718 268.6078,2.7755 271.6412,2.7776 274.5591,2.7787 277.414,2.7793 280.2348,2.7796 283.037,2.7798 285.8291,2.7799 288.6157,2.7799 291.3992,2.78 294.1835,2.78 296.968,2.78 299.7505,2.78 302.5319,2.78 305.3126,2.4631 308.093,1.9738 310.8732,1.7076 313.0195,1.2458 314.6779,0.4389 L315.58,0 " stroke-linecap="round" fill="none" stroke="#ffc034" stroke-width="3" stroke-dasharray="none" stroke-dashoffset="0"/></g></g><g transform="matrix(1, 0, 0, 1, 2759.1757, 24274.8265)" opacity="1"><g transform="scale(1)"><path d="M0,0 Q0,3.803 0,5.4713 T0,8.364 0,13.7407 0,20.4687 0,24.7625 0,28.3683 0,32.2337 0,35.921 -0.3169,39.1946 -0.8062,42.2432 -1.0724,45.1692 -1.2172,48.0287 -1.296,50.8519 -1.3389,53.9724 -1.3622,57.5714 -1.3749,60.797 -1.3818,64.1363 -1.3855,67.8544 -1.0706,71.1447 -0.5824,74.2023 -0.3168,77.7672 -0.1724,81.608 -0.0938,84.9651 -0.051,88.3759 -0.0277,92.4521 -0.0151,96.5734 -0.0082,100.4 -0.0045,104.7001 -0.0024,109.2578 0.3156,113.0048 0.8055,115.994 1.072,118.8878 1.217,121.7297 1.2959,124.5433 1.3388,127.0247 1.3622,129.3254 1.3749,131.8446 1.3818,134.4827 1.0686,136.8687 0.5813,138.8004 0.3162,141.119 0.172,144.2818 0.0936,147.2701 0.0509,150.1634 0.0277,153.3219 0.0151,155.9909 0.0082,158.7105 0.0045,161.46 0.0024,164.2256 0.0013,166.9978 0.0007,169.7736 0.0004,172.5513 0.0002,175.0131 0.0001,177.62 0.0001,180.3058 0,183.0346 0,185.7868 0,188.5516 0,191.3233 0,194.0989 0,196.8764 0,199.6551 0,202.7513 0,206.0202 0,209.0662 0,211.9909 0,214.8496 0,217.6724 0,220.4757 0,223.2684 -0.3169,225.7384 -0.8062,227.7159 -1.0724,229.7447 -1.2172,231.8014 -1.296,233.871 -1.3389,236.2645 -1.3622,238.8343 -1.3749,241.183 -1.0648,243.0946 -0.5793,245.0852 -0.3151,247.4358 -0.1714,249.9822 -0.0933,252.6351 -0.0507,255.0291 -0.0276,257.2821 -0.015,259.7755 -0.0082,262.3995 -0.0044,265.0947 -0.0024,267.8286 -0.0013,270.5835 -0.0007,273.3498 -0.0004,276.1224 -0.0002,278.8983 -0.0001,281.6761 0,284.7227 L0,286.38 " stroke-linecap="round" fill="none" stroke="#ffc034" stroke-width="3" stroke-dasharray="none" stroke-dashoffset="0"/></g></g><g transform="matrix(1, 0, 0, 1, 2542.3029, 24554.2588)" opacity="1"><g transform="scale(1)"><path d="M0,0 Q1.2677,-2.5354 1.6125,-3.8588 T2.4618,-6.5361 3.2407,-9.2602 3.0306,-15.8151 1.9656,-24.1371 0.7524,-29.298 -0.8584,-32.7395 -3.0023,-35.2454 -5.4363,-36.9256 -7.7112,-38.1565 -9.5825,-39.1431 -11.5513,-39.9967 -13.2561,-41.0949 -14.5005,-42.643 -14.8605,-44.436 -14.2384,-46.2715 L-13.9,-47.27 " stroke-linecap="round" fill="none" stroke="#ffc034" stroke-width="3" stroke-dasharray="none" stroke-dashoffset="0"/></g></g><g transform="matrix(1, 0, 0, 1, 2572.8875, 24501.4308)" opacity="1"><g transform="scale(1)"><path d="M1.39,0 Q0.1223,3.1692 -0.5394,4.3481 T-1.5611,6.8023 -2.7508,11.3065 -3.7149,16.926 -2.9716,20.9338 -0.9827,23.4309 1.05,25.1063 3.1066,26.3346 5.8099,27.0028 8.5482,27.0494 10.6717,26.7578 12.4607,26.2823 14.2932,25.4648 L15.29,25.02 " stroke-linecap="round" fill="none" stroke="#ffc034" stroke-width="3" stroke-dasharray="none" stroke-dashoffset="0"/></g></g><g transform="matrix(1, 0, 0, 1, 2577.0581, 24512.5525)" opacity="1"><g transform="scale(1)"><path d="M0,0 Q-6.3384,1.9015 -8.6963,2.4187 T-12.0199,2.9004 -14.1379,2.8224 L-15.29,2.78 " stroke-linecap="round" fill="none" stroke="#ffc034" stroke-width="3" stroke-dasharray="none" stroke-dashoffset="0"/></g></g><g transform="matrix(1, 0, 0, 1, 2786.9799, 24409.6769)" opacity="1"><g transform="scale(1)"><path d="M0,0 Q0,6.3384 0,8.6963 T-0.3169,12.9707 -0.8062,14.9791 -0.7555,14.487 -0.0941,13.2686 0.8996,11.655 2.074,9.8264 3.3467,8.1979 4.6729,6.6781 6.3451,5.2175 8.5224,4.106 10.3408,4.1352 11.3299,5.1018 11.868,6.5784 11.8439,8.6494 11.5138,10.4098 11.6511,11.0506 12.3597,10.7653 13.379,9.9763 14.5673,8.9132 16.1645,7.3842 18.618,5.6016 21.5373,3.998 24.71,2.4918 27.7037,1.0386 30.2852,0.2481 32.6426,0.7688 34.242,2.3198 35.112,4.7481 35.2684,7.9706 34.7197,10.9913 33.8455,13.7754 L33.37,15.29 " stroke-linecap="round" fill="none" stroke="#ffc034" stroke-width="3" stroke-dasharray="none" stroke-dashoffset="0"/></g></g><g transform="matrix(1, 0, 0, 1, 2842.5883, 24412.4573)" opacity="1"><g transform="scale(1)"><path d="M0,0 Q-2.5354,1.2677 -3.225,1.9294 T-4.6067,3.9019 -5.6752,6.5595 -5.6227,8.956 -4.6433,10.8935 -3.1598,12.2645 0.8164,10.158 5.5149,5.8429 7.7539,2.5447 8.3381,-0.2003 8.3393,-2.7713 L8.34,-4.17 " stroke-linecap="round" fill="none" stroke="#ffc034" stroke-width="3" stroke-dasharray="none" stroke-dashoffset="0"/></g></g><g transform="matrix(1, 0, 0, 1, 2871.7827, 24386.0434)" opacity="1"><g transform="scale(1)"><path d="M0,0 Q-1.9015,6.9722 -3.0526,9.8194 T-4.8298,15.1663 -6.1135,20.2934 -7.1288,24.9841 -7.6811,28.8058 -7.9816,32.1548 -8.145,35.2443 -5.6986,37.2419 -0.2073,38.3352 L2.78,38.93 " stroke-linecap="round" fill="none" stroke="#ffc034" stroke-width="3" stroke-dasharray="none" stroke-dashoffset="0"/></g></g><g transform="matrix(1, 0, 0, 1, 2871.7827, 24411.0671)" opacity="1"><g transform="scale(1)"><path d="M0,0 Q-4.4369,-0.6338 -6.2776,-0.8062 T-10.0703,-1.0724 -13.7182,-1.2172 -17.437,-1.3291 L-19.46,-1.39 " stroke-linecap="round" fill="none" stroke="#ffc034" stroke-width="3" stroke-dasharray="none" stroke-dashoffset="0"/></g></g><g transform="matrix(1, 0, 0, 1, 2896.8065, 24413.8476)" opacity="1"><g transform="scale(1)"><path d="M0,0 Q-4.4369,-0.6338 -6.5945,-0.4893 T-10.2427,0.0507 -12.5443,0.9784 -11.261,3.3845 -8.0275,6.595 -6.9023,8.9753 -7.5579,10.904 -9.1822,12.2702 -11.6504,13.0134 -14.5778,13.1008 -17.121,12.1975 -19.5361,10.5994 L-20.85,9.73 " stroke-linecap="round" fill="none" stroke="#ffc034" stroke-width="3" stroke-dasharray="none" stroke-dashoffset="0"/></g></g><g transform="matrix(1, 0, 0, 1, 2913.489, 24394.3846)" opacity="1"><g transform="scale(1)"><path d="M0,0 Q-1.9015,4.4369 -2.7357,6.9114 T-4.3405,11.9997 -5.5304,16.6693 -6.1777,20.4772 -6.5299,23.4995 -6.4045,26.0944 -4.4348,27.8229 -0.6623,28.7083 L1.39,29.19 " stroke-linecap="round" fill="none" stroke="#ffc034" stroke-width="3" stroke-dasharray="none" stroke-dashoffset="0"/></g></g><g transform="matrix(1, 0, 0, 1, 2914.8792, 24409.6769)" opacity="1"><g transform="scale(1)"><path d="M0,0 Q-3.1692,0.6338 -4.982,0.8062 T-8.7317,1.3894 -12.0392,2.0235 -15.0449,2.5135 L-16.68,2.78 " stroke-linecap="round" fill="none" stroke="#ffc034" stroke-width="3" stroke-dasharray="none" stroke-dashoffset="0"/></g></g><g transform="matrix(1, 0, 0, 1, 2930.1716, 24409.6769)" opacity="1"><g transform="scale(1)"><path d="M0,0 Q-2.5354,2.5354 -3.8588,3.5419 T-6.2192,5.7298 -8.137,7.5539 -9.4973,9.497 -9.6034,11.5047 -8.0765,12.2801 -5.0275,11.1172 -1.7842,9.8508 0.2971,10.1126 1.7462,10.8889 3.4853,12.262 5.699,13.6428 8.3098,14.7096 L9.73,15.29 " stroke-linecap="round" fill="none" stroke="#ffc034" stroke-width="3" stroke-dasharray="none" stroke-dashoffset="0"/></g></g><g transform="matrix(1, 0, 0, 1, 2928.7813, 24397.165)" opacity="1"><g transform="scale(1)"><path d="M1.9015,-0.6338 Q3.803,-1.2677 5.1544,-0.9786 T7.2409,-0.2155 8.059,0.8335 6.6025,1.7211 3.2265,2.4069 0.695,1.39 1.9015,-0.6338 Z" stroke-linecap="round" fill="none" stroke="#ffc034" stroke-width="3" stroke-dasharray="none" stroke-dashoffset="0"/></g></g><g transform="matrix(1, 0, 0, 1, 2941.2932, 24415.2378)" opacity="1"><g transform="scale(1)"><path d="M0,0 Q3.1692,0.6338 4.3481,0.4893 T6.4853,-0.0507 8.2818,-0.9784 9.893,-2.7507 9.8186,-2.764 8.1936,-0.236 6.6758,2.407 5.8501,4.7955 6.0347,6.4118 7.0859,7.2911 8.9255,7.7694 11.5108,7.7127 14.5018,7.048 17.7131,6.0843 L19.46,5.56 " stroke-linecap="round" fill="none" stroke="#ffc034" stroke-width="3" stroke-dasharray="none" stroke-dashoffset="0"/></g></g><g transform="matrix(1, 0, 0, 1, 2966.317, 24412.4573)" opacity="1"><g transform="scale(1)"><path d="M0,0 Q0,4.4369 2.8523,4.376 T7.2562,4.599 9.9689,5.6711 11.7615,7.5219 13.1465,9.8523 L13.9,11.12 " stroke-linecap="round" fill="none" stroke="#ffc034" stroke-width="3" stroke-dasharray="none" stroke-dashoffset="0"/></g></g><g transform="matrix(1, 0, 0, 1, 3001.0723, 24409.6769)" opacity="1"><g transform="scale(1)"><path d="M0,0 Q-3.1692,1.2677 -4.6651,1.9294 T-7.6085,3.268 -10.1605,4.947 -12.1826,7.1281 -13.5996,9.2653 -10.8843,10.111 -5.2872,9.6204 -1.2916,8.7196 1.8327,6.645 4.4831,3.298 6.2419,-0.1074 7.1986,-3.5446 7.7191,-6.999 8.0022,-9.512 8.1562,-10.5622 7.9231,-10.4996 7.4794,-9.1979 6.9211,-6.9052 6.3004,-4.3903 5.9628,-1.4375 5.7791,1.7533 5.6792,5.0738 5.6248,8.7816 6.2291,11.7494 7.8255,13.3639 9.9593,14.6114 L11.12,15.29 " stroke-linecap="round" fill="none" stroke="#ffc034" stroke-width="3" stroke-dasharray="none" stroke-dashoffset="0"/></g></g><g transform="matrix(1, 0, 0, 1, 3020.5352, 24422.1888)" opacity="1"><g transform="scale(1)"><path d="M1.39,0 Q3.2915,-1.2677 4.1257,-1.9294 T5.7305,-3.268 7.2373,-4.6301 8.0571,-6.3218 7.8692,-7.559 7.1331,-7.5982 6.0989,-6.6688 5.2193,-4.8955 4.7408,-2.6632 5.4313,-0.1811 7.3915,1.803 10.3594,2.8824 14.1923,3.4695 18.179,3.472 22.6097,3.0238 L25.02,2.78 " stroke-linecap="round" fill="none" stroke="#ffc034" stroke-width="3" stroke-dasharray="none" stroke-dashoffset="0"/></g></g><g transform="matrix(1, 0, 0, 1, 2499.2064, 24423.579)" opacity="1"><g transform="scale(1)"><path d="M0,0 Q1.2677,4.4369 1.6125,6.5945 T2.4618,10.8766 3.5577,15.4244 4.7876,19.8 6.0906,23.7649 7.4332,27.1895 8.4806,29.0525 9.3672,29.1152 10.1665,27.8816 10.9182,25.9429 11.961,23.6205 12.8452,21.4064 13.6431,19.5681 14.3941,17.6173 15.4365,15.6053 16.9543,14.1938 18.0969,13.7429 19.0354,14.1315 20.1798,15.2936 21.4362,17.1935 22.4365,19.4947 22.9808,21.6973 23.9107,23.5294 25.3673,24.526 26.4766,24.4344 27.3337,23.9134 L27.8,23.63 " stroke-linecap="round" fill="none" stroke="#ffc034" stroke-width="3" stroke-dasharray="none" stroke-dashoffset="0"/></g></g><g transform="matrix(1, 0, 0, 1, 2528.4008, 24433.3105)" opacity="1"><g transform="scale(1)"><path d="M0,0 Q0.6338,3.1692 1.1232,4.3481 T2.5125,6.1684 4.2191,7.1587 5.7813,7.3804 8.2158,4.6488 10.8078,-0.3233 11.9009,-4.2959 12.1787,-6.14 12.3297,-5.8755 12.4119,-4.7809 12.7736,-2.9177 13.6041,-0.3196 14.6898,2.3615 15.9143,5.0877 17.2142,7.5215 18.5552,9.7963 19.9186,12.3014 21.2941,15.2488 22.3592,18.4368 22.9387,21.1218 22.937,23.5332 21.9853,25.7958 19.883,27.6605 17.1548,28.9918 14.4029,29.716 11.6382,29.7931 8.8666,29.2011 6.408,27.9284 4.0583,26.0447 L2.78,25.02 " stroke-linecap="round" fill="none" stroke="#ffc034" stroke-width="3" stroke-dasharray="none" stroke-dashoffset="0"/></g></g><g transform="matrix(1, 0, 0, 1, 2550.6442, 24424.9692)" opacity="1"><g transform="scale(1)"><path d="M0,0 Q3.1692,10.1414 4.0312,13.2168 T5.9216,19.9611 L6.95,23.63 " stroke-linecap="round" fill="none" stroke="#ffc034" stroke-width="3" stroke-dasharray="none" stroke-dashoffset="0"/></g></g><g transform="matrix(1, 0, 0, 1, 2550.6442, 24420.7986)" opacity="1"><g transform="scale(1)"><path d="M0,0 Q1.2677,-2.5354 1.9294,-3.5419 T3.585,-5.4129 5.7533,-6.7477 8.5174,-5.5722 10.9719,-2.7144 11.9902,-0.2089 11.9103,2.1048 10.9161,3.6804 9.1075,4.8544 6.856,5.81 4.2161,6.5483 L2.78,6.95 " stroke-linecap="round" fill="none" stroke="#ffc034" stroke-width="3" stroke-dasharray="none" stroke-dashoffset="0"/></g></g><g transform="matrix(1, 0, 0, 1, 2572.8875, 24419.4084)" opacity="1"><g transform="scale(1)"><path d="M 0 0 m -0.5, 0 a 0.5,0.5 0 1,0 1,0 a 0.5,0.5 0 1,0 -1,0" stroke-linecap="round" fill="#ffc034" stroke="#ffc034" stroke-width="3" stroke-dasharray="none" stroke-dashoffset="0"/></g></g><g transform="matrix(1, 0, 0, 1, 2493.6455, 24582.063)" opacity="1"><g transform="scale(1)"><path d="M0,0 Q-1.2677,9.5076 -1.9294,12.7275 T-3.268,18.016 -4.3132,21.8436 -5.1986,24.8767 -3.145,23.9913 1.1414,20.3404 4.7409,18.0374 7.9667,16.7846 10.3554,16.7369 11.9717,17.6617 12.851,19.4325 13.3294,21.9804 13.2726,24.3172 12.608,26.8561 11.9295,29.5073 11.8773,30.6325 12.4827,30.2917 13.4006,29.5782 L13.9,29.19 " stroke-linecap="round" fill="none" stroke="#ffc034" stroke-width="3" stroke-dasharray="none" stroke-dashoffset="0"/></g></g><g transform="matrix(1, 0, 0, 1, 2517.2791, 24605.6966)" opacity="1"><g transform="scale(1)"><path d="M0,0 Q1.2677,-1.2677 0.0279,-0.3448 T-1.8863,1.7139 -2.9277,3.7847 -3.1773,5.545 -2.3623,7.1364 -0.3343,8.636 2.3535,9.7687 5.0833,10.3849 7.5191,10.4032 9.4781,9.7793 11.1775,8.8061 12.419,7.3259 13.0943,5.2529 13.4617,2.8576 13.6616,0.6038 13.1365,-0.9392 11.9,-1.7786 10.4946,-2.4272 L9.73,-2.78 " stroke-linecap="round" fill="none" stroke="#ffc034" stroke-width="3" stroke-dasharray="none" stroke-dashoffset="0"/></g></g><g transform="matrix(1, 0, 0, 1, 2549.2539, 24598.7455)" opacity="1"><g transform="scale(1)"><path d="M0,0 Q-1.2677,1.2677 -2.2463,1.9294 T-3.7574,3.585 -3.9455,5.4363 -3.0971,6.7604 -1.6848,7.7976 -0.2827,8.9957 0.797,10.2813 1.3843,11.6145 1.07,12.9736 -0.0518,14.3468 -1.9297,15.4107 -4.2189,16.3064 -6.732,16.7937 -8.7329,16.4249 -10.1383,15.5905 -11.2198,14.5027 -12.0554,13.2121 L-12.51,12.51 " stroke-linecap="round" fill="none" stroke="#ffc034" stroke-width="3" stroke-dasharray="none" stroke-dashoffset="0"/></g></g><g transform="matrix(1, 0, 0, 1, 2568.7169, 24583.4532)" opacity="1"><g transform="scale(1)"><path d="M0,0 Q-3.1692,6.9722 -4.0312,9.8194 T-5.6791,15.1663 -7.2094,19.9765 -8.3588,24.1779 -8.3502,26.7803 -7.4433,28.341 L-6.95,29.19 " stroke-linecap="round" fill="none" stroke="#ffc034" stroke-width="3" stroke-dasharray="none" stroke-dashoffset="0"/></g></g><g transform="matrix(1, 0, 0, 1, 2568.7169, 24605.6966)" opacity="1"><g transform="scale(1)"><path d="M-0.3169,1.5846 Q-0.6338,3.1692 -0.4893,3.3974 T0.0507,3.1159 0.9181,1.9981 0.695,0.695 -0.3169,1.5846 Z" stroke-linecap="round" fill="none" stroke="#ffc034" stroke-width="3" stroke-dasharray="none" stroke-dashoffset="0"/></g></g><g transform="matrix(1, 0, 0, 1, 2575.6679, 24583.4532)" opacity="1"><g transform="scale(1)"><path d="M0,0 L-1.39,1.39 " stroke-linecap="round" fill="none" stroke="#ffc034" stroke-width="3" stroke-dasharray="none" stroke-dashoffset="0"/></g></g><g transform="matrix(1, 0, 0, 1, 2586.7896, 24604.3064)" opacity="1"><g transform="scale(1)"><path d="M-1.0663,1.7771 T-2.719,0.8157 -6.3317,-0.4739 -8.9798,-1.1266 -7.9179,-0.3644 -4.4165,0.8268 -2.1014,0.2251 -1.5375,-0.4811 A2.1388,2.1388 0 0 1 2.2214,1.5605 T0.0596,3.3776 -3.5669,5.3025 -6.7671,4.8955 -10.8408,2.7674 -12.4764,-1.0522 -10.3391,-4.1303 -7.2992,-5.0329 -3.9485,-4.4313 -0.5684,-2.7881 1.0663,-1.7771 A2.0724,2.0724 0 0 1 -1.0663,1.7771 ZM-1.4648,1.6844 T-1.5462,1.5571 -1.6276,1.4298 A2.14,2.14 0 0 1 1.988,-0.8609 T2.0683,-0.7329 2.1486,-0.6049 A2.1388,2.1388 0 0 1 -1.4648,1.6844 ZM2.3179,0.3848 T2.2702,1.7418 2.5507,5.3717 3.7088,10.4113 5.0229,14.7859 5.8597,19.4486 5.0573,24.2151 2.3804,26.7544 -0.6909,27.9594 -3.9949,28.1767 -7.3324,27.9175 -10.6872,27.3866 -14.0459,26.3493 -16.8928,25.0221 -19.4344,23.5071 -21.6933,20.9456 -23.333,17.6651 -23.9949,16.153 A1.9556,1.9556 0 0 1 -20.4851,14.427 T-19.3632,16.762 -16.0962,20.0938 -11.2792,21.8674 -6.8255,22.7348 -3.1882,22.838 0.1083,22.2856 1.1499,19.7075 0.1155,14.693 -1.0278,10.2107 -1.8293,5.8709 -2.04,1.598 -1.9575,0.184 A2.14,2.14 0 0 1 2.3179,0.3848 Z" stroke-linecap="round" fill="#ffc034"/></g></g><g transform="matrix(1, 0, 0, 1, 2597.9113, 24604.3064)" opacity="1"><g transform="scale(1)"><path d="M-1.8968,0.9484 T-2.2351,0.2957 -2.5735,-0.3569 A2.1422,2.1422 0 0 1 1.2585,-2.2729 T1.5777,-1.6107 1.8968,-0.9484 A2.1207,2.1207 0 0 1 -1.8968,0.9484 ZM-0.0887,0.7503 T-0.9498,0.9774 -2.2519,2.9295 -1.3795,5.5161 1.1008,5.481 2.6636,3.5137 3.0594,2.4431 A2.1163,2.1163 0 0 1 7.13,3.6029 T6.3158,5.5314 4.3966,8.5594 0.6548,9.9878 -3.4727,9.3782 -5.9421,6.6437 -5.4028,1.11 -2.5556,-3.004 -1.2262,-3.3802 A2.1422,2.1422 0 0 1 -0.0887,0.7503 ZM4.5569,5.0698 T4.3383,5.0119 4.1197,4.954 A2.1154,2.1154 0 0 1 5.1949,0.8621 T5.4137,0.9191 5.6325,0.9762 A2.1163,2.1163 0 0 1 4.5569,5.0698 ZM6.7575,3.1613 T6.6441,4.1172 6.472,7.7216 7.2366,13.3238 8.6551,17.7677 9.8989,20.6941 10.9929,24.1443 11.6049,28.0467 10.923,31.5308 8.2698,33.9515 3.5948,34.7166 -0.6439,33.6237 -3.0316,31.6806 -4.0505,30.7706 A2.028,2.028 0 0 1 -1.5095,27.6094 T0.1382,28.9099 3.3004,30.0996 5.6679,28.5393 6.293,25.5532 5.4358,22.458 4.2245,19.2022 3.1672,15.6477 2.3805,12.0489 2.1962,7.437 2.4401,3.6107 2.5571,2.6548 A2.1154,2.1154 0 0 1 6.7575,3.1613 Z" stroke-linecap="round" fill="#ffc034"/></g></g><g transform="matrix(1, 0, 0, 1, 2610.4232, 24605.6966)" opacity="1"><g transform="scale(1)"><path d="M-0.7683,-1.7927 T1.5003,-2.7944 5.0797,-6.3868 6.3904,-8.9775 A2.0511,2.0511 0 0 1 10.2896,-7.7025 T9.4013,-5.3282 6.9744,-1.5513 3.102,0.822 0.7683,1.7927 A1.9505,1.9505 0 0 1 -0.7683,-1.7927 ZM9.8884,-6.9948 T7.3388,-4.0229 3.9587,0.8526 3.7594,4.3094 6.4488,6.3977 10.372,6.5116 13.4332,5.6795 14.6292,5.2684 A1.8068,1.8068 0 0 1 15.9508,8.6316 T13.5165,9.6732 9.3567,10.9213 6.0329,10.7899 2.652,9.505 -0.0475,6.8685 -0.9261,3.1165 0.5348,-1.5707 4.3745,-6.9403 6.7916,-9.6852 A2.0511,2.0511 0 0 1 9.8884,-6.9948 Z" stroke-linecap="round" fill="#ffc034"/></g></g><g transform="matrix(1, 0, 0, 1, 2629.8861, 24602.9162)" opacity="1"><g transform="scale(1)"><path d="M2.2028,0.3147 T1.9469,2.6078 0.8416,4.4503 2.0678,2.9104 6.5463,1.5543 10.5081,2.3068 13.2223,4.9986 14.9904,7.5197 15.6034,8.3684 A2.1807,2.1807 0 0 1 12.1966,11.0916 T11.5037,10.3067 9.8176,8.193 7.4176,6.5361 2.6629,7.4744 -1.8455,6.5223 -2.6044,1.9945 -2.2028,-0.3147 A2.2252,2.2252 0 0 1 2.2028,0.3147 Z" stroke-linecap="round" fill="#ffc034"/></g></g><g transform="matrix(1, 0, 0, 1, 2661.861, 24601.5259)" opacity="1"><g transform="scale(1)"><path d="M-1.6048,1.6048 T-2.0472,1.0473 -2.8299,2.9877 -0.9317,5.2043 2.4415,3.8032 4.9088,1.1159 7.2302,-2.1513 9.116,-5.4558 10.4148,-8.9619 11.0717,-12.571 11.1518,-14.9074 10.9768,-15.5362 A2.017,2.017 0 0 1 14.9263,-16.3576 T15.1476,-15.0808 15.1284,-11.8958 14.3494,-7.5229 12.9235,-3.3683 10.8866,0.3782 8.2598,4.2524 5.0803,7.631 1.4799,9.9815 -2.5353,10.535 -6.1917,8.4727 -8.1256,3.2522 -5.9302,-1.8945 -1.7404,-3.3833 0.7323,-2.3622 1.6048,-1.6048 A2.2695,2.2695 0 0 1 -1.6048,1.6048 ZM13.9524,-14.1958 T13.0654,-13.7126 11.1546,-11.526 9.2263,-7.5004 7.7495,-2.4053 7.254,2.2496 8.5311,5.0247 11.7226,6.3191 15.6048,6.8848 19.4701,5.8537 22.7865,3.3697 25.1243,0.5863 25.9779,-0.9629 25.8356,-1.0169 A2.2817,2.2817 0 0 1 30.3037,-1.9443 T30.4035,-0.8321 29.2151,2.7021 26.9159,6.3562 23.9159,8.8816 19.6301,11.156 15.1525,11.9465 10.0265,10.8771 4.9674,7.5316 2.6633,3.6216 3.1919,-0.561 4.1467,-4.77 4.836,-7.7621 5.9923,-10.5623 8.2299,-14.1202 10.8573,-17.0492 11.9507,-17.698 A2.017,2.017 0 0 1 13.9524,-14.1958 ZM28.8977,0.6455 T28.1629,0.8983 26.5124,2.2959 25.2121,5.3548 27.1972,8.5132 31.0878,10.0887 35.1743,10.045 39.4445,9.3117 41.149,8.9534 A2.238,2.238 0 0 1 42.271,13.2866 T40.6069,13.8006 37.2282,14.8274 33.5283,15.4735 29.407,15.142 25.4879,13.7858 22.1774,11.5386 20.2075,8.7238 19.9289,5.6896 20.938,2.4455 23.3911,-0.9451 26.1203,-3.1366 27.2417,-3.6067 A2.2817,2.2817 0 0 1 28.8977,0.6455 Z" stroke-linecap="round" fill="#ffc034"/></g></g><g transform="matrix(1, 0, 0, 1, 2469.8017, 24732.4707)" opacity="1"><g transform="scale(1)"><path d="M-0.1091,1.9637 T-4.0234,1.7622 -10.2549,1.8904 -14.2204,2.5988 -17.5576,4.3607 -20.4149,7.6056 -21.148,11.5659 -15.7589,14.3077 -7.6005,15.2403 -2.5724,15.4678 0.8708,14.8003 3.4816,12.5756 4.5215,8.9898 3.3849,5.8243 0.5998,4.1382 -2.1728,3.2498 -3.3455,2.8485 A2.0155,2.0155 0 0 1 -2.1745,-1.0085 T0.054,-0.4225 4.1135,0.8977 7.1067,2.9743 8.8138,6.491 8.9313,10.7744 7.511,14.7343 4.6186,17.9171 1.0526,19.5294 -2.705,19.8623 -8.1936,19.5962 -17.5139,17.9408 -24.9408,13.5232 -25.8891,8.9499 -23.7337,5.0918 -20.8882,1.5932 -18.2222,-0.2799 -14.9463,-1.4142 -10.4091,-2.1198 -3.8095,-2.1973 0.1091,-1.9637 A1.9667,1.9667 0 0 1 -0.1091,1.9637 Z" stroke-linecap="round" fill="#ffc034"/></g></g><g transform="matrix(1, 0, 0, 1, 2488.2025, 24741.6711)" opacity="1"><g transform="scale(1)"><path d="M2.3363,-0.7788 T3.229,1.8247 4.8203,6.4494 6.0894,9.9178 7.7556,12.7986 8.8512,14.2323 A2.6232,2.6232 0 0 1 5.5844,18.3376 T4.2761,17.1129 2.395,14.5496 1.2448,11.6495 0.0134,8.0518 -1.4884,3.3972 -2.3363,0.7788 A2.4626,2.4626 0 0 1 2.3363,-0.7788 ZM5.5117,14.2923 T6.1924,13.7301 8.4582,9.8589 11.4664,3.3639 12.8895,0.1781 A1.9751,1.9751 0 0 1 16.5505,1.6619 T15.3539,4.9395 13.0455,11.3555 11.1209,15.7725 9.616,17.6644 8.9239,18.2775 A2.6232,2.6232 0 0 1 5.5117,14.2923 Z" stroke-linecap="round" fill="#ffc034"/></g></g><g transform="matrix(1, 0, 0, 1, 2502.0031, 24749.0315)" opacity="1"><g transform="scale(1)"><path d="M-0.331,-1.8206 T2.0573,-2.2651 5.9649,-3.3367 9.5184,-5.2786 12.8071,-8.4582 14.0617,-10.3233 A1.9372,1.9372 0 0 1 17.2183,-8.0767 T14.5151,-5.0995 10.3435,-1.2784 7.0015,0.2671 2.7295,1.3947 0.331,1.8206 A1.8505,1.8505 0 0 1 -0.331,-1.8206 ZM16.9915,-7.8121 T14.9258,-5.8292 11.6128,-2.3557 10.0127,0.8811 10.592,4.0725 13.2874,5.7142 16.6667,5.4886 19.2511,3.5161 20.7523,0.3518 21.4201,-2.8969 21.9246,-6.8225 24.595,-10.0645 28.6237,-11.1014 32.317,-11.2121 36.2971,-11.4335 40.7068,-11.9141 44.9806,-12.5259 49.0154,-13.246 51.1719,-13.6384 A1.7142,1.7142 0 0 1 51.8681,-10.2816 T49.7335,-9.7839 45.6261,-8.8152 41.2177,-7.9381 36.5843,-7.2449 32.4879,-6.8903 29.113,-6.7339 26.8346,-5.4623 25.8398,-2.2755 24.999,1.6473 23.0683,5.5865 19.5125,8.6881 14.5892,9.7166 9.63,8.4115 6.705,5.8555 6.1942,2.1303 6.7811,-1.6804 8.9716,-5.0432 12.4844,-8.8025 14.2885,-10.5879 A1.9372,1.9372 0 0 1 16.9915,-7.8121 Z" stroke-linecap="round" fill="#ffc034"/></g></g><g transform="matrix(1, 0, 0, 1, 2601.3673, 24738.911)" opacity="1"><g transform="scale(1)"><path d="M0.8039,1.9292 T-1.7974,3.0401 -5.9237,4.9224 -6.6764,7.8546 -4.8317,11.6501 -3.5777,15.0507 -4.169,18.4223 -6.1775,21.1042 -8.6307,23.0663 -11.4049,24.5471 -14.4653,25.415 -17.4233,25.8051 -21.3767,25.2911 -24.8889,23.5318 -26.588,21.4699 -27.2742,20.5366 A1.9424,1.9424 0 0 1 -24.2458,18.1034 T-23.1938,19.4655 -20.7051,21.098 -16.883,21.0435 -12.3882,19.6254 -9.0578,17.5572 -8.4856,14.8191 -11.2499,8.8651 -11.3675,3.2478 -7.7072,1.011 -3.4246,-0.8643 -0.8039,-1.9292 A2.09,2.09 0 0 1 0.8039,1.9292 Z" stroke-linecap="round" fill="#ffc034"/></g></g><g transform="matrix(1, 0, 0, 1, 2599.5272, 24755.4717)" opacity="1"><g transform="scale(1)"><path d="M-0.1772,-1.9493 T2.2073,-2.1649 6.8638,-3.5151 10.0534,-6.2205 10.9319,-8.5353 10.8928,-9.2793 A1.9888,1.9888 0 0 1 14.8672,-9.1207 T14.1456,-6.4625 12.3177,-2.5619 9.8217,-0.5111 6.7068,0.9038 2.5794,1.7297 0.1772,1.9493 A1.9573,1.9573 0 0 1 -0.1772,-1.9493 ZM14.7308,-8.472 T13.4088,-5.0571 11.4651,0.1703 11.0532,3.6182 13.4425,5.6399 17.4579,5.3151 20.7667,3.311 22.8351,0.4195 23.7109,-2.8762 24.3697,-7.1049 24.7481,-9.6362 A2.3792,2.3792 0 0 1 29.4032,-8.6504 T29.1777,-7.5586 28.7518,-4.1291 27.792,0.5949 25.4061,5.1309 22.5158,8.0924 18.4723,9.7518 14.0953,10.5349 11.0546,9.8665 8.4913,8.1144 6.9348,5.5079 6.7077,2.3262 7.66,-1.3783 9.7161,-6.6439 11.0292,-9.928 A1.9888,1.9888 0 0 1 14.7308,-8.472 ZM27.0379,-11.5222 T28.3344,-11.5302 31.7682,-11.262 36.5402,-10.1616 39.1749,-9.3376 A2.0487,2.0487 0 0 1 38.1051,-5.3824 T35.5626,-5.9588 31.3483,-6.6828 28.3949,-6.7974 27.1134,-6.7645 A2.3792,2.3792 0 0 1 27.0379,-11.5222 Z" stroke-linecap="round" fill="#ffc034"/></g></g><g transform="matrix(1, 0, 0, 1, 2665.7701, 24743.5112)" opacity="1"><g transform="scale(1)"><path d="M1.8494,-0.4932 T2.7626,2.7565 4.5385,7.77 6.236,10.4004 7.0707,11.2671 A2.0775,2.0775 0 0 1 5.0623,14.9044 T4.1623,14.2912 2.4589,12.4747 0.7305,9.1599 -1.0219,3.7709 -1.8494,0.4932 A1.914,1.914 0 0 1 1.8494,-0.4932 ZM4.6564,11.5601 T5.181,11.0806 6.8628,8.9876 9.4753,4.8489 12.5651,-0.5977 14.1995,-3.519 A1.6282,1.6282 0 0 1 17.0805,-2.001 T15.5952,0.9988 12.7651,6.7879 9.9709,11.6061 7.9989,14.1233 7.4765,14.6114 A2.0775,2.0775 0 0 1 4.6564,11.5601 Z" stroke-linecap="round" fill="#ffc034"/></g></g><g transform="matrix(1, 0, 0, 1, 2686.931, 24752.7116)" opacity="1"><g transform="scale(1)"><path d="M 0 0 m -2.633441917710341, 0 a 2.633441917710341,2.633441917710341 0 1,1 5.266883835420682,0 a 2.633441917710341,2.633441917710341 0 1,1 -5.266883835420682,0" stroke-linecap="round" fill="#ffc034"/></g></g><g transform="matrix(1, 0, 0, 1, 2688.7711, 24722.3503)" opacity="1"><g transform="scale(1)"><path d="M-1.4072,0 T-1.4154,-1.38 -1.4235,-2.76 A1.4235,1.4235 0 0 1 1.4235,-2.76 T1.4154,-1.38 1.4072,0 A1.4072,1.4072 0 0 1 -1.4072,0 Z" stroke-linecap="round" fill="#ffc034"/></g></g><g transform="matrix(1, 0, 0, 1, 2720.0524, 24748.1114)" opacity="1"><g transform="scale(1)"><path d="M-1.9982,0.333 T-2.189,-0.9135 -3.0455,0.2637 -3.0933,4.3636 -1.0877,5.3133 1.1577,3.1654 2.0151,1.744 A1.9505,1.9505 0 0 1 5.3449,3.776 T4.9147,4.507 3.4166,6.6474 0.5286,8.8409 -3.4568,9.1233 -6.4195,7.35 -7.5025,4.1648 -7.1781,-0.8371 -4.4789,-5.055 -0.4402,-4.6233 1.7539,-1.6975 1.9982,-0.333 A2.0258,2.0258 0 0 1 -1.9982,0.333 ZM5.5134,3.4256 T5.195,4.2104 5.2352,6.4444 7.7945,6.4308 10.945,3.757 13.0784,1.0276 15.5023,-2.5032 18.3156,-6.9431 21.0967,-11.855 23.3905,-16.7606 25.2251,-21.4836 26.3457,-25.8026 26.9065,-29.7333 26.7129,-34.036 25.5912,-37.1259 24.8523,-37.8266 A1.9363,1.9363 0 0 1 26.7546,-41.1999 T27.9254,-40.3568 29.8679,-37.0303 30.7213,-32.8969 30.5513,-29.1814 29.8357,-24.886 28.5343,-20.2016 26.5986,-15.2717 24.2156,-10.118 21.425,-5.025 18.6202,-0.3892 16.1638,3.3928 13.9911,6.2822 11.8088,8.9079 8.8563,11.2317 5.091,11.6852 2.2445,9.7108 1.1979,6.4352 1.4324,3.3275 1.8466,2.0944 A1.9505,1.9505 0 0 1 5.5134,3.4256 ZM27.1386,-38.1109 T26.7035,-37.7012 25.6038,-35.4574 24.4066,-30.4679 23.7236,-25.4341 23.4952,-21.681 23.3845,-17.735 23.3404,-13.6988 23.3266,-9.8301 23.5302,-6.4073 24.0433,-3.146 24.3501,-1.4039 A2.1162,2.1162 0 0 1 20.42,0.1671 T19.9534,-2.0916 19.2726,-6.1514 19.0837,-9.8716 19.151,-13.7771 19.2608,-17.887 19.442,-21.9667 19.7677,-26.011 20.3285,-29.7495 20.965,-33.1367 22.4048,-37.456 24.0124,-40.4771 24.4682,-40.9156 A1.9363,1.9363 0 0 1 27.1386,-38.1109 ZM20.3112,-1.0394 T20.573,-2.0047 20.6587,-4.5379 20.1598,-7.8899 19.4549,-11.5401 19.2174,-14.1953 19.3619,-14.9844 A1.5522,1.5522 0 0 1 22.3494,-14.1406 T22.2208,-13.9627 22.6009,-11.985 23.6016,-8.3409 24.4586,-4.5695 24.6413,-1.4199 24.459,-0.1974 A2.1162,2.1162 0 0 1 20.3112,-1.0394 ZM20.742,-16.1105 T21.2853,-16.1573 23.3826,-15.6685 26.7841,-14.4072 30.5736,-13.4276 33.8311,-13.0467 35.1465,-12.9197 A1.8889,1.8889 0 0 1 34.7735,-9.1603 T32.169,-9.4325 27.3084,-10.4718 23.4817,-12.1544 21.4404,-13.0422 20.9694,-13.0145 A1.5522,1.5522 0 0 1 20.742,-16.1105 Z" stroke-linecap="round" fill="#ffc034"/></g></g><g transform="matrix(1, 0, 0, 1, 2482.6822, 24815.2743)" opacity="1"><g transform="scale(1)"><path d="M0.9524,1.7857 T-2.2993,3.5489 -7.4377,6.4487 -7.5088,10.1675 -4.5038,14.0759 -2.8486,16.8549 -2.9223,19.775 -5.5697,22.9145 -10.2837,25.6956 -15.5314,27.2797 -20.3204,27.4478 -24.0965,25.4631 -25.6122,21.637 -25.2326,18.6749 -24.9659,17.8612 A2.0384,2.0384 0 0 1 -21.0341,18.9388 T-21.4567,20.2648 -20.2557,22.3739 -16.5796,22.8411 -12.1946,21.6121 -8.0987,19.6075 -7.2711,17.3666 -10.0806,14.8702 -13.4843,11.8777 -14.4265,8.0032 -12.6595,4.8456 -9.4922,2.7837 -4.2281,-0.0676 -0.9524,-1.7857 A2.0238,2.0238 0 0 1 0.9524,1.7857 Z" stroke-linecap="round" fill="#ffc034"/></g></g><g transform="matrix(1, 0, 0, 1, 2491.8826, 24829.0749)" opacity="1"><g transform="scale(1)"><path d="M1.4151,0.3538 T1.0033,2.1214 -0.9358,6.0652 -2.4632,8.2414 A1.5025,1.5025 0 0 1 -4.8968,6.4786 T-3.6145,4.7761 -1.8736,1.3599 -1.4151,-0.3538 A1.4586,1.4586 0 0 1 1.4151,0.3538 Z" stroke-linecap="round" fill="#ffc034"/></g></g><g transform="matrix(1, 0, 0, 1, 2494.6428, 24793.1933)" opacity="1"><g transform="scale(1)"><path d="M1.2376,-0.4951 T2.1418,1.8113 3.0459,4.1176 A1.2988,1.2988 0 0 1 0.6341,5.0824 T-0.3018,2.7887 -1.2376,0.4951 A1.333,1.333 0 0 1 1.2376,-0.4951 Z" stroke-linecap="round" fill="#ffc034"/></g></g><g transform="matrix(1, 0, 0, 1, 2502.0031, 24823.5546)" opacity="1"><g transform="scale(1)"><path d="M1.9961,-0.3327 T2.4396,2.2789 2.9303,6.8606 3.0051,10.3865 3.0328,11.9422 A2.1129,2.1129 0 0 1 -1.1928,11.9778 T-1.1913,10.4177 -1.1661,7.2055 -1.5692,2.943 -1.9961,0.3327 A2.0236,2.0236 0 0 1 1.9961,-0.3327 ZM-1.1929,11.9675 T-1.1196,11.2229 2.0168,6.9643 6.9239,1.9841 10.1358,0.0764 13.5825,0.9354 16.1191,4.2059 17.1188,7.8336 17.6608,9.4913 A2.1163,2.1163 0 0 1 13.6192,10.7487 T13.0155,8.7235 11.8144,5.2168 9.6436,5.0035 5.4745,8.772 2.9558,11.6124 3.0329,11.9525 A2.1129,2.1129 0 0 1 -1.1929,11.9675 Z" stroke-linecap="round" fill="#ffc034"/></g></g><g transform="matrix(1, 0, 0, 1, 2548.9251, 24802.3937)" opacity="1"><g transform="scale(1)"><path d="M1.3925,0.7957 T-2.0076,6.9341 -7.3687,17.341 -10.3246,24.6602 -11.8428,29.9345 -12.6402,33.9435 -12.9949,37.764 -12.2106,40.9853 -11.3457,42.1716 A1.8696,1.8696 0 0 1 -14.4143,44.3084 T-15.0045,43.5176 -16.46,40.3762 -17.1761,36.5467 -16.7004,33.1181 -15.7572,28.7815 -13.9724,23.1741 -10.6609,15.625 -4.955,5.2503 -1.3925,-0.7957 A1.6038,1.6038 0 0 1 1.3925,0.7957 Z" stroke-linecap="round" fill="#ffc034"/></g></g><g transform="matrix(1, 0, 0, 1, 2551.6852, 24819.8745)" opacity="1"><g transform="scale(1)"><path d="M0,-2.0327 T2.3945,-2.0699 7.5643,-0.836 10.2496,3.057 8.3898,7.4155 6.3357,9.9547 6.0512,10.7573 A2.1953,2.1953 0 0 1 1.6978,10.188 T1.9392,9.0936 4.2377,6.1762 6.1572,2.3942 5.4022,1.2711 2.3923,2.0699 0,2.0327 A2.0327,2.0327 0 0 1 0,-2.0327 ZM5.3692,8.8648 T6.1808,9.635 8.8272,12.0868 11.5344,15.1566 12.0276,18.3751 10.1275,21.4036 6.7039,22.8759 3.1479,23.1891 0.1024,22.6778 -2.3955,21.6047 -3.5011,21.0822 A1.9117,1.9117 0 0 1 -2.0189,17.5578 T-0.2427,18.2823 2.9919,18.9357 6.4876,18.4053 7.5648,16.6749 5.3043,14.4814 3.1918,12.8197 2.3798,12.0804 A2.1953,2.1953 0 0 1 5.3692,8.8648 Z" stroke-linecap="round" fill="#ffc034"/></g></g><g transform="matrix(1, 0, 0, 1, 2579.2864, 24827.2348)" opacity="1"><g transform="scale(1)"><path d="M0.7709,2.0558 T-0.9635,2.7031 -4.5617,4.7989 -7.2798,7.6264 -6.3402,9.877 -2.3504,10.0282 1.4348,8.021 3.0282,4.7664 2.5132,1.2749 1.9944,-0.2491 A1.8142,1.8142 0 0 1 5.3656,-1.5909 T6.036,-0.1273 7.0813,4.4166 5.8424,9.6429 2.9297,12.6198 0.0851,14.0875 -2.8931,14.9908 -5.8607,15.2587 -9.6502,13.784 -12.0303,9.7672 -10.6828,5.0448 -8.1017,1.9592 -5.6291,0.1579 -2.5178,-1.3976 -0.7709,-2.0558 A2.1956,2.1956 0 0 1 0.7709,2.0558 Z" stroke-linecap="round" fill="#ffc034"/></g></g><g transform="matrix(1, 0, 0, 1, 2592.1669, 24816.1943)" opacity="1"><g transform="scale(1)"><path d="M0.6315,1.5788 T-0.4496,2.0282 -2.8064,2.5996 -2.1142,3.0969 1.6136,2.6356 2.506,0.1227 1.6386,-1.5534 A1.6473,1.6473 0 0 1 3.8814,-3.9666 T4.5082,-3.4262 6.2024,-1.2039 6.4675,2.5948 4.471,5.5208 1.2362,6.7133 -3.3916,6.4352 -6.0419,3.9727 -4.4629,0.7174 -1.7262,-1.1579 -0.6315,-1.5788 A1.7004,1.7004 0 0 1 0.6315,1.5788 Z" stroke-linecap="round" fill="#ffc034"/></g></g><g transform="matrix(1, 0, 0, 1, 2604.1274, 24804.2338)" opacity="1"><g transform="scale(1)"><path d="M1.8039,-0.902 T3.8091,2.9911 7.1339,9.8604 9.2016,15.3844 10.3582,20.1915 10.7744,24.4498 10.3216,28.5323 9.1481,32.4079 7.5469,35.8688 4.2646,39.0756 -0.3408,41.8997 -2.5519,43.1857 A2.1122,2.1122 0 0 1 -4.8081,39.6143 T-2.6971,38.1699 0.8989,35.8129 3.0766,33.5704 4.4045,30.8196 5.4861,27.8628 6.0096,24.7607 5.8011,21.166 4.9466,16.8519 3.1981,11.6739 0.1074,4.8417 -1.8039,0.902 A2.0169,2.0169 0 0 1 1.8039,-0.902 Z" stroke-linecap="round" fill="#ffc034"/></g></g><g transform="matrix(1, 0, 0, 1, 2635.4088, 24815.2743)" opacity="1"><g transform="scale(1)"><path d="M0.2121,-1.4846 T1.7403,-1.3033 5.5263,-0.9554 8.9952,-0.7093 10.2061,-0.6297 A1.5521,1.5521 0 0 1 10.0339,2.4697 T8.8216,2.4146 5.2165,2.1759 1.3058,1.7385 -0.2121,1.4846 A1.4997,1.4997 0 0 1 0.2121,-1.4846 Z" stroke-linecap="round" fill="#ffc034"/></g></g><g transform="matrix(1, 0, 0, 1, 2631.7286, 24823.5546)" opacity="1"><g transform="scale(1)"><path d="M0,-1.6607 T3.0461,-1.7107 9.4861,-1.7967 12.88,-1.8327 A1.8327,1.8327 0 0 1 12.88,1.8327 T9.4861,1.7967 3.0461,1.7107 0,1.6607 A1.6607,1.6607 0 0 1 0,-1.6607 Z" stroke-linecap="round" fill="#ffc034"/></g></g><g transform="matrix(1, 0, 0, 1, 2465.985, 24930.9515)" opacity="1"><g transform="scale(1)"><path d="M-0.4645,2.3256 T-2.2568,1.9701 -6.2105,2.2107 -8.6991,1.538 -8.2287,1.6167 -5.9048,4.949 -3.4627,8.3624 -2.3111,11.4023 -2.5074,14.4589 -4.1488,17.2235 -7.2037,19.5654 -11.0663,21.4268 -15.052,22.7275 -18.7352,23.0372 -23.0371,21.6697 -27.3435,18.7034 -29.0627,16.952 A2.1908,2.1908 0 0 1 -26.1173,13.708 T-25.132,14.5079 -22.9466,16.4713 -19.9612,17.7582 -16.6783,17.5142 -12.0987,15.8291 -8.0422,13.3734 -8.544,10.0952 -10.8821,6.6451 -12.6764,3.5322 -11.717,-0.0161 -8.1999,-2.2531 -4.8859,-2.9033 -1.3663,-2.6938 0.4645,-2.3256 A2.3715,2.3715 0 0 1 -0.4645,2.3256 Z" stroke-linecap="round" fill="#ffc034"/></g></g><g transform="matrix(1, 0, 0, 1, 2476.7131, 24938.6144)" opacity="1"><g transform="scale(1)"><path d="M1.5222,0 T1.5827,3.83 1.6432,7.66 A1.6432,1.6432 0 0 1 -1.6432,7.66 T-1.5827,3.83 -1.5222,0 A1.5222,1.5222 0 0 1 1.5222,0 Z" stroke-linecap="round" fill="#ffc034"/></g></g><g transform="matrix(1, 0, 0, 1, 2488.9737, 24895.7023)" opacity="1"><g transform="scale(1)"><path d="M 0 0 m -2.633441917710341, 0 a 2.633441917710341,2.633441917710341 0 1,1 5.266883835420682,0 a 2.633441917710341,2.633441917710341 0 1,1 -5.266883835420682,0" stroke-linecap="round" fill="#ffc034"/></g></g><g transform="matrix(1, 0, 0, 1, 2493.5714, 24932.4841)" opacity="1"><g transform="scale(1)"><path d="M2.2796,0.325 T1.8282,2.8527 -0.0842,5.9168 0.2988,5.8666 4.1547,4.9195 7.8734,4.7326 11.0296,5.4926 13.8767,7.7374 16.2126,10.8817 18.1184,13.6551 20.1406,15.6237 21.1951,16.3051 A2.4439,2.4439 0 0 1 18.6449,20.4749 T17.5579,19.8465 14.616,17.0993 11.5183,12.5949 8.53,9.6061 4.9777,9.2265 0.5246,9.9722 -2.473,7.6321 -2.5519,2.2226 -2.2796,-0.325 A2.3026,2.3026 0 0 1 2.2796,0.325 Z" stroke-linecap="round" fill="#ffc034"/></g></g><g transform="matrix(1, 0, 0, 1, 2544.1465, 24907.9629)" opacity="1"><g transform="scale(1)"><path d="M1.3642,1.0432 T-3.2368,7.288 -10.5494,17.8686 -14.9573,26.188 -17.4981,33.6138 -18.4486,39.7789 -18.3644,44.1039 -16.621,47.006 -13.7922,49.3697 -12.5168,50.4334 A2.1052,2.1052 0 0 1 -15.0632,53.7866 T-16.4303,52.8436 -19.2166,50.8909 -21.78,48.3454 -23.2986,44.5323 -23.4685,38.9991 -22.1456,31.9685 -18.9992,23.9858 -13.9888,15.444 -6.1854,5.0337 -1.3642,-1.0432 A1.7173,1.7173 0 0 1 1.3642,1.0432 Z" stroke-linecap="round" fill="#ffc034"/></g></g><g transform="matrix(1, 0, 0, 1, 2548.7442, 24920.2235)" opacity="1"><g transform="scale(1)"><path d="M2.3133,0 T2.3268,2.1833 1.9629,6.1431 1.4472,9.6502 0.8472,13.6059 -0.3719,17.1961 0.8152,18.6754 5.3055,19.1861 7.8513,19.5826 A1.8871,1.8871 0 0 1 7.4687,23.3374 T4.8952,23.2122 -0.3285,22.733 -3.9872,20.1177 -4.7251,16.3027 -3.9868,12.8184 -2.9297,7.6122 -2.3268,2.1683 -2.3133,0 A2.3133,2.3133 0 0 1 2.3133,0 Z" stroke-linecap="round" fill="#ffc034"/></g></g><g transform="matrix(1, 0, 0, 1, 2562.5374, 24921.7561)" opacity="1"><g transform="scale(1)"><path d="M2.0886,0.2084 T1.7971,3.8412 0.9954,10.9143 0.2313,16.7989 -0.6091,21.7468 -1.8084,26.9192 -2.4213,29.5879 A2.2284,2.2284 0 0 1 -6.7787,28.6521 T-6.2419,25.9671 -5.2595,20.9807 -4.4832,16.1342 -3.5526,10.3087 -2.5208,3.4099 -2.0886,-0.2084 A2.099,2.099 0 0 1 2.0886,0.2084 Z" stroke-linecap="round" fill="#ffc034"/></g></g><g transform="matrix(1, 0, 0, 1, 2573.2654, 24930.9515)" opacity="1"><g transform="scale(1)"><path d="M2.169,-0.5414 T2.5328,0.9422 2.7489,3.9446 2.8814,7.1967 3.9618,11.8018 4.8576,16.5254 3.831,19.9153 0.8995,21.6877 -2.3522,21.002 -4.7856,19.2547 -5.7769,18.4273 A1.96,1.96 0 0 1 -3.4231,15.2927 T-1.4321,16.5582 0.1689,15.3494 -0.7667,11.2098 -1.3807,6.459 -1.8091,1.9573 -2.169,0.5414 A2.2355,2.2355 0 0 1 2.169,-0.5414 Z" stroke-linecap="round" fill="#ffc034"/></g></g><g transform="matrix(1, 0, 0, 1, 2571.7329, 24924.8212)" opacity="1"><g transform="scale(1)"><path d="M1.9594,-2.1526 T3.7706,-1.7788 7.1656,-1.1724 10.6151,-0.6773 12.4808,-0.4147 A1.9571,1.9571 0 0 1 12.0392,3.4747 T10.1621,3.3123 6.5095,3.0012 2.9173,2.5025 1.1006,2.1526 A2.195,2.195 0 0 1 1.9594,-2.1526 Z" stroke-linecap="round" fill="#ffc034"/></g></g><g transform="matrix(1, 0, 0, 1, 2596.2541, 24917.1583)" opacity="1"><g transform="scale(1)"><path d="M1.5734,1.5734 T0.496,2.6686 -1.7411,5.7163 -1.4287,8.5707 0.4798,7.7352 1.9036,3.4697 2.8911,0.9415 A1.8074,1.8074 0 0 1 6.3089,2.1185 T5.5302,4.7187 3.6529,10.0947 -0.2759,13.1402 -4.4876,12.5354 -6.5057,10.3303 -7.1524,7.5306 -6.5349,4.7493 -4.8387,2.0124 -2.6718,-0.4928 -1.5734,-1.5734 A2.2252,2.2252 0 0 1 1.5734,1.5734 Z" stroke-linecap="round" fill="#ffc034"/></g></g><g transform="matrix(1, 0, 0, 1, 2606.9822, 24912.5606)" opacity="1"><g transform="scale(1)"><path d="M2.3675,-1.3526 T3.8215,1.1862 6.1531,5.9785 7.7982,9.9767 9.3975,13.8044 10.7524,18.2821 11.5604,23.0325 12.0091,27.7193 12.2645,31.995 12.4135,36.0701 12.1095,40.3713 11.0847,44.227 8.5802,47.6924 5.0777,50.9364 3.4163,52.3998 A2.621,2.621 0 0 1 -0.3563,48.7602 T1.0467,47.0474 3.7857,43.2952 5.4559,39.764 5.7851,36.2075 5.7534,32.2565 5.666,28.1776 5.4641,23.8862 5.0375,19.8576 4.0496,15.9251 2.5858,12.0424 1.174,8.2941 -0.922,3.8891 -2.3675,1.3526 A2.7266,2.7266 0 0 1 2.3675,-1.3526 Z" stroke-linecap="round" fill="#ffc034"/></g></g><g transform="matrix(1, 0, 0, 1, 2649.8943, 24934.0167)" opacity="1"><g transform="scale(1)"><path d="M0.2814,-1.4087 T2.1093,-1.1288 6.5767,-0.6021 10.9534,-0.5514 13.7561,-1.0962 14.8215,-1.4449 A1.5317,1.5317 0 0 1 15.8385,1.4449 T14.7894,1.8403 11.3606,2.6016 6.145,2.6319 1.5139,1.8524 -0.2814,1.4087 A1.4365,1.4365 0 0 1 0.2814,-1.4087 Z" stroke-linecap="round" fill="#ffc034"/></g></g><g transform="matrix(1, 0, 0, 1, 2649.8943, 24940.147)" opacity="1"><g transform="scale(1)"><path d="M1.0754,-1.3438 T2.9391,0.0382 7.222,2.3692 11.6126,3.3069 15.0498,3.045 16.5156,2.7945 A1.8381,1.8381 0 0 1 17.2044,6.4055 T15.7493,6.7121 11.425,7.083 6.925,6.6368 3.8688,5.2524 0.684,2.8613 -1.0754,1.3438 A1.7212,1.7212 0 0 1 1.0754,-1.3438 Z" stroke-linecap="round" fill="#ffc034"/></g></g><g transform="matrix(1, 0, 0, 1, 3069.8205, 24808.3454)" opacity="1"><g transform="scale(1)"><path d="M0,2.0552 T-2.8974,2.0891 -7.8771,2.4997 -11.7346,3.4229 -15.1526,4.6132 -18.8272,6.5765 -21.9593,9.3849 -20.1945,13.0107 -15.2038,16.4481 -11.3412,18.4138 -7.7238,19.4849 -4.2884,19.8302 -0.6789,19.6937 1.3755,19.6178 A1.8487,1.8487 0 0 1 1.6845,23.3022 T-0.3539,23.5695 -4.5107,24.0845 -8.9727,23.9492 -13.4658,22.7353 -18.1092,20.3651 -23.7569,15.5749 -26.4008,9.5773 -23.5751,4.6918 -19.8293,1.7901 -16.575,0.3624 -12.7029,-0.8658 -8.229,-1.7761 -2.9016,-2.0891 0,-2.0552 A2.0552,2.0552 0 0 1 0,2.0552 Z" stroke-linecap="round" fill="#4dabf7"/></g></g><g transform="matrix(1, 0, 0, 1, 3094.3418, 24819.0734)" opacity="1"><g transform="scale(1)"><path d="M0.3891,0.81 T-1.7865,1.1664 -5.6891,2.0457 -7.9611,1.7522 -7.7474,3.4014 -5.7367,7.1023 -2.0578,9.3038 2.0927,9.7527 5.1409,7.2922 6.8809,3.7729 6.9961,0.2544 6.2886,-2.737 5.8812,-3.786 A1.9562,1.9562 0 0 1 9.4388,-5.414 T10.5384,-3.1622 11.8148,1.2024 11.4322,5.586 9.7181,9.7672 7.0563,12.892 3.913,14.602 0.6403,15.1582 -2.8185,14.6183 -6.4354,12.8658 -9.9288,9.5707 -12.348,4.8554 -10.9185,0.1562 -6.7548,-2.5533 -2.5651,-3.5027 -0.3891,-3.87 A2.3721,2.3721 0 0 1 0.3891,0.81 Z" stroke-linecap="round" fill="#4dabf7"/></g></g><g transform="matrix(1, 0, 0, 1, 3117.3304, 24816.0082)" opacity="1"><g transform="scale(1)"><path d="M-1.2718,-1.9056 T-0.1803,-2.6263 0.9111,-3.3471 A2.2782,2.2782 0 0 1 3.4405,0.4428 T2.3561,1.1742 1.2718,1.9056 A2.2911,2.2911 0 0 1 -1.2718,-1.9056 ZM3.2902,0.535 T3.0326,0.3331 3.4979,2.1172 5.8135,5.6144 9.2036,9.2855 11.4919,13.3505 11.9831,15.2558 A2.51,2.51 0 0 1 7.0474,16.1725 T6.3716,14.1093 4.0148,10.289 1.1637,7.1477 -0.5148,4.2239 -0.9134,0.4919 0.1289,-2.5699 1.0614,-3.4392 A2.2782,2.2782 0 0 1 3.2902,0.535 ZM10.0851,18.1586 T8.926,18.4553 5.5061,18.9446 1.3809,19.168 -2.1271,18.8005 -5.2284,18.0031 -6.6862,17.604 A2.341,2.341 0 0 1 -5.5738,13.056 T-3.1053,13.6209 1.1245,14.066 4.7499,13.8533 7.7796,13.515 8.9453,13.2696 A2.51,2.51 0 0 1 10.0851,18.1586 Z" stroke-linecap="round" fill="#4dabf7"/></g></g><g transform="matrix(1, 0, 0, 1, 3158.71, 24794.5522)" opacity="1"><g transform="scale(1)"><path d="M1.304,1.1299 T-3.2993,6.6589 -10.5645,16.4454 -14.2542,24.3711 -12.5131,30.9481 -6.4537,37.7504 -3.1633,41.6438 A1.9151,1.9151 0 0 1 -6.0367,44.1762 T-9.4858,40.4226 -16.2147,32.7144 -18.2502,23.5329 -13.9738,13.9333 -6.1228,4.2154 -1.304,-1.1299 A1.7254,1.7254 0 0 1 1.304,1.1299 Z" stroke-linecap="round" fill="#4dabf7"/></g></g><g transform="matrix(1, 0, 0, 1, 3160.2426, 24809.8779)" opacity="1"><g transform="scale(1)"><path d="M1.142,-1.999 T3.7006,-0.5856 8.0862,2.0169 10.8366,4.6586 11.6646,7.8371 9.7872,11.2665 9.2963,15.573 10.5033,19.6763 10.4194,21.1765 A2.4681,2.4681 0 0 1 5.535,20.4627 T5.5776,19.315 4.5802,16.839 3.4103,13.9426 4.0327,10.8621 5.9096,8.2231 5.4628,6.0338 1.3746,3.4851 -1.142,1.999 A2.3023,2.3023 0 0 1 1.142,-1.999 ZM9.3116,22.8959 T8.4905,23.4178 6.116,24.3288 2.8104,24.4599 -1.8501,23.8079 -4.7583,23.4139 A1.9603,1.9603 0 0 1 -4.4417,19.5061 T-2.8465,19.5569 0.2747,19.6515 3.4455,19.724 5.8665,19.248 6.6428,18.7433 A2.4681,2.4681 0 0 1 9.3116,22.8959 Z" stroke-linecap="round" fill="#4dabf7"/></g></g><g transform="matrix(1, 0, 0, 1, 3186.2964, 24820.606)" opacity="1"><g transform="scale(1)"><path d="M0,2.3136 T-0.6751,2.3027 -1.088,3.9921 0.3619,6.4838 3.0033,7.7499 6.252,8.2376 8.746,5.6009 9.809,1.2968 10.1727,-0.3576 A2.1177,2.1177 0 0 1 14.3473,0.3576 T14.1396,2.0387 13.715,5.4087 12.7007,9.078 9.0283,12.1276 4.4028,13.0575 0.4214,11.8776 -3.4939,8.7526 -4.9254,3.2235 -3.1132,-1.2565 -0.777,-2.3027 0,-2.3136 A2.3136,2.3136 0 0 1 0,2.3136 Z" stroke-linecap="round" fill="#4dabf7"/></g></g><g transform="matrix(1, 0, 0, 1, 3203.1547, 24803.7476)" opacity="1"><g transform="scale(1)"><path d="M1.1905,1.1905 T0.1498,2.295 -1.4412,3.4191 -0.2093,4.2279 2.211,3.6418 2.8492,2.2665 A1.8994,1.8994 0 0 1 6.3508,0.7935 T6.9544,2.5762 6.2465,6.0342 2.8297,8.2116 -1.9646,7.4072 -4.0571,3.5265 -2.3256,-0.1192 -1.1905,-1.1905 A1.6837,1.6837 0 0 1 1.1905,1.1905 Z" stroke-linecap="round" fill="#4dabf7"/></g></g><g transform="matrix(1, 0, 0, 1, 3216.9479, 24796.0847)" opacity="1"><g transform="scale(1)"><path d="M2.4414,-0.4877 T2.8089,1.3217 3.709,4.6601 4.8891,7.7161 5.9882,11.4268 7.001,15.6113 7.9072,19.6185 6.924,27.1032 4.4672,35.3458 2.292,39.9383 0.1627,43.6696 -0.9198,45.5729 A2.4304,2.4304 0 0 1 -5.2202,43.3071 T-4.2624,41.338 -2.5202,37.7213 -0.7716,33.6164 1.4618,26.7287 2.5033,20.6353 1.7495,16.7566 0.9855,12.8526 0.0865,9.4722 -1.1518,5.9478 -2.0852,2.3015 -2.4414,0.4877 A2.4897,2.4897 0 0 1 2.4414,-0.4877 Z" stroke-linecap="round" fill="#4dabf7"/></g></g><g transform="matrix(1, 0, 0, 1, 3246.0669, 24803.7476)" opacity="1"><g transform="scale(1)"><path d="M0.2042,-1.4318 T2.7436,-1.0826 8.1117,-0.3393 10.9404,0.0548 A1.4901,1.4901 0 0 1 10.5196,3.0052 T7.6936,2.5929 2.3317,1.8063 -0.2042,1.4318 A1.4463,1.4463 0 0 1 0.2042,-1.4318 Z" stroke-linecap="round" fill="#4dabf7"/></g></g><g transform="matrix(1, 0, 0, 1, 3244.5343, 24812.9431)" opacity="1"><g transform="scale(1)"><path d="M0.692,-1.7267 T2.524,-1.0565 5.8977,-0.0855 8.9521,0.3754 11.977,0.6671 15.2414,0.9457 16.9935,1.0925 A1.982,1.982 0 0 1 16.7265,5.0475 T14.9706,4.9575 11.5786,4.7868 8.2363,4.4627 4.7102,3.755 1.0992,2.5086 -0.692,1.7267 A1.8602,1.8602 0 0 1 0.692,-1.7267 Z" stroke-linecap="round" fill="#4dabf7"/></g></g><g transform="matrix(1, 0, 0, 1, 2694.4363, 24900.3034)" opacity="1"><g transform="scale(1)"><path d="M1.849,-0.2921 T2.9744,6.2808 5.0388,16.5845 6.9545,22.9774 7.9313,25.6394 A2.1997,2.1997 0 0 1 3.7887,27.1206 T2.774,24.2132 0.911,17.3991 -0.8932,6.8922 -1.849,0.2921 A1.872,1.872 0 0 1 1.849,-0.2921 ZM3.6681,26.195 T4.1261,21.0679 5.0682,13.4956 6.2083,9.22 7.1472,5.9686 7.9689,2.6068 9.302,-2.152 11.5795,-6.8036 15.4007,-9.5761 19.9698,-10.7346 23.8923,-11.0193 27.1595,-11.129 30.259,-11.2042 33.6275,-11.2615 37.1233,-11.2951 40.8802,-12.1011 45.1502,-14.1367 48.6864,-16.0826 50.774,-17.1539 51.4896,-17.516 A2.503,2.503 0 0 1 53.7996,-13.0748 T53.0923,-12.6967 51.0569,-11.6235 47.2973,-9.5598 43.4051,-7.619 40.3891,-6.6572 37.1589,-6.2701 33.6468,-6.2903 30.2967,-6.3224 27.2262,-6.3497 24.0453,-6.3684 20.498,-6.2659 16.7732,-5.241 14.0995,-2.6602 12.938,0.4067 12.1543,3.61 11.3005,7.1384 10.3793,10.3823 9.3094,14.4917 8.4268,21.8252 8.0519,26.565 A2.1997,2.1997 0 0 1 3.6681,26.195 ZM54.9735,-16.2129 T55.6042,-14.5252 56.0113,-10.8757 55.6082,-5.7201 55.3191,-0.8874 55.1023,2.5995 54.995,4.4473 A2.2255,2.2255 0 0 1 50.545,4.3527 T50.5164,2.502 50.4488,-1.0292 50.4723,-4.6047 50.9396,-9.2199 50.8301,-13.159 50.3158,-14.3779 A2.503,2.503 0 0 1 54.9735,-16.2129 Z" stroke-linecap="round" fill="#ffc034"/></g></g><g transform="matrix(1, 0, 0, 1, 2720.8208, 24907.6324)" opacity="1"><g transform="scale(1)"><path d="M0,-2.1327 T2.0812,-2.196 7.4948,-0.782 9.4364,4.1599 6.1224,9.8491 6.0384,13.7381 9.9336,15.7397 13.9736,16.2591 18.2839,16.6244 20.6102,16.8075 A2.2543,2.2543 0 0 1 20.4298,21.3125 T18.0963,21.309 13.5646,21.3202 9.8616,21.1758 6.0096,20.1083 2.0649,18.5617 -0.905,16.4499 -2.1835,13.1314 -0.7682,10.0215 2.0824,7.1714 4.822,3.1407 5.0928,1.4773 2.0765,2.196 0,2.1327 A2.1327,2.1327 0 0 1 0,-2.1327 Z" stroke-linecap="round" fill="#ffc034"/></g></g><g transform="matrix(1, 0, 0, 1, 2757.4659, 24938.4143)" opacity="1"><g transform="scale(1)"><path d="M0.1694,2.0275 T-3.9818,2.4803 -12.0961,3.2065 -20.2335,3.6442 -27.9929,3.9112 -34.5061,4.066 -40.0197,4.1461 -44.6654,4.1471 -48.7473,3.7173 -52.7402,2.9008 -54.7117,2.487 A2.5332,2.5332 0 0 1 -53.7483,-2.487 T-51.765,-2.1348 -48.2536,-1.4979 -44.6803,-1.2552 -40.0596,-1.2973 -34.5688,-1.2991 -28.0902,-1.2997 -20.4058,-1.3276 -12.3958,-1.4495 -4.3382,-1.785 -0.1694,-2.0275 A2.0346,2.0346 0 0 1 0.1694,2.0275 Z" stroke-linecap="round" fill="#ffc034"/></g></g><g transform="matrix(1, 0, 0, 1, 2713.4917, 24964.7988)" opacity="1"><g transform="scale(1)"><path d="M0,-2.5144 T1.7335,-2.533 5.0775,-2.5706 8.8123,-2.2489 12.8046,-1.3579 16.4413,1.506 15.759,7.6356 11.3033,13.7858 7.0659,17.8563 3.9788,20.576 3.1247,21.5594 A3.0285,3.0285 0 0 1 -1.2592,17.3799 T0.0433,16.1012 3.205,13.5858 6.8755,10.3522 10.8467,5.2726 12.9966,3.251 11.4797,3.8055 8.3225,2.9442 5.0697,2.5706 1.7335,2.533 0,2.5144 A2.5144,2.5144 0 0 1 0,-2.5144 ZM3.7154,18.2744 T3.9553,19.115 6.3237,20.2966 10.1686,21.2035 13.5684,21.9995 17.1852,22.3751 21.5168,22.667 26.2324,22.9724 31.3441,23.6451 37.049,24.6683 39.9598,25.1778 A2.6991,2.6991 0 0 1 39.2002,30.5222 T36.2627,30.2004 30.8702,29.6461 26.0411,29.4763 21.1024,29.5023 16.3232,29.2641 11.8607,28.6337 6.6375,27.0024 1.7448,24.9027 -1.0111,22.3353 -1.8498,20.665 A3.0285,3.0285 0 0 1 3.7154,18.2744 Z" stroke-linecap="round" fill="#ffc034"/></g></g><g transform="matrix(1, 0, 0, 1, 2713.145, 24781.9578)" opacity="1"><g transform="scale(1)"><path d="M1.7441,-0.3483 T2.1374,1.2974 2.7572,4.5659 2.7665,7.9286 2.3761,11.6674 2.0142,16.0078 1.8256,18.3493 A1.8289,1.8289 0 0 1 -1.8256,18.1307 T-1.7334,15.7833 -1.3012,10.016 -1.0838,5.1421 -1.4752,2.0183 -1.7441,0.3483 A1.7785,1.7785 0 0 1 1.7441,-0.3483 Z" stroke-linecap="round" fill="#ffc034"/></g></g><g transform="matrix(1, 0, 0, 1, 2729.9808, 24807.2115)" opacity="1"><g transform="scale(1)"><path d="M0.8103,2.0213 T-0.8447,2.6989 -4.1979,3.7952 -7.4792,4.4286 -10.9131,4.7583 -14.3862,4.9303 -17.8647,5.0191 -22.2366,5.2377 -27.6954,5.699 -30.6383,5.9734 A1.7785,1.7785 0 0 1 -31.1017,2.4466 T-28.1877,1.9515 -22.5329,0.9526 -17.9739,0.4265 -14.5849,0.3587 -11.3186,0.2337 -6.8775,-0.282 -2.471,-1.3697 -0.8103,-2.0213 A2.1777,2.1777 0 0 1 0.8103,2.0213 Z" stroke-linecap="round" fill="#ffc034"/></g></g><g transform="matrix(1, 0, 0, 1, 2704.7271, 24826.8533)" opacity="1"><g transform="scale(1)"><path d="M0.2753,-2.2062 T2.9333,-1.911 7.6169,-1.4798 11.3259,-0.8881 14.5552,1.6206 13.3171,7.3729 8.598,13.8179 7.9596,17.6747 12.2141,19.4464 16.5672,20.4048 19.6833,21.0496 21.4041,21.3964 A2.4804,2.4804 0 0 1 20.6759,26.3036 T18.9286,26.1358 15.4637,25.8041 12.1839,25.2668 9.0873,24.6444 5.9445,23.8366 2.7497,21.9469 0.8449,18.9505 1.4549,15.336 4.5083,10.6892 9.0304,5.1316 10.3256,2.8189 7.1231,3.1532 2.3738,2.5732 -0.2753,2.2062 A2.2233,2.2233 0 0 1 0.2753,-2.2062 Z" stroke-linecap="round" fill="#ffc034"/></g></g><g transform="matrix(1, 0, 0, 1, 3288.1996, 24780.0356)" opacity="1"><g transform="scale(1)"><path d="M2.2157,-0.37 T2.6852,2.2164 3.4347,8.0001 3.8734,13.7202 4.116,18.0043 4.2842,23.5641 4.3683,27.3626 A2.5388,2.5388 0 0 1 -0.7083,27.4574 T-0.7653,23.7025 -0.865,18.2144 -0.9895,14.0156 -1.2474,8.5577 -1.8196,2.9677 -2.2157,0.37 A2.2464,2.2464 0 0 1 2.2157,-0.37 ZM-0.6928,27.1255 T-0.2465,23.2936 0.4032,17.8859 1.1982,13.9637 2.5347,9.1102 3.6399,4.5726 4.7108,0.7341 5.6961,-2.545 6.7171,-7.0582 8.279,-11.593 10.398,-14.1652 13.6428,-15.3978 17.4274,-15.0608 21.8337,-13.716 26.5661,-12.5795 30.2376,-12.6522 33.4227,-13.5828 37.6903,-15.3151 41.9073,-17.6606 45.7181,-19.9972 49.5521,-21.2382 51.2075,-21.3318 A2.8711,2.8711 0 0 1 50.6384,-15.6179 T49.4953,-15.1632 46.5945,-13.62 42.5238,-11.4529 38.5651,-9.5246 34.8442,-8.0185 29.1144,-7.2058 23.6846,-7.4884 19.8031,-8.7015 15.8213,-10.2608 13.0349,-9.7834 11.4716,-5.7898 10.4247,-1.144 9.4722,2.1029 8.5082,5.7291 7.3948,10.4377 6.164,14.9256 5.3723,18.8921 4.7282,24.2398 4.3528,27.6945 A2.5388,2.5388 0 0 1 -0.6928,27.1255 ZM53.456,-19.8265 T53.9488,-18.8963 54.8349,-16.23 55.385,-12.3177 55.5993,-7.7351 55.6292,-3.2068 55.5187,0.5346 54.8463,3.4708 53.7436,5.6691 53.2306,6.5508 A2.3311,2.3311 0 0 1 49.0894,4.4092 T49.7626,3.1733 50.3136,0.4746 50.0885,-3.0727 49.9009,-7.4565 49.5833,-12.5464 48.8702,-16.2301 48.39,-17.1232 A2.8711,2.8711 0 0 1 53.456,-19.8265 Z" stroke-linecap="round" fill="#4dabf7"/></g></g><g transform="matrix(1, 0, 0, 1, 3315.6054, 24781.8627)" opacity="1"><g transform="scale(1)"><path d="M3.3577,-2.0379 T5.1554,-0.6898 7.7948,2.2282 8.6364,3.7982 A2.6027,2.6027 0 0 1 3.852,5.8491 T3.7371,5.1875 1.9622,3.2818 0.3023,2.0379 A2.5469,2.5469 0 0 1 3.3577,-2.0379 ZM8.0452,6.7027 T7.4273,7.2942 5.7949,8.8025 4.7804,9.7194 A2.5896,2.5896 0 0 1 -0.2624,8.538 T1.4813,6.3259 3.8341,3.5291 4.4433,2.9446 A2.6027,2.6027 0 0 1 8.0452,6.7027 ZM4.2033,7.4182 T4.975,8.2976 6.8679,11.0497 8.8381,14.3649 10.5589,17.4096 11.9697,20.5393 12.3604,23.774 11.5171,26.912 9.716,29.3072 6.902,30.773 3.5069,31.4505 -0.3584,31.704 -4.544,31.7998 -8.3817,31.3214 -11.9589,30.084 -16.2664,28.5186 -18.8273,27.6941 A2.1863,2.1863 0 0 1 -17.7127,23.4659 T-16.2497,23.7743 -13.3307,24.3942 -9.236,25.5825 -4.6681,26.3956 0.6278,26.1346 5.472,25.1945 6.8532,22.9735 5.2581,18.7233 2.7888,14.2476 1.0666,11.6916 0.3147,10.8392 A2.5896,2.5896 0 0 1 4.2033,7.4182 Z" stroke-linecap="round" fill="#4dabf7"/></g></g><g transform="matrix(1, 0, 0, 1, 3335.7029, 24829.3659)" opacity="1"><g transform="scale(1)"><path d="M-0.3978,2.3824 T-3.0047,2.0405 -8.1767,1.5527 -13.3874,1.3477 -18.7243,1.2675 -24.1297,1.2428 -29.1386,1.2236 -33.5075,1.1965 -37.537,1.1387 -41.6749,1.0512 -43.8571,1.0099 A2.8399,2.8399 0 0 1 -43.8429,-4.6699 T-41.6605,-4.7003 -37.5164,-4.7672 -33.4713,-4.7967 -29.0791,-4.77 -24.0247,-4.6872 -18.529,-4.5185 -13.0267,-4.2317 -7.5155,-3.74 -2.1794,-2.9061 0.3978,-2.3824 A2.4154,2.4154 0 0 1 -0.3978,2.3824 Z" stroke-linecap="round" fill="#4dabf7"/></g></g><g transform="matrix(1, 0, 0, 1, 3297.3349, 24847.6364)" opacity="1"><g transform="scale(1)"><path d="M0.7045,-2.1153 T3.309,-1.2851 7.9259,0.5042 11.3041,3.1292 13.0883,7.5327 10.2253,13.3517 6.0326,18.0153 7.0233,21.4391 11.533,24.0168 16.7857,25.1946 20.9867,26.3207 25.2511,27.5743 27.9597,28.1437 A2.9676,2.9676 0 0 1 26.8603,33.9763 T25.2231,33.719 21.7534,33.124 17.8138,32.2704 13.7207,31.3643 10.3496,30.4067 6.4417,28.667 2.6655,26.8014 0.147,24.5405 -1.1854,21.3194 -0.4003,17.9959 2.0422,14.355 6.7395,10.3575 8.7361,6.9357 6.0399,4.7241 1.875,3.0115 -0.7045,2.1153 A2.2296,2.2296 0 0 1 0.7045,-2.1153 Z" stroke-linecap="round" fill="#4dabf7"/></g></g><g transform="matrix(1, 0, 0, 1, 3045.2021, 24960.9135)" opacity="1"><g transform="scale(1)"><path d="M0.6651,1.9918 T-0.6194,2.4487 -3.5621,3.8097 -6.2339,8.3197 -7.5045,14.1137 -6.4695,17.2228 -3.2272,18.4774 0.7402,19.1338 5.7712,18.9375 8.7851,18.418 A1.719,1.719 0 0 1 9.4949,21.782 T7.786,22.2194 4.2558,23.0807 0.2203,23.4334 -4.7872,22.9474 -9.2583,21.3849 -11.7788,18.1928 -12.1885,13.2251 -9.8178,5.8422 -5.5801,0.1041 -1.9726,-1.5831 -0.6651,-1.9918 A2.0999,2.0999 0 0 1 0.6651,1.9918 Z" stroke-linecap="round" fill="#4dabf7"/></g></g><g transform="matrix(1, 0, 0, 1, 3076.262, 24968.2217)" opacity="1"><g transform="scale(1)"><path d="M1.3679,1.3679 T0.0663,2.6583 -2.3454,5.0582 -4.1994,7.7211 -3.2017,10.7108 0.3887,12.1132 4.1254,11.3416 7.1112,9.4133 8.7389,5.7749 9.2687,3.3272 A1.7218,1.7218 0 0 1 12.6513,3.9728 T12.4275,5.433 11.9069,8.4882 9.9764,12.043 7.1097,14.7656 3.8951,15.8791 -0.9362,15.7778 -6.0407,12.6934 -7.9887,7.994 -6.9367,4.7035 -5.0703,2.3575 -2.6583,-0.0663 -1.3679,-1.3679 A1.9345,1.9345 0 0 1 1.3679,1.3679 Z" stroke-linecap="round" fill="#4dabf7"/></g></g><g transform="matrix(1, 0, 0, 1, 3103.6677, 24966.3946)" opacity="1"><g transform="scale(1)"><path d="M1.3801,1.3801 T0.6334,1.7038 0.8522,4.1929 2.6588,8.0373 4.4293,11.5484 4.7953,16.3048 2.2893,20.0794 -1.4848,21.1478 -5.1797,21.5841 -7.0433,21.8024 A1.7231,1.7231 0 0 1 -7.5767,18.3976 T-5.7355,18.0356 -2.4005,17.3707 0.357,16.0627 0.7634,13.2534 -0.9999,9.5051 -2.6229,4.4931 -2.3599,0.0227 -1.3801,-1.3801 A1.9518,1.9518 0 0 1 1.3801,1.3801 Z" stroke-linecap="round" fill="#4dabf7"/></g></g><g transform="matrix(1, 0, 0, 1, 3136.5546, 24949.9512)" opacity="1"><g transform="scale(1)"><path d="M1.3053,1.3053 T-2.5286,5.2475 -8.799,11.7159 -12.8456,16.3589 -15.1766,20.2774 -16.2629,23.8135 -16.9135,28.4257 -17.2346,32.9612 -14.9478,38.2123 -10.0828,44.8564 -7.5403,47.9071 A2.141,2.141 0 0 1 -10.7397,50.7529 T-13.4731,47.8718 -18.9752,41.9077 -22.1791,36.6355 -22.5086,32.6599 -22.2184,29.1359 -21.7257,25.8714 -20.8157,22.2344 -19.1003,17.9062 -16.1153,13.4628 -11.7169,8.8 -5.2475,2.5286 -1.3053,-1.3053 A1.846,1.846 0 0 1 1.3053,1.3053 Z" stroke-linecap="round" fill="#4dabf7"/></g></g><g transform="matrix(1, 0, 0, 1, 3140.2087, 24957.2594)" opacity="1"><g transform="scale(1)"><path d="M2.1419,0.6112 T1.305,3.6425 0.0913,9.4368 -0.4904,14.0981 1.6997,16.5805 7.6324,17.6478 11.1699,18.131 A1.9802,1.9802 0 0 1 10.7501,22.069 T7.1902,21.7955 0.0991,21.0237 -4.4841,18.0062 -5.2616,13.4734 -4.4541,8.4427 -3.0314,2.4071 -2.1419,-0.6112 A2.2274,2.2274 0 0 1 2.1419,0.6112 Z" stroke-linecap="round" fill="#4dabf7"/></g></g><g transform="matrix(1, 0, 0, 1, 3152.998, 24957.2594)" opacity="1"><g transform="scale(1)"><path d="M2.1183,0 T2.1307,2.592 2.1734,7.8483 1.7997,13.3908 0.7539,19.0855 -0.208,24.1045 -1.2001,28.1864 -2.5543,31.8982 -3.2363,33.7306 A2.396,2.396 0 0 1 -7.7237,32.0494 T-7.0338,30.2199 -5.7846,26.9831 -4.8513,23.1843 -3.8021,18.1678 -2.6653,13.0232 -2.1734,7.8439 -2.1307,2.592 -2.1183,0 A2.1183,2.1183 0 0 1 2.1183,0 Z" stroke-linecap="round" fill="#4dabf7"/></g></g><g transform="matrix(1, 0, 0, 1, 3171.2685, 24964.5676)" opacity="1"><g transform="scale(1)"><path d="M2.1425,0.5364 T1.7143,2.2716 0.5599,5.572 0.038,10.1866 1.1511,15.4786 2.6157,20.0031 2.8634,24.0529 0.8041,27.3937 -2.3411,29.5802 -5.181,30.484 -8.6074,29.9155 -12.1275,28.1861 -13.6671,27.3152 A1.9443,1.9443 0 0 1 -11.9129,23.8448 T-10.2987,24.568 -7.1851,25.5923 -3.6545,24.5626 -2.0154,21.3386 -3.297,17.0508 -4.9596,11.2793 -4.3749,5.4055 -2.5799,1.186 -2.1425,-0.5364 A2.2086,2.2086 0 0 1 2.1425,0.5364 Z" stroke-linecap="round" fill="#4dabf7"/></g></g><g transform="matrix(1, 0, 0, 1, 3167.6144, 24962.7405)" opacity="1"><g transform="scale(1)"><path d="M0.2806,-1.4016 T2.4535,-1.0252 6.1527,-0.4089 9.4253,0.1025 11.1716,0.3738 A1.4715,1.4715 0 0 1 10.7484,3.2862 T8.9971,3.0492 5.633,2.5962 1.8697,1.8908 -0.2806,1.4016 A1.4294,1.4294 0 0 1 0.2806,-1.4016 Z" stroke-linecap="round" fill="#4dabf7"/></g></g><g transform="matrix(1, 0, 0, 1, 3191.3661, 24955.4323)" opacity="1"><g transform="scale(1)"><path d="M1.5575,1.0374 T0.7033,1.5275 1.049,3.1024 3.8881,4.1429 6.4494,2.1591 8.2615,-2.0338 9.1514,-4.2871 A1.9175,1.9175 0 0 1 12.7686,-3.0129 T11.9307,-0.3609 10.3029,3.7663 8.3651,6.5657 5.3269,8.2485 1.4105,7.8992 -1.9588,5.1788 -2.4298,1.0645 -1.5575,-1.0374 A1.8714,1.8714 0 0 1 1.5575,1.0374 Z" stroke-linecap="round" fill="#4dabf7"/></g></g><g transform="matrix(1, 0, 0, 1, 3212.6359, 24947.7574)" opacity="1"><g transform="scale(1)"><path d="M2.3279,-0.7752 T3.0887,1.4569 4.7587,6.0636 6.6165,10.3407 8.3705,14.1048 9.8552,17.7041 10.9397,20.991 11.5743,24.4498 11.92,28.0831 11.8266,31.7213 8.6849,38.3745 2.7396,47.8671 -0.2737,52.6211 A2.1274,2.1274 0 0 1 -3.9263,50.4389 T-1.1678,45.5326 4.026,35.368 6.388,28.5198 5.907,24.1411 4.8833,19.6857 3.5573,16.2572 1.8629,12.3492 0.0044,7.7316 -1.5987,3.0177 -2.3279,0.7752 A2.4536,2.4536 0 0 1 2.3279,-0.7752 Z" stroke-linecap="round" fill="#4dabf7"/></g></g><g transform="matrix(1, 0, 0, 1, 3237.8744, 24966.6863)" opacity="1"><g transform="scale(1)"><path d="M0.2784,-1.6732 T1.7787,-1.4743 4.7397,-1.1974 9.3079,-1.4465 12.4154,-1.7735 A1.7853,1.7853 0 0 1 12.8246,1.7735 T11.0955,1.9969 7.6304,2.4283 4.2924,2.4524 1.2059,1.9709 -0.2784,1.6732 A1.6962,1.6962 0 0 1 0.2784,-1.6732 Z" stroke-linecap="round" fill="#4dabf7"/></g></g><g transform="matrix(1, 0, 0, 1, 3238.926, 24976.1508)" opacity="1"><g transform="scale(1)"><path d="M0.1532,-1.5351 T2.6544,-1.4192 6.9435,-1.239 10.1538,-1.0396 13.1879,-0.7649 14.7997,-0.6253 A1.6772,1.6772 0 0 1 14.6403,2.7253 T13.0225,2.7112 9.9282,2.6943 6.624,2.494 2.3216,1.9159 -0.1532,1.5351 A1.5427,1.5427 0 0 1 0.1532,-1.5351 Z" stroke-linecap="round" fill="#4dabf7"/></g></g><g transform="matrix(1, 0, 0, 1, 3291.741, 24946.76)" opacity="1"><g transform="scale(1)"><path d="M2.0663,0 T2.1331,2.984 2.4205,7.6054 2.8904,12.443 3.1398,15.643 A2.3532,2.3532 0 0 1 -1.5598,15.897 T-1.7268,12.811 -2.0468,7.8478 -2.1331,2.9853 -2.0663,0 A2.0663,2.0663 0 0 1 2.0663,0 ZM-1.5361,15.4141 T-1.1224,12.9757 -0.0964,8.3922 0.979,4.3601 1.773,0.5466 2.2913,-3.4293 3.1007,-7.6373 3.7225,-9.796 A2.2002,2.2002 0 0 1 7.604,-7.7231 T7.2175,-6.5056 6.7143,-3.6326 6.2569,-0.3226 5.6531,3.3062 4.9121,7.2334 4.0478,10.6087 3.3888,14.0784 3.1161,16.1259 A2.3532,2.3532 0 0 1 -1.5361,15.4141 ZM5.7807,-10.9566 T6.3544,-10.9386 8.7786,-10.6616 12.7548,-10.377 16.6802,-10.5467 20.2912,-11.3479 24.6147,-12.5722 28.6189,-13.6366 31.9151,-13.8352 34.5877,-12.2208 35.8927,-9.2049 36.3516,-6.0186 36.3486,-3.833 36.3238,-3.1854 A2.424,2.424 0 0 1 31.4762,-3.1146 T31.3922,-4.3081 30.6717,-7.1166 28.1128,-8.2243 23.854,-7.0538 19.1357,-5.9064 14.9756,-5.4811 11.5795,-5.6718 8.3899,-6.1363 6.1819,-6.5158 5.5458,-6.5625 A2.2002,2.2002 0 0 1 5.7807,-10.9566 Z" stroke-linecap="round" fill="#4dabf7"/></g></g><g transform="matrix(1, 0, 0, 1, 3307.5104, 24947.5485)" opacity="1"><g transform="scale(1)"><path d="M0.286,-2.2841 T1.7803,-2.1137 5.2663,-1.7819 8.7247,-0.7328 10.1914,0.155 A2.3993,2.3993 0 0 1 7.3033,3.9872 T6.9168,3.4783 4.6124,2.83 1.2043,2.4873 -0.286,2.2841 A2.302,2.302 0 0 1 0.286,-2.2841 ZM11.0742,2.6563 T10.81,3.5727 7.706,7.2692 3.2844,11.3003 0.7295,13.6414 -0.2434,14.7315 A2.3897,2.3897 0 0 1 -4.5354,12.6289 T-2.8843,10.7455 0.223,7.6958 3.9038,4.7226 6.2745,2.2008 6.4205,1.4859 A2.3993,2.3993 0 0 1 11.0742,2.6563 ZM-1.8299,11.3569 T-1.1478,11.4986 1.6189,11.6189 5.9358,11.3301 10.7643,12.0996 13.3606,13.1366 A2.396,2.396 0 0 1 10.2994,16.8234 T9.5456,16.4968 7.0436,16.467 3.6309,16.728 0.3556,16.5744 -2.1022,16.23 -2.949,16.0034 A2.3897,2.3897 0 0 1 -1.8299,11.3569 Z" stroke-linecap="round" fill="#4dabf7"/></g></g></svg>