<svg xmlns="http://www.w3.org/2000/svg" direction="ltr" width="477.9329192259488" height="382.22991186567106" viewBox="1332.9677978033276 6963.24917248395 477.9329192259488 382.22991186567106" stroke-linecap="round" stroke-linejoin="round" style="background-color: transparent;"><defs/><g transform="matrix(1, 0, 0, 1, 1519.5893, 7026.485)" opacity="1"><g transform="scale(1)"><path d="M0,0 Q0,5.7866 0,7.6821 T0.1072,10.823 0.2726,13.0674 0.3626,14.9314 0.4116,16.4811 0.4382,17.86 0.4527,19.1459 0.4606,20.2741 0.4649,21.4236 0.4672,22.5848 0.3613,23.6451 0.1966,24.7577 0.1069,25.8987 0.0582,27.0553 0.0316,28.2202 0.0172,29.2826 0.0094,30.3963 0.0051,31.538 0.0028,32.5877 0.0015,33.5874 0.0008,34.5599 0.0004,35.5175 0.0002,36.36 0.0001,37.1397 -0.1071,37.9926 -0.2726,38.8852 -0.3626,39.7994 -0.4116,40.7253 -0.4382,41.6577 -0.4527,42.5936 -0.4606,43.5313 -0.4649,44.5772 -0.4672,45.682 -0.4685,46.8188 -0.4692,47.973 -0.3624,49.0296 -0.1971,50.033 -0.1072,51.1146 -0.0583,52.2388 -0.0317,53.279 -0.0173,54.3807 0.0978,55.5158 0.2675,56.6691 0.3598,57.9395 0.4101,59.1664 0.4374,60.3696 0.4523,61.6671 0.4604,62.9087 0.5719,64.12 0.7398,65.4219 0.8311,66.7731 0.8807,68.0439 1.1221,70.6641 1.4677,74.0184 1.7629,76.3789 2.0306,78.1989 2.1762,79.7247 2.3626,81.0906 2.5712,82.3694 2.6847,83.6009 2.8535,84.8066 3.0526,86.1055 3.1608,87.3479 3.2197,88.5595 3.2518,89.8593 3.2692,91.1 3.3858,92.3107 3.5565,93.6122 3.6493,94.9633 3.6998,96.4483 3.7272,97.8992 3.7422,99.2242 3.7503,100.6952 3.7547,102.2455 3.7571,103.7318 3.7584,105.2905 3.7592,106.8886 3.7595,108.4009 3.8669,109.9737 4.0325,111.5794 4.1225,113.0959 4.1715,114.5638 4.1982,116.0053 4.2127,117.4324 4.2206,118.9589 4.2249,120.5395 4.2272,122.0422 4.2285,123.5027 4.2292,125.0473 4.2296,126.6377 4.2298,128.253 4.2299,129.8818 4.2299,131.4109 4.1228,132.8856 3.9574,134.3309 3.8674,135.76 3.8184,137.1805 3.7918,138.5961 3.7773,139.9021 3.7694,141.2554 3.658,142.7418 3.4902,144.1933 3.3989,145.7331 3.2421,147.3208 3.0496,148.8275 2.9449,150.2901 2.8879,151.7288 2.7498,153.1543 2.5675,154.68 2.4683,156.1529 2.3072,157.4899 2.1124,158.8602 2.0064,160.2486 1.9488,161.6469 1.8103,163.0505 1.6277,164.457 1.5284,165.8652 1.4744,167.167 1.4451,168.4109 1.4291,169.7306 1.4204,171.0915 1.4156,172.3676 1.4131,173.5976 1.3045,174.9097 1.1383,176.2664 1.0479,177.6475 0.9987,178.9345 0.9719,180.0633 0.9574,181.2132 0.9494,182.4817 0.9451,183.8147 0.8356,185.1829 0.6689,186.4629 0.5782,187.5879 0.5289,188.7357 0.502,189.8959 0.4874,190.9557 0.4795,192.068 0.368,193.2089 0.2002,194.2582 0.1089,195.3648 0.0592,196.5026 0.0322,197.6574 0.0175,198.8214 0.0095,199.8832 0.0052,200.8895 0.0028,201.9727 0.0015,203.0978 0.0008,204.1385 0.0005,205.1333 0.0002,206.1031 0.0001,207.1664 0.0001,208.2807 0,209.3155 0,210.3071 0,211.3823 0,212.503 0,213.6485 0,214.9146 0,216.2463 -0.1072,217.6137 -0.2726,219.0005 -0.3626,220.3979 -0.4116,221.8011 -0.4382,223.2073 -0.4527,224.6153 -0.5678,226.0242 -0.7375,227.4336 -0.937,228.8433 -1.1527,230.2531 -1.3772,231.663 -1.7136,232.9658 -2.0038,234.1032 -2.2688,235.3648 -2.6258,236.9485 L-2.82,237.81 " stroke-linecap="round" fill="none" stroke="#f2f2f2" stroke-width="3" stroke-dasharray="none" stroke-dashoffset="0"/></g></g><g transform="matrix(1, 0, 0, 1, 1364.9678, 7191.4459)" opacity="1"><g transform="scale(1)"><path d="M0,0 Q1.9289,0.4286 2.5607,0.5452 T3.7505,0.7252 4.7193,0.8232 6.3179,0.8764 8.3663,0.9054 9.8021,0.9212 10.9047,0.9298 11.9331,0.9344 12.9212,0.937 13.8874,0.9384 14.8416,0.9391 15.7894,0.9395 16.8407,0.9397 17.9485,0.9399 18.9797,0.9399 19.9694,0.94 21.0435,0.94 22.1637,0.8328 23.2017,0.6674 24.3022,0.4702 25.4366,0.2558 26.4824,0.1392 27.5871,-0.0315 28.7239,-0.2314 29.7709,-0.4474 30.8763,-0.672 32.0134,-0.7942 33.0607,-0.9679 34.1662,-1.1695 35.3034,-1.2792 36.4578,-1.3388 37.7288,-1.4784 38.956,-1.6616 40.1594,-1.7612 41.3498,-1.8154 42.5332,-1.8448 43.7128,-1.8609 44.8903,-1.8696 46.0666,-1.8743 47.2424,-1.8769 48.5249,-1.9855 49.7584,-2.1517 50.9653,-2.2421 52.2647,-2.2913 53.6146,-2.3181 54.9919,-2.4398 56.3841,-2.6132 57.7844,-2.7075 59.1892,-2.7588 60.7035,-2.7867 62.2774,-2.8019 63.8837,-2.703 65.5076,-2.542 67.034,-2.3473 68.6145,-2.1342 70.2244,-1.9111 71.8503,-1.6826 73.5921,-1.4511 75.2897,-1.2181 76.9634,-0.9841 78.7311,-0.7497 80.4429,-0.6221 82.1242,-0.4456 83.8961,-0.2424 85.7173,-0.1319 87.4582,0.0354 89.1531,0.2336 90.9301,0.3414 92.6469,0.4 94.3309,0.5391 95.9972,0.7219 97.6538,0.8214 99.305,0.8755 100.9535,1.012 102.6003,1.1935 104.1392,1.2922 105.7264,1.3459 107.34,1.3751 108.8608,1.391 110.4382,1.3997 112.0464,1.4044 113.5642,1.4069 115.1401,1.4083 116.7474,1.4091 118.2648,1.4095 119.8404,1.4097 121.4476,1.3027 122.9649,1.1373 124.4333,1.0473 125.875,0.9984 127.3023,0.9718 128.7217,0.9573 130.1368,0.9494 131.5496,0.9451 132.9611,0.9428 134.3719,0.9415 135.7824,0.9408 137.1926,0.9404 138.6027,0.9402 140.0128,0.9401 141.4228,0.9401 142.8329,0.94 144.2429,0.94 145.6529,0.94 147.0629,0.94 148.4729,0.94 149.8829,0.94 151.2929,0.94 152.7029,0.94 154.1129,0.94 155.5229,0.94 156.9329,0.94 158.3429,0.94 159.7529,0.94 161.1629,0.94 162.5729,0.94 164.0901,1.0472 165.6655,1.2126 167.1655,1.3026 168.6245,1.3516 170.1683,1.3782 171.7582,1.3927 173.2661,1.4006 174.8365,1.4049 176.4409,1.4072 178.0639,1.4085 179.6969,1.4092 181.2282,1.4096 182.8113,1.4098 184.4227,1.517 185.9422,1.6825 187.4118,1.7726 188.8542,1.8216 190.2819,1.8482 191.8086,1.8627 193.3893,1.8706 194.8921,1.8749 196.3526,1.7701 197.7901,1.6059 199.2151,1.5166 200.7404,1.468 202.3202,1.4415 203.8226,1.4272 205.2829,1.4193 206.7203,1.4151 208.1451,1.4128 209.5632,1.4115 210.9776,1.4108 212.39,1.4104 213.8013,1.4102 215.1049,1.4101 216.3498,1.4101 217.67,1.41 218.924,1.41 220.142,1.41 221.4475,1.41 222.8007,1.41 224.0726,1.41 225.3003,1.3028 226.6112,1.1374 227.9672,1.0474 229.3479,0.8913 230.6348,0.6992 231.8706,0.5947 233.2931,0.4307 234.817,0.2343 236.1818,0.1274 237.3529,0.0693 238.4186,-0.0694 239.5342,-0.2521 240.784,-0.3515 241.9997,-0.4055 243.1968,-0.4349 244.3839,-0.4509 245.5654,-0.5668 246.8512,-0.737 248.0864,-0.8296 249.2942,-0.8799 250.5941,-0.9073 251.8371,-0.9222 253.0491,-0.9303 254.2442,-0.9347 255.323,-0.9371 256.4457,-0.9384 257.5922,-0.9392 258.7517,-1.0467 259.9183,-1.2124 261.0887,-1.3025 262.2612,-1.3515 263.4349,-1.3782 264.6091,-1.4999 265.7837,-1.6732 266.9585,-1.7675 268.1334,-1.926 269.4155,-2.1193 270.7536,-2.2245 272.1223,-2.3889 273.5097,-2.5855 274.9075,-2.6924 276.3108,-2.7506 277.7172,-2.7822 279.2324,-2.7995 281.0211,-2.8088 282.9586,-2.8139 284.7627,-2.8167 286.4943,-2.8182 288.1864,-2.819 289.7498,-2.7123 291.3505,-2.5471 292.9713,-2.3501 294.6032,-2.0286 296.2411,-1.7465 297.775,-1.4859 299.2525,-1.237 300.6991,-1.1015 302.1291,-0.9207 303.5499,-0.7152 304.9658,-0.6034 306.5165,-0.517 L307.36,-0.47 " stroke-linecap="round" fill="none" stroke="#f2f2f2" stroke-width="3" stroke-dasharray="none" stroke-dashoffset="0"/></g></g><g transform="matrix(1, 0, 0, 1, 1520.5292, 7191.9158)" opacity="1"><g transform="scale(1)"><path d="M0,0 Q0.8573,-1.0716 1.1976,-1.4702 T1.8303,-2.3 2.3887,-2.9658 2.9069,-3.5423 3.4031,-4.0702 3.8873,-4.4645 4.2579,-4.8934 4.5667,-5.2338 4.8418,-5.5262 5.0986,-5.8996 5.4526,-6.2099 5.7524,-6.4858 6.0226,-6.8502 6.3839,-7.1556 6.6877,-7.429 6.9601,-7.792 7.3225,-8.0966 7.6269,-8.3695 7.8996,-8.7322 8.2623,-9.0367 8.5668,-9.3095 8.8396,-9.6723 9.2023,-10.0839 9.6139,-10.6293 10.0522,-11.1404 10.3977,-11.5255 10.6929,-11.9494 11.0678,-12.2871 11.3789,-12.578 11.6553,-12.9505 12.0199,-13.2604 12.3255,-13.5361 12.5989,-13.9004 12.9619,-14.2057 13.2666,-14.479 13.5394,-14.842 13.9022,-15.1466 14.2067,-15.4195 14.4795,-15.7822 14.8423,-16.0867 15.1468,-16.3595 15.4196,-16.7223 15.7823,-17.0268 16.1939,-17.2996 16.6322,-17.6623 17.0849,-18.0739 17.5455,-18.5122 18.0104,-18.9649 18.4776,-19.4255 18.8389,-19.8904 19.1427,-20.2505 19.415,-20.5535 19.6704,-20.9327 20.0236,-21.3532 20.4301,-21.7964 20.8655,-22.1446 21.2096,-22.4412 21.5039,-22.8168 21.8783,-23.1284 22.1892,-23.405 22.4654,-23.7698 22.83,-24.2897 23.2427,-24.7869 23.5743,-25.1645 23.8619,-25.5843 24.2327,-25.9198 24.5415,-26.2094 24.8167,-26.4742 25.1807,-26.7253 25.5931,-27.0763 26.0317,-27.5887 26.4847,-28.0818 26.8382,-28.4572 27.1377,-28.8757 27.515,-29.3177 27.8273,-29.7725 28.1044,-30.3413 28.4695,-30.8651 28.7752,-31.2572 29.0487,-31.6849 29.3047,-32.1318 29.5511,-32.5893 29.7923,-33.0524 30.0306,-33.5187 30.3746,-34.0939 30.7761,-34.6211 31.1016,-35.015 31.3859,-35.4437 31.7548,-35.784 32.0627,-36.0763 32.3374,-36.4496 32.7011,-36.867 33.1133,-37.4156 33.5518,-37.9283 34.0047,-38.3144 34.4654,-38.7388 34.8232,-39.1839 35.125,-39.5333 35.5035,-39.8305 35.9237,-40.2064 36.3666,-40.6253 36.7147,-41.0675 37.0112,-41.4152 37.3869,-41.7115 37.6984,-42.087 37.975,-42.5056 38.3398,-42.8405 38.7526,-43.1298 39.1914,-43.5015 39.6445,-43.9181 40.1053,-44.5733 40.5703,-45.3584 41.0376,-45.8927 41.5061,-46.3976 41.9753,-46.9938 42.4448,-47.5324 42.9146,-47.9326 43.2773,-48.2575 43.5818,-48.6485 43.9617,-48.9684 44.3827,-49.2496 44.8261,-49.6168 45.2816,-50.031 45.7437,-50.4706 46.2094,-50.924 46.6771,-51.385 47.0387,-51.8501 47.3425,-52.3175 47.7221,-52.786 48.2501,-53.2552 48.8588,-53.7248 49.4043,-54.3017 49.8082,-54.9371 50.135,-55.497 50.5272,-56.0159 50.9548,-56.5125 51.4018,-56.997 51.8593,-57.4749 52.3224,-57.9492 52.7887,-58.4215 53.2567,-58.8928 53.7256,-59.3635 54.195,-59.8339 54.6647,-60.3041 55.1345,-60.7742 55.6044,-61.2442 56.0744,-61.7143 56.5443,-62.1843 57.0143,-62.6543 57.4843,-63.1243 57.9543,-63.5943 58.4243,-64.0643 58.8943,-64.5343 59.3643,-65.1115 59.8343,-65.7469 60.3043,-66.3069 60.7743,-66.8259 61.2443,-67.3225 61.7143,-67.807 62.2915,-68.2849 62.9269,-68.7592 63.4869,-69.2315 63.8987,-69.7028 64.2299,-70.1735 64.6244,-70.6439 65.0533,-71.1141 65.6081,-71.5842 66.2314,-72.0542 66.7848,-72.5243 67.3002,-72.9943 67.7949,-73.4643 68.2783,-73.9343 68.7556,-74.4043 69.2296,-74.7671 69.5946,-75.1788 69.9003,-75.7243 70.2809,-76.2353 70.7023,-76.8348 71.1458,-77.4824 71.6015,-78.049 71.9565,-78.5716 72.2568,-78.963 72.6344,-79.2831 72.9471,-79.6716 73.2243,-80.0972 73.5894,-80.5431 74.0024,-81.1071 74.5485,-81.7354 75.0599,-82.2916 75.4453,-82.8084 75.8692,-83.3039 76.3142,-83.7878 76.7706,-84.2653 77.126,-84.7394 77.4265,-85.2116 77.8043,-85.6828 78.2241,-86.1535 78.5597,-86.6239 78.8494,-87.0941 79.2213,-87.5642 79.638,-88.0342 79.9718,-88.5043 80.2605,-88.9743 80.6319,-89.4443 80.9411,-89.9143 81.2165,-90.382 81.4735,-90.8485 81.7204,-91.3166 82.0691,-91.7855 82.473,-92.255 82.8,-92.7247 83.085,-93.1945 83.4544,-93.6644 83.8696,-94.1344 84.2027,-94.6043 84.491,-95.0743 84.8622,-95.4371 85.2784,-95.7417 85.7192,-96.1217 86.0661,-96.5427 86.362,-96.9861 86.7373,-97.4416 87.1558,-97.9037 87.5977,-98.3694 88.0525,-98.9442 88.5142,-99.4713 88.8725,-99.8651 89.1746,-100.2937 89.5533,-100.7412 89.9736,-101.1989 90.3094,-101.6623 90.5969,-102.1286 90.9654,-102.7038 91.3802,-103.4454 91.8201,-104.0631 92.2738,-104.6134 92.7349,-105.1271 93.0929,-105.5138 93.3948,-105.9384 93.7734,-106.2766 94.1936,-106.6749 94.6366,-107.213 95.0919,-107.6129 95.4467,-107.9376 95.7469,-108.3286 96.1245,-108.8628 96.5442,-109.4748 96.9869,-110.0221 97.442,-110.6413 97.9039,-111.2996 98.3695,-111.8721 98.73,-112.3978 99.1404,-112.8981 99.7619,-113.4369 L100.1,-113.73 " stroke-linecap="round" fill="none" stroke="#4dabf7" stroke-width="3" stroke-dasharray="none" stroke-dashoffset="0"/></g></g><g transform="matrix(1, 0, 0, 1, 1640.3726, 7065.0228)" opacity="1"><g transform="scale(1)"><path d="M0,0 Q-0.4286,1.9289 -0.5452,2.6679 T-0.7252,4.0232 -0.716,5.1891 -0.3895,6.252 0.2167,7.0445 0.9752,7.5828 1.8164,7.8757 3.2385,7.0705 4.7622,5.6681 5.5911,5.0123 6.0421,5.0842 6.3945,5.552 6.8006,6.2351 7.2358,7.0353 7.6869,8.0065 8.1466,9.1777 8.611,10.4578 9.0779,11.7972 9.4391,13.0616 9.6356,14.2852 9.7425,15.4867 9.6935,16.5689 9.4525,17.5863 8.9999,18.4612 8.4322,19.2587 7.8019,20.014 6.9233,20.6392 5.8023,21.0864 4.5495,21.3297 3.3322,21.4621 2.1342,21.5341 0.8395,21.3589 -0.6174,20.9192 L-1.41,20.68 " stroke-linecap="round" fill="none" stroke="#4dabf7" stroke-width="3" stroke-dasharray="none" stroke-dashoffset="0"/></g></g><g transform="matrix(1, 0, 0, 1, 1661.5215, 7067.8427)" opacity="1"><g transform="scale(1)"><path d="M0,0 Q1.7146,-0.643 2.3952,-0.8178 T3.8749,-1.195 5.6269,-1.6387 L6.58,-1.88 " stroke-linecap="round" fill="none" stroke="#4dabf7" stroke-width="3" stroke-dasharray="none" stroke-dashoffset="0"/></g></g><g transform="matrix(1, 0, 0, 1, 1660.5815, 7072.5424)" opacity="1"><g transform="scale(1)"><path d="M0,0 Q1.2859,0 2.6001,-0.1072 T5.4822,-0.3422 L7.05,-0.47 " stroke-linecap="round" fill="none" stroke="#4dabf7" stroke-width="3" stroke-dasharray="none" stroke-dashoffset="0"/></g></g><g transform="matrix(1, 0, 0, 1, 1686.4301, 7062.673)" opacity="1"><g transform="scale(1)"><path d="M0,0 Q-2.1432,2.5718 -2.9405,3.5929 T-4.3858,5.4908 -5.6007,7.0591 -6.6902,8.3409 -7.8187,9.2525 -9.1473,9.9568 L-9.87,10.34 " stroke-linecap="round" fill="none" stroke="#4dabf7" stroke-width="3" stroke-dasharray="none" stroke-dashoffset="0"/></g></g><g transform="matrix(1, 0, 0, 1, 1677.9706, 7064.5529)" opacity="1"><g transform="scale(1)"><path d="M0,0 Q1.9289,2.3575 2.5607,3.2131 T3.6434,4.8556 4.4467,6.2849 5.098,7.491 5.6666,8.4687 6.1903,9.4292 6.7471,10.6279 L7.05,11.28 " stroke-linecap="round" fill="none" stroke="#4dabf7" stroke-width="3" stroke-dasharray="none" stroke-dashoffset="0"/></g></g><g transform="matrix(1, 0, 0, 1, 1489.5109, 7188.626)" opacity="1"><g transform="scale(1)"><path d="M0,0 Q-0.2143,2.5718 -0.2726,3.1642 T-0.3626,3.7574 -0.4116,3.5443 -0.4382,3.1068 -0.4527,2.4402 -0.4606,1.8633 -0.4649,1.8709 -0.4672,2.3037 -0.4685,2.9678 -0.4692,3.6505 -0.4696,4.4506 -0.4698,5.5253 L-0.47,6.11 " stroke-linecap="round" fill="none" stroke="#f76707" stroke-width="3" stroke-dasharray="none" stroke-dashoffset="0"/></g></g><g transform="matrix(1, 0, 0, 1, 1523.819, 7159.9576)" opacity="1"><g transform="scale(1)"><path d="M0,0 Q-1.2859,-0.2143 -1.7429,-0.2726 T-2.1269,-0.2555 -1.967,-0.09 L-1.88,0 " stroke-linecap="round" fill="none" stroke="#f76707" stroke-width="3" stroke-dasharray="none" stroke-dashoffset="0"/></g></g><g transform="matrix(1, 0, 0, 1, 1489.9809, 7159.4876)" opacity="1"><g transform="scale(1)"><path d="M0,0 Q0.2143,-0.2143 0.2726,-0.0583 T0.3626,0.2898 0.3044,0.5863 0.0584,0.5333 -0.1825,0.0758 -0.2065,-0.3874 -0.1123,-0.7466 0.0461,-1.0491 0.3465,-0.9993 0.51,-0.4365 0.4841,0.455 L0.47,0.94 " stroke-linecap="round" fill="none" stroke="#f76707" stroke-width="3" stroke-dasharray="none" stroke-dashoffset="0"/></g></g><g transform="matrix(1, 0, 0, 1, 1480.1535, 7150.2354)" opacity="1"><g transform="scale(1)"><path d="M 0 0 m -0.5, 0 a 0.5,0.5 0 1,0 1,0 a 0.5,0.5 0 1,0 -1,0" stroke-linecap="round" fill="#f76707" stroke="#f76707" stroke-width="3" stroke-dasharray="none" stroke-dashoffset="0"/></g></g><g transform="matrix(1, 0, 0, 1, 1469.4241, 7139.5061)" opacity="1"><g transform="scale(1)"><path d="M 0 0 m -0.5, 0 a 0.5,0.5 0 1,0 1,0 a 0.5,0.5 0 1,0 -1,0" stroke-linecap="round" fill="#f76707" stroke="#f76707" stroke-width="3" stroke-dasharray="none" stroke-dashoffset="0"/></g></g><g transform="matrix(1, 0, 0, 1, 1460.483, 7129.6709)" opacity="1"><g transform="scale(1)"><path d="M 0 0 m -0.5, 0 a 0.5,0.5 0 1,0 1,0 a 0.5,0.5 0 1,0 -1,0" stroke-linecap="round" fill="#f76707" stroke="#f76707" stroke-width="3" stroke-dasharray="none" stroke-dashoffset="0"/></g></g><g transform="matrix(1, 0, 0, 1, 1450.0517, 7120.4317)" opacity="1"><g transform="scale(1)"><path d="M 0 0 m -0.5, 0 a 0.5,0.5 0 1,0 1,0 a 0.5,0.5 0 1,0 -1,0" stroke-linecap="round" fill="#f76707" stroke="#f76707" stroke-width="3" stroke-dasharray="none" stroke-dashoffset="0"/></g></g><g transform="matrix(1, 0, 0, 1, 1520.3885, 7192.5567)" opacity="1"><g transform="scale(1)"><path d="M0,0 Q-0.6794,-0.953 -1.204,-1.6181 T-2.0822,-2.645 -2.6968,-3.272 -3.1657,-3.7499 -3.5552,-4.0783 -3.904,-4.3253 -4.2305,-4.5965 -4.5449,-4.8785 -4.8505,-5.1665 -5.1512,-5.3915 -5.4516,-5.5823 -5.7518,-5.823 -6.052,-6.0906 -6.3497,-6.3708 -6.6463,-6.6577 -6.9444,-6.9506 -7.2433,-7.2467 -7.5428,-7.5446 -7.8425,-7.7751 -8.2084,-7.9688 -8.6104,-8.2088 -8.9659,-8.4738 -9.2961,-8.7548 -9.6102,-9.0444 -9.9156,-9.3388 -10.287,-9.7019 -10.6942,-10.1023 -11.0502,-10.4569 -11.4469,-10.8528 -11.8678,-11.271 -12.2997,-11.7038 -12.806,-12.1444 -13.2866,-12.587 -13.751,-13.0991 -14.2749,-13.5829 -14.7652,-14.049 -15.2348,-14.5054 -15.6932,-14.959 -16.0793,-15.4086 -16.4946,-15.8561 -16.9234,-16.3732 -17.3596,-16.8574 -17.8705,-17.3237 -18.3514,-17.7826 -18.8159,-18.169 -19.2737,-18.5821 -19.7258,-19.0098 -20.1746,-19.4477 -20.5555,-19.8888 -20.968,-20.2632 -21.3953,-20.6722 -21.7622,-21.0998 -22.0986,-21.467 -22.4185,-21.8696 -22.7292,-22.2939 -23.0328,-22.6615 -23.4009,-23.0644 -23.8063,-23.4865 -24.1637,-23.8529 -24.4949,-24.189 -24.8096,-24.5087 -25.1153,-24.8171 -25.4184,-25.1194 -25.7201,-25.489 -26.021,-25.8953 -26.3192,-26.2508 -26.616,-26.6472 -26.9142,-27.068 -27.2133,-27.4337 -27.5127,-27.7672 -27.8102,-28.0831 -28.1065,-28.3918 -28.3361,-28.6965 -28.5294,-28.999 -28.7713,-29.2982 -29.0398,-29.5954 -29.3203,-29.9623 -29.6075,-30.3671 -29.9005,-30.7218 -30.1966,-31.1177 -30.4946,-31.5383 -30.7912,-31.9039 -31.087,-32.3057 -31.3848,-32.7272 -31.6836,-33.0933 -31.9829,-33.4292 -32.2803,-33.8149 -32.5765,-34.2276 -32.9429,-34.5889 -33.3474,-34.9884 -33.702,-35.4087 -34.0294,-35.7741 -34.3443,-36.1097 -34.6524,-36.429 -34.9568,-36.8057 -35.257,-37.2135 -35.5547,-37.5721 -35.8535,-37.904 -36.1529,-38.2191 -36.4525,-38.5934 -36.7501,-39.0023 -37.0464,-39.3615 -37.3445,-39.6914 -37.6434,-39.937 -37.9428,-40.139 -38.2402,-40.3857 -38.5365,-40.6567 -38.8345,-40.9409 -39.1334,-41.2323 -39.3644,-41.5254 -39.5585,-41.8193 -39.7986,-42.116 -40.0637,-42.4142 -40.4131,-42.7133 -40.8084,-43.0105 -41.1603,-43.3066 -41.4862,-43.6046 -41.798,-43.9719 -42.1044,-44.3746 -42.4079,-44.7282 -42.7098,-45.0573 -43.077,-45.4416 -43.4796,-45.8535 -43.8355,-46.2122 -44.232,-46.6125 -44.6506,-47.0354 -45.0835,-47.4684 -45.5242,-47.9069 -45.9669,-48.3506 -46.4106,-48.7949 -46.8572,-49.2396 -47.3031,-49.6866 -47.7486,-50.1328 -48.1961,-50.5784 -48.5764,-51.026 -48.9861,-51.5408 -49.412,-52.0238 -49.8488,-52.4918 -50.2894,-52.9515 -50.732,-53.4045 -51.178,-53.8539 -51.5574,-54.3036 -51.9667,-54.7511 -52.3923,-55.1975 -52.7606,-55.6455 -53.0978,-56.026 -53.4841,-56.436 -53.8972,-56.8619 -54.2587,-57.2304 -54.5922,-57.636 -54.9081,-58.0597 -55.2145,-58.4246 -55.518,-58.7599 -55.8199,-59.1476 -56.1893,-59.5614 -56.5932,-59.921 -56.9474,-60.2534 -57.2769,-60.5711 -57.593,-60.9468 -57.9678,-61.3541 -58.3746,-61.7809 -58.7328,-62.2182 -59.0644,-62.5907 -59.4477,-62.9962 -59.8592,-63.422 -60.2198,-63.7905 -60.5528,-64.1254 -60.8707,-64.4421 -61.1782,-64.8196 -61.48,-65.2302 -61.7809,-65.5881 -62.0815,-65.9173 -62.3818,-66.2332 -62.6796,-66.5418 -62.9762,-66.8465 -63.2743,-67.1468 -63.5733,-67.513 -63.8728,-67.9175 -64.1702,-68.2743 -64.4665,-68.6029 -64.7645,-68.9162 -65.0634,-69.2235 -65.3628,-69.5274 -65.6602,-69.8296 -65.9565,-70.1284 -66.2545,-70.4255 -66.5534,-70.724 -66.8528,-71.0915 -67.1502,-71.4944 -67.4465,-71.8481 -67.7445,-72.1773 -68.0434,-72.4932 -68.3428,-72.8018 -68.6402,-73.1065 -68.9365,-73.4752 -69.2345,-73.8787 -69.5334,-74.2349 -69.8328,-74.5656 -70.1302,-74.88 -70.4265,-75.2539 -70.7245,-75.6625 -71.0918,-76.0216 -71.4945,-76.4199 -71.8482,-76.8395 -72.1773,-77.2045 -72.4932,-77.606 -72.8702,-78.0273 -73.2782,-78.3934 -73.6347,-78.7977 -73.9654,-79.2205 -74.2822,-79.5851 -74.5913,-79.9202 -74.8939,-80.3077 -75.1931,-80.7214 -75.561,-81.081 -75.9664,-81.4818 -76.3214,-81.9051 -76.6491,-82.2698 -77.0326,-82.6712 -77.4463,-83.0947 -77.806,-83.4619 -78.1361,-83.8646 -78.5209,-84.2866 -78.9355,-84.7213 -79.2955,-85.1608 -79.6259,-85.5343 -79.9424,-85.9428 -80.3198,-86.4363 -80.728,-86.9076 -81.0846,-87.3693 -81.4838,-87.8256 -81.9061,-88.2768 -82.3388,-88.7935 -82.7771,-89.2798 -83.2208,-89.7473 -83.665,-90.2045 -84.0412,-90.6585 -84.4511,-91.1106 -84.8792,-91.5595 -85.3151,-92.075 -85.8235,-92.6268 -86.3052,-93.1982 -86.7703,-93.7827 -87.2261,-94.3036 -87.6793,-94.7899 -88.1972,-95.328 -88.7502,-95.8921 -89.2563,-96.4019 -89.7345,-96.8844 -90.266,-97.4182 -90.7603,-97.9115 -91.2321,-98.385 -91.6917,-98.914 -92.1469,-99.473 -92.5998,-100.0485 -93.049,-100.5645 -93.5648,-101.0503 -94.0505,-101.586 -94.5177,-102.0803 -94.9747,-102.5544 -95.4286,-103.0175 -95.8784,-103.4724 -96.326,-103.9227 -96.7747,-104.3729 -97.2217,-104.823 -97.6678,-105.2708 -98.0473,-105.7173 -98.4589,-106.1654 -98.8858,-106.6121 -99.2525,-106.9896 -99.5888,-107.3318 -99.9085,-107.7231 -100.2193,-108.1389 -100.5229,-108.4997 -100.8909,-108.8327 -101.2963,-109.1507 -101.6537,-109.4604 -101.9826,-109.7635 -102.2961,-110.0629 -102.535,-110.3625 -102.7333,-110.5939 -102.9781,-110.7882 -103.248,-111.0307 -103.5293,-111.2971 -103.8169,-111.5766 -104.0418,-111.8654 -104.2325,-112.091 -104.6098,-112.4166 -105.0864,-112.865 -105.4802,-113.2458 -105.8312,-113.5897 -106.159,-113.8452 -106.4741,-114.1187 -106.78,-114.402 -107.081,-114.6245 -107.4499,-114.8824 -107.7874,-115.1595 -108.0394,-115.3786 -108.311,-115.5662 -108.6617,-115.9396 -109.1269,-116.5163 L-109.38,-116.83 " stroke-linecap="round" fill="none" stroke="#f76707" stroke-width="3" stroke-dasharray="none" stroke-dashoffset="0"/></g></g><g transform="matrix(1, 0, 0, 1, 1432.1846, 7055.903)" opacity="1"><g transform="scale(1)"><path d="M0,0 Q-0.3557,0.1778 -0.4524,0.4041 T-0.6018,0.9312 -0.2385,2.285 0.5816,3.9995 1.3835,5.0212 2.1753,5.488 2.9618,5.5642 3.6564,5.4278 4.2121,5.1757 4.6922,4.6829 5.0423,4.0591 5.3217,3.4531 5.5626,2.7677 5.6937,2.217 5.8539,2.0063 6.1189,2.1585 6.4409,2.508 6.7961,2.9649 7.1695,3.5692 7.6394,4.2535 8.2507,5.0704 8.939,5.9617 9.5801,6.8935 10.1067,7.8449 10.5711,8.8071 10.9126,9.8641 11.0984,10.9726 11.1105,12.0202 10.9393,12.9458 10.6683,13.805 10.2541,14.6281 9.6731,15.3426 8.9125,15.9091 7.9629,16.3062 6.9994,16.6112 6.0307,16.7771 4.9702,16.7784 3.9486,16.6013 3.0373,15.9714 2.0805,14.9796 L1.56,14.44 " stroke-linecap="round" fill="none" stroke="#f76707" stroke-width="3" stroke-dasharray="none" stroke-dashoffset="0"/></g></g><g transform="matrix(1, 0, 0, 1, 1447.0149, 7055.1224)" opacity="1"><g transform="scale(1)"><path d="M0,0 Q1.7784,-0.1778 2.8392,-0.2839 L3.9,-0.39 " stroke-linecap="round" fill="none" stroke="#f76707" stroke-width="3" stroke-dasharray="none" stroke-dashoffset="0"/></g></g><g transform="matrix(1, 0, 0, 1, 1447.7954, 7057.0738)" opacity="1"><g transform="scale(1)"><path d="M0,0 Q0.7114,1.067 1.0827,1.3573 T1.8339,1.8054 2.5982,1.9603 3.5475,1.8667 4.7862,1.668 L5.46,1.56 " stroke-linecap="round" fill="none" stroke="#f76707" stroke-width="3" stroke-dasharray="none" stroke-dashoffset="0"/></g></g><g transform="matrix(1, 0, 0, 1, 1460.6744, 7055.903)" opacity="1"><g transform="scale(1)"><path d="M0,0 Q3.2011,-0.1778 5.1106,-0.2839 L7.02,-0.39 " stroke-linecap="round" fill="none" stroke="#f76707" stroke-width="3" stroke-dasharray="none" stroke-dashoffset="0"/></g></g><g transform="matrix(1, 0, 0, 1, 1483.3101, 7049.6586)" opacity="1"><g transform="scale(1)"><path d="M0,0 Q-2.4898,2.6676 -3.4337,3.571 T-5.0714,5.146 -6.4091,6.2719 -7.8216,7.2681 L-8.59,7.81 " stroke-linecap="round" fill="none" stroke="#f76707" stroke-width="3" stroke-dasharray="none" stroke-dashoffset="0"/></g></g><g transform="matrix(1, 0, 0, 1, 1475.895, 7050.4392)" opacity="1"><g transform="scale(1)"><path d="M0,0 Q2.4898,2.8454 3.3448,3.7972 T4.7539,5.4469 5.7895,6.6134 6.7998,7.4258 7.9593,8.1798 L8.59,8.59 " stroke-linecap="round" fill="none" stroke="#f76707" stroke-width="3" stroke-dasharray="none" stroke-dashoffset="0"/></g></g><g transform="matrix(1, 0, 0, 1, 1518.8248, 7194.0591)" opacity="0.25"><g transform="scale(1)"><path d="M0,0 Q-1.2449,1.2449 -1.6724,1.7613 T-2.4214,2.7366 -3.0957,3.5338 -3.7292,4.2343 -4.2517,4.8822 -4.7138,5.5013 -5.143,6.1049 -5.5543,6.7023 -6.0448,7.3853 -6.5807,8.0235 -7.0523,8.5486 -7.4868,9.0121 -7.9009,9.4421 -8.3041,9.9427 -8.7012,10.4818 -9.0951,10.953 -9.4872,11.3871 -9.8784,11.8011 -10.269,12.2042 -10.6593,12.6013 -11.0495,12.9951 -11.4396,13.3872 -11.7408,13.8673 -11.9935,14.3952 -12.3088,14.8602 -12.6582,15.38 -13.0261,15.9295 -13.4041,16.4951 -13.8765,17.0696 -14.4002,17.56 -14.8629,18.0935 -15.2925,18.6505 -15.7041,19.1314 -16.1947,19.5708 -16.7283,19.9877 -17.1965,20.3923 -17.629,20.8814 -18.1311,21.4166 -18.6709,21.8855 -19.1425,22.4074 -19.5768,23.047 -19.991,23.6617 -20.3941,24.2628 -20.7912,24.8566 -21.1874,25.4464 -21.583,26.034 -22.065,26.6204 -22.594,27.2062 -23.0596,27.7916 -23.5796,28.3768 -24.1293,28.962 -24.695,29.6359 -25.3585,30.2694 -25.9862,30.8807 -26.5944,31.6579 -27.192,32.5252 -27.7839,33.3528 -28.3726,34.1586 -28.9597,34.955 -29.5458,35.6572 -30.0425,36.306 -30.5794,37.0146 -31.1383,37.6669 -31.7091,38.2885 -32.3753,38.9823 -33.0933,39.6265 -33.7507,40.2437 -34.3751,40.9351 -34.9815,41.6669 -35.5805,42.4207 -36.1753,43.0976 -36.7657,43.7325 -37.3536,44.4336 -37.8513,45.0818 -38.3888,45.7011 -38.9479,46.3937 -39.5189,47.1262 -40.0962,47.8803 -40.6771,48.6463 -41.3487,49.4209 -41.9809,50.2002 -42.5915,50.9799 -43.2794,51.7597 -44.0093,52.5396 -44.6731,53.3195 -45.301,54.0995 -45.9982,54.8795 -46.6443,55.6595 -47.2625,56.4395 -47.9545,57.2195 -48.6866,58.0884 -49.4428,59.0057 -50.2122,59.8604 -50.9864,60.681 -51.7632,61.4831 -52.5415,62.2751 -53.2317,63.0617 -53.8739,63.8475 -54.49,64.633 -55.003,65.4159 -55.5488,66.1086 -56.1125,66.7522 -56.6859,67.458 -57.3535,68.1976 -58.0724,68.9557 -58.8192,69.8126 -59.4921,70.6345 -60.125,71.3484 -60.825,72.0924 -61.4725,72.8528 -62.0026,73.6222 -62.4688,74.3964 -62.9003,75.0843 -63.3128,75.7253 -63.7151,76.4297 -64.1141,77.0796 -64.5112,77.611 -64.9051,78.1692 -65.2972,78.8307 -65.6884,79.4574 -66.1679,80.0651 -66.6955,80.7513 -67.2493,81.4803 -67.8174,82.1437 -68.3931,82.7713 -68.9731,83.4684 -69.5554,84.2033 -70.2278,84.8698 -70.8604,85.4992 -71.4712,86.1972 -72.1592,86.8437 -72.8892,87.4622 -73.553,88.1543 -74.1809,88.8865 -74.8782,89.5516 -75.6132,90.1801 -76.2798,90.8778 -76.9092,91.524 -77.5183,92.0534 -78.0275,92.6105 -78.5736,93.1825 -79.1397,93.7605 -79.6255,94.3417 -80.1565,94.8357 -80.7121,95.3712 -81.2812,95.9292 -81.8575,96.4996 -82.4377,97.0766 -83.0202,97.5684 -83.6038,98.1026 -84.188,98.66 -84.6837,99.1411 -85.1312,99.6696 -85.6414,100.2238 -86.1857,100.7921 -86.6596,101.368 -87.0953,101.948 -87.599,102.5303 -88.1398,103.1139 -88.7008,103.6981 -89.2727,104.1937 -89.7617,104.7301 -90.2055,105.2887 -90.7137,105.7703 -91.2569,106.2991 -91.7303,106.8536 -92.1656,107.3353 -92.5803,107.7775 -92.986,108.1959 -93.3868,108.6013 -93.8716,108.9997 -94.4021,109.3943 -94.8686,109.7868 -95.3891,110.1781 -95.939,110.5689 -96.416,110.9593 -96.8533,111.2606 -97.269,111.5134 -97.673,111.8288 -98.0706,112.1782 -98.5537,112.4572 -99.0833,112.6979 -99.5492,113.0066 -100.0694,113.3524 -100.6191,113.7184 -101.0961,114.0953 -101.6223,114.4782 -102.1753,114.8644 -102.6539,115.2522 -103.0922,115.6411 -103.5084,116.1194 -103.9127,116.6464 -104.3105,117.1109 -104.7047,117.5414 -105.097,117.9534 -105.5772,118.4443 -106.2008,119.0762 L-106.54,119.42 " stroke-linecap="round" fill="none" stroke="#4f72fc" stroke-width="3" stroke-dasharray="none" stroke-dashoffset="0"/></g></g><g transform="matrix(1, 0, 0, 1, 1521.947, 7192.1077)" opacity="0.25"><g transform="scale(1)"><path d="M0,0 Q0.8892,0.8892 1.6646,1.8424 T2.9507,3.4031 3.8282,4.43 4.4834,5.1664 5.0176,5.8338 5.4861,6.4659 5.9188,6.9899 6.332,7.4528 6.8259,7.8824 7.3636,8.294 7.8339,8.6957 8.2676,9.181 8.6814,9.7118 9.0843,10.1784 9.4813,10.699 9.8752,11.2489 10.2673,11.7259 10.6584,12.2522 11.049,12.8052 11.5283,13.3728 12.0557,13.9484 12.6094,14.5282 13.1774,15.1104 13.7532,15.6939 14.3331,16.2781 14.9154,16.8626 15.5878,17.4474 16.2204,18.0323 16.8312,18.7061 17.4303,19.3394 17.9341,19.9507 18.4748,20.6412 19.1247,21.3748 19.745,22.1296 20.3492,22.8959 21.0358,23.7573 21.8563,24.6705 22.7472,25.523 23.5875,26.3424 24.4003,27.1439 25.1982,28.0245 25.899,28.9481 26.547,29.8063 27.2551,30.6288 27.9961,31.4319 28.8437,32.2245 29.7495,33.0113 30.6868,33.795 31.6413,34.4881 32.5162,35.2231 33.3479,36.0699 34.156,36.8862 34.8623,37.6859 35.5156,38.4767 36.229,39.1736 36.9727,39.8195 37.8219,40.5265 38.7285,41.1779 39.5773,41.799 40.3948,42.4037 41.1952,42.9994 41.8973,43.5902 42.5461,44.1783 43.1657,44.7651 43.7696,45.2621 44.3649,45.7992 44.9554,46.3582 45.6324,46.929 46.2674,47.5063 46.8796,47.9982 47.5684,48.5325 48.2098,49.09 48.8255,49.5733 49.4295,50.1053 50.0271,50.6615 50.6189,51.1419 51.1187,51.67 51.5685,52.224 52.0799,52.7922 52.6249,53.368 53.0992,53.8591 53.6239,54.393 54.1762,54.9503 54.7434,55.4312 55.3187,55.9596 55.8984,56.5138 56.4805,57.0821 57.064,57.658 57.6481,58.238 58.2327,58.8203 58.8174,59.3149 59.3133,59.7618 59.761,60.1828 60.2713,60.6786 60.8156,61.215 61.3785,61.6847 61.9515,62.118 62.5299,62.6205 63.1114,63.1606 63.6967,63.6323 64.3731,64.1579 65.0078,64.7129 65.6198,65.1927 66.2196,65.6315 66.8126,66.137 67.4019,66.6787 67.9004,67.1513 68.4383,67.5862 68.9977,68.0006 69.5687,68.4928 70.1461,69.0273 70.6381,69.4959 71.1725,69.9287 71.73,70.4309 72.3,70.9708 72.8768,71.4424 73.3685,71.8768 73.9027,72.2909 74.4601,72.6941 74.9411,73.0912 75.3806,73.4851 75.7976,73.8772 76.2022,74.2684 76.5113,74.659 76.7683,75.0493 77.086,75.4395 77.4367,75.8296 77.8053,76.2197 78.1836,76.6097 78.5696,76.9997 78.9596,77.3008 79.3497,77.5535 79.7397,77.8688 80.1297,78.2182 80.6086,78.6773 81.1359,79.1961 81.6006,79.6562 82.1202,80.0843 82.6696,80.5839 83.1463,81.1225 83.5835,81.5933 83.9991,82.0273 84.4031,82.5301 84.8007,83.0704 85.1948,83.5422 85.5871,83.9767 85.9783,84.3909 86.3689,84.794 86.7593,85.1912 87.1495,85.5851 87.5396,85.9772 87.9297,86.3684 88.3197,86.759 88.7097,87.1493 89.0108,87.5395 89.2635,87.9296 89.5788,88.3197 89.9282,88.7097 90.385,89.0997 90.8114,89.4897 91.2211,89.8797 91.7108,90.2697 92.155,90.6597 92.5745,91.1387 92.9829,91.577 93.3851,91.9933 93.7818,92.3977 94.1754,92.7977 94.5674,93.2844 94.9585,93.6381 95.349,93.9194 95.7394,94.3392 96.1295,94.8343 96.5196,95.1926 96.9097,95.4764 97.2997,95.8086 97.6897,96.1672 98.0797,96.629 98.4697,97.147 98.8597,97.6067 99.2497,98.0345 99.6397,98.4452 100.0297,98.8464 100.4197,99.2425 100.8097,99.6358 101.1997,100.0276 101.5897,100.4186 101.9797,100.8091 102.3697,101.1105 102.7597,101.3633 103.2387,101.6787 103.7659,102.0282 104.2306,102.3961 104.6613,102.7741 105.0734,103.0686 105.4754,103.3178 105.8719,103.6311 106.3544,103.9795 106.8836,104.3468 107.3517,104.7245 107.8753,105.1967 108.5325,105.8141 L108.89,106.15 " stroke-linecap="round" fill="none" stroke="#f76707" stroke-width="3" stroke-dasharray="none" stroke-dashoffset="0"/></g></g><g transform="matrix(1, 0, 0, 1, 1411.8904, 7073.4652)" opacity="1"><g transform="scale(1)"><path d="M0.39,0 Q1.2792,1.067 1.61,1.5351 T2.2096,2.3467 2.7137,2.9661 3.1657,3.392 3.5895,3.7125 3.9978,4.1537 4.3978,4.5715 4.7933,4.8878 5.1862,5.3265 5.5778,5.832 5.9687,6.2848 6.3592,6.7113 6.7517,7.1234 7.1454,7.5254 7.5374,7.9219 7.9284,8.3155 8.319,8.7074 8.7094,9.0985 9.0995,9.4891 9.4896,9.8794 9.8797,10.2695 10.2697,10.6596 10.6597,11.0497 11.0497,11.5286 11.4397,11.967 11.8297,12.2944 12.2197,12.7393 12.6097,13.1591 12.9997,13.4764 13.3897,13.8269 13.7797,14.2843 14.1697,14.7999 14.5597,15.2582 14.9497,15.6854 15.3397,16.0067 15.7297,16.2704 16.1197,16.5917 16.5097,17.0332 16.8997,17.4513 17.2897,17.7676 17.6797,18.2065 18.0697,18.623 18.4597,18.9386 18.8497,19.2881 19.2397,19.656 19.6297,20.123 20.0197,20.5548 20.4097,20.9699 20.7997,21.3758 21.192,21.7744 21.5855,22.258 21.9775,22.699 22.3685,23.1167 22.7591,23.5218 23.1494,23.92 23.5395,24.3144 23.9296,24.7068 24.3197,25.1871 24.7097,25.6262 25.0108,25.954 25.2635,26.3101 25.5788,26.7706 25.9282,27.2879 26.2961,27.7471 26.6741,28.2637 27.0575,28.7226 27.444,29.0611 27.7431,29.4231 27.9948,29.7979 28.3095,30.1796 28.6586,30.654 29.0263,31.09 29.4042,31.5049 29.7876,31.9974 30.2629,32.4432 30.6994,32.8635 31.0257,33.359 31.3811,33.8063 31.7522,34.2275 32.132,34.7234 32.5164,35.171 32.9034,35.5034 33.2028,35.7755 33.4546,36.1036 33.7694,36.5488 34.1185,37.0578 34.4863,37.5125 34.8642,38.0267 35.2476,38.5731 35.6363,39.0482 36.0279,39.5734 36.4187,40.037 36.8092,40.467 37.1994,40.9677 37.5896,41.4179 37.9796,41.8407 38.3697,42.2485 38.7597,42.6482 39.1497,43.0434 39.5397,43.4363 39.9297,43.8279 40.3197,44.2187 40.7987,44.6092 41.3259,44.9994 41.7906,45.3896 42.2213,45.8686 42.6334,46.3959 43.0354,46.8606 43.5209,47.2913 44.0517,47.7034 44.5183,48.1943 44.95,48.7281 45.3627,49.1964 45.8539,49.7202 46.3879,50.2741 46.8563,50.7533 47.2889,51.1918 47.791,51.6082 48.3309,52.0126 48.8025,52.4104 49.2368,52.8047 49.6532,53.2859 50.0599,53.8144 50.4589,54.2798 50.9428,54.7997 51.4728,55.3493 51.9389,55.9151 52.3703,56.4896 52.7829,56.98 53.1851,57.5135 53.5818,58.0705 53.9754,58.5514 54.3674,58.9908 54.7585,59.4966 55.149,60.0385 55.5394,60.5111 55.9295,60.9461 56.3196,61.3606 56.7097,61.8528 57.0997,62.2984 57.4897,62.6297 57.8797,62.9878 58.2697,63.4494 58.6597,63.8783 59.0497,64.2028 59.3508,64.5595 59.6035,64.9314 59.9188,65.3115 60.2682,65.6961 60.6361,66.1721 61.0141,66.6978 61.3975,67.1617 61.784,67.5918 62.172,68.0037 62.561,68.4056 62.9504,68.802 63.3401,69.1955 63.7299,69.5875 64.1221,69.9785 64.5156,70.2801 64.9075,70.6221 65.2985,70.9859 65.6891,71.2728 66.0794,71.6067 66.4695,71.9662 66.8596,72.3395 67.2497,72.7205 67.6397,73.1056 68.0297,73.4929 68.4197,73.8815 68.8097,74.2707 69.1997,74.7492 69.5897,75.1873 69.9797,75.5146 70.3697,75.8704 70.7597,76.3308 71.1497,76.848 71.6287,77.3072 72.067,77.7348 72.3944,78.1453 72.7504,78.5487 73.1218,78.9483 73.5018,79.3435 73.8863,79.8253 74.2733,80.2652 74.6617,80.5934 74.9619,80.9498 75.2141,81.3215 75.5291,81.6127 75.8784,81.86 76.2462,82.2613 76.6241,82.7463 77.0076,83.188 77.394,83.6062 77.7821,84.0115 78.171,84.4098 78.5627,84.8043 78.9559,85.2857 79.3477,85.8144 79.7386,86.2798 80.1291,86.7108 80.5194,87.0342 80.8206,87.299 81.0734,87.621 81.4777,87.9739 81.8755,88.3438 82.1808,88.7228 82.5247,89.1069 82.8896,89.4936 83.266,89.8818 83.6486,90.2709 84.0346,90.6604 84.4224,91.139 84.8112,91.6661 85.2005,92.1307 85.5902,92.6525 85.98,93.1165 86.3699,93.4578 86.7598,93.8213 87.0609,94.1969 87.3135,94.5791 87.6288,94.9648 87.9782,95.3525 88.3461,95.7412 88.7241,96.1306 89.1075,96.5202 89.494,96.9989 89.882,97.5261 90.271,97.9907 90.6604,98.4213 91.0501,98.8334 91.4399,99.2354 91.8298,99.6319 92.2198,100.0255 92.5208,100.4174 92.7735,100.8085 93.0911,101.288 93.444,101.8156 93.8138,102.3694 94.1928,102.8484 94.4879,103.198 94.7374,103.6549 95.0509,104.1702 95.3994,104.6284 95.7667,105.0555 96.1444,105.4657 96.4388,105.8666 96.6879,106.2626 97.0012,106.7448 97.3495,107.2761 97.7168,107.7453 98.0945,108.2673 98.4777,108.818 98.8641,109.2954 99.2521,109.6441 99.5521,109.9227 99.8042,110.252 100.1192,110.6091 100.4684,110.9811 100.8362,111.4503 101.2141,111.9723 101.5976,112.3452 101.984,112.6369 102.2831,112.9735 102.5348,113.3344 102.8495,113.7086 103.1986,114.09 103.5663,114.4753 103.9442,114.8628 104.3276,115.1625 104.8029,115.4144 105.2394,115.7293 105.5657,115.9896 105.9211,116.22 106.2033,116.5233 106.4458,116.7771 106.7555,117.0042 107.1018,117.3055 107.4704,117.5584 108.0288,117.8737 108.8392,118.37 L109.28,118.64 " stroke-linecap="round" fill="none" stroke="#e599f7" stroke-width="3" stroke-dasharray="none" stroke-dashoffset="0"/></g></g><g transform="matrix(1, 0, 0, 1, 1519.9956, 7192.8883)" opacity="1"><g transform="scale(1)"><path d="M0,0 Q1.067,-2.1341 1.4462,-2.8035 T2.1205,-3.9259 2.6652,-4.7144 3.1394,-5.3211 3.5751,-5.918 3.99,-6.5117 4.3936,-7.0148 4.7909,-7.4663 5.185,-7.9787 5.5771,-8.5242 5.9683,-8.9988 6.359,-9.4348 6.7516,-9.8499 7.1453,-10.2535 7.5373,-10.7398 7.9284,-11.2711 8.319,-11.8269 8.7093,-12.3961 9.0995,-12.8835 9.4896,-13.4154 9.8797,-13.9715 10.2697,-14.4519 10.6597,-14.98 11.0497,-15.534 11.4397,-16.0133 11.8297,-16.5407 12.2197,-17.0944 12.6097,-17.5735 12.9997,-18.0119 13.3897,-18.5172 13.7797,-19.0588 14.1697,-19.5313 14.5597,-19.9662 14.9497,-20.2917 15.3397,-20.5577 15.7297,-20.8802 16.1197,-21.2358 16.5097,-21.6094 16.8997,-22.0793 17.2897,-22.6907 17.6797,-23.29 18.0697,-23.7939 18.4597,-24.2458 18.8497,-24.6695 19.2397,-24.9889 19.5408,-25.2516 19.7935,-25.6613 20.1088,-26.1509 20.4582,-26.5951 20.8261,-27.0146 21.2064,-27.4206 21.6823,-27.8193 22.2079,-28.2141 22.6717,-28.6067 23.1018,-29.087 23.5137,-29.615 23.9156,-30.0801 24.312,-30.511 24.7945,-30.9232 25.3237,-31.3253 25.7894,-31.7219 26.2206,-32.2044 26.633,-32.7336 27.0352,-33.1994 27.4318,-33.6306 27.8254,-34.043 28.2174,-34.4452 28.6085,-34.8418 28.999,-35.3266 29.3894,-35.8594 29.7795,-36.3271 30.1696,-36.7593 30.5597,-37.2612 30.9497,-37.801 31.3397,-38.2725 31.7297,-38.7958 32.1197,-39.3472 32.5097,-39.825 32.8997,-40.2628 33.2897,-40.6787 33.6797,-41.0829 34.1587,-41.5695 34.6859,-42.101 35.1506,-42.5679 35.5835,-43.0887 35.9992,-43.6388 36.4031,-44.2048 36.8007,-44.7794 37.1948,-45.2699 37.5871,-45.8035 37.9783,-46.3605 38.3689,-46.8413 38.7593,-47.2808 39.1495,-47.7866 39.6285,-48.3285 40.1559,-48.8901 40.6206,-49.4646 41.1402,-50.0462 41.6896,-50.7182 42.1663,-51.3506 42.6924,-51.9614 43.2453,-52.5604 43.724,-53.153 44.1622,-53.8311 44.5784,-54.4667 45.0716,-55.0792 45.6067,-55.7682 46.1645,-56.4986 46.7347,-57.2516 47.3117,-58.017 47.9812,-58.789 48.7012,-59.5647 49.3618,-60.3423 49.9903,-61.121 50.6878,-61.9003 51.3341,-62.591 51.9524,-63.2335 52.5555,-63.8521 53.0614,-64.4576 53.6034,-65.1427 54.165,-65.7821 54.6484,-66.3968 55.1781,-67.0868 55.733,-67.8179 56.2127,-68.4823 56.6515,-69.1105 57.157,-69.808 57.6987,-70.4541 58.1713,-70.9835 58.6951,-71.5382 59.2468,-72.1068 59.7248,-72.6828 60.1626,-73.2629 60.6676,-73.8453 61.2091,-74.4288 61.6814,-75.013 62.1163,-75.6865 62.5306,-76.3197 63.0228,-76.9309 63.5573,-77.619 64.0282,-78.3514 64.5534,-79.0188 65.1059,-79.5597 65.5843,-80.1207 66.1113,-80.6927 66.6647,-81.2706 67.2326,-81.8517 67.8082,-82.4346 68.2992,-83.1074 68.7442,-83.8291 69.1641,-84.4884 69.6593,-85.1139 70.1954,-85.8098 70.6649,-86.4551 71.0981,-87.0729 71.6006,-87.6758 72.1407,-88.2705 72.6123,-88.8608 73.0467,-89.3598 73.4609,-89.8979 73.953,-90.4575 74.4874,-90.9397 74.956,-91.3799 75.3887,-91.7972 75.802,-92.2909 76.2046,-92.8286 76.6015,-93.3012 76.9953,-93.825 77.3873,-94.3768 77.8673,-94.8548 78.3975,-95.3816 78.866,-95.9349 79.3877,-96.4137 79.9382,-96.8521 80.4156,-97.2684 80.8531,-97.6727 81.2689,-98.0705 81.673,-98.4647 82.0706,-98.857 82.4648,-99.2482 82.857,-99.6389 83.2483,-100.0293 83.6389,-100.4195 84.0293,-100.8096 84.4195,-101.1997 84.8096,-101.5897 85.1997,-101.9797 85.5897,-102.3697 85.9797,-102.7597 86.3697,-103.1497 86.7597,-103.5397 87.1497,-104.0187 87.5397,-104.5459 87.9297,-105.0106 88.3197,-105.4413 88.7097,-105.8534 89.0997,-106.2554 89.4897,-106.6519 89.8797,-107.0455 90.2697,-107.4397 90.6597,-107.7454 91.0497,-108.0006 91.4397,-108.4061 91.8297,-108.8935 92.2197,-109.3365 92.6097,-109.7554 93.002,-110.25 93.3955,-110.7858 93.7875,-111.1662 94.1785,-111.462 94.5691,-111.8008 94.9594,-112.163 95.4385,-112.5378 95.9658,-112.9196 96.4306,-113.3051 96.7723,-113.8705 97.0364,-114.6862 L97.18,-115.13 " stroke-linecap="round" fill="none" stroke="#e599f7" stroke-width="3" stroke-dasharray="none" stroke-dashoffset="0"/></g></g><g transform="matrix(1, 0, 0, 1, 1574.2434, 7062.5376)" opacity="1"><g transform="scale(1)"><path d="M0,0 Q-3.0233,4.4506 -3.9345,5.9279 T-5.4327,8.5645 -6.4278,10.6213 -7.147,12.3626 -7.6272,13.9323 -7.8884,15.3198 -8.0305,16.6081 -8.1078,17.8424 -7.5251,20.2946 -6.4056,23.3203 -5.4409,25.4109 -4.5604,26.9039 -3.7257,27.9829 -2.916,28.9255 -2.2087,29.705 -1.6462,30.3069 -1.1623,30.9011 -0.8101,31.669 -0.538,32.6411 L-0.39,33.17 " stroke-linecap="round" fill="none" stroke="#e599f7" stroke-width="3" stroke-dasharray="none" stroke-dashoffset="0"/></g></g><g transform="matrix(1, 0, 0, 1, 1575.0239, 7094.5399)" opacity="1"><g transform="scale(1)"><path d="M0,0 Q0.1778,-2.3119 0.2262,-3.1186 T0.3009,-4.542 0.3415,-5.6742 0.3636,-6.1123 0.3807,-5.9424 L0.39,-5.85 " stroke-linecap="round" fill="none" stroke="#e599f7" stroke-width="3" stroke-dasharray="none" stroke-dashoffset="0"/></g></g><g transform="matrix(1, 0, 0, 1, 1575.8045, 7093.7593)" opacity="1"><g transform="scale(1)"><path d="M0,0 Q-0.8892,1.4227 -1.3089,1.9875 T-2.2237,2.9485 -3.2548,3.7381 -4.3493,4.4344 -5.3893,4.991 -6.5798,5.3827 -8.1343,5.6854 L-8.98,5.85 " stroke-linecap="round" fill="none" stroke="#e599f7" stroke-width="3" stroke-dasharray="none" stroke-dashoffset="0"/></g></g><g transform="matrix(1, 0, 0, 1, 1562.145, 7026.2423)" opacity="1"><g transform="scale(1)"><path d="M0,0 Q0,3.2011 0,4.4298 T0,6.6825 0,8.6194 0,10.2955 0,11.7408 0,13.0605 0,14.312 0,15.5263 0,16.6315 0,17.7663 0,19.1482 L0,19.9 " stroke-linecap="round" fill="none" stroke="#e599f7" stroke-width="3" stroke-dasharray="none" stroke-dashoffset="0"/></g></g><g transform="matrix(1, 0, 0, 1, 1580.0974, 7031.7061)" opacity="1"><g transform="scale(1)"><path d="M0,0 Q-3.7392,4.2727 -4.8452,5.6127 T-6.7307,7.8596 -8.4401,9.8482 L-9.37,10.93 " stroke-linecap="round" fill="none" stroke="#e599f7" stroke-width="3" stroke-dasharray="none" stroke-dashoffset="0"/></g></g><g transform="matrix(1, 0, 0, 1, 1571.9017, 7032.4867)" opacity="1"><g transform="scale(1)"><path d="M0,0 Q1.7784,3.3835 2.44,4.4817 T3.906,6.5329 5.6703,8.623 L6.63,9.76 " stroke-linecap="round" fill="none" stroke="#e599f7" stroke-width="3" stroke-dasharray="none" stroke-dashoffset="0"/></g></g><g transform="matrix(1, 0, 0, 1, 1586.7321, 7026.2423)" opacity="1"><g transform="scale(1)"><path d="M0,0 Q0,6.4068 0.1778,8.9497 T0.5678,14.5263 L0.78,17.56 " stroke-linecap="round" fill="none" stroke="#e599f7" stroke-width="3" stroke-dasharray="none" stroke-dashoffset="0"/></g></g><g transform="matrix(1, 0, 0, 1, 1599.2208, 7031.7061)" opacity="1"><g transform="scale(1)"><path d="M0,0 Q1.2449,-0.3557 1.8502,-0.4524 T3.4963,-0.6907 5.7785,-1.0011 L7.02,-1.17 " stroke-linecap="round" fill="none" stroke="#e599f7" stroke-width="3" stroke-dasharray="none" stroke-dashoffset="0"/></g></g><g transform="matrix(1, 0, 0, 1, 1600.0013, 7037.17)" opacity="1"><g transform="scale(1)"><path d="M0,0 Q1.9562,0.1778 2.6662,0.2262 T4.118,0.3009 5.7449,0.3586 L6.63,0.39 " stroke-linecap="round" fill="none" stroke="#e599f7" stroke-width="3" stroke-dasharray="none" stroke-dashoffset="0"/></g></g><g transform="matrix(1, 0, 0, 1, 1626.93, 7011.0218)" opacity="1"><g transform="scale(1)"><path d="M0,0 Q0.1778,-1.6006 0.1373,-2.1248 T-0.0142,-3.0232 -0.2745,-3.6898 -0.6828,-4.2302 -1.1718,-4.7021 -1.7045,-5.0477 -2.4389,-5.2357 -3.7276,-4.8934 -5.14,-3.9958 -6.0885,-3.1518 -6.6957,-2.426 -7.026,-1.6754 -7.2056,-0.8225 -7.3034,0.0861 -7.3566,0.936 -7.3855,1.6652 -7.4012,2.3286 -7.4098,3.1341 -7.4144,4.0168 -7.417,4.7638 -7.4184,5.5259 -7.3279,6.4762 -7.0986,7.3512 -6.8849,8.005 -6.6797,8.7164 -6.3903,9.5479 -6.055,10.2671 -5.6948,10.9251 -5.321,11.7276 -4.9398,12.6088 -4.5545,13.4438 -4.2561,14.2538 -4.0048,15.05 -3.7792,15.8389 -3.5675,16.6237 -3.3634,17.4953 -3.2524,18.414 -3.1031,19.1805 -2.933,19.8643 -2.8404,20.6831 -2.7011,21.5755 -2.5365,22.4166 -2.4469,23.2298 -2.3981,24.0279 -2.3716,24.8177 -2.535,25.692 -2.9796,26.5233 -3.4882,27.0644 -3.9428,27.3588 -4.4568,27.519 -5.181,27.5172 -5.9307,27.3383 -6.5186,27.0632 -7.0186,26.8246 -7.4684,26.517 -7.802,26.1718 -7.8946,25.984 -7.7671,25.8819 -7.4287,25.9152 -6.9756,26.0223 -6.4623,26.2584 -5.8274,26.6535 -5.2153,27.3131 -4.7933,28.1165 -4.5638,28.8204 -4.439,29.5589 -4.371,30.4053 -4.423,31.3103 -4.6291,32.1583 -5.008,33.0643 -5.4809,34.0017 -6.0049,34.9585 -6.559,35.9259 -6.9516,36.7189 -7.2541,37.4171 -7.5965,38.1526 -7.9606,39.0862 -8.2476,40.0387 -8.4927,40.9125 -8.7149,41.9214 -8.7469,42.9149 -8.6753,43.811 -8.4586,44.6541 -8.0739,45.4685 -7.5956,46.2672 -6.8885,47.1463 -6.0593,48.0691 -5.1636,48.8379 -4.3206,49.4362 -3.5064,50.0307 -2.441,50.7098 -1.3279,51.346 -0.1889,51.781 0.9643,52.1066 1.9473,52.3726 2.9267,52.4284 4.0622,52.3453 L4.68,52.3 " stroke-linecap="round" fill="none" stroke="#e599f7" stroke-width="3" stroke-dasharray="none" stroke-dashoffset="0"/></g></g><g transform="matrix(1, 0, 0, 1, 1642.1506, 7011.0218)" opacity="1"><g transform="scale(1)"><path d="M0,0 Q-0.7114,1.4227 -1.0827,1.9875 T-1.7449,3.0375 -2.9944,4.8558 -4.5633,7.0921 -5.7748,8.6643 -7.0929,10.1317 L-7.81,10.93 " stroke-linecap="round" fill="none" stroke="#e599f7" stroke-width="3" stroke-dasharray="none" stroke-dashoffset="0"/></g></g><g transform="matrix(1, 0, 0, 1, 1633.5646, 7009.8509)" opacity="1"><g transform="scale(1)"><path d="M0,0 Q1.4227,1.2449 2.0765,1.8502 T3.2637,3.0517 4.3541,4.1499 5.3919,5.1919 6.3144,6.2056 7.5299,7.2929 9.2269,8.6382 L10.15,9.37 " stroke-linecap="round" fill="none" stroke="#e599f7" stroke-width="3" stroke-dasharray="none" stroke-dashoffset="0"/></g></g><g transform="matrix(1, 0, 0, 1, 1671.8112, 7005.9482)" opacity="1"><g transform="scale(1)"><path d="M0,0 Q0.8892,3.0233 1.1311,4.0257 T1.5045,5.8403 1.7966,7.3609 2.2222,7.4745 2.7205,6.2891 3.1694,5.1997 3.6804,4.3403 4.2251,3.6949 4.7882,3.166 5.4502,2.7893 6.1683,2.5844 6.828,2.473 7.4536,2.5902 8.0607,2.9207 8.5688,3.3673 8.9342,3.9659 9.2218,4.825 9.4672,5.8282 9.6007,6.9987 9.7039,8.5345 L9.76,9.37 " stroke-linecap="round" fill="none" stroke="#e599f7" stroke-width="3" stroke-dasharray="none" stroke-dashoffset="0"/></g></g><g transform="matrix(1, 0, 0, 1, 1691.3248, 7006.7288)" opacity="1"><g transform="scale(1)"><path d="M0,0 Q-1.2449,1.2449 -1.6724,1.7613 T-2.3325,2.7366 -2.6916,3.6228 -2.798,4.5495 -2.5892,5.4093 -2.2088,6.0548 -1.4683,6.1393 -0.532,5.5628 0.0663,4.8045 0.3917,4.1253 0.6577,3.6669 0.9802,3.5064 1.2446,3.6859 1.4773,4.1392 1.7818,4.7415 2.1253,5.3359 2.4899,5.926 3.1329,6.4249 4.1349,6.8103 L4.68,7.02 " stroke-linecap="round" fill="none" stroke="#e599f7" stroke-width="3" stroke-dasharray="none" stroke-dashoffset="0"/></g></g><g transform="matrix(1, 0, 0, 1, 1700.6913, 7013.3634)" opacity="1"><g transform="scale(1)"><path d="M0,0 Q0.3557,-0.3557 0.3635,-0.6303 T0.0199,-1.8545 -0.4338,-3.3208 -0.5027,-4.1184 -0.2735,-4.5523 0.2069,-4.7884 0.8239,-4.9168 1.5153,-4.9867 2.247,-5.0247 2.9119,-5.0453 3.5403,-5.2344 4.2784,-5.6331 L4.68,-5.85 " stroke-linecap="round" fill="none" stroke="#e599f7" stroke-width="3" stroke-dasharray="none" stroke-dashoffset="0"/></g></g><g transform="matrix(1, 0, 0, 1, 1686.2513, 6996.1914)" opacity="1"><g transform="scale(1)"><path d="M0,0 Q2.6676,-0.7114 3.4821,-0.8159 T4.8286,-0.7995 5.739,-0.346 5.6118,0.4342 4.5031,1.4159 L3.9,1.95 " stroke-linecap="round" fill="none" stroke="#e599f7" stroke-width="3" stroke-dasharray="none" stroke-dashoffset="0"/></g></g><g transform="matrix(1, 0, 0, 1, 1732.3033, 7003.2163)" opacity="1"><g transform="scale(1)"><path d="M0,0 Q-3.0233,3.917 -4.0257,5.0714 T-5.8403,6.9426 -7.6212,8.5148 L-8.59,9.37 " stroke-linecap="round" fill="none" stroke="#e599f7" stroke-width="3" stroke-dasharray="none" stroke-dashoffset="0"/></g></g><g transform="matrix(1, 0, 0, 1, 1723.3271, 7002.4358)" opacity="1"><g transform="scale(1)"><path d="M0,0 Q1.6006,1.9562 2.1248,2.7551 T3.2011,4.2553 4.2311,5.5183 5.1472,6.5633 5.9123,7.3986 6.9532,7.9419 8.5185,8.3616 L9.37,8.59 " stroke-linecap="round" fill="none" stroke="#e599f7" stroke-width="3" stroke-dasharray="none" stroke-dashoffset="0"/></g></g><g transform="matrix(1, 0, 0, 1, 1737.7671, 6995.8012)" opacity="1"><g transform="scale(1)"><path d="M0,0 Q1.6006,2.6676 2.2138,3.571 T3.3384,5.0548 4.3058,6.0422 5.0989,6.6705 5.8883,7.1012 6.8803,7.5603 L7.42,7.81 " stroke-linecap="round" fill="none" stroke="#e599f7" stroke-width="3" stroke-dasharray="none" stroke-dashoffset="0"/></g></g><g transform="matrix(1, 0, 0, 1, 1743.2309, 7004.3871)" opacity="1"><g transform="scale(1)"><path d="M0,0 Q-0.3557,1.7784 -0.6303,2.5289 T-1.1431,3.9544 -1.7778,5.3546 -2.4788,6.5632 -3.2158,7.3096 -4.1641,7.8863 L-4.68,8.2 " stroke-linecap="round" fill="none" stroke="#e599f7" stroke-width="3" stroke-dasharray="none" stroke-dashoffset="0"/></g></g><g transform="matrix(1, 0, 0, 1, 1747.1336, 7009.0704)" opacity="1"><g transform="scale(1)"><path d="M0,0 Q-1.4227,2.8454 -1.8986,3.8884 T-2.9423,6.1757 L-3.51,7.42 " stroke-linecap="round" fill="none" stroke="#e599f7" stroke-width="3" stroke-dasharray="none" stroke-dashoffset="0"/></g></g><g transform="matrix(1, 0, 0, 1, 1757.671, 6999.3136)" opacity="1"><g transform="scale(1)"><path d="M-0.7114,0.6224 Q-1.4227,1.2449 -1.9875,2.0281 T-2.9485,3.4152 -3.5602,4.8834 -3.893,6.3958 -2.8292,7.9299 -0.7388,9.1201 0.7541,9.5008 1.8329,9.4412 2.8644,9.053 3.7813,8.395 4.5468,7.5902 5.141,6.7077 5.4643,5.6052 5.5513,4.3831 5.4207,3.3625 4.994,2.4516 4.2284,1.4226 3.1894,0.5071 1.8815,-0.3265 0.585,-0.39 -0.7114,0.6224 Z" stroke-linecap="round" fill="none" stroke="#e599f7" stroke-width="3" stroke-dasharray="none" stroke-dashoffset="0"/></g></g><g transform="matrix(1, 0, 0, 1, 1630.8327, 7047.317)" opacity="1"><g transform="scale(1)"><path d="M0,0 Q1.4227,0.1778 1.9875,0.2262 T3.6622,0.0341 6.096,-0.4932 L7.42,-0.78 " stroke-linecap="round" fill="none" stroke="#e599f7" stroke-width="3" stroke-dasharray="none" stroke-dashoffset="0"/></g></g><g transform="matrix(1, 0, 0, 1, 1652.6879, 7040.2921)" opacity="1"><g transform="scale(1)"><path d="M0,0 Q-1.067,1.6006 -1.713,2.4805 T-2.977,4.1059 -4.0203,5.5259 -4.8547,6.7453 -5.6642,7.8532 -6.6404,9.2562 -7.9031,11.0981 L-8.59,12.1 " stroke-linecap="round" fill="none" stroke="#e599f7" stroke-width="3" stroke-dasharray="none" stroke-dashoffset="0"/></g></g><g transform="matrix(1, 0, 0, 1, 1643.7117, 7040.2921)" opacity="1"><g transform="scale(1)"><path d="M0,0 Q1.6006,2.1341 2.2138,2.9813 T3.4273,4.5562 4.621,5.9487 5.8061,7.2421 6.8977,8.4792 7.9362,9.5967 9.1174,10.7128 L9.76,11.32 " stroke-linecap="round" fill="none" stroke="#e599f7" stroke-width="3" stroke-dasharray="none" stroke-dashoffset="0"/></g></g><g transform="matrix(1, 0, 0, 1, 1676.4945, 7040.6824)" opacity="1"><g transform="scale(1)"><path d="M0,0 Q0.3557,2.4898 0.4524,3.4337 T0.6018,5.1603 0.772,6.5464 0.9535,7.6561 1.0522,8.6155 1.5505,7.8902 2.3551,5.8928 3.0596,4.4506 3.7096,3.3103 4.4188,2.5122 5.2493,1.9891 5.9678,1.7045 6.5388,1.6386 7.0296,1.6917 7.4744,1.9873 7.8053,2.4149 8.0742,2.9143 8.3094,3.5416 8.5263,4.2386 8.8221,5.4203 9.177,7.2206 L9.37,8.2 " stroke-linecap="round" fill="none" stroke="#e599f7" stroke-width="3" stroke-dasharray="none" stroke-dashoffset="0"/></g></g><g transform="matrix(1, 0, 0, 1, 1694.0567, 7041.8532)" opacity="1"><g transform="scale(1)"><path d="M0,0 Q-0.5335,0 -0.7676,0.1778 T-1.04,1.5195 -1.0104,3.4053 -0.6386,4.609 0.0083,5.2638 0.7159,5.4422 1.3676,5.1836 1.8999,4.6872 2.2784,4.0615 2.5733,3.1876 2.8226,2.4454 2.9582,2.3084 3.1209,2.5896 3.2983,3.0093 3.4838,3.5933 3.7625,4.1778 4.1809,4.5846 4.8531,4.806 5.7513,4.977 L6.24,5.07 " stroke-linecap="round" fill="none" stroke="#e599f7" stroke-width="3" stroke-dasharray="none" stroke-dashoffset="0"/></g></g><g transform="matrix(1, 0, 0, 1, 1706.1551, 7046.5365)" opacity="1"><g transform="scale(1)"><path d="M0,0 Q-0.1778,-1.4227 -0.3151,-2.0765 T-0.2604,-3.3526 0.1251,-4.3136 0.7794,-4.8363 1.6689,-5.1207 2.5974,-5.2754 3.636,-5.4485 4.8173,-5.7085 L5.46,-5.85 " stroke-linecap="round" fill="none" stroke="#e599f7" stroke-width="3" stroke-dasharray="none" stroke-dashoffset="0"/></g></g><g transform="matrix(1, 0, 0, 1, 1692.1054, 7030.9256)" opacity="1"><g transform="scale(1)"><path d="M1.067,-0.5335 Q2.1341,-1.067 2.8924,-1.3573 T4.33,-1.7165 5.4677,-1.6451 6.1756,-1.2506 6.6518,-0.6803 5.9328,0.3413 3.8584,1.8884 1.365,1.365 1.067,-0.5335 Z" stroke-linecap="round" fill="none" stroke="#e599f7" stroke-width="3" stroke-dasharray="none" stroke-dashoffset="0"/></g></g><g transform="matrix(1, 0, 0, 1, 1736.5963, 7035.9991)" opacity="1"><g transform="scale(1)"><path d="M0,0 Q-1.6006,2.3119 -2.2138,3.2075 T-3.4273,4.9483 -4.4431,6.2532 -5.3514,7.052 -6.4321,7.7955 L-7.02,8.2 " stroke-linecap="round" fill="none" stroke="#e599f7" stroke-width="3" stroke-dasharray="none" stroke-dashoffset="0"/></g></g><g transform="matrix(1, 0, 0, 1, 1728.4006, 7035.9991)" opacity="1"><g transform="scale(1)"><path d="M0,0 Q2.3119,2.1341 3.1186,2.8035 T4.6309,4.0148 5.8115,4.8517 6.8117,5.4848 7.8894,6.0959 9.2759,6.6974 11.105,7.418 L12.1,7.81 " stroke-linecap="round" fill="none" stroke="#e599f7" stroke-width="3" stroke-dasharray="none" stroke-dashoffset="0"/></g></g><g transform="matrix(1, 0, 0, 1, 1759.6223, 7028.9742)" opacity="1"><g transform="scale(1)"><path d="M0,0 Q-2.3119,2.6676 -3.0297,3.571 T-4.4047,5.146 -5.5995,6.3608 -6.6075,7.3773 -7.6004,8.286 -8.6741,9.136 -9.436,9.7762 -9.6727,10.2134 -9.6236,10.5402 -9.3301,10.8069 -8.8148,11.1298 -8.1765,11.4833 -7.2934,11.9423 -6.2796,12.5478 -5.3723,13.1439 -4.612,13.646 -4.0206,14.097 -3.3432,14.5202 -2.4409,14.9734 L-1.95,15.22 " stroke-linecap="round" fill="none" stroke="#e599f7" stroke-width="3" stroke-dasharray="none" stroke-dashoffset="0"/></g></g><g transform="matrix(1, 0, 0, 1, 1772.5013, 7030.5353)" opacity="1"><g transform="scale(1)"><path d="M-0.4446,0 Q-0.8892,0 -1.3978,0.4446 T-2.2721,1.3089 -3.0144,2.3126 -3.685,3.3921 -3.1606,5.6712 -1.4526,8.4249 0.2768,9.9229 1.8401,10.56 3.224,10.5509 4.4215,10.0124 5.3396,9.097 5.928,8.1522 6.2481,7.1024 6.2444,5.9089 5.8867,4.6371 5.1586,3.234 4.1401,1.9371 2.9742,0.6825 1.17,0 -0.4446,0 Z" stroke-linecap="round" fill="none" stroke="#e599f7" stroke-width="3" stroke-dasharray="none" stroke-dashoffset="0"/></g></g></svg>