<svg xmlns="http://www.w3.org/2000/svg" direction="ltr" width="484.5480798838363" height="416.29814604746025" viewBox="846.1698120636669 11125.223310857105 484.5480798838363 416.29814604746025" stroke-linecap="round" stroke-linejoin="round" style="background-color: transparent;"><defs/><g transform="matrix(1, 0, 0, 1, 920, 11200)" opacity="1"><path d="M0,118.96112429634468 a120.79198175314752,118.96112429634468,0,1,1,241.58396350629505,0a120.79198175314752,118.96112429634468,0,1,1,-241.58396350629505,0 " stroke="#f2f2f2" stroke-width="3.5" fill="none"/></g><g transform="matrix(1, 0, 0, 1, 878.1698, 11318.6654)" opacity="1"><g transform="scale(1)"><path d="M0,0 Q2.7269,0.456 3.6966,0.58 T5.6475,0.5435 7.6163,0.2957 9.369,0.1609 11.0042,-0.1405 12.8012,-0.5324 14.4605,-0.7456 16.0449,-0.8616 17.8165,-0.9247 19.462,-0.9591 21.0388,-0.9777 22.8064,-0.9879 24.4496,-0.9934 26.0253,-0.9964 27.7899,-0.998 29.4315,-0.9989 31.0063,-0.9994 32.7727,-0.9997 34.4154,-0.9998 35.9907,-0.9999 37.7574,-0.9999 39.4002,-1 40.9756,-1 42.74,-1 44.3816,-1 45.9564,-1 47.7205,-1 49.3618,-1 50.9365,-1 52.7028,-1 54.3454,-1 55.9207,-1 57.6874,-1 59.3302,-1 60.9056,-1 62.4443,-1 63.9631,-1 65.6968,-1 67.5496,-1 69.2393,-1 70.8402,-1 72.6208,-1 74.7249,-1 76.7769,-1 78.575,-1 80.2348,-1 82.0452,-1 84.3935,-1 86.8087,-1 88.8043,-1 90.5716,-1 92.2148,-0.772 93.7904,-0.42 95.3292,-0.2285 97.0738,-0.1243 99.1605,-0.0676 100.9774,0.1912 102.6453,0.56 104.4623,0.7607 106.3605,0.8698 108.3006,0.9292 110.0377,0.9615 111.6644,0.979 113.459,0.9886 115.345,0.9938 117.2785,1.2223 119.24,1.5724 121.2167,1.7628 123.1995,1.8664 125.1879,1.9228 127.1793,1.9534 129.3981,1.9701 131.7405,1.9792 133.9222,1.9841 135.7908,1.9868 137.489,2.2163 139.3226,2.5691 141.2298,2.761 143.1747,2.8654 144.9145,2.9222 146.5426,2.9531 148.3381,2.9699 150.2245,2.9791 152.1582,2.9841 153.8918,2.9868 155.5166,2.9882 157.3102,2.989 159.4237,2.9895 161.7088,2.9897 164.0874,2.7618 166.5168,2.4099 168.5201,2.2184 170.2916,2.1143 172.1628,1.8319 174.0904,1.4525 176.0487,1.2462 177.7958,0.9059 179.6559,0.4928 181.8033,0.2681 183.6531,0.1458 185.7949,-0.1487 188.5492,-0.5369 191.1852,-0.7481 193.529,-0.8629 195.4834,-0.9254 197.2283,-0.9594 199.0873,-1.2037 201.006,-1.5622 202.9595,-1.7573 204.9319,-1.8634 206.6867,-1.9211 208.5509,-1.9525 210.9286,-1.9696 213.3574,-1.9789 215.5862,-1.984 217.7083,-1.9867 219.7725,-1.9882 221.8028,-1.989 223.8148,-1.9895 226.0447,-1.9897 228.3955,-1.9898 230.5841,-1.9899 232.6821,-1.99 234.7331,-1.99 236.7586,-1.7643 238.7679,-1.4158 240.7707,-1.2262 242.7699,-1.123 244.765,-1.0669 246.76,-0.8084 248.755,-0.4398 250.9757,-0.2392 253.3192,-0.1301 255.5015,-0.0708 257.5984,-0.0385 259.6489,-0.021 261.446,-0.0114 263.1054,-0.0062 264.9155,-0.0034 266.81,-0.0018 268.7503,-0.001 270.4875,-0.0005 272.1143,-0.0003 273.9067,-0.0002 276.0172,-0.0001 278.5288,0 281.0328,0 283.3047,0.228 285.448,0.58 287.5214,0.7715 289.5591,0.8757 291.8053,0.9324 294.3907,0.9632 296.9326,0.98 299.4508,0.9891 301.9562,0.9941 304.2288,1.2225 306.3748,1.5725 308.4497,1.7629 310.2602,1.8664 311.9268,2.1508 313.7408,2.5335 315.6374,2.7416 317.5789,2.8549 319.5425,2.9165 321.5204,2.95 323.5061,2.9682 325.7218,2.9782 328.0625,2.9836 330.4713,2.9865 332.9194,2.9881 335.3889,2.989 337.8678,2.7614 340.1237,2.4097 342.4864,2.2183 344.6814,2.1142 347.0109,1.8318 349.6416,1.2245 352.2104,0.6661 354.7433,0.1344 357.0286,-0.6086 359.1816,-1.2385 361.2625,-1.5812 363.53,-1.7676 365.6732,-1.869 367.5208,-1.9242 369.4334,-1.9542 371.3835,-1.7448 373.3541,-1.4052 375.5616,-1.2204 377.8978,-0.8919 379.8505,-0.4852 381.5945,-0.2639 383.2249,-0.1436 384.5656,-0.0781 385.9766,-0.0425 387.7146,-0.015 L388.66,0 " stroke-linecap="round" fill="none" stroke="#f2f2f2" stroke-width="4.5" stroke-dasharray="none" stroke-dashoffset="0"/></g></g><g transform="matrix(1, 0, 0, 1, 1267.8233, 11313.6826)" opacity="1"><g transform="scale(1)"><path d="M0,0 Q-2.7269,-1.3634 -4.3783,-2.188 T-7.3818,-3.6892 -10.347,-5.1729 L-11.96,-5.98 " stroke-linecap="round" fill="none" stroke="#f2f2f2" stroke-width="4.5" stroke-dasharray="none" stroke-dashoffset="0"/></g></g><g transform="matrix(1, 0, 0, 1, 1267.8233, 11316.6723)" opacity="1"><g transform="scale(1)"><path d="M0,0 Q-0.456,2.7269 -0.8058,3.9223 T-1.8018,6.4498 -3.0253,8.7344 -4.3727,10.887 -5.7873,12.9655 -7.0106,14.7778 -8.1321,16.6735 -9.3224,18.7826 L-9.97,19.93 " stroke-linecap="round" fill="none" stroke="#f2f2f2" stroke-width="4.5" stroke-dasharray="none" stroke-dashoffset="0"/></g></g><g transform="matrix(1, 0, 0, 1, 1296.7235, 11313.6826)" opacity="1"><g transform="scale(1)"><path d="M0,-1 Q-1.8194,0.3634 -2.768,0.9623 T-5.3681,3.2504 -8.146,6.3122 -10.1132,8.4316 -11.6371,10.0406 -13.1351,11.9314 L-13.95,12.96 " stroke-linecap="round" fill="none" stroke="#f2f2f2" stroke-width="4.5" stroke-dasharray="none" stroke-dashoffset="0"/></g></g><g transform="matrix(1, 0, 0, 1, 1286.7579, 11311.6895)" opacity="1"><g transform="scale(1)"><path d="M0,0 Q1.3634,2.7269 1.9623,3.9223 T3.1126,6.2241 4.1922,8.3859 5.2354,10.4694 7.1664,12.7383 10.2711,15.4596 L11.96,16.94 " stroke-linecap="round" fill="none" stroke="#f2f2f2" stroke-width="4.5" stroke-dasharray="none" stroke-dashoffset="0"/></g></g><g transform="matrix(1, 0, 0, 1, 1038.6154, 11158.2199)" opacity="1"><g transform="scale(1)"><path d="M0,0 Q0.456,2.7269 0.352,3.9223 T0.1915,6.2241 0.1042,8.3859 0.0567,10.4694 0.0308,12.5103 -0.2112,15.212 -0.5709,18.5011 -0.7666,21.4258 -0.873,23.9243 -0.9309,26.1932 -1.1881,28.3372 -1.5538,30.411 -1.7527,32.4489 -1.8609,34.4672 -1.9198,36.4726 -1.9518,38.4732 -1.9692,40.6993 -1.9787,43.0458 -1.9838,45.2297 -1.9867,47.3251 -1.9882,49.3748 -1.989,51.3995 -1.9895,53.4084 -2.2177,55.411 -2.5699,57.4101 -2.7615,59.4051 -2.8657,61.4 -2.9224,63.395 -2.9532,65.3877 -2.97,67.3815 -2.9791,69.3758 -2.9841,71.3682 -2.9868,73.3594 -3.2162,75.3524 -3.5691,77.3463 -3.761,79.3384 -3.8654,81.3319 -3.9222,83.326 -3.9531,85.3183 -3.9699,87.3118 -3.9791,89.306 -3.9841,91.2982 -3.9868,93.2918 -3.9882,95.286 -3.761,97.2782 -3.4094,99.2718 -3.2182,101.266 -3.1141,103.2582 -3.0575,105.4775 -3.0267,107.8202 -3.01,110.0043 -3.0009,112.1022 -2.9959,113.9252 -2.9932,115.5986 -2.9918,117.4164 -2.991,119.315 -2.9905,121.2576 -2.9903,123.2218 -2.9902,125.2 -2.9901,127.1859 -2.99,129.1736 -2.99,131.1647 -2.99,133.1576 -2.99,135.1491 -2.99,137.14 -2.99,139.1327 -2.99,141.1265 -2.99,143.1185 -2.99,145.1119 -2.99,147.106 -2.99,149.0983 -2.99,151.0918 -2.762,153.086 -2.41,155.0782 -2.2185,157.0718 -2.1143,159.066 -2.0576,161.0582 -2.0268,163.0495 -1.7843,165.0424 -1.4267,167.2643 -1.2321,169.6085 -1.1263,171.7911 -0.8407,173.8882 -0.4573,175.9387 -0.2488,177.9617 -0.1353,180.1976 -0.0736,182.5517 0.1879,184.742 0.5582,186.841 0.7597,189.1182 0.8693,191.4948 0.9289,193.6974 0.9613,195.803 1.2047,198.0839 1.5628,200.4602 1.7576,202.8883 1.8636,205.3469 1.9212,207.8221 1.9526,210.3041 1.9696,212.5617 1.9789,214.9253 1.984,217.3488 1.9867,219.8049 1.9882,222.5022 1.989,225.105 1.9895,227.6586 2.2177,230.4112 2.5699,233.044 2.7615,235.6118 2.8657,238.372 2.9224,241.0091 2.9532,243.3533 2.97,245.7663 3.2071,248.2144 3.5641,250.4537 3.7583,252.8072 3.864,255.223 3.9214,257.4469 3.9527,259.5664 3.9697,261.6269 3.979,263.6575 3.984,265.6719 3.9867,267.6751 3.9882,269.6746 3.989,271.6721 3.9895,273.6661 3.9897,275.6606 3.9898,277.6553 3.9899,279.8759 3.99,282.2193 3.99,284.4016 3.99,286.4985 3.99,288.5489 3.99,290.5718 3.99,292.8076 3.99,295.1617 3.99,297.352 3.99,299.451 3.99,301.5025 3.99,303.5283 3.99,305.5378 3.99,307.7663 3.99,310.1164 3.99,312.3046 3.99,314.6304 3.99,317.031 3.99,319.2444 3.99,321.584 3.99,323.9944 3.99,326.2154 3.99,328.1053 3.99,329.8152 3.99,331.6528 3.99,333.5622 3.762,335.2826 3.41,337.1259 3.2185,339.4921 3.1143,341.9171 3.0576,343.918 3.0268,345.9139 3.003,348.4243 L2.99,349.79 " stroke-linecap="round" fill="none" stroke="#f2f2f2" stroke-width="4.5" stroke-dasharray="none" stroke-dashoffset="0"/></g></g><g transform="matrix(1, 0, 0, 1, 1040.6085, 11508.0111)" opacity="1"><g transform="scale(1)"><path d="M0,0 Q1.3634,-1.8194 1.9623,-2.54 T3.1126,-4.1087 4.1922,-5.8717 5.4611,-8.1943 6.8332,-10.8212 8.2171,-13.4953 L8.97,-14.95 " stroke-linecap="round" fill="none" stroke="#f2f2f2" stroke-width="4.5" stroke-dasharray="none" stroke-dashoffset="0"/></g></g><g transform="matrix(1, 0, 0, 1, 1041.605, 11505.0215)" opacity="1"><g transform="scale(1)"><path d="M0,0 Q-2.2709,-0.9074 -3.3446,-1.836 T-5.228,-3.7257 -7.0039,-5.8334 L-7.97,-6.98 " stroke-linecap="round" fill="none" stroke="#f2f2f2" stroke-width="4.5" stroke-dasharray="none" stroke-dashoffset="0"/></g></g><g transform="matrix(1, 0, 0, 1, 1033.6326, 11164.1992)" opacity="1"><g transform="scale(1)"><path d="M0,0 Q-4.0903,4.5463 -6.5302,7.2582 L-8.97,9.97 " stroke-linecap="round" fill="none" stroke="#f2f2f2" stroke-width="4.5" stroke-dasharray="none" stroke-dashoffset="0"/></g></g><g transform="matrix(1, 0, 0, 1, 1038.6154, 11157.2233)" opacity="1"><g transform="scale(1)"><path d="M0,0 Q1.8194,2.2709 2.54,3.3446 T3.8807,5.228 5.066,6.9344 6.1645,8.5443 7.2158,10.1019 8.2437,11.8589 9.3618,13.8609 L9.97,14.95 " stroke-linecap="round" fill="none" stroke="#f2f2f2" stroke-width="4.5" stroke-dasharray="none" stroke-dashoffset="0"/></g></g><g transform="matrix(1, 0, 0, 1, 1063.5293, 11162.2061)" opacity="1"><g transform="scale(1)"><path d="M0,0 Q0,1.3634 0.228,2.8697 T0.8058,5.4235 1.5738,7.0407 2.4476,8.1485 3.6046,8.9791 4.9158,9.2029 6.0828,9.0967 7.1714,8.8109 7.9915,7.9737 8.6657,6.8366 9.2605,5.5363 9.8097,4.1472 10.3343,2.7098 10.3939,1.7021 10.2006,1.8357 10.0954,2.59 10.264,3.6821 10.8094,5.1837 11.562,6.6822 12.4252,8.1792 13.3485,9.6752 14.3045,11.1708 15.2783,12.8918 16.264,14.5098 17.0283,16.2997 17.444,18.1831 17.4422,19.6614 16.5315,21.1473 15.1286,22.6374 13.6837,23.6737 11.988,24.2375 10.1581,24.5441 7.7991,24.4852 4.6844,24.1192 L2.99,23.92 " stroke-linecap="round" fill="none" stroke="#f2f2f2" stroke-width="4.5" stroke-dasharray="none" stroke-dashoffset="0"/></g></g><g transform="matrix(1, 0, 0, 1, 1162.1884, 11317.6689)" opacity="1"><g transform="scale(1)"><path d="M0,0 Q0.456,-2.2709 0.352,-3.3446 T0.1915,-5.228 0.1042,-6.9344 0.0567,-8.5443 -0.1972,-9.8739 -0.5633,-11.2789 -0.7624,-12.9506 -1.0965,-14.9955 -1.5039,-17.2456 -1.7256,-19.1514 -2.0742,-20.8699 -2.4918,-22.4865 -2.719,-23.8196 -3.0706,-25.2265 -3.4898,-26.9016 -3.7179,-28.4946 -4.0677,-30.0429 -4.4837,-31.5669 -4.71,-32.8497 -5.0611,-34.2292 -5.4801,-35.6614 -5.9361,-37.1223 -6.4121,-38.8267 -6.8968,-40.4356 -7.3862,-41.9926 -7.6524,-43.5213 -8.0252,-44.8066 -8.456,-45.9596 -8.6904,-47.2685 -9.0459,-48.6623 -9.4673,-50.1022 -9.6965,-51.5672 -10.047,-53.0459 -10.6913,-54.5321 -11.2698,-55.7942 -11.8125,-56.9369 -12.3358,-58.0122 -12.8461,-59.0509 -13.5775,-60.0719 -14.2034,-61.0811 -14.7695,-62.3118 -15.5313,-63.663 -16.4017,-65.0798 -17.3289,-66.3065 -18.059,-67.1996 -18.6842,-68.1391 -19.4803,-69.1063 -20.3671,-70.0861 -21.3032,-71.3008 -22.2685,-72.4177 -23.0216,-73.2509 -23.657,-74.1579 -24.4564,-74.8794 -25.3472,-75.4975 -26.0598,-76.2875 -26.6732,-76.9453 -27.4606,-77.5311 -28.345,-78.3035 -29.0541,-79.1774 -29.6655,-80.1088 -30.4519,-81.0693 -31.3357,-82.0454 -32.2702,-83.0325 -33.2322,-84.0231 -34.2116,-85.2438 -35.1981,-86.3638 -36.1885,-86.9731 -36.9553,-87.5303 -37.6004,-88.0591 -38.405,-88.5748 -39.2965,-89.3113 -40.2375,-90.1657 -41.2031,-90.8562 -42.1821,-91.4599 -43.1706,-92.2443 -44.1621,-93.1247 -45.1552,-94.0573 -46.1492,-94.7927 -47.1437,-95.4208 -48.1406,-96.2161 -49.1367,-96.8745 -50.1323,-97.4607 -51.1299,-98.0076 -52.1263,-98.3051 -53.1221,-98.6949 -54.3455,-99.3607 -55.9352,-100.1957 L-56.8,-100.65 " stroke-linecap="round" fill="none" stroke="#4dabf7" stroke-width="4.5" stroke-dasharray="none" stroke-dashoffset="0"/></g></g><g transform="matrix(1, 0, 0, 1, 1102.395, 11219.0098)" opacity="1"><g transform="scale(1)"><path d="M0,0 Q0,3.1829 0,4.7303 T0,7.5733 0,10.4144 L0,11.96 " stroke-linecap="round" fill="none" stroke="#4dabf7" stroke-width="4.5" stroke-dasharray="none" stroke-dashoffset="0"/></g></g><g transform="matrix(1, 0, 0, 1, 1102.395, 11217.0167)" opacity="1"><g transform="scale(1)"><path d="M1,0 Q3.7269,-0.456 5.3534,-0.728 L6.98,-1 " stroke-linecap="round" fill="none" stroke="#4dabf7" stroke-width="4.5" stroke-dasharray="none" stroke-dashoffset="0"/></g></g><g transform="matrix(1, 0, 0, 1, 1169.1642, 11250.8996)" opacity="1"><g transform="scale(1)"><path d="M0,1 Q-1.3634,4.1783 -1.7343,5.4988 T-2.3069,7.9914 -2.8464,10.4828 -3.1399,12.9736 -2.8435,15.0103 -2.2286,16.5719 -1.2124,17.6472 0.0222,18.2322 1.3755,18.3247 3.0688,18.0755 L3.99,17.94 " stroke-linecap="round" fill="none" stroke="#4dabf7" stroke-width="4.5" stroke-dasharray="none" stroke-dashoffset="0"/></g></g><g transform="matrix(1, 0, 0, 1, 1171.1574, 11259.8686)" opacity="1"><g transform="scale(1)"><path d="M0,0 Q-2.2709,0.456 -3.3446,0.58 T-5.6991,0.852 L-6.98,1 " stroke-linecap="round" fill="none" stroke="#4dabf7" stroke-width="4.5" stroke-dasharray="none" stroke-dashoffset="0"/></g></g></svg>