<svg xmlns="http://www.w3.org/2000/svg" direction="ltr" width="1121.2010166068937" height="967.0198609209456" viewBox="1406.5336649697085 7012.854827225195 1121.2010166068937 967.0198609209456" stroke-linecap="round" stroke-linejoin="round" data-color-mode="dark" class="tl-container tl-theme__force-sRGB tl-theme__dark" style="background-color: transparent;"><defs/><g transform="matrix(1, 0, 0, 1, 1551.2147, 7086.9995) scale(0.8428937967721449, 0.8428937967721449)" opacity="1"><g transform="scale(1.1863890846385299)"><path d="M0.3938,1.8269 T-1.1137,2.1487 -5.2195,2.5764 -9.5586,2.7141 -13.2131,2.7713 -17.1308,2.818 -21.3876,2.8503 -26.0243,2.8724 -30.66,2.8915 -35.0944,2.9049 -39.4254,2.9181 -43.7984,2.7244 -48.0967,2.423 -53.3139,2.0567 -58.8651,1.644 -63.1371,1.4143 -66.577,1.2831 -69.5744,1.2046 -73.0543,1.4416 -76.1231,2.0959 -77.1337,2.4829 A1.9271,1.9271 0 0 1 -79.5372,-0.5301 T-78.2627,-1.2728 -75.2937,-2.1813 -72.276,-2.5571 -69.5063,-2.7582 -66.455,-2.7232 -62.9497,-2.6392 -58.5847,-2.4604 -53.0422,-2.098 -47.7994,-1.7473 -43.6037,-1.4424 -39.425,-1.2393 -35.0953,-1.2271 -30.6616,-1.2155 -26.0273,-1.2001 -21.3939,-1.1847 -17.1435,-1.1655 -13.2386,-1.1435 -9.6156,-1.1331 -5.4529,-1.1945 -1.701,-1.542 -0.3938,-1.8269 A1.8688,1.8688 0 0 1 0.3938,1.8269 ZM-76.409,1.0264 T-76.4976,1.5837 -75.2807,2.4645 -72.6328,3.5781 -69.985,5.188 -67.4589,6.8325 -64.8046,8.6071 -62.3377,10.2963 -60.1345,11.6987 -57.7911,12.8962 -55.137,14.1385 -51.9275,15.596 -48.3875,16.9038 -44.6808,18.2077 -40.9873,19.7455 -37.5905,21.3829 -34.5458,23.0788 -31.7386,24.7765 -28.3465,26.7577 -25.2679,28.6516 -22.5746,30.4306 -20.0835,32.6582 -19.2381,33.8665 A2.4319,2.4319 0 0 1 -23.3059,36.533 T-23.7397,35.7899 -25.6169,34.1719 -28.8429,32.1438 -31.7612,30.3283 -34.2077,28.8477 -36.8722,27.2283 -39.6688,25.6546 -42.8233,24.1215 -46.2656,22.6678 -50.0411,21.32 -53.8953,19.8667 -57.1507,18.3558 -59.9515,16.9902 -63.4009,14.9287 -66.626,12.8627 -69.2004,11.1118 -71.6071,9.1342 -73.7474,7.4437 -76.4897,5.7977 -79.1091,3.9042 -80.2126,1.8885 -80.2619,0.9264 A1.9271,1.9271 0 0 1 -76.409,1.0264 ZM-19.2624,36.5694 T-19.9619,37.5997 -21.5731,39.7286 -23.6203,41.8482 -25.776,44.0398 -28.2722,46.5773 -30.9892,49.3313 -34.0004,52.3709 -37.4409,55.6346 -40.79,58.8902 -44.1557,62.1984 -47.5884,65.3904 -50.992,68.4633 -54.0685,71.5625 -57.0943,74.7862 -59.8848,77.8614 -62.4223,80.5395 -64.7509,82.9325 -66.7089,85.1164 -68.5348,87.251 -70.218,89.786 -69.009,91.4748 -65.2868,91.7228 -61.652,91.5526 -57.3307,91.2384 -52.3336,91.0455 -46.9123,90.9324 -41.172,91.0673 -35.2616,91.5387 -29.4493,92.4059 -24.2698,93.2575 -19.6236,93.9082 -15.3837,94.4671 -11.8677,94.7807 -8.7826,94.8887 -5.4313,94.8183 -3.5634,94.7662 A2.1724,2.1724 0 0 1 -3.1766,99.0938 T-5.0241,99.3738 -8.7228,99.9337 -12.2753,100.1425 -16.0589,99.8847 -20.3749,99.3592 -25.1515,98.7151 -30.2858,97.8726 -35.7242,97.0333 -41.3253,96.5371 -46.8376,96.3528 -52.1776,96.388 -57.0096,96.4764 -61.5024,96.696 -65.5095,96.7848 -68.7502,96.605 -72.7012,95.4382 -75.4377,92.0106 -74.4826,87.4524 -72.306,84.0449 -70.4169,81.8048 -68.3501,79.4752 -66.0753,77.0912 -63.6561,74.4835 -60.82,71.3074 -57.7106,67.9643 -54.4407,64.6523 -51.0973,61.6181 -47.7767,58.5169 -44.3861,55.1792 -40.9733,51.8821 -37.6321,48.7614 -34.5784,45.7357 -31.8362,43.0301 -29.2688,40.5031 -26.4218,37.6151 -24.0542,34.9597 -23.2816,33.8301 A2.4319,2.4319 0 0 1 -19.2624,36.5694 Z" stroke-linecap="round" fill="#9398b0"/></g></g><g transform="matrix(1, 0, 0, 1, 1484.6261, 7226.077) scale(0.8428937967721449, 0.8428937967721449)" opacity="1"><g transform="scale(1.1863890846385299)"><path d="M1.3292,1.3292 T0.518,2.1138 -2.1027,4.1502 -4.909,6.483 -6.1649,9.282 -5.1838,11.3839 -1.4901,10.612 0.9632,9.4562 A1.6702,1.6702 0 0 1 2.4168,12.4638 T0.993,13.2008 -2.0298,14.6918 -4.9702,15.4459 -8.0001,14.0497 -9.7926,10.7813 -9.2335,7.022 -7.2211,3.7518 -4.3833,1.3294 -2.112,-0.5198 -1.3292,-1.3292 A1.8798,1.8798 0 0 1 1.3292,1.3292 Z" stroke-linecap="round" fill="#9398b0"/></g></g><g transform="matrix(1, 0, 0, 1, 1484.6261, 7205.8475) scale(0.8428937967721449, 0.8428937967721449)" opacity="1"><g transform="scale(1.1863890846385299)"><path d="M0,-1.3278 T1.685,-1.3698 3.37,-1.4117 A1.4117,1.4117 0 0 1 3.37,1.4117 T1.685,1.3698 0,1.3278 A1.3278,1.3278 0 0 1 0,-1.3278 Z" stroke-linecap="round" fill="#9398b0"/></g></g><g transform="matrix(1, 0, 0, 1, 1493.0551, 7227.7628) scale(0.8428937967721449, 0.8428937967721449)" opacity="1"><g transform="scale(1.1863890846385299)"><path d="M-0.2211,-1.5529 T1.1734,-1.7577 4.4551,-2.1496 7.3356,-2.4064 8.3288,-2.4762 A1.6393,1.6393 0 0 1 8.5312,0.7962 T7.537,0.8494 4.7781,1.0352 1.6173,1.3604 0.2211,1.5529 A1.5686,1.5686 0 0 1 -0.2211,-1.5529 Z" stroke-linecap="round" fill="#9398b0"/></g></g><g transform="matrix(1, 0, 0, 1, 1494.7409, 7234.5059) scale(0.8428937967721449, 0.8428937967721449)" opacity="1"><g transform="scale(1.1863890846385299)"><path d="M0.458,-1.3712 T1.6597,-0.9869 4.2237,-0.3336 7.4751,-0.2896 10.7668,-0.7461 13.0427,-1.2107 13.916,-1.4439 A1.502,1.502 0 0 1 14.744,1.4439 T13.8798,1.7089 10.8551,2.364 6.8777,2.8519 3.4932,2.5756 0.7337,1.7863 -0.458,1.3712 A1.4457,1.4457 0 0 1 0.458,-1.3712 Z" stroke-linecap="round" fill="#9398b0"/></g></g><g transform="matrix(1, 0, 0, 1, 1519.1848, 7218.4909) scale(0.8428937967721449, 0.8428937967721449)" opacity="1"><g transform="scale(1.1863890846385299)"><path d="M1.7225,-0.2879 T2.1106,2.1051 2.722,6.4008 3.0754,9.9169 3.285,12.9852 3.7106,16.0241 4.5037,18.5138 4.9505,19.4194 A1.7762,1.7762 0 0 1 1.7895,21.0406 T1.3147,20.1493 0.2975,16.9229 -0.2827,13.183 -0.4122,10.2363 -0.702,6.8801 -1.3112,2.677 -1.7225,0.2879 A1.7464,1.7464 0 0 1 1.7225,-0.2879 Z" stroke-linecap="round" fill="#9398b0"/></g></g><g transform="matrix(1, 0, 0, 1, 1503.1698, 7044.8548) scale(0.8428937967721449, 0.8428937967721449)" opacity="1"><g transform="scale(1.1863890846385299)"><path d="M0.4315,-2.1626 T1.4281,-1.9637 4.2189,-1.3141 8.1814,-0.4599 11.6679,0.2328 15.289,0.7141 18.8296,1.174 21.6314,1.9188 23.1955,2.3957 A2.2662,2.2662 0 0 1 21.3429,6.5322 T21.0121,6.3535 18.9905,5.8327 15.9883,5.4094 12.2216,4.8894 7.4904,3.9879 3.3862,3.0424 0.5632,2.361 -0.4315,2.1626 A2.2052,2.2052 0 0 1 0.4315,-2.1626 ZM24.4692,3.9203 T24.6322,4.6411 24.7952,5.3619 A2.2368,2.2368 0 0 1 20.4522,6.4351 T20.2607,5.7214 20.0692,5.0077 A2.2662,2.2662 0 0 1 24.4692,3.9203 ZM24.41,7.2447 T23.6746,8.1715 21.8372,10.6577 19.8594,14.1032 18.1161,18.3529 16.8288,21.9528 16.12,25.1663 15.6962,29.2312 15.5616,31.3189 A2.0756,2.0756 0 0 1 11.4184,31.0611 T11.5488,28.8884 12.0792,24.2785 12.9159,20.5876 13.7956,18.088 14.6983,15.6097 15.6613,13.1698 16.7814,10.7817 18.3337,8.1661 20.0532,5.6418 20.8373,4.5523 A2.2368,2.2368 0 0 1 24.41,7.2447 Z" stroke-linecap="round" fill="#9398b0"/></g></g><g transform="matrix(1, 0, 0, 1, 1527.6137, 7064.2414) scale(0.8428937967721449, 0.8428937967721449)" opacity="1"><g transform="scale(1.1863890846385299)"><path d="M-0.6906,1.6006 T-1.2267,1.3621 -3.3324,1.088 -6.9173,1.232 -10.9657,1.5594 -14.0335,1.7487 -15.0678,1.7902 A1.7931,1.7931 0 0 1 -15.2722,-1.7902 T-14.2398,-1.8667 -11.3738,-2.1021 -7.1589,-2.4319 -2.9135,-2.4699 -0.1794,-1.9688 0.6906,-1.6006 A1.7432,1.7432 0 0 1 -0.6906,1.6006 Z" stroke-linecap="round" fill="#9398b0"/></g></g><g transform="matrix(1, 0, 0, 1, 1589.145, 7129.9871) scale(0.8428937967721449, 0.8428937967721449)" opacity="1"><g transform="scale(1.1863890846385299)"><path d="M1.3325,0.8901 T0.9327,1.4861 -0.4586,4.0286 -2.1558,7.323 -3.4117,9.9385 -4.4499,12.4688 -5.3914,14.9913 -5.7979,18.0915 -4.0384,20.7135 -0.0075,20.7407 3.8047,19.3543 6.666,18.0279 9.6032,16.524 11.1731,15.7142 A1.3061,1.3061 0 0 1 12.4269,18.0058 T10.8984,18.8913 7.9561,20.6041 5.0302,22.1787 2.0415,23.5408 -1.1341,24.4584 -4.2692,24.4571 -7.3196,22.486 -9.2196,19.4044 -9.2228,16.5604 -8.4626,13.8335 -7.4602,11.2175 -6.3264,8.5298 -4.9777,5.7766 -3.1848,2.3518 -1.7321,-0.2894 -1.3325,-0.8901 A1.6025,1.6025 0 0 1 1.3325,0.8901 Z" stroke-linecap="round" fill="#9398b0"/></g></g><g transform="matrix(1, 0, 0, 1, 1590.8308, 7113.1292) scale(0.8428937967721449, 0.8428937967721449)" opacity="1"><g transform="scale(1.1863890846385299)"><path d="M0.5428,1.092 T0.0502,1.3004 -1.8041,1.072 -3.58,-0.1278 -3.9941,-0.8907 A1.2012,1.2012 0 0 1 -1.7727,-1.8051 T-1.4645,-1.2597 -0.8496,-0.9031 -0.5428,-1.092 A1.2194,1.2194 0 0 1 0.5428,1.092 ZM-3.7287,-2.2013 T-3.4307,-2.4878 -1.8131,-2.9398 -0.1779,-3.0657 0.1377,-3.0262 A1.2092,1.2092 0 0 1 -0.2426,-0.638 T-0.8738,-0.8389 -1.7716,-0.7672 -2.0381,-0.4945 A1.2012,1.2012 0 0 1 -3.7287,-2.2013 ZM1.0346,-2.3616 T1.2515,-1.9312 1.4685,-1.5008 A1.2222,1.2222 0 0 1 -0.7291,-0.4303 T-0.9343,-0.8665 -1.1395,-1.3026 A1.2092,1.2092 0 0 1 1.0346,-2.3616 ZM1.1321,-0.0103 T0.8449,0.2166 0.2376,0.6964 -0.0824,0.9492 A1.2145,1.2145 0 0 1 -1.5976,-0.9492 T-1.2801,-1.2052 -0.6777,-1.691 -0.3927,-1.9208 A1.2222,1.2222 0 0 1 1.1321,-0.0103 Z" stroke-linecap="round" fill="#9398b0"/></g></g><g transform="matrix(1, 0, 0, 1, 1608.5315, 7100.4858) scale(0.8428937967721449, 0.8428937967721449)" opacity="1"><g transform="scale(1.1863890846385299)"><path d="M-0.2821,-1.5474 T1.9102,-1.9476 5.6969,-2.5675 9.4562,-2.3816 12.5217,-1.0333 14.0528,1.5383 14.2892,5.148 12.8487,8.7275 10.0194,12.0324 7.285,15.1893 6.3335,16.6398 A1.6211,1.6211 0 0 1 3.3519,15.3664 T4.0278,14.0017 6.3372,11.2365 9.1382,8.4794 10.9369,5.4633 10.9752,2.3416 9.0402,0.6126 6.1826,0.5475 2.4745,1.1482 0.2821,1.5474 A1.5729,1.5729 0 0 1 -0.2821,-1.5474 ZM5.51,14.5257 T5.9529,14.7157 7.9879,14.9551 11.8927,14.9998 16.3053,15.5925 18.9951,16.6584 19.5849,17.1268 A1.7575,1.7575 0 0 1 17.4951,19.9532 T15.8264,19.3042 11.7751,18.56 7.2385,18.1879 4.63,17.6959 4.1755,17.4805 A1.6211,1.6211 0 0 1 5.51,14.5257 Z" stroke-linecap="round" fill="#9398b0"/></g></g><g transform="matrix(1, 0, 0, 1, 1584.9305, 7218.4909) scale(0.8428937967721449, 0.8428937967721449)" opacity="1"><g transform="scale(1.1863890846385299)"><path d="M1.245,-0.178 T1.848,4.0074 2.9755,11.5889 3.7872,17.8067 4.2321,23.5237 4.6786,29.293 5.3279,35.2819 6.084,41.6322 6.8906,48.3725 7.5233,55.154 8.0608,61.5077 8.5398,67.4463 8.9738,72.5488 9.383,76.8322 9.5848,80.7519 9.7219,84.6955 9.796,86.7616 A1.3672,1.3672 0 0 1 7.064,86.8784 T6.9615,84.8135 6.7636,80.9185 6.5062,77.1198 6.0442,72.8156 5.5788,67.6813 5.1053,61.7523 4.5981,55.415 4.0114,48.7055 3.2581,41.9542 2.5622,35.5652 1.973,29.4887 1.5862,23.7173 1.2039,18.1262 0.4458,11.9608 -0.6513,4.3647 -1.245,0.178 A1.2577,1.2577 0 0 1 1.245,-0.178 Z" stroke-linecap="round" fill="#9398b0"/></g></g><g transform="matrix(1, 0, 0, 1, 1580.716, 7221.8625) scale(0.8428937967721449, 0.8428937967721449)" opacity="1"><g transform="scale(1.1863890846385299)"><path d="M1.2195,0.6103 T0.0315,3.006 -2.7987,8.1164 -5.712,12.672 -8.036,16.056 -9.8348,18.7867 -11.8807,22.1188 -13.1808,24.2634 A1.327,1.327 0 0 1 -15.4792,22.9366 T-14.247,20.6945 -12.2417,17.2106 -10.4023,14.419 -8.0936,11.1119 -5.2407,6.7585 -2.4249,1.7761 -1.2195,-0.6103 A1.3637,1.3637 0 0 1 1.2195,0.6103 Z" stroke-linecap="round" fill="#9398b0"/></g></g><g transform="matrix(1, 0, 0, 1, 1584.9305, 7217.6481) scale(0.8428937967721449, 0.8428937967721449)" opacity="1"><g transform="scale(1.1863890846385299)"><path d="M0.3677,-1.4663 T1.9727,-1.0561 5.0349,0.2506 7.8169,2.2111 10.2843,4.4745 12.6189,7.0982 14.9957,9.8312 17.2772,12.7224 19.305,15.7094 21.2739,18.6703 22.3116,20.2269 A1.5008,1.5008 0 0 1 19.8284,21.9131 T18.7643,20.3746 16.7449,17.4627 14.8145,14.6713 12.6097,11.8934 10.2613,9.1647 8.1713,6.7198 4.9992,3.9441 1.2153,1.8554 -0.3677,1.4663 A1.5117,1.5117 0 0 1 0.3677,-1.4663 Z" stroke-linecap="round" fill="#9398b0"/></g></g><g transform="matrix(1, 0, 0, 1, 1563.8582, 7365.1545) scale(0.8428937967721449, 0.8428937967721449)" opacity="1"><g transform="scale(1.1863890846385299)"><path d="M-1.4384,-0.0843 T-1.2428,-3.4732 -1.1519,-8.9713 -1.5009,-12.534 -2.6426,-15.4571 -3.8572,-17.1635 -4.1745,-17.4002 A1.4847,1.4847 0 0 1 -2.237,-19.6505 T-1.1341,-18.3079 0.5701,-15.7343 1.4233,-12.8562 1.7586,-8.9516 1.6402,-3.3049 1.4384,0.0843 A1.4408,1.4408 0 0 1 -1.4384,-0.0843 ZM-2.602,-17.1689 T-2.9486,-17.0666 -3.6827,-14.5383 -4.158,-10.4542 -4.2946,-7.1154 -4.3739,-3.5526 -4.2264,0.2473 -3.7624,3.966 -3.1279,7.7258 -2.2201,11.4338 -0.9843,14.6736 0.4161,17.3082 1.7795,19.7604 3.4067,23.0802 4.696,26.3396 5.0118,29.7445 3.7942,33.9578 0.7047,37.5603 -2.3646,39.7631 -5.0496,40.9707 -8.9012,42.1371 -13.5175,42.8265 -16.8019,42.7703 -17.8484,42.64 A1.3482,1.3482 0 0 1 -17.5516,39.96 T-16.502,40.0618 -13.7559,40.0873 -9.7896,39.4081 -6.2207,38.3362 -2.9519,36.6381 0.2548,34.0957 2.0195,31.4001 2.2354,28.1548 0.9322,24.285 -0.6317,21.1035 -2.0258,18.6227 -3.5869,15.6755 -4.9372,12.1113 -5.9117,8.2038 -6.5872,4.3253 -7.0922,0.3623 -7.2665,-3.6107 -7.2025,-7.2312 -7.0674,-10.7106 -6.7863,-13.9507 -5.7329,-17.3667 -4.3399,-19.5937 -3.8095,-19.8818 A1.4847,1.4847 0 0 1 -2.602,-17.1689 Z" stroke-linecap="round" fill="#9398b0"/></g></g><g transform="matrix(1, 0, 0, 1, 1570.6013, 7382.8552) scale(0.8428937967721449, 0.8428937967721449)" opacity="1"><g transform="scale(1.1863890846385299)"><path d="M0.1742,1.2232 T-1.2192,1.4355 -4.1074,1.9626 -6.9729,2.6349 -9.6633,3.374 -13.0033,4.5286 -16.1221,5.7495 -17.2205,6.1974 A1.2344,1.2344 0 0 1 -18.1795,3.9226 T-17.0919,3.449 -13.8564,2.1147 -10.3496,0.8592 -7.5497,0.1022 -4.5387,-0.5565 -1.5715,-1.0382 -0.1742,-1.2232 A1.2356,1.2356 0 0 1 0.1742,1.2232 Z" stroke-linecap="round" fill="#9398b0"/></g></g><g transform="matrix(1, 0, 0, 1, 1583.2447, 7346.6108) scale(0.8428937967721449, 0.8428937967721449)" opacity="1"><g transform="scale(1.1863890846385299)"><path d="M1.2883,0.572 T0.4945,2.3684 -0.906,5.6836 -2.0117,8.9489 -2.9765,12.4356 -3.6606,16.0016 -3.7928,19.9174 -3.4567,24.1067 -2.6862,28.2379 -1.4975,32.1128 -0.0789,35.7176 1.2854,39.0467 2.5574,41.7111 4.3255,44.1071 6.2084,46.1312 6.9813,46.8564 A1.6032,1.6032 0 0 1 4.8187,49.2236 T4.0268,48.5192 1.7924,46.15 -0.4167,43.1469 -1.765,40.2718 -3.1019,36.8769 -4.5383,33.0183 -5.7421,28.7805 -6.487,24.3209 -6.7556,19.775 -6.5183,15.4356 -5.7474,11.6574 -4.7051,8.0204 -3.5193,4.5805 -2.0885,1.2216 -1.2883,-0.572 A1.4096,1.4096 0 0 1 1.2883,0.572 Z" stroke-linecap="round" fill="#9398b0"/></g></g><g transform="matrix(1, 0, 0, 1, 1601.7884, 7345.7679) scale(0.8428937967721449, 0.8428937967721449)" opacity="1"><g transform="scale(1.1863890846385299)"><path d="M1.0995,-0.8254 T2.9044,1.5583 6.0897,6.0323 8.7942,10.2069 11.2327,14.2027 13.3542,18.1501 15.1254,22.5303 16.2978,27.1551 17.1138,31.571 17.5465,35.7773 17.1535,39.6469 16.3135,42.9279 15.1591,45.5808 12.6876,47.9934 10.9488,49.2358 A1.4606,1.4606 0 0 1 9.2712,46.8442 T10.0667,46.265 11.8791,44.6086 13.2852,42.1161 14.0417,39.2706 14.4163,36.0564 14.0347,32.1165 13.3055,27.8779 12.3089,23.6467 10.718,19.5424 8.7219,15.7104 6.3717,11.7569 3.7771,7.6507 0.6857,3.2237 -1.0995,0.8254 A1.3749,1.3749 0 0 1 1.0995,-0.8254 Z" stroke-linecap="round" fill="#9398b0"/></g></g><g transform="matrix(1, 0, 0, 1, 1625.3894, 7362.6258) scale(0.8428937967721449, 0.8428937967721449)" opacity="1"><g transform="scale(1.1863890846385299)"><path d="M-0.2232,-1.3443 T0.9722,-1.5512 3.6848,-1.937 7.2144,-2.1727 9.2267,-2.2296 A1.3903,1.3903 0 0 1 9.3133,0.5496 T7.379,0.6157 4.032,0.8226 1.4212,1.1539 0.2232,1.3443 A1.3627,1.3627 0 0 1 -0.2232,-1.3443 Z" stroke-linecap="round" fill="#9398b0"/></g></g><g transform="matrix(1, 0, 0, 1, 1628.761, 7368.526) scale(0.8428937967721449, 0.8428937967721449)" opacity="1"><g transform="scale(1.1863890846385299)"><path d="M0,-1.363 T1.1923,-1.3637 3.741,-1.6723 6.3965,-2.0747 8.4532,-2.1962 9.2108,-2.2233 A1.3845,1.3845 0 0 1 9.3292,0.5433 T7.4393,0.6551 3.9758,1.0656 1.2011,1.3637 0,1.363 A1.363,1.363 0 0 1 0,-1.363 Z" stroke-linecap="round" fill="#9398b0"/></g></g><g transform="matrix(1, 0, 0, 1, 1655.7336, 7332.2816) scale(0.8428937967721449, 0.8428937967721449)" opacity="1"><g transform="scale(1.1863890846385299)"><path d="M-0.6478,-1.2957 T0.9455,-2.0944 4.4431,-3.5906 7.9874,-4.1783 10.4425,-2.4742 10.8405,1.0256 9.6516,4.3717 8.3295,7.1196 8.6253,9.5415 11.0592,10.6055 14.6343,10.2743 17.8492,9.7479 19.077,9.5021 A1.4911,1.4911 0 0 1 19.703,12.4179 T18.4825,12.6977 15.1528,13.31 10.8566,13.6143 6.8714,12.4371 5.0147,9.5298 5.623,6.1108 6.9511,3.215 7.3975,0.2573 5.5097,-0.8801 2.2425,0.5004 0.6478,1.2957 A1.4486,1.4486 0 0 1 -0.6478,-1.2957 Z" stroke-linecap="round" fill="#9398b0"/></g></g><g transform="matrix(1, 0, 0, 1, 1598.4168, 7377.7979) scale(0.8428937967721449, 0.8428937967721449)" opacity="1"><g transform="scale(1.1863890846385299)"><path d="M1.1552,0.7717 T0.779,1.3741 0.3776,3.743 1.1839,6.9952 2.6577,8.748 3.3001,9.0151 A1.565,1.565 0 0 1 2.3256,11.9895 T1.4417,11.64 -0.5356,9.8896 -2.2835,6.2354 -2.4698,2.1994 -1.5784,-0.1774 -1.1552,-0.7717 A1.3892,1.3892 0 0 1 1.1552,0.7717 ZM2.0604,9.1301 T2.5388,8.9006 3.3742,7.7928 3.7311,6.9144 A1.4907,1.4907 0 0 1 6.3889,8.2656 T5.5615,9.7166 4.1498,11.5211 3.5654,11.8745 A1.565,1.565 0 0 1 2.0604,9.1301 Z" stroke-linecap="round" fill="#9398b0"/></g></g><g transform="matrix(1, 0, 0, 1, 1595.8881, 7364.3116) scale(0.8428937967721449, 0.8428937967721449)" opacity="1"><g transform="scale(1.1863890846385299)"><path d="M 0 0 m -2.3096531742309514, 0 a 2.3096531742309514,2.3096531742309514 0 1,1 4.619306348461903,0 a 2.3096531742309514,2.3096531742309514 0 1,1 -4.619306348461903,0" stroke-linecap="round" fill="#9398b0"/></g></g><g transform="matrix(1, 0, 0, 1, 1652.362, 7362.6258) scale(0.8428937967721449, 0.8428937967721449)" opacity="1"><g transform="scale(1.1863890846385299)"><path d="M1.4899,-0.7405 T1.7003,-0.249 1.8335,1.9056 1.7254,5.112 1.6961,8.2972 2.2873,11.1786 3.6449,13.0456 4.4129,13.6731 A1.704,1.704 0 0 1 2.9663,16.7588 T1.9988,16.2065 -0.108,13.8432 -1.4536,10.146 -1.6275,6.6066 -1.3555,3.1548 -1.303,1.0483 -1.4899,0.7405 A1.6638,1.6638 0 0 1 1.4899,-0.7405 ZM2.3551,14.1563 T2.6842,13.7599 3.7514,11.8414 4.4895,10.3194 A1.5492,1.5492 0 0 1 7.3105,11.6006 T6.4864,13.5182 5.3432,15.8556 5.0241,16.2755 A1.704,1.704 0 0 1 2.3551,14.1563 Z" stroke-linecap="round" fill="#9398b0"/></g></g><g transform="matrix(1, 0, 0, 1, 1648.9904, 7349.1395) scale(0.8428937967721449, 0.8428937967721449)" opacity="1"><g transform="scale(1.1863890846385299)"><path d="M0.5912,-1.1789 T1.3922,-0.7871 3.085,0.0422 3.9769,0.4798 A1.3538,1.3538 0 0 1 2.7631,2.9002 T1.879,2.4471 0.2018,1.5865 -0.5912,1.1789 A1.3189,1.3189 0 0 1 0.5912,-1.1789 Z" stroke-linecap="round" fill="#9398b0"/></g></g><g transform="matrix(1, 0, 0, 1, 1678.4917, 7116.5008) scale(0.8428937967721449, 0.8428937967721449)" opacity="1"><g transform="scale(1.1863890846385299)"><path d="M0.4556,-1.8204 T2.8506,-1.2488 6.7424,-0.6026 9.6827,-0.4819 13.7158,-0.7054 18.63,-1.3413 23.2221,-1.7838 27.9005,-1.7845 30.3114,-1.7089 A1.7091,1.7091 0 0 1 30.3686,1.7089 T29.1096,1.7866 25.7471,1.9949 21.5262,2.3276 17.9941,2.7905 15.3102,3.129 12.5049,3.3742 9.4664,3.4649 6.1412,3.2293 1.9314,2.4455 -0.4556,1.8204 A1.8766,1.8766 0 0 1 0.4556,-1.8204 Z" stroke-linecap="round" fill="#ffc034"/></g></g><g transform="matrix(1, 0, 0, 1, 1681.0204, 7131.6729) scale(0.8428937967721449, 0.8428937967721449)" opacity="1"><g transform="scale(1.1863890846385299)"><path d="M1.3981,-1.7466 T2.3848,-0.9413 4.6327,0.2834 7.897,0.8296 12.5985,0.9774 16.863,1.0017 19.8509,1.008 23.8239,1.0994 27.9384,1.2431 29.5019,1.2986 A2.0714,2.0714 0 0 1 29.4981,5.4414 T27.9344,5.4939 23.814,5.6271 19.8296,5.7014 16.8224,5.6803 13.7595,5.6348 10.9786,5.557 7.2979,5.2802 2.763,4.1874 -0.3934,2.5354 -1.3981,1.7466 A2.2373,2.2373 0 0 1 1.3981,-1.7466 Z" stroke-linecap="round" fill="#ffc034"/></g></g><g transform="matrix(1, 0, 0, 1, 1768.6813, 7106.3861) scale(0.8428937967721449, 0.8428937967721449)" opacity="1"><g transform="scale(1.1863890846385299)"><path d="M2.0749,0 T2.0571,1.1967 2.0352,4.3628 1.8381,8.774 1.5728,12.5378 1.4712,15.3638 1.4441,18.4618 1.235,21.4747 0.952,24.4344 0.8472,27.608 0.5806,30.6884 -0.0574,33.9209 -0.462,35.7059 A2.3786,2.3786 0 0 1 -5.1076,34.6817 T-4.5169,31.8726 -3.8393,27.3596 -3.3745,22.8116 -2.9364,18.3405 -2.7949,15.131 -2.5768,12.0377 -2.2354,8.4296 -2.0352,4.3628 -2.0571,1.1967 -2.0749,0 A2.0749,2.0749 0 0 1 2.0749,0 ZM-5.0913,35.7747 T-5.3015,34.592 -5.5117,33.4094 A2.2086,2.2086 0 0 1 -1.2283,32.3306 T-0.8533,33.4718 -0.4782,34.6129 A2.3786,2.3786 0 0 1 -5.0913,35.7747 Z" stroke-linecap="round" fill="#ffc034"/></g></g><g transform="matrix(1, 0, 0, 1, 1764.4669, 7101.3287) scale(0.8428937967721449, 0.8428937967721449)" opacity="1"><g transform="scale(1.1863890846385299)"><path d="M0.9661,2.4476 T-0.0208,3.059 -2.7786,4.9631 -6.5419,7.5579 -9.7142,9.4839 -10.8942,10.1076 A1.9065,1.9065 0 0 1 -12.7058,6.7524 T-10.6385,5.6276 -6.7969,3.22 -3.9988,1.17 -1.9705,-0.1823 -0.9661,-0.7676 A1.8756,1.8756 0 0 1 0.9661,2.4476 Z" stroke-linecap="round" fill="#ffc034"/></g></g><g transform="matrix(1, 0, 0, 1, 1777.9532, 7080.2564) scale(0.8428937967721449, 0.8428937967721449)" opacity="1"><g transform="scale(1.1863890846385299)"><path d="M-0.1698,-1.8742 T2.0235,-2.0617 5.7974,-2.3578 8.6203,-2.3082 11.5525,-0.9039 13.5684,2.4307 12.8348,6.1754 10.8514,8.7306 9.0485,10.835 8.3097,12.0743 8.4503,12.1084 A1.9126,1.9126 0 0 1 4.6762,12.7319 T4.9866,11.0366 6.2782,8.1345 8.1926,6.0027 9.5429,3.6402 8.7859,1.7279 6.0822,1.3538 2.3612,1.6644 0.1698,1.8742 A1.8819,1.8819 0 0 1 -0.1698,-1.8742 ZM7.47,10.7362 T8.3124,11.1614 10.9979,11.7851 15.1921,12.0762 19.7491,12.2541 21.9548,12.3395 A1.9908,1.9908 0 0 1 21.8852,16.3205 T19.6553,16.3283 16.165,16.3121 13.6467,16.2027 11.1308,15.9432 8.5998,15.4148 6.4917,14.5823 5.6565,14.1041 A1.9126,1.9126 0 0 1 7.47,10.7362 Z" stroke-linecap="round" fill="#ffc034"/></g></g><g transform="matrix(1, 0, 0, 1, 1823.4694, 7112.2863) scale(0.8428937967721449, 0.8428937967721449)" opacity="1"><g transform="scale(1.1863890846385299)"><path d="M1.683,-0.0987 T1.943,3.2872 2.1352,9.1466 1.9808,14.2774 1.8944,16.9347 A1.8958,1.8958 0 0 1 -1.8944,16.7853 T-1.7715,14.1295 -1.5285,9.1784 -1.5457,3.4909 -1.683,0.0987 A1.6859,1.6859 0 0 1 1.683,-0.0987 Z" stroke-linecap="round" fill="#ffc034"/></g></g><g transform="matrix(1, 0, 0, 1, 1830.2126, 7122.4011) scale(0.8428937967721449, 0.8428937967721449)" opacity="1"><g transform="scale(1.1863890846385299)"><path d="M-0.5424,1.8936 T-1.9463,1.527 -5.793,0.9343 -10.428,0.9318 -14.4294,1.4548 -17.2532,1.8603 -18.2676,1.9662 A1.9849,1.9849 0 0 1 -18.8124,-1.9662 T-17.014,-2.2794 -13.0418,-2.9543 -9.3766,-3.4548 -6.5073,-3.4485 -3.6804,-3.0312 -0.8444,-2.3264 0.5424,-1.8936 A1.9698,1.9698 0 0 1 -0.5424,1.8936 Z" stroke-linecap="round" fill="#ffc034"/></g></g><g transform="matrix(1, 0, 0, 1, 1854.6565, 7108.0719) scale(0.8428937967721449, 0.8428937967721449)" opacity="1"><g transform="scale(1.1863890846385299)"><path d="M-1.4435,-1.9228 T-0.6275,-2.5164 2.3067,-3.8046 7.0641,-4.194 11.7244,-2.0871 14.5281,2.24 15.2559,6.8479 14.9277,10.7438 14.05,14.2673 12.6692,17.3384 11.0507,19.8248 9.352,21.9388 6.6181,24.3588 3.1228,26.6594 0.6317,27.9948 -0.2412,28.4614 A2.1207,2.1207 0 0 1 -2.1776,24.6879 T-0.5935,24.0126 2.3966,22.2931 5.2203,19.784 7.8807,16.3795 9.5737,13.1602 10.234,10.291 10.5535,7.352 10.2397,4.2858 8.4407,1.3079 5.0323,0.3818 2.2215,1.3198 1.4435,1.9228 A2.4043,2.4043 0 0 1 -1.4435,-1.9228 ZM-0.2002,24.7095 T0.5341,25.0862 3.2031,25.6398 7.5207,25.8818 11.3483,26.178 14.978,26.5903 18.3534,26.8639 19.5439,26.9563 A2.5483,2.5483 0 0 1 19.2361,32.0437 T16.9251,31.9445 12.1258,31.4635 8.299,30.9705 4.6854,30.4064 0.6324,29.5075 -1.682,28.7506 -2.2186,28.4398 A2.1207,2.1207 0 0 1 -0.2002,24.7095 Z" stroke-linecap="round" fill="#ffc034"/></g></g><g transform="matrix(1, 0, 0, 1, 1879.1004, 7083.6279) scale(0.8428937967721449, 0.8428937967721449)" opacity="1"><g transform="scale(1.1863890846385299)"><path d="M-1.1845,-1.4797 T-0.1823,-2.2712 2.4667,-3.9966 5.4841,-5.3651 6.8547,-5.7996 A1.8953,1.8953 0 0 1 7.6826,-2.1005 T6.787,-1.859 4.5271,-0.8715 2.1737,0.6771 1.1845,1.4797 A1.8954,1.8954 0 0 1 -1.1845,-1.4797 ZM8.3654,-5.4958 T8.8501,-5.1557 10.3942,-2.7936 11.1164,1.4705 9.5701,5.251 7.1842,7.7017 5.032,9.5199 3.9662,10.666 3.8758,10.906 A1.8696,1.8696 0 0 1 0.6318,9.0467 T1.0474,8.4039 2.5159,6.7774 4.5631,5.0342 6.5352,2.7651 7.3044,-0.2428 6.6338,-2.0727 6.1719,-2.4044 A1.8953,1.8953 0 0 1 8.3654,-5.4958 ZM3.8484,9.0003 T4.0429,9.3524 5.6425,9.6796 8.8611,9.6836 11.6774,9.723 12.6803,9.7337 A2.0667,2.0667 0 0 1 12.5997,13.8663 T10.6819,13.8108 6.5605,13.5985 2.8416,12.7076 0.9927,11.4629 0.6592,10.9524 A1.8696,1.8696 0 0 1 3.8484,9.0003 Z" stroke-linecap="round" fill="#ffc034"/></g></g><g transform="matrix(1, 0, 0, 1, 1921.2451, 7108.0719) scale(0.8428937967721449, 0.8428937967721449)" opacity="1"><g transform="scale(1.1863890846385299)"><path d="M1.8488,-0.2632 T2.0645,1.1298 2.2713,5.1025 2.201,9.0474 1.8941,11.8811 1.3804,16.0157 0.9655,20.3377 0.8187,21.9938 A1.6603,1.6603 0 0 1 -2.4987,21.8462 T-2.4979,20.1836 -2.5083,16.9778 -2.3926,14.0467 -2.0341,11.4295 -1.7128,8.7081 -1.5543,5.1373 -1.6672,1.6609 -1.8488,0.2632 A1.8674,1.8674 0 0 1 1.8488,-0.2632 Z" stroke-linecap="round" fill="#ffc034"/></g></g><g transform="matrix(1, 0, 0, 1, 1924.6167, 7119.0295) scale(0.8428937967721449, 0.8428937967721449)" opacity="1"><g transform="scale(1.1863890846385299)"><path d="M-0.2906,1.7508 T-1.4902,1.5723 -4.2275,1.319 -8.047,1.1457 -11.509,1.0018 -12.6893,0.9564 A1.7971,1.7971 0 0 1 -12.5907,-2.6364 T-10.3345,-2.6009 -6.8026,-2.5116 -3.8119,-2.323 -0.9032,-1.9696 0.2906,-1.7508 A1.7748,1.7748 0 0 1 -0.2906,1.7508 Z" stroke-linecap="round" fill="#ffc034"/></g></g><g transform="matrix(1, 0, 0, 1, 1945.689, 7104.7003) scale(0.8428937967721449, 0.8428937967721449)" opacity="1"><g transform="scale(1.1863890846385299)"><path d="M-1.2464,-2.0369 T-0.2517,-2.2406 2.9938,-2.4227 6.5789,-1.8377 8.9031,-0.4631 10.6787,1.5219 11.8875,4.0714 12.3008,6.7431 11.0563,10.1716 8.7898,13.2088 9.9145,14.1887 14.1895,15.3737 17.2943,17.6033 18.9813,19.9599 19.9029,22.4766 19.7682,26.0151 18.5612,29.8076 16.6526,32.2338 14.4406,33.7413 11.8372,34.8948 8.7129,35.7224 5.4341,35.9409 1.4776,34.6311 -1.8406,32.5526 -2.8054,31.7131 A1.7691,1.7691 0 0 1 -0.5746,28.9669 T1.0248,30.2565 4.5107,31.7762 7.7257,31.8009 10.2816,31.1955 12.9747,30.0903 15.5008,27.6061 16.4988,24.3505 15.4257,21.2388 12.7224,18.728 9.7261,17.4948 6.6565,16.2826 4.7439,13.618 5.7175,10.6678 7.5321,8.0334 7.6367,5.022 5.8605,2.6332 3.1167,1.7057 0.563,1.8433 -0.4336,2.0369 A2.077,2.077 0 0 1 -1.2464,-2.0369 Z" stroke-linecap="round" fill="#ffc034"/></g></g><g transform="matrix(1, 0, 0, 1, 1962.5469, 7083.6279) scale(0.8428937967721449, 0.8428937967721449)" opacity="1"><g transform="scale(1.1863890846385299)"><path d="M-0.6169,-1.847 T0.5794,-2.2505 4.0391,-2.8065 7.9306,-1.301 9.259,2.3501 7.9307,5.7205 5.7733,8.3403 3.8868,10.3561 3.1293,11.1294 A1.9979,1.9979 0 0 1 -0.1938,8.9104 T0.2941,8.2716 1.9324,6.4371 3.8848,4.2554 5.127,2.0735 4.2891,0.9665 1.814,1.4511 0.6169,1.847 A1.9473,1.9473 0 0 1 -0.6169,-1.847 ZM3.4121,9.5603 T3.4699,9.7814 3.5277,10.0025 A2.0087,2.0087 0 0 1 -0.3819,10.9267 T-0.4292,10.7031 -0.4766,10.4796 A1.9979,1.9979 0 0 1 3.4121,9.5603 ZM1.9107,8.4845 T2.8925,8.6229 5.3886,8.7657 8.9594,8.4728 13.0347,8.125 15.0535,8.0746 A2.0388,2.0388 0 0 1 15.2865,12.1454 T14.2506,12.2374 11.3861,12.506 8.2021,12.878 5.1564,12.9785 2.3507,12.6641 1.2351,12.4446 A2.0087,2.0087 0 0 1 1.9107,8.4845 Z" stroke-linecap="round" fill="#ffc034"/></g></g><g transform="matrix(1, 0, 0, 1, 1994.5769, 7113.9721) scale(0.8428937967721449, 0.8428937967721449)" opacity="1"><g transform="scale(1.1863890846385299)"><path d="M1.3944,-0.1264 T1.6524,2.0615 1.8267,6.5039 1.6755,10.4772 1.537,14.124 1.4661,16.0519 A1.4667,1.4667 0 0 1 -1.4661,15.9681 T-1.4266,14.0392 -1.3557,10.3675 -1.22,6.5723 -1.2551,2.3232 -1.3944,0.1264 A1.4001,1.4001 0 0 1 1.3944,-0.1264 Z" stroke-linecap="round" fill="#ffc034"/></g></g><g transform="matrix(1, 0, 0, 1, 2001.32, 7121.5582) scale(0.8428937967721449, 0.8428937967721449)" opacity="1"><g transform="scale(1.1863890846385299)"><path d="M-0.1901,0.8578 T-1.9906,0.7053 -5.2963,0.4786 -8.7495,0.4784 -11.9642,0.7107 -13.2311,0.8689 A1.7284,1.7284 0 0 1 -13.7489,-2.5489 T-12.4921,-2.7731 -8.8908,-3.1547 -4.9677,-3.1746 -1.5995,-2.7873 0.1901,-2.5378 A1.7084,1.7084 0 0 1 -0.1901,0.8578 Z" stroke-linecap="round" fill="#ffc034"/></g></g><g transform="matrix(1, 0, 0, 1, 2013.9634, 7098.8) scale(0.8428937967721449, 0.8428937967721449)" opacity="1"><g transform="scale(1.1863890846385299)"><path d="M1.8944,0.2697 T1.6954,1.665 0.9058,5.7536 0.0073,10.5797 -0.3413,14.0616 0.2687,16.8375 2.5621,18.7916 6.0767,19.2123 9.1823,18.7883 10.4157,18.4711 A1.8412,1.8412 0 0 1 11.5043,21.9889 T10.3072,22.4238 7.6655,23.2972 4.7334,23.6296 1.1868,22.6891 -2.2407,20.0707 -3.9951,16.7982 -4.2888,13.8055 -4.0435,11.0087 -3.6193,8.4858 -2.8195,4.8882 -2.0928,1.1257 -1.8944,-0.2697 A1.9135,1.9135 0 0 1 1.8944,0.2697 Z" stroke-linecap="round" fill="#ffc034"/></g></g><g transform="matrix(1, 0, 0, 1, 2026.6068, 7103.0145) scale(0.8428937967721449, 0.8428937967721449)" opacity="1"><g transform="scale(1.1863890846385299)"><path d="M1.7137,-0.2845 T1.8883,0.9232 1.9215,4.4671 1.558,8.2987 1.2539,11.2607 1.1438,14.3028 1.1152,17.506 1.135,21.1852 1.3185,24.5227 1.9188,26.2267 2.356,26.6447 A1.9183,1.9183 0 0 1 -0.676,28.9953 T-1.5012,27.7851 -2.5422,24.8916 -2.7031,21.1335 -2.5828,17.3978 -2.4208,14.0974 -2.1691,10.8569 -1.7868,7.956 -1.4138,4.6557 -1.491,1.4702 -1.7137,0.2845 A1.7372,1.7372 0 0 1 1.7137,-0.2845 Z" stroke-linecap="round" fill="#ffc034"/></g></g><g transform="matrix(1, 0, 0, 1, 2031.6642, 7080.2564) scale(0.8428937967721449, 0.8428937967721449)" opacity="1"><g transform="scale(1.1863890846385299)"><path d="M-0.5889,-2.0558 T0.8247,-2.4278 4.3519,-2.5376 7.6688,-0.7282 8.5219,2.5136 7.1282,5.4329 7.5531,6.9497 10.0105,7.2986 10.9995,7.3554 A1.915,1.915 0 0 1 10.9205,11.1846 T9.9301,11.2006 7.4213,11.1855 4.1722,10.6534 2.0624,8.3052 2.4401,5.2514 3.2699,2.6229 1.966,1.6284 0.5889,2.0558 A2.1385,2.1385 0 0 1 -0.5889,-2.0558 Z" stroke-linecap="round" fill="#ffc034"/></g></g><g transform="matrix(1, 0, 0, 1, 2059.4797, 7108.0719) scale(0.8428937967721449, 0.8428937967721449)" opacity="1"><g transform="scale(1.1863890846385299)"><path d="M1.7348,0.435 T1.4079,2.0468 0.9423,5.0042 0.9321,8.7384 1.0711,12.696 1.0817,14.2652 A1.9227,1.9227 0 0 1 -2.7617,14.3948 T-2.8568,12.8285 -3.0434,9.9025 -3.1898,7.1613 -2.9624,4.2486 -2.2073,1.1413 -1.7348,-0.435 A1.7885,1.7885 0 0 1 1.7348,0.435 Z" stroke-linecap="round" fill="#ffc034"/></g></g><g transform="matrix(1, 0, 0, 1, 2064.5371, 7113.9721) scale(0.8428937967721449, 0.8428937967721449)" opacity="1"><g transform="scale(1.1863890846385299)"><path d="M-0.4291,1.6413 T-2.0172,2.0739 -5.6779,2.9415 -9.3924,3.7417 -12.905,4.534 -14.7755,4.961 A1.6392,1.6392 0 0 1 -15.5645,1.779 T-13.7112,1.2827 -10.1578,0.3229 -6.4589,-0.5242 -2.8555,-1.2745 -1.2509,-1.6413 A1.6919,1.6919 0 0 1 -0.4291,1.6413 Z" stroke-linecap="round" fill="#ffc034"/></g></g><g transform="matrix(1, 0, 0, 1, 2076.3376, 7103.0145) scale(0.8428937967721449, 0.8428937967721449)" opacity="1"><g transform="scale(1.1863890846385299)"><path d="M1.9191,-0.3186 T2.1141,0.9379 1.9837,3.447 1.2032,6.2513 0.2656,9.023 -0.2168,10.2428 A1.9954,1.9954 0 0 1 -4.0272,9.0564 T-3.7918,8.3406 -2.9919,6.4909 -1.9708,3.9747 -1.7167,1.4555 -1.9191,0.3186 A1.9454,1.9454 0 0 1 1.9191,-0.3186 ZM-0.4081,8.6278 T-0.2668,9.0127 1.3878,9.7118 4.8696,11.1269 7.7324,13.3664 9.1452,16.8862 9.167,20.5088 6.7924,23.3971 3.6937,25.5488 0.093,26.25 -3.3124,26.3357 -4.3378,26.2247 A1.7893,1.7893 0 0 1 -4.0822,22.6553 T-3.0514,22.6916 -0.5613,22.5446 2.9251,21.1632 5.1392,18.3949 4.2403,15.6407 1.5078,13.7864 -1.5222,12.526 -3.3708,11.3037 -3.8359,10.6714 A1.9954,1.9954 0 0 1 -0.4081,8.6278 Z" stroke-linecap="round" fill="#ffc034"/></g></g><g transform="matrix(1, 0, 0, 1, 2075.4947, 7101.3287) scale(0.8428937967721449, 0.8428937967721449)" opacity="1"><g transform="scale(1.1863890846385299)"><path d="M0.416,-1.4523 T1.8215,-1.0885 4.8877,-0.4564 7.765,-0.9657 9.9481,-2.3711 10.9146,-2.9991 A1.5804,1.5804 0 0 1 12.6854,-0.3809 T10.7404,0.9634 7.566,2.6906 4.3455,2.6985 0.9692,1.8878 -0.416,1.4523 A1.5107,1.5107 0 0 1 0.416,-1.4523 Z" stroke-linecap="round" fill="#ffc034"/></g></g><g transform="matrix(1, 0, 0, 1, 2084.7665, 7083.6279) scale(0.8428937967721449, 0.8428937967721449)" opacity="1"><g transform="scale(1.1863890846385299)"><path d="M-0.9187,-1.8374 T0.696,-2.5958 3.6791,-3.8117 7.2791,-4.4665 11.2386,-2.9937 12.7896,0.1674 11.8446,3.5128 10.6307,6.6535 11.7293,8.4178 14.6006,8.7856 15.9275,8.6752 A2.2863,2.2863 0 0 1 16.0925,13.2448 T15.1029,13.3274 12.6677,13.3529 9.7878,12.5926 7.2012,10.3623 6.3116,6.8843 7.3101,3.6323 8.0931,0.6816 6.1028,-0.4009 2.492,1.0018 0.9187,1.8374 A2.0543,2.0543 0 0 1 -0.9187,-1.8374 Z" stroke-linecap="round" fill="#ffc034"/></g></g><g transform="matrix(1, 0, 0, 1, 2117.6394, 7103.0145) scale(0.8428937967721449, 0.8428937967721449)" opacity="1"><g transform="scale(1.1863890846385299)"><path d="M1.6639,-0.4157 T2.5312,2.7573 3.8855,8.2542 4.6351,12.4309 4.9617,15.6726 5.104,18.5673 5.1821,20.0731 A1.8189,1.8189 0 0 1 1.5579,20.3869 T1.3761,18.89 1.0251,16.0871 0.6757,13.0369 0.1426,9.062 -0.9372,3.6235 -1.6639,0.4157 A1.715,1.715 0 0 1 1.6639,-0.4157 Z" stroke-linecap="round" fill="#ffc034"/></g></g><g transform="matrix(1, 0, 0, 1, 2127.7541, 7112.2863) scale(0.8428937967721449, 0.8428937967721449)" opacity="1"><g transform="scale(1.1863890846385299)"><path d="M-0.5406,2.1031 T-1.9325,2.3271 -4.9347,2.681 -7.9811,2.8773 -11.7883,3.2638 -15.3926,3.7034 -16.626,3.8231 A2.1459,2.1459 0 0 1 -17.094,-0.4431 T-14.8268,-0.7218 -11.0784,-1.2551 -8.2215,-1.5536 -5.3914,-1.677 -2.5382,-1.9298 -1.1394,-2.1031 A2.1243,2.1243 0 0 1 -0.5406,2.1031 Z" stroke-linecap="round" fill="#ffc034"/></g></g><g transform="matrix(1, 0, 0, 1, 2137.0259, 7092.8998) scale(0.8428937967721449, 0.8428937967721449)" opacity="1"><g transform="scale(1.1863890846385299)"><path d="M2.3068,0.2553 T2.1097,2.0522 1.3899,5.9565 0.4347,10.233 -0.4196,14.5667 -1.0378,18.5739 -1.3368,22.1718 -1.2984,25.2787 -0.2445,27.9061 2.3559,28.9468 5.1862,28.0881 7.4836,26.3359 8.4897,24.4635 8.3412,23.7196 A2.0596,2.0596 0 0 1 12.4603,23.7306 T12.3051,25.4966 11.3857,28.3448 9.6378,30.3676 7.4469,32.0905 4.6287,33.6101 1.576,34.2604 -1.3098,33.491 -3.9003,31.5531 -5.6128,28.7072 -6.3052,25.3576 -6.288,21.7117 -5.8733,17.7914 -5.1372,13.5909 -4.1758,9.1536 -3.1933,5.107 -2.507,1.5378 -2.3068,-0.2553 A2.3209,2.3209 0 0 1 2.3068,0.2553 ZM9.495,25.5748 T9.0379,25.351 7.1314,25.4688 4.4367,26.1853 1.3516,27.2635 -1.5337,28.3918 -2.579,28.8166 A2.0088,2.0088 0 0 1 -4.161,25.1234 T-3.1323,24.6598 -0.0575,23.3431 3.9893,21.8581 8.1731,21.3181 10.8314,21.6427 11.3066,21.8754 A2.0596,2.0596 0 0 1 9.495,25.5748 Z" stroke-linecap="round" fill="#ffc034"/></g></g><g transform="matrix(1, 0, 0, 1, 2146.2978, 7072.6703) scale(0.8428937967721449, 0.8428937967721449)" opacity="1"><g transform="scale(1.1863890846385299)"><path d="M0,-2.1561 T2.205,-2.1683 6.0996,-1.7331 8.9451,-0.3742 10.574,1.77 10.3455,5.122 8.4067,8.8134 6.4623,11.287 5.7552,12.1885 A2.2757,2.2757 0 0 1 2.2322,9.3068 T3.5854,7.8638 5.9388,4.957 5.6492,2.8368 2.1797,2.1683 0,2.1561 A2.1561,2.1561 0 0 1 0,-2.1561 ZM4.988,8.7006 T5.5497,8.9799 8.1008,9.3674 12.0637,9.9831 14.0372,10.4906 A2.2179,2.2179 0 0 1 12.9428,14.7894 T12.0251,14.5727 9.7115,14.1924 6.6607,13.8926 4.0025,13.2755 2.9994,12.7947 A2.2757,2.2757 0 0 1 4.988,8.7006 Z" stroke-linecap="round" fill="#ffc034"/></g></g><g transform="matrix(1, 0, 0, 1, 2169.8988, 7101.3287) scale(0.8428937967721449, 0.8428937967721449)" opacity="1"><g transform="scale(1.1863890846385299)"><path d="M1.7616,-0.4417 T2.1954,1.1442 2.8846,4.2572 3.2756,7.4093 3.4856,10.6849 3.5786,13.5989 3.5994,17.1115 3.6015,19.3607 A1.9118,1.9118 0 0 1 -0.2215,19.4193 T-0.2555,18.2394 -0.365,14.7698 -0.4833,10.8978 -0.6123,7.8304 -0.8646,4.9957 -1.3961,2.0438 -1.7616,0.4417 A1.8161,1.8161 0 0 1 1.7616,-0.4417 Z" stroke-linecap="round" fill="#ffc034"/></g></g><g transform="matrix(1, 0, 0, 1, 2177.4848, 7112.2863) scale(0.8428937967721449, 0.8428937967721449)" opacity="1"><g transform="scale(1.1863890846385299)"><path d="M0,1.6428 T-1.9937,1.6681 -5.6375,1.7084 -8.8713,1.5246 -11.724,0.9848 -14.2936,0.289 -15.5942,-0.0657 A1.6788,1.6788 0 0 1 -14.7458,-3.3143 T-12.3656,-2.7174 -8.6344,-1.922 -5.6354,-1.7084 -1.9937,-1.6681 0,-1.6428 A1.6428,1.6428 0 0 1 0,1.6428 Z" stroke-linecap="round" fill="#ffc034"/></g></g><g transform="matrix(1, 0, 0, 1, 2179.1706, 7089.5282) scale(0.8428937967721449, 0.8428937967721449)" opacity="1"><g transform="scale(1.1863890846385299)"><path d="M0.627,-2.5006 T2.2083,-2.0503 5.4558,-1.28 8.3958,-0.71 11.6095,0.0031 15.0283,0.5589 18.4677,0.711 21.4547,1.7861 22.4246,5.002 21.6543,9.4559 20.5626,13.0668 19.7518,15.6473 18.7246,18.6507 17.6226,21.9754 16.6668,25.0871 15.7726,28.1217 14.8642,30.8225 12.739,34.2638 10.1168,37.2383 9.1575,38.0048 A2.3604,2.3604 0 0 1 6.0225,34.4752 T7.3726,33.2539 9.4991,30.0267 10.728,26.5939 11.6833,23.5124 12.7202,20.3139 14.2618,15.9135 16.0165,10.4873 17.7059,6.7146 16.3858,5.6159 12.2743,5.3696 8.4163,4.4321 4.497,3.522 0.9798,2.8496 -0.627,2.5006 A2.578,2.578 0 0 1 0.627,-2.5006 Z" stroke-linecap="round" fill="#ffc034"/></g></g><g transform="matrix(1, 0, 0, 1, 2196.8714, 7111.4434) scale(0.8428937967721449, 0.8428937967721449)" opacity="1"><g transform="scale(1.1863890846385299)"><path d="M-1.0493,1.6819 T-2.6516,1.5309 -5.6468,1.2969 -8.8635,1.1211 -11.6921,0.9786 -12.697,0.9289 A1.7698,1.7698 0 0 1 -12.583,-2.6089 T-11.577,-2.5938 -8.6728,-2.503 -5.2932,-2.3009 -2.2212,-1.9283 -0.6307,-1.6819 A1.6949,1.6949 0 0 1 -1.0493,1.6819 Z" stroke-linecap="round" fill="#ffc034"/></g></g><g transform="matrix(1, 0, 0, 1, 2200.243, 7072.6703) scale(0.8428937967721449, 0.8428937967721449)" opacity="1"><g transform="scale(1.1863890846385299)"><path d="M0,-2.1248 T2.2047,-2.1304 6.0921,-1.6892 8.8611,-0.4401 10.6958,2.4407 10.9273,5.7421 8.8935,8.5323 6.9264,10.7653 6.4762,11.4308 A2.2679,2.2679 0 0 1 2.8419,8.7168 T3.5487,7.8329 5.6739,5.3087 5.7262,2.9022 2.18,2.1304 0,2.1248 A2.1248,2.1248 0 0 1 0,-2.1248 ZM6.8682,9.5607 T6.9801,9.9649 7.0921,10.3692 A2.3031,2.3031 0 0 1 2.6053,11.4113 T2.5276,10.9991 2.4499,10.5869 A2.2679,2.2679 0 0 1 6.8682,9.5607 ZM5.5174,8.6864 T6.4758,8.937 9.0885,9.4686 12.2996,9.9658 13.8564,10.182 A2.4852,2.4852 0 0 1 13.1236,15.098 T11.2399,14.8013 7.9752,14.2059 5.387,13.5006 4.18,13.0941 A2.3031,2.3031 0 0 1 5.5174,8.6864 Z" stroke-linecap="round" fill="#ffc034"/></g></g><g transform="matrix(1, 0, 0, 1, 1546.749, 7495.1711) scale(0.863338426776475, 0.863338426776475)" opacity="1"><g transform="scale(1.1582943246645359)"><path d="M-0.2801,1.5381 T-2.531,1.1541 -7.3188,0.591 -12.627,0.3233 -18.5505,-0.0066 -24.5376,-0.3593 -30.3543,-0.7281 -36.2743,-1.1161 -41.9881,-1.3178 -47.5221,-1.6312 -53.0885,-1.9874 -58.4028,-2.1557 -63.5304,-2.4402 -68.4785,-2.78 -73.1407,-3.1519 -77.4397,-3.5383 -81.2521,-3.7201 -84.6363,-4.0313 -87.6308,-4.3936 -90.6065,-4.3929 -92.1234,-4.2838 A2.1387,2.1387 0 0 1 -92.3838,-8.5532 T-90.5636,-8.6476 -87.0935,-8.5919 -84.186,-8.2052 -81.0203,-7.876 -77.0533,-7.6234 -72.7925,-7.1856 -68.1859,-6.7653 -63.292,-6.3739 -58.2616,-6.0428 -52.8275,-5.8148 -47.2968,-5.419 -41.8441,-5.0864 -36.0086,-4.8431 -30.0927,-4.3866 -24.3015,-3.9248 -18.3326,-3.4735 -12.4205,-3.0496 -6.8932,-2.6589 -1.9625,-1.9724 0.2801,-1.5381 A1.5634,1.5634 0 0 1 -0.2801,1.5381 ZM-90.1768,-6.9295 T-90.106,-6.5303 -88.4066,-5.308 -84.7972,-3.4262 -80.8684,-1.164 -77.7287,0.8228 -75.066,2.6539 -72.0085,4.864 -68.552,7.4679 -64.6756,10.4832 -60.5867,13.6955 -56.3838,17.0094 -52.1759,20.1349 -48.1262,22.9837 -44.3071,25.7277 -40.8055,28.4373 -37.8893,30.9303 -35.3251,33.2745 -32.9458,35.54 -30.9907,37.6487 -28.8023,41.2835 -27.5498,45.4576 -27.9147,48.3744 -28.8696,51.0062 -30.4854,53.778 -32.5984,56.6641 -35.2381,59.5194 -38.2544,62.4474 -41.4083,65.5613 -44.699,68.8449 -48.3139,72.2625 -52.2999,75.7491 -56.4324,79.2255 -60.6491,82.6958 -64.854,86.3222 -69.1077,90.0735 -73.1945,93.6842 -76.6264,97.2833 -79.6409,100.8152 -82.2666,103.9371 -84.3866,106.7382 -86.2968,109.4337 -87.7735,112.1863 -86.7242,114.686 -83.601,115.8676 -79.901,116.2377 -75.4744,116.6306 -70.4183,116.8207 -64.1882,117.1229 -57.2249,117.4799 -49.6873,117.8636 -41.6291,118.2626 -33.9836,118.4665 -26.8031,118.7891 -19.9569,119.1817 -13.9807,119.432 -8.7908,119.6366 -4.3428,119.6785 -0.7913,119.6109 2.4746,119.5639 4.1799,119.5319 A2.2025,2.2025 0 0 1 4.4601,123.9281 T2.7647,124.1129 -0.4223,124.4773 -4.1622,124.9736 -8.9004,125.3136 -14.1679,125.3119 -20.2801,125.1708 -27.0738,124.8207 -34.1522,124.5059 -41.9405,124.2722 -50.0016,123.8408 -57.5507,123.4205 -64.4862,123.024 -70.682,122.6772 -76.0375,122.4166 -80.5251,121.9543 -84.4417,121.4736 -87.9825,120.8331 -90.8816,119.5275 -92.8401,117.4983 -93.5413,114.1955 -92.5357,109.8826 -90.5757,106.334 -88.5121,103.5526 -86.1881,100.6101 -83.4866,97.4826 -80.2702,93.8051 -76.5277,89.9175 -72.4219,86.2956 -68.1039,82.5248 -63.7892,78.8516 -59.5856,75.4444 -55.4947,72.0637 -51.6226,68.7405 -48.072,65.4382 -44.7398,62.1636 -41.5285,59.0351 -38.6686,56.3199 -36.3508,53.8881 -34.478,51.3909 -32.9318,48.3108 -32.4448,44.8914 -33.8767,41.6126 -36.1654,38.9084 -38.4724,36.7027 -40.923,34.4401 -43.6544,32.0689 -47.0009,29.4259 -50.7462,26.6623 -54.8482,23.7094 -59.1347,20.4752 -63.3044,17.1426 -67.3571,13.9359 -71.175,10.9726 -74.5729,8.4342 -77.5481,6.3076 -81.1885,3.8917 -85.0868,1.3815 -88.848,-0.7874 -92.3875,-2.9876 -94.081,-5.0054 -94.3303,-5.9075 A2.1387,2.1387 0 0 1 -90.1768,-6.9295 Z" stroke-linecap="round" fill="#9398b0"/></g></g><g transform="matrix(1, 0, 0, 1, 1467.3219, 7647.982) scale(0.863338426776475, 0.863338426776475)" opacity="1"><g transform="scale(1.1582943246645359)"><path d="M1.4261,1.4261 T0.819,2.0299 -0.8563,4.506 -2.6926,7.5859 -4.158,11.0664 -4.6447,15.1726 -2.7716,17.1169 -0.0662,16.8185 0.9766,16.4092 A1.8785,1.8785 0 0 1 2.4834,19.8508 T1.4754,20.3394 -0.8217,21.3502 -3.573,21.7575 -6.0921,20.9289 -7.8364,19.0494 -8.7469,16.5703 -8.8971,13.675 -8.3966,10.8161 -7.4464,8.0698 -5.4811,4.3526 -3.3503,0.9607 -2.0441,-0.8048 -1.4261,-1.4261 A2.0168,2.0168 0 0 1 1.4261,1.4261 Z" stroke-linecap="round" fill="#9398b0"/></g></g><g transform="matrix(1, 0, 0, 1, 1468.1852, 7635.8952) scale(0.863338426776475, 0.863338426776475)" opacity="1"><g transform="scale(1.1582943246645359)"><path d="M-0.8063,-1.074 T0.0036,-1.6946 1.7167,-3.0054 2.6199,-3.6957 A1.3826,1.3826 0 0 1 4.2801,-1.4843 T3.3651,-0.8096 1.6282,0.4695 0.8063,1.074 A1.3429,1.3429 0 0 1 -0.8063,-1.074 Z" stroke-linecap="round" fill="#9398b0"/></g></g><g transform="matrix(1, 0, 0, 1, 1478.5453, 7652.2987) scale(0.863338426776475, 0.863338426776475)" opacity="1"><g transform="scale(1.1582943246645359)"><path d="M0,-1.4332 T1.4285,-1.4747 5.3135,-1.5122 7.77,-1.5083 A1.5083,1.5083 0 0 1 7.77,1.5083 T5.3135,1.5122 1.4285,1.4747 0,1.4332 A1.4332,1.4332 0 0 1 0,-1.4332 Z" stroke-linecap="round" fill="#9398b0"/></g></g><g transform="matrix(1, 0, 0, 1, 1479.4086, 7660.0687) scale(0.863338426776475, 0.863338426776475)" opacity="1"><g transform="scale(1.1582943246645359)"><path d="M0,-1.5674 T1.2234,-1.6009 4.534,-2.1747 8.6822,-3.0038 12.0409,-3.0972 14.5578,-2.6945 15.777,-2.4873 A1.6444,1.6444 0 0 1 15.303,0.7673 T14.0753,0.6181 11.0984,0.4222 7.2944,0.8247 3.8466,1.4542 1.2267,1.6009 0,1.5674 A1.5674,1.5674 0 0 1 0,-1.5674 Z" stroke-linecap="round" fill="#9398b0"/></g></g><g transform="matrix(1, 0, 0, 1, 1511.3521, 7642.802) scale(0.863338426776475, 0.863338426776475)" opacity="1"><g transform="scale(1.1582943246645359)"><path d="M1.7387,-0.2903 T2.1535,2.159 2.8196,6.9824 3.2142,11.4246 3.2357,15.5071 3.0428,19.1008 2.9213,22.1204 2.8161,25.1866 2.7614,26.8128 A1.9021,1.9021 0 0 1 -1.0414,26.7072 T-1.0058,25.0805 -0.9398,21.9743 -0.8265,18.8591 -0.5739,15.4609 -0.4879,11.6972 -0.7518,7.444 -1.3353,2.7413 -1.7387,0.2903 A1.7628,1.7628 0 0 1 1.7387,-0.2903 Z" stroke-linecap="round" fill="#9398b0"/></g></g><g transform="matrix(1, 0, 0, 1, 1488.9053, 7461.5009) scale(0.863338426776475, 0.863338426776475)" opacity="1"><g transform="scale(1.1582943246645359)"><path d="M1.5538,-1.2409 T2.379,-0.2245 4.0592,2.6819 5.1565,6.446 5.3987,8.32 A2.0947,2.0947 0 0 1 1.2208,8.6309 T1.0983,7.1567 0.5177,4.4886 -0.7472,2.2679 -1.5538,1.2409 A1.9885,1.9885 0 0 1 1.5538,-1.2409 ZM1.8358,6.987 T2.9379,5.9247 5.2034,3.5756 7.3344,1.0789 9.5005,-1.4551 12.3449,-3.8277 15.6154,-5.2187 18.6254,-4.9425 20.7629,-3.1147 21.8377,-0.3831 22.3066,2.5022 22.575,5.998 21.7379,10.1167 20.1988,12.7415 19.6188,13.3805 A1.9702,1.9702 0 0 1 16.6412,10.7995 T17.4887,9.9081 18.4453,7.675 18.4147,4.0799 17.1197,0.13 14.7811,-0.8571 12.524,1.0922 10.4307,3.6626 8.357,6.2023 6.0431,8.6877 4.7837,9.9639 A2.0947,2.0947 0 0 1 1.8358,6.987 Z" stroke-linecap="round" fill="#9398b0"/></g></g><g transform="matrix(1, 0, 0, 1, 1587.3259, 7519.3446) scale(0.863338426776475, 0.863338426776475)" opacity="1"><g transform="scale(1.1582943246645359)"><path d="M1.3923,0.3709 T0.5906,3.4375 -1.0518,8.9895 -2.7319,13.7988 -4.1922,18.1271 -5.5565,22.2549 -6.8578,26.455 -7.9075,30.4622 -8.6169,34.3308 -9.1604,38.3973 -9.6369,42.5813 -9.8606,46.741 -9.9608,50.972 -9.8011,54.933 -9.1245,58.6652 -8.1569,62.4556 -7.2273,65.9279 -6.3402,68.9488 -5.1779,71.825 -2.9886,74.2829 -1.526,75.3056 A1.8672,1.8672 0 0 1 -3.654,78.3744 T-4.6161,77.76 -6.7114,76.3156 -8.8627,73.5397 -10.3275,70.11 -11.2244,66.9818 -12.1362,63.4352 -13.1101,59.337 -13.793,55.0741 -13.8883,50.8381 -13.6917,46.4889 -13.352,42.1129 -12.7593,37.8549 -12.0549,33.648 -11.1773,29.5635 -9.9875,25.4531 -8.5831,21.2237 -7.1376,17.1109 -5.5911,12.7762 -3.8902,8.1211 -2.2225,2.6878 -1.3923,-0.3709 A1.4409,1.4409 0 0 1 1.3923,0.3709 Z" stroke-linecap="round" fill="#9398b0"/></g></g><g transform="matrix(1, 0, 0, 1, 1598.5493, 7561.6481) scale(0.863338426776475, 0.863338426776475)" opacity="1"><g transform="scale(1.1582943246645359)"><path d="M1.5839,-0.1971 T1.7853,1.44 1.8949,4.7049 1.3095,7.9153 0.1702,11.9353 -0.4735,15.7069 0.991,16.2892 3.3988,14.9258 4.344,14.3145 A1.4835,1.4835 0 0 1 6.016,16.7655 T5.1019,17.4225 1.9989,19.0985 -1.8971,18.9582 -3.6309,15.8223 -3.3767,12.2695 -2.235,8.3963 -1.2737,4.7795 -1.3785,1.8284 -1.5839,0.1971 A1.5961,1.5961 0 0 1 1.5839,-0.1971 Z" stroke-linecap="round" fill="#9398b0"/></g></g><g transform="matrix(1, 0, 0, 1, 1600.276, 7541.7914) scale(0.863338426776475, 0.863338426776475)" opacity="1"><g transform="scale(1.1582943246645359)"><path d="M1.1991,-0.4802 T1.6139,0.5392 2.4899,2.6948 2.9511,3.831 A1.3153,1.3153 0 0 1 0.5089,4.809 T0.0584,3.6685 -0.7956,1.5041 -1.1991,0.4802 A1.2916,1.2916 0 0 1 1.1991,-0.4802 Z" stroke-linecap="round" fill="#9398b0"/></g></g><g transform="matrix(1, 0, 0, 1, 1611.4994, 7524.5246) scale(0.863338426776475, 0.863338426776475)" opacity="1"><g transform="scale(1.1582943246645359)"><path d="M-0.4774,-1.6668 T0.9577,-2.0529 4.6227,-2.7907 8.9538,-2.5158 11.6281,0.3839 11.5626,4.3247 9.362,7.4364 7.4764,9.5823 7.1529,10.2842 A1.7736,1.7736 0 0 1 3.6631,9.6492 T3.9455,8.7337 5.5969,6.5252 7.8709,3.8033 7.9711,1.2815 5.2436,0.4956 1.8992,1.2346 0.4774,1.6668 A1.7338,1.7338 0 0 1 -0.4774,-1.6668 ZM6.856,8.9425 T7.1343,9.3711 9.5086,9.92 13.7995,10.3475 17.2357,10.9347 18.4769,11.2146 A1.7697,1.7697 0 0 1 17.7831,14.6854 T16.5297,14.4666 13.3083,14.03 9.2417,13.5301 5.9836,12.6952 4.3922,11.5666 3.9601,10.9909 A1.7736,1.7736 0 0 1 6.856,8.9425 Z" stroke-linecap="round" fill="#9398b0"/></g></g><g transform="matrix(1, 0, 0, 1, 1638.2629, 7553.8781) scale(0.863338426776475, 0.863338426776475)" opacity="1"><g transform="scale(1.1582943246645359)"><path d="M1.3029,-0.2176 T1.7312,2.2297 2.4087,7.8688 2.9448,13.2762 3.5667,18.014 3.9017,20.5361 A1.3245,1.3245 0 0 1 1.2783,20.9039 T0.9069,18.3868 0.1883,13.5625 -0.3409,8.1894 -0.9129,2.6706 -1.3029,0.2176 A1.321,1.321 0 0 1 1.3029,-0.2176 Z" stroke-linecap="round" fill="#9398b0"/></g></g><g transform="matrix(1, 0, 0, 1, 1647.7596, 7565.9648) scale(0.863338426776475, 0.863338426776475)" opacity="1"><g transform="scale(1.1582943246645359)"><path d="M0,1.5523 T-2.4501,1.5952 -6.804,1.6558 -10.3236,1.6816 -14.6029,1.4315 -18.6838,0.9143 -20.1014,0.6553 A1.5345,1.5345 0 0 1 -19.6186,-2.3753 T-18.1908,-2.1811 -14.3512,-1.8383 -10.3236,-1.6816 -6.804,-1.6558 -2.4501,-1.5952 0,-1.5523 A1.5523,1.5523 0 0 1 0,1.5523 Z" stroke-linecap="round" fill="#9398b0"/></g></g><g transform="matrix(1, 0, 0, 1, 1657.2563, 7555.6048) scale(0.863338426776475, 0.863338426776475)" opacity="1"><g transform="scale(1.1582943246645359)"><path d="M-0.5634,-1.6901 T1.2922,-2.2497 4.6013,-3.1445 7.695,-3.6881 10.7868,-3.7775 13.8734,-2.5462 16.0442,0.6871 16.082,4.0996 14.8679,6.48 13.1432,8.7583 10.7399,11.2245 8.0518,13.7274 5.4052,16.0609 2.985,18.1158 0.9621,19.9666 -0.1659,21.1908 -0.3375,21.5118 A1.8504,1.8504 0 0 1 -3.4386,19.4923 T-2.9802,18.8458 -1.5107,17.2667 0.6232,15.3419 2.9944,13.3288 5.562,11.0487 8.119,8.6746 10.8099,5.7488 12.2394,2.1527 10.9544,-0.0788 8.2495,-0.3935 5.5043,0.0487 2.383,1.0247 0.5634,1.6901 A1.7816,1.7816 0 0 1 -0.5634,-1.6901 ZM-1.0601,18.8473 T-0.4691,19.1488 2.2722,19.2712 6.0337,18.9633 9.3997,18.5695 12.6563,17.9744 15.798,17.3012 19.0217,16.7992 22.2637,16.4704 23.922,16.3002 A1.8465,1.8465 0 0 1 24.418,19.9598 T22.7742,20.2371 19.7505,20.7576 16.7113,21.4196 13.3903,22.1831 9.8045,22.7616 6.389,23.0418 3.3234,23.2251 0.4818,23.2366 -1.7509,22.6339 -2.716,22.1568 A1.8504,1.8504 0 0 1 -1.0601,18.8473 Z" stroke-linecap="round" fill="#9398b0"/></g></g><g transform="matrix(1, 0, 0, 1, 1682.2932, 7521.9346) scale(0.863338426776475, 0.863338426776475)" opacity="1"><g transform="scale(1.1582943246645359)"><path d="M0.7037,-1.4094 T2.3323,-0.5807 5.3186,1.1379 7.7217,3.2239 9.7322,6.1099 11.6081,9.6874 13.4405,14.0422 15.0712,19.0659 16.3732,24.6265 17.4933,30.6273 18.3144,36.4857 18.7741,42.0864 18.8207,47.5748 18.2209,52.8845 17.0581,57.8227 15.5895,62.4717 13.9555,66.7796 11.9758,70.9266 9.6413,75.3214 8.4393,77.6058 A1.7104,1.7104 0 0 1 5.3807,76.0742 T6.4899,73.7433 8.5411,69.3803 10.2475,65.402 11.7397,61.2654 13.1065,56.8647 14.2186,52.3854 14.8389,47.5708 14.8762,42.3658 14.5375,36.9735 13.8434,31.2711 12.8692,25.4141 11.75,20.097 10.3302,15.3223 8.6988,11.1634 6.4049,6.9711 3.7543,3.8041 0.9361,2.2125 -0.7037,1.4094 A1.5753,1.5753 0 0 1 0.7037,-1.4094 Z" stroke-linecap="round" fill="#9398b0"/></g></g><g transform="matrix(1, 0, 0, 1, 1733.2301, 7559.0581) scale(0.863338426776475, 0.863338426776475)" opacity="1"><g transform="scale(1.1582943246645359)"><path d="M0,-1.6012 T1.2251,-1.6578 4.5156,-1.9614 8.6513,-2.7836 10.7215,-3.3589 A1.7035,1.7035 0 0 1 11.7185,-0.1011 T9.4652,0.6468 4.831,1.5546 1.2251,1.6578 0,1.6012 A1.6012,1.6012 0 0 1 0,-1.6012 Z" stroke-linecap="round" fill="#9398b0"/></g></g><g transform="matrix(1, 0, 0, 1, 1731.5034, 7565.1015) scale(0.863338426776475, 0.863338426776475)" opacity="1"><g transform="scale(1.1582943246645359)"><path d="M0.6805,-2.0376 T1.9147,-1.6589 5.1343,-1.0499 9.6611,-0.7001 12.2026,-0.5803 A2.3131,2.3131 0 0 1 11.9774,4.0403 T10.6089,3.9722 7.9569,3.8388 4.2123,3.345 0.5354,2.4771 -0.6805,2.0376 A2.1482,2.1482 0 0 1 0.6805,-2.0376 Z" stroke-linecap="round" fill="#9398b0"/></g></g><g transform="matrix(1, 0, 0, 1, 1785.0304, 7527.1146) scale(0.863338426776475, 0.863338426776475)" opacity="1"><g transform="scale(1.1582943246645359)"><path d="M1.6089,0.8033 T0.8,2.4405 -0.5934,5.6773 -1.9128,9.0292 -3.404,12.7005 -4.9471,16.6616 -6.2988,20.7198 -7.3422,25.0009 -8.266,29.5074 -8.9171,33.8466 -9.4408,37.9913 -9.9048,41.8087 -10.1282,45.122 -9.994,48.9441 -8.6524,51.7908 -7.5226,52.3583 A2.3139,2.3139 0 0 1 -9.7374,56.4217 T-11.5437,55.4073 -14.0543,53.1442 -14.8615,50.6127 -15.119,47.8549 -15.1625,44.7386 -14.8391,41.1505 -14.2655,37.2933 -13.5921,33.0682 -12.7436,28.4992 -11.6028,23.8568 -10.2811,19.304 -8.6888,15.1173 -6.9702,11.1791 -5.3776,7.6159 -3.9418,4.2139 -2.4319,0.8279 -1.6089,-0.8033 A1.7983,1.7983 0 0 1 1.6089,0.8033 Z" stroke-linecap="round" fill="#9398b0"/></g></g><g transform="matrix(1, 0, 0, 1, 1800.5705, 7552.1514) scale(0.863338426776475, 0.863338426776475)" opacity="1"><g transform="scale(1.1582943246645359)"><path d="M1.8104,-0.0902 T2.0818,3.9911 2.3028,11.1219 2.2154,16.5408 2.1319,21.5622 2.0852,24.2144 A2.0857,2.0857 0 0 1 -2.0852,24.1256 T-2.0189,21.4738 -1.8881,16.4307 -1.6816,11.1523 -1.675,4.1776 -1.8104,0.0902 A1.8126,1.8126 0 0 1 1.8104,-0.0902 Z" stroke-linecap="round" fill="#9398b0"/></g></g><g transform="matrix(1, 0, 0, 1, 1806.6139, 7538.338) scale(0.863338426776475, 0.863338426776475)" opacity="1"><g transform="scale(1.1582943246645359)"><path d="M-0.9516,-1.9059 T0.6987,-2.6897 3.6246,-4.1005 6.3865,-5.141 10.2662,-4.9458 13.4441,-2.2725 13.6061,1.3401 11.5126,4.228 9.4274,6.4246 8.8132,7.2815 A2.1124,2.1124 0 0 1 4.6849,6.3837 T5.7838,4.5156 8.0155,1.8497 9.5328,-0.2244 8.313,-1.29 5.4483,-0.4347 2.5697,1.0578 0.9516,1.9059 A2.1302,2.1302 0 0 1 -0.9516,-1.9059 ZM7.4304,4.8331 T8.0819,5.0436 10.2143,5.376 13.6507,5.6749 15.6062,5.8518 A1.9193,1.9193 0 0 1 15.4738,9.6882 T13.4541,9.7279 9.4007,9.5328 6.7174,9.065 6.0677,8.8321 A2.1124,2.1124 0 0 1 7.4304,4.8331 Z" stroke-linecap="round" fill="#9398b0"/></g></g><g transform="matrix(1, 0, 0, 1, 1833.3774, 7553.0148) scale(0.863338426776475, 0.863338426776475)" opacity="1"><g transform="scale(1.1582943246645359)"><path d="M1.494,-0.747 T2.1377,0.4671 3.1945,3.1018 3.8205,5.8985 4.1427,8.6204 4.0965,11.2465 3.7105,14.9593 3.48,17.3915 A1.7542,1.7542 0 0 1 -0.02,17.1485 T0.0974,14.5703 0.3016,9.8763 0.0286,5.4898 -0.9126,1.9831 -1.494,0.747 A1.6704,1.6704 0 0 1 1.494,-0.747 Z" stroke-linecap="round" fill="#9398b0"/></g></g><g transform="matrix(1, 0, 0, 1, 1840.2841, 7559.9215) scale(0.863338426776475, 0.863338426776475)" opacity="1"><g transform="scale(1.1582943246645359)"><path d="M0.2384,1.6742 T-1.1836,1.9209 -3.8914,2.4979 -6.6005,3.0159 -10.2027,3.304 -13.4915,3.4215 -14.6013,3.4387 A1.7106,1.7106 0 0 1 -14.7587,0.0213 T-12.6884,-0.1423 -8.3081,-0.5343 -4.5531,-1.0584 -1.6733,-1.5142 -0.2384,-1.6742 A1.6911,1.6911 0 0 1 0.2384,1.6742 Z" stroke-linecap="round" fill="#9398b0"/></g></g><g transform="matrix(1, 0, 0, 1, 1848.9175, 7550.4247) scale(0.863338426776475, 0.863338426776475)" opacity="1"><g transform="scale(1.1582943246645359)"><path d="M0,-2.0678 T2.6592,-2.0768 7.3752,-1.655 10.7179,-0.4695 12.9091,1.1827 14.4771,4.4499 14.2515,9.0746 11.7414,12.9343 8.7281,15.458 5.5451,17.5094 3.0763,19.8006 2.3989,20.9591 A2.1161,2.1161 0 0 1 -1.6517,19.7328 T-1.4185,19.0345 0.0831,16.7846 3.1809,14.0367 6.8309,11.3844 9.5503,8.9293 10.5557,6.4624 9.5373,3.9278 6.8541,2.4732 2.6478,2.0768 0,2.0678 A2.0678,2.0678 0 0 1 0,-2.0678 ZM1.3155,18.451 T2.0191,18.7968 4.194,19.1909 7.9708,19.2684 12.4791,19.3753 15.9788,19.4954 17.2758,19.538 A2.042,2.042 0 0 1 17.2642,23.622 T15.9671,23.6572 12.451,23.7509 7.8516,23.77 3.5411,23.5312 0.5213,22.7864 -0.5683,22.2408 A2.1161,2.1161 0 0 1 1.3155,18.451 Z" stroke-linecap="round" fill="#9398b0"/></g></g><g transform="matrix(1, 0, 0, 1, 1873.9543, 7525.3879) scale(0.863338426776475, 0.863338426776475)" opacity="1"><g transform="scale(1.1582943246645359)"><path d="M1.1112,-1.6684 T2.3608,-0.8389 4.7349,1.4812 6.6332,4.5931 8.0548,8.3527 9.2614,13.0421 10.3425,18.573 11.3658,24.7513 12.151,31.1343 12.5905,37.4299 12.6204,43.3051 11.9667,48.4855 10.9283,52.5574 9.6342,55.6774 7.6625,58.3983 5.3567,60.786 4.2388,61.9173 A2.2205,2.2205 0 0 1 0.9412,58.9427 T1.9516,57.7145 4.201,54.6146 5.8441,51.2552 6.6838,47.7722 7.269,43.2661 7.3253,37.7349 7.0431,31.6847 6.4586,25.4832 5.6549,19.4053 4.822,14.0836 3.9494,9.8027 2.3959,5.6052 0.0893,2.4707 -1.1112,1.6684 A2.0046,2.0046 0 0 1 1.1112,-1.6684 Z" stroke-linecap="round" fill="#9398b0"/></g></g><g transform="matrix(1, 0, 0, 1, 1917.9845, 7548.6981) scale(0.863338426776475, 0.863338426776475)" opacity="1"><g transform="scale(1.1582943246645359)"><path d="M1.9156,-0.4796 T2.3669,1.1449 3.0953,4.5597 3.5131,7.9001 3.7314,11.0962 3.8149,15.2979 3.8116,19.2734 3.8025,20.6929 A2.0727,2.0727 0 0 1 -0.3425,20.7471 T-0.3887,19.3282 -0.5254,15.4083 -0.658,11.344 -0.7868,8.3381 -1.0275,5.3315 -1.5486,2.1235 -1.9156,0.4796 A1.9748,1.9748 0 0 1 1.9156,-0.4796 Z" stroke-linecap="round" fill="#9398b0"/></g></g><g transform="matrix(1, 0, 0, 1, 1924.8913, 7560.7848) scale(0.863338426776475, 0.863338426776475)" opacity="1"><g transform="scale(1.1582943246645359)"><path d="M0,1.9736 T-1.4285,2.0156 -4.2204,2.0923 -8.144,2.4574 -13.0695,2.8492 -15.4349,2.9105 A2.0532,2.0532 0 0 1 -15.6451,-1.1905 T-14.4189,-1.2829 -10.8849,-1.5511 -7.0842,-1.927 -4.2241,-2.0923 -1.4285,-2.0156 0,-1.9736 A1.9736,1.9736 0 0 1 0,1.9736 Z" stroke-linecap="round" fill="#9398b0"/></g></g><g transform="matrix(1, 0, 0, 1, 1954.2448, 7525.3879) scale(0.863338426776475, 0.863338426776475)" opacity="1"><g transform="scale(1.1582943246645359)"><path d="M1.9045,0.5455 T1.4956,1.9785 0.1943,5.1735 -1.7219,8.987 -3.4867,12.5319 -4.9626,15.965 -6.4382,20.8985 -7.5425,26.4466 -8.0815,31.5399 -8.3366,36.4396 -8.4581,40.2533 -8.1439,43.178 -6.9282,46.1271 -4.6663,48.1767 -3.2642,48.749 A2.4321,2.4321 0 0 1 -5.3758,53.131 T-6.3798,52.6847 -9.4053,50.4806 -12.1505,47.2429 -13.264,43.6416 -13.5673,40.0319 -13.3168,36.0956 -12.8658,30.9386 -12.0651,25.4755 -10.6271,19.5101 -8.8226,14.2195 -7.1708,10.6559 -5.3252,7.1172 -3.4872,3.6825 -2.3139,0.8784 -1.9045,-0.5455 A1.9811,1.9811 0 0 1 1.9045,0.5455 Z" stroke-linecap="round" fill="#9398b0"/></g></g><g transform="matrix(1, 0, 0, 1, 1968.0582, 7556.4681) scale(0.863338426776475, 0.863338426776475)" opacity="1"><g transform="scale(1.1582943246645359)"><path d="M-0.8368,-2.3043 T1.4149,-3.1075 5.3618,-4.3789 8.6922,-4.9007 11.5647,-4.4084 14.1808,-1.8627 15.0824,2.7366 13.8542,6.5694 11.9731,8.9599 9.8089,10.9152 6.8498,13.1423 4.1644,15.7156 3.4038,16.86 A2.5743,2.5743 0 0 1 -0.7751,13.8526 T0.4178,12.2826 3.6229,9.1659 7.1843,6.3057 9.7016,3.0585 9.4816,0.4942 6.8068,0.2552 3.0786,1.4756 0.8368,2.3043 A2.4515,2.4515 0 0 1 -0.8368,-2.3043 ZM2.9625,13.3788 T3.8506,14.1131 6.5887,15.0096 10.6952,14.8585 14.4293,14.3133 15.9069,14.0814 A2.3705,2.3705 0 0 1 16.8931,18.7186 T15.4491,19.1081 12.5721,19.8825 9.5553,20.4043 6.4394,20.3778 3.5452,19.8287 0.9245,18.3885 -0.3338,17.3338 A2.5743,2.5743 0 0 1 2.9625,13.3788 Z" stroke-linecap="round" fill="#9398b0"/></g></g><g transform="matrix(1, 0, 0, 1, 1985.3249, 7535.748) scale(0.863338426776475, 0.863338426776475)" opacity="1"><g transform="scale(1.1582943246645359)"><path d="M-0.2635,-2.381 T1.5792,-2.5758 4.8203,-2.6793 8.4695,-1.8491 11.8919,0.6867 12.6221,4.3835 10.2815,7.4974 7.0362,9.2128 5.5392,10.2135 5.3881,10.7128 A2.469,2.469 0 0 1 0.7323,9.067 T1.7534,7.5624 4.0157,5.4834 6.3717,3.7687 5.7075,2.2929 2.096,2.169 0.2635,2.381 A2.3955,2.3955 0 0 1 -0.2635,-2.381 ZM4.1606,7.6796 T5.4809,8.2996 8.1871,9.1478 12.4484,9.2415 15.3236,9.107 A2.1241,2.1241 0 0 1 15.7564,13.333 T14.1189,13.5914 10.7446,14.097 6.9197,13.9744 3.3957,12.8524 1.9598,12.1001 A2.469,2.469 0 0 1 4.1606,7.6796 Z" stroke-linecap="round" fill="#9398b0"/></g></g><g transform="matrix(1, 0, 0, 1, 2012.0884, 7550.4247) scale(0.863338426776475, 0.863338426776475)" opacity="1"><g transform="scale(1.1582943246645359)"><path d="M1.7823,-0.3818 T2.4376,2.4684 3.4609,7.4889 4.0259,11.2197 4.3092,14.2445 4.4886,17.2863 4.5817,18.8639 A1.9957,1.9957 0 0 1 0.5983,19.1161 T0.4916,17.5395 0.2919,14.596 0.0557,11.7424 -0.3652,8.187 -1.2126,3.2502 -1.7823,0.3818 A1.8227,1.8227 0 0 1 1.7823,-0.3818 Z" stroke-linecap="round" fill="#9398b0"/></g></g><g transform="matrix(1, 0, 0, 1, 2017.2685, 7560.7848) scale(0.863338426776475, 0.863338426776475)" opacity="1"><g transform="scale(1.1582943246645359)"><path d="M-0.2651,1.4555 T-2.5078,1.0243 -7.2508,0.1211 -9.7512,-0.3508 A1.4019,1.4019 0 0 1 -9.2488,-3.1092 T-6.7427,-2.6694 -1.9857,-1.8425 0.2651,-1.4555 A1.4794,1.4794 0 0 1 -0.2651,1.4555 Z" stroke-linecap="round" fill="#9398b0"/></g></g><g transform="matrix(1, 0, 0, 1, 2036.2619, 7545.2447) scale(0.863338426776475, 0.863338426776475)" opacity="1"><g transform="scale(1.1582943246645359)"><path d="M-0.4036,-2.0135 T1.6626,-2.4011 5.3404,-2.6062 8.1839,-1.9217 10.2984,-0.0722 11.5094,2.6175 11.9995,5.4996 11.5258,9.9194 10.4137,14.0875 8.7057,16.9294 5.5703,20.3311 2.6499,22.9142 1.6335,23.6495 A2.2035,2.2035 0 0 1 -0.8889,20.0357 T-0.0185,19.4539 2.4985,17.268 5.4683,13.5837 7.3886,9.4486 7.8902,6.112 7.5914,3.3045 5.9117,1.4654 2.4194,1.5828 0.4036,2.0135 A2.0535,2.0535 0 0 1 -0.4036,-2.0135 ZM2.5289,21.3907 T2.6647,21.9368 2.8004,22.483 A2.2451,2.2451 0 0 1 -1.5944,23.4039 T-1.6894,22.8492 -1.7844,22.2945 A2.2035,2.2035 0 0 1 2.5289,21.3907 ZM1.5871,20.9255 T2.8738,21.491 6.057,22.198 9.7269,22.3695 13.1391,22.3356 16.779,22.1678 18.7802,22.0639 A2.1166,2.1166 0 0 1 19.1998,26.2761 T17.2175,26.569 13.2986,27.1543 9.4477,27.3716 6.2525,27.1541 3.6688,26.7183 0.9924,25.6933 -0.3812,24.9614 A2.2451,2.2451 0 0 1 1.5871,20.9255 Z" stroke-linecap="round" fill="#9398b0"/></g></g><g transform="matrix(1, 0, 0, 1, 2062.1621, 7521.9346) scale(0.863338426776475, 0.863338426776475)" opacity="1"><g transform="scale(1.1582943246645359)"><path d="M1.7931,-0.7181 T2.1917,0.3078 3.4893,4.2197 4.8591,9.0051 5.8087,13.1441 7.1812,18.7308 8.7863,25.1233 10.1004,30.9996 11.0537,36.425 11.3998,41.3361 11.1919,45.9156 10.4205,50.1722 9.3497,53.5697 8.0662,56.3125 6.4189,58.7517 4.6868,60.9391 3.8213,62.0264 A2.631,2.631 0 0 1 -0.3613,58.8336 T0.4593,57.7121 2.4738,54.8293 4.1316,51.8158 5.0903,49.07 5.8455,45.5469 6.2097,41.5573 6.0887,37.1819 5.3746,31.9599 4.3058,26.1499 2.942,19.6657 1.7772,13.9941 1.0089,9.946 -0.1663,5.4207 -1.3735,1.7355 -1.7931,0.7181 A1.9316,1.9316 0 0 1 1.7931,-0.7181 Z" stroke-linecap="round" fill="#9398b0"/></g></g><g transform="matrix(1, 0, 0, 1, 2088.0622, 7546.108) scale(0.863338426776475, 0.863338426776475)" opacity="1"><g transform="scale(1.1582943246645359)"><path d="M1.4195,-1.1838 T2.4839,0.0301 4.2732,2.9646 5.3507,6.2057 5.8887,9.3787 6.1494,12.5023 6.226,16.4476 6.2272,18.9217 A1.9084,1.9084 0 0 1 2.4128,19.0583 T2.2384,16.6308 1.9817,12.8188 1.7858,9.9928 1.1053,6.1036 -0.4405,2.42 -1.4195,1.1838 A1.8484,1.8484 0 0 1 1.4195,-1.1838 Z" stroke-linecap="round" fill="#9398b0"/></g></g><g transform="matrix(1, 0, 0, 1, 2096.6956, 7555.6048) scale(0.863338426776475, 0.863338426776475)" opacity="1"><g transform="scale(1.1582943246645359)"><path d="M0,1.8005 T-1.6342,1.85 -5.6138,1.9424 -9.3429,1.922 -12.2683,1.8009 -13.81,1.7429 A1.7429,1.7429 0 0 1 -13.81,-1.7429 T-12.2683,-1.8009 -9.3429,-1.922 -5.6138,-1.9424 -1.6342,-1.85 0,-1.8005 A1.8005,1.8005 0 0 1 0,1.8005 Z" stroke-linecap="round" fill="#9398b0"/></g></g><g transform="matrix(1, 0, 0, 1, 2122.5958, 7521.0712) scale(0.863338426776475, 0.863338426776475)" opacity="1"><g transform="scale(1.1582943246645359)"><path d="M1.5814,0.7916 T0.5988,2.8522 -1.2771,6.9919 -3.0248,11.3675 -4.4969,16.0309 -5.629,21.0593 -6.3964,26.285 -6.7774,31.2215 -6.7714,35.548 -6.3751,39.1063 -5.6128,42.2524 -3.7471,45.3228 -1.4289,47.6621 -0.4764,48.473 A2.0302,2.0302 0 0 1 -2.9836,51.667 T-3.9975,50.9343 -6.1465,49.3148 -8.3511,46.8288 -10.0217,43.3269 -10.8969,39.5974 -11.2833,35.539 -11.2096,30.8335 -10.6814,25.6056 -9.7235,20.0703 -8.3628,14.7499 -6.6573,9.8463 -4.7,5.3667 -2.6422,1.2298 -1.5814,-0.7916 A1.7685,1.7685 0 0 1 1.5814,0.7916 Z" stroke-linecap="round" fill="#9398b0"/></g></g><g transform="matrix(1, 0, 0, 1, 2126.9124, 7536.6113) scale(0.863338426776475, 0.863338426776475)" opacity="1"><g transform="scale(1.1582943246645359)"><path d="M0,-2.2903 T1.4314,-2.2729 4.2196,-2.0315 7.5915,-0.6566 10.7973,2.9802 11.9691,6.8279 11.2373,10.0476 8.8726,13.3728 7.2207,14.8401 A2.3105,2.3105 0 0 1 4.3365,11.2298 T5.4042,10.4134 6.9697,8.043 6.712,4.8011 4.4039,2.6844 1.4255,2.2729 0,2.2903 A2.2903,2.2903 0 0 1 0,-2.2903 ZM7.6116,11.6284 T8.1837,12.3898 9.6958,14.1425 11.8449,16.3486 14.1468,19.255 15.3321,23.0813 13.8787,26.8369 10.6306,29.4174 6.57,30.5996 3.0075,30.2074 0.8761,29.04 -0.0511,28.487 A1.9526,1.9526 0 0 1 1.7711,25.033 T3.6955,25.8431 6.9374,26.0711 9.7179,24.6541 10.4842,22.3075 8.5722,19.5578 6.3031,17.2141 4.5975,15.275 3.9456,14.4416 A2.3105,2.3105 0 0 1 7.6116,11.6284 Z" stroke-linecap="round" fill="#9398b0"/></g></g><g transform="matrix(1, 0, 0, 1, 2140.7259, 7522.7979) scale(0.863338426776475, 0.863338426776475)" opacity="1"><g transform="scale(1.1582943246645359)"><path d="M-0.299,-2.4024 T1.3376,-2.5868 5.3419,-2.7316 9.4526,-1.9135 12.6457,1.0166 14.096,3.168 A2.4687,2.4687 0 0 1 9.451,4.8422 T9.3922,4.1669 8.15,2.7646 5.2646,1.9975 1.9308,2.18 0.299,2.4024 A2.4209,2.4209 0 0 1 -0.299,-2.4024 ZM13.8679,5.312 T13.1619,6.4281 10.7436,8.9702 8.1952,11.4117 7.3591,12.4273 A2.4224,2.4224 0 0 1 3.3002,9.7821 T4.1346,8.6229 6.6023,6.2529 8.9574,3.8701 9.6791,2.6982 A2.4687,2.4687 0 0 1 13.8679,5.312 ZM6.7644,9.1529 T7.819,9.8989 10.2919,11.2004 13.4117,12.5557 15.9192,13.9303 16.7251,14.5053 A2.2348,2.2348 0 0 1 14.3549,18.2947 T12.3821,17.4395 8.4639,15.814 5.2068,14.0501 3.8949,13.0565 A2.4224,2.4224 0 0 1 6.7644,9.1529 Z" stroke-linecap="round" fill="#9398b0"/></g></g><g transform="matrix(1, 0, 0, 1, 2159.7193, 7540.928) scale(0.863338426776475, 0.863338426776475)" opacity="1"><g transform="scale(1.1582943246645359)"><path d="M1.1664,-1.1664 T2.0159,-0.3486 3.4879,1.7612 4.5463,5.1465 4.8458,8.7467 4.5588,12.2661 4.3388,15.3727 4.2694,16.4667 A1.6807,1.6807 0 0 1 0.9106,16.3333 T0.9281,15.2373 1.0211,12.002 1.1532,7.953 0.804,4.4189 -0.3841,1.9804 -1.1664,1.1664 A1.6495,1.6495 0 0 1 1.1664,-1.1664 Z" stroke-linecap="round" fill="#9398b0"/></g></g><g transform="matrix(1, 0, 0, 1, 2167.4894, 7549.5614) scale(0.863338426776475, 0.863338426776475)" opacity="1"><g transform="scale(1.1582943246645359)"><path d="M0.2391,1.6795 T-1.1886,1.9232 -3.9742,2.1049 -6.7196,2.0077 -9.4075,1.6883 -11.9954,1.1125 -13.2829,0.821 A1.7136,1.7136 0 0 1 -12.6171,-2.541 T-10.2923,-2.1438 -5.5326,-1.55 -1.6684,-1.5165 -0.2391,-1.6795 A1.6965,1.6965 0 0 1 0.2391,1.6795 Z" stroke-linecap="round" fill="#9398b0"/></g></g><g transform="matrix(1, 0, 0, 1, 2172.6694, 7536.6113) scale(0.863338426776475, 0.863338426776475)" opacity="1"><g transform="scale(1.1582943246645359)"><path d="M0.1399,-1.8246 T2.7998,-1.6282 7.2928,-0.8717 10.2712,0.5294 12.2484,4.0673 12.6627,8.319 11.162,12.3079 9.0045,15.9816 7.0177,18.1953 5.12,19.9769 2.4651,21.8197 0.7037,23.0408 0.6121,23.2268 A2.1504,2.1504 0 0 1 -2.2814,20.0448 T-1.0625,19.3635 1.6328,17.4966 4.0071,15.3822 6.2971,12.5815 8.4598,8.75 8.5678,4.9905 6.5297,2.7179 2.5072,2.0349 -0.1399,1.8246 A1.8299,1.8299 0 0 1 0.1399,-1.8246 ZM1.0948,20.6863 T1.2774,21.163 3.4882,22.2301 7.6643,23.3264 12.1735,24.0327 16.5887,23.9823 18.6426,23.7315 A2.1961,2.1961 0 0 1 19.3374,28.0685 T18.145,28.3101 15.6438,28.7891 13.0041,28.9938 10.3169,28.8552 7.5566,28.4693 3.9512,27.3263 0.1055,25.6636 -2.1514,23.7246 -2.7641,22.5853 A2.1504,2.1504 0 0 1 1.0948,20.6863 Z" stroke-linecap="round" fill="#9398b0"/></g></g><g transform="matrix(1, 0, 0, 1, 2194.2528, 7519.3446) scale(0.863338426776475, 0.863338426776475)" opacity="1"><g transform="scale(1.1582943246645359)"><path d="M0.9978,-1.4981 T2.2163,-0.6516 4.4694,1.4113 6.2731,4.1703 7.4957,7.8687 8.3916,12.2709 9.1039,17.216 9.5383,22.7593 9.8103,28.5331 9.9877,34.0232 10.1127,38.9569 10.1938,43.603 10.0274,47.826 9.4876,51.2732 8.6738,54.0456 7.0819,56.4868 5.0041,58.4863 4.052,59.3191 A2.0797,2.0797 0 0 1 1.128,56.3609 T2.4583,54.9918 4.3302,51.424 5.0778,47.5581 5.293,43.6263 5.3263,39.0003 5.3607,34.0946 5.366,28.6597 5.3117,23.0014 5.1268,17.7031 4.6639,12.9182 4.1017,8.9276 2.6661,5.1302 0.2339,2.2834 -0.9978,1.4981 A1.8,1.8 0 0 1 0.9978,-1.4981 Z" stroke-linecap="round" fill="#9398b0"/></g></g><g transform="matrix(1, 0, 0, 1, 2229.721, 7536.4247) scale(0.9800111002484606, 0.9800111002484606)" opacity="1"><g transform="scale(1.0203966054532154)"><path d="M2.0383,-0.2265 T2.3091,1.8552 2.7385,6.0147 2.9639,9.8818 3.0555,13.0772 3.0368,15.9264 2.9561,18.9626 2.9187,20.5558 A1.9389,1.9389 0 0 1 -0.9587,20.6042 T-1.0359,19.0125 -1.2354,14.6259 -1.4195,10.0938 -1.5671,6.3817 -1.8456,2.3167 -2.0383,0.2265 A2.0509,2.0509 0 0 1 2.0383,-0.2265 Z" stroke-linecap="round" fill="#9398b0"/></g></g><g transform="matrix(1, 0, 0, 1, 2233.6411, 7543.2848) scale(0.9800111002484606, 0.9800111002484606)" opacity="1"><g transform="scale(1.0203966054532154)"><path d="M0.2723,1.9062 T-1.3444,2.178 -5.341,2.8095 -9.0204,3.4646 -10.3198,3.76 A1.8579,1.8579 0 0 1 -11.2402,0.16 T-9.9583,-0.2045 -6.1024,-1.0458 -1.9004,-1.7144 -0.2723,-1.9062 A1.9256,1.9256 0 0 1 0.2723,1.9062 Z" stroke-linecap="round" fill="#9398b0"/></g></g><g transform="matrix(1, 0, 0, 1, 2248.3413, 7559.945) scale(0.9800111002484606, 0.9800111002484606)" opacity="1"><g transform="scale(1.0203966054532154)"><path d="M0,-1.5707 T1.96,-1.6476 3.92,-1.7245 A1.7245,1.7245 0 0 1 3.92,1.7245 T1.96,1.6476 0,1.5707 A1.5707,1.5707 0 0 1 0,-1.5707 Z" stroke-linecap="round" fill="#9398b0"/></g></g><g transform="matrix(1, 0, 0, 1, 2275.7816, 7555.0449) scale(0.9800111002484606, 0.9800111002484606)" opacity="1"><g transform="scale(1.0203966054532154)"><path d="M0.2267,-1.2469 T2.7735,-0.7684 8.1588,0.2373 10.9973,0.7646 A1.215,1.215 0 0 1 10.5627,3.1554 T7.7202,2.6497 2.3255,1.6955 -0.2267,1.2469 A1.2673,1.2673 0 0 1 0.2267,-1.2469 Z" stroke-linecap="round" fill="#9398b0"/></g></g><g transform="matrix(1, 0, 0, 1, 2301.2618, 7557.985) scale(0.9800111002484606, 0.9800111002484606)" opacity="1"><g transform="scale(1.0203966054532154)"><path d="M0.3917,-1.3709 T3.8299,-0.4197 7.2681,0.5315 A1.4857,1.4857 0 0 1 6.4519,3.3885 T3.0301,2.3797 -0.3917,1.3709 A1.4257,1.4257 0 0 1 0.3917,-1.3709 Z" stroke-linecap="round" fill="#9398b0"/></g></g><g transform="matrix(1, 0, 0, 1, 2332.6222, 7529.5646) scale(0.9800111002484606, 0.9800111002484606)" opacity="1"><g transform="scale(1.0203966054532154)"><path d="M1.9667,-0.8429 T2.7118,0.7632 3.9214,4.3568 4.6112,8.0738 4.9535,11.4202 5.0999,14.8262 5.1659,18.5629 5.2025,20.5106 A2.2636,2.2636 0 0 1 0.6775,20.6494 T0.5946,18.7032 0.4338,15.0511 0.2694,11.8489 0.022,8.813 -0.4073,5.6969 -1.3212,2.4816 -1.9667,0.8429 A2.1397,2.1397 0 0 1 1.9667,-0.8429 Z" stroke-linecap="round" fill="#9398b0"/></g></g><g transform="matrix(1, 0, 0, 1, 2339.4823, 7537.4047) scale(0.9800111002484606, 0.9800111002484606)" opacity="1"><g transform="scale(1.0203966054532154)"><path d="M0,2.3982 T-1.8542,2.4202 -5.149,2.4138 -8.1948,2.3592 -9.8,2.3329 A2.3329,2.3329 0 0 1 -9.8,-2.3329 T-8.1948,-2.3592 -5.149,-2.4138 -1.8542,-2.4202 0,-2.3982 A2.3982,2.3982 0 0 1 0,2.3982 Z" stroke-linecap="round" fill="#9398b0"/></g></g><g transform="matrix(1, 0, 0, 1, 2370.8426, 7515.8445) scale(0.9800111002484606, 0.9800111002484606)" opacity="1"><g transform="scale(1.0203966054532154)"><path d="M2.1568,0.9586 T1.2632,3.0585 -0.2634,7.3057 -1.4477,11.7472 -2.5013,16.6177 -3.2428,21.8376 -3.6037,27.2655 -3.5602,32.3185 -3.0921,36.4301 -2.4483,39.643 -0.7734,42.5445 0.5605,44.0761 A2.5117,2.5117 0 0 1 -2.5205,48.0439 T-3.3286,47.4846 -5.8166,44.6824 -7.947,40.7992 -8.7171,37.0491 -9.1727,32.3462 -9.1229,26.8305 -8.5923,20.9998 -7.6419,15.4111 -6.3648,10.3269 -4.8856,5.5543 -3.1173,1.1134 -2.1568,-0.9586 A2.3602,2.3602 0 0 1 2.1568,0.9586 Z" stroke-linecap="round" fill="#9398b0"/></g></g><g transform="matrix(1, 0, 0, 1, 2387.5028, 7534.4647) scale(0.9800111002484606, 0.9800111002484606)" opacity="1"><g transform="scale(1.0203966054532154)"><path d="M2.5835,-0.3691 T2.8307,1.2513 3.2292,4.5033 3.4722,7.9339 3.6161,11.3687 3.6944,14.5635 3.7387,17.8452 3.7568,19.5679 A2.777,2.777 0 0 1 -1.7968,19.6321 T-1.8185,17.9095 -1.8498,14.6537 -1.8751,11.5274 -1.9279,8.2451 -2.0579,5.0869 -2.3672,1.9935 -2.5835,0.3691 A2.6097,2.6097 0 0 1 2.5835,-0.3691 ZM-1.797,19.6092 T-1.7922,18.7063 -1.1025,15.0893 0.0658,11.0516 1.3213,8.0795 3.0443,4.9937 5.9648,1.7983 10.4251,0.6404 13.7575,3.6761 14.7622,8.8556 14.6807,14.1222 14.1652,17.8482 13.8942,19.0515 A2.1774,2.1774 0 0 1 9.6258,18.1885 T10.0136,16.1276 10.3484,11.5894 9.7262,6.7739 7.8873,6.4236 5.6675,11.0266 4.2264,15.753 3.7463,18.7275 3.757,19.5908 A2.777,2.777 0 0 1 -1.797,19.6092 Z" stroke-linecap="round" fill="#9398b0"/></g></g><g transform="matrix(1, 0, 0, 1, 2403.183, 7509.9644) scale(0.9800111002484606, 0.9800111002484606)" opacity="1"><g transform="scale(1.0203966054532154)"><path d="M0,-2.677 T1.3934,-2.6623 4.427,-2.3906 7.2789,-1.7107 8.4905,-1.2878 A2.6132,2.6132 0 0 1 6.7223,3.6305 T4.749,3.1391 1.3879,2.6623 0,2.677 A2.677,2.677 0 0 1 0,-2.677 ZM10.112,0.4292 T10.1618,0.6173 10.2115,0.8055 A2.6017,2.6017 0 0 1 5.2223,2.2833 T5.1615,2.0984 5.1008,1.9135 A2.6132,2.6132 0 0 1 10.112,0.4292 ZM10.1151,2.5531 T9.8692,3.1153 9.5827,5.7056 9.168,9.6502 7.8786,13.4565 5.2304,16.464 3.4976,17.5818 A2.683,2.683 0 0 1 1.0656,12.7986 T1.838,12.6426 3.2183,10.7256 4.0596,7.324 4.4329,4.0188 4.9457,1.445 5.3186,0.5357 A2.6017,2.6017 0 0 1 10.1151,2.5531 ZM2.9377,12.5886 T3.4685,12.7283 5.67,13.2605 9.3625,14.0255 13.3451,14.6359 17.0231,15.0229 18.74,15.172 A2.4709,2.4709 0 0 1 18.5,20.108 T16.7767,20.0897 12.4655,19.8742 8.1735,19.362 4.9192,18.6335 2.4973,18.0058 1.6254,17.7917 A2.683,2.683 0 0 1 2.9377,12.5886 Z" stroke-linecap="round" fill="#9398b0"/></g></g><g transform="matrix(1, 0, 0, 1, 2440.4234, 7530.5446) scale(0.9800111002484606, 0.9800111002484606)" opacity="1"><g transform="scale(1.0203966054532154)"><path d="M2.1895,-0.3128 T2.7504,2.9182 3.6163,8.8404 4.084,13.893 4.2764,18.1979 4.3479,22.2777 4.3896,24.414 A2.4312,2.4312 0 0 1 -0.4696,24.586 T-0.5791,22.4522 -0.7945,18.4293 -0.9952,14.2681 -1.2736,9.4129 -1.8234,3.5714 -2.1895,0.3128 A2.2117,2.2117 0 0 1 2.1895,-0.3128 Z" stroke-linecap="round" fill="#9398b0"/></g></g><g transform="matrix(1, 0, 0, 1, 2446.3035, 7543.2848) scale(0.9800111002484606, 0.9800111002484606)" opacity="1"><g transform="scale(1.0203966054532154)"><path d="M-0.9499,2.2164 T-2.5869,1.5634 -6.7591,0.4886 -10.7823,-0.0643 -14.0528,-0.3459 -15.8352,-0.4966 A2.4483,2.4483 0 0 1 -15.5248,-5.3834 T-13.7376,-5.3073 -8.8533,-4.9252 -4.0109,-4.1554 -0.6578,-2.954 0.9499,-2.2164 A2.4114,2.4114 0 0 1 -0.9499,2.2164 Z" stroke-linecap="round" fill="#9398b0"/></g></g><g transform="matrix(1, 0, 0, 1, 2461.0037, 7525.6446) scale(0.9800111002484606, 0.9800111002484606)" opacity="1"><g transform="scale(1.0203966054532154)"><path d="M2.3173,-2.6745 T4.1772,-1.756 7.6389,0.197 10.5797,2.2793 13.0826,4.8337 14.9132,8.0742 15.6696,11.6897 15.2223,15.4603 13.8336,18.8601 11.6847,21.7444 9.2059,24.0495 6.3979,25.9602 3.415,27.6884 2.0585,28.4374 A2.8887,2.8887 0 0 1 -0.7305,23.3778 T0.5192,22.6901 3.9476,20.4993 7.5198,17.2346 9.3579,13.5891 8.9571,9.8781 7.0052,7.1681 4.6191,5.4155 1.4911,3.6102 -0.3573,2.6745 A2.9902,2.9902 0 0 1 2.3173,-2.6745 ZM1.8776,23.2862 T2.8323,23.6917 6.0491,24.1961 10.9554,24.3497 15.3116,24.3043 19.1392,24.0539 21.255,23.904 A2.5741,2.5741 0 0 1 21.865,29.016 T19.7734,29.3682 14.2182,30.0741 8.1724,30.3502 3.4287,29.8578 0.3588,28.9859 -0.5496,28.529 A2.8887,2.8887 0 0 1 1.8776,23.2862 Z" stroke-linecap="round" fill="#9398b0"/></g></g><g transform="matrix(1, 0, 0, 1, 2485.5039, 7508.9844) scale(0.9800111002484606, 0.9800111002484606)" opacity="1"><g transform="scale(1.0203966054532154)"><path d="M0.4953,-1.981 T2.3889,-1.5267 5.9198,0.0911 9.0334,4.6842 11.2198,11.759 12.3249,19.4153 12.7231,27.4682 12.2718,35.5843 11.1071,43.2355 9.5363,49.7022 7.4177,54.9899 5.0425,59.2546 2.7018,62.4875 0.3811,64.9241 -1.8921,67.1587 -3.0684,68.3227 A2.4872,2.4872 0 0 1 -6.7316,64.9573 T-5.6714,63.6868 -2.8747,60.281 -0.125,56.3628 1.9135,52.6911 3.7719,48.1964 5.3498,42.258 6.6416,35.1659 7.3332,27.6203 7.2614,20.0279 6.5951,12.9494 4.6397,6.3019 1.3195,2.4538 -0.4953,1.981 A2.042,2.042 0 0 1 0.4953,-1.981 Z" stroke-linecap="round" fill="#9398b0"/></g></g><g transform="matrix(1, 0, 0, 1, 1531.6376, 7765.3853) scale(1.3128891382057695, 1.3128891382057695)" opacity="1"><g transform="scale(0.7616789345722119)"><path d="M-0.8776,4.3883 T-3.0475,3.7615 -7.1088,2.8626 -11.4189,2.1205 -16.3491,1.1147 -21.817,0.3517 -28.0819,-0.3266 -35.1241,-0.9903 -42.8479,-1.6315 -50.3654,-2.2707 -57.4557,-2.9212 -63.9902,-3.592 -70.365,-3.9679 -75.9881,-3.8978 -81.3565,-3.5018 -86.2231,-2.834 -87.9412,-2.3474 A3.3793,3.3793 0 0 1 -89.3114,-8.9657 T-87.0982,-9.5364 -81.8943,-10.3261 -76.219,-10.8275 -69.983,-11.0135 -63.279,-10.6905 -56.7806,-10.0352 -49.7403,-9.354 -42.2292,-8.6511 -34.405,-7.9215 -27.2654,-7.1598 -20.756,-6.3091 -14.9445,-5.3466 -10.2563,-4.2537 -5.7393,-3.3742 -1.2994,-2.3808 0.8776,-1.7683 A3.2009,3.2009 0 0 1 -0.8776,4.3883 ZM-85.2582,-5.9322 T-85.2978,-5.5651 -83.8397,-3.3103 -80.535,0.0582 -75.279,4.0922 -69.8549,8.0354 -65.5512,11.1162 -60.6411,15.0322 -55.7878,19.3485 -51.5046,23.0598 -47.3781,26.5727 -43.5383,30.0737 -39.2762,33.6616 -34.7304,37.8053 -32.0251,43.0147 -33.0251,49.048 -36.7503,54.8595 -40.4361,59.6406 -43.8859,63.5478 -47.8632,67.7684 -52.0321,72.3725 -56.3988,77.2848 -61.2796,82.4588 -65.9395,87.5632 -70.175,92.6345 -74.4523,97.359 -78.2389,101.3695 -81.2759,105.1063 -83.7629,108.5518 -86.3445,112.6375 -84.3556,115.7866 -78.1695,116.4164 -72.7907,116.1223 -66.2001,115.648 -58.463,115.3899 -50.8518,114.9619 -43.1139,114.4465 -35.5679,114.5057 -29.4172,115.233 -24.4023,116.8139 -20.6412,119.4225 -19.2868,120.9425 A3.9101,3.9101 0 0 1 -25.3532,125.8775 T-26.8524,124.9215 -30.4648,123.6099 -35.6428,123.0654 -42.5208,123.0718 -50.3683,123.6318 -58.1947,124.0688 -65.6059,124.2762 -72.4388,124.6852 -78.3954,124.8825 -83.4092,124.688 -89.4794,123.6377 -94.5028,121.1297 -95.9504,117.4021 -95.6145,113.4215 -93.2483,108.6349 -90.2561,103.9051 -87.4917,100.0687 -84.1002,95.8848 -80.4096,91.9381 -76.3863,87.4513 -71.9348,82.1074 -67.1835,76.8818 -62.4546,71.8872 -58.0106,66.9283 -53.7092,62.2257 -49.8622,58.2108 -46.7135,54.739 -44.0502,51.3788 -41.4425,46.4226 -41.9313,41.5623 -45.4768,38.6749 -48.8138,35.8374 -52.4433,32.5091 -56.6023,28.951 -60.9774,25.1417 -65.4811,21.0843 -70.078,17.3592 -74.3899,14.1891 -78.4672,11.1221 -83.1829,7.2099 -87.5328,2.9015 -90.4071,-0.7375 -91.8026,-3.8886 -91.9943,-5.3809 A3.3793,3.3793 0 0 1 -85.2582,-5.9322 Z" stroke-linecap="round" fill="#9398b0"/></g></g><g transform="matrix(1, 0, 0, 1, 1443.6741, 7922.932) scale(1.3128891382057695, 1.3128891382057695)" opacity="1"><g transform="scale(0.7616789345722119)"><path d="M1.6048,1.1686 T0.9764,2.7175 -0.5367,7.1204 -1.647,12.7016 -1.2752,17.2823 1.7109,18.1039 4.0997,17.072 A2.8596,2.8596 0 0 1 6.4003,22.308 T5.0335,22.9721 1.7504,24.3424 -2.1537,24.6848 -5.796,22.759 -7.831,18.1043 -7.8963,11.8816 -6.5185,5.3455 -4.8404,0.3854 -4.2248,-1.1686 A3.1403,3.1403 0 0 1 1.6048,1.1686 Z" stroke-linecap="round" fill="#9398b0"/></g></g><g transform="matrix(1, 0, 0, 1, 1446.2999, 7901.9258) scale(1.3128891382057695, 1.3128891382057695)" opacity="1"><g transform="scale(0.7616789345722119)"><path d="M 0 0 m -3.278292208956083, 0 a 3.278292208956083,3.278292208956083 0 1,1 6.556584417912166,0 a 3.278292208956083,3.278292208956083 0 1,1 -6.556584417912166,0" stroke-linecap="round" fill="#9398b0"/></g></g><g transform="matrix(1, 0, 0, 1, 1467.3061, 7928.1836) scale(1.3128891382057695, 1.3128891382057695)" opacity="1"><g transform="scale(0.7616789345722119)"><path d="M0,-1.8685 T2.7954,-1.9674 7.3739,-2.0845 11.3381,-2.0577 15.9497,-1.973 18.38,-1.9332 A1.9332,1.9332 0 0 1 18.38,1.9332 T15.9497,1.973 11.3381,2.0577 7.3739,2.0845 2.7954,1.9674 0,1.8685 A1.8685,1.8685 0 0 1 0,-1.8685 Z" stroke-linecap="round" fill="#9398b0"/></g></g><g transform="matrix(1, 0, 0, 1, 1471.2447, 7934.748) scale(1.3128891382057695, 1.3128891382057695)" opacity="1"><g transform="scale(0.7616789345722119)"><path d="M1.4215,-1.8941 T2.7126,-1.0504 6.2701,-0.3205 9.8145,-0.7848 11.0925,-1.1355 A2.5515,2.5515 0 0 1 12.5475,3.7555 T9.852,4.5788 4.0596,4.6681 -0.2293,2.914 -1.4215,1.8941 A2.3682,2.3682 0 0 1 1.4215,-1.8941 Z" stroke-linecap="round" fill="#9398b0"/></g></g><g transform="matrix(1, 0, 0, 1, 1498.8154, 7930.8094) scale(1.3128891382057695, 1.3128891382057695)" opacity="1"><g transform="scale(0.7616789345722119)"><path d="M0,-2.3535 T2.4833,-2.42 6.8895,-2.5248 11.982,-3.0215 17.3161,-3.6388 19.4808,-3.7975 A2.4963,2.4963 0 0 1 19.8992,1.1775 T17.7385,1.3826 12.2104,2.0754 6.9048,2.5248 2.4833,2.42 0,2.3535 A2.3535,2.3535 0 0 1 0,-2.3535 Z" stroke-linecap="round" fill="#9398b0"/></g></g><g transform="matrix(1, 0, 0, 1, 1521.1345, 7915.0547) scale(1.3128891382057695, 1.3128891382057695)" opacity="1"><g transform="scale(0.7616789345722119)"><path d="M0,-2.4966 T3.1068,-2.4721 8.6374,-2.1246 12.7664,-1.2852 16.8351,1.2252 19.8635,6.0107 19.9533,12.0336 17.3593,18.4429 14.0127,23.1507 11.2433,25.9126 7.918,28.3852 5.3606,30.2142 4.6868,30.8027 A2.639,2.639 0 0 1 1.2818,26.77 T3.0669,25.4043 6.8185,22.6569 10.0198,19.8592 12.9744,15.8004 15.1039,11.3151 15.0931,7.1203 12.5284,3.9044 8.2958,2.7442 3.1037,2.4721 0,2.4966 A2.4966,2.4966 0 0 1 0,-2.4966 ZM5.4744,27.9125 T5.6548,28.455 8.0981,29.17 13.7238,29.4783 20.0754,29.6967 26.6406,29.9244 30.217,30.0698 A2.7503,2.7503 0 0 1 30.183,35.5702 T26.5827,35.6713 19.9144,35.7397 13.2297,35.4284 7.1435,34.665 2.8558,32.666 0.7658,30.4059 0.4941,29.6601 A2.639,2.639 0 0 1 5.4744,27.9125 Z" stroke-linecap="round" fill="#9398b0"/></g></g><g transform="matrix(1, 0, 0, 1, 1473.8705, 7711.5569) scale(1.3128891382057695, 1.3128891382057695)" opacity="1"><g transform="scale(0.7616789345722119)"><path d="M0,-3.2432 T1.8636,-3.2497 5.6466,-3.2678 9.499,-2.9523 14.7129,-1.4604 19.3588,1.105 21.3947,4.6913 21.6016,8.8003 20.0933,12.2604 17.7238,15.0027 13.7301,17.8747 9.8496,21.2069 8.6378,22.8726 A3.3269,3.3269 0 0 1 3.4776,18.6721 T5.5421,16.3129 9.7918,12.5503 13.7796,9.4842 14.1671,6.2825 10.1482,4.0115 5.6358,3.2678 1.8636,3.2497 0,3.2432 A3.2432,3.2432 0 0 1 0,-3.2432 ZM7.6529,17.8529 T9.1119,18.6282 12.8567,19.6505 18.5167,19.6104 23.9675,19.0668 28.5356,18.4805 31.0271,18.1507 A2.8998,2.8998 0 0 1 31.9929,23.8693 T29.5314,24.3761 22.9543,25.5508 16.7069,26.4795 11.2395,26.1782 6.1833,24.6539 4.4625,23.6918 A3.3269,3.3269 0 0 1 7.6529,17.8529 Z" stroke-linecap="round" fill="#9398b0"/></g></g><g transform="matrix(1, 0, 0, 1, 1586.779, 7837.5942) scale(1.3128891382057695, 1.3128891382057695)" opacity="1"><g transform="scale(0.7616789345722119)"><path d="M0.8358,2.1491 T-0.7242,3.6924 -4.0481,8.0144 -6.8589,13.6752 -7.9456,18.4952 -6.1722,21.1029 -2.7354,21.9345 -1.1115,22.0963 A2.8506,2.8506 0 0 1 -1.5085,27.7837 T-3.1391,27.7183 -8.319,26.2631 -12.8799,23.36 -13.8863,18.4845 -12.5188,11.5276 -10.1049,6.0302 -7.8022,2.5487 -5.0034,-0.5895 -3.4558,-2.1491 A3.037,3.037 0 0 1 0.8358,2.1491 Z" stroke-linecap="round" fill="#9398b0"/></g></g><g transform="matrix(1, 0, 0, 1, 1588.0919, 7813.9622) scale(1.3128891382057695, 1.3128891382057695)" opacity="1"><g transform="scale(0.7616789345722119)"><path d="M-1.8367,-0.6107 T-1.245,-2.6017 -0.6532,-4.5928 A2.0689,2.0689 0 0 1 3.2732,-3.2872 T2.555,-1.3383 1.8367,0.6107 A1.9356,1.9356 0 0 1 -1.8367,-0.6107 Z" stroke-linecap="round" fill="#9398b0"/></g></g><g transform="matrix(1, 0, 0, 1, 1653.7363, 7836.2813) scale(1.3128891382057695, 1.3128891382057695)" opacity="1"><g transform="scale(0.7616789345722119)"><path d="M0.5824,-2.3253 T3.097,-1.8298 7.4521,-1.0862 11.8368,-0.8602 16.2054,-1.0777 18.0298,-1.2733 A2.6069,2.6069 0 0 1 18.7302,3.8933 T16.9196,4.1905 11.736,4.5625 6.3422,4.2298 1.8695,3.0738 -0.5824,2.3253 A2.3972,2.3972 0 0 1 0.5824,-2.3253 Z" stroke-linecap="round" fill="#9398b0"/></g></g><g transform="matrix(1, 0, 0, 1, 1657.675, 7853.3489) scale(1.3128891382057695, 1.3128891382057695)" opacity="1"><g transform="scale(0.7616789345722119)"><path d="M2.0334,-2.0334 T2.9801,-1.1681 6.3205,-0.4432 10.4698,-1.0976 12.2253,-1.6115 A3.0584,3.0584 0 0 1 14.0347,4.2315 T12.2961,4.7997 8.2984,5.9134 2.92,5.2445 -1.1165,3.0317 -2.0334,2.0334 A2.8757,2.8757 0 0 1 2.0334,-2.0334 Z" stroke-linecap="round" fill="#9398b0"/></g></g><g transform="matrix(1, 0, 0, 1, 1718.0679, 7845.4716) scale(1.3128891382057695, 1.3128891382057695)" opacity="1"><g transform="scale(0.7616789345722119)"><path d="M1.7829,-2.2278 T3.3819,-1.0639 7.251,0.7254 12.0521,1.278 17.3574,0.4527 20.1318,-0.2998 A3.0586,3.0586 0 0 1 21.8882,5.5598 T18.7007,6.5943 13.6212,7.8502 8.2053,7.374 2.9532,5.7714 -0.279,3.5471 -1.7829,2.2278 A2.8534,2.8534 0 0 1 1.7829,-2.2278 Z" stroke-linecap="round" fill="#9398b0"/></g></g><g transform="matrix(1, 0, 0, 1, 1766.6448, 7829.7169) scale(1.3128891382057695, 1.3128891382057695)" opacity="1"><g transform="scale(0.7616789345722119)"><path d="M0,-3.0725 T3.1433,-3.0681 10.018,-1.7664 16.0762,0.9609 19.9078,4.4308 22.1365,8.2847 22.9386,12.3774 22.3072,17.2517 20.0871,22.0547 17.1946,25.877 14.0154,29.0656 10.6171,31.7846 8.2288,33.8268 7.4419,34.7238 A3.0831,3.0831 0 0 1 1.6026,32.7431 T2.2863,31.3846 5.5249,28.0069 9.5041,24.6927 13.1403,20.6374 16.0229,15.0644 15.716,9.9662 13.0808,6.5582 8.7788,4.2497 3.0672,3.0681 0,3.0725 A3.0725,3.0725 0 0 1 0,-3.0725 ZM7.0796,32.0116 T7.4662,32.6303 11.161,34.0643 18.041,35.5211 25.7539,36.645 32.7492,37.4075 35.6034,37.6875 A3.0164,3.0164 0 0 1 35.2966,43.7125 T32.4287,43.701 26.8468,43.7018 22.0035,43.4264 18.1328,42.6542 14.3183,41.7423 10.5739,40.6633 6.011,38.5465 2.5422,36.2682 1.9648,35.4553 A3.0831,3.0831 0 0 1 7.0796,32.0116 Z" stroke-linecap="round" fill="#9398b0"/></g></g><g transform="matrix(1, 0, 0, 1, 1845.4182, 7831.0298) scale(1.3128891382057695, 1.3128891382057695)" opacity="1"><g transform="scale(0.7616789345722119)"><path d="M2.4955,-0.4149 T2.8879,1.4354 3.5326,5.2995 3.8726,11.5154 4.2435,18.691 4.877,25.1224 5.2275,28.5803 A2.6148,2.6148 0 0 1 0.0325,29.1797 T-0.4137,25.7329 -1.2919,19.0625 -1.8082,11.8179 -1.9668,5.9829 -2.2683,2.2919 -2.4955,0.4149 A2.5298,2.5298 0 0 1 2.4955,-0.4149 Z" stroke-linecap="round" fill="#9398b0"/></g></g><g transform="matrix(1, 0, 0, 1, 1854.6084, 7846.7845) scale(1.3128891382057695, 1.3128891382057695)" opacity="1"><g transform="scale(0.7616789345722119)"><path d="M0.2954,3.2563 T-3.1141,3.6275 -8.9828,4.19 -13.705,4.4522 -18.0577,4.2121 -22.1302,3.5786 -24.1129,3.2563 A3.2919,3.2919 0 0 1 -23.1471,-3.2563 T-19.6793,-2.7715 -14.0583,-2.3878 -9.5209,-2.6242 -3.716,-3.0079 -0.2954,-3.2563 A3.2696,3.2696 0 0 1 0.2954,3.2563 Z" stroke-linecap="round" fill="#9398b0"/></g></g><g transform="matrix(1, 0, 0, 1, 1904.4982, 7803.4591) scale(1.3128891382057695, 1.3128891382057695)" opacity="1"><g transform="scale(0.7616789345722119)"><path d="M2.3077,1.6152 T0.2046,4.7686 -3.5153,11.012 -6.1951,17.4308 -8.1174,24.6519 -9.4003,32.3644 -10.059,40.0499 -10.1264,47.6729 -9.581,54.951 -8.7296,61.1931 -7.2328,66.6336 -4.0332,71.744 -1.8565,74.1357 A2.898,2.898 0 0 1 -6.0235,78.1643 T-7.4971,76.7892 -10.6302,73.6889 -13.6808,68.5773 -15.6428,62.216 -16.6335,55.4879 -17.2231,47.5878 -17.0924,39.3699 -16.1997,31.1329 -14.5387,22.7772 -12.0507,14.8291 -8.7132,7.7847 -4.5515,1.4418 -2.3077,-1.6152 A2.8168,2.8168 0 0 1 2.3077,1.6152 Z" stroke-linecap="round" fill="#9398b0"/></g></g><g transform="matrix(1, 0, 0, 1, 1908.4368, 7840.22) scale(1.3128891382057695, 1.3128891382057695)" opacity="1"><g transform="scale(0.7616789345722119)"><path d="M1.0096,-2.0193 T2.9198,-1.1819 7.4564,-0.1022 11.8512,-0.1207 15.7959,-0.705 17.9723,-1.0285 A2.3738,2.3738 0 0 1 18.7877,3.6485 T16.6301,4.0805 12.3509,4.9299 6.4269,4.7095 0.8075,3.0455 -1.0096,2.0193 A2.2576,2.2576 0 0 1 1.0096,-2.0193 Z" stroke-linecap="round" fill="#9398b0"/></g></g><g transform="matrix(1, 0, 0, 1, 1953.0751, 7823.1524) scale(1.3128891382057695, 1.3128891382057695)" opacity="1"><g transform="scale(0.7616789345722119)"><path d="M2.8972,0.413 T2.5889,2.5868 1.8235,7.2325 1.1805,12.0661 0.5898,17.3864 -0.0217,22.9933 -0.3475,27.9725 -0.555,32.4025 0.402,37.0467 1.4474,39.5918 A2.9718,2.9718 0 0 1 -4.0674,41.8082 T-4.768,40.1966 -6.2085,36.5563 -6.9074,32.2507 -6.7402,27.5379 -6.3547,22.2407 -5.6168,16.596 -4.8227,11.1749 -4.0136,6.2353 -3.2085,1.7601 -2.8972,-0.413 A2.9265,2.9265 0 0 1 2.8972,0.413 Z" stroke-linecap="round" fill="#9398b0"/></g></g><g transform="matrix(1, 0, 0, 1, 1968.8297, 7794.2689) scale(1.3128891382057695, 1.3128891382057695)" opacity="1"><g transform="scale(0.7616789345722119)"><path d="M2.5015,-1.1768 T5.0553,4.0712 9.0712,13.8267 11.3212,21.6573 12.8909,29.5553 14.1255,38.7839 14.5278,48.5 13.8248,58.8222 12.2032,69.0484 10.071,78.524 7.6374,87.0062 4.9424,93.8684 1.6239,99.0583 -2.1218,103.5586 -3.9734,105.7584 A3.2933,3.2933 0 0 1 -9.1466,101.6816 T-7.4407,99.367 -4.4358,95.3013 -2.0298,91.1116 0.2499,84.8878 2.535,76.7872 4.6445,67.7658 6.3597,58.2141 7.2763,48.6796 7.2156,39.5651 6.3868,30.7344 5.2258,23.2215 3.4792,15.9547 -0.0888,6.4861 -2.5015,1.1768 A2.7645,2.7645 0 0 1 2.5015,-1.1768 Z" stroke-linecap="round" fill="#9398b0"/></g></g><g transform="matrix(1, 0, 0, 1, 2020.0324, 7827.0911) scale(1.3128891382057695, 1.3128891382057695)" opacity="1"><g transform="scale(0.7616789345722119)"><path d="M2.856,-1.31 T2.8943,0.5513 2.9739,4.6358 3.335,9.0803 3.8401,13.9098 4.1174,18.4932 4.4958,22.5741 4.8873,26.5832 5.1147,30.5178 5.2372,32.5494 A2.6212,2.6212 0 0 1 0.0228,33.0906 T-0.5465,29.3499 -1.5442,23.1776 -2.0529,18.8322 -2.2743,14.4989 -2.7153,9.4725 -2.9739,4.6389 -2.8943,0.5513 -2.856,-1.31 A2.856,2.856 0 0 1 2.856,-1.31 Z" stroke-linecap="round" fill="#9398b0"/></g></g><g transform="matrix(1, 0, 0, 1, 2030.5355, 7842.8458) scale(1.3128891382057695, 1.3128891382057695)" opacity="1"><g transform="scale(0.7616789345722119)"><path d="M-1.31,2.8014 T-4.1054,2.8305 -9.3059,2.8646 -13.9101,2.8691 -18.5597,2.8682 -21.01,2.8677 A2.8677,2.8677 0 0 1 -21.01,-2.8677 T-18.5597,-2.8682 -13.9101,-2.8691 -9.3059,-2.8646 -4.1054,-2.8305 -1.31,-2.8014 A2.8014,2.8014 0 0 1 -1.31,2.8014 Z" stroke-linecap="round" fill="#9398b0"/></g></g><g transform="matrix(1, 0, 0, 1, 2083.0511, 7827.0911) scale(1.3128891382057695, 1.3128891382057695)" opacity="1"><g transform="scale(0.7616789345722119)"><path d="M-2.5514,1.2757 T-3.7606,-1.1574 -7.238,-1.3127 -10.237,2.7486 -11.6933,6.7337 -12.7665,10.8856 -12.9837,15.4963 -12.2005,21.0122 -10.6248,26.2046 -8.433,30.1402 -5.6587,33.1577 1.2307,33.6149 9.1893,31.4122 13.7359,27.9558 17.1178,23.4398 19.2372,18.9331 19.7468,14.6732 17.8173,9.6436 14.4983,5.4121 10.6207,2.7936 5.5537,-0.1832 2.7745,-1.797 A2.4395,2.4395 0 0 1 5.1055,-6.083 T7.9706,-4.6271 13.6138,-1.779 18.5271,1.2253 22.7713,5.5006 25.3795,10.1717 26.0306,15.3675 25.2094,21.5736 22.4522,27.4933 17.7563,33.3375 11.6871,37.7554 2.7989,40.5656 -5.7874,40.6496 -10.5197,37.4859 -14.0178,33.2097 -16.6645,28.0171 -18.3732,21.7766 -19.1101,15.031 -18.6755,9.3357 -17.3271,4.5313 -15.3732,-0.2301 -13.0461,-4.1614 -10.2483,-7.281 -6.5437,-9.1129 -2.2001,-7.8903 1.2773,-3.8091 2.5514,-1.2757 A2.8526,2.8526 0 0 1 -2.5514,1.2757 Z" stroke-linecap="round" fill="#9398b0"/></g></g><g transform="matrix(1, 0, 0, 1, 2148.6955, 7824.4653) scale(1.3128891382057695, 1.3128891382057695)" opacity="1"><g transform="scale(0.7616789345722119)"><path d="M2.5886,-1.176 T4.2348,2.2015 6.8659,9.1786 8.6521,15.7685 9.8856,21.4172 10.517,26.5063 10.1351,30.7595 9.5542,32.5819 A3.1803,3.1803 0 0 1 3.5658,30.4381 T3.845,29.8578 3.9106,27.191 3.346,22.728 2.3102,17.3237 0.975,11.1887 -1.1319,4.6286 -2.5886,1.176 A2.8432,2.8432 0 0 1 2.5886,-1.176 Z" stroke-linecap="round" fill="#9398b0"/></g></g><g transform="matrix(1, 0, 0, 1, 2163.1373, 7838.9071) scale(1.3128891382057695, 1.3128891382057695)" opacity="1"><g transform="scale(0.7616789345722119)"><path d="M0.6343,3.1761 T-0.9389,3.4844 -4.4122,3.6814 -9.3392,3.1643 -15.1846,2.5183 -19.6198,2.1733 -21.2367,2.0684 A3.386,3.386 0 0 1 -20.7833,-4.6884 T-17.6325,-4.4676 -11.1806,-3.6754 -5.7865,-2.8287 -2.1639,-2.8647 -0.6343,-3.1761 A3.2388,3.2388 0 0 1 0.6343,3.1761 Z" stroke-linecap="round" fill="#9398b0"/></g></g><g transform="matrix(1, 0, 0, 1, 2195.9596, 7806.0849) scale(1.3128891382057695, 1.3128891382057695)" opacity="1"><g transform="scale(0.7616789345722119)"><path d="M2.8317,-0.8104 T3.4537,1.3652 4.4764,6.1309 4.829,12.1131 4.7955,18.9783 4.8438,28.6229 5.0062,38.8713 5.3416,47.6327 5.5484,52.3171 A2.9255,2.9255 0 0 1 -0.2884,52.7229 T-0.7318,48.0549 -1.63,39.0696 -1.9738,28.532 -1.7011,18.7673 -1.3087,12.3719 -1.3329,7.3369 -2.2097,2.9816 -2.8317,0.8104 A2.9454,2.9454 0 0 1 2.8317,-0.8104 Z" stroke-linecap="round" fill="#9398b0"/></g></g><g transform="matrix(1, 0, 0, 1, 2257.6653, 7817.9009) scale(1.3128891382057695, 1.3128891382057695)" opacity="1"><g transform="scale(0.7616789345722119)"><path d="M2.77,1.0587 T3.1698,4.4656 3.7858,10.9681 4.1199,17.2586 4.2752,23.0636 4.2814,27.9846 4.2281,32.8577 4.2061,35.4199 A2.8963,2.8963 0 0 1 -1.5861,35.4801 T-1.6613,32.9189 -1.8156,28.07 -1.948,23.2029 -2.0555,17.5075 -2.22,11.3996 -2.5501,4.9845 -2.77,1.5613 A2.7814,2.7814 0 0 1 2.77,1.0587 Z" stroke-linecap="round" fill="#9398b0"/></g></g><g transform="matrix(1, 0, 0, 1, 2265.5427, 7836.2813) scale(1.3128891382057695, 1.3128891382057695)" opacity="1"><g transform="scale(0.7616789345722119)"><path d="M-1.31,2.8561 T-3.481,2.9086 -7.5085,3.2906 -12.4644,3.7695 -18.861,4.08 -22.1582,4.2414 A2.9358,2.9358 0 0 1 -22.4818,-1.6214 T-19.1869,-1.8239 -13.0748,-2.2037 -7.9596,-2.671 -3.4858,-2.9086 -1.31,-2.8561 A2.8561,2.8561 0 0 1 -1.31,2.8561 Z" stroke-linecap="round" fill="#9398b0"/></g></g><g transform="matrix(1, 0, 0, 1, 2302.3036, 7812.6493) scale(1.3128891382057695, 1.3128891382057695)" opacity="1"><g transform="scale(0.7616789345722119)"><path d="M1.5901,-3.088 T5.0068,-2.7767 10.7553,-1.9581 15.5771,-0.1086 19.8506,3.1001 22.6565,7.1684 23.8871,12.0675 23.8076,16.864 21.9652,21.9725 18.2474,27.5087 13.6839,32.2665 9.0646,36.2972 5.0055,39.3919 2.1785,41.9075 1.1917,43.1281 A3.4588,3.4588 0 0 1 -5.5963,41.7952 T-4.9162,40.0671 -2.439,36.7984 1.0108,34.1045 4.7121,31.2814 8.9216,27.6188 12.8626,23.6754 15.8584,19.7732 17.3882,14.7648 16.2712,9.1677 13.2404,5.6097 9.7488,4.1483 4.4433,3.3964 1.0299,3.088 A3.1006,3.1006 0 0 1 1.5901,-3.088 ZM0.2351,40.0076 T1.0968,40.7952 4.2625,42.5226 8.6394,44.027 14.8629,44.8325 22.3076,45.2933 28.2521,45.6878 33.8994,46.0349 36.8964,46.2075 A3.685,3.685 0 0 1 36.6236,53.5725 T33.6221,53.5229 27.8871,53.4486 21.7681,53.2653 13.3944,52.6298 6.0987,51.3552 0.3753,48.599 -3.84,45.7781 -4.6396,44.9157 A3.4588,3.4588 0 0 1 0.2351,40.0076 Z" stroke-linecap="round" fill="#9398b0"/></g></g></svg>