<svg xmlns="http://www.w3.org/2000/svg" direction="ltr" width="608.9171953565824" height="1025.901789317133" viewBox="2092.87448610019 29241.87376950334 608.9171953565824 1025.901789317133" stroke-linecap="round" stroke-linejoin="round" data-color-mode="dark" class="tl-container tl-theme__force-sRGB tl-theme__dark" style="background-color: transparent;"><defs/><g transform="matrix(1, 0, 0, 1, 2130.8345, 29838.9819) scale(0.2524743723799738, 0.2524743723799738)" opacity="1"><g transform="scale(3.9607980428801723)"><path d="M1.6884,0 T1.6736,1.1305 1.6501,3.8782 1.318,7.5151 0.8239,11.3882 0.3088,14.545 -0.5824,18.2216 -1.7034,23.3753 -2.4573,27.5923 -3.5569,31.5042 -4.4768,33.9795 A1.5716,1.5716 0 0 1 -7.4432,32.9405 T-6.7313,30.7568 -5.4321,25.6702 -4.2563,20.1159 -3.1678,15.2269 -2.3893,10.7166 -1.8762,6.9698 -1.6501,3.8782 -1.6736,1.1305 -1.6884,0 A1.6884,1.6884 0 0 1 1.6884,0 Z" stroke-linecap="round" fill="#ffc034"/></g></g><g transform="matrix(1, 0, 0, 1, 2130.8345, 29834.2031) scale(0.2524743723799738, 0.2524743723799738)" opacity="1"><g transform="scale(3.9607980428801723)"><path d="M1.18,-1.6901 T2.8828,-1.6774 7.2311,-1.6579 12.2469,-1.3472 16.4051,-0.4899 19.8039,1.5832 22.6215,4.4206 24.5224,7.3227 25.7995,10.6194 25.7454,14.271 23.9877,17.5939 21.1863,20.2861 17.7657,22.8189 13.8415,25.3129 9.9969,26.9753 6.8517,27.5084 3.9257,27.0358 1.7,25.3075 0.3761,23.2569 -0.1631,22.3214 A1.5849,1.5849 0 0 1 2.5231,20.6386 T3.3733,22.0584 5.8832,23.6189 9.7485,22.956 13.6986,20.9729 17.0892,18.6242 19.9311,16.4329 21.8714,13.6249 21.9336,9.9496 19.9879,6.6312 17.7275,4.1395 15.2731,2.6182 11.8463,1.9053 7.2311,1.6579 2.8828,1.6774 1.18,1.6901 A1.6901,1.6901 0 0 1 1.18,-1.6901 Z" stroke-linecap="round" fill="#ffc034"/></g></g><g transform="matrix(1, 0, 0, 1, 2160.7023, 29862.8762) scale(0.2524743723799738, 0.2524743723799738)" opacity="1"><g transform="scale(3.9607980428801723)"><path d="M-1.1971,-0.9016 T-0.319,-2.0092 0.8277,-3.6757 1.0964,-4.2346 A1.4229,1.4229 0 0 1 3.6436,-2.9654 T3.2451,-2.1852 2.0218,-0.2517 1.1971,0.9016 A1.4986,1.4986 0 0 1 -1.1971,-0.9016 ZM3.4895,-2.7217 T3.0076,-2.1801 2.6028,0.0815 2.6655,3.577 3.4684,6.6565 5.9527,8.8193 9.2463,8.1413 11.3734,4.6026 12.3918,2.0946 12.9098,1.5884 A1.4037,1.4037 0 0 1 14.3471,3.9999 T14.2945,4.637 13.7397,6.7914 12.1562,9.8977 8.9163,11.9995 4.4203,11.2259 1.2276,8.8681 0.0704,5.7582 -0.1769,1.8675 0.2978,-1.8195 0.9842,-4.0662 1.2505,-4.4783 A1.4229,1.4229 0 0 1 3.4895,-2.7217 ZM14.9081,2.2173 T15.2007,2.9007 16.5114,5.4285 18.4045,8.8135 20.1752,12.2372 21.7632,16.3935 22.6735,21.4136 22.9342,25.5109 22.7084,28.3123 21.474,31.9728 19.5365,35.2524 16.7814,37.8349 13.7284,39.8134 9.7674,40.3296 5.5248,39.9914 2.4299,38.7466 -0.4723,36.8572 -3.0982,34.692 -5.3657,32.3078 -7.1988,29.4592 -8.4625,26.3774 -9.3149,23.3953 -9.7368,21.8985 A1.4199,1.4199 0 0 1 -7.0232,21.0615 T-6.1366,23.7171 -3.6648,28.6701 -0.89,31.9928 2.5965,34.5959 6.2628,36.5372 9.5071,36.9506 13.0656,36.2124 16.1672,34.0795 18.4556,30.9212 19.5569,26.7007 19.7409,22.8736 19.4156,19.351 18.5113,15.3241 16.8255,11.6127 15.1804,8.3228 13.6934,5.5522 12.5701,3.8278 12.3488,3.371 A1.4037,1.4037 0 0 1 14.9081,2.2173 Z" stroke-linecap="round" fill="#ffc034"/></g></g><g transform="matrix(1, 0, 0, 1, 2195.3489, 29831.8137) scale(0.2524743723799738, 0.2524743723799738)" opacity="1"><g transform="scale(3.9607980428801723)"><path d="M1.5918,0 T1.5678,1.413 1.2427,4.2975 0.4916,7.1099 -0.466,9.9644 -1.5264,12.8797 -2.6186,15.8258 -3.7124,19.0411 -4.5155,22.3223 -5.219,25.5136 -5.8602,28.5874 -5.7712,32.5751 -4.463,36.3645 -1.5791,38.0694 1.6166,37.8308 5.158,35.342 7.3548,33.5021 A1.5316,1.5316 0 0 1 9.4052,35.7779 T8.2943,36.8472 6.1459,38.9221 3.9247,40.79 1.322,41.9277 -2.4325,41.7331 -6.2585,39.7585 -8.5561,35.5668 -9.5071,31.2322 -9.3603,27.8216 -8.6198,24.6926 -7.8054,21.4722 -6.8321,17.9361 -5.6233,14.6687 -4.4735,11.7758 -3.3977,8.9609 -2.2079,5.1325 -1.5678,1.406 -1.5918,0 A1.5918,1.5918 0 0 1 1.5918,0 Z" stroke-linecap="round" fill="#ffc034"/></g></g><g transform="matrix(1, 0, 0, 1, 2198.933, 29847.3449) scale(0.2524743723799738, 0.2524743723799738)" opacity="1"><g transform="scale(3.9607980428801723)"><path d="M-0.6777,1.2654 T-2.0889,1.8344 -5.2189,2.7394 -8.6919,3.233 -12.3306,3.5585 -14.2152,3.7262 A1.3619,1.3619 0 0 1 -14.4648,1.0138 T-12.5814,0.8346 -9.0701,0.5019 -5.9749,0.0934 -3.0949,-0.7134 -1.6823,-1.2654 A1.3614,1.3614 0 0 1 -0.6777,1.2654 Z" stroke-linecap="round" fill="#ffc034"/></g></g><g transform="matrix(1, 0, 0, 1, 2220.4379, 29848.5396) scale(0.2524743723799738, 0.2524743723799738)" opacity="1"><g transform="scale(3.9607980428801723)"><path d="M 0 0 m -2.480394125355299, 0 a 2.480394125355299,2.480394125355299 0 1,1 4.960788250710598,0 a 2.480394125355299,2.480394125355299 0 1,1 -4.960788250710598,0" stroke-linecap="round" fill="#ffc034"/></g></g><g transform="matrix(1, 0, 0, 1, 2218.0484, 29864.0709) scale(0.2524743723799738, 0.2524743723799738)" opacity="1"><g transform="scale(3.9607980428801723)"><path d="M0.9263,-0.9263 T2.1148,0.2552 3.3033,1.4367 A1.3198,1.3198 0 0 1 1.4367,3.3033 T0.2552,2.1148 -0.9263,0.9263 A1.3099,1.3099 0 0 1 0.9263,-0.9263 Z" stroke-linecap="round" fill="#ffc034"/></g></g><g transform="matrix(1, 0, 0, 1, 2326.7672, 29852.1238) scale(0.2524743723799738, 0.2524743723799738)" opacity="1"><g transform="scale(3.9607980428801723)"><path d="M1.1647,0.9341 T0.025,2.3359 -1.9505,5.006 -3.9205,7.3787 -6.2292,9.3423 -8.8419,11.2052 -11.5384,13.2542 -14.8191,16.1298 -18.3775,19.8576 -20.9079,22.7787 -22.98,24.9176 -24.0578,26.033 A1.3975,1.3975 0 0 1 -26.1022,24.127 T-25.0649,22.9738 -22.4123,19.9636 -19.8744,16.9213 -16.8517,13.8302 -13.3834,10.8082 -10.5887,8.7218 -7.1984,6.1881 -4.321,3.2625 -2.2859,0.4832 -1.1647,-0.9341 A1.493,1.493 0 0 1 1.1647,0.9341 Z" stroke-linecap="round" fill="#ffc034"/></g></g><g transform="matrix(1, 0, 0, 1, 2307.6518, 29856.9026) scale(0.2524743723799738, 0.2524743723799738)" opacity="1"><g transform="scale(3.9607980428801723)"><path d="M1.1008,-1.1008 T1.9476,-0.2516 4.1192,1.4972 6.752,3.5518 9.662,5.8473 12.6946,8.7133 15.3903,12.1312 17.3548,16.2672 18.0539,18.7109 A1.4144,1.4144 0 0 1 15.3461,19.5291 T14.6983,17.5149 12.8722,14.0114 10.4718,11.01 7.5862,8.2716 4.7227,5.9555 2.0671,3.8368 -0.2448,1.9544 -1.1008,1.1008 A1.5568,1.5568 0 0 1 1.1008,-1.1008 Z" stroke-linecap="round" fill="#ffc034"/></g></g><g transform="matrix(1, 0, 0, 1, 2331.546, 29823.4507) scale(0.2524743723799738, 0.2524743723799738)" opacity="1"><g transform="scale(3.9607980428801723)"><path d="M1.18,-1.6878 T2.8828,-1.6884 6.9128,-1.378 10.7158,-0.3771 13.1804,2.1601 13.5972,5.914 12.4248,9.0799 10.2217,11.7119 9.714,13.9438 12.1935,14.8756 15.1647,15.0253 16.7513,15.1026 A1.5983,1.5983 0 0 1 16.6487,18.2974 T15.0605,18.2729 10.8263,18.1477 6.7795,17.695 4.6883,15.4731 5.1802,12.062 7.9508,9.101 10.071,5.852 9.4181,3.1028 6.4094,1.9361 2.8828,1.6884 1.18,1.6878 A1.6878,1.6878 0 0 1 1.18,-1.6878 Z" stroke-linecap="round" fill="#ffc034"/></g></g><g transform="matrix(1, 0, 0, 1, 2369.7768, 29852.1238) scale(0.2524743723799738, 0.2524743723799738)" opacity="1"><g transform="scale(3.9607980428801723)"><path d="M1.2506,1.4272 T0.9873,2.8418 0.5946,5.7841 0.3263,9.8285 0.1246,13.9503 0.0618,15.5552 A1.2423,1.2423 0 0 1 -2.4218,15.4848 T-2.3936,13.8789 -2.2676,9.6707 -2.0051,5.4098 -1.5454,2.342 -1.2506,0.9328 A1.2748,1.2748 0 0 1 1.2506,1.4272 Z" stroke-linecap="round" fill="#f2f2f2"/></g></g><g transform="matrix(1, 0, 0, 1, 2374.5557, 29861.6815) scale(0.2524743723799738, 0.2524743723799738)" opacity="1"><g transform="scale(3.9607980428801723)"><path d="M0,1.5418 T-1.4095,1.5554 -5.384,1.5897 -9.6201,1.8548 -13.2889,2.3884 -15.2865,2.6776 A1.5157,1.5157 0 0 1 -15.7535,-0.3176 T-13.7627,-0.6502 -9.8633,-1.2966 -5.3869,-1.5897 -1.4095,-1.5554 0,-1.5418 A1.5418,1.5418 0 0 1 0,1.5418 Z" stroke-linecap="round" fill="#f2f2f2"/></g></g><g transform="matrix(1, 0, 0, 1, 2416.3706, 29830.619) scale(0.2524743723799738, 0.2524743723799738)" opacity="1"><g transform="scale(3.9607980428801723)"><path d="M0.1296,0.5318 T-0.4421,1.9412 -1.749,5.4793 -3.2433,9.5882 -4.4299,12.8923 -5.389,15.5281 -6.6105,18.8452 -7.6011,22.2723 -8.261,25.0006 -8.8764,28.3295 -9.6473,32.3011 -10.2896,35.9709 -10.4559,39.4651 -10.5061,42.5881 -10.521,45.4627 -10.5286,48.4159 -10.1291,51.4091 -9.0324,54.9386 -8.3392,56.9027 A1.3002,1.3002 0 0 1 -10.7808,57.7973 T-11.5951,55.6465 -12.8578,51.6865 -13.3085,48.431 -13.3084,45.4531 -13.2959,42.557 -13.247,39.3593 -13.0568,35.6036 -12.4155,31.8681 -11.6333,27.8065 -10.8887,23.6082 -9.7883,19.731 -8.3487,15.5738 -7.1386,12.0474 -5.9218,8.6584 -4.3796,4.4268 -3.0625,0.8779 -2.4896,-0.5318 A1.4135,1.4135 0 0 1 0.1296,0.5318 Z" stroke-linecap="round" fill="#ae3ec9"/></g></g><g transform="matrix(1, 0, 0, 1, 2437.8754, 29830.619) scale(0.2524743723799738, 0.2524743723799738)" opacity="1"><g transform="scale(3.9607980428801723)"><path d="M1.0133,1.0133 T0.1595,1.8623 -2.079,4.1073 -4.2938,6.5919 -4.0907,8.8683 -1.7041,11.0942 0.7472,14.0053 1.2367,17.6212 -0.5833,20.2339 -3.9282,21.7819 -8.3307,22.6396 -13.0408,22.8434 -15.4819,22.8678 A1.3883,1.3883 0 0 1 -15.5581,20.0922 T-14.2831,20.0362 -10.8169,19.8593 -6.895,19.4499 -3.7626,18.6852 -1.836,16.9571 -2.3134,14.5562 -4.5007,12.7261 -6.8067,11.1017 -7.8113,8.2302 -6.5991,4.8829 -4.1073,2.079 -1.8623,-0.1595 -1.0133,-1.0133 A1.4331,1.4331 0 0 1 1.0133,1.0133 Z" stroke-linecap="round" fill="#ae3ec9"/></g></g><g transform="matrix(1, 0, 0, 1, 2442.6542, 29862.8762) scale(0.2524743723799738, 0.2524743723799738)" opacity="1"><g transform="scale(3.9607980428801723)"><path d="M0.707,1.074 T-0.1473,1.6452 -3.2129,3.0309 -7.9118,4.2578 -13.1047,4.742 -17.4506,4.8235 -19.0911,4.833 A1.2334,1.2334 0 0 1 -19.1489,2.367 T-17.5097,2.2998 -13.2775,2.1048 -8.5524,1.6708 -4.4122,0.695 -1.5555,-0.5242 -0.707,-1.074 A1.2858,1.2858 0 0 1 0.707,1.074 Z" stroke-linecap="round" fill="#ae3ec9"/></g></g><g transform="matrix(1, 0, 0, 1, 2425.9283, 29878.4074) scale(0.2524743723799738, 0.2524743723799738)" opacity="1"><g transform="scale(3.9607980428801723)"><path d="M0.2819,-1.4241 T1.692,-1.1329 5.2236,0.2398 8.0192,3.2498 8.2886,6.4909 6.6764,8.9602 4.4359,10.9936 2.4627,12.5802 1.5222,13.2901 A1.4582,1.4582 0 0 1 -1.3893,13.1196 T-1.1663,12.2654 0.8923,10.0211 4.0463,7.5442 5.5387,5.0166 4.1244,2.7669 1.1271,1.691 -0.2819,1.4241 A1.4517,1.4517 0 0 1 0.2819,-1.4241 ZM0.711,11.8968 T1.2563,12.1558 3.2028,12.8733 6.5139,13.5686 9.8135,13.893 12.7961,14.0733 14.389,14.1661 A1.3548,1.3548 0 0 1 14.291,16.8739 T12.6956,16.8513 9.6285,16.8128 5.8139,16.4645 1.9907,15.6005 -0.0338,14.7909 -0.5781,14.5129 A1.4582,1.4582 0 0 1 0.711,11.8968 Z" stroke-linecap="round" fill="#ae3ec9"/></g></g><g transform="matrix(1, 0, 0, 1, 2459.3802, 29823.4507) scale(0.2524743723799738, 0.2524743723799738)" opacity="1"><g transform="scale(3.9607980428801723)"><path d="M1.3326,-0.329 T1.604,0.8039 2.1119,4.3904 2.4177,9.2457 2.9407,14.2565 3.486,18.5302 4.0974,23.1692 4.7182,27.5857 5.1421,30.513 5.656,33.7562 5.948,37.0011 6.1049,40.12 6.1909,43.1806 5.9529,46.3427 5.5534,49.4323 5.038,52.2257 4.1622,54.9782 3.1323,57.5554 2.0529,60.2726 0.926,63.1137 -0.263,65.799 -1.4602,68.3465 -2.6464,70.8146 -4.0328,73.7897 -5.7712,76.4647 -6.7154,77.3845 A1.5164,1.5164 0 0 1 -8.8098,75.191 T-8.1485,74.5778 -6.7669,72.3183 -5.4568,69.4623 -4.2765,67.0182 -3.1011,64.5347 -1.9513,61.9636 -0.293,57.9228 1.6012,52.8417 2.5508,49.0298 2.9629,46.1169 3.2058,43.2472 3.1452,40.2563 3.024,37.2417 2.7882,34.1974 2.3007,30.9008 1.8834,27.8361 1.6453,24.938 1.1459,21.882 0.729,18.7464 0.5245,15.7653 0.0841,13.0453 -0.2784,9.3658 -0.5465,4.8026 -1.0458,1.457 -1.3326,0.329 A1.3727,1.3727 0 0 1 1.3326,-0.329 ZM-9.224,76.6928 T-9.3533,76.1613 -9.6282,75.038 -9.7736,74.4462 A1.4461,1.4461 0 0 1 -6.9864,73.6738 T-6.8065,74.256 -6.4639,75.3605 -6.3013,75.8828 A1.5164,1.5164 0 0 1 -9.224,76.6928 Z" stroke-linecap="round" fill="#ae3ec9"/></g></g><g transform="matrix(1, 0, 0, 1, 2472.522, 29804.3353) scale(0.2524743723799738, 0.2524743723799738)" opacity="1"><g transform="scale(3.9607980428801723)"><path d="M0.2801,-1.4145 T1.692,-1.1325 5.1247,0.6756 7.6862,3.7898 8.0353,7.0485 7.3708,10.2108 5.7862,13.3196 3.4346,15.8617 1.647,17.2932 1.0994,17.7997 A1.4486,1.4486 0 0 1 -0.8636,15.6689 T0.7908,14.3847 3.3239,11.872 4.8753,8.8531 5.1483,5.4372 3.6416,2.8892 1.1271,1.6907 -0.2801,1.4145 A1.442,1.442 0 0 1 0.2801,-1.4145 ZM1.2009,15.7723 T1.3784,16.0073 3.6634,16.2894 7.2222,16.3885 10.307,16.4929 11.9406,16.5452 A1.385,1.385 0 0 1 11.8994,19.3148 T10.265,19.3185 5.8919,19.2754 1.4189,18.793 -0.6402,18.0269 -0.9651,17.6963 A1.4486,1.4486 0 0 1 1.2009,15.7723 Z" stroke-linecap="round" fill="#ae3ec9"/></g></g><g transform="matrix(1, 0, 0, 1, 2497.611, 29846.1502) scale(0.2524743723799738, 0.2524743723799738)" opacity="1"><g transform="scale(3.9607980428801723)"><path d="M1.5523,-1.5081 T2.6636,-1.2468 5.4625,-1.2283 9.5086,-1.5338 11.8669,-1.5964 A1.5973,1.5973 0 0 1 11.9731,1.5964 T9.6712,1.6888 5.2382,1.9415 1.9574,1.8049 0.8077,1.5081 A1.5534,1.5534 0 0 1 1.5523,-1.5081 Z" stroke-linecap="round" fill="#f2f2f2"/></g></g><g transform="matrix(1, 0, 0, 1, 2494.0268, 29856.9026) scale(0.2524743723799738, 0.2524743723799738)" opacity="1"><g transform="scale(3.9607980428801723)"><path d="M0.2193,-1.3288 T1.9175,-1.0939 5.9103,-0.6626 10.1201,-0.3827 13.2021,-0.2582 14.3687,-0.2172 A1.3975,1.3975 0 0 1 14.3113,2.5772 T13.1439,2.5702 9.994,2.5221 5.5798,2.2281 1.4644,1.652 -0.2193,1.3288 A1.3468,1.3468 0 0 1 0.2193,-1.3288 Z" stroke-linecap="round" fill="#f2f2f2"/></g></g><g transform="matrix(1, 0, 0, 1, 2556.0447, 29835.8738) scale(0.2503887994196496, 0.2503887994196496)" opacity="1"><g transform="scale(3.9937888688223953)"><path d="M0.5326,1.3305 T-0.8664,1.8912 -3.9478,3.5272 -6.9261,5.7895 -7.2898,8.5367 -4.8415,11.7779 -1.518,14.8864 1.8187,18.4507 3.5865,22.8282 2.0768,26.2988 -1.8405,28.4283 -6.461,29.9845 -11.2979,30.0332 -14.7825,28.1725 -16.7894,25.7542 -17.6968,24.5883 A1.3973,1.3973 0 0 1 -15.5232,22.8317 T-14.5736,23.9637 -12.1685,26.1904 -8.9997,27.242 -5.9937,26.7505 -2.9176,25.5754 0.1238,24.1776 0.4957,21.8413 -1.7897,18.6779 -4.3134,16.306 -6.359,14.4369 -8.7553,11.5852 -10.4916,7.7218 -9.0253,3.9897 -5.3163,1.0274 -1.9337,-0.7702 -0.5326,-1.3305 A1.4331,1.4331 0 0 1 0.5326,1.3305 Z" stroke-linecap="round" fill="#f76707"/></g></g><g transform="matrix(1, 0, 0, 1, 2559.5992, 29814.5466) scale(0.2503887994196496, 0.2503887994196496)" opacity="1"><g transform="scale(3.9937888688223953)"><path d="M0,-1.6012 T1.4001,-1.5923 5.0582,-1.5823 9.462,-1.4715 12.7894,0.155 13.8893,3.4196 12.0149,6.7689 8.3183,9.5129 6.1397,11.085 5.865,11.5145 A1.6406,1.6406 0 0 1 3.2666,9.5108 T4.8575,8.114 8.6275,5.3845 10.734,2.7068 8.9887,1.4715 5.0582,1.5823 1.4001,1.5923 0,1.6012 A1.6012,1.6012 0 0 1 0,-1.6012 ZM6.008,9.7306 T6.2947,10.2696 8.2209,11.3521 11.075,12.2452 12.2897,12.5948 A1.6697,1.6697 0 0 1 11.3703,15.8052 T10.1547,15.4588 7.6594,14.7208 5.1055,13.4542 3.4774,11.937 3.1236,11.2948 A1.6406,1.6406 0 0 1 6.008,9.7306 Z" stroke-linecap="round" fill="#f76707"/></g></g><g transform="matrix(1, 0, 0, 1, 2315.5216, 29950.8035) scale(0.2503887994196496, 0.2503887994196496)" opacity="1"><g transform="scale(3.9937888688223953)"><path d="M1.0377,1.0377 T-0.9111,3.0048 -4.1158,6.5171 -6.6399,9.4882 -9.2048,12.0072 -12.5015,15.0627 -15.6872,17.792 -18.1232,19.3648 -19.3735,20.1708 A1.4271,1.4271 0 0 1 -20.9465,17.7892 T-19.7144,16.9557 -16.4972,14.6395 -13.4868,11.9603 -11.318,9.8209 -8.9401,7.5094 -6.3392,4.5008 -3.0053,0.9116 -1.0377,-1.0377 A1.4675,1.4675 0 0 1 1.0377,1.0377 Z" stroke-linecap="round" fill="#ffc034"/></g></g><g transform="matrix(1, 0, 0, 1, 2297.749, 29949.6187) scale(0.2503887994196496, 0.2503887994196496)" opacity="1"><g transform="scale(3.9937888688223953)"><path d="M1.1977,-0.8989 T2.0298,0.2277 3.8826,3.352 6.0028,7.1098 8.6602,10.5981 11.5383,14.1467 14.3825,17.3448 16.7316,19.5198 17.5565,20.3173 A1.3935,1.3935 0 0 1 15.6635,22.3627 T14.0448,20.9334 10.8069,17.6417 7.8581,14.0449 5.5438,11.3441 3.4164,8.5275 1.3851,4.8987 -0.3507,2.0096 -1.1977,0.8989 A1.4975,1.4975 0 0 1 1.1977,-0.8989 Z" stroke-linecap="round" fill="#ffc034"/></g></g><g transform="matrix(1, 0, 0, 1, 2319.0762, 29918.8128) scale(0.2503887994196496, 0.2503887994196496)" opacity="1"><g transform="scale(3.9937888688223953)"><path d="M0,-1.459 T1.6792,-1.457 4.8168,-1.4592 7.9172,-0.9974 10.9756,1.0665 12.4439,4.8273 10.7476,8.7395 7.4506,11.5868 5.303,12.2444 6.0357,12.6415 9.0909,13.6231 13.3203,14.4856 15.8258,15.2042 A1.4605,1.4605 0 0 1 15.0342,18.0158 T13.7865,17.6791 10.4859,16.9978 6.5861,16.1594 3.6944,14.7962 3.224,12.2879 5.6304,9.3142 8.5469,7.1135 9.4889,4.707 7.7798,2.3148 4.7859,1.4592 1.6792,1.457 0,1.459 A1.459,1.459 0 0 1 0,-1.459 Z" stroke-linecap="round" fill="#ffc034"/></g></g><g transform="matrix(1, 0, 0, 1, 2358.176, 29942.5096) scale(0.2503887994196496, 0.2503887994196496)" opacity="1"><g transform="scale(3.9937888688223953)"><path d="M1.2673,-0.8461 T1.8346,-0.0073 2.9843,2.7901 3.4183,7.4579 3.1446,11.6843 2.6456,14.7204 1.7822,17.8386 0.7613,21.1855 0.23,22.9332 A1.4693,1.4693 0 0 1 -2.59,22.1068 T-2.0941,20.3488 -0.849,15.7693 0.0259,11.2919 0.3156,7.4473 0.1598,3.8928 -0.7136,1.6865 -1.2673,0.8461 A1.5238,1.5238 0 0 1 1.2673,-0.8461 Z" stroke-linecap="round" fill="#f2f2f2"/></g></g><g transform="matrix(1, 0, 0, 1, 2364.1002, 29951.9884) scale(0.2503887994196496, 0.2503887994196496)" opacity="1"><g transform="scale(3.9937888688223953)"><path d="M-0.2784,1.3965 T-1.68,1.1272 -4.5835,0.7272 -7.7206,0.5068 -11.2153,0.3178 -13.0749,0.2185 A1.4,1.4 0 0 1 -12.9451,-2.5785 T-11.0842,-2.5051 -7.5192,-2.3664 -4.1669,-2.1376 -1.1202,-1.6853 0.2784,-1.3965 A1.424,1.424 0 0 1 -0.2784,1.3965 Z" stroke-linecap="round" fill="#f2f2f2"/></g></g><g transform="matrix(1, 0, 0, 1, 2424.5272, 29937.7703) scale(0.2503887994196496, 0.2503887994196496)" opacity="1"><g transform="scale(3.9937888688223953)"><path d="M-0.6325,1.3676 T-2.0275,1.9384 -5.0957,3.5905 -7.9777,5.5329 -9.0978,6.4516 -9.009,6.5092 A1.5171,1.5171 0 0 1 -11.9994,5.9949 T-11.7797,5.2914 -10.0395,3.3916 -6.5284,0.9641 -3.1326,-0.8174 -1.7275,-1.3676 A1.4731,1.4731 0 0 1 -0.6325,1.3676 ZM-9.482,5.1309 T-8.9583,5.6131 -7.3003,7.2077 -4.4302,9.5366 -1.5419,13.2575 -0.7748,18.0839 -2.485,21.724 -5.0654,23.5911 -7.6315,24.4371 -10.3718,24.5974 -13.1179,24.0674 -16.6155,22.2403 -19.9394,19.8908 -21.0821,18.975 A1.5015,1.5015 0 0 1 -19.2379,16.605 T-18.0694,17.4875 -15.1989,19.486 -11.5286,21.0879 -7.5471,20.9741 -4.276,19.204 -3.383,16.2122 -4.747,13.2248 -6.9852,11.2678 -9.3469,9.4019 -10.998,7.8501 -11.5264,7.3731 A1.5171,1.5171 0 0 1 -9.482,5.1309 Z" stroke-linecap="round" fill="#ae3ec9"/></g></g><g transform="matrix(1, 0, 0, 1, 2428.0817, 29923.5522) scale(0.2503887994196496, 0.2503887994196496)" opacity="1"><g transform="scale(3.9937888688223953)"><path d="M0.8555,-1.6278 T2.2549,-1.9116 5.0187,-2.3569 8.6764,-2.6312 12.1865,-2.3382 13.4035,-1.9322 A1.6803,1.6803 0 0 1 12.5857,1.3274 T10.8747,0.9996 6.7349,0.8755 2.9052,1.3535 1.5045,1.6278 A1.6598,1.6598 0 0 1 0.8555,-1.6278 ZM14.5263,-0.9933 T14.8123,-0.3589 15.3874,1.7768 14.898,4.9998 12.5998,8.1062 9.7782,10.603 9.9715,12.6754 13.4807,13.7648 15.4947,13.8938 A1.5375,1.5375 0 0 1 15.3653,16.9662 T13.2512,16.9213 9.2228,16.6037 5.8694,14.7318 5.3541,11.2205 7.7066,8.0512 10.2412,5.8116 11.6892,3.2384 11.747,1.0181 11.4629,0.3884 A1.6803,1.6803 0 0 1 14.5263,-0.9933 Z" stroke-linecap="round" fill="#ae3ec9"/></g></g><g transform="matrix(1, 0, 0, 1, 2436.3756, 29978.0549) scale(0.2503887994196496, 0.2503887994196496)" opacity="1"><g transform="scale(3.9937888688223953)"><path d="M0,1.7991 T-1.4001,1.8021 -4.3752,1.8137 -7.9013,1.8421 -11.7296,1.8724 -15.7148,1.9001 -20.0559,1.9134 -24.4316,1.6004 -28.1489,1.1268 -31.3712,0.8566 -35.6824,1.0471 -39.9271,1.3704 -43.2224,1.4325 -44.9368,1.468 A1.4693,1.4693 0 0 1 -45.0632,-1.468 T-43.3521,-1.5799 -38.884,-1.9504 -34.5003,-2.4869 -31.134,-2.7162 -27.7284,-2.5373 -24.1732,-2.1585 -20.0534,-1.9134 -15.7148,-1.9001 -11.7296,-1.8724 -7.9013,-1.8421 -4.3752,-1.8137 -1.4001,-1.8021 0,-1.7991 A1.7991,1.7991 0 0 1 0,1.7991 Z" stroke-linecap="round" fill="#ae3ec9"/></g></g><g transform="matrix(1, 0, 0, 1, 2405.5697, 29988.7185) scale(0.2503887994196496, 0.2503887994196496)" opacity="1"><g transform="scale(3.9937888688223953)"><path d="M1.6244,0 T1.6236,1.124 1.3258,3.5851 0.5038,6.912 -0.2753,10.474 1.1751,13.1438 4.4884,14.5067 7.5955,14.3957 9.0939,14.0193 A1.4574,1.4574 0 0 1 9.8261,16.8407 T8.91,17.1103 5.7345,17.5256 1.7636,16.9833 -1.5704,14.9972 -3.3707,11.6669 -3.0082,7.8349 -2.0453,4.1308 -1.6236,1.1132 -1.6244,0 A1.6244,1.6244 0 0 1 1.6244,0 Z" stroke-linecap="round" fill="#ae3ec9"/></g></g><g transform="matrix(1, 0, 0, 1, 2417.4181, 29992.273) scale(0.2503887994196496, 0.2503887994196496)" opacity="1"><g transform="scale(3.9937888688223953)"><path d="M1.6372,0 T1.6386,1.682 1.3502,4.9603 0.9345,8.0769 0.7401,10.9824 0.6437,13.932 0.2946,17.046 -0.2069,20.0716 -0.5971,23.298 -0.8069,25.0485 A1.5711,1.5711 0 0 1 -3.9331,24.7315 T-3.7871,22.9744 -3.2175,18.3073 -2.7399,13.7905 -2.5996,10.7378 -2.0765,6.3223 -1.6386,1.6763 -1.6372,0 A1.6372,1.6372 0 0 1 1.6372,0 Z" stroke-linecap="round" fill="#ae3ec9"/></g></g><g transform="matrix(1, 0, 0, 1, 2474.2905, 29961.4671) scale(0.2503887994196496, 0.2503887994196496)" opacity="1"><g transform="scale(3.9937888688223953)"><path d="M0.5006,-1.2505 T1.9082,-0.7124 5.4155,0.2208 9.5459,0.2198 11.5767,-0.1762 A1.3797,1.3797 0 0 1 12.0833,2.5362 T10.896,2.7695 7.3918,3.0536 3.6797,2.7604 0.8919,1.8334 -0.5006,1.2505 A1.3469,1.3469 0 0 1 0.5006,-1.2505 Z" stroke-linecap="round" fill="#f2f2f2"/></g></g><g transform="matrix(1, 0, 0, 1, 2473.1057, 29973.3155) scale(0.2503887994196496, 0.2503887994196496)" opacity="1"><g transform="scale(3.9937888688223953)"><path d="M0.6242,-1.2458 T1.7601,-0.7218 4.5689,0.1657 8.4993,0.7352 10.7569,0.9412 A1.4328,1.4328 0 0 1 10.5431,3.7988 T8.1642,3.6579 3.6819,2.9784 0.4772,1.8428 -0.6242,1.2458 A1.3935,1.3935 0 0 1 0.6242,-1.2458 Z" stroke-linecap="round" fill="#f2f2f2"/></g></g><g transform="matrix(1, 0, 0, 1, 2534.7175, 29948.4338) scale(0.2503887994196496, 0.2503887994196496)" opacity="1"><g transform="scale(3.9937888688223953)"><path d="M0.8158,1.0869 T-0.3086,1.9192 -2.6313,3.5005 -5.0051,5.3693 -4.7835,7.991 -1.7606,10.6183 1.0636,13.0735 2.7075,15.823 3.4159,19.0034 3.285,22.3387 1.4961,25.4733 -1.6615,28.1468 -5.7482,29.57 -10.3846,29.6312 -14.4417,28.4135 -16.1868,27.4445 A1.5691,1.5691 0 0 1 -14.6732,24.6955 T-13.8256,25.1471 -11.7472,26.1472 -8.3921,26.577 -4.7756,26.1988 -2.0811,24.7656 -0.0847,22.271 0.5149,19.4454 -0.3384,16.4646 -2.3004,13.8942 -4.9868,11.7376 -7.5721,9.9498 -9.0709,7.7503 -8.2398,4.8361 -5.0768,2.0013 -1.9287,-0.24 -0.8158,-1.0869 A1.359,1.359 0 0 1 0.8158,1.0869 Z" stroke-linecap="round" fill="#f76707"/></g></g><g transform="matrix(1, 0, 0, 1, 2544.1963, 29915.2583) scale(0.2503887994196496, 0.2503887994196496)" opacity="1"><g transform="scale(3.9937888688223953)"><path d="M0.3253,-1.6319 T1.7256,-1.3545 5.1567,-0.5043 8.7451,1.5065 10.6415,4.7551 10.6953,8.2457 9.3661,11.3392 7.1807,13.9911 4.9354,16.3048 5.8523,17.5403 10.551,18.0671 13.2289,18.4337 A1.7401,1.7401 0 0 1 12.7911,21.8863 T11.2836,21.7166 8.2505,21.3591 4.9416,20.7237 1.9784,19.0861 1.6198,16.0005 3.5713,12.9222 6.0016,10.1763 7.3915,7.1422 6.6108,4.3717 4.1074,2.6326 1.0745,1.9127 -0.3253,1.6319 A1.664,1.664 0 0 1 0.3253,-1.6319 Z" stroke-linecap="round" fill="#f76707"/></g></g><g transform="matrix(1, 0, 0, 1, 2306.0429, 30075.212) scale(0.2503887994196496, 0.2503887994196496)" opacity="1"><g transform="scale(3.9937888688223953)"><path d="M1.4587,1.0948 T0.6091,2.2059 -1.6745,4.9856 -4.0327,7.628 -6.0979,9.486 -8.9756,11.94 -11.8978,14.3677 -14.5971,16.4976 -18.1296,19.5906 -20.1484,21.4115 A1.7281,1.7281 0 0 1 -22.5316,18.9085 T-21.5042,17.881 -18.7699,15.2308 -15.156,12.1893 -11.3412,9.1109 -7.608,5.8539 -4.4502,2.707 -2.2882,0.0313 -1.4587,-1.0948 A1.8238,1.8238 0 0 1 1.4587,1.0948 Z" stroke-linecap="round" fill="#ffc034"/></g></g><g transform="matrix(1, 0, 0, 1, 2290.6399, 30070.4726) scale(0.2503887994196496, 0.2503887994196496)" opacity="1"><g transform="scale(3.9937888688223953)"><path d="M1.616,-0.969 T2.4322,0.4448 4.6284,3.9666 6.8574,7.1089 8.5224,9.3612 11.069,12.4488 13.7469,15.3563 16.172,17.9653 19.0341,21.7194 20.4181,23.9023 A1.7447,1.7447 0 0 1 17.5419,25.8777 T16.1762,24.0571 13.2915,20.6184 10.0764,16.9045 6.5962,12.629 3.8475,9.2095 1.4963,5.8556 -0.7531,2.3554 -1.616,0.969 A1.8842,1.8842 0 0 1 1.616,-0.969 Z" stroke-linecap="round" fill="#ffc034"/></g></g><g transform="matrix(1, 0, 0, 1, 2315.5216, 30036.1122) scale(0.2503887994196496, 0.2503887994196496)" opacity="1"><g transform="scale(3.9937888688223953)"><path d="M0.5896,-1.4729 T1.9899,-0.9129 4.7221,0.235 7.6539,2.2556 9.1934,5.6433 7.6943,9.1035 4.9766,11.7414 2.8284,14.3037 1.9594,15.7334 A1.6405,1.6405 0 0 1 -1.1937,14.8261 T-0.9472,14.0749 0.4164,11.9187 2.9195,9.2829 5.562,6.7914 5.7743,4.6239 3.4701,3.1559 0.8102,2.0339 -0.5896,1.4729 A1.5865,1.5865 0 0 1 0.5896,-1.4729 ZM1.6955,14.2957 T2.2496,14.9984 4.3401,16.304 8.2641,17.0296 12.4465,17.2272 14.2414,17.3022 A1.6784,1.6784 0 0 1 14.1586,20.6578 T12.3621,20.6441 8.9024,20.6224 5.3937,20.3337 1.8937,18.9746 -0.3453,17.08 -0.9298,16.2637 A1.6405,1.6405 0 0 1 1.6955,14.2957 Z" stroke-linecap="round" fill="#ffc034"/></g></g><g transform="matrix(1, 0, 0, 1, 2461.2573, 30069.2878) scale(0.2503887994196496, 0.2503887994196496)" opacity="1"><g transform="scale(3.9937888688223953)"><path d="M0.5381,-1.3442 T1.9497,-0.8162 5.709,0.0839 10.4118,0.0778 12.7667,-0.3004 A1.5002,1.5002 0 0 1 13.2533,2.6604 T11.9044,2.9016 9.1285,3.3665 6.3732,3.4144 3.642,2.8844 0.8505,1.9372 -0.5381,1.3442 A1.4479,1.4479 0 0 1 0.5381,-1.3442 Z" stroke-linecap="round" fill="#f2f2f2"/></g></g><g transform="matrix(1, 0, 0, 1, 2460.0724, 30081.1362) scale(0.2503887994196496, 0.2503887994196496)" opacity="1"><g transform="scale(3.9937888688223953)"><path d="M0.7182,-1.4334 T1.8457,-0.8994 5.0355,-0.0401 9.5222,0.494 11.9465,0.7028 A1.6712,1.6712 0 0 1 11.7135,4.0372 T10.404,3.9657 6.6036,3.6328 2.807,2.9893 0.3916,2.0204 -0.7182,1.4334 A1.6032,1.6032 0 0 1 0.7182,-1.4334 Z" stroke-linecap="round" fill="#f2f2f2"/></g></g><g transform="matrix(1, 0, 0, 1, 2529.9782, 30045.5909) scale(0.2503887994196496, 0.2503887994196496)" opacity="1"><g transform="scale(3.9937888688223953)"><path d="M0.4988,1.2459 T-0.9015,1.8038 -3.9958,3.4396 -6.5451,5.6945 -7.1839,8.3977 -5.9671,10.9748 -3.4488,13.4422 -0.6903,16.0801 1.2536,18.4577 1.8725,21.259 0.702,24.5166 -1.7855,26.6669 -5.3195,27.3362 -9.9473,27.1932 -14.0761,26.3606 -17.1087,24.7001 -19.1949,23.0035 -19.8818,22.4091 A1.3987,1.3987 0 0 1 -18.0782,20.2709 T-17.3765,20.8479 -15.023,22.5926 -11.7429,24.1543 -7.9783,24.5066 -4.0733,24.2544 -1.3646,22.7327 -1.1339,19.8767 -3.0932,17.109 -5.619,14.8874 -7.9491,12.7763 -9.7531,10.4229 -10.1792,7.5011 -8.5468,4.0847 -5.2683,1.1149 -1.8987,-0.6828 -0.4988,-1.2459 A1.342,1.342 0 0 1 0.4988,1.2459 Z" stroke-linecap="round" fill="#f76707"/></g></g><g transform="matrix(1, 0, 0, 1, 2497.9874, 30040.8516) scale(0.2503887994196496, 0.2503887994196496)" opacity="1"><g transform="scale(3.9937888688223953)"><path d="M1.5398,-1.4452 T2.6633,-1.1614 5.8317,0.1173 9.1715,2.3656 11.1231,5.4754 11.0929,9.2336 9.2497,12.121 6.4274,14.0414 4.1385,15.5185 3.5155,16.0609 A1.464,1.464 0 0 1 1.6888,13.7727 T3.3525,12.8399 6.4406,10.7293 8.2568,8.0141 7.5809,5.1072 4.7851,2.8658 1.9387,1.7195 0.8202,1.4452 A1.4893,1.4893 0 0 1 1.5398,-1.4452 ZM3.8796,14.2017 T4.054,14.558 5.5496,15.8696 8.0356,17.9482 9.8493,20.6187 9.6806,23.7482 7.4057,26.3054 4.199,28.237 0.5772,29.4599 -3.5032,29.4489 -7.4629,27.5155 -9.2145,25.8594 A1.3465,1.3465 0 0 1 -7.3455,23.9206 T-5.4621,25.4041 -1.6879,26.7728 1.5377,26.3695 4.2835,24.9529 6.4247,22.4655 6.0439,20.0353 3.4027,17.7426 1.5986,16.0765 1.3247,15.6319 A1.464,1.464 0 0 1 3.8796,14.2017 Z" stroke-linecap="round" fill="#f76707"/></g></g><g transform="matrix(1, 0, 0, 1, 2534.7175, 30026.6335) scale(0.2503887994196496, 0.2503887994196496)" opacity="1"><g transform="scale(3.9937888688223953)"><path d="M0.8862,-1.4741 T2.2858,-1.7557 5.8469,-1.9812 9.4562,-1.2526 11.113,1.5339 10.3386,5.1553 8.0398,7.7737 5.7016,9.762 4.679,10.6392 A1.525,1.525 0 0 1 2.6539,8.3585 T4.3212,7.1412 6.8953,4.8308 7.5409,2.3822 5.7772,0.9739 2.8743,1.1975 1.4738,1.4741 A1.5031,1.5031 0 0 1 0.8862,-1.4741 ZM4.2808,8.103 T5.0778,8.4541 7.8245,9.3313 11.5051,10.3707 14.0296,11.2698 14.8232,11.6555 A1.491,1.491 0 0 1 13.5768,14.3645 T12.7675,14.0127 10.5886,13.3152 7.2278,12.4124 4.1443,11.3749 3.0522,10.8946 A1.525,1.525 0 0 1 4.2808,8.103 Z" stroke-linecap="round" fill="#f76707"/></g></g><g transform="matrix(1, 0, 0, 1, 2488.5087, 30089.4301) scale(0.2503887994196496, 0.2503887994196496)" opacity="1"><g transform="scale(3.9937888688223953)"><path d="M0,-1.7134 T1.4001,-1.7026 5.526,-1.3977 10.1158,-0.9056 13.346,-0.6789 16.2783,-0.6352 19.5104,-0.6175 22.8942,-0.6157 26.3568,-0.6156 30.1389,-0.6109 34.2587,-0.8646 38.2673,-1.5222 41.8786,-2.134 44.873,-2.7 47.7641,-3.48 49.3463,-3.9056 A1.5957,1.5957 0 0 1 50.2137,-0.8344 T48.6427,-0.3694 45.5505,0.5404 42.4717,1.2224 38.8492,1.9107 34.4806,2.6608 30.1361,2.9602 26.3474,2.9553 22.8759,2.9371 19.4745,2.9043 16.2038,2.8563 13.1693,2.7752 9.617,2.4711 5.1533,1.9558 1.4001,1.7026 0,1.7134 A1.7134,1.7134 0 0 1 0,-1.7134 Z" stroke-linecap="round" fill="#f76707"/></g></g><g transform="matrix(1, 0, 0, 1, 2506.2813, 30100.0937) scale(0.2503887994196496, 0.2503887994196496)" opacity="1"><g transform="scale(3.9937888688223953)"><path d="M1.3189,0.6608 T0.7497,1.7741 -0.5391,4.7322 -1.5569,8.1676 -0.7263,11.2917 1.8566,13.2018 5.0322,13.4472 8.1821,12.922 10.4265,12.1569 11.2424,11.7858 A1.3579,1.3579 0 0 1 12.4176,14.2342 T10.7055,15.0633 6.8989,16.2868 2.8514,16.3641 -1.2082,14.7089 -4.0107,11.4302 -4.3053,7.4697 -3.1631,3.5186 -1.8707,0.4632 -1.3189,-0.6608 A1.4752,1.4752 0 0 1 1.3189,0.6608 Z" stroke-linecap="round" fill="#f76707"/></g></g><g transform="matrix(1, 0, 0, 1, 2518.1297, 30103.6482) scale(0.2503887994196496, 0.2503887994196496)" opacity="1"><g transform="scale(3.9937888688223953)"><path d="M1.5963,0 T1.5769,1.4001 1.5631,5.6187 1.5784,9.8023 1.3125,12.8742 0.9088,16.1785 0.4103,19.341 -0.2508,23.6071 -0.6744,28.0148 -0.8072,29.7216 A1.5661,1.5661 0 0 1 -3.9328,29.5184 T-3.8435,27.8088 -3.672,24.5005 -3.3851,21.503 -2.8328,18.7927 -2.3192,15.7477 -1.8706,12.5864 -1.5784,9.798 -1.5631,5.6187 -1.5769,1.4001 -1.5963,0 A1.5963,1.5963 0 0 1 1.5963,0 Z" stroke-linecap="round" fill="#f76707"/></g></g><g transform="matrix(1, 0, 0, 1, 2304.858, 30177.1085) scale(0.2503887994196496, 0.2503887994196496)" opacity="1"><g transform="scale(3.9937888688223953)"><path d="M1.3705,0.6867 T0.8089,1.807 -0.6754,4.1934 -2.7137,6.4656 -5.2424,8.5425 -7.8899,10.6875 -10.6822,12.9542 -13.564,15.2855 -16.1388,17.5847 -18.6962,19.6938 -21.6088,22.3812 -24.0855,25.0246 -24.9564,25.9292 A1.5232,1.5232 0 0 1 -27.1836,23.8508 T-25.5976,22.0928 -22.9651,19.185 -20.7579,17.1879 -18.2928,15.1519 -15.5825,12.772 -12.6811,10.4697 -9.8579,8.2343 -7.199,6.1267 -4.1786,3.3454 -1.9299,0.4303 -1.3705,-0.6867 A1.533,1.533 0 0 1 1.3705,0.6867 Z" stroke-linecap="round" fill="#ffc034"/></g></g><g transform="matrix(1, 0, 0, 1, 2284.7157, 30178.2933) scale(0.2503887994196496, 0.2503887994196496)" opacity="1"><g transform="scale(3.9937888688223953)"><path d="M1.0778,-1.436 T2.1808,-0.5756 4.9489,1.7246 8.1791,4.789 11.5319,8.0324 14.2221,10.8087 16.5212,13.8496 19.146,17.5471 21.0399,20.4633 21.7053,21.5655 A1.8163,1.8163 0 0 1 18.6147,23.4745 T17.3632,21.4897 14.8653,17.7256 12.2083,14.1148 9.1432,10.7081 5.8927,7.4298 2.7438,4.4001 0.0565,2.2547 -1.0778,1.436 A1.7955,1.7955 0 0 1 1.0778,-1.436 Z" stroke-linecap="round" fill="#ffc034"/></g></g><g transform="matrix(1, 0, 0, 1, 2454.1482, 30179.4782) scale(0.2503887994196496, 0.2503887994196496)" opacity="1"><g transform="scale(3.9937888688223953)"><path d="M0.5817,-1.1633 T2.2861,-0.3751 5.8833,1.0026 9.7291,1.0766 12.7113,0.2223 13.7404,-0.1166 A1.3757,1.3757 0 0 1 14.6596,2.4766 T12.5854,3.2459 8.8388,4.2419 4.9463,3.707 1.0722,2.0543 -0.5817,1.1633 A1.3006,1.3006 0 0 1 0.5817,-1.1633 Z" stroke-linecap="round" fill="#f2f2f2"/></g></g><g transform="matrix(1, 0, 0, 1, 2455.3331, 30192.5114) scale(0.2503887994196496, 0.2503887994196496)" opacity="1"><g transform="scale(3.9937888688223953)"><path d="M0.3039,-0.3316 T1.7109,-0.0873 4.6103,0.2896 7.8577,0.5843 9.6129,0.7464 A1.6308,1.6308 0 0 1 9.3071,3.9936 T7.5525,3.8252 4.1402,3.4927 1.0892,3.0101 -0.3039,2.6916 A1.5419,1.5419 0 0 1 0.3039,-0.3316 Z" stroke-linecap="round" fill="#f2f2f2"/></g></g><g transform="matrix(1, 0, 0, 1, 2492.6556, 30171.7767) scale(0.2503887994196496, 0.2503887994196496)" opacity="1"><g transform="scale(3.9937888688223953)"><path d="M1.2875,-0.6451 T1.8505,0.4733 2.9323,3.3732 4.0244,7.0237 4.7967,11.4907 4.9956,14.0888 A1.4498,1.4498 0 0 1 2.1044,14.3112 T1.9977,13.0158 1.7038,10.2194 1.0559,7.2373 0.2118,4.3194 -0.7295,1.764 -1.2875,0.6451 A1.4401,1.4401 0 0 1 1.2875,-0.6451 Z" stroke-linecap="round" fill="#f76707"/></g></g><g transform="matrix(1, 0, 0, 1, 2497.395, 30184.81) scale(0.2503887994196496, 0.2503887994196496)" opacity="1"><g transform="scale(3.9937888688223953)"><path d="M0,-1.2514 T0.2791,-1.2504 0.5581,-1.2493 A1.2493,1.2493 0 0 1 0.5581,1.2493 T0.2791,1.2504 0,1.2514 A1.2514,1.2514 0 0 1 0,-1.2514 ZM-0.6503,-0.3171 T-0.5013,-0.8765 0.0687,-2.9308 1.0238,-6.5158 2.2544,-11.0989 3.3789,-14.9965 4.3133,-17.7015 5.1693,-21.27 5.8865,-25.0858 6.6483,-28.2746 7.0425,-29.9155 A1.2723,1.2723 0 0 1 9.5175,-29.3245 T9.1279,-27.6826 8.2485,-23.3806 7.4629,-19.4003 6.2823,-15.624 4.6485,-10.4925 3.3567,-5.692 2.4355,-2.1866 1.9117,-0.2445 1.7666,0.3171 A1.2493,1.2493 0 0 1 -0.6503,-0.3171 Z" stroke-linecap="round" fill="#f76707"/></g></g><g transform="matrix(1, 0, 0, 1, 2512.7979, 30165.8525) scale(0.2503887994196496, 0.2503887994196496)" opacity="1"><g transform="scale(3.9937888688223953)"><path d="M0,-1.5492 T1.4001,-1.5421 5.2001,-1.5346 9.9639,-0.2857 12.7081,2.8451 11.6928,6.2311 9.8137,8.1187 9.3303,8.5027 A1.5527,1.5527 0 0 1 7.4122,6.0605 T8.7514,4.5221 8.8303,2.2589 5.185,1.5346 1.4001,1.5421 0,1.5492 A1.5492,1.5492 0 0 1 0,-1.5492 ZM9.9225,7.3465 T9.8983,7.8616 11.0007,9.4942 13.1989,11.8785 14.0991,15.3118 12.054,18.2179 8.0652,19.1076 3.7144,18.9594 -0.5082,17.6059 -3.3906,15.9614 -4.2865,15.372 A1.3842,1.3842 0 0 1 -2.8135,13.028 T-1.8939,13.5795 0.7016,14.9388 4.096,15.9335 7.6385,16.008 10.8694,15.5351 11.3413,14.1615 9.067,12.101 7.2551,9.6504 6.801,7.7319 6.8199,7.2166 A1.5527,1.5527 0 0 1 9.9225,7.3465 Z" stroke-linecap="round" fill="#f76707"/></g></g><g transform="matrix(1, 0, 0, 1, 2506.8737, 30152.8192) scale(0.2503887994196496, 0.2503887994196496)" opacity="1"><g transform="scale(3.9937888688223953)"><path d="M0.3294,-1.6525 T1.7292,-1.3732 5.2905,-0.8867 9.3151,-0.6252 13.6983,-0.5599 18.2003,-0.5435 22.4764,-0.5271 26.5808,0.7858 29.0403,4.0292 29.8253,7.7937 29.9779,11.8436 29.976,15.9742 29.9439,19.0163 29.9306,20.1548 A1.4906,1.4906 0 0 1 26.9494,20.1652 T26.9282,19.0268 26.8675,15.9975 26.7709,11.9397 26.582,8.1694 25.7981,4.8997 23.776,3.0629 20.2394,2.8902 15.8911,2.8764 11.5479,2.8258 7.294,2.6587 3.8365,2.3705 1.071,1.9314 -0.3294,1.6525 A1.685,1.685 0 0 1 0.3294,-1.6525 Z" stroke-linecap="round" fill="#f76707"/></g></g><g transform="matrix(1, 0, 0, 1, 2563.7462, 30164.6676) scale(0.2503887994196496, 0.2503887994196496)" opacity="1"><g transform="scale(3.9937888688223953)"><path d="M0.633,1.2633 T-0.491,1.8151 -3.1867,3.0658 -6.0332,4.6662 -7.366,7.1594 -5.9804,10.237 -2.9954,12.4266 0.3438,14.3232 3.1955,16.825 3.7393,20.0068 1.1416,23.1538 -3.2241,25.1477 -6.8995,25.7212 -9.5836,25.18 -12.3333,24.2874 -15.4011,23.2303 -18.7923,22.0556 -20.5787,21.4407 A1.3474,1.3474 0 0 1 -19.7413,18.8793 T-17.9367,19.4386 -14.514,20.4918 -11.4292,21.429 -8.02,22.3657 -3.9979,22.2085 -0.6253,20.9676 0.3968,18.9874 -1.2913,16.642 -4.4524,14.8378 -7.6702,12.5731 -9.8211,9.4101 -9.9429,5.7437 -7.77,2.6112 -4.5059,0.6365 -1.7462,-0.6941 -0.633,-1.2633 A1.413,1.413 0 0 1 0.633,1.2633 Z" stroke-linecap="round" fill="#f76707"/></g></g><g transform="matrix(1, 0, 0, 1, 2493.8405, 30200.2129) scale(0.2503887994196496, 0.2503887994196496)" opacity="1"><g transform="scale(3.9937888688223953)"><path d="M0,-1.6569 T1.1305,-1.6418 4.2526,-1.185 7.9674,-0.639 11.0433,-0.5213 15.1832,-0.5095 19.6069,-0.5178 22.9452,-0.5279 26.3838,-0.5375 29.8751,-0.5423 33.1128,-0.5428 36.2167,-0.5434 39.2526,-0.5412 42.2601,-0.5393 45.3941,-0.8053 48.435,-1.2261 51.5816,-1.4574 54.9329,-1.5735 58.374,-1.6316 61.8656,-1.6605 65.1026,-1.672 67.9268,-1.6716 71.7736,-1.6566 75.7712,-1.6308 78.6087,-1.5921 81.4516,-1.5431 82.9497,-1.5196 A1.5196,1.5196 0 0 1 82.9503,1.5196 T81.4521,1.5437 78.6094,1.5936 75.7728,1.6338 71.7787,1.6656 67.9376,1.6919 65.1204,1.7106 61.8978,1.7338 58.4365,1.7706 55.0568,1.8372 51.8378,1.9578 48.8897,2.1756 45.679,2.6071 42.2638,2.8991 39.2523,2.9007 36.2163,2.9025 33.112,2.9012 29.8738,2.8994 26.3813,2.8918 22.9403,2.8771 19.597,2.8575 15.1509,2.8083 10.9506,2.7423 7.6699,2.5802 3.9982,2.0373 1.1068,1.6418 0,1.6569 A1.6569,1.6569 0 0 1 0,-1.6569 Z" stroke-linecap="round" fill="#f76707"/></g></g><g transform="matrix(1, 0, 0, 1, 2516.3525, 30217.9856) scale(0.2503887994196496, 0.2503887994196496)" opacity="1"><g transform="scale(3.9937888688223953)"><path d="M0.8821,-1.4944 T2.2834,-1.7688 5.0429,-2.2014 8.8549,-2.1896 13.2687,-0.9472 15.918,1.9778 15.9086,5.713 14.0922,8.954 11.3445,11.2444 8.4494,13.1557 6.014,14.2055 6.4223,14.8825 9.5211,15.6979 13.1818,15.9523 17.4796,16.0232 21.0836,16.0639 22.5303,16.0792 A1.7108,1.7108 0 0 1 22.5097,19.5008 T19.7549,19.4978 14.9708,19.4308 10.7451,19.1548 6.8801,18.3527 3.9155,17.0473 3.9317,14.0659 6.7698,10.6409 9.9948,8.301 12.6261,5.6819 13.0175,2.9762 10.8041,1.1125 6.7036,0.7217 2.8768,1.2106 1.4779,1.4944 A1.5238,1.5238 0 0 1 0.8821,-1.4944 Z" stroke-linecap="round" fill="#f76707"/></g></g><g transform="matrix(1, 0, 0, 1, 2191.1131, 29590.6114) scale(0.2503887994196496, 0.2503887994196496)" opacity="1"><g transform="scale(3.9937888688223953)"><path d="M0.2478,-1.2432 T1.6469,-0.9603 5.2313,-0.4581 9.569,-0.1791 13.7668,-0.1043 17.6615,-0.0878 21.8667,-0.0883 26.7323,-0.097 30.7315,-0.1068 33.5674,-0.1119 36.3197,0.1783 40.062,0.674 44.9193,1.23 48.8196,1.7208 52.7474,1.9783 57.7084,2.129 61.5912,2.1656 65.512,1.9104 70.7977,1.4107 74.9944,1.1294 78.8713,1.0516 83.7935,1.0022 87.6717,0.9852 91.739,0.9776 96.7646,0.9716 100.6687,0.9687 103.4908,0.9672 107.3361,0.9612 112.243,0.9503 115.9995,1.2388 119.602,1.7348 124.1917,1.9897 128.8833,2.054 133.6143,2.0661 138.3626,2.065 143.1097,2.0621 146.833,2.3584 150.6966,2.8604 155.7744,3.1207 160.7597,3.19 165.5791,3.2058 170.3519,3.2075 174.191,3.2064 178.2474,3.2047 183.2682,3.2031 188.0802,3.2018 192.8353,3.2009 197.5904,3.2003 202.3454,3.1998 207.0847,3.1995 211.8173,3.1992 216.5492,3.199 221.281,3.1989 225.1207,3.1988 227.9323,3.1988 231.7588,3.1987 236.9276,3.1987 240.9482,3.1991 243.7157,3.4987 246.558,3.9317 250.5483,4.1791 254.6291,4.3116 257.4922,4.3401 261.633,4.3561 265.7729,4.3632 268.6859,4.3642 271.7734,4.6584 275.9917,5.1619 280.023,5.4113 284.1469,5.4832 288.2859,5.521 292.151,5.5316 296.0059,5.271 298.7558,4.8503 302.7112,4.5727 307.6869,4.4172 312.4899,4.3747 316.8236,4.363 320.85,4.1007 325.3928,3.5935 329.8283,3.2816 334.0511,3.1994 338.3641,3.1769 342.5518,3.1706 346.7172,3.1689 351.3096,3.1684 355.3655,3.1683 358.2127,3.1683 361.9143,3.1682 366.3484,3.1661 370.5701,3.1607 374.7328,3.155 378.7652,3.1509 383.3195,3.1474 387.3541,3.1458 391.2368,2.7223 394.965,2.2179 397.8503,2.0948 400.7708,2.0305 404.6594,1.9908 408.8917,1.9649 412.7807,1.9549 416.5933,1.5308 419.7888,0.9811 423.5068,0.8178 428.5323,0.7714 432.7675,0.7585 436.4873,0.4927 440.9449,-0.0158 445.0737,-0.3261 449.3546,-0.4067 453.5795,-0.8502 457.0518,-1.623 460.5323,-2.2803 464.6271,-2.6698 468.8096,-2.4125 473.0993,-1.8016 475.3279,-1.5246 A1.5361,1.5361 0 0 1 474.9521,1.5246 T473.6533,1.3833 470.9616,1.0538 468.1959,0.681 464.8454,0.5631 461.3235,0.8325 457.8529,1.4883 453.8111,2.3752 449.4358,2.8286 445.2342,2.909 441.422,3.1784 436.8464,3.6891 432.7728,3.9922 428.5556,4.001 423.6212,4.0386 420.1248,4.178 416.8678,4.7182 412.8171,5.1498 408.9028,5.1522 404.6922,5.1705 400.8385,5.2085 396.7235,5.3431 391.4154,5.8854 387.3671,6.3142 383.3195,6.3126 378.7652,6.3091 374.7328,6.305 370.5701,6.2993 366.3484,6.2939 361.9143,6.2918 358.2128,6.2918 355.3656,6.2918 351.3099,6.292 346.7181,6.2924 342.5554,6.2941 338.3753,6.3003 334.0922,6.3225 329.965,6.4011 325.8682,6.6685 322.3398,7.1779 318.8502,7.4832 314.598,7.4899 310.1337,7.5117 305.3584,7.5896 300.4424,7.8622 296.2949,8.3652 292.147,8.6514 288.2674,8.6403 284.0885,8.6003 279.8965,8.5245 276.9546,8.4004 272.809,7.8949 268.677,7.4701 265.7677,7.4659 261.6168,7.4513 257.4572,7.426 253.2651,7.3437 249.0563,7.1941 246.0767,6.9507 242.0437,6.5246 236.9276,6.2613 231.7588,6.2613 227.9323,6.2612 225.1207,6.2612 221.281,6.2611 216.5492,6.261 211.8173,6.2608 207.0847,6.2605 202.3454,6.2602 197.5904,6.2597 192.8353,6.2591 188.0802,6.2581 183.2681,6.2567 178.2471,6.2546 173.0031,6.2508 167.9655,6.2436 163.1639,6.2267 158.2476,6.1767 154.3997,6.0944 150.2761,5.8048 145.3038,5.2987 140.7344,5.0341 135.977,5.0248 131.2217,5.0047 126.466,4.9505 121.6495,4.7803 116.9262,4.2227 112.2344,3.7897 107.3362,3.7789 103.4909,3.7731 100.6689,3.7718 96.7652,3.7697 91.7411,3.7671 86.4822,3.7666 81.3902,3.7796 76.3677,3.8519 71.1612,4.1187 67.1412,4.6173 64.3915,4.905 60.3615,4.879 55.1572,4.7847 51.2757,4.6233 47.2915,4.0703 42.2085,3.4734 37.3225,2.907 33.5606,2.4716 30.7313,2.4663 26.7318,2.4556 22.8582,2.446 19.6775,2.4383 15.9346,2.4198 11.7061,2.3728 7.3271,2.2185 3.9025,1.9459 1.1532,1.5184 -0.2478,1.2432 A1.2676,1.2676 0 0 1 0.2478,-1.2432 Z" stroke-linecap="round" fill="#f2f2f2"/></g></g><g transform="matrix(1, 0, 0, 1, 2432.8211, 29276.628) scale(0.2503887994196496, 0.2503887994196496)" opacity="1"><g transform="scale(3.9937888688223953)"><path d="M0,-1.201 T0.2791,-1.2003 0.5581,-1.1996 A1.1996,1.1996 0 0 1 0.5581,1.1996 T0.2791,1.2003 0,1.201 A1.201,1.201 0 0 1 0,-1.201 ZM-0.5263,0.5129 T-0.6571,0.2333 -0.9336,-0.3579 -1.0794,-0.6694 A1.1941,1.1941 0 0 1 1.0794,-1.6906 T1.2278,-1.3802 1.5094,-0.7914 1.6426,-0.5129 A1.1996,1.1996 0 0 1 -0.5263,0.5129 Z" stroke-linecap="round" fill="#f2f2f2"/></g></g><g transform="matrix(1, 0, 0, 1, 2431.6362, 29275.4432) scale(0.2503887994196496, 0.2503887994196496)" opacity="1"><g transform="scale(3.9937888688223953)"><path d="M1.2379,0.7423 T0.3924,2.139 -1.8403,5.6475 -4.5246,9.4384 -6.6458,12.2786 -8.5247,14.8149 -10.7291,17.4208 -12.9811,20.0257 -15.3197,22.8878 -17.6696,25.8226 -19.9499,28.96 -22.2912,32.402 -24.6279,36.3202 -26.7879,39.5353 -29.0755,42.5699 -31.9341,46.9334 -34.179,50.6495 -35.8679,53.4098 -37.6018,56.2703 -39.3534,59.1751 -41.1477,61.8813 -42.6041,64.3381 -44.2871,66.8537 -46.0082,69.2975 -47.7084,71.9206 -49.7852,74.8021 -51.6968,77.4213 -53.5056,80.1443 -55.2704,83.1969 -57.0761,86.2617 -58.8959,89.0502 -60.6591,91.8665 -62.7688,94.8406 -64.6967,97.4951 -66.5079,100.2371 -68.3025,103.0778 -70.1287,105.7652 -72.2415,108.6242 -74.1449,111.4391 -75.985,114.3253 -78.1332,117.3335 -80.4308,120.0921 -82.7139,122.8821 -84.6594,125.8918 -86.5694,128.9373 -88.7467,132.021 -91.016,135.0538 -93.328,138.0622 -95.6682,141.0483 -98.0193,144.0195 -100.334,147.2089 -103.0202,150.6381 -105.8452,154.1262 -108.4014,157.5776 -110.8675,161.0739 -113.3231,164.3759 -115.7401,167.5227 -118.1395,170.5814 -120.52,173.5923 -122.8914,176.5795 -125.2585,179.5533 -127.5874,182.7433 -129.98,185.8749 -132.4168,188.7018 -134.8378,191.315 -137.2351,193.8091 -139.565,196.4672 -141.9122,199.273 -143.9801,201.853 -145.9147,204.3355 -148.1218,206.8391 -150.4053,209.2714 -152.3831,211.5919 -154.2683,213.9381 -156.519,216.159 -159.1566,219.1318 -161.671,222.1103 -164.4424,225.1657 -167.599,229.0317 -170.0965,231.7802 -172.5278,234.4354 -174.8566,237.1544 -177.5442,239.9459 -180.6973,243.4195 -183.1477,246.0281 -185.9312,248.732 -189.0161,252.41 -191.3983,255.286 -193.8265,258.0338 -196.7993,261.4836 -199.8217,264.6336 -203.2968,267.8661 -206.7724,271.2911 -209.5067,274.3076 -212.1231,277.4203 -214.5582,280.4239 -216.7865,283.2396 -219.1085,286.1518 -221.0147,288.66 -223.3112,291.7465 -225.8533,294.6438 -227.7888,297.1342 -229.9543,299.7553 -231.8365,302.1248 -233.5431,305.5349 -235.095,308.7872 -235.6501,309.894 A1.482,1.482 0 0 1 -238.3099,308.586 T-237.2929,306.4732 -235.515,302.8332 -234.0266,300.0424 -231.9413,297.1557 -229.2342,294.2017 -226.8605,291.7686 -224.9954,289.3634 -223.3444,286.7694 -221.3939,284.2184 -219.0616,281.3003 -216.8496,278.5102 -214.9993,276.1074 -212.9377,273.5729 -210.3534,270.856 -207.0842,267.6413 -203.5739,264.2813 -200.3368,260.9955 -197.3978,257.8371 -194.4356,254.5433 -192.0354,251.5874 -189.5531,248.6833 -186.1326,245.1627 -182.9102,241.5516 -179.6466,237.9256 -176.3753,234.4277 -173.1454,230.9166 -169.9287,227.1925 -167.4391,224.1781 -164.802,221.2711 -162.3334,218.2631 -159.5892,215.1382 -156.6343,212.0388 -154.7075,209.6343 -152.6379,207.1855 -150.4276,204.8133 -148.3529,202.4455 -146.408,199.9295 -144.3006,197.2791 -141.9115,194.4054 -139.4993,191.6359 -137.1435,189.18 -134.7998,186.6459 -132.4855,183.9597 -130.144,180.8756 -127.7353,177.5755 -125.3667,174.6067 -122.9974,171.6308 -120.6276,168.6311 -118.2585,165.5889 -115.8725,162.4723 -113.4685,159.2385 -110.9585,155.6823 -108.318,152.124 -105.5273,148.6834 -102.9069,145.3375 -100.5103,142.0433 -98.167,139.0844 -95.8448,136.1223 -93.5551,133.1481 -91.3376,130.187 -89.2555,127.2465 -87.3283,124.1652 -85.1791,120.8625 -82.8785,118.0471 -80.7238,115.4736 -78.6689,112.6092 -76.7787,109.6654 -74.7901,106.7313 -72.7487,103.9857 -70.9823,101.3874 -69.1462,98.4886 -67.2542,95.644 -65.3327,93.0113 -63.324,90.1979 -61.5268,87.3368 -59.7768,84.6655 -57.9949,81.6244 -56.1384,78.3956 -54.253,75.5627 -52.3411,72.953 -50.3487,70.2024 -48.5728,67.4879 -46.8842,65.1168 -45.2833,62.7414 -43.7397,60.1624 -42.0043,57.5676 -40.2446,54.6589 -38.5018,51.7924 -36.7799,48.9988 -35.1235,46.3692 -33.6434,44.1361 -32.2903,41.8088 -30.0193,38.8446 -27.2479,34.815 -24.8521,30.8302 -22.4633,27.3494 -20.0133,24.025 -17.6324,21.0897 -15.238,18.2022 -12.8789,15.4838 -10.9119,13.2334 -9.03,10.7146 -6.8418,7.7843 -4.2844,4.1747 -2.0716,0.6611 -1.2379,-0.7423 A1.4434,1.4434 0 0 1 1.2379,0.7423 Z" stroke-linecap="round" fill="#f2f2f2"/></g></g><g transform="matrix(1, 0, 0, 1, 2435.1907, 29275.4432) scale(0.2503887994196496, 0.2503887994196496)" opacity="1"><g transform="scale(3.9937888688223953)"><path d="M1.2361,-0.8252 T1.7874,0.0202 3.4329,2.1839 5.3151,4.7939 6.7534,7.305 8.0678,10.0929 9.7111,13.4095 11.4113,16.5232 13.0241,19.3782 14.8578,22.3917 16.8301,25.493 18.5981,28.3849 20.0364,31.3038 21.5087,34.3609 23.4531,37.6286 26.0456,41.4145 28.539,44.6941 30.8539,47.6143 33.2904,50.9514 35.8965,54.7826 38.0913,58.0971 39.7708,60.3938 41.4985,62.7209 43.2495,65.0653 45.2225,67.3171 47.1914,69.7205 49.127,72.4681 51.1952,75.2361 53.3522,77.7444 55.6612,80.5311 58.0024,83.3994 60.3014,85.9598 62.6283,88.4243 64.8939,90.4848 67.0169,92.4929 69.1193,95.0968 71.2639,97.7791 73.4556,100.2372 75.74,102.6634 78.1356,105.4205 80.3127,108.3674 82.2917,111.3152 84.3852,114.1727 86.5584,116.7356 88.6557,119.6492 90.6479,122.9229 92.704,125.8866 94.9061,128.8532 97.1836,131.83 99.503,134.8092 101.63,137.8698 103.5864,140.8796 105.6779,143.7664 107.9168,146.6868 110.2215,149.6303 112.3374,152.6729 114.3378,156.0124 116.4476,159.356 118.6429,162.4689 120.875,165.1774 122.9978,168.1586 124.962,171.1181 127.0581,173.9781 129.3301,177.2313 131.6033,180.2799 133.7081,183.377 135.6667,186.3959 137.7167,188.9449 139.7543,191.8612 141.6717,194.8065 143.6753,197.3189 145.896,200.1161 148.1859,202.9953 150.5089,205.9123 152.8511,208.8485 154.9454,211.5388 156.8876,214.0693 158.9535,216.4247 160.9644,218.884 162.6693,221.4056 164.3297,223.7585 166.046,226.1254 167.5995,228.6057 168.983,231.0334 171.2413,234.0843 174.0989,237.3998 176.6111,240.626 179.0088,243.653 181.4304,246.5405 183.7247,250.0826 185.562,253.2149 187.3209,255.8638 189.5812,258.8801 191.9148,261.8548 194.1604,265.0623 196.5367,268.126 198.3817,270.5726 200.35,273.2233 202.6467,275.9052 204.9221,278.2677 207.0129,280.6613 208.75,283.2622 210.8701,285.6412 212.9323,287.8662 214.9674,290.2833 217.1781,292.5626 219.3294,294.7647 221.6587,297.0891 223.6865,299.5376 225.4224,302.1708 227.6158,305.0438 230.047,307.7428 232.3553,310.2384 234.094,312.0497 234.6562,312.554 A1.8731,1.8731 0 0 1 232.2038,315.386 T231.1782,314.5263 229.2531,312.6511 227.1797,310.46 224.8583,307.9997 222.5246,304.9582 220.0958,301.525 217.6929,298.663 215.4092,296.2971 213.29,293.7581 210.9739,290.9556 208.473,288.6123 206.0861,285.9513 203.6612,282.6097 201.1317,279.8749 198.7778,277.3523 196.5928,274.2592 194.2554,271.2444 191.8484,268.1724 189.3941,264.688 187.0168,261.6955 185.2072,259.2239 183.3682,256.5693 181.5207,253.4632 179.7192,250.2798 177.3866,247.4363 174.8911,244.5835 172.4156,241.4553 169.8484,238.0892 166.7832,234.0143 164.4141,230.5855 163.0091,228.3098 160.5794,224.7607 158.0846,221.2167 156.1634,218.857 153.9541,216.3135 152.0295,213.7933 149.9726,211.1541 147.6239,208.2228 145.2913,205.3104 142.9923,202.4416 140.7507,199.6451 138.5323,196.8477 136.6926,193.9988 134.7873,191.2696 132.5417,188.4196 130.6395,185.4479 128.6403,182.482 126.3125,179.3304 124.0991,176.1318 121.9296,173.1218 120.0537,170.2474 118.0761,167.4627 115.7049,164.5439 113.4105,161.2688 111.2554,157.8403 109.4082,154.7021 107.4094,151.8255 105.0928,148.8505 102.8077,145.8538 100.6051,142.8169 98.7034,139.8909 96.696,137.0014 94.3562,134.0037 92.0382,130.9882 89.7654,127.9336 87.5756,124.7763 85.7565,121.7396 83.8078,119.0516 81.4899,116.2986 79.3068,113.3143 77.416,110.4816 75.4365,107.7732 73.1309,105.1124 70.7849,102.6075 68.4804,99.9987 65.5702,96.3771 62.5334,93.086 60.0755,90.8301 57.6937,88.2904 55.3033,85.6004 52.9914,82.7513 50.7164,80.0023 48.4204,77.3111 46.2931,74.4579 44.5131,71.8975 42.6176,69.578 39.7583,66.0026 36.311,61.311 33.1012,56.7209 30.4266,52.7745 28.1598,49.6404 25.8409,46.6658 23.6165,43.6937 21.4177,40.4089 19.5606,37.2562 17.9356,34.1534 16.3453,31.1525 14.94,28.6164 13.1341,25.3721 11.0374,22.0017 9.3082,19.2445 7.8496,16.4389 6.1639,12.9644 4.516,9.3735 3.0513,6.5726 1.1217,3.9408 -0.6664,1.6589 -1.2361,0.8252 A1.4862,1.4862 0 0 1 1.2361,-0.8252 Z" stroke-linecap="round" fill="#f2f2f2"/></g></g><g transform="matrix(1, 0, 0, 1, 2432.8211, 29282.5523) scale(0.2503887994196496, 0.2503887994196496)" opacity="1"><g transform="scale(3.9937888688223953)"><path d="M1.2963,0 T1.2946,1.4062 0.8607,5.0032 0.317,9.4277 0.1863,13.1083 0.1475,17.1415 -0.1714,21.0918 -0.6817,24.7513 -0.932,28.4907 -1.0029,32.5179 -1.04,36.6022 -1.0454,39.4554 -1.0389,43.3264 -1.025,48.2528 -1.0097,53.0386 -0.998,56.8814 -0.9891,60.9388 -0.9818,65.0353 -0.9779,67.8921 -0.974,71.7585 -0.9701,76.6843 -0.9678,80.5686 -0.9664,83.6556 -0.9653,86.6801 -0.9645,89.6718 -0.9637,92.6485 -0.963,96.8568 -0.9624,101.0328 -0.957,105.2009 -0.9498,109.3675 -0.9462,112.2847 -0.9431,115.2198 -0.9407,118.1643 -0.9387,121.1162 -0.9371,124.0719 -0.9357,127.0272 -0.9378,129.9824 -0.9425,133.2308 -0.9462,136.3522 -0.949,139.3949 -0.9512,142.3985 -0.953,145.3815 -0.9545,148.3512 -0.9611,152.556 -0.9691,156.7302 -0.9732,159.6462 -0.9767,162.5829 -0.9794,165.5425 -0.9817,168.5118 -0.984,172.4349 -0.9814,177.6607 -0.9761,181.6938 -0.9733,184.5773 -0.9682,187.4946 -0.9644,190.4349 -1.254,193.5225 -1.7565,197.0706 -2.0303,201.3567 -2.1088,206.2331 -2.1295,210.4558 -2.1321,213.4693 -2.4248,216.3231 -2.9261,220.1265 -3.1937,224.4291 -3.269,228.6267 -3.2883,233.4955 -3.2924,238.6942 -3.2907,243.7016 -3.5934,248.2694 -4.102,252.9473 -4.3679,257.6469 -4.4476,261.9679 -4.4702,266.4326 -4.4768,271.0921 -4.4787,275.3764 -4.4766,278.6929 -4.7642,282.6042 -5.264,287.1387 -5.5309,290.9802 -5.5994,294.6052 -5.6104,297.8961 -5.6083,301.0926 -5.6107,304.5415 -5.649,308.3449 -5.7095,311.5926 -5.736,312.79 A1.364,1.364 0 0 1 -8.464,312.79 T-8.4904,311.5925 -8.5506,308.3446 -8.588,304.5404 -8.587,301.0882 -8.5726,297.8837 -8.5393,294.5651 -8.4484,290.8465 -8.1414,286.7466 -7.6337,282.3146 -7.3629,277.6599 -7.3595,273.1638 -7.3565,268.7463 -7.3451,264.1406 -7.3029,259.8625 -7.1471,255.2573 -6.8559,251.1633 -6.4291,247.8955 -6.168,243.701 -6.1628,238.692 -6.1583,234.6538 -6.1456,230.8797 -6.0998,226.3643 -5.9394,221.982 -5.3877,217.3284 -4.9571,213.4583 -4.9501,210.4472 -4.9412,207.3781 -4.9023,203.5705 -4.7445,198.9141 -4.1977,194.2975 -3.7756,190.4294 -3.7718,187.4946 -3.7667,184.5773 -3.7639,181.6938 -3.7586,177.6607 -3.756,172.4349 -3.7583,168.5118 -3.7606,165.5425 -3.7633,162.5829 -3.7668,159.6462 -3.7709,156.7302 -3.7789,152.556 -3.7855,148.3512 -3.787,145.3815 -3.7888,142.3985 -3.791,139.3949 -3.7938,136.3522 -3.7975,133.2308 -3.8022,129.9824 -3.8043,127.0272 -3.8029,124.0719 -3.8013,121.1162 -3.7993,118.1643 -3.7969,115.2198 -3.7938,112.2847 -3.7902,109.3675 -3.783,105.2009 -3.7776,101.0328 -3.777,96.8568 -3.7763,92.6485 -3.7755,89.6718 -3.7747,86.6801 -3.7736,83.6556 -3.7722,80.5686 -3.7698,76.6843 -3.766,71.7585 -3.762,67.8921 -3.7581,65.0353 -3.7508,60.9388 -3.7417,56.8813 -3.7296,53.0382 -3.7124,48.2516 -3.6919,43.3223 -3.6739,39.4469 -3.6483,35.3188 -3.6061,31.2028 -3.4553,27.1368 -2.8943,22.057 -2.4462,17.109 -2.4073,13.0436 -2.2583,9.2101 -1.713,4.819 -1.2946,1.394 -1.2963,0 A1.2963,1.2963 0 0 1 1.2963,0 Z" stroke-linecap="round" fill="#9398b0"/></g></g><g transform="matrix(1, 0, 0, 1, 2458.8876, 29327.5763) scale(0.2503887994196496, 0.2503887994196496)" opacity="1"><g transform="scale(3.9937888688223953)"><path d="M1.555,0.6133 T1.1956,1.4681 -0.1234,3.8348 -2.4975,7.3563 -5.5793,11.6423 -8.4073,14.9222 -10.7779,16.7378 -13.3296,18.0401 -16.9053,18.8868 -21.4338,19.3155 -24.9648,18.6985 -27.1385,17.3685 -28.0758,16.7274 A1.5326,1.5326 0 0 1 -26.4442,14.1326 T-25.4603,14.6996 -22.9912,15.6082 -19.6812,15.797 -15.8499,15.1712 -11.847,13.2407 -8.9583,10.7002 -7.288,8.4414 -5.1383,5.3317 -2.8596,1.9526 -1.7538,-0.0529 -1.555,-0.6133 A1.6716,1.6716 0 0 1 1.555,0.6133 Z" stroke-linecap="round" fill="#e599f7"/></g></g><g transform="matrix(1, 0, 0, 1, 2441.115, 29358.3822) scale(0.2503887994196496, 0.2503887994196496)" opacity="1"><g transform="scale(3.9937888688223953)"><path d="M-0.2549,-1.5335 T1.4369,-1.8069 5.3756,-1.1509 8.8759,1.5745 10.4607,5.0079 10.0495,8.3905 8.0416,11.2697 6.7187,12.6222 6.661,12.8407 A1.5382,1.5382 0 0 1 4.0656,11.1891 T4.9448,10.3343 6.7567,8.2013 7.2817,5.1037 5.2309,2.1242 1.9214,1.2488 0.2549,1.5335 A1.5546,1.5546 0 0 1 -0.2549,-1.5335 ZM6.5943,11.0926 T7.0298,11.6949 8.8864,13.654 11.3994,16.943 12.3703,20.1718 12.2493,21.4684 A1.4856,1.4856 0 0 1 9.293,21.1702 T9.487,20.4033 8.8386,18.2666 6.5889,15.5963 4.657,13.6165 4.1323,12.9372 A1.5382,1.5382 0 0 1 6.5943,11.0926 ZM11.4162,22.6576 T10.8197,22.9446 8.3781,23.5183 4.6833,23.5347 1.8231,22.9541 0.8127,22.644 A1.3547,1.3547 0 0 1 1.5473,20.036 T3.8844,20.4597 7.5919,20.7131 9.5442,20.262 10.1261,19.981 A1.4856,1.4856 0 0 1 11.4162,22.6576 Z" stroke-linecap="round" fill="#e599f7"/></g></g><g transform="matrix(1, 0, 0, 1, 2461.2573, 29359.567) scale(0.2503887994196496, 0.2503887994196496)" opacity="1"><g transform="scale(3.9937888688223953)"><path d="M1.4762,1.4743 T1.1802,2.8716 0.4228,5.6479 -0.3562,8.9004 -0.1132,12.4152 1.7538,15.1285 4.5973,16.3382 6.8086,15.0501 7.651,11.5691 7.6341,7.4027 6.6682,3.8736 4.3107,1.136 2.7338,-0.1837 A1.288,1.288 0 0 1 4.3662,-2.1763 T6.2718,-0.6433 9.2307,2.7629 10.5648,7.1524 10.6821,11.9741 9.5571,16.4456 6.3789,19.1303 2.8385,19.2067 0.2134,17.8756 -2.0858,15.0856 -3.1767,10.6791 -2.6352,5.9325 -1.7384,2.2885 -1.4762,0.8857 A1.5053,1.5053 0 0 1 1.4762,1.4743 Z" stroke-linecap="round" fill="#e599f7"/></g></g><g transform="matrix(1, 0, 0, 1, 2470.736, 29350.0883) scale(0.2503887994196496, 0.2503887994196496)" opacity="1"><g transform="scale(3.9937888688223953)"><path d="M1.2004,0.399 T0.921,1.2379 0.9495,3.2878 1.2574,4.4989 A1.3114,1.3114 0 0 1 1.0134,7.1104 T-0.5858,5.8511 -1.9714,2.9367 -1.4791,0.4413 -1.2004,-0.399 A1.265,1.265 0 0 1 1.2004,0.399 ZM0.2744,4.8155 T0.5081,4.6662 0.936,2.1823 1.1303,-0.1523 A1.2491,1.2491 0 0 1 3.6097,0.1523 T3.4544,1.5499 2.998,4.5116 2.3467,6.4348 1.9964,6.7938 A1.3114,1.3114 0 0 1 0.2744,4.8155 Z" stroke-linecap="round" fill="#e599f7"/></g></g><g transform="matrix(1, 0, 0, 1, 2428.0817, 29597.7204) scale(0.2503887994196496, 0.2503887994196496)" opacity="1"><g transform="scale(3.9937888688223953)"><path d="M2.6485,0 T2.6317,1.6744 3.0305,5.5969 4.6024,9.3321 7.9671,11.9527 11.7674,13.7426 14.6861,15.0023 17.8106,16.2202 20.825,17.3855 24.2705,18.5098 27.9096,19.2543 30.9893,19.4745 35.1095,19.5118 39.7652,19.7941 44.2844,20.59 48.4831,21.3344 51.9965,21.6443 56.2116,21.7224 60.8482,22.0689 65.1016,22.5662 69.2282,22.7836 73.4033,22.8517 77.9954,22.8656 82.1173,22.6315 86.264,22.13 90.6985,21.8028 94.9098,21.731 99.1227,21.4694 103.7385,20.9717 108.3958,21.0968 111.7893,21.8525 114.9426,23.3618 118.0979,25.9011 120.1576,28.6248 121.1977,31.6918 121.5129,35.1925 121.5631,39.1674 120.6609,43.3146 119.7602,45.2305 A1.897,1.897 0 0 1 116.4455,43.3846 T117.0813,41.2471 117.6832,37.1399 117.4824,33.3015 116.5192,30.0608 114.4947,27.7346 111.6421,26.084 108.2477,25.0265 104.3054,24.8743 100.7464,25.397 97.1243,25.7289 93.0079,25.784 88.9873,25.932 84.7823,26.4747 80.3477,26.9026 75.6453,26.8857 71.1209,26.833 66.7194,26.6617 62.5715,26.0946 58.4319,25.6434 53.8761,25.5715 49.7894,25.3467 45.7678,24.6198 41.425,23.6187 37.2297,23.1403 33.0156,23.0379 29.1044,22.7967 24.9246,21.9775 21.0611,20.7257 17.7362,19.4632 14.7044,18.1951 12.1271,16.958 8.9321,15.6252 5.4074,13.8815 2.5928,11.6196 0.9081,8.2064 0.0524,4.6937 -0.2717,1.6839 -0.2885,0 A1.4685,1.4685 0 0 1 2.6485,0 ZM116.447,45.2332 T115.8468,44.1136 114.8985,40.5719 114.7982,36.7585 115.2279,33.5694 116.3004,29.8421 118.535,26.6338 121.1515,24.5873 123.6411,23.1802 126.6705,21.6887 130.7909,20.1316 134.4296,19.1719 137.903,19.1542 142.2345,19.4566 146.316,19.5368 150.0588,19.8924 153.483,20.3939 156.9548,20.6114 160.9399,20.6856 165.5108,21.0086 170.6375,21.5242 174.617,21.775 178.1618,21.8488 182.5408,21.8911 187.0229,21.9007 190.7877,21.8992 194.5576,21.8949 198.5188,21.6585 202.4707,21.1585 206.5691,20.4122 210.4871,19.5381 214.1906,18.9426 218.1237,17.9448 222.4677,16.4882 226.532,14.6074 230.4425,11.7952 233.7892,8.7549 237.0663,5.9953 239.4266,2.8389 240.0227,0.9939 A1.6976,1.6976 0 0 1 243.3973,1.3661 T243.1297,3.3463 242.0053,6.4313 239.4974,8.7455 236.294,11.4285 232.7447,14.6251 228.2634,17.7868 223.7752,19.8896 220.4406,21.0537 216.3581,22.0911 211.2808,23.0643 207.0166,23.9981 203.1872,24.6827 199.0851,25.1983 194.5568,25.5237 190.7858,25.5178 187.0164,25.5102 182.5138,25.4962 178.085,25.4533 174.4681,25.3774 171.5254,25.2518 167.4325,24.7419 162.6752,24.3068 158.5538,24.2622 154.4211,24.0809 150.1816,23.5171 146.2673,23.0749 142.0505,22.9773 138.0363,22.6398 134.0752,23.0007 129.8773,24.3119 125.8601,26.0211 122.4309,27.8419 120.2528,29.7693 119.125,32.545 118.4856,36.0198 118.4242,39.7034 119.2234,42.4703 119.7587,43.3819 A1.897,1.897 0 0 1 116.447,45.2332 Z" stroke-linecap="round" fill="#ae3ec9"/></g></g><g transform="matrix(1, 0, 0, 1, 2546.5659, 29658.1474) scale(0.2503887994196496, 0.2503887994196496)" opacity="1"><g transform="scale(3.9937888688223953)"><path d="M0.493,1.4768 T-1.1792,2.0383 -4.0807,3.1196 -4.3467,4.8125 -2.3332,7.1303 -0.494,9.5285 0.7608,12.743 -0.001,16.6352 -2.6702,19.1454 -6.5531,19.7472 -11.194,19.306 -15.8621,17.8189 -18.3303,16.7957 A1.4687,1.4687 0 0 1 -17.2497,14.0643 T-15.966,14.548 -12.6258,15.7283 -8.8426,16.6993 -5.2882,16.6826 -2.8463,14.4987 -3.4717,10.8974 -5.7966,7.9053 -7.4047,4.9246 -5.8965,1.4349 -2.1791,-0.9173 -0.493,-1.4768 A1.5569,1.5569 0 0 1 0.493,1.4768 Z" stroke-linecap="round" fill="#ae3ec9"/></g></g><g transform="matrix(1, 0, 0, 1, 2558.4144, 29680.6594) scale(0.2503887994196496, 0.2503887994196496)" opacity="1"><g transform="scale(3.9937888688223953)"><path d="M0.3184,2.764 T-1.0826,3.0434 -4.1397,3.4841 -9.6229,4.2188 -15.3067,4.905 -19.1205,4.7987 -22.5511,4.4664 -26.609,4.2393 -31.7824,4.0102 -34.3717,3.8952 A1.5254,1.5254 0 0 1 -34.3283,0.8448 T-32.9574,0.8263 -29.0536,0.8075 -25.1371,0.8632 -22.2017,1.0453 -18.9932,1.4056 -15.5222,1.5544 -11.4199,1.3235 -7.6182,0.8058 -4.6107,0.2983 -1.7176,-0.1205 -0.3184,-0.404 A1.6157,1.6157 0 0 1 0.3184,2.764 Z" stroke-linecap="round" fill="#ae3ec9"/></g></g><g transform="matrix(1, 0, 0, 1, 2537.0872, 29691.323) scale(0.2503887994196496, 0.2503887994196496)" opacity="1"><g transform="scale(3.9937888688223953)"><path d="M0.2077,-1.4575 T2.1698,-1.1652 6.2706,0.1664 9.1279,3.2654 8.9782,7.0708 6.5012,10.1969 3.1595,12.804 0.1838,14.6516 -0.9043,15.4459 -0.7497,15.6192 A1.4993,1.4993 0 0 1 -3.7293,15.2836 T-3.4576,14.4171 -1.7749,12.6269 1.2943,10.5311 4.3221,8.257 6.2675,5.3997 5.2721,2.8167 1.7466,1.7234 -0.2077,1.4575 A1.4722,1.4722 0 0 1 0.2077,-1.4575 ZM-1.3466,14.2471 T-0.4505,14.8844 3.1067,16.0738 7.1891,16.785 10.3167,17.1448 12.0232,17.3455 A1.6459,1.6459 0 0 1 11.6368,20.6145 T9.9306,20.4119 5.371,19.6689 0.678,18.6497 -2.147,17.4134 -3.1324,16.6558 A1.4993,1.4993 0 0 1 -1.3466,14.2471 Z" stroke-linecap="round" fill="#ae3ec9"/></g></g><g transform="matrix(1, 0, 0, 1, 2460.0724, 29460.2787) scale(0.2503887994196496, 0.2503887994196496)" opacity="1"><g transform="scale(3.9937888688223953)"><path d="M1.5366,0.3833 T1.246,1.5029 -0.0957,4.4764 -2.71,7.8119 -5.8274,11.1315 -9.0651,15.0387 -12.3218,18.8703 -14.7031,21.4796 -15.5111,22.3267 A1.4769,1.4769 0 0 1 -17.7089,20.3533 T-16.9535,19.4591 -14.7644,16.8578 -11.5232,12.9929 -8.7965,9.8436 -7.013,7.833 -4.9258,5.6971 -2.8874,3.2162 -1.8041,0.7343 -1.5366,-0.3833 A1.5837,1.5837 0 0 1 1.5366,0.3833 Z" stroke-linecap="round" fill="#ffc034"/></g></g><g transform="matrix(1, 0, 0, 1, 2443.4846, 29462.6483) scale(0.2503887994196496, 0.2503887994196496)" opacity="1"><g transform="scale(3.9937888688223953)"><path d="M1.7742,-0.4426 T2.0244,0.6789 3.0696,3.1411 4.5568,5.7844 6.4992,8.458 9.1226,11.234 12.0895,13.8151 15.0136,16.3689 17.298,19.7873 18.252,21.828 A1.7819,1.7819 0 0 1 14.968,23.212 T14.4894,21.8532 12.6746,19.1686 9.6072,16.5076 6.5096,13.7169 3.7427,10.6408 1.6638,7.7246 -0.0865,4.5516 -1.4662,1.5584 -1.7742,0.4426 A1.8286,1.8286 0 0 1 1.7742,-0.4426 Z" stroke-linecap="round" fill="#ffc034"/></g></g><g transform="matrix(1, 0, 0, 1, 2425.712, 29564.5448) scale(0.2503887994196496, 0.2503887994196496)" opacity="1"><g transform="scale(3.9937888688223953)"><path d="M0.4098,-1.6429 T1.5332,-1.3659 4.5207,-0.4481 8.0874,0.7107 12.1068,1.7346 16.375,2.5127 20.1963,2.6584 23.3102,2.298 24.5543,2.0641 A1.5233,1.5233 0 0 1 25.2257,5.0359 T24.0019,5.3595 21.4563,5.9993 18.0816,6.1588 13.633,5.4311 9.7893,4.6042 6.9917,3.9445 3.7301,2.873 0.7041,1.9241 -0.4098,1.6429 A1.6932,1.6932 0 0 1 0.4098,-1.6429 Z" stroke-linecap="round" fill="#9398b0"/></g></g><g transform="matrix(1, 0, 0, 1, 2449.4088, 29569.2842) scale(0.2503887994196496, 0.2503887994196496)" opacity="1"><g transform="scale(3.9937888688223953)"><path d="M1.5424,0 T1.5306,1.4001 1.5148,4.9111 1.2108,9.093 0.7221,12.8338 0.4727,16.6811 0.0839,20.1822 -0.5818,22.7916 -0.9196,24.0772 A1.4962,1.4962 0 0 1 -3.8204,23.3428 T-3.2482,21.0621 -2.612,16.523 -2.2876,12.3091 -1.7689,8.6878 -1.5148,4.9111 -1.5306,1.4001 -1.5424,0 A1.5424,1.5424 0 0 1 1.5424,0 Z" stroke-linecap="round" fill="#9398b0"/></g></g></svg>