<svg xmlns="http://www.w3.org/2000/svg" direction="ltr" width="442.6816019619862" height="597.5968076213385" viewBox="1350.8981704054438 7609.081563696773 442.6816019619862 597.5968076213385" stroke-linecap="round" stroke-linejoin="round" style="background-color: transparent;"><defs/><g transform="matrix(1, 0, 0, 1, 1550.4057, 7679.7173)" opacity="1"><g transform="scale(1)"><path d="M0,0 Q-0.2508,3.7939 -0.319,5.332 T-0.4243,7.9599 -0.4816,9.9572 -0.5128,11.6115 -0.5936,13.0176 -0.7014,14.2886 -0.76,15.3609 -0.7919,18.158 -0.8093,22.0828 -0.8187,24.7879 -0.8239,26.7656 -0.8267,28.4731 -0.892,30.1589 -0.9914,31.5821 -1.0455,32.8625 -1.0749,34.0652 -1.0271,35.2895 -0.9372,36.6509 -0.8883,37.9592 -0.8617,39.2386 -0.8473,40.4408 -0.8394,41.601 -0.8351,42.6128 -0.8328,43.6695 -0.8954,44.8758 -0.9932,46.0383 -1.0465,47.1768 -1.0754,48.1746 -1.0912,49.1597 -1.0359,50.3911 -0.942,51.6925 -0.8909,52.9066 -0.8632,54.0732 -0.848,55.2779 -0.8398,56.5032 -0.8353,57.5483 -0.8329,58.6229 -0.8316,59.8414 -0.8309,60.9466 -0.8305,61.9901 -0.8303,63.0639 -0.8301,64.0904 -0.8301,65.0911 -0.83,66.1417 -0.83,67.1555 -0.83,68.1494 -0.83,69.1323 -0.83,70.1094 -0.83,71.0832 -0.83,71.9915 -0.83,72.9279 -0.8938,73.8819 -0.9924,74.7816 -1.046,75.7134 -1.0752,76.6626 -1.0911,77.4936 -1.0997,78.2626 -1.1044,79.1871 -1.107,80.1323 -1.1083,80.9635 -1.1091,81.9218 -1.1095,82.8854 -1.1097,83.8519 -1.1099,84.8201 -1.1099,85.8529 -1.11,86.9847 -1.11,87.9789 -1.11,89.0259 -1.11,90.1655 -1.11,91.2916 -1.11,92.4081 -1.11,93.4577 -1.11,94.4095 -1.11,95.4335 -1.11,96.5582 -1.11,97.6124 -1.11,98.6305 -1.11,99.6904 -1.0462,100.771 -0.9476,101.8626 -0.894,102.9627 -0.8648,104.0673 -0.8489,105.1105 -0.8403,106.1203 -0.8994,107.1758 -0.9955,108.2562 -1.0477,109.2862 -1.0761,110.2888 -1.0916,111.2789 -1.1,112.2621 -1.1045,113.2393 -1.107,114.1493 -1.0445,115.0867 -0.9467,116.039 -0.8935,116.9993 -0.8645,117.9641 -0.8488,118.9312 -0.8402,119.8997 -0.8356,120.8073 -0.833,121.7433 -0.7678,122.6948 -0.6685,123.5932 -0.6145,124.5243 -0.5851,125.4731 -0.5691,126.3039 -0.5604,127.1982 -0.5556,128.3185 -0.5531,129.6233 -0.5517,130.9009 -0.5509,132.0382 -0.5505,133.1015 -0.5503,134.0607 -0.5501,135.0248 -0.5501,135.9916 -0.55,136.896 -0.55,137.8304 -0.55,138.781 -0.4884,139.6766 -0.3934,140.6061 -0.3417,141.6179 -0.3136,142.6129 -0.2983,143.5966 -0.2261,144.5101 -0.123,145.3879 -0.0669,146.3077 0.0274,147.1865 0.1426,148.0431 0.2053,148.8899 0.3009,149.7312 0.4145,150.5674 0.4763,151.4646 0.5099,152.395 0.5282,153.2797 0.5381,154.2032 0.5435,155.0226 0.5465,155.849 0.5481,156.8048 0.549,157.7032 0.5494,158.5704 0.4881,159.4845 0.3932,160.4879 0.3416,161.54 0.2497,162.6184 0.1358,163.7113 0.01,164.7481 -0.1222,165.7544 -0.1942,166.6188 -0.2333,167.5314 -0.3162,168.7232 -0.4228,169.8138 -0.4808,170.7241 -0.5762,171.6 -0.7558,172.5804 -0.9173,173.6199 -1.069,174.5661 -1.2154,175.5232 -1.295,176.6754 -1.3383,177.87 -1.3619,178.8367 -1.3747,179.6157 -1.254,180.3564 -0.9794,181.2007 L-0.83,181.66 " stroke-linecap="round" fill="none" stroke="#9398b0" stroke-width="3" stroke-dasharray="none" stroke-dashoffset="0"/></g></g><g transform="matrix(1, 0, 0, 1, 1458.2512, 7780.1755)" opacity="1"><g transform="scale(1)"><path d="M0,0 Q2.8774,0 3.8652,0 T5.5956,0 6.8448,0 7.8344,0 8.888,0 9.9742,0 10.9755,-0.1026 11.828,-0.261 12.5995,-0.3472 13.4297,-0.3941 14.3965,-0.4196 15.4378,-0.4334 16.4146,-0.441 17.3564,-0.4451 18.2792,-0.4473 19.1916,-0.4486 20.2032,-0.4492 21.3714,-0.4496 22.6225,-0.4498 23.8161,-0.4499 24.8758,-0.4499 25.9653,-0.45 27.0732,-0.3474 28.1912,-0.189 29.415,-0.1028 30.5938,-0.0559 31.748,-0.0304 32.9938,-0.0166 34.2894,-0.009 35.6098,-0.0049 36.9437,-0.0027 38.1823,-0.0014 39.3714,-0.0008 40.6362,-0.0004 41.9398,-0.0002 43.3672,-0.0001 45.0693,-0.0001 46.8184,0 48.1803,0 49.3316,0 50.676,0 52.0253,0 53.172,0 54.4114,0 55.8039,0 57.1769,0 58.5418,0 59.7995,0 60.9967,-0.1026 62.2636,-0.261 63.4658,-0.3472 64.6351,-0.3941 65.7864,-0.4196 66.9258,-0.4334 68.0586,-0.441 69.0852,-0.4451 70.1567,-0.4473 71.2549,-0.4486 72.265,-0.4492 73.2249,-0.4496 74.2601,-0.5524 75.3362,-0.7109 76.332,-0.7971 77.2864,-0.844 78.2183,-0.8696 79.1356,-0.8834 80.0451,-0.891 81.0528,-0.7925 82.114,-0.6363 83.1017,-0.5514 84.0517,-0.5051 84.9812,-0.48 85.8972,-0.4663 87.0111,-0.4589 88.3353,-0.4548 89.5709,-0.4526 90.861,-0.3488 92.4862,-0.1898 94.0885,-0.1032 95.4754,-0.0562 96.8478,-0.0305 98.1074,-0.0166 99.203,-0.009 100.1068,-0.0049 101.1114,-0.0027 102.3785,-0.0015 103.583,-0.0008 104.7513,-0.0004 105.8998,-0.0002 106.8324,-0.0001 107.7502,0.1025 108.7647,0.261 109.8319,0.3472 111.028,0.3941 112.3969,0.4196 113.8621,0.4334 115.1744,0.441 116.2987,0.4451 117.4233,0.5499 118.4455,0.7096 119.412,0.7964 120.6583,0.8436 122.1593,0.8693 123.4889,0.8833 124.8277,0.7883 126.2743,0.634 127.6791,0.5501 129.2664,0.5045 130.6429,0.4796 132.0073,0.4661 133.6752,0.4588 135.0978,0.4548 136.2821,0.4526 137.4394,0.4514 138.4794,0.4508 139.5604,0.4504 140.7663,0.4502 141.9354,0.5527 142.9817,0.7111 144.2691,0.7972 145.69,0.8441 147.0808,0.8696 148.453,0.8835 149.6099,0.891 150.6496,0.7925 151.7282,0.6363 152.8303,0.5514 153.8425,0.5051 154.8035,0.48 155.8393,0.4663 156.9158,0.4589 157.9118,0.4548 158.8663,0.4526 159.7982,0.554 160.7156,0.7118 161.625,0.7976 162.5302,0.8443 163.433,0.8697 164.3345,0.8835 165.2376,0.891 166.1416,0.8951 167.0437,0.7947 168.0475,0.6375 169.1066,0.552 170.1957,0.5055 171.1986,0.4802 172.0542,0.4664 172.8298,0.4589 173.5595,0.4549 174.3668,0.4526 175.319,0.4514 176.4526,0.4508 177.6872,0.4504 178.9767,0.4502 180.0886,0.4501 180.8986,0.4501 181.6471,0.45 182.5673,0.45 183.4782,0.45 184.3865,0.45 185.3958,0.45 186.3553,0.5526 187.3903,0.711 188.3637,0.7972 189.3037,0.8441 190.3303,0.8696 191.1988,0.8834 191.9791,0.891 192.814,0.8951 193.7812,0.7947 194.9229,0.6375 196.1619,0.552 197.2486,0.5055 198.2502,0.4802 199.308,0.4664 200.1913,0.4589 200.9796,0.4549 201.7162,0.4526 202.4247,0.554 203.2636,0.7781 L203.72,0.9 " stroke-linecap="round" fill="none" stroke="#9398b0" stroke-width="3" stroke-dasharray="none" stroke-dashoffset="0"/></g></g><g transform="matrix(1, 0, 0, 1, 1538.9297, 7760.344)" opacity="0.25"><g transform="scale(1)"><path d="M0,0 Q-0.6156,-1.026 -1.4009,-2.0256 T-2.8187,-3.6715 -3.8977,-4.772 -4.6899,-5.4733 -5.3261,-5.9575 -5.8773,-6.426 -6.3824,-6.8861 -6.7598,-7.3416 -7.0677,-7.7946 -7.4404,-8.2462 -7.8483,-8.5945 -8.2755,-8.8888 -8.6104,-9.2565 -8.8975,-9.6616 -9.2612,-9.9846 -9.6642,-10.263 -9.986,-10.6196 -10.2637,-11.0188 -10.62,-11.4411 -11.019,-11.8761 -11.4413,-12.3179 -11.7736,-12.7635 -12.0569,-13.211 -12.5189,-13.6597 -12.9754,-14.109 -13.4289,-14.5586 -13.9835,-15.0107 -14.4903,-15.4641 -15.0761,-16.0185 -15.7049,-16.628 -16.2521,-17.1647 -16.755,-17.6619 -17.2338,-18.1375 -17.6995,-18.6015 -18.158,-19.0591 -18.6126,-19.5132 -19.0652,-19.9655 -19.5165,-20.4167 -19.9673,-20.8674 -20.4177,-21.32 -20.8679,-21.7737 -21.4229,-22.3283 -22.0349,-22.9379 -22.573,-23.4746 -23.071,-23.9718 -23.547,-24.4475 -24.0112,-24.9115 -24.469,-25.3691 -24.9231,-25.8232 -25.3754,-26.2755 -25.8267,-26.7267 -26.2774,-27.1774 -26.7277,-27.63 -27.1779,-28.0837 -27.6303,-28.5357 -28.0839,-28.9868 -28.5358,-29.4374 -28.9869,-29.8878 -29.4375,-30.3379 -29.8878,-30.788 -30.338,-31.3407 -30.788,-31.8465 -31.2381,-32.2243 -31.5855,-32.635 -31.8771,-33.0637 -32.241,-33.502 -32.6441,-34.0506 -33.1712,-34.6591 -33.768,-35.1953 -34.3002,-35.6922 -34.7948,-36.1677 -35.2692,-36.6316 -35.7324,-37.0891 -36.1896,-37.5433 -36.6435,-37.9955 -37.0956,-38.4467 -37.5468,-38.8974 -37.9974,-39.3477 -38.4477,-39.7979 -38.8979,-40.2503 -39.348,-40.7039 -39.7981,-41.1558 -40.2504,-41.6069 -40.7039,-41.9549 -41.1559,-42.3494 -41.6069,-42.8718 -42.0575,-43.3612 -42.5078,-43.8326 -42.958,-44.2943 -43.5106,-44.7506 -44.1191,-45.204 -44.6553,-45.6559 -45.1522,-46.1069 -45.6277,-46.5598 -46.0916,-47.0136 -46.5514,-47.5683 -47.0091,-48.1778 -47.4632,-48.7146 -47.9155,-49.2118 -48.3667,-49.6875 -48.8174,-50.1515 -49.2677,-50.6091 -49.7179,-51.0632 -50.168,-51.5155 -50.6181,-51.9667 -51.0681,-52.4174 -51.5181,-52.87 -51.9681,-53.3237 -52.4182,-53.7757 -52.8704,-54.2268 -53.4266,-54.6774 -54.0369,-55.1278 -54.5741,-55.5779 -55.0716,-56.028 -55.5474,-56.4781 -55.9088,-56.9281 -56.208,-57.3781 -56.6786,-57.8281 -57.2424,-58.2782 -57.7543,-58.7282 -58.1354,-59.1804 -58.4453,-59.634 -58.8191,-60.0859 -59.2299,-60.5369 -59.6609,-60.9875 -60.1005,-61.4378 -60.5449,-61.888 -61.0944,-62.338 -61.5986,-62.7881 -62.078,-63.2381 -62.544,-63.6881 -62.9002,-64.1381 -63.2991,-64.4856 -63.7213,-64.7771 -64.1562,-65.141 -64.4954,-65.5464 -64.7825,-65.8718 -65.1439,-66.1514 -65.5479,-66.5087 -65.8726,-66.9083 -66.1519,-67.2283 -66.509,-67.5049 -66.9084,-67.8606 -67.2284,-68.2594 -67.505,-68.6814 -67.8607,-69.0137 -68.2594,-69.297 -68.5789,-69.6563 -68.8553,-69.9544 -69.2108,-70.2192 -69.6094,-70.5684 -69.9289,-70.9636 -70.2053,-71.3837 -70.5608,-71.8198 -70.8569,-72.2645 -71.0179,-72.5064 -71.0029,-72.5354 -70.7895,-72.3437 -70.4683,-72.0319 -70.0883,-71.7597 -69.6764,-71.4065 -69.2471,-71.0091 -68.8084,-70.4851 -68.3645,-69.8923 -67.9179,-69.3645 -67.4697,-68.8723 -67.0207,-68.3993 -66.5689,-67.9368 -66.1157,-67.48 -65.5613,-66.9214 -64.952,-66.3074 -64.4153,-65.7682 -63.8155,-65.2697 -63.284,-64.7933 -62.8923,-64.329 -62.474,-63.8712 -62.0413,-63.4169 -61.6006,-62.9646 -61.1558,-62.5133 -60.7085,-62.0627 -60.3626,-61.6123 -60.0696,-61.1621 -59.7027,-60.712 -59.2979,-60.2596 -58.8725,-59.8061 -58.4359,-59.3541 -57.9932,-58.9031 -57.6497,-58.4525 -57.3603,-58.0022 -56.9976,-57.6546 -56.5952,-57.363 -56.2736,-56.9991 -55.9961,-56.5959 -55.6399,-56.1714 -55.2409,-55.7353 -54.8187,-55.2928 -54.4864,-54.8469 -54.2031,-54.3992 -53.8414,-53.9481 -53.4372,-53.4953 -53.0121,-53.0437 -52.6783,-52.5929 -52.3941,-52.1424 -52.0342,-51.6921 -51.6333,-51.242 -51.3126,-50.7919 -51.0355,-50.4445 -50.7822,-50.1529 -50.5418,-49.789 -50.2058,-49.3859 -49.9204,-48.9614 -49.6626,-48.6279 -49.3171,-48.3439 -48.924,-47.9841 -48.6075,-47.581 -48.3328,-47.1542 -47.9781,-46.7168 -47.5777,-46.2737 -47.1524,-45.8274 -46.7158,-45.3794 -46.2731,-44.9305 -45.9297,-44.4811 -45.6403,-44.0315 -45.175,-43.5816 -44.6141,-43.1317 -44.1038,-42.6818 -43.621,-42.2318 -43.1531,-41.7818 -42.6934,-41.3296 -42.2381,-40.7734 -41.7853,-40.1631 -41.2288,-39.6259 -40.616,-39.1284 -40.0775,-38.6526 -39.5793,-38.086 -39.1031,-37.4699 -38.6388,-36.9296 -38.1811,-36.4305 -37.7269,-35.9537 -37.172,-35.3843 -36.5623,-34.7645 -36.0255,-34.2221 -35.4233,-33.6192 -34.7857,-32.9834 -34.2336,-32.4324 -33.7281,-31.9274 -33.2479,-31.4475 -32.7814,-30.9812 -32.2199,-30.4198 -31.6066,-29.8066 -31.0678,-29.2678 -30.5695,-28.7672 -30.0932,-28.2874 -29.6289,-27.8212 -29.1711,-27.3624 -28.7146,-26.9076 -28.2588,-26.455 -27.8056,-26.0035 -27.2513,-25.4502 -26.6419,-24.8413 -26.0027,-24.3049 -25.3471,-23.8079 -24.7853,-23.3323 -24.2744,-22.8684 -23.7913,-22.4086 -23.3233,-21.951 -22.8635,-21.4968 -22.4059,-21.0445 -21.9495,-20.5933 -21.496,-20.1426 -20.9415,-19.6923 -20.3321,-19.2421 -19.7953,-18.792 -19.2981,-18.3419 -18.8225,-17.8919 -18.3585,-17.4419 -17.9009,-16.9919 -17.4468,-16.5418 -16.9945,-16.0896 -16.5433,-15.636 -16.0904,-15.1841 -15.5339,-14.7331 -14.9233,-14.2825 -14.386,-13.8322 -13.8885,-13.382 -13.4127,-12.932 -12.9486,-12.5845 -12.491,-12.2929 -12.1394,-11.9291 -11.8456,-11.5259 -11.4805,-11.204 -11.0767,-10.9263 -10.7545,-10.57 -10.4765,-10.171 -10.0153,-9.7465 -9.5569,-9.308 -9.2049,-8.8643 -8.7056,-8.4178 -8.1262,-7.9696 -7.7084,-7.5206 -7.2759,-7.0712 -6.7329,-6.6215 -6.3348,-6.1716 -5.9131,-5.7217 -5.4785,-5.2718 -5.1395,-4.8218 -4.7498,-4.4744 -4.4353,-4.1828 -4.1615,-3.819 -3.8074,-3.4136 -3.4073,-2.9856 -2.9822,-2.5476 -2.5457,-2.1041 -2.1031,-1.6576 -1.7597,-1.2095 -1.4703,-0.8632 -1.2102,-0.5722 -0.9662,-0.2087 -0.6282,0.1943 -0.2391,0.6187 0.0751,1.0548 0.4513,1.4972 0.9637,1.9431 1.345,2.3931 1.6551,2.8454 2.029,3.2967 2.4398,3.7473 2.9734,4.1977 3.4689,4.6479 3.841,5.098 4.2487,5.4455 4.6756,5.7371 5.0105,6.1009 5.2953,6.5041 5.6554,6.9286 6.0565,7.3647 6.4799,7.8072 6.9154,8.2531 7.3575,8.7031 7.8033,9.1554 8.2509,9.6067 8.7019,9.9547 9.1548,10.2467 9.6063,10.5081 10.0572,10.7529 10.5076,11.0913 11.0605,11.4806 11.669,11.8976 12.1027,12.3296 12.5438,12.6672 13.0915,12.9535 13.4921,13.3144 13.9152,13.6134 14.4532,13.8786 14.9533,14.2281 15.4329,14.6234 15.899,14.941 16.3577,15.2187 16.7099,15.5773 17.0041,15.8749 17.2667,16.1394 17.6148,16.4885 18.0093,16.8836 18.3265,17.3038 18.7043,17.7375 19.115,18.1787 19.5437,18.6239 19.8794,19.0713 20.1647,19.4173 20.5251,19.7081 20.9263,20.0715 21.3521,20.4744 21.7912,20.8987 22.2352,21.3371 22.682,21.6804 23.1303,21.9698 23.5793,22.3324 24.0288,22.7349 24.5811,23.159 25.0868,23.5949 25.4644,23.9347 25.8751,24.2221 26.3037,24.5837 26.6394,24.9856 26.9247,25.3068 27.2851,25.5841 27.5837,25.9402 27.8511,26.3391 28.3066,26.7613 28.8622,27.1962 29.267,27.6403 29.5899,28.0893 29.9707,28.4362 30.3831,28.7275 30.8126,29.0911 31.354,29.4942 31.8538,29.9186 32.2283,30.3547 32.6372,30.6946 33.0648,30.9821 33.5027,31.3436 33.9483,31.6429 34.2957,31.9084 34.6898,32.2579 35.212,32.6533 35.5987,33.0736 35.9116,33.4048 36.2871,33.6876 36.6965,34.049 37.0219,34.453 37.3015,34.7754 37.6588,35.0534 38.0583,35.4098 38.3783,35.8089 38.6549,36.1286 39.0107,36.4051 39.4094,36.7607 39.7288,37.1594 40.0053,37.4789 40.3631,37.7553 40.7652,38.1108 41.0866,38.5094 41.364,38.8289 41.7202,39.1053 42.1191,39.4608 42.6439,39.8595 43.2372,40.2838 43.6626,40.7221 43.9966,41.1657 44.3834,41.6123 44.7991,42.0604 45.2304,42.4068 45.6703,42.6978 46.0122,43.0613 46.3007,43.4643 46.6652,43.8887 47.0709,44.3248 47.4969,44.7672 47.8312,45.2131 48.2182,45.6608 48.7366,46.1096 49.2238,46.5612 49.5914,47.0144 49.9966,47.4661 50.5248,47.917 50.9148,48.3676 51.2295,48.7152 51.6059,49.007 52.0159,49.3709 52.3415,49.774 52.6213,50.096 52.9809,50.3737 53.3841,50.73 53.8086,51.129 54.3473,51.5512 54.8456,51.9862 55.2192,52.4279 55.6277,52.8758 56.0551,53.3269 56.4928,53.88 56.9361,54.3862 57.3825,54.7641 57.8305,55.1749 58.1768,55.6036 58.4678,55.9394 58.8313,56.2247 59.2366,56.5851 59.5619,56.9863 59.8415,57.4098 60.1988,57.8454 60.5983,58.2875 61.0209,58.7333 61.456,59.2858 61.8978,59.7939 62.2408,60.1729 62.53,60.4816 62.8925,60.7522 63.2949,61.1046 63.6164,61.5015 63.8939,61.9226 64.2501,62.2543 64.6491,62.5373 65.0713,62.8965 65.5085,63.2971 65.9538,63.7202 66.4012,64.1556 66.9524,64.5976 67.4575,65.0433 67.8348,65.3884 68.1427,65.681 68.5154,66.0476 69.0259,66.4523 69.4063,66.8776 69.8184,67.3142 70.4282,67.7972 L70.76,68.06 " stroke-linecap="round" fill="none" stroke="#4f72fc" stroke-width="3" stroke-dasharray="none" stroke-dashoffset="0"/></g></g><g transform="matrix(1, 0, 0, 1, 1609.69, 7828.4)" opacity="0.25"><g transform="scale(1)"><path d="M0,0 Q2.0566,2.0566 3.0263,3.1289 T4.8315,4.9899 6.1213,6.3123 6.9278,7.1366 7.5741,7.6877 8.1308,8.1926 8.5363,8.6725 8.8595,9.0362 9.2405,9.3366 9.6529,9.7052 10.0825,10.111 10.5214,10.5369 10.9654,10.9738 11.3095,11.4167 11.5993,11.8628 11.9621,12.3107 12.3647,12.7595 12.6863,13.2089 12.9639,13.556 13.3201,13.8496 13.7213,14.2169 14.0445,14.6219 14.3229,15.0474 14.6795,15.3815 15.0787,15.6658 15.3985,16.0257 15.6751,16.4266 16.0307,16.85 16.4294,17.2855 16.7489,17.7276 17.0253,18.1733 17.3808,18.6209 17.882,19.0697 18.5651,19.519 19.3843,20.0119 L19.83,20.28 " stroke-linecap="round" fill="none" stroke="#4f72fc" stroke-width="3" stroke-dasharray="none" stroke-dashoffset="0"/></g></g><g transform="matrix(1, 0, 0, 1, 1404.1651, 7749.5267)" opacity="0.25"><g transform="scale(1)"><path d="M0.45,0 Q2.5066,0.2052 3.2711,0.261 T4.6569,0.3472 5.8211,0.3941 6.7622,0.4196 7.3768,0.3308 7.9163,0.18 8.5199,0.0979 9.1584,0.0533 9.8135,0.029 10.4776,0.0158 11.2494,0.0086 12.0796,0.0047 12.839,0.0025 13.5599,0.0014 14.2599,0.0008 14.9508,0.0004 15.6367,0.0002 16.3177,0.1027 16.9959,0.2611 17.6726,0.3472 18.5538,0.3941 19.4435,0.4196 20.3402,0.4335 21.2407,0.441 22.0384,0.4451 22.7801,0.4473 23.594,0.4486 24.6524,0.5518 25.7411,0.7106 26.7461,0.797 27.8081,0.9465 28.7962,1.1305 29.6415,1.2306 30.5118,1.285 31.4982,1.3147 32.5478,1.3308 33.5315,1.3395 34.3767,1.3443 35.1443,1.3469 36.0748,1.3483 36.9915,1.3491 37.7979,1.3495 38.7496,1.4523 39.8852,1.6109 40.9157,1.6971 41.7841,1.744 42.7694,1.7696 43.9211,1.7834 44.958,1.791 45.9348,1.7951 46.8788,1.7973 47.7001,1.7985 48.66,1.7992 49.5925,1.7996 50.305,1.7998 51.0004,1.7999 51.7891,1.7999 52.6308,1.8 53.5014,1.6974 54.2828,1.539 55.0157,1.4528 55.8248,1.4059 56.7779,1.3804 57.9143,1.3666 59.0478,1.359 60.0748,1.3549 61.1465,1.3527 62.2425,1.2488 63.3517,1.0898 64.3655,1.0032 65.3297,0.9562 66.3695,0.9306 67.3456,0.9166 68.287,0.909 69.2095,0.8023 70.1217,0.6417 71.0306,0.5543 72.0404,0.5067 73.1027,0.4809 74.091,0.4668 75.039,0.3565 76.0677,0.194 77.1427,0.1055 78.2427,0.0574 79.3541,0.0312 80.4717,0.017 81.5927,-0.0934 82.7155,-0.256 83.8416,-0.3445 84.8669,-0.3926 85.9376,-0.4188 87.0331,-0.5356 88.0394,-0.7018 89.0999,-0.7922 90.1921,-0.8413 91.1989,-0.9707 92.2596,-1.1437 93.3496,-1.2377 94.353,-1.2889 95.4118,-1.4194 96.5031,-1.5929 97.5095,-1.6874 98.4673,-1.7387 99.3988,-1.7667 100.3159,-1.7819 101.2252,-1.7901 102.1326,-1.7946 103.0388,-1.7971 104.0448,-1.901 105.2077,-2.0602 106.3533,-2.1467 107.3869,-2.1938 108.3619,-2.2194 109.4075,-2.2334 110.4894,-2.241 111.4883,-2.2451 112.5447,-2.2473 113.6324,-2.2485 114.6368,-2.2492 115.5959,-2.2496 116.528,-2.2498 117.4455,-2.2499 118.4576,-2.2499 119.5212,-2.25 120.5102,-2.25 121.4608,-2.25 122.3907,-2.25 123.3069,-2.25 124.2158,-2.25 125.1206,-2.25 126.0232,-2.25 126.9246,-2.25 127.8277,-2.25 128.7316,-2.25 129.5312,-2.25 130.2739,-2.25 131.191,-2.25 132.2028,-2.1474 133.2686,-1.989 134.4662,-1.9028 135.6308,-1.8559 136.6746,-1.8304 137.6529,-1.8166 138.6981,-1.809 139.782,-1.8049 140.8869,-1.8027 142.0009,-1.8014 143.12,-1.8008 144.1392,-1.6978 145.2066,-1.5392 146.3025,-1.4529 147.3114,-1.406 148.3733,-1.3805 149.3613,-1.264 150.3092,-1.098 151.2352,-1.0077 152.2543,-0.9586 153.3239,-0.9319 154.3162,-0.8147 155.369,-0.6484 156.4547,-0.5579 157.4558,-0.5087 158.4107,-0.4819 159.3429,-0.4674 160.3653,-0.3569 161.4345,-0.1941 162.4265,-0.1056 163.4792,-0.0574 164.6697,-0.0313 165.9352,-0.017 167.1367,-0.0092 168.3033,-0.005 169.4509,-0.0027 170.5882,-0.0015 171.7222,-0.0008 172.7518,-0.0004 173.7222,-0.0002 174.6606,-0.0001 175.5814,-0.0001 176.4928,0 177.399,0 178.3046,0 179.1073,0.1026 179.9544,0.261 180.9283,0.3472 181.8684,0.3941 182.7903,0.4196 183.7021,0.4334 184.6109,0.441 185.5179,0.4451 186.4217,0.5499 187.3238,0.7096 188.3276,0.7964 189.3866,0.8436 190.3754,0.8693 191.326,0.8833 192.2535,0.8909 193.0659,0.9977 193.8156,1.1583 194.6338,1.2457 195.3868,1.2933 196.2068,1.3191 197.1681,1.3332 198.1038,1.3409 199.0232,1.345 199.9337,1.3473 200.7369,1.3485 201.4816,1.3492 202.1945,1.3496 202.995,1.3498 203.9458,1.3499 204.976,1.3499 206.0494,1.35 207.1464,1.35 208.2561,1.35 209.2725,1.35 210.2381,1.35 211.2763,1.35 212.3542,1.35 213.4535,1.35 214.6694,1.35 215.8462,1.35 216.9993,1.35 218.1396,1.35 219.1704,1.2474 220.1415,1.089 221.0802,1.0028 222.0035,0.9559 222.9185,0.9304 223.9292,0.9166 224.992,0.909 225.9806,0.9049 226.8262,0.8001 227.8015,0.6404 228.9499,0.5536 229.9851,0.5064 230.856,0.4807 231.6376,0.4667 232.3706,0.4591 233.2823,0.4549 234.2936,0.3501 235.2564,0.1904 236.1906,0.1036 237.0065,0.0564 237.9634,0.0307 239.0996,0.0167 240.1281,0.0091 240.9976,0.0049 241.8833,0.0027 242.673,0.0015 243.4103,0.0008 244.1193,0.0004 244.8127,0.0002 245.4978,0.0001 246.1782,0.0001 246.8562,0 247.5351,-0.1026 248.2145,-0.261 248.8919,-0.3472 249.5682,-0.3941 250.4491,-0.4196 251.4413,-0.4334 252.3915,-0.441 253.4236,-0.4451 254.5004,-0.3447 255.5992,-0.1875 256.6073,-0.102 257.5661,-0.0555 258.6007,-0.0302 259.5762,-0.0164 260.417,-0.0089 261.3874,-0.0049 262.4282,0.1 263.5239,0.3267 L264.12,0.45 " stroke-linecap="round" fill="none" stroke="#f76707" stroke-width="3" stroke-dasharray="none" stroke-dashoffset="0"/></g></g><g transform="matrix(1, 0, 0, 1, 1549.2962, 7777.9219)" opacity="0.25"><g transform="scale(1)"><path d="M0,0 Q0.8208,0.6156 1.1467,0.783 T1.7524,1.0416 2.392,1.1822 3.05,1.1561 3.7158,1.0393 4.3857,0.8732 5.1606,0.6802 5.9925,0.5752 6.8555,0.4155 7.7353,0.226 8.5241,0.0204 9.4684,-0.2967 10.5977,-0.6744 11.8277,-1.0851 13.0098,-1.5137 14.0655,-1.952 15.0525,-2.398 15.9999,-2.8481 16.823,-3.2981 17.5786,-3.7481 18.4,-4.1981 19.1547,-4.6481 19.873,-5.0982 20.6765,-5.5482 21.4237,-5.9982 22.0353,-6.4482 22.6758,-6.8982 23.3321,-7.3482 23.8943,-7.7982 24.5079,-8.2482 25.2522,-8.7004 25.9648,-9.2566 26.6603,-9.8669 27.3487,-10.5067 28.0333,-11.1626 28.7135,-11.7246 29.2888,-12.2355 29.8069,-12.7186 30.3965,-13.1866 31.0251,-13.6465 31.5723,-14.1018 32.0751,-14.6596 32.5539,-15.2731 33.0195,-15.812 33.478,-16.2078 33.83,-16.5257 34.1264,-16.9039 34.4951,-17.3148 34.9009,-17.7435 35.2243,-18.182 35.5028,-18.7283 35.8595,-19.3333 36.2587,-19.9702 36.6811,-20.7293 37.1161,-21.4524 37.5579,-22.2561 38.0035,-23.2064 38.3484,-24.0311 38.6387,-24.7876 39.0018,-25.5069 39.3019,-26.206 39.5678,-26.999 39.9177,-27.843 40.3154,-28.7126 40.6367,-29.5961 40.9141,-30.3845 41.2702,-31.1211 41.6691,-31.9323 41.9887,-32.6814 42.2652,-33.3989 42.6208,-34.202 42.9168,-35.0492 43.1805,-35.9205 43.5291,-36.8049 43.9239,-37.799 44.3439,-38.8528 44.675,-39.9414 44.9577,-41.0488 45.3167,-42.0617 45.6146,-43.1257 45.8793,-44.2175 46.1258,-45.3267 46.3626,-46.548 46.594,-47.828 46.8247,-49.1399 47.1577,-50.5718 47.4415,-52.0712 47.6984,-53.5048 47.9408,-54.9002 48.1753,-56.1724 48.508,-57.3774 48.7917,-58.6508 49.0485,-59.8589 49.2909,-61.029 49.5253,-62.2812 49.7555,-63.578 49.9832,-64.9013 50.2098,-66.2391 50.333,-67.3772 50.5026,-68.5094 50.6975,-69.7409 50.9061,-70.8235 51.1222,-71.9277 51.2398,-73.0414 51.4063,-74.0576 51.5995,-75.1235 51.8072,-76.2163 52.0228,-77.3261 52.1401,-78.3425 52.3065,-79.4084 52.4996,-80.7064 52.6047,-81.9256 52.7644,-83.1041 52.9539,-84.2605 53.057,-85.2999 53.1131,-86.2758 53.1436,-87.3197 53.1602,-88.4005 53.2741,-89.3989 53.441,-90.4573 53.5317,-91.651 53.5811,-92.8133 53.608,-93.8561 53.7252,-94.9363 53.8915,-96.0392 53.982,-97.0519 54.0313,-98.0132 54.1606,-98.9465 54.3336,-99.8647 54.4277,-100.7745 54.4789,-101.6799 54.6094,-102.5851 54.7829,-103.5928 54.8774,-104.654 54.9287,-105.6417 55.0593,-106.5894 55.2329,-107.4128 55.3273,-108.1685 55.3787,-108.8896 55.4067,-109.4894 55.5245,-110.1235 55.7612,-110.9049 L55.89,-111.33 " stroke-linecap="round" fill="none" stroke="#e599f7" stroke-width="3" stroke-dasharray="none" stroke-dashoffset="0"/></g></g><g transform="matrix(1, 0, 0, 1, 1551.099, 7778.3727)" opacity="0.25"><g transform="scale(1)"><path d="M0,0 Q-2.0566,0.2052 -2.8211,0.261 T-4.2069,0.3472 -6.2968,0.2915 -8.6672,0.1586 -10.3671,0.0863 -11.9074,-0.0557 -13.2583,-0.3381 -14.3033,-0.6969 -15.2845,-1.0973 -16.2286,-1.5203 -17.0501,-1.9557 -17.9073,-2.4 -18.6815,-2.9517 -19.4104,-3.5597 -20.1147,-4.1982 -20.808,-4.8534 -21.4952,-5.5176 -22.1768,-6.2893 -22.958,-7.1196 -23.6908,-7.9839 -24.3972,-8.8668 -25.1919,-9.86 -26.0347,-10.9134 -26.9058,-11.8968 -27.7923,-12.9448 -28.685,-14.1328 -29.5811,-15.2943 -30.4789,-16.4392 -31.3777,-17.575 -32.1745,-18.7059 -32.9157,-19.8341 -33.7316,-20.9631 -34.4856,-22.1952 -35.2035,-23.481 -36.0045,-24.6935 -36.748,-25.8661 -37.4603,-27.2245 -38.2581,-28.6839 -39,-30.0935 -39.7136,-31.4758 -40.5145,-32.8457 -41.3606,-34.3114 -42.1287,-35.9296 -42.8543,-37.5281 -43.5569,-39.0155 -44.2469,-40.5452 -44.93,-42.0955 -45.6094,-43.6571 -46.3917,-45.4322 -47.1274,-47.221 -47.8354,-49.0149 -48.6309,-50.9165 -49.4741,-52.774 -50.3432,-54.6053 -51.1238,-56.4223 -51.8562,-58.2339 -52.5647,-59.9398 -53.2603,-61.5861 -53.9464,-63.3047 -54.5249,-65.0627 -55.0448,-66.8399 -55.5328,-68.6275 -56.0035,-70.423 -56.4647,-72.3254 -56.9209,-74.2837 -57.3742,-76.1722 -57.826,-77.9199 -58.1744,-79.5889 -58.4665,-81.2151 -58.8306,-82.8201 -59.1313,-84.4138 -59.3997,-85.8963 -59.7533,-87.4211 -60.0482,-89.0736 -60.3112,-90.693 -60.5569,-92.2922 -60.7932,-93.8804 -61.0243,-95.4648 -61.2526,-97.0472 -61.582,-98.5236 -61.8638,-99.9424 -62.1197,-101.2272 -62.3615,-102.3389 -62.4931,-103.3563 -62.5646,-104.3201 -62.6036,-105.2549 -62.6247,-106.1738 -62.6363,-107.084 -62.6425,-107.887 -62.6459,-108.5291 -62.6478,-109.291 -62.6492,-110.3202 L-62.65,-110.88 " stroke-linecap="round" fill="none" stroke="#e599f7" stroke-width="3" stroke-dasharray="none" stroke-dashoffset="0"/></g></g><g transform="matrix(1, 0, 0, 1, 1625.4674, 7656.2282)" opacity="1"><g transform="scale(1)"><path d="M0,0 Q-1.441,1.6462 -2.2433,2.5043 T-3.6873,4.0345 -5.0885,5.2773 -6.754,6.5291 L-7.66,7.21 " stroke-linecap="round" fill="none" stroke="#e599f7" stroke-width="3" stroke-dasharray="none" stroke-dashoffset="0"/></g></g><g transform="matrix(1, 0, 0, 1, 1617.8052, 7654.4253)" opacity="1"><g transform="scale(1)"><path d="M0,0 Q1.026,1.2312 1.5126,1.8762 T2.469,3.1798 3.5023,4.5046 4.5774,5.7382 5.6753,6.8198 6.993,7.6133 8.5973,8.2265 L9.47,8.56 " stroke-linecap="round" fill="none" stroke="#e599f7" stroke-width="3" stroke-dasharray="none" stroke-dashoffset="0"/></g></g><g transform="matrix(1, 0, 0, 1, 1626.3689, 7642.7067)" opacity="1"><g transform="scale(1)"><path d="M0,0 Q2.8774,-1.026 3.7626,-1.3051 T5.1294,-1.5308 5.1548,-0.7301 4.3478,0.5262 3.8061,1.5197 3.7167,2.3703 4.0784,2.9356 4.583,3.3457 5.2679,3.6714 6.2561,3.8486 7.3067,3.945 8.4961,3.8948 10.0012,3.7104 L10.82,3.61 " stroke-linecap="round" fill="none" stroke="#e599f7" stroke-width="3" stroke-dasharray="none" stroke-dashoffset="0"/></g></g><g transform="matrix(1, 0, 0, 1, 1683.61, 7728.343)" opacity="1"><g transform="scale(1)"><path d="M0,0 Q1.8514,1.026 2.0448,1.4077 T2.241,2.1019 2.1425,2.687 1.8837,3.2105 1.6403,3.7005 2.0232,4.6852 2.952,5.9391 3.8676,6.929 4.7762,7.7754 5.5782,8.4432 6.2197,9.1166 6.6713,9.7908 6.9169,10.3627 6.948,10.879 6.7597,11.3651 6.3494,11.8347 5.8184,12.1928 5.2218,12.3876 4.4868,12.4936 3.6743,12.5512 2.8196,12.48 1.9443,12.3386 1.1603,12.1591 0.426,11.7537 -0.4328,11.149 L-0.9,10.82 " stroke-linecap="round" fill="none" stroke="#f76707" stroke-width="3" stroke-dasharray="none" stroke-dashoffset="0"/></g></g><g transform="matrix(1, 0, 0, 1, 1646.6512, 7845.9803)" opacity="1"><g transform="scale(1)"><path d="M0,0 Q3.2878,-0.2052 5.2489,-0.3276 L7.21,-0.45 " stroke-linecap="round" fill="none" stroke="#4f72fc" stroke-width="3" stroke-dasharray="none" stroke-dashoffset="0"/></g></g><g transform="matrix(1, 0, 0, 1, 1672.7928, 7838.7688)" opacity="1"><g transform="scale(1)"><path d="M0,0 Q-3.493,3.9034 -4.6482,5.1726 T-6.6395,7.3374 -8.238,8.7203 -9.9103,9.7887 L-10.82,10.37 " stroke-linecap="round" fill="none" stroke="#4f72fc" stroke-width="3" stroke-dasharray="none" stroke-dashoffset="0"/></g></g><g transform="matrix(1, 0, 0, 1, 1662.877, 7840.121)" opacity="1"><g transform="scale(1)"><path d="M0,0 Q2.2618,3.493 3.0822,4.6482 T4.5541,6.6395 5.7652,8.0328 6.8344,8.8934 7.9314,9.3615 9.2193,9.7232 L9.92,9.92 " stroke-linecap="round" fill="none" stroke="#4f72fc" stroke-width="3" stroke-dasharray="none" stroke-dashoffset="0"/></g></g><g transform="matrix(1, 0, 0, 1, 1685.4129, 7839.6702)" opacity="1"><g transform="scale(1)"><path d="M0,0 Q0,3.9034 0,6.2317 L0,8.56 " stroke-linecap="round" fill="none" stroke="#4f72fc" stroke-width="3" stroke-dasharray="none" stroke-dashoffset="0"/></g></g><g transform="matrix(1, 0, 0, 1, 1688.1172, 7844.1774)" opacity="1"><g transform="scale(1)"><path d="M0,0 Q-1.8514,-0.2052 -2.5601,-0.3636 T-3.9623,-0.6082 -5.4828,-0.7972 L-6.31,-0.9 " stroke-linecap="round" fill="none" stroke="#4f72fc" stroke-width="3" stroke-dasharray="none" stroke-dashoffset="0"/></g></g><g transform="matrix(1, 0, 0, 1, 1697.5822, 7836.9659)" opacity="1"><g transform="scale(1)"><path d="M0,0 Q0.4104,3.2878 0.3168,5.4155 T0.1116,10.0816 L0,12.62 " stroke-linecap="round" fill="none" stroke="#4f72fc" stroke-width="3" stroke-dasharray="none" stroke-dashoffset="0"/></g></g><g transform="matrix(1, 0, 0, 1, 1427.1517, 7748.6253)" opacity="1"><g transform="scale(1)"><path d="M0.45,0 Q2.3014,0 2.9075,0 T4.0487,0 5.0798,0 5.9486,0 6.6264,0.1026 7.2003,0.261 7.8203,0.3472 8.4677,0.3941 9.1299,0.4196 9.798,0.4334 10.4692,0.441 11.1422,0.4451 11.8161,0.4473 12.4905,0.4486 13.1651,0.4492 13.84,0.4496 14.5171,0.4498 15.1956,0.3473 15.8725,0.1889 16.5485,0.1028 17.2241,0.0559 18.002,0.0304 18.8356,0.0165 19.5968,0.009 20.3188,0.0049 21.0216,0.0027 21.714,0.0014 22.3984,0.0008 23.0786,-0.1022 23.859,-0.2608 24.6939,-0.3471 25.4559,-0.394 26.1783,-0.5221 26.879,-0.6944 27.5703,-0.7882 28.2564,-0.8392 28.9375,-0.8669 29.6158,-0.882 30.2926,-0.8902 30.9686,-0.8947 31.6441,-0.8971 32.3194,-0.8984 32.9945,-0.8991 33.6719,-0.8995 34.3505,-0.8997 35.0274,-1.0025 35.7035,-1.1609 36.4817,-1.2472 37.3154,-1.2941 38.0767,-1.4222 38.7987,-1.5945 39.4993,-1.6882 40.0878,-1.8418 40.7181,-2.0279 41.3688,-2.1292 42.0305,-2.1843 42.6983,-2.2142 43.3694,-2.2306 44.0423,-2.2394 44.7161,-2.2442 45.3905,-2.2469 46.0674,-2.2483 46.7458,-2.2491 47.4226,-2.2495 48.0986,-2.2497 48.7741,-2.2499 49.4494,-2.2499 50.1245,-2.25 50.7996,-2.25 51.4747,-2.25 52.1497,-2.25 52.9296,-2.1474 53.9726,-1.9224 L54.54,-1.8 " stroke-linecap="round" fill="none" stroke="#40c057" stroke-width="3" stroke-dasharray="none" stroke-dashoffset="0"/></g></g><g transform="matrix(1, 0, 0, 1, 1485.2943, 7745.4703)" opacity="1"><g transform="scale(1)"><path d="M0,0 L-2.25,-1.35 " stroke-linecap="round" fill="none" stroke="#40c057" stroke-width="3" stroke-dasharray="none" stroke-dashoffset="0"/></g></g><g transform="matrix(1, 0, 0, 1, 1480.7871, 7740.5124)" opacity="1"><g transform="scale(1)"><path d="M0.45,0 Q1.2708,1.026 1.8041,2.0256 T2.7302,3.8767 3.3366,5.2941 3.6665,6.2703 3.8459,7.0066 3.9435,7.6124 3.894,8.252 3.7645,8.91 3.6941,9.4732 3.5531,9.9847 3.3739,10.4682 3.1715,11.039 2.9565,11.6573 2.7369,12.1989 2.5149,12.8013 2.3941,13.3342 2.431,13.5215 2.5537,13.4182 2.7253,13.2594 2.9235,13.0705 3.1339,12.7624 3.4536,12.2871 3.7301,11.6181 3.8806,10.9464 3.9624,10.2709 4.0069,9.4907 4.0311,8.6559 4.0443,7.7914 3.9489,7.0133 3.7943,6.2822 3.6077,5.4741 3.2987,4.6241 2.8205,3.8516 2.3551,3.2239 1.9994,2.7798 1.7033,2.4356 1.4396,2.0432 1.0909,1.6245 0.6961,1.1915 0.4813,0.956 0.5696,1.0331 0.8229,1.3828 1.0632,1.8808 1.2966,2.4619 1.5262,3.088 1.7536,3.6338 1.98,4.2386 2.2057,4.9779 2.536,5.7906 2.8205,6.5404 2.9753,7.1536 3.0595,7.7949 3.1053,8.4539 3.1303,9.1224 3.0389,9.7939 2.8844,10.467 2.6977,11.141 2.2884,11.918 1.6806,12.9556 L1.35,13.52 " stroke-linecap="round" fill="none" stroke="#40c057" stroke-width="3" stroke-dasharray="none" stroke-dashoffset="0"/></g></g><g transform="matrix(1, 0, 0, 1, 1488.9, 7699.9478)" opacity="1"><g transform="scale(1)"><path d="M0,0 Q-2.467,0 -3.9385,0 L-5.41,0 " stroke-linecap="round" fill="none" stroke="#40c057" stroke-width="3" stroke-dasharray="none" stroke-dashoffset="0"/></g></g><g transform="matrix(1, 0, 0, 1, 1483.4914, 7701.3)" opacity="1"><g transform="scale(1)"><path d="M0,0 Q0.2052,1.6462 0.261,2.4017 T0.2446,3.7735 0.1331,5.0327 0.0724,6.2308 0.142,7.8082 0.3415,10.0503 L0.45,11.27 " stroke-linecap="round" fill="none" stroke="#40c057" stroke-width="3" stroke-dasharray="none" stroke-dashoffset="0"/></g></g><g transform="matrix(1, 0, 0, 1, 1483.0407, 7713.4693)" opacity="1"><g transform="scale(1)"><path d="M0,0 Q2.6722,0.2052 4.2661,0.3276 L5.86,0.45 " stroke-linecap="round" fill="none" stroke="#40c057" stroke-width="3" stroke-dasharray="none" stroke-dashoffset="0"/></g></g><g transform="matrix(1, 0, 0, 1, 1484.3928, 7704.455)" opacity="1"><g transform="scale(1)"><path d="M0,-0.45 Q0.8208,0.3708 1.1467,0.5941 T1.7524,1.0414 2.2894,1.4899 2.6864,1.9391 3.005,2.391 3.2809,2.8442 3.5335,3.1934 3.8762,3.486 4.2678,3.8503 4.6861,4.2537 5.2214,4.6784 5.7178,5.1146 6.0904,5.4545 6.4984,5.742 6.8229,6.1036 7.102,6.5055 7.3564,6.9294 7.5975,7.3651 7.9338,7.7048 8.3219,7.9922 8.6357,8.3537 8.9113,8.653 9.166,8.9207 9.4072,9.2738 9.7437,9.671 10.0293,10.0924 10.2872,10.4242 10.5302,10.7073 10.7649,11.0665 11.0978,11.4671 11.3815,11.8902 11.6385,12.3256 11.9835,12.665 12.3763,12.9523 12.6926,13.3138 12.9673,13.613 13.3219,13.8784 13.7201,14.228 14.0392,14.6233 14.3155,15.0459 14.6709,15.4832 15.0718,15.9264 15.4973,16.3726 15.8314,16.8206 16.1158,17.1669 16.4757,17.4579 16.774,17.8214 17.039,18.2243 17.3883,18.6487 17.7835,19.0848 18.1011,19.5272 18.3765,20.0757 18.7315,20.6818 19.2324,21.2191 19.7101,21.7188 20.0726,22.1959 20.475,22.6606 21.0039,23.1186 21.6018,23.573 22.1322,24.0253 22.626,24.4766 23.0998,24.8247 23.5627,25.1167 24.0198,25.4807 24.4736,25.884 24.9257,26.3085 25.3768,26.7447 25.7248,27.1871 26.1193,27.6353 26.6418,28.1892 27.1312,28.6957 27.6049,29.0739 28.07,29.4848 28.5283,29.9135 28.9828,30.352 29.4352,30.7957 29.8866,31.2422 30.3373,31.6904 30.7877,32.1394 31.3405,32.5888 31.949,33.0385 32.3827,33.4884 32.7212,33.9405 33.2131,34.394 33.7908,34.8459 34.21,35.2969 34.5406,35.6449 34.9256,35.9368 35.2377,36.3008 35.5101,36.704 35.8634,37.0259 36.1583,37.3037 36.5239,37.7626 37.0305,38.32 37.5114,38.8284 37.8755,39.3102 38.1763,39.7775 38.545,40.2392 38.9509,40.6979 39.2742,41.1526 39.6553,41.6051 40.1727,42.0565 40.6617,42.5073 41.0303,42.9577 41.3334,43.4079 41.7035,43.858 42.11,44.3081 42.5364,44.7581 42.8709,45.2081 43.1555,45.6581 43.5155,46.1082 43.9166,46.5604 44.4425,47.014 44.9339,47.4659 45.3037,47.9169 45.7102,48.3675 46.1364,48.8178 46.5758,49.268 46.9197,49.718 47.2094,50.0655 47.4696,50.3571 47.8163,50.7209 48.2102,51.1241 48.527,51.446 48.9046,51.7237 49.3152,52.08 49.6411,52.479 49.9211,52.7986 50.2785,53.0774 50.6782,53.4366 51.2034,53.8371 51.7969,54.2602 52.325,54.6956 52.7149,55.1377 53.0319,55.4807 53.4118,55.77 53.8236,56.1325 54.2529,56.5349 54.6916,56.8564 55.1355,57.1339 55.5821,57.4901 55.9277,57.8891 56.2183,58.2087 56.5816,58.4852 56.9844,58.8408 57.5114,59.2417 58.1058,59.6673 58.5318,60.104 58.971,60.4442 59.52,60.7318 59.9213,61.0935 60.2422,61.3929 60.6219,61.6583 61.0337,62.0079 61.3604,62.4033 61.7432,62.721 62.2593,62.9964 62.6427,63.3515 62.9538,63.6472 63.3283,63.9107 63.7372,64.2592 64.1648,64.654 64.7053,65.074 65.2045,65.5099 65.6835,65.9546 66.1516,66.4016 66.5088,66.8501 66.9084,67.1966 67.2283,67.4877 67.505,67.8513 67.8607,68.2543 68.2594,68.6787 68.6815,69.1148 69.1163,69.5572 69.558,70.1057 70.0035,70.7118 70.5537,71.2468 71.1608,71.7453 71.6985,72.224 72.0959,72.6896 72.5173,73.148 73.0543,73.6027 73.5517,74.0552 74.0274,74.5065 74.4914,74.8547 74.9491,75.1467 75.4032,75.5107 75.8555,75.9139 76.3067,76.3385 76.7574,76.7747 77.2077,77.2171 77.6579,77.663 78.1103,78.2157 78.5639,78.7238 79.0158,79.1028 79.4669,79.5142 79.9175,79.9432 80.4704,80.3818 80.9764,80.8256 81.3542,81.1696 81.765,81.4593 82.1936,81.8222 82.5294,82.2247 82.8147,82.5463 83.1751,82.8239 83.5763,83.1801 83.8972,83.579 84.1744,84.0013 84.5326,84.3336 84.935,84.6192 85.3591,84.9821 85.795,85.3847 86.2373,85.9115 86.6831,86.4033 87.1309,86.7734 87.5796,87.18 88.029,87.6064 88.376,88.0435 88.6674,88.3839 89.0311,88.6717 89.3316,89.0334 89.5976,89.4354 89.9475,89.8593 90.2405,90.2951 90.5025,90.6348 90.8525,90.9244 91.2503,91.2895 91.5694,91.6933 91.8455,92.0155 92.3036,92.2935 92.7579,92.6498 93.1077,93.0489 93.6058,93.4712 94.1846,94.0087 94.7775,94.7155 L95.1,95.1 " stroke-linecap="round" fill="none" stroke="#40c057" stroke-width="3" stroke-dasharray="none" stroke-dashoffset="0"/></g></g><g transform="matrix(1, 0, 0, 1, 1579.0435, 7793.2463)" opacity="1"><g transform="scale(1)"><path d="M0,0 Q0.4104,1.2312 0.522,1.671 T0.6944,2.5552 0.8907,3.344 1.1002,3.9783 1.2141,4.5285 1.2761,5.1357 1.3098,5.7738 1.3281,6.3261 1.3381,6.8318 1.2409,7.312 1.0855,7.8811 0.8983,8.5008 0.6939,9.0453 0.4801,9.5468 0.056,10.23 -0.5632,11.195 L-0.9,11.72 " stroke-linecap="round" fill="none" stroke="#40c057" stroke-width="3" stroke-dasharray="none" stroke-dashoffset="0"/></g></g><g transform="matrix(1, 0, 0, 1, 1579.945, 7763.499)" opacity="1"><g transform="scale(1)"><path d="M 0 0 m -0.5, 0 a 0.5,0.5 0 1,0 1,0 a 0.5,0.5 0 1,0 -1,0" stroke-linecap="round" fill="#40c057" stroke="#40c057" stroke-width="3" stroke-dasharray="none" stroke-dashoffset="0"/></g></g><g transform="matrix(1, 0, 0, 1, 1581.7478, 7758.0904)" opacity="1"><g transform="scale(1)"><path d="M0,0 Q-0.6156,1.6462 -0.8856,2.2991 T-1.3026,3.4099 -1.5294,4.2193 -1.7554,5.1727 -1.7757,6.617 -1.3764,8.0206 -0.8514,8.9893 -0.1553,9.6189 0.8196,10.1054 L1.35,10.37 " stroke-linecap="round" fill="none" stroke="#40c057" stroke-width="3" stroke-dasharray="none" stroke-dashoffset="0"/></g></g><g transform="matrix(1, 0, 0, 1, 1583.5507, 7757.1889)" opacity="1"><g transform="scale(1)"><path d="M0,0 Q-1.6462,0.2052 -2.0939,0.3636 T-2.7853,0.7108 -3.1613,1.1049 -3.2633,1.6271 -3.2162,2.2212 -3.0857,2.7519 -2.9098,3.2458 -2.8141,3.9249 -2.7621,4.8073 -2.7338,5.5951 -2.7184,6.4341 -2.71,7.3009 -2.7054,7.9777 -2.703,8.5533 -2.7016,9.0739 -2.7009,9.5623 -2.8054,10.0332 -2.9671,10.4946 -3.055,10.9508 -3.1029,11.4041 -2.9215,11.7534 -2.5127,11.9434 -1.9825,12.0467 -1.3863,12.1029 -0.8567,12.1335 -0.2609,12.2528 0.4737,12.3176 1.3327,12.222 L1.8,12.17 " stroke-linecap="round" fill="none" stroke="#40c057" stroke-width="3" stroke-dasharray="none" stroke-dashoffset="0"/></g></g><g transform="matrix(1, 0, 0, 1, 1581.7478, 7764.4004)" opacity="1"><g transform="scale(1)"><path d="M0,0 Q2.2618,-3.493 2.877,-4.6482 T3.9294,-6.6395 4.7072,-8.0328 5.3355,-9.2012 5.8824,-10.4524 6.3852,-11.646 6.8639,-12.7057 7.2269,-13.6926 7.527,-14.5396 7.7929,-15.3104 8.0401,-16.1401 8.2772,-17.0019 8.5087,-17.8811 8.7373,-18.6672 8.9665,-19.4026 9.1961,-20.2131 9.4236,-21.0667 9.65,-21.8411 9.7731,-22.5702 9.9427,-23.3772 10.1375,-24.3293 10.3461,-25.4628 10.6648,-26.5947 10.9408,-27.6231 11.1935,-28.593 11.4336,-29.531 11.6668,-30.4516 11.8963,-31.3629 12.1237,-32.269 12.35,-33.1746 12.4731,-34.08 12.6427,-34.9829 12.8375,-35.7818 12.9435,-36.6269 13.1038,-37.5996 13.2936,-38.4365 13.3968,-39.1996 13.5556,-40.0274 13.7446,-40.8904 13.95,-41.7703 14.1643,-42.5568 14.3835,-43.395 14.6053,-44.364 14.8286,-45.1989 15.1576,-46.0658 15.4414,-47.0527 15.6984,-48.1025 15.9408,-49.1867 16.0727,-50.1868 16.247,-51.2439 16.4445,-52.3342 16.5519,-53.2375 16.7129,-54.2418 16.9031,-55.3012 17.1092,-56.3905 17.3239,-57.5987 17.5433,-58.566 17.8678,-59.5049 18.147,-60.5287 18.4014,-61.5986 18.6425,-62.591 18.8762,-63.5413 19.2085,-64.6762 19.4919,-65.8088 19.7487,-66.9379 19.991,-68.0652 20.2254,-69.1914 20.4555,-70.3171 20.5807,-71.2395 20.7514,-72.154 20.9468,-73.2671 21.0531,-74.3856 21.2136,-75.5071 21.4035,-76.7351 21.5068,-78.021 21.6678,-79.1309 21.8603,-80.3503 21.9651,-81.7318 22.022,-82.9987 22.1556,-84.2031 22.3309,-85.2687 22.4263,-86.3614 22.4781,-87.5715 22.5063,-88.7427 22.5217,-89.8952 22.53,-91.0374 22.5346,-92.0691 22.5371,-93.0408 22.5384,-93.9798 22.5391,-94.7984 22.5395,-95.4489 22.5397,-96.2155 22.5399,-97.2482 L22.54,-97.81 " stroke-linecap="round" fill="none" stroke="#40c057" stroke-width="3" stroke-dasharray="none" stroke-dashoffset="0"/></g></g><g transform="matrix(1, 0, 0, 1, 1482.59, 7778.3727)" opacity="1"><g transform="scale(1)"><path d="M0,0 Q0.2052,0 0.261,0.3078 T0.3472,0.9882 0.3941,1.7711 0.4196,2.6096 0.4334,3.5788 0.4442,4.7648 L0.45,5.41 " stroke-linecap="round" fill="none" stroke="#40c057" stroke-width="3" stroke-dasharray="none" stroke-dashoffset="0"/></g></g><g transform="matrix(1, 0, 0, 1, 1580.3957, 7779.7248)" opacity="1"><g transform="scale(1)"><path d="M0,0 Q0.4104,1.8514 0.522,2.1497 T0.6944,2.4029 0.7881,2.0254 0.8392,0.794 0.8669,-0.4915 0.882,-0.883 0.9928,-0.6855 1.1557,-0.1677 1.2443,0.627 1.2925,1.5745 1.3187,2.7079 1.339,4.1665 L1.35,4.96 " stroke-linecap="round" fill="none" stroke="#40c057" stroke-width="3" stroke-dasharray="none" stroke-dashoffset="0"/></g></g><g transform="matrix(1, 0, 0, 1, 1480.7871, 7774.3162)" opacity="1"><g transform="scale(1)"><path d="M0,0 Q0.4104,1.441 0.6246,1.9355 T1.058,2.9043 1.3964,3.8417 1.683,4.762 1.9416,5.6731 1.9796,7.71 1.7951,10.2568 1.3869,11.95 0.7801,13.5497 L0.45,14.42 " stroke-linecap="round" fill="none" stroke="#40c057" stroke-width="3" stroke-dasharray="none" stroke-dashoffset="0"/></g></g><g transform="matrix(1, 0, 0, 1, 1579.4942, 7777.0205)" opacity="1"><g transform="scale(1)"><path d="M0,0 Q0.8208,1.8514 1.0441,2.5601 T1.3888,3.7571 1.5763,4.8186 1.6783,5.9091 1.7338,6.8101 1.6614,7.5055 1.2116,8.5016 0.4269,10.0032 L0,10.82 " stroke-linecap="round" fill="none" stroke="#40c057" stroke-width="3" stroke-dasharray="none" stroke-dashoffset="0"/></g></g><g transform="matrix(1, 0, 0, 1, 1487.5479, 7773.8655)" opacity="1"><g transform="scale(1)"><path d="M0,0 L-4.06,-0.9 " stroke-linecap="round" fill="none" stroke="#40c057" stroke-width="3" stroke-dasharray="none" stroke-dashoffset="0"/></g></g><g transform="matrix(1, 0, 0, 1, 1483.4914, 7773.8655)" opacity="1"><g transform="scale(1)"><path d="M0,0 Q0.2052,1.6462 0.261,2.2991 T0.3472,3.5125 0.3941,4.4803 0.4196,5.3147 0.4334,7.2072 0.441,9.5728 0.4451,11.1675 0.4473,12.3429 0.346,13.3926 0.0856,14.479 -0.2613,15.6131 L-0.45,16.23 " stroke-linecap="round" fill="none" stroke="#40c057" stroke-width="3" stroke-dasharray="none" stroke-dashoffset="0"/></g></g><g transform="matrix(1, 0, 0, 1, 1482.59, 7789.1899)" opacity="1"><g transform="scale(1)"><path d="M0,0 Q2.2618,0.2052 3.6109,0.3276 L4.96,0.45 " stroke-linecap="round" fill="none" stroke="#40c057" stroke-width="3" stroke-dasharray="none" stroke-dashoffset="0"/></g></g><g transform="matrix(1, 0, 0, 1, 1403.7144, 7800.9085)" opacity="1"><g transform="scale(1)"><path d="M0,0 Q-0.2052,-1.8514 -0.261,-2.2523 T-0.4498,-2.7688 -0.7577,-2.8423 -1.1304,-2.5722 -1.5383,-0.7814 -1.7603,1.9393 -1.6758,3.8297 -1.4246,5.1659 -1.0828,6.3032 -0.7942,7.2297 -0.5347,8.0438 -0.2909,8.7967 -0.2608,9.5142 -0.5523,10.3148 -1.0186,11.0582 -1.5801,11.7704 -2.2983,12.5682 -3.1016,13.31 -4.0516,13.8162 -5.1841,14.0915 -6.3131,14.2413 -7.3377,14.3228 -8.4103,14.2645 -9.4065,14.0276 -10.1537,13.6935 -10.6627,13.3066 -10.9396,12.8909 -10.9877,12.4596 -10.8086,11.9171 -10.5245,11.2066 L-10.37,10.82 " stroke-linecap="round" fill="none" stroke="#40c057" stroke-width="3" stroke-dasharray="none" stroke-dashoffset="0"/></g></g><g transform="matrix(1, 0, 0, 1, 1405.5173, 7807.6693)" opacity="1"><g transform="scale(1)"><path d="M0,0 Q-1.441,0.2052 -2.0381,0.261 T-3.0627,0.3472 -4.0305,0.4967 -5.2154,0.7579 L-5.86,0.9 " stroke-linecap="round" fill="none" stroke="#40c057" stroke-width="3" stroke-dasharray="none" stroke-dashoffset="0"/></g></g><g transform="matrix(1, 0, 0, 1, 1412.278, 7798.6549)" opacity="1"><g transform="scale(1)"><path d="M0,0 Q-1.6462,3.0826 -2.1965,4.2288 T-3.0463,6.3087 -3.6111,7.9555 -3.9184,9.3643 -3.983,10.6437 -3.9155,11.6475 -3.0557,12.5014 -1.3681,13.4525 L-0.45,13.97 " stroke-linecap="round" fill="none" stroke="#40c057" stroke-width="3" stroke-dasharray="none" stroke-dashoffset="0"/></g></g><g transform="matrix(1, 0, 0, 1, 1418.5881, 7804.0636)" opacity="1"><g transform="scale(1)"><path d="M0,0 Q-1.6462,1.8514 -2.2991,2.5601 T-3.4099,3.8597 -4.3219,4.8744 -5.3181,5.8042 L-5.86,6.31 " stroke-linecap="round" fill="none" stroke="#40c057" stroke-width="3" stroke-dasharray="none" stroke-dashoffset="0"/></g></g><g transform="matrix(1, 0, 0, 1, 1414.0809, 7804.965)" opacity="1"><g transform="scale(1)"><path d="M0,0 Q2.2618,2.467 3.6109,3.9385 L4.96,5.41 " stroke-linecap="round" fill="none" stroke="#40c057" stroke-width="3" stroke-dasharray="none" stroke-dashoffset="0"/></g></g><g transform="matrix(1, 0, 0, 1, 1420.3909, 7799.1057)" opacity="1"><g transform="scale(1)"><path d="M0,0 Q1.6462,2.2618 2.1965,3.39 T3.0463,5.5423 3.5085,7.4336 3.6574,9.0804 3.5332,10.5919 3.1555,12.1323 2.569,13.9054 L2.25,14.87 " stroke-linecap="round" fill="none" stroke="#40c057" stroke-width="3" stroke-dasharray="none" stroke-dashoffset="0"/></g></g><g transform="matrix(1, 0, 0, 1, 1429.856, 7804.965)" opacity="1"><g transform="scale(1)"><path d="M0,0 L4.96,-0.45 " stroke-linecap="round" fill="none" stroke="#40c057" stroke-width="3" stroke-dasharray="none" stroke-dashoffset="0"/></g></g><g transform="matrix(1, 0, 0, 1, 1429.856, 7808.12)" opacity="1"><g transform="scale(1)"><path d="M0,0 L6.31,0 " stroke-linecap="round" fill="none" stroke="#40c057" stroke-width="3" stroke-dasharray="none" stroke-dashoffset="0"/></g></g><g transform="matrix(1, 0, 0, 1, 1443.8283, 7798.2042)" opacity="1"><g transform="scale(1)"><path d="M0,0 Q1.6462,2.0566 1.8864,2.8211 T2.0522,4.1043 1.8346,5.0075 1.511,5.6014 1.8503,6.1297 2.8579,6.7249 3.8165,7.2539 4.7483,7.7469 5.563,8.3252 6.2115,9.0524 6.6668,9.7558 6.9145,10.4463 6.9466,11.1297 6.7589,11.8093 6.349,12.5894 5.7156,13.3215 4.9607,13.925 4.1373,14.4585 3.2767,14.8514 2.2955,15.0651 1.1462,15.1813 0.0079,15.142 -1.163,14.9658 L-1.8,14.87 " stroke-linecap="round" fill="none" stroke="#40c057" stroke-width="3" stroke-dasharray="none" stroke-dashoffset="0"/></g></g><g transform="matrix(1, 0, 0, 1, 1477.1814, 7799.1057)" opacity="1"><g transform="scale(1)"><path d="M0,0 L3.61,0.45 " stroke-linecap="round" fill="none" stroke="#40c057" stroke-width="3" stroke-dasharray="none" stroke-dashoffset="0"/></g></g><g transform="matrix(1, 0, 0, 1, 1486.1957, 7797.3028)" opacity="1"><g transform="scale(1)"><path d="M0,0 Q-0.4104,2.2618 -0.6246,2.9796 T-0.9554,4.1904 -0.5197,5.3622 0.3329,6.5126 0.7967,7.3436 1.049,8.0009 1.1863,8.5659 1.1583,9.0808 0.9379,9.6687 0.4076,10.2963 -0.3938,10.8429 -1.3451,11.2429 -2.3779,11.2552 -3.4673,10.9733 L-4.06,10.82 " stroke-linecap="round" fill="none" stroke="#40c057" stroke-width="3" stroke-dasharray="none" stroke-dashoffset="0"/></g></g><g transform="matrix(1, 0, 0, 1, 1484.8436, 7797.7535)" opacity="1"><g transform="scale(1)"><path d="M0,0 Q2.6722,0 4.2661,0 L5.86,0 " stroke-linecap="round" fill="none" stroke="#40c057" stroke-width="3" stroke-dasharray="none" stroke-dashoffset="0"/></g></g><g transform="matrix(1, 0, 0, 1, 1487.0971, 7782.8798)" opacity="1"><g transform="scale(1)"><path d="M0,0 Q1.441,0 2.0381,0 T3.1653,0 4.1889,0 6.4922,-0.1026 9.4917,-0.261 11.5338,-0.3472 13.0551,-0.3941 14.2954,-0.4196 15.3828,-0.4334 16.3847,-0.441 17.4428,-0.4451 18.5313,-0.4473 19.5339,-0.4486 20.5946,-0.4492 21.6869,-0.4496 22.7941,-0.5524 23.9094,-0.7109 25.0292,-0.7971 26.1513,-0.844 27.277,-0.8696 28.4047,-0.8834 29.5312,-0.891 30.657,-0.9977 31.6798,-1.1583 32.6466,-1.2457 33.6878,-1.2933 34.7695,-1.3191 35.7684,-1.3332 36.8248,-1.3409 37.9124,-1.345 38.9145,-1.4499 39.8723,-1.6095 40.9087,-1.6964 41.9854,-1.7436 42.9816,-1.7693 44.0365,-1.7833 45.1234,-1.7909 46.1273,-1.7951 47.0861,-1.7973 48.0181,-1.7985 48.9355,-1.7992 49.845,-1.7996 50.7502,-1.7998 51.5504,-1.7999 52.2958,-1.7999 53.2165,-1.8 54.2304,-1.6974 55.1924,-1.539 56.1261,-1.4528 57.0444,-1.4059 57.9544,-1.2778 58.8621,-1.1055 59.8712,-1.0118 60.9331,-0.9608 62.0238,-0.8305 63.2328,-0.657 64.4057,-0.5626 65.4565,-0.5113 66.5411,-0.4833 67.6441,-0.4681 68.6546,-0.4599 69.7172,-0.4554 70.8106,-0.4529 71.8181,-0.5542 72.8792,-0.7119 73.9694,-0.7977 74.9729,-0.8443 75.9292,-0.7671 76.7572,-0.6225 77.5177,-0.5438 78.2415,-0.5011 78.9431,-0.4778 79.6325,-0.4651 80.2128,-0.3556 80.9388,-0.1935 81.9494,-0.1052 82.9096,-0.0573 83.742,0.0715 84.6075,0.2441 85.3861,0.338 86.1175,0.4917 87.0283,0.6779 88.1395,0.7792 89.1543,0.8343 90.0165,0.8642 91.206,0.8805 92.8537,0.8931 L93.75,0.9 " stroke-linecap="round" fill="none" stroke="#40c057" stroke-width="3" stroke-dasharray="none" stroke-dashoffset="0"/></g></g><g transform="matrix(1, 0, 0, 1, 1525.8589, 7820.7401)" opacity="1"><g transform="scale(1)"><path d="M0,0 Q0.4104,-8.0165 0.522,-11.1204 T0.797,-16.3254 1.0492,-19.8775 1.2889,-22.4254 1.522,-24.3245 1.6488,-25.8728 1.7467,-27.5096 L1.8,-28.4 " stroke-linecap="round" fill="none" stroke="#40c057" stroke-width="3" stroke-dasharray="none" stroke-dashoffset="0"/></g></g><g transform="matrix(1, 0, 0, 1, 1523.6053, 7794.1478)" opacity="1"><g transform="scale(1)"><path d="M0,0 Q-1.441,1.8514 -1.9355,2.5601 T-2.8017,3.7571 -3.4781,4.6134 -3.846,5.1819 -3.841,5.3885 -3.6331,5.2957 -3.2099,5.04 -2.5882,4.6967 L-2.25,4.51 " stroke-linecap="round" fill="none" stroke="#40c057" stroke-width="3" stroke-dasharray="none" stroke-dashoffset="0"/></g></g><g transform="matrix(1, 0, 0, 1, 1528.1124, 7790.9927)" opacity="1"><g transform="scale(1)"><path d="M0,0 Q1.6462,0.8208 2.2991,1.1467 T3.5125,1.9599 4.5829,2.9175 5.5757,3.8489 6.5261,4.766 7.6611,5.7778 9.1241,6.9969 L9.92,7.66 " stroke-linecap="round" fill="none" stroke="#40c057" stroke-width="3" stroke-dasharray="none" stroke-dashoffset="0"/></g></g><g transform="matrix(1, 0, 0, 1, 1501.9708, 7841.9238)" opacity="1"><g transform="scale(1)"><path d="M0,0 Q-0.2052,-2.6722 -0.4662,-3.399 T-0.9718,-4.4186 -1.5547,-4.7681 -2.1818,-4.5478 -2.7305,-3.9127 -3.2341,-3.1545 -3.6107,-1.2008 -3.713,1.4033 -3.5634,3.2304 -3.3795,4.6347 -3.1745,5.809 -2.9581,6.8583 -2.8404,7.7369 -2.8813,8.4223 -3.111,9.1052 -3.5437,9.8872 -4.1895,10.6203 -4.9513,11.2244 -5.7761,11.7582 -6.7377,12.1512 -7.7762,12.365 -8.7538,12.5839 -9.5934,12.7029 -10.3579,12.6651 -10.979,12.5419 -11.4195,12.0645 -11.9056,11.2585 L-12.17,10.82 " stroke-linecap="round" fill="none" stroke="#40c057" stroke-width="3" stroke-dasharray="none" stroke-dashoffset="0"/></g></g><g transform="matrix(1, 0, 0, 1, 1501.9708, 7847.3324)" opacity="1"><g transform="scale(1)"><path d="M0,0 Q-2.0566,0.4104 -2.8211,0.522 T-4.3095,0.6944 -5.8373,0.6855 -7.6007,0.533 L-8.56,0.45 " stroke-linecap="round" fill="none" stroke="#40c057" stroke-width="3" stroke-dasharray="none" stroke-dashoffset="0"/></g></g><g transform="matrix(1, 0, 0, 1, 1510.9852, 7836.9659)" opacity="1"><g transform="scale(1)"><path d="M0,0 Q-1.6462,2.8774 -2.2991,4.0704 T-3.4099,6.2225 -4.1167,8.0112 -4.5013,9.4972 -4.7104,10.8186 -4.8242,12.0504 -4.4757,13.3384 -3.6236,14.9198 L-3.16,15.78 " stroke-linecap="round" fill="none" stroke="#40c057" stroke-width="3" stroke-dasharray="none" stroke-dashoffset="0"/></g></g><g transform="matrix(1, 0, 0, 1, 1519.5488, 7842.3745)" opacity="1"><g transform="scale(1)"><path d="M0,0 Q-1.2312,1.6462 -1.8762,2.4017 T-3.0772,3.7735 -4.141,4.9301 -5.13,5.8672 -6.1811,6.4795 -7.4304,6.9526 L-8.11,7.21 " stroke-linecap="round" fill="none" stroke="#40c057" stroke-width="3" stroke-dasharray="none" stroke-dashoffset="0"/></g></g><g transform="matrix(1, 0, 0, 1, 1512.788, 7844.1774)" opacity="1"><g transform="scale(1)"><path d="M0,0 Q2.2618,2.0566 3.4926,2.9237 T6.1917,4.8255 L7.66,5.86 " stroke-linecap="round" fill="none" stroke="#40c057" stroke-width="3" stroke-dasharray="none" stroke-dashoffset="0"/></g></g><g transform="matrix(1, 0, 0, 1, 1522.2531, 7837.4166)" opacity="1"><g transform="scale(1)"><path d="M0,0 Q1.8514,2.6722 2.4575,3.8094 T3.3935,5.8731 3.9026,7.7162 4.077,9.4393 3.864,10.9923 2.8225,12.4527 0.9945,14.0183 L0,14.87 " stroke-linecap="round" fill="none" stroke="#40c057" stroke-width="3" stroke-dasharray="none" stroke-dashoffset="0"/></g></g><g transform="matrix(1, 0, 0, 1, 1529.4646, 7841.9238)" opacity="1"><g transform="scale(1)"><path d="M0,0 Q1.6462,0.2052 2.5043,0.261 T4.3862,0.3834 L5.41,0.45 " stroke-linecap="round" fill="none" stroke="#40c057" stroke-width="3" stroke-dasharray="none" stroke-dashoffset="0"/></g></g><g transform="matrix(1, 0, 0, 1, 1529.4646, 7846.431)" opacity="1"><g transform="scale(1)"><path d="M0,0 L4.06,0.9 " stroke-linecap="round" fill="none" stroke="#40c057" stroke-width="3" stroke-dasharray="none" stroke-dashoffset="0"/></g></g><g transform="matrix(1, 0, 0, 1, 1542.9861, 7844.6281)" opacity="1"><g transform="scale(1)"><path d="M0,0 Q1.441,0 1.9355,0 T2.9043,0 3.8417,-0.1026 4.8574,-0.3276 L5.41,-0.45 " stroke-linecap="round" fill="none" stroke="#40c057" stroke-width="3" stroke-dasharray="none" stroke-dashoffset="0"/></g></g><g transform="matrix(1, 0, 0, 1, 1561.4655, 7839.2195)" opacity="1"><g transform="scale(1)"><path d="M0,0 Q-2.2618,2.8774 -3.0822,3.8652 T-4.4515,5.493 -5.6068,6.4812 -6.9366,7.2447 L-7.66,7.66 " stroke-linecap="round" fill="none" stroke="#40c057" stroke-width="3" stroke-dasharray="none" stroke-dashoffset="0"/></g></g><g transform="matrix(1, 0, 0, 1, 1555.1555, 7840.121)" opacity="1"><g transform="scale(1)"><path d="M0,0 Q1.8514,2.6722 2.4575,3.5016 T3.4961,4.8848 4.1636,5.8425 4.732,6.5687 5.4626,7.2755 L5.86,7.66 " stroke-linecap="round" fill="none" stroke="#40c057" stroke-width="3" stroke-dasharray="none" stroke-dashoffset="0"/></g></g><g transform="matrix(1, 0, 0, 1, 1569.5785, 7837.8674)" opacity="1"><g transform="scale(1)"><path d="M0,0 Q0,3.9034 0,6.2317 L0,8.56 " stroke-linecap="round" fill="none" stroke="#40c057" stroke-width="3" stroke-dasharray="none" stroke-dashoffset="0"/></g></g><g transform="matrix(1, 0, 0, 1, 1572.2828, 7842.8253)" opacity="1"><g transform="scale(1)"><path d="M0,0 Q-2.0566,0 -2.7185,0 T-3.9458,0 -5.0239,-0.1026 -6.1483,-0.3276 L-6.76,-0.45 " stroke-linecap="round" fill="none" stroke="#40c057" stroke-width="3" stroke-dasharray="none" stroke-dashoffset="0"/></g></g><g transform="matrix(1, 0, 0, 1, 1577.2407, 7836.5152)" opacity="1"><g transform="scale(1)"><path d="M0,0 Q-0.2052,4.9339 -0.3636,6.4811 T-0.711,9.8742 L-0.9,11.72 " stroke-linecap="round" fill="none" stroke="#40c057" stroke-width="3" stroke-dasharray="none" stroke-dashoffset="0"/></g></g><g transform="matrix(1, 0, 0, 1, 1586.255, 7782.4291)" opacity="1"><g transform="scale(1)"><path d="M0,0 Q2.0566,0 2.9237,-0.1026 T4.5705,-0.261 6.0819,-0.3472 7.522,-0.3941 9.1285,-0.5222 12.7772,-1.0023 17.3316,-1.5712 20.5274,-1.9833 22.9842,-2.3101 24.8336,-2.5928 26.4576,-2.8514 28.0615,-2.9921 29.5497,-3.0687 30.9748,-3.1103 32.368,-3.133 33.7437,-3.1453 35.1078,-3.152 36.4654,-3.1556 37.8195,-3.1576 39.1741,-3.1587 40.5288,-3.1593 41.8814,-3.1596 43.2328,-3.1598 44.5836,-3.1599 45.8337,-3.0551 47.029,-2.7906 48.1923,-2.5441 49.2355,-2.3074 50.316,-2.076 51.4168,-1.9501 52.3257,-1.7791 53.2328,-1.5834 54.4445,-1.477 55.8218,-1.4191 57.1867,-1.3876 58.5471,-1.3704 59.8024,-1.3611 60.8957,-1.356 62.0035,-1.3533 63.1191,-1.3518 64.2413,-1.351 65.367,-1.3505 66.4924,-1.3503 67.7202,-1.3502 69.0038,-1.3501 70.3199,-1.35 71.7563,-1.35 73.1534,-1.35 74.4264,-1.35 75.7345,-1.35 77.1665,-1.35 78.8713,-1.35 80.6195,-1.35 82.1861,-1.35 83.6562,-1.35 84.9712,-1.35 86.097,-1.35 87.1198,-1.35 88.2918,-1.2474 89.7803,-1.0224 L90.59,-0.9 " stroke-linecap="round" fill="none" stroke="#40c057" stroke-width="3" stroke-dasharray="none" stroke-dashoffset="0"/></g></g><g transform="matrix(1, 0, 0, 1, 1666.9334, 7788.7392)" opacity="1"><g transform="scale(1)"><path d="M0,0 Q0.6156,3.6982 0.8856,4.8067 T1.6127,7.0335 2.6261,8.9653 3.7929,10.4267 4.8381,11.5294 5.8171,12.3345 6.8627,12.8751 7.9467,13.1692 9.2248,13.3964 L9.92,13.52 " stroke-linecap="round" fill="none" stroke="#40c057" stroke-width="3" stroke-dasharray="none" stroke-dashoffset="0"/></g></g><g transform="matrix(1, 0, 0, 1, 1664.2291, 7788.7392)" opacity="1"><g transform="scale(1)"><path d="M0,0 Q-1.6462,2.2618 -2.2991,3.1848 T-3.5125,4.9177 -4.4803,6.3734 -4.8017,7.1653 -4.6128,7.4857 L-4.51,7.66 " stroke-linecap="round" fill="none" stroke="#40c057" stroke-width="3" stroke-dasharray="none" stroke-dashoffset="0"/></g></g><g transform="matrix(1, 0, 0, 1, 1666.9334, 7786.0348)" opacity="1"><g transform="scale(1)"><path d="M0,0 Q2.6722,1.026 3.912,1.2025 T6.239,1.3723 8.6231,1.3579 L9.92,1.35 " stroke-linecap="round" fill="none" stroke="#40c057" stroke-width="3" stroke-dasharray="none" stroke-dashoffset="0"/></g></g><g transform="matrix(1, 0, 0, 1, 1693.9765, 7797.7535)" opacity="1"><g transform="scale(1)"><path d="M0,0 Q-1.8514,-0.4104 -2.4575,0.2988 T-3.3935,1.6012 -3.8,3.0302 -3.5059,5.8619 -3.1407,9.1488 -3.2521,11.2447 -3.5179,12.59 -4.0729,13.4245 -4.8878,13.8784 -5.8441,14.1254 -6.7748,14.1571 -7.5888,13.9692 -8.4444,13.6618 -9.2199,13.2893 -9.8469,12.7789 -10.188,12.0908 -10.3059,11.2678 L-10.37,10.82 " stroke-linecap="round" fill="none" stroke="#40c057" stroke-width="3" stroke-dasharray="none" stroke-dashoffset="0"/></g></g><g transform="matrix(1, 0, 0, 1, 1693.5258, 7805.8664)" opacity="1"><g transform="scale(1)"><path d="M0,0 Q-2.2618,0.4104 -3.0822,0.522 T-4.6567,0.4892 -6.3104,0.1724 L-7.21,0 " stroke-linecap="round" fill="none" stroke="#40c057" stroke-width="3" stroke-dasharray="none" stroke-dashoffset="0"/></g></g><g transform="matrix(1, 0, 0, 1, 1702.9908, 7797.7535)" opacity="1"><g transform="scale(1)"><path d="M0,0 Q-1.2312,1.6462 -1.671,2.2991 T-2.6578,3.8203 -3.5024,5.366 -4.0645,6.8247 -3.7523,9.1596 -2.6569,11.4557 -1.519,13.0841 L-0.9,13.97 " stroke-linecap="round" fill="none" stroke="#40c057" stroke-width="3" stroke-dasharray="none" stroke-dashoffset="0"/></g></g><g transform="matrix(1, 0, 0, 1, 1712.0052, 7802.2607)" opacity="1"><g transform="scale(1)"><path d="M0,0 Q-1.8514,2.2618 -2.4575,2.9796 T-3.5987,4.1904 -4.835,4.9518 -6.3732,5.54 L-7.21,5.86 " stroke-linecap="round" fill="none" stroke="#40c057" stroke-width="3" stroke-dasharray="none" stroke-dashoffset="0"/></g></g><g transform="matrix(1, 0, 0, 1, 1706.5966, 7802.2607)" opacity="1"><g transform="scale(1)"><path d="M0,0 Q1.441,2.6722 2.1407,3.7068 T3.6752,5.9757 L4.51,7.21 " stroke-linecap="round" fill="none" stroke="#40c057" stroke-width="3" stroke-dasharray="none" stroke-dashoffset="0"/></g></g><g transform="matrix(1, 0, 0, 1, 1716.9631, 7797.3028)" opacity="1"><g transform="scale(1)"><path d="M0,0 Q0.8208,2.6722 1.0441,3.6042 T1.3888,5.4536 1.5763,7.5906 1.5757,9.6788 1.3702,11.3278 1.0532,12.7378 0.3677,13.8127 -0.7448,14.7889 L-1.35,15.32 " stroke-linecap="round" fill="none" stroke="#40c057" stroke-width="3" stroke-dasharray="none" stroke-dashoffset="0"/></g></g><g transform="matrix(1, 0, 0, 1, 1728.231, 7803.6128)" opacity="1"><g transform="scale(1)"><path d="M0,0 Q1.8514,0.4104 2.6627,0.522 T4.442,0.7668 L5.41,0.9 " stroke-linecap="round" fill="none" stroke="#40c057" stroke-width="3" stroke-dasharray="none" stroke-dashoffset="0"/></g></g><g transform="matrix(1, 0, 0, 1, 1727.7803, 7806.7679)" opacity="1"><g transform="scale(1)"><path d="M0,0 Q2.467,0.8208 3.9385,1.3104 L5.41,1.8 " stroke-linecap="round" fill="none" stroke="#40c057" stroke-width="3" stroke-dasharray="none" stroke-dashoffset="0"/></g></g><g transform="matrix(1, 0, 0, 1, 1753.9219, 7800.4578)" opacity="1"><g transform="scale(1)"><path d="M0,0 Q-3.493,3.2878 -4.7508,4.3872 T-7.0031,6.29 -8.7436,7.7378 -10.2034,8.7329 -11.7686,9.5017 L-12.62,9.92 " stroke-linecap="round" fill="none" stroke="#40c057" stroke-width="3" stroke-dasharray="none" stroke-dashoffset="0"/></g></g><g transform="matrix(1, 0, 0, 1, 1744.0061, 7801.81)" opacity="1"><g transform="scale(1)"><path d="M0,0 Q2.0566,2.467 2.8211,3.3432 T4.1043,5.0038 5.0075,6.4203 5.8066,7.4986 6.5492,8.2927 7.1583,8.6221 7.7747,8.5819 L8.11,8.56 " stroke-linecap="round" fill="none" stroke="#40c057" stroke-width="3" stroke-dasharray="none" stroke-dashoffset="0"/></g></g><g transform="matrix(1, 0, 0, 1, 1752.5698, 7789.1899)" opacity="1"><g transform="scale(1)"><path d="M0,0 Q2.2618,-0.8208 3.0822,-1.0441 T4.4515,-1.3888 5.4016,-1.4737 6.021,-1.1095 6.358,-0.3984 5.7205,1.1194 4.5529,2.9733 3.8129,4.187 3.3054,5.0525 3.1342,5.7285 3.4538,6.3015 4.1406,6.8184 4.9247,7.2021 5.7616,7.5135 6.8325,7.7855 8.2428,7.9957 L9.01,8.11 " stroke-linecap="round" fill="none" stroke="#40c057" stroke-width="3" stroke-dasharray="none" stroke-dashoffset="0"/></g></g><g transform="matrix(1, 0, 0, 1, 1428.2785, 7891.5028)" opacity="1"><g transform="scale(1)"><path d="M0,0 Q0.4104,-3.493 0.4194,-4.5456 T0.4334,-6.2736 0.2358,-7.4188 -0.077,-8.0418 -0.3497,-8.1755 -1.011,-7.2222 -1.7812,-5.3676 -2.305,-3.6382 -2.6949,-2.0818 -2.907,-0.7221 -3.0224,0.5306 -3.0851,1.7273 -3.0144,2.8936 -2.871,4.0411 -2.793,5.0757 -2.648,5.9463 -2.4665,6.7278 -2.3678,7.5633 -2.3141,8.4305 -2.2849,9.3149 -2.269,10.2064 -2.2603,11.2044 -2.3582,12.2603 -2.6189,13.2451 -2.9683,14.1936 -3.3635,15.1222 -3.8863,15.9351 -4.4785,16.5826 -5.1085,17.14 -5.759,17.5458 -6.4206,17.7666 -7.191,17.8867 -8.0227,17.9521 -8.8879,17.9876 -9.7689,17.9043 -10.7612,17.6538 -11.7114,17.3124 -12.5361,16.9214 -13.2926,16.296 -14.0228,15.3724 L-14.42,14.87 " stroke-linecap="round" fill="none" stroke="#40c057" stroke-width="3" stroke-dasharray="none" stroke-dashoffset="0"/></g></g><g transform="matrix(1, 0, 0, 1, 1431.4335, 7900.9678)" opacity="1"><g transform="scale(1)"><path d="M0,0 Q-2.0566,0.2052 -3.0263,0.3636 T-4.7289,0.6082 -6.2707,0.8439 -8.0448,1.1717 L-9.01,1.35 " stroke-linecap="round" fill="none" stroke="#40c057" stroke-width="3" stroke-dasharray="none" stroke-dashoffset="0"/></g></g><g transform="matrix(1, 0, 0, 1, 1443.6029, 7886.9956)" opacity="1"><g transform="scale(1)"><path d="M0,0 Q-3.0826,8.0165 -3.921,10.6074 T-5.3182,14.9155 -6.1809,17.7721 -6.5475,19.6362 -6.4392,20.9603 -6.0641,22.2749 L-5.86,22.99 " stroke-linecap="round" fill="none" stroke="#40c057" stroke-width="3" stroke-dasharray="none" stroke-dashoffset="0"/></g></g><g transform="matrix(1, 0, 0, 1, 1454.8708, 7897.8128)" opacity="1"><g transform="scale(1)"><path d="M0,0 Q-2.2618,2.2618 -3.2874,3.2874 T-5.1787,5.1787 -6.8254,6.7206 -8.134,7.972 -9.1536,8.7577 -10.2329,9.219 L-10.82,9.47 " stroke-linecap="round" fill="none" stroke="#40c057" stroke-width="3" stroke-dasharray="none" stroke-dashoffset="0"/></g></g><g transform="matrix(1, 0, 0, 1, 1446.3072, 7899.165)" opacity="1"><g transform="scale(1)"><path d="M0,0 Q2.0566,3.493 3.3341,4.9583 T6.1359,8.1718 L7.66,9.92 " stroke-linecap="round" fill="none" stroke="#40c057" stroke-width="3" stroke-dasharray="none" stroke-dashoffset="0"/></g></g><g transform="matrix(1, 0, 0, 1, 1460.2795, 7887.4463)" opacity="1"><g transform="scale(1)"><path d="M0,0 Q1.8514,3.493 2.4575,4.9583 T3.3935,7.7338 3.8,10.3723 3.816,13.1437 3.5146,15.8849 2.9379,18.5069 1.8034,21.7847 0.0525,26.0692 L-0.9,28.4 " stroke-linecap="round" fill="none" stroke="#40c057" stroke-width="3" stroke-dasharray="none" stroke-dashoffset="0"/></g></g><g transform="matrix(1, 0, 0, 1, 1475.1531, 7903.8975)" opacity="1"><g transform="scale(1)"><path d="M0,0 Q2.467,0 3.9385,0 L5.41,0 " stroke-linecap="round" fill="none" stroke="#40c057" stroke-width="3" stroke-dasharray="none" stroke-dashoffset="0"/></g></g><g transform="matrix(1, 0, 0, 1, 1475.6038, 7907.9539)" opacity="1"><g transform="scale(1)"><path d="M0,0 Q2.6722,0.4104 4.2661,0.6552 L5.86,0.9 " stroke-linecap="round" fill="none" stroke="#40c057" stroke-width="3" stroke-dasharray="none" stroke-dashoffset="0"/></g></g><g transform="matrix(1, 0, 0, 1, 1507.1541, 7883.1645)" opacity="1"><g transform="scale(1)"><path d="M0,0 Q-1.6462,-1.8514 -2.2991,-2.4575 T-3.5125,-3.3935 -4.5829,-3.9026 -5.5757,-4.1796 -6.9388,-3.7124 -8.4008,-2.6351 -9.2988,-1.7413 -9.8899,-0.9473 -10.314,-0.1049 -10.5447,0.7637 -10.7729,1.6489 -10.9996,2.5432 -11.1229,3.3375 -11.19,3.9747 -11.2265,4.5266 -11.2463,5.032 -11.1545,5.5122 -11.002,6.0812 -10.8164,6.6985 -10.5102,7.2396 -10.2411,7.8417 -9.9921,8.4793 -9.6491,9.1363 -9.2551,9.8014 -8.8355,10.3685 -8.4021,10.9848 -7.9611,11.6278 -7.516,12.1829 -7.0687,12.69 -6.7227,13.2737 -6.5345,13.899 -6.4321,14.5493 -6.3764,15.3157 -6.3461,16.143 -6.4323,16.9009 -6.6843,17.621 -7.0266,18.4231 -7.5206,19.1672 -8.2021,19.8799 -8.8828,20.5753 -9.561,21.0563 -10.3403,21.4228 -11.1746,21.727 -12.0389,21.8925 -12.8169,21.8777 -13.2401,21.6621 -13.2651,21.4423 -13.0736,21.3227 -12.6615,21.2576 -12.1296,21.2222 -11.635,21.3056 -11.1608,21.5584 -10.6976,21.9034 -10.2404,22.3989 -9.8891,23.1814 -9.698,24.1201 -9.594,25.1438 -9.6401,26.3185 -9.8703,27.5755 -10.3034,28.9775 -10.8468,30.4583 -11.4502,31.9844 -12.2914,33.5351 -13.262,35.0968 -14.3054,36.6646 -15.3882,38.1331 -16.3877,39.5499 -17.2392,40.8358 -17.9076,42.0484 -18.4764,43.1185 -18.8884,44.0084 -19.1126,45.0055 -19.2345,46.0632 -19.3009,47.0512 -19.1318,48.1018 -18.6294,49.1862 -17.843,50.2892 -16.6948,51.5071 -15.2471,52.6849 -13.5361,53.736 -11.4745,54.6156 -9.1195,55.1967 -6.7075,55.5129 -4.3671,55.5822 -1.8301,55.4901 L-0.45,55.44 " stroke-linecap="round" fill="none" stroke="#40c057" stroke-width="3" stroke-dasharray="none" stroke-dashoffset="0"/></g></g><g transform="matrix(1, 0, 0, 1, 1579.7196, 7886.7702)" opacity="1"><g transform="scale(1)"><path d="M0,0 Q-2.0566,1.8514 -2.8211,2.5601 T-4.4121,3.9623 -6.0983,5.1354 -7.9841,6.1876 L-9.01,6.76 " stroke-linecap="round" fill="none" stroke="#40c057" stroke-width="3" stroke-dasharray="none" stroke-dashoffset="0"/></g></g><g transform="matrix(1, 0, 0, 1, 1571.6067, 7886.3195)" opacity="1"><g transform="scale(1)"><path d="M0,0 Q3.493,3.9034 4.6482,5.0677 T7.1818,7.621 L8.56,9.01 " stroke-linecap="round" fill="none" stroke="#40c057" stroke-width="3" stroke-dasharray="none" stroke-dashoffset="0"/></g></g><g transform="matrix(1, 0, 0, 1, 1597.7483, 7884.0659)" opacity="1"><g transform="scale(1)"><path d="M0,0 Q-2.6722,2.467 -3.6042,3.2406 T-4.9406,4.5376 -5.4625,5.4484 -5.1307,6.767 -4.4373,8.3074 -3.9574,9.3505 -3.3863,10.1232 -2.663,10.7487 -1.9617,11.1916 -1.1697,11.33 -0.1207,11.2911 L0.45,11.27 " stroke-linecap="round" fill="none" stroke="#40c057" stroke-width="3" stroke-dasharray="none" stroke-dashoffset="0"/></g></g><g transform="matrix(1, 0, 0, 1, 1603.6076, 7889.4745)" opacity="1"><g transform="scale(1)"><path d="M0,0 Q1.6462,0.2052 2.2991,0.261 T3.5125,0.2446 4.7414,0.0862 L5.41,0 " stroke-linecap="round" fill="none" stroke="#40c057" stroke-width="3" stroke-dasharray="none" stroke-dashoffset="0"/></g></g><g transform="matrix(1, 0, 0, 1, 1616.2277, 7883.6152)" opacity="1"><g transform="scale(1)"><path d="M0,0 Q-0.8208,1.6462 -1.1467,2.2991 T-1.6498,3.4099 -2.0261,4.2193 -2.3334,4.8649 -1.5772,5.5239 -0.1398,6.1901 0.95,6.7578 1.8529,7.2718 2.4489,7.8592 2.7732,8.5915 2.7421,9.5051 2.3125,10.4125 1.771,11.2139 1.1686,11.9577 0.3279,12.4649 -0.6424,12.7408 -1.6855,12.8909 -2.932,13.0069 L-3.61,13.07 " stroke-linecap="round" fill="none" stroke="#40c057" stroke-width="3" stroke-dasharray="none" stroke-dashoffset="0"/></g></g><g transform="matrix(1, 0, 0, 1, 1616.6784, 7884.9673)" opacity="1"><g transform="scale(1)"><path d="M0,0 Q3.2878,-0.6156 4.3872,-0.783 T6.3949,-1.0416 8.1049,-1.1822 9.8634,-1.2909 L10.82,-1.35 " stroke-linecap="round" fill="none" stroke="#40c057" stroke-width="3" stroke-dasharray="none" stroke-dashoffset="0"/></g></g><g transform="matrix(1, 0, 0, 1, 1517.9713, 7884.0659)" opacity="1"><g transform="scale(1)"><path d="M0,0 Q1.8514,-0.4104 2.5601,-0.522 T3.8597,-0.6944 5.1822,-0.6855 6.4147,-0.4755 7.2904,-0.1561 6.7407,1.046 5.1056,2.6256 4.1135,3.5875 3.7813,4.3159 3.9084,4.8148 4.3879,5.1888 5.0592,5.4949 5.7322,5.764 6.4061,6.1156 7.0805,6.512 7.6525,6.9329 8.0663,7.4697 8.2914,8.0695 8.2087,8.7058 7.7533,9.4647 7.0952,10.1853 6.3267,10.8851 5.3957,11.5736 4.3739,12.0508 3.4054,12.3103 2.4682,12.4515 1.5479,12.5284 0.7394,12.4675 0.0945,12.2293 -0.359,11.6892 -0.7094,10.8348 L-0.9,10.37 " stroke-linecap="round" fill="none" stroke="#40c057" stroke-width="3" stroke-dasharray="none" stroke-dashoffset="0"/></g></g><g transform="matrix(1, 0, 0, 1, 1533.7464, 7896.686)" opacity="1"><g transform="scale(1)"><path d="M0,0 L-3.16,3.61 " stroke-linecap="round" fill="none" stroke="#40c057" stroke-width="3" stroke-dasharray="none" stroke-dashoffset="0"/></g></g><g transform="matrix(1, 0, 0, 1, 1506.2526, 7912.4611)" opacity="1"><g transform="scale(1)"><path d="M0,0 Q1.8514,0.4104 2.5601,0.4194 T3.8597,0.3308 5.1552,0.1165 L5.86,0 " stroke-linecap="round" fill="none" stroke="#40c057" stroke-width="3" stroke-dasharray="none" stroke-dashoffset="0"/></g></g><g transform="matrix(1, 0, 0, 1, 1522.9292, 7908.4047)" opacity="1"><g transform="scale(1)"><path d="M0,0 Q-2.2618,2.2618 -3.0822,3.0822 T-4.5541,4.5541 -5.7652,5.6626 -6.8344,6.4708 -7.952,7.241 L-8.56,7.66 " stroke-linecap="round" fill="none" stroke="#40c057" stroke-width="3" stroke-dasharray="none" stroke-dashoffset="0"/></g></g><g transform="matrix(1, 0, 0, 1, 1516.1684, 7908.8554)" opacity="1"><g transform="scale(1)"><path d="M0,0 Q1.441,1.6462 1.9355,2.1965 T2.8017,3.2515 3.4781,4.1332 4.0512,4.818 4.7734,5.3958 5.7686,5.9879 L6.31,6.31 " stroke-linecap="round" fill="none" stroke="#40c057" stroke-width="3" stroke-dasharray="none" stroke-dashoffset="0"/></g></g><g transform="matrix(1, 0, 0, 1, 1526.5349, 7912.0104)" opacity="1"><g transform="scale(1)"><path d="M0,0 L4.51,0.9 " stroke-linecap="round" fill="none" stroke="#40c057" stroke-width="3" stroke-dasharray="none" stroke-dashoffset="0"/></g></g><g transform="matrix(1, 0, 0, 1, 1529.2392, 7910.2075)" opacity="1"><g transform="scale(1)"><path d="M0,0 Q0,1.8514 0,2.6627 T0,4.442 L0,5.41 " stroke-linecap="round" fill="none" stroke="#40c057" stroke-width="3" stroke-dasharray="none" stroke-dashoffset="0"/></g></g><g transform="matrix(1, 0, 0, 1, 1536.4507, 7906.6018)" opacity="1"><g transform="scale(1)"><path d="M0,0 Q-0.2052,3.2878 -0.261,4.3872 T-0.3472,6.29 -0.2915,7.7378 -0.1027,9.1511 L0,9.92 " stroke-linecap="round" fill="none" stroke="#40c057" stroke-width="3" stroke-dasharray="none" stroke-dashoffset="0"/></g></g><g transform="matrix(1, 0, 0, 1, 1598.199, 7908.4047)" opacity="1"><g transform="scale(1)"><path d="M0,0 Q-2.2618,3.2878 -3.0822,4.2846 T-4.5541,5.9264 -5.8678,6.7169 -7.32,7.0363 L-8.11,7.21 " stroke-linecap="round" fill="none" stroke="#40c057" stroke-width="3" stroke-dasharray="none" stroke-dashoffset="0"/></g></g><g transform="matrix(1, 0, 0, 1, 1590.0861, 7909.3061)" opacity="1"><g transform="scale(1)"><path d="M0,0 Q1.441,1.6462 2.0381,2.4017 T3.1653,3.7735 4.1889,5.0327 5.1561,6.2308 5.9901,7.2929 6.8542,8.1808 7.959,9.0158 L8.56,9.47 " stroke-linecap="round" fill="none" stroke="#40c057" stroke-width="3" stroke-dasharray="none" stroke-dashoffset="0"/></g></g><g transform="matrix(1, 0, 0, 1, 1586.0296, 7907.0525)" opacity="1"><g transform="scale(1)"><path d="M0,0 Q-3.2878,3.2878 -4.182,4.2846 T-5.6654,5.8238 -6.5749,6.7637 -6.9671,7.3776 -7.0779,7.8142 -6.2147,8.6696 -4.6143,9.7528 -3.2284,10.6498 -1.7204,11.6344 L-0.9,12.17 " stroke-linecap="round" fill="none" stroke="#40c057" stroke-width="3" stroke-dasharray="none" stroke-dashoffset="0"/></g></g><g transform="matrix(1, 0, 0, 1, 1563.4938, 7914.264)" opacity="1"><g transform="scale(1)"><path d="M0,0 Q1.8514,0.8208 2.6627,1.0441 T4.0181,1.3888 5.0632,1.4737 6.1622,1.3936 L6.76,1.35 " stroke-linecap="round" fill="none" stroke="#40c057" stroke-width="3" stroke-dasharray="none" stroke-dashoffset="0"/></g></g><g transform="matrix(1, 0, 0, 1, 1571.156, 7908.8554)" opacity="1"><g transform="scale(1)"><path d="M0,0 Q1.2312,2.0566 1.671,2.7185 T2.4526,3.9458 3.083,4.9213 3.6311,5.6571 4.0319,6.3652 4.2499,7.0583 4.3685,7.6405 4.3304,8.1624 4.1045,8.6538 3.7764,9.1286 3.3904,9.5921 2.8704,9.9468 2.0745,10.2424 1.1285,10.4032 0.2035,10.2854 -0.8026,10.0488 L-1.35,9.92 " stroke-linecap="round" fill="none" stroke="#40c057" stroke-width="3" stroke-dasharray="none" stroke-dashoffset="0"/></g></g><g transform="matrix(1, 0, 0, 1, 1572.0574, 7907.9539)" opacity="1"><g transform="scale(1)"><path d="M0,0 Q2.467,0 3.3432,-0.1026 T4.9012,-0.3636 6.1592,-0.7108 7.4227,-1.1248 L8.11,-1.35 " stroke-linecap="round" fill="none" stroke="#40c057" stroke-width="3" stroke-dasharray="none" stroke-dashoffset="0"/></g></g><g transform="matrix(1, 0, 0, 1, 1576.5646, 7809.2468)" opacity="1"><g transform="scale(1)"><path d="M0,0 Q1.8514,0.8208 2.3549,1.1467 T3.235,1.7524 3.8164,2.392 4.0301,3.05 3.9411,3.6132 3.6875,4.1247 3.0343,4.6082 2.4715,5.0764 2.578,5.5363 2.946,5.8891 3.3514,6.1836 3.7771,6.5491 4.2139,6.9531 4.5541,7.378 4.7392,7.8144 4.7373,8.3619 4.531,8.9698 4.0062,9.6083 3.2054,10.2634 2.4619,10.825 1.5445,11.3357 0.4298,11.7162 -0.587,11.8205 -1.5528,11.6721 -2.3883,11.2835 -3.1796,10.6919 L-3.61,10.37 " stroke-linecap="round" fill="none" stroke="#40c057" stroke-width="3" stroke-dasharray="none" stroke-dashoffset="0"/></g></g><g transform="matrix(1, 0, 0, 1, 1618.932, 7908.8554)" opacity="1"><g transform="scale(1)"><path d="M0,0 Q-2.467,2.0566 -3.2406,2.7185 T-4.5376,3.7406 -5.3458,4.3993 -5.4777,5.2706 -4.9338,6.3601 -4.1227,7.2607 -3.3713,7.9558 -2.7574,8.4365 -2.1156,8.9055 -1.3283,9.5626 L-0.9,9.92 " stroke-linecap="round" fill="none" stroke="#40c057" stroke-width="3" stroke-dasharray="none" stroke-dashoffset="0"/></g></g><g transform="matrix(1, 0, 0, 1, 1629.7492, 7908.8554)" opacity="1"><g transform="scale(1)"><path d="M0,0 Q2.2618,1.2312 2.6718,1.7736 T3.0996,2.7136 2.9197,3.4301 2.9244,4.4356 3.4422,5.5981 4.0317,6.4357 4.5576,7.0966 5.0489,7.6613 5.5214,8.1737 5.881,8.6599 6.0766,9.1319 6.0804,9.5939 5.6721,10.153 4.7295,10.7649 3.5989,11.3031 2.5734,11.6984 1.5025,11.9134 0.3044,11.8252 -1.0586,11.4656 L-1.8,11.27 " stroke-linecap="round" fill="none" stroke="#40c057" stroke-width="3" stroke-dasharray="none" stroke-dashoffset="0"/></g></g><g transform="matrix(1, 0, 0, 1, 1522.9292, 7927.7855)" opacity="1"><g transform="scale(1)"><path d="M0,0 Q-2.0566,1.8514 -2.8211,2.5601 T-4.2069,3.7571 -5.4737,4.716 -6.5732,5.5455 -7.5841,6.0993 -8.8055,6.5272 L-9.47,6.76 " stroke-linecap="round" fill="none" stroke="#40c057" stroke-width="3" stroke-dasharray="none" stroke-dashoffset="0"/></g></g><g transform="matrix(1, 0, 0, 1, 1515.267, 7928.6869)" opacity="1"><g transform="scale(1)"><path d="M0,0 Q1.441,1.2312 1.9355,1.671 T2.9043,2.5552 3.8417,3.4466 5.275,4.8549 7.4026,6.9631 L8.56,8.11 " stroke-linecap="round" fill="none" stroke="#40c057" stroke-width="3" stroke-dasharray="none" stroke-dashoffset="0"/></g></g><g transform="matrix(1, 0, 0, 1, 1525.1828, 7922.3769)" opacity="1"><g transform="scale(1)"><path d="M0.45,0 Q1.891,0.2052 2.3855,0.8789 T3.0465,2.0217 3.2008,2.8486 3.0773,3.5036 2.8027,4.0651 2.4481,4.5758 2.1525,5.0588 2.197,5.4241 2.5312,5.7255 2.9206,5.992 3.4401,6.2396 4.0306,6.5795 4.6596,6.867 5.3096,7.0234 6.0736,7.1085 7.1011,7.1742 L7.66,7.21 " stroke-linecap="round" fill="none" stroke="#40c057" stroke-width="3" stroke-dasharray="none" stroke-dashoffset="0"/></g></g><g transform="matrix(1, 0, 0, 1, 1599.1005, 7931.3913)" opacity="1"><g transform="scale(1)"><path d="M0,0 Q-5.5495,3.493 -8.8598,5.5765 L-12.17,7.66 " stroke-linecap="round" fill="none" stroke="#40c057" stroke-width="3" stroke-dasharray="none" stroke-dashoffset="0"/></g></g><g transform="matrix(1, 0, 0, 1, 1589.1847, 7930.4898)" opacity="1"><g transform="scale(1)"><path d="M0,0 Q2.467,2.0566 3.3432,2.8211 T4.9012,4.2069 6.0566,5.2685 6.993,6.1538 7.8101,6.9432 8.4622,7.6805 9.1149,8.5416 L9.47,9.01 " stroke-linecap="round" fill="none" stroke="#40c057" stroke-width="3" stroke-dasharray="none" stroke-dashoffset="0"/></g></g><g transform="matrix(1, 0, 0, 1, 1585.5789, 7927.3348)" opacity="1"><g transform="scale(1)"><path d="M0,0 Q-2.6722,2.2618 -3.5016,2.9796 T-4.9874,4.1904 -6.1035,5.0544 -6.9159,5.8321 -7.4604,6.563 -7.0384,7.6811 -5.9881,9.1125 -5.2115,10.0963 -4.3763,10.9393 -3.2906,12.0278 L-2.7,12.62 " stroke-linecap="round" fill="none" stroke="#40c057" stroke-width="3" stroke-dasharray="none" stroke-dashoffset="0"/></g></g><g transform="matrix(1, 0, 0, 1, 1585.5789, 7946.2649)" opacity="1"><g transform="scale(1)"><path d="M0,0 Q-3.6982,-0.8208 -5.0141,-1.0441 T-7.2512,-1.2862 -9.2712,-1.3275 L-10.37,-1.35 " stroke-linecap="round" fill="none" stroke="#40c057" stroke-width="3" stroke-dasharray="none" stroke-dashoffset="0"/></g></g><g transform="matrix(1, 0, 0, 1, 1561.6909, 7927.7855)" opacity="1"><g transform="scale(1)"><path d="M0,0 Q2.2618,0 3.0822,0 T4.4515,0.1026 5.4016,0.261 6.2262,0.4498 6.88,0.7577 6.7227,1.7483 5.8163,3.1102 4.8102,4.0563 4.0577,4.7762 3.6484,5.373 3.5283,5.9029 3.5655,6.3963 3.6884,6.7674 3.9605,7.0718 4.3136,7.4426 4.711,7.8495 5.1323,8.2761 5.5668,8.7156 6.0083,9.1622 6.4537,9.713 6.9012,10.3204 7.2472,11.0612 7.4354,12.0798 7.4352,13.0443 7.2299,13.7742 6.913,14.3765 6.5355,14.9116 6.0222,15.4102 5.3327,15.784 4.6497,15.9874 3.9681,16.098 3.2873,16.1582 2.4039,16.0883 1.2051,15.8429 -0.1583,15.5042 L-0.9,15.32 " stroke-linecap="round" fill="none" stroke="#40c057" stroke-width="3" stroke-dasharray="none" stroke-dashoffset="0"/></g></g><g transform="matrix(1, 0, 0, 1, 1519.9099, 7961.2584)" opacity="1"><g transform="scale(1)"><path d="M0,0 Q0,3.005 0,4.2716 T0,6.829 0,9.2713 0,11.6511 0,14.1472 0,16.7066 0,19.15 0,21.5303 0,26.7309 0,33.3151 0,37.7975 0,41.1366 0,43.8559 0,46.2358 0,48.4311 -0.1505,50.6764 -0.3828,52.9489 -0.5092,55.088 -0.578,57.1523 -0.7659,59.1759 -1.0185,61.1773 -1.156,63.0162 -1.2308,64.769 -1.2715,66.4726 -1.2936,68.1495 -1.3056,69.8141 -1.3122,71.3216 -1.3157,72.8918 -1.3177,74.6466 -1.3187,76.5018 -1.3193,78.4116 -1.4701,80.0525 -1.7026,81.8457 -1.8291,84.0228 -1.8979,85.9595 -1.9353,87.7632 -1.9557,89.4945 -1.9668,91.0383 -1.9728,92.6282 -1.9761,94.2433 -2.1261,95.7238 -2.3559,97.1311 -2.4809,98.4963 -2.5489,99.8386 -2.5859,101.1708 -2.606,102.4951 -2.6169,103.8152 -2.6229,105.1352 -2.6261,106.4552 -2.6279,107.773 -2.6289,108.939 -2.6294,110.0247 -2.6297,111.2173 -2.6298,112.468 -2.6299,113.5975 -2.6299,114.6611 -2.63,115.8416 -2.4818,117.0858 -2.253,118.3622 -2.1285,119.6562 -2.0608,120.8116 -2.0239,121.8916 -2.0039,123.0788 -1.993,124.3242 -1.9871,125.7541 -1.9838,127.2844 -1.9821,128.7165 -1.8307,130.2457 -1.5978,131.9805 -1.4711,133.6743 -1.4022,135.3459 -1.3647,137.0076 -1.3443,138.6617 -1.3332,140.4621 -1.3272,142.3422 -1.3239,144.115 -1.3221,145.8318 -1.1707,147.6664 -0.9378,149.4145 -0.8111,151.1179 -0.7422,152.9451 -0.7047,154.6893 -0.6843,156.24 -0.6732,157.836 -0.6672,159.4543 -0.6639,161.0848 -0.6621,162.8724 -0.6612,164.595 -0.6606,166.2845 -0.6603,168.1042 -0.6602,169.9947 -0.5096,171.7755 -0.2772,173.4944 -0.1508,175.3301 -0.082,177.2316 -0.0446,179.317 -0.0243,181.5026 -0.0132,183.5922 -0.0072,185.78 -0.0039,188.0212 -0.0021,190.2916 -0.0012,192.7282 -0.0006,195.2552 -0.0003,197.8315 -0.0002,200.4346 -0.0001,202.9017 -0.0001,205.2949 0,207.4997 0,209.2988 0,210.8771 0,212.5241 L0,213.42 " stroke-linecap="round" fill="none" stroke="#9398b0" stroke-width="3" stroke-dasharray="none" stroke-dashoffset="0"/></g></g><g transform="matrix(1, 0, 0, 1, 1382.8982, 8040.3036)" opacity="1"><g transform="scale(1)"><path d="M0,0 Q3.005,0.301 4.1211,0.3828 T6.1452,0.5092 7.8483,0.4275 9.3767,0.2326 10.9582,0.1265 12.7192,0.0688 14.58,0.0374 18.7456,0.0204 24.1649,0.0111 28.3145,0.006 31.7735,0.1538 34.5558,0.3846 36.9699,0.5102 39.0357,0.428 41.06,0.2328 43.0618,0.1267 44.9032,-0.0816 46.8056,-0.3453 48.741,-0.6393 50.6945,-0.9497 52.6578,-1.1186 54.7792,-1.3609 56.9843,-1.6432 59.0845,-1.7968 61.1276,-1.8803 63.2901,-2.074 65.5176,-2.3275 67.7805,-2.4655 70.0648,-2.5405 72.2081,-2.5813 74.2746,-2.6035 76.2994,-2.6156 78.3015,-2.6222 80.2936,-2.6257 82.2778,-2.6277 84.4083,-2.6287 86.6184,-2.6293 88.7213,-2.4814 90.9163,-2.2528 93.1615,-2.1284 95.2858,-2.0607 97.4925,-2.0239 99.744,-2.0039 101.8694,-1.993 103.9262,-1.9871 105.948,-1.9838 107.9485,-1.9821 110.0878,-1.9811 112.3027,-1.9806 114.2577,-1.8299 116.2241,-1.5974 118.3449,-1.4709 120.3992,-1.4021 122.4174,-1.3647 124.5663,-1.3443 126.7864,-1.3332 129.0453,-1.3272 131.3274,-1.3239 133.62,-1.3221 135.9182,-1.3212 138.0691,-1.3206 140.1397,-1.1699 142.1668,-0.9374 144.1701,-0.8109 146.3132,-0.7421 148.5302,-0.7047 150.7873,-0.6843 153.0663,-0.6732 155.3571,-0.6672 157.6544,-0.6639 159.9552,-0.6621 162.2579,-0.6612 164.4112,-0.6606 166.4854,-0.6603 168.5144,-0.6602 170.5188,-0.5096 172.6603,-0.2772 174.7258,-0.1508 176.9029,-0.082 179.4392,-0.0446 181.87,-0.0243 183.9425,-0.0132 186.2715,-0.1577 188.8906,-0.3867 191.3664,-0.5113 193.9148,-0.7296 196.3522,-0.9988 198.5788,-1.1453 200.6906,-1.225 202.7423,-1.2683 204.9095,-1.2919 207.2901,-1.3047 209.3352,-1.3117 211.4988,-1.3155 214.1784,-1.3175 216.8376,-1.3187 219.4858,-1.3193 222.1279,-1.4701 224.7668,-1.7026 227.404,-1.8291 230.0401,-1.8979 232.5253,-1.9353 234.7778,-1.9557 236.9038,-1.8163 238.9632,-1.59 240.9841,-1.4669 242.9841,-1.3999 244.674,-1.3635 246.0424,-1.3436 247.524,-1.3283 L248.33,-1.32 " stroke-linecap="round" fill="none" stroke="#9398b0" stroke-width="3" stroke-dasharray="none" stroke-dashoffset="0"/></g></g><g transform="matrix(1, 0, 0, 1, 1385.533, 8011.3203)" opacity="1"><g transform="scale(1)"><path d="M0,0 Q3.6024,0 4.7327,0 T6.6284,0.1505 8.1112,0.3828 9.3692,0.5092 10.3545,0.7285 11.1915,0.9982 11.9455,1.1449 12.6543,1.2248 13.3409,1.2682 14.0154,1.4423 14.8337,1.6875 15.7303,1.8209 16.5191,1.8934 17.3973,1.9329 18.4747,1.9544 19.5122,1.9661 20.3776,1.9724 21.1493,1.9759 21.8678,1.9778 22.5574,1.9788 23.2335,1.9793 24.0527,1.9796 24.9498,1.9798 25.7388,1.9799 26.4689,1.9799 27.1648,1.98 27.9925,1.98 28.8943,1.98 29.6858,1.8295 30.4173,1.5972 31.1162,1.4708 31.7974,1.402 32.4666,1.3646 33.1294,1.3443 33.9413,1.3332 34.8345,1.1767 35.6213,0.9411 36.3503,0.8129 37.3465,0.7432 38.4881,0.5548 39.4101,0.3018 40.2126,0.1642 40.9501,0.0893 41.6523,0.0486 42.333,0.0264 43.1524,0.0144 44.0496,0.0078 44.8387,0.0043 45.5689,0.0023 46.2671,0.0013 46.9478,0.0007 47.7673,0.0004 48.6623,0.0002 49.4501,0.0001 50.1797,0.0001 50.8775,0 51.5581,0 52.2293,0 53.0436,0 53.9357,-0.1505 54.722,-0.3828 55.4507,-0.5092 56.148,-0.578 56.9789,-0.6154 57.88,-0.6357 58.6689,-0.6468 59.399,-0.6528 60.0971,-0.6561 60.7779,-0.6579 61.4492,-0.6588 62.2635,-0.6594 63.1557,-0.6597 63.942,-0.6598 64.6707,-0.6599 65.368,-0.6599 66.0484,-0.66 66.8699,-0.66 67.766,-0.66 68.5521,-0.66 69.2808,-0.66 69.9781,-0.66 70.6584,-0.66 71.3295,-0.66 72.1459,-0.66 73.0393,-0.66 73.8239,-0.66 74.5517,-0.66 75.2486,-0.66 75.9287,-0.66 76.5996,-0.5095 77.2655,-0.2772 77.9288,-0.1508 78.5883,-0.082 79.2457,-0.0446 79.9043,-0.0243 80.5635,-0.0132 81.2231,-0.0072 82.0334,-0.0039 82.9233,-0.0021 83.7061,-0.0012 84.4329,-0.0006 85.2798,-0.0003 86.1919,-0.0002 86.989,-0.0001 87.7236,-0.0001 88.4219,0 89.251,0 90.319,0 L90.9,0 " stroke-linecap="round" fill="none" stroke="#40c057" stroke-width="3" stroke-dasharray="none" stroke-dashoffset="0"/></g></g><g transform="matrix(1, 0, 0, 1, 1475.1176, 8002.0984)" opacity="1"><g transform="scale(1)"><path d="M0,0 Q0.9029,1.5002 1.1485,2.0588 T1.6758,3.2221 2.2614,4.4569 2.7305,5.7283 3.1361,7.0195 3.5072,8.3239 3.5587,10.9874 3.2857,14.2376 2.8385,16.4549 2.2965,18.1125 1.7008,19.3152 0.9252,20.1199 -0.1015,20.7417 L-0.66,21.08 " stroke-linecap="round" fill="none" stroke="#40c057" stroke-width="3" stroke-dasharray="none" stroke-dashoffset="0"/></g></g><g transform="matrix(1, 0, 0, 1, 1485.657, 7954.0126)" opacity="1"><g transform="scale(1)"><path d="M0,0 Q-3.005,0.6019 -3.9729,0.7656 T-5.7659,1.0184 -7.341,1.1559 -8.9854,1.2622 L-9.88,1.32 " stroke-linecap="round" fill="none" stroke="#40c057" stroke-width="3" stroke-dasharray="none" stroke-dashoffset="0"/></g></g><g transform="matrix(1, 0, 0, 1, 1477.0937, 7955.9887)" opacity="1"><g transform="scale(1)"><path d="M0,0 Q0.301,1.8012 0.3828,2.5921 T0.5092,3.9637 0.578,5.1613 0.6154,6.4124 0.6357,7.6927 0.6468,8.9911 0.6528,10.2993 0.3551,11.9116 -0.1078,13.5388 -0.3596,14.7249 -0.3461,15.5207 -0.1883,16.1041 0.0481,16.5719 0.4776,16.9769 1.0122,17.3477 1.6017,17.5494 2.2211,17.6591 3.0095,17.5683 4.0461,17.2844 L4.61,17.13 " stroke-linecap="round" fill="none" stroke="#40c057" stroke-width="3" stroke-dasharray="none" stroke-dashoffset="0"/></g></g><g transform="matrix(1, 0, 0, 1, 1477.0937, 7958.6235)" opacity="1"><g transform="scale(1)"><path d="M0,0 Q1.5002,1.8012 1.9083,2.4416 T2.6888,3.4304 3.2639,4.1188 3.7273,4.6437 4.2803,5.0798 4.7316,5.618 5.1276,6.0612 5.4935,6.4528 5.843,6.8163 6.1836,7.1623 6.5194,7.4987 6.8526,7.8322 7.182,8.1641 7.5094,8.4951 7.6875,8.9761 7.9349,9.3883 8.2199,9.763 8.5255,10.2678 8.8422,10.8434 9.1649,11.4574 9.491,12.0902 9.8189,12.5826 10.2982,13.0009 10.7094,13.5295 10.9331,14.1179 11.2053,14.5886 11.5038,14.9951 11.8167,15.5172 12.1374,16.1021 12.4601,16.5708 12.7838,16.9763 13.1104,17.3473 13.4385,17.8479 13.7675,18.4188 14.097,18.8799 14.4267,19.2812 14.7565,19.65 15.0864,20.0011 15.4164,20.3426 15.7463,20.8293 16.0763,21.3951 16.4063,21.8533 16.7363,22.2508 17.0663,22.6152 17.3963,22.964 17.724,23.4546 18.0505,24.0225 18.3786,24.4819 18.7076,24.8823 19.037,25.2506 19.5172,25.6015 19.9289,26.0933 20.3033,26.5113 20.6575,26.8892 21.0006,27.2452 21.3378,27.5871 21.6717,27.9213 22.0038,28.2536 22.3327,28.7353 22.6598,29.2983 22.9882,29.7551 23.3173,30.1541 23.6469,30.672 24.1271,31.1043 24.5388,31.4899 24.9133,31.8502 25.2675,32.1967 25.6106,32.6838 26.0983,33.097 26.514,33.4723 26.8907,33.8269 27.246,34.1703 27.5876,34.6581 28.072,35.2244 28.6365,35.8334 29.2446,36.4657 29.8763,37.1106 30.521,37.7601 31.1726,38.2617 31.8281,38.685 32.4833,39.2162 33.1384,39.8062 33.6453,40.4281 34.0715,40.9169 34.6044,41.3333 35.1952,41.8607 35.8175,42.2982 36.4571,42.8348 37.1059,43.5759 37.7576,44.28 38.2603,44.964 38.6842,45.4866 39.2158,45.9213 39.6555,46.4588 40.0451,46.9017 40.4076,47.2931 40.7553,47.6565 41.0949,48.0024 41.4301,48.3387 41.7629,48.6722 42.0945,49.0041 42.5735,49.3351 42.9823,49.8161 43.3552,50.2283 43.7085,50.603 44.0512,50.9573 44.3881,51.3005 44.7218,51.7882 45.2044,52.3545 45.6173,52.9612 45.9925,53.4394 46.347,53.8501 46.6904,54.224 47.0276,54.5778 47.3616,54.9208 47.6938,55.2579 48.0226,55.5917 48.3498,55.9238 48.6782,56.4054 49.0073,56.9684 49.3369,57.4251 49.6666,57.8241 49.9965,58.1916 50.3264,58.5397 50.6564,58.8773 50.9863,59.2114 51.3163,59.5436 51.6463,59.8749 51.9763,60.2055 52.3063,60.5359 52.6363,61.0166 53.1145,61.579 53.6733,62.0355 54.1278,62.4343 54.5255,62.9499 55.0428,63.5291 55.4747,64.1451 55.8602,64.6307 56.2203,65.0453 56.5667,65.5719 56.9057,66.1593 57.2405,66.6293 57.5732,67.0354 57.9046,67.5574 58.3836,68.14 58.7923,68.7556 59.1652,69.3914 59.669,70.0383 60.244,70.6912 60.8578,71.1968 61.3422,71.6223 61.7561,72.1548 62.2823,72.7454 62.719,73.3654 63.1048,73.8508 63.4628,74.2654 63.8081,74.6414 64.1464,74.9965 64.4809,75.3401 64.8134,75.6775 65.1447,76.0115 65.4754,76.3437 65.8058,76.8254 66.2865,77.2379 66.6985,77.6128 67.0731,77.9672 67.5779,78.3105 68.1511,78.6477 68.6112,78.9793 69.0119,79.308 69.3804,79.6372 69.7313,79.9668 70.0727,80.2966 70.4089,80.6265 70.7423,80.9564 71.0741,81.2864 71.5556,81.6163 71.968,82.0968 72.3428,82.5087 72.6972,82.8832 73.0405,83.2374 73.3777,83.5783 73.7094,83.912 74.038,84.2439 74.3672,84.575 74.6968,84.9056 75.0266,85.2359 75.3565,85.5661 75.6864,85.8962 76.0164,86.2263 76.3463,86.5563 76.6763,86.8863 77.0063,87.2163 77.4868,87.5463 78.0491,87.8763 78.5055,88.2063 78.902,88.5363 79.2659,88.864 79.6143,89.1905 80.1048,89.5186 80.6726,89.998 81.2825,90.5598 81.9152,91.0159 82.4099,91.4145 82.8294,91.7818 83.2082,92.1321 83.5624,92.4731 83.9033,92.8091 84.2392,93.1424 84.5725,93.4742 84.9042,93.8052 85.2352,94.1334 85.5657,94.4602 86.1969,94.7884 87.1423,95.2679 88.3001,95.8522 L88.93,96.17 " stroke-linecap="round" fill="none" stroke="#40c057" stroke-width="3" stroke-dasharray="none" stroke-dashoffset="0"/></g></g><g transform="matrix(1, 0, 0, 1, 1562.726, 8052.8191)" opacity="1"><g transform="scale(1)"><path d="M0,0 Q2.4031,1.5002 3.8366,2.3951 L5.27,3.29 " stroke-linecap="round" fill="none" stroke="#40c057" stroke-width="3" stroke-dasharray="none" stroke-dashoffset="0"/></g></g><g transform="matrix(1, 0, 0, 1, 1567.337, 8048.8668)" opacity="1"><g transform="scale(1)"><path d="M0,0 Q0.6019,1.1993 0.9161,1.8264 T1.4013,2.9453 1.6652,5.2069 1.6582,8.3889 1.3535,10.8701 0.7363,12.6712 0.0996,13.952 -0.5477,14.9497 -1.2009,15.7935 -1.8548,16.5534 -2.7843,17.3543 L-3.29,17.79 " stroke-linecap="round" fill="none" stroke="#40c057" stroke-width="3" stroke-dasharray="none" stroke-dashoffset="0"/></g></g><g transform="matrix(1, 0, 0, 1, 1572.6067, 7998.8049)" opacity="1"><g transform="scale(1)"><path d="M0,0 Q-2.4031,0 -3.5082,0 T-5.9316,0 L-7.25,0 " stroke-linecap="round" fill="none" stroke="#40c057" stroke-width="3" stroke-dasharray="none" stroke-dashoffset="0"/></g></g><g transform="matrix(1, 0, 0, 1, 1567.337, 8000.1223)" opacity="1"><g transform="scale(1)"><path d="M0,0 Q0.301,1.5002 0.3828,2.0588 T0.5092,3.0717 0.578,3.9236 0.4649,4.6881 0.1024,6.0045 -0.2452,7.6212 -0.4344,8.8017 -0.5373,9.7449 -0.4427,10.4084 -0.2409,10.9199 0.0195,11.3486 0.462,11.7323 1.0037,12.2397 1.5971,12.6639 2.2186,13.0452 2.8576,13.403 3.3558,13.2991 3.7406,12.7945 L3.95,12.52 " stroke-linecap="round" fill="none" stroke="#40c057" stroke-width="3" stroke-dasharray="none" stroke-dashoffset="0"/></g></g><g transform="matrix(1, 0, 0, 1, 1567.9957, 8006.7094)" opacity="1"><g transform="scale(1)"><path d="M0,0 Q1.5002,0.6019 2.0588,0.7656 T3.0717,1.0184 4.9747,1.0055 7.5125,0.6975 9.4949,0.2289 11.1731,-0.3269 12.5351,-0.9302 13.577,-1.5571 14.5953,-2.3473 15.6006,-3.2286 16.4485,-4.009 17.2084,-4.7345 17.9205,-5.4301 18.6088,-6.1095 19.4347,-6.9283 20.3355,-7.8228 21.1264,-8.7609 22.0058,-9.8731 22.9334,-11.0778 23.739,-12.1823 24.4782,-13.2346 25.3317,-14.409 26.2475,-15.4993 27.0444,-16.5416 27.7765,-17.5577 28.4758,-18.562 29.1572,-19.7102 29.8288,-20.9345 30.4951,-22.2001 31.1585,-23.641 31.8204,-25.1773 32.3309,-26.6126 32.7569,-28.1436 33.2873,-29.7288 33.7263,-31.3413 34.1156,-32.9686 34.4778,-34.6063 34.8254,-36.2473 35.1649,-37.5892 35.5001,-38.9211 35.8329,-40.398 36.014,-41.6506 36.263,-42.7812 36.5489,-43.9982 36.8549,-45.4126 37.1719,-46.7817 37.3443,-47.8252 37.4381,-48.6938 37.4891,-49.4673 37.5169,-50.189 37.6825,-51.033 38.0241,-52.1127 L38.21,-52.7 " stroke-linecap="round" fill="none" stroke="#40c057" stroke-width="3" stroke-dasharray="none" stroke-dashoffset="0"/></g></g><g transform="matrix(1, 0, 0, 1, 1654.9455, 7977.7261)" opacity="1"><g transform="scale(1)"><path d="M0,0 Q-1.8012,-3.9034 -2.4416,-4.8146 T-3.7314,-5.4714 -4.7339,-4.7777 -5.4298,-3.6501 -6.1093,-2.2866 -6.6295,-0.7925 -6.9124,0.7704 -7.0664,2.3708 -6.2472,6.096 -4.8987,10.8265 -4.3156,13.8514 -4.2994,15.9461 -4.742,17.6852 -5.5847,19.2332 -6.6427,20.675 -7.9685,21.9085 -9.442,22.8805 -10.8433,23.5597 -12.2052,23.9292 -13.3976,23.9797 -14.3472,23.7062 -15.1647,23.1083 -15.7599,22.1834 -15.9332,21.2288 -15.7266,20.2581 -15.3531,19.0806 L-15.15,18.44 " stroke-linecap="round" fill="none" stroke="#40c057" stroke-width="3" stroke-dasharray="none" stroke-dashoffset="0"/></g></g><g transform="matrix(1, 0, 0, 1, 1652.3106, 7990.2416)" opacity="1"><g transform="scale(1)"><path d="M0,0 Q-1.8012,0.6019 -2.5921,0.7656 T-4.1142,1.0184 -5.5418,1.0055 -7.0691,0.7817 L-7.9,0.66 " stroke-linecap="round" fill="none" stroke="#40c057" stroke-width="3" stroke-dasharray="none" stroke-dashoffset="0"/></g></g><g transform="matrix(1, 0, 0, 1, 1666.8023, 7973.7739)" opacity="1"><g transform="scale(1)"><path d="M0,0 Q-3.005,4.5053 -4.1211,6.1822 T-5.9948,9.2204 -7.1645,11.7738 -7.8009,14.0658 -7.9965,16.0627 -7.6538,17.7487 -7.0182,19.1173 -4.869,20.1628 -0.8606,21.1843 L1.32,21.74 " stroke-linecap="round" fill="none" stroke="#40c057" stroke-width="3" stroke-dasharray="none" stroke-dashoffset="0"/></g></g><g transform="matrix(1, 0, 0, 1, 1679.9765, 7981.0197)" opacity="1"><g transform="scale(1)"><path d="M0,0 Q-2.7041,3.005 -4.0392,4.4221 T-6.5521,6.7604 -9.135,8.7809 L-10.54,9.88 " stroke-linecap="round" fill="none" stroke="#40c057" stroke-width="3" stroke-dasharray="none" stroke-dashoffset="0"/></g></g><g transform="matrix(1, 0, 0, 1, 1670.7545, 7983.6545)" opacity="1"><g transform="scale(1)"><path d="M0,0 Q3.306,3.306 4.9554,4.0548 T8.5724,5.6968 L10.54,6.59 " stroke-linecap="round" fill="none" stroke="#40c057" stroke-width="3" stroke-dasharray="none" stroke-dashoffset="0"/></g></g><g transform="matrix(1, 0, 0, 1, 1683.27, 7972.4564)" opacity="1"><g transform="scale(1)"><path d="M0,0 Q3.005,8.4086 3.8224,11.1472 T5.0844,15.8271 5.6205,19.123 5.4607,21.6661 4.9223,23.6515 4.3284,25.183 3.5562,26.4653 2.5365,27.4615 1.3212,28.445 L0.66,28.98 " stroke-linecap="round" fill="none" stroke="#40c057" stroke-width="3" stroke-dasharray="none" stroke-dashoffset="0"/></g></g></svg>