<svg xmlns="http://www.w3.org/2000/svg" direction="ltr" width="954" height="583.4996521400699" viewBox="6 -7 954 583.4996521400699" stroke-linecap="round" stroke-linejoin="round" data-color-mode="dark" class="tl-container tl-theme__force-sRGB tl-theme__dark" style="background-color: transparent;"><defs/><g transform="matrix(1, 0, 0, 1, 90, 173)" opacity="1"><g transform="scale(1)"><path d="M-1.7828,0 T-1.778,-1.6555 -2.0013,-5.9288 -2.3701,-10.0734 -2.5818,-13.1141 -2.6907,-16.1336 -3.1044,-20.5708 -4.2899,-25.5608 -6.0469,-29.0995 -8.2946,-29.7385 -9.9221,-26.8152 -10.3717,-22.3148 -10.5154,-18.2679 -10.5451,-14.8335 -10.3183,-11.2182 -9.7127,-7.5079 -8.8975,-3.4085 -7.9691,0.876 -6.9814,5.0027 -5.9587,9.318 -4.921,13.9709 -3.8786,18.7825 -2.6068,23.855 -1.1955,29.3757 0.0774,35.4401 1.2544,41.7046 2.1456,48.1494 2.6527,54.9389 2.9411,61.5896 2.6298,68.3277 1.7665,75.0467 0.3337,81.3131 -1.9142,86.9839 -4.6485,91.5544 -7.7465,94.8838 -11.417,97.0384 -15.896,97.9478 -20.7372,97.3069 -25.3814,95.0879 -29.6783,91.8846 -33.948,88.2823 -36.1572,86.4287 A1.8386,1.8386 0 0 1 -33.8428,83.5713 T-31.5707,85.3471 -27.337,88.6318 -23.57,91.2773 -20.0927,92.9761 -15.3603,93.0426 -11.0845,91.5818 -8.6455,89.0463 -6.2585,85.1806 -4.1737,80.2287 -2.7703,74.416 -1.8419,68.0873 -1.4461,61.7349 -1.6109,55.214 -1.9639,48.6777 -2.7047,42.4019 -3.727,36.1965 -4.8321,30.2669 -6.1382,24.6965 -7.3301,19.4936 -8.2701,14.6801 -9.199,10.0443 -10.1129,5.7095 -11.0049,1.5002 -11.8482,-2.853 -12.5998,-7.0661 -13.1721,-11.0512 -13.3855,-14.8581 -13.3175,-19.6702 -13.06,-25.2438 -11.9481,-30.0521 -9.2938,-33.2399 -6.0796,-33.549 -3.3406,-31.1051 -1.3394,-27.9654 -0.2646,-25.2246 0.2099,-22.4005 0.6118,-19.3512 0.9142,-16.2584 1.1146,-11.9596 1.5283,-6.2212 1.778,-1.6555 1.7828,0 A1.7828,1.7828 0 0 1 -1.7828,0 Z" stroke-linecap="round" fill="#f2f2f2"/></g></g><g transform="matrix(1, 0, 0, 1, 132, 204)" opacity="1"><g transform="scale(1)"><path d="M1.402,1.2268 T-0.2403,3.1301 -2.9338,6.4594 -4.7247,9.2609 -6.754,12.8567 -9.6517,16.7798 -12.1252,19.0116 -12.9907,19.5407 A1.8419,1.8419 0 0 1 -15.0093,16.4593 T-13.714,15.6474 -11.3294,13.0574 -9.5586,10.0141 -7.9749,7.1559 -5.9061,4.0488 -3.0707,0.6539 -1.402,-1.2268 A1.8629,1.8629 0 0 1 1.402,1.2268 Z" stroke-linecap="round" fill="#f2f2f2"/></g></g><g transform="matrix(1, 0, 0, 1, 117, 207)" opacity="1"><g transform="scale(1)"><path d="M1.2945,-1.6182 T2.4707,-0.6601 4.634,1.3869 6.6077,3.7483 8.765,6.2928 11.2806,8.9375 13.8068,11.505 17.606,14.4251 20.224,16.1504 A2.2179,2.2179 0 0 1 17.776,19.8496 T16.2876,18.8761 13.2773,16.8768 10.5777,14.6002 8.0636,11.8769 5.503,8.9698 2.681,5.5107 -0.1057,2.5521 -1.2945,1.6182 A2.0723,2.0723 0 0 1 1.2945,-1.6182 Z" stroke-linecap="round" fill="#f2f2f2"/></g></g><g transform="matrix(1, 0, 0, 1, 166, 209)" opacity="1"><g transform="scale(1)"><path d="M0,-1.7735 T1.174,-1.7786 3.9595,-2.6505 6.589,-4.8363 7.8402,-7.3141 8.0734,-8.4729 A1.8678,1.8678 0 0 1 11.3005,-10.3547 T11.7915,-9.0881 11.723,-6.4523 9.9927,-3.504 7.5663,-0.7537 4.3463,1.1006 1.191,1.7786 0,1.7735 A1.7735,1.7735 0 0 1 0,-1.7735 ZM10.3143,-7.6545 T9.2787,-7.3004 7.0853,-6.0467 4.8183,-3.9298 3.0107,-0.8196 2.1249,3.5506 2.132,8.093 3.4896,11.5054 6.2451,13.5439 10.0531,13.5101 13.73,11.9493 16.4683,10.246 19.6166,8.6099 23.3699,7.0793 25.2519,6.3173 A1.8415,1.8415 0 0 1 26.7481,9.6827 T24.9214,10.5694 21.6371,12.1674 18.7304,13.9216 15.3643,15.9588 11.9717,17.3455 8.709,17.983 5.3936,17.7071 1.9525,15.387 -0.6213,12.2519 -1.4331,8.3706 -1.3115,3.0025 -0.0821,-2.305 2.2283,-6.3313 5.1918,-9.1052 7.9307,-10.7554 9.0595,-11.1731 A1.8678,1.8678 0 0 1 10.3143,-7.6545 Z" stroke-linecap="round" fill="#f2f2f2"/></g></g><g transform="matrix(1, 0, 0, 1, 192, 176)" opacity="1"><g transform="scale(1)"><path d="M1.5253,0 T1.5421,1.1976 1.0674,3.9829 -0.4203,7.9179 -2.5409,11.5073 -4.7606,13.9032 -5.856,15.0571 A1.5576,1.5576 0 0 1 -8.144,12.9429 T-7.08,11.76 -4.7259,8.6652 -2.4974,4.5442 -1.5421,1.1674 -1.5253,0 A1.5253,1.5253 0 0 1 1.5253,0 Z" stroke-linecap="round" fill="#f2f2f2"/></g></g><g transform="matrix(1, 0, 0, 1, 183, 177)" opacity="1"><g transform="scale(1)"><path d="M1.0467,-1.3458 T3.1645,0.3247 6.961,3.6335 9.9697,6.5637 12.4719,9.0114 14.9479,11.4559 16.2517,12.7444 A1.7729,1.7729 0 0 1 13.7483,15.2556 T12.4557,13.9556 10.005,11.4884 7.55,8.9994 4.7424,6.1524 1.0925,2.9863 -1.0467,1.3458 A1.7049,1.7049 0 0 1 1.0467,-1.3458 Z" stroke-linecap="round" fill="#f2f2f2"/></g></g><g transform="matrix(1, 0, 0, 1, 246, 206)" opacity="1"><g transform="scale(1)"><path d="M-1.6322,0.1814 T-1.865,-1.9137 -3.6162,-5.8459 -6.8574,-7.9677 -10.1123,-7.4015 -12.5558,-4.288 -13.6645,-0.5959 -13.964,2.5089 -13.672,5.564 -12.6275,8.3701 -9.8263,11.3237 -6.2291,12.8889 -1.98,11.2852 2.3094,7.6468 5.0618,3.2315 7.484,-1.8764 9.2179,-7.4961 10.131,-13.6299 10.4184,-20.1203 10.1179,-26.3143 9.2821,-31.862 8.1417,-36.8876 6.8575,-41.13 5.3244,-44.3732 3.4992,-44.3603 2.7378,-40.6826 3.604,-35.8415 4.7996,-30.1923 6.1781,-23.8881 7.6516,-17.5138 9.154,-11.5934 10.4243,-6.2951 11.2836,-2.0663 12.1751,1.5962 12.6577,3.5649 A1.7139,1.7139 0 0 1 9.3423,4.4351 T8.7959,2.4831 7.735,-1.294 6.8159,-5.4664 5.6091,-10.7244 4.2063,-16.7572 2.8596,-23.1915 1.5794,-29.5243 0.4224,-35.2887 -0.4826,-40.4373 -0.803,-44.8459 -0.2174,-48.2758 2.7879,-49.6039 6.2818,-48.5046 8.3445,-45.8654 10.1044,-42.1426 11.4787,-37.6544 12.6902,-32.396 13.6245,-26.5073 13.9904,-19.9756 13.7471,-13.0891 12.7556,-6.4051 10.8755,-0.2683 8.2352,5.2643 4.9715,10.2693 1.0073,14.124 -3.0535,16.0917 -7.0228,16.3067 -10.8659,15.177 -13.8854,12.734 -15.8317,9.4962 -16.9944,5.8996 -17.3006,2.1905 -16.94,-1.2572 -16.1849,-4.6719 -14.7199,-7.7983 -12.4263,-10.1192 -8.4064,-11.2746 -4.2668,-10.7581 -1.7626,-8.9623 0.2125,-6.1784 1.392,-2.3433 1.6322,-0.1814 A1.6422,1.6422 0 0 1 -1.6322,0.1814 Z" stroke-linecap="round" fill="#f2f2f2"/></g></g><g transform="matrix(1, 0, 0, 1, 283, 189)" opacity="1"><g transform="scale(1)"><path d="M0,-2.0079 T1.305,-1.9587 3.8392,-1.0508 5.4291,1.2515 4.9529,5.4174 3.0121,9.6777 0.6172,12.7028 -2.1411,15.4899 -5.1956,17.7528 -8.3596,19.421 -11.3286,20.5071 -14.1178,21.2604 -15.515,21.6329 A1.7034,1.7034 0 0 1 -16.485,18.3671 T-14.0158,17.5586 -10.199,16.0538 -7.5815,14.5579 -5.0508,12.612 -2.5961,10.1052 -0.4844,7.5729 1.2768,4.1551 1.06,1.9587 0,2.0079 A2.0079,2.0079 0 0 1 0,-2.0079 Z" stroke-linecap="round" fill="#f2f2f2"/></g></g><g transform="matrix(1, 0, 0, 1, 268, 188)" opacity="1"><g transform="scale(1)"><path d="M1.1741,-1.1741 T3.0449,0.7393 6.668,4.6243 9.8404,8.3447 12.5012,11.7196 14.8758,14.9116 17.0383,17.7148 20.0304,20.7435 23.1246,23.6021 24.2557,24.6695 A1.8295,1.8295 0 0 1 21.7443,27.3305 T19.6162,25.3214 16.3606,22.2884 14.1531,19.9066 11.9998,16.9847 9.7751,13.8009 7.2987,10.4627 4.3131,6.8299 0.7391,3.0447 -1.1741,1.1741 A1.6604,1.6604 0 0 1 1.1741,-1.1741 Z" stroke-linecap="round" fill="#f2f2f2"/></g></g><g transform="matrix(1, 0, 0, 1, 134, 201)" opacity="1"><g transform="scale(1)"><path d="M0.9807,-1.9615 T1.4482,-1.714 1.9157,-1.4665 A2.1684,2.1684 0 0 1 -0.0237,2.4125 T-0.5022,2.187 -0.9807,1.9615 A2.193,2.193 0 0 1 0.9807,-1.9615 ZM3.0069,1.1472 T2.7462,1.8989 1.6356,4.0349 -0.8337,7.2245 -3.3977,10.1007 -6.2842,13.2397 -9.1274,16.4778 -11.8219,19.4292 -14.8601,22.3241 -16.1053,23.4377 A2.2853,2.2853 0 0 1 -19.206,20.0797 T-17.8525,18.8627 -15.0343,16.2364 -11.5189,12.5317 -7.6351,8.2822 -4.8438,5.1694 -2.6736,2.4798 -1.2882,0.3738 -1.1149,-0.2012 A2.1684,2.1684 0 0 1 3.0069,1.1472 ZM-18.3593,23.933 T-18.904,23.7234 -20.0562,23.2824 -20.6637,23.0509 A2.1557,2.1557 0 0 1 -19.3363,18.9491 T-18.7083,19.1175 -17.5162,19.4352 -16.952,19.5844 A2.2853,2.2853 0 0 1 -18.3593,23.933 Z" stroke-linecap="round" fill="#40c057"/></g></g><g transform="matrix(1, 0, 0, 1, 111, 203)" opacity="1"><g transform="scale(1)"><path d="M1.7398,-1.7398 T2.4259,-1.0069 4.2622,0.913 7.0664,3.7349 10.7925,7.1476 14.1841,9.8454 16.7672,11.7884 19.1791,13.8226 22.4332,16.3548 24.539,17.8757 A2.6231,2.6231 0 0 1 21.461,22.1243 T20.2897,21.2782 17.9548,19.5819 15.7488,17.753 13.6084,15.8161 11.1435,13.8139 7.5732,10.7451 3.7349,7.0664 0.913,4.2622 -1.0069,2.4259 -1.7398,1.7398 A2.4605,2.4605 0 0 1 1.7398,-1.7398 Z" stroke-linecap="round" fill="#40c057"/></g></g><g transform="matrix(1, 0, 0, 1, 563, 74)" opacity="1"><g transform="scale(1)"><path d="M1.8024,-1.8024 T2.4926,-1.0736 4.3597,0.8765 6.4487,4.0732 8.269,7.9129 9.8909,12.159 11.5097,16.8864 13.3074,21.0101 14.1999,22.788 A2.6469,2.6469 0 0 1 9.6175,25.4385 T9.0617,24.4337 7.5786,20.9259 5.841,15.9222 4.413,11.6936 2.8855,7.6902 0.8155,4.2986 -1.0736,2.4926 -1.8024,1.8024 A2.549,2.549 0 0 1 1.8024,-1.8024 ZM11.6354,21.4806 T11.8931,21.4503 12.1509,21.4201 A2.6538,2.6538 0 0 1 12.6989,26.6993 T12.4404,26.7227 12.182,26.746 A2.6469,2.6469 0 0 1 11.6354,21.4806 ZM10.0654,22.845 T10.4296,22.1178 11.5774,18.9916 13.1093,14.721 14.4518,11.2543 15.5815,7.9303 16.954,4.3737 18.4683,1.1954 20.1295,-1.4713 22.082,-4.0617 23.0507,-5.3358 A2.3631,2.3631 0 0 1 26.9493,-2.6642 T25.4725,-0.2502 23.3901,3.5099 22.0848,6.3499 20.7995,9.7255 19.5787,13.2729 18.2558,16.562 16.5572,21.0099 15.1652,24.5543 14.7844,25.2744 A2.6538,2.6538 0 0 1 10.0654,22.845 Z" stroke-linecap="round" fill="#40c057"/></g></g><g transform="matrix(1, 0, 0, 1, 599, 59)" opacity="1"><g transform="scale(1)"><path d="M2.0018,0.182 T1.7797,2.7851 1.2107,7.5552 0.4361,11.3908 -0.1599,14.6918 -0.6356,18.9318 -1.0842,23.5648 -1.2921,27.3528 -1.416,31.586 -0.3286,35.7962 0.8163,37.5357 A2.333,2.333 0 0 1 -2.8163,40.4643 T-3.5009,39.6709 -5.2951,36.4361 -6.3032,31.4226 -6.0712,27.0078 -5.7077,23.0416 -5.0721,18.346 -4.3877,13.86 -3.6803,10.476 -2.879,7.0118 -2.2527,2.4179 -2.0018,-0.182 A2.0101,2.0101 0 0 1 2.0018,0.182 Z" stroke-linecap="round" fill="#40c057"/></g></g><g transform="matrix(1, 0, 0, 1, 620, 73)" opacity="1"><g transform="scale(1)"><path d="M1.62,0.81 T0.9608,2.2542 -0.5066,5.4118 -2.8726,9.6572 -5.704,13.6396 -8.3049,16.6072 -9.6321,18.1245 A1.7707,1.7707 0 0 1 -12.3679,15.8755 T-11.1361,14.2798 -8.8811,11.3405 -6.3843,7.6615 -4.0252,3.6519 -2.3798,0.5838 -1.62,-0.81 A1.8112,1.8112 0 0 1 1.62,0.81 Z" stroke-linecap="round" fill="#40c057"/></g></g><g transform="matrix(1, 0, 0, 1, 610, 76)" opacity="1"><g transform="scale(1)"><path d="M1.4265,-1.1412 T2.3626,0.052 4.127,2.6965 6.0079,5.4164 8.1579,8.1456 10.0785,10.863 12.5056,13.3042 14.1095,14.4885 A1.875,1.875 0 0 1 11.8905,17.5115 T10.8792,16.8115 8.7218,15.2349 6.8181,13.1371 5.0558,10.4694 2.2682,6.2538 -0.4706,2.313 -1.4265,1.1412 A1.8268,1.8268 0 0 1 1.4265,-1.1412 Z" stroke-linecap="round" fill="#40c057"/></g></g><g transform="matrix(1, 0, 0, 1, 627, 63)" opacity="1"><g transform="scale(1)"><path d="M1.8476,-0.7698 T3.0526,2.0589 5.1748,7.3701 6.8752,12.3696 8.1218,17.2459 8.8406,21.5696 8.9726,25.2453 8.1048,29.6164 6.7851,33.269 6.2099,34.2618 A2.5448,2.5448 0 0 1 1.7901,31.7382 T2.7074,30.3457 3.8376,26.4896 3.9229,22.2027 3.5319,18.2442 2.6726,13.6874 1.2745,8.8651 -0.6876,3.6171 -1.8476,0.7698 A2.0016,2.0016 0 0 1 1.8476,-0.7698 Z" stroke-linecap="round" fill="#40c057"/></g></g><g transform="matrix(1, 0, 0, 1, 649, 73)" opacity="1"><g transform="scale(1)"><path d="M1.0574,-1.3217 T2.2774,-0.425 4.8098,1.0684 7.7083,1.9429 9.2945,2.2208 A1.8034,1.8034 0 0 1 8.7055,5.7792 T6.7551,5.4716 3.0187,4.2382 0.0876,2.317 -1.0574,1.3217 A1.6927,1.6927 0 0 1 1.0574,-1.3217 Z" stroke-linecap="round" fill="#40c057"/></g></g><g transform="matrix(1, 0, 0, 1, 653, 81)" opacity="1"><g transform="scale(1)"><path d="M1.3384,-0.6692 T1.8368,0.2515 4.3565,1.0519 8.3158,0.3885 11.491,-0.3353 12.7283,-0.5162 A1.5403,1.5403 0 0 1 13.2717,2.5162 T12.0487,2.7763 9.0582,3.6401 4.8297,4.582 0.9628,3.766 -0.8908,1.6405 -1.3384,0.6692 A1.4964,1.4964 0 0 1 1.3384,-0.6692 Z" stroke-linecap="round" fill="#40c057"/></g></g><g transform="matrix(1, 0, 0, 1, 693, 68)" opacity="1"><g transform="scale(1)"><path d="M2.0439,0 T2.0788,1.6744 1.4014,5.7511 -0.452,10.3488 -2.7083,14.1801 -5.9543,18.0373 -9.3749,21.3609 -10.6644,22.4633 A1.9812,1.9812 0 0 1 -13.3356,19.5367 T-12.1203,18.3529 -9.2146,15.2399 -6.5513,11.862 -4.5528,8.5509 -2.8204,4.9808 -2.0788,1.6366 -2.0439,0 A2.0439,2.0439 0 0 1 2.0439,0 Z" stroke-linecap="round" fill="#40c057"/></g></g><g transform="matrix(1, 0, 0, 1, 679, 69)" opacity="1"><g transform="scale(1)"><path d="M1.5235,-1.714 T3.6696,0.1583 7.6919,3.7298 11.3451,7.3177 14.5566,10.9195 17.2406,14.5861 19.2003,18.1656 20.5965,21.3995 21.2822,23.0074 A2.4887,2.4887 0 0 1 16.7178,24.9926 T15.4682,22.1432 13.0932,17.5826 10.6914,14.2204 7.8429,10.7673 4.4845,7.2514 0.5874,3.6257 -1.5235,1.714 A2.2932,2.2932 0 0 1 1.5235,-1.714 Z" stroke-linecap="round" fill="#40c057"/></g></g><g transform="matrix(1, 0, 0, 1, 564, 140)" opacity="1"><g transform="scale(1)"><path d="M2.0094,-1.3396 T2.4897,-0.6155 3.5445,2.3569 4.6068,6.8931 5.7491,10.9618 7.9465,13.1364 10.5607,12.3764 12.4418,9.8049 13.914,6.9063 14.8512,3.1582 15.1256,0.8913 A1.8775,1.8775 0 0 1 18.8744,1.1087 T18.8197,2.3193 18.6061,4.9695 17.8405,8.1192 16.0735,12.0991 13.288,16.0903 9.3527,18.3333 5.3188,17.8996 2.2435,14.6629 0.413,10.1652 -0.572,5.339 -1.5437,2.0345 -2.0094,1.3396 A2.415,2.415 0 0 1 2.0094,-1.3396 ZM18.877,1.0443 T18.8515,1.7333 19.4265,4.6676 20.9308,8.8877 22.7879,11.948 24.5412,13.7654 25.341,14.4973 A2.014,2.014 0 0 1 22.659,17.5027 T20.9217,15.9331 18.1933,12.3709 16.432,8.1092 15.3801,4.3041 15.1109,1.8618 15.123,0.9557 A1.8775,1.8775 0 0 1 18.877,1.0443 Z" stroke-linecap="round" fill="#f76707"/></g></g><g transform="matrix(1, 0, 0, 1, 589, 118)" opacity="1"><g transform="scale(1)"><path d="M1.5005,-0.5002 T2.2585,1.6129 3.4501,5.6476 4.0694,9.0663 4.4551,12.1683 4.6552,13.7732 A1.6706,1.6706 0 0 1 1.3448,14.2268 T0.8973,11.2483 0.1357,6.5289 -0.8395,2.6441 -1.5005,0.5002 A1.5816,1.5816 0 0 1 1.5005,-0.5002 Z" stroke-linecap="round" fill="#f76707"/></g></g><g transform="matrix(1, 0, 0, 1, 608, 123)" opacity="1"><g transform="scale(1)"><path d="M2.5025,0.6256 T2.2813,1.5728 1.6913,5.3922 1.2124,10.0631 0.8022,14.1655 0.346,18.493 0.0863,22.2923 0.1199,25.5171 1.4394,28.5871 2.6218,30.2079 A2.417,2.417 0 0 1 -0.6218,33.7921 T-1.3769,33.1702 -3.1314,31.4893 -4.6164,29.0102 -5.3441,25.699 -5.5117,21.9374 -5.2557,17.865 -4.7333,13.5385 -3.8799,7.9824 -3.1867,2.9074 -2.7543,0.3192 -2.5025,-0.6256 A2.5795,2.5795 0 0 1 2.5025,0.6256 Z" stroke-linecap="round" fill="#f76707"/></g></g><g transform="matrix(1, 0, 0, 1, 628, 131)" opacity="1"><g transform="scale(1)"><path d="M1.8492,0.6164 T1.1928,2.7633 -0.34,6.8536 -2.169,10.5359 -4.1927,13.6932 -6.377,16.5891 -7.4902,18.0665 A1.8485,1.8485 0 0 1 -10.5098,15.9335 T-9.4895,14.3905 -7.6252,11.5548 -5.8953,8.6521 -4.1918,5.3228 -2.6118,1.4937 -1.8492,-0.6164 A1.9492,1.9492 0 0 1 1.8492,0.6164 Z" stroke-linecap="round" fill="#f76707"/></g></g><g transform="matrix(1, 0, 0, 1, 619, 135)" opacity="1"><g transform="scale(1)"><path d="M1.3828,-1.1852 T2.7867,0.4831 5.4091,3.4652 7.7526,5.9277 9.9528,8.1428 12.4333,10.2661 14.8271,11.8134 15.8155,12.3037 A1.8822,1.8822 0 0 1 14.1845,15.6963 T13.1843,15.2306 10.2131,13.3358 7.1946,10.7811 5.0394,8.4402 2.7085,5.8477 0.0513,2.8279 -1.3828,1.1852 A1.8212,1.8212 0 0 1 1.3828,-1.1852 Z" stroke-linecap="round" fill="#f76707"/></g></g><g transform="matrix(1, 0, 0, 1, 632, 119)" opacity="1"><g transform="scale(1)"><path d="M1.9551,-1.6292 T3.1084,-0.1825 5.2363,2.8812 7.1864,6.2395 9.012,9.9455 10.5924,14.1647 11.9729,18.7777 13.0083,23.4437 13.572,27.6814 13.8453,31.3596 13.7086,34.5884 12.6887,37.5536 11.2038,40.195 10.507,41.352 A2.8483,2.8483 0 0 1 5.493,38.648 T6.077,37.4301 7.177,34.7962 7.6233,31.7571 7.4196,28.3598 7.0782,24.5566 6.3961,20.2475 5.4152,15.9078 4.31,12.1144 2.8344,8.6937 1.2131,5.7094 -0.7434,3.0205 -1.9551,1.6292 A2.5449,2.5449 0 0 1 1.9551,-1.6292 Z" stroke-linecap="round" fill="#f76707"/></g></g><g transform="matrix(1, 0, 0, 1, 657, 130)" opacity="1"><g transform="scale(1)"><path d="M0.5912,-2.3649 T1.5436,-2.155 4.763,-1.7742 8.0616,-1.5472 9.0931,-1.4911 A2.4928,2.4928 0 0 1 8.9069,3.4911 T6.8973,3.4503 3.0879,3.1503 0.3484,2.628 -0.5912,2.3649 A2.4377,2.4377 0 0 1 0.5912,-2.3649 Z" stroke-linecap="round" fill="#f76707"/></g></g><g transform="matrix(1, 0, 0, 1, 659, 136)" opacity="1"><g transform="scale(1)"><path d="M1.9178,-1.4384 T2.6468,-0.5178 5.4203,0.4699 7.4648,0.5369 A2.5206,2.5206 0 0 1 8.5352,5.4631 T7.6974,5.649 4.774,5.7682 1.0753,4.5413 -1.2278,2.4098 -1.9178,1.4384 A2.3973,2.3973 0 0 1 1.9178,-1.4384 Z" stroke-linecap="round" fill="#f76707"/></g></g><g transform="matrix(1, 0, 0, 1, 684, 128)" opacity="1"><g transform="scale(1)"><path d="M0.4416,-2.6499 T1.8653,-2.4335 4.6802,-1.8504 7.9548,-1.6136 10.4823,-3.0513 9.6143,-4.3627 6.7671,-2.7945 5.0013,0.9903 4.7406,4.6372 6.1219,8.4583 9.0819,11.7071 12.6913,11.6339 16.5116,9.0089 18.4711,7.319 A2.2723,2.2723 0 0 1 21.5289,10.681 T20.4499,11.7262 18.1941,13.8701 15.1773,15.9496 11.3688,17.091 7.6939,16.5475 4.6334,14.5755 2.4454,11.7565 1.047,8.3353 0.3803,4.5498 0.488,1.0974 1.1606,-2.0103 3.486,-5.8164 7.855,-8.6349 12.7009,-8.3605 15.7569,-5.0896 15.643,-0.6371 12.6111,2.7328 8.47,4.2105 4.4588,3.7604 0.9727,2.9065 -0.4416,2.6499 A2.6864,2.6864 0 0 1 0.4416,-2.6499 Z" stroke-linecap="round" fill="#f76707"/></g></g><g transform="matrix(1, 0, 0, 1, 720, 102)" opacity="1"><g transform="scale(1)"><path d="M1.5218,0.5073 T1.0763,1.9355 -0.0559,5.3393 -1.7939,10.222 -3.8096,14.3853 -5.7203,16.8304 -6.6665,18.0193 A1.6784,1.6784 0 0 1 -9.3335,15.9807 T-7.7432,13.8455 -5.0957,8.8962 -3.2806,4.1973 -2.0223,0.9025 -1.5218,-0.5073 A1.6041,1.6041 0 0 1 1.5218,0.5073 Z" stroke-linecap="round" fill="#f76707"/></g></g><g transform="matrix(1, 0, 0, 1, 712, 105)" opacity="1"><g transform="scale(1)"><path d="M1.6696,-1.1131 T3.6028,1.6974 6.7748,6.1965 9.1644,9.5058 11.17,12.5003 12.9453,15.3551 13.8658,16.8361 A2.199,2.199 0 0 1 10.1342,19.1639 T9.2088,17.6858 7.4815,14.9255 5.5841,12.0193 3.2604,8.6197 0.1812,3.9786 -1.6696,1.1131 A2.0066,2.0066 0 0 1 1.6696,-1.1131 Z" stroke-linecap="round" fill="#f76707"/></g></g><g transform="matrix(1, 0, 0, 1, 748, 141)" opacity="1"><g transform="scale(1)"><path d="M1.7815,0.5938 T1.3418,2.0253 -0.1023,5.5722 -2.791,9.9048 -4.4753,12.1218 A1.8929,1.8929 0 0 1 -7.5247,9.8782 T-6.1116,7.8853 -3.7463,4.0559 -2.2878,0.8127 -1.7815,-0.5938 A1.8779,1.8779 0 0 1 1.7815,0.5938 Z" stroke-linecap="round" fill="#e599f7"/></g></g><g transform="matrix(1, 0, 0, 1, 785, 122)" opacity="1"><g transform="scale(1)"><path d="M-2.0502,-1.0251 T-1.575,-1.9194 -1.1809,-3.4358 -1.2619,-4.0579 A2.2626,2.2626 0 0 1 3.2619,-3.9421 T3.1269,-2.4562 2.521,0.0274 2.0502,1.0251 A2.2922,2.2922 0 0 1 -2.0502,-1.0251 ZM3.2625,-3.9778 T3.2569,-3.2595 3.2877,-0.2572 3.5453,4.048 4.318,7.8474 6.2033,10.465 8.9265,10.1296 10.9727,7.6379 11.526,4.4524 11.4227,2.5837 A1.7736,1.7736 0 0 1 14.8294,1.5949 T14.9898,2.0913 15.3753,4.2038 15.1764,7.676 13.8678,11.2231 10.918,14.2008 6.5479,15.3039 2.4862,13.4617 -0.0462,9.4325 -1.0751,4.5467 -1.3049,-0.1821 -1.2719,-3.2091 -1.2625,-4.0222 A2.2626,2.2626 0 0 1 3.2625,-3.9778 ZM14.8969,2.1898 T14.8424,2.9521 15.3142,5.0413 16.7122,8.222 18.5074,11.6434 19.9619,14.1844 20.4929,15.1576 A1.7142,1.7142 0 0 1 17.5071,16.8424 T16.9486,15.8847 15.3775,13.2685 13.4673,9.6483 11.9258,5.6793 11.3187,2.8303 11.3553,1.9887 A1.7736,1.7736 0 0 1 14.8969,2.1898 Z" stroke-linecap="round" fill="#e599f7"/></g></g><g transform="matrix(1, 0, 0, 1, 823, 103)" opacity="1"><g transform="scale(1)"><path d="M2.2135,0.6324 T1.7374,2.287 0.7725,5.5462 -0.1898,8.901 -0.8771,12.387 -1.2101,15.7598 -1.3796,19.1919 -1.4599,22.6483 -1.3105,26.8786 -1.0554,31.0032 -0.8975,34.1902 -0.8152,35.8219 A2.1921,2.1921 0 0 1 -5.1848,36.1781 T-5.5304,33.1885 -6.1083,27.1993 -6.2948,22.4992 -6.155,18.9077 -5.9067,15.2489 -5.4471,11.4493 -4.6303,7.6082 -3.6361,4.2397 -2.6834,1.024 -2.2135,-0.6324 A2.3021,2.3021 0 0 1 2.2135,0.6324 Z" stroke-linecap="round" fill="#e599f7"/></g></g><g transform="matrix(1, 0, 0, 1, 839, 117)" opacity="1"><g transform="scale(1)"><path d="M1.6847,0.4814 T1.267,2.1528 0.3718,5.2402 -1.7884,9.2125 -4.5882,12.9568 -5.7054,14.1447 A1.7281,1.7281 0 0 1 -8.2946,11.8553 T-6.4831,9.7239 -3.7064,5.1951 -2.213,1.1582 -1.6847,-0.4814 A1.7521,1.7521 0 0 1 1.6847,0.4814 Z" stroke-linecap="round" fill="#e599f7"/></g></g><g transform="matrix(1, 0, 0, 1, 830, 117)" opacity="1"><g transform="scale(1)"><path d="M1.6727,-1.1151 T2.6115,0.3086 4.9628,3.7059 7.484,7.3654 10.3896,9.9658 12.1865,10.8804 A2.1278,2.1278 0 0 1 11.8135,15.1196 T9.7056,14.7647 6.3116,12.9831 3.9349,9.7285 1.539,5.9221 -0.7195,2.5294 -1.6727,1.1151 A2.0103,2.0103 0 0 1 1.6727,-1.1151 Z" stroke-linecap="round" fill="#e599f7"/></g></g><g transform="matrix(1, 0, 0, 1, 843, 106)" opacity="1"><g transform="scale(1)"><path d="M0.8319,-2.0797 T2.027,-1.5911 4.3764,-0.2013 6.6646,2.2269 8.6596,5.5743 10.2159,9.2905 11.3188,13.5245 11.9309,18.0204 11.9719,22.1829 11.4556,25.9828 10.3309,29.4059 8.5404,32.1971 6.5778,34.3785 5.6336,35.3968 A2.1494,2.1494 0 0 1 2.3664,32.6032 T3.2256,31.5123 5.1895,28.6248 6.5682,25.3053 6.9708,22.1834 6.9603,18.5969 6.5773,14.6715 5.7918,11.0036 4.6623,7.8036 2.7912,4.6639 0.338,2.5371 -0.8319,2.0797 A2.2399,2.2399 0 0 1 0.8319,-2.0797 Z" stroke-linecap="round" fill="#e599f7"/></g></g><g transform="matrix(1, 0, 0, 1, 865, 116)" opacity="1"><g transform="scale(1)"><path d="M0.3666,-1.8332 T1.5602,-1.6524 4.3815,-1.4935 7.8734,-1.7317 9.7374,-1.948 A1.9656,1.9656 0 0 1 10.2626,1.948 T9.387,2.093 6.9264,2.5711 3.6589,2.6609 0.8048,2.1254 -0.3666,1.8332 A1.8695,1.8695 0 0 1 0.3666,-1.8332 Z" stroke-linecap="round" fill="#e599f7"/></g></g><g transform="matrix(1, 0, 0, 1, 865, 123)" opacity="1"><g transform="scale(1)"><path d="M0.6124,-1.8373 T2.0444,-1.4037 5.2676,-0.6471 9.0982,-0.151 11.1375,0.0221 A1.9827,1.9827 0 0 1 10.8625,3.9779 T8.6919,3.8583 4.3605,3.3004 0.7936,2.3497 -0.6124,1.8373 A1.9367,1.9367 0 0 1 0.6124,-1.8373 Z" stroke-linecap="round" fill="#e599f7"/></g></g><g transform="matrix(1, 0, 0, 1, 895, 119)" opacity="1"><g transform="scale(1)"><path d="M0,-1.4322 T1.1825,-1.523 4.2754,-1.722 7.7997,-1.867 9.7995,-2.1409 10.1853,-2.3781 A1.8605,1.8605 0 0 1 13.0576,-0.0124 T11.2356,0.9456 7.7997,1.867 4.2754,1.722 1.1825,1.523 0,1.4322 A1.4322,1.4322 0 0 1 0,-1.4322 ZM9.9096,-0.4664 T9.703,-1.0011 9.4964,-1.5358 A1.8218,1.8218 0 0 1 12.8488,-2.9632 T13.091,-2.4436 13.3333,-1.9241 A1.8605,1.8605 0 0 1 9.9096,-0.4664 ZM10.5778,-0.5275 T10.0642,-0.7254 8.2465,-1.532 5.5744,-1.3995 3.6521,1.003 3.2331,4.1117 4.2686,7.1445 6.656,9.804 10.0181,11.1861 13.3235,11.4392 16.5374,10.792 18.3211,10.1991 A1.9246,1.9246 0 0 1 19.6789,13.8009 T18.7022,14.2132 15.6155,15.2629 11.1466,15.5939 7.3119,14.7911 3.8894,12.5911 0.8827,8.5681 -0.1968,4.0412 0.4116,0.3574 2.1615,-2.5989 5.2893,-4.7648 9.0171,-4.8682 11.2534,-4.1286 11.7674,-3.9715 A1.8218,1.8218 0 0 1 10.5778,-0.5275 Z" stroke-linecap="round" fill="#e599f7"/></g></g><g transform="matrix(1, 0, 0, 1, 925, 96)" opacity="1"><g transform="scale(1)"><path d="M1.7039,0 T1.767,1.4328 1.3697,4.6103 -0.4121,8.977 -3.0767,12.6269 -5.6667,14.543 -6.9133,15.4312 A1.797,1.797 0 0 1 -9.0867,12.5688 T-7.8963,11.6066 -5.2303,9.0756 -2.7925,5.1586 -1.767,1.4052 -1.7039,0 A1.7039,1.7039 0 0 1 1.7039,0 Z" stroke-linecap="round" fill="#e599f7"/></g></g><g transform="matrix(1, 0, 0, 1, 912, 100)" opacity="1"><g transform="scale(1)"><path d="M1.1418,-1.7127 T2.5586,-0.7635 6.266,1.4635 10.6394,3.7925 13.8767,5.7068 16.1533,7.4255 17.2755,8.281 A2.1405,2.1405 0 0 1 14.7245,11.719 T13.5804,10.893 10.5239,8.8645 6.407,6.4066 2.9515,4.3748 0.2794,2.6555 -1.1418,1.7127 A2.0584,2.0584 0 0 1 1.1418,-1.7127 Z" stroke-linecap="round" fill="#e599f7"/></g></g><g transform="matrix(1, 0, 0, 1, 742, 81)" opacity="1"><g transform="scale(1)"><path d="M-1.2133,-1.82 T-0.5074,-2.2654 0.3331,-2.9681 0.4677,-3.2254 A2.1442,2.1442 0 0 1 3.8659,-0.6097 T3.2527,0.1045 1.9264,1.3194 1.2133,1.82 A2.1873,2.1873 0 0 1 -1.2133,-1.82 ZM1.2167,0.0046 T1.177,-0.0145 1.1373,-0.0335 A2.1452,2.1452 0 0 1 3.0385,-3.8796 T3.0777,-3.8596 3.117,-3.8397 A2.1442,2.1442 0 0 1 1.2167,0.0046 ZM4.0482,-1.0853 T3.463,0.2946 2.0419,4.5387 0.7269,8.8986 -0.8583,13.0944 -1.9644,15.7944 A2.1852,2.1852 0 0 1 -6.0356,14.2056 T-5.0693,11.595 -3.6195,7.509 -2.6672,4.58 -1.709,1.6016 -0.546,-1.3756 0.1277,-2.8278 A2.1452,2.1452 0 0 1 4.0482,-1.0853 Z" stroke-linecap="round" fill="#4dabf7"/></g></g><g transform="matrix(1, 0, 0, 1, 774, 61)" opacity="1"><g transform="scale(1)"><path d="M2.0802,-1.6641 T3.0305,-0.4846 4.7891,1.8767 6.4702,4.3398 8.8315,7.7614 11.3683,7.9396 12.7278,4.0363 13.5847,-0.0089 14.3625,-3.2429 14.5945,-4.3729 A2.4342,2.4342 0 0 1 19.4055,-3.6271 T19.1461,-1.2854 18.5298,3.0789 17.4626,7.7237 15.762,12.6743 13.5281,15.8137 10.8415,16.5204 7.6753,14.8512 4.3871,10.9643 1.3128,6.3387 -1.1385,2.8496 -2.0802,1.6641 A2.6639,2.6639 0 0 1 2.0802,-1.6641 Z" stroke-linecap="round" fill="#4dabf7"/></g></g><g transform="matrix(1, 0, 0, 1, 796, 37)" opacity="1"><g transform="scale(1)"><path d="M1.391,-0.5564 T1.8831,0.6184 3.2029,4.3035 4.2338,9.1513 4.493,12.6934 4.5492,13.898 A1.5525,1.5525 0 0 1 1.4508,14.102 T1.3485,12.9005 1.0374,9.5744 0.1727,5.1932 -0.9371,1.7466 -1.391,0.5564 A1.4982,1.4982 0 0 1 1.391,-0.5564 Z" stroke-linecap="round" fill="#4dabf7"/></g></g><g transform="matrix(1, 0, 0, 1, 813, 42)" opacity="1"><g transform="scale(1)"><path d="M1.8938,0.6313 T1.6606,1.3372 1.036,4.3263 0.516,8.0987 0.3139,11.1069 0.2023,14.1316 0.6777,18.1223 2.4251,22.8272 3.6593,25.0471 A1.9135,1.9135 0 0 1 0.3407,26.9529 T-0.4194,25.6948 -1.9625,23.0784 -3.1322,20.3138 -3.7431,17.2177 -3.9167,13.9668 -3.772,10.7971 -3.4878,7.4364 -2.8356,3.2394 -2.1336,0.0818 -1.8938,-0.6313 A1.9962,1.9962 0 0 1 1.8938,0.6313 Z" stroke-linecap="round" fill="#4dabf7"/></g></g><g transform="matrix(1, 0, 0, 1, 828, 48)" opacity="1"><g transform="scale(1)"><path d="M1.6495,0.6186 T0.9659,2.5203 -0.3622,5.9146 -1.8909,8.7765 -3.6784,11.5245 -4.5819,12.9032 A1.6813,1.6813 0 0 1 -7.4181,11.0968 T-5.8455,8.569 -3.6966,4.5935 -2.3849,1.2637 -1.6495,-0.6186 A1.7617,1.7617 0 0 1 1.6495,0.6186 Z" stroke-linecap="round" fill="#4dabf7"/></g></g><g transform="matrix(1, 0, 0, 1, 821, 49)" opacity="1"><g transform="scale(1)"><path d="M1.4089,-1.2524 T3.3182,0.8608 6.4717,4.3085 8.8406,6.8004 11.5011,8.9939 14.041,10.6762 15.0452,11.3223 A1.9767,1.9767 0 0 1 12.9548,14.6777 T11.9322,14.0611 8.9695,12.0943 5.9079,9.524 3.5634,6.922 0.4658,3.3962 -1.4089,1.2524 A1.8851,1.8851 0 0 1 1.4089,-1.2524 Z" stroke-linecap="round" fill="#4dabf7"/></g></g><g transform="matrix(1, 0, 0, 1, 833, 38)" opacity="1"><g transform="scale(1)"><path d="M0,-2.5084 T1.194,-2.4624 4.4967,-1.6462 8.185,0.9779 10.405,4.1305 11.6414,7.0933 12.7953,10.5594 13.6834,14.406 14.1809,18.2289 14.1658,21.6375 13.6055,24.6547 12.3953,27.4143 10.7879,29.9803 10.0128,31.1738 A2.3301,2.3301 0 0 1 5.9872,28.8262 T7.0973,26.7323 8.6154,22.5333 8.9087,18.8116 8.589,15.4906 7.9266,12.0641 7.0359,8.9095 5.7483,5.797 3.6181,3.2668 1.171,2.4624 0,2.5084 A2.5084,2.5084 0 0 1 0,-2.5084 Z" stroke-linecap="round" fill="#4dabf7"/></g></g><g transform="matrix(1, 0, 0, 1, 855, 48)" opacity="1"><g transform="scale(1)"><path d="M0.3288,-1.6441 T1.5189,-1.4459 4.1487,-1.3419 7.5576,-2.1996 10.4274,-3.302 11.3279,-3.641 A1.7733,1.7733 0 0 1 12.6721,-0.359 T10.9003,0.4193 7.7066,1.6975 4.1528,2.1956 0.8461,1.9189 -0.3288,1.6441 A1.6767,1.6767 0 0 1 0.3288,-1.6441 Z" stroke-linecap="round" fill="#4dabf7"/></g></g><g transform="matrix(1, 0, 0, 1, 857, 56)" opacity="1"><g transform="scale(1)"><path d="M-0.6978,-1.7444 T0.4694,-2.2569 3.7239,-3.4201 7.1094,-4.4714 8.4077,-4.8719 A1.9634,1.9634 0 0 1 9.5923,-1.1281 T8.3,-0.7089 5.0505,0.2938 1.8956,1.3109 0.6978,1.7444 A1.8788,1.8788 0 0 1 -0.6978,-1.7444 Z" stroke-linecap="round" fill="#4dabf7"/></g></g><g transform="matrix(1, 0, 0, 1, 891, 27)" opacity="1"><g transform="scale(1)"><path d="M2.5471,-0.849 T3.2837,1.2705 4.6713,5.4953 5.9144,9.9309 7.0522,14.3992 7.8855,18.7677 8.3121,22.6227 8.6021,25.9941 8.7529,27.7411 A2.7651,2.7651 0 0 1 3.2471,28.2589 T3.0695,26.5145 2.7363,23.2608 2.3088,19.8309 1.5214,15.7613 0.4816,11.3983 -0.6125,7.1541 -1.8647,2.9865 -2.5471,0.849 A2.6849,2.6849 0 0 1 2.5471,-0.849 Z" stroke-linecap="round" fill="#4dabf7"/></g></g><g transform="matrix(1, 0, 0, 1, 890, 25)" opacity="1"><g transform="scale(1)"><path d="M1.7774,1.2696 T0.6401,2.9575 -1.6075,6.0732 -3.7949,8.73 -6.0537,10.9042 -8.4075,12.773 -9.5797,13.6968 A2.2128,2.2128 0 0 1 -12.4203,10.3032 T-10.4329,8.538 -7.4212,5.6379 -5.3149,3.2397 -3.0051,0.3535 -1.7774,-1.2696 A2.1843,2.1843 0 0 1 1.7774,1.2696 Z" stroke-linecap="round" fill="#4dabf7"/></g></g><g transform="matrix(1, 0, 0, 1, 904, 55)" opacity="1"><g transform="scale(1)"><path d="M-0.811,2.4329 T-2.2467,2.0139 -5.7245,1.5709 -10.6926,2.1479 -15.5186,3.1376 -17.4185,3.5263 A2.5924,2.5924 0 0 1 -18.5815,-1.5263 T-16.703,-2.0074 -13.1081,-2.9376 -9.798,-3.7011 -5.0989,-3.7511 -0.5913,-2.9599 0.811,-2.4329 A2.5645,2.5645 0 0 1 -0.811,2.4329 Z" stroke-linecap="round" fill="#4dabf7"/></g></g><g transform="matrix(1, 0, 0, 1, 167.5, 210.5)" opacity="1"><g transform="scale(1)"><path d="M-1.4656,-1.9541 T-0.5377,-2.6884 1.9199,-4.7166 5.072,-7.326 7.4082,-9.8932 8.2029,-11.7737 8.2837,-12.4022 A2.622,2.622 0 0 1 13.4363,-11.4276 T12.6707,-9.3217 11.0598,-5.9908 8.7144,-3.6067 5.3042,-0.9315 2.4297,1.2694 1.4656,1.9541 A2.4427,2.4427 0 0 1 -1.4656,-1.9541 ZM9.3332,-9.7833 T9.0641,-10.038 7.2174,-10.495 4.4114,-9.032 2.5633,-5.893 1.3758,-2.7278 0.3619,0.6798 -0.258,4.1251 0.3322,7.5275 2.1228,10.369 4.6201,12.0215 7.6259,12.6736 10.6372,12.906 14.018,12.2023 15.9226,11.434 A2.783,2.783 0 0 1 18.0774,16.566 T16.2138,17.4455 12.219,18.5672 8.1583,18.5649 4.162,17.5675 -0.0808,15.2587 -3.1133,12.3743 -4.7063,9.14 -5.3575,5.7152 -4.9444,2.356 -4.2708,-0.8855 -3.3446,-4.0198 -1.8502,-7.9081 0.1487,-11.5174 3.0306,-14.3142 6.4104,-15.8926 9.3651,-15.6162 11.5618,-14.5756 12.3868,-14.0465 A2.622,2.622 0 0 1 9.3332,-9.7833 Z" stroke-linecap="round" fill="#f76707"/></g></g><g transform="matrix(1, 0, 0, 1, 196.5, 176.5)" opacity="1"><g transform="scale(1)"><path d="M1.3534,1.3534 T0.1855,2.5499 -1.9959,5.022 -3.7111,7.588 -5.3691,10.2041 -7.4218,12.5262 -9.5947,14.4789 -10.6713,15.4354 A1.9559,1.9559 0 0 1 -13.3287,12.5646 T-12.292,11.5649 -9.6071,8.6974 -7.032,5.2963 -4.9264,2.3733 -2.5505,-0.1849 -1.3534,-1.3534 A1.914,1.914 0 0 1 1.3534,1.3534 Z" stroke-linecap="round" fill="#f76707"/></g></g><g transform="matrix(1, 0, 0, 1, 183.5, 176.5)" opacity="1"><g transform="scale(1)"><path d="M1.418,-1.7726 T2.5936,-0.8178 5.5127,1.8921 8.5425,5.6599 10.8773,9.2542 13.3527,12.7049 14.7796,14.5739 A2.2805,2.2805 0 0 1 11.2204,17.4261 T9.5005,15.3685 6.7445,11.6773 4.6895,8.281 2.3157,5.0827 -0.2286,2.7098 -1.418,1.7726 A2.27,2.27 0 0 1 1.418,-1.7726 Z" stroke-linecap="round" fill="#f76707"/></g></g><g transform="matrix(1, 0, 0, 1, 68.5, 329.5)" opacity="1"><g transform="scale(1)"><path d="M0,1.6919 T-0.7182,1.7226 -3.3216,1.4522 -7.3099,0.6848 -11.2866,-0.0039 -13.1602,-0.2263 A1.7809,1.7809 0 0 1 -12.8398,-3.7737 T-10.7843,-3.6412 -6.7124,-3.0522 -3.0489,-2.1745 -0.7008,-1.7226 0,-1.6919 A1.6919,1.6919 0 0 1 0,1.6919 Z" stroke-linecap="round" fill="#f2f2f2"/></g></g><g transform="matrix(1, 0, 0, 1, 75.5, 346.5)" opacity="1"><g transform="scale(1)"><path d="M-0.3302,1.1555 T-1.9862,0.6866 -5.1522,-0.0191 -8.1617,-0.3938 -11.3798,-0.689 -13.0982,-0.8461 A1.1581,1.1581 0 0 1 -12.9018,-3.1539 T-11.1815,-3.0183 -7.8745,-2.758 -4.6337,-2.3715 -1.3248,-1.6326 0.3302,-1.1555 A1.2018,1.2018 0 0 1 -0.3302,1.1555 Z" stroke-linecap="round" fill="#f2f2f2"/></g></g><g transform="matrix(1, 0, 0, 1, 121.5, 336.5)" opacity="1"><g transform="scale(1)"><path d="M0,-2.1339 T1.1825,-2.1613 3.9219,-2.674 6.4387,-4.6211 6.5444,-7.4345 4.1874,-9.2275 1.2519,-8.2629 -0.8545,-4.7049 -1.4641,-0.0008 -0.6547,5.0528 1.505,9.3861 4.3329,12.0389 7.2236,12.5296 10.6816,10.5682 14.1648,7.7165 15.6669,6.4962 A2.0096,2.0096 0 0 1 18.3331,9.5038 T16.9413,10.8487 14.2377,13.4751 11.3857,15.8223 8.3569,17.167 4.1618,16.7174 0.4076,15.0027 -1.5165,12.8139 -3.5465,8.881 -5.0089,4.5698 -5.4542,1.3373 -5.4261,-1.8174 -4.9289,-4.831 -3.4504,-8.5637 -0.4498,-12.2944 3.3659,-13.6747 7.2488,-12.5555 10.3949,-9.631 11.5908,-5.6287 10.3745,-1.8864 7.6974,0.726 4.2864,1.9267 1.1825,2.1613 0,2.1339 A2.1339,2.1339 0 0 1 0,-2.1339 Z" stroke-linecap="round" fill="#e599f7"/></g></g><g transform="matrix(1, 0, 0, 1, 144.5, 304.5)" opacity="1"><g transform="scale(1)"><path d="M1.5404,0.5135 T1.1162,1.9531 -0.0762,4.7935 -2.3144,8.4594 -5.8258,12.4982 -7.8673,14.2719 A1.7032,1.7032 0 0 1 -10.1327,11.7281 T-9.1534,10.823 -6.6914,8.2759 -3.8963,4.4587 -2.0622,0.8849 -1.5404,-0.5135 A1.6237,1.6237 0 0 1 1.5404,0.5135 Z" stroke-linecap="round" fill="#e599f7"/></g></g><g transform="matrix(1, 0, 0, 1, 132.5, 304.5)" opacity="1"><g transform="scale(1)"><path d="M1.3511,-1.8916 T2.9724,-0.6609 5.9866,1.7182 8.6115,3.9333 11.07,6.336 14.0674,9.1438 17.982,11.7719 20.1257,12.9281 A2.358,2.358 0 0 1 17.8743,17.0719 T16.6141,16.401 13.2359,14.2571 9.9685,11.7413 7.8538,9.5079 5.7564,7.2827 3.3263,5.2041 0.3386,3.0259 -1.3511,1.8916 A2.3246,2.3246 0 0 1 1.3511,-1.8916 Z" stroke-linecap="round" fill="#e599f7"/></g></g><g transform="matrix(1, 0, 0, 1, 192.5, 323.5)" opacity="1"><g transform="scale(1)"><path d="M-0.5592,2.2368 T-1.3934,2.0013 -3.3564,2.6395 -5.5887,4.4943 -7.9994,6.7212 -10.4081,9.2452 -12.6563,11.7292 -15.2271,14.1033 -18.2368,16.1424 -21.4033,17.8683 -22.984,18.7235 A2.0007,2.0007 0 0 1 -25.016,15.2765 T-22.3108,13.541 -18.4519,10.7648 -16.2469,8.5329 -13.9206,5.8668 -11.2391,3.1062 -8.4787,0.6906 -5.8831,-1.2071 -3.0988,-2.3434 -0.4986,-2.4743 0.5592,-2.2368 A2.3056,2.3056 0 0 1 -0.5592,2.2368 Z" stroke-linecap="round" fill="#40c057"/></g></g><g transform="matrix(1, 0, 0, 1, 166.5, 321.5)" opacity="1"><g transform="scale(1)"><path d="M1.302,-1.5623 T2.6999,-0.3546 5.3462,1.9745 7.8124,4.4555 10.3302,7.1499 12.8696,9.9576 15.3545,12.5178 17.9627,14.6411 21.3792,17.0327 24.803,19.127 26.173,19.8657 A2.4354,2.4354 0 0 1 23.827,24.1343 T22.469,23.3736 18.7626,20.9667 14.9675,18.1116 12.1278,15.5254 9.6603,12.7391 7.2902,9.8892 4.9796,7.2336 2.7714,4.9478 0.1381,2.7196 -1.302,1.5623 A2.0337,2.0337 0 0 1 1.302,-1.5623 Z" stroke-linecap="round" fill="#40c057"/></g></g><g transform="matrix(1, 0, 0, 1, 214.5, 334.5)" opacity="1"><g transform="scale(1)"><path d="M0.5615,-1.9652 T2.2154,-1.4869 5.8834,-0.6734 9.8546,-0.2587 13.5543,-0.3676 17.8351,-1.2555 21.9052,-2.3811 23.4375,-2.8074 A1.8929,1.8929 0 0 1 24.5625,0.8074 T23.059,1.3259 18.8909,2.7047 13.9436,3.7907 9.5253,3.8847 5.0713,3.3267 1.0956,2.4329 -0.5615,1.9652 A2.0439,2.0439 0 0 1 0.5615,-1.9652 Z" stroke-linecap="round" fill="#f2f2f2"/></g></g><g transform="matrix(1, 0, 0, 1, 274.5, 302.5)" opacity="1"><g transform="scale(1)"><path d="M-1.549,-0.3872 T-0.8274,-3.2222 0.2546,-7.9823 0.7905,-11.5945 0.809,-14.7563 -0.0474,-18.5297 -1.4657,-22.7573 -3.556,-26.0612 -5.6348,-27.6685 -6.3422,-27.9011 A1.8335,1.8335 0 0 1 -5.3232,-31.4235 T-3.8924,-30.7778 -1.0506,-28.7692 0.9933,-25.819 2.4777,-21.8215 3.6341,-17.9575 4.0475,-14.7184 3.9373,-11.126 3.3312,-7.3069 2.2464,-2.4538 1.549,0.3872 A1.5967,1.5967 0 0 1 -1.549,-0.3872 ZM-4.7586,-28.1764 T-5.3228,-27.8103 -5.9798,-25.4444 -6.115,-20.7711 -6.1636,-16.657 -5.9408,-13.6342 -5.5787,-10.1441 -5.1465,-6.3992 -4.4536,-2.6457 -3.6114,1.2266 -2.6843,5.1577 -1.7089,9.3787 -0.7131,13.7304 0.2968,18.1491 1.3149,22.6034 2.3378,27.0765 3.3644,31.8183 4.1654,36.7749 4.8307,41.497 5.4191,45.8725 5.7476,50.1829 5.6882,54.4739 5.4312,58.6337 4.8011,62.8394 3.7382,66.8654 2.4318,70.4637 0.398,73.8425 -2.2472,76.733 -5.3219,78.8646 -8.9081,80.1051 -12.7765,80.7327 -16.9713,80.5623 -21.3214,79.4761 -25.1676,78.1841 -28.6481,76.725 -31.7112,75.1661 -34.4978,73.7276 -35.965,72.9737 A2.197,2.197 0 0 1 -34.035,69.0263 T-32.539,69.7212 -29.7028,71.0318 -26.8548,72.343 -23.6064,73.6376 -20.0695,74.8782 -16.6926,75.9049 -13.4054,76.1539 -9.1504,75.3618 -5.4252,73.6599 -3.2888,71.5179 -1.6345,68.9374 -0.4302,65.7155 0.5785,62.1851 1.1866,58.3349 1.4842,54.3886 1.5796,50.4785 1.3043,46.4073 0.7468,42.0585 0.1354,37.4063 -0.5887,32.6527 -1.5585,27.9444 -2.5287,23.4609 -3.4976,18.9977 -4.463,14.5728 -5.4203,10.2213 -6.3559,6.0055 -7.2601,2.0053 -8.0975,-1.9921 -8.7969,-5.9914 -9.2114,-9.7773 -9.5583,-13.3969 -9.7657,-18.0942 -9.6486,-23.499 -8.9851,-28.0095 -7.6587,-30.563 -6.9068,-31.1482 A1.8335,1.8335 0 0 1 -4.7586,-28.1764 Z" stroke-linecap="round" fill="#f2f2f2"/></g></g><g transform="matrix(1, 0, 0, 1, 303.5, 321.5)" opacity="1"><g transform="scale(1)"><path d="M1.8594,-2.4792 T2.8026,-1.818 5.7389,-0.6125 9.4147,0.1481 12.2515,-0.4802 13.1538,-2.7723 11.2759,-3.9598 8.1377,-2.3867 5.6688,0.7184 3.7442,4.8422 2.5144,9.0775 2.4315,12.5492 4.3622,15.1142 8.1682,16.1257 12.8878,15.5058 17.2937,14.2693 19.034,13.6675 A2.5246,2.5246 0 0 1 20.966,18.3325 T19.3098,19.1373 15.8945,20.768 12.4199,21.9964 8.7266,22.5281 4.2875,21.9581 0.2675,20.4048 -2.3893,17.4387 -3.552,12.7662 -3.051,7.6453 -1.3725,2.6441 0.3958,-1.1527 2.6129,-4.5715 6.2389,-7.9361 10.543,-9.4749 14.7591,-9.1595 18.0164,-6.6575 19.603,-2.9765 19.2916,0.9152 17.5957,4.3324 14.2993,6.412 10.0081,7.0068 5.6376,6.0342 1.6896,4.6421 -0.9106,3.237 -1.8594,2.4792 A3.099,3.099 0 0 1 1.8594,-2.4792 Z" stroke-linecap="round" fill="#e599f7"/></g></g><g transform="matrix(1, 0, 0, 1, 339.5, 292.5)" opacity="1"><g transform="scale(1)"><path d="M1.8307,0.9154 T1.1767,2.3638 -0.3639,5.1923 -2.197,7.7868 -4.1377,10.1034 -6.2735,12.0799 -8.5384,13.7991 -9.6617,14.644 A2.1199,2.1199 0 0 1 -12.3383,11.356 T-11.2832,10.4275 -8.4937,7.7613 -5.06,3.9436 -2.5957,0.4742 -1.8307,-0.9154 A2.0468,2.0468 0 0 1 1.8307,0.9154 Z" stroke-linecap="round" fill="#e599f7"/></g></g><g transform="matrix(1, 0, 0, 1, 329.5, 292.5)" opacity="1"><g transform="scale(1)"><path d="M2.0252,-1.3501 T2.9394,0.0902 4.6264,2.7907 7.1765,6.3543 10.6487,9.9835 14.7325,12.5406 17.1212,13.7717 A2.4944,2.4944 0 0 1 14.8788,18.2283 T13.5035,17.5601 9.6164,15.338 6.011,12.6713 4.0408,10.2748 1.5473,6.5683 -1.0474,2.7478 -2.0252,1.3501 A2.434,2.434 0 0 1 2.0252,-1.3501 Z" stroke-linecap="round" fill="#e599f7"/></g></g><g transform="matrix(1, 0, 0, 1, 357.5, 320.5)" opacity="1"><g transform="scale(1)"><path d="M1.6089,-1.6089 T2.3307,-0.9012 3.6421,1.8328 3.335,5.0079 2.4383,6.1566 A2.2929,2.2929 0 0 1 -0.78,2.8897 T-0.4972,2.9606 -0.9117,2.3202 -1.6089,1.6089 A2.2754,2.2754 0 0 1 1.6089,-1.6089 ZM-0.3944,6.4623 T-0.5895,6.3369 -0.7845,6.2114 A2.2889,2.2889 0 0 1 1.6584,2.34 T1.8556,2.462 2.0527,2.5841 A2.2929,2.2929 0 0 1 -0.3944,6.4623 ZM0.1921,2 T1.4726,1.8519 2.753,1.7038 A2.3095,2.3095 0 0 1 3.247,6.2962 T1.9644,6.4238 0.6818,6.5515 A2.2889,2.2889 0 0 1 0.1921,2 ZM3,6.3095 T1.5,6.2949 0,6.2804 A2.2804,2.2804 0 0 1 0,1.7196 T1.5,1.7051 3,1.6905 A2.3095,2.3095 0 0 1 3,6.3095 Z" stroke-linecap="round" fill="#4dabf7"/></g></g><g transform="matrix(1, 0, 0, 1, 390.5, 296.5)" opacity="1"><g transform="scale(1)"><path d="M2.5559,-0.284 T2.8003,1.8438 3.1943,6.5907 3.4444,12.0001 3.6161,17.6781 3.7396,23.2693 3.8299,28.3452 3.6415,32.6391 2.948,36.2662 2.4808,37.9719 A2.9188,2.9188 0 0 1 -3.1404,36.3972 T-2.762,35.0848 -2.1472,32.253 -1.892,28.3723 -1.8574,23.3218 -1.8396,17.7755 -1.8684,12.1927 -1.999,7.0047 -2.3273,2.4132 -2.5559,0.284 A2.5716,2.5716 0 0 1 2.5559,-0.284 ZM-1.1047,39.9986 T-1.2623,39.9515 -1.4199,39.9044 A2.9116,2.9116 0 0 1 0.1263,34.2902 T0.2857,34.3304 0.4452,34.3706 A2.9188,2.9188 0 0 1 -1.1047,39.9986 ZM-3.3149,38.263 T-3.6008,37.4979 -4.0564,35.0152 -4.3164,31.8012 -4.4067,30.3047 A2.426,2.426 0 0 1 0.4067,29.6953 T0.8599,32.1135 1.6672,35.2316 2.0213,35.9316 A2.9116,2.9116 0 0 1 -3.3149,38.263 Z" stroke-linecap="round" fill="#4dabf7"/></g></g><g transform="matrix(1, 0, 0, 1, 387.5, 294.5)" opacity="1"><g transform="scale(1)"><path d="M2.0692,1.478 T0.9221,3.159 -1.3477,6.2712 -3.56,8.93 -5.8185,11.1517 -8.3415,13.0662 -11.1266,14.9674 -12.5575,15.9483 A2.4241,2.4241 0 0 1 -15.4425,12.0517 T-14.0867,10.9694 -10.6994,8.2307 -7.6561,5.4379 -5.5747,3.0417 -3.2871,0.152 -2.0692,-1.478 A2.5429,2.5429 0 0 1 2.0692,1.478 Z" stroke-linecap="round" fill="#4dabf7"/></g></g><g transform="matrix(1, 0, 0, 1, 398.5, 334.5)" opacity="1"><g transform="scale(1)"><path d="M1.5019,2.0025 T0.5501,2.7462 -1.9685,4.0849 -5.0718,4.9619 -8.1287,5.3987 -11.1722,5.3764 -15.5255,4.7219 -19.9272,3.8575 -21.4985,3.4706 A2.5204,2.5204 0 0 1 -20.5015,-1.4706 T-17.643,-1.0267 -13.3244,-0.4861 -9.6284,-0.2557 -5.3875,-0.3871 -2.4421,-1.3272 -1.5019,-2.0025 A2.5031,2.5031 0 0 1 1.5019,2.0025 Z" stroke-linecap="round" fill="#4dabf7"/></g></g><g transform="matrix(1, 0, 0, 1, 439.5, 318.5)" opacity="1"><g transform="scale(1)"><path d="M-2.0193,1.2116 T-2.7074,0.047 -5.3296,-2.2451 -8.839,-3.3715 -11.3691,-1.8584 -12.4989,2.3224 -11.4516,7.3028 -8.5592,10.6305 -5.2258,10.8531 -2.6495,8.6613 -0.4542,5.0662 1.679,0.4431 3.2467,-4.8913 4.355,-10.4602 4.7358,-15.589 4.278,-20.1819 3.3578,-24.472 2.4278,-28.1825 1.1241,-31.7445 0.277,-33.7613 A2.1879,2.1879 0 0 1 4.34,-35.3864 T5.2922,-33.2145 6.7821,-29.3433 7.8356,-25.4479 8.884,-20.6909 9.4691,-15.2967 9.1363,-9.5524 7.9929,-3.4647 6.1855,2.5493 3.7095,7.7922 0.7488,12.1478 -2.8066,15.2055 -6.7053,16.2277 -10.1873,15.4037 -12.9392,13.5446 -15.2268,10.747 -16.9242,7.1016 -17.4867,3.0534 -16.9657,-0.9283 -15.5059,-4.2441 -13.1502,-6.771 -9.8059,-8.1749 -6.4566,-8.0101 -3.5788,-6.7431 -0.7854,-4.7721 1.2884,-2.412 2.0193,-1.2116 A2.3549,2.3549 0 0 1 -2.0193,1.2116 ZM4.2589,-33.5823 T3.9474,-32.9983 3.699,-29.8539 4.0838,-25.205 4.8255,-20.5757 5.9404,-15.6286 7.2836,-10.4233 8.7393,-4.8252 10.2182,0.4375 11.4477,4.591 13.443,8.5139 14.8801,10.7471 A2.2594,2.2594 0 0 1 11.1199,13.2529 T10.2181,11.9739 8.3628,9.2664 6.8076,5.9908 5.5736,1.6911 4.1729,-3.7011 2.8574,-9.3458 1.6345,-14.7036 0.5728,-19.9276 -0.1231,-24.7252 -0.5948,-29.0188 -0.5067,-32.6923 0.0507,-34.932 0.3581,-35.5654 A2.1879,2.1879 0 0 1 4.2589,-33.5823 Z" stroke-linecap="round" fill="#f2f2f2"/></g></g><g transform="matrix(1, 0, 0, 1, 474.5, 306.5)" opacity="1"><g transform="scale(1)"><path d="M1.6284,0.8142 T0.9441,2.2459 -0.5914,5.2005 -2.3662,8.2324 -4.244,11.2495 -7.1332,14.588 -10.0412,17.0006 -11.014,17.5828 A1.8648,1.8648 0 0 1 -12.986,14.4172 T-12.0345,13.8007 -9.8089,11.8972 -7.5739,9.1421 -5.698,6.2279 -3.9404,3.3902 -2.3631,0.5921 -1.6284,-0.8142 A1.8206,1.8206 0 0 1 1.6284,0.8142 Z" stroke-linecap="round" fill="#f2f2f2"/></g></g><g transform="matrix(1, 0, 0, 1, 461.5, 304.5)" opacity="1"><g transform="scale(1)"><path d="M2.0681,-0.7755 T2.7457,1.1278 4.2241,4.6392 6.1684,7.9764 8.4249,11.3511 10.7769,14.4693 13.3147,17.1133 16.045,19.7166 19.0638,22.7272 20.651,24.3057 A2.3657,2.3657 0 0 1 17.349,27.6943 T15.73,26.1486 12.6649,23.2312 9.7497,20.4024 6.96,17.2264 4.5883,13.7888 2.3689,10.1087 0.3077,6.342 -1.3267,2.6562 -2.0681,0.7755 A2.2088,2.2088 0 0 1 2.0681,-0.7755 Z" stroke-linecap="round" fill="#f2f2f2"/></g></g><g transform="matrix(1, 0, 0, 1, 75.5, 436.5)" opacity="1"><g transform="scale(1)"><path d="M0,-2.5083 T0.946,-2.5391 3.4771,-2.6297 6.4844,-3.0769 9.516,-3.9694 11.1254,-4.4745 A2.6246,2.6246 0 0 1 12.8746,0.4745 T10.8691,1.2472 6.9835,2.3547 3.4978,2.6297 0.946,2.5391 0,2.5083 A2.5083,2.5083 0 0 1 0,-2.5083 Z" stroke-linecap="round" fill="#f2f2f2"/></g></g><g transform="matrix(1, 0, 0, 1, 75.5, 448.5)" opacity="1"><g transform="scale(1)"><path d="M0.9858,-1.9716 T1.9524,-1.5431 5.0174,-0.8398 9.1022,-0.4493 11.0886,-0.3335 A2.3352,2.3352 0 0 1 10.9114,4.3335 T9.8397,4.3133 6.743,4.1966 2.7915,3.5534 -0.0604,2.4891 -0.9858,1.9716 A2.2043,2.2043 0 0 1 0.9858,-1.9716 Z" stroke-linecap="round" fill="#f2f2f2"/></g></g><g transform="matrix(1, 0, 0, 1, 122.5, 446.5)" opacity="1"><g transform="scale(1)"><path d="M1.37,-2.2833 T2.5311,-1.5409 5.2536,0.0338 8.298,0.9106 11.4076,-0.0612 12.1629,-2.2156 9.662,-2.9483 6.6984,-1.4123 4.6474,1.6802 3.9807,6.0924 4.946,10.7834 7.6462,14.4872 11.1486,16.019 14.3967,15.1192 18.2703,12.8926 20.613,11.6345 A2.7421,2.7421 0 0 1 23.387,16.3655 T21.2738,17.7202 17.8015,19.9346 14.7404,21.365 11.18,21.8369 7.6636,21.0386 4.8493,19.3258 2.4961,16.8613 0.5983,13.831 -0.3839,10.6298 -0.7652,7.3063 -0.6422,4.0627 0.033,0.952 2.2563,-2.9857 6.4872,-6.5549 11.6163,-7.9005 16.4219,-6.8293 18.9105,-4.2209 18.5907,-0.8122 16.4308,2.6949 13.1564,5.0676 9.2967,6.0988 5.6677,5.7246 2.5749,4.4191 -0.1661,2.9599 -1.37,2.2833 A2.6628,2.6628 0 0 1 1.37,-2.2833 Z" stroke-linecap="round" fill="#f2f2f2"/></g></g><g transform="matrix(1, 0, 0, 1, 154.5, 410.5)" opacity="1"><g transform="scale(1)"><path d="M1.9301,0.386 T1.7084,1.5852 0.8072,4.1622 -0.7192,6.7286 -2.4199,9.1652 -4.8483,12.6825 -8.5571,16.7248 -10.6913,18.4979 A1.989,1.989 0 0 1 -13.3087,15.5021 T-11.5615,13.8839 -8.291,10.1114 -5.845,6.6786 -3.6774,3.6729 -2.1814,0.7798 -1.9301,-0.386 A1.9684,1.9684 0 0 1 1.9301,0.386 Z" stroke-linecap="round" fill="#f2f2f2"/></g></g><g transform="matrix(1, 0, 0, 1, 143.5, 412.5)" opacity="1"><g transform="scale(1)"><path d="M1.4351,-1.4351 T2.6148,-0.2498 5.463,2.8147 8.6858,6.6506 11.4083,9.7747 13.4466,11.6539 14.3168,12.3659 A2.0986,2.0986 0 0 1 11.6832,15.6341 T10.8025,14.9352 8.3316,12.6318 5.2684,9.1032 2.3654,5.4868 -0.2498,2.6148 -1.4351,1.4351 A2.0296,2.0296 0 0 1 1.4351,-1.4351 Z" stroke-linecap="round" fill="#f2f2f2"/></g></g><g transform="matrix(1, 0, 0, 1, 167.5, 447.5)" opacity="1"><g transform="scale(1)"><path d="M1.0827,-1.2696 T1.9251,-0.542 2.7675,0.1856 A1.6546,1.6546 0 0 1 0.6201,2.7035 T-0.2313,1.9865 -1.0827,1.2696 A1.6686,1.6686 0 0 1 1.0827,-1.2696 ZM2.7279,2.7362 T2.5624,2.8658 2.3969,2.9954 A1.6501,1.6501 0 0 1 0.3344,0.4192 T0.4971,0.286 0.6597,0.1529 A1.6546,1.6546 0 0 1 2.7279,2.7362 ZM-0.1001,2.465 T-0.1849,2.2969 -0.2696,2.1287 A1.6461,1.6461 0 0 1 2.655,0.6168 T2.7432,0.7831 2.8314,0.9495 A1.6501,1.6501 0 0 1 -0.1001,2.465 ZM2.8205,1.6174 T2.759,2.0816 2.6975,2.5459 A1.6624,1.6624 0 0 1 -0.5905,2.0517 T-0.5128,1.5899 -0.4351,1.1281 A1.6461,1.6461 0 0 1 2.8205,1.6174 ZM1.5907,3.872 T1.1051,4.0381 0.0785,4.389 -0.4625,4.574 A1.6632,1.6632 0 0 1 -1.5375,1.426 T-0.9963,1.2414 0.0306,0.8912 0.5163,0.7255 A1.6624,1.6624 0 0 1 1.5907,3.872 Z" stroke-linecap="round" fill="#f2f2f2"/></g></g><g transform="matrix(1, 0, 0, 1, 202.5, 437.5)" opacity="1"><g transform="scale(1)"><path d="M2.2121,0.3687 T1.9774,1.8128 0.8014,5.0794 -1.3577,8.5296 -3.6181,11.6255 -6.0577,14.5089 -8.6297,17.0613 -11.4714,18.9583 -14.6283,20.3264 -16.1186,20.9348 A2.1261,2.1261 0 0 1 -17.8814,17.0652 T-15.4837,15.9029 -11.968,13.6067 -9.6913,11.3735 -7.4179,8.7661 -4.4962,4.8385 -2.4504,1.0252 -2.2121,-0.3687 A2.2426,2.2426 0 0 1 2.2121,0.3687 Z" stroke-linecap="round" fill="#f2f2f2"/></g></g><g transform="matrix(1, 0, 0, 1, 186.5, 442.5)" opacity="1"><g transform="scale(1)"><path d="M1.5278,-1.5278 T3.391,0.393 6.9763,4.0045 10.2693,6.9916 13.1087,9.8688 15.4059,12.6073 17.9406,15.1995 20.4288,17.4252 21.4109,18.2164 A2.2742,2.2742 0 0 1 18.5891,21.7836 T17.5931,21.0101 14.7538,18.4993 11.8503,15.4636 9.8898,12.8805 7.3428,10.1475 4.0049,6.9767 0.393,3.391 -1.5278,1.5278 A2.1606,2.1606 0 0 1 1.5278,-1.5278 Z" stroke-linecap="round" fill="#f2f2f2"/></g></g><g transform="matrix(1, 0, 0, 1, 230.5, 441.5)" opacity="1"><g transform="scale(1)"><path d="M1.3679,-1.8239 T2.3279,-1.1381 5.5853,-0.0662 9.8326,-0.1348 13.0595,-0.9316 14.3365,-1.2739 A2.3687,2.3687 0 0 1 15.6635,3.2739 T13.1029,4.0702 7.8341,4.9125 2.8109,4.1243 -0.4359,2.5571 -1.3679,1.8239 A2.2799,2.2799 0 0 1 1.3679,-1.8239 Z" stroke-linecap="round" fill="#f2f2f2"/></g></g><g transform="matrix(1, 0, 0, 1, 282.5, 435.5)" opacity="1"><g transform="scale(1)"><path d="M0.4929,-1.7251 T2.1502,-1.2589 5.6064,-0.4619 8.8441,-1.3833 10.9998,-4.3737 10.3249,-5.4439 7.1386,-3.2182 3.7892,0.62 1.933,4.3263 1.4659,7.4586 1.4564,10.8946 2.1435,14.1014 3.6024,16.9404 6.6033,19.8338 10.6287,21.2395 13.8692,20.2854 17.0561,18.3658 18.955,17.274 A2.0177,2.0177 0 0 1 21.045,20.726 T19.1974,21.9026 15.2752,24.2872 11.4965,25.6463 8.056,25.4137 5.0747,24.1136 2.4352,21.8565 -0.0192,18.6544 -1.627,14.8468 -2.2713,10.8269 -2.1146,6.8326 -1.3689,3.0461 -0.025,-0.2833 2.8816,-3.9221 7.0705,-7.64 10.9895,-9.312 14.1774,-8.0634 15.2344,-5.0438 14.1338,-1.8509 11.9951,1.0485 8.774,2.9709 4.8753,3.1151 1.1608,2.2049 -0.4929,1.7251 A1.7941,1.7941 0 0 1 0.4929,-1.7251 Z" stroke-linecap="round" fill="#f2f2f2"/></g></g><g transform="matrix(1, 0, 0, 1, 319.5, 399.5)" opacity="1"><g transform="scale(1)"><path d="M1.4909,0.8519 T0.5656,2.5193 -1.298,5.9944 -3.2197,9.5165 -5.2408,12.6637 -7.5864,15.5532 -10.2917,18.5728 -11.6893,20.1359 A1.7344,1.7344 0 0 1 -14.3107,17.8641 T-12.9622,16.2585 -10.4568,13.2656 -8.3535,10.6073 -6.4205,7.715 -4.4291,4.2645 -2.4576,0.7917 -1.4909,-0.8519 A1.7171,1.7171 0 0 1 1.4909,0.8519 Z" stroke-linecap="round" fill="#f2f2f2"/></g></g><g transform="matrix(1, 0, 0, 1, 304.5, 400.5)" opacity="1"><g transform="scale(1)"><path d="M1.057,-1.3213 T3.4228,0.5698 8.029,4.4141 12.1819,8.0799 15.5875,11.1571 18.1863,13.7922 19.9359,16.3776 21.1555,18.9327 21.7315,20.1729 A1.9189,1.9189 0 0 1 18.2685,21.8271 T17.2516,19.6999 15.3331,16.4358 13.013,13.8904 9.7772,10.7274 5.8157,7.04 1.3072,3.2142 -1.057,1.3213 A1.6921,1.6921 0 0 1 1.057,-1.3213 Z" stroke-linecap="round" fill="#f2f2f2"/></g></g><g transform="matrix(1, 0, 0, 1, 356.5, 422.5)" opacity="1"><g transform="scale(1)"><path d="M1.7764,-0.222 T2.0101,1.6704 2.3842,5.3142 2.6016,8.9443 2.727,12.5176 3.0328,15.9354 3.4422,19.1381 3.6389,22.1292 3.7364,25.2773 3.7887,26.9138 A1.7908,1.7908 0 0 1 0.2113,27.0862 T0.106,25.4523 -0.2125,20.9966 -0.6776,16.2333 -0.9504,12.6222 -1.0257,9.1408 -1.1889,5.667 -1.5371,2.1136 -1.7764,0.222 A1.7902,1.7902 0 0 1 1.7764,-0.222 Z" stroke-linecap="round" fill="#f2f2f2"/></g></g><g transform="matrix(1, 0, 0, 1, 368.5, 434.5)" opacity="1"><g transform="scale(1)"><path d="M-0.6695,2.0084 T-2.0866,1.5357 -6.2726,0.9915 -10.9282,1.4318 -14.861,2.4615 -18.6594,3.483 -21.93,4.6401 -25.3013,6.0894 -27.1544,6.8854 A2.0663,2.0663 0 0 1 -28.8456,3.1146 T-27.0188,2.2601 -23.4073,0.5777 -19.8004,-0.7623 -15.9338,-1.7864 -11.6046,-2.8435 -7.3624,-3.4708 -3.7887,-3.2541 -0.7514,-2.4817 0.6695,-2.0084 A2.117,2.117 0 0 1 -0.6695,2.0084 Z" stroke-linecap="round" fill="#f2f2f2"/></g></g><g transform="matrix(1, 0, 0, 1, 416.5, 413.5)" opacity="1"><g transform="scale(1)"><path d="M-2.7201,-0.3129 T-2.5818,-1.3948 -2.4435,-2.4766 A2.7105,2.7105 0 0 1 2.942,-1.857 T2.8311,-0.7721 2.7201,0.3129 A2.7381,2.7381 0 0 1 -2.7201,-0.3129 ZM-0.2765,0.4922 T-1.5945,0.2002 -4.2416,1.0124 -6.4294,3.3219 -8.505,6.398 -10.7481,10.5416 -12.7773,15.6435 -14.2622,21.0025 -14.9937,26.0186 -15.1188,30.5914 -13.79,34.8026 -9.9174,37.4469 -5.0433,37.4422 0.1832,35.5892 5.8406,32.9372 11.536,30.0308 14.5949,28.448 A2.9133,2.9133 0 0 1 17.4051,33.552 T14.4319,35.2904 8.6813,38.6862 2.2415,41.9788 -4.7163,44.2258 -10.6897,44.3492 -15.5756,42.4166 -19.0061,39.0874 -20.7908,35.0742 -21.3841,30.3763 -21.063,25.0473 -20.0503,19.3521 -18.2255,13.3616 -15.7696,7.6976 -13.0923,3.0805 -10.3188,-0.5941 -7.3958,-3.3505 -4.2683,-4.9427 -0.9506,-5.1356 0.775,-4.8258 A2.7105,2.7105 0 0 1 -0.2765,0.4922 Z" stroke-linecap="round" fill="#f2f2f2"/></g></g><g transform="matrix(1, 0, 0, 1, 869, 538.5)" opacity="1"><g transform="scale(1)"><path d="M0.0701,1.3311 T-8.9178,1.7871 -25.2354,2.7159 -39.2662,3.672 -52.3594,4.4094 -65.1734,5.0316 -78.3138,5.5937 -92.0999,6.125 -106.4598,6.6402 -121.3791,6.9115 -136.8093,7.0537 -152.7452,7.1281 -169.1843,7.167 -186.1252,7.1873 -203.567,7.2024 -221.2728,7.2202 -239.1178,7.2366 -257.5091,7.2524 -276.1883,7.2681 -295.0192,7.2793 -314.655,7.0552 -334.4791,6.4708 -354.1346,5.9292 -374.4399,5.1767 -394.8545,4.0815 -415.0585,3.0399 -435.6535,1.7885 -456.205,0.4274 -476.4814,-0.7496 -496.8465,-1.5925 -517.0396,-2.2683 -536.6689,-2.8531 -556.237,-3.3899 -575.5366,-3.9059 -594.2037,-4.175 -612.8103,-4.552 -630.8942,-4.9858 -648.2098,-5.2131 -665.3963,-5.5692 -682.0224,-5.9929 -698.1173,-6.4524 -713.6943,-6.9397 -728.2668,-7.2066 -742.1206,-7.592 -755.3344,-8.039 -767.5061,-8.5145 -778.8867,-9.0038 -789.8202,-9.2622 -799.8397,-9.3998 -808.9035,-9.4777 -817.4237,-9.2984 -826.2515,-8.8494 -830.9259,-8.6098 A1.3922,1.3922 0 0 1 -831.0741,-11.3902 T-826.4008,-11.6491 -817.491,-12.1459 -808.8815,-12.3654 -799.8016,-12.3026 -789.7534,-12.1731 -778.7635,-11.9246 -767.3917,-11.452 -755.2383,-11 -742.0402,-10.5844 -728.2148,-10.2306 -713.601,-9.9923 -698.0293,-9.5212 -681.9446,-9.0594 -665.3323,-8.6324 -648.1691,-8.2719 -630.8209,-8.0371 -612.7477,-7.594 -594.1587,-7.2045 -575.4547,-6.9166 -556.1525,-6.3758 -536.5788,-5.8047 -516.939,-5.185 -496.7238,-4.4726 -476.3143,-3.5787 -456.0185,-2.3578 -435.484,-0.9639 -414.9159,0.3199 -394.7081,1.3962 -374.3411,2.5248 -354.0607,3.2994 -334.4001,3.8607 -314.6243,4.4712 -295.0193,4.7197 -276.1884,4.73 -257.5093,4.744 -239.1182,4.7565 -221.2736,4.7667 -203.5685,4.7728 -186.1282,4.7657 -169.1902,4.7437 -152.7568,4.7025 -136.8321,4.6248 -121.4242,4.4785 -106.5484,4.2023 -92.1945,3.6786 -78.4213,3.1361 -65.2955,2.5582 -52.502,1.9148 -39.4423,1.1481 -25.3879,0.1476 -9.0562,-0.8411 -0.0701,-1.3311 A1.333,1.333 0 0 1 0.0701,1.3311 Z" stroke-linecap="round" fill="#f2f2f2"/></g></g></svg>