<svg xmlns="http://www.w3.org/2000/svg" direction="ltr" width="942.8207472557851" height="390.8634051856334" viewBox="614.4268124965558 9609.224301160732 942.8207472557851 390.8634051856334" stroke-linecap="round" stroke-linejoin="round" style="background-color: transparent;"><defs/><g transform="matrix(1, 0, 0, 1, 774.5699, 9641.2243)" opacity="1"><g transform="scale(1)"><path d="M2.1405,0 T2.1257,1.516 1.8958,5.403 1.5186,9.8665 1.337,14.0187 1.3179,18.1866 1.3198,22.5036 1.3199,27.2764 1.3134,32.2289 1.3008,36.6748 1.0623,41.2482 0.6582,46.3576 0.4649,51.2475 0.0987,55.6462 -0.2901,59.8501 -0.2071,64.0908 0.1659,68.8149 0.4505,73.5357 0.5045,77.9828 0.5334,82.4855 0.2279,87.4456 -0.1184,92.4774 -0.1338,96.9635 -0.1027,101.9414 -0.0724,106.7721 -0.0408,111.3944 -0.0007,116.464 0.0358,121.1185 0.0678,125.3685 0.1011,129.6976 0.1412,134.677 0.1831,139.6133 0.22,143.8519 0.2529,148.0803 0.2846,152.4123 0.3156,156.9064 0.3404,161.2718 0.3655,166.026 0.3909,170.9782 0.4144,175.4498 0.4403,179.7099 0.4651,183.9045 0.4865,188.2787 0.5089,192.5795 0.537,196.78 0.5595,200.9483 0.2131,205.1861 -0.1539,209.5286 -0.1629,213.9045 -0.1526,218.2086 -0.141,222.5991 -0.131,226.9488 -0.123,231.1565 -0.1163,235.4316 0.1373,240.0768 0.5181,244.7789 0.6593,249.3104 0.9445,253.7193 1.3229,258.021 1.4357,262.6065 1.4398,266.9888 1.4278,271.101 1.1901,276.0806 0.7351,280.2902 0.5103,281.5835 A2.9485,2.9485 0 0 1 -5.3103,280.6365 T-4.9575,278.4117 -4.6151,273.9824 -4.6346,269.6643 -4.6532,265.4713 -4.7188,260.666 -5.1234,255.5331 -5.4851,250.9554 -5.5985,246.138 -5.9928,240.5191 -6.2837,235.4316 -6.277,231.1565 -6.269,226.9487 -6.2588,222.5987 -6.2459,218.2059 -6.2267,213.8822 -6.1754,209.3309 -5.7514,204.9384 -5.3595,200.8784 -5.337,196.78 -5.3089,192.5795 -5.2865,188.2787 -5.2651,183.9045 -5.2403,179.7099 -5.2144,175.4498 -5.1909,170.9782 -5.1655,166.026 -5.1404,161.2718 -5.1156,156.9064 -5.0846,152.4123 -5.0529,148.0803 -5.02,143.8519 -4.9831,139.6133 -4.9412,134.677 -4.9011,129.6976 -4.8678,125.3684 -4.8358,121.1185 -4.7993,116.464 -4.7592,111.3944 -4.7274,106.7718 -4.6946,101.9378 -4.6466,96.9327 -4.5474,92.3225 -4.111,87.3057 -3.7324,81.8502 -3.713,76.8398 -3.7452,72.5048 -4.1149,68.145 -4.4398,63.9055 -4.3749,59.68 -3.9776,54.6954 -3.6152,49.675 -3.3902,45.0678 -3.0407,40.7239 -2.9008,36.6748 -2.9133,32.2289 -2.9197,27.2761 -2.9183,22.5013 -2.9076,18.1722 -2.8663,13.932 -2.6353,9.4021 -2.2742,5.0131 -2.1257,1.516 -2.1405,0 A2.1405,2.1405 0 0 1 2.1405,0 Z" stroke-linecap="round" fill="#9398b0"/></g></g><g transform="matrix(1, 0, 0, 1, 1251.3407, 9642.5589)" opacity="1"><g transform="scale(1)"><path d="M2.1405,0 T2.1257,1.516 1.8958,5.403 1.5186,9.8665 1.337,14.0187 1.3179,18.1866 1.3198,22.5036 1.3199,27.2764 1.3134,32.2289 1.3008,36.6748 1.0623,41.2482 0.6582,46.3576 0.4649,51.2475 0.0987,55.6462 -0.2901,59.8501 -0.2071,64.0908 0.1659,68.8149 0.4505,73.5357 0.5045,77.9828 0.5334,82.4855 0.2279,87.4456 -0.1184,92.4774 -0.1338,96.9635 -0.1027,101.9414 -0.0724,106.7721 -0.0408,111.3944 -0.0007,116.464 0.0358,121.1185 0.0678,125.3685 0.1011,129.6976 0.1412,134.677 0.1831,139.6133 0.22,143.8519 0.2529,148.0803 0.2846,152.4123 0.3156,156.9064 0.3404,161.2718 0.3655,166.026 0.3909,170.9782 0.4144,175.4498 0.4403,179.7099 0.4651,183.9045 0.4865,188.2787 0.5089,192.5795 0.537,196.78 0.5595,200.9483 0.2131,205.1861 -0.1539,209.5286 -0.1629,213.9045 -0.1526,218.2086 -0.141,222.5991 -0.131,226.9488 -0.123,231.1565 -0.1163,235.4316 0.1373,240.0768 0.5181,244.7789 0.6593,249.3104 0.9445,253.7193 1.3229,258.021 1.4357,262.6065 1.4398,266.9888 1.4278,271.101 1.1901,276.0806 0.7351,280.2902 0.5103,281.5835 A2.9485,2.9485 0 0 1 -5.3103,280.6365 T-4.9575,278.4117 -4.6151,273.9824 -4.6346,269.6643 -4.6532,265.4713 -4.7188,260.666 -5.1234,255.5331 -5.4851,250.9554 -5.5985,246.138 -5.9928,240.5191 -6.2837,235.4316 -6.277,231.1565 -6.269,226.9487 -6.2588,222.5987 -6.2459,218.2059 -6.2267,213.8822 -6.1754,209.3309 -5.7514,204.9384 -5.3595,200.8784 -5.337,196.78 -5.3089,192.5795 -5.2865,188.2787 -5.2651,183.9045 -5.2403,179.7099 -5.2144,175.4498 -5.1909,170.9782 -5.1655,166.026 -5.1404,161.2718 -5.1156,156.9064 -5.0846,152.4123 -5.0529,148.0803 -5.02,143.8519 -4.9831,139.6133 -4.9412,134.677 -4.9011,129.6976 -4.8678,125.3684 -4.8358,121.1185 -4.7993,116.464 -4.7592,111.3944 -4.7274,106.7718 -4.6946,101.9378 -4.6466,96.9327 -4.5474,92.3225 -4.111,87.3057 -3.7324,81.8502 -3.713,76.8398 -3.7452,72.5048 -4.1149,68.145 -4.4398,63.9055 -4.3749,59.68 -3.9776,54.6954 -3.6152,49.675 -3.3902,45.0678 -3.0407,40.7239 -2.9008,36.6748 -2.9133,32.2289 -2.9197,27.2761 -2.9183,22.5013 -2.9076,18.1722 -2.8663,13.932 -2.6353,9.4021 -2.2742,5.0131 -2.1257,1.516 -2.1405,0 A2.1405,2.1405 0 0 1 2.1405,0 Z" stroke-linecap="round" fill="#9398b0"/></g></g><g transform="matrix(1, 0, 0, 1, 646.4268, 9799.0005)" opacity="1"><g transform="scale(1)"><path d="M0.4247,-2.5537 T1.559,-2.345 4.8824,-1.9319 9.0944,-1.7057 13.9057,-1.9512 19.0699,-2.6815 23.5555,-3.3718 28.1115,-3.8385 32.7271,-3.7983 37.029,-3.461 41.3046,-3.0967 45.7728,-2.4138 50.2163,-1.972 54.8036,-1.5597 59.5752,-1.1762 64.2697,-1.1388 68.8312,-1.4106 73.3076,-1.7922 78.1642,-2.284 83.063,-2.6937 87.6674,-2.7242 92.5979,-2.725 97.3219,-2.7189 101.6705,-2.7121 106.3562,-2.7059 110.8226,-2.7016 114.9881,-2.3598 119.098,-1.9742 123.1768,-2.2543 127.6637,-2.9719 132.0693,-3.7575 136.2183,-4.5551 140.5385,-5.295 145.0982,-5.7423 150.1723,-6.2029 155.0243,-6.6034 159.2491,-6.6592 164.0506,-6.4465 169.6562,-6.0658 174.9522,-5.5448 180.0608,-5.14 184.9165,-4.7463 189.3979,-4.0587 193.8932,-3.6358 198.7444,-3.211 204.0851,-2.832 209.6539,-2.4643 215.3551,-2.1008 220.3356,-1.7772 225.216,-1.4091 230.9456,-1.3287 236.0574,-1.0368 240.7187,-0.6713 246.014,-0.5904 251.5178,-0.5905 257.0555,-0.5974 262.363,-0.6024 267.4183,-0.8817 272.6466,-1.5367 277.7427,-2.1731 282.8838,-2.6673 288.0699,-2.9332 292.9341,-2.9697 297.5072,-2.9793 301.9368,-2.9879 306.6869,-2.9959 311.5836,-2.9995 316.5912,-2.9997 321.6676,-3.003 326.8545,-3.0084 332.0592,-3.0129 337.3213,-3.0159 342.1779,-2.7207 346.9335,-2.3393 352.6824,-2.0222 358.8329,-1.6438 364.0506,-1.4786 368.4378,-1.4563 372.7365,-1.4533 376.9271,-1.4546 381.2418,-1.1599 386.3692,-0.7794 391.9423,-0.671 397.105,-0.5901 400.8413,-0.4918 402.0508,-0.4512 A2.8512,2.8512 0 0 1 402.0492,5.2512 T399.1283,5.3392 393.6636,5.4348 389.081,5.4201 384.918,5.3089 379.9367,4.9367 374.8531,4.6506 370.493,4.6419 366.2516,4.6214 361.7503,4.5583 356.3255,4.1614 350.4626,3.7857 345.6254,3.6693 340.992,3.2985 335.6443,3.0153 330.3396,3.0115 325.1397,3.0068 319.9691,3.0008 315.0082,2.9989 310.1777,2.999 305.1989,2.9936 300.4988,2.9855 296.0515,2.98 291.3577,2.9851 286.6462,3.0426 281.8253,3.4707 276.8687,4.0133 271.7292,4.5743 266.9608,5.1868 262.3628,5.4023 257.0543,5.3966 251.5093,5.385 245.9547,5.3529 240.3902,5.2151 234.7128,4.8035 228.9344,4.4669 223.9622,4.33 219.0548,3.9192 214.2369,3.5501 209.473,3.1267 203.9002,2.6919 198.5238,2.2537 193.4522,1.7612 188.786,1.3007 184.6408,0.6185 180.5693,0.2428 176.0722,-0.0089 171.2174,-0.4418 166.6483,-0.9933 162.3179,-1.3299 158.1229,-1.31 154.1203,-1.2111 149.8885,-0.8027 145.4965,-0.3817 141.089,0.0626 136.7931,0.8082 132.7809,1.6033 128.6893,2.3855 124.5651,3.1322 120.2362,3.4708 115.3659,3.0727 110.7819,2.7016 106.3562,2.7059 101.6705,2.7121 97.3221,2.719 92.6007,2.7265 87.6835,2.7348 83.1793,2.766 78.3791,3.1641 73.828,3.6314 69.7625,4.0323 65.4834,4.3276 61.0127,4.2806 56.1241,4.0127 51.3205,3.5522 47.0495,2.9426 42.827,2.1813 38.683,1.7756 34.6109,1.3534 30.3816,1.047 25.7282,1.4507 20.8378,2.1648 16.3694,2.9221 12.3143,3.2793 8.1219,3.2595 3.8994,3.0656 0.7161,2.7234 -0.4247,2.5537 A2.5887,2.5887 0 0 1 0.4247,-2.5537 Z" stroke-linecap="round" fill="#9398b0"/></g></g><g transform="matrix(1, 0, 0, 1, 1123.1976, 9800.3351)" opacity="1"><g transform="scale(1)"><path d="M0.4247,-2.5537 T1.559,-2.345 4.8824,-1.9319 9.0944,-1.7057 13.9057,-1.9512 19.0699,-2.6815 23.5555,-3.3718 28.1115,-3.8385 32.7271,-3.7983 37.029,-3.461 41.3046,-3.0967 45.7728,-2.4138 50.2163,-1.972 54.8036,-1.5597 59.5752,-1.1762 64.2697,-1.1388 68.8312,-1.4106 73.3076,-1.7922 78.1642,-2.284 83.063,-2.6937 87.6674,-2.7242 92.5979,-2.725 97.3219,-2.7189 101.6705,-2.7121 106.3562,-2.7059 110.8226,-2.7016 114.9881,-2.3598 119.098,-1.9742 123.1768,-2.2543 127.6637,-2.9719 132.0693,-3.7575 136.2183,-4.5551 140.5385,-5.295 145.0982,-5.7423 150.1723,-6.2029 155.0243,-6.6034 159.2491,-6.6592 164.0506,-6.4465 169.6562,-6.0658 174.9522,-5.5448 180.0608,-5.14 184.9165,-4.7463 189.3979,-4.0587 193.8932,-3.6358 198.7444,-3.211 204.0851,-2.832 209.6539,-2.4643 215.3551,-2.1008 220.3356,-1.7772 225.216,-1.4091 230.9456,-1.3287 236.0574,-1.0368 240.7187,-0.6713 246.014,-0.5904 251.5178,-0.5905 257.0555,-0.5974 262.363,-0.6024 267.4183,-0.8817 272.6466,-1.5367 277.7427,-2.1731 282.8838,-2.6673 288.0699,-2.9332 292.9341,-2.9697 297.5072,-2.9793 301.9368,-2.9879 306.6869,-2.9959 311.5836,-2.9995 316.5912,-2.9997 321.6676,-3.003 326.8545,-3.0084 332.0592,-3.0129 337.3213,-3.0159 342.1779,-2.7207 346.9335,-2.3393 352.6824,-2.0222 358.8329,-1.6438 364.0506,-1.4786 368.4378,-1.4563 372.7365,-1.4533 376.9271,-1.4546 381.2418,-1.1599 386.3692,-0.7794 391.9423,-0.671 397.105,-0.5901 400.8413,-0.4918 402.0508,-0.4512 A2.8512,2.8512 0 0 1 402.0492,5.2512 T399.1283,5.3392 393.6636,5.4348 389.081,5.4201 384.918,5.3089 379.9367,4.9367 374.8531,4.6506 370.493,4.6419 366.2516,4.6214 361.7503,4.5583 356.3255,4.1614 350.4626,3.7857 345.6254,3.6693 340.992,3.2985 335.6443,3.0153 330.3396,3.0115 325.1397,3.0068 319.9691,3.0008 315.0082,2.9989 310.1777,2.999 305.1989,2.9936 300.4988,2.9855 296.0515,2.98 291.3577,2.9851 286.6462,3.0426 281.8253,3.4707 276.8687,4.0133 271.7292,4.5743 266.9608,5.1868 262.3628,5.4023 257.0543,5.3966 251.5093,5.385 245.9547,5.3529 240.3902,5.2151 234.7128,4.8035 228.9344,4.4669 223.9622,4.33 219.0548,3.9192 214.2369,3.5501 209.473,3.1267 203.9002,2.6919 198.5238,2.2537 193.4522,1.7612 188.786,1.3007 184.6408,0.6185 180.5693,0.2428 176.0722,-0.0089 171.2174,-0.4418 166.6483,-0.9933 162.3179,-1.3299 158.1229,-1.31 154.1203,-1.2111 149.8885,-0.8027 145.4965,-0.3817 141.089,0.0626 136.7931,0.8082 132.7809,1.6033 128.6893,2.3855 124.5651,3.1322 120.2362,3.4708 115.3659,3.0727 110.7819,2.7016 106.3562,2.7059 101.6705,2.7121 97.3221,2.719 92.6007,2.7265 87.6835,2.7348 83.1793,2.766 78.3791,3.1641 73.828,3.6314 69.7625,4.0323 65.4834,4.3276 61.0127,4.2806 56.1241,4.0127 51.3205,3.5522 47.0495,2.9426 42.827,2.1813 38.683,1.7756 34.6109,1.3534 30.3816,1.047 25.7282,1.4507 20.8378,2.1648 16.3694,2.9221 12.3143,3.2793 8.1219,3.2595 3.8994,3.0656 0.7161,2.7234 -0.4247,2.5537 A2.5887,2.5887 0 0 1 0.4247,-2.5537 Z" stroke-linecap="round" fill="#9398b0"/></g></g><g transform="matrix(1, 0, 0, 1, 954.7712, 9667.6538)" opacity="1"><g transform="scale(1)"><path d="M2.9608,0.9856 T2.3708,2.6833 0.786,6.8179 -1.0574,11.3486 -3.1684,15.7699 -5.6298,20.1545 -7.919,24.0943 -10.1768,27.823 -12.7022,31.8798 -15.356,35.9569 -18.0322,39.7393 -20.5597,43.2831 -22.8789,46.5264 -25.2309,49.7565 -27.5999,52.9849 -29.9764,56.2067 -32.5793,59.6763 -35.533,63.507 -38.3696,67.4494 -40.9373,71.1952 -43.7057,75.0348 -46.4129,79.0269 -49.1316,82.8658 -52.2642,86.925 -55.491,91.1127 -58.646,95.0058 -61.7883,98.8191 -65.0886,102.7157 -68.6885,106.7 -72.2309,110.6322 -75.4959,114.4795 -78.7824,118.2215 -82.4102,121.7798 -86.272,125.4289 -90.3809,129.3921 -94.6483,133.5157 -98.8682,137.4801 -103.4235,141.1582 -107.8788,144.4965 -111.9831,147.6457 -116.0508,150.7877 -120.5745,153.9987 -124.9677,156.9676 -128.9242,159.621 -133.2709,162.4247 -137.9144,165.4925 -143.1426,168.6164 -148.0142,171.4767 -152.676,174.0115 -157.3875,176.3436 -161.5656,178.7617 -166.1057,181.3709 -170.585,183.8627 -174.6556,186.2645 -178.7114,188.6369 -183.08,191.0774 -187.7805,193.5719 -192.5488,196.0052 -197.1356,198.5128 -201.5911,200.944 -206.0928,203.155 -210.9656,205.3832 -215.9191,207.5481 -220.8383,209.6135 -225.5681,211.5117 -229.8771,212.9259 -234.0646,214.2916 -238.2651,216.0628 -242.5675,217.8595 -246.7109,219.4842 -251.0473,221.1223 -255.729,222.7545 -260.5077,224.3397 -265.5964,225.8239 -269.1391,226.8829 -269.9952,227.2467 A3.4373,3.4373 0 0 1 -272.6749,220.9159 T-269.7309,219.8201 -264.783,218.1486 -260.4239,216.7624 -255.8221,215.1516 -251.5578,213.5385 -247.4686,211.8978 -243.3331,210.2672 -238.85,208.3062 -233.3677,206.2958 -228.1973,204.5899 -223.8559,202.8313 -219.0247,200.7698 -213.8629,198.4777 -209.3956,196.4319 -205.2593,194.4002 -200.797,191.9746 -196.1853,189.4778 -191.4721,187.1022 -187.0253,184.7905 -182.7318,182.4257 -178.5104,179.9789 -174.3177,177.5378 -169.875,175.1012 -165.2017,172.4482 -160.4799,169.7645 -156.0578,167.598 -151.4621,165.0817 -146.6397,162.2381 -141.9553,159.3968 -137.2619,156.2935 -132.9818,153.5385 -128.788,150.7496 -124.6661,147.9944 -120.7145,145.1752 -116.4593,141.8958 -112.145,138.5935 -107.837,135.3638 -103.7507,132.0629 -99.7669,128.2866 -95.327,123.9903 -90.9956,119.8298 -87.3783,116.4135 -84.1897,113.2822 -80.9655,109.6076 -77.4318,105.4836 -73.8828,101.5454 -70.6997,98.0226 -67.5926,94.357 -64.3339,90.4012 -61.1028,86.4338 -57.9884,82.4319 -54.3994,77.8186 -50.947,73.1195 -48.2353,69.0582 -45.6584,65.3078 -42.717,61.2584 -39.544,57.1254 -36.8398,53.6697 -34.4111,50.4854 -31.9868,47.3111 -29.0179,43.5026 -25.6119,38.927 -22.0996,34.3108 -18.8794,29.8921 -15.9541,25.3396 -13.2953,21.1325 -11.0023,17.3119 -8.6327,13.1828 -6.6346,8.9729 -4.9261,4.6596 -3.506,0.727 -2.9608,-0.9856 A3.1206,3.1206 0 0 1 2.9608,0.9856 ZM-271.7784,220.6727 T-270.8972,220.6253 -269.0734,220.4462 -268.1308,220.3144 A3.1985,3.1985 0 0 1 -266.8692,226.5856 T-267.7894,226.8286 -269.8006,227.2807 -270.8917,227.4898 A3.4373,3.4373 0 0 1 -271.7784,220.6727 Z" stroke-linecap="round" fill="#f76707"/></g></g><g transform="matrix(1, 0, 0, 1, 1431.542, 9668.9884)" opacity="1"><g transform="scale(1)"><path d="M2.9608,0.9856 T2.3708,2.6833 0.786,6.8179 -1.0574,11.3486 -3.1684,15.7699 -5.6298,20.1545 -7.919,24.0943 -10.1768,27.823 -12.7022,31.8798 -15.356,35.9569 -18.0322,39.7393 -20.5597,43.2831 -22.8789,46.5264 -25.2309,49.7565 -27.5999,52.9849 -29.9764,56.2067 -32.5793,59.6763 -35.533,63.507 -38.3696,67.4494 -40.9373,71.1952 -43.7057,75.0348 -46.4129,79.0269 -49.1316,82.8658 -52.2642,86.925 -55.491,91.1127 -58.646,95.0058 -61.7883,98.8191 -65.0886,102.7157 -68.6885,106.7 -72.2309,110.6322 -75.4959,114.4795 -78.7824,118.2215 -82.4102,121.7798 -86.272,125.4289 -90.3809,129.3921 -94.6483,133.5157 -98.8682,137.4801 -103.4235,141.1582 -107.8788,144.4965 -111.9831,147.6457 -116.0508,150.7877 -120.5745,153.9987 -124.9677,156.9676 -128.9242,159.621 -133.2709,162.4247 -137.9144,165.4925 -143.1426,168.6164 -148.0142,171.4767 -152.676,174.0115 -157.3875,176.3436 -161.5656,178.7617 -166.1057,181.3709 -170.585,183.8627 -174.6556,186.2645 -178.7114,188.6369 -183.08,191.0774 -187.7805,193.5719 -192.5488,196.0052 -197.1356,198.5128 -201.5911,200.944 -206.0928,203.155 -210.9656,205.3832 -215.9191,207.5481 -220.8383,209.6135 -225.5681,211.5117 -229.8771,212.9259 -234.0646,214.2916 -238.2651,216.0628 -242.5675,217.8595 -246.7109,219.4842 -251.0473,221.1223 -255.729,222.7545 -260.5077,224.3397 -265.5964,225.8239 -269.1391,226.8829 -269.9952,227.2467 A3.4373,3.4373 0 0 1 -272.6749,220.9159 T-269.7309,219.8201 -264.783,218.1486 -260.4239,216.7624 -255.8221,215.1516 -251.5578,213.5385 -247.4686,211.8978 -243.3331,210.2672 -238.85,208.3062 -233.3677,206.2958 -228.1973,204.5899 -223.8559,202.8313 -219.0247,200.7698 -213.8629,198.4777 -209.3956,196.4319 -205.2593,194.4002 -200.797,191.9746 -196.1853,189.4778 -191.4721,187.1022 -187.0253,184.7905 -182.7318,182.4257 -178.5104,179.9789 -174.3177,177.5378 -169.875,175.1012 -165.2017,172.4482 -160.4799,169.7645 -156.0578,167.598 -151.4621,165.0817 -146.6397,162.2381 -141.9553,159.3968 -137.2619,156.2935 -132.9818,153.5385 -128.788,150.7496 -124.6661,147.9944 -120.7145,145.1752 -116.4593,141.8958 -112.145,138.5935 -107.837,135.3638 -103.7507,132.0629 -99.7669,128.2866 -95.327,123.9903 -90.9956,119.8298 -87.3783,116.4135 -84.1897,113.2822 -80.9655,109.6076 -77.4318,105.4836 -73.8828,101.5454 -70.6997,98.0226 -67.5926,94.357 -64.3339,90.4012 -61.1028,86.4338 -57.9884,82.4319 -54.3994,77.8186 -50.947,73.1195 -48.2353,69.0582 -45.6584,65.3078 -42.717,61.2584 -39.544,57.1254 -36.8398,53.6697 -34.4111,50.4854 -31.9868,47.3111 -29.0179,43.5026 -25.6119,38.927 -22.0996,34.3108 -18.8794,29.8921 -15.9541,25.3396 -13.2953,21.1325 -11.0023,17.3119 -8.6327,13.1828 -6.6346,8.9729 -4.9261,4.6596 -3.506,0.727 -2.9608,-0.9856 A3.1206,3.1206 0 0 1 2.9608,0.9856 ZM-271.7784,220.6727 T-270.8972,220.6253 -269.0734,220.4462 -268.1308,220.3144 A3.1985,3.1985 0 0 1 -266.8692,226.5856 T-267.7894,226.8286 -269.8006,227.2807 -270.8917,227.4898 A3.4373,3.4373 0 0 1 -271.7784,220.6727 Z" stroke-linecap="round" fill="#f76707"/></g></g><g transform="matrix(1, 0, 0, 1, 692.8787, 9791.7925)" opacity="1"><g transform="scale(1)"><path d="M2.5513,0.2831 T2.3964,1.992 1.8822,7.034 1.2276,12.1812 0.9322,13.9952 A2.5598,2.5598 0 0 1 -4.1322,13.2448 T-3.8889,11.4231 -3.3219,6.3606 -2.7748,1.4184 -2.5513,-0.2831 A2.5669,2.5669 0 0 1 2.5513,0.2831 Z" stroke-linecap="round" fill="#f2f2f2"/></g></g><g transform="matrix(1, 0, 0, 1, 1169.6494, 9793.1271)" opacity="1"><g transform="scale(1)"><path d="M2.5513,0.2831 T2.3964,1.992 1.8822,7.034 1.2276,12.1812 0.9322,13.9952 A2.5598,2.5598 0 0 1 -4.1322,13.2448 T-3.8889,11.4231 -3.3219,6.3606 -2.7748,1.4184 -2.5513,-0.2831 A2.5669,2.5669 0 0 1 2.5513,0.2831 Z" stroke-linecap="round" fill="#f2f2f2"/></g></g><g transform="matrix(1, 0, 0, 1, 686.4715, 9760.5576)" opacity="1"><g transform="scale(1)"><path d="M2.0177,1.4386 T1.0756,2.7681 -1.3156,6.1805 -4.4876,10.0054 -8.7316,13.6812 -11.2526,15.6151 A2.531,2.531 0 0 1 -14.3674,11.6249 T-13.0723,10.5967 -9.2626,7.3538 -5.3328,3.1743 -2.9676,-0.1146 -2.0177,-1.4386 A2.478,2.478 0 0 1 2.0177,1.4386 Z" stroke-linecap="round" fill="#f2f2f2"/></g></g><g transform="matrix(1, 0, 0, 1, 1163.2423, 9761.8922)" opacity="1"><g transform="scale(1)"><path d="M2.0177,1.4386 T1.0756,2.7681 -1.3156,6.1805 -4.4876,10.0054 -8.7316,13.6812 -11.2526,15.6151 A2.531,2.531 0 0 1 -14.3674,11.6249 T-13.0723,10.5967 -9.2626,7.3538 -5.3328,3.1743 -2.9676,-0.1146 -2.0177,-1.4386 A2.478,2.478 0 0 1 2.0177,1.4386 Z" stroke-linecap="round" fill="#f2f2f2"/></g></g><g transform="matrix(1, 0, 0, 1, 674.4581, 9762.1594)" opacity="1"><g transform="scale(1)"><path d="M1.6148,-1.3429 T2.5905,-0.2224 4.6264,2.6602 6.9166,5.9862 9.7126,9.483 11.2786,11.416 A2.1743,2.1743 0 0 1 7.9414,14.204 T7.1476,13.2978 4.518,10.33 1.45,5.9603 -0.6985,2.4975 -1.6148,1.3429 A2.1003,2.1003 0 0 1 1.6148,-1.3429 Z" stroke-linecap="round" fill="#f2f2f2"/></g></g><g transform="matrix(1, 0, 0, 1, 1151.2289, 9763.494)" opacity="1"><g transform="scale(1)"><path d="M1.6148,-1.3429 T2.5905,-0.2224 4.6264,2.6602 6.9166,5.9862 9.7126,9.483 11.2786,11.416 A2.1743,2.1743 0 0 1 7.9414,14.204 T7.1476,13.2978 4.518,10.33 1.45,5.9603 -0.6985,2.4975 -1.6148,1.3429 A2.1003,2.1003 0 0 1 1.6148,-1.3429 Z" stroke-linecap="round" fill="#f2f2f2"/></g></g><g transform="matrix(1, 0, 0, 1, 691.2769, 9774.9737)" opacity="1"><g transform="scale(1)"><path d="M1.6555,1.1804 T0.7264,2.5184 0.7746,4.7576 1.7519,5.6587 A2.2129,2.2129 0 0 1 0.7834,9.9772 T-1.0024,9.2973 -3.9522,6.8874 -4.3488,3.304 -2.6184,0.1351 -1.6555,-1.1804 A2.0333,2.0333 0 0 1 1.6555,1.1804 ZM-0.0355,6.0295 T0.4147,5.6902 1.3947,4.8074 1.9246,4.2639 A2.2386,2.2386 0 0 1 5.0654,7.4547 T4.2819,8.2039 3.0347,9.2798 2.5708,9.6065 A2.2129,2.2129 0 0 1 -0.0355,6.0295 ZM1.5317,6.9348 T1.1093,6.1026 0.214,4.3443 -0.2589,3.4183 A2.1195,2.1195 0 0 1 3.4589,1.3817 T3.9847,2.2787 4.9844,3.9798 5.4583,4.7838 A2.2386,2.2386 0 0 1 1.5317,6.9348 Z" stroke-linecap="round" fill="#f2f2f2"/></g></g><g transform="matrix(1, 0, 0, 1, 1168.0477, 9776.3083)" opacity="1"><g transform="scale(1)"><path d="M1.6555,1.1804 T0.7264,2.5184 0.7746,4.7576 1.7519,5.6587 A2.2129,2.2129 0 0 1 0.7834,9.9772 T-1.0024,9.2973 -3.9522,6.8874 -4.3488,3.304 -2.6184,0.1351 -1.6555,-1.1804 A2.0333,2.0333 0 0 1 1.6555,1.1804 ZM-0.0355,6.0295 T0.4147,5.6902 1.3947,4.8074 1.9246,4.2639 A2.2386,2.2386 0 0 1 5.0654,7.4547 T4.2819,8.2039 3.0347,9.2798 2.5708,9.6065 A2.2129,2.2129 0 0 1 -0.0355,6.0295 ZM1.5317,6.9348 T1.1093,6.1026 0.214,4.3443 -0.2589,3.4183 A2.1195,2.1195 0 0 1 3.4589,1.3817 T3.9847,2.2787 4.9844,3.9798 5.4583,4.7838 A2.2386,2.2386 0 0 1 1.5317,6.9348 Z" stroke-linecap="round" fill="#f2f2f2"/></g></g><g transform="matrix(1, 0, 0, 1, 732.1225, 9791.7925)" opacity="1"><g transform="scale(1)"><path d="M2.246,0.2492 T2.0746,1.9563 1.7468,6.1026 1.5104,9.9232 1.4305,11.3045 A2.2325,2.2325 0 0 1 -3.0305,11.1155 T-2.9934,9.7324 -2.8081,5.7532 -2.453,1.454 -2.246,-0.2492 A2.2598,2.2598 0 0 1 2.246,0.2492 Z" stroke-linecap="round" fill="#f2f2f2"/></g></g><g transform="matrix(1, 0, 0, 1, 1208.8933, 9793.1271)" opacity="1"><g transform="scale(1)"><path d="M2.246,0.2492 T2.0746,1.9563 1.7468,6.1026 1.5104,9.9232 1.4305,11.3045 A2.2325,2.2325 0 0 1 -3.0305,11.1155 T-2.9934,9.7324 -2.8081,5.7532 -2.453,1.454 -2.246,-0.2492 A2.2598,2.2598 0 0 1 2.246,0.2492 Z" stroke-linecap="round" fill="#f2f2f2"/></g></g><g transform="matrix(1, 0, 0, 1, 736.9279, 9757.354)" opacity="1"><g transform="scale(1)"><path d="M1.3838,1.3838 T-0.1172,2.9147 -3.2984,6.1636 -7.1566,9.5356 -11.4595,12.1182 -13.5846,13.0469 A2.018,2.018 0 0 1 -15.2554,9.3731 T-13.4394,8.5094 -9.7504,6.3101 -6.1615,3.2963 -2.9147,0.1172 -1.3838,-1.3838 A1.957,1.957 0 0 1 1.3838,1.3838 Z" stroke-linecap="round" fill="#f2f2f2"/></g></g><g transform="matrix(1, 0, 0, 1, 1213.6986, 9758.6886)" opacity="1"><g transform="scale(1)"><path d="M1.3838,1.3838 T-0.1172,2.9147 -3.2984,6.1636 -7.1566,9.5356 -11.4595,12.1182 -13.5846,13.0469 A2.018,2.018 0 0 1 -15.2554,9.3731 T-13.4394,8.5094 -9.7504,6.3101 -6.1615,3.2963 -2.9147,0.1172 -1.3838,-1.3838 A1.957,1.957 0 0 1 1.3838,1.3838 Z" stroke-linecap="round" fill="#f2f2f2"/></g></g><g transform="matrix(1, 0, 0, 1, 723.3127, 9758.1549)" opacity="1"><g transform="scale(1)"><path d="M1.5998,-0.9983 T2.5654,0.5054 4.8818,3.8321 7.7871,7.5877 10.9843,11.2841 12.6269,13.0479 A1.9724,1.9724 0 0 1 9.7931,15.7921 T8.0328,14.0038 4.7764,10.2861 1.7666,6.2057 -0.6734,2.5265 -1.5998,0.9983 A1.8857,1.8857 0 0 1 1.5998,-0.9983 Z" stroke-linecap="round" fill="#f2f2f2"/></g></g><g transform="matrix(1, 0, 0, 1, 1200.0834, 9759.4895)" opacity="1"><g transform="scale(1)"><path d="M1.5998,-0.9983 T2.5654,0.5054 4.8818,3.8321 7.7871,7.5877 10.9843,11.2841 12.6269,13.0479 A1.9724,1.9724 0 0 1 9.7931,15.7921 T8.0328,14.0038 4.7764,10.2861 1.7666,6.2057 -0.6734,2.5265 -1.5998,0.9983 A1.8857,1.8857 0 0 1 1.5998,-0.9983 Z" stroke-linecap="round" fill="#f2f2f2"/></g></g><g transform="matrix(1, 0, 0, 1, 739.3306, 9773.3719)" opacity="1"><g transform="scale(1)"><path d="M1.806,-0.7726 T2.3845,0.5522 3.645,4.716 4.327,7.555 A1.98,1.98 0 0 1 0.473,8.465 T-0.1098,5.9475 -1.2493,2.1013 -1.806,0.7726 A1.9644,1.9644 0 0 1 1.806,-0.7726 Z" stroke-linecap="round" fill="#f2f2f2"/></g></g><g transform="matrix(1, 0, 0, 1, 1216.1013, 9774.7065)" opacity="1"><g transform="scale(1)"><path d="M1.806,-0.7726 T2.3845,0.5522 3.645,4.716 4.327,7.555 A1.98,1.98 0 0 1 0.473,8.465 T-0.1098,5.9475 -1.2493,2.1013 -1.806,0.7726 A1.9644,1.9644 0 0 1 1.806,-0.7726 Z" stroke-linecap="round" fill="#f2f2f2"/></g></g><g transform="matrix(1, 0, 0, 1, 784.9816, 9790.9916)" opacity="1"><g transform="scale(1)"><path d="M2.1275,0.9771 T1.9033,3.247 1.4368,8.0464 1.1945,10.576 A2.0014,2.0014 0 0 1 -2.7945,10.244 T-2.6152,7.7091 -2.2817,2.8986 -2.1275,0.6229 A2.1349,2.1349 0 0 1 2.1275,0.9771 Z" stroke-linecap="round" fill="#f2f2f2"/></g></g><g transform="matrix(1, 0, 0, 1, 1261.7523, 9792.3262)" opacity="1"><g transform="scale(1)"><path d="M2.1275,0.9771 T1.9033,3.247 1.4368,8.0464 1.1945,10.576 A2.0014,2.0014 0 0 1 -2.7945,10.244 T-2.6152,7.7091 -2.2817,2.8986 -2.1275,0.6229 A2.1349,2.1349 0 0 1 2.1275,0.9771 Z" stroke-linecap="round" fill="#f2f2f2"/></g></g><g transform="matrix(1, 0, 0, 1, 795.3932, 9758.1549)" opacity="1"><g transform="scale(1)"><path d="M1.7546,0.8762 T0.827,2.7797 -1.5822,7.2857 -4.6871,11.628 -7.2911,14.2365 -8.2718,15.105 A1.999,1.999 0 0 1 -10.9482,12.135 T-8.6986,9.8735 -5.0662,5.2531 -2.719,1.009 -1.7546,-0.8762 A1.9612,1.9612 0 0 1 1.7546,0.8762 Z" stroke-linecap="round" fill="#f2f2f2"/></g></g><g transform="matrix(1, 0, 0, 1, 1272.164, 9759.4895)" opacity="1"><g transform="scale(1)"><path d="M1.7546,0.8762 T0.827,2.7797 -1.5822,7.2857 -4.6871,11.628 -7.2911,14.2365 -8.2718,15.105 A1.999,1.999 0 0 1 -10.9482,12.135 T-8.6986,9.8735 -5.0662,5.2531 -2.719,1.009 -1.7546,-0.8762 A1.9612,1.9612 0 0 1 1.7546,0.8762 Z" stroke-linecap="round" fill="#f2f2f2"/></g></g><g transform="matrix(1, 0, 0, 1, 785.7825, 9760.5576)" opacity="1"><g transform="scale(1)"><path d="M1.423,-1.1834 T2.3766,-0.0519 4.596,2.7776 6.907,6.3071 8.4378,9.3141 8.9234,10.4895 A1.8588,1.8588 0 0 1 5.4966,11.9305 T4.1954,9.3675 1.674,5.1376 -0.4846,2.327 -1.423,1.1834 A1.8508,1.8508 0 0 1 1.423,-1.1834 Z" stroke-linecap="round" fill="#f2f2f2"/></g></g><g transform="matrix(1, 0, 0, 1, 1262.5532, 9761.8922)" opacity="1"><g transform="scale(1)"><path d="M1.423,-1.1834 T2.3766,-0.0519 4.596,2.7776 6.907,6.3071 8.4378,9.3141 8.9234,10.4895 A1.8588,1.8588 0 0 1 5.4966,11.9305 T4.1954,9.3675 1.674,5.1376 -0.4846,2.327 -1.423,1.1834 A1.8508,1.8508 0 0 1 1.423,-1.1834 Z" stroke-linecap="round" fill="#f2f2f2"/></g></g><g transform="matrix(1, 0, 0, 1, 796.1941, 9774.9737)" opacity="1"><g transform="scale(1)"><path d="M0.4193,-2.0966 T1.4478,-1.8624 3.8103,0.3926 3.831,5.068 2.5178,7.7227 A2.1135,2.1135 0 0 1 -0.8979,5.2327 T0.2049,3.8088 0.4442,2.2408 -0.4193,2.0966 A2.1381,2.1381 0 0 1 0.4193,-2.0966 ZM1.8388,4.6316 T2.1152,4.8045 5.2102,5.0305 8.0288,5.0835 A2.1266,2.1266 0 0 1 7.9912,9.3365 T7.102,9.3356 3.6696,9.1853 0.4537,8.6798 -0.2189,8.3238 A2.1135,2.1135 0 0 1 1.8388,4.6316 Z" stroke-linecap="round" fill="#f2f2f2"/></g></g><g transform="matrix(1, 0, 0, 1, 1272.9648, 9776.3083)" opacity="1"><g transform="scale(1)"><path d="M0.4193,-2.0966 T1.4478,-1.8624 3.8103,0.3926 3.831,5.068 2.5178,7.7227 A2.1135,2.1135 0 0 1 -0.8979,5.2327 T0.2049,3.8088 0.4442,2.2408 -0.4193,2.0966 A2.1381,2.1381 0 0 1 0.4193,-2.0966 ZM1.8388,4.6316 T2.1152,4.8045 5.2102,5.0305 8.0288,5.0835 A2.1266,2.1266 0 0 1 7.9912,9.3365 T7.102,9.3356 3.6696,9.1853 0.4537,8.6798 -0.2189,8.3238 A2.1135,2.1135 0 0 1 1.8388,4.6316 Z" stroke-linecap="round" fill="#f2f2f2"/></g></g><g transform="matrix(1, 0, 0, 1, 839.4424, 9792.5934)" opacity="1"><g transform="scale(1)"><path d="M2.0047,0.3338 T1.6413,2.609 0.8698,7.4188 0.4617,9.9533 A2.09,2.09 0 0 1 -3.6617,9.2667 T-3.2266,6.7367 -2.3981,1.9365 -2.0047,-0.3338 A2.0323,2.0323 0 0 1 2.0047,0.3338 Z" stroke-linecap="round" fill="#f2f2f2"/></g></g><g transform="matrix(1, 0, 0, 1, 1316.2132, 9793.928)" opacity="1"><g transform="scale(1)"><path d="M2.0047,0.3338 T1.6413,2.609 0.8698,7.4188 0.4617,9.9533 A2.09,2.09 0 0 1 -3.6617,9.2667 T-3.2266,6.7367 -2.3981,1.9365 -2.0047,-0.3338 A2.0323,2.0323 0 0 1 2.0047,0.3338 Z" stroke-linecap="round" fill="#f2f2f2"/></g></g><g transform="matrix(1, 0, 0, 1, 845.8496, 9757.354)" opacity="1"><g transform="scale(1)"><path d="M1.1661,1.554 T-0.328,2.7186 -3.7892,5.8573 -7.7483,10.1352 -9.7405,12.4389 A1.9157,1.9157 0 0 1 -12.6795,9.9811 T-10.6465,7.4716 -6.4276,2.8147 -2.7039,-0.4435 -1.1661,-1.554 A1.9429,1.9429 0 0 1 1.1661,1.554 Z" stroke-linecap="round" fill="#f2f2f2"/></g></g><g transform="matrix(1, 0, 0, 1, 1322.6203, 9758.6886)" opacity="1"><g transform="scale(1)"><path d="M1.1661,1.554 T-0.328,2.7186 -3.7892,5.8573 -7.7483,10.1352 -9.7405,12.4389 A1.9157,1.9157 0 0 1 -12.6795,9.9811 T-10.6465,7.4716 -6.4276,2.8147 -2.7039,-0.4435 -1.1661,-1.554 A1.9429,1.9429 0 0 1 1.1661,1.554 Z" stroke-linecap="round" fill="#f2f2f2"/></g></g><g transform="matrix(1, 0, 0, 1, 833.0352, 9755.7522)" opacity="1"><g transform="scale(1)"><path d="M1.4655,-1.0997 T2.6232,0.4011 5.5052,4.0782 8.959,7.8823 12.0237,10.8879 13.3587,12.2657 A1.9114,1.9114 0 0 1 10.6613,14.9743 T8.7942,13.1735 5.4889,9.9434 2.41,6.338 -0.3481,2.6309 -1.4655,1.0997 A1.8323,1.8323 0 0 1 1.4655,-1.0997 Z" stroke-linecap="round" fill="#f2f2f2"/></g></g><g transform="matrix(1, 0, 0, 1, 1309.806, 9757.0868)" opacity="1"><g transform="scale(1)"><path d="M1.4655,-1.0997 T2.6232,0.4011 5.5052,4.0782 8.959,7.8823 12.0237,10.8879 13.3587,12.2657 A1.9114,1.9114 0 0 1 10.6613,14.9743 T8.7942,13.1735 5.4889,9.9434 2.41,6.338 -0.3481,2.6309 -1.4655,1.0997 A1.8323,1.8323 0 0 1 1.4655,-1.0997 Z" stroke-linecap="round" fill="#f2f2f2"/></g></g><g transform="matrix(1, 0, 0, 1, 849.0531, 9772.571)" opacity="1"><g transform="scale(1)"><path d="M0.8409,-1.6854 T2.0128,-1.1145 4.1262,1.2167 4.4299,4.8009 3.7922,6.6248 A1.9395,1.9395 0 0 1 0.0695,5.5349 T0.7175,4.1744 0.2623,2.2497 -0.8409,1.6854 A1.8835,1.8835 0 0 1 0.8409,-1.6854 ZM3.5514,5.0143 T3.8529,5.4701 4.5424,6.6 4.9305,7.2741 A1.9546,1.9546 0 0 1 1.5214,9.1874 T1.2147,8.6235 0.6091,7.6026 0.3103,7.1454 A1.9395,1.9395 0 0 1 3.5514,5.0143 ZM4.2928,9.8685 T3.0794,10.6299 0.9036,11.7831 -0.0587,12.175 A1.9143,1.9143 0 0 1 -1.5413,8.645 T-0.5878,8.2322 1.2624,7.2062 2.159,6.593 A1.9546,1.9546 0 0 1 4.2928,9.8685 Z" stroke-linecap="round" fill="#f2f2f2"/></g></g><g transform="matrix(1, 0, 0, 1, 1325.8239, 9773.9056)" opacity="1"><g transform="scale(1)"><path d="M0.8409,-1.6854 T2.0128,-1.1145 4.1262,1.2167 4.4299,4.8009 3.7922,6.6248 A1.9395,1.9395 0 0 1 0.0695,5.5349 T0.7175,4.1744 0.2623,2.2497 -0.8409,1.6854 A1.8835,1.8835 0 0 1 0.8409,-1.6854 ZM3.5514,5.0143 T3.8529,5.4701 4.5424,6.6 4.9305,7.2741 A1.9546,1.9546 0 0 1 1.5214,9.1874 T1.2147,8.6235 0.6091,7.6026 0.3103,7.1454 A1.9395,1.9395 0 0 1 3.5514,5.0143 ZM4.2928,9.8685 T3.0794,10.6299 0.9036,11.7831 -0.0587,12.175 A1.9143,1.9143 0 0 1 -1.5413,8.645 T-0.5878,8.2322 1.2624,7.2062 2.159,6.593 A1.9546,1.9546 0 0 1 4.2928,9.8685 Z" stroke-linecap="round" fill="#f2f2f2"/></g></g><g transform="matrix(1, 0, 0, 1, 892.3014, 9795.797)" opacity="1"><g transform="scale(1)"><path d="M2.0125,0 T2.0207,1.518 1.7091,5.4819 1.2591,9.2498 1.1288,10.5719 A1.9356,1.9356 0 0 1 -2.7288,10.2481 T-2.6369,8.9228 -2.2869,5.3127 -2.0207,1.5139 -2.0125,0 A2.0125,2.0125 0 0 1 2.0125,0 Z" stroke-linecap="round" fill="#f2f2f2"/></g></g><g transform="matrix(1, 0, 0, 1, 1369.0722, 9797.1315)" opacity="1"><g transform="scale(1)"><path d="M2.0125,0 T2.0207,1.518 1.7091,5.4819 1.2591,9.2498 1.1288,10.5719 A1.9356,1.9356 0 0 1 -2.7288,10.2481 T-2.6369,8.9228 -2.2869,5.3127 -2.0207,1.5139 -2.0125,0 A2.0125,2.0125 0 0 1 2.0125,0 Z" stroke-linecap="round" fill="#f2f2f2"/></g></g><g transform="matrix(1, 0, 0, 1, 894.7041, 9823.8283)" opacity="1"><g transform="scale(1)"><path d="M1.3765,1.3765 T-0.3113,3.0994 -4.6346,6.9219 -8.6701,10.0588 -10.0699,11.0962 A1.8732,1.8732 0 0 1 -12.3501,8.1238 T-10.9855,7.0405 -7.2213,3.9777 -3.0991,0.3109 -1.3765,-1.3765 A1.9466,1.9466 0 0 1 1.3765,1.3765 Z" stroke-linecap="round" fill="#f2f2f2"/></g></g><g transform="matrix(1, 0, 0, 1, 1371.4749, 9825.1629)" opacity="1"><g transform="scale(1)"><path d="M1.3765,1.3765 T-0.3113,3.0994 -4.6346,6.9219 -8.6701,10.0588 -10.0699,11.0962 A1.8732,1.8732 0 0 1 -12.3501,8.1238 T-10.9855,7.0405 -7.2213,3.9777 -3.0991,0.3109 -1.3765,-1.3765 A1.9466,1.9466 0 0 1 1.3765,1.3765 Z" stroke-linecap="round" fill="#f2f2f2"/></g></g><g transform="matrix(1, 0, 0, 1, 884.2925, 9824.6292)" opacity="1"><g transform="scale(1)"><path d="M1.6807,-1.3446 T2.4518,-0.41 4.7318,2.1575 7.9075,5.5277 9.5743,7.265 A2.1986,2.1986 0 0 1 6.4457,10.355 T4.702,8.6214 1.3813,5.0737 -0.9382,2.302 -1.6807,1.3446 A2.1524,2.1524 0 0 1 1.6807,-1.3446 Z" stroke-linecap="round" fill="#f2f2f2"/></g></g><g transform="matrix(1, 0, 0, 1, 1361.0633, 9825.9637)" opacity="1"><g transform="scale(1)"><path d="M1.6807,-1.3446 T2.4518,-0.41 4.7318,2.1575 7.9075,5.5277 9.5743,7.265 A2.1986,2.1986 0 0 1 6.4457,10.355 T4.702,8.6214 1.3813,5.0737 -0.9382,2.302 -1.6807,1.3446 A2.1524,2.1524 0 0 1 1.6807,-1.3446 Z" stroke-linecap="round" fill="#f2f2f2"/></g></g><g transform="matrix(1, 0, 0, 1, 896.3059, 9837.4435)" opacity="1"><g transform="scale(1)"><path d="M1.5631,-0.7799 T2.1407,0.3474 5.0528,1.8785 7.3872,2.2823 A1.7268,1.7268 0 0 1 7.0328,5.7177 T5.6879,5.5941 1.9475,4.2731 -1.0055,1.9278 -1.5631,0.7799 A1.7468,1.7468 0 0 1 1.5631,-0.7799 Z" stroke-linecap="round" fill="#f2f2f2"/></g></g><g transform="matrix(1, 0, 0, 1, 1373.0767, 9838.7781)" opacity="1"><g transform="scale(1)"><path d="M1.5631,-0.7799 T2.1407,0.3474 5.0528,1.8785 7.3872,2.2823 A1.7268,1.7268 0 0 1 7.0328,5.7177 T5.6879,5.5941 1.9475,4.2731 -1.0055,1.9278 -1.5631,0.7799 A1.7468,1.7468 0 0 1 1.5631,-0.7799 Z" stroke-linecap="round" fill="#f2f2f2"/></g></g><g transform="matrix(1, 0, 0, 1, 903.514, 9837.4435)" opacity="1"><g transform="scale(1)"><path d="M2.1007,0 T2.1122,1.5169 1.7062,6.4489 1.2887,9.864 A2.1041,2.1041 0 0 1 -2.8887,9.356 T-2.5062,6.193 -2.1122,1.515 -2.1007,0 A2.1007,2.1007 0 0 1 2.1007,0 Z" stroke-linecap="round" fill="#f2f2f2"/></g></g><g transform="matrix(1, 0, 0, 1, 1380.2847, 9838.7781)" opacity="1"><g transform="scale(1)"><path d="M2.1007,0 T2.1122,1.5169 1.7062,6.4489 1.2887,9.864 A2.1041,2.1041 0 0 1 -2.8887,9.356 T-2.5062,6.193 -2.1122,1.515 -2.1007,0 A2.1007,2.1007 0 0 1 2.1007,0 Z" stroke-linecap="round" fill="#f2f2f2"/></g></g><g transform="matrix(1, 0, 0, 1, 944.3596, 9788.5889)" opacity="1"><g transform="scale(1)"><path d="M1.9252,0 T1.9508,2.2728 1.9933,7.5238 1.5736,13.4013 1.137,16.3007 A1.9572,1.9572 0 0 1 -2.737,15.7393 T-2.3736,13.1177 -1.9933,7.5208 -1.9508,2.2728 -1.9252,0 A1.9252,1.9252 0 0 1 1.9252,0 Z" stroke-linecap="round" fill="#f2f2f2"/></g></g><g transform="matrix(1, 0, 0, 1, 1421.1303, 9789.9235)" opacity="1"><g transform="scale(1)"><path d="M1.9252,0 T1.9508,2.2728 1.9933,7.5238 1.5736,13.4013 1.137,16.3007 A1.9572,1.9572 0 0 1 -2.737,15.7393 T-2.3736,13.1177 -1.9933,7.5208 -1.9508,2.2728 -1.9252,0 A1.9252,1.9252 0 0 1 1.9252,0 Z" stroke-linecap="round" fill="#f2f2f2"/></g></g><g transform="matrix(1, 0, 0, 1, 948.3641, 9810.2131)" opacity="1"><g transform="scale(1)"><path d="M1.5713,1.3067 T0.6489,2.466 -2.4972,5.5726 -6.7687,8.8774 -11.0568,11.5989 -13.2972,12.9628 A2.0816,2.0816 0 0 1 -15.5428,9.4572 T-13.3305,7.9688 -9.2896,5.2993 -5.4858,2.5215 -2.5409,-0.1909 -1.5713,-1.3067 A2.0436,2.0436 0 0 1 1.5713,1.3067 Z" stroke-linecap="round" fill="#f2f2f2"/></g></g><g transform="matrix(1, 0, 0, 1, 1425.1348, 9811.5476)" opacity="1"><g transform="scale(1)"><path d="M1.5713,1.3067 T0.6489,2.466 -2.4972,5.5726 -6.7687,8.8774 -11.0568,11.5989 -13.2972,12.9628 A2.0816,2.0816 0 0 1 -15.5428,9.4572 T-13.3305,7.9688 -9.2896,5.2993 -5.4858,2.5215 -2.5409,-0.1909 -1.5713,-1.3067 A2.0436,2.0436 0 0 1 1.5713,1.3067 Z" stroke-linecap="round" fill="#f2f2f2"/></g></g><g transform="matrix(1, 0, 0, 1, 937.1515, 9811.8148)" opacity="1"><g transform="scale(1)"><path d="M1.7113,-0.8539 T2.3034,0.271 4.1441,3.0924 6.6078,6.1396 7.8229,7.4905 A1.9332,1.9332 0 0 1 4.9971,10.1295 T3.6609,8.7485 0.8498,5.2609 -1.1682,2.0041 -1.7113,0.8539 A1.9125,1.9125 0 0 1 1.7113,-0.8539 Z" stroke-linecap="round" fill="#f2f2f2"/></g></g><g transform="matrix(1, 0, 0, 1, 1413.9223, 9813.1494)" opacity="1"><g transform="scale(1)"><path d="M1.7113,-0.8539 T2.3034,0.271 4.1441,3.0924 6.6078,6.1396 7.8229,7.4905 A1.9332,1.9332 0 0 1 4.9971,10.1295 T3.6609,8.7485 0.8498,5.2609 -1.1682,2.0041 -1.7113,0.8539 A1.9125,1.9125 0 0 1 1.7113,-0.8539 Z" stroke-linecap="round" fill="#f2f2f2"/></g></g><g transform="matrix(1, 0, 0, 1, 948.3641, 9825.4301)" opacity="1"><g transform="scale(1)"><path d="M1.8841,0 T1.9037,1.5179 1.3746,5.2448 2.3267,8.7886 3.4759,12.6622 0.9914,16.5144 -3.155,17.5009 -5.1686,17.1738 A1.9865,1.9865 0 0 1 -4.4514,13.2662 T-2.4251,11.904 -1.7683,8.9607 -2.5305,5.2038 -1.9037,1.514 -1.8841,0 A1.8841,1.8841 0 0 1 1.8841,0 Z" stroke-linecap="round" fill="#f2f2f2"/></g></g><g transform="matrix(1, 0, 0, 1, 1425.1348, 9826.7646)" opacity="1"><g transform="scale(1)"><path d="M1.8841,0 T1.9037,1.5179 1.3746,5.2448 2.3267,8.7886 3.4759,12.6622 0.9914,16.5144 -3.155,17.5009 -5.1686,17.1738 A1.9865,1.9865 0 0 1 -4.4514,13.2662 T-2.4251,11.904 -1.7683,8.9607 -2.5305,5.2038 -1.9037,1.514 -1.8841,0 A1.8841,1.8841 0 0 1 1.8841,0 Z" stroke-linecap="round" fill="#f2f2f2"/></g></g><g transform="matrix(1, 0, 0, 1, 948.3641, 9823.8283)" opacity="1"><g transform="scale(1)"><path d="M0.6437,-1.935 T1.7886,-1.5795 5.3834,-1.245 7.8333,-1.2661 A2.0737,2.0737 0 0 1 8.1867,2.8661 T7.092,2.9682 3.8069,2.9039 0.4865,2.3363 -0.6437,1.935 A2.0392,2.0392 0 0 1 0.6437,-1.935 Z" stroke-linecap="round" fill="#f2f2f2"/></g></g><g transform="matrix(1, 0, 0, 1, 1425.1348, 9825.1629)" opacity="1"><g transform="scale(1)"><path d="M0.6437,-1.935 T1.7886,-1.5795 5.3834,-1.245 7.8333,-1.2661 A2.0737,2.0737 0 0 1 8.1867,2.8661 T7.092,2.9682 3.8069,2.9039 0.4865,2.3363 -0.6437,1.935 A2.0392,2.0392 0 0 1 0.6437,-1.935 Z" stroke-linecap="round" fill="#f2f2f2"/></g></g><g transform="matrix(1, 0, 0, 1, 691.7914, 9800.25)" opacity="0.5"><g transform="scale(1)"><path d="M2.2978,0 T2.2826,1.4332 2.0202,5.273 1.5875,10.0482 1.37,14.5937 1.3373,19.1399 1.3452,23.7573 1.3727,28.1254 1.4147,32.9192 1.2167,37.9773 0.8464,42.8739 0.6992,47.413 0.7158,51.5846 0.7463,55.9985 1.0812,61.0032 1.5312,66.0036 1.6935,70.4426 1.7471,75.0956 1.4534,79.8651 0.7531,84.289 3.0388,87.1896 7.9985,87.936 12.8381,87.8879 18.0727,87.8371 23.3263,87.7911 28.4336,87.7494 33.4942,87.9661 35.4333,86.2334 34.8689,81.9762 34.8934,77.1256 35.2125,72.4862 35.6132,67.7531 35.7116,62.293 35.725,57.0638 35.5711,52.4349 35.2147,48.242 34.9615,43.9427 34.912,38.9579 35.2966,34.1508 36.063,29.6034 36.8494,24.9581 37.3901,20.3673 37.5465,15.6177 37.9319,10.8075 38.3492,5.8812 37.7061,0.7714 37.0142,-1.8328 A2.8895,2.8895 0 0 1 42.5858,-3.3672 T42.9921,-2.1273 44.0204,1.2025 44.6082,5.4283 44.3318,9.8788 43.9096,14.566 43.6727,18.9831 43.1926,23.8927 42.382,28.7232 41.6122,33.5044 41.2491,38.9438 41.3228,43.7023 41.7504,48.5197 42.1271,53.7617 42.1265,58.9915 42.0876,64.3537 41.9543,69.0455 41.5486,73.6758 41.236,78.8397 41.1915,83.553 40.529,88.333 38.5875,92.4371 34.1207,93.9454 28.4336,93.9306 23.3263,93.8888 18.0718,93.8423 12.8317,93.7881 7.961,93.7169 2.7705,93.5588 -2.0851,92.8516 -4.6053,89.8058 -4.7092,85.1487 -3.8921,80.2617 -3.4926,75.104 -3.4736,70.501 -3.5994,65.8836 -3.9743,60.8321 -4.2054,55.9972 -4.17,51.5758 -4.1191,47.3453 -3.9508,42.9383 -3.496,38.1017 -3.16,33.5423 -3.1226,29.3501 -3.0914,25.2049 -3.071,20.7185 -3.0496,16.0237 -2.9341,11.3485 -2.5493,5.8759 -2.2826,1.4332 -2.2978,0 A2.2978,2.2978 0 0 1 2.2978,0 Z" stroke-linecap="round" fill="#e599f7"/></g></g><g transform="matrix(1, 0, 0, 1, 729.8581, 9871.1925)" opacity="0.5"><g transform="scale(1)"><path d="M1.5613,1.3026 T0.5493,2.5416 -3.2945,6.5227 -7.5788,10.7192 -11.2762,14.2561 -14.796,17.2329 -16.0711,18.1274 A2.0875,2.0875 0 0 1 -18.5289,14.7526 T-17.2863,13.8135 -14.0656,10.9693 -10.5956,7.6278 -6.3686,3.6602 -2.5974,-0.0868 -1.5613,-1.3026 A2.0333,2.0333 0 0 1 1.5613,1.3026 Z" stroke-linecap="round" fill="#e599f7"/></g></g><g transform="matrix(1, 0, 0, 1, 729.8581, 9853.0243)" opacity="0.5"><g transform="scale(1)"><path d="M1.6304,1.4683 T-0.2326,3.4954 -3.6993,7.2245 -7.0117,10.4952 -10.1308,13.6192 -13.1942,16.7172 -17.3743,20.8105 -23.3012,25.1302 -26.701,26.8992 A2.0571,2.0571 0 0 1 -28.659,23.2808 T-25.7623,21.6428 -20.3409,17.51 -16.2663,13.6299 -13.1552,10.5772 -9.9969,7.4692 -6.8369,4.3444 -3.4521,0.596 -1.6304,-1.4683 A2.1942,2.1942 0 0 1 1.6304,1.4683 Z" stroke-linecap="round" fill="#e599f7"/></g></g><g transform="matrix(1, 0, 0, 1, 725.5324, 9843.5076)" opacity="0.5"><g transform="scale(1)"><path d="M1.5751,1.7986 T-0.0796,3.2111 -4.5742,7.2797 -8.9524,11.4535 -11.9122,14.3921 -14.9514,17.2398 -19.3902,21.164 -24.5682,25.6242 -29.7794,29.0612 -32.6335,30.5355 A2.273,2.273 0 0 1 -34.8465,26.5645 T-33.48,25.7376 -29.8872,23.3893 -25.1548,19.8076 -21.1641,16.4088 -18.1509,13.7761 -15.1787,11.0734 -10.7662,6.7859 -6.3047,2.5081 -3.1936,-0.3448 -1.5751,-1.7986 A2.3908,2.3908 0 0 1 1.5751,1.7986 Z" stroke-linecap="round" fill="#e599f7"/></g></g><g transform="matrix(1, 0, 0, 1, 725.5324, 9815.8228)" opacity="0.5"><g transform="scale(1)"><path d="M0.813,1.683 T-0.8307,3.3122 -3.8969,6.5671 -6.9896,9.7776 -10.0431,12.909 -12.8162,15.9417 -16.0686,19.5552 -19.9945,23.6952 -23.2433,26.7071 -24.4287,27.7063 A2.3236,2.3236 0 0 1 -27.4713,24.1937 T-25.3923,22.3521 -21.64,18.4848 -17.4663,13.8562 -13.4374,9.5814 -10.388,6.4931 -7.3394,3.3408 -4.1825,-0.0391 -2.553,-1.683 A2.3802,2.3802 0 0 1 0.813,1.683 Z" stroke-linecap="round" fill="#e599f7"/></g></g><g transform="matrix(1, 0, 0, 1, 724.6672, 9800.25)" opacity="0.5"><g transform="scale(1)"><path d="M1.3492,1.8882 T-0.1001,2.8902 -4.5422,5.9149 -10.6327,9.9266 -16.4795,13.4365 -21.7213,16.1598 -26.1233,18.3016 -29.8124,20.4606 -31.5922,21.6804 A2.1973,2.1973 0 0 1 -34.1678,18.1196 T-32.1394,16.5848 -28.1685,14.1057 -23.8739,12.0808 -18.8423,9.5716 -13.211,6.2735 -7.2213,2.304 -2.7663,-0.8421 -1.3492,-1.8882 A2.3207,2.3207 0 0 1 1.3492,1.8882 Z" stroke-linecap="round" fill="#e599f7"/></g></g><g transform="matrix(1, 0, 0, 1, 786.093, 9794.194)" opacity="0.5"><g transform="scale(1)"><path d="M2.4263,0 T2.4124,1.639 2.0689,5.7454 1.4018,11.1739 0.8892,16.3402 0.3149,20.7972 -0.1286,25.4634 -0.1729,30.1036 -0.1665,34.3932 -0.1478,39.0249 -0.1259,43.7626 -0.1108,48.0973 -0.1,52.8812 -0.357,58.1064 -0.8796,61.7525 -1.1399,62.7922 A2.3738,2.3738 0 0 1 -5.7801,61.7878 T-5.5872,60.7336 -5.2498,57.5897 -5.1,52.8812 -5.0892,48.0972 -5.074,43.7625 -5.0517,39.0242 -5.0301,34.3875 -5.0039,30.0785 -4.9134,25.2101 -4.4355,20.4341 -3.7891,15.6479 -3.2716,10.3737 -2.6973,5.5027 -2.4124,1.6341 -2.4263,0 A2.4263,2.4263 0 0 1 2.4263,0 Z" stroke-linecap="round" fill="#e599f7"/></g></g><g transform="matrix(1, 0, 0, 1, 728.993, 9875.5183)" opacity="0.5"><g transform="scale(1)"><path d="M-0.3652,-2.5438 T1.0699,-2.7371 4.8026,-3.095 9.6945,-3.308 14.8888,-3.3608 19.919,-3.3683 24.5529,-3.3795 29.0102,-3.3942 33.5789,-3.7763 37.8965,-4.5837 42.3252,-4.8052 47.11,-4.4902 51.4761,-4.3883 54.8613,-4.3958 56.2391,-4.4006 A2.6706,2.6706 0 0 1 56.2209,0.9406 T54.8432,0.9264 51.4127,0.8852 47.0863,0.7351 42.631,0.3595 38.3584,0.5253 33.8144,1.3022 29.0589,1.6542 24.5535,1.6399 19.9239,1.6314 14.9239,1.6422 9.8658,1.714 5.3047,1.9409 1.7965,2.3256 0.3652,2.5438 A2.5699,2.5699 0 0 1 -0.3652,-2.5438 Z" stroke-linecap="round" fill="#e599f7"/></g></g><g transform="matrix(1, 0, 0, 1, 784.3627, 9853.0243)" opacity="0.5"><g transform="scale(1)"><path d="M2.0663,0 T2.0867,1.8423 2.1337,6.2012 2.1796,10.9767 2.1609,15.7028 2.1231,18.17 A2.1231,2.1231 0 0 1 -2.1231,18.17 T-2.1609,15.7028 -2.1796,10.9767 -2.1337,6.2012 -2.0867,1.8423 -2.0663,0 A2.0663,2.0663 0 0 1 2.0663,0 Z" stroke-linecap="round" fill="#e599f7"/></g></g><g transform="matrix(1, 0, 0, 1, 776.5763, 9853.8895)" opacity="0.5"><g transform="scale(1)"><path d="M1.6075,1.1685 T-0.0232,3.4244 -3.153,7.5378 -6.057,11.0009 -10.3402,14.8955 -16.238,18.1797 -19.2575,19.1751 A1.9821,1.9821 0 0 1 -20.5425,15.4249 T-18.0141,14.5193 -13.022,11.7306 -9.181,8.3273 -6.3481,5.0663 -3.25,1.0786 -1.6075,-1.1685 A1.9873,1.9873 0 0 1 1.6075,1.1685 Z" stroke-linecap="round" fill="#e599f7"/></g></g><g transform="matrix(1, 0, 0, 1, 784.3627, 9827.0697)" opacity="0.5"><g transform="scale(1)"><path d="M0.799,1.8198 T-1.6654,4.0609 -6.2212,8.298 -10.4203,12.378 -14.6991,16.4337 -18.7308,20.3864 -22.6807,24.3349 -26.4355,27.9122 -29.5869,30.9868 -33.6217,34.9719 -38.5991,38.9439 -41.0277,40.3958 A2.6941,2.6941 0 0 1 -43.4374,35.5766 T-42.7386,35.2152 -39.8827,33.0728 -36.3069,29.9038 -33.3588,27.0579 -30.1069,23.9886 -26.3693,20.5659 -22.3133,16.6706 -18.1453,12.7314 -13.8566,8.8036 -9.5623,4.7175 -4.9844,0.4421 -2.539,-1.8198 A2.4692,2.4692 0 0 1 0.799,1.8198 ZM-43.8698,40.1257 T-44.1063,39.9313 -44.3428,39.7369 A2.6727,2.6727 0 0 1 -41.0943,35.4918 T-40.8448,35.6693 -40.5953,35.8467 A2.6941,2.6941 0 0 1 -43.8698,40.1257 ZM-45.1596,36.5258 T-44.4746,35.1789 -43.2547,33.1008 -42.7197,32.3695 A2.474,2.474 0 0 1 -38.6003,35.1105 T-39.0683,35.8865 -39.9069,37.6827 -40.2775,38.7029 A2.6727,2.6727 0 0 1 -45.1596,36.5258 Z" stroke-linecap="round" fill="#e599f7"/></g></g><g transform="matrix(1, 0, 0, 1, 774.846, 9817.5531)" opacity="0.5"><g transform="scale(1)"><path d="M1.73,1.73 T0.0878,3.361 -3.2333,6.6746 -6.813,10.2761 -10.7753,14.0796 -14.682,17.7458 -18.5648,21.34 -22.2371,24.6882 -26.1747,28.7597 -31.1901,32.8646 -33.9025,34.4336 A2.6846,2.6846 0 0 1 -36.0014,29.4918 T-35.1773,29.1547 -32.3115,27.0517 -28.8784,23.7835 -25.7642,20.7407 -22.0421,17.5 -18.1135,14.0218 -14.1896,10.4786 -10.276,6.8129 -6.6746,3.2333 -3.361,-0.0878 -1.73,-1.73 A2.4466,2.4466 0 0 1 1.73,1.73 ZM-37.5442,31.2646 T-37.1485,30.0207 -36.4346,27.8705 -36.1165,26.9642 A2.4819,2.4819 0 0 1 -31.3635,28.3958 T-31.5988,29.327 -32.0969,31.4595 -32.3597,32.6608 A2.6846,2.6846 0 0 1 -37.5442,31.2646 Z" stroke-linecap="round" fill="#e599f7"/></g></g><g transform="matrix(1, 0, 0, 1, 764.4642, 9807.1712)" opacity="0.5"><g transform="scale(1)"><path d="M1.4131,2.2199 T-0.8436,3.6448 -5.0665,6.4205 -9.1327,9.1396 -13.0979,11.8214 -16.7549,14.4475 -21.2331,18.097 -26.3036,22.1066 -30.0204,24.6612 -31.3531,25.5432 A2.6642,2.6642 0 0 1 -34.4069,21.1768 T-31.9984,19.3919 -27.3386,15.7877 -23.4197,12.6281 -19.8906,9.9828 -16.0672,7.3585 -12.0489,4.7359 -7.9491,2.0479 -3.6593,-0.7785 -1.4131,-2.2199 A2.6315,2.6315 0 0 1 1.4131,2.2199 Z" stroke-linecap="round" fill="#e599f7"/></g></g><g transform="matrix(1, 0, 0, 1, 784.3627, 9845.2379)" opacity="0.5"><g transform="scale(1)"><path d="M0.87,-2.4149 T2.5066,-2.4115 7.0104,-2.4034 12.7416,-2.7025 18.2783,-3.4188 23.3695,-3.9585 28.3142,-4.4816 33.1942,-4.5769 38.0249,-4.2463 42.8771,-4.2252 47.6427,-4.2467 52.9893,-4.4226 57.1331,-4.4157 58.3206,-4.2454 A2.5397,2.5397 0 0 1 57.6194,0.7854 T56.4306,0.6245 52.6537,0.6311 47.6551,0.7841 42.8528,0.7471 37.8583,0.6627 32.4105,0.3214 26.9436,0.3917 22.1186,0.9323 17.1394,1.5157 12.1205,2.1534 7.0104,2.4034 2.5066,2.4115 0.87,2.4149 A2.4149,2.4149 0 0 1 0.87,-2.4149 Z" stroke-linecap="round" fill="#e599f7"/></g></g><g transform="matrix(1, 0, 0, 1, 838.0021, 9793.3288)" opacity="0.5"><g transform="scale(1)"><path d="M2.3066,-0.3311 T2.5008,1.1039 2.8579,5.5673 3.0673,11.2091 3.1304,16.1118 3.1587,21.1801 3.1822,26.5848 3.2035,31.8106 3.2204,36.6351 3.2355,41.4575 3.5245,46.2309 3.8958,50.9856 3.9854,53.5648 A2.2566,2.2566 0 0 1 -0.5254,53.7152 T-0.676,51.176 -1.1647,46.3461 -1.4955,41.4575 -1.4805,36.6352 -1.4638,31.8109 -1.4439,26.5867 -1.4299,21.1913 -1.4356,16.1525 -1.49,11.3249 -1.7037,5.9794 -2.0892,1.7625 -2.3066,0.3311 A2.3303,2.3303 0 0 1 2.3066,-0.3311 Z" stroke-linecap="round" fill="#e599f7"/></g></g><g transform="matrix(1, 0, 0, 1, 797.34, 9802.8455)" opacity="0.5"><g transform="scale(1)"><path d="M1.365,1.365 T-0.2535,3.0196 -3.9372,6.9601 -8.3519,11.7521 -10.7014,14.2582 A1.9021,1.9021 0 0 1 -13.5186,11.7018 T-11.3263,9.2029 -6.9042,4.288 -3.0196,0.2535 -1.365,-1.365 A1.9304,1.9304 0 0 1 1.365,1.365 Z" stroke-linecap="round" fill="#e599f7"/></g></g><g transform="matrix(1, 0, 0, 1, 806.8567, 9805.4409)" opacity="0.5"><g transform="scale(1)"><path d="M1.7456,1.2473 T0.7394,2.696 -2.2136,6.1741 -5.6553,9.8377 -9.3572,13.6938 -13.2454,17.4249 -14.9267,18.934 A2.2271,2.2271 0 0 1 -17.9533,15.666 T-15.666,13.5681 -11.781,9.7445 -8.7755,6.52 -5.5985,3.3047 -2.7875,0.1704 -1.7456,-1.2473 A2.1454,2.1454 0 0 1 1.7456,1.2473 Z" stroke-linecap="round" fill="#e599f7"/></g></g><g transform="matrix(1, 0, 0, 1, 822.4294, 9807.1712)" opacity="0.5"><g transform="scale(1)"><path d="M2.0028,1.5021 T0.7688,3.134 -1.7758,6.306 -5.6601,10.5056 -10.6371,15.7158 -15.1279,20.5346 -18.5048,24.2825 -19.7941,25.7626 A2.3979,2.3979 0 0 1 -23.4659,22.6774 T-22.2301,21.1523 -18.8488,17.1855 -14.3443,12.2812 -10.6103,8.2966 -6.8398,4.2775 -3.2237,0.1392 -2.0028,-1.5021 A2.5035,2.5035 0 0 1 2.0028,1.5021 Z" stroke-linecap="round" fill="#e599f7"/></g></g><g transform="matrix(1, 0, 0, 1, 836.2718, 9809.7667)" opacity="0.5"><g transform="scale(1)"><path d="M2.0812,1.3866 T0.8488,3.2286 -1.9663,6.8111 -5.2062,10.0846 -8.8375,13.7661 -12.5109,17.7091 -17.0777,22.2518 -19.9452,24.9998 A2.3511,2.3511 0 0 1 -23.3148,21.7202 T-20.6564,18.7908 -16.2904,14.1131 -12.4257,10.1239 -7.3973,5.0909 -3.3036,0.4561 -2.0812,-1.3866 A2.5009,2.5009 0 0 1 2.0812,1.3866 Z" stroke-linecap="round" fill="#e599f7"/></g></g><g transform="matrix(1, 0, 0, 1, 839.7324, 9813.2273)" opacity="0.5"><g transform="scale(1)"><path d="M0.7,-2.4522 T2.1315,-2.0373 6.1823,-1.2742 10.9149,-0.8809 15.8294,-0.8221 20.7393,-0.8083 25.5771,-0.8137 30.8139,-0.834 35.9594,-0.621 40.6919,-0.2496 45.126,-0.0909 49.6217,0.1547 52.9608,0.6149 54.1439,0.8445 A2.6636,2.6636 0 0 1 53.1361,6.0755 T50.2868,5.6658 44.9903,5.214 39.9388,4.924 35.3279,4.4925 30.8137,4.2939 25.5755,4.2728 20.7314,4.2621 15.7866,4.2396 9.862,4.1087 4.4692,3.6273 0.7349,2.8556 -0.7,2.4522 A2.5501,2.5501 0 0 1 0.7,-2.4522 Z" stroke-linecap="round" fill="#e599f7"/></g></g><g transform="matrix(1, 0, 0, 1, 895.1022, 9802.8455)" opacity="0.5"><g transform="scale(1)"><path d="M2.132,0 T2.1416,2.2523 1.6872,8.427 1.2232,12.3494 A2.1068,2.1068 0 0 1 -2.9632,11.8706 T-2.5572,8.186 -2.1416,2.2507 -2.132,0 A2.132,2.132 0 0 1 2.132,0 Z" stroke-linecap="round" fill="#e599f7"/></g></g><g transform="matrix(1, 0, 0, 1, 887.3158, 9804.5758)" opacity="0.5"><g transform="scale(1)"><path d="M0.5926,1.2526 T-0.6108,2.7073 -3.3359,5.6305 -7.3938,9.4294 -9.9299,11.76 A1.9097,1.9097 0 0 1 -12.5701,9 T-11.2773,7.7166 -7.4101,4.0019 -3.5841,0.159 -2.3326,-1.2526 A1.9257,1.9257 0 0 1 0.5926,1.2526 Z" stroke-linecap="round" fill="#e599f7"/></g></g><g transform="matrix(1, 0, 0, 1, 880.3946, 9805.4409)" opacity="0.5"><g transform="scale(1)"><path d="M1.3998,1.6778 T0.1784,2.709 -2.8246,5.1477 -6.3619,7.6339 -9.1897,9.2425 -10.2618,9.7723 A2.2149,2.2149 0 0 1 -12.2382,5.8077 T-9.6931,4.3553 -5.5073,1.6293 -2.6332,-0.661 -1.3998,-1.6778 A2.185,2.185 0 0 1 1.3998,1.6778 Z" stroke-linecap="round" fill="#e599f7"/></g></g><g transform="matrix(1, 0, 0, 1, 870.8779, 9804.5758)" opacity="0.5"><g transform="scale(1)"><path d="M0.7829,2.7018 T-0.6449,3.3262 -4.3894,5.3713 -7.974,7.6649 -9.2419,8.5379 A1.9781,1.9781 0 0 1 -11.5181,5.3021 T-10.268,4.4038 -6.339,1.8725 -2.2215,-0.3611 -0.7829,-0.9618 A1.9921,1.9921 0 0 1 0.7829,2.7018 Z" stroke-linecap="round" fill="#e599f7"/></g></g><g transform="matrix(1, 0, 0, 1, 862.2264, 9802.8455)" opacity="0.5"><g transform="scale(1)"><path d="M0.9533,1.9065 T-0.6766,2.7382 -4.648,4.7659 -9.0312,7.0797 -12.3384,8.9305 -13.604,9.6634 A2.1755,2.1755 0 0 1 -15.816,5.9166 T-14.563,5.1625 -11.1352,3.2121 -6.6002,0.8595 -2.5965,-1.1016 -0.9533,-1.9065 A2.1315,2.1315 0 0 1 0.9533,1.9065 Z" stroke-linecap="round" fill="#e599f7"/></g></g><g transform="matrix(1, 0, 0, 1, 893.3719, 9796.7894)" opacity="0.5"><g transform="scale(1)"><path d="M-2.0017,0 T-2.0018,-1.6366 -2.0002,-5.3135 -2.3031,-9.5491 -2.7215,-14.0433 -2.8521,-18.3477 -2.8744,-22.8338 -2.8769,-27.526 -2.8332,-32.1737 -2.7923,-34.6099 A1.9223,1.9223 0 0 1 1.0523,-34.6101 T1.0729,-33.3262 1.1175,-29.4446 1.1425,-24.5195 1.1548,-19.3068 1.2584,-14.3435 1.6747,-9.8096 2.0002,-5.3135 2.0018,-1.6366 2.0017,0 A2.0017,2.0017 0 0 1 -2.0017,0 Z" stroke-linecap="round" fill="#e599f7"/></g></g><g transform="matrix(1, 0, 0, 1, 892.5067, 9762.1833)" opacity="0.5"><g transform="scale(1)"><path d="M0.2749,-2.1862 T1.9088,-1.9601 5.9401,-1.7644 10.4119,-1.9194 14.5175,-2.3848 18.5852,-3.1384 22.8481,-3.6836 27.5899,-3.8732 32.6393,-4.2635 37.1332,-5.0088 41.1195,-5.867 45.3899,-6.4517 50.5162,-6.6043 55.2425,-6.6086 57.0864,-6.5991 A2.2691,2.2691 0 0 1 57.1136,-2.0609 T53.6267,-1.9981 47.1136,-1.8547 41.9198,-1.3301 37.0733,-0.4065 32.2646,0.2845 27.6794,0.5129 22.2427,0.7276 17.2511,1.329 12.055,2.0949 5.9364,2.5071 1.3644,2.3716 -0.2749,2.1862 A2.2034,2.2034 0 0 1 0.2749,-2.1862 Z" stroke-linecap="round" fill="#e599f7"/></g></g><g transform="matrix(1, 0, 0, 1, 946.1462, 9756.9924)" opacity="0.5"><g transform="scale(1)"><path d="M2.2042,0 T2.1863,1.4332 1.9322,5.4338 1.2495,10.5452 0.6295,15.6943 0.4484,21.3558 0.4504,26.8331 0.4341,32.3013 0.3843,36.7092 0.3604,38.0701 A2.0904,2.0904 0 0 1 -3.8204,38.0699 T-3.8442,36.709 -3.8932,33.3617 -3.9128,29.0766 -3.8939,24.5087 -3.8376,19.4437 -3.5084,14.1585 -2.8707,9.4815 -2.3438,5.0802 -2.1863,1.4332 -2.2042,0 A2.2042,2.2042 0 0 1 2.2042,0 Z" stroke-linecap="round" fill="#e599f7"/></g></g><g transform="matrix(1, 0, 0, 1, 940.9552, 9782.947)" opacity="0.5"><g transform="scale(1)"><path d="M0.9863,1.7274 T-0.4416,2.555 -4.5199,5.066 -9.2618,8.2627 -13.7679,11.3534 -16.1828,12.9309 A2.0183,2.0183 0 0 1 -18.4172,9.5691 T-16.0232,7.9503 -11.5029,4.8125 -6.62,1.592 -2.4248,-0.9184 -0.9863,-1.7274 A1.9891,1.9891 0 0 1 0.9863,1.7274 Z" stroke-linecap="round" fill="#e599f7"/></g></g><g transform="matrix(1, 0, 0, 1, 937.4946, 9772.5652)" opacity="0.5"><g transform="scale(1)"><path d="M1.3883,1.621 T-0.0446,2.8489 -4.5024,6.2063 -9.5418,9.6666 -13.2365,12.1126 -17.5368,14.8352 -21.6113,17.3485 -23.0656,18.2542 A2.1504,2.1504 0 0 1 -25.3744,14.6258 T-23.9379,13.6921 -19.9282,11.1351 -15.6568,8.4097 -11.8959,5.9841 -7.0442,2.7468 -2.8217,-0.394 -1.3883,-1.621 A2.1342,2.1342 0 0 1 1.3883,1.621 Z" stroke-linecap="round" fill="#e599f7"/></g></g><g transform="matrix(1, 0, 0, 1, 930.5734, 9768.2394)" opacity="0.5"><g transform="scale(1)"><path d="M0.4695,1.786 T-1.1603,3.0231 -4.5381,5.3832 -8.3715,7.8905 -13.1772,11.2149 -18.423,14.5469 -22.4886,16.7377 -24.0288,17.5368 A2.2349,2.2349 0 0 1 -26.1512,13.6032 T-24.6376,12.7547 -20.8132,10.5657 -15.7539,7.2918 -9.2509,3.0039 -3.8529,-0.5682 -2.2095,-1.786 A2.2325,2.2325 0 0 1 0.4695,1.786 Z" stroke-linecap="round" fill="#e599f7"/></g></g><g transform="matrix(1, 0, 0, 1, 915.8658, 9766.5091)" opacity="0.5"><g transform="scale(1)"><path d="M1.1451,1.6026 T-0.2906,2.623 -4.19,5.3649 -9.0464,8.233 -14.0729,10.6133 -17.8226,12.4317 -18.9383,13.0165 A2.0113,2.0113 0 0 1 -20.8617,9.4835 T-19.7649,8.8639 -15.932,6.9521 -10.9186,4.6394 -6.324,2.0358 -2.5758,-0.5749 -1.1451,-1.6026 A1.9696,1.9696 0 0 1 1.1451,1.6026 Z" stroke-linecap="round" fill="#e599f7"/></g></g><g transform="matrix(1, 0, 0, 1, 1209.1524, 9800.25)" opacity="0.5"><g transform="scale(1)"><path d="M2.0211,0.2902 T1.8017,1.7213 1.3831,5.6743 1.1532,10.5886 1.1209,15.5882 0.7551,20.4557 0.3398,25.0161 -0.0857,29.5693 -0.5035,33.8395 -0.551,37.8992 -0.9192,42.1555 -1.3312,46.9035 -1.0119,51.505 -0.5789,56.2606 -0.5117,61.0421 -0.5154,65.8033 -1.2049,70.4135 -1.8896,72.3552 A2.0872,2.0872 0 0 1 -5.3758,70.0591 T-5.0279,69.2655 -4.6862,65.8051 -4.6993,61.0564 -4.7552,56.431 -5.1628,51.6673 -5.4528,46.7501 -5.0117,41.9781 -4.6171,37.2294 -4.4715,32.3607 -4.0239,27.4502 -3.58,22.7402 -3.1575,18.69 -2.8452,14.0096 -2.7835,9.0376 -2.5683,4.6353 -2.2132,1.145 -2.0211,-0.2902 A2.0418,2.0418 0 0 1 2.0211,0.2902 ZM-3.8642,73.2815 T-4.6791,73.1905 -7.5805,72.71 -12.0563,72.2729 -16.8545,72.2213 -21.5036,72.5872 -25.7829,73.0052 -30.4477,73.0665 -35.8197,72.4641 -40.9017,71.6334 -44.825,70.0471 -46.7418,66.3786 -47.1104,61.8977 -46.7931,57.3696 -46.4015,52.8633 -46.3817,48.2285 -46.4184,43.285 -46.4529,38.2454 -46.844,33.2548 -47.2886,28.6523 -46.759,23.474 -45.6415,18.0616 -45.0021,13.5795 -44.8797,9.4488 -44.229,4.8246 -43.2534,1.2454 -42.9242,0.2263 A2.3539,2.3539 0 0 1 -38.3958,1.5137 T-38.8518,3.3711 -39.6338,7.7286 -40.0503,12.5327 -40.4507,16.846 -41.3638,21.0532 -42.2599,26.2094 -42.3963,31.2783 -42.0104,35.3873 -41.7984,39.9471 -41.841,44.8717 -41.902,49.6416 -42.0601,54.4485 -42.4909,59.0701 -42.7477,63.2881 -40.9921,66.3395 -36.6807,67.9236 -31.9551,68.6135 -26.9199,68.723 -21.6478,68.3103 -16.8482,67.9616 -11.8706,68.0439 -7.2833,68.5209 -4.315,69.0309 -3.4012,69.1328 A2.0872,2.0872 0 0 1 -3.8642,73.2815 Z" stroke-linecap="round" fill="#40c057"/></g></g><g transform="matrix(1, 0, 0, 1, 1185.7933, 9803.7106)" opacity="0.5"><g transform="scale(1)"><path d="M1.2692,1.2692 T0.0479,2.5028 -3.1249,5.9091 -6.8631,10.2438 -9.6881,14.1357 -11.9521,17.901 -13.1775,19.9364 A1.7805,1.7805 0 0 1 -16.2425,18.1236 T-15.0491,16.0693 -12.7232,12.0742 -9.7553,7.9356 -5.8281,3.4555 -2.5028,-0.0479 -1.2692,-1.2692 A1.7949,1.7949 0 0 1 1.2692,1.2692 Z" stroke-linecap="round" fill="#40c057"/></g></g><g transform="matrix(1, 0, 0, 1, 1192.7145, 9808.0364)" opacity="0.5"><g transform="scale(1)"><path d="M1.7601,0.7818 T0.9377,2.6287 -1.9819,7.3632 -6.0498,12.5521 -9.4205,16.698 -12.8554,20.9498 -16.6347,26.0042 -18.3792,28.6515 A1.8046,1.8046 0 0 1 -21.4208,26.7085 T-19.6047,23.7817 -15.8434,18.5362 -12.4167,14.2475 -9.0777,10.1378 -5.3044,5.4459 -2.5743,1.056 -1.7601,-0.7818 A1.9259,1.9259 0 0 1 1.7601,0.7818 Z" stroke-linecap="round" fill="#40c057"/></g></g><g transform="matrix(1, 0, 0, 1, 1198.7706, 9812.3622)" opacity="0.5"><g transform="scale(1)"><path d="M1.852,0.8544 T0.6152,3.5108 -1.7015,8.227 -3.9874,12.2335 -7.1371,17.4242 -10.9045,23.5989 -14.5482,29.0712 -18.1872,34.4767 -20.006,37.3405 A1.9075,1.9075 0 0 1 -23.254,35.3395 T-21.4007,32.2431 -17.8695,26.7389 -14.4182,21.4825 -10.6355,15.3375 -7.4892,10.2278 -5.3202,6.4448 -3.0701,1.8105 -1.852,-0.8544 A2.0395,2.0395 0 0 1 1.852,0.8544 Z" stroke-linecap="round" fill="#40c057"/></g></g><g transform="matrix(1, 0, 0, 1, 1197.0403, 9835.7213)" opacity="0.5"><g transform="scale(1)"><path d="M1.8247,0.8104 T0.9996,2.65 -1.3101,7.5274 -4.395,13.3943 -7.2184,18.374 -10.3467,22.9888 -12.2517,25.4529 A2.0107,2.0107 0 0 1 -15.4283,22.9871 T-13.7647,20.8539 -10.7793,16.4323 -7.9461,11.5396 -4.9411,5.9076 -2.6362,1.0347 -1.8247,-0.8104 A1.9966,1.9966 0 0 1 1.8247,0.8104 Z" stroke-linecap="round" fill="#40c057"/></g></g><g transform="matrix(1, 0, 0, 1, 1261.9267, 9797.6546)" opacity="0.5"><g transform="scale(1)"><path d="M2.9066,0.5848 T2.4851,2.0153 1.4283,5.5626 0.2708,10.0745 -0.3675,15.0258 -0.718,19.9661 -1.1266,24.3683 -1.3257,29.1563 -1.3639,34.564 -0.9673,39.1444 -0.7823,43.5441 -3.0373,47.8515 -7.5736,49.7109 -12.161,49.7278 -16.3805,49.74 -20.5677,49.7465 -25.4447,49.7502 -31.051,49.7537 -37.0125,49.541 -42.6208,48.7782 -47.9168,48.5207 -53.6586,48.3825 -56.5296,47.9533 A2.1245,2.1245 0 0 1 -55.9304,43.7467 T-52.7173,44.0311 -47.052,44.0865 -42.0116,44.4387 -36.6264,45.2122 -31.051,45.4063 -25.4447,45.4098 -20.5676,45.4136 -16.3802,45.4202 -12.1599,45.4332 -7.4017,44.7786 -4.8237,41.5895 -5.2444,36.8712 -5.559,32.4767 -5.517,28.2281 -5.2592,23.8501 -4.83,19.5098 -4.4727,14.6186 -3.7934,9.269 -2.6178,4.5446 -1.5682,0.8511 -1.1666,-0.5848 A2.1189,2.1189 0 0 1 2.9066,0.5848 Z" stroke-linecap="round" fill="#40c057"/></g></g><g transform="matrix(1, 0, 0, 1, 1254.1403, 9819.2834)" opacity="0.5"><g transform="scale(1)"><path d="M2.072,1.8064 T0.8398,2.6206 -3.5348,6.0791 -8.4189,10.3085 -12.7964,14.4001 -17.6297,18.5626 -21.0605,20.9298 -22.2936,21.641 A2.0416,2.0416 0 0 1 -24.4264,18.159 T-23.2325,17.3837 -20.2581,15.1792 -15.7873,11.2002 -11.3015,7.0329 -6.1464,2.627 -1.5594,-0.984 -0.332,-1.8064 A2.1698,2.1698 0 0 1 2.072,1.8064 Z" stroke-linecap="round" fill="#40c057"/></g></g><g transform="matrix(1, 0, 0, 1, 1246.3539, 9810.6318)" opacity="0.5"><g transform="scale(1)"><path d="M1.1797,2.0661 T-0.2603,2.8726 -4.2,5.159 -9.1927,8.4973 -14.3231,12.8254 -18.4778,16.7922 -22.0737,20.1047 -26.8545,22.8223 -29.5565,23.7241 A2.2156,2.2156 0 0 1 -31.0035,19.5359 T-29.0072,18.8146 -25.1856,16.4687 -21.8146,13.349 -17.4869,9.2939 -11.8645,4.662 -6.5283,1.0922 -2.6061,-1.236 -1.1797,-2.0661 A2.3792,2.3792 0 0 1 1.1797,2.0661 Z" stroke-linecap="round" fill="#40c057"/></g></g><g transform="matrix(1, 0, 0, 1, 1229.916, 9808.9015)" opacity="0.5"><g transform="scale(1)"><path d="M0.4845,1.6932 T-1.5472,3.3473 -6.7927,7.4982 -12.966,12.341 -15.9254,14.6868 A2.1915,2.1915 0 0 1 -18.6746,11.2732 T-15.664,8.8112 -9.4987,3.9471 -4.2843,-0.0741 -2.2245,-1.6932 A2.1683,2.1683 0 0 1 0.4845,1.6932 Z" stroke-linecap="round" fill="#40c057"/></g></g><g transform="matrix(1, 0, 0, 1, 1312.1055, 9799.3849)" opacity="0.5"><g transform="scale(1)"><path d="M2.3478,0 T2.3351,1.4332 2.0504,5.7526 1.5852,11.2932 1.392,13.9476 A2.2645,2.2645 0 0 1 -3.132,13.7324 T-2.8667,10.5345 -2.4619,5.1015 -2.3351,1.4332 -2.3478,0 A2.3478,2.3478 0 0 1 2.3478,0 ZM-3.1344,13.8228 T-3.1264,12.593 -3.1184,11.3631 A2.2671,2.2671 0 0 1 1.4157,11.3974 T1.4051,12.6273 1.3944,13.8572 A2.2645,2.2645 0 0 1 -3.1344,13.8228 ZM-1.5948,13.522 T-2.4845,13.2043 -6.5593,13.3032 -12.3555,14.162 -17.4552,14.8805 -22.7999,15.2615 -28.2806,15.4016 -34.0255,16.1721 -39.5496,17.3531 -44.1049,17.93 -49.066,17.1584 -51.8755,16.2558 A2.5562,2.5562 0 0 1 -50.2045,11.4242 T-47.3797,12.1224 -42.4727,12.6479 -37.2643,11.8035 -31.6745,10.8281 -26.5841,10.5311 -21.117,10.4275 -15.8204,9.8909 -10.2565,9.0341 -4.82,8.5164 -1.2995,8.8338 -0.1079,9.2385 A2.2671,2.2671 0 0 1 -1.5948,13.522 Z" stroke-linecap="round" fill="#40c057"/></g></g><g transform="matrix(1, 0, 0, 1, 1271.4434, 9801.1152)" opacity="0.5"><g transform="scale(1)"><path d="M1.6717,0.9544 T0.8582,2.3904 -1.7506,6.7433 -3.5459,9.6601 A1.9296,1.9296 0 0 1 -6.8341,7.6399 T-5.076,4.7731 -2.4948,0.476 -1.6717,-0.9544 A1.9249,1.9249 0 0 1 1.6717,0.9544 Z" stroke-linecap="round" fill="#40c057"/></g></g><g transform="matrix(1, 0, 0, 1, 1285.2858, 9800.25)" opacity="0.5"><g transform="scale(1)"><path d="M1.4898,0.9932 T0.6887,2.2227 -0.9487,5.9074 -1.7849,8.3625 A1.7702,1.7702 0 0 1 -5.1351,7.2175 T-4.1479,4.3375 -2.3252,0.2321 -1.4898,-0.9932 A1.7905,1.7905 0 0 1 1.4898,0.9932 Z" stroke-linecap="round" fill="#40c057"/></g></g><g transform="matrix(1, 0, 0, 1, 1300.8585, 9799.3849)" opacity="0.5"><g transform="scale(1)"><path d="M1.6556,0.8294 T1.0439,2.0583 -0.6655,5.8932 -1.7632,8.4993 A1.839,1.839 0 0 1 -5.1568,7.0807 T-4.0243,4.3516 -2.2737,0.3966 -1.6556,-0.8294 A1.8517,1.8517 0 0 1 1.6556,0.8294 Z" stroke-linecap="round" fill="#40c057"/></g></g><g transform="matrix(1, 0, 0, 1, 1316.4313, 9797.6546)" opacity="0.5"><g transform="scale(1)"><path d="M-2.2772,-0.2863 T-2.067,-1.9222 -1.6954,-6.1355 -1.2667,-11.3576 -0.8381,-16.4355 -0.3083,-21.0281 0.1672,-25.27 1.5292,-29.4106 4.7141,-31.9483 9.2929,-32.7533 14.1822,-33.3168 18.6752,-33.4028 23.3715,-33.1329 28.0395,-33.0205 32.4959,-33.2087 37.1977,-33.6195 41.6801,-33.9113 46.0742,-34.0063 51.0195,-34.0384 55.5472,-32.3263 57.4544,-28.4084 57.0665,-23.2338 56.5804,-17.8422 56.3957,-13.1402 56.3515,-8.4586 55.9918,-3.8788 55.4399,1.3456 55.2329,4.3919 A2.4637,2.4637 0 0 1 50.3071,4.2681 T50.2696,1.659 50.5929,-2.9036 50.9429,-6.9302 50.9242,-11.6696 50.9597,-16.3633 51.3475,-21.096 51.7328,-26.0207 49.3586,-28.2487 44.4368,-28.2482 39.0119,-28.1178 33.1611,-27.7824 27.9373,-27.6182 22.7716,-27.9094 17.2755,-28.2773 11.875,-28.0788 6.9701,-27.4795 4.7126,-24.9085 4.2233,-20.6275 3.6738,-15.936 3.2508,-10.8612 2.8496,-5.741 2.4785,-1.3509 2.2772,0.2863 A2.2951,2.2951 0 0 1 -2.2772,-0.2863 Z" stroke-linecap="round" fill="#40c057"/></g></g><g transform="matrix(1, 0, 0, 1, 1365.7449, 9782.0818)" opacity="0.5"><g transform="scale(1)"><path d="M1.3112,1.3112 T-0.2827,2.9907 -3.3839,6.0198 -7.1452,9.5143 -11.7977,13.2506 -15.029,15.4019 -15.8618,15.9617 A2.1109,2.1109 0 0 1 -18.2439,12.476 T-16.097,11.1208 -11.7634,7.8908 -7.1231,3.946 -2.9904,0.2824 -1.3112,-1.3112 A1.8544,1.8544 0 0 1 1.3112,1.3112 ZM-18.6205,15.6325 T-19.1632,14.9988 -19.7059,14.365 A2.0681,2.0681 0 0 1 -16.6341,11.595 T-16.0596,12.2001 -15.4852,12.8052 A2.1109,2.1109 0 0 1 -18.6205,15.6325 Z" stroke-linecap="round" fill="#40c057"/></g></g><g transform="matrix(1, 0, 0, 1, 1357.0934, 9770.8348)" opacity="0.5"><g transform="scale(1)"><path d="M1.6034,2.7421 T0.1744,3.9746 -3.4836,6.9343 -8.2977,10.5405 -13.3158,14.3483 -17.8499,17.6543 -21.7612,20.039 -24.6768,21.5508 -25.7823,22.0553 A2.3921,2.3921 0 0 1 -27.8577,17.7447 T-25.2243,16.2422 -20.8119,13.5578 -16.4931,10.3606 -11.359,6.504 -6.6214,3.0525 -3.0407,0.2202 -1.6034,-1.0021 A2.4649,2.4649 0 0 1 1.6034,2.7421 Z" stroke-linecap="round" fill="#40c057"/></g></g><g transform="matrix(1, 0, 0, 1, 1341.5207, 9774.2955)" opacity="0.5"><g transform="scale(1)"><path d="M0.8796,1.9803 T-0.9701,2.7822 -5.9135,4.7831 -11.2313,6.7758 -15.5175,8.0995 -19.9387,8.8508 -22.2978,9.0721 A2.1607,2.1607 0 0 1 -22.6822,4.7679 T-20.5775,4.5905 -16.4427,3.9066 -12.453,2.6976 -7.5215,0.8422 -2.7146,-1.1456 -0.8796,-1.9803 A2.1669,2.1669 0 0 1 0.8796,1.9803 Z" stroke-linecap="round" fill="#40c057"/></g></g><g transform="matrix(1, 0, 0, 1, 1421.1147, 9791.5985)" opacity="0.5"><g transform="scale(1)"><path d="M-2.0633,0 T-2.0586,-1.8423 -2.2572,-6.9116 -2.6298,-13.7477 -2.8504,-20.6525 -2.9243,-27.0529 -2.9811,-33.7251 -3.0456,-40.2658 -3.2908,-45.8813 -3.6963,-51.0789 -3.9418,-56.1272 -4.0159,-61.0866 -4.0517,-66.2113 -4.2687,-70.9683 -4.6891,-76.0334 -4.945,-81.1863 -4.9916,-85.7503 -4.9985,-90.1471 -6.9261,-93.6787 -11.4692,-94.8263 -16.1718,-94.3985 -20.5649,-93.9973 -24.9189,-93.5478 -29.0929,-93.4045 -34.0648,-93.3607 -39.7317,-93.6281 -43.2918,-91.7167 -44.0899,-86.8297 -44.4786,-82.0686 -44.9061,-77.6843 -45.0338,-73.0457 -45.0862,-67.9398 -45.1161,-62.7897 -45.141,-58.2986 -45.1704,-53.5215 -44.8921,-48.5837 -44.4915,-44.2809 -44.3737,-40.1796 -44.3626,-35.6285 -44.3658,-30.8824 -44.9871,-25.7835 -45.9151,-21.6224 -46.2251,-20.2779 A2.2765,2.2765 0 0 1 -50.6749,-21.2421 T-50.1707,-23.7274 -49.3729,-28.2375 -49.079,-32.616 -49.087,-37.3036 -49.1543,-42.0658 -49.5902,-46.8962 -49.9797,-51.7268 -50.0066,-56.2988 -50.0328,-61.1225 -50.0509,-66.3044 -50.0518,-70.8674 -50.0104,-75.4755 -49.7885,-80.5089 -49.4261,-85.4043 -49.1864,-89.8771 -48.5379,-94.1031 -45.4378,-97.7678 -40.8065,-98.9894 -35.9702,-98.7144 -31.1414,-98.729 -26.2924,-98.8154 -20.941,-99.2109 -16.337,-99.5482 -11.5001,-99.8732 -6.2129,-99.8713 -1.9001,-98.2309 0.0114,-94.5786 -0.071,-90.1956 -0.1971,-85.7691 -0.1779,-81.2742 0.0155,-76.5058 0.4007,-71.3718 0.6041,-66.2237 0.6006,-61.1258 0.6427,-56.272 0.8156,-51.5252 1.145,-46.2122 1.3091,-40.2677 1.2536,-33.7322 1.2295,-27.0783 1.2731,-20.7343 1.4756,-14.0255 1.8457,-7.1273 2.0586,-1.8423 2.0633,0 A2.0633,2.0633 0 0 1 -2.0633,0 Z" stroke-linecap="round" fill="#40c057"/></g></g><g transform="matrix(1, 0, 0, 1, 1419.3844, 9767.3742)" opacity="0.5"><g transform="scale(1)"><path d="M1.4249,1.4249 T-1.2328,4.0892 -6.1809,8.6398 -11.3925,12.9236 -16.4592,17.4373 -21.6779,21.8251 -24.7509,24.0967 A2.0048,2.0048 0 0 1 -27.1491,20.8833 T-24.4155,18.8213 -19.2778,14.4291 -13.9632,9.7302 -8.9024,5.6253 -4.0885,1.232 -1.4249,-1.4249 A2.0151,2.0151 0 0 1 1.4249,1.4249 Z" stroke-linecap="round" fill="#40c057"/></g></g><g transform="matrix(1, 0, 0, 1, 1409.8677, 9744.8803)" opacity="0.5"><g transform="scale(1)"><path d="M1.5128,1.2379 T-0.334,3.4863 -3.8189,7.4064 -7.3786,11.2311 -11.1333,15.4191 -15.0749,19.461 -18.4001,22.3251 -19.6171,23.1822 A1.9276,1.9276 0 0 1 -21.9029,20.0778 T-20.7233,19.1702 -17.7438,16.461 -14.1687,12.751 -10.3197,8.5766 -6.7173,4.7909 -3.3507,1.0167 -1.5128,-1.2379 A1.9547,1.9547 0 0 1 1.5128,1.2379 Z" stroke-linecap="round" fill="#40c057"/></g></g><g transform="matrix(1, 0, 0, 1, 1404.6768, 9720.656)" opacity="0.5"><g transform="scale(1)"><path d="M1.8499,1.3874 T0.6169,3.0195 -2.8513,7.8553 -7.4557,14.2299 -12.4803,19.903 -16.8514,23.7123 -18.5671,25.0194 A2.1284,2.1284 0 0 1 -21.2329,21.7006 T-19.5866,20.3072 -15.7389,16.7265 -12.1894,12.804 -8.6784,8.2388 -5.4046,3.6519 -3.0718,0.2537 -1.8499,-1.3874 A2.3123,2.3123 0 0 1 1.8499,1.3874 Z" stroke-linecap="round" fill="#40c057"/></g></g><g transform="matrix(1, 0, 0, 1, 1396.0253, 9700.7575)" opacity="0.5"><g transform="scale(1)"><path d="M0.6075,1.773 T-1.8263,3.844 -6.5477,8.3202 -10.4298,12.7589 -13.6869,17.1489 -15.3494,19.5054 A2.3639,2.3639 0 0 1 -19.2506,16.8346 T-18.4032,15.561 -16.0229,12.0542 -12.4177,7.3317 -8.8223,3.5552 -4.8234,0.2475 -2.3475,-1.773 A2.308,2.308 0 0 1 0.6075,1.773 Z" stroke-linecap="round" fill="#40c057"/></g></g><g transform="matrix(1, 0, 0, 1, 1254.1403, 9840.047)" opacity="0.5"><g transform="scale(1)"><path d="M2.2206,-0.2233 T2.4263,1.8224 2.9393,6.1356 3.8133,11.8223 5.0212,17.9119 6.4303,22.5845 8.3425,27.4652 10.8256,33.0125 13.1466,37.7929 15.2597,41.6788 17.6675,45.5486 20.3103,49.2885 23.3851,52.9441 26.8232,57.0702 30.2878,61.3279 33.7593,65.6263 37.1546,69.6447 40.6378,73.1715 44.3648,76.2593 48.1159,79.3826 51.471,82.8658 55.4447,86.4634 58.9925,88.9146 60.0733,89.5522 A2.4903,2.4903 0 0 1 57.5867,93.8678 T55.648,92.7695 52.0637,90.5251 48.9861,87.7826 46.1564,84.6506 43.0788,81.6364 39.1727,78.4226 35.1775,74.7791 31.6854,70.7052 28.2435,66.3817 24.8197,62.0879 21.4493,57.9179 18.1063,54.0102 15.0881,50.1259 12.5213,46.0956 10.1387,41.8701 8.0225,37.7815 5.9272,32.9942 3.9323,28.1886 2.2171,24.0097 0.6562,18.7613 -0.6127,12.3963 -1.4926,6.6584 -2.0148,2.2691 -2.2206,0.2233 A2.2318,2.2318 0 0 1 2.2206,-0.2233 Z" stroke-linecap="round" fill="#f2f2f2"/></g></g><g transform="matrix(1, 0, 0, 1, 1338.9252, 9930.888)" opacity="1"><g transform="scale(1)"><path d="M-2.3822,0.6801 T-2.7729,-0.7149 -3.5735,-2.4511 -3.9834,-2.7924 A2.486,2.486 0 0 1 -0.1522,-5.9615 T0.6874,-4.7922 1.9546,-2.1515 2.3822,-0.6801 A2.4774,2.4774 0 0 1 -2.3822,0.6801 ZM-0.8381,-2.2164 T-1.5636,-1.8056 -3.5267,0.2606 -5.3732,4.2945 -6.0611,8.8994 -5.0034,13.5391 -3.565,19.0457 -4.9283,24.5024 -9.8134,28.2557 -14.5209,29.8882 -16.0083,30.1309 A2.4887,2.4887 0 0 1 -16.8717,25.2291 T-13.9421,24.4327 -9.4703,22.0672 -8.5921,18.3159 -10.1502,13.6437 -10.973,8.6817 -10.4824,4.0119 -8.9361,-0.1962 -6.3047,-3.9422 -4.0489,-6.1078 -3.2975,-6.5375 A2.486,2.486 0 0 1 -0.8381,-2.2164 Z" stroke-linecap="round" fill="#f2f2f2"/></g></g><g transform="matrix(1, 0, 0, 1, 1332.8692, 9943.0001)" opacity="1"><g transform="scale(1)"><path d="M1.4744,1.4744 T1.0606,1.9011 -1.247,3.1465 -6.7852,3.8853 -10.4295,3.8054 A2.076,2.076 0 0 1 -10.3305,-0.3454 T-8.5808,-0.3261 -4.5572,-0.4991 -1.8789,-1.0828 -1.4744,-1.4744 A2.0852,2.0852 0 0 1 1.4744,1.4744 Z" stroke-linecap="round" fill="#f2f2f2"/></g></g><g transform="matrix(1, 0, 0, 1, 1353.6328, 9925.6971)" opacity="1"><g transform="scale(1)"><path d="M2.0588,1.7176 T1.0218,2.9317 -1.0654,5.8622 -3.2495,9.8918 -4.9815,14.2923 -5.8252,18.7772 -5.6253,23.4597 -3.0494,27.933 -0.9189,30.1214 A2.5284,2.5284 0 0 1 -4.2811,33.8986 T-6.359,31.8766 -9.6617,27.8113 -11.1348,23.5401 -11.0477,18.2937 -9.9998,12.823 -7.9383,7.5995 -5.3352,2.7961 -3.0699,-0.4768 -2.0588,-1.7176 A2.6812,2.6812 0 0 1 2.0588,1.7176 Z" stroke-linecap="round" fill="#f2f2f2"/></g></g><g transform="matrix(1, 0, 0, 1, 1359.6889, 9938.6744)" opacity="1"><g transform="scale(1)"><path d="M1.7715,0.8875 T1.17,2.1133 0.1915,5.679 1.6412,9.0664 4.8787,8.583 6.6125,5.3102 6.9353,3.5683 A2.0816,2.0816 0 0 1 11.0869,3.2574 T11.1408,4.664 10.127,8.3709 7.3326,12.2045 3.1546,14.1409 -1.3216,13.0399 -3.8,9.5062 -3.6407,4.5236 -2.3998,0.3416 -1.7715,-0.8875 A1.9814,1.9814 0 0 1 1.7715,0.8875 ZM9.0914,5.4929 T8.8026,5.5025 8.5137,5.5121 A2.0785,2.0785 0 0 1 8.3533,1.3582 T8.6421,1.3455 8.9308,1.3328 A2.0816,2.0816 0 0 1 9.0914,5.4929 ZM10.4147,4.0639 T10.2195,4.64 9.7876,7.2323 12.336,10.5261 15.1211,11.8038 A2.0773,2.0773 0 0 1 14.2989,15.8762 T11.2074,15.1084 6.7552,12.2337 5.6538,7.3551 6.1828,3.6949 6.4524,2.8064 A2.0785,2.0785 0 0 1 10.4147,4.0639 Z" stroke-linecap="round" fill="#f2f2f2"/></g></g><g transform="matrix(1, 0, 0, 1, 1381.3177, 9951.6516)" opacity="1"><g transform="scale(1)"><path d="M0.2749,-1.9147 T1.75,-1.6911 4.8961,0.2055 5.8164,4.1355 3.71,8.1005 1.3895,10.4976 0.4247,11.1866 A1.958,1.958 0 0 1 -1.9754,8.0923 T-0.8473,7.2056 1.3942,4.3047 1.1164,2.1026 -0.2749,1.9147 A1.9343,1.9343 0 0 1 0.2749,-1.9147 ZM0.6961,8.3477 T1.2643,8.9968 4.5437,10.3545 7.2549,11.0631 A1.946,1.946 0 0 1 6.5851,14.8969 T5.5132,14.7282 1.9073,13.6662 -1.4367,11.8521 -2.2468,10.9312 A1.958,1.958 0 0 1 0.6961,8.3477 Z" stroke-linecap="round" fill="#f2f2f2"/></g></g><g transform="matrix(1, 0, 0, 1, 1396.0253, 9924.8319)" opacity="1"><g transform="scale(1)"><path d="M2.0236,-0.8682 T2.6295,0.5702 3.9503,4.2545 5.121,8.8475 6.2286,14.761 7.385,21.9333 7.83,28.7689 7.0672,34.3308 4.5041,39.2893 2.6441,41.9155 A2.1734,2.1734 0 0 1 -0.9041,39.4045 T-0.0282,38.1325 1.8202,35.097 3.2117,31.2887 3.3976,26.0462 2.8439,20.8614 1.9053,15.4319 0.9373,9.9854 -0.0943,5.8527 -1.3997,2.2961 -2.0236,0.8682 A2.2019,2.2019 0 0 1 2.0236,-0.8682 Z" stroke-linecap="round" fill="#f2f2f2"/></g></g><g transform="matrix(1, 0, 0, 1, 1427.1707, 9923.9668)" opacity="1"><g transform="scale(1)"><path d="M2.1387,0.8232 T1.0974,3.4772 -0.9104,8.3889 -3.1858,13.2223 -5.987,18.9153 -8.8372,25.0555 -11.0699,30.0106 -11.9447,31.9428 A2.0544,2.0544 0 0 1 -15.7353,30.3572 T-14.9738,28.3776 -12.8676,23.134 -10.0196,16.8112 -7.2654,11.3151 -5.0834,6.6945 -3.1455,1.8441 -2.1387,-0.8232 A2.2917,2.2917 0 0 1 2.1387,0.8232 Z" stroke-linecap="round" fill="#f2f2f2"/></g></g><g transform="matrix(1, 0, 0, 1, 1430.6313, 9923.9668)" opacity="1"><g transform="scale(1)"><path d="M2.0453,0 T2.0412,2.2515 2.0446,7.6593 2.06,13.0502 2.0775,18.5017 2.0683,24.8818 3.2328,30.9649 4.4158,33.8849 A1.9552,1.9552 0 0 1 0.7842,35.3351 T0.0753,33.6291 -1.3417,30.0385 -2.0683,24.9363 -2.0775,18.5017 -2.06,13.0502 -2.0446,7.6593 -2.0412,2.2515 -2.0453,0 A2.0453,2.0453 0 0 1 2.0453,0 Z" stroke-linecap="round" fill="#f2f2f2"/></g></g><g transform="matrix(1, 0, 0, 1, 1433.2268, 9955.1122)" opacity="1"><g transform="scale(1)"><path d="M0.2525,2.0082 T-1.3839,2.2157 -5.6579,2.6053 -11.1802,3.2132 -15.8567,4.1052 -17.6484,4.5713 A2.0391,2.0391 0 0 1 -18.6916,0.6287 T-16.9037,0.1477 -11.7966,-0.8176 -6.0017,-1.4511 -1.8892,-1.8042 -0.2525,-2.0082 A2.024,2.024 0 0 1 0.2525,2.0082 Z" stroke-linecap="round" fill="#f2f2f2"/></g></g><g transform="matrix(1, 0, 0, 1, 1459.1814, 9930.888)" opacity="1"><g transform="scale(1)"><path d="M2.2538,1.1269 T1.0103,3.5738 -1.9987,9.014 -5.165,14.3895 -8.0105,18.8217 -10.8937,22.6125 -14.464,26.0992 -16.5956,27.8452 A2.4638,2.4638 0 0 1 -19.7444,24.0548 T-18.7219,23.182 -15.6961,20.2014 -12.2616,16.1122 -9.4102,11.7759 -6.3332,6.6099 -3.4651,1.3359 -2.2538,-1.1269 A2.5199,2.5199 0 0 1 2.2538,1.1269 Z" stroke-linecap="round" fill="#f2f2f2"/></g></g><g transform="matrix(1, 0, 0, 1, 1445.3389, 9933.4834)" opacity="1"><g transform="scale(1)"><path d="M1.7847,-1.4261 T2.6088,-0.4063 4.6021,2.7846 6.573,6.9781 8.6828,11.5846 11.544,16.3301 13.9962,19.8103 14.8954,21.129 A2.3497,2.3497 0 0 1 11.0646,23.851 T9.2822,21.449 5.8169,16.485 3.12,11.3249 0.9731,6.1047 -0.9722,2.4544 -1.7847,1.4261 A2.2845,2.2845 0 0 1 1.7847,-1.4261 Z" stroke-linecap="round" fill="#f2f2f2"/></g></g><g transform="matrix(1, 0, 0, 1, 1462.642, 9957.7077)" opacity="1"><g transform="scale(1)"><path d="M1.0248,-2.0456 T2.3937,-1.2705 4.7226,2.2848 4.825,7.6221 3.9675,10.179 A2.3243,2.3243 0 0 1 -0.2195,8.1595 T0.4638,5.5573 0.0612,2.5003 -1.0248,2.0456 A2.2879,2.2879 0 0 1 1.0248,-2.0456 ZM2.9017,7.0845 T3.4871,7.3552 6.4447,7.8614 8.8171,8.0969 A2.2892,2.2892 0 0 1 8.4829,12.6631 T7.2705,12.5962 4.0285,12.1936 1.4226,11.556 0.8463,11.254 A2.3243,2.3243 0 0 1 2.9017,7.0845 Z" stroke-linecap="round" fill="#f2f2f2"/></g></g><g transform="matrix(1, 0, 0, 1, 775.7112, 9868.597)" opacity="1"><g transform="scale(1)"><path d="M2.2573,-0.5643 T2.6562,1.0735 4.0237,4.969 6.1608,9.4916 8.5393,13.6567 10.9808,17.3785 13.8079,20.8218 16.9942,23.819 20.2797,26.4967 23.881,28.9503 27.6174,31.1047 31.6803,33.2936 36.1838,35.3964 40.5098,36.6532 45.1394,37.1793 47.7136,37.3652 A2.4384,2.4384 0 0 1 47.4464,42.2348 T44.7351,42.1307 39.4027,41.6124 34.2467,40.1798 29.3579,37.8788 25.0443,35.463 21.1248,33.0705 17.4186,30.3961 13.8707,27.335 10.4487,23.9642 7.4781,20.2291 4.7781,16.101 2.1415,11.5503 -0.2819,6.4763 -1.8379,2.1997 -2.2573,0.5643 A2.3268,2.3268 0 0 1 2.2573,-0.5643 Z" stroke-linecap="round" fill="#f2f2f2"/></g></g><g transform="matrix(1, 0, 0, 1, 848.384, 9904.0683)" opacity="1"><g transform="scale(1)"><path d="M-2.1989,-0.6277 T-1.7934,-2.0511 -2.481,-1.1905 -3.6479,3.1954 -3.4313,7.9934 -2.5452,12.8142 -1.6373,17.0658 -1.2503,21.322 -1.7855,25.398 -4.008,28.862 -7.8546,31.2418 -12.4214,32.1242 -16.5869,31.3697 -19.663,28.9222 -21.3987,26.2878 -21.8908,25.3263 A2.2775,2.2775 0 0 1 -17.9092,23.1137 T-15.9728,25.2079 -11.8474,27.2218 -7.9148,25.814 -6.0551,22.0147 -6.4228,17.201 -7.4013,12.2496 -8.121,7.4326 -8.2678,2.9233 -7.6456,-1.5792 -5.8401,-6.4369 -2.6557,-9.6379 0.9262,-8.7492 2.8048,-4.7873 2.6117,-0.8153 2.1989,0.6277 A2.2867,2.2867 0 0 1 -2.1989,-0.6277 Z" stroke-linecap="round" fill="#f2f2f2"/></g></g><g transform="matrix(1, 0, 0, 1, 849.2491, 9917.9107)" opacity="1"><g transform="scale(1)"><path d="M-0.3254,2.1785 T-1.9563,2.6155 -5.6221,3.2634 -9.7595,3.6852 -11.8621,3.8961 A2.1802,2.1802 0 0 1 -12.3579,-0.4361 T-8.5285,-0.926 -3.0568,-1.7972 -1.4146,-2.1785 A2.2455,2.2455 0 0 1 -0.3254,2.1785 Z" stroke-linecap="round" fill="#f2f2f2"/></g></g><g transform="matrix(1, 0, 0, 1, 863.0916, 9898.0122)" opacity="1"><g transform="scale(1)"><path d="M2.4571,0.9232 T1.823,2.5556 -0.1794,6.8215 -2.5748,12.2822 -4.084,17.6548 -4.4931,23.4096 -3.7748,28.6266 -2.5681,32.1677 -2.0068,33.7014 A2.4946,2.4946 0 0 1 -6.6532,35.5186 T-7.9063,32.4745 -9.4801,27.0489 -9.7142,21.8293 -9.0872,16.3341 -7.3755,10.4975 -4.9262,4.8382 -3.0528,0.7176 -2.4571,-0.9232 A2.6248,2.6248 0 0 1 2.4571,0.9232 Z" stroke-linecap="round" fill="#f2f2f2"/></g></g><g transform="matrix(1, 0, 0, 1, 875.2037, 9904.0683)" opacity="1"><g transform="scale(1)"><path d="M2.3716,1.1872 T1.3266,3.2224 -1.0452,8.062 -3.0781,13.9706 -1.4014,18.2509 2.5518,19.3513 4.122,19.2756 A2.3636,2.3636 0 0 1 4.538,23.9844 T2.9788,24.1852 -2.1806,23.8876 -7.264,21.2223 -8.4792,16.412 -7.6487,11.3143 -5.7318,5.8927 -3.3746,0.8691 -2.3716,-1.1872 A2.6522,2.6522 0 0 1 2.3716,1.1872 Z" stroke-linecap="round" fill="#f2f2f2"/></g></g><g transform="matrix(1, 0, 0, 1, 892.5067, 9928.2925)" opacity="1"><g transform="scale(1)"><path d="M2.1259,-0.7086 T2.5301,0.5375 2.7571,4.2227 0.603,9.1046 -1.374,11.5474 A2.2127,2.2127 0 0 1 -4.1306,8.0855 T-3.4162,7.5761 -1.9997,5.0964 -1.7118,1.9173 -2.1259,0.7086 A2.2409,2.2409 0 0 1 2.1259,-0.7086 ZM-1.7225,7.858 T-0.9472,8.2437 2.5555,8.8307 5.283,9.0321 A2.2199,2.2199 0 0 1 5.097,13.4679 T4.0223,13.4431 0.3642,13.0295 -3.0007,12.2078 -3.7821,11.7749 A2.2127,2.2127 0 0 1 -1.7225,7.858 Z" stroke-linecap="round" fill="#f2f2f2"/></g></g><g transform="matrix(1, 0, 0, 1, 911.5401, 9897.1471)" opacity="1"><g transform="scale(1)"><path d="M2.3553,-0.8849 T2.9566,0.7567 4.6072,6.0293 6.3815,12.9165 7.328,19.2734 7.6169,24.9042 7.1598,30.3256 5.4698,35.5722 3.38,39.7625 0.9198,43.3712 -0.6162,45.1449 A2.6062,2.6062 0 0 1 -4.5946,41.7772 T-3.3829,40.4798 -1.2435,37.3686 0.6702,33.7705 2.1344,29.7421 2.5721,25.0441 2.3644,19.7777 1.5225,13.8925 -0.1253,7.4838 -1.7268,2.5164 -2.3553,0.8849 A2.5161,2.5161 0 0 1 2.3553,-0.8849 ZM-5.2116,43.4538 T-5.1702,42.4884 -5.1289,41.5229 A2.5289,2.5289 0 0 1 -0.0711,41.5371 T-0.0352,42.5027 0.0008,43.4684 A2.6062,2.6062 0 0 1 -5.2116,43.4538 Z" stroke-linecap="round" fill="#f2f2f2"/></g></g><g transform="matrix(1, 0, 0, 1, 939.2249, 9899.7425)" opacity="1"><g transform="scale(1)"><path d="M2.2136,0 T2.2145,1.435 1.4325,5.9814 -0.8356,11.7551 -3.6302,17.117 -6.2103,22.0817 -8.8931,26.9131 -10.3052,29.4792 A2.0299,2.0299 0 0 1 -13.9148,27.6208 T-12.6465,24.9807 -10.2431,19.9331 -7.7411,14.8635 -4.9586,9.8278 -2.8791,5.1585 -2.2145,1.4314 -2.2136,0 A2.2136,2.2136 0 0 1 2.2136,0 Z" stroke-linecap="round" fill="#f2f2f2"/></g></g><g transform="matrix(1, 0, 0, 1, 940.9552, 9900.6077)" opacity="1"><g transform="scale(1)"><path d="M2.0697,-0.2082 T2.2648,1.8387 2.6257,7.1473 3.0338,13.046 3.4755,18.4393 4.0354,23.2962 5.3202,27.0506 6.2447,28.7045 A2.0439,2.0439 0 0 1 3.2272,31.4624 T2.4763,30.6134 0.9855,27.8761 -0.1204,23.6908 -0.6398,18.8672 -1.0497,13.4527 -1.4716,7.4311 -1.8533,2.2528 -2.0697,0.2082 A2.0802,2.0802 0 0 1 2.0697,-0.2082 ZM2.738,29.6521 T2.921,28.8967 3.1039,28.1412 A2.0052,2.0052 0 0 1 7.0239,28.9875 T6.8789,29.7512 6.7338,30.5148 A2.0439,2.0439 0 0 1 2.738,29.6521 ZM3.5878,29.9216 T3.2183,29.5 0.7115,28.5266 -4.3244,28.3139 -8.7656,28.6876 -10.308,28.7221 A1.9034,1.9034 0 0 1 -10.452,24.9179 T-7.0045,24.6883 -0.9765,24.3877 3.6829,25.3584 6.1509,26.8036 6.54,27.2072 A2.0052,2.0052 0 0 1 3.5878,29.9216 Z" stroke-linecap="round" fill="#f2f2f2"/></g></g><g transform="matrix(1, 0, 0, 1, 972.1007, 9911.8546)" opacity="1"><g transform="scale(1)"><path d="M2.0976,1.1659 T1.0887,3.0167 -1.8328,7.8412 -5.9989,13.3886 -10.4661,17.7742 -13.8885,20.351 -15.0971,21.1159 A2.4808,2.4808 0 0 1 -17.7829,16.9441 T-16.5863,16.1605 -13.6821,13.9338 -9.8786,10.1767 -5.9793,5.1823 -3.1368,0.6679 -2.0976,-1.1659 A2.3999,2.3999 0 0 1 2.0976,1.1659 Z" stroke-linecap="round" fill="#f2f2f2"/></g></g><g transform="matrix(1, 0, 0, 1, 959.9886, 9914.4501)" opacity="1"><g transform="scale(1)"><path d="M1.6367,-1.3079 T2.469,-0.295 4.5519,2.3155 7.0846,5.5707 10.1033,9.132 13.2865,13.0995 14.7333,15.1634 A2.1689,2.1689 0 0 1 11.2267,17.7166 T10.4517,16.6934 8.0409,13.5634 5.0387,9.8367 1.8221,5.7976 -0.8324,2.3431 -1.6367,1.3079 A2.0951,2.0951 0 0 1 1.6367,-1.3079 Z" stroke-linecap="round" fill="#f2f2f2"/></g></g><g transform="matrix(1, 0, 0, 1, 975.5613, 9927.4274)" opacity="1"><g transform="scale(1)"><path d="M0.945,-2.5152 T2.5707,-1.8718 6.1421,-0.4646 9.7622,1.7861 11.8266,5.2739 10.5461,9.3577 6.9945,12.4963 4.4472,14.1884 3.7808,14.8249 A2.5188,2.5188 0 0 1 0.4291,11.0641 T1.5099,10.1435 4.7983,7.5625 4.678,4.7951 0.7025,3.1016 -0.945,2.5152 A2.6869,2.6869 0 0 1 0.945,-2.5152 ZM3.3645,10.7632 T4.1841,11.2564 7.9125,12.2056 12.454,12.8182 14.0868,12.9748 A2.6069,2.6069 0 0 1 13.5932,18.1652 T11.9601,18.0112 6.9751,17.2735 2.2343,15.9078 0.8455,15.1258 A2.5188,2.5188 0 0 1 3.3645,10.7632 Z" stroke-linecap="round" fill="#f2f2f2"/></g></g></svg>