<svg xmlns="http://www.w3.org/2000/svg" direction="ltr" width="769.0852632790429" height="462.7379574073493" viewBox="2644.789467650292 25869.134073030003 769.0852632790429 462.7379574073493" stroke-linecap="round" stroke-linejoin="round" style="background-color: transparent;"><defs/><g transform="matrix(1, 0, 0, 1, 2717.5807, 25959.4217)" opacity="1"><path d="M0,120.7292848824652 a121.20965360818194,120.7292848824652,0,1,1,242.41930721636388,0a121.20965360818194,120.7292848824652,0,1,1,-242.41930721636388,0 " stroke="#9398b0" stroke-width="2" fill="none"/></g><g transform="matrix(1, 0, 0, 1, 3063.9007, 25959.4217)" opacity="1"><path d="M0,120.7292848824652 a121.20965360818194,120.7292848824652,0,1,1,242.41930721636388,0a121.20965360818194,120.7292848824652,0,1,1,-242.41930721636388,0 " stroke="#9398b0" stroke-width="2" fill="none"/></g><g transform="matrix(1, 0, 0, 1, 2676.7895, 26081.2134)" opacity="1"><g transform="scale(1)"><path d="M-0.333,-1.3321 T1.523,-1.7884 5.6461,-2.8322 9.2936,-3.9055 13.6133,-4.9615 19.0886,-6.1511 23.6484,-6.7189 27.1602,-6.2556 30.0976,-5.3922 33.7819,-4.3731 37.4425,-3.6862 40.4826,-3.1886 44.2287,-2.728 48.1443,-2.6277 51.4832,-2.61 55.4773,-2.62 60.0903,-2.2862 64.4631,-1.865 68.316,-1.4104 71.7198,-0.95 75.3741,-0.8482 78.7272,-1.0218 82.5103,-1.4484 86.2964,-1.7462 89.811,-1.8382 94.0199,-2.0972 98.7286,-2.5447 103.773,-2.8302 108.0046,-2.9221 111.2857,-2.9537 114.4429,-3.3169 117.8106,-3.7807 121.6851,-3.9258 125.7257,-4.3332 129.6847,-4.8201 134.4336,-4.9707 139.7718,-5.0169 145.1472,-5.0367 150.1795,-5.0502 154.4439,-4.7936 158.453,-4.3796 162.4893,-4.18 166.5317,-3.8391 170.1188,-3.4024 173.5151,-3.2092 177.3049,-3.146 181.1897,-3.1288 185.4538,-3.1247 189.8257,-3.1242 193.8749,-3.1244 197.832,-3.1247 201.4084,-3.1235 205.2329,-3.1187 209.8379,-3.1126 214.1835,-3.1104 218.4534,-3.1129 222.8246,-3.1162 227.1165,-3.1187 231.3877,-3.1205 235.4065,-3.1218 239.2318,-3.1228 243.3572,-3.1236 247.3367,-3.1243 250.8007,-3.1247 254.9493,-3.1251 259.7627,-3.1254 263.7569,-3.315 267.356,-3.7308 271.0083,-4.0115 274.7249,-4.0766 278.9845,-4.3027 283.4652,-4.7227 287.2321,-5.1742 291.017,-5.6613 295.5233,-5.9562 299.7038,-6.0271 303.5726,-6.3951 307.846,-6.8551 312.3468,-6.9866 316.7787,-7.0032 321.4354,-6.9734 326.0296,-6.5535 330.8315,-5.9837 334.8548,-5.7247 336.363,-5.6389 A1.7194,1.7194 0 0 1 336.277,-2.2011 T334.7665,-2.1907 330.5592,-2.2035 325.7953,-2.5366 321.433,-2.819 316.8038,-2.7696 312.4334,-2.7157 308.1783,-2.5929 303.8623,-2.1374 299.7673,-1.7581 295.6881,-1.6863 291.7231,-1.4676 287.9432,-0.985 283.9813,-0.4935 280.4628,-0.0711 276.7592,0.1922 272.7961,0.2313 269.5299,0.3484 266.1628,0.8 262.1289,1.1638 257.4943,1.1653 252.7586,1.1649 248.8447,1.1644 245.3546,1.164 241.3263,1.1633 237.4562,1.1624 233.7159,1.1613 229.6085,1.1598 225.0266,1.1575 220.4053,1.1545 216.0691,1.1507 211.9248,1.1504 207.6415,1.1553 203.3059,1.1617 199.5669,1.1649 195.859,1.1644 191.8682,1.1636 187.7063,1.1621 183.3678,1.1584 179.2148,1.1472 175.29,1.1093 171.345,0.9682 167.8757,0.5027 164.3745,0.1214 160.1762,-0.0121 156.0352,-0.4703 152.1823,-0.8249 147.6868,-0.833 142.5431,-0.8381 137.2071,-0.828 132.0527,-0.7777 127.896,-0.5915 123.8129,-0.1777 119.7788,0.1346 116.4388,0.3123 113.0161,0.728 109.5844,1.0092 106.0116,1.024 101.6742,1.122 96.8267,1.5522 92.1159,1.8914 87.4757,1.9249 83.1455,2.1003 79.2319,2.4893 75.2869,2.7041 71.3832,2.5354 67.9629,2.0215 64.2051,1.5166 59.9038,1.0318 55.4583,0.6517 51.4595,0.6203 48.0775,0.5609 43.9738,0.3834 39.4676,-0.2065 35.146,-0.9837 31.6691,-1.8123 28.4717,-3.0103 25.193,-3.9756 21.8121,-3.9562 18.4233,-3.2439 14.423,-2.397 10.3173,-1.4116 6.3943,-0.2316 2.1853,0.8613 0.333,1.3321 A1.3731,1.3731 0 0 1 -0.333,-1.3321 Z" stroke-linecap="round" fill="#9398b0"/></g></g><g transform="matrix(1, 0, 0, 1, 3023.1095, 26081.2134)" opacity="1"><g transform="scale(1)"><path d="M-0.333,-1.3321 T1.523,-1.7884 5.6461,-2.8322 9.2936,-3.9055 13.6133,-4.9615 19.0886,-6.1511 23.6484,-6.7189 27.1602,-6.2556 30.0976,-5.3922 33.7819,-4.3731 37.4425,-3.6862 40.4826,-3.1886 44.2287,-2.728 48.1443,-2.6277 51.4832,-2.61 55.4773,-2.62 60.0903,-2.2862 64.4631,-1.865 68.316,-1.4104 71.7198,-0.95 75.3741,-0.8482 78.7272,-1.0218 82.5103,-1.4484 86.2964,-1.7462 89.811,-1.8382 94.0199,-2.0972 98.7286,-2.5447 103.773,-2.8302 108.0046,-2.9221 111.2857,-2.9537 114.4429,-3.3169 117.8106,-3.7807 121.6851,-3.9258 125.7257,-4.3332 129.6847,-4.8201 134.4336,-4.9707 139.7718,-5.0169 145.1472,-5.0367 150.1795,-5.0502 154.4439,-4.7936 158.453,-4.3796 162.4893,-4.18 166.5317,-3.8391 170.1188,-3.4024 173.5151,-3.2092 177.3049,-3.146 181.1897,-3.1288 185.4538,-3.1247 189.8257,-3.1242 193.8749,-3.1244 197.832,-3.1247 201.4084,-3.1235 205.2329,-3.1187 209.8379,-3.1126 214.1835,-3.1104 218.4534,-3.1129 222.8246,-3.1162 227.1165,-3.1187 231.3877,-3.1205 235.4065,-3.1218 239.2318,-3.1228 243.3572,-3.1236 247.3367,-3.1243 250.8007,-3.1247 254.9493,-3.1251 259.7627,-3.1254 263.7569,-3.315 267.356,-3.7308 271.0083,-4.0115 274.7249,-4.0766 278.9845,-4.3027 283.4652,-4.7227 287.2321,-5.1742 291.017,-5.6613 295.5233,-5.9562 299.7038,-6.0271 303.5726,-6.3951 307.846,-6.8551 312.3468,-6.9866 316.7787,-7.0032 321.4354,-6.9734 326.0296,-6.5535 330.8315,-5.9837 334.8548,-5.7247 336.363,-5.6389 A1.7194,1.7194 0 0 1 336.277,-2.2011 T334.7665,-2.1907 330.5592,-2.2035 325.7953,-2.5366 321.433,-2.819 316.8038,-2.7696 312.4334,-2.7157 308.1783,-2.5929 303.8623,-2.1374 299.7673,-1.7581 295.6881,-1.6863 291.7231,-1.4676 287.9432,-0.985 283.9813,-0.4935 280.4628,-0.0711 276.7592,0.1922 272.7961,0.2313 269.5299,0.3484 266.1628,0.8 262.1289,1.1638 257.4943,1.1653 252.7586,1.1649 248.8447,1.1644 245.3546,1.164 241.3263,1.1633 237.4562,1.1624 233.7159,1.1613 229.6085,1.1598 225.0266,1.1575 220.4053,1.1545 216.0691,1.1507 211.9248,1.1504 207.6415,1.1553 203.3059,1.1617 199.5669,1.1649 195.859,1.1644 191.8682,1.1636 187.7063,1.1621 183.3678,1.1584 179.2148,1.1472 175.29,1.1093 171.345,0.9682 167.8757,0.5027 164.3745,0.1214 160.1762,-0.0121 156.0352,-0.4703 152.1823,-0.8249 147.6868,-0.833 142.5431,-0.8381 137.2071,-0.828 132.0527,-0.7777 127.896,-0.5915 123.8129,-0.1777 119.7788,0.1346 116.4388,0.3123 113.0161,0.728 109.5844,1.0092 106.0116,1.024 101.6742,1.122 96.8267,1.5522 92.1159,1.8914 87.4757,1.9249 83.1455,2.1003 79.2319,2.4893 75.2869,2.7041 71.3832,2.5354 67.9629,2.0215 64.2051,1.5166 59.9038,1.0318 55.4583,0.6517 51.4595,0.6203 48.0775,0.5609 43.9738,0.3834 39.4676,-0.2065 35.146,-0.9837 31.6691,-1.8123 28.4717,-3.0103 25.193,-3.9756 21.8121,-3.9562 18.4233,-3.2439 14.423,-2.397 10.3173,-1.4116 6.3943,-0.2316 2.1853,0.8613 0.333,1.3321 A1.3731,1.3731 0 0 1 -0.333,-1.3321 Z" stroke-linecap="round" fill="#9398b0"/></g></g><g transform="matrix(1, 0, 0, 1, 2837.5966, 25912.562)" opacity="1"><g transform="scale(1)"><path d="M1.7402,0 T1.7393,1.1547 2.0822,4.3157 2.5304,8.6351 2.896,14.3359 3.5217,19.9172 4.0912,23.8108 4.467,28.0811 4.6893,32.5565 4.7592,36.2903 4.7911,40.0419 4.8175,43.9169 4.8449,48.0597 4.8718,52.3968 4.8963,56.5547 4.9191,60.5371 5.2908,64.6107 5.7663,68.9249 6.263,73.052 6.9706,77.1869 7.5485,81.8849 7.874,87.1721 7.9631,91.4236 8.3448,95.4504 8.8238,100.8657 8.9606,105.1455 8.9942,108.0488 9.3681,111.9851 9.8032,115.9213 9.9126,118.8369 9.9705,121.7621 9.9993,124.6939 10.0138,128.7445 10.0209,133.9397 9.7751,139.4578 9.1077,145.4875 8.542,150.1105 8.3209,153.0939 7.9558,156.217 7.4635,160.4637 6.8426,165.5295 6.0625,170.5312 5.2394,175.6951 4.5624,180.2645 3.9168,184.2862 3.3792,188.2179 2.9728,192.2617 2.5046,196.0123 2.2829,199.5032 2.2147,203.5111 2.193,207.8209 2.1857,212.2062 2.1829,216.0252 2.1816,219.2093 2.1782,222.217 2.1728,225.1758 2.1683,228.1234 2.1645,231.1913 2.1611,234.522 1.8961,238.4094 1.4404,242.8486 1.2204,247.3692 1.1866,251.6394 0.9203,255.9048 0.5006,259.5789 0.2932,262.8284 0.2311,266.3328 -0.147,269.9299 -0.5973,273.6254 -0.7078,277.3421 -0.737,281.2072 -0.7428,284.7619 -0.7428,287.8762 -0.7426,290.8556 -0.3962,294.0204 0.0585,297.9797 0.3984,302.169 0.8507,306.276 1.1295,310.4869 1.2083,314.8417 1.5883,319.3639 2.0567,323.8076 2.197,328.3367 2.235,333.0176 2.2396,338.2116 2.2357,342.4483 2.2341,345.3486 2.2325,348.2677 2.2313,351.4284 2.2329,354.7153 2.4565,357.9277 2.8085,361.2394 3.0042,364.5169 3.3222,367.7308 3.7167,371.0424 4.1722,375.3227 4.6553,380.8285 4.867,385.4779 4.9078,387.215 A1.9701,1.9701 0 0 1 0.9722,387.405 T0.8455,385.672 0.4541,381.3455 -0.1873,375.9323 -0.7007,371.5696 -1.1177,368.1604 -1.4599,364.7784 -1.6372,361.6972 -1.9931,358.2206 -2.2331,354.7179 -2.2317,351.4287 -2.2332,348.2682 -2.2354,345.3495 -2.2382,342.4501 -2.2472,338.2174 -2.2621,333.0396 -2.2947,328.4271 -2.4085,324.1006 -2.8552,319.6053 -3.2213,314.9049 -3.2802,310.6764 -3.4974,306.9197 -3.9515,302.7272 -4.3262,298.3271 -4.7758,294.3231 -5.1368,290.8727 -5.1351,287.8738 -5.1296,284.7541 -5.1159,281.1799 -5.0746,277.243 -4.931,273.2567 -4.4666,269.6053 -4.1001,266.2582 -4.0293,262.6255 -3.7586,258.9227 -3.3364,255.4049 -3.1197,251.6151 -3.0838,247.2705 -2.9457,243.0764 -2.4955,239.6494 -2.1587,236.2877 -2.1626,232.9171 -2.1663,229.6756 -2.1707,226.4975 -2.1756,223.5475 -2.1798,220.5716 -2.1816,217.5025 -2.1819,214.0981 -2.1807,209.9251 -2.1728,205.5474 -2.1382,201.258 -2.0006,197.3031 -1.5305,193.7478 -1.1091,189.8713 -0.7894,185.6567 -0.1952,181.5463 0.6045,177.3899 1.2294,173.665 1.7221,169.8384 2.2225,166.0787 2.7157,162.4402 3.4611,157.2813 3.97,152.7605 4.2255,149.5189 4.6757,146.27 5.0913,143.1679 5.4392,139.1028 5.6515,133.9454 5.6388,128.7633 5.6186,124.7359 5.5598,120.4313 5.345,114.9866 4.9252,110.9693 4.6635,108.0975 4.6095,103.8481 4.3948,98.5918 3.9785,94.5215 3.7265,91.4746 3.6739,87.3277 3.4476,82.4963 2.9183,77.942 2.1882,73.3956 1.726,69.2018 1.2971,64.8245 0.9609,60.5493 0.9836,56.5548 1.008,52.397 1.0342,48.0605 1.0592,43.9197 1.0772,40.0522 1.0788,36.3323 1.0393,32.6729 0.8678,28.369 0.5525,24.2971 0.0124,20.3264 -0.5879,14.5121 -0.9181,8.8867 -1.3744,4.5276 -1.7393,1.163 -1.7402,0 A1.7402,1.7402 0 0 1 1.7402,0 Z" stroke-linecap="round" fill="#9398b0"/></g></g><g transform="matrix(1, 0, 0, 1, 3183.9166, 25912.562)" opacity="1"><g transform="scale(1)"><path d="M1.7402,0 T1.7393,1.1547 2.0822,4.3157 2.5304,8.6351 2.896,14.3359 3.5217,19.9172 4.0912,23.8108 4.467,28.0811 4.6893,32.5565 4.7592,36.2903 4.7911,40.0419 4.8175,43.9169 4.8449,48.0597 4.8718,52.3968 4.8963,56.5547 4.9191,60.5371 5.2908,64.6107 5.7663,68.9249 6.263,73.052 6.9706,77.1869 7.5485,81.8849 7.874,87.1721 7.9631,91.4236 8.3448,95.4504 8.8238,100.8657 8.9606,105.1455 8.9942,108.0488 9.3681,111.9851 9.8032,115.9213 9.9126,118.8369 9.9705,121.7621 9.9993,124.6939 10.0138,128.7445 10.0209,133.9397 9.7751,139.4578 9.1077,145.4875 8.542,150.1105 8.3209,153.0939 7.9558,156.217 7.4635,160.4637 6.8426,165.5295 6.0625,170.5312 5.2394,175.6951 4.5624,180.2645 3.9168,184.2862 3.3792,188.2179 2.9728,192.2617 2.5046,196.0123 2.2829,199.5032 2.2147,203.5111 2.193,207.8209 2.1857,212.2062 2.1829,216.0252 2.1816,219.2093 2.1782,222.217 2.1728,225.1758 2.1683,228.1234 2.1645,231.1913 2.1611,234.522 1.8961,238.4094 1.4404,242.8486 1.2204,247.3692 1.1866,251.6394 0.9203,255.9048 0.5006,259.5789 0.2932,262.8284 0.2311,266.3328 -0.147,269.9299 -0.5973,273.6254 -0.7078,277.3421 -0.737,281.2072 -0.7428,284.7619 -0.7428,287.8762 -0.7426,290.8556 -0.3962,294.0204 0.0585,297.9797 0.3984,302.169 0.8507,306.276 1.1295,310.4869 1.2083,314.8417 1.5883,319.3639 2.0567,323.8076 2.197,328.3367 2.235,333.0176 2.2396,338.2116 2.2357,342.4483 2.2341,345.3486 2.2325,348.2677 2.2313,351.4284 2.2329,354.7153 2.4565,357.9277 2.8085,361.2394 3.0042,364.5169 3.3222,367.7308 3.7167,371.0424 4.1722,375.3227 4.6553,380.8285 4.867,385.4779 4.9078,387.215 A1.9701,1.9701 0 0 1 0.9722,387.405 T0.8455,385.672 0.4541,381.3455 -0.1873,375.9323 -0.7007,371.5696 -1.1177,368.1604 -1.4599,364.7784 -1.6372,361.6972 -1.9931,358.2206 -2.2331,354.7179 -2.2317,351.4287 -2.2332,348.2682 -2.2354,345.3495 -2.2382,342.4501 -2.2472,338.2174 -2.2621,333.0396 -2.2947,328.4271 -2.4085,324.1006 -2.8552,319.6053 -3.2213,314.9049 -3.2802,310.6764 -3.4974,306.9197 -3.9515,302.7272 -4.3262,298.3271 -4.7758,294.3231 -5.1368,290.8727 -5.1351,287.8738 -5.1296,284.7541 -5.1159,281.1799 -5.0746,277.243 -4.931,273.2567 -4.4666,269.6053 -4.1001,266.2582 -4.0293,262.6255 -3.7586,258.9227 -3.3364,255.4049 -3.1197,251.6151 -3.0838,247.2705 -2.9457,243.0764 -2.4955,239.6494 -2.1587,236.2877 -2.1626,232.9171 -2.1663,229.6756 -2.1707,226.4975 -2.1756,223.5475 -2.1798,220.5716 -2.1816,217.5025 -2.1819,214.0981 -2.1807,209.9251 -2.1728,205.5474 -2.1382,201.258 -2.0006,197.3031 -1.5305,193.7478 -1.1091,189.8713 -0.7894,185.6567 -0.1952,181.5463 0.6045,177.3899 1.2294,173.665 1.7221,169.8384 2.2225,166.0787 2.7157,162.4402 3.4611,157.2813 3.97,152.7605 4.2255,149.5189 4.6757,146.27 5.0913,143.1679 5.4392,139.1028 5.6515,133.9454 5.6388,128.7633 5.6186,124.7359 5.5598,120.4313 5.345,114.9866 4.9252,110.9693 4.6635,108.0975 4.6095,103.8481 4.3948,98.5918 3.9785,94.5215 3.7265,91.4746 3.6739,87.3277 3.4476,82.4963 2.9183,77.942 2.1882,73.3956 1.726,69.2018 1.2971,64.8245 0.9609,60.5493 0.9836,56.5548 1.008,52.397 1.0342,48.0605 1.0592,43.9197 1.0772,40.0522 1.0788,36.3323 1.0393,32.6729 0.8678,28.369 0.5525,24.2971 0.0124,20.3264 -0.5879,14.5121 -0.9181,8.8867 -1.3744,4.5276 -1.7393,1.163 -1.7402,0 A1.7402,1.7402 0 0 1 1.7402,0 Z" stroke-linecap="round" fill="#9398b0"/></g></g><g transform="matrix(1, 0, 0, 1, 2844.4603, 26081.2134)" opacity="1"><g transform="scale(1)"><path d="M-1.6468,-0.9881 T-0.9519,-2.1471 0.9166,-5.2301 3.4574,-8.9701 6.1854,-12.7709 9.7426,-18.0069 13.3258,-23.4472 15.7066,-27.0686 18.4081,-30.7049 21.2341,-34.5973 23.7459,-38.0172 26.2356,-41.1506 28.4416,-43.9108 30.5726,-46.3682 32.6171,-48.8669 34.9939,-52.117 37.3652,-55.1221 39.3968,-57.7668 41.3966,-60.6678 43.3387,-63.172 45.2429,-66.0078 47.0938,-69.1875 49.0206,-71.819 50.9313,-74.5618 52.7921,-77.7235 54.7442,-80.8471 56.6964,-83.8381 58.7615,-87.0153 60.8527,-90.141 62.6549,-92.8116 64.1015,-94.8459 64.7461,-95.6383 A2.4525,2.4525 0 0 1 68.6139,-92.6217 T67.6302,-91.3768 65.6276,-88.2814 63.5626,-85.1994 61.6988,-82.595 59.911,-79.7533 58.0066,-76.827 55.8328,-73.3356 53.2752,-69.534 50.8448,-66.0816 48.7731,-62.7033 46.7615,-59.8298 44.8424,-57.4233 42.8955,-54.6823 40.4866,-51.6423 37.9407,-48.4937 35.7803,-45.6174 33.3856,-42.8131 30.7799,-39.7238 28.3059,-36.755 25.84,-33.6536 23.1849,-30.2764 20.8929,-27.3345 19.1429,-24.7491 16.7214,-21.1882 12.9514,-15.6476 9.3463,-10.4621 6.6643,-6.788 4.1551,-3.1496 2.3425,-0.1706 1.6468,0.9881 A1.9205,1.9205 0 0 1 -1.6468,-0.9881 Z" stroke-linecap="round" fill="#f76707"/></g></g><g transform="matrix(1, 0, 0, 1, 2869.9541, 26003.7514)" opacity="1"><g transform="scale(1)"><path d="M1.6567,0 T1.7205,2.5528 1.5815,7.031 1.2171,11.5182 0.411,16.5633 -0.2336,19.0465 A1.776,1.776 0 0 1 -3.6864,18.2135 T-3.419,16.9796 -2.8743,13.5682 -2.4513,9.9375 -2.045,6.7931 -1.7205,2.5509 -1.6567,0 A1.6567,1.6567 0 0 1 1.6567,0 Z" stroke-linecap="round" fill="#f76707"/></g></g><g transform="matrix(1, 0, 0, 1, 2868.9736, 26002.7709)" opacity="1"><g transform="scale(1)"><path d="M0.7539,2.7391 T-0.8585,3.457 -3.959,4.9473 -7.1872,6.6256 -8.9271,7.5317 A1.8728,1.8728 0 0 1 -10.6929,4.2283 T-8.9729,3.2849 -5.6359,1.4539 -2.3863,-0.1064 -0.7539,-0.7791 A1.9138,1.9138 0 0 1 0.7539,2.7391 Z" stroke-linecap="round" fill="#f76707"/></g></g><g transform="matrix(1, 0, 0, 1, 2911.1364, 25986.1019)" opacity="1"><g transform="scale(1)"><path d="M1.6995,0 T1.7023,1.3906 1.7117,4.7179 1.4995,9.7845 1.1695,14.9785 1.0005,18.5863 0.9031,22.305 0.8594,26.1431 0.8613,29.3288 0.8773,32.3358 0.9038,35.7577 0.9307,39.1855 0.9523,42.3831 0.9733,45.63 0.9905,48.6589 1.0059,51.6236 1.0213,54.5704 1.0387,57.9884 1.0564,61.5396 1.0705,64.6529 1.0828,67.6423 1.0943,70.596 1.1052,73.5398 1.1155,76.4809 1.1241,79.4212 1.1297,82.376 0.7668,85.5136 0.4883,88.9868 0.8,91.7141 1.0255,92.621 A2.0741,2.0741 0 0 1 -2.9855,93.679 T-3.2366,92.7788 -3.714,90.0564 -3.5159,86.0252 -3.0897,82.3537 -3.0841,79.4212 -3.0755,76.4809 -3.0652,73.5398 -3.0543,70.596 -3.0428,67.6423 -3.0305,64.6529 -3.0164,61.5396 -2.9987,57.9884 -2.9813,54.5704 -2.9659,51.6236 -2.9505,48.6589 -2.9332,45.63 -2.9122,42.383 -2.8904,39.1852 -2.8627,35.7564 -2.8334,32.3309 -2.8072,29.3126 -2.7685,26.0952 -2.6798,22.196 -2.5449,18.4091 -2.3409,14.7428 -1.963,9.6522 -1.7117,4.7176 -1.7023,1.3906 -1.6995,0 A1.6995,1.6995 0 0 1 1.6995,0 Z" stroke-linecap="round" fill="#f76707"/></g></g><g transform="matrix(1, 0, 0, 1, 2845.4408, 26082.1939)" opacity="1"><g transform="scale(1)"><path d="M0.2682,-2.1459 T2.1221,-1.9123 6.3478,-1.505 10.6386,-1.2909 15.5231,-1.5192 20.3488,-1.9376 23.8606,-1.9333 27.3966,-1.6789 31.5653,-2.3184 35.6489,-3.25 39.0257,-3.5047 42.3385,-3.5979 45.6585,-3.8399 48.7726,-4.4246 52.1729,-5.1302 56.2869,-5.8962 60.5501,-6.452 63.9898,-6.4039 66.3612,-6.2992 67.3131,-6.3652 A2.4697,2.4697 0 0 1 68.0069,-1.4748 T67.0742,-1.2735 64.4192,-1.0857 61.059,-1.006 57.8107,-0.517 54.2457,0.0586 50.3999,0.704 46.3027,1.4273 42.4037,1.6773 39.259,1.6867 36.3454,1.8013 33.2788,2.3943 29.334,3.0429 24.7435,2.9027 20.6563,2.6941 14.6483,2.9312 8.4443,2.9756 4.9261,2.7367 1.5862,2.3758 -0.2682,2.1459 A2.1626,2.1626 0 0 1 0.2682,-2.1459 Z" stroke-linecap="round" fill="#f76707"/></g></g><g transform="matrix(1, 0, 0, 1, 3191.7608, 26082.1939)" opacity="1"><g transform="scale(1)"><path d="M0.2682,-2.1459 T2.1221,-1.9123 6.3478,-1.505 10.6386,-1.2909 15.5231,-1.5192 20.3488,-1.9376 23.8606,-1.9333 27.3966,-1.6789 31.5653,-2.3184 35.6489,-3.25 39.0257,-3.5047 42.3385,-3.5979 45.6585,-3.8399 48.7726,-4.4246 52.1729,-5.1302 56.2869,-5.8962 60.5501,-6.452 63.9898,-6.4039 66.3612,-6.2992 67.3131,-6.3652 A2.4697,2.4697 0 0 1 68.0069,-1.4748 T67.0742,-1.2735 64.4192,-1.0857 61.059,-1.006 57.8107,-0.517 54.2457,0.0586 50.3999,0.704 46.3027,1.4273 42.4037,1.6773 39.259,1.6867 36.3454,1.8013 33.2788,2.3943 29.334,3.0429 24.7435,2.9027 20.6563,2.6941 14.6483,2.9312 8.4443,2.9756 4.9261,2.7367 1.5862,2.3758 -0.2682,2.1459 A2.1626,2.1626 0 0 1 0.2682,-2.1459 Z" stroke-linecap="round" fill="#f76707"/></g></g><g transform="matrix(1, 0, 0, 1, 2862.1099, 26054.7391)" opacity="1"><g transform="scale(1)"><path d="M2.097,-1.1427 T3.4734,1.4168 6.0288,5.9837 8.0471,9.2449 9.4623,11.8631 10.6747,15.3618 11.1363,20.6495 10.5165,25.4166 10.0718,27.0304 A2.3011,2.3011 0 0 1 5.6082,25.9096 T6.29,23.2895 6.4505,18.7213 5.4199,14.9349 4.0255,11.7368 1.9264,8.3039 -0.6922,3.6869 -2.097,1.1427 A2.3881,2.3881 0 0 1 2.097,-1.1427 Z" stroke-linecap="round" fill="#f76707"/></g></g><g transform="matrix(1, 0, 0, 1, 2881.7205, 26047.8753)" opacity="1"><g transform="scale(1)"><path d="M1.631,-0.2718 T1.8859,1.1221 2.0145,4.7662 1.8254,8.9222 3.4844,12.7148 5.2061,14.6017 A1.6848,1.6848 0 0 1 2.6339,16.7783 T1.583,15.592 -0.5795,12.8887 -1.6609,9.0763 -1.4222,4.9136 -1.4223,1.6592 -1.631,0.2718 A1.6535,1.6535 0 0 1 1.631,-0.2718 Z" stroke-linecap="round" fill="#f76707"/></g></g><g transform="matrix(1, 0, 0, 1, 2884.6621, 26052.778)" opacity="1"><g transform="scale(1)"><path d="M0.6551,1.3102 T-2.2683,2.8134 -5.1917,4.3167 A1.5391,1.5391 0 0 1 -6.5683,1.5633 T-3.6117,0.1266 -0.6551,-1.3102 A1.4648,1.4648 0 0 1 0.6551,1.3102 Z" stroke-linecap="round" fill="#f76707"/></g></g><g transform="matrix(1, 0, 0, 1, 3188.0259, 26079.9781)" opacity="1"><g transform="scale(1)"><path d="M-0.7809,-1.9502 T0.3193,-2.3655 2.6522,-3.5495 5.3176,-4.9816 8.0445,-6.4384 11.0801,-8.3906 14.0946,-10.3432 16.7293,-12.0532 19.4384,-13.8813 22.3774,-16.3906 25.1736,-18.7817 27.9921,-20.7531 31.3316,-23.2952 34.4629,-25.6051 37.7707,-28.0742 41.3174,-30.8232 43.9907,-33.0464 46.5061,-35.3853 49.2003,-37.6871 51.9113,-39.7873 54.8087,-42.1501 57.5537,-44.3704 60.2782,-46.3175 63.1152,-48.2289 65.8858,-50.1064 68.582,-52.3138 71.4013,-54.6424 74.1549,-56.9732 76.9039,-59.3082 79.9882,-61.6282 83.5009,-64.3261 87.1923,-67.1465 90.3039,-69.6245 93.3476,-72.0751 95.1172,-73.4484 A2.9765,2.9765 0 0 1 98.7228,-68.7116 T97.384,-67.7189 93.9792,-65.1541 90.0549,-62.207 86.3337,-59.451 82.7244,-56.5825 79.7205,-54.1897 76.9276,-51.9098 74.0762,-49.5928 71.6364,-47.67 69.2715,-45.8566 66.4406,-44.002 63.5159,-42.0884 60.9677,-40.354 58.646,-38.5365 55.8114,-36.2977 52.9199,-34.1688 50.7207,-32.2225 48.1642,-30.1412 45.1782,-27.9017 42.0479,-25.2706 39.1016,-23.1591 36.4513,-21.4765 33.9355,-19.6334 31.364,-17.7905 28.5972,-15.9787 25.7552,-13.915 22.889,-11.5747 20.1278,-9.5442 17.304,-7.7418 14.413,-5.7456 11.4282,-3.8216 8.0548,-2.0179 4.5765,-0.0044 1.866,1.4905 0.7809,1.9502 A2.1007,2.1007 0 0 1 -0.7809,-1.9502 Z" stroke-linecap="round" fill="#4dabf7"/></g></g><g transform="matrix(1, 0, 0, 1, 3219.4102, 26062.4399)" opacity="1"><g transform="scale(1)"><path d="M1.7934,-0.8977 T2.9231,1.2676 4.7027,5.1226 5.7054,8.1972 6.1056,11.9259 5.6311,15.8507 3.5015,18.4365 1.894,19.4414 A2.1363,2.1363 0 0 1 -0.054,15.6386 T1.023,14.1099 1.7105,10.4261 0.8194,6.7848 -0.7378,3.0982 -1.7934,0.8977 A2.0056,2.0056 0 0 1 1.7934,-0.8977 Z" stroke-linecap="round" fill="#4dabf7"/></g></g><g transform="matrix(1, 0, 0, 1, 3227.7178, 26061.5168)" opacity="1"><g transform="scale(1)"><path d="M-0.8509,-1.9843 T0.675,-2.6472 4.4501,-3.3773 7.4179,-0.902 8.1364,1.6404 A2.1779,2.1779 0 0 1 3.8859,0.688 T3.8981,0.6889 2.3806,1.337 0.8509,1.9843 A2.159,2.159 0 0 1 -0.8509,-1.9843 ZM7.8333,-0.0287 T7.9433,0.2718 9.4879,2.5945 11.0463,6.3654 9.506,9.8173 5.4383,11.5356 1.854,11.3341 0.6732,11.1174 A1.9034,1.9034 0 0 1 1.1668,7.3426 T2.3636,7.4368 5.223,7.2451 6.1867,5.5174 4.8384,3.2164 4.189,2.3572 A2.1779,2.1779 0 0 1 7.8333,-0.0287 Z" stroke-linecap="round" fill="#4dabf7"/></g></g><g transform="matrix(1, 0, 0, 1, 3240.6407, 26058.7476)" opacity="1"><g transform="scale(1)"><path d="M1.5767,1.4465 T1.1099,2.4623 1.696,4.5505 3.6409,3.9903 3.8244,1.1229 3.1159,-0.112 A1.7074,1.7074 0 0 1 6.1241,-1.728 T6.6198,-0.8912 7.6399,1.8666 7.7802,5.6497 5.8055,8.6784 2.0172,8.7777 -1.2868,5.6566 -1.985,1.9981 -1.5767,0.3935 A1.6623,1.6623 0 0 1 1.5767,1.4465 Z" stroke-linecap="round" fill="#4dabf7"/></g></g><g transform="matrix(1, 0, 0, 1, 3248.9483, 26053.2092)" opacity="1"><g transform="scale(1)"><path d="M1.4741,-0.2936 T0.8006,0.1723 0.7337,-0.8577 1.2936,-3.441 1.2469,-4.5284 A1.5259,1.5259 0 0 1 4.2931,-4.7116 T4.377,-3.6264 3.9408,-0.3009 2.0819,2.8359 -0.3655,2.013 -1.4741,0.2936 A1.5031,1.5031 0 0 1 1.4741,-0.2936 Z" stroke-linecap="round" fill="#4dabf7"/></g></g><g transform="matrix(1, 0, 0, 1, 3285.8709, 26012.5943)" opacity="1"><g transform="scale(1)"><path d="M1.8488,0.307 T1.6278,1.6165 0.9911,5.1738 0.3859,9.1866 -0.1133,12.677 -0.5597,17.0219 -0.9844,22.0099 -1.4251,25.8171 -1.6177,28.729 -1.6634,31.8496 -1.6662,35.1705 -1.9036,38.8818 -2.312,43.0789 -2.5046,47.0433 -2.9172,50.5257 -3.3443,53.7828 -3.3915,56.9242 -3.3962,60.1355 -3.455,64.1232 -3.5175,66.4613 A2.0225,2.0225 0 0 1 -7.5625,66.4587 T-7.5918,65.226 -7.6463,62.0279 -7.6583,58.5698 -7.6116,55.2984 -7.4471,51.8298 -6.9878,48.5195 -6.5989,45.0904 -6.3262,41.6191 -5.9123,38.3969 -5.6994,35.153 -5.6648,31.7978 -5.5757,28.506 -5.2829,25.1296 -4.8016,21.4433 -4.4569,17.4243 -3.9579,12.9907 -3.2876,8.5452 -2.6515,4.3798 -2.063,1.0039 -1.8488,-0.307 A1.8741,1.8741 0 0 1 1.8488,0.307 Z" stroke-linecap="round" fill="#4dabf7"/></g></g><g transform="matrix(1, 0, 0, 1, 3189.8721, 26084.5935)" opacity="1"><g transform="scale(1)"><path d="M-0.3175,-2.2293 T1.2093,-2.4543 5.1652,-2.8764 9.2831,-3.1319 14.7485,-3.219 20.4744,-3.2566 24.5451,-3.2709 28.5885,-3.2821 32.2625,-3.3027 35.5281,-3.3078 38.7972,-3.731 41.9895,-4.2242 45.3551,-4.7091 49.0883,-5.2018 53.0879,-5.6899 56.9021,-6.3492 60.7053,-6.88 65.1238,-7.2156 68.8891,-7.2712 72.4959,-7.6943 76.4155,-8.1701 80.2961,-8.2518 84.0896,-8.1916 85.846,-8.1138 A2.5738,2.5738 0 0 1 85.854,-2.9662 T84.9298,-2.9242 81.866,-2.8333 78.1707,-2.7679 75.0736,-2.6847 72.0421,-2.2848 68.9708,-1.9548 65.2622,-1.9387 61.6092,-1.7747 58.4835,-1.3359 55.0904,-0.8829 51.4421,-0.4438 47.5987,-0.0433 43.2762,0.4066 39.1699,1.0971 35.7063,1.4679 32.2632,1.4632 28.5909,1.4441 24.5499,1.4379 20.4812,1.4325 14.7977,1.4268 9.4553,1.464 5.6114,1.6559 1.8463,2.0191 0.3175,2.2293 A2.2518,2.2518 0 0 1 -0.3175,-2.2293 Z" stroke-linecap="round" fill="#4dabf7"/></g></g><g transform="matrix(1, 0, 0, 1, 3288.6401, 26045.8247)" opacity="1"><g transform="scale(1)"><path d="M-0.332,-2.3311 T1.193,-2.5661 5.5602,-3.7142 9.798,-5.3461 12.8637,-6.9065 15.718,-8.553 18.8288,-11.1706 22.2749,-16.2795 24.9867,-21.8953 27.4628,-26.8093 28.7465,-29.4037 A1.8842,1.8842 0 0 1 32.1735,-27.8363 T31.0504,-25.1685 28.9596,-20.0972 26.2379,-13.6884 23.3007,-8.3994 20.8968,-6.153 18.2209,-4.2389 15.0877,-2.4585 11.7642,-0.8282 8.3193,0.6147 4.9566,1.5937 1.8626,2.1309 0.332,2.3311 A2.3546,2.3546 0 0 1 -0.332,-2.3311 Z" stroke-linecap="round" fill="#4dabf7"/></g></g><g transform="matrix(1, 0, 0, 1, 3336.6395, 25985.8254)" opacity="1"><g transform="scale(1)"><path d="M1.7563,-0.1094 T2.0407,3.3795 2.6155,10.7574 2.9059,14.6463 A1.9897,1.9897 0 0 1 -1.0659,14.8937 T-1.2603,10.9988 -1.6055,3.6067 -1.7563,0.1094 A1.7597,1.7597 0 0 1 1.7563,-0.1094 Z" stroke-linecap="round" fill="#4dabf7"/></g></g><g transform="matrix(1, 0, 0, 1, 3346.7933, 26008.9021)" opacity="1"><g transform="scale(1)"><path d="M0,1.5575 T-1.3102,1.6147 -4.7672,1.742 -8.388,2.1605 -11.2195,3.2057 -13.7185,4.5102 -14.86,5.1176 A1.6513,1.6513 0 0 1 -16.52,2.2624 T-15.4273,1.5709 -12.368,-0.1502 -8.6769,-1.496 -4.7864,-1.742 -1.3102,-1.6147 0,-1.5575 A1.5575,1.5575 0 0 1 0,1.5575 Z" stroke-linecap="round" fill="#4dabf7"/></g></g><g transform="matrix(1, 0, 0, 1, 3333.8703, 26019.0558)" opacity="1"><g transform="scale(1)"><path d="M0.9831,-2.4552 T2.0646,-1.9898 5.4466,0.3462 7.683,4.7184 7.2049,8.6149 5.7504,11.5766 6.423,13.0096 9.9036,12.6424 11.6709,12.4089 A2.3839,2.3839 0 0 1 12.3291,17.1311 T11.1953,17.3299 7.4246,17.2655 3.0654,16.2991 0.7367,13.9147 0.8868,10.7614 2.2055,7.919 1.9961,4.9116 0.1206,2.8648 -0.9831,2.4552 A2.6447,2.6447 0 0 1 0.9831,-2.4552 Z" stroke-linecap="round" fill="#4dabf7"/></g></g><g transform="matrix(1, 0, 0, 1, 3249.8713, 26095.6703)" opacity="1"><g transform="scale(1)"><path d="M2.0657,-0.5166 T3.432,4.7076 5.9526,13.2518 7.9567,18.7579 9.6695,22.6547 12.1691,26.8283 20.2805,31.9817 30.2429,35.7943 36.7237,37.9558 42.282,39.7211 46.762,40.8113 50.4872,41.6179 53.9198,42.5168 57.0531,43.4335 61.0179,44.4685 65.3514,45.3149 69.5976,45.7934 73.3948,46.1165 74.8254,46.2328 A2.6878,2.6878 0 0 1 74.7146,51.6072 T73.2804,51.6644 69.2488,51.7748 64.239,51.5464 59.2489,50.6734 55.2179,49.6339 52.2488,48.7443 49.0742,47.876 45.2345,46.9898 40.3231,45.6935 34.6847,43.7562 28.2126,41.3779 18.4415,37.5281 10.8119,33.6472 8.352,30.7244 6.6163,27.8251 5.0539,24.5816 3.4131,20.3344 1.5395,14.5336 -0.8116,5.7694 -2.0657,0.5166 A2.1293,2.1293 0 0 1 2.0657,-0.5166 Z" stroke-linecap="round" fill="#4dabf7"/></g></g><g transform="matrix(1, 0, 0, 1, 3327.4089, 26143.6697)" opacity="1"><g transform="scale(1)"><path d="M-1.856,0.557 T-2.5218,-1.6222 -4.1813,-5.9124 -6.7372,-9.1588 -8.2994,-10.2941 A1.9379,1.9379 0 0 1 -6.4606,-13.7059 T-4.7583,-12.5284 -1.8373,-9.6008 -0.0258,-6.3905 1.2116,-2.7436 1.856,-0.557 A1.9378,1.9378 0 0 1 -1.856,0.557 ZM-6.092,-13.4479 T-4.8426,-12.3286 -2.4412,-9.5695 -0.3151,-6.6638 1.6004,-4.0472 3.0514,-0.8869 3.6926,2.4716 3.5901,5.8012 2.5246,9.2012 -0.3705,12.1835 -3.5627,14.0686 -4.691,14.5909 A1.8742,1.8742 0 0 1 -6.389,11.2491 T-4.0908,9.9068 -1.0225,7.1212 -0.3412,3.6884 -1.049,-0.1095 -2.9838,-3.6517 -5.438,-7.0464 -7.6221,-9.6297 -8.668,-10.5521 A1.9379,1.9379 0 0 1 -6.092,-13.4479 Z" stroke-linecap="round" fill="#4dabf7"/></g></g><g transform="matrix(1, 0, 0, 1, 3351.4086, 26119.67)" opacity="1"><g transform="scale(1)"><path d="M1.7863,-0.5361 T2.4784,1.6358 3.544,5.2125 4.7484,8.9829 5.5794,11.3484 A1.9986,1.9986 0 0 1 1.8006,12.6516 T1.3605,11.3592 0.1851,7.4954 -1.1682,2.73 -1.7863,0.5361 A1.865,1.865 0 0 1 1.7863,-0.5361 Z" stroke-linecap="round" fill="#4dabf7"/></g></g><g transform="matrix(1, 0, 0, 1, 3353.2547, 26131.6698)" opacity="1"><g transform="scale(1)"><path d="M-1.549,-1.1628 T-0.8901,-2.0323 0.4882,-4.4266 2.0289,-8.5921 3.2811,-12.8217 5.4149,-16.1484 8.9345,-17.9103 12.4215,-17.8646 15.9876,-17.7889 19.354,-17.966 23.604,-18.7946 26.3836,-19.4401 A2.1079,2.1079 0 0 1 27.1589,-15.2961 T25.2634,-14.7926 21.6343,-13.9564 17.7545,-13.665 13.9481,-13.7997 9.795,-13.6682 6.8779,-11.7893 5.6521,-7.4484 3.851,-2.6752 2.2004,0.2869 1.549,1.1628 A1.9369,1.9369 0 0 1 -1.549,-1.1628 ZM28.7797,-18.0081 T29.143,-16.8436 29.8956,-14.128 30.4056,-11.5116 30.5262,-10.4464 A1.9291,1.9291 0 0 1 26.7138,-9.8536 T26.5053,-10.9052 25.8301,-13.4246 25.0631,-15.8102 24.7628,-16.7281 A2.1079,2.1079 0 0 1 28.7797,-18.0081 Z" stroke-linecap="round" fill="#4dabf7"/></g></g><g transform="matrix(1, 0, 0, 1, 3367.1007, 26124.2853)" opacity="1"><g transform="scale(1)"><path d="M0.3358,-2.0219 T1.7089,-1.7898 4.7591,-0.1111 6.4361,1.3354 A2.0989,2.0989 0 0 1 3.0222,3.778 T2.5905,3.103 0.9115,2.2249 -0.3358,2.0219 A2.0496,2.0496 0 0 1 0.3358,-2.0219 ZM6.605,3.4983 T6.1309,4.4147 7.3581,7.4024 8.9764,10.6312 8.8934,11.7886 A2.0557,2.0557 0 0 1 4.959,10.5956 T4.4198,10.1979 2.7071,8.6277 1.7408,5.4651 2.4007,2.545 2.8533,1.6152 A2.0989,2.0989 0 0 1 6.605,3.4983 ZM7.4241,13.1866 T6.6577,13.3777 3.9865,13.7366 0.5614,13.9182 -3.2447,13.8635 -5.5305,13.795 A1.7951,1.7951 0 0 1 -5.5495,10.205 T-3.2906,10.1036 0.403,9.9307 3.3686,9.7194 5.664,9.3887 6.4283,9.1977 A2.0557,2.0557 0 0 1 7.4241,13.1866 Z" stroke-linecap="round" fill="#4dabf7"/></g></g><g transform="matrix(1, 0, 0, 1, 3380.0236, 26146.4389)" opacity="1"><g transform="scale(1)"><path d="M-0.4973,1.9837 T-2.2489,1.5732 -5.4763,0.9775 -9.4399,0.6378 -14.0616,0.4309 -18.3355,0.2843 -21.7818,0.1222 -23.088,0.0541 A1.9041,1.9041 0 0 1 -23.072,-3.7541 T-21.7652,-3.8112 -18.2892,-3.9337 -13.9179,-3.9486 -9.0224,-3.6813 -4.655,-3.1887 -1.2419,-2.4483 0.4973,-1.9837 A2.045,2.045 0 0 1 -0.4973,1.9837 Z" stroke-linecap="round" fill="#4dabf7"/></g></g><g transform="matrix(1, 0, 0, 1, 3358.7931, 26153.8234)" opacity="1"><g transform="scale(1)"><path d="M0.308,-2.163 T1.8446,-1.9453 5.3691,0.1388 6.3471,4.7942 4.4715,8.9725 2.613,11.4161 1.3867,13.1681 1.1534,13.8658 A2.2816,2.2816 0 0 1 -3.3753,14.4258 T-3.2862,13.1483 -2.3556,10.656 -0.0843,7.6021 2.0378,4.1805 1.211,2.3805 -0.308,2.163 A2.1848,2.1848 0 0 1 0.308,-2.163 ZM0.27,12.3296 T0.7623,12.6793 3.2666,13.7129 7.7931,14.9648 11.8011,15.7807 13.2946,16.0284 A2.4603,2.4603 0 0 1 12.5454,20.8916 T11.0465,20.6782 8.0317,20.2378 3.9759,19.2207 -0.0595,17.577 -2.0235,16.3427 -2.4919,15.9621 A2.2816,2.2816 0 0 1 0.27,12.3296 Z" stroke-linecap="round" fill="#4dabf7"/></g></g><g transform="matrix(1, 0, 0, 1, 3232.3331, 26010.7482)" opacity="1"><g transform="scale(1)"><path d="M2.0785,-0.1726 T2.3258,2.4454 2.7132,6.8991 3.0187,13.1115 3.1842,17.4881 A2.2648,2.2648 0 0 1 -1.3442,17.5919 T-1.4342,13.3016 -1.6135,7.2148 -1.8907,2.7955 -2.0785,0.1726 A2.0856,2.0856 0 0 1 2.0785,-0.1726 ZM-1.3447,17.5581 T-1.3562,15.1813 -1.3379,11.0769 -1.2916,7.651 -1.5682,4.2792 -3.2387,4.1987 -5.5087,7.2538 -6.7849,9.489 -7.1683,10.2622 A2.3057,2.3057 0 0 1 -11.2917,8.1978 T-10.5503,6.7316 -8.5083,3.5708 -5.8739,0.5986 -2.6513,-1.0478 0.8875,0.54 2.8233,4.2274 3.1183,7.6654 3.1301,11.136 3.1588,15.2107 3.1847,17.5219 A2.2648,2.2648 0 0 1 -1.3447,17.5581 Z" stroke-linecap="round" fill="#4dabf7"/></g></g><g transform="matrix(1, 0, 0, 1, 2963.7209, 25904.1341)" opacity="1"><g transform="scale(1)"><path d="M 0 0 m -2.633441917710341, 0 a 2.633441917710341,2.633441917710341 0 1,1 5.266883835420682,0 a 2.633441917710341,2.633441917710341 0 1,1 -5.266883835420682,0" stroke-linecap="round" fill="#4dabf7"/></g></g></svg>