<svg xmlns="http://www.w3.org/2000/svg" direction="ltr" width="275.39625306356356" height="304.4578757010786" viewBox="3439.564731569262 27329.740212390796 275.39625306356356 304.4578757010786" stroke-linecap="round" stroke-linejoin="round" style="background-color: transparent;"><defs/><g transform="matrix(1, 0, 0, 1, 3640.8838, 27361.7402)" opacity="1"><g transform="scale(1)"><path d="M1.5912,1.4588 T-1.0122,4.3041 -5.6734,9.5686 -9.3722,13.5894 -13.513,17.2915 -17.8703,20.8842 -24.9905,27.3373 -33.1641,34.9935 -38.0808,39.5789 -41.6817,42.7642 -45.6468,46.2069 -49.8263,49.979 -53.6277,53.4224 -57.6233,56.8298 -61.7015,59.9106 -65.8118,62.6383 -70.2798,65.5397 -74.7701,68.5258 -78.7505,71.238 -82.239,74.0685 -85.4132,76.6935 -88.5431,79.1926 -92.2487,81.7531 -96.5365,84.1546 -100.5071,86.6298 -104.3102,89.4828 -108.3703,92.4421 -112.71,95.3112 -117.114,98.4105 -121.0085,101.1699 -124.6456,103.3799 -129.2436,105.7395 -133.7637,108.1045 -137.9066,110.5277 -141.8538,112.9487 -145.4942,115.4751 -149.1284,118.0736 -153.0755,120.6042 -157.4856,122.6063 -159.599,123.2619 A2.1494,2.1494 0 0 1 -161.001,119.1981 T-159.9265,118.79 -156.9911,117.4967 -153.3718,115.4962 -149.6469,112.7688 -145.5778,109.8383 -141.1695,107.0395 -136.8451,104.6072 -132.483,102.4868 -127.7519,99.8829 -123.5953,97.3038 -120.0304,94.7823 -116.4516,92.4045 -112.9414,89.8954 -109.3954,87.3663 -105.6481,84.7398 -101.6519,81.7773 -97.7227,79.3225 -93.7407,76.9403 -89.1214,73.7328 -84.9225,70.2898 -81.1957,67.326 -77.4266,64.805 -73.8516,62.3325 -70.1337,59.9056 -66.452,57.6239 -62.5481,54.9359 -58.5857,51.9701 -54.8822,48.4781 -50.8696,44.7103 -45.9098,40.5764 -41.0901,36.3487 -36.1347,31.7503 -27.7274,23.9389 -20.5718,17.4762 -16.4666,14.0973 -12.538,10.6191 -8.9222,6.6953 -4.2002,1.3814 -1.5912,-1.4588 A2.1587,2.1587 0 0 1 1.5912,1.4588 Z" stroke-linecap="round" fill="#f2f2f2"/></g></g><g transform="matrix(1, 0, 0, 1, 3471.5647, 27483.9705)" opacity="1"><g transform="scale(1)"><path d="M-0.2166,-2.1702 T2.1536,-2.4026 7.7734,-3.0505 14.2597,-3.7358 25.4974,-4.7263 37.7067,-5.4498 44.5631,-5.4603 49.317,-5.4705 54.7382,-5.2249 60.7299,-4.8046 66.1831,-4.5921 71.543,-4.5504 77.0163,-4.2952 82.2808,-3.8797 87.1198,-3.6724 92.5523,-3.6185 97.5714,-3.6102 101.7563,-3.8332 106.0898,-4.1758 111.6167,-4.4024 117.5912,-4.2817 122.7226,-3.8755 127.7002,-3.6802 132.6961,-3.6709 138.1226,-3.4073 143.3965,-2.969 147.8565,-2.7783 152.392,-2.7615 157.2623,-2.7684 162.7695,-2.7477 167.0756,-2.7071 168.32,-2.6881 A2.6881,2.6881 0 0 1 168.32,2.6881 T167.0756,2.7071 162.7691,2.7474 157.2601,2.7665 151.7557,2.7403 146.3211,2.6424 141.7866,2.3254 137.4116,1.8785 132.6802,1.6584 127.5949,1.5954 122.117,1.2957 117.1386,0.8526 111.8272,0.7552 106.5059,0.9757 102.0216,1.351 97.5614,1.5928 92.5039,1.5662 86.9366,1.4843 81.6513,1.2022 76.5201,0.7535 71.5009,0.4974 66.0203,0.4012 60.2192,0.1172 54.3473,-0.3437 49.2903,-0.6091 44.528,-0.6728 37.8238,-0.7849 25.7557,-0.2373 14.7805,0.5961 8.3878,1.2509 2.5859,1.9296 0.2166,2.1702 A2.1809,2.1809 0 0 1 -0.2166,-2.1702 Z" stroke-linecap="round" fill="#f2f2f2"/></g></g><g transform="matrix(1, 0, 0, 1, 3639.8819, 27362.7421)" opacity="1"><g transform="scale(1)"><path d="M2.5398,-0.3169 T3.0049,3.4752 3.7188,10.0185 4.1839,16.4489 4.4742,23.7004 4.5804,30.4353 4.6293,39.4918 4.6555,48.1584 4.6796,54.36 4.7007,59.9507 4.7164,64.6606 4.7369,69.3368 4.7597,73.6285 4.7864,78.423 4.8198,83.9384 4.8529,88.9928 4.8888,93.7139 4.9229,98.5166 4.9427,102.9663 4.9402,107.4888 4.8796,112.5166 4.8282,115.22 A2.8282,2.8282 0 0 1 -0.8282,115.22 T-0.8796,112.5166 -0.9402,107.4888 -0.9427,102.9663 -0.9229,98.5166 -0.8888,93.7139 -0.8529,88.9928 -0.8198,83.9384 -0.7864,78.4231 -0.7598,73.6285 -0.737,69.3369 -0.7166,64.6608 -0.7013,59.9513 -0.6818,54.3612 -0.6605,48.1601 -0.6445,39.5018 -0.6352,30.4739 -0.6713,23.8331 -0.8936,16.7841 -1.3282,10.5654 -2.0589,4.107 -2.5398,0.3169 A2.5595,2.5595 0 0 1 2.5398,-0.3169 Z" stroke-linecap="round" fill="#f2f2f2"/></g></g><g transform="matrix(1, 0, 0, 1, 3673.9461, 27387.7893)" opacity="1"><g transform="scale(1)"><path d="M1.8069,0 T1.8782,4.2645 1.7291,11.1089 1.3441,15.6728 1.0011,19.9047 0.8229,22.1525 A1.8263,1.8263 0 0 1 -2.8229,21.9275 T-2.7234,19.6749 -2.5393,15.367 -2.2021,10.9196 -1.8782,4.2637 -1.8069,0 A1.8069,1.8069 0 0 1 1.8069,0 Z" stroke-linecap="round" fill="#f2f2f2"/></g></g><g transform="matrix(1, 0, 0, 1, 3680.9593, 27414.8403)" opacity="1"><g transform="scale(1)"><path d="M0,1.8745 T-1.8967,1.9 -6.2767,1.9426 -11.7497,2.3897 -14.7396,2.8197 A1.8427,1.8427 0 0 1 -15.3204,-0.8197 T-12.044,-1.3897 -6.2805,-1.9426 -1.8967,-1.9 0,-1.8745 A1.8745,1.8745 0 0 1 0,1.8745 Z" stroke-linecap="round" fill="#f2f2f2"/></g></g><g transform="matrix(1, 0, 0, 1, 3666.9329, 27426.8629)" opacity="1"><g transform="scale(1)"><path d="M0.3291,-2.9687 T2.4627,-2.683 6.8884,-1.6648 10.2768,1.0731 9.7407,6.3171 8.8134,11.5697 11.5616,13.4127 13.6046,13.2418 A2.8205,2.8205 0 0 1 14.4554,18.8182 T13.4181,19.0056 9.1036,18.7847 3.9662,17.0289 1.9302,13.0143 2.8455,6.8454 1.8038,3.156 -0.3291,2.9687 A2.9869,2.9869 0 0 1 0.3291,-2.9687 Z" stroke-linecap="round" fill="#f2f2f2"/></g></g><g transform="matrix(1, 0, 0, 1, 3556.7252, 27372.761)" opacity="1"><g transform="scale(1)"><path d="M2.3499,0 T2.4263,7.3457 2.5576,22.8757 2.6126,31.06 A2.6126,2.6126 0 0 1 -2.6126,31.06 T-2.5576,22.8757 -2.4263,7.3457 -2.3499,0 A2.3499,2.3499 0 0 1 2.3499,0 Z" stroke-linecap="round" fill="#f2f2f2"/></g></g><g transform="matrix(1, 0, 0, 1, 3553.7195, 27375.7666)" opacity="1"><g transform="scale(1)"><path d="M1.6559,2.0689 T0.4868,3.0367 -2.5044,5.694 -5.9746,8.6934 -8.5541,10.621 -9.4854,11.2384 A2.6975,2.6975 0 0 1 -12.5546,6.8016 T-10.3131,5.0498 -6.0644,1.5434 -2.8565,-1.14 -1.6559,-2.0689 A2.65,2.65 0 0 1 1.6559,2.0689 Z" stroke-linecap="round" fill="#f2f2f2"/></g></g><g transform="matrix(1, 0, 0, 1, 3474.5704, 27487.9781)" opacity="1"><g transform="scale(1)"><path d="M1.0169,-2.5473 T2.1948,-2.0523 6.9191,1.0708 12.9957,5.8682 16.9831,9.384 19.8562,12.4742 22.9493,15.5547 26.7112,18.4353 30.6011,21.3772 34.4478,24.7321 38.5481,28.6606 42.0984,32.1073 45.6354,35.1728 49.4195,37.7477 53.1257,39.7199 57.1794,41.6197 61.5904,43.9753 65.8664,46.5585 70.2145,49.1015 74.7684,52.0782 79.048,55.1426 83.7525,57.9855 88.6035,60.4066 92.9158,62.4673 96.9706,64.3155 101.1739,66.7971 104.9638,69.9504 108.4339,72.9093 112.2966,75.8249 116.5645,78.5751 121.3427,81.4599 126.0707,84.4838 130.0383,86.9457 134.1572,89.4519 139.1522,92.4251 144.0641,95.3808 148.0317,97.9883 151.5749,100.1568 155.8969,102.7187 160.4716,105.8524 164.7859,108.7525 167.9216,110.6033 168.8668,111.118 A3.4663,3.4663 0 0 1 165.7732,117.322 T163.1855,116.1467 158.8035,113.7303 155.3083,111.3388 151.1695,108.7924 146.6299,106.2015 142.5167,103.5762 138.4478,100.7707 133.8504,97.9131 128.8707,94.8684 124.4854,92.1619 120.5073,89.6096 115.9673,86.6965 111.5131,83.9764 107.5725,81.2449 103.5798,78.1582 100.1057,75.1597 96.7719,72.4021 92.9067,70.0471 88.8857,67.9904 84.6076,65.8618 79.6199,63.2292 74.9887,60.3004 71.4455,57.694 67.7589,54.9596 63.2488,52.0318 58.1717,49.029 53.5388,46.4037 49.4683,44.2883 45.1028,41.6373 41.1978,38.8376 38.1337,36.1309 34.7217,32.7811 31.1883,29.5184 27.8085,26.5496 24.3314,23.4232 20.7729,20.4737 17.3857,17.3779 13.9424,13.8563 9.5674,9.9143 4.243,5.6277 0.1749,2.9983 -1.0169,2.5473 A2.7427,2.7427 0 0 1 1.0169,-2.5473 Z" stroke-linecap="round" fill="#9398b0"/></g></g><g transform="matrix(1, 0, 0, 1, 3639.8819, 27480.9649)" opacity="1"><g transform="scale(1)"><path d="M2.3246,0.145 T2.0871,3.936 1.7306,10.4181 1.5494,15.2289 1.4408,20.8473 1.0212,27.0874 0.5808,37.275 0.5223,49.074 0.5459,56.4302 0.5678,61.4913 0.5882,66.6379 0.6126,72.1571 0.6343,76.7082 0.6585,81.1025 0.6869,85.5804 0.7145,89.8437 0.7363,93.9228 0.7549,98.524 0.7761,104.2871 0.7968,110.2436 1.1669,114.9981 1.6661,118.4738 1.8046,119.9696 A2.8166,2.8166 0 0 1 -3.8046,120.4904 T-3.9438,118.9946 -4.4446,115.298 -4.7968,110.2831 -4.7761,104.2871 -4.7549,98.524 -4.7363,93.9228 -4.7145,89.8437 -4.6868,85.5803 -4.6581,81.1022 -4.6331,76.707 -4.6084,72.1537 -4.5731,66.6288 -4.5338,61.4762 -4.4813,56.4109 -4.3998,49.0485 -4.2115,37.0617 -3.6916,26.8531 -3.2538,20.7397 -3.1253,15.0496 -2.9259,10.1658 -2.5601,3.6461 -2.3246,-0.145 A2.3291,2.3291 0 0 1 2.3246,0.145 Z" stroke-linecap="round" fill="#9398b0"/></g></g><g transform="matrix(1, 0, 0, 1, 3636.8762, 27455.9177)" opacity="1"><g transform="scale(1)"><path d="M0,2.7302 T-1.6579,2.7108 -5.4876,2.6627 -9.8659,2.6032 -12.2451,4.9037 -11.9762,9.5294 -11.4622,13.8173 -11.3512,18.5259 -11.2928,23.1414 -11.2732,25.0419 A2.7568,2.7568 0 0 1 -16.7868,25.0581 T-16.7784,23.1576 -16.7698,17.6335 -16.896,11.7347 -17.3132,6.9846 -17.3307,2.4364 -14.5843,-1.1047 -9.8854,-2.6032 -5.4876,-2.6627 -1.6579,-2.7108 0,-2.7302 A2.7302,2.7302 0 0 1 0,2.7302 Z" stroke-linecap="round" fill="#9398b0"/></g></g><g transform="matrix(1, 0, 0, 1, 3621.8479, 27482.9686)" opacity="1"><g transform="scale(1)"><path d="M3.0409,-0.506 T3.4335,2.3531 3.824,7.8879 3.8066,12.5674 3.7707,16.7843 5.5805,19.8371 10.0595,20.3805 12.7083,20.084 A2.9724,2.9724 0 0 1 13.3317,25.996 T12.0637,26.1315 8.6606,26.6009 4.2507,26.7115 0.082,25.1178 -1.7852,21.3718 -1.7898,16.7932 -1.8501,12.5917 -1.9065,8.376 -2.4875,3.3323 -3.0409,0.506 A3.0827,3.0827 0 0 1 3.0409,-0.506 Z" stroke-linecap="round" fill="#9398b0"/></g></g><g transform="matrix(1, 0, 0, 1, 3673.9461, 27517.0328)" opacity="1"><g transform="scale(1)"><path d="M1.9688,0.1156 T1.7429,4.1438 1.2612,12.6599 1.0054,17.1478 A2.0089,2.0089 0 0 1 -3.0054,16.9122 T-2.7342,12.4253 -2.2159,3.9114 -1.9688,-0.1156 A1.9722,1.9722 0 0 1 1.9688,0.1156 Z" stroke-linecap="round" fill="#9398b0"/></g></g><g transform="matrix(1, 0, 0, 1, 3677.9536, 27543.0819)" opacity="1"><g transform="scale(1)"><path d="M0,2.0477 T-2.1332,2.0896 -6.5808,2.1459 -11.4625,2.1345 -14.03,2.1087 A2.1087,2.1087 0 0 1 -14.03,-2.1087 T-11.4625,-2.1345 -6.5808,-2.1459 -2.1332,-2.0896 0,-2.0477 A2.0477,2.0477 0 0 1 0,2.0477 Z" stroke-linecap="round" fill="#9398b0"/></g></g><g transform="matrix(1, 0, 0, 1, 3665.931, 27551.097)" opacity="1"><g transform="scale(1)"><path d="M0.4571,-3.6661 T2.4067,-3.3526 7.082,-0.7383 7.852,6.5443 8.123,12.3359 13.3903,12.9249 16.4306,12.7042 A3.3794,3.3794 0 0 1 17.6294,19.3558 T14.9043,19.919 9.3586,20.2088 4.0104,18.7707 0.2134,14.4073 -0.3002,9.3515 1.8431,5.7397 1.3868,3.8256 -0.4571,3.6661 A3.6945,3.6945 0 0 1 0.4571,-3.6661 Z" stroke-linecap="round" fill="#9398b0"/></g></g><g transform="matrix(1, 0, 0, 1, 3544.7025, 27570.1329)" opacity="1"><g transform="scale(1)"><path d="M2.4312,0 T2.5755,3.555 2.5853,10.0537 2.3749,15.1572 1.3546,20.5267 0.4102,23.7364 A2.9474,2.9474 0 0 1 -4.4102,20.3436 T-4.0769,18.6588 -3.5702,14.7407 -3.0583,9.8079 -2.5755,3.5542 -2.4312,0 A2.4312,2.4312 0 0 1 2.4312,0 Z" stroke-linecap="round" fill="#9398b0"/></g></g><g transform="matrix(1, 0, 0, 1, 3542.6988, 27571.1348)" opacity="1"><g transform="scale(1)"><path d="M0,2.5561 T-0.5463,2.5169 -3.4227,4.3776 -7.7759,7.5007 -11.2743,9.5006 -12.7496,10.2774 A2.5952,2.5952 0 0 1 -15.3104,5.7626 T-12.7568,4.2048 -7.9247,1.1382 -3.7006,-1.4242 -0.8774,-2.5169 0,-2.5561 A2.5561,2.5561 0 0 1 0,2.5561 Z" stroke-linecap="round" fill="#9398b0"/></g></g></svg>