<svg xmlns="http://www.w3.org/2000/svg" direction="ltr" width="514.8216655580163" height="434.5717723299421" viewBox="251.11075008316772 364.00000284131164 514.8216655580163 434.5717723299421" stroke-linecap="round" stroke-linejoin="round" data-color-mode="dark" class="tl-container tl-theme__force-sRGB tl-theme__dark" style="background-color: transparent;"><defs/><g transform="matrix(1, 0, 0, 1, 308, 399)" opacity="1"><g transform="scale(1)"><path d="M0,-2.2296 T1.419,-2.2159 5.2121,-2.1915 9.7244,-2.1774 13.8734,-2.1695 18.6293,-1.8632 23.8753,-1.3882 28.8477,-1.2104 33.4224,-1.214 37.5403,-1.234 41.5575,-1.2569 45.8622,-1.2771 50.124,-1.6383 54.2795,-2.3235 59.2394,-2.9575 64.4699,-3.3004 69.4164,-3.7779 74.8445,-4.2847 79.7853,-4.367 83.7829,-4.3812 87.928,-4.018 93.2161,-3.2761 99.1158,-2.7005 104.3252,-2.105 109.0111,-1.6124 113.4334,-1.4894 118.0405,-1.4616 122.8048,-1.4598 127.3785,-1.4594 132.0236,-1.4583 136.5639,-1.4578 140.714,-1.4538 145.1168,-1.4463 149.5898,-1.4379 153.9577,-1.4271 158.421,-1.4161 162.7929,-1.6186 167.6184,-2.0355 172.6895,-2.297 177.5848,-2.3613 182.5541,-2.3761 187.3369,-2.5959 192.2757,-3.0201 197.8298,-3.2798 203.3453,-3.3471 208.6116,-3.3694 213.8105,-3.3821 218.8658,-3.3915 223.6444,-3.6135 228.8292,-4.0438 234.3508,-4.3116 239.7453,-4.7408 245.3385,-5.2289 250.7291,-5.3751 255.8427,-5.4188 261.1114,-5.4341 266.4225,-5.441 271.87,-5.445 277.3554,-5.4477 282.6148,-5.4497 287.8148,-5.4509 293.2136,-5.0862 298.9196,-4.6308 304.8333,-4.1515 311.0013,-3.4116 316.7224,-2.8644 322.2919,-2.358 328.0353,-1.8624 333.8676,-1.2601 339.8206,-0.7391 345.7031,-0.6087 352.0311,-0.5776 358.4834,-0.5737 364.8457,-0.5792 371.114,-0.8127 377.3103,-1.2548 383.9204,-1.5308 390.6887,-1.6138 397.158,-1.9999 403.1713,-2.4683 408.601,-2.3257 413.7859,-1.8249 417.7514,-1.4872 419.0675,-1.4048 A2.4058,2.4058 0 0 1 418.9325,3.4048 T416.376,3.4225 411.1424,3.0598 406.0741,2.7385 400.7008,2.9769 394.1199,3.4088 387.3407,3.6823 380.9741,3.7901 374.5803,4.2336 367.9944,4.582 361.5624,4.5698 355.3154,4.5575 348.8727,4.5271 342.5788,4.4361 336.3787,4.1194 330.3628,3.5378 324.6807,2.8108 319.1395,2.2914 313.4828,1.7435 307.4074,1.094 301.4591,0.5881 295.6232,0.099 290.2887,-0.3304 285.3985,-0.5495 280.0254,-0.5511 274.5332,-0.5533 269.0616,-0.5557 263.6638,-0.5578 258.5316,-0.5567 253.5041,-0.5427 248.4003,-0.4807 243.0309,-0.2549 237.3015,0.202 231.8124,0.5778 226.656,1.0378 221.536,1.3993 216.5034,1.3909 211.4028,1.3847 206.0417,1.3889 200.5891,1.423 195.2794,1.5468 190.0195,2.0116 184.9033,2.3852 179.9338,2.399 175.0574,2.4387 170.4787,2.5669 165.7386,3.0354 160.8284,3.4106 156.1062,3.4216 151.6758,3.4336 147.4265,3.4428 142.9777,3.4497 138.6621,3.4556 134.3771,3.4577 129.7998,3.4575 125.0214,3.4536 120.3715,3.4425 115.7785,3.4128 110.9374,3.3278 106.1087,3.0338 101.6776,2.5272 96.6392,1.7874 91.5773,1.2097 86.6295,0.7429 80.8109,0.3945 75.05,0.4545 69.6285,0.9382 64.6027,1.3957 60.0227,1.6082 54.8137,2.2652 49.154,3.0093 44.3923,3.2698 40.2628,3.249 36.2294,3.227 32.0008,3.2057 27.2937,3.171 22.3137,2.8267 17.8627,2.3362 13.8734,2.1695 9.7244,2.1774 5.2121,2.1915 1.419,2.2159 0,2.2296 A2.2296,2.2296 0 0 1 0,-2.2296 Z" stroke-linecap="round" fill="#9398b0"/></g></g><g transform="matrix(1, 0, 0, 1, 300, 439)" opacity="1"><g transform="scale(1)"><path d="M0.4399,2.1995 T-0.7506,2.3962 -4.2562,3.2016 -7.6972,3.8912 -8.8231,3.9722 A1.9801,1.9801 0 0 1 -9.1769,0.0278 T-7.8831,-0.1368 -4.6891,-0.9742 -1.6144,-1.9232 -0.4399,-2.1995 A2.243,2.243 0 0 1 0.4399,2.1995 ZM-9.0124,0.02 T-8.4549,0.0355 -5.5353,-0.4403 -1.146,-0.9673 3.1916,-1.4503 7.838,-2.3346 12.4009,-2.9342 17.4108,-3.1365 22.6526,-3.1962 27.1005,-3.2286 31.0995,-3.2516 35.5915,-3.0091 40.82,-2.5669 45.7506,-2.3603 50.3488,-2.3442 55.223,-2.0925 59.9502,-1.6784 64.78,-1.4745 69.9762,-1.4233 75.2396,-1.0516 80.5402,-0.5954 86.0124,-0.4782 91.9491,-0.1969 97.9305,0.2359 103.4395,0.7167 108.8132,1.2143 114.4474,1.4659 120.3495,1.543 126.559,1.5674 132.8537,1.5763 138.6993,1.5802 144.1833,1.585 149.8035,1.5938 155.4616,1.6028 161.3666,1.61 167.5767,1.6158 173.3986,1.6199 179.1126,1.6229 185.6308,1.6256 192.1231,1.6223 198.2598,1.6139 204.0613,1.6096 209.645,1.6066 215.8905,1.6078 222.0706,1.6142 227.7595,1.6186 233.2,1.6218 238.6522,1.8786 243.9094,2.3042 248.901,2.5227 253.7665,2.5832 258.4792,2.5978 263.5627,2.5998 268.8353,2.5985 273.7481,2.6009 278.1234,2.6034 282.3246,2.2494 287.5713,1.7619 293.2665,1.6079 298.1055,1.5813 302.5738,1.5705 308.5097,1.5567 315.3387,1.5462 320.9713,1.5455 326.147,1.545 331.0712,1.5447 335.3279,1.5444 339.5238,1.5463 344.8248,1.1983 350.6291,0.7457 355.8138,0.617 361.1072,0.238 365.9542,-0.2293 370.67,-0.7293 375.7765,-1.4409 381.1105,-2.2516 386.2441,-2.9884 391.5499,-3.7462 397.5077,-4.6727 402.8073,-5.2144 407.8441,-5.7261 412.9762,-6.2343 417.5553,-6.3776 421.9823,-6.1257 426.7542,-5.5334 429.2202,-5.2187 A2.2296,2.2296 0 0 1 428.7798,-0.7813 T427.393,-0.879 422.8648,-1.2644 417.6577,-1.5195 412.5539,-1.295 407.4164,-0.8002 402.338,-0.2922 397.1352,0.2419 392.6705,1.0321 387.7751,1.7252 383.1429,2.3263 379.1357,3.0959 374.643,3.669 370.2168,4.1707 365.7269,4.6996 360.7976,5.1757 355.9043,5.4816 350.943,5.6092 346.1008,6.0768 341.6483,6.4512 337.3013,6.4557 332.9295,6.4554 328.4425,6.4552 323.5864,6.4548 318.2531,6.4544 312.053,6.4499 305.379,6.4392 299.9551,6.4321 295.5313,6.4357 290.908,6.4625 285.9605,6.6891 280.8692,7.145 275.9957,7.3981 271.2778,7.4001 265.8963,7.3988 260.3736,7.3925 255.7429,7.379 251.2284,7.3388 246.2773,7.2003 240.9664,6.7338 235.7038,6.3767 230.2382,6.3799 224.4022,6.3839 218.5438,6.3892 212.6509,6.3929 206.6338,6.3907 200.9749,6.3871 194.9029,6.3817 188.6434,6.3756 182.6068,6.3755 176.521,6.3784 170.6149,6.382 164.5042,6.3869 158.5542,6.3932 152.7344,6.4012 146.9345,6.4116 141.206,6.4181 135.2863,6.4193 129.1266,6.4192 123.0004,6.4123 116.994,6.3783 110.9653,6.2396 105.2862,5.7463 100.0516,5.2575 94.5953,4.7872 88.8044,4.4055 82.7253,4.327 76.85,4.0415 71.8229,3.5962 67.1679,3.3406 62.0307,3.1877 56.9926,2.7059 52.2953,2.3298 47.4696,2.293 43.0795,2.2042 39.0793,1.9212 35.1056,1.4822 31.0997,1.2518 27.1012,1.2292 22.6571,1.1999 17.4842,1.1821 12.3788,1.3579 7.984,1.8627 3.9479,2.6018 -0.5551,3.0126 -5.3549,3.473 -8.3343,3.9569 -8.9876,3.98 A1.9801,1.9801 0 0 1 -9.0124,0.02 Z" stroke-linecap="round" fill="#9398b0"/></g></g><g transform="matrix(1, 0, 0, 1, 589, 438)" opacity="1"><g transform="scale(1)"><path d="M-2.0412,1.0206 T-2.4979,0.0649 -3.4864,-3.1828 -3.795,-7.5154 -2.5672,-11.7879 0.5054,-14.9556 4.8382,-15.198 8.4763,-12.9312 10.7865,-9.051 11.1455,-4.3139 8.8528,-0.2662 4.6304,2.1746 0.2003,2.205 -3.1713,-0.632 -5.2479,-4.9024 -5.269,-9.52 -3.664,-13.6358 -0.4644,-16.2414 4.088,-15.9127 7.6089,-12.8506 9.495,-8.9736 9.9595,-4.9552 8.466,-1.266 5.3996,1.2284 1.6197,1.3964 -1.6576,-1.5544 -2.9086,-6.3402 -1.563,-10.6787 1.7119,-13.0277 5.924,-12.1288 8.7919,-8.7366 8.9008,-4.2441 7.0224,-1.1717 5.6923,-0.5745 A2.7038,2.7038 0 0 1 4.1944,-5.7704 T2.9184,-6.3587 3.5493,-5.9305 4.865,-7.2614 2.0795,-10.4042 -0.6464,-9.1225 0.0209,-4.3835 3.3147,-2.1738 6.4499,-4.3282 6.534,-7.9972 3.6948,-10.7341 1.0291,-9.4317 0.6547,-5.126 1.5519,-1.9569 2.0412,-1.0206 A2.2821,2.2821 0 0 1 -2.0412,1.0206 ZM2.5968,-1.8293 T1.964,-2.9738 0.9489,-5.029 0.5665,-5.9397 A2.6544,2.6544 0 0 1 5.4335,-8.0603 T5.8401,-7.1601 6.7683,-5.3878 7.2899,-4.5156 A2.7038,2.7038 0 0 1 2.5968,-1.8293 Z" stroke-linecap="round" fill="#9398b0"/></g></g><g transform="matrix(1, 0, 0, 1, 579, 435)" opacity="1"><g transform="scale(1)"><path d="M-2.6027,0 T-2.5793,-1.4273 -2.161,-4.9786 -1.5537,-9.6499 0.3312,-13.9833 4.4117,-16.1045 9.3799,-16.8129 14.5911,-17.675 19.2479,-18.2556 22.8134,-16.3653 24.4823,-12.257 24.6106,-8.1232 24.6389,-4.5881 24.648,-3.0607 A2.6481,2.6481 0 0 1 19.3518,-3.0595 T19.3574,-4.086 19.3725,-7.102 19.722,-11.2354 18.0195,-12.921 13.9556,-12.3364 8.9966,-11.8388 4.6968,-9.7807 2.9451,-5.4576 2.5793,-1.4107 2.6027,0 A2.6027,2.6027 0 0 1 -2.6027,0 ZM22.0662,-5.7074 T23.0699,-5.6965 26.4835,-5.7193 30.8899,-5.7877 34.8861,-5.8552 38.8859,-5.9196 42.8858,-5.9821 46.8858,-6.0396 51.6115,-5.7886 54.3371,-5.5109 A3.1238,3.1238 0 0 1 52.4885,0.4569 T50.6872,0.2616 46.8858,0.0396 42.8858,-0.0179 38.8859,-0.0804 34.8861,-0.1449 30.8889,-0.2126 26.4579,-0.2898 22.9789,-0.3724 21.9337,-0.4128 A2.6481,2.6481 0 0 1 22.0662,-5.7074 ZM50.4321,-3.4613 T50.6146,-3.9468 50.829,-6.6035 50.8687,-10.8261 52.484,-15.2427 55.3351,-17.8155 56.5788,-18.023 A3.1341,3.1341 0 0 1 57.3647,-11.8043 T57.2435,-12.3394 57.1241,-10.8079 57.0784,-6.2805 56.7123,-2.7062 56.3936,-1.5927 A3.1238,3.1238 0 0 1 50.4321,-3.4613 ZM58.0754,-17.847 T58.7782,-17.5503 61.6944,-17.2193 66.0344,-17.5114 69.9074,-16.3926 71.9083,-12.5523 72.1718,-8.1372 74.5086,-6.1904 78.8592,-6.2868 81.7526,-8.1114 82.628,-12.3616 81.1736,-16.2235 77.4692,-19.0705 73.271,-21.5091 69.1949,-22.5823 64.5921,-22.6514 60.1132,-22.6465 55.8561,-23.0905 50.9296,-24.7584 46.0533,-26.2889 41.857,-27.0694 37.4175,-27.5883 32.9233,-28.0948 28.4924,-28.5918 24.1091,-28.641 19.8297,-28.253 15.4115,-27.8061 11.1318,-27.0013 6.7861,-25.1482 2.9229,-22.4254 -0.2846,-19.404 -2.7825,-15.8124 -3.8816,-11.348 -3.8257,-7.0803 -3.2105,-4.9862 -2.7972,-4.8896 A2.8783,2.8783 0 0 1 -5.0093,0.425 T-6.3311,-0.5431 -8.7744,-3.7548 -9.9193,-8.0905 -9.7456,-12.5789 -8.501,-17.5676 -6.1453,-21.9473 -2.9303,-25.5341 1.0664,-28.5433 5.2594,-30.8485 10.1567,-33.1054 15.3262,-34.4055 20.4084,-34.9494 25.1239,-35.3582 29.2402,-35.3279 33.7407,-34.839 38.246,-34.3421 42.869,-33.7913 47.504,-32.7052 52.1297,-31.1479 56.8723,-29.7618 61.1158,-29.3499 65.1352,-29.3328 69.3875,-29.2178 73.9169,-28.3792 78.5767,-26.2952 82.6035,-23.8212 86.1855,-21.1137 88.7358,-17.1693 89.3648,-12.34 89.315,-7.782 88.5083,-3.4054 84.8191,-0.3984 79.9019,0.3113 75.5743,0.3551 71.1451,0.5474 67.5376,-0.9414 65.9154,-4.8341 66.5255,-9.3435 65.0533,-11.2113 60.7385,-10.9247 57.2383,-11.4971 55.8681,-11.9803 A3.1341,3.1341 0 0 1 58.0754,-17.847 ZM-1.0419,-1.9202 T-1.0795,-1.6001 -1.117,-1.28 A2.873,2.873 0 0 1 -6.8292,-1.903 T-6.7969,-2.2237 -6.7646,-2.5444 A2.8783,2.8783 0 0 1 -1.0419,-1.9202 ZM-2.5391,0.898 T-2.7831,1.0359 -3.0271,1.1738 A2.8684,2.8684 0 0 1 -5.8906,-3.7972 T-5.6489,-3.9391 -5.4072,-4.081 A2.873,2.873 0 0 1 -2.5391,0.898 ZM-7.2355,-0.5922 T-7.4978,-1.7193 -7.3432,-5.0519 -6.5532,-8.7919 -6.18,-10.3263 A2.7857,2.7857 0 0 1 -0.915,-8.5041 T-1.1005,-8.093 -1.6838,-5.5123 -1.8819,-2.687 -1.6822,-2.0312 A2.8684,2.8684 0 0 1 -7.2355,-0.5922 ZM-0.8805,-10.2196 T-0.5951,-9.1707 -0.2649,-5.6885 -0.2151,-1.1293 -0.2101,0.9966 A2.7899,2.7899 0 0 1 -5.7899,1.0034 T-5.7911,-1.1121 -5.8214,-5.4183 -6.0325,-8.11 -6.2146,-8.6108 A2.7857,2.7857 0 0 1 -0.8805,-10.2196 ZM-5.7899,1.0001 T-5.785,-0.2717 -5.4974,-4.7978 -4.5765,-11.6824 -3.9385,-15.3127 A2.7276,2.7276 0 0 1 1.3017,-13.7964 T0.9409,-12.6513 0.3703,-9.216 -0.0297,-4.2346 -0.215,-0.2717 -0.2101,0.9999 A2.7899,2.7899 0 0 1 -5.7899,1.0001 ZM-2.1914,-17.1387 T-1.8802,-17.2457 -1.569,-17.3528 A2.7312,2.7312 0 0 1 0.1794,-12.1777 T-0.133,-12.0741 -0.4454,-11.9705 A2.7276,2.7276 0 0 1 -2.1914,-17.1387 ZM1.9058,-15.5997 T2.2624,-14.409 2.1747,-10.437 1.7305,-7.6558 A2.7521,2.7521 0 0 1 -3.7305,-8.3442 T-3.2764,-10.4797 -3.0588,-13.273 -3.2954,-13.9309 A2.7312,2.7312 0 0 1 1.9058,-15.5997 ZM-3.6854,-8.6022 T-3.4197,-9.7497 -2.3174,-13.0778 -0.4849,-17.8124 1.4483,-22.1016 2.3855,-23.8367 A2.5678,2.5678 0 0 1 7.0091,-21.6014 T6.181,-19.9948 4.4687,-15.9166 2.853,-11.4307 1.9034,-8.4071 1.6854,-7.3978 A2.7521,2.7521 0 0 1 -3.6854,-8.6022 ZM7.2524,-22.9744 T7.3708,-21.805 7.1162,-18.3464 6.7019,-13.9944 6.6604,-11.9317 A2.6613,2.6613 0 0 1 1.3396,-12.0683 T1.384,-13.4627 1.8855,-17.6422 2.2425,-21.4455 2.1422,-22.4637 A2.5678,2.5678 0 0 1 7.2524,-22.9744 ZM1.3389,-12.0305 T1.4172,-13.001 2.4876,-15.7661 4.7866,-19.6448 7.7051,-23.8919 10.9229,-27.8999 12.5292,-29.7449 A2.533,2.533 0 0 1 16.1675,-26.2197 T15.4201,-25.456 13.373,-22.814 10.5618,-18.7578 7.797,-15.0141 6.6025,-12.7089 6.6611,-11.9695 A2.6613,2.6613 0 0 1 1.3389,-12.0305 ZM14.2797,-30.5144 T14.4338,-30.5199 14.5879,-30.5253 A2.5355,2.5355 0 0 1 14.7253,-25.4561 T14.5712,-25.4532 14.417,-25.4503 A2.533,2.533 0 0 1 14.2797,-30.5144 ZM16.9283,-26.8645 T16.3944,-25.7779 14.8295,-21.8921 13.7986,-19.0931 A2.6523,2.6523 0 0 1 8.9688,-21.2867 T9.4158,-22.1859 10.7106,-25.2768 11.9716,-28.2927 12.3849,-29.1168 A2.5355,2.5355 0 0 1 16.9283,-26.8645 ZM12.1647,-22.7246 T12.3108,-22.6807 12.4569,-22.6368 A2.6544,2.6544 0 0 1 10.8936,-17.5634 T10.7481,-17.6093 10.6027,-17.6552 A2.6523,2.6523 0 0 1 12.1647,-22.7246 ZM9.8273,-22.0057 T10.9015,-23.0359 13.7966,-26.1822 17.1064,-29.7175 18.5954,-31.1369 A2.6965,2.6965 0 0 1 22.1358,-27.0687 T20.1926,-25.1864 16.7149,-21.5643 14.3518,-19.0095 13.5231,-18.1945 A2.6544,2.6544 0 0 1 9.8273,-22.0057 ZM20.7968,-31.7646 T20.9472,-31.7427 21.0976,-31.7209 A2.7015,2.7015 0 0 1 20.2337,-26.3874 T20.084,-26.4142 19.9344,-26.4409 A2.6965,2.6965 0 0 1 20.7968,-31.7646 ZM23.3405,-29.4325 T23.4822,-28.4586 23.2658,-25.239 22.6936,-21.4067 22.4794,-19.82 A2.8412,2.8412 0 0 1 16.7982,-19.6998 T16.8598,-21.1464 17.5559,-24.9009 18.0906,-27.9423 17.9908,-28.6758 A2.7015,2.7015 0 0 1 23.3405,-29.4325 ZM17.3204,-21.4024 T18.1055,-22.5066 20.3914,-25.2357 22.8424,-27.5599 23.7927,-28.2592 A2.8353,2.8353 0 0 1 27.0538,-23.6202 T25.224,-21.8871 22.6757,-19.1357 21.9572,-18.1175 A2.8412,2.8412 0 0 1 17.3204,-21.4024 ZM27.8397,-27.4228 T27.9772,-27.2012 28.1146,-26.9796 A2.8377,2.8377 0 0 1 23.2775,-24.0108 T23.1422,-24.2337 23.0068,-24.4566 A2.8353,2.8353 0 0 1 27.8397,-27.4228 ZM28.4669,-24.883 T28.2323,-23.8026 27.4993,-21.1114 27.001,-19.5004 A2.8955,2.8955 0 0 1 21.3483,-20.7589 T21.8687,-22.2383 22.6571,-24.9126 22.9252,-26.1075 A2.8377,2.8377 0 0 1 28.4669,-24.883 ZM24.624,-22.9901 T24.8193,-22.9598 25.0145,-22.9296 A2.8963,2.8963 0 0 1 24.1156,-17.2071 T23.9204,-17.2382 23.7253,-17.2692 A2.8955,2.8955 0 0 1 24.624,-22.9901 ZM22.5787,-22.1762 T23.6995,-23.2138 26.2813,-25.9777 28.7207,-28.4534 29.6989,-29.2029 A2.8615,2.8615 0 0 1 33.0992,-24.5996 T32.0271,-23.6625 29.6148,-21.1735 27.413,-18.791 26.5514,-17.9605 A2.8963,2.8963 0 0 1 22.5787,-22.1762 ZM33.7799,-28.4887 T33.9228,-28.276 34.0656,-28.0634 A2.8633,2.8633 0 0 1 29.301,-24.8865 T29.1596,-25.1002 29.0183,-25.3138 A2.8615,2.8615 0 0 1 33.7799,-28.4887 ZM34.3828,-25.5205 T33.8872,-24.0911 32.9648,-20.5853 31.8663,-16.1386 31.1945,-13.7684 A3.0185,3.0185 0 0 1 25.3108,-15.1205 T26.1124,-17.6766 27.478,-22.5269 28.5129,-26.1252 28.9838,-27.4295 A2.8633,2.8633 0 0 1 34.3828,-25.5205 ZM25.8399,-16.2583 T26.2654,-16.809 28.4064,-19.6541 31.4306,-23.7077 33.9695,-26.863 35.1997,-28.2589 A2.8886,2.8886 0 0 1 38.8003,-23.7411 T38.1251,-22.903 36.0784,-20.1256 33.2734,-16.205 31.2526,-13.4271 30.6654,-12.6306 A3.0185,3.0185 0 0 1 25.8399,-16.2583 ZM39.5734,-24.6879 T39.26,-24.3416 38.5625,-21.9066 37.4082,-17.4791 36.1238,-13.0349 35.68,-10.1989 35.7504,-9.4686 A3.0646,3.0646 0 0 1 29.6251,-9.6868 T30.0698,-11.9767 31.1969,-16.674 32.5279,-21.7024 33.8016,-25.8178 34.4266,-27.3121 A2.8886,2.8886 0 0 1 39.5734,-24.6879 ZM30.2008,-11.3684 T30.8455,-12.2621 32.7072,-15.2939 35.3277,-19.6278 38.5623,-24.2925 40.3935,-26.7613 A2.8764,2.8764 0 0 1 44.6237,-22.8626 T44.2231,-22.4914 42.7753,-20.3759 40.3226,-16.3103 37.822,-11.9675 35.9508,-8.8666 35.1747,-7.787 A3.0646,3.0646 0 0 1 30.2008,-11.3684 ZM45.2039,-23.8074 T44.7586,-22.6147 43.4371,-18.4682 41.9965,-13.2523 41.4999,-9.6023 41.5676,-8.2143 A3.0511,3.0511 0 0 1 35.5224,-7.3821 T35.3956,-8.8194 35.6937,-12.5127 36.86,-16.9286 38.3122,-21.3904 39.4182,-24.7544 39.8133,-25.8165 A2.8764,2.8764 0 0 1 45.2039,-23.8074 ZM36.7681,-10.2785 T37.2477,-10.5665 39.2249,-12.6256 42.3413,-16.4071 45.4518,-20.488 47.5372,-23.4069 48.1309,-24.2552 A2.8809,2.8809 0 0 1 52.8824,-20.9963 T52.193,-19.9739 50.1705,-16.9785 47.1894,-12.8597 43.976,-8.8196 41.3662,-6.1217 40.3219,-5.3179 A3.0511,3.0511 0 0 1 36.7681,-10.2785 ZM53.3831,-22.4675 T53.2797,-21.1291 52.8024,-17.6645 51.9949,-13.2957 51.563,-9.4445 51.5648,-7.8359 A2.9996,2.9996 0 0 1 45.5871,-7.3266 T45.7164,-9.9135 46.3439,-14.7863 47.2229,-19.1463 47.6169,-22.0022 47.6301,-22.784 A2.8809,2.8809 0 0 1 53.3831,-22.4675 ZM46.0202,-9.1516 T46.6837,-10.2259 48.3003,-13.2317 50.3155,-17.3153 52.234,-21.1926 53.0904,-22.9178 A2.8902,2.8902 0 0 1 58.3681,-20.5601 T57.6451,-19.0598 55.7734,-15.0402 53.7163,-10.6353 51.9697,-7.3803 51.1317,-6.0109 A2.9996,2.9996 0 0 1 46.0202,-9.1516 ZM58.5965,-22.1019 T58.7106,-21.1887 58.8247,-20.2755 A2.8872,2.8872 0 0 1 53.096,-19.5503 T52.979,-20.4632 52.8619,-21.376 A2.8902,2.8902 0 0 1 58.5965,-22.1019 ZM58.6269,-18.8058 T58.2209,-17.8169 57.815,-16.828 A2.8958,2.8958 0 0 1 52.4661,-19.0487 T52.88,-20.0344 53.2939,-21.02 A2.8872,2.8872 0 0 1 58.6269,-18.8058 ZM57.276,-19.8942 T57.4801,-19.6731 57.6842,-19.452 A2.8981,2.8981 0 0 1 53.4099,-15.537 T53.2075,-15.7598 53.0051,-15.9825 A2.8958,2.8958 0 0 1 57.276,-19.8942 ZM54.1085,-20.0104 T54.7967,-20.3973 57.576,-21.9703 61.1766,-23.7197 62.6859,-24.2829 A2.8892,2.8892 0 0 1 65.0533,-19.0117 T63.7694,-18.4653 60.6293,-16.9664 57.8794,-15.4962 56.9856,-14.9786 A2.8981,2.8981 0 0 1 54.1085,-20.0104 ZM65.5722,-23.9815 T66.2737,-23.4647 69.0455,-23.7363 71.1158,-24.5247 A2.8573,2.8573 0 0 1 72.735,-19.0443 T70.6021,-18.1645 65.9061,-17.8752 62.755,-18.8894 62.167,-19.3131 A2.8892,2.8892 0 0 1 65.5722,-23.9815 ZM74.4893,-23.0456 T75.0759,-21.7222 75.7739,-18.2572 75.8854,-16.1158 A2.8878,2.8878 0 0 1 70.1146,-15.8842 T70.0688,-17.6623 69.6923,-19.9819 69.3615,-20.5233 A2.8573,2.8573 0 0 1 74.4893,-23.0456 Z" stroke-linecap="round" fill="#4dabf7"/></g></g><g transform="matrix(1, 0, 0, 1, 652, 419)" opacity="1"><g transform="scale(1)"><path d="M1.869,-3.738 T3.2301,-2.9127 6.1151,-1.1827 7.6389,-0.2779 A3.6648,3.6648 0 0 1 4.3611,6.2779 T2.7229,5.6017 -0.3921,4.3317 -1.869,3.738 A4.1792,4.1792 0 0 1 1.869,-3.738 Z" stroke-linecap="round" fill="#4dabf7"/></g></g><g transform="matrix(1, 0, 0, 1, 641, 430)" opacity="1"><g transform="scale(1)"><path d="M-2.3318,1.2863 T-2.9116,0.1931 -3.4915,-0.9002 A2.6224,2.6224 0 0 1 1.101,-3.4335 T1.7164,-2.3599 2.3318,-1.2863 A2.663,2.663 0 0 1 -2.3318,1.2863 ZM-0.3643,0.3205 T-0.9833,0.4597 -0.0067,1.7883 0.5895,1.8185 -0.4098,0.6593 A2.6907,2.6907 0 0 1 0.4098,-4.6593 T1.4141,-4.5391 4.6949,-3.3109 7.1849,0.8331 5.7814,5.9903 1.6414,8.7923 -3.339,8.0593 -5.9541,3.7375 -4.7959,-1.5296 -1.0401,-4.6854 3.5612,-4.7098 6.8337,-1.9766 7.4297,2.8573 4.9585,6.8582 0.4765,8.1052 -4.4355,6.5635 -6.8853,2.4465 -5.6452,-1.8777 -3.1838,-4.1999 -2.0262,-4.6541 A2.6224,2.6224 0 0 1 -0.3643,0.3205 Z" stroke-linecap="round" fill="#9398b0"/></g></g><g transform="matrix(1, 0, 0, 1, 679, 422)" opacity="1"><g transform="scale(1)"><path d="M-0.5579,-2.7897 T0.625,-3.0175 4.264,-3.8039 9.3708,-4.7487 14.9281,-5.9366 20.909,-7.3639 26.5946,-8.3346 31.4051,-8.8042 35.8465,-8.5893 40.4143,-7.7759 45.1739,-7.1931 48.3451,-7.4462 49.0822,-7.8079 A3.0531,3.0531 0 0 1 52.2481,-2.5865 T49.876,-1.7755 45.3449,-1.0569 41.1125,-1.6529 36.3946,-2.5814 31.7317,-2.941 27.5136,-2.6429 22.3643,-1.8521 16.2367,-0.4348 10.3009,0.8176 5.2327,1.755 1.74,2.5445 0.5579,2.7897 A2.845,2.845 0 0 1 -0.5579,-2.7897 ZM48.4377,-3.109 T47.6163,-4.0208 44.4292,-6.6238 42.0635,-8.315 A2.9173,2.9173 0 0 1 45.5617,-12.9846 T46.4302,-12.5585 49.154,-10.6777 51.9509,-8.2541 52.8925,-7.2853 A3.0531,3.0531 0 0 1 48.4377,-3.109 ZM41.2404,-12.0261 T41.2857,-12.1084 41.331,-12.1907 A2.9151,2.9151 0 0 1 46.4715,-9.4402 T46.4282,-9.3569 46.3849,-9.2735 A2.9173,2.9173 0 0 1 41.2404,-12.0261 ZM44.3277,-13.6991 T45.8382,-13.3872 49.4341,-12.2008 53.6259,-9.4442 56.6193,-5.6356 57.3174,-1.0764 55.6524,3.2819 52.1338,5.8502 47.2536,7.0269 42.7995,7.4201 41.1832,7.4795 A2.4863,2.4863 0 0 1 40.8168,2.5205 T42.4242,2.3416 46.9772,1.4506 50.9298,-1.1371 50.579,-4.5551 46.9707,-7.0111 44.0975,-7.9283 43.4748,-7.9317 A2.9151,2.9151 0 0 1 44.3277,-13.6991 Z" stroke-linecap="round" fill="#4dabf7"/></g></g><g transform="matrix(1, 0, 0, 1, 314, 721)" opacity="1"><g transform="scale(1)"><path d="M 0 0 m -3.663919189857866, 0 a 3.663919189857866,3.663919189857866 0 1,1 7.327838379715732,0 a 3.663919189857866,3.663919189857866 0 1,1 -7.327838379715732,0" stroke-linecap="round" fill="#e03131"/></g></g><g transform="matrix(1, 0, 0, 1, 314, 721)" opacity="1"><g transform="scale(1)"><path d="M2.5211,0 T2.5059,1.4147 3.0798,5.4938 4.1587,9.2824 4.6483,10.4065 A2.4563,2.4563 0 0 1 0.5992,13.1883 T-0.5612,10.29 -2.1061,5.1192 -2.5059,1.4233 -2.5211,0 A2.5211,2.5211 0 0 1 2.5211,0 ZM0.1754,11.9955 T0.2273,11.4993 -0.0463,8.6861 -0.8388,4.4842 -1.3058,2.5992 A2.4448,2.4448 0 0 1 3.4656,1.5307 T3.6122,2.3196 4.2117,5.974 4.8683,10.2195 5.072,11.5993 A2.4563,2.4563 0 0 1 0.1754,11.9955 ZM3.4925,1.6691 T3.6436,2.6994 4.4249,6.1604 5.5986,9.7843 6.1423,10.9775 A2.3738,2.3738 0 0 1 1.8577,13.0225 T1.2719,11.8493 -0.0696,8.0047 -1.079,3.897 -1.3326,2.4609 A2.4448,2.4448 0 0 1 3.4925,1.6691 Z" stroke-linecap="round" fill="#e03131"/></g></g><g transform="matrix(1, 0, 0, 1, 314, 721)" opacity="1"><g transform="scale(1)"><path d="M-1.7397,-1.3918 T-0.8169,-2.5928 1.4822,-5.421 4.4923,-8.8015 7.9341,-12.0244 11.1081,-14.9502 12.4741,-16.4067 A2.4846,2.4846 0 0 1 15.694,-12.6219 T14.6462,-11.7306 11.5816,-8.9661 7.963,-5.4859 5.0196,-2.4075 2.7089,0.2278 1.7397,1.3918 A2.2279,2.2279 0 0 1 -1.7397,-1.3918 ZM14.6226,-16.9398 T15.6745,-16.6114 18.4264,-14.846 21.0448,-11.1025 21.6609,-6.4214 19.1063,-2.4048 14.5428,0.7106 9.8552,3.5365 6.5998,5.6762 5.7207,6.4632 A2.6873,2.6873 0 0 1 2.0709,2.5179 T3.8159,1.2312 7.6536,-1.2065 12.0381,-3.7243 15.8076,-6.4834 16.3406,-9.8716 14.4707,-11.9782 13.5454,-12.0888 A2.4846,2.4846 0 0 1 14.6226,-16.9398 ZM6.5286,3.9522 T6.5542,4.0725 6.5797,4.1928 A2.6891,2.6891 0 0 1 1.3105,5.2703 T1.2868,5.1496 1.263,5.0289 A2.6873,2.6873 0 0 1 6.5286,3.9522 ZM2.4387,2.504 T2.887,2.3068 5.1642,0.5156 8.9037,-2.6332 12.3693,-5.5442 14.5774,-7.7499 15.2306,-8.5993 A2.7566,2.7566 0 0 1 19.5501,-5.1732 T17.425,-2.9514 13.4567,0.6951 9.7069,3.639 6.6259,6.0587 5.4515,6.959 A2.6891,2.6891 0 0 1 2.4387,2.504 ZM14.7889,-5.9745 T14.696,-6.2377 14.603,-6.5008 A2.7579,2.7579 0 0 1 19.8084,-8.3253 T19.9001,-8.0616 19.9918,-7.798 A2.7566,2.7566 0 0 1 14.7889,-5.9745 ZM18.1653,-4.8275 T17.2834,-4.5212 14.7118,-3.0577 10.3971,-0.084 7.7721,1.7324 A2.7966,2.7966 0 0 1 4.6301,-2.8948 T7.0451,-4.5343 11.5105,-7.5669 14.9035,-9.4794 16.2461,-9.9986 A2.7579,2.7579 0 0 1 18.1653,-4.8275 ZM3.6801,0.6293 T3.6319,0.5306 3.5837,0.4318 A2.798,2.798 0 0 1 8.6282,-1.9904 T8.6752,-1.8911 8.7221,-1.7917 A2.7966,2.7966 0 0 1 3.6801,0.6293 ZM4.7221,-3.2111 T5.9103,-3.8919 8.456,-6.1662 11.5427,-9.0061 13.2717,-10.2523 A2.839,2.839 0 0 1 16.7283,-5.7477 T14.7995,-4.2579 11.4235,-1.2607 8.7331,0.9496 7.4898,1.6525 A2.798,2.798 0 0 1 4.7221,-3.2111 ZM16.4663,-5.569 T15.2495,-4.9456 12.0523,-3.0201 9.2371,-1.283 8.4022,-0.8479 A2.8516,2.8516 0 0 1 5.8114,-5.9288 T7.1228,-6.5116 10.6602,-8.4568 13.2099,-10.1251 13.5337,-10.431 A2.839,2.839 0 0 1 16.4663,-5.569 ZM4.2976,-2.898 T4.2729,-3.0427 4.2482,-3.1875 A2.8506,2.8506 0 0 1 9.8644,-4.1679 T9.8902,-4.0233 9.9159,-3.8788 A2.8516,2.8516 0 0 1 4.2976,-2.898 ZM5.7845,-6.2288 T6.9354,-6.7798 9.1948,-8.2393 10.3033,-9.1477 A2.737,2.737 0 0 1 13.6967,-4.8523 T11.8623,-3.4358 9.178,-1.5729 8.328,-1.1265 A2.8506,2.8506 0 0 1 5.7845,-6.2288 Z" stroke-linecap="round" fill="#e03131"/></g></g><g transform="matrix(1, 0, 0, 1, 335, 697)" opacity="1"><g transform="scale(1)"><path d="M0.6116,-2.4463 T1.5575,-2.2109 4.8275,-0.7645 8.6569,2.3613 10.7541,6.4508 11.4356,9.7029 11.5253,10.7804 A2.5348,2.5348 0 0 1 6.4747,11.2196 T6.3771,10.1428 5.6042,6.9297 3.1048,3.8574 0.3345,2.6839 -0.6116,2.4463 A2.5216,2.5216 0 0 1 0.6116,-2.4463 Z" stroke-linecap="round" fill="#e03131"/></g></g><g transform="matrix(1, 0, 0, 1, 338, 688)" opacity="1"><g transform="scale(1)"><path d="M1.1015,-2.2029 T2.0359,-1.7102 5.1532,0.0592 8.9417,2.804 12.0897,6.5854 14.5342,10.8138 15.8696,15.6584 16.3462,19.7454 16.3895,20.9028 A2.3914,2.3914 0 0 1 11.6105,21.0972 T11.5223,19.0056 10.8534,14.5792 8.8091,10.1366 5.9602,6.5917 2.6944,4.1321 -0.1439,2.6562 -1.1015,2.2029 A2.4629,2.4629 0 0 1 1.1015,-2.2029 Z" stroke-linecap="round" fill="#e03131"/></g></g><g transform="matrix(1, 0, 0, 1, 345, 678)" opacity="1"><g transform="scale(1)"><path d="M0.5248,-2.624 T1.7102,-2.3749 4.8734,-1.1581 8.7342,1.3926 11.9778,4.5874 14.6387,8.343 16.7656,12.4099 18.053,16.8163 19.4221,21.6743 20.3304,24.0489 A2.517,2.517 0 0 1 15.6696,25.9511 T14.8957,24.2029 13.6451,20.5144 12.5316,16.2249 10.3962,11.453 7.4695,7.4755 3.938,4.4963 0.6548,2.8479 -0.5248,2.624 A2.676,2.676 0 0 1 0.5248,-2.624 Z" stroke-linecap="round" fill="#e03131"/></g></g><g transform="matrix(1, 0, 0, 1, 350, 666)" opacity="1"><g transform="scale(1)"><path d="M0.7937,-2.3811 T2.2049,-1.8797 6.2051,-0.1349 11.0044,2.5942 15.0288,6.029 18.2573,10.2992 20.3171,14.5306 21.6216,19.0538 22.8149,23.9018 24.0076,28.0829 24.9697,31.1579 25.2732,32.2868 A2.3824,2.3824 0 0 1 20.7268,33.7132 T19.8886,31.2285 18.531,26.5288 17.5054,21.8883 16.0724,16.9531 14.0094,12.5976 11.5248,9.2638 8.2773,6.506 4.219,4.2533 0.6331,2.8257 -0.7937,2.3811 A2.5099,2.5099 0 0 1 0.7937,-2.3811 Z" stroke-linecap="round" fill="#e03131"/></g></g><g transform="matrix(1, 0, 0, 1, 356, 654)" opacity="1"><g transform="scale(1)"><path d="M1.032,-2.5799 T2.2067,-2.0832 5.8081,-0.4279 10.2573,2.0696 14.4148,5.1322 18.1598,8.4009 21.0607,11.6066 23.305,15.4778 24.8947,19.8973 26.0686,24.1615 27.0476,28.4598 28.0758,33.0617 28.7458,37.6527 28.8287,39.8848 A2.8311,2.8311 0 0 1 23.1713,40.1152 T23.0435,37.8113 22.41,33.5666 21.4725,29.2606 20.55,24.9256 19.5062,20.6634 17.4557,16.0943 14.4419,12.3375 11.1957,9.4124 7.7518,6.7904 3.6932,4.5462 0.1583,3.0292 -1.032,2.5799 A2.7786,2.7786 0 0 1 1.032,-2.5799 Z" stroke-linecap="round" fill="#e03131"/></g></g><g transform="matrix(1, 0, 0, 1, 331, 702)" opacity="1"><g transform="scale(1)"><path d="M-2.1594,0.3599 T-2.3791,-1.062 -2.7853,-4.9359 -3.0215,-9.5195 -3.5204,-14.8843 -4.0358,-20.3508 -4.1254,-24.8892 -4.1637,-29.4025 -4.1915,-33.6689 -3.962,-38.1881 -3.557,-42.7047 -3.3482,-47.1243 -3.2884,-51.8313 -2.9056,-56.5193 -2.4472,-61.1903 -2.3367,-65.844 -2.3271,-70.7498 -2.3562,-75.8492 -2.39,-80.752 -2.4233,-85.725 -2.4521,-91.0786 -2.4793,-96.7745 -2.5115,-102.69 -2.5466,-108.6665 -2.5787,-114.66 -2.6084,-120.6582 -2.6362,-126.6577 -2.6563,-132.2964 -2.6704,-137.595 -3.0458,-142.9223 -3.5411,-148.6149 -3.7162,-154.6462 -4.0003,-160.1586 -4.4573,-165.6693 -4.737,-171.4287 -4.807,-176.7567 -4.8261,-181.8507 -4.8356,-186.5158 -4.8396,-191.0545 -5.1972,-195.6655 -5.661,-200.1961 -5.7995,-204.6038 -6.0407,-208.9527 -6.5275,-214.0809 -6.8443,-219.5149 -6.8947,-224.2823 -6.9158,-228.9086 -6.935,-233.9467 -6.947,-238.6288 -6.9541,-243.2085 -6.5182,-247.9893 -5.9849,-252.5774 -5.791,-257.4514 -5.6909,-260.0021 A2.6909,2.6909 0 0 1 -0.3091,-259.9979 T-0.215,-257.4339 -0.1271,-252.7733 -0.5879,-248.2006 -1.0459,-243.2085 -1.053,-238.6288 -1.0621,-234.5787 -1.078,-230.1362 -1.0919,-225.5798 -1.0832,-221.2326 -0.9703,-216.6003 -0.5022,-212.1403 -0.1234,-207.3989 -0.0622,-202.6719 0.1461,-198.4154 0.573,-193.703 0.8405,-188.8757 0.8396,-184.2942 0.8472,-179.5005 0.8828,-174.3899 1.0035,-168.999 1.4568,-163.4388 1.8142,-157.6992 1.8384,-151.7921 2.0205,-146.1524 2.4233,-140.6202 2.664,-134.9942 2.6467,-129.4211 2.6232,-123.6579 2.5945,-117.6588 2.5638,-111.6623 2.5303,-105.6746 2.4934,-99.7191 2.4632,-93.8794 2.4374,-88.4563 2.405,-83.2333 2.3683,-78.2821 2.3254,-73.4581 2.2726,-68.236 2.1844,-63.2987 1.9053,-58.5106 1.4633,-53.7841 1.2118,-49.3437 1.0659,-44.6729 0.5825,-39.9916 0.2056,-35.7159 0.1871,-31.5838 0.1763,-27.0956 0.1946,-22.6352 0.3023,-18.289 0.7711,-13.8847 1.2085,-9.6925 1.4587,-5.4145 1.9061,-1.776 2.1594,-0.3599 A2.1892,2.1892 0 0 1 -2.1594,0.3599 Z" stroke-linecap="round" fill="#e599f7"/></g></g><g transform="matrix(1, 0, 0, 1, 329, 468)" opacity="1"><g transform="scale(1)"><path d="M-0.3444,-2.0664 T1.0672,-2.3473 4.5591,-2.8789 9.6149,-3.607 13.7191,-4.1296 14.8478,-4.1747 A2.18,2.18 0 0 1 15.1522,0.1747 T14.0282,0.2872 10.6798,0.8863 5.8262,1.5275 1.7708,1.8743 0.3444,2.0664 A2.0949,2.0949 0 0 1 -0.3444,-2.0664 Z" stroke-linecap="round" fill="#e599f7"/></g></g><g transform="matrix(1, 0, 0, 1, 344, 468)" opacity="1"><g transform="scale(1)"><path d="M-2.3073,-0.5768 T-1.8371,-2.4689 -1.0254,-7.2658 -0.589,-12.7529 -0.4777,-17.6205 -0.8863,-22.6791 -1.3113,-25.4525 A2.3753,2.3753 0 0 1 3.3113,-26.5475 T3.5886,-25.4524 4.141,-22.1055 4.3738,-17.5228 4.2149,-12.4525 3.6787,-6.4601 2.7831,-1.3151 2.3073,0.5768 A2.3783,2.3783 0 0 1 -2.3073,-0.5768 Z" stroke-linecap="round" fill="#e599f7"/></g></g><g transform="matrix(1, 0, 0, 1, 340, 562)" opacity="1"><g transform="scale(1)"><path d="M2.2428,-0.2803 T2.5026,1.6088 2.9841,6.2969 3.2674,11.4641 2.7919,16.6269 2.2547,19.4214 A2.2937,2.2937 0 0 1 -2.2547,18.5786 T-1.8325,16.2407 -1.4544,11.6231 -1.6575,6.7068 -2.0296,2.1752 -2.2428,0.2803 A2.2602,2.2602 0 0 1 2.2428,-0.2803 Z" stroke-linecap="round" fill="#e599f7"/></g></g><g transform="matrix(1, 0, 0, 1, 351, 568)" opacity="1"><g transform="scale(1)"><path d="M1.5236,1.9045 T0.3418,2.8514 -2.427,5.5455 -4.1765,7.9991 -4.3389,8.7055 A2.5184,2.5184 0 0 1 -9.0728,6.9854 T-8.0294,5.0727 -5.438,1.5729 -2.7068,-0.9594 -1.5236,-1.9045 A2.4389,2.4389 0 0 1 1.5236,1.9045 ZM-4.6931,6.3318 T-4.2732,6.8904 -1.2145,8.162 2.2658,9.3143 3.1073,9.7536 A2.5045,2.5045 0 0 1 0.8927,14.2464 T-0.8685,13.3421 -5.1112,11.6467 -8.1557,10.1074 -8.7186,9.3591 A2.5184,2.5184 0 0 1 -4.6931,6.3318 Z" stroke-linecap="round" fill="#e599f7"/></g></g><g transform="matrix(1, 0, 0, 1, 333, 705)" opacity="1"><g transform="scale(1)"><path d="M-1.5683,-1.5683 T-0.8568,-2.2657 1.203,-4.6745 4.0102,-7.9066 7.042,-10.6581 10.5059,-13.678 14.0541,-16.7896 17.4884,-20.175 20.7451,-23.8941 23.6047,-27.4804 26.8161,-31.2781 30.1761,-34.6883 33.7471,-38.2716 38.2444,-42.3516 42.1919,-45.8679 45.1167,-48.9003 48.4328,-52.1656 52.0102,-55.2691 56.5105,-58.6867 61.3372,-62.1646 65.2142,-65.2355 69.1652,-68.6282 73.2853,-71.9888 77.1674,-75.2245 81.3245,-78.8755 86.0647,-82.8758 90.6498,-86.7979 95.5769,-90.8186 100.8289,-95.2256 106.2494,-99.7031 111.7201,-104.2067 116.7399,-109.1021 120.623,-113.1452 123.5303,-115.9596 127.9327,-120.0382 132.3779,-124.0818 136.4556,-128.0562 140.4956,-132.0483 144.9073,-136.0892 150.4953,-141.2333 155.7793,-146.0472 161.1137,-151.1486 165.3235,-155.3028 168.2549,-158.2239 171.2183,-161.1834 174.509,-164.2318 179.3545,-168.7734 185.1367,-174.3545 190.5388,-179.3372 195.3541,-184.0489 200.0199,-188.5785 205.0361,-192.8339 209.9682,-196.9426 214.5317,-200.9227 219.2683,-204.7568 224.4046,-208.2739 228.8631,-211.4962 232.7711,-214.9985 236.8198,-218.5632 240.9022,-221.7871 244.4912,-224.7926 248.1964,-227.7003 252.0925,-230.6727 255.8714,-233.7666 259.5413,-236.9952 263.0111,-240.3552 266.5877,-243.9901 270.348,-247.8727 274.4006,-251.3973 278.1621,-254.6778 280.601,-256.8899 281.3307,-257.3935 A2.9181,2.9181 0 0 1 284.6693,-252.6065 T282.6771,-250.9878 278.6875,-247.5894 274.9054,-244.1659 270.9957,-240.1759 266.8892,-235.985 263.2874,-232.5197 259.6993,-229.3772 255.5492,-226.0328 251.701,-223.13 248.3271,-220.487 244.631,-217.4073 240.6872,-214.3243 236.6416,-210.7838 232.2095,-206.9073 227.4441,-203.4691 222.7737,-200.311 218.2063,-196.6113 213.5731,-192.567 208.7969,-188.588 203.9655,-184.5277 199.1804,-179.9203 194.2697,-175.139 188.9551,-170.244 184.5521,-166.166 181.4721,-163.1575 178.3167,-160.1307 175.1683,-157.2216 172.1958,-154.2618 169.2491,-151.3361 166.3513,-148.4746 162.2954,-144.559 158.1833,-140.7104 154.1506,-137.1053 150.1056,-133.4028 147.0979,-130.5737 142.8983,-126.6512 137.401,-121.488 133.0985,-117.4194 130.1008,-114.5913 125.9508,-110.6533 121.9698,-106.602 117.8916,-102.7079 112.2945,-97.9041 106.834,-93.4424 101.4982,-89.0398 96.4544,-84.7339 91.6788,-80.8053 86.895,-76.91 82.4968,-73.0734 78.4303,-69.6501 74.4687,-66.5925 70.4133,-63.1304 66.2549,-59.7231 62.1703,-56.9085 57.6025,-53.6542 53.3453,-50.1487 50.0965,-46.9996 46.9066,-44.0528 43.6999,-41.1983 39.812,-37.7876 35.3377,-33.7734 31.6193,-30.1276 28.2803,-26.2975 24.5095,-21.6623 20.8879,-17.3614 17.3242,-13.8848 13.8458,-10.8842 10.4787,-7.9674 7.2513,-5.061 4.4207,-1.7407 2.2758,0.8467 1.5683,1.5683 A2.2179,2.2179 0 0 1 -1.5683,-1.5683 Z" stroke-linecap="round" fill="#f76707"/></g></g><g transform="matrix(1, 0, 0, 1, 506, 592)" opacity="1"><g transform="scale(1)"><path d="M0,2.5452 T-1.411,2.5143 -5.0693,3.267 -7.9305,5.9816 -6.7019,8.9763 -2.4842,11.566 1.4667,15.0854 3.0421,17.0787 A2.4957,2.4957 0 0 1 -1.5523,19.0295 T-1.4511,18.7185 -3.5569,17.0745 -7.2993,14.415 -10.7196,11.5396 -12.8547,7.6858 -12.2107,3.5223 -9.0275,-0.0026 -4.7963,-2.0761 -1.427,-2.5143 0,-2.5452 A2.5452,2.5452 0 0 1 0,2.5452 ZM2.6237,19.6969 T2.067,20.3296 -0.4773,21.836 -5.5094,22.8143 -11.1126,22.1279 -13.6714,21.337 A2.4316,2.4316 0 0 1 -12.3286,16.663 T-9.3863,17.4758 -4.2433,17.8735 -1.5882,16.9347 -1.1338,16.4112 A2.4957,2.4957 0 0 1 2.6237,19.6969 Z" stroke-linecap="round" fill="#f76707"/></g></g><g transform="matrix(1, 0, 0, 1, 328, 440)" opacity="1"><g transform="scale(1)"><path d="M0,-2.428 T0.946,-2.4182 4.3506,-2.3911 9.045,-2.2951 13.2078,-1.4326 17.1903,-0.0712 21.2332,1.0042 26.063,1.9088 30.919,2.4454 35.147,2.5794 40.1033,2.9231 44.83,3.391 49.3092,3.5347 54.303,3.5484 58.8137,3.1957 63.1328,2.7088 67.4574,2.5592 72.0193,2.074 76.5638,1.5688 80.8788,1.1988 85.4154,0.7163 90.1782,0.5434 95.2234,0.5092 99.7373,0.5016 103.8735,0.9266 108.1083,1.3969 112.2655,1.4513 116.7443,1.8831 121.5759,2.3581 126.4624,2.413 131.446,2.4114 136.4435,2.4033 141.2067,2.3961 145.8109,2.3904 150.6283,2.3855 155.5359,2.3771 160.0956,2.3629 164.3678,2.3467 168.8042,2.6269 173.6623,3.0854 178.6717,3.2622 183.1811,3.2639 187.3263,3.6468 192.2164,4.1161 197.5567,4.1963 202.7159,4.1832 207.7391,4.1581 212.191,4.1337 216.6464,4.5026 221.1332,4.9691 225.3677,5.0628 229.5992,5.0612 234.1389,5.0385 238.7279,5.0115 243.3351,4.983 247.8434,4.9571 252.0838,4.9437 256.8444,4.4613 261.5334,3.9361 265.8779,3.551 270.3574,3.0459 274.8713,2.8584 279.1558,2.4068 283.4128,1.9072 288.1499,2.6228 291.4867,3.8436 292.3053,4.2793 A3.0176,3.0176 0 0 1 289.6947,9.7207 T287.1422,8.9741 282.085,8.379 277.5846,8.8582 273.086,9.2371 268.6161,9.7049 264.6068,10.1287 260.5544,10.1823 256.4865,10.6441 252.1543,11.0563 247.8434,11.0429 243.3351,11.017 238.7278,10.9884 234.1368,10.9606 229.5856,10.932 225.292,10.8906 220.5398,10.7125 215.3311,10.2157 210.5671,9.8589 206.1571,9.8324 201.1039,9.8022 195.7436,9.7608 190.6569,9.5716 185.9219,9.0715 181.5278,8.7202 176.8859,8.6613 171.9467,8.3231 167.343,7.8429 162.9029,7.6472 158.3863,7.6321 153.7731,7.62 148.9484,7.6129 144.2948,7.6079 139.5969,7.6014 134.5965,7.5926 129.5934,7.5792 124.5726,7.5459 119.4262,7.3821 114.1481,6.8859 109.3273,6.4873 104.848,6.1601 100.1337,5.6863 95.23,5.4942 90.2627,5.5005 85.6039,5.6808 81.0088,6.1688 76.207,6.5502 71.7213,7.0397 67.6032,7.4874 63.0039,7.6711 58.0792,8.142 53.2159,8.4453 48.682,8.4199 44.4745,8.2413 39.8238,7.7482 35.0977,7.3973 30.5716,7.2064 26.006,6.6535 21.6684,5.7554 17.5648,4.6875 13.4619,3.5547 9.1162,2.6718 4.3506,2.3911 0.946,2.4182 0,2.428 A2.428,2.428 0 0 1 0,-2.428 Z" stroke-linecap="round" fill="#40c057"/></g></g><g transform="matrix(1, 0, 0, 1, 466, 460)" opacity="1"><g transform="scale(1)"><path d="M1.4653,1.7095 T-0.1831,3.1368 -4.618,6.9499 -9.7166,11.0691 -13.8499,14.1846 -16.6895,16.2398 -17.7077,16.9127 A2.3084,2.3084 0 0 1 -20.2923,13.0873 T-19.288,12.3937 -16.6402,10.4263 -12.6351,7.4206 -7.532,3.4005 -3.1279,-0.2988 -1.4653,-1.7095 A2.2516,2.2516 0 0 1 1.4653,1.7095 Z" stroke-linecap="round" fill="#40c057"/></g></g><g transform="matrix(1, 0, 0, 1, 451, 461)" opacity="1"><g transform="scale(1)"><path d="M1.7103,-1.0262 T2.4342,0.1477 4.4415,3.0237 7.0759,6.327 10.6208,10.1773 13.7067,13.5754 14.5988,14.7243 A2.0454,2.0454 0 0 1 11.4012,17.2757 T9.1367,14.699 4.8028,9.884 1.2066,5.5271 -1.0152,2.2173 -1.7103,1.0262 A1.9945,1.9945 0 0 1 1.7103,-1.0262 Z" stroke-linecap="round" fill="#40c057"/></g></g><g transform="matrix(1, 0, 0, 1, 317, 733)" opacity="1"><g transform="scale(1)"><path d="M0.3328,2.3294 T-1.3187,2.5726 -5.0965,3.3671 -10.308,4.479 -15.5096,5.2061 -20.1611,4.8309 -22.6963,4.2891 A2.3926,2.3926 0 0 1 -21.3037,-0.2891 T-19.0172,0.1008 -14.5605,0.2699 -10.2276,-0.3588 -5.8583,-1.3182 -1.9923,-2.0996 -0.3328,-2.3294 A2.353,2.353 0 0 1 0.3328,2.3294 Z" stroke-linecap="round" fill="#9398b0"/></g></g><g transform="matrix(1, 0, 0, 1, 314, 729)" opacity="1"><g transform="scale(1)"><path d="M0.6603,2.3109 T-0.9952,2.7845 -4.751,3.8594 -8.9233,5.1907 -13.2169,6.4896 -16.5365,7.2239 -17.6343,7.3892 A2.417,2.417 0 0 1 -18.3657,2.6108 T-15.3893,1.9474 -10.4245,0.5919 -6.2037,-0.7332 -2.3158,-1.8385 -0.6603,-2.3109 A2.4034,2.4034 0 0 1 0.6603,2.3109 Z" stroke-linecap="round" fill="#9398b0"/></g></g><g transform="matrix(1, 0, 0, 1, 294, 733)" opacity="1"><g transform="scale(1)"><path d="M-1.957,0.2796 T-2.2052,-1.3743 -2.8415,-5.064 -3.5535,-8.2817 -3.8776,-9.4634 A1.9527,1.9527 0 0 1 -0.1224,-10.5366 T0.2269,-9.362 1.0418,-5.8907 1.7322,-1.9367 1.957,-0.2796 A1.9769,1.9769 0 0 1 -1.957,0.2796 Z" stroke-linecap="round" fill="#9398b0"/></g></g><g transform="matrix(1, 0, 0, 1, 291, 711)" opacity="1"><g transform="scale(1)"><path d="M-2.2991,0.4598 T-2.5182,-0.7059 -3.5541,-0.0346 -4.9601,4.0863 -3.4209,7.4916 -0.3303,6.6716 -0.5703,2.5431 -1.7726,0.3559 A2.2317,2.2317 0 0 1 1.7726,-2.3559 T2.4571,-1.5035 4.2277,1.3794 5.2803,5.5494 4.6079,9.9401 1.7962,12.7225 -2.6243,13.0592 -6.6958,11.9969 -9.2748,8.4992 -9.3922,3.2854 -7.5852,-1.9031 -3.7854,-5.3701 0.3181,-4.5454 2.0452,-1.6591 2.2991,-0.4598 A2.3447,2.3447 0 0 1 -2.2991,0.4598 Z" stroke-linecap="round" fill="#9398b0"/></g></g><g transform="matrix(1, 0, 0, 1, 293, 734)" opacity="1"><g transform="scale(1)"><path d="M1.9189,-0.7676 T2.4005,0.412 3.3369,3.6072 4.3598,7.9151 5.4793,12.8462 6.0307,15.4847 A2.0951,2.0951 0 0 1 1.9693,16.5153 T1.6696,15.3759 0.8669,11.2179 -0.313,5.6689 -1.4545,1.953 -1.9189,0.7676 A2.0667,2.0667 0 0 1 1.9189,-0.7676 Z" stroke-linecap="round" fill="#9398b0"/></g></g><g transform="matrix(1, 0, 0, 1, 298, 750)" opacity="1"><g transform="scale(1)"><path d="M1.6696,1.3357 T0.7414,2.5289 -1.3959,6.0837 -3.661,10.5901 -6.4737,15.0185 -8.2305,17.3019 A2.1969,2.1969 0 0 1 -11.7695,14.6981 T-10.3354,12.6447 -7.758,8.4541 -5.106,3.6623 -2.6334,-0.1639 -1.6696,-1.3357 A2.1381,2.1381 0 0 1 1.6696,1.3357 Z" stroke-linecap="round" fill="#9398b0"/></g></g><g transform="matrix(1, 0, 0, 1, 299, 750)" opacity="1"><g transform="scale(1)"><path d="M1.9706,-0.7883 T2.4586,0.3888 3.985,3.8398 6.3957,8.1301 9.6103,12.2295 11.4525,14.3127 A2.2264,2.2264 0 0 1 8.5475,17.6873 T7.8552,17.1161 5.606,14.6976 2.5538,10.5046 0.002,5.6614 -1.5126,1.9762 -1.9706,0.7883 A2.1225,2.1225 0 0 1 1.9706,-0.7883 Z" stroke-linecap="round" fill="#9398b0"/></g></g></svg>