<svg xmlns="http://www.w3.org/2000/svg" direction="ltr" width="683.1508955148406" height="459.09742796001956" viewBox="2246.72360195427 22644.989055576963 683.1508955148406 459.09742796001956" stroke-linecap="round" stroke-linejoin="round" style="background-color: transparent;"><defs/><g transform="matrix(1, 0, 0, 1, 2278.7236, 22801.4691)" opacity="1"><g transform="scale(1)"><path d="M0,-0.92 Q5.0434,-5.5438 6.6272,-7.0136 T9.4922,-9.4926 11.68,-11.2607 13.2897,-12.8518 14.5871,-14.3489 15.7148,-15.5852 16.7477,-16.6772 17.7292,-17.6908 18.6849,-18.664 19.6266,-19.6152 20.5584,-20.5522 21.6946,-21.4814 22.9442,-22.4065 24.0458,-23.3315 25.0646,-24.2565 26.0383,-25.1792 26.9876,-26.1007 27.9258,-27.0215 28.8579,-27.9442 29.7846,-29.0777 30.7082,-30.3236 31.6301,-31.4209 32.7632,-32.4397 34.0112,-33.6254 35.1096,-34.8997 36.1267,-36.0125 37.3115,-37.0396 38.5876,-38.0202 39.7013,-38.9732 40.7267,-39.9111 41.7063,-40.8408 42.6611,-41.7684 43.8097,-42.6948 45.0638,-43.6183 46.1679,-44.75 47.4,-45.9971 48.6996,-47.3072 50.0382,-48.8589 51.3979,-50.3345 52.7668,-51.5591 54.1408,-52.8546 55.3101,-54.1886 56.368,-55.3361 57.363,-56.3821 58.5358,-57.3707 59.8054,-58.328 60.9156,-59.4803 62.1488,-60.7387 63.4512,-62.0526 64.7913,-63.6086 66.3594,-65.2965 67.8439,-66.8439 69.0733,-68.3173 70.3714,-69.7504 71.7068,-71.1592 72.8551,-72.5572 73.9016,-73.7395 74.8904,-74.8022 75.8478,-75.7999 76.7882,-76.7621 77.7215,-77.7073 78.6511,-78.6433 79.5763,-79.7818 80.4991,-81.0304 81.4206,-82.1315 82.3437,-83.1522 83.2677,-84.1271 84.1899,-85.0769 85.1111,-86.0131 86.0317,-86.9442 86.9543,-87.8725 87.878,-88.7971 88.8,-89.9293 89.7211,-91.1768 90.6417,-92.2772 91.5643,-93.2954 92.488,-94.4785 93.4101,-95.7537 94.3312,-96.8692 95.2517,-97.6858 96.1743,-98.3398 97.098,-99.1151 98.0201,-100.1684 98.9412,-101.1632 99.864,-102.1239 100.7879,-103.066 101.71,-104.0004 102.6311,-104.9304 103.5517,-105.8559 104.4743,-106.7789 105.398,-107.7005 106.3201,-108.6214 107.2411,-109.5442 108.1617,-110.6777 109.0843,-111.5041 110.008,-112.1634 110.9301,-112.9416 111.8512,-113.5747 112.7717,-114.1312 113.6943,-114.8557 114.618,-115.6693 115.5401,-116.5315 116.4612,-117.632 117.3817,-118.8623 118.3043,-119.9511 119.4378,-121.3847 120.9094,-123.3894 L121.71,-124.48 " stroke-linecap="round" fill="none" stroke="#9398b0" stroke-width="4.5" stroke-dasharray="none" stroke-dashoffset="0"/></g></g><g transform="matrix(1, 0, 0, 1, 2278.7236, 22802.3911)" opacity="1"><g transform="scale(1)"><path d="M0,0.92 Q2.1022,0.081 4.3566,-0.1473 T8.0472,-0.4996 10.6841,-0.9011 12.7479,-1.3292 14.5022,-1.5621 16.2978,-1.6888 18.116,-1.7578 19.7366,-1.7953 21.2475,-2.0277 22.9108,-2.3662 24.8667,-2.5503 26.772,-2.6505 28.44,-2.705 30.1865,-2.7346 32.1877,-2.7508 34.3274,-2.7595 36.3327,-2.7643 38.4747,-2.7669 40.691,-2.7683 42.9477,-2.7691 45.0167,-2.7695 46.7738,-2.7697 48.359,-2.7699 50.0626,-2.9797 52.2502,-3.3036 54.7011,-3.4798 57.0878,-3.5756 59.0177,-3.6278 60.6968,-3.6562 62.4516,-3.6716 64.2475,-3.68 66.2756,-3.6846 68.2201,-3.687 69.9073,-3.6884 71.4544,-3.6891 73.1373,-3.6895 75.3159,-3.6897 77.7619,-3.6899 80.1437,-3.6899 82.2806,-3.69 84.0724,-3.69 85.6787,-3.69 87.3939,-3.69 88.9562,-3.69 90.4376,-3.69 91.8751,-3.4802 93.2864,-3.1564 94.8954,-2.9802 96.6121,-2.8843 98.1752,-2.8322 99.6571,-2.8038 101.3046,-2.5764 102.8301,-2.2406 104.2915,-2.0579 105.9279,-1.9585 107.4473,-1.9045 108.9055,-1.8751 110.54,-1.8591 112.0585,-1.8504 113.3063,-1.8456 114.8265,-1.8431 116.4925,-1.8417 118.0304,-1.8409 119.7083,-1.8405 120.8308,-2.2621 121.4002,-3.1869 L121.71,-3.69 " stroke-linecap="round" fill="none" stroke="#9398b0" stroke-width="4.5" stroke-dasharray="none" stroke-dashoffset="0"/></g></g><g transform="matrix(1, 0, 0, 1, 2400.4336, 22676.9929)" opacity="1"><g transform="scale(1)"><path d="M0,0 Q0,2.9412 0,4.3728 T0,7.0026 -0.2098,9.0648 -0.5336,12.2911 -0.7098,16.5679 -0.8057,19.9455 -0.8578,22.6243 -0.8862,24.9206 -0.9016,27.0111 -0.91,28.7799 -0.9146,30.5834 -0.917,32.4059 -0.9184,34.2363 -0.9191,36.4929 -0.9195,38.7716 -0.9197,41.0623 -0.9199,43.3595 -0.9199,45.4505 -0.92,47.6391 -0.92,49.8807 -0.92,51.9415 -0.92,53.9039 -0.92,55.8128 -0.92,57.4805 -0.92,59.0193 -0.92,60.6977 -0.92,62.4521 -0.92,64.2478 -0.92,66.0637 -0.92,67.8928 -0.92,69.5195 -0.92,71.2457 -0.92,73.4456 -0.92,75.9031 -0.92,78.2912 -0.92,80.4315 -0.92,82.4372 -0.92,84.3674 -0.92,86.2587 -0.92,88.1289 -0.92,89.9876 -0.92,91.8401 -0.92,93.6868 -0.92,95.5328 -0.7102,97.3783 -0.3864,99.2236 -0.2102,101.0688 -0.1143,102.9138 -0.0622,104.7589 -0.0338,106.6016 -0.0184,108.4454 -0.01,110.2897 -0.0054,112.1344 -0.003,113.9792 -0.0016,115.8218 -0.0009,117.6655 -0.0005,119.7196 -0.0002,122.2004 L0,123.55 " stroke-linecap="round" fill="none" stroke="#9398b0" stroke-width="4.5" stroke-dasharray="none" stroke-dashoffset="0"/></g></g><g transform="matrix(1, 0, 0, 1, 2329.8971, 22706.0373)" opacity="1"><g transform="scale(1)"><path d="M0,0 Q-0.4195,9.2522 -0.6698,14.7711 L-0.92,20.29 " stroke-linecap="round" fill="none" stroke="#9398b0" stroke-width="4.5" stroke-dasharray="none" stroke-dashoffset="0"/></g></g><g transform="matrix(1, 0, 0, 1, 2328.9751, 22704.1932)" opacity="1"><g transform="scale(1)"><path d="M0,0 Q-2.5217,2.1022 -3.4173,3.0935 T-5.222,5.0458 -6.8353,6.7395 -8.3423,8.0804 -10.1025,9.4143 L-11.06,10.14 " stroke-linecap="round" fill="none" stroke="#9398b0" stroke-width="4.5" stroke-dasharray="none" stroke-dashoffset="0"/></g></g><g transform="matrix(1, 0, 0, 1, 2313.3003, 22797.3199)" opacity="1"><g transform="scale(1)"><path d="M0,0 Q-0.4195,-4.2043 -0.7434,-5.7674 T-1.4555,-8.6026 -2.4744,-10.9863 -3.8678,-12.9123 -5.4671,-14.1698 -7.3882,-14.2246 -9.7663,-13.3732 L-11.06,-12.91 " stroke-linecap="round" fill="none" stroke="#9398b0" stroke-width="4.5" stroke-dasharray="none" stroke-dashoffset="0"/></g></g><g transform="matrix(1, 0, 0, 1, 2316.9885, 22774.2687)" opacity="1"><g transform="scale(1)"><path d="M0,0 Q-0.4195,2.9412 0.5175,3.9532 T2.5934,5.5158 5.0912,6.7232 L6.45,7.38 " stroke-linecap="round" fill="none" stroke="#9398b0" stroke-width="4.5" stroke-dasharray="none" stroke-dashoffset="0"/></g></g><g transform="matrix(1, 0, 0, 1, 2324.3649, 22773.3467)" opacity="1"><g transform="scale(1)"><path d="M0,0 Q0,2.9412 0,4.163 T0,6.469 0,8.7745 0,11.4529 L0,12.91 " stroke-linecap="round" fill="none" stroke="#9398b0" stroke-width="4.5" stroke-dasharray="none" stroke-dashoffset="0"/></g></g><g transform="matrix(1, 0, 0, 1, 2330.8192, 22773.3467)" opacity="1"><g transform="scale(1)"><path d="M0,0 Q1.6826,2.5217 2.3501,3.4173 T3.5904,5.222 4.6846,6.8353 5.4896,8.1325 5.7178,9.2577 5.2126,10.0795 3.8868,10.5266 2.1144,10.5601 0.1491,10.288 L-0.92,10.14 " stroke-linecap="round" fill="none" stroke="#9398b0" stroke-width="4.5" stroke-dasharray="none" stroke-dashoffset="0"/></g></g><g transform="matrix(1, 0, 0, 1, 2332.6633, 22770.5805)" opacity="1"><g transform="scale(1)"><path d="M0,0 L5.53,-0.92 " stroke-linecap="round" fill="none" stroke="#9398b0" stroke-width="4.5" stroke-dasharray="none" stroke-dashoffset="0"/></g></g><g transform="matrix(1, 0, 0, 1, 2344.6499, 22767.8144)" opacity="1"><g transform="scale(1)"><path d="M0,0 Q-0.4195,1.6826 -0.3239,2.3501 T0.0336,3.3806 0.8596,3.9412 1.9405,4.2462 3.1578,4.4121 4.4493,4.0828 5.3616,2.8526 6.0665,1.0051 L6.45,0 " stroke-linecap="round" fill="none" stroke="#9398b0" stroke-width="4.5" stroke-dasharray="none" stroke-dashoffset="0"/></g></g><g transform="matrix(1, 0, 0, 1, 2395.3624, 22710.6476)" opacity="1"><g transform="scale(1)"><path d="M0,0.92 Q-2.1022,1.7636 -3.0935,1.9931 T-5.0458,2.3473 -8.4221,1.0672 -12.361,-1.7314 -15.7023,-4.7875 L-17.52,-6.45 " stroke-linecap="round" fill="none" stroke="#9398b0" stroke-width="4.5" stroke-dasharray="none" stroke-dashoffset="0"/></g></g><g transform="matrix(1, 0, 0, 1, 2369.5451, 22719.868)" opacity="1"><g transform="scale(1)"><path d="M0.92,0 Q0.081,2.1022 0.2723,3.0935 T0.9894,4.624 2.2209,5.2469 3.7682,5.4303 L4.61,5.53 " stroke-linecap="round" fill="none" stroke="#9398b0" stroke-width="4.5" stroke-dasharray="none" stroke-dashoffset="0"/></g></g><g transform="matrix(1, 0, 0, 1, 2374.1553, 22720.7901)" opacity="1"><g transform="scale(1)"><path d="M0,0 Q0.839,3.3653 0.8575,4.9099 T0.6762,7.9264 0.2383,11.1541 L0,12.91 " stroke-linecap="round" fill="none" stroke="#9398b0" stroke-width="4.5" stroke-dasharray="none" stroke-dashoffset="0"/></g></g><g transform="matrix(1, 0, 0, 1, 2380.6096, 22723.5562)" opacity="1"><g transform="scale(1)"><path d="M0,0 Q-0.4195,2.1022 -0.1141,3.3055 T0.3574,5.583 0.614,7.661 0.5438,9.423 -0.1237,10.5935 -1.3281,11.0183 -2.8578,11.0453 L-3.69,11.06 " stroke-linecap="round" fill="none" stroke="#9398b0" stroke-width="4.5" stroke-dasharray="none" stroke-dashoffset="0"/></g></g><g transform="matrix(1, 0, 0, 1, 2378.7656, 22723.5562)" opacity="1"><g transform="scale(1)"><path d="M0,0 L6.45,0 " stroke-linecap="round" fill="none" stroke="#9398b0" stroke-width="4.5" stroke-dasharray="none" stroke-dashoffset="0"/></g></g><g transform="matrix(1, 0, 0, 1, 2389.8301, 22721.7121)" opacity="1"><g transform="scale(1)"><path d="M0,0 Q-0.4195,0 -0.7434,1.2608 T-1.0337,3.2076 -0.5623,4.2666 0.3234,4.633 1.227,4.4127 2.1404,3.8734 2.847,2.9485 3.2314,1.604 3.5284,-0.0307 L3.69,-0.92 " stroke-linecap="round" fill="none" stroke="#9398b0" stroke-width="4.5" stroke-dasharray="none" stroke-dashoffset="0"/></g></g><g transform="matrix(1, 0, 0, 1, 2397.2065, 22785.3333)" opacity="1"><g transform="scale(1)"><path d="M0,0 Q-4.6238,0.839 -6.3033,0.8575 T-9.9864,0.898 L-11.99,0.92 " stroke-linecap="round" fill="none" stroke="#9398b0" stroke-width="4.5" stroke-dasharray="none" stroke-dashoffset="0"/></g></g><g transform="matrix(1, 0, 0, 1, 2384.2978, 22784.4112)" opacity="1"><g transform="scale(1)"><path d="M 0 0 m -0.5, 0 a 0.5,0.5 0 1,0 1,0 a 0.5,0.5 0 1,0 -1,0" stroke-linecap="round" fill="#9398b0" stroke="#9398b0" stroke-width="4.5" stroke-dasharray="none" stroke-dashoffset="0"/></g></g><g transform="matrix(1, 0, 0, 1, 2384.2978, 22786.2553)" opacity="1"><g transform="scale(1)"><path d="M0,0 Q0,5.0434 0,8.0517 L0,11.06 " stroke-linecap="round" fill="none" stroke="#9398b0" stroke-width="4.5" stroke-dasharray="none" stroke-dashoffset="0"/></g></g><g transform="matrix(1, 0, 0, 1, 2429.4781, 22728.1664)" opacity="1"><g transform="scale(1)"><path d="M0,0 Q-3.7848,4.6238 -5.2338,6.0913 T-7.8928,8.5691 -10.5464,10.7847 L-11.99,11.99 " stroke-linecap="round" fill="none" stroke="#9398b0" stroke-width="4.5" stroke-dasharray="none" stroke-dashoffset="0"/></g></g><g transform="matrix(1, 0, 0, 1, 2415.6474, 22729.0885)" opacity="1"><g transform="scale(1)"><path d="M0,0 Q3.3653,4.6238 4.4904,6.3033 T6.6471,9.316 8.6617,12.0059 10.3891,14.5203 12.0218,17.059 L12.91,18.44 " stroke-linecap="round" fill="none" stroke="#9398b0" stroke-width="4.5" stroke-dasharray="none" stroke-dashoffset="0"/></g></g><g transform="matrix(1, 0, 0, 1, 2349.2601, 22817.6049)" opacity="1"><g transform="scale(1)"><path d="M0,0 Q-5.0434,6.3065 -8.0517,10.0682 L-11.06,13.83 " stroke-linecap="round" fill="none" stroke="#9398b0" stroke-width="4.5" stroke-dasharray="none" stroke-dashoffset="0"/></g></g><g transform="matrix(1, 0, 0, 1, 2340.0396, 22814.8387)" opacity="1"><g transform="scale(1)"><path d="M0,0 Q3.7848,5.887 5.024,7.698 T7.1471,10.9137 9.0855,13.9942 L10.14,15.67 " stroke-linecap="round" fill="none" stroke="#9398b0" stroke-width="4.5" stroke-dasharray="none" stroke-dashoffset="0"/></g></g><g transform="matrix(1, 0, 0, 1, 2545.6558, 22711.5696)" opacity="1"><g transform="scale(1)"><path d="M0,0 Q0,12.1934 -0.4195,15.5101 T-1.3395,22.7833 L-1.84,26.74 " stroke-linecap="round" fill="none" stroke="#9398b0" stroke-width="4.5" stroke-dasharray="none" stroke-dashoffset="0"/></g></g><g transform="matrix(1, 0, 0, 1, 2545.6558, 22708.8035)" opacity="1"><g transform="scale(1)"><path d="M0,0 Q5.0434,-0.4195 6.837,-0.5336 T10.0258,-0.7098 12.6018,-0.5959 14.8445,-0.1144 16.6938,0.567 18.1216,3.0399 18.8984,6.6994 18.6894,9.3216 17.9464,11.1677 17.1204,12.3817 16.0395,13.2519 14.6124,13.935 12.9948,14.3067 11.0637,14.5088 8.9622,14.6188 7.1873,14.6786 5.5925,14.5014 3.7645,14.0666 L2.77,13.83 " stroke-linecap="round" fill="none" stroke="#9398b0" stroke-width="4.5" stroke-dasharray="none" stroke-dashoffset="0"/></g></g><g transform="matrix(1, 0, 0, 1, 2565.0188, 22731.8546)" opacity="1"><g transform="scale(1)"><path d="M0,0 Q0.839,2.5217 1.0673,3.8391 T1.6317,6.0831 4.0409,7.5135 7.4536,7.8721 9.732,7.2259 11.3909,6.0331 12.5031,4.5428 12.8984,3.1006 12.9037,2.316 12.9066,2.7305 12.9081,3.7973 12.909,5.0092 13.1192,6.5098 13.6531,7.9554 14.363,9.3734 15.1711,10.9861 16.0324,12.9145 16.9205,15.2244 17.6134,17.532 18.2001,19.8385 18.729,22.354 19.0167,24.7735 18.9635,26.7213 18.3053,28.4125 17.1059,29.9617 15.8218,31.0143 14.494,31.5869 12.7206,31.6886 10.7048,31.5342 8.5571,31.0307 6.3377,30.1252 4.289,28.7913 2.543,27.0146 1.1736,24.997 0.2189,22.6386 -0.5187,19.9193 L-0.92,18.44 " stroke-linecap="round" fill="none" stroke="#9398b0" stroke-width="4.5" stroke-dasharray="none" stroke-dashoffset="0"/></g></g><g transform="matrix(1, 0, 0, 1, 2596.3683, 22709.7255)" opacity="1"><g transform="scale(1)"><path d="M0,0 Q0.4195,2.5217 0.3239,3.6294 T-0.0336,5.9689 -0.4378,8.7123 -0.8674,11.6775 -1.3109,14.5514 -0.9229,19.0583 0.2707,25.8276 L0.92,29.51 " stroke-linecap="round" fill="none" stroke="#9398b0" stroke-width="4.5" stroke-dasharray="none" stroke-dashoffset="0"/></g></g><g transform="matrix(1, 0, 0, 1, 2601.9006, 22724.4782)" opacity="1"><g transform="scale(1)"><path d="M0,0 Q-2.9412,0 -4.163,0 T-6.469,0.2098 -8.5648,0.5336 -10.5462,0.5001 -12.673,0.1762 L-13.83,0 " stroke-linecap="round" fill="none" stroke="#9398b0" stroke-width="4.5" stroke-dasharray="none" stroke-dashoffset="0"/></g></g><g transform="matrix(1, 0, 0, 1, 2612.0431, 22725.4003)" opacity="1"><g transform="scale(1)"><path d="M 0 0 m -0.5, 0 a 0.5,0.5 0 1,0 1,0 a 0.5,0.5 0 1,0 -1,0" stroke-linecap="round" fill="#9398b0" stroke="#9398b0" stroke-width="4.5" stroke-dasharray="none" stroke-dashoffset="0"/></g></g><g transform="matrix(1, 0, 0, 1, 2609.277, 22735.5428)" opacity="1"><g transform="scale(1)"><path d="M 0 0 m -0.5, 0 a 0.5,0.5 0 1,0 1,0 a 0.5,0.5 0 1,0 -1,0" stroke-linecap="round" fill="#9398b0" stroke="#9398b0" stroke-width="4.5" stroke-dasharray="none" stroke-dashoffset="0"/></g></g><g transform="matrix(1, 0, 0, 1, 2662.7556, 22710.6476)" opacity="1"><g transform="scale(1)"><path d="M0,0 Q0,10.5108 0,14.0013 T0,20.2319 0,26.241 L0,29.51 " stroke-linecap="round" fill="none" stroke="#9398b0" stroke-width="4.5" stroke-dasharray="none" stroke-dashoffset="0"/></g></g><g transform="matrix(1, 0, 0, 1, 2659.9895, 22709.7255)" opacity="1"><g transform="scale(1)"><path d="M0,0 Q-3.3653,3.7848 -4.7002,5.2338 T-7.6275,8.4114 L-9.22,10.14 " stroke-linecap="round" fill="none" stroke="#9398b0" stroke-width="4.5" stroke-dasharray="none" stroke-dashoffset="0"/></g></g><g transform="matrix(1, 0, 0, 1, 2679.3524, 22696.8169)" opacity="1"><g transform="scale(1)"><path d="M0,0 Q2.5217,-0.4195 3.2076,-0.3239 T3.8471,1.2944 3.5657,3.6454 2.9908,5.1363 2.0465,6.3692 0.9035,7.4594 -0.1377,8.2622 -0.4945,8.699 -0.0592,8.9366 0.5971,9.2756 1.7954,9.6698 3.7104,9.8842 5.8033,10.0008 8.0162,10.091 L9.22,10.14 " stroke-linecap="round" fill="none" stroke="#9398b0" stroke-width="4.5" stroke-dasharray="none" stroke-dashoffset="0"/></g></g><g transform="matrix(1, 0, 0, 1, 2695.9492, 22720.7901)" opacity="1"><g transform="scale(1)"><path d="M0,0 Q4.2043,0.4195 5.5577,0.5336 T8.2788,0.7098 11.2783,0.8459 L12.91,0.92 " stroke-linecap="round" fill="none" stroke="#9398b0" stroke-width="4.5" stroke-dasharray="none" stroke-dashoffset="0"/></g></g><g transform="matrix(1, 0, 0, 1, 2695.0272, 22730.9326)" opacity="1"><g transform="scale(1)"><path d="M0,0 Q2.9412,0.839 4.163,1.0673 T6.8424,1.5677 L8.3,1.84 " stroke-linecap="round" fill="none" stroke="#9398b0" stroke-width="4.5" stroke-dasharray="none" stroke-dashoffset="0"/></g></g><g transform="matrix(1, 0, 0, 1, 2739.2854, 22722.6342)" opacity="1"><g transform="scale(1)"><path d="M0,0 Q-3.7848,3.7848 -5.4435,5.4435 T-8.4264,8.4264 -10.6807,10.6807 -12.7483,12.3265 -15.2429,13.8961 L-16.6,14.75 " stroke-linecap="round" fill="none" stroke="#9398b0" stroke-width="4.5" stroke-dasharray="none" stroke-dashoffset="0"/></g></g><g transform="matrix(1, 0, 0, 1, 2724.5327, 22723.5562)" opacity="1"><g transform="scale(1)"><path d="M0,0 Q2.9412,5.0434 3.9532,6.837 T5.7256,9.816 7.319,11.8562 9.0272,13.3855 10.9461,14.8651 L11.99,15.67 " stroke-linecap="round" fill="none" stroke="#9398b0" stroke-width="4.5" stroke-dasharray="none" stroke-dashoffset="0"/></g></g><g transform="matrix(1, 0, 0, 1, 2739.2854, 22703.2712)" opacity="1"><g transform="scale(1)"><path d="M0,0 Q4.2043,0 5.3479,0.4195 T5.8527,2.1183 4.6568,4.5154 3.7964,6.4509 3.5381,7.7136 4.0269,8.6103 4.9221,9.3078 6.0406,9.6873 7.7002,9.8937 9.6541,10.006 11.5583,10.2769 13.6255,10.7841 L14.75,11.06 " stroke-linecap="round" fill="none" stroke="#9398b0" stroke-width="4.5" stroke-dasharray="none" stroke-dashoffset="0"/></g></g><g transform="matrix(1, 0, 0, 1, 2761.4145, 22724.4782)" opacity="1"><g transform="scale(1)"><path d="M0,0 Q0.4195,2.9412 0.3239,4.163 T0.1762,6.6788 0.0958,9.0984 0.0338,11.5671 L0,12.91 " stroke-linecap="round" fill="none" stroke="#9398b0" stroke-width="4.5" stroke-dasharray="none" stroke-dashoffset="0"/></g></g><g transform="matrix(1, 0, 0, 1, 2766.9468, 22730.0105)" opacity="1"><g transform="scale(1)"><path d="M0,0 Q-4.6238,0 -6.3033,0 T-9.9864,0 L-11.99,0 " stroke-linecap="round" fill="none" stroke="#9398b0" stroke-width="4.5" stroke-dasharray="none" stroke-dashoffset="0"/></g></g><g transform="matrix(1, 0, 0, 1, 2787.2318, 22721.7121)" opacity="1"><g transform="scale(1)"><path d="M0,0 Q-2.1022,3.3653 -3.3055,4.7002 T-5.583,7.1807 -7.661,9.3715 -9.8425,11.4046 -12.0803,13.1398 -14.4052,14.7785 L-15.67,15.67 " stroke-linecap="round" fill="none" stroke="#9398b0" stroke-width="4.5" stroke-dasharray="none" stroke-dashoffset="0"/></g></g><g transform="matrix(1, 0, 0, 1, 2772.479, 22724.4782)" opacity="1"><g transform="scale(1)"><path d="M0,0 Q3.7848,5.887 5.024,7.9077 T7.7787,11.2376 11.1021,14.1083 L12.91,15.67 " stroke-linecap="round" fill="none" stroke="#9398b0" stroke-width="4.5" stroke-dasharray="none" stroke-dashoffset="0"/></g></g><g transform="matrix(1, 0, 0, 1, 2789.9979, 22703.2712)" opacity="1"><g transform="scale(1)"><path d="M0,0 Q4.6238,0 6.0913,0 T8.5691,0.4195 10.129,1.4891 9.0852,3.5438 6.4152,6.1321 4.9628,7.9597 4.8019,9.1637 5.5557,10.0284 6.8071,10.7109 8.3269,11.2941 9.995,11.6115 11.7438,11.7841 13.7462,12.0877 16.1904,12.6203 L17.52,12.91 " stroke-linecap="round" fill="none" stroke="#9398b0" stroke-width="4.5" stroke-dasharray="none" stroke-dashoffset="0"/></g></g><g transform="matrix(1, 0, 0, 1, 2819.5034, 22720.7901)" opacity="1"><g transform="scale(1)"><path d="M0,0 Q3.7848,0.839 6.0424,1.3395 L8.3,1.84 " stroke-linecap="round" fill="none" stroke="#9398b0" stroke-width="4.5" stroke-dasharray="none" stroke-dashoffset="0"/></g></g><g transform="matrix(1, 0, 0, 1, 2817.6593, 22730.0105)" opacity="1"><g transform="scale(1)"><path d="M0,0 Q3.3653,0.839 4.7002,1.0673 T7.6275,1.5677 L9.22,1.84 " stroke-linecap="round" fill="none" stroke="#9398b0" stroke-width="4.5" stroke-dasharray="none" stroke-dashoffset="0"/></g></g><g transform="matrix(1, 0, 0, 1, 2840.7104, 22716.1798)" opacity="1"><g transform="scale(1)"><path d="M0,0 Q5.4674,-0.4195 7.1643,-0.3239 T9.9941,0.0336 11.953,0.8596 13.4382,2.1503 12.7755,5.7936 10.3129,10.5093 8.1319,13.4964 6.3162,15.5409 4.9089,17.0727 4.3531,18.1157 5.1018,18.6831 6.5602,18.9918 8.1926,19.3717 9.9219,19.7905 11.704,20.0182 13.3027,20.1422 14.804,20.2096 16.462,20.6658 18.339,21.6141 L19.36,22.13 " stroke-linecap="round" fill="none" stroke="#9398b0" stroke-width="4.5" stroke-dasharray="none" stroke-dashoffset="0"/></g></g><g transform="matrix(1, 0, 0, 1, 2880.3584, 22723.5562)" opacity="1"><g transform="scale(1)"><path d="M0,0 Q-2.5217,2.9412 -3.6294,4.3728 T-5.7592,7.0026 -7.9689,9.2746 -10.0123,11.1421 -11.7532,12.5775 -13.6941,13.9846 L-14.75,14.75 " stroke-linecap="round" fill="none" stroke="#9398b0" stroke-width="4.5" stroke-dasharray="none" stroke-dashoffset="0"/></g></g><g transform="matrix(1, 0, 0, 1, 2868.3718, 22724.4782)" opacity="1"><g transform="scale(1)"><path d="M0,0 Q4.6238,4.6238 6.5131,6.7228 T10.6562,11.3259 L12.91,13.83 " stroke-linecap="round" fill="none" stroke="#9398b0" stroke-width="4.5" stroke-dasharray="none" stroke-dashoffset="0"/></g></g><g transform="matrix(1, 0, 0, 1, 2883.1245, 22706.0373)" opacity="1"><g transform="scale(1)"><path d="M0,0 Q3.7848,1.2631 5.024,1.8164 T6.9374,2.8805 6.7174,4.5105 5.5467,6.4483 5.3293,7.9219 5.6306,8.9334 6.426,9.6934 7.7001,10.5286 9.0224,11.195 10.3734,11.7673 11.9496,12.2884 13.7633,12.691 L14.75,12.91 " stroke-linecap="round" fill="none" stroke="#9398b0" stroke-width="4.5" stroke-dasharray="none" stroke-dashoffset="0"/></g></g><g transform="matrix(1, 0, 0, 1, 2655.3792, 22808.3844)" opacity="1"><g transform="scale(1)"><path d="M0,0 Q0.4195,7.1455 0.6698,11.4078 L0.92,15.67 " stroke-linecap="round" fill="none" stroke="#9398b0" stroke-width="4.5" stroke-dasharray="none" stroke-dashoffset="0"/></g></g><g transform="matrix(1, 0, 0, 1, 2666.4438, 22830.5135)" opacity="1"><g transform="scale(1)"><path d="M0,0 Q-1.6826,0.839 -2.7696,1.0673 T-5.0794,1.4196 -7.5991,1.8234 -12.123,2.4648 -19.2001,3.2583 L-23.05,3.69 " stroke-linecap="round" fill="none" stroke="#9398b0" stroke-width="4.5" stroke-dasharray="none" stroke-dashoffset="0"/></g></g><g transform="matrix(1, 0, 0, 1, 2649.847, 22847.1103)" opacity="1"><g transform="scale(1)"><path d="M0,0 Q2.1022,0.4195 2.8837,0.7434 T4.3002,1.6652 3.8099,4.4809 1.8628,8.1148 0.3841,10.3014 -0.4203,11.4909 -0.4384,12.3478 0.181,13.0237 1.3593,13.3914 2.8416,13.5914 4.4893,13.7002 6.4368,13.7594 8.5472,13.7916 10.5367,13.8091 12.67,14.0284 15.2153,14.4958 L16.6,14.75 " stroke-linecap="round" fill="none" stroke="#9398b0" stroke-width="4.5" stroke-dasharray="none" stroke-dashoffset="0"/></g></g><g transform="matrix(1, 0, 0, 1, 2694.1051, 22826.8253)" opacity="1"><g transform="scale(1)"><path d="M0,0 Q4.6238,-0.839 7.3819,-1.3395 L10.14,-1.84 " stroke-linecap="round" fill="none" stroke="#9398b0" stroke-width="4.5" stroke-dasharray="none" stroke-dashoffset="0"/></g></g><g transform="matrix(1, 0, 0, 1, 2694.1051, 22835.1237)" opacity="1"><g transform="scale(1)"><path d="M0,0 Q2.9412,0.4195 4.163,0.5336 T6.469,0.5001 8.8466,0.1762 L10.14,0 " stroke-linecap="round" fill="none" stroke="#9398b0" stroke-width="4.5" stroke-dasharray="none" stroke-dashoffset="0"/></g></g><g transform="matrix(1, 0, 0, 1, 2735.5972, 22824.0592)" opacity="1"><g transform="scale(1)"><path d="M0,0 Q-2.5217,3.3653 -3.6294,4.9099 T-5.7592,7.9264 -7.7568,10.6184 -9.8946,12.9242 -12.4434,15.3049 L-13.83,16.6 " stroke-linecap="round" fill="none" stroke="#9398b0" stroke-width="4.5" stroke-dasharray="none" stroke-dashoffset="0"/></g></g><g transform="matrix(1, 0, 0, 1, 2721.7665, 22828.6694)" opacity="1"><g transform="scale(1)"><path d="M0,0 Q3.7848,3.7848 5.8653,5.8653 T10.4279,10.4279 L12.91,12.91 " stroke-linecap="round" fill="none" stroke="#9398b0" stroke-width="4.5" stroke-dasharray="none" stroke-dashoffset="0"/></g></g><g transform="matrix(1, 0, 0, 1, 2737.4413, 22806.5403)" opacity="1"><g transform="scale(1)"><path d="M0,0 Q3.3653,0 4.4904,0.4195 T6.2276,1.2793 6.1215,3.2199 4.5909,5.7462 3.5486,7.54 3.6131,8.7256 4.2774,9.5803 5.2704,10.2551 6.6519,10.6221 8.2425,10.8218 9.9491,11.1425 11.7188,11.5289 13.682,11.8276 L14.75,11.99 " stroke-linecap="round" fill="none" stroke="#9398b0" stroke-width="4.5" stroke-dasharray="none" stroke-dashoffset="0"/></g></g><g transform="matrix(1, 0, 0, 1, 2623.1076, 22837.8899)" opacity="1"><g transform="scale(1)"><path d="M0,0 Q0.839,4.2043 1.0673,6.399 T1.6317,10.8386 2.1507,14.9364 2.4331,18.4264 2.5867,21.7956 2.7054,25.5938 L2.77,27.66 " stroke-linecap="round" fill="none" stroke="#9398b0" stroke-width="4.5" stroke-dasharray="none" stroke-dashoffset="0"/></g></g><g transform="matrix(1, 0, 0, 1, 2625.8738, 22863.7071)" opacity="1"><g transform="scale(1)"><path d="M0,0 Q1.2631,-4.6238 1.8164,-6.9326 T2.6708,-11.7605 3.5551,-16.9108 4.6654,-22.2342 5.6912,-27.6519 6.6711,-32.911 7.6236,-37.6643 8.7711,-44.8763 10.2535,-55.8243 L11.06,-61.78 " stroke-linecap="round" fill="none" stroke="#9398b0" stroke-width="4.5" stroke-dasharray="none" stroke-dashoffset="0"/></g></g><g transform="matrix(1, 0, 0, 1, 2637.8604, 22801.008)" opacity="1"><g transform="scale(1)"><path d="M0,0 Q2.5217,0 3.6294,-0.2098 T5.7592,-0.5336 7.7568,-0.9196 12.8381,-2.1806 19.5969,-3.9177 25.415,-5.5578 L28.58,-6.45 " stroke-linecap="round" fill="none" stroke="#9398b0" stroke-width="4.5" stroke-dasharray="none" stroke-dashoffset="0"/></g></g><g transform="matrix(1, 0, 0, 1, 2669.2099, 22795.4758)" opacity="1"><g transform="scale(1)"><path d="M0,0 Q0.839,2.5217 1.0673,3.8391 T1.4196,6.5026 1.6113,9.0026 1.7156,11.4136 1.7723,13.7763 1.8032,15.903 1.827,18.142 L1.84,19.36 " stroke-linecap="round" fill="none" stroke="#9398b0" stroke-width="4.5" stroke-dasharray="none" stroke-dashoffset="0"/></g></g><g transform="matrix(1, 0, 0, 1, 2715.3122, 22823.1371)" opacity="1"><g transform="scale(1)"><path d="M0,0 Q-0.839,6.3065 -0.8575,9.0729 T-0.886,13.9759 -0.908,18.6612 L-0.92,21.21 " stroke-linecap="round" fill="none" stroke="#9398b0" stroke-width="4.5" stroke-dasharray="none" stroke-dashoffset="0"/></g></g><g transform="matrix(1, 0, 0, 1, 2714.3902, 22844.3442)" opacity="1"><g transform="scale(1)"><path d="M0,0 Q0.839,-4.6238 1.2793,-6.9326 T1.9591,-11.5484 2.5386,-15.9518 3.0636,-20.2397 3.7688,-27.1984 4.9937,-34.7687 6.0819,-39.3065 7.0933,-41.9848 8.4826,-43.4418 9.8699,-44.2344 11.2562,-44.8754 12.8494,-45.4338 14.5574,-45.9473 16.5399,-46.4365 18.8792,-46.9146 21.4127,-47.3867 23.8419,-47.6436 26.2145,-47.7833 28.5563,-47.8593 30.8813,-47.9007 33.1972,-47.9232 35.0863,-47.9354 36.7456,-47.9421 38.4895,-47.9457 39.8577,-48.1574 40.8118,-48.4824 41.5406,-48.2373 41.7273,-47.2627 41.6191,-45.8935 41.5602,-44.3073 41.5282,-42.3933 41.5108,-40.0913 41.5013,-37.5759 41.494,-34.7353 L41.49,-33.19 " stroke-linecap="round" fill="none" stroke="#9398b0" stroke-width="4.5" stroke-dasharray="none" stroke-dashoffset="0"/></g></g><g transform="matrix(1, 0, 0, 1, 2643.3926, 22895.9787)" opacity="1"><g transform="scale(1)"><path d="M0,0 Q0.4195,7.1455 0.5336,9.7207 T0.7839,15.3679 L0.92,18.44 " stroke-linecap="round" fill="none" stroke="#9398b0" stroke-width="4.5" stroke-dasharray="none" stroke-dashoffset="0"/></g></g><g transform="matrix(1, 0, 0, 1, 2654.4572, 22922.7181)" opacity="1"><g transform="scale(1)"><path d="M0,0 Q-6.3065,0 -8.8632,0 T-13.4422,0 -17.1941,0 -20.4959,0 -23.9442,0 L-25.82,0 " stroke-linecap="round" fill="none" stroke="#9398b0" stroke-width="4.5" stroke-dasharray="none" stroke-dashoffset="0"/></g></g><g transform="matrix(1, 0, 0, 1, 2624.9517, 22943.9251)" opacity="1"><g transform="scale(1)"><path d="M0,0 Q0.4195,7.5696 0.9554,6.6851 T1.9926,4.6877 2.7666,2.5501 3.3974,0.3362 3.9504,-1.9193 4.2512,-3.9876 4.6246,-5.954 5.2472,-7.6531 5.7957,-8.5774 6.5158,-8.8704 7.5392,-9.0298 8.7252,-9.1165 10.0019,-9.1637 11.328,-8.9796 12.8884,-8.6697 14.5786,-8.5011 16.3394,-8.4094 18.1386,-8.3595 19.9587,-8.3324 21.7901,-8.3176 23.8375,-8.3096 26.0024,-8.515 28.0214,-8.8365 29.9587,-9.2211 32.2735,-10.0619 35.257,-11.3107 L36.88,-11.99 " stroke-linecap="round" fill="none" stroke="#9398b0" stroke-width="4.5" stroke-dasharray="none" stroke-dashoffset="0"/></g></g><g transform="matrix(1, 0, 0, 1, 2641.5485, 22944.8471)" opacity="1"><g transform="scale(1)"><path d="M0,0 Q2.5217,2.5217 2.9978,3.6294 T3.5232,5.5494 3.1775,7.2232 1.3067,9.3946 -0.762,11.4171 -1.2559,12.5174 -0.6832,13.1159 0.4697,13.4416 1.9381,13.6187 3.576,13.715 5.3084,13.7675 7.0921,14.0057 9.0661,14.4878 L10.14,14.75 " stroke-linecap="round" fill="none" stroke="#9398b0" stroke-width="4.5" stroke-dasharray="none" stroke-dashoffset="0"/></g></g><g transform="matrix(1, 0, 0, 1, 2682.1186, 22920.874)" opacity="1"><g transform="scale(1)"><path d="M0,0 Q2.5217,-0.4195 3.6294,-0.5336 T5.9689,-0.9196 8.6704,-1.5157 L10.14,-1.84 " stroke-linecap="round" fill="none" stroke="#9398b0" stroke-width="4.5" stroke-dasharray="none" stroke-dashoffset="0"/></g></g><g transform="matrix(1, 0, 0, 1, 2681.1965, 22930.0944)" opacity="1"><g transform="scale(1)"><path d="M0,0 Q2.9412,0.839 3.9532,0.8575 T5.9354,0.886 8.2745,0.6917 11.2768,0.2437 L12.91,0 " stroke-linecap="round" fill="none" stroke="#9398b0" stroke-width="4.5" stroke-dasharray="none" stroke-dashoffset="0"/></g></g><g transform="matrix(1, 0, 0, 1, 2733.7531, 22917.1858)" opacity="1"><g transform="scale(1)"><path d="M0,0 Q-4.6238,6.3065 -6.7228,8.8632 T-10.3832,13.0204 -13.2158,15.4918 -16.0035,17.4012 L-17.52,18.44 " stroke-linecap="round" fill="none" stroke="#9398b0" stroke-width="4.5" stroke-dasharray="none" stroke-dashoffset="0"/></g></g><g transform="matrix(1, 0, 0, 1, 2719.9224, 22920.874)" opacity="1"><g transform="scale(1)"><path d="M0,0 Q5.4674,6.726 7.1643,8.7652 T9.9941,12.1258 12.1628,14.3758 14.4343,16.4122 L15.67,17.52 " stroke-linecap="round" fill="none" stroke="#9398b0" stroke-width="4.5" stroke-dasharray="none" stroke-dashoffset="0"/></g></g><g transform="matrix(1, 0, 0, 1, 2615.7313, 23015.8447)" opacity="1"><g transform="scale(1)"><path d="M0,0 Q-4.2043,4.6238 -5.7674,6.5131 T-8.8124,10.0594 -11.5199,13.2494 -13.8342,16.0381 -15.9344,18.3965 -18.1531,20.8146 L-19.36,22.13 " stroke-linecap="round" fill="none" stroke="#9398b0" stroke-width="4.5" stroke-dasharray="none" stroke-dashoffset="0"/></g></g><g transform="matrix(1, 0, 0, 1, 2600.0565, 23017.6888)" opacity="1"><g transform="scale(1)"><path d="M0,0 Q3.7848,5.887 5.2338,7.698 T7.6808,10.7039 9.8533,12.9707 12.4289,15.3213 L13.83,16.6 " stroke-linecap="round" fill="none" stroke="#9398b0" stroke-width="4.5" stroke-dasharray="none" stroke-dashoffset="0"/></g></g><g transform="matrix(1, 0, 0, 1, 2631.406, 23017.6888)" opacity="1"><g transform="scale(1)"><path d="M0,0 L8.3,-0.92 " stroke-linecap="round" fill="none" stroke="#9398b0" stroke-width="4.5" stroke-dasharray="none" stroke-dashoffset="0"/></g></g><g transform="matrix(1, 0, 0, 1, 2627.7179, 23023.221)" opacity="1"><g transform="scale(1)"><path d="M0,0 Q2.5217,0.839 3.6294,1.0673 T5.9689,1.4196 8.7123,1.4016 12.0269,1.0897 L13.83,0.92 " stroke-linecap="round" fill="none" stroke="#9398b0" stroke-width="4.5" stroke-dasharray="none" stroke-dashoffset="0"/></g></g><g transform="matrix(1, 0, 0, 1, 2667.3658, 22989.1053)" opacity="1"><g transform="scale(1)"><path d="M0,0 Q-0.4195,11.7739 -0.5336,15.3959 T-0.7098,21.4102 -0.8459,26.6562 L-0.92,29.51 " stroke-linecap="round" fill="none" stroke="#9398b0" stroke-width="4.5" stroke-dasharray="none" stroke-dashoffset="0"/></g></g><g transform="matrix(1, 0, 0, 1, 2680.2745, 23020.4549)" opacity="1"><g transform="scale(1)"><path d="M0,0 Q-2.9412,0.839 -4.5825,1.0673 T-7.9581,1.6317 -11.477,2.1507 -15.0739,2.6429 -19.5523,3.7497 -25.3993,5.4986 L-28.58,6.45 " stroke-linecap="round" fill="none" stroke="#9398b0" stroke-width="4.5" stroke-dasharray="none" stroke-dashoffset="0"/></g></g><g transform="matrix(1, 0, 0, 1, 2648.9249, 23045.3501)" opacity="1"><g transform="scale(1)"><path d="M0,0 Q0,7.1455 0,9.5109 T0,13.7946 0,17.3858 0,20.3905 0.2098,21.1837 0.7434,19.9326 1.2434,18.4106 1.7275,16.7414 2.4126,14.7822 3.2049,12.4556 4.2651,9.9291 5.6832,6.872 7.0862,3.3166 8.269,-0.0882 9.3319,-3.2012 10.332,-5.736 11.2978,-7.115 12.4525,-7.4456 13.9219,-7.4157 15.5627,-7.3994 17.2965,-7.3906 19.2908,-7.3857 21.6366,-7.3831 23.9637,-7.3817 26.2808,-7.5907 28.8021,-7.9141 31.2248,-8.2998 33.6958,-8.8958 L35.04,-9.22 " stroke-linecap="round" fill="none" stroke="#9398b0" stroke-width="4.5" stroke-dasharray="none" stroke-dashoffset="0"/></g></g><g transform="matrix(1, 0, 0, 1, 2663.6776, 23049.0383)" opacity="1"><g transform="scale(1)"><path d="M0,0 Q3.7848,2.1022 4.6045,3.0935 T5.6581,5.0458 5.5997,6.9493 3.4657,9.6651 0.8343,12.4033 0.0343,13.8929 0.2284,14.7033 0.9656,15.1441 2.2079,15.3839 3.513,15.5144 4.8546,15.5853 6.4257,15.6239 8.1194,15.6449 10.0239,15.6612 L11.06,15.67 " stroke-linecap="round" fill="none" stroke="#9398b0" stroke-width="4.5" stroke-dasharray="none" stroke-dashoffset="0"/></g></g><g transform="matrix(1, 0, 0, 1, 2683.9626, 23037.0517)" opacity="1"><g transform="scale(1)"><path d="M0,0 Q0.839,2.1022 0.8575,3.0935 T0.886,5.0458 0.9015,7.159 0.9135,9.6856 L0.92,11.06 " stroke-linecap="round" fill="none" stroke="#9398b0" stroke-width="4.5" stroke-dasharray="none" stroke-dashoffset="0"/></g></g><g transform="matrix(1, 0, 0, 1, 2694.1051, 23056.4147)" opacity="1"><g transform="scale(1)"><path d="M 0 0 m -0.5, 0 a 0.5,0.5 0 1,0 1,0 a 0.5,0.5 0 1,0 -1,0" stroke-linecap="round" fill="#9398b0" stroke="#9398b0" stroke-width="4.5" stroke-dasharray="none" stroke-dashoffset="0"/></g></g><g transform="matrix(1, 0, 0, 1, 2698.7154, 23056.4147)" opacity="1"><g transform="scale(1)"><path d="M0,0 Q0,6.3065 0,10.0682 L0,13.83 " stroke-linecap="round" fill="none" stroke="#9398b0" stroke-width="4.5" stroke-dasharray="none" stroke-dashoffset="0"/></g></g><g transform="matrix(1, 0, 0, 1, 2699.6374, 23068.4013)" opacity="1"><g transform="scale(1)"><path d="M0,0 Q3.3653,-7.9891 4.4904,-11.0035 T6.6471,-16.499 8.4496,-20.9591 10.0618,-24.4365 11.3606,-27.1695 12.2769,-29.7074 13.2828,-32.5653 L13.83,-34.12 " stroke-linecap="round" fill="none" stroke="#9398b0" stroke-width="4.5" stroke-dasharray="none" stroke-dashoffset="0"/></g></g><g transform="matrix(1, 0, 0, 1, 2712.5461, 23036.1297)" opacity="1"><g transform="scale(1)"><path d="M0,0 Q8.8282,0 11.6512,0 T16.4295,-0.2098 20.7174,-0.6698 L23.05,-0.92 " stroke-linecap="round" fill="none" stroke="#9398b0" stroke-width="4.5" stroke-dasharray="none" stroke-dashoffset="0"/></g></g><g transform="matrix(1, 0, 0, 1, 2733.7531, 23036.1297)" opacity="1"><g transform="scale(1)"><path d="M0,0 Q0.4195,5.0434 0.6698,8.0517 L0.92,11.06 " stroke-linecap="round" fill="none" stroke="#9398b0" stroke-width="4.5" stroke-dasharray="none" stroke-dashoffset="0"/></g></g><g transform="matrix(1, 0, 0, 1, 2720.8445, 23052.7265)" opacity="1"><g transform="scale(1)"><path d="M0,0 Q2.1022,2.9412 2.2544,4.163 T2.0677,6.469 1.3346,8.5648 0.5163,10.3364 -0.5605,11.9295 -1.9875,13.6374 -3.3931,15.1981 -4.5773,16.4667 -5.0117,17.3665 -4.409,17.856 -0.9279,18.3321 5.6446,18.9978 L9.22,19.36 " stroke-linecap="round" fill="none" stroke="#9398b0" stroke-width="4.5" stroke-dasharray="none" stroke-dashoffset="0"/></g></g><g transform="matrix(1, 0, 0, 1, 2664.5997, 23023.221)" opacity="1"><g transform="scale(1)"><path d="M0,0 Q2.5217,0 3.8391,-0.2098 T6.5026,-0.5336 9.4221,-0.9196 16.268,-1.9708 24.828,-3.1743 30.114,-3.829 33.6211,-3.9754 36.3703,-3.8452 38.7049,-3.7744 40.6064,-3.7359 42.2725,-3.715 44.0178,-3.7036 45.5989,-3.6974 47.0905,-3.694 48.5312,-3.9019 49.9465,-4.2248 51.5578,-4.4005 53.2734,-4.496 55.048,-4.548 57.0667,-4.5763 59.216,-4.8014 61.4362,-5.1336 63.4854,-5.3144 65.2294,-5.6225 67.2292,-5.9998 69.3682,-6.2051 71.1611,-6.3168 72.9778,-6.5896 75.2784,-7.1015 L76.53,-7.38 " stroke-linecap="round" fill="none" stroke="#9398b0" stroke-width="4.5" stroke-dasharray="none" stroke-dashoffset="0"/></g></g><g transform="matrix(1, 0, 0, 1, 2686.7288, 23001.0919)" opacity="1"><g transform="scale(1)"><path d="M 0 0 m -0.5, 0 a 0.5,0.5 0 1,0 1,0 a 0.5,0.5 0 1,0 -1,0" stroke-linecap="round" fill="#9398b0" stroke="#9398b0" stroke-width="4.5" stroke-dasharray="none" stroke-dashoffset="0"/></g></g><g transform="matrix(1, 0, 0, 1, 2697.7933, 22994.6376)" opacity="1"><g transform="scale(1)"><path d="M0,0 Q0.839,6.3065 1.0673,8.4414 T1.8414,10.267 2.8941,9.3701 3.6766,7.831 4.312,5.9427 5.0772,3.8644 5.9152,1.4707 6.7929,-1.0924 7.4801,-3.9572 8.2735,-6.5668 9.1246,-7.9864 9.7974,-8.5489 10.5852,-8.6452 11.8551,-8.4878 13.597,-8.1924 15.3859,-7.8219 17.2003,-7.6204 19.2385,-7.5108 21.3983,-7.6609 23.6244,-7.9523 25.8864,-8.3206 27.9583,-8.7307 29.9244,-9.1636 31.8353,-9.8186 33.7162,-10.3847 35.3686,-10.4829 36.4773,-9.907 37.0805,-8.7524 37.4086,-7.283 37.5871,-5.4325 37.725,-3.1058 L37.8,-1.84 " stroke-linecap="round" fill="none" stroke="#9398b0" stroke-width="4.5" stroke-dasharray="none" stroke-dashoffset="0"/></g></g><g transform="matrix(1, 0, 0, 1, 2716.2342, 22998.3258)" opacity="1"><g transform="scale(1)"><path d="M0,0 Q3.3653,0 4.2806,0.2098 T5.6939,0.7434 6.4628,1.6652 6.669,2.7983 5.0985,4.4658 2.3541,6.2142 0.8611,7.1653 1.1,7.6827 2.4908,7.9642 4.2985,8.1173 6.3329,8.2006 8.7986,8.265 L10.14,8.3 " stroke-linecap="round" fill="none" stroke="#9398b0" stroke-width="4.5" stroke-dasharray="none" stroke-dashoffset="0"/></g></g><g transform="matrix(1, 0, 0, 1, 2761.4145, 23014.0006)" opacity="1"><g transform="scale(1)"><path d="M0,0 L9.22,-1.84 " stroke-linecap="round" fill="none" stroke="#9398b0" stroke-width="4.5" stroke-dasharray="none" stroke-dashoffset="0"/></g></g><g transform="matrix(1, 0, 0, 1, 2758.6483, 23020.4549)" opacity="1"><g transform="scale(1)"><path d="M0,0 Q5.0434,0.839 8.0517,1.3395 L11.06,1.84 " stroke-linecap="round" fill="none" stroke="#9398b0" stroke-width="4.5" stroke-dasharray="none" stroke-dashoffset="0"/></g></g><g transform="matrix(1, 0, 0, 1, 2861.9174, 23028.7533)" opacity="1"><g transform="scale(1)"><path d="M0,0 Q-11.7739,-0.4195 -16.447,-0.3239 T-25.1352,-0.1762 -32.5953,0.3237 -39.1752,1.2272 -45.2764,2.1405 -50.6976,3.2666 -55.3294,4.5085 -61.0023,5.8156 -66.1905,6.7387 -68.3836,6.8191 -68.5256,6.2313 -67.7383,5.1812 L-67.31,4.61 " stroke-linecap="round" fill="none" stroke="#9398b0" stroke-width="4.5" stroke-dasharray="none" stroke-dashoffset="0"/></g></g><g transform="matrix(1, 0, 0, 1, 2820.4254, 23044.4281)" opacity="1"><g transform="scale(1)"><path d="M0,0 Q5.4674,-0.4195 6.9546,-0.3239 T9.4605,0.0336 11.0335,0.8596 11.6794,1.9405 11.609,3.1578 9.2565,6.3417 5.6648,10.3856 3.0817,13.0073 1.0471,14.8554 0.1501,16.0704 0.5012,16.7314 1.5335,17.091 2.9364,17.2866 4.5409,17.393 6.4648,17.4509 8.7722,17.4824 11.0786,17.4996 13.5941,17.2991 16.2256,16.9803 18.858,16.734 L20.29,16.6 " stroke-linecap="round" fill="none" stroke="#9398b0" stroke-width="4.5" stroke-dasharray="none" stroke-dashoffset="0"/></g></g><g transform="matrix(1, 0, 0, 1, 2813.049, 23001.0919)" opacity="1"><g transform="scale(1)"><path d="M0,0 Q-0.4195,9.2522 -0.7434,11.5568 T-1.2434,14.9053 -1.3057,16.3074 -1.1298,16.6506 -0.8244,16.2057 -0.0289,14.7006 1.2451,12.4112 2.7795,9.6952 4.2435,6.535 5.6715,3.3453 7.0798,0.1395 8.2655,-3.0774 9.33,-6.0882 10.1189,-8.7771 10.7601,-10.8715 11.3209,-12.8521 11.626,-14.5612 11.792,-15.0691 12.092,-14.9236 12.8846,-14.6347 14.157,-14.2677 15.4808,-14.0681 16.8302,-13.9595 18.8251,-13.9005 21.1735,-13.8683 23.2923,-14.0606 25.284,-14.375 27.6283,-14.7557 29.9547,-15.3847 31.8518,-15.9389 33.7251,-16.2403 35.1637,-16.4043 35.7366,-16.0718 35.6287,-15.2593 35.1505,-13.976 34.6806,-12.2268 34.2129,-10.4362 33.7465,-8.411 33.4927,-6.0462 33.2967,-3.322 L33.19,-1.84 " stroke-linecap="round" fill="none" stroke="#9398b0" stroke-width="4.5" stroke-dasharray="none" stroke-dashoffset="0"/></g></g><g transform="matrix(1, 0, 0, 1, 2830.5679, 23000.1699)" opacity="1"><g transform="scale(1)"><path d="M0,0 Q3.7848,1.6826 4.3925,2.5598 T4.9112,4.5458 2.4619,7.7283 -0.9726,10.9302 -2.2118,12.672 -2.2543,13.6196 -1.0143,14.3448 1.3406,15.1611 4.3021,15.8173 7.5957,16.1742 11.0376,16.45 L12.91,16.6 " stroke-linecap="round" fill="none" stroke="#9398b0" stroke-width="4.5" stroke-dasharray="none" stroke-dashoffset="0"/></g></g></svg>