<svg xmlns="http://www.w3.org/2000/svg" direction="ltr" width="694.679195319834" height="856.0382898924327" viewBox="2243.95746513269 22644.989055576963 694.679195319834 856.0382898924327" stroke-linecap="round" stroke-linejoin="round" style="background-color: transparent;"><defs/><g transform="matrix(1, 0, 0, 1, 2278.7236, 22801.4691)" opacity="1"><g transform="scale(1)"><path d="M0,-0.92 Q5.0434,-5.5438 6.6272,-7.0136 T9.4922,-9.4926 11.68,-11.2607 13.2897,-12.8518 14.5871,-14.3489 15.7148,-15.5852 16.7477,-16.6772 17.7292,-17.6908 18.6849,-18.664 19.6266,-19.6152 20.5584,-20.5522 21.6946,-21.4814 22.9442,-22.4065 24.0458,-23.3315 25.0646,-24.2565 26.0383,-25.1792 26.9876,-26.1007 27.9258,-27.0215 28.8579,-27.9442 29.7846,-29.0777 30.7082,-30.3236 31.6301,-31.4209 32.7632,-32.4397 34.0112,-33.6254 35.1096,-34.8997 36.1267,-36.0125 37.3115,-37.0396 38.5876,-38.0202 39.7013,-38.9732 40.7267,-39.9111 41.7063,-40.8408 42.6611,-41.7684 43.8097,-42.6948 45.0638,-43.6183 46.1679,-44.75 47.4,-45.9971 48.6996,-47.3072 50.0382,-48.8589 51.3979,-50.3345 52.7668,-51.5591 54.1408,-52.8546 55.3101,-54.1886 56.368,-55.3361 57.363,-56.3821 58.5358,-57.3707 59.8054,-58.328 60.9156,-59.4803 62.1488,-60.7387 63.4512,-62.0526 64.7913,-63.6086 66.3594,-65.2965 67.8439,-66.8439 69.0733,-68.3173 70.3714,-69.7504 71.7068,-71.1592 72.8551,-72.5572 73.9016,-73.7395 74.8904,-74.8022 75.8478,-75.7999 76.7882,-76.7621 77.7215,-77.7073 78.6511,-78.6433 79.5763,-79.7818 80.4991,-81.0304 81.4206,-82.1315 82.3437,-83.1522 83.2677,-84.1271 84.1899,-85.0769 85.1111,-86.0131 86.0317,-86.9442 86.9543,-87.8725 87.878,-88.7971 88.8,-89.9293 89.7211,-91.1768 90.6417,-92.2772 91.5643,-93.2954 92.488,-94.4785 93.4101,-95.7537 94.3312,-96.8692 95.2517,-97.6858 96.1743,-98.3398 97.098,-99.1151 98.0201,-100.1684 98.9412,-101.1632 99.864,-102.1239 100.7879,-103.066 101.71,-104.0004 102.6311,-104.9304 103.5517,-105.8559 104.4743,-106.7789 105.398,-107.7005 106.3201,-108.6214 107.2411,-109.5442 108.1617,-110.6777 109.0843,-111.5041 110.008,-112.1634 110.9301,-112.9416 111.8512,-113.5747 112.7717,-114.1312 113.6943,-114.8557 114.618,-115.6693 115.5401,-116.5315 116.4612,-117.632 117.3817,-118.8623 118.3043,-119.9511 119.4378,-121.3847 120.9094,-123.3894 L121.71,-124.48 " stroke-linecap="round" fill="none" stroke="#9398b0" stroke-width="4.5" stroke-dasharray="none" stroke-dashoffset="0"/></g></g><g transform="matrix(1, 0, 0, 1, 2278.7236, 22802.3911)" opacity="1"><g transform="scale(1)"><path d="M0,0.92 Q2.1022,0.081 4.3566,-0.1473 T8.0472,-0.4996 10.6841,-0.9011 12.7479,-1.3292 14.5022,-1.5621 16.2978,-1.6888 18.116,-1.7578 19.7366,-1.7953 21.2475,-2.0277 22.9108,-2.3662 24.8667,-2.5503 26.772,-2.6505 28.44,-2.705 30.1865,-2.7346 32.1877,-2.7508 34.3274,-2.7595 36.3327,-2.7643 38.4747,-2.7669 40.691,-2.7683 42.9477,-2.7691 45.0167,-2.7695 46.7738,-2.7697 48.359,-2.7699 50.0626,-2.9797 52.2502,-3.3036 54.7011,-3.4798 57.0878,-3.5756 59.0177,-3.6278 60.6968,-3.6562 62.4516,-3.6716 64.2475,-3.68 66.2756,-3.6846 68.2201,-3.687 69.9073,-3.6884 71.4544,-3.6891 73.1373,-3.6895 75.3159,-3.6897 77.7619,-3.6899 80.1437,-3.6899 82.2806,-3.69 84.0724,-3.69 85.6787,-3.69 87.3939,-3.69 88.9562,-3.69 90.4376,-3.69 91.8751,-3.4802 93.2864,-3.1564 94.8954,-2.9802 96.6121,-2.8843 98.1752,-2.8322 99.6571,-2.8038 101.3046,-2.5764 102.8301,-2.2406 104.2915,-2.0579 105.9279,-1.9585 107.4473,-1.9045 108.9055,-1.8751 110.54,-1.8591 112.0585,-1.8504 113.3063,-1.8456 114.8265,-1.8431 116.4925,-1.8417 118.0304,-1.8409 119.7083,-1.8405 120.8308,-2.2621 121.4002,-3.1869 L121.71,-3.69 " stroke-linecap="round" fill="none" stroke="#9398b0" stroke-width="4.5" stroke-dasharray="none" stroke-dashoffset="0"/></g></g><g transform="matrix(1, 0, 0, 1, 2400.4336, 22676.9929)" opacity="1"><g transform="scale(1)"><path d="M0,0 Q0,2.9412 0,4.3728 T0,7.0026 -0.2098,9.0648 -0.5336,12.2911 -0.7098,16.5679 -0.8057,19.9455 -0.8578,22.6243 -0.8862,24.9206 -0.9016,27.0111 -0.91,28.7799 -0.9146,30.5834 -0.917,32.4059 -0.9184,34.2363 -0.9191,36.4929 -0.9195,38.7716 -0.9197,41.0623 -0.9199,43.3595 -0.9199,45.4505 -0.92,47.6391 -0.92,49.8807 -0.92,51.9415 -0.92,53.9039 -0.92,55.8128 -0.92,57.4805 -0.92,59.0193 -0.92,60.6977 -0.92,62.4521 -0.92,64.2478 -0.92,66.0637 -0.92,67.8928 -0.92,69.5195 -0.92,71.2457 -0.92,73.4456 -0.92,75.9031 -0.92,78.2912 -0.92,80.4315 -0.92,82.4372 -0.92,84.3674 -0.92,86.2587 -0.92,88.1289 -0.92,89.9876 -0.92,91.8401 -0.92,93.6868 -0.92,95.5328 -0.7102,97.3783 -0.3864,99.2236 -0.2102,101.0688 -0.1143,102.9138 -0.0622,104.7589 -0.0338,106.6016 -0.0184,108.4454 -0.01,110.2897 -0.0054,112.1344 -0.003,113.9792 -0.0016,115.8218 -0.0009,117.6655 -0.0005,119.7196 -0.0002,122.2004 L0,123.55 " stroke-linecap="round" fill="none" stroke="#9398b0" stroke-width="4.5" stroke-dasharray="none" stroke-dashoffset="0"/></g></g><g transform="matrix(1, 0, 0, 1, 2329.8971, 22706.0373)" opacity="1"><g transform="scale(1)"><path d="M0,0 Q-0.4195,9.2522 -0.6698,14.7711 L-0.92,20.29 " stroke-linecap="round" fill="none" stroke="#9398b0" stroke-width="4.5" stroke-dasharray="none" stroke-dashoffset="0"/></g></g><g transform="matrix(1, 0, 0, 1, 2328.9751, 22704.1932)" opacity="1"><g transform="scale(1)"><path d="M0,0 Q-2.5217,2.1022 -3.4173,3.0935 T-5.222,5.0458 -6.8353,6.7395 -8.3423,8.0804 -10.1025,9.4143 L-11.06,10.14 " stroke-linecap="round" fill="none" stroke="#9398b0" stroke-width="4.5" stroke-dasharray="none" stroke-dashoffset="0"/></g></g><g transform="matrix(1, 0, 0, 1, 2313.3003, 22797.3199)" opacity="1"><g transform="scale(1)"><path d="M0,0 Q-0.4195,-4.2043 -0.7434,-5.7674 T-1.4555,-8.6026 -2.4744,-10.9863 -3.8678,-12.9123 -5.4671,-14.1698 -7.3882,-14.2246 -9.7663,-13.3732 L-11.06,-12.91 " stroke-linecap="round" fill="none" stroke="#9398b0" stroke-width="4.5" stroke-dasharray="none" stroke-dashoffset="0"/></g></g><g transform="matrix(1, 0, 0, 1, 2316.9885, 22774.2687)" opacity="1"><g transform="scale(1)"><path d="M0,0 Q-0.4195,2.9412 0.5175,3.9532 T2.5934,5.5158 5.0912,6.7232 L6.45,7.38 " stroke-linecap="round" fill="none" stroke="#9398b0" stroke-width="4.5" stroke-dasharray="none" stroke-dashoffset="0"/></g></g><g transform="matrix(1, 0, 0, 1, 2324.3649, 22773.3467)" opacity="1"><g transform="scale(1)"><path d="M0,0 Q0,2.9412 0,4.163 T0,6.469 0,8.7745 0,11.4529 L0,12.91 " stroke-linecap="round" fill="none" stroke="#9398b0" stroke-width="4.5" stroke-dasharray="none" stroke-dashoffset="0"/></g></g><g transform="matrix(1, 0, 0, 1, 2330.8192, 22773.3467)" opacity="1"><g transform="scale(1)"><path d="M0,0 Q1.6826,2.5217 2.3501,3.4173 T3.5904,5.222 4.6846,6.8353 5.4896,8.1325 5.7178,9.2577 5.2126,10.0795 3.8868,10.5266 2.1144,10.5601 0.1491,10.288 L-0.92,10.14 " stroke-linecap="round" fill="none" stroke="#9398b0" stroke-width="4.5" stroke-dasharray="none" stroke-dashoffset="0"/></g></g><g transform="matrix(1, 0, 0, 1, 2332.6633, 22770.5805)" opacity="1"><g transform="scale(1)"><path d="M0,0 L5.53,-0.92 " stroke-linecap="round" fill="none" stroke="#9398b0" stroke-width="4.5" stroke-dasharray="none" stroke-dashoffset="0"/></g></g><g transform="matrix(1, 0, 0, 1, 2344.6499, 22767.8144)" opacity="1"><g transform="scale(1)"><path d="M0,0 Q-0.4195,1.6826 -0.3239,2.3501 T0.0336,3.3806 0.8596,3.9412 1.9405,4.2462 3.1578,4.4121 4.4493,4.0828 5.3616,2.8526 6.0665,1.0051 L6.45,0 " stroke-linecap="round" fill="none" stroke="#9398b0" stroke-width="4.5" stroke-dasharray="none" stroke-dashoffset="0"/></g></g><g transform="matrix(1, 0, 0, 1, 2395.3624, 22710.6476)" opacity="1"><g transform="scale(1)"><path d="M0,0.92 Q-2.1022,1.7636 -3.0935,1.9931 T-5.0458,2.3473 -8.4221,1.0672 -12.361,-1.7314 -15.7023,-4.7875 L-17.52,-6.45 " stroke-linecap="round" fill="none" stroke="#9398b0" stroke-width="4.5" stroke-dasharray="none" stroke-dashoffset="0"/></g></g><g transform="matrix(1, 0, 0, 1, 2369.5451, 22719.868)" opacity="1"><g transform="scale(1)"><path d="M0.92,0 Q0.081,2.1022 0.2723,3.0935 T0.9894,4.624 2.2209,5.2469 3.7682,5.4303 L4.61,5.53 " stroke-linecap="round" fill="none" stroke="#9398b0" stroke-width="4.5" stroke-dasharray="none" stroke-dashoffset="0"/></g></g><g transform="matrix(1, 0, 0, 1, 2374.1553, 22720.7901)" opacity="1"><g transform="scale(1)"><path d="M0,0 Q0.839,3.3653 0.8575,4.9099 T0.6762,7.9264 0.2383,11.1541 L0,12.91 " stroke-linecap="round" fill="none" stroke="#9398b0" stroke-width="4.5" stroke-dasharray="none" stroke-dashoffset="0"/></g></g><g transform="matrix(1, 0, 0, 1, 2380.6096, 22723.5562)" opacity="1"><g transform="scale(1)"><path d="M0,0 Q-0.4195,2.1022 -0.1141,3.3055 T0.3574,5.583 0.614,7.661 0.5438,9.423 -0.1237,10.5935 -1.3281,11.0183 -2.8578,11.0453 L-3.69,11.06 " stroke-linecap="round" fill="none" stroke="#9398b0" stroke-width="4.5" stroke-dasharray="none" stroke-dashoffset="0"/></g></g><g transform="matrix(1, 0, 0, 1, 2378.7656, 22723.5562)" opacity="1"><g transform="scale(1)"><path d="M0,0 L6.45,0 " stroke-linecap="round" fill="none" stroke="#9398b0" stroke-width="4.5" stroke-dasharray="none" stroke-dashoffset="0"/></g></g><g transform="matrix(1, 0, 0, 1, 2389.8301, 22721.7121)" opacity="1"><g transform="scale(1)"><path d="M0,0 Q-0.4195,0 -0.7434,1.2608 T-1.0337,3.2076 -0.5623,4.2666 0.3234,4.633 1.227,4.4127 2.1404,3.8734 2.847,2.9485 3.2314,1.604 3.5284,-0.0307 L3.69,-0.92 " stroke-linecap="round" fill="none" stroke="#9398b0" stroke-width="4.5" stroke-dasharray="none" stroke-dashoffset="0"/></g></g><g transform="matrix(1, 0, 0, 1, 2397.2065, 22785.3333)" opacity="1"><g transform="scale(1)"><path d="M0,0 Q-4.6238,0.839 -6.3033,0.8575 T-9.9864,0.898 L-11.99,0.92 " stroke-linecap="round" fill="none" stroke="#9398b0" stroke-width="4.5" stroke-dasharray="none" stroke-dashoffset="0"/></g></g><g transform="matrix(1, 0, 0, 1, 2384.2978, 22784.4112)" opacity="1"><g transform="scale(1)"><path d="M 0 0 m -0.5, 0 a 0.5,0.5 0 1,0 1,0 a 0.5,0.5 0 1,0 -1,0" stroke-linecap="round" fill="#9398b0" stroke="#9398b0" stroke-width="4.5" stroke-dasharray="none" stroke-dashoffset="0"/></g></g><g transform="matrix(1, 0, 0, 1, 2384.2978, 22786.2553)" opacity="1"><g transform="scale(1)"><path d="M0,0 Q0,5.0434 0,8.0517 L0,11.06 " stroke-linecap="round" fill="none" stroke="#9398b0" stroke-width="4.5" stroke-dasharray="none" stroke-dashoffset="0"/></g></g><g transform="matrix(1, 0, 0, 1, 2429.4781, 22728.1664)" opacity="1"><g transform="scale(1)"><path d="M0,0 Q-3.7848,4.6238 -5.2338,6.0913 T-7.8928,8.5691 -10.5464,10.7847 L-11.99,11.99 " stroke-linecap="round" fill="none" stroke="#9398b0" stroke-width="4.5" stroke-dasharray="none" stroke-dashoffset="0"/></g></g><g transform="matrix(1, 0, 0, 1, 2415.6474, 22729.0885)" opacity="1"><g transform="scale(1)"><path d="M0,0 Q3.3653,4.6238 4.4904,6.3033 T6.6471,9.316 8.6617,12.0059 10.3891,14.5203 12.0218,17.059 L12.91,18.44 " stroke-linecap="round" fill="none" stroke="#9398b0" stroke-width="4.5" stroke-dasharray="none" stroke-dashoffset="0"/></g></g><g transform="matrix(1, 0, 0, 1, 2349.2601, 22817.6049)" opacity="1"><g transform="scale(1)"><path d="M0,0 Q-5.0434,6.3065 -8.0517,10.0682 L-11.06,13.83 " stroke-linecap="round" fill="none" stroke="#9398b0" stroke-width="4.5" stroke-dasharray="none" stroke-dashoffset="0"/></g></g><g transform="matrix(1, 0, 0, 1, 2340.0396, 22814.8387)" opacity="1"><g transform="scale(1)"><path d="M0,0 Q3.7848,5.887 5.024,7.698 T7.1471,10.9137 9.0855,13.9942 L10.14,15.67 " stroke-linecap="round" fill="none" stroke="#9398b0" stroke-width="4.5" stroke-dasharray="none" stroke-dashoffset="0"/></g></g><g transform="matrix(1, 0, 0, 1, 2545.6558, 22711.5696)" opacity="1"><g transform="scale(1)"><path d="M0,0 Q0,12.1934 -0.4195,15.5101 T-1.3395,22.7833 L-1.84,26.74 " stroke-linecap="round" fill="none" stroke="#9398b0" stroke-width="4.5" stroke-dasharray="none" stroke-dashoffset="0"/></g></g><g transform="matrix(1, 0, 0, 1, 2545.6558, 22708.8035)" opacity="1"><g transform="scale(1)"><path d="M0,0 Q5.0434,-0.4195 6.837,-0.5336 T10.0258,-0.7098 12.6018,-0.5959 14.8445,-0.1144 16.6938,0.567 18.1216,3.0399 18.8984,6.6994 18.6894,9.3216 17.9464,11.1677 17.1204,12.3817 16.0395,13.2519 14.6124,13.935 12.9948,14.3067 11.0637,14.5088 8.9622,14.6188 7.1873,14.6786 5.5925,14.5014 3.7645,14.0666 L2.77,13.83 " stroke-linecap="round" fill="none" stroke="#9398b0" stroke-width="4.5" stroke-dasharray="none" stroke-dashoffset="0"/></g></g><g transform="matrix(1, 0, 0, 1, 2565.0188, 22731.8546)" opacity="1"><g transform="scale(1)"><path d="M0,0 Q0.839,2.5217 1.0673,3.8391 T1.6317,6.0831 4.0409,7.5135 7.4536,7.8721 9.732,7.2259 11.3909,6.0331 12.5031,4.5428 12.8984,3.1006 12.9037,2.316 12.9066,2.7305 12.9081,3.7973 12.909,5.0092 13.1192,6.5098 13.6531,7.9554 14.363,9.3734 15.1711,10.9861 16.0324,12.9145 16.9205,15.2244 17.6134,17.532 18.2001,19.8385 18.729,22.354 19.0167,24.7735 18.9635,26.7213 18.3053,28.4125 17.1059,29.9617 15.8218,31.0143 14.494,31.5869 12.7206,31.6886 10.7048,31.5342 8.5571,31.0307 6.3377,30.1252 4.289,28.7913 2.543,27.0146 1.1736,24.997 0.2189,22.6386 -0.5187,19.9193 L-0.92,18.44 " stroke-linecap="round" fill="none" stroke="#9398b0" stroke-width="4.5" stroke-dasharray="none" stroke-dashoffset="0"/></g></g><g transform="matrix(1, 0, 0, 1, 2596.3683, 22709.7255)" opacity="1"><g transform="scale(1)"><path d="M0,0 Q0.4195,2.5217 0.3239,3.6294 T-0.0336,5.9689 -0.4378,8.7123 -0.8674,11.6775 -1.3109,14.5514 -0.9229,19.0583 0.2707,25.8276 L0.92,29.51 " stroke-linecap="round" fill="none" stroke="#9398b0" stroke-width="4.5" stroke-dasharray="none" stroke-dashoffset="0"/></g></g><g transform="matrix(1, 0, 0, 1, 2601.9006, 22724.4782)" opacity="1"><g transform="scale(1)"><path d="M0,0 Q-2.9412,0 -4.163,0 T-6.469,0.2098 -8.5648,0.5336 -10.5462,0.5001 -12.673,0.1762 L-13.83,0 " stroke-linecap="round" fill="none" stroke="#9398b0" stroke-width="4.5" stroke-dasharray="none" stroke-dashoffset="0"/></g></g><g transform="matrix(1, 0, 0, 1, 2612.0431, 22725.4003)" opacity="1"><g transform="scale(1)"><path d="M 0 0 m -0.5, 0 a 0.5,0.5 0 1,0 1,0 a 0.5,0.5 0 1,0 -1,0" stroke-linecap="round" fill="#9398b0" stroke="#9398b0" stroke-width="4.5" stroke-dasharray="none" stroke-dashoffset="0"/></g></g><g transform="matrix(1, 0, 0, 1, 2609.277, 22735.5428)" opacity="1"><g transform="scale(1)"><path d="M 0 0 m -0.5, 0 a 0.5,0.5 0 1,0 1,0 a 0.5,0.5 0 1,0 -1,0" stroke-linecap="round" fill="#9398b0" stroke="#9398b0" stroke-width="4.5" stroke-dasharray="none" stroke-dashoffset="0"/></g></g><g transform="matrix(1, 0, 0, 1, 2662.7556, 22710.6476)" opacity="1"><g transform="scale(1)"><path d="M0,0 Q0,10.5108 0,14.0013 T0,20.2319 0,26.241 L0,29.51 " stroke-linecap="round" fill="none" stroke="#9398b0" stroke-width="4.5" stroke-dasharray="none" stroke-dashoffset="0"/></g></g><g transform="matrix(1, 0, 0, 1, 2659.9895, 22709.7255)" opacity="1"><g transform="scale(1)"><path d="M0,0 Q-3.3653,3.7848 -4.7002,5.2338 T-7.6275,8.4114 L-9.22,10.14 " stroke-linecap="round" fill="none" stroke="#9398b0" stroke-width="4.5" stroke-dasharray="none" stroke-dashoffset="0"/></g></g><g transform="matrix(1, 0, 0, 1, 2679.3524, 22696.8169)" opacity="1"><g transform="scale(1)"><path d="M0,0 Q2.5217,-0.4195 3.2076,-0.3239 T3.8471,1.2944 3.5657,3.6454 2.9908,5.1363 2.0465,6.3692 0.9035,7.4594 -0.1377,8.2622 -0.4945,8.699 -0.0592,8.9366 0.5971,9.2756 1.7954,9.6698 3.7104,9.8842 5.8033,10.0008 8.0162,10.091 L9.22,10.14 " stroke-linecap="round" fill="none" stroke="#9398b0" stroke-width="4.5" stroke-dasharray="none" stroke-dashoffset="0"/></g></g><g transform="matrix(1, 0, 0, 1, 2695.9492, 22720.7901)" opacity="1"><g transform="scale(1)"><path d="M0,0 Q4.2043,0.4195 5.5577,0.5336 T8.2788,0.7098 11.2783,0.8459 L12.91,0.92 " stroke-linecap="round" fill="none" stroke="#9398b0" stroke-width="4.5" stroke-dasharray="none" stroke-dashoffset="0"/></g></g><g transform="matrix(1, 0, 0, 1, 2695.0272, 22730.9326)" opacity="1"><g transform="scale(1)"><path d="M0,0 Q2.9412,0.839 4.163,1.0673 T6.8424,1.5677 L8.3,1.84 " stroke-linecap="round" fill="none" stroke="#9398b0" stroke-width="4.5" stroke-dasharray="none" stroke-dashoffset="0"/></g></g><g transform="matrix(1, 0, 0, 1, 2739.2854, 22722.6342)" opacity="1"><g transform="scale(1)"><path d="M0,0 Q-3.7848,3.7848 -5.4435,5.4435 T-8.4264,8.4264 -10.6807,10.6807 -12.7483,12.3265 -15.2429,13.8961 L-16.6,14.75 " stroke-linecap="round" fill="none" stroke="#9398b0" stroke-width="4.5" stroke-dasharray="none" stroke-dashoffset="0"/></g></g><g transform="matrix(1, 0, 0, 1, 2724.5327, 22723.5562)" opacity="1"><g transform="scale(1)"><path d="M0,0 Q2.9412,5.0434 3.9532,6.837 T5.7256,9.816 7.319,11.8562 9.0272,13.3855 10.9461,14.8651 L11.99,15.67 " stroke-linecap="round" fill="none" stroke="#9398b0" stroke-width="4.5" stroke-dasharray="none" stroke-dashoffset="0"/></g></g><g transform="matrix(1, 0, 0, 1, 2739.2854, 22703.2712)" opacity="1"><g transform="scale(1)"><path d="M0,0 Q4.2043,0 5.3479,0.4195 T5.8527,2.1183 4.6568,4.5154 3.7964,6.4509 3.5381,7.7136 4.0269,8.6103 4.9221,9.3078 6.0406,9.6873 7.7002,9.8937 9.6541,10.006 11.5583,10.2769 13.6255,10.7841 L14.75,11.06 " stroke-linecap="round" fill="none" stroke="#9398b0" stroke-width="4.5" stroke-dasharray="none" stroke-dashoffset="0"/></g></g><g transform="matrix(1, 0, 0, 1, 2761.4145, 22724.4782)" opacity="1"><g transform="scale(1)"><path d="M0,0 Q0.4195,2.9412 0.3239,4.163 T0.1762,6.6788 0.0958,9.0984 0.0338,11.5671 L0,12.91 " stroke-linecap="round" fill="none" stroke="#9398b0" stroke-width="4.5" stroke-dasharray="none" stroke-dashoffset="0"/></g></g><g transform="matrix(1, 0, 0, 1, 2766.9468, 22730.0105)" opacity="1"><g transform="scale(1)"><path d="M0,0 Q-4.6238,0 -6.3033,0 T-9.9864,0 L-11.99,0 " stroke-linecap="round" fill="none" stroke="#9398b0" stroke-width="4.5" stroke-dasharray="none" stroke-dashoffset="0"/></g></g><g transform="matrix(1, 0, 0, 1, 2787.2318, 22721.7121)" opacity="1"><g transform="scale(1)"><path d="M0,0 Q-2.1022,3.3653 -3.3055,4.7002 T-5.583,7.1807 -7.661,9.3715 -9.8425,11.4046 -12.0803,13.1398 -14.4052,14.7785 L-15.67,15.67 " stroke-linecap="round" fill="none" stroke="#9398b0" stroke-width="4.5" stroke-dasharray="none" stroke-dashoffset="0"/></g></g><g transform="matrix(1, 0, 0, 1, 2772.479, 22724.4782)" opacity="1"><g transform="scale(1)"><path d="M0,0 Q3.7848,5.887 5.024,7.9077 T7.7787,11.2376 11.1021,14.1083 L12.91,15.67 " stroke-linecap="round" fill="none" stroke="#9398b0" stroke-width="4.5" stroke-dasharray="none" stroke-dashoffset="0"/></g></g><g transform="matrix(1, 0, 0, 1, 2789.9979, 22703.2712)" opacity="1"><g transform="scale(1)"><path d="M0,0 Q4.6238,0 6.0913,0 T8.5691,0.4195 10.129,1.4891 9.0852,3.5438 6.4152,6.1321 4.9628,7.9597 4.8019,9.1637 5.5557,10.0284 6.8071,10.7109 8.3269,11.2941 9.995,11.6115 11.7438,11.7841 13.7462,12.0877 16.1904,12.6203 L17.52,12.91 " stroke-linecap="round" fill="none" stroke="#9398b0" stroke-width="4.5" stroke-dasharray="none" stroke-dashoffset="0"/></g></g><g transform="matrix(1, 0, 0, 1, 2819.5034, 22720.7901)" opacity="1"><g transform="scale(1)"><path d="M0,0 Q3.7848,0.839 6.0424,1.3395 L8.3,1.84 " stroke-linecap="round" fill="none" stroke="#9398b0" stroke-width="4.5" stroke-dasharray="none" stroke-dashoffset="0"/></g></g><g transform="matrix(1, 0, 0, 1, 2817.6593, 22730.0105)" opacity="1"><g transform="scale(1)"><path d="M0,0 Q3.3653,0.839 4.7002,1.0673 T7.6275,1.5677 L9.22,1.84 " stroke-linecap="round" fill="none" stroke="#9398b0" stroke-width="4.5" stroke-dasharray="none" stroke-dashoffset="0"/></g></g><g transform="matrix(1, 0, 0, 1, 2840.7104, 22716.1798)" opacity="1"><g transform="scale(1)"><path d="M0,0 Q5.4674,-0.4195 7.1643,-0.3239 T9.9941,0.0336 11.953,0.8596 13.4382,2.1503 12.7755,5.7936 10.3129,10.5093 8.1319,13.4964 6.3162,15.5409 4.9089,17.0727 4.3531,18.1157 5.1018,18.6831 6.5602,18.9918 8.1926,19.3717 9.9219,19.7905 11.704,20.0182 13.3027,20.1422 14.804,20.2096 16.462,20.6658 18.339,21.6141 L19.36,22.13 " stroke-linecap="round" fill="none" stroke="#9398b0" stroke-width="4.5" stroke-dasharray="none" stroke-dashoffset="0"/></g></g><g transform="matrix(1, 0, 0, 1, 2880.3584, 22723.5562)" opacity="1"><g transform="scale(1)"><path d="M0,0 Q-2.5217,2.9412 -3.6294,4.3728 T-5.7592,7.0026 -7.9689,9.2746 -10.0123,11.1421 -11.7532,12.5775 -13.6941,13.9846 L-14.75,14.75 " stroke-linecap="round" fill="none" stroke="#9398b0" stroke-width="4.5" stroke-dasharray="none" stroke-dashoffset="0"/></g></g><g transform="matrix(1, 0, 0, 1, 2868.3718, 22724.4782)" opacity="1"><g transform="scale(1)"><path d="M0,0 Q4.6238,4.6238 6.5131,6.7228 T10.6562,11.3259 L12.91,13.83 " stroke-linecap="round" fill="none" stroke="#9398b0" stroke-width="4.5" stroke-dasharray="none" stroke-dashoffset="0"/></g></g><g transform="matrix(1, 0, 0, 1, 2883.1245, 22706.0373)" opacity="1"><g transform="scale(1)"><path d="M0,0 Q3.7848,1.2631 5.024,1.8164 T6.9374,2.8805 6.7174,4.5105 5.5467,6.4483 5.3293,7.9219 5.6306,8.9334 6.426,9.6934 7.7001,10.5286 9.0224,11.195 10.3734,11.7673 11.9496,12.2884 13.7633,12.691 L14.75,12.91 " stroke-linecap="round" fill="none" stroke="#9398b0" stroke-width="4.5" stroke-dasharray="none" stroke-dashoffset="0"/></g></g><g transform="matrix(1, 0, 0, 1, 2655.3792, 22808.3844)" opacity="1"><g transform="scale(1)"><path d="M0,0 Q0.4195,7.1455 0.6698,11.4078 L0.92,15.67 " stroke-linecap="round" fill="none" stroke="#9398b0" stroke-width="4.5" stroke-dasharray="none" stroke-dashoffset="0"/></g></g><g transform="matrix(1, 0, 0, 1, 2666.4438, 22830.5135)" opacity="1"><g transform="scale(1)"><path d="M0,0 Q-1.6826,0.839 -2.7696,1.0673 T-5.0794,1.4196 -7.5991,1.8234 -12.123,2.4648 -19.2001,3.2583 L-23.05,3.69 " stroke-linecap="round" fill="none" stroke="#9398b0" stroke-width="4.5" stroke-dasharray="none" stroke-dashoffset="0"/></g></g><g transform="matrix(1, 0, 0, 1, 2649.847, 22847.1103)" opacity="1"><g transform="scale(1)"><path d="M0,0 Q2.1022,0.4195 2.8837,0.7434 T4.3002,1.6652 3.8099,4.4809 1.8628,8.1148 0.3841,10.3014 -0.4203,11.4909 -0.4384,12.3478 0.181,13.0237 1.3593,13.3914 2.8416,13.5914 4.4893,13.7002 6.4368,13.7594 8.5472,13.7916 10.5367,13.8091 12.67,14.0284 15.2153,14.4958 L16.6,14.75 " stroke-linecap="round" fill="none" stroke="#9398b0" stroke-width="4.5" stroke-dasharray="none" stroke-dashoffset="0"/></g></g><g transform="matrix(1, 0, 0, 1, 2694.1051, 22826.8253)" opacity="1"><g transform="scale(1)"><path d="M0,0 Q4.6238,-0.839 7.3819,-1.3395 L10.14,-1.84 " stroke-linecap="round" fill="none" stroke="#9398b0" stroke-width="4.5" stroke-dasharray="none" stroke-dashoffset="0"/></g></g><g transform="matrix(1, 0, 0, 1, 2694.1051, 22835.1237)" opacity="1"><g transform="scale(1)"><path d="M0,0 Q2.9412,0.4195 4.163,0.5336 T6.469,0.5001 8.8466,0.1762 L10.14,0 " stroke-linecap="round" fill="none" stroke="#9398b0" stroke-width="4.5" stroke-dasharray="none" stroke-dashoffset="0"/></g></g><g transform="matrix(1, 0, 0, 1, 2735.5972, 22824.0592)" opacity="1"><g transform="scale(1)"><path d="M0,0 Q-2.5217,3.3653 -3.6294,4.9099 T-5.7592,7.9264 -7.7568,10.6184 -9.8946,12.9242 -12.4434,15.3049 L-13.83,16.6 " stroke-linecap="round" fill="none" stroke="#9398b0" stroke-width="4.5" stroke-dasharray="none" stroke-dashoffset="0"/></g></g><g transform="matrix(1, 0, 0, 1, 2721.7665, 22828.6694)" opacity="1"><g transform="scale(1)"><path d="M0,0 Q3.7848,3.7848 5.8653,5.8653 T10.4279,10.4279 L12.91,12.91 " stroke-linecap="round" fill="none" stroke="#9398b0" stroke-width="4.5" stroke-dasharray="none" stroke-dashoffset="0"/></g></g><g transform="matrix(1, 0, 0, 1, 2737.4413, 22806.5403)" opacity="1"><g transform="scale(1)"><path d="M0,0 Q3.3653,0 4.4904,0.4195 T6.2276,1.2793 6.1215,3.2199 4.5909,5.7462 3.5486,7.54 3.6131,8.7256 4.2774,9.5803 5.2704,10.2551 6.6519,10.6221 8.2425,10.8218 9.9491,11.1425 11.7188,11.5289 13.682,11.8276 L14.75,11.99 " stroke-linecap="round" fill="none" stroke="#9398b0" stroke-width="4.5" stroke-dasharray="none" stroke-dashoffset="0"/></g></g><g transform="matrix(1, 0, 0, 1, 2623.1076, 22837.8899)" opacity="1"><g transform="scale(1)"><path d="M0,0 Q0.839,4.2043 1.0673,6.399 T1.6317,10.8386 2.1507,14.9364 2.4331,18.4264 2.5867,21.7956 2.7054,25.5938 L2.77,27.66 " stroke-linecap="round" fill="none" stroke="#9398b0" stroke-width="4.5" stroke-dasharray="none" stroke-dashoffset="0"/></g></g><g transform="matrix(1, 0, 0, 1, 2625.8738, 22863.7071)" opacity="1"><g transform="scale(1)"><path d="M0,0 Q1.2631,-4.6238 1.8164,-6.9326 T2.6708,-11.7605 3.5551,-16.9108 4.6654,-22.2342 5.6912,-27.6519 6.6711,-32.911 7.6236,-37.6643 8.7711,-44.8763 10.2535,-55.8243 L11.06,-61.78 " stroke-linecap="round" fill="none" stroke="#9398b0" stroke-width="4.5" stroke-dasharray="none" stroke-dashoffset="0"/></g></g><g transform="matrix(1, 0, 0, 1, 2637.8604, 22801.008)" opacity="1"><g transform="scale(1)"><path d="M0,0 Q2.5217,0 3.6294,-0.2098 T5.7592,-0.5336 7.7568,-0.9196 12.8381,-2.1806 19.5969,-3.9177 25.415,-5.5578 L28.58,-6.45 " stroke-linecap="round" fill="none" stroke="#9398b0" stroke-width="4.5" stroke-dasharray="none" stroke-dashoffset="0"/></g></g><g transform="matrix(1, 0, 0, 1, 2669.2099, 22795.4758)" opacity="1"><g transform="scale(1)"><path d="M0,0 Q0.839,2.5217 1.0673,3.8391 T1.4196,6.5026 1.6113,9.0026 1.7156,11.4136 1.7723,13.7763 1.8032,15.903 1.827,18.142 L1.84,19.36 " stroke-linecap="round" fill="none" stroke="#9398b0" stroke-width="4.5" stroke-dasharray="none" stroke-dashoffset="0"/></g></g><g transform="matrix(1, 0, 0, 1, 2715.3122, 22823.1371)" opacity="1"><g transform="scale(1)"><path d="M0,0 Q-0.839,6.3065 -0.8575,9.0729 T-0.886,13.9759 -0.908,18.6612 L-0.92,21.21 " stroke-linecap="round" fill="none" stroke="#9398b0" stroke-width="4.5" stroke-dasharray="none" stroke-dashoffset="0"/></g></g><g transform="matrix(1, 0, 0, 1, 2714.3902, 22844.3442)" opacity="1"><g transform="scale(1)"><path d="M0,0 Q0.839,-4.6238 1.2793,-6.9326 T1.9591,-11.5484 2.5386,-15.9518 3.0636,-20.2397 3.7688,-27.1984 4.9937,-34.7687 6.0819,-39.3065 7.0933,-41.9848 8.4826,-43.4418 9.8699,-44.2344 11.2562,-44.8754 12.8494,-45.4338 14.5574,-45.9473 16.5399,-46.4365 18.8792,-46.9146 21.4127,-47.3867 23.8419,-47.6436 26.2145,-47.7833 28.5563,-47.8593 30.8813,-47.9007 33.1972,-47.9232 35.0863,-47.9354 36.7456,-47.9421 38.4895,-47.9457 39.8577,-48.1574 40.8118,-48.4824 41.5406,-48.2373 41.7273,-47.2627 41.6191,-45.8935 41.5602,-44.3073 41.5282,-42.3933 41.5108,-40.0913 41.5013,-37.5759 41.494,-34.7353 L41.49,-33.19 " stroke-linecap="round" fill="none" stroke="#9398b0" stroke-width="4.5" stroke-dasharray="none" stroke-dashoffset="0"/></g></g><g transform="matrix(1, 0, 0, 1, 2643.3926, 22895.9787)" opacity="1"><g transform="scale(1)"><path d="M0,0 Q0.4195,7.1455 0.5336,9.7207 T0.7839,15.3679 L0.92,18.44 " stroke-linecap="round" fill="none" stroke="#9398b0" stroke-width="4.5" stroke-dasharray="none" stroke-dashoffset="0"/></g></g><g transform="matrix(1, 0, 0, 1, 2654.4572, 22922.7181)" opacity="1"><g transform="scale(1)"><path d="M0,0 Q-6.3065,0 -8.8632,0 T-13.4422,0 -17.1941,0 -20.4959,0 -23.9442,0 L-25.82,0 " stroke-linecap="round" fill="none" stroke="#9398b0" stroke-width="4.5" stroke-dasharray="none" stroke-dashoffset="0"/></g></g><g transform="matrix(1, 0, 0, 1, 2624.9517, 22943.9251)" opacity="1"><g transform="scale(1)"><path d="M0,0 Q0.4195,7.5696 0.9554,6.6851 T1.9926,4.6877 2.7666,2.5501 3.3974,0.3362 3.9504,-1.9193 4.2512,-3.9876 4.6246,-5.954 5.2472,-7.6531 5.7957,-8.5774 6.5158,-8.8704 7.5392,-9.0298 8.7252,-9.1165 10.0019,-9.1637 11.328,-8.9796 12.8884,-8.6697 14.5786,-8.5011 16.3394,-8.4094 18.1386,-8.3595 19.9587,-8.3324 21.7901,-8.3176 23.8375,-8.3096 26.0024,-8.515 28.0214,-8.8365 29.9587,-9.2211 32.2735,-10.0619 35.257,-11.3107 L36.88,-11.99 " stroke-linecap="round" fill="none" stroke="#9398b0" stroke-width="4.5" stroke-dasharray="none" stroke-dashoffset="0"/></g></g><g transform="matrix(1, 0, 0, 1, 2641.5485, 22944.8471)" opacity="1"><g transform="scale(1)"><path d="M0,0 Q2.5217,2.5217 2.9978,3.6294 T3.5232,5.5494 3.1775,7.2232 1.3067,9.3946 -0.762,11.4171 -1.2559,12.5174 -0.6832,13.1159 0.4697,13.4416 1.9381,13.6187 3.576,13.715 5.3084,13.7675 7.0921,14.0057 9.0661,14.4878 L10.14,14.75 " stroke-linecap="round" fill="none" stroke="#9398b0" stroke-width="4.5" stroke-dasharray="none" stroke-dashoffset="0"/></g></g><g transform="matrix(1, 0, 0, 1, 2682.1186, 22920.874)" opacity="1"><g transform="scale(1)"><path d="M0,0 Q2.5217,-0.4195 3.6294,-0.5336 T5.9689,-0.9196 8.6704,-1.5157 L10.14,-1.84 " stroke-linecap="round" fill="none" stroke="#9398b0" stroke-width="4.5" stroke-dasharray="none" stroke-dashoffset="0"/></g></g><g transform="matrix(1, 0, 0, 1, 2681.1965, 22930.0944)" opacity="1"><g transform="scale(1)"><path d="M0,0 Q2.9412,0.839 3.9532,0.8575 T5.9354,0.886 8.2745,0.6917 11.2768,0.2437 L12.91,0 " stroke-linecap="round" fill="none" stroke="#9398b0" stroke-width="4.5" stroke-dasharray="none" stroke-dashoffset="0"/></g></g><g transform="matrix(1, 0, 0, 1, 2733.7531, 22917.1858)" opacity="1"><g transform="scale(1)"><path d="M0,0 Q-4.6238,6.3065 -6.7228,8.8632 T-10.3832,13.0204 -13.2158,15.4918 -16.0035,17.4012 L-17.52,18.44 " stroke-linecap="round" fill="none" stroke="#9398b0" stroke-width="4.5" stroke-dasharray="none" stroke-dashoffset="0"/></g></g><g transform="matrix(1, 0, 0, 1, 2719.9224, 22920.874)" opacity="1"><g transform="scale(1)"><path d="M0,0 Q5.4674,6.726 7.1643,8.7652 T9.9941,12.1258 12.1628,14.3758 14.4343,16.4122 L15.67,17.52 " stroke-linecap="round" fill="none" stroke="#9398b0" stroke-width="4.5" stroke-dasharray="none" stroke-dashoffset="0"/></g></g><g transform="matrix(1, 0, 0, 1, 2615.7313, 23015.8447)" opacity="1"><g transform="scale(1)"><path d="M0,0 Q-4.2043,4.6238 -5.7674,6.5131 T-8.8124,10.0594 -11.5199,13.2494 -13.8342,16.0381 -15.9344,18.3965 -18.1531,20.8146 L-19.36,22.13 " stroke-linecap="round" fill="none" stroke="#9398b0" stroke-width="4.5" stroke-dasharray="none" stroke-dashoffset="0"/></g></g><g transform="matrix(1, 0, 0, 1, 2600.0565, 23017.6888)" opacity="1"><g transform="scale(1)"><path d="M0,0 Q3.7848,5.887 5.2338,7.698 T7.6808,10.7039 9.8533,12.9707 12.4289,15.3213 L13.83,16.6 " stroke-linecap="round" fill="none" stroke="#9398b0" stroke-width="4.5" stroke-dasharray="none" stroke-dashoffset="0"/></g></g><g transform="matrix(1, 0, 0, 1, 2631.406, 23017.6888)" opacity="1"><g transform="scale(1)"><path d="M0,0 L8.3,-0.92 " stroke-linecap="round" fill="none" stroke="#9398b0" stroke-width="4.5" stroke-dasharray="none" stroke-dashoffset="0"/></g></g><g transform="matrix(1, 0, 0, 1, 2627.7179, 23023.221)" opacity="1"><g transform="scale(1)"><path d="M0,0 Q2.5217,0.839 3.6294,1.0673 T5.9689,1.4196 8.7123,1.4016 12.0269,1.0897 L13.83,0.92 " stroke-linecap="round" fill="none" stroke="#9398b0" stroke-width="4.5" stroke-dasharray="none" stroke-dashoffset="0"/></g></g><g transform="matrix(1, 0, 0, 1, 2667.3658, 22989.1053)" opacity="1"><g transform="scale(1)"><path d="M0,0 Q-0.4195,11.7739 -0.5336,15.3959 T-0.7098,21.4102 -0.8459,26.6562 L-0.92,29.51 " stroke-linecap="round" fill="none" stroke="#9398b0" stroke-width="4.5" stroke-dasharray="none" stroke-dashoffset="0"/></g></g><g transform="matrix(1, 0, 0, 1, 2680.2745, 23020.4549)" opacity="1"><g transform="scale(1)"><path d="M0,0 Q-2.9412,0.839 -4.5825,1.0673 T-7.9581,1.6317 -11.477,2.1507 -15.0739,2.6429 -19.5523,3.7497 -25.3993,5.4986 L-28.58,6.45 " stroke-linecap="round" fill="none" stroke="#9398b0" stroke-width="4.5" stroke-dasharray="none" stroke-dashoffset="0"/></g></g><g transform="matrix(1, 0, 0, 1, 2648.9249, 23045.3501)" opacity="1"><g transform="scale(1)"><path d="M0,0 Q0,7.1455 0,9.5109 T0,13.7946 0,17.3858 0,20.3905 0.2098,21.1837 0.7434,19.9326 1.2434,18.4106 1.7275,16.7414 2.4126,14.7822 3.2049,12.4556 4.2651,9.9291 5.6832,6.872 7.0862,3.3166 8.269,-0.0882 9.3319,-3.2012 10.332,-5.736 11.2978,-7.115 12.4525,-7.4456 13.9219,-7.4157 15.5627,-7.3994 17.2965,-7.3906 19.2908,-7.3857 21.6366,-7.3831 23.9637,-7.3817 26.2808,-7.5907 28.8021,-7.9141 31.2248,-8.2998 33.6958,-8.8958 L35.04,-9.22 " stroke-linecap="round" fill="none" stroke="#9398b0" stroke-width="4.5" stroke-dasharray="none" stroke-dashoffset="0"/></g></g><g transform="matrix(1, 0, 0, 1, 2663.6776, 23049.0383)" opacity="1"><g transform="scale(1)"><path d="M0,0 Q3.7848,2.1022 4.6045,3.0935 T5.6581,5.0458 5.5997,6.9493 3.4657,9.6651 0.8343,12.4033 0.0343,13.8929 0.2284,14.7033 0.9656,15.1441 2.2079,15.3839 3.513,15.5144 4.8546,15.5853 6.4257,15.6239 8.1194,15.6449 10.0239,15.6612 L11.06,15.67 " stroke-linecap="round" fill="none" stroke="#9398b0" stroke-width="4.5" stroke-dasharray="none" stroke-dashoffset="0"/></g></g><g transform="matrix(1, 0, 0, 1, 2683.9626, 23037.0517)" opacity="1"><g transform="scale(1)"><path d="M0,0 Q0.839,2.1022 0.8575,3.0935 T0.886,5.0458 0.9015,7.159 0.9135,9.6856 L0.92,11.06 " stroke-linecap="round" fill="none" stroke="#9398b0" stroke-width="4.5" stroke-dasharray="none" stroke-dashoffset="0"/></g></g><g transform="matrix(1, 0, 0, 1, 2694.1051, 23056.4147)" opacity="1"><g transform="scale(1)"><path d="M 0 0 m -0.5, 0 a 0.5,0.5 0 1,0 1,0 a 0.5,0.5 0 1,0 -1,0" stroke-linecap="round" fill="#9398b0" stroke="#9398b0" stroke-width="4.5" stroke-dasharray="none" stroke-dashoffset="0"/></g></g><g transform="matrix(1, 0, 0, 1, 2698.7154, 23056.4147)" opacity="1"><g transform="scale(1)"><path d="M0,0 Q0,6.3065 0,10.0682 L0,13.83 " stroke-linecap="round" fill="none" stroke="#9398b0" stroke-width="4.5" stroke-dasharray="none" stroke-dashoffset="0"/></g></g><g transform="matrix(1, 0, 0, 1, 2699.6374, 23068.4013)" opacity="1"><g transform="scale(1)"><path d="M0,0 Q3.3653,-7.9891 4.4904,-11.0035 T6.6471,-16.499 8.4496,-20.9591 10.0618,-24.4365 11.3606,-27.1695 12.2769,-29.7074 13.2828,-32.5653 L13.83,-34.12 " stroke-linecap="round" fill="none" stroke="#9398b0" stroke-width="4.5" stroke-dasharray="none" stroke-dashoffset="0"/></g></g><g transform="matrix(1, 0, 0, 1, 2712.5461, 23036.1297)" opacity="1"><g transform="scale(1)"><path d="M0,0 Q8.8282,0 11.6512,0 T16.4295,-0.2098 20.7174,-0.6698 L23.05,-0.92 " stroke-linecap="round" fill="none" stroke="#9398b0" stroke-width="4.5" stroke-dasharray="none" stroke-dashoffset="0"/></g></g><g transform="matrix(1, 0, 0, 1, 2733.7531, 23036.1297)" opacity="1"><g transform="scale(1)"><path d="M0,0 Q0.4195,5.0434 0.6698,8.0517 L0.92,11.06 " stroke-linecap="round" fill="none" stroke="#9398b0" stroke-width="4.5" stroke-dasharray="none" stroke-dashoffset="0"/></g></g><g transform="matrix(1, 0, 0, 1, 2720.8445, 23052.7265)" opacity="1"><g transform="scale(1)"><path d="M0,0 Q2.1022,2.9412 2.2544,4.163 T2.0677,6.469 1.3346,8.5648 0.5163,10.3364 -0.5605,11.9295 -1.9875,13.6374 -3.3931,15.1981 -4.5773,16.4667 -5.0117,17.3665 -4.409,17.856 -0.9279,18.3321 5.6446,18.9978 L9.22,19.36 " stroke-linecap="round" fill="none" stroke="#9398b0" stroke-width="4.5" stroke-dasharray="none" stroke-dashoffset="0"/></g></g><g transform="matrix(1, 0, 0, 1, 2664.5997, 23023.221)" opacity="1"><g transform="scale(1)"><path d="M0,0 Q2.5217,0 3.8391,-0.2098 T6.5026,-0.5336 9.4221,-0.9196 16.268,-1.9708 24.828,-3.1743 30.114,-3.829 33.6211,-3.9754 36.3703,-3.8452 38.7049,-3.7744 40.6064,-3.7359 42.2725,-3.715 44.0178,-3.7036 45.5989,-3.6974 47.0905,-3.694 48.5312,-3.9019 49.9465,-4.2248 51.5578,-4.4005 53.2734,-4.496 55.048,-4.548 57.0667,-4.5763 59.216,-4.8014 61.4362,-5.1336 63.4854,-5.3144 65.2294,-5.6225 67.2292,-5.9998 69.3682,-6.2051 71.1611,-6.3168 72.9778,-6.5896 75.2784,-7.1015 L76.53,-7.38 " stroke-linecap="round" fill="none" stroke="#9398b0" stroke-width="4.5" stroke-dasharray="none" stroke-dashoffset="0"/></g></g><g transform="matrix(1, 0, 0, 1, 2686.7288, 23001.0919)" opacity="1"><g transform="scale(1)"><path d="M 0 0 m -0.5, 0 a 0.5,0.5 0 1,0 1,0 a 0.5,0.5 0 1,0 -1,0" stroke-linecap="round" fill="#9398b0" stroke="#9398b0" stroke-width="4.5" stroke-dasharray="none" stroke-dashoffset="0"/></g></g><g transform="matrix(1, 0, 0, 1, 2697.7933, 22994.6376)" opacity="1"><g transform="scale(1)"><path d="M0,0 Q0.839,6.3065 1.0673,8.4414 T1.8414,10.267 2.8941,9.3701 3.6766,7.831 4.312,5.9427 5.0772,3.8644 5.9152,1.4707 6.7929,-1.0924 7.4801,-3.9572 8.2735,-6.5668 9.1246,-7.9864 9.7974,-8.5489 10.5852,-8.6452 11.8551,-8.4878 13.597,-8.1924 15.3859,-7.8219 17.2003,-7.6204 19.2385,-7.5108 21.3983,-7.6609 23.6244,-7.9523 25.8864,-8.3206 27.9583,-8.7307 29.9244,-9.1636 31.8353,-9.8186 33.7162,-10.3847 35.3686,-10.4829 36.4773,-9.907 37.0805,-8.7524 37.4086,-7.283 37.5871,-5.4325 37.725,-3.1058 L37.8,-1.84 " stroke-linecap="round" fill="none" stroke="#9398b0" stroke-width="4.5" stroke-dasharray="none" stroke-dashoffset="0"/></g></g><g transform="matrix(1, 0, 0, 1, 2716.2342, 22998.3258)" opacity="1"><g transform="scale(1)"><path d="M0,0 Q3.3653,0 4.2806,0.2098 T5.6939,0.7434 6.4628,1.6652 6.669,2.7983 5.0985,4.4658 2.3541,6.2142 0.8611,7.1653 1.1,7.6827 2.4908,7.9642 4.2985,8.1173 6.3329,8.2006 8.7986,8.265 L10.14,8.3 " stroke-linecap="round" fill="none" stroke="#9398b0" stroke-width="4.5" stroke-dasharray="none" stroke-dashoffset="0"/></g></g><g transform="matrix(1, 0, 0, 1, 2761.4145, 23014.0006)" opacity="1"><g transform="scale(1)"><path d="M0,0 L9.22,-1.84 " stroke-linecap="round" fill="none" stroke="#9398b0" stroke-width="4.5" stroke-dasharray="none" stroke-dashoffset="0"/></g></g><g transform="matrix(1, 0, 0, 1, 2758.6483, 23020.4549)" opacity="1"><g transform="scale(1)"><path d="M0,0 Q5.0434,0.839 8.0517,1.3395 L11.06,1.84 " stroke-linecap="round" fill="none" stroke="#9398b0" stroke-width="4.5" stroke-dasharray="none" stroke-dashoffset="0"/></g></g><g transform="matrix(1, 0, 0, 1, 2861.9174, 23028.7533)" opacity="1"><g transform="scale(1)"><path d="M0,0 Q-11.7739,-0.4195 -16.447,-0.3239 T-25.1352,-0.1762 -32.5953,0.3237 -39.1752,1.2272 -45.2764,2.1405 -50.6976,3.2666 -55.3294,4.5085 -61.0023,5.8156 -66.1905,6.7387 -68.3836,6.8191 -68.5256,6.2313 -67.7383,5.1812 L-67.31,4.61 " stroke-linecap="round" fill="none" stroke="#9398b0" stroke-width="4.5" stroke-dasharray="none" stroke-dashoffset="0"/></g></g><g transform="matrix(1, 0, 0, 1, 2820.4254, 23044.4281)" opacity="1"><g transform="scale(1)"><path d="M0,0 Q5.4674,-0.4195 6.9546,-0.3239 T9.4605,0.0336 11.0335,0.8596 11.6794,1.9405 11.609,3.1578 9.2565,6.3417 5.6648,10.3856 3.0817,13.0073 1.0471,14.8554 0.1501,16.0704 0.5012,16.7314 1.5335,17.091 2.9364,17.2866 4.5409,17.393 6.4648,17.4509 8.7722,17.4824 11.0786,17.4996 13.5941,17.2991 16.2256,16.9803 18.858,16.734 L20.29,16.6 " stroke-linecap="round" fill="none" stroke="#9398b0" stroke-width="4.5" stroke-dasharray="none" stroke-dashoffset="0"/></g></g><g transform="matrix(1, 0, 0, 1, 2813.049, 23001.0919)" opacity="1"><g transform="scale(1)"><path d="M0,0 Q-0.4195,9.2522 -0.7434,11.5568 T-1.2434,14.9053 -1.3057,16.3074 -1.1298,16.6506 -0.8244,16.2057 -0.0289,14.7006 1.2451,12.4112 2.7795,9.6952 4.2435,6.535 5.6715,3.3453 7.0798,0.1395 8.2655,-3.0774 9.33,-6.0882 10.1189,-8.7771 10.7601,-10.8715 11.3209,-12.8521 11.626,-14.5612 11.792,-15.0691 12.092,-14.9236 12.8846,-14.6347 14.157,-14.2677 15.4808,-14.0681 16.8302,-13.9595 18.8251,-13.9005 21.1735,-13.8683 23.2923,-14.0606 25.284,-14.375 27.6283,-14.7557 29.9547,-15.3847 31.8518,-15.9389 33.7251,-16.2403 35.1637,-16.4043 35.7366,-16.0718 35.6287,-15.2593 35.1505,-13.976 34.6806,-12.2268 34.2129,-10.4362 33.7465,-8.411 33.4927,-6.0462 33.2967,-3.322 L33.19,-1.84 " stroke-linecap="round" fill="none" stroke="#9398b0" stroke-width="4.5" stroke-dasharray="none" stroke-dashoffset="0"/></g></g><g transform="matrix(1, 0, 0, 1, 2830.5679, 23000.1699)" opacity="1"><g transform="scale(1)"><path d="M0,0 Q3.7848,1.6826 4.3925,2.5598 T4.9112,4.5458 2.4619,7.7283 -0.9726,10.9302 -2.2118,12.672 -2.2543,13.6196 -1.0143,14.3448 1.3406,15.1611 4.3021,15.8173 7.5957,16.1742 11.0376,16.45 L12.91,16.6 " stroke-linecap="round" fill="none" stroke="#9398b0" stroke-width="4.5" stroke-dasharray="none" stroke-dashoffset="0"/></g></g><g transform="matrix(1, 0, 0, 1, 2277.8016, 23282.7769)" opacity="1"><g transform="scale(1)"><path d="M0,0 Q3.3653,-2.1022 4.4904,-2.8837 T6.4373,-4.0904 7.916,-4.9566 9.1399,-5.8496 10.2275,-6.5475 11.241,-7.1369 12.2118,-7.6673 13.1595,-8.1655 14.0945,-8.8561 15.025,-9.4416 15.9529,-9.9698 16.8773,-10.679 18.0117,-11.4866 19.2604,-12.3454 20.3592,-13.2321 21.5862,-14.134 22.8852,-15.0465 24.0137,-15.9646 25.0471,-16.8836 26.0288,-17.8031 27.1945,-18.7251 28.4601,-19.6484 29.5681,-20.5703 30.8002,-21.4913 32.102,-22.4118 33.4417,-23.5441 34.7998,-24.5819 36.1702,-25.3563 37.3375,-26.197 38.392,-27.0739 39.5949,-27.9727 40.6688,-28.8835 41.6748,-29.7985 42.6439,-30.7157 43.5906,-31.6342 44.7349,-32.5557 45.9889,-33.4788 47.0929,-34.4005 48.113,-35.3214 49.2973,-36.2419 50.573,-37.1644 51.6888,-38.0881 52.9251,-39.0101 54.439,-39.9312 56.1039,-40.8518 57.8509,-41.9841 59.6425,-43.2317 61.4563,-44.3299 63.2842,-45.3468 64.9102,-46.3218 66.2143,-47.274 67.3432,-48.2116 68.5889,-49.1411 69.8981,-50.0663 71.0299,-50.9914 72.065,-51.7067 73.2597,-52.3055 74.5412,-53.0509 75.6579,-53.8758 76.6848,-54.7441 77.8751,-55.6383 79.1541,-56.5465 80.2694,-57.6699 81.2957,-58.7005 82.2758,-59.4732 83.2307,-60.3153 84.1698,-61.193 85.1001,-62.0899 86.0257,-62.9974 86.9511,-63.7008 87.8763,-64.2955 88.7991,-65.0408 89.7206,-65.8658 90.6415,-66.7341 91.774,-67.626 92.8118,-68.533 93.5862,-69.2384 94.427,-69.8319 95.3039,-70.5743 96.2027,-71.3977 97.1135,-72.2652 98.0284,-73.1588 99.1578,-74.0668 100.4037,-75.19 101.501,-76.4303 102.5174,-77.3148 103.4899,-78.008 104.6504,-78.8069 105.9134,-79.661 107.2297,-80.5452 108.5773,-81.4457 109.942,-82.3574 111.3136,-83.2751 112.6914,-84.1939 114.0724,-85.1133 115.2432,-86.0329 116.5094,-86.955 117.8298,-87.8784 119.1797,-88.8002 120.5433,-89.7213 121.7046,-90.6418 122.7581,-91.5644 123.7531,-92.2783 124.7138,-92.8764 125.656,-93.6213 126.5881,-94.4461 127.5169,-95.3143 128.6538,-96.2084 129.9015,-96.9068 130.9998,-97.4965 132.019,-98.2368 132.9953,-99.0591 133.9459,-99.9282 134.8826,-100.613 135.8116,-101.1953 136.7389,-101.9316 137.6651,-102.7517 138.7982,-103.6173 140.2559,-104.51 141.6805,-105.4174 142.875,-106.3306 143.9443,-107.2469 144.9478,-108.1649 145.9155,-109.086 146.8615,-110.009 147.7956,-110.9306 148.9353,-111.8514 150.1869,-112.7719 151.2873,-113.6944 152.3054,-114.6181 153.2788,-115.5401 154.2301,-116.4612 155.1694,-117.3818 156.0999,-118.3044 157.0256,-119.228 157.9487,-120.1501 159.0825,-121.0712 160.3308,-122.2038 161.5932,-123.678 L162.28,-124.48 " stroke-linecap="round" fill="none" stroke="#ffc034" stroke-width="4.5" stroke-dasharray="none" stroke-dashoffset="0"/></g></g><g transform="matrix(1, 0, 0, 1, 2278.7236, 23281.8548)" opacity="1"><g transform="scale(1)"><path d="M0,0 Q4.6238,-0.4195 6.3033,-0.5336 T9.5257,-0.7098 12.5396,-0.8057 15.2302,-0.8578 17.5352,-0.8862 19.8402,-0.9016 24.4571,-1.1197 30.1219,-1.4482 34.6742,-1.6269 38.8333,-1.5143 42.1469,-1.2433 45.0006,-1.0959 47.6041,-1.0157 49.8617,-0.972 51.9312,-0.9483 54.108,-0.9354 56.3433,-0.9284 58.4007,-0.9246 60.5709,-0.9225 62.8026,-0.9213 64.858,-0.711 66.8174,-0.3868 68.9344,-0.2104 71.3469,-0.1145 73.7104,-0.0623 76.0472,0.1759 78.5793,0.5152 81.0078,0.6998 83.38,0.8002 85.9313,0.8548 88.3703,0.8845 90.5385,0.9007 92.5592,1.1193 94.4999,1.4479 96.3969,1.6267 98.2702,1.724 100.3403,1.7769 102.5176,2.0177 104.5433,2.3608 106.4844,2.5474 108.3816,2.6489 110.255,2.7041 112.3253,2.7342 114.5025,2.7505 116.7381,2.9692 119.0053,3.2979 121.0799,3.4767 123.2597,3.574 125.4965,3.6269 127.5547,3.6557 129.5133,3.6713 131.4202,3.6798 133.2988,3.6845 135.3719,3.687 137.3409,3.6884 139.0437,3.6891 140.6015,3.6895 142.288,3.6897 144.4663,3.4801 146.9144,3.1563 149.2973,2.9801 151.2228,2.8843 152.9019,2.6201 154.6566,2.2644 156.4503,2.0709 158.0575,1.9656 159.5635,1.9083 161.4338,1.4576 163.7759,0.5136 L165.05,0 " stroke-linecap="round" fill="none" stroke="#ffc034" stroke-width="4.5" stroke-dasharray="none" stroke-dashoffset="0"/></g></g><g transform="matrix(1, 0, 0, 1, 2443.7698, 23153.6905)" opacity="1"><g transform="scale(1)"><path d="M0,0 Q-0.839,7.5696 -1.0673,10.2578 T-1.4196,15.2497 -1.6113,19.4382 -1.7156,23.1896 -1.7723,26.701 -2.0152,30.0818 -2.3594,36.547 -2.5466,44.4782 -2.6485,49.8439 -2.7039,53.8139 -2.734,57.2344 -2.7504,60.1462 -2.7594,62.5716 -2.7642,64.9421 -2.7669,67.2827 -2.7683,69.3973 -2.7691,71.389 -2.9793,73.3138 -3.3034,75.1999 -3.4797,77.0673 -3.5756,78.9244 -3.6278,80.776 -3.8659,82.4149 -4.2052,84.1455 -4.3898,86.3477 -4.4902,88.5968 -4.5448,90.6617 -4.5745,92.6263 -4.5907,94.5363 -4.5995,96.207 -4.6043,97.9571 -4.6069,99.9603 -4.6083,101.889 -4.3993,103.7796 -4.0759,105.6494 -3.6902,107.5079 -3.2706,109.3602 -3.0423,111.2069 -2.7061,113.0528 -2.3112,114.6886 -2.0963,116.2077 -1.9794,117.8754 -1.7061,119.624 -1.3476,121.6263 -1.0707,124.0704 L-0.92,125.4 " stroke-linecap="round" fill="none" stroke="#ffc034" stroke-width="4.5" stroke-dasharray="none" stroke-dashoffset="0"/></g></g><g transform="matrix(1, 0, 0, 1, 2326.67, 23278.1666)" opacity="1"><g transform="scale(1)"><path d="M0,0 Q0,-5.0434 -0.2098,-6.837 T-0.7434,-9.816 -1.4555,-12.0659 -2.4744,-13.9214 -3.658,-15.1429 -4.9334,-15.8073 -6.4686,-16.1688 -8.2506,-16.4481 L-9.22,-16.6 " stroke-linecap="round" fill="none" stroke="#ffc034" stroke-width="4.5" stroke-dasharray="none" stroke-dashoffset="0"/></g></g><g transform="matrix(1, 0, 0, 1, 2334.0463, 23254.1934)" opacity="1"><g transform="scale(1)"><path d="M0,0.92 Q2.9412,1.3395 3.9532,1.6657 T5.9354,3.0083 7.2234,4.7897 7.5046,6.1807 7.2357,7.3568 6.6677,8.2064 5.7294,8.8784 4.5897,9.4537 3.9697,9.7666 4.2617,10.1467 5.2618,10.5631 6.4375,10.7897 7.7063,11.125 8.8161,11.7292 9.6295,12.4774 10.2818,13.3039 10.4269,13.9633 9.8766,14.5318 8.7358,15.2629 7.4837,15.8726 6.1733,16.2043 4.6191,16.3847 3.1421,16.4829 1.7093,16.3243 0.0064,15.9005 L-0.92,15.67 " stroke-linecap="round" fill="none" stroke="#ffc034" stroke-width="4.5" stroke-dasharray="none" stroke-dashoffset="0"/></g></g><g transform="matrix(1, 0, 0, 1, 2354.3313, 23257.8816)" opacity="1"><g transform="scale(1)"><path d="M0,0 Q-1.6826,1.2631 -1.9306,3.0773 T-1.8915,6.0881 -1.029,7.9358 0.2815,8.9409 1.8358,9.4877 3.5204,9.7851 5.0683,9.7372 6.3322,9.0818 7.4393,7.6742 8.0415,5.8574 7.9496,4.2375 7.4778,2.9345 6.5896,1.5964 5.3075,-0.0334 L4.61,-0.92 " stroke-linecap="round" fill="none" stroke="#ffc034" stroke-width="4.5" stroke-dasharray="none" stroke-dashoffset="0"/></g></g><g transform="matrix(1, 0, 0, 1, 2365.3959, 23244.973)" opacity="1"><g transform="scale(1)"><path d="M0,0 Q-1.2631,2.5217 -1.1849,3.4173 T-0.6446,5.0123 1.1199,5.0409 3.9762,3.5701 L5.53,2.77 " stroke-linecap="round" fill="none" stroke="#ffc034" stroke-width="4.5" stroke-dasharray="none" stroke-dashoffset="0"/></g></g><g transform="matrix(1, 0, 0, 1, 2287.022, 23293.8414)" opacity="0.25"><g transform="scale(1)"><path d="M0,0 L2.77,1.84 " stroke-linecap="round" fill="none" stroke="#ffc034" stroke-width="4.5" stroke-dasharray="none" stroke-dashoffset="0"/></g></g><g transform="matrix(1, 0, 0, 1, 2275.9575, 23285.543)" opacity="0.25"><g transform="scale(1)"><path d="M0,0 Q3.3653,2.1022 4.4904,2.8837 T6.4373,4.3002 7.916,5.4925 9.1399,6.563 10.2275,7.5648 12.5018,9.3707 15.4194,11.6139 17.4283,13.044 19.1528,14.0317 20.7202,14.9908 21.9923,15.9343 23.3159,16.8672 24.6676,17.7941 25.8223,18.7202 27.0821,19.6458 28.399,20.5688 29.5349,21.4905 30.7821,22.4114 32.0921,23.3342 33.4364,24.2579 34.7969,25.18 35.9566,26.1011 37.0092,27.0217 38.2134,27.9443 39.4978,28.868 40.828,29.7901 42.1832,30.7111 43.5498,31.6317 45.1345,32.5543 46.6281,33.478 48.0699,34.4001 49.4836,35.3212 50.8841,36.032 52.2776,36.6284 53.6649,37.5845 55.0512,38.7361 56.4369,39.7821 58.032,40.7707 59.5313,41.7302 60.9763,42.6741 62.6036,43.8168 64.3302,45.0677 65.8987,46.17 67.3836,47.4012 68.8229,48.7002 70.2352,49.8265 71.6327,50.8609 73.0246,51.8455 74.4133,52.8006 75.798,53.7397 77.1829,54.6701 78.5678,55.598 79.9505,56.5246 81.3342,57.4482 82.7185,58.3701 83.8911,59.2935 85.1583,60.2176 86.4792,61.1398 87.6196,62.061 88.8692,62.9817 90.1783,64.1141 91.522,65.3617 93.0943,66.4599 94.5789,67.4768 96.0181,68.4518 97.6423,69.6138 99.1575,70.8752 100.6133,71.9809 102.2443,73.0042 103.7631,73.9827 105.2209,74.9345 106.853,75.8718 108.3724,76.8012 109.8305,77.7286 111.253,78.6549 112.6584,79.5784 114.0545,80.71 115.4432,81.9572 117.04,83.0574 118.5403,84.0755 119.7759,85.0488 121.0774,86.2099 122.4169,87.2633 123.7772,88.0461 125.1465,88.8915 126.5229,89.7709 127.9033,90.6688 129.0737,91.5791 130.3397,92.4961 131.66,93.4144 133.0097,94.3335 134.3733,95.253 135.7466,96.1751 137.1253,97.0984 138.2948,97.8105 139.3505,98.4076 140.3466,99.152 141.3103,99.9787 142.2541,100.8503 143.3968,101.7439 144.65,102.6496 145.7535,103.5618 146.7733,104.4798 147.7477,105.401 148.6972,106.3217 149.6356,107.242 150.5678,108.1622 151.7043,109.0846 152.9518,110.0082 154.0522,110.9301 155.0726,111.8512 156.257,112.7718 157.5306,113.6944 158.6453,114.6181 159.6734,115.3303 160.862,115.9275 162.3763,116.6869 L163.2,117.1 " stroke-linecap="round" fill="none" stroke="#ffc034" stroke-width="4.5" stroke-dasharray="none" stroke-dashoffset="0"/></g></g><g transform="matrix(1, 0, 0, 1, 2442.8477, 23281.8548)" opacity="0.25"><g transform="scale(1)"><path d="M0,0 Q0.839,1.6826 1.0673,2.7696 T1.2099,5.2892 0.8679,12.5468 0.2624,23.0135 -0.2768,30.8095 -0.5701,36.1016 -0.7296,40.0316 -0.8164,43.4303 -0.8637,46.5401 -1.0991,49.2829 -1.437,51.8261 -1.6207,54.2606 -1.7207,56.4263 -1.7751,58.6556 -1.8047,60.9193 -1.8208,63.2019 -1.8296,65.7068 -1.8343,68.1205 -1.8369,70.2726 -1.8383,72.2846 -2.0511,74.0108 -2.3789,75.5791 -2.5573,77.2735 -2.6543,79.2464 -2.9168,81.3707 -3.2694,83.3677 -3.4612,85.2953 -3.5655,87.3951 -3.6223,89.5884 -3.8629,91.4131 -4.2036,93.2448 -4.3889,95.2923 -4.4897,97.0378 -4.5446,98.4068 -4.5744,99.9928 -4.5906,101.9067 -4.5995,103.5795 -4.6043,105.3308 -4.6069,107.5443 -4.6083,110.0093 -4.6091,112.6111 -4.6095,115.0776 -4.6097,117.4704 -4.6099,120.0352 -4.6099,122.2718 -4.4002,124.1178 -3.9402,126.1399 L-3.69,127.24 " stroke-linecap="round" fill="none" stroke="#ffc034" stroke-width="4.5" stroke-dasharray="none" stroke-dashoffset="0"/></g></g><g transform="matrix(1, 0, 0, 1, 2323.9038, 23279.0887)" opacity="0.25"><g transform="scale(1)"><path d="M0,0 Q2.1022,2.1022 2.8837,3.0935 T4.0904,5.0458 5.3784,9.2635 6.7107,14.9208 7.4354,19.2593 7.8297,22.6705 7.8344,25.5773 7.4151,28.2096 6.975,30.483 6.5259,32.3512 5.862,33.9968 5.0813,35.5213 4.0251,36.7724 2.8189,37.8748 1.7433,38.8941 0.7386,39.6583 -0.2275,40.2838 -1.1748,40.8338 -2.3218,41.133 -3.8038,41.3642 L-4.61,41.49 " stroke-linecap="round" fill="none" stroke="#ffc034" stroke-width="4.5" stroke-dasharray="none" stroke-dashoffset="0"/></g></g><g transform="matrix(1, 0, 0, 1, 2336.8125, 23299.3737)" opacity="0.25"><g transform="scale(1)"><path d="M0,0 Q2.5217,0 3.4173,0.4195 T5.0123,1.4891 6.092,2.9122 6.4673,4.5277 6.2496,6.0381 5.7117,7.0695 5.2093,7.8404 5.1458,8.4695 5.7428,9.0215 6.4894,9.7413 7.1053,10.3426 7.8598,11.0915 8.6898,12.1305 9.3511,13.1152 9.5011,13.8607 9.1631,14.476 8.3478,15.2325 7.2726,16.0658 6.2682,16.7289 4.6708,17.0897 2.2415,17.3684 L0.92,17.52 " stroke-linecap="round" fill="none" stroke="#ffc034" stroke-width="4.5" stroke-dasharray="none" stroke-dashoffset="0"/></g></g><g transform="matrix(1, 0, 0, 1, 2353.4093, 23296.6075)" opacity="0.25"><g transform="scale(1)"><path d="M 0 0 m -0.5, 0 a 0.5,0.5 0 1,0 1,0 a 0.5,0.5 0 1,0 -1,0" stroke-linecap="round" fill="#ffc034" stroke="#ffc034" stroke-width="4.5" stroke-dasharray="none" stroke-dashoffset="0"/></g></g><g transform="matrix(1, 0, 0, 1, 2353.4093, 23298.4516)" opacity="0.25"><g transform="scale(1)"><path d="M0,0 Q0,1.2631 -0.2098,3.4968 T-0.3239,7.1577 0.0336,9.571 0.6475,11.3033 1.6131,12.6653 2.7699,13.6159 3.8188,14.133 4.5991,13.9949 5.2333,13.0784 5.7881,11.7385 6.0899,9.9585 6.2541,7.9391 6.3434,5.5797 6.1823,3.2451 5.6751,1.5556 4.7699,0.217 3.4746,-1.1153 L2.77,-1.84 " stroke-linecap="round" fill="none" stroke="#ffc034" stroke-width="4.5" stroke-dasharray="none" stroke-dashoffset="0"/></g></g><g transform="matrix(1, 0, 0, 1, 2364.4738, 23291.9973)" opacity="0.25"><g transform="scale(1)"><path d="M0,0 Q-0.839,2.5217 -0.6477,3.2076 T1.3303,4.2666 4.5085,4.633 6.8667,4.203 8.3593,3.1277 8.9615,1.7015 8.4478,0.0843 7.1539,-1.7643 L6.45,-2.77 " stroke-linecap="round" fill="none" stroke="#ffc034" stroke-width="4.5" stroke-dasharray="none" stroke-dashoffset="0"/></g></g><g transform="matrix(1, 0, 0, 1, 2442.8477, 23187.8062)" opacity="1"><g transform="scale(1)"><path d="M0,0 Q-5.4674,1.2631 -7.5839,1.3946 T-11.2734,1.388 -14.3316,0.7551 -17.2561,-0.2185 -20.1102,-1.3797 -23.7649,-3.9038 -28.6775,-7.9428 L-31.35,-10.14 " stroke-linecap="round" fill="none" stroke="#ffc034" stroke-width="4.5" stroke-dasharray="none" stroke-dashoffset="0"/></g></g><g transform="matrix(1, 0, 0, 1, 2411.4982, 23196.1046)" opacity="1"><g transform="scale(1)"><path d="M0,0 Q-1.2631,1.6826 -1.8164,2.3501 T-2.8805,3.5904 -3.8789,4.8966 -4.8416,6.2388 -5.3653,8.6493 -5.2306,11.641 -4.5281,13.4782 -3.5144,14.4777 -2.3313,15.2334 -0.8487,15.8566 0.5894,15.9835 1.7935,15.421 2.8681,14.276 3.8721,12.8118 4.6281,11.1739 4.8296,9.6537 4.31,8.6169 3.1859,8.0529 1.7331,7.9558 0.3136,8.3225 -0.8805,8.7318 -1.9519,9.1642 -3.0776,9.7962 L-3.69,10.14 " stroke-linecap="round" fill="none" stroke="#ffc034" stroke-width="3" stroke-dasharray="none" stroke-dashoffset="0"/></g></g><g transform="matrix(1, 0, 0, 1, 2425.3289, 23197.9487)" opacity="1"><g transform="scale(1)"><path d="M0,0 Q-1.2631,1.6826 -1.8164,2.1403 T-2.8805,3.0567 -3.8789,3.9748 -4.0025,5.9448 -3.0187,8.2773 -1.8519,9.7583 -0.5879,10.7759 1.1508,11.3296 3.1477,11.6307 4.6535,11.5825 5.4727,10.715 5.9184,9.1919 6.1608,7.7319 6.0829,6.518 5.621,5.4382 4.7405,4.641 3.4643,4.0251 L2.77,3.69 " stroke-linecap="round" fill="none" stroke="#ffc034" stroke-width="3" stroke-dasharray="none" stroke-dashoffset="0"/></g></g><g transform="matrix(1, 0, 0, 1, 2345.1109, 23175.8196)" opacity="1"><g transform="scale(1)"><path d="M0,0 Q0.4195,-1.2631 0.5336,-1.1849 T0.7098,-0.6446 0.3861,3.0123 -0.2095,8.3647 -0.7432,12.1177 -1.4554,15.2127 -2.3068,18.5011 L-2.77,20.29 " stroke-linecap="round" fill="none" stroke="#ffc034" stroke-width="3" stroke-dasharray="none" stroke-dashoffset="0"/></g></g><g transform="matrix(1, 0, 0, 1, 2342.3447, 23171.2093)" opacity="1"><g transform="scale(1)"><path d="M-0.8413,0.8413 Q-1.6826,1.6826 -2.3501,2.3501 T-3.5904,3.5904 -4.8966,4.6846 -6.2388,5.7017 -7.5982,6.6767 -9.5986,7.8365 -11.3184,8.6771 -11.8344,8.7149 -11.6933,8.5257 -11.1948,8.213 -10.504,7.8332 -9.499,7.4145 -8.1109,6.7649 -6.7243,5.992 -5.3406,5.3618 -3.7466,4.8092 -2.0382,4.0891 -0.1223,3.2348 0.46,1.385 -0.8413,0.8413 Z" stroke-linecap="round" fill="none" stroke="#ffc034" stroke-width="3" stroke-dasharray="none" stroke-dashoffset="0"/></g></g><g transform="matrix(1, 0, 0, 1, 2346.0329, 23171.2093)" opacity="1"><g transform="scale(1)"><path d="M0,0 Q-0.4195,3.7848 -0.5336,5.2338 T-0.7098,7.8928 -0.8057,10.1807 -0.8578,12.4763 -0.8862,16.2491 -0.9016,20.8232 -0.9135,25.2512 L-0.92,27.66 " stroke-linecap="round" fill="none" stroke="#ffc034" stroke-width="3" stroke-dasharray="none" stroke-dashoffset="0"/></g></g><g transform="matrix(1, 0, 0, 1, 2349.7211, 23197.0266)" opacity="1"><g transform="scale(1)"><path d="M0,0 Q-2.9412,0 -4.163,0 T-6.6788,0 -8.8886,0.2098 -11.5637,0.5336 -13.858,0.9196 -14.055,1.3393 -13.1111,1.5676 -11.7563,1.6918 -9.9682,1.7594 -7.7346,1.7961 -5.4685,1.8161 -3.8139,1.827 -3.1258,1.8329 -3.5929,1.8362 -4.8475,1.8386 L-5.53,1.84 " stroke-linecap="round" fill="none" stroke="#ffc034" stroke-width="3" stroke-dasharray="none" stroke-dashoffset="0"/></g></g><g transform="matrix(1, 0, 0, 1, 2472.3532, 23196.1046)" opacity="1"><g transform="scale(1)"><path d="M0,0 Q-0.839,3.3653 -1.0673,4.9099 T-1.4196,7.9264 -1.6113,10.6184 -1.7156,13.134 -1.7962,15.9747 L-1.84,17.52 " stroke-linecap="round" fill="none" stroke="#ffc034" stroke-width="3" stroke-dasharray="none" stroke-dashoffset="0"/></g></g><g transform="matrix(1, 0, 0, 1, 2481.5736, 23218.2337)" opacity="1"><g transform="scale(1)"><path d="M0,0 Q-5.887,0.839 -8.1175,1.2793 T-12.193,1.9591 -15.6732,2.5386 -19.2592,3.2843 L-21.21,3.69 " stroke-linecap="round" fill="none" stroke="#ffc034" stroke-width="3" stroke-dasharray="none" stroke-dashoffset="0"/></g></g><g transform="matrix(1, 0, 0, 1, 2463.1327, 23230.2203)" opacity="1"><g transform="scale(1)"><path d="M0,0 Q3.3653,0 4.4904,0 T6.4373,0.2098 7.7062,0.9554 8.1867,1.9926 6.346,4.659 3.2425,8.4215 1.7639,10.8878 1.8009,12.4392 2.6623,13.4929 3.97,14.0661 5.7324,14.378 7.7423,14.7574 9.677,15.1735 11.5707,15.3999 13.6298,15.5748 L14.75,15.67 " stroke-linecap="round" fill="none" stroke="#ffc034" stroke-width="3" stroke-dasharray="none" stroke-dashoffset="0"/></g></g><g transform="matrix(1, 0, 0, 1, 2395.8234, 23263.4139)" opacity="1"><g transform="scale(1)"><path d="M0,0 Q-2.1022,2.5217 -2.8837,3.4173 T-4.722,5.0123 -6.5633,6.3017 -8.1943,7.4227 -9.7131,8.452 -11.1878,9.5453 L-11.99,10.14 " stroke-linecap="round" fill="none" stroke="#ffc034" stroke-width="3" stroke-dasharray="none" stroke-dashoffset="0"/></g></g><g transform="matrix(1, 0, 0, 1, 2385.6809, 23263.4139)" opacity="1"><g transform="scale(1)"><path d="M0,0.92 Q1.2631,2.1831 2.8675,3.7875 T6.386,7.306 L8.3,9.22 " stroke-linecap="round" fill="none" stroke="#ffc034" stroke-width="3" stroke-dasharray="none" stroke-dashoffset="0"/></g></g><g transform="matrix(1, 0, 0, 1, 2589.453, 23210.8573)" opacity="1"><g transform="scale(1)"><path d="M0,0 Q-0.839,8.4086 -1.0673,11.1176 T-1.4196,15.9295 -1.6113,19.5982 -2.1374,22.2256 -3.143,24.5536 L-3.69,25.82 " stroke-linecap="round" fill="none" stroke="#ffc034" stroke-width="3" stroke-dasharray="none" stroke-dashoffset="0"/></g></g><g transform="matrix(1, 0, 0, 1, 2588.5309, 23209.0132)" opacity="1"><g transform="scale(1)"><path d="M0,0 Q2.5217,-0.839 3.4173,-1.0673 T5.4318,-1.4196 7.5787,-1.6113 9.588,-1.7156 11.9441,-0.092 14.0672,2.6814 15.2222,4.8217 15.6384,6.6176 15.4431,8.014 14.9173,9.1932 14.002,10.2565 12.8725,11.2567 11.8362,12.2204 10.6432,13.1641 9.1529,13.8873 7.2911,14.2807 5.2272,14.4947 3.0334,14.66 L1.84,14.75 " stroke-linecap="round" fill="none" stroke="#ffc034" stroke-width="3" stroke-dasharray="none" stroke-dashoffset="0"/></g></g><g transform="matrix(1, 0, 0, 1, 2602.3616, 23226.5321)" opacity="1"><g transform="scale(1)"><path d="M0,0 Q-0.4195,3.7848 -0.3239,5.2338 T0.0336,7.6808 0.8596,9.2217 1.9405,10.06 4.4186,9.0454 7.4471,6.6033 9.0946,4.6433 9.7811,3.577 9.9447,3.6285 10.0338,4.4956 10.0822,5.8086 10.3183,7.3642 10.8686,9.0518 11.5897,10.6014 12.4015,12.0736 13.2627,13.7158 13.9409,15.4505 14.5196,17.2355 15.0442,19.0479 15.3296,20.8729 15.275,22.707 14.8259,24.3363 14.162,25.6421 13.3813,26.772 12.1153,27.5965 10.1635,28.045 8.0506,28.0792 6.0622,27.6783 4.1391,26.8309 2.2517,25.7384 0.5956,24.5125 -0.7271,23.2163 -1.8684,21.8796 -2.9088,20.3112 -4.0106,18.5034 L-4.61,17.52 " stroke-linecap="round" fill="none" stroke="#ffc034" stroke-width="3" stroke-dasharray="none" stroke-dashoffset="0"/></g></g><g transform="matrix(1, 0, 0, 1, 2627.2568, 23210.8573)" opacity="1"><g transform="scale(1)"><path d="M0,0 Q-0.4195,2.1022 -0.7434,2.8837 T-1.4555,4.5122 -2.2647,6.4492 -3.1244,8.7638 -4.2213,11.2837 -5.2376,13.7057 -6.0025,16.0766 -5.9991,18.6272 -4.7341,20.4342 -2.9949,21.2075 -1.4194,21.4184 0.0691,20.9016 1.8184,19.9031 L2.77,19.36 " stroke-linecap="round" fill="none" stroke="#ffc034" stroke-width="3" stroke-dasharray="none" stroke-dashoffset="0"/></g></g><g transform="matrix(1, 0, 0, 1, 2626.3348, 23223.7659)" opacity="1"><g transform="scale(1)"><path d="M-0.92,0 Q-3.0222,0 -3.8037,0 T-5.2225,-0.2098 -6.6198,-0.6698 L-7.38,-0.92 " stroke-linecap="round" fill="none" stroke="#ffc034" stroke-width="3" stroke-dasharray="none" stroke-dashoffset="0"/></g></g><g transform="matrix(1, 0, 0, 1, 2638.3214, 23218.2337)" opacity="1"><g transform="scale(1)"><path d="M 0 0 m -0.5, 0 a 0.5,0.5 0 1,0 1,0 a 0.5,0.5 0 1,0 -1,0" stroke-linecap="round" fill="#ffc034" stroke="#ffc034" stroke-width="3" stroke-dasharray="none" stroke-dashoffset="0"/></g></g><g transform="matrix(1, 0, 0, 1, 2636.4773, 23227.4541)" opacity="1"><g transform="scale(1)"><path d="M0,0 L1.84,1.84 " stroke-linecap="round" fill="none" stroke="#ffc034" stroke-width="3" stroke-dasharray="none" stroke-dashoffset="0"/></g></g><g transform="matrix(1, 0, 0, 1, 2703.7866, 23210.8573)" opacity="1"><g transform="scale(1)"><path d="M0,0 Q0,2.9412 0,4.3728 T0,7.2147 0,10.0215 0,12.8093 0,15.5889 -0.2098,18.1521 -0.6698,20.7285 L-0.92,22.13 " stroke-linecap="round" fill="none" stroke="#ffc034" stroke-width="3" stroke-dasharray="none" stroke-dashoffset="0"/></g></g><g transform="matrix(1, 0, 0, 1, 2712.085, 23238.5187)" opacity="1"><g transform="scale(1)"><path d="M0,0 Q-2.1022,0.4195 -3.3055,0.5336 T-5.7928,0.7098 -8.4067,0.8057 -11.0895,0.8578 -13.6,0.8862 -16.0191,0.9016 -19.2275,0.91 -22.4434,1.1243 -25.2262,1.5878 L-26.74,1.84 " stroke-linecap="round" fill="none" stroke="#ffc034" stroke-width="3" stroke-dasharray="none" stroke-dashoffset="0"/></g></g><g transform="matrix(1, 0, 0, 1, 2694.5662, 23253.2714)" opacity="1"><g transform="scale(1)"><path d="M0.92,0 Q3.4417,1.2631 4.1276,2.0262 T4.9768,3.4142 5.0193,4.5888 4.6229,5.6495 3.9877,6.6484 2.8009,7.6113 1.3139,8.5546 -0.1265,9.4873 -1.5417,10.4165 -2.0995,11.134 -1.5617,11.5243 -0.6398,11.7367 0.4933,11.8522 1.7412,11.915 3.0494,11.9492 4.6023,11.9678 6.4982,11.9779 8.5807,11.9834 10.3451,11.7744 12.0063,11.3117 L12.91,11.06 " stroke-linecap="round" fill="none" stroke="#ffc034" stroke-width="3" stroke-dasharray="none" stroke-dashoffset="0"/></g></g><g transform="matrix(1, 0, 0, 1, 2681.6575, 23215.4675)" opacity="1"><g transform="scale(1)"><path d="M0,0 Q-2.1022,3.3653 -2.8837,4.7002 T-4.5122,7.1807 -6.0297,9.5812 -7.2747,12.1502 -8.3715,14.5988 -9.3877,16.982 -10.3623,19.3295 -11.7338,24.1793 -13.1092,30.6024 -13.8574,35.1476 -14.0547,38.4615 -13.7425,41.1056 -13.3629,43.3831 -12.9466,45.4633 -12.2983,47.4363 -11.5239,49.3509 -10.6831,51.024 -9.7355,52.6147 L-9.22,53.48 " stroke-linecap="round" fill="none" stroke="#ffc034" stroke-width="3" stroke-dasharray="none" stroke-dashoffset="0"/></g></g><g transform="matrix(1, 0, 0, 1, 2720.3834, 23213.6234)" opacity="1"><g transform="scale(1)"><path d="M0,0 Q1.2631,2.9412 1.6067,4.3728 T2.3469,7.2147 3.1691,10.0215 3.8262,12.8093 4.3934,15.5889 4.9117,18.3619 4.5643,24.0747 3.3243,32.0184 2.0182,38.0201 0.6784,42.3361 -0.682,45.7351 -1.8439,48.4254 -2.8955,50.5206 -4.0968,52.4993 -5.6209,54.922 L-6.45,56.24 " stroke-linecap="round" fill="none" stroke="#ffc034" stroke-width="3" stroke-dasharray="none" stroke-dashoffset="0"/></g></g><g transform="matrix(1, 0, 0, 1, 2726.8378, 23202.5589)" opacity="1"><g transform="scale(1)"><path d="M0,0 Q2.9412,-1.2631 3.7412,-1.1849 T4.3471,-0.013 3.8377,1.8853 3.1388,3.3375 2.3368,4.5471 1.9005,5.4148 2.0849,5.8869 2.6071,6.1436 3.7302,6.4954 5.602,6.8988 7.6713,7.1182 9.8661,7.2878 L11.06,7.38 " stroke-linecap="round" fill="none" stroke="#ffc034" stroke-width="3" stroke-dasharray="none" stroke-dashoffset="0"/></g></g><g transform="matrix(1, 0, 0, 1, 2750.811, 23230.2203)" opacity="1"><g transform="scale(1)"><path d="M0,0 Q0.4195,3.3653 0.5336,4.7002 T0.7098,7.3928 0.8057,10.3281 0.8797,13.7879 L0.92,15.67 " stroke-linecap="round" fill="none" stroke="#ffc034" stroke-width="3" stroke-dasharray="none" stroke-dashoffset="0"/></g></g><g transform="matrix(1, 0, 0, 1, 2755.4212, 23237.5966)" opacity="1"><g transform="scale(1)"><path d="M0,0 Q-2.1022,0 -3.0935,0 T-4.8361,0.2098 -6.8352,0.7434 -9.5715,1.4536 L-11.06,1.84 " stroke-linecap="round" fill="none" stroke="#ffc034" stroke-width="3" stroke-dasharray="none" stroke-dashoffset="0"/></g></g><g transform="matrix(1, 0, 0, 1, 2781.2385, 23228.3762)" opacity="1"><g transform="scale(1)"><path d="M0,0 Q-2.5217,4.2043 -4.0489,6.1892 T-6.6167,9.6734 -8.6451,12.1981 -10.3801,14.2031 -11.9533,15.7156 -13.7646,16.8843 L-14.75,17.52 " stroke-linecap="round" fill="none" stroke="#ffc034" stroke-width="3" stroke-dasharray="none" stroke-dashoffset="0"/></g></g><g transform="matrix(1, 0, 0, 1, 2768.3298, 23230.2203)" opacity="1"><g transform="scale(1)"><path d="M0,0 Q5.0434,5.887 7.0467,8.3295 T11.44,13.6861 L13.83,16.6 " stroke-linecap="round" fill="none" stroke="#ffc034" stroke-width="3" stroke-dasharray="none" stroke-dashoffset="0"/></g></g><g transform="matrix(1, 0, 0, 1, 2784.0046, 23205.325)" opacity="1"><g transform="scale(1)"><path d="M0,0 Q3.7848,0 5.024,0.2098 T7.1471,0.7434 8.7216,1.6652 8.5271,3.8494 6.7409,6.5081 5.5595,8.374 5.546,9.5988 6.5898,10.4772 8.2087,11.167 10.1404,11.5423 12.2424,11.7464 14.4623,11.9042 L15.67,11.99 " stroke-linecap="round" fill="none" stroke="#ffc034" stroke-width="3" stroke-dasharray="none" stroke-dashoffset="0"/></g></g><g transform="matrix(1, 0, 0, 1, 2801.5235, 23233.9084)" opacity="1"><g transform="scale(1)"><path d="M0,0 Q2.5217,-0.4195 3.6294,-0.5336 T5.9689,-0.7098 8.6704,-0.8459 L10.14,-0.92 " stroke-linecap="round" fill="none" stroke="#ffc034" stroke-width="3" stroke-dasharray="none" stroke-dashoffset="0"/></g></g><g transform="matrix(1, 0, 0, 1, 2801.5235, 23239.4407)" opacity="1"><g transform="scale(1)"><path d="M0,0.92 Q2.9412,0.92 4.163,0.92 T7.3103,0.92 11.5329,0.92 L13.83,0.92 " stroke-linecap="round" fill="none" stroke="#ffc034" stroke-width="3" stroke-dasharray="none" stroke-dashoffset="0"/></g></g><g transform="matrix(1, 0, 0, 1, 2849.4698, 23213.6234)" opacity="1"><g transform="scale(1)"><path d="M0,0 Q0,7.9891 0,11.2132 T-0.2098,17.0326 -0.5336,21.881 -0.7098,25.9891 -0.8057,29.4847 -0.8578,31.1766 -0.8981,31.2889 L-0.92,31.35 " stroke-linecap="round" fill="none" stroke="#ffc034" stroke-width="3" stroke-dasharray="none" stroke-dashoffset="0"/></g></g><g transform="matrix(1, 0, 0, 1, 2848.5478, 23211.7794)" opacity="1"><g transform="scale(1)"><path d="M0,0 Q-2.1022,1.6826 -3.0935,2.5598 T-4.8361,4.124 -6.4156,5.6065 -7.9042,7.0445 -9.1335,8.2463 -10.4338,9.1098 -12.0375,9.777 L-12.91,10.14 " stroke-linecap="round" fill="none" stroke="#ffc034" stroke-width="3" stroke-dasharray="none" stroke-dashoffset="0"/></g></g><g transform="matrix(1, 0, 0, 1, 2855.9242, 23200.7148)" opacity="1"><g transform="scale(1)"><path d="M0,0 Q3.3653,0 4.2806,0.4195 T5.6939,1.4891 5.4117,3.334 3.995,5.5985 3.4341,7.2499 3.9703,8.1483 5.1033,8.637 6.3513,9.1126 7.8692,9.5811 9.9557,9.836 12.465,10.0329 L13.83,10.14 " stroke-linecap="round" fill="none" stroke="#ffc034" stroke-width="3" stroke-dasharray="none" stroke-dashoffset="0"/></g></g><g transform="matrix(1, 0, 0, 1, 2687.1898, 23300.2957)" opacity="1"><g transform="scale(1)"><path d="M0,0 Q0.839,1.6826 0.8575,2.5598 T0.886,4.336 0.9015,6.1436 0.7002,8.178 0.3809,10.5456 0.1342,13.2686 L0,14.75 " stroke-linecap="round" fill="none" stroke="#ffc034" stroke-width="3" stroke-dasharray="none" stroke-dashoffset="0"/></g></g><g transform="matrix(1, 0, 0, 1, 2693.6441, 23324.2689)" opacity="1"><g transform="scale(1)"><path d="M0,0 Q-2.1022,0 -3.0935,-0.2098 T-5.0458,-0.5336 -6.9493,-0.7098 -8.826,-0.8057 -10.6883,-0.8578 -12.5404,-0.8862 -14.5674,-0.9081 L-15.67,-0.92 " stroke-linecap="round" fill="none" stroke="#ffc034" stroke-width="3" stroke-dasharray="none" stroke-dashoffset="0"/></g></g><g transform="matrix(1, 0, 0, 1, 2679.8134, 23327.9571)" opacity="1"><g transform="scale(1)"><path d="M0,0 Q-0.839,2.9412 -1.4891,4.5825 T-1.8611,8.1678 -1.2222,11.1693 -0.2454,12.8021 0.9176,13.4806 2.1173,13.7069 L2.77,13.83 " stroke-linecap="round" fill="none" stroke="#ffc034" stroke-width="3" stroke-dasharray="none" stroke-dashoffset="0"/></g></g><g transform="matrix(1, 0, 0, 1, 2687.1898, 23333.4894)" opacity="1"><g transform="scale(1)"><path d="M0,0 Q0.4195,4.2043 0.5336,5.7674 T0.5001,8.6026 0.272,10.9863 0.148,13.1244 -0.1293,15.1288 -0.6414,17.2733 L-0.92,18.44 " stroke-linecap="round" fill="none" stroke="#ffc034" stroke-width="3" stroke-dasharray="none" stroke-dashoffset="0"/></g></g><g transform="matrix(1, 0, 0, 1, 2721.3055, 23323.3469)" opacity="1"><g transform="scale(1)"><path d="M0,0 Q0,3.7848 0,5.4435 T-0.2098,8.4264 -0.6698,11.3303 L-0.92,12.91 " stroke-linecap="round" fill="none" stroke="#ffc034" stroke-width="3" stroke-dasharray="none" stroke-dashoffset="0"/></g></g><g transform="matrix(1, 0, 0, 1, 2725.9157, 23331.6453)" opacity="1"><g transform="scale(1)"><path d="M0,0 Q-2.1022,0 -3.0935,0 T-5.2556,0 -7.6949,0.2098 -10.4767,0.6698 L-11.99,0.92 " stroke-linecap="round" fill="none" stroke="#ffc034" stroke-width="3" stroke-dasharray="none" stroke-dashoffset="0"/></g></g><g transform="matrix(1, 0, 0, 1, 2748.0448, 23321.5028)" opacity="1"><g transform="scale(1)"><path d="M0,0 Q-1.6826,2.1022 -2.5598,3.0935 T-4.336,5.0458 -6.3534,6.9493 -8.5019,9.0358 -10.512,11.222 -12.2348,13.0405 -13.5915,14.4516 -14.9611,15.641 -16.6184,16.858 L-17.52,17.52 " stroke-linecap="round" fill="none" stroke="#ffc034" stroke-width="3" stroke-dasharray="none" stroke-dashoffset="0"/></g></g><g transform="matrix(1, 0, 0, 1, 2735.1362, 23325.191)" opacity="1"><g transform="scale(1)"><path d="M0,0 Q2.5217,3.3653 3.6294,4.9099 T5.5494,7.7166 7.2232,9.875 8.763,11.4687 10.2507,12.9981 L11.06,13.83 " stroke-linecap="round" fill="none" stroke="#ffc034" stroke-width="3" stroke-dasharray="none" stroke-dashoffset="0"/></g></g><g transform="matrix(1, 0, 0, 1, 2750.811, 23297.5296)" opacity="1"><g transform="scale(1)"><path d="M0,0 Q3.3653,0.4195 4.2806,0.7434 T5.9037,1.6652 6.9964,2.7983 6.5398,4.4658 4.8185,6.4239 3.4603,7.9087 2.5117,8.9262 1.7859,9.6894 1.6008,10.3144 2.3414,10.6544 3.7954,10.8394 5.6375,10.94 7.9027,10.9947 10.186,11.0245 12.5461,11.0475 L13.83,11.06 " stroke-linecap="round" fill="none" stroke="#ffc034" stroke-width="3" stroke-dasharray="none" stroke-dashoffset="0"/></g></g><g transform="matrix(1, 0, 0, 1, 2766.4857, 23317.8146)" opacity="1"><g transform="scale(1)"><path d="M0,0 L6.45,0.92 " stroke-linecap="round" fill="none" stroke="#ffc034" stroke-width="3" stroke-dasharray="none" stroke-dashoffset="0"/></g></g><g transform="matrix(1, 0, 0, 1, 2762.7975, 23325.191)" opacity="1"><g transform="scale(1)"><path d="M0,0 Q2.5217,0.4195 3.6294,0.5336 T5.7592,0.7098 7.9689,0.8057 10.4318,0.648 13.2286,0.2283 L14.75,0 " stroke-linecap="round" fill="none" stroke="#ffc034" stroke-width="3" stroke-dasharray="none" stroke-dashoffset="0"/></g></g><g transform="matrix(1, 0, 0, 1, 2803.3676, 23306.75)" opacity="1"><g transform="scale(1)"><path d="M0,0 Q1.2631,6.726 1.6067,9.3968 T2.1372,14.1521 2.4257,17.9998 2.5827,21.144 2.6681,22.4349 2.7341,22.2374 L2.77,22.13 " stroke-linecap="round" fill="none" stroke="#ffc034" stroke-width="3" stroke-dasharray="none" stroke-dashoffset="0"/></g></g><g transform="matrix(1, 0, 0, 1, 2803.3676, 23303.9839)" opacity="1"><g transform="scale(1)"><path d="M0,0 Q-1.6826,0.839 -2.3501,1.4891 T-3.8001,2.7024 -5.8498,4.4136 -8.6284,6.9307 L-10.14,8.3 " stroke-linecap="round" fill="none" stroke="#ffc034" stroke-width="3" stroke-dasharray="none" stroke-dashoffset="0"/></g></g><g transform="matrix(1, 0, 0, 1, 2727.7598, 23372.2153)" opacity="1"><g transform="scale(1)"><path d="M0,0 Q-2.1022,3.3653 -3.0935,4.7002 T-5.0458,7.1807 -6.9493,9.3715 -8.614,11.1948 -9.9414,12.3965 -10.8756,12.6306 -11.5974,12.2157 L-11.99,11.99 " stroke-linecap="round" fill="none" stroke="#ffc034" stroke-width="3" stroke-dasharray="none" stroke-dashoffset="0"/></g></g><g transform="matrix(1, 0, 0, 1, 2716.6953, 23371.2932)" opacity="1"><g transform="scale(1)"><path d="M0,0 Q5.4674,7.5696 8.7287,12.0848 L11.99,16.6 " stroke-linecap="round" fill="none" stroke="#ffc034" stroke-width="3" stroke-dasharray="none" stroke-dashoffset="0"/></g></g><g transform="matrix(1, 0, 0, 1, 2736.0582, 23352.8523)" opacity="1"><g transform="scale(1)"><path d="M0,0 Q2.9412,-0.839 3.9532,-0.8575 T5.7256,-0.6762 6.8995,0.0516 7.3284,1.0792 6.0888,2.9013 4.1513,5.1533 3.3094,6.798 3.483,7.9024 4.4164,8.5032 5.5558,8.8301 6.8071,9.0079 8.3269,9.1046 9.995,9.1572 11.883,9.1979 L12.91,9.22 " stroke-linecap="round" fill="none" stroke="#ffc034" stroke-width="3" stroke-dasharray="none" stroke-dashoffset="0"/></g></g><g transform="matrix(1, 0, 0, 1, 2754.4991, 23365.761)" opacity="1"><g transform="scale(1)"><path d="M0,0 Q2.5217,0.4195 3.4173,0.7434 T5.3815,1.4536 L6.45,1.84 " stroke-linecap="round" fill="none" stroke="#ffc034" stroke-width="3" stroke-dasharray="none" stroke-dashoffset="0"/></g></g><g transform="matrix(1, 0, 0, 1, 2752.655, 23374.0594)" opacity="1"><g transform="scale(1)"><path d="M0,0 Q5.4674,0 8.7287,0 L11.99,0 " stroke-linecap="round" fill="none" stroke="#ffc034" stroke-width="3" stroke-dasharray="none" stroke-dashoffset="0"/></g></g><g transform="matrix(1, 0, 0, 1, 2793.2251, 23355.6185)" opacity="1"><g transform="scale(1)"><path d="M0,0 Q0.4195,7.1455 0.3239,10.562 T0.1762,16.4686 -0.1139,20.7328 -0.636,24.6235 L-0.92,26.74 " stroke-linecap="round" fill="none" stroke="#ffc034" stroke-width="3" stroke-dasharray="none" stroke-dashoffset="0"/></g></g><g transform="matrix(1, 0, 0, 1, 2804.2896, 23368.5271)" opacity="1"><g transform="scale(1)"><path d="M0,0 Q3.3653,0.4195 4.7002,0.5336 T7.6275,0.7839 L9.22,0.92 " stroke-linecap="round" fill="none" stroke="#ffc034" stroke-width="3" stroke-dasharray="none" stroke-dashoffset="0"/></g></g><g transform="matrix(1, 0, 0, 1, 2836.5612, 23348.2421)" opacity="1"><g transform="scale(1)"><path d="M0,0 Q-0.4195,5.887 -0.6698,9.3985 L-0.92,12.91 " stroke-linecap="round" fill="none" stroke="#ffc034" stroke-width="3" stroke-dasharray="none" stroke-dashoffset="0"/></g></g><g transform="matrix(1, 0, 0, 1, 2846.7037, 23366.683)" opacity="1"><g transform="scale(1)"><path d="M0,0 Q-3.3653,0.4195 -4.9099,0.5336 T-7.9264,0.7098 -10.6184,1.0154 -13.134,1.3914 -15.7656,1.808 -18.0385,2.4564 -20.0926,3.2554 L-21.21,3.69 " stroke-linecap="round" fill="none" stroke="#ffc034" stroke-width="3" stroke-dasharray="none" stroke-dashoffset="0"/></g></g><g transform="matrix(1, 0, 0, 1, 2829.1848, 23374.0594)" opacity="1"><g transform="scale(1)"><path d="M0,0 Q-0.4195,3.3653 -0.5336,4.7002 T-0.5001,6.7612 0.9888,8.3019 3.93,10.0882 L5.53,11.06 " stroke-linecap="round" fill="none" stroke="#ffc034" stroke-width="3" stroke-dasharray="none" stroke-dashoffset="0"/></g></g><g transform="matrix(1, 0, 0, 1, 2838.4053, 23376.8255)" opacity="1"><g transform="scale(1)"><path d="M0,0 Q0,7.5696 0,12.0848 L0,16.6 " stroke-linecap="round" fill="none" stroke="#ffc034" stroke-width="3" stroke-dasharray="none" stroke-dashoffset="0"/></g></g><g transform="matrix(1, 0, 0, 1, 2859.6123, 23362.0728)" opacity="1"><g transform="scale(1)"><path d="M0,0 Q3.3653,0 5.3726,0 L7.38,0 " stroke-linecap="round" fill="none" stroke="#ffc034" stroke-width="3" stroke-dasharray="none" stroke-dashoffset="0"/></g></g><g transform="matrix(1, 0, 0, 1, 2858.6903, 23369.4491)" opacity="1"><g transform="scale(1)"><path d="M0,0 Q3.3653,0.4195 4.4904,0.5336 T6.8569,0.5001 9.5791,0.1762 L11.06,0 " stroke-linecap="round" fill="none" stroke="#ffc034" stroke-width="3" stroke-dasharray="none" stroke-dashoffset="0"/></g></g><g transform="matrix(1, 0, 0, 1, 2886.3517, 23344.5539)" opacity="1"><g transform="scale(1)"><path d="M0,0 Q3.3653,-0.839 4.9099,-1.0673 T7.7166,-1.2099 9.875,-0.8679 11.259,-0.2624 10.539,1.5376 8.4646,3.9897 6.9167,5.7454 6.0746,6.9103 6.4578,7.7538 7.7174,8.6321 9.2439,9.5295 10.9156,10.6492 12.4543,11.8899 13.2914,12.9843 13.1175,13.9992 12.3913,14.9731 11.5745,15.715 10.2911,16.1186 8.3321,16.3381 6.2153,16.4575 4.2224,16.3105 2.0836,15.8957 L0.92,15.67 " stroke-linecap="round" fill="none" stroke="#ffc034" stroke-width="3" stroke-dasharray="none" stroke-dashoffset="0"/></g></g><g transform="matrix(1, 0, 0, 1, 2906.6367, 23367.6051)" opacity="1"><g transform="scale(1)"><path d="M0,0 Q-2.9412,0.4195 -4.3728,0.7434 T-7.0026,1.2434 -9.4843,1.5155 -11.8855,1.8755 -14.2428,2.2834 -16.5785,2.5053 -19.11,2.8358 -22.2577,3.389 L-23.97,3.69 " stroke-linecap="round" fill="none" stroke="#ffc034" stroke-width="3" stroke-dasharray="none" stroke-dashoffset="0"/></g></g><g transform="matrix(1, 0, 0, 1, 2886.3517, 23375.9035)" opacity="1"><g transform="scale(1)"><path d="M0,0 Q0,2.5217 0,3.4173 T-0.2098,5.222 -0.5336,6.8353 0.9705,8.3423 3.891,9.3718 6.321,9.5123 8.694,9.1693 11.4246,8.6063 L12.91,8.3 " stroke-linecap="round" fill="none" stroke="#ffc034" stroke-width="3" stroke-dasharray="none" stroke-dashoffset="0"/></g></g><g transform="matrix(1, 0, 0, 1, 2897.4162, 23377.7476)" opacity="1"><g transform="scale(1)"><path d="M0,0 Q-0.4195,5.4674 -0.5336,9.0567 T-0.7839,16.928 L-0.92,21.21 " stroke-linecap="round" fill="none" stroke="#ffc034" stroke-width="3" stroke-dasharray="none" stroke-dashoffset="0"/></g></g><g transform="matrix(1, 0, 0, 1, 2726.8378, 23439.5246)" opacity="1"><g transform="scale(1)"><path d="M0,0 Q-3.3653,4.6238 -4.9099,6.3033 T-7.7166,9.316 -10.0848,11.7939 -12.2121,13.5614 -14.001,14.3132 -15.6843,14.5961 L-16.6,14.75 " stroke-linecap="round" fill="none" stroke="#ffc034" stroke-width="3" stroke-dasharray="none" stroke-dashoffset="0"/></g></g><g transform="matrix(1, 0, 0, 1, 2713.9291, 23439.5246)" opacity="1"><g transform="scale(1)"><path d="M0,0 Q5.0434,7.1455 6.4152,9.3011 T8.7452,12.8392 10.8468,15.8708 L11.99,17.52 " stroke-linecap="round" fill="none" stroke="#ffc034" stroke-width="3" stroke-dasharray="none" stroke-dashoffset="0"/></g></g><g transform="matrix(1, 0, 0, 1, 2742.5125, 23436.7585)" opacity="1"><g transform="scale(1)"><path d="M0,0 Q3.3653,1.2631 4.7002,1.3946 T7.6275,1.6831 L9.22,1.84 " stroke-linecap="round" fill="none" stroke="#ffc034" stroke-width="3" stroke-dasharray="none" stroke-dashoffset="0"/></g></g><g transform="matrix(1, 0, 0, 1, 2740.6685, 23445.0569)" opacity="1"><g transform="scale(1)"><path d="M0,0 Q1.6826,1.2631 2.5598,1.3946 T4.336,1.5977 5.9338,1.4984 7.4663,1.1238 L8.3,0.92 " stroke-linecap="round" fill="none" stroke="#ffc034" stroke-width="3" stroke-dasharray="none" stroke-dashoffset="0"/></g></g><g transform="matrix(1, 0, 0, 1, 2779.3944, 23423.8498)" opacity="1"><g transform="scale(1)"><path d="M0,0 Q0,3.3653 0,4.7002 T0,7.3928 0,9.9086 0.2098,10.6457 0.5336,9.364 0.7098,7.6157 1.0154,5.6135 1.3914,3.4733 1.596,1.2579 1.7073,-0.9983 1.9798,-3.0648 2.3401,-4.8205 2.7459,-6.4071 3.3862,-7.8996 4.154,-8.9212 4.9912,-9.6867 6.0782,-10.3129 7.3011,-10.6536 8.5956,-10.8389 10.1412,-10.9397 11.6135,-10.9946 13.0438,-11.0244 14.6631,-11.0406 16.1756,-11.0495 17.63,-11.0543 19.0527,-11.0569 20.2462,-11.2703 21.7368,-11.5985 23.389,-11.777 24.917,-12.0839 26.5896,-12.4606 28.1311,-12.6655 29.5989,-13.1965 31.3289,-14.2027 L32.27,-14.75 " stroke-linecap="round" fill="none" stroke="#ffc034" stroke-width="3" stroke-dasharray="none" stroke-dashoffset="0"/></g></g><g transform="matrix(1, 0, 0, 1, 2810.7439, 23410.9412)" opacity="1"><g transform="scale(1)"><path d="M0,0 Q0.4195,2.5217 0.3239,3.6294 T0.1762,5.9689 0.0621,8.6704 L0,10.14 " stroke-linecap="round" fill="none" stroke="#ffc034" stroke-width="3" stroke-dasharray="none" stroke-dashoffset="0"/></g></g><g transform="matrix(1, 0, 0, 1, 2795.0691, 23420.1617)" opacity="1"><g transform="scale(1)"><path d="M0,0 Q1.6826,0 2.3501,0.2098 T3.5904,1.1652 4.2651,2.5263 4.2126,3.6862 3.5525,4.527 2.5618,5.1941 2.0229,5.9788 2.1515,6.8275 2.8531,7.7087 3.864,8.3979 4.8335,9.1923 5.7826,10.256 6.511,11.2565 6.6952,12.2202 5.9541,13.164 4.4999,13.8872 2.8675,14.4904 1.1404,15.0283 -0.6405,15.3209 -2.4506,15.4801 -4.2766,15.3569 -6.2866,14.9638 L-7.38,14.75 " stroke-linecap="round" fill="none" stroke="#ffc034" stroke-width="3" stroke-dasharray="none" stroke-dashoffset="0"/></g></g><g transform="matrix(1, 0, 0, 1, 2816.2762, 23441.3687)" opacity="1"><g transform="scale(1)"><path d="M0,0 Q-3.3653,0.4195 -5.1197,0.5336 T-8.8795,0.9196 -13.0294,1.3393 -17.3913,1.7797 -21.8663,2.2313 -26.1909,2.6867 -30.014,3.1442 -33.1449,3.3931 -35.6894,3.7382 -38.1247,4.1358 -40.9002,4.4429 L-42.41,4.61 " stroke-linecap="round" fill="none" stroke="#ffc034" stroke-width="3" stroke-dasharray="none" stroke-dashoffset="0"/></g></g><g transform="matrix(1, 0, 0, 1, 2784.0046, 23454.2773)" opacity="1"><g transform="scale(1)"><path d="M0,0 Q3.7848,0.4195 5.024,0.7434 T6.9374,1.6652 6.9272,4.0591 5.6608,7.0418 4.5523,9.0861 3.5276,10.6201 2.5483,11.874 1.596,12.766 0.8682,13.4609 0.8918,14.0487 1.5362,14.3685 2.5184,14.5425 3.8917,14.6371 5.4801,14.6886 7.1855,14.7166 8.9545,14.7318 10.7582,14.7401 12.5785,14.7446 14.5808,14.7481 L15.67,14.75 " stroke-linecap="round" fill="none" stroke="#ffc034" stroke-width="3" stroke-dasharray="none" stroke-dashoffset="0"/></g></g></svg>