<svg xmlns="http://www.w3.org/2000/svg" direction="ltr" width="720.816025031089" height="529.517034922901" viewBox="101.20996721304661 502.92336117581624 720.816025031089 529.517034922901" stroke-linecap="round" stroke-linejoin="round" data-color-mode="dark" class="tl-container tl-theme__force-sRGB tl-theme__dark" style="background-color: transparent;"><defs/><g transform="matrix(1, 0, 0, 1, 642.3807, 640.0661)" opacity="1"><g transform="scale(1)"><path d="M1.3625,0 T1.3567,1.1186 1.346,4.2688 1.3388,8.0091 0.9071,11.5583 0.3691,15.0917 0.2317,18.6762 0.6151,22.2587 1.1602,25.8164 1.5817,29.1391 2.1406,32.4756 2.4835,36.1604 2.5793,39.7453 2.8653,43.1029 3.3842,46.2912 3.7142,49.6558 3.8208,53.6471 3.8614,57.3141 3.8762,60.4187 3.8875,63.8416 3.8997,67.3527 3.9141,70.8883 3.9289,74.4306 3.945,77.8266 3.9585,80.9041 3.9679,84.2154 3.9746,87.6942 3.9786,90.8962 4.1948,94.2347 4.7003,97.8745 5.0729,101.7503 5.1666,105.3828 5.1831,108.6096 4.8497,111.948 4.3088,115.5647 4.0693,119.4474 4.0291,123.2732 4.029,127.1361 4.0356,131.2312 4.0408,134.9113 4.0475,138.1407 4.0533,141.4674 3.625,145.0725 3.0727,149.2488 2.9364,152.9951 2.923,156.1106 2.9272,159.3871 2.5916,162.7575 2.0908,165.973 1.8745,168.9472 1.803,171.9079 1.7803,175.1925 1.7756,178.8289 1.7711,182.4229 1.3219,185.5935 0.7867,188.3941 0.6584,191.9854 0.62,196.187 0.6204,200.0539 0.6269,203.3336 0.6377,206.8385 0.6516,210.6897 0.6632,213.9653 0.6731,217.4709 0.6818,221.3219 0.6861,224.9098 0.6862,228.4611 0.6854,232.0047 0.6825,235.5495 0.656,238.7834 0.6127,241.2115 0.5933,242.18 A1.7733,1.7733 0 0 1 -2.9533,242.18 T-2.9727,241.2115 -3.016,238.7834 -3.0425,235.5495 -3.0454,232.0047 -3.0462,228.4611 -3.0461,224.9098 -3.0418,221.3219 -3.0331,217.4709 -3.0232,213.9653 -3.0116,210.6897 -2.9976,206.8384 -2.9853,202.7353 -2.9747,198.818 -2.9625,195.5374 -2.914,191.8746 -2.728,187.8675 -2.1817,184.5376 -1.7774,181.2023 -1.7718,177.6287 -1.7587,173.883 -1.7115,170.2151 -1.5435,166.9642 -0.9885,163.9465 -0.5632,160.8037 -0.5544,157.6976 -0.5338,154.6368 -0.482,151.2958 -0.3116,147.9977 0.2427,144.7842 0.6667,141.4344 0.6735,137.3918 0.6822,132.86 0.6886,129.058 0.6974,125.6644 0.7149,122.0175 0.7614,118.7162 0.9355,115.6308 1.4817,112.0923 1.8859,107.8753 1.8692,104.0762 1.7299,100.6437 1.1767,97.0487 0.7441,93.9448 0.7424,90.1529 0.7473,86.3472 0.7545,82.9278 0.7676,79.2921 0.7828,76.1048 0.7981,72.8426 0.8127,69.3026 0.825,65.7757 0.8359,62.2959 0.8467,58.2348 0.8513,54.3689 0.8243,51.412 0.5694,47.7303 0.0351,43.5115 -0.283,39.7872 -0.353,36.3112 -0.6068,33.0108 -1.1374,29.6255 -1.57,26.125 -2.0905,22.4944 -2.4754,18.6159 -2.3104,14.8337 -1.7594,11.3307 -1.3388,7.9829 -1.346,4.2688 -1.3567,1.1186 -1.3625,0 A1.3625,1.3625 0 0 1 1.3625,0 Z" stroke-linecap="round" fill="#f2f2f2"/></g></g><g transform="matrix(1, 0, 0, 1, 283.2414, 879.8862)" opacity="1"><g transform="scale(1)"><path d="M-0.6732,-1.3493 T0.441,-1.8923 2.7387,-3.3049 5.1671,-4.8727 7.7827,-6.4206 10.4648,-8.308 13.5309,-10.1496 16.4799,-11.9364 19.4184,-13.9386 22.3585,-15.8002 25.1236,-17.8061 28.0247,-20.076 31.0411,-22.0492 33.9936,-23.8868 36.6668,-25.8321 39.6583,-28.1778 42.4106,-30.6949 44.8361,-32.661 47.7021,-34.5497 50.6286,-36.3587 53.4738,-38.1765 56.6946,-40.4143 59.7408,-42.6729 62.8079,-44.9846 66.5803,-47.8449 70.8556,-51.0409 74.3065,-53.401 77.8216,-55.7668 81.3491,-58.1333 84.9425,-60.6889 89.5938,-64.0119 93.4978,-66.4523 96.4342,-68.0026 99.2496,-69.5847 102.0117,-71.467 104.9792,-73.3708 107.9319,-75.2171 110.778,-77.2466 114.0222,-79.4867 117.4001,-81.7903 120.5085,-84.0778 123.5421,-86.4075 126.8827,-88.8067 130.4198,-90.9723 133.9535,-92.9516 137.3863,-95.0541 140.5257,-97.2381 143.6858,-99.2989 147.0883,-101.2731 150.094,-103.317 153.0793,-105.5174 156.3993,-107.8469 159.581,-109.9364 162.6532,-111.8746 165.9082,-113.9897 169.3025,-116.2251 172.8756,-118.3077 176.424,-120.2497 179.8583,-122.3324 183.1111,-124.2977 186.216,-126.1722 189.1289,-128.2015 191.823,-130.1415 194.7099,-132.0571 197.8666,-134.1638 201.3212,-136.1847 205.1514,-138.122 209.0102,-140.1954 212.6666,-142.3722 216.382,-144.4209 219.7897,-146.094 222.8607,-147.748 225.7391,-149.6524 228.6615,-151.7795 231.9563,-154.0747 235.3646,-156.4032 238.8347,-158.7493 242.2474,-161.3162 245.7182,-164.0694 249.3111,-166.7113 252.5259,-169.1669 255.6208,-171.5822 258.6427,-173.973 261.6281,-176.3569 264.5982,-178.7313 267.5588,-181.099 270.4242,-183.6611 273.324,-186.421 276.3317,-189.0801 279.0647,-191.3402 281.6152,-193.3693 284.0873,-195.2881 286.4986,-197.1384 288.8881,-198.9551 291.98,-201.3768 295.0087,-203.7831 298.0619,-206.1024 301.0686,-208.4565 304.1948,-210.68 307.9742,-213.2267 311.5087,-215.6895 314.9689,-218.1246 318.4913,-220.5039 321.5977,-222.7561 324.595,-225.094 327.5572,-227.4441 330.0634,-229.6681 332.4691,-231.9914 334.9814,-234.032 338.3684,-235.9032 342.7412,-238.1182 346.5074,-240.4648 349.2626,-242.3589 351.7732,-244.0672 352.9959,-245.0227 A2.1828,2.1828 0 0 1 355.8241,-241.6973 T354.5399,-240.5207 351.5019,-238.0985 347.8407,-235.888 344.0295,-233.623 340.6514,-231.6375 337.5262,-229.7212 334.6345,-227.2885 332.0013,-224.8354 329.0247,-222.4628 326.0057,-220.0855 322.8082,-217.6479 319.3056,-215.2878 315.9069,-212.9582 312.5753,-210.4989 309.0437,-207.9423 305.2928,-205.4404 302.277,-203.0792 299.079,-200.6512 295.8998,-198.3491 292.7279,-195.8903 288.2563,-192.5935 284.5418,-189.6654 282.0365,-187.6959 279.4212,-185.5545 276.5169,-183.0389 273.5027,-180.216 270.4505,-177.489 267.4778,-175.1249 264.4938,-172.757 261.4854,-170.3783 258.4293,-167.9775 255.2953,-165.5458 251.9952,-163.0406 248.5212,-160.5145 244.9459,-157.7064 241.3517,-155.0161 237.8897,-152.6909 234.5076,-150.4008 231.2807,-148.1685 228.1916,-145.9408 224.9585,-143.8271 221.7371,-142.102 218.5091,-140.5403 214.9285,-138.569 211.104,-136.2953 207.131,-134.1689 203.5229,-132.3821 200.2856,-130.514 197.1077,-128.4181 194.3379,-126.6046 191.5937,-124.6548 188.4327,-122.4803 185.3167,-120.6143 182.0603,-118.6682 178.4476,-116.5151 174.9878,-114.6558 171.6171,-112.7026 168.1987,-110.4572 164.89,-108.3153 161.8708,-106.4209 158.7982,-104.4153 155.5461,-102.1515 152.4239,-99.8811 149.145,-97.6868 145.9177,-95.8554 142.8611,-93.8722 139.5083,-91.5688 135.9266,-89.4017 132.5134,-87.5155 129.2232,-85.5236 125.9723,-83.2199 122.8618,-80.8711 119.6159,-78.5174 116.2408,-76.2504 113.0254,-74.0631 109.9777,-71.9368 107.0513,-70.1336 104.1584,-68.2897 101.1045,-66.2468 98.1884,-64.6262 95.5444,-63.2762 92.9409,-61.6089 89.4108,-59.2205 84.7867,-56.0964 81.1264,-53.3778 77.6127,-51.0317 74.1313,-48.6973 70.8315,-46.4314 66.9276,-43.598 63.5063,-40.9281 60.2091,-38.6538 56.8736,-36.4151 53.8197,-34.2619 51.0544,-32.4145 47.8342,-30.5033 44.7297,-28.2239 42.2566,-25.9602 39.1588,-23.5818 35.7551,-21.1607 32.0973,-18.7672 28.3999,-16.421 25.3553,-14.1866 22.4023,-12.4138 19.5805,-10.6229 16.6309,-8.4295 13.5957,-6.6337 10.5865,-4.8458 7.1135,-2.6829 4.0944,-0.6782 1.7962,0.776 0.6732,1.3493 A1.508,1.508 0 0 1 -0.6732,-1.3493 Z" stroke-linecap="round" fill="#f2f2f2"/></g></g><g transform="matrix(1, 0, 0, 1, 283.2414, 878.7048)" opacity="1"><g transform="scale(1)"><path d="M0,-1.7411 T1.1186,-1.719 4.3316,-2.0862 8.0876,-2.6136 11.651,-3.2024 15.5298,-3.8311 19.212,-4.4237 22.7867,-5.0262 26.3993,-5.2282 29.8396,-5.7547 33.4042,-6.3498 37.3394,-6.4506 41.4452,-6.4801 45.5752,-6.5023 50.0082,-6.5213 53.963,-6.0902 57.1135,-5.5608 60.2101,-5.4483 63.4872,-5.4263 66.96,-5.4351 70.4838,-5.4566 74.0229,-5.482 77.5663,-5.504 81.1108,-5.5236 84.8004,-5.5432 88.8117,-5.565 92.7653,-5.5852 96.5708,-5.6018 100.6143,-5.6176 104.5756,-5.6314 108.6623,-5.646 113.2113,-5.6645 117.4613,-5.683 121.627,-5.7 126.1967,-5.7203 130.8798,-5.742 135.5931,-5.76 140.3149,-5.7773 145.0414,-5.7941 149.4877,-5.8076 153.8539,-5.8253 158.6112,-5.8457 163.6266,-5.8635 167.6606,-5.875 172.0467,-5.8864 176.8721,-5.8996 180.3831,-5.9067 183.6312,-5.9118 187.0173,-5.9161 190.1995,-5.9194 193.2742,-5.9131 197.5916,-5.8936 201.8227,-5.8752 204.9839,-5.8596 209.5309,-6.2638 214.1679,-6.7541 217.4635,-7.1295 220.5731,-7.6057 223.6058,-8.1282 226.601,-8.6856 229.7653,-9.0124 233.8719,-9.2192 238.5684,-9.3408 243.1501,-9.3806 246.9364,-9.3975 250.9744,-9.4111 255.9805,-9.4234 260.5155,-9.6817 265.1874,-10.1964 270.1737,-10.5311 274.0592,-10.3136 277.6932,-9.8437 282.1779,-9.6166 287.1139,-9.2456 291.8999,-8.7319 296.2568,-8.1578 300.194,-7.5839 303.6762,-7.3381 307.4645,-7.2758 310.9318,-6.9516 314.4494,-6.4499 318.4108,-6.2059 322.2312,-6.1296 326.2182,-5.6601 329.8749,-5.1091 333.2271,-4.9811 337.1369,-4.5933 340.7908,-4.0715 343.9441,-3.8445 347.3725,-3.7551 351.2709,-4.1024 355.205,-4.5588 358.0132,-4.6458 359.0389,-4.649 A2.2912,2.2912 0 0 1 359.2411,-0.071 T358.2192,0.0162 355.7731,0.2551 352.4323,0.8696 348.9986,1.3359 345.6685,1.3125 341.9455,1.1584 337.458,0.606 333.058,0.1435 329.2832,-0.0345 325.7169,-0.5849 322.1351,-1.0129 318.1834,-1.0993 313.6578,-1.4411 309.203,-1.9786 305.4512,-2.2892 301.6158,-2.4814 297.5943,-3.0848 293.3948,-3.6753 288.9954,-4.2422 284.3846,-4.7154 279.534,-4.8842 274.8622,-5.4265 270.355,-5.7882 265.878,-5.549 261.0519,-5.0562 255.9813,-4.7557 250.9768,-4.7656 246.9425,-4.775 243.1704,-4.7769 238.6484,-4.7584 234.0825,-4.6698 228.9097,-4.3324 222.9812,-3.5158 217.9875,-2.6227 214.4896,-2.2012 211.3938,-1.9846 208.2806,-1.5385 204.9924,-1.2204 201.8227,-1.2048 197.5916,-1.1864 193.2742,-1.1669 190.1995,-1.1606 187.0173,-1.1639 183.6312,-1.1682 180.3831,-1.1733 176.8721,-1.1804 172.0467,-1.1936 166.4166,-1.2077 160.9804,-1.224 156.2383,-1.2435 151.9815,-1.2626 147.4034,-1.2792 142.6776,-1.2936 137.9543,-1.3107 133.2354,-1.3283 128.5325,-1.3492 123.887,-1.3693 119.4567,-1.3872 115.2635,-1.4071 110.9104,-1.4264 106.5193,-1.4423 102.4759,-1.4566 98.6706,-1.4714 94.7092,-1.4867 90.6698,-1.5049 86.879,-1.5249 82.9788,-1.5469 79.1549,-1.5677 75.6105,-1.588 72.0676,-1.6138 68.5304,-1.641 65.0134,-1.6689 61.5576,-1.7124 58.3621,-1.8142 54.5706,-2.409 49.9691,-2.9386 45.5759,-2.9571 41.4493,-2.9756 37.9585,-2.9846 34.7845,-2.9498 31.6047,-2.7271 28.6048,-2.1707 25.3899,-1.7655 21.9787,-1.2378 18.3703,-0.6614 14.9155,-0.3756 11.618,0.1997 7.969,0.7877 4.1367,1.3493 1.1186,1.719 0,1.7411 A1.7411,1.7411 0 0 1 0,-1.7411 Z" stroke-linecap="round" fill="#f2f2f2"/></g></g><g transform="matrix(1, 0, 0, 1, 345.8545, 834.9938)" opacity="1"><g transform="scale(1)"><path d="M1.1959,-1.7938 T2.0278,-1.2272 4.4934,1.0178 7.8315,4.8331 10.9757,9.707 13.0379,13.7337 14.0703,16.4631 14.6965,19.5553 15.0818,23.9197 14.9827,28.1396 14.2006,31.7628 12.9742,35.4276 11.7207,38.1015 11.1796,39.2256 A2.3631,2.3631 0 0 1 6.9065,37.2062 T7.6446,35.4054 9.0645,32.134 10.1417,28.7191 10.4305,24.2535 9.9576,19.3244 8.9801,15.5769 7.8086,12.9101 5.9522,9.5104 3.7039,6.3586 1.6205,4.0864 -0.3534,2.3435 -1.1959,1.7938 A2.1559,2.1559 0 0 1 1.1959,-1.7938 ZM11.1348,37.1163 T11.2223,37.304 11.3099,37.4917 A2.3434,2.3434 0 0 1 7.1612,39.6724 T7.0563,39.4939 6.9513,39.3154 A2.3631,2.3631 0 0 1 11.1348,37.1163 ZM7.3254,37.2245 T8.0852,36.2879 8.845,35.3514 A2.1899,2.1899 0 0 1 12.415,37.8886 T11.7804,38.9141 11.1457,39.9396 A2.3434,2.3434 0 0 1 7.3254,37.2245 Z" stroke-linecap="round" fill="#f2f2f2"/></g></g><g transform="matrix(1, 0, 0, 1, 380.1145, 839.7193)" opacity="1"><g transform="scale(1)"><path d="M-1.9433,0 T-1.9268,-1.079 -3.6219,-0.9915 -6.1048,2.0678 -7.3896,6.5087 -7.4764,11.4719 -6.0832,15.3166 -3.1469,17.1403 1.0133,16.8072 4.6685,15.2157 7.8192,12.8458 10.7414,9.5176 12.3946,5.626 12.2959,1.6578 10.948,-1.6116 8.6202,-3.1849 6.1506,-3.1843 5.1765,-2.9808 A1.8053,1.8053 0 0 1 4.2835,-6.4792 T6.4791,-7.0424 10.2798,-7.1639 13.3271,-5.2175 15.7445,-1.2846 16.6855,3.9964 16.2169,8.2721 14.2286,11.9381 10.4619,16.0896 6.6269,18.9241 3.3419,20.5744 -1.4936,21.1498 -6.2773,20.3095 -9.413,17.1708 -11.2753,13.0483 -11.3204,8.4092 -10.4356,2.8608 -8.5602,-1.8354 -5.321,-5.1841 -1.8339,-6.0143 0.8038,-3.9619 1.9268,-1.1583 1.9433,0 A1.9433,1.9433 0 0 1 -1.9433,0 Z" stroke-linecap="round" fill="#f2f2f2"/></g></g><g transform="matrix(1, 0, 0, 1, 386.0214, 844.4448)" opacity="1"><g transform="scale(1)"><path d="M0.6942,1.7384 T-0.689,2.3298 -4.2708,3.8625 -8.3902,5.4565 -11.444,6.3409 -12.5769,6.5725 A1.8905,1.8905 0 0 1 -13.4231,2.8875 T-12.3026,2.6016 -9.37,1.6229 -5.5382,0.1206 -2.1064,-1.2135 -0.6942,-1.7384 A1.8719,1.8719 0 0 1 0.6942,1.7384 Z" stroke-linecap="round" fill="#f2f2f2"/></g></g><g transform="matrix(1, 0, 0, 1, 198.182, 559.7323)" opacity="1"><g transform="scale(1)"><path d="M1.9547,0.4876 T1.6554,1.606 0.3463,4.8002 -2.0793,9.4605 -4.1491,13.5422 -5.4505,16.4541 -6.675,19.391 -7.8474,22.3417 -8.7875,26.6856 -8.9632,32.0218 -7.3575,35.7239 -4.1017,37.2773 -0.0772,37.0923 3.7602,36.2733 5.3921,35.9115 A1.9583,1.9583 0 0 1 6.4279,39.6885 T4.8397,40.2097 1.7402,41.2337 -1.2425,42.005 -5.2742,41.8734 -9.1613,40.8045 -11.9941,37.7164 -13.7317,33.703 -13.8482,30.6213 -13.5172,27.3589 -12.8806,23.8055 -11.8355,20.6806 -10.5334,17.7097 -9.1804,14.7146 -7.7092,11.6745 -5.5425,7.5708 -3.3222,3.4434 -2.2135,0.6313 -1.9547,-0.4876 A2.0146,2.0146 0 0 1 1.9547,0.4876 Z" stroke-linecap="round" fill="#f2f2f2"/></g></g><g transform="matrix(1, 0, 0, 1, 195.8193, 579.8158)" opacity="1"><g transform="scale(1)"><path d="M-1.18,1.841 T-2.8568,1.9038 -5.9708,2.0116 -9.8643,2.4994 -13.7735,3.2243 -16.1031,3.829 -16.9799,4.1516 A1.9384,1.9384 0 0 1 -18.4601,0.5684 T-16.5533,-0.2472 -12.5692,-1.2808 -8.9591,-1.7778 -5.98,-2.0116 -2.8568,-1.9038 -1.18,-1.841 A1.841,1.841 0 0 1 -1.18,1.841 Z" stroke-linecap="round" fill="#f2f2f2"/></g></g><g transform="matrix(1, 0, 0, 1, 145.02, 566.8206)" opacity="1"><g transform="scale(1)"><path d="M0,-1.9467 T1.6768,-1.9223 5.4289,-1.8911 9.3298,-0.8878 11.1554,0.1089 A1.9152,1.9152 0 0 1 8.3453,2.712 T7.8832,2.2982 5.3874,1.8911 1.6768,1.9223 0,1.9467 A1.9467,1.9467 0 0 1 0,-1.9467 ZM11.6468,1.6779 T11.579,2.1816 11.1153,4.4684 9.6351,7.769 7.3855,10.5504 5.4871,12.776 4.7538,13.7375 A1.9265,1.9265 0 0 1 1.3271,11.9757 T1.7864,11.1577 3.375,9.1568 5.4757,6.853 7.0762,3.9412 7.7796,1.6466 7.8539,1.1429 A1.9152,1.9152 0 0 1 11.6468,1.6779 ZM4.4258,11.5178 T4.6009,11.8 6.7085,12.5072 10.2017,13.4497 13.1036,15.1872 15.1463,18.4213 15.6666,22.3023 14.4415,25.698 11.3345,28.702 6.6546,30.849 1.5891,31.6792 -2.559,31.5432 -6.7342,30.6456 -11.0183,28.8873 -12.8268,27.7319 A2.0169,2.0169 0 0 1 -10.7932,24.2481 T-9.8822,24.7193 -7.6104,25.7717 -3.6376,26.6857 1.1625,26.912 5.1542,26.5231 8.9503,24.8433 11.2981,21.7388 10.935,18.7627 8.277,16.7325 4.7449,15.7569 2.4036,14.869 1.655,14.1953 A1.9265,1.9265 0 0 1 4.4258,11.5178 Z" stroke-linecap="round" fill="#f2f2f2"/></g></g><g transform="matrix(1, 0, 0, 1, 222.991, 579.8158)" opacity="1"><g transform="scale(1)"><path d="M-1.0374,-2.0748 T-0.4743,-2.344 0.0887,-2.6132 A2.2976,2.2976 0 0 1 2.1438,1.4969 T1.5906,1.7858 1.0374,2.0748 A2.3197,2.3197 0 0 1 -1.0374,-2.0748 ZM-1.1694,-0.7923 T-1.1522,-0.9392 -1.135,-1.086 A2.2934,2.2934 0 0 1 3.4278,-0.6185 T3.4149,-0.4712 3.402,-0.3239 A2.2976,2.2976 0 0 1 -1.1694,-0.7923 ZM0.7604,1.4084 T0.1901,1.2909 -2.301,1.8535 -5.8757,3.417 -8.5613,5.8115 -10.3907,9.2284 -11.2605,12.6448 -9.5809,14.5457 -6.016,14.8139 -1.7949,13.6932 1.9035,12.0119 4.2959,10.4075 5.6991,7.7951 5.5646,5.996 5.1291,5.888 A2.0763,2.0763 0 0 1 6.5282,1.9783 T7.3185,2.3144 9.1629,4.4995 10.0044,8.0133 8.6309,11.791 5.2188,15.3183 1.3881,17.6349 -1.7209,18.976 -5.9419,19.5684 -11.1757,18.9172 -15.0196,15.8196 -16.0111,11.6735 -15.2558,8.4408 -13.3904,4.8033 -10.0123,0.8901 -5.842,-1.6503 -1.8644,-2.9435 0.7166,-3.2321 1.5324,-3.1129 A2.2934,2.2934 0 0 1 0.7604,1.4084 ZM7.5296,5.1238 T7.2569,5.4438 8.2547,7.4491 11.1274,9.6248 14.3687,10.4311 17.1784,10.3766 18.349,10.006 A1.8863,1.8863 0 0 1 19.451,13.614 T18.6499,13.8958 15.7827,14.3754 11.5379,13.9734 7.706,12.5747 4.743,10.4342 3.2597,6.7313 3.6068,3.5562 4.1277,2.7426 A2.0763,2.0763 0 0 1 7.5296,5.1238 Z" stroke-linecap="round" fill="#f2f2f2"/></g></g><g transform="matrix(1, 0, 0, 1, 248.9814, 582.1785)" opacity="1"><g transform="scale(1)"><path d="M1.9823,-0.3958 T2.2481,1.0047 2.7513,4.6391 3.0675,8.7884 3.1807,11.8302 3.2152,12.9567 A2.0356,2.0356 0 0 1 -0.8552,13.0433 T-0.8687,11.9164 -0.9281,8.9717 -1.1859,5.1699 -1.69,1.7908 -1.9823,0.3958 A2.0214,2.0214 0 0 1 1.9823,-0.3958 ZM-0.8556,13.011 T-0.8482,12.2984 -0.4067,10.0844 1.0316,6.8045 3.1476,3.3633 6.0004,-0.0053 9.6756,-2.6233 13.8193,-2.9126 17.2169,-0.2617 18.908,4.2485 19.5326,8.6955 19.6971,11.7943 19.7399,12.928 A2.0212,2.0212 0 0 1 15.7001,13.072 T15.6308,10.9641 15.4092,7.0158 14.6377,3.3622 12.6496,0.9738 9.9285,1.2157 7.5207,3.7098 5.5146,6.9048 3.8756,10.1227 3.2012,12.4058 3.2156,12.989 A2.0356,2.0356 0 0 1 -0.8556,13.011 Z" stroke-linecap="round" fill="#f2f2f2"/></g></g><g transform="matrix(1, 0, 0, 1, 291.511, 559.7323)" opacity="1"><g transform="scale(1)"><path d="M1.5336,1.5336 T0.4144,2.6497 -2.5203,6.0353 -5.0026,9.5848 -6.3075,12.3815 -7.5266,15.7685 -8.7065,19.5208 -9.5771,22.8218 -9.9771,25.7693 -10.2083,29.9388 -9.7137,34.1171 -8.27,36.8992 -5.8058,39.2962 -3.2503,41.0825 -2.3127,41.7165 A2.341,2.341 0 0 1 -4.7673,45.7035 T-5.7556,45.1518 -8.2682,43.6178 -11.3035,41.1282 -13.8574,37.3727 -15.1262,32.4275 -15.2365,28.2509 -14.9018,24.9921 -14.2955,21.5414 -13.2567,18.0062 -11.8815,14.0907 -10.3794,10.3507 -8.6388,7.0372 -6.6958,4.3136 -4.7423,1.9619 -2.6516,-0.4124 -1.5336,-1.5336 A2.1688,2.1688 0 0 1 1.5336,1.5336 Z" stroke-linecap="round" fill="#f2f2f2"/></g></g><g transform="matrix(1, 0, 0, 1, 308.0503, 570.3647)" opacity="1"><g transform="scale(1)"><path d="M-1.9893,0 T-1.9888,-0.2791 -1.9882,-0.5581 A1.9882,1.9882 0 0 1 1.9882,-0.5581 T1.9888,-0.2791 1.9893,0 A1.9893,1.9893 0 0 1 -1.9893,0 ZM1.1198,1.0848 T0.485,1.5141 -1.4456,3.4578 -3.9341,7.0459 -5.9575,11.2097 -7.0072,15.439 -5.9919,19.0992 -2.7116,21.1997 1.8392,22.0609 6.7495,22.4246 10.8721,21.9998 13.1689,19.8439 13.9106,16.1913 13.8812,12.1889 12.6551,8.3892 9.7209,6.163 5.6372,5.5196 3.4533,5.3017 A1.7639,1.7639 0 0 1 3.6267,1.7783 T5.9298,1.7811 10.224,2.0658 14.1761,3.6465 17.1632,7.0662 18.481,10.6314 18.6611,14.4704 18.027,19.3587 16.2955,23.5672 13.0148,26.1441 8.7352,26.9328 3.8219,26.6293 -1.6482,25.6255 -6.6848,23.4999 -10.1179,19.7452 -10.9849,14.7888 -9.6737,9.6993 -7.3237,4.8859 -4.331,0.7351 -1.8954,-1.6691 -1.1198,-2.2011 A1.9882,1.9882 0 0 1 1.1198,1.0848 Z" stroke-linecap="round" fill="#f2f2f2"/></g></g><g transform="matrix(1, 0, 0, 1, 316.32, 584.5413)" opacity="1"><g transform="scale(1)"><path d="M0.4457,1.7867 T-0.6669,2.0929 -4.258,2.6197 -8.0343,2.8938 -9.3322,2.9473 A1.7712,1.7712 0 0 1 -9.5678,-0.5873 T-8.2742,-0.7065 -4.8379,-1.0543 -1.5704,-1.5348 -0.4457,-1.7867 A1.8415,1.8415 0 0 1 0.4457,1.7867 Z" stroke-linecap="round" fill="#f2f2f2"/></g></g><g transform="matrix(1, 0, 0, 1, 334.0407, 560.9137)" opacity="1"><g transform="scale(1)"><path d="M1.7085,-0.8524 T2.2575,0.2721 3.5608,3.3292 4.8533,6.6757 5.7214,9.8179 6.4732,13.1305 7.1643,16.8386 7.5713,20.899 7.7916,24.6985 7.9285,28.3815 8.0076,31.7265 7.2215,35.6597 4.7555,39.7596 2.1484,42.1449 1.1966,42.8385 A1.9098,1.9098 0 0 1 -1.1966,39.8615 T-0.3147,39.081 1.5625,37.2176 3.1347,34.6994 3.702,31.7714 3.682,28.4906 3.6308,24.8964 3.4942,21.2507 3.224,17.5473 2.6301,13.9458 1.5204,9.4794 0.1282,4.9143 -1.1412,1.9652 -1.7085,0.8524 A1.9093,1.9093 0 0 1 1.7085,-0.8524 Z" stroke-linecap="round" fill="#f2f2f2"/></g></g><g transform="matrix(1, 0, 0, 1, 350.58, 573.9089)" opacity="1"><g transform="scale(1)"><path d="M0.8073,-1.618 T1.9331,-1.0767 4.4467,-0.183 7.7231,0.3282 9.6117,0.487 A1.88,1.88 0 0 1 9.2883,4.233 T7.175,4.0463 3.2387,3.3139 0.3042,2.193 -0.8073,1.618 A1.8082,1.8082 0 0 1 0.8073,-1.618 Z" stroke-linecap="round" fill="#f2f2f2"/></g></g><g transform="matrix(1, 0, 0, 1, 350.58, 583.3599)" opacity="1"><g transform="scale(1)"><path d="M-0.4482,-1.7967 T0.6667,-2.0937 3.951,-2.6707 8.1841,-3.4498 12.7292,-4.1117 15.2105,-4.2743 A1.9201,1.9201 0 0 1 15.5095,-0.4457 T13.1794,-0.2326 8.6649,0.4582 4.5867,1.1052 1.5706,1.5356 0.4482,1.7967 A1.8518,1.8518 0 0 1 -0.4482,-1.7967 Z" stroke-linecap="round" fill="#f2f2f2"/></g></g><g transform="matrix(1, 0, 0, 1, 389.5655, 564.4578)" opacity="1"><g transform="scale(1)"><path d="M2.1974,0.9406 T1.3825,2.9195 -0.8564,6.782 -3.4552,10.3164 -5.8029,13.6779 -7.8688,16.8183 -10.4365,19.516 -13.6514,21.8693 -15.1917,22.9544 A2.1653,2.1653 0 0 1 -17.8883,19.5656 T-15.5175,17.4743 -12.2036,13.8822 -10.0175,10.6506 -7.483,7.2164 -5.054,4.2191 -3.0569,0.9923 -2.1974,-0.9406 A2.3902,2.3902 0 0 1 2.1974,0.9406 Z" stroke-linecap="round" fill="#f2f2f2"/></g></g><g transform="matrix(1, 0, 0, 1, 375.389, 566.8206)" opacity="1"><g transform="scale(1)"><path d="M1.1374,-1.8988 T2.5361,-1.0489 5.1526,0.9581 7.5704,3.5579 10.1743,6.4764 12.886,9.2963 15.7247,12.1718 18.5242,14.6955 21.565,16.8454 25.2515,19.2656 27.1658,20.5281 A2.253,2.253 0 0 1 24.8142,24.3719 T23.1316,23.4338 19.0541,21.0251 15.2045,18.3398 12.2317,15.5278 9.4128,12.5152 6.6844,9.4578 3.4564,5.6817 0.2594,2.7233 -1.1374,1.8988 A2.2134,2.2134 0 0 1 1.1374,-1.8988 Z" stroke-linecap="round" fill="#f2f2f2"/></g></g><g transform="matrix(1, 0, 0, 1, 429.7324, 573.9089)" opacity="1"><g transform="scale(1)"><path d="M0,-1.5219 T1.1186,-1.5536 4.3293,-2.0438 7.9365,-2.8708 11.3441,-3.2237 13.9416,-2.9767 14.6466,-2.7452 A1.6333,1.6333 0 0 1 13.7134,0.3852 T12.2505,0.1651 8.4115,0.4724 4.1364,1.2926 1.1186,1.5536 0,1.5219 A1.5219,1.5219 0 0 1 0,-1.5219 Z" stroke-linecap="round" fill="#f2f2f2"/></g></g><g transform="matrix(1, 0, 0, 1, 430.9138, 583.3599)" opacity="1"><g transform="scale(1)"><path d="M-0.8529,-1.2794 T-0.0374,-1.8703 3.0876,-3.4765 7.7507,-5.1466 11.3964,-6.0413 12.6885,-6.2812 A1.5821,1.5821 0 0 1 13.3115,-3.1788 T12.027,-2.9012 8.5227,-1.9328 4.4367,-0.5067 1.7118,0.754 0.8529,1.2794 A1.5376,1.5376 0 0 1 -0.8529,-1.2794 Z" stroke-linecap="round" fill="#f2f2f2"/></g></g><g transform="matrix(1, 0, 0, 1, 452.1786, 562.0951)" opacity="1"><g transform="scale(1)"><path d="M0.76,-1.7755 T2.7048,-0.9113 6.0414,0.7198 9.3283,2.8506 12.6326,5.4615 15.1829,8.1308 17.0716,10.8463 18.0766,13.5733 18.0417,17.2982 16.689,21.0088 13.9812,23.7423 11.122,26.1908 8.8145,29.4922 7.7187,31.659 A2.0379,2.0379 0 0 1 4.1013,29.781 T4.6001,28.8072 6.0754,26.1089 8.3993,23.1579 11.1752,20.8814 13.5568,18.1756 14.3555,15.0508 13.4148,12.1268 11.4121,9.5071 8.8055,7.1653 5.2945,4.6922 1.2069,2.5858 -0.76,1.7755 A1.9313,1.9313 0 0 1 0.76,-1.7755 Z" stroke-linecap="round" fill="#f2f2f2"/></g></g><g transform="matrix(1, 0, 0, 1, 500.6152, 545.5558)" opacity="1"><g transform="scale(1)"><path d="M2.1591,0 T2.1413,1.6836 1.8153,4.771 1.0744,7.6787 0.1272,10.5914 -0.9052,13.5187 -1.6405,16.5089 -1.9699,19.8607 -2.1336,23.5865 -2.2007,27.5157 -1.942,31.3637 -1.2747,34.8684 0.3694,38.3867 3.4813,40.332 5.3424,40.4989 A2.1089,2.1089 0 0 1 6.4776,44.5611 T4.4782,45.1229 0.9814,45.2868 -2.1805,42.9526 -4.7681,39.3932 -6.1291,35.7757 -6.8116,31.646 -6.9869,27.3711 -6.8096,23.3094 -6.5095,19.2948 -5.9587,15.3814 -4.5312,10.768 -2.7931,5.6576 -2.1413,1.6699 -2.1591,0 A2.1591,2.1591 0 0 1 2.1591,0 Z" stroke-linecap="round" fill="#f2f2f2"/></g></g><g transform="matrix(1, 0, 0, 1, 505.3407, 571.5461)" opacity="1"><g transform="scale(1)"><path d="M0,1.7271 T-1.3935,1.7487 -4.9061,2.2199 -8.993,3.4562 -13.5629,4.7676 -16.1648,5.2921 A1.7919,1.7919 0 0 1 -16.9152,1.7879 T-15.6396,1.4909 -12.1968,0.496 -7.8979,-0.7071 -4.2851,-1.4913 -1.4019,-1.7487 0,-1.7271 A1.7271,1.7271 0 0 1 0,1.7271 Z" stroke-linecap="round" fill="#f2f2f2"/></g></g><g transform="matrix(1, 0, 0, 1, 527.7869, 573.9089)" opacity="1"><g transform="scale(1)"><path d="M0.3036,1.8244 T-1.3706,2.1007 -4.7893,3.1899 -7.6065,5.7355 -9.1312,9.5169 -8.318,12.7356 -5.165,13.4828 -1.6717,11.6257 0.5611,8.6867 1.4346,5.6737 1.5389,4.1508 1.3971,4.1361 A1.7052,1.7052 0 0 1 4.3769,2.4775 T4.6571,4.2564 4.4363,8.1609 3.207,11.5941 1.3802,13.9127 -0.9655,15.8132 -3.6567,17.064 -6.7896,17.4054 -10.3159,15.775 -12.6779,12.7876 -12.9989,9.9856 -12.3664,7.1607 -10.1647,3.2967 -6.0269,-0.214 -1.983,-1.5426 -0.3036,-1.8244 A1.8495,1.8495 0 0 1 0.3036,1.8244 ZM3.5771,4.8661 T3.4518,4.9198 3.3265,4.9734 A1.7019,1.7019 0 0 1 1.949,1.8608 T2.0729,1.8041 2.1969,1.7475 A1.7052,1.7052 0 0 1 3.5771,4.8661 ZM4.1577,4.1827 T3.7213,5.0167 3.4093,7.6999 3.9991,11.2005 5.7638,13.5856 8.0218,13.9792 8.9808,13.6392 A1.7836,1.7836 0 0 1 9.9192,17.0808 T8.1346,17.4889 4.3016,17.0094 1.2747,14.1833 -0.0253,10.2962 0.0632,6.1718 0.7954,3.3239 1.1177,2.6515 A1.7019,1.7019 0 0 1 4.1577,4.1827 Z" stroke-linecap="round" fill="#f2f2f2"/></g></g><g transform="matrix(1, 0, 0, 1, 544.3262, 578.6344)" opacity="1"><g transform="scale(1)"><path d="M1.8529,0.37 T1.5769,1.7682 1.0999,4.9016 0.8666,7.3098 0.8344,7.9828 A1.9265,1.9265 0 0 1 -3.0123,7.7609 T-2.9629,7.0175 -2.6653,4.3492 -2.135,1.0272 -1.8529,-0.37 A1.8895,1.8895 0 0 1 1.8529,0.37 ZM-0.4274,6.0624 T-0.1692,6.1547 0.0891,6.2469 A1.9307,1.9307 0 0 1 -1.2369,9.8735 T-1.4937,9.7774 -1.7505,9.6813 A1.9265,1.9265 0 0 1 -0.4274,6.0624 ZM-2.2821,7.1605 T-1.8701,6.3715 -0.4574,3.3473 1.4494,-0.5354 3.8441,-4.2603 7.5032,-7.0371 11.3083,-5.3974 13.7106,-0.3543 14.7305,4.7406 15.0867,9.4354 15.1908,11.7394 A2.1919,2.1919 0 0 1 10.8092,11.8806 T10.785,10.685 10.6991,7.5037 10.4075,2.9928 9.2196,-1.7774 6.9782,-2.192 4.9096,1.0943 3.0469,4.9689 1.5519,8.1737 1.1344,8.9599 A1.9307,1.9307 0 0 1 -2.2821,7.1605 Z" stroke-linecap="round" fill="#f2f2f2"/></g></g><g transform="matrix(1, 0, 0, 1, 578.5863, 556.1882)" opacity="1"><g transform="scale(1)"><path d="M1.5909,0.7938 T1.019,1.9056 -0.7136,5.3279 -2.4213,9.031 -3.5306,12.0055 -4.642,15.5033 -5.4481,19.1827 -5.8274,22.9707 -6.0123,26.9115 -6.1033,30.3974 -5.8882,34.4114 -4.7572,38.1152 -3.0256,40.2767 -2.1815,41.1787 A1.9161,1.9161 0 0 1 -4.8985,43.8813 T-5.796,43.0324 -8.2081,39.9487 -9.9643,34.7821 -10.1434,30.2504 -9.971,26.6708 -9.6563,22.5088 -9.0876,18.3443 -8.0947,14.356 -6.8516,10.7267 -5.6113,7.591 -3.8324,3.7679 -2.1353,0.3317 -1.5909,-0.7938 A1.7779,1.7779 0 0 1 1.5909,0.7938 Z" stroke-linecap="round" fill="#f2f2f2"/></g></g><g transform="matrix(1, 0, 0, 1, 591.5814, 562.0951)" opacity="1"><g transform="scale(1)"><path d="M1.7112,0.9787 T0.5947,2.9355 -1.3384,6.6871 -2.5219,10.385 -3.0869,14.4086 -3.3848,18.2236 -3.2522,21.4574 -2.1098,24.491 0.4643,26.334 4.2473,25.9747 8.3389,23.6402 10.8607,20.0572 11.6662,15.4607 11.0201,10.9768 8.7665,8.2797 5.2238,8.0118 3.0323,8.5969 A1.65,1.65 0 0 1 1.6877,5.5831 T2.768,5.0492 5.2943,3.9946 9.1065,4.2753 13.1799,7.2346 15.4918,11.1394 15.909,15.912 15.3818,20.6178 14.3337,23.6993 12.4427,26.3168 9.7227,28.5378 6.3715,30.2661 2.9448,31.1187 -0.3185,30.8864 -3.27,29.767 -5.5429,27.7157 -6.9498,24.9823 -7.5771,21.5807 -7.6144,17.8479 -7.1755,13.748 -6.3426,9.1163 -4.8734,4.8722 -2.832,0.9762 -1.7112,-0.9787 A1.9713,1.9713 0 0 1 1.7112,0.9787 Z" stroke-linecap="round" fill="#f2f2f2"/></g></g><g transform="matrix(1, 0, 0, 1, 599.8511, 578.6344)" opacity="1"><g transform="scale(1)"><path d="M-0.5316,1.5949 T-1.3728,1.3352 -3.838,0.9203 -7.4543,0.6987 -10.6457,0.5921 -11.8446,0.5521 A1.7324,1.7324 0 0 1 -11.7754,-2.9121 T-10.5758,-2.9042 -7.2489,-2.838 -3.1282,-2.4857 -0.3016,-1.8933 0.5316,-1.5949 A1.6812,1.6812 0 0 1 -0.5316,1.5949 Z" stroke-linecap="round" fill="#f2f2f2"/></g></g><g transform="matrix(1, 0, 0, 1, 611.6649, 558.551)" opacity="1"><g transform="scale(1)"><path d="M1.8265,-0.9113 T2.3638,0.2167 3.8294,3.394 5.6812,7.5465 7.3814,12.3725 8.4408,16.8401 8.8729,20.0436 9.1168,23.1256 9.0048,27.7151 7.0745,32.873 4.4647,35.6027 3.5787,36.1405 A2.2408,2.2408 0 0 1 1.1413,32.3795 T2.6652,31.0518 4.4416,27.3249 4.5807,22.0501 4.3064,17.7152 3.541,13.7699 1.9563,8.9266 0.1537,4.8496 -1.2475,2.0205 -1.8265,0.9113 A2.0412,2.0412 0 0 1 1.8265,-0.9113 Z" stroke-linecap="round" fill="#f2f2f2"/></g></g><g transform="matrix(1, 0, 0, 1, 644.7435, 566.8206)" opacity="1"><g transform="scale(1)"><path d="M0.5757,-1.4417 T1.9803,-0.8983 5.1486,0.483 8.3976,0.5385 9.8828,-0.2441 A1.6082,1.6082 0 0 1 11.3772,2.6041 T10.6555,2.995 7.9661,3.8993 4.1022,3.5001 0.8151,2.0146 -0.5757,1.4417 A1.5524,1.5524 0 0 1 0.5757,-1.4417 Z" stroke-linecap="round" fill="#f2f2f2"/></g></g><g transform="matrix(1, 0, 0, 1, 643.5621, 577.453)" opacity="1"><g transform="scale(1)"><path d="M0,-1.7983 T1.1186,-1.8112 3.8427,-1.8449 7.0054,-1.8699 9.8665,-2.3963 11.1704,-2.9186 A1.8526,1.8526 0 0 1 12.4496,0.5586 T10.5461,1.2163 7.0453,1.8699 3.8427,1.8449 1.1186,1.8112 0,1.7983 A1.7983,1.7983 0 0 1 0,-1.7983 Z" stroke-linecap="round" fill="#f2f2f2"/></g></g><g transform="matrix(1, 0, 0, 1, 714.4449, 534.9234)" opacity="1"><g transform="scale(1)"><path d="M1.4867,0.7418 T0.9213,1.8594 -0.5726,4.2481 -2.5433,6.7359 -5.0363,9.2152 -7.7408,11.6424 -10.2135,13.9767 -13.123,16.7926 -15.6734,19.2746 -16.5334,20.1106 A1.6952,1.6952 0 0 1 -18.9066,17.6894 T-18.0535,16.8463 -15.4949,14.3417 -12.5412,11.4925 -9.983,9.1141 -7.3864,6.844 -4.3442,3.6311 -2.0376,0.3779 -1.4867,-0.7418 A1.6615,1.6615 0 0 1 1.4867,0.7418 Z" stroke-linecap="round" fill="#f2f2f2"/></g></g><g transform="matrix(1, 0, 0, 1, 697.9056, 537.2861)" opacity="1"><g transform="scale(1)"><path d="M1.0923,-1.4595 T2.2144,-0.6161 4.929,1.9799 8.1943,5.4429 11.9847,8.8748 16.4044,12.2654 18.7065,13.9345 A1.7336,1.7336 0 0 1 16.7335,16.7855 T15.4374,15.9288 11.8293,13.3166 8.346,10.6814 5.4806,8.0322 2.4623,4.6922 0.0229,2.2905 -1.0923,1.4595 A1.823,1.823 0 0 1 1.0923,-1.4595 Z" stroke-linecap="round" fill="#f2f2f2"/></g></g><g transform="matrix(1, 0, 0, 1, 725.0773, 565.6392)" opacity="1"><g transform="scale(1)"><path d="M0,1.9346 T-2.2349,1.9461 -6.4872,1.9653 -10.6841,1.9874 -14.8493,2.0004 -19.0002,1.9976 -22.8645,1.9731 -26.0154,1.9279 -30.0889,2.4201 -32.7107,2.9341 A1.7926,1.7926 0 0 1 -33.4493,-0.5741 T-31.9783,-0.9121 -28.9956,-1.5781 -26.0239,-1.9279 -22.8645,-1.9731 -19.0002,-1.9976 -14.8493,-2.0004 -10.6841,-1.9874 -6.4872,-1.9653 -2.2349,-1.9461 0,-1.9346 A1.9346,1.9346 0 0 1 0,1.9346 Z" stroke-linecap="round" fill="#f2f2f2"/></g></g><g transform="matrix(1, 0, 0, 1, 696.7242, 579.8158)" opacity="1"><g transform="scale(1)"><path d="M0,-2.0517 T1.3977,-2.0281 5.0516,-1.992 9.2151,-1.9872 12.9435,-1.6137 15.8484,0.6995 16.2666,4.6584 14.0348,8.2142 10.7569,10.3862 8.3197,11.1685 7.5942,11.3079 A2.0014,2.0014 0 0 1 6.8036,7.3841 T7.4205,7.253 9.6566,6.3737 11.1991,3.8102 9.2151,1.9872 5.0516,1.992 1.3977,2.0281 0,2.0517 A2.0517,2.0517 0 0 1 0,-2.0517 ZM7.2784,7.3462 T8.2323,7.4015 10.6445,7.9278 13.5591,9.5925 15.8583,12.0732 16.1067,15.3511 14.0581,19.2083 10.3655,22.5189 6.4528,24.4028 1.7814,25.0948 -2.9158,25.428 -4.6156,25.5086 A1.8821,1.8821 0 0 1 -4.8444,21.7514 T-3.1473,21.6251 1.2003,21.2136 5.9965,20.1073 9.6343,18.2154 11.4501,14.8924 10.3825,12.0129 8.0555,11.3657 7.1194,11.3458 A2.0014,2.0014 0 0 1 7.2784,7.3462 Z" stroke-linecap="round" fill="#f2f2f2"/></g></g><g transform="matrix(1, 0, 0, 1, 735.7097, 552.6441)" opacity="1"><g transform="scale(1)"><path d="M0.5224,-1.5694 T2.193,-0.9896 6.1061,0.8484 10.0026,4.2001 13.1928,8.3447 15.518,11.6606 17.2158,14.038 19.2612,16.9826 21.5217,20.5502 23.8239,24.3719 26.183,28.668 28.5233,32.8364 30.6214,36.7532 32.5911,40.8184 34.2298,45.0295 35.4114,49.2929 36.3137,53.8131 36.8097,58.2479 37.3291,62.1225 37.8861,65.8427 38.198,69.9032 38.3603,74.0017 38.4454,78.113 38.4944,82.2384 38.2397,86.2298 37.8364,90.2818 37.3471,94.3724 36.5138,98.3574 35.8225,102.2622 35.1888,106.2748 34.2718,110.2261 33.2243,113.9929 32.0943,117.4254 30.9425,120.6301 29.7954,123.9477 28.3041,127.5022 26.6883,131.0552 25.3101,134.2587 23.6883,137.4729 21.6901,140.9065 19.8735,144.2729 18.1179,147.9522 16.0179,151.963 13.7197,155.596 11.392,158.9083 9.0892,162.2661 6.3506,165.5904 3.52,168.7395 1.041,171.9254 -1.7954,175.157 -4.6784,178.2576 -7.2441,181.2119 -9.7831,183.9626 -12.2417,186.5327 -14.7603,188.8201 -17.2025,190.8625 -20.383,193.505 -24.1089,196.2273 -26.3588,197.9177 -26.9245,198.5193 A2.2008,2.2008 0 0 1 -30.5966,196.0923 T-29.1614,194.7254 -26.3332,192.4377 -23.0991,190.0426 -18.9346,186.643 -15.4157,183.4873 -13.0074,180.9775 -10.5474,178.3251 -7.873,175.2721 -5.0579,172.2783 -2.3775,169.241 0.3075,165.8356 3.0304,162.8413 5.5342,159.8126 7.8749,156.4196 10.1128,153.2769 12.2416,149.9654 14.2968,146.1035 16.1805,142.2667 18.0921,138.7935 19.9913,135.6032 21.5284,132.612 22.9581,129.345 24.5433,125.9243 25.9486,122.6094 27.1207,119.2468 28.2516,116.1391 29.3349,112.8979 30.3599,109.2968 31.2484,105.6305 31.9226,101.5521 32.6541,97.5265 33.4613,93.886 33.9669,89.8705 34.3921,85.9633 34.6507,82.2745 34.6144,78.1903 34.5377,74.1458 34.3931,70.1913 34.1228,66.3933 33.5747,62.6244 33.0563,58.6428 32.6423,54.5338 31.8178,50.2643 30.7816,46.3308 29.2713,42.4103 27.3838,38.4684 25.3398,34.6141 23.0068,30.3999 20.7434,26.2124 18.5105,22.4178 16.4111,18.9561 13.7175,14.7966 10.4845,10.1987 7.7686,6.4193 4.7102,3.6976 1.1605,2.1059 -0.5224,1.5694 A1.6541,1.6541 0 0 1 0.5224,-1.5694 ZM-28.8058,199.5062 T-28.9878,199.5042 -29.1698,199.5023 A2.2044,2.2044 0 0 1 -29.0792,195.0944 T-28.8973,195.0999 -28.7153,195.1054 A2.2008,2.2008 0 0 1 -28.8058,199.5062 ZM-31.3093,197.0048 T-31.1411,195.8236 -30.4168,192.5909 -29.28,188.734 -28.1349,184.6787 -27.2063,181.6835 -26.8422,180.938 A2.2614,2.2614 0 0 1 -22.7778,182.922 T-23.4673,184.7983 -24.6561,188.1062 -25.7209,191.294 -26.5159,194.5277 -26.8427,196.7985 -26.9398,197.5918 A2.2044,2.2044 0 0 1 -31.3093,197.0048 ZM-22.7499,182.8626 T-23.1331,183.6109 -24.0526,185.9109 -25.1706,189.5689 -25.9073,193.8326 -26.1088,198.2909 -25.7459,202.4896 -24.643,205.8535 -22.3988,208.1495 -20.848,208.9795 A2.239,2.239 0 0 1 -21.9043,213.3313 T-22.6936,213.1235 -24.8545,211.9785 -27.542,209.2805 -29.3729,205.4702 -30.1824,201.9928 -30.4352,198.1751 -30.2309,193.3452 -29.5066,188.7411 -28.4327,185.0456 -27.3953,182.2558 -26.8701,180.9974 A2.2614,2.2614 0 0 1 -22.7499,182.8626 ZM-22.8062,209.4326 T-22.2053,208.9649 -20.9364,207.9744 -20.2683,207.4516 A2.1424,2.1424 0 0 1 -17.5317,210.7484 T-18.1686,211.3088 -19.3758,212.3737 -19.9461,212.8782 A2.239,2.239 0 0 1 -22.8062,209.4326 Z" stroke-linecap="round" fill="#4dabf7"/></g></g><g transform="matrix(1, 0, 0, 1, 688.4545, 748.7531)" opacity="1"><g transform="scale(1)"><path d="M1.676,1.1181 T0.5612,2.7973 -1.6545,6.4249 -3.9265,10.2977 -6.2658,14.0801 -8.3113,17.4325 -9.9254,20.2666 -12.3897,23.4699 -15.9216,25.4686 -17.726,25.6035 A1.9735,1.9735 0 0 1 -17.714,21.6565 T-16.9231,21.7994 -15.2379,20.7579 -13.5752,18.1845 -11.887,15.2395 -9.7933,11.8713 -7.4647,8.1963 -5.1154,4.2821 -2.7985,0.5563 -1.676,-1.1181 A2.0148,2.0148 0 0 1 1.676,1.1181 Z" stroke-linecap="round" fill="#4dabf7"/></g></g><g transform="matrix(1, 0, 0, 1, 671.9152, 754.66)" opacity="1"><g transform="scale(1)"><path d="M1.3625,-1.3625 T3.0301,0.3239 6.2017,3.7877 9.0716,7.3364 11.7308,10.8695 14.2169,14.0502 16.3993,16.8719 18.9662,20.3155 20.5433,22.3562 A2.0792,2.0792 0 0 1 17.2567,24.9038 T15.5998,22.7724 13.089,19.3582 10.9888,16.5255 8.5256,13.2222 6.0387,9.7472 3.389,6.3612 0.3234,3.0297 -1.3625,1.3625 A1.9269,1.9269 0 0 1 1.3625,-1.3625 Z" stroke-linecap="round" fill="#4dabf7"/></g></g><g transform="matrix(1, 0, 0, 1, 726.2587, 596.9458)" opacity="1"><g transform="scale(1)"><path d="M1.1452,-1.1452 T3.1123,0.7997 6.7287,4.6481 9.4949,7.7967 12.3063,10.7891 15.5113,14.3563 18.3794,17.9799 21.0468,21.8995 23.838,26.1777 26.7273,30.9803 29.6561,36.0222 32.6002,41.1875 35.3337,46.8027 38.1467,52.4813 41.0347,58.2622 43.7092,64.1705 46.2349,70.0783 48.6965,76.2918 50.8633,83.0154 52.8303,89.6086 54.9631,96.0875 56.9532,102.9452 58.8439,109.9087 60.6811,116.9306 62.233,124.3471 63.3453,132.2456 64.2105,140.0289 64.9492,147.7634 65.3506,154.9785 65.567,162.6967 65.6878,171.5231 65.7582,180.0801 65.8023,188.2214 65.2606,196.2835 64.1395,204.513 62.7077,212.494 60.818,220.14 58.7005,227.5274 56.4746,235.0329 54.1963,242.8811 51.8823,250.9314 49.546,259.0863 46.9009,267.3581 43.8003,275.4357 40.4884,283.3216 36.7576,291.1659 32.8235,298.6804 28.8079,306.2439 24.4268,313.9163 19.8658,321.3415 15.2034,328.3605 10.1986,335.1779 5.0416,341.8471 -0.2189,348.1899 -5.8284,354.3628 -11.5885,360.4003 -17.1102,366.33 -22.5795,371.9976 -28.3382,377.2876 -34.2239,382.0566 -40.1251,386.518 -46.0947,390.5789 -52.5284,393.6624 -59.3086,396.1271 -66.2364,398.2496 -73.0145,399.9412 -79.6636,401.3869 -86.5373,402.7048 -93.2981,403.6855 -99.9342,404.4761 -106.5102,405.1644 -113.2062,405.2522 -120.2401,404.4425 -127.0268,403.1685 -133.4168,401.6487 -139.9147,399.7147 -146.1575,397.5664 -151.9089,395.619 -157.4598,393.7525 -162.7309,391.6106 -167.7473,389.3611 -172.3939,387.0395 -176.6492,384.3433 -180.5766,381.5192 -184.3219,378.6272 -187.9729,375.706 -191.5723,372.7714 -194.9307,369.7743 -197.8131,367.0771 -200.2547,364.4481 -202.1884,361.8367 -204.4087,358.5723 -206.7837,354.9343 -208.6892,351.7079 -210.0979,348.564 -211.3022,345.5802 -212.7381,342.7823 -214.3497,339.4312 -215.4978,337.0863 -215.7782,336.7065 A1.9429,1.9429 0 0 1 -212.5251,334.581 T-211.9302,335.7661 -210.2712,338.9344 -208.6509,342.6284 -207.3769,345.6456 -205.9033,348.3454 -204.4665,351.2357 -202.5244,354.5933 -199.7736,358.5625 -197.3793,361.8122 -195.1392,364.2275 -192.3244,366.8658 -189.1085,369.7477 -185.5373,372.6643 -181.9454,375.5503 -178.3016,378.3734 -174.5715,381.0893 -170.6598,383.6011 -166.1729,385.8574 -161.2807,388.0584 -156.2316,390.1251 -150.6813,391.9991 -144.9086,393.9633 -138.8248,396.06 -132.5323,397.9448 -126.3202,399.4259 -119.8029,400.66 -113.2598,401.4322 -106.911,401.3443 -100.3931,400.6402 -93.851,399.8478 -87.2736,398.884 -80.4967,397.571 -73.9614,396.1428 -67.3894,394.4991 -60.6529,392.4199 -54.2316,390.0981 -48.3333,387.2763 -42.5613,383.3089 -36.7913,378.8998 -31.1304,374.2595 -25.5789,369.1176 -20.1958,363.4719 -14.6652,357.4752 -8.9941,351.4907 -3.5212,345.4513 1.6475,339.2207 6.7394,332.6402 11.6328,325.9839 16.2115,319.0951 20.7041,311.7887 25.021,304.2345 29.0283,296.6911 32.8955,289.3258 36.5451,281.6624 39.8154,273.8988 42.8409,266.0582 45.4571,257.9109 47.8087,249.7552 50.1448,241.7006 52.4449,233.8345 54.6703,226.3669 56.7629,219.1283 58.6169,211.748 60.0432,203.9433 61.1684,196.005 61.712,188.2333 61.697,180.1066 61.6554,171.5715 61.5636,162.8103 61.3766,155.1869 61.0126,148.1362 60.2989,140.4597 59.4673,132.786 58.4187,125.1409 56.9296,117.9077 55.1145,110.9177 53.2519,104.02 51.2976,97.2936 49.1317,90.7145 47.1874,84.1975 45.1094,77.7119 42.6937,71.5877 40.21,65.7432 37.6242,59.951 34.7671,54.1386 31.9829,48.4185 29.4,43.004 26.4923,37.849 23.6217,32.8486 20.8108,28.1364 18.081,23.9096 15.5768,20.1726 12.8767,16.6899 9.7522,13.1363 6.9168,10.0301 4.2725,6.9112 0.7994,3.112 -1.1452,1.1452 A1.6195,1.6195 0 0 1 1.1452,-1.1452 ZM-214.4507,337.5635 T-214.6536,337.5313 -214.8566,337.4991 A1.9417,1.9417 0 0 1 -214.2587,333.6619 T-214.0556,333.6929 -213.8526,333.7239 A1.9429,1.9429 0 0 1 -214.4507,337.5635 ZM-213.2542,337.0197 T-213.857,337.485 -214.7167,339.5199 -215.4847,342.6507 -216.5378,345.7221 -217.3148,349.1037 -218.0794,352.6979 -218.7864,355.7367 -218.9639,357.0529 A1.975,1.975 0 0 1 -222.8761,356.5071 T-222.6604,355.0046 -221.9518,352.0313 -221.0811,348.1472 -219.8128,343.6177 -218.4048,339.5711 -217.1562,336.227 -216.1431,334.4773 -215.8611,334.1412 A1.9417,1.9417 0 0 1 -213.2542,337.0197 ZM-222.7326,355.9955 T-222.3603,355.1869 -221.0957,352.2117 -219.5778,347.6415 -218.4235,343.861 -217.209,340.0512 -216.2167,336.0974 -215.9102,334.5768 A1.8433,1.8433 0 0 1 -212.2652,335.1285 T-212.3902,335.9694 -213.1311,338.9258 -214.4986,343.672 -215.9348,348.9668 -217.3675,353.4 -218.6114,356.3669 -219.1074,357.5645 A1.975,1.975 0 0 1 -222.7326,355.9955 ZM-213.8804,333.021 T-212.7166,333.2716 -210.7001,334.792 -208.515,338.1231 -206.4124,341.3964 -204.4011,344.6478 -202.477,347.694 -201.794,348.7008 A1.7191,1.7191 0 0 1 -204.606,350.6792 T-206.0146,348.7429 -208.7567,344.6026 -211.0222,341.1543 -212.6918,338.2272 -213.8623,336.6143 -214.295,336.6842 A1.8433,1.8433 0 0 1 -213.8804,333.021 Z" stroke-linecap="round" fill="#f76707"/></g></g><g transform="matrix(1, 0, 0, 1, 495.8897, 891.1093)" opacity="1"><g transform="scale(1)"><path d="M-1.7678,-1.1785 T-1.1797,-2.017 0.75,-3.9982 4.3769,-5.5114 8.5947,-4.9689 11.7176,-2.5957 13.3053,0.8423 13.7366,4.8062 13.0371,8.0248 10.996,10.2424 8.8599,11.6186 8.0312,12.0094 A2.0993,2.0993 0 0 1 6.3886,8.1454 T6.7267,8.0402 8.3998,7.106 9.6206,4.8097 9.2308,1.759 7.1093,-1.0284 4.0437,-1.3629 2.296,0.3426 1.7678,1.1785 A2.1246,2.1246 0 0 1 -1.7678,-1.1785 ZM6.2974,11.968 T5.9898,11.8199 5.6823,11.6718 A2.1,2.1 0 0 1 7.5079,7.8895 T7.8151,8.0381 8.1224,8.1868 A2.0993,2.0993 0 0 1 6.2974,11.968 ZM6.2754,7.7052 T7.3727,7.5643 10.1855,8.3284 12.8015,10.4481 14.2585,13.2406 14.5702,16.6258 13.2422,19.8943 10.4665,22.3597 5.998,23.8142 1.439,23.9913 -2.0727,23.4305 -3.8015,23.1428 A1.9008,1.9008 0 0 1 -3.2785,19.3772 T-0.2049,19.731 4.8351,19.8187 8.2946,18.5493 10.0732,15.9091 9.3724,12.9228 7.6504,11.7147 6.9147,11.8561 A2.1,2.1 0 0 1 6.2754,7.7052 Z" stroke-linecap="round" fill="#f76707"/></g></g><g transform="matrix(1, 0, 0, 1, 293.8738, 804.8686)" opacity="1"><g transform="scale(1)"><path d="M0.6433,-1.9298 T1.5174,-1.6217 4.2488,0.673 6.8324,4.1343 8.4242,7.064 10.3118,10.129 12.4399,13.4211 14.3531,16.6453 16.0496,19.8538 16.939,21.5202 A1.8324,1.8324 0 0 1 13.781,23.3798 T12.7551,21.7938 10.8173,18.8306 8.8087,15.7236 6.6813,12.3065 4.2118,7.8126 1.8651,3.718 0.157,2.1798 -0.6433,1.9298 A2.0342,2.0342 0 0 1 0.6433,-1.9298 Z" stroke-linecap="round" fill="#ffc034"/></g></g><g transform="matrix(1, 0, 0, 1, 290.3296, 798.9617)" opacity="1"><g transform="scale(1)"><path d="M-1.123,-1.8748 T0.3046,-2.6616 3.4842,-4.7271 7.4115,-6.7187 11.1299,-7.6018 14.4958,-6.9586 17.8912,-4.8925 20.5445,-1.6505 21.8869,2.0834 21.9063,5.8938 20.6876,9.9294 18.0245,13.7402 14.0387,16.9241 11.7394,18.2671 A2.0527,2.0527 0 0 1 9.5206,14.8129 T11.4716,13.4258 14.508,10.9075 16.6887,7.6432 17.6864,3.6647 16.9702,0.4647 15.2049,-1.8355 12.2644,-3.1764 9.0726,-3.2224 5.7667,-1.3869 2.4908,0.9872 1.123,1.8748 A2.1854,2.1854 0 0 1 -1.123,-1.8748 Z" stroke-linecap="round" fill="#ffc034"/></g></g><g transform="matrix(1, 0, 0, 1, 315.1386, 804.8686)" opacity="1"><g transform="scale(1)"><path d="M1.3505,-0.6738 T1.9059,0.4455 3.5307,3.0281 6.0253,4.8374 8.1813,3.6983 9.0023,0.5641 9.0254,-1.4757 8.9584,-1.8664 A1.4793,1.4793 0 0 1 11.1697,-3.8319 T11.6405,-2.426 12.0372,0.8283 11.6141,4.0733 10.0437,6.7036 6.947,8.1986 3.6655,7.4325 1.0153,4.6574 -0.7896,1.7918 -1.3505,0.6738 A1.5093,1.5093 0 0 1 1.3505,-0.6738 ZM11.3942,-2.2019 T11.2126,-2.0265 12.0852,-0.3853 14.5838,2.1901 18.0935,5.1873 22.247,8.907 24.9708,12.0505 26.4932,15.3693 26.852,19.6005 24.5254,23.3439 20.0076,25.6224 15.7574,26.225 11.6207,25.0964 7.7085,23.5601 6.4019,22.9959 A1.8673,1.8673 0 0 1 7.7781,19.5241 T9.1164,20.0084 12.6093,21.1791 16.6866,21.8032 20.2321,21.2784 22.6173,19.5591 22.6797,16.6012 21.0133,13.1829 18.8651,10.5413 16.6694,8.5703 14.1037,6.0208 11.0591,2.8889 8.8882,-0.3821 8.472,-2.7603 8.7339,-3.4964 A1.4793,1.4793 0 0 1 11.3942,-2.2019 Z" stroke-linecap="round" fill="#ffc034"/></g></g><g transform="matrix(1, 0, 0, 1, 325.771, 775.3341)" opacity="1"><g transform="scale(1)"><path d="M1.7753,-0.5909 T2.3164,1.0914 3.4133,4.1697 4.3279,7.3288 5.1367,10.703 6.1216,13.9977 7.2134,17.0744 8.3765,20.0835 9.929,23.013 12.3381,24.1011 15.6372,21.9304 17.4733,19.985 A1.9134,1.9134 0 0 1 20.3267,22.535 T19.3177,23.7561 17.151,26.2899 13.7998,28.4415 9.6944,28.3223 6.4038,25.2324 4.4952,21.4947 3.425,18.3452 2.3972,15.04 1.4783,11.5292 0.8017,8.3444 -0.0343,5.421 -1.2001,2.2621 -1.7753,0.5909 A1.871,1.871 0 0 1 1.7753,-0.5909 Z" stroke-linecap="round" fill="#ffc034"/></g></g><g transform="matrix(1, 0, 0, 1, 335.2221, 787.1479)" opacity="1"><g transform="scale(1)"><path d="M1.1708,1.1708 T0.3456,2.02 -1.4344,4.1213 -3.7413,6.4622 -6.7367,7.5992 -8.38,7.6472 A1.7407,1.7407 0 0 1 -8.16,4.1728 T-6.7668,3.8393 -4.1214,1.9927 -2.02,-0.3456 -1.1708,-1.1708 A1.6557,1.6557 0 0 1 1.1708,1.1708 Z" stroke-linecap="round" fill="#ffc034"/></g></g><g transform="matrix(1, 0, 0, 1, 342.3103, 777.6969)" opacity="1"><g transform="scale(1)"><path d="M0.9191,-0.9191 T2.0833,0.2767 3.2476,1.4724 A1.2552,1.2552 0 0 1 1.4724,3.2476 T0.2767,2.0833 -0.9191,0.9191 A1.2999,1.2999 0 0 1 0.9191,-0.9191 Z" stroke-linecap="round" fill="#ffc034"/></g></g><g transform="matrix(1, 0, 0, 1, 345.8545, 789.5106)" opacity="1"><g transform="scale(1)"><path d="M 1.18 0 m -2.633441917710341, 0 a 2.633441917710341,2.633441917710341 0 1,1 5.266883835420682,0 a 2.633441917710341,2.633441917710341 0 1,1 -5.266883835420682,0" stroke-linecap="round" fill="#ffc034"/></g></g><g transform="matrix(1, 0, 0, 1, 386.0214, 782.4224)" opacity="1"><g transform="scale(1)"><path d="M-1.6765,0.8365 T-2.232,-0.2841 -3.6915,-3.7508 -5.3424,-8.14 -6.7708,-12.0942 -8.3331,-15.7324 -10.0095,-19.3184 -11.4809,-22.6597 -12.9962,-25.3435 -14.6313,-27.8647 -16.129,-30.4409 -17.9668,-33.2629 -19.7671,-35.7002 -20.4318,-36.572 A1.9633,1.9633 0 0 1 -17.3682,-39.028 T-15.9805,-37.3785 -13.2433,-33.5148 -11.1633,-30.0734 -9.437,-27.3332 -7.7597,-24.2788 -6.3597,-20.977 -4.7055,-17.253 -3.1252,-13.3838 -1.7677,-9.4558 -0.2503,-5.2517 1.1157,-1.9532 1.6765,-0.8365 A1.8736,1.8736 0 0 1 -1.6765,0.8365 Z" stroke-linecap="round" fill="#ffc034"/></g></g><g transform="matrix(1, 0, 0, 1, 394.291, 750.5251)" opacity="1"><g transform="scale(1)"><path d="M2.0756,0 T2.0855,0.8372 2.1279,4.4674 2.1774,8.8969 2.2115,12.233 2.2243,15.3865 1.8195,19.4273 1.0523,23.0882 0.6855,24.1622 A1.9399,1.9399 0 0 1 -3.0455,23.0978 T-2.7905,21.992 -2.3776,18.8632 -2.2243,15.3865 -2.2115,12.233 -2.1774,8.8969 -2.1279,4.4674 -2.0855,0.8372 -2.0756,0 A2.0756,2.0756 0 0 1 2.0756,0 Z" stroke-linecap="round" fill="#ffc034"/></g></g><g transform="matrix(1, 0, 0, 1, 384.84, 756.432)" opacity="1"><g transform="scale(1)"><path d="M0,-2.0984 T1.1337,-2.0762 4.5336,-1.2625 8.5567,0.7033 12.1088,3.4963 15.3641,5.9239 18.9994,7.1307 21.1745,7.5285 A1.9234,1.9234 0 0 1 21.3455,11.3715 T20.4652,11.4555 17.3458,11.0768 13.063,9.4039 9.4045,6.6694 6.5013,4.2185 3.7099,2.673 1.1036,2.0762 0,2.0984 A2.0984,2.0984 0 0 1 0,-2.0984 Z" stroke-linecap="round" fill="#ffc034"/></g></g><g transform="matrix(1, 0, 0, 1, 388.3841, 739.8927)" opacity="1"><g transform="scale(1)"><path d="M-2.1964,0 T-2.1623,-1.1628 -1.2036,-4.1095 1.3085,-6.7516 4.3251,-7.785 7.5517,-6.8665 10.1545,-4.511 11.2274,-1.7994 11.564,1.5147 12.8822,2.4491 15.9268,0.5109 17.7223,-0.4974 A2.0496,2.0496 0 0 1 20.0777,2.8574 T18.5197,3.888 14.8256,6.0914 10.5638,7.0223 7.825,4.5406 7.1171,0.7547 5.9968,-2.1844 3.5497,-2.8631 2.1623,-1.0745 2.1964,0 A2.1964,2.1964 0 0 1 -2.1964,0 Z" stroke-linecap="round" fill="#ffc034"/></g></g><g transform="matrix(1, 0, 0, 1, 413.1931, 738.7113)" opacity="1"><g transform="scale(1)"><path d="M0.8591,-1.2887 T1.7124,-0.7306 3.7704,1.4964 5.763,5.2597 7.4732,8.8486 8.9857,11.2099 9.576,12.0766 A1.5995,1.5995 0 0 1 6.964,13.9234 T5.7334,12.2367 3.5459,8.2864 1.686,4.2139 -0.038,1.8469 -0.8591,1.2887 A1.5488,1.5488 0 0 1 0.8591,-1.2887 Z" stroke-linecap="round" fill="#ffc034"/></g></g><g transform="matrix(1, 0, 0, 1, 420.2814, 743.4368)" opacity="1"><g transform="scale(1)"><path d="M1.1058,1.4775 T0.0057,2.3319 -2.7165,4.7339 -5.7096,7.398 -7.0805,8.5145 A1.8558,1.8558 0 0 1 -9.4595,5.6655 T-8.7237,5.0353 -6.7024,3.408 -4.3985,1.2868 -2.243,-0.6575 -1.1058,-1.4775 A1.8455,1.8455 0 0 1 1.1058,1.4775 Z" stroke-linecap="round" fill="#ffc034"/></g></g><g transform="matrix(1, 0, 0, 1, 425.0069, 731.6231)" opacity="1"><g transform="scale(1)"><path d="M-0.49,-1.9643 T0.63,-2.2389 3.5369,-2.7647 7.2662,-2.2144 10.1268,0.1425 10.8809,3.5442 10.6436,5.8019 10.5706,6.2133 A2.0735,2.0735 0 0 1 6.5106,5.3679 T6.8574,4.5078 6.3883,2.3245 4.1485,1.1993 1.6073,1.6808 0.49,1.9643 A2.0245,2.0245 0 0 1 -0.49,-1.9643 ZM10.4393,4.9573 T10.7151,5.7188 12.6102,6.3346 15.9655,7.1076 18.2877,10.1422 17.8891,13.838 15.4134,17.1559 11.7307,20.2622 8.1558,22.2778 6.7724,22.9248 A1.8749,1.8749 0 0 1 5.0476,19.5952 T7.335,18.3086 10.9714,15.8365 13.1325,12.4612 12.103,10.1275 8.8326,9.039 7.0229,7.3591 6.6419,6.6239 A2.0735,2.0735 0 0 1 10.4393,4.9573 Z" stroke-linecap="round" fill="#ffc034"/></g></g><g transform="matrix(1, 0, 0, 1, 423.8255, 717.4465)" opacity="1"><g transform="scale(1)"><path d="M-0.9473,-1.8985 T0.1801,-2.4421 3.1655,-3.5111 6.5135,-4.174 9.5649,-3.8553 12.2693,-1.9785 13.5641,1.6079 12.8249,5.0629 11.1304,7.5396 10.3269,8.7271 A2.1168,2.1168 0 0 1 7.1421,5.9377 T7.5829,5.5131 8.7823,3.315 8.2872,0.7067 5.1003,0.3124 2.0572,1.3258 0.9473,1.8985 A2.1217,2.1217 0 0 1 -0.9473,-1.8985 ZM10.4172,6.0482 T10.5889,6.2681 10.7606,6.4879 A2.123,2.123 0 0 1 7.3853,9.0639 T7.2185,8.8402 7.0517,8.6166 A2.1168,2.1168 0 0 1 10.4172,6.0482 ZM7.2125,6.7532 T7.2997,6.5898 7.3868,6.4265 A2.1277,2.1277 0 0 1 11.1158,8.4765 T11.0245,8.6376 10.9333,8.7987 A2.123,2.123 0 0 1 7.2125,6.7532 ZM8.4834,5.4672 T9.4874,5.0668 12.1191,3.3186 15.0372,1.1998 16.9996,-0.0417 17.6717,-0.5122 A2.091,2.091 0 0 1 20.1283,2.8722 T19.4728,3.3654 17.0774,5.1149 13.7912,7.4847 11.132,9.0169 10.0192,9.4357 A2.1277,2.1277 0 0 1 8.4834,5.4672 Z" stroke-linecap="round" fill="#ffc034"/></g></g><g transform="matrix(1, 0, 0, 1, 368.3007, 742.2555)" opacity="1"><g transform="scale(1)"><path d="M-1.5678,-1.5678 T-0.7167,-2.4013 1.6146,-4.2729 4.5186,-6.6486 8.4679,-9.7969 12.546,-12.6906 15.7534,-14.9102 19.1131,-17.2084 22.5518,-19.544 26.3812,-21.9463 30.2458,-24.5543 33.8857,-27.2862 37.5794,-29.9119 40.8465,-32.3499 43.6048,-34.6766 46.2909,-36.8356 48.9615,-38.6471 52.3683,-40.4325 56.4321,-42.0754 60.4845,-43.7805 64.0881,-45.4748 67.4628,-47.0091 70.348,-48.1609 71.3648,-48.4399 A2.4697,2.4697 0 0 1 72.7552,-43.7001 T71.2312,-43.296 67.9815,-41.7669 64.4624,-39.8728 60.52,-38.0974 56.4217,-36.4193 52.5482,-34.7243 49.4505,-32.8729 46.8783,-30.8032 43.8951,-28.2831 40.513,-25.7603 36.8939,-23.2183 33.021,-20.3894 28.9934,-17.7412 25.2697,-15.4741 21.7987,-13.1946 18.4016,-10.972 15.1511,-8.8495 11.2861,-6.2973 7.3911,-3.3166 4.4994,-0.9862 2.3911,0.7269 1.5678,1.5678 A2.2172,2.2172 0 0 1 -1.5678,-1.5678 Z" stroke-linecap="round" fill="#ffc034"/></g></g><g transform="matrix(1, 0, 0, 1, 440.3648, 698.5444)" opacity="1"><g transform="scale(1)"><path d="M1.5361,-1.1497 T2.3885,-0.0427 4.2101,2.1442 6.0646,4.4661 8.4608,7.6256 10.8352,10.7051 12.5439,13.0253 13.389,14.1833 A1.9692,1.9692 0 0 1 10.231,16.5367 T8.6888,14.4946 6.062,11.355 3.5769,8.0494 1.1422,4.6258 -0.7141,2.2799 -1.5361,1.1497 A1.9187,1.9187 0 0 1 1.5361,-1.1497 Z" stroke-linecap="round" fill="#ffc034"/></g></g><g transform="matrix(1, 0, 0, 1, 365.9379, 763.5203)" opacity="1"><g transform="scale(1)"><path d="M1.0386,-1.5578 T1.8682,-0.9878 4.0538,1.0065 6.6077,3.7564 9.2559,6.8566 12.2399,9.9433 15.177,13.0295 17.7624,16.0756 19.9642,18.4819 21.7741,19.5413 22.5643,19.4662 A1.7975,1.7975 0 0 1 22.3357,23.0538 T21.6718,23.0406 19.1923,22.1236 16.1572,19.9363 13.6323,17.1292 11.0423,14.1455 8.147,10.8875 4.9808,7.4254 2.0381,4.2058 -0.1937,2.1041 -1.0386,1.5578 A1.8723,1.8723 0 0 1 1.0386,-1.5578 Z" stroke-linecap="round" fill="#ffc034"/></g></g></svg>