<svg xmlns="http://www.w3.org/2000/svg" direction="ltr" width="1337.129513081883" height="611.2927244329221" viewBox="-56.17270144682458 972.4716136174231 1337.129513081883 611.2927244329221" stroke-linecap="round" stroke-linejoin="round" data-color-mode="dark" class="tl-container tl-theme__force-sRGB tl-theme__dark" style="background-color: transparent;"><defs/><g transform="matrix(1, 0, 0, 1, 43.6717, 1004.4716)" opacity="1"><g transform="scale(1)"><path d="M2.9408,-0.3666 T3.2868,2.3062 4.1412,7.2635 4.9631,11.9549 5.4598,17.3353 5.7487,23.1932 5.9162,28.9347 5.9998,34.6385 5.6748,40.1997 4.7383,45.3526 3.8426,49.8647 2.9455,53.9508 1.7503,57.9952 1.146,60.0274 A2.6392,2.6392 0 0 1 -3.966,58.7126 T-3.1586,54.9701 -2.1253,48.8524 -1.4798,44.2789 -0.7572,39.8026 -0.4741,34.7032 -0.5109,29.0636 -0.5721,23.4319 -0.7171,17.8509 -1.0437,12.9421 -1.7842,8.2606 -2.6199,3.0435 -2.9408,0.3666 A2.9636,2.9636 0 0 1 2.9408,-0.3666 Z" stroke-linecap="round" fill="#ffc034"/></g></g><g transform="matrix(1, 0, 0, 1, 79.0092, 1085.041)" opacity="1"><g transform="scale(1)"><path d="M1.0846,2.1677 T-2.2479,3.8607 -9.148,6.8499 -16.3825,8.859 -23.8983,10.261 -31.5417,11.3226 -38.8939,12.2141 -46.4594,13.0151 -53.9031,13.4115 -60.4906,13.5435 -66.6436,13.502 -71.8932,13.3948 -76.6415,13.3078 -79.1415,13.2687 A1.9588,1.9588 0 0 1 -79.1785,9.3513 T-76.6798,9.2649 -71.9429,9.0882 -66.7328,8.858 -60.6581,8.5831 -54.1943,8.2722 -47.0148,7.8282 -39.5146,7.0347 -32.2356,6.1749 -24.807,5.1878 -17.6798,3.968 -11.0853,2.2676 -4.4356,-0.5166 -1.0846,-2.1677 A2.4239,2.4239 0 0 1 1.0846,2.1677 Z" stroke-linecap="round" fill="#ffc034"/></g></g><g transform="matrix(1, 0, 0, 1, 5.5073, 1151.4754)" opacity="1"><g transform="scale(1)"><path d="M2.1006,1.2606 T0.1116,4.6124 -3.9455,11.1268 -8.1003,17.3012 -11.9352,22.8811 -15.3327,27.5453 -18.5616,31.4463 -22.3278,34.4144 -26.5368,36.5615 -28.5592,37.5451 A2.4736,2.4736 0 0 1 -30.8008,33.1349 T-27.4024,31.4154 -22.5613,28.0303 -19.5639,24.4158 -16.2179,19.8993 -12.3368,14.4041 -8.1959,8.4396 -4.1227,2.0711 -2.1006,-1.2606 A2.4498,2.4498 0 0 1 2.1006,1.2606 Z" stroke-linecap="round" fill="#ffc034"/></g></g><g transform="matrix(1, 0, 0, 1, -22.7627, 1155.7159)" opacity="1"><g transform="scale(1)"><path d="M1.9522,-1.3955 T3.6345,0.9361 6.8914,5.5071 10.0172,10.3263 13.287,15.0973 16.6499,19.5388 20.0907,23.8707 23.6478,27.2518 27.664,29.9683 32.5517,33.0311 35.1836,34.6768 A2.4279,2.4279 0 0 1 32.6564,38.8232 T29.9875,37.238 24.8166,34.1699 20.1182,31.0239 16.0158,27.0864 12.5335,22.6019 9.1051,17.9249 5.8338,13.0045 2.8931,8.3196 -0.2903,3.7418 -1.9522,1.3955 A2.3997,2.3997 0 0 1 1.9522,-1.3955 Z" stroke-linecap="round" fill="#ffc034"/></g></g><g transform="matrix(1, 0, 0, 1, 32.3638, 1159.9564)" opacity="1"><g transform="scale(1)"><path d="M2.2632,-0.6791 T3.3138,2.6486 4.9488,8.4922 5.8548,13.4039 6.348,18.0752 6.5298,22.9002 6.5649,28.2386 6.59,31.0273 A2.3511,2.3511 0 0 1 1.89,31.1727 T1.7427,28.3877 1.4508,23.15 1.1843,18.5601 0.8271,14.2518 0.1191,9.7356 -1.3083,4.0349 -2.2632,0.6791 A2.3629,2.3629 0 0 1 2.2632,-0.6791 Z" stroke-linecap="round" fill="#ffc034"/></g></g><g transform="matrix(1, 0, 0, 1, 45.0852, 1172.6779)" opacity="1"><g transform="scale(1)"><path d="M-1.0956,2.5218 T-3.7647,2.9019 -8.9114,3.4918 -14.0524,3.7659 -19.2907,3.5058 -24.5119,2.8369 -27.1583,2.4921 A2.5099,2.5099 0 0 1 -26.5617,-2.4921 T-23.9087,-2.2026 -19.0742,-1.6679 -14.3362,-1.5438 -9.4326,-1.8065 -4.4049,-2.2349 -1.7244,-2.5218 A2.5414,2.5414 0 0 1 -1.0956,2.5218 Z" stroke-linecap="round" fill="#ffc034"/></g></g><g transform="matrix(1, 0, 0, 1, 60.6337, 1145.8214)" opacity="1"><g transform="scale(1)"><path d="M1.0454,-2.8773 T4.7036,-1.4864 10.7669,1.0179 15.1281,3.9675 18.1575,7.6513 19.1564,12.9402 17.1758,18.8754 13.4918,22.4631 9.8569,24.5291 7.9999,25.5009 A3.0601,3.0601 0 0 1 5.1265,20.0971 T7.9445,18.6506 12.3456,14.6754 12.2766,9.7603 8.4865,6.4071 2.6516,4.1588 -1.0454,2.8773 A3.0613,3.0613 0 0 1 1.0454,-2.8773 ZM9.5685,22.2223 T9.6771,22.8491 9.7857,23.4758 A3.0372,3.0372 0 0 1 3.8202,24.6206 T3.689,23.9982 3.5579,23.3757 A3.0601,3.0601 0 0 1 9.5685,22.2223 ZM8.0512,21.2794 T8.7754,21.6209 12.482,23.0702 17.3666,24.8446 21.2771,26.2024 26.322,28.4094 30.6086,31.4768 31.3499,36.9078 27.9037,43.5277 22.7574,47.1189 18.1769,48.6546 13.404,49.6873 8.2107,49.8283 2.635,49.3914 -0.1482,49.1616 A2.5159,2.5159 0 0 1 0.1482,44.1384 T2.939,44.2374 7.9403,44.4245 12.1719,44.1551 16.4065,43.1436 21.4148,40.9993 25.3962,37.1572 24.0223,33.5435 19.4428,31.6154 15.4907,30.3144 10.292,28.5651 6.2906,27.1338 5.5546,26.817 A3.0372,3.0372 0 0 1 8.0512,21.2794 Z" stroke-linecap="round" fill="#ffc034"/></g></g><g transform="matrix(1, 0, 0, 1, 160.9921, 1094.9355)" opacity="1"><g transform="scale(1)"><path d="M0.4316,-2.3714 T4.1179,-1.7692 10.8607,-1.1949 17.5654,-1.2216 21.2136,-1.2205 A2.6305,2.6305 0 0 1 21.1864,4.0405 T17.5384,4.0039 10.3982,3.9058 3.2372,3.1078 -0.4316,2.3714 A2.4104,2.4104 0 0 1 0.4316,-2.3714 Z" stroke-linecap="round" fill="#ffc034"/></g></g><g transform="matrix(1, 0, 0, 1, 295.2744, 1014.3661)" opacity="1"><g transform="scale(1)"><path d="M2.1316,0.4269 T1.5189,3.7799 0.6001,9.5092 -0.2269,13.9784 -1.307,18.0682 0.061,20.9428 5.0191,23.6858 10.8209,28.7074 14.331,35.6931 14.3229,41.636 10.568,46.5526 5.4388,50.0307 1.1833,51.0274 -3.2894,51.1673 -7.7486,50.0882 -11.7317,47.5507 -15.3346,44.3099 -17.0747,42.7089 A2.2977,2.2977 0 0 1 -14.0253,39.2711 T-12.2281,40.8079 -7.7549,44.1617 -1.5593,45.9515 4.7547,44.8392 9.0335,41.5459 10.1837,36.8301 7.6203,31.7748 2.7102,27.665 -2.7956,24.4057 -6.0854,19.9867 -5.4662,14.2341 -3.9827,8.7186 -2.8575,2.9036 -2.1316,-0.4269 A2.1739,2.1739 0 0 1 2.1316,0.4269 Z" stroke-linecap="round" fill="#ffc034"/></g></g><g transform="matrix(1, 0, 0, 1, 292.4474, 1005.8851)" opacity="1"><g transform="scale(1)"><path d="M1.9754,-2.0737 T5.6543,-1.0758 12.3095,0.7346 17.4174,1.9567 21.6167,2.5847 25.771,2.9539 30.2487,3.2724 32.6398,3.44 A2.2138,2.2138 0 0 1 32.3802,7.86 T29.9859,7.7465 25.3832,7.5315 20.8979,7.1697 16.3145,6.4104 11.1025,5.0003 4.5208,3.0813 0.8446,2.0737 A2.1494,2.1494 0 0 1 1.9754,-2.0737 Z" stroke-linecap="round" fill="#ffc034"/></g></g><g transform="matrix(1, 0, 0, 1, 363.1223, 1034.1551)" opacity="1"><g transform="scale(1)"><path d="M2.2686,0 T2.2238,1.1753 0.9895,4.1317 -1.768,7.6033 -5.5706,11.2364 -9.6836,14.5538 -13.2517,16.9857 -16.7518,19.176 -18.5624,20.3089 A2.2864,2.2864 0 0 1 -21.0176,16.4511 T-17.6795,14.2895 -12.6225,10.871 -8.8517,7.8292 -4.4894,3.8524 -2.2238,0.8303 -2.2686,0 A2.2686,2.2686 0 0 1 2.2686,0 Z" stroke-linecap="round" fill="#ffc034"/></g></g><g transform="matrix(1, 0, 0, 1, 339.0928, 1041.2226)" opacity="1"><g transform="scale(1)"><path d="M1.5417,-1.7631 T4.2315,0.5598 9.1102,5.1816 13.1312,9.7169 16.5332,13.727 19.6461,17.5358 22.8294,21.1677 26.4461,24.6915 28.4224,26.6186 A2.2734,2.2734 0 0 1 25.2976,29.9214 T23.2641,28.0547 19.2719,24.3797 15.8325,20.6855 12.7243,16.9383 9.4016,12.947 5.7422,8.6451 1.1182,4.1181 -1.5417,1.7631 A2.3421,2.3421 0 0 1 1.5417,-1.7631 Z" stroke-linecap="round" fill="#ffc034"/></g></g><g transform="matrix(1, 0, 0, 1, 405.5272, 1102.003)" opacity="1"><g transform="scale(1)"><path d="M-0.89,1.257 T-4.9077,-0.0585 -15.248,-2.6227 -28.1743,-4.4817 -41.2682,-5.3911 -54.516,-5.8176 -66.1822,-5.9934 -77.672,-6.0846 -90.6444,-5.8331 -102.8301,-5.383 -113.9182,-4.8982 -123.4285,-4.4255 -132.9043,-4.3171 -143.9661,-4.336 -149.7687,-4.3197 A2.7509,2.7509 0 0 1 -149.8913,-9.8203 T-144.0938,-10.0626 -133.1438,-10.5723 -123.8684,-11.1365 -114.2855,-11.9402 -103.1002,-12.6117 -90.7835,-13.0902 -77.5639,-13.3352 -66.0013,-13.1032 -54.2182,-12.6655 -40.7323,-11.9279 -27.2057,-10.6286 -13.7175,-8.2964 -3.1144,-5.4387 0.89,-4.077 A2.8116,2.8116 0 0 1 -0.89,1.257 Z" stroke-linecap="round" fill="#ffc034"/></g></g><g transform="matrix(1, 0, 0, 1, 283.9664, 1150.0619)" opacity="1"><g transform="scale(1)"><path d="M2.4063,1.094 T0.7985,4.8031 -2.7444,11.6547 -7.0721,17.8348 -11.8346,23.168 -16.5961,27.0935 -21.0602,29.589 -25.1765,31.284 -27.2202,32.1132 A2.65,2.65 0 0 1 -29.3198,27.2468 T-25.7526,25.6266 -20.2209,22.6608 -16.1659,19.2304 -11.8099,14.411 -7.7117,8.9373 -4.1427,2.5521 -2.4063,-1.094 A2.6433,2.6433 0 0 1 2.4063,1.094 Z" stroke-linecap="round" fill="#ffc034"/></g></g><g transform="matrix(1, 0, 0, 1, 264.1774, 1152.8889)" opacity="1"><g transform="scale(1)"><path d="M1.6775,-1.4916 T4.351,1.518 9.1511,7.1481 13.0848,12.1539 16.2059,16.5019 18.7851,20.0678 21.5285,23.5479 23.0068,25.425 A2.3073,2.3073 0 0 1 19.3932,28.295 T17.8995,26.43 15.0035,22.8095 12.3847,19.1836 9.4479,14.9651 5.7012,10.0613 0.9986,4.4986 -1.6775,1.4916 A2.2448,2.2448 0 0 1 1.6775,-1.4916 Z" stroke-linecap="round" fill="#ffc034"/></g></g><g transform="matrix(1, 0, 0, 1, 286.7934, 1124.6189)" opacity="1"><g transform="scale(1)"><path d="M1.0261,-3.0792 T3.7123,-3.3696 8.7741,-3.4985 13.1439,-2.8876 18.2804,-1.1352 23.513,1.7138 26.6581,5.1222 27.713,6.9843 A3.0985,3.0985 0 0 1 22.132,9.6779 T20.3508,7.5999 16.1631,4.4617 10.4386,2.8638 4.4573,2.7027 1.7939,3.0792 A3.103,3.103 0 0 1 1.0261,-3.0792 ZM27.3741,10.226 T26.8312,10.9321 24.3328,13.3633 19.2935,16.3556 14.8189,18.4296 13.428,19.2363 A3.0247,3.0247 0 0 1 9.3344,14.7825 T10.4168,13.8989 13.874,12.0974 18.8137,9.5107 21.9247,7.1391 22.4709,6.4362 A3.0985,3.0985 0 0 1 27.3741,10.226 ZM13.5322,14.883 T14.1167,15.5071 18.3823,16.7863 26.0083,18.2571 32.2022,19.6588 34.4514,20.2447 A2.434,2.434 0 0 1 33.3886,24.9953 T29.193,24.2212 21.2116,22.8833 14.0438,21.4188 9.9459,19.8269 9.2302,19.1358 A3.0247,3.0247 0 0 1 13.5322,14.883 Z" stroke-linecap="round" fill="#ffc034"/></g></g><g transform="matrix(1, 0, 0, 1, 336.2658, 1151.4754)" opacity="1"><g transform="scale(1)"><path d="M3.596,-0.4864 T4.2819,2.5186 5.3576,8.202 5.9594,13.3136 5.9262,18.8496 5.4107,25.2044 5.1405,28.4564 A2.318,2.318 0 0 1 0.5195,28.0836 T0.7741,24.8304 1.2544,18.8415 1.3204,13.8054 0.845,9.0074 -0.1233,3.498 -0.776,0.4864 A2.2395,2.2395 0 0 1 3.596,-0.4864 Z" stroke-linecap="round" fill="#ffc034"/></g></g><g transform="matrix(1, 0, 0, 1, 347.5738, 1168.4374)" opacity="1"><g transform="scale(1)"><path d="M0,2.4638 T-2.0055,2.4941 -6.0707,2.542 -10.2186,2.5465 -14.41,2.5021 -18.8566,2.4424 -21.2,2.4139 A2.4139,2.4139 0 0 1 -21.2,-2.4139 T-18.8566,-2.4424 -14.41,-2.5021 -10.2186,-2.5465 -6.0707,-2.542 -2.0055,-2.4941 0,-2.4638 A2.4638,2.4638 0 0 1 0,2.4638 Z" stroke-linecap="round" fill="#ffc034"/></g></g><g transform="matrix(1, 0, 0, 1, 377.2573, 1141.5809)" opacity="1"><g transform="scale(1)"><path d="M2.5474,-0.9256 T3.948,2.729 6.134,9.0936 7.6992,15.2554 8.8925,22.9997 9.4225,31.1997 9.6959,39.3926 9.853,43.6778 A2.7866,2.7866 0 0 1 4.287,43.9622 T4.0066,39.6832 3.4498,31.6253 2.842,23.8986 1.8764,16.6436 0.6192,10.8314 -1.2756,4.6261 -2.5474,0.9256 A2.7104,2.7104 0 0 1 2.5474,-0.9256 Z" stroke-linecap="round" fill="#ffc034"/></g></g><g transform="matrix(1, 0, 0, 1, 459.2401, 1093.522)" opacity="1"><g transform="scale(1)"><path d="M0.7541,-2.2624 T3.7749,-1.3227 10.7122,-0.5389 16.8526,-0.7896 21.4818,-0.9909 23.8872,-1.0974 A2.5114,2.5114 0 0 1 24.1728,3.9174 T21.7708,4.0846 17.2778,4.4027 12.749,4.7689 7.7743,4.6891 2.2417,3.3282 -0.7541,2.2624 A2.3848,2.3848 0 0 1 0.7541,-2.2624 Z" stroke-linecap="round" fill="#ffc034"/></g></g><g transform="matrix(1, 0, 0, 1, 462.0671, 1116.1379)" opacity="1"><g transform="scale(1)"><path d="M-0.435,-2.616 T1.5632,-2.9858 7.2264,-4.1827 13.3653,-5.7683 18.8264,-7.4242 21.8135,-8.3216 A2.7906,2.7906 0 0 1 23.4265,-2.9784 T20.4418,-2.073 14.5713,-0.3082 8.073,1.2865 2.4478,2.3189 0.435,2.616 A2.6519,2.6519 0 0 1 -0.435,-2.616 Z" stroke-linecap="round" fill="#ffc034"/></g></g><g transform="matrix(1, 0, 0, 1, 774.4502, 1150.0619)" opacity="1"><g transform="scale(1)"><path d="M0,2.7085 T-2.0055,2.7136 -6.7398,2.7296 -14.1512,3.0985 -22.6019,3.9854 -30.4983,4.8239 -38.3408,5.6233 -45.8086,6.3937 -52.5343,6.8286 -59.7723,7.082 -68.2813,7.2384 -76.7666,7.3356 -85.0515,7.056 -92.1121,6.5808 -99.8105,6.0104 -108.6693,5.0405 -116.9136,4.2161 -125.2578,3.4554 -132.6953,2.7213 -140.2711,2.0033 -148.5889,1.2921 -156.3577,0.587 -163.4658,-0.1099 -170.2311,-0.804 -176.8007,-1.4994 -182.1324,-1.8518 -187.7654,-2.3922 -193.7435,-3.0165 -198.4081,-3.7287 -204.3076,-4.7361 -208.1744,-5.2386 A3.2653,3.2653 0 0 1 -207.3856,-11.7214 T-205.2329,-11.4814 -199.4545,-10.605 -193.0505,-9.7505 -187.1578,-9.1424 -181.6823,-8.619 -176.0863,-8.227 -169.5312,-7.5101 -162.8086,-6.7899 -155.7396,-6.0685 -148.0236,-5.3479 -139.6493,-4.6192 -132.0484,-3.8796 -124.6439,-3.1221 -116.2416,-2.3182 -107.9311,-1.4392 -99.3332,-0.4423 -91.6692,0.1792 -84.8012,0.6913 -76.8073,1.0196 -68.3595,1.0048 -59.9598,0.9486 -52.875,0.7987 -46.3795,0.4682 -38.9017,-0.2137 -31.0666,-0.9045 -23.1709,-1.6284 -14.3466,-2.4316 -6.7402,-2.7296 -2.0055,-2.7136 0,-2.7085 A2.7085,2.7085 0 0 1 0,2.7085 Z" stroke-linecap="round" fill="#ffc034"/></g></g><g transform="matrix(1, 0, 0, 1, 583.6279, 1056.771)" opacity="1"><g transform="scale(1)"><path d="M3.2932,0 T3.3312,2.6714 3.9664,10.0766 4.7296,17.9983 5.0252,25.5434 5.238,33.5233 5.3758,40.3955 5.4567,45.6891 5.4685,49.1452 5.4542,50.557 A4.0526,4.0526 0 0 1 -2.651,50.5787 T-2.6728,49.1703 -2.6828,45.7204 -2.6434,40.4406 -2.584,33.595 -2.5204,25.6961 -2.5076,18.3327 -2.6275,12.6536 -3.0487,7.7014 -3.3312,2.6782 -3.2932,0 A3.2932,3.2932 0 0 1 3.2932,0 ZM-1.068,47.3547 T-0.3126,46.8594 0.4429,46.3642 A3.9172,3.9172 0 0 1 5.2171,52.5758 T4.5442,53.1784 3.8713,53.781 A4.0526,4.0526 0 0 1 -1.068,47.3547 Z" stroke-linecap="round" fill="#ffc034"/></g></g><g transform="matrix(1, 0, 0, 1, 611.8979, 1090.695)" opacity="1"><g transform="scale(1)"><path d="M-1.7648,-1.7648 T-1.0493,-2.4593 -0.3339,-3.1539 A2.4662,2.4662 0 0 1 3.1539,0.3339 T2.4593,1.0493 1.7648,1.7648 A2.4958,2.4958 0 0 1 -1.7648,-1.7648 Z" stroke-linecap="round" fill="#ffc034"/></g></g><g transform="matrix(1, 0, 0, 1, 658.5433, 1068.079)" opacity="1"><g transform="scale(1)"><path d="M-2.8307,-0.4036 T-2.435,-2.7336 -1.7359,-8.5023 -2.5214,-12.8546 -3.6103,-13.7683 A2.6666,2.6666 0 0 1 -1.4593,-18.6486 T-0.4252,-18.14 2.2243,-14.6703 3.6064,-8.0008 3.1019,-1.9444 2.8307,0.4036 A2.8593,2.8593 0 0 1 -2.8307,-0.4036 ZM-1.0548,-13.9902 T-1.7025,-13.5882 -3.688,-8.8008 -5.7362,-1.558 -6.7678,4.3329 -7.244,10.6385 -7.4673,16.6529 -7.5541,23.1548 -7.2455,30.0631 -6.4269,36.1767 -5.1378,41.0437 -1.574,43.9263 1.1923,44.907 A3.1605,3.1605 0 0 1 1.6277,51.213 T0.3344,51.3724 -4.5362,50.598 -9.6063,47.7025 -12.1594,43.0412 -13.713,37.1062 -14.4831,30.3339 -14.6488,22.9418 -14.3613,16.265 -13.8744,9.9634 -13.0028,3.0499 -11.477,-3.4606 -9.4992,-8.9397 -7.0762,-14.3032 -4.8406,-17.8456 -4.0148,-18.4267 A2.6666,2.6666 0 0 1 -1.0548,-13.9902 Z" stroke-linecap="round" fill="#ffc034"/></g></g><g transform="matrix(1, 0, 0, 1, 691.0538, 1077.9735)" opacity="1"><g transform="scale(1)"><path d="M2.6412,0.6609 T2.0276,3.3499 0.7229,8.2261 -1.3861,13.3743 -3.8494,18.4692 -6.5598,23.1799 -9.9021,27.5526 -13.2725,31.1354 -14.9654,32.9224 A2.7017,2.7017 0 0 1 -18.9546,29.2776 T-16.0245,25.9648 -11.6445,20.3145 -9.135,15.8563 -6.7646,11.164 -4.7724,6.6263 -3.3661,1.9997 -2.6412,-0.6609 A2.7226,2.7226 0 0 1 2.6412,0.6609 Z" stroke-linecap="round" fill="#ffc034"/></g></g><g transform="matrix(1, 0, 0, 1, 675.5053, 1085.041)" opacity="1"><g transform="scale(1)"><path d="M1.9669,-1.6865 T3.9858,0.6411 8.1266,5.5462 11.6705,9.7687 14.2761,13.0569 16.9982,16.0476 19.7944,18.1099 21.0518,18.8247 A2.6896,2.6896 0 0 1 18.5282,23.5753 T15.6513,22.0137 10.809,17.7168 7.428,13.2492 4.0149,8.9522 0.0252,4.0369 -1.9669,1.6865 A2.5909,2.5909 0 0 1 1.9669,-1.6865 Z" stroke-linecap="round" fill="#ffc034"/></g></g><g transform="matrix(1, 0, 0, 1, 691.0538, 1055.3575)" opacity="1"><g transform="scale(1)"><path d="M-1.603,-2.406 T0.4323,-3.6976 4.273,-6.0439 8.3107,-7.7773 14.3151,-8.6267 21.1409,-6.6285 24.5603,-0.7196 22.6345,6.3363 18.6215,10.908 16.2799,13.7402 15.6596,15.3165 A2.956,2.956 0 0 1 10.378,12.6601 T11.8004,10.1752 15.7959,5.8597 19.3382,2.0139 18.8544,-1.6611 14.7176,-3.2811 8.7941,-1.7986 3.5788,1.0251 1.603,2.406 A2.8911,2.8911 0 0 1 -1.603,-2.406 ZM14.7985,11.6281 T15.6815,12.2909 19.9748,13.3169 25.942,13.9702 28.4991,14.2603 A2.7094,2.7094 0 0 1 28.0409,19.6597 T25.4716,19.5148 20.4243,19.231 15.5739,18.463 12.2203,17.0914 11.2392,16.3486 A2.956,2.956 0 0 1 14.7985,11.6281 Z" stroke-linecap="round" fill="#ffc034"/></g></g><g transform="matrix(1, 0, 0, 1, 730.6317, 1082.214)" opacity="1"><g transform="scale(1)"><path d="M1.891,-1.1341 T2.9325,0.5272 4.6507,4.3333 5.7764,10.5914 6.3607,17.1726 6.496,19.6404 A2.2609,2.2609 0 0 1 1.984,19.9396 T1.7922,17.4755 1.4361,12.9178 0.6545,7.662 -0.9269,2.8169 -1.891,1.1341 A2.205,2.205 0 0 1 1.891,-1.1341 Z" stroke-linecap="round" fill="#ffc034"/></g></g><g transform="matrix(1, 0, 0, 1, 741.9397, 1092.1085)" opacity="1"><g transform="scale(1)"><path d="M0.3209,2.2508 T-2.0117,2.6299 -6.6542,3.1888 -11.9991,3.4861 -16.6695,3.6372 -18.3048,3.6706 A2.2619,2.2619 0 0 1 -18.4552,-0.8506 T-16.8213,-0.926 -12.2605,-1.1665 -7.1726,-1.5034 -2.6662,-1.963 -0.3209,-2.2508 A2.2736,2.2736 0 0 1 0.3209,2.2508 Z" stroke-linecap="round" fill="#ffc034"/></g></g><g transform="matrix(1, 0, 0, 1, 761.7287, 1068.079)" opacity="1"><g transform="scale(1)"><path d="M2.6869,-0.8967 T3.3504,1.1331 4.1032,5.6351 4.2189,10.5376 4.2745,15.5843 4.325,20.2482 4.363,25.0451 4.3558,31.4842 5.5282,38.2951 6.7247,41.4162 A2.6724,2.6724 0 0 1 1.7553,43.3838 T0.9495,41.5235 -0.6848,37.495 -1.5395,31.562 -1.5514,25.05 -1.521,20.2569 -1.4848,15.6 -1.4008,8.924 -2.0118,2.8779 -2.6869,0.8967 A2.8326,2.8326 0 0 1 2.6869,-0.8967 Z" stroke-linecap="round" fill="#ffc034"/></g></g><g transform="matrix(1, 0, 0, 1, 777.2772, 1041.2226)" opacity="1"><g transform="scale(1)"><path d="M2.0119,-1.2796 T4.3645,2.3893 8.3212,8.6798 11.8643,15.0768 15.2441,22.9584 17.8158,31.233 19.5738,38.6583 20.8665,45.5846 21.5794,53.1317 20.9328,60.277 19.081,66.0885 15.704,70.9234 11.0531,74.4003 6.6452,76.1073 2.7324,77.1209 0.7957,77.6132 A2.8082,2.8082 0 0 1 -0.7957,72.2268 T1.0976,71.5876 6.0035,69.7126 10.5491,67.1114 12.973,63.8906 14.5175,59.4964 15.2354,53.6216 14.732,46.6136 13.7168,39.8779 12.3609,32.7956 10.2982,24.9583 7.4242,17.4892 4.1717,11.2453 0.3134,4.9658 -2.0119,1.2796 A2.3844,2.3844 0 0 1 2.0119,-1.2796 Z" stroke-linecap="round" fill="#ffc034"/></g></g><g transform="matrix(1, 0, 0, 1, 602.0034, 1206.6018)" opacity="1"><g transform="scale(1)"><path d="M2.623,1.3068 T2.3085,1.9859 0.8121,4.7974 -3.2017,11.3985 -8.0816,18.3275 -11.8383,22.9509 -15.3085,26.7647 -18.8547,30.0713 -20.6394,31.727 A2.8484,2.8484 0 0 1 -24.6006,27.633 T-21.5088,24.5168 -16.7078,19.0646 -13.1013,14.4572 -9.4409,9.7629 -6.6779,5.5884 -4.5029,1.9246 -2.9754,-0.6473 -2.623,-1.3068 A2.9305,2.9305 0 0 1 2.623,1.3068 Z" stroke-linecap="round" fill="#ffc034"/></g></g><g transform="matrix(1, 0, 0, 1, 579.3875, 1205.1883)" opacity="1"><g transform="scale(1)"><path d="M2.34,-1.87 T3.6477,-0.1746 6.0651,3.1669 8.4075,6.6246 11.038,10.8035 13.5546,15.4806 16.3827,21.0927 19.6465,26.7209 22.3453,30.5751 23.4896,32.1035 A2.9227,2.9227 0 0 1 18.9104,35.7365 T17.6823,34.2746 14.3702,29.893 10.6554,23.6896 8.0962,18.289 5.9463,13.9456 2.5571,8.4432 -0.9753,3.5187 -2.34,1.87 A2.9955,2.9955 0 0 1 2.34,-1.87 Z" stroke-linecap="round" fill="#ffc034"/></g></g><g transform="matrix(1, 0, 0, 1, 633.1004, 1210.8423)" opacity="1"><g transform="scale(1)"><path d="M2.0014,-0.1535 T2.4529,4.1852 2.6913,12.6116 2.2601,21.1104 2.0423,25.5213 A2.0439,2.0439 0 0 1 -2.0423,25.3587 T-1.9087,20.9443 -1.6729,12.6968 -1.786,4.5086 -2.0014,0.1535 A2.0073,2.0073 0 0 1 2.0014,-0.1535 Z" stroke-linecap="round" fill="#ffc034"/></g></g><g transform="matrix(1, 0, 0, 1, 647.2354, 1223.5638)" opacity="1"><g transform="scale(1)"><path d="M0.7585,2.2727 T-1.2242,3.0213 -5.8069,4.2318 -10.4084,4.9133 -14.7131,4.8878 -19.0039,4.4691 -23.2916,4.1055 -25.5919,3.9153 A2.5099,2.5099 0 0 1 -25.2881,-1.0953 T-22.9816,-1.0062 -18.5279,-0.8397 -12.7841,-0.684 -7.0014,-0.8491 -2.7868,-1.6827 -0.7585,-2.2727 A2.3959,2.3959 0 0 1 0.7585,2.2727 Z" stroke-linecap="round" fill="#ffc034"/></g></g><g transform="matrix(1, 0, 0, 1, 659.9568, 1208.0153)" opacity="1"><g transform="scale(1)"><path d="M0.4434,-2.6665 T2.4509,-2.3184 7.373,-0.6971 12.2156,3.0338 13.3316,9.1284 10.6581,14.5185 7.3188,16.6243 5.841,16.9768 A2.8532,2.8532 0 0 1 5.459,11.2832 T6.5404,10.5886 7.596,7.5552 5.5669,4.2603 1.5601,2.9854 -0.4434,2.6665 A2.7031,2.7031 0 0 1 0.4434,-2.6665 ZM6.1086,11.3139 T8.2639,11.6859 12.6651,12.965 16.897,15.076 20.4564,17.8088 22.716,21.3029 22.7194,26.1886 20.4647,30.6999 16.1338,33.4945 10.7041,35.5276 5.8682,36.8031 1.452,37.7088 -0.7991,38.1683 A2.8935,2.8935 0 0 1 -2.0209,32.5117 T2.0851,31.5766 8.6382,29.8186 12.9577,28.3389 16.2217,25.4026 15.1693,21.1155 10.8771,18.3184 7.1101,17.2376 5.1914,16.9461 A2.8532,2.8532 0 0 1 6.1086,11.3139 Z" stroke-linecap="round" fill="#ffc034"/></g></g><g transform="matrix(1, 0, 0, 1, 561.012, 1182.5724)" opacity="1"><g transform="scale(1)"><path d="M2.7935,1.3977 T1.1789,4.7668 -1.2037,10.4086 -3.0972,15.4105 -5.3941,22.0323 -7.1749,29.8259 -8.1376,36.4866 -7.7852,42.9227 -6.161,50.3762 -3.9175,57.0007 -0.9393,63.2969 0.7142,66.7457 A2.3941,2.3941 0 0 1 -3.5342,68.9543 T-5.4071,65.6196 -9.1204,59.0439 -12.2422,51.8325 -14.4534,43.1832 -15.0331,35.5603 -13.959,28.2346 -11.8751,19.6396 -9.3783,12.9169 -7.2469,7.8192 -4.523,1.9167 -2.7935,-1.3977 A3.1237,3.1237 0 0 1 2.7935,1.3977 Z" stroke-linecap="round" fill="#ffc034"/></g></g><g transform="matrix(1, 0, 0, 1, 695.2943, 1181.1589)" opacity="1"><g transform="scale(1)"><path d="M1.2666,-2.5288 T2.6104,-1.8288 6.4401,1.9783 9.8352,7.434 11.5826,12.6989 13.2182,18.8009 14.4928,25.4771 15.2381,32.8208 15.6677,40.368 15.5841,47.5194 14.5145,54.6305 12.509,61.3004 9.9882,66.9211 7.126,71.6461 3.5107,75.3797 -0.5521,78.4311 -2.5218,79.8693 A2.7361,2.7361 0 0 1 -5.9582,75.6107 T-2.8263,72.8565 1.4353,68.2777 3.7173,64.1114 5.8865,59.2064 7.7095,53.5143 8.8244,47.3194 9.0805,40.6388 8.8891,33.3557 8.4562,26.5153 7.4949,20.2333 6.1536,14.4287 4.7921,9.7826 2.7479,5.8184 0.062,3.1674 -1.2666,2.5288 A2.8283,2.8283 0 0 1 1.2666,-2.5288 Z" stroke-linecap="round" fill="#ffc034"/></g></g><g transform="matrix(1, 0, 0, 1, 740.5262, 1176.9184)" opacity="1"><g transform="scale(1)"><path d="M1.7381,0.2167 T1.4438,2.8988 0.2484,8.4734 -1.805,14.5138 -4.2265,21.2948 -6.8159,28.5475 -9.1151,35.9975 -10.6017,42.5038 -11.7136,48.6073 -12.6272,54.7914 -12.763,59.8643 -11.6851,65.2205 -8.2684,70.9805 -5.756,73.7007 A1.7926,1.7926 0 0 1 -8.384,76.1393 T-9.8509,74.6069 -13.4266,69.8708 -15.9657,64.5514 -16.5479,59.778 -16.3524,54.2441 -15.3629,47.9124 -14.138,41.6837 -12.4652,34.9402 -10.0346,27.3993 -7.4547,20.163 -5.1382,13.4071 -3.2723,7.7175 -2.1107,2.4508 -1.7381,-0.2167 A1.7515,1.7515 0 0 1 1.7381,0.2167 Z" stroke-linecap="round" fill="#ffc034"/></g></g><g transform="matrix(1, 0, 0, 1, 774.4502, 1195.2938)" opacity="1"><g transform="scale(1)"><path d="M2.4697,0.8236 T0.8364,5.8504 -2.3409,14.9331 -5.7792,22.2949 -8.9407,27.8901 -12.0263,32.5377 -15.5678,36.5258 -19.0513,39.8045 -20.8116,41.4532 A2.6037,2.6037 0 0 1 -24.4284,37.7068 T-21.3276,34.6289 -16.6754,29.4784 -13.8028,25.0932 -10.7386,19.8851 -7.4435,13.0838 -4.1805,4.1772 -2.4697,-0.8236 A2.6034,2.6034 0 0 1 2.4697,0.8236 Z" stroke-linecap="round" fill="#ffc034"/></g></g><g transform="matrix(1, 0, 0, 1, 753.2477, 1208.0153)" opacity="1"><g transform="scale(1)"><path d="M1.7581,-2.2 T3.3996,-0.8254 6.6421,1.9721 9.5522,4.9251 12.2119,8.2347 15.2619,12.2356 18.4837,16.2316 21.4913,20.0836 24.5898,24.4003 26.203,26.6395 A2.7167,2.7167 0 0 1 21.857,29.9005 T20.1581,27.7258 16.9718,23.6669 13.9058,19.8456 10.6738,15.6267 6.829,10.3945 3.1423,6.1198 -0.0555,3.4978 -1.7581,2.2 A2.8161,2.8161 0 0 1 1.7581,-2.2 Z" stroke-linecap="round" fill="#ffc034"/></g></g><g transform="matrix(1, 0, 0, 1, 777.2772, 1174.0914)" opacity="1"><g transform="scale(1)"><path d="M0.5088,-3.0601 T2.5085,-2.6828 6.4116,-1.7332 10.9493,0.2626 15.6247,3.7151 18.4348,9.0993 19.2037,12.4544 A3.1666,3.1666 0 0 1 12.8704,12.4521 T12.813,10.9604 10.6993,7.5256 6.0785,4.6109 1.5026,3.3497 -0.5088,3.0601 A3.1021,3.1021 0 0 1 0.5088,-3.0601 ZM17.4656,15.2794 T16.6741,15.6749 13.4772,17.0229 13.2692,18.8667 17.6986,20.2491 21.466,21.0189 23.0013,21.2976 A2.7589,2.7589 0 0 1 22.2387,26.7624 T19.1079,26.4434 12.932,24.9587 8.1835,22.6227 5.8344,18.773 7.1381,14.0854 11.0706,11.2497 13.831,10.0248 14.6085,9.6272 A3.1666,3.1666 0 0 1 17.4656,15.2794 Z" stroke-linecap="round" fill="#ffc034"/></g></g><g transform="matrix(1, 0, 0, 1, 806.9606, 1203.7748)" opacity="1"><g transform="scale(1)"><path d="M2.1278,-1.3301 T3.8351,1.3233 6.8537,6.4787 8.9269,11.4805 10.7101,17.589 12.107,23.0413 12.4827,24.8849 A2.6514,2.6514 0 0 1 7.2973,25.9951 T6.5622,22.686 5.1227,17.4209 3.9001,13.4165 2.2638,9.0453 -0.4909,4.0263 -2.1278,1.3301 A2.5093,2.5093 0 0 1 2.1278,-1.3301 Z" stroke-linecap="round" fill="#ffc034"/></g></g><g transform="matrix(1, 0, 0, 1, 822.5091, 1219.3233)" opacity="1"><g transform="scale(1)"><path d="M-1.0528,2.1485 T-3.053,2.5139 -7.9535,3.1808 -14.3871,4.1976 -17.9204,4.913 A2.1331,2.1331 0 0 1 -18.8396,0.747 T-15.0012,-0.164 -8.4759,-1.3102 -3.778,-1.847 -1.7672,-2.1485 A2.178,2.178 0 0 1 -1.0528,2.1485 Z" stroke-linecap="round" fill="#ffc034"/></g></g><g transform="matrix(1, 0, 0, 1, 832.4036, 1202.3613)" opacity="1"><g transform="scale(1)"><path d="M2.6249,-1.3125 T3.6259,0.6977 5.2494,4.6583 6.2136,8.7352 6.7385,13.325 7.0191,18.0678 7.1722,22.5536 7.1861,27.7129 7.1002,32.2821 7.0561,33.898 A2.8161,2.8161 0 0 1 1.4239,33.942 T1.3545,32.3269 1.1778,27.7933 1.0446,22.7165 0.9615,18.3615 0.7939,13.94 0.0338,8.5146 -1.6204,3.3133 -2.6249,1.3125 A2.9348,2.9348 0 0 1 2.6249,-1.3125 Z" stroke-linecap="round" fill="#ffc034"/></g></g><g transform="matrix(1, 0, 0, 1, 843.7116, 1172.6779)" opacity="1"><g transform="scale(1)"><path d="M1.5075,-1.9388 T4.5015,0.4202 9.8707,5.1048 14.3022,10.4519 17.8107,16.4512 20.07,22.1167 21.7019,29.2628 22.6662,38.5586 22.56,47.9634 21.5012,56.7671 19.9146,63.9145 17.2375,70.3196 14.0645,76.1313 10.0705,80.9796 4.6814,85.9221 2.0173,88.3338 A2.9219,2.9219 0 0 1 -2.0173,84.1062 T0.5162,81.5576 4.9897,77.0878 8.1671,72.8419 10.991,67.7333 13.3566,62.2937 14.9933,55.8508 16.2362,47.7521 16.692,39.0406 16.1917,30.4479 15.0445,23.9433 13.2958,18.928 10.4646,13.5459 6.6718,8.722 1.5151,4.2577 -1.5075,1.9388 A2.4559,2.4559 0 0 1 1.5075,-1.9388 Z" stroke-linecap="round" fill="#ffc034"/></g></g><g transform="matrix(1, 0, 0, 1, 889.9003, 1147.0416)" opacity="1"><g transform="scale(1)"><path d="M0,-3.129 T1.8234,-3.165 6.6537,-3.268 12.0469,-3.3716 17.5623,-3.3752 22.5607,-3.3004 24.43,-3.2584 A3.2584,3.2584 0 0 1 24.43,3.2584 T22.5607,3.3004 17.5623,3.3752 12.0469,3.3716 6.6537,3.268 1.8234,3.165 0,3.129 A3.129,3.129 0 0 1 0,-3.129 Z" stroke-linecap="round" fill="#ffc034"/></g></g><g transform="matrix(1, 0, 0, 1, 963.1876, 1075.04)" opacity="1"><g transform="scale(1)"><path d="M2.6891,0.7679 T2.0787,2.8955 0.6479,7.8828 1.8519,12.9912 7.0485,17.4449 11.5809,21.4331 14.2696,26.8462 14.4858,34.3405 11.7044,39.7304 6.5684,42.8346 0.2674,43.6432 -4.9187,42.0513 -7.2708,41.2296 A2.7893,2.7893 0 0 1 -5.5892,35.9104 T-3.1922,36.5901 1.6529,37.6582 5.9833,36.6004 8.6582,33.0546 8.7581,28.7925 6.0292,24.3275 1.1759,20.2164 -3.1942,17.1074 -5.0915,12.3624 -4.6675,6.2043 -3.2943,1.3615 -2.6891,-0.7679 A2.7966,2.7966 0 0 1 2.6891,0.7679 Z" stroke-linecap="round" fill="#ffc034"/></g></g><g transform="matrix(1, 0, 0, 1, 961.9018, 1073.7543)" opacity="1"><g transform="scale(1)"><path d="M0.8408,-1.9603 T2.9807,-1.0729 7.8042,0.9302 12.8871,2.3486 16.7398,2.797 18.1931,2.9424 A2.206,2.206 0 0 1 17.8069,7.3376 T16.3505,7.2274 12.0333,6.7553 6.2829,5.1152 1.2763,2.8986 -0.8408,1.9603 A2.133,2.133 0 0 1 0.8408,-1.9603 Z" stroke-linecap="round" fill="#ffc034"/></g></g><g transform="matrix(1, 0, 0, 1, 1018.4745, 1095.6119)" opacity="1"><g transform="scale(1)"><path d="M2.0142,1.2587 T0.5466,3.73 -3.0391,8.6102 -7.5004,13.1901 -12.0367,17.0889 -16.0458,20.0355 -19.802,22.5602 -21.742,23.866 A2.4451,2.4451 0 0 1 -24.538,19.854 T-22.6414,18.486 -19.1176,15.9371 -15.4558,13.0879 -11.2076,9.4535 -7.0777,5.5102 -3.5879,1.1372 -2.0142,-1.2587 A2.3752,2.3752 0 0 1 2.0142,1.2587 Z" stroke-linecap="round" fill="#ffc034"/></g></g><g transform="matrix(1, 0, 0, 1, 1003.0456, 1096.8977)" opacity="1"><g transform="scale(1)"><path d="M1.9417,-1.3589 T4.0749,1.6792 7.9754,7.2161 11.0092,11.6783 14.053,16.8039 16.7028,21.6107 17.5753,23.2552 A2.4459,2.4459 0 0 1 13.2847,25.6048 T12.369,23.9839 9.7379,19.3395 6.856,14.41 3.9977,9.9761 0.1821,4.4036 -1.9417,1.3589 A2.3699,2.3699 0 0 1 1.9417,-1.3589 Z" stroke-linecap="round" fill="#ffc034"/></g></g><g transform="matrix(1, 0, 0, 1, 1064.7612, 1058.3254)" opacity="1"><g transform="scale(1)"><path d="M2.2974,0.9841 T0.4968,5.2508 -3.1154,14.1871 -6.1635,22.2297 -8.2814,29.648 -9.613,37.0241 -10.2822,43.2968 -9.9501,49.7382 -7.41,55.9099 -3.6193,60.3736 -1.8176,62.1653 A2.9472,2.9472 0 0 1 -5.9024,66.4147 T-7.7638,64.685 -11.6236,60.9497 -14.5477,56.7706 -15.8877,52.6017 -16.4315,48.1554 -16.2334,42.5892 -15.3191,35.9338 -13.6457,28.0141 -11.2106,20.257 -7.926,12.1949 -4.1437,3.2632 -2.2974,-0.9841 A2.4993,2.4993 0 0 1 2.2974,0.9841 Z" stroke-linecap="round" fill="#ffc034"/></g></g><g transform="matrix(1, 0, 0, 1, 1094.3332, 1078.8973)" opacity="1"><g transform="scale(1)"><path d="M2.6091,2.0856 T1.4152,3.623 -1.2123,7.3906 -5.2517,13.453 -10.6429,20.687 -15.127,25.9693 -16.8259,27.8497 A3.2635,3.2635 0 0 1 -21.7541,23.5703 T-20.1305,21.6245 -16.1159,16.5856 -11.0779,9.6214 -6.7572,3.3363 -3.8464,-0.5816 -2.6091,-2.0856 A3.3403,3.3403 0 0 1 2.6091,2.0856 Z" stroke-linecap="round" fill="#ffc034"/></g></g><g transform="matrix(1, 0, 0, 1, 1076.3328, 1081.4688)" opacity="1"><g transform="scale(1)"><path d="M2.0177,-2.0177 T3.5442,-0.5028 7.7966,3.9827 11.9922,8.8476 15.3045,12.8922 20.2986,17.2739 23.4503,19.5052 A2.8415,2.8415 0 0 1 20.2697,24.2148 T18.376,23.0156 14.4812,20.4883 10.5392,16.7766 7.2772,12.5692 3.484,7.908 -0.5028,3.5442 -2.0177,2.0177 A2.8534,2.8534 0 0 1 2.0177,-2.0177 Z" stroke-linecap="round" fill="#ffc034"/></g></g><g transform="matrix(1, 0, 0, 1, 1121.3338, 1073.7543)" opacity="1"><g transform="scale(1)"><path d="M2.2026,-0.3157 T2.5497,1.8069 3.106,6.0337 3.4846,11.9869 3.6611,17.8649 4.2544,23.233 4.8404,26.5722 A2.3104,2.3104 0 0 1 0.2996,27.4278 T-0.4468,23.6955 -1.2331,17.952 -1.3073,13.8751 -1.509,8.197 -1.9395,2.4501 -2.2026,0.3157 A2.2252,2.2252 0 0 1 2.2026,-0.3157 Z" stroke-linecap="round" fill="#ffc034"/></g></g><g transform="matrix(1, 0, 0, 1, 1129.0482, 1089.1832)" opacity="1"><g transform="scale(1)"><path d="M0.3531,2.4638 T-1.7708,2.7985 -7.6011,3.8832 -14.8696,4.5241 -20.3233,4.136 -22.2147,3.857 A2.5914,2.5914 0 0 1 -21.5053,-1.277 T-18.196,-0.8235 -11.8954,-0.6861 -6.7617,-1.4576 -2.4862,-2.1884 -0.3531,-2.4638 A2.489,2.489 0 0 1 0.3531,2.4638 Z" stroke-linecap="round" fill="#ffc034"/></g></g><g transform="matrix(1, 0, 0, 1, 1138.0484, 1067.3256)" opacity="1"><g transform="scale(1)"><path d="M0.8514,-2.9816 T2.9821,-2.3746 8.3981,0.5907 12.5324,4.9737 13.6097,9.8543 15.8602,15.3482 19.5928,20.9605 21.6239,25.1511 21.9446,26.3673 A3.3373,3.3373 0 0 1 15.4597,27.9472 T15.0725,26.0219 12.7916,21.9059 8.9282,17.5692 7.3582,13.2327 7.2572,8.9933 5.0788,5.5716 1.2749,3.5902 -0.8514,2.9816 A3.1008,3.1008 0 0 1 0.8514,-2.9816 ZM21.4918,28.9892 T20.674,30.2389 17.7125,32.9096 13.4197,34.9705 7.0391,35.9246 0.2036,36.293 -2.4004,36.3473 A2.9222,2.9222 0 0 1 -2.7396,30.5127 T-0.1468,30.2649 5.9584,29.5457 11.9617,28.3069 15.1826,26.4324 15.9126,25.3253 A3.3373,3.3373 0 0 1 21.4918,28.9892 Z" stroke-linecap="round" fill="#ffc034"/></g></g><g transform="matrix(1, 0, 0, 1, 1165.049, 1055.7539)" opacity="1"><g transform="scale(1)"><path d="M2.4023,-1.8687 T4.5566,0.8569 8.3479,6.8036 10.8851,13.0591 12.5377,18.7789 13.7402,24.6076 14.4253,30.9316 14.1313,37.3595 12.6334,43.2942 10.5015,48.3262 7.6674,52.942 4.3846,56.7663 0.8053,59.504 -4.6085,61.8337 -8.0548,62.9786 A2.7182,2.7182 0 0 1 -9.9452,57.8814 T-7.16,56.7151 -1.8965,53.434 1.8626,49.4676 4.1175,45.6013 5.871,41.4673 7.1326,36.9292 7.4613,31.5623 7.0214,25.8898 6.0892,20.488 4.8399,15.2909 3.0197,10.0671 -0.2996,4.6157 -2.4023,1.8687 A3.0435,3.0435 0 0 1 2.4023,-1.8687 Z" stroke-linecap="round" fill="#ffc034"/></g></g><g transform="matrix(1, 0, 0, 1, 1195.9068, 1123.8982)" opacity="1"><g transform="scale(1)"><path d="M0.8449,2.114 T-3.6989,3.9835 -12.2243,7.2044 -20.2582,9.3319 -28.4948,10.8581 -37.1088,12.0618 -44.9397,13.0708 -54.2811,14.005 -65.6391,14.9212 -76.4436,15.7835 -87.4114,16.307 -98.2521,16.9329 -108.8263,17.6142 -119.2529,18.327 -129.1703,19.3489 -138.4589,20.2292 -147.2954,21.0147 -155.7499,22.0309 -162.7167,22.8759 -168.8047,23.6152 -175.8887,24.5942 -182.4705,25.4271 -188.339,26.1582 -194.2066,26.8349 -199.2935,27.1944 -203.8322,27.3597 -208.0634,27.4232 -213.7374,27.051 -219.3446,26.3903 -224.1496,26.4583 -226.9611,26.7989 A3.7109,3.7109 0 0 1 -228.1989,19.4811 T-226.5028,19.0996 -222.8186,18.3416 -218.2759,18.1639 -212.998,18.5239 -208.2774,18.6308 -204.2161,18.4915 -199.9485,18.2719 -195.2451,17.901 -189.4553,17.192 -183.588,16.4423 -177.1363,15.6141 -169.8822,14.5991 -163.7611,13.8613 -156.7871,13.0524 -148.0244,12.0879 -139.1972,11.4309 -129.9662,10.7316 -119.7399,9.9049 -109.2564,9.4167 -98.6154,8.9769 -87.6618,8.6243 -76.8942,8.44 -66.0752,7.9591 -54.8641,7.4843 -45.6132,6.937 -37.7848,6.2837 -29.3758,5.4818 -21.4663,4.3602 -13.8691,2.6213 -5.4253,-0.3367 -0.8449,-2.114 A2.2766,2.2766 0 0 1 0.8449,2.114 Z" stroke-linecap="round" fill="#ffc034"/></g></g><g transform="matrix(1, 0, 0, 1, 1000.4741, 1198.4712)" opacity="1"><g transform="scale(1)"><path d="M2.5228,2.2066 T0.414,4.6572 -3.3564,9.2446 -6.8898,13.5338 -12.6348,18.7086 -18.9629,23.1976 -21.4179,24.6641 A3.2907,3.2907 0 0 1 -24.8621,19.0559 T-22.444,17.5296 -16.9968,13.5489 -12.191,9.1099 -8.6166,4.8758 -4.671,0.21 -2.5228,-2.2066 A3.3517,3.3517 0 0 1 2.5228,2.2066 Z" stroke-linecap="round" fill="#ffc034"/></g></g><g transform="matrix(1, 0, 0, 1, 973.4735, 1199.757)" opacity="1"><g transform="scale(1)"><path d="M1.8773,-2.3485 T3.3766,-1.1059 7.76,2.2298 13.4566,6.1921 18.9417,9.5677 23.7999,12.4816 27.2509,14.6563 28.5164,15.4233 A2.9898,2.9898 0 0 1 25.4836,20.5767 T24.1987,19.8428 20.7733,17.7709 15.7676,14.7372 10.3,11.2134 4.4523,7.0556 -0.3352,3.5371 -1.8773,2.3485 A3.0066,3.0066 0 0 1 1.8773,-2.3485 Z" stroke-linecap="round" fill="#ffc034"/></g></g><g transform="matrix(1, 0, 0, 1, 1003.0456, 1168.8992)" opacity="1"><g transform="scale(1)"><path d="M0,-3.5093 T2.1313,-3.4466 6.5479,-3.0471 11.7852,-1.535 16.6493,1.0327 19.9222,4.5921 20.8592,10.0579 18.0522,15.1825 14.6433,18.6481 13.6174,20.288 A3.4709,3.4709 0 0 1 7.3581,17.2866 T9.6827,14.1739 13.0504,9.3727 12.0428,6.2067 7.1218,4.0566 2.1257,3.4466 0,3.5093 A3.5093,3.5093 0 0 1 0,-3.5093 ZM12.3751,15.8744 T13.7467,16.7609 17.4557,17.8768 23.1323,19.1459 26.4717,20.1857 A3.051,3.051 0 0 1 24.9483,26.0943 T22.0575,25.5278 15.441,24.342 10.1578,22.7115 8.6005,21.7002 A3.4709,3.4709 0 0 1 12.3751,15.8744 Z" stroke-linecap="round" fill="#ffc034"/></g></g><g transform="matrix(1, 0, 0, 1, 1048.6894, 1197.1855)" opacity="1"><g transform="scale(1)"><path d="M-1.6429,0.9383 T-2.8561,-1.1916 -5.4217,-5.6941 -6.774,-8.0668 A1.8817,1.8817 0 0 1 -3.506,-9.9332 T-2.1495,-7.5629 0.4249,-3.0654 1.6429,-0.9383 A1.8919,1.8919 0 0 1 -1.6429,0.9383 Z" stroke-linecap="round" fill="#ffc034"/></g></g><g transform="matrix(1, 0, 0, 1, 1046.1179, 1199.757)" opacity="1"><g transform="scale(1)"><path d="M2.4446,-1.3961 T3.7092,0.7081 5.752,4.7443 7.4237,9.6183 8.7433,16.2409 9.2652,22.0739 9.3611,24.2261 A2.9382,2.9382 0 0 1 3.4989,24.6339 T3.1278,20.7462 2.0737,14.1406 0.6396,8.5623 -1.278,3.5489 -2.4446,1.3961 A2.8151,2.8151 0 0 1 2.4446,-1.3961 Z" stroke-linecap="round" fill="#ffc034"/></g></g><g transform="matrix(1, 0, 0, 1, 1055.1181, 1206.1857)" opacity="1"><g transform="scale(1)"><path d="M1.9712,1.9712 T0.7812,3.2261 -2.2032,5.6804 -7.6265,7.9141 -13.4515,8.798 -17.6496,7.7753 -21.3573,6.0781 -23.0633,5.2532 A2.9407,2.9407 0 0 1 -20.6567,-0.1132 T-17.8054,1.131 -12.1739,2.3993 -6.9237,1.4024 -3.2125,-0.7949 -1.9712,-1.9712 A2.7877,2.7877 0 0 1 1.9712,1.9712 Z" stroke-linecap="round" fill="#ffc034"/></g></g><g transform="matrix(1, 0, 0, 1, 1074.4042, 1186.8996)" opacity="1"><g transform="scale(1)"><path d="M2.7761,-0.6167 T3.426,2.1088 5.1248,9.4618 6.385,16.8321 6.6968,21.9348 6.4771,26.3923 5.8237,30.5201 5.4907,32.5503 A2.9494,2.9494 0 0 1 -0.3507,31.7297 T0.082,28.1274 0.4322,22.2538 0.2135,17.4017 -0.1367,12.3893 -0.9978,8.0343 -2.2104,3.3638 -2.7761,0.6167 A2.8438,2.8438 0 0 1 2.7761,-0.6167 Z" stroke-linecap="round" fill="#ffc034"/></g></g><g transform="matrix(1, 0, 0, 1, 963.8304, 1180.4709)" opacity="1"><g transform="scale(1)"><path d="M3.3071,1.4692 T2.1021,4.2089 0.0349,9.7312 -1.5942,15.2464 -2.9062,22.0235 -3.3484,28.5026 -2.7498,33.6427 -1.4756,38.2751 0.3023,42.6609 1.3016,45.1198 A2.8435,2.8435 0 0 1 -3.8816,47.4602 T-5.0652,45.0845 -7.4295,40.2966 -9.5257,34.6628 -10.7091,28.4003 -10.7046,22.8548 -9.9603,18.1375 -8.6533,13.1036 -6.7888,7.1395 -4.5333,1.2637 -3.3071,-1.4692 A3.6187,3.6187 0 0 1 3.3071,1.4692 Z" stroke-linecap="round" fill="#ffc034"/></g></g><g transform="matrix(1, 0, 0, 1, 1097.5476, 1161.1847)" opacity="1"><g transform="scale(1)"><path d="M2.6144,-1.1213 T3.5162,1.0119 5.719,7.2858 7.6104,14.7115 8.8039,20.5311 9.7968,26.7675 10.6762,33.1055 11.1627,39.9226 10.824,47.5162 9.6516,54.1207 8.0464,59.7999 6.461,64.1025 3.9773,67.5285 0.8586,70.3797 -0.5932,71.6202 A2.9504,2.9504 0 0 1 -4.5468,67.2398 T-3.1644,65.9223 -0.3596,62.5361 1.7308,58.0336 3.1299,52.9185 4.1937,47.1184 4.6426,40.4005 4.3171,33.91 3.6557,27.6963 2.8827,21.6578 1.8743,15.7278 0.3263,8.9414 -1.6905,3.2451 -2.6144,1.1213 A2.8447,2.8447 0 0 1 2.6144,-1.1213 Z" stroke-linecap="round" fill="#ffc034"/></g></g><g transform="matrix(1, 0, 0, 1, 1137.4056, 1158.6133)" opacity="1"><g transform="scale(1)"><path d="M2.3716,1.4237 T1.4593,2.9436 -0.7868,8.2901 -2.7535,14.8521 -3.6758,20.7081 -4.458,26.3232 -5.1567,32.2879 -5.4787,38.2755 -5.6735,43.3063 -5.6096,48.1923 -5.2718,53.4302 -5.0768,56.2957 A2.6474,2.6474 0 0 1 -10.3432,56.8443 T-10.7431,54.0003 -11.5341,48.4042 -11.8594,43.0551 -11.635,37.8912 -11.1614,31.454 -10.3507,25.3844 -9.4263,19.7063 -8.2683,13.3689 -6.7313,7.9138 -5.0612,3.4683 -3.2851,0.0978 -2.3716,-1.4237 A2.7662,2.7662 0 0 1 2.3716,1.4237 Z" stroke-linecap="round" fill="#ffc034"/></g></g><g transform="matrix(1, 0, 0, 1, 1166.9776, 1177.8994)" opacity="1"><g transform="scale(1)"><path d="M2.4371,1.2173 T1.2397,3.6604 -1.8612,9.3045 -5.7001,15.4046 -9.3011,20.4789 -13.5656,25.2807 -17.5533,29.0377 -18.9422,30.1682 A2.4855,2.4855 0 0 1 -22.1978,26.4118 T-20.8814,25.1977 -17.4353,21.6706 -13.7635,17.3109 -10.3768,12.4582 -6.7184,6.6417 -3.6709,1.2068 -2.4371,-1.2173 A2.7242,2.7242 0 0 1 2.4371,1.2173 Z" stroke-linecap="round" fill="#ffc034"/></g></g><g transform="matrix(1, 0, 0, 1, 1148.9772, 1183.0423)" opacity="1"><g transform="scale(1)"><path d="M1.8507,-1.5434 T3.3786,0.274 7.0472,5.1077 10.3091,10.1877 13.1518,15.818 15.7596,21.17 17.7079,25.0644 18.77,27.1736 A2.343,2.343 0 0 1 14.65,29.4064 T13.4627,27.3651 11.1428,23.3839 8.464,18.032 5.8885,12.587 3.0177,7.8781 -0.3372,3.3729 -1.8507,1.5434 A2.4098,2.4098 0 0 1 1.8507,-1.5434 Z" stroke-linecap="round" fill="#ffc034"/></g></g><g transform="matrix(1, 0, 0, 1, 1186.2637, 1184.3281)" opacity="1"><g transform="scale(1)"><path d="M2.247,-0.9982 T3.4837,1.7297 5.4233,6.6386 6.712,12.8837 7.4989,19.2959 7.6998,21.6439 A2.569,2.569 0 0 1 2.5802,22.0761 T2.3847,19.7277 1.744,13.8522 0.7204,8.4063 -1.0525,3.7429 -2.247,0.9982 A2.4587,2.4587 0 0 1 2.247,-0.9982 Z" stroke-linecap="round" fill="#ffc034"/></g></g><g transform="matrix(1, 0, 0, 1, 1197.8354, 1195.8998)" opacity="1"><g transform="scale(1)"><path d="M-1.0379,2.0094 T-3.4633,2.3599 -8.6576,3.1214 -14.5546,4.0094 -17.683,4.4865 A1.9425,1.9425 0 0 1 -18.317,0.6535 T-15.2017,0.0977 -9.2512,-0.974 -3.9791,-1.7497 -1.5421,-2.0094 A2.0251,2.0251 0 0 1 -1.0379,2.0094 Z" stroke-linecap="round" fill="#ffc034"/></g></g><g transform="matrix(1, 0, 0, 1, 1206.8356, 1179.1851)" opacity="1"><g transform="scale(1)"><path d="M0.2245,-2.6848 T3.8713,-2.3473 10.473,-1.5462 15.6072,-0.1141 19.8136,3.2943 21.7269,9.1609 19.1449,15.1279 14.3521,18.7648 11.478,20.2259 10.9283,20.5903 A2.7909,2.7909 0 0 1 8.0106,15.8319 T9.7736,14.9718 13.3251,13.2136 15.7697,9.7386 14.4695,5.6594 9.7958,3.6936 3.4271,2.9575 -0.2245,2.6848 A2.6942,2.6942 0 0 1 0.2245,-2.6848 ZM11.1662,15.9953 T11.9551,16.6046 14.956,18.2253 18.9905,20.2183 23.1324,23.07 26.4084,27.2603 26.6948,32.0641 23.0732,37.3629 17.7311,40.8132 12.4712,41.8107 6.5167,41.5695 3.4314,40.9659 A2.4339,2.4339 0 0 1 4.2886,36.1741 T5.7457,36.3838 9.3339,36.6062 14.254,35.9847 18.8252,33.8732 20.237,30.1757 17.4519,26.1959 12.4243,23.2071 8.792,21.2024 7.7727,20.427 A2.7909,2.7909 0 0 1 11.1662,15.9953 Z" stroke-linecap="round" fill="#ffc034"/></g></g><g transform="matrix(1, 0, 0, 1, 1232.5504, 1158.6133)" opacity="1"><g transform="scale(1)"><path d="M1.4385,-2.302 T3.8589,-0.7374 8.1211,2.7589 11.4842,6.5749 13.9403,10.252 16.0097,14.7792 17.8315,20.6646 18.8985,27.3154 19.4943,34.4828 19.1842,41.8889 17.7447,49.1256 15.6839,55.7266 12.898,61.5733 9.3782,66.6222 5.7975,70.5078 2.3746,73.6782 0.6516,75.268 A2.7717,2.7717 0 0 1 -3.2316,71.312 T-0.3081,68.2527 4.1153,63.065 6.9352,58.7323 9.2591,53.6969 11.1232,47.7267 12.5178,41.4934 12.9725,34.8732 12.7128,28.1253 12.1565,22.2201 10.3112,15.6366 7.4774,9.993 4.7837,6.7525 1.0082,3.7788 -1.4385,2.302 A2.7144,2.7144 0 0 1 1.4385,-2.302 Z" stroke-linecap="round" fill="#ffc034"/></g></g><g transform="matrix(1, 0, 0, 1, 469.0467, 1346.131)" opacity="1"><g transform="scale(1)"><path d="M0,-3.5969 T2.3153,-3.6935 6.8442,-3.8323 12.0043,-3.817 16.5655,-3.6931 18.18,-3.6266 A3.6266,3.6266 0 0 1 18.18,3.6266 T16.5655,3.6931 12.0043,3.817 6.8442,3.8323 2.3153,3.6935 0,3.5969 A3.5969,3.5969 0 0 1 0,-3.5969 Z" stroke-linecap="round" fill="#ffc034"/></g></g><g transform="matrix(1, 0, 0, 1, 464.8502, 1358.7205)" opacity="1"><g transform="scale(1)"><path d="M1.1288,-3.3825 T3.131,-2.7666 8.0323,-1.2282 13.7267,-0.0576 18.1778,0.302 19.8336,0.4135 A3.7949,3.7949 0 0 1 19.3264,7.9865 T17.6705,7.8762 12.7013,7.4372 6.0959,5.9539 0.8375,4.091 -1.1288,3.3825 A3.5659,3.5659 0 0 1 1.1288,-3.3825 Z" stroke-linecap="round" fill="#ffc034"/></g></g><g transform="matrix(1, 0, 0, 1, 576.7571, 1364.3158)" opacity="1"><g transform="scale(1)"><path d="M3.4147,1.7094 T2.4425,3.705 -1.36,9.58 -6.1246,15.6241 -9.6173,19.7795 -13.2392,23.7562 -19.0305,28.3999 -25.087,32.413 -27.4156,33.7685 A3.5847,3.5847 0 0 1 -31.3444,27.7715 T-29.1718,26.178 -24.0472,22.0773 -19.4061,18.0342 -15.9243,14.3193 -12.2111,10.1625 -7.8671,5.2105 -4.4291,0.2635 -3.4147,-1.7094 A3.8186,3.8186 0 0 1 3.4147,1.7094 Z" stroke-linecap="round" fill="#ffc034"/></g></g><g transform="matrix(1, 0, 0, 1, 551.578, 1365.7147)" opacity="1"><g transform="scale(1)"><path d="M3.3141,-1.659 T4.2718,0.3423 6.8878,5.482 10.5732,10.654 15.2135,15.3202 20.9741,19.0663 26.5592,21.0949 28.997,22.0101 A3.3291,3.3291 0 0 1 26.963,28.3499 T24.4478,27.676 19.5024,26.3601 14.795,24.5975 11.121,22.0498 7.1659,17.8389 3.2847,13.3772 0.3527,8.6463 -2.2852,3.6262 -3.3141,1.659 A3.7061,3.7061 0 0 1 3.3141,-1.659 Z" stroke-linecap="round" fill="#ffc034"/></g></g><g transform="matrix(1, 0, 0, 1, 580.9536, 1327.9461)" opacity="1"><g transform="scale(1)"><path d="M-2.1771,-3.2618 T-0.137,-4.5159 3.9465,-6.6134 9.2945,-8.6011 16.2106,-9.7665 22.5509,-8.5132 26.8445,-4.4018 28.065,0.9255 26.5727,5.0641 22.7651,8.4795 17.5026,11.5404 14.8409,13.5697 14.7822,14.3048 A3.9683,3.9683 0 0 1 7.7891,10.5518 T10.6878,7.6381 15.9067,3.4137 19.6466,0.6041 18.9389,-1.894 14.4027,-2.4876 9.0139,-0.8048 4.1055,1.8671 2.1771,3.2618 A3.9217,3.9217 0 0 1 -2.1771,-3.2618 ZM13.1659,8.9338 T14.457,9.6101 18.879,10.6315 24.068,11.161 28.7705,11.0752 33.0226,10.7283 34.6303,10.6514 A3.3559,3.3559 0 0 1 35.3097,17.3286 T33.7195,17.5771 28.9704,18.4017 23.5602,18.9571 18.8466,18.7131 14.2073,17.9309 10.7179,16.6474 9.4054,15.9228 A3.9683,3.9683 0 0 1 13.1659,8.9338 Z" stroke-linecap="round" fill="#ffc034"/></g></g><g transform="matrix(1, 0, 0, 1, 636.907, 1358.7205)" opacity="1"><g transform="scale(1)"><path d="M2.363,-0.2628 T2.71,2.7131 3.2758,8.2999 3.62,12.9474 3.8178,17.0642 4.1848,22.2339 4.8257,27.0931 5.1721,28.8631 A2.4278,2.4278 0 0 1 0.4279,29.8969 T0.0065,28.1433 -0.8606,22.8284 -1.3307,17.2422 -1.4138,13.2331 -1.6024,8.7352 -2.0478,3.242 -2.363,0.2628 A2.3776,2.3776 0 0 1 2.363,-0.2628 Z" stroke-linecap="round" fill="#ffc034"/></g></g><g transform="matrix(1, 0, 0, 1, 645.3001, 1374.1077)" opacity="1"><g transform="scale(1)"><path d="M0,2.6161 T-1.9842,2.7043 -8.5607,2.7627 -16.3664,2.6768 -19.58,2.6207 A2.6207,2.6207 0 0 1 -19.58,-2.6207 T-16.3664,-2.6768 -8.5607,-2.7627 -1.9842,-2.7043 0,-2.6161 A2.6161,2.6161 0 0 1 0,2.6161 Z" stroke-linecap="round" fill="#ffc034"/></g></g><g transform="matrix(1, 0, 0, 1, 690.0628, 1346.131)" opacity="1"><g transform="scale(1)"><path d="M3.869,0.4841 T3.5573,3.1326 3.1054,8.6993 2.5459,14.7208 1.9235,20.5626 1.2571,26.2938 0.4119,31.9441 -0.3751,37.7292 -0.78,40.8569 A3.432,3.432 0 0 1 -7.62,40.2831 T-7.4982,37.1316 -7.2855,31.0019 -6.7607,25.3486 -6.0839,19.6744 -5.4143,13.9174 -4.7788,7.9821 -4.2195,2.1603 -3.869,-0.4841 A3.8992,3.8992 0 0 1 3.869,0.4841 Z" stroke-linecap="round" fill="#ffc034"/></g></g><g transform="matrix(1, 0, 0, 1, 733.4267, 1378.3042)" opacity="1"><g transform="scale(1)"><path d="M1.0668,-2.4867 T3.398,-1.5882 9.61,-0.6098 15.8979,-1.0749 21.7439,-2.5459 26.987,-3.8172 28.7913,-4.1627 A2.8247,2.8247 0 0 1 29.9687,1.3627 T26.7708,2.1096 21.5914,3.5948 16.432,5.0056 11.0239,5.5435 6.163,5.036 1.2327,3.5748 -1.0668,2.4867 A2.7059,2.7059 0 0 1 1.0668,-2.4867 Z" stroke-linecap="round" fill="#ffc034"/></g></g><g transform="matrix(1, 0, 0, 1, 787.9813, 1358.7205)" opacity="1"><g transform="scale(1)"><path d="M2.8472,0.8143 T2.1955,3.1345 0.113,8.7079 -1.7394,14.0661 0.561,18.258 5.4543,23.2546 8.2613,29.8455 7.2437,36.4649 2.1374,41.0558 -3.3456,42.6026 -7.3603,41.5839 -11.9135,38.115 -14.482,35.5589 A2.745,2.745 0 0 1 -10.698,31.5811 T-9.4284,32.6891 -5.4977,35.1755 -0.3467,35.4042 2.3159,31.8593 0.8808,27.1913 -3.3751,22.7743 -7.1044,17.9835 -7.4975,12.3807 -5.501,6.6155 -3.5199,1.4961 -2.8472,-0.8143 A2.9613,2.9613 0 0 1 2.8472,0.8143 Z" stroke-linecap="round" fill="#ffc034"/></g></g><g transform="matrix(1, 0, 0, 1, 785.1836, 1353.1251)" opacity="1"><g transform="scale(1)"><path d="M0.3919,-3.1323 T3.0486,-2.8839 7.7018,-2.5318 11.702,-2.3634 16.2027,-2.5591 21.8368,-3.2952 26.7611,-4.2097 28.5485,-4.6485 A3.3532,3.3532 0 0 1 30.2115,1.8485 T28.4332,2.3224 23.0319,3.4378 16.4081,4.384 11.261,4.5697 6.9977,4.2052 2.2443,3.5461 -0.3919,3.1323 A3.1567,3.1567 0 0 1 0.3919,-3.1323 Z" stroke-linecap="round" fill="#ffc034"/></g></g><g transform="matrix(1, 0, 0, 1, 836.9406, 1381.1019)" opacity="1"><g transform="scale(1)"><path d="M2.4681,1.8505 T0.4683,4.4852 -2.8658,9.1133 -6.0839,13.0818 -9.5227,16.6586 -13.1461,20.3981 -17.3765,24.2855 -20.7909,26.8491 -22.0431,27.663 A3.0302,3.0302 0 0 1 -25.5169,22.697 T-24.323,21.7998 -21.4431,19.4589 -17.6355,15.9365 -13.933,12.2995 -10.798,9.2238 -7.8248,5.5862 -4.4368,0.8077 -2.4681,-1.8505 A3.0847,3.0847 0 0 1 2.4681,1.8505 Z" stroke-linecap="round" fill="#ffc034"/></g></g><g transform="matrix(1, 0, 0, 1, 820.1545, 1385.2984)" opacity="1"><g transform="scale(1)"><path d="M2.4465,-1.8349 T3.436,-0.5071 6.7172,3.7704 11.214,8.5664 16.9277,11.9093 22.6894,14.3495 24.9425,15.2933 A3.112,3.112 0 0 1 22.6175,21.0667 T20.3391,20.1856 15.9278,18.4825 11.4214,16.4807 6.5979,13.0725 1.8478,7.6605 -1.4494,3.1559 -2.4465,1.8349 A3.0582,3.0582 0 0 1 2.4465,-1.8349 Z" stroke-linecap="round" fill="#ffc034"/></g></g><g transform="matrix(1, 0, 0, 1, 841.1371, 1347.5298)" opacity="1"><g transform="scale(1)"><path d="M-0.4725,-3.777 T2.1771,-4.0827 6.9579,-4.5735 11.5899,-4.8874 16.0997,-4.7263 20.9596,-2.7987 24.4171,2.5073 23.8387,7.7763 20.5758,11.0604 16.541,13.9603 16.7735,14.679 21.8624,14.0109 28.2963,13.6748 31.8303,13.5092 A3.2983,3.2983 0 0 1 32.5097,20.0708 T29.2784,20.6057 23.9136,21.5573 18.5489,21.9104 12.3478,21.164 8.0119,17.5547 7.932,12.2158 11.6737,8.1143 16.1681,5.1572 16.2766,3.2577 12.0353,2.6811 7.7416,2.9001 3.1157,3.4205 0.4725,3.777 A3.8064,3.8064 0 0 1 -0.4725,-3.777 Z" stroke-linecap="round" fill="#ffc034"/></g></g><g transform="matrix(1, 0, 0, 1, 877.5068, 1388.096)" opacity="1"><g transform="scale(1)"><path d="M0.4076,-2.4426 T2.4004,-2.2127 6.4596,-2.1901 10.9758,-2.7593 16.2954,-3.5496 19.1653,-3.978 A2.6111,2.6111 0 0 1 19.9947,1.178 T17.1354,1.6713 11.5836,2.63 6.2175,3.2013 1.5681,2.8749 -0.4076,2.4426 A2.4764,2.4764 0 0 1 0.4076,-2.4426 Z" stroke-linecap="round" fill="#ffc034"/></g></g><g transform="matrix(1, 0, 0, 1, 929.2638, 1357.3216)" opacity="1"><g transform="scale(1)"><path d="M2.9564,-0.2277 T3.326,4.069 3.9126,11.9986 3.9179,18.7233 3.254,24.4837 2.2872,31.2537 1.7727,35.3549 A3.1959,3.1959 0 0 1 -4.5727,34.5851 T-4.3136,32.3715 -3.8095,28.0762 -3.1025,23.6402 -2.3738,18.6068 -2.2392,12.3802 -2.6638,4.5302 -2.9564,0.2277 A2.9651,2.9651 0 0 1 2.9564,-0.2277 Z" stroke-linecap="round" fill="#ffc034"/></g></g><g transform="matrix(1, 0, 0, 1, 951.6451, 1357.3216)" opacity="1"><g transform="scale(1)"><path d="M2.9367,-0.49 T3.2723,1.4935 4.1275,5.5933 6.2872,9.0533 9.5564,11.7304 12.6029,15.0108 15.6584,20.4937 16.9208,26.2374 15.0987,30.9788 9.823,34.4696 2.6423,34.4838 -0.709,33.5408 A2.8601,2.8601 0 0 1 0.709,27.9992 T2.3481,28.3613 6.3347,29.1608 9.9957,27.487 10.1202,22.9012 6.6955,17.8865 1.7635,12.6538 -1.608,7.2106 -2.6101,2.475 -2.9367,0.49 A2.9773,2.9773 0 0 1 2.9367,-0.49 Z" stroke-linecap="round" fill="#ffc034"/></g></g><g transform="matrix(1, 0, 0, 1, 950.2463, 1354.524)" opacity="1"><g transform="scale(1)"><path d="M0,-2.9 T2.3153,-2.8999 6.8442,-2.9288 12.0043,-2.9944 18.6216,-3.0306 25.5456,-3.6833 28.799,-4.3366 A2.9935,2.9935 0 0 1 29.961,1.5366 T28.098,1.9145 24.2748,2.6612 18.6328,3.0306 12.0043,2.9944 6.8442,2.9288 2.3153,2.8999 0,2.9 A2.9,2.9 0 0 1 0,-2.9 Z" stroke-linecap="round" fill="#ffc034"/></g></g><g transform="matrix(1, 0, 0, 1, 1007.5986, 1367.1135)" opacity="1"><g transform="scale(1)"><path d="M2.6593,0.7606 T2.0229,3.0851 -1.366,9.1456 -6.0533,14.4131 -10.4452,17.4382 -15.4144,19.7962 -20.3022,21.0258 -25.0969,21.7558 -27.5159,22.1208 A2.5828,2.5828 0 0 1 -28.4441,17.0392 T-26.0522,16.5255 -21.7183,15.5883 -17.8646,14.5328 -13.7857,12.5548 -9.7953,9.8563 -6.0038,6.1778 -3.3473,1.5456 -2.6593,-0.7606 A2.7659,2.7659 0 0 1 2.6593,0.7606 Z" stroke-linecap="round" fill="#ffc034"/></g></g><g transform="matrix(1, 0, 0, 1, 985.2172, 1369.9112)" opacity="1"><g transform="scale(1)"><path d="M2.2556,-1.8793 T3.8947,0.1172 6.8054,3.9187 9.1685,7.7798 11.7803,12.401 14.7105,16.8667 18.9516,21.5649 21.7827,24.3624 A3.1256,3.1256 0 0 1 17.3773,28.7976 T15.7842,27.224 12.5862,24.0328 9.4841,20.1974 6.5037,15.2428 3.0497,9.1646 -0.5885,3.8513 -2.2556,1.8793 A2.9359,2.9359 0 0 1 2.2556,-1.8793 Z" stroke-linecap="round" fill="#ffc034"/></g></g><g transform="matrix(1, 0, 0, 1, 538.9885, 1430.0611)" opacity="1"><g transform="scale(1)"><path d="M0.1829,-2.4667 T9.1216,-1.8877 24.4004,-1.0455 36.0533,-0.6841 46.1445,-0.5738 55.4221,-0.5773 64.9366,-0.6252 75.2418,-0.6977 86.2971,-0.7805 98.4094,-0.867 111.41,-0.9596 124.5477,-1.0497 137.2029,-0.7867 147.861,-0.3366 160.3854,0.1978 175.5735,0.7976 189.565,1.4571 202.3517,2.4807 213.9554,3.3564 223.932,3.8188 234.5747,4.4079 247.1133,5.068 259.5814,5.4341 271.7775,5.6464 283.1676,5.7773 293.6771,5.5265 303.175,5.0683 311.9425,4.8383 319.545,4.7339 327.5249,4.6907 336.6982,4.6791 345.8302,4.6837 354.6113,4.691 361.885,4.6983 370.0203,4.7047 379.8083,4.3887 389.3567,3.263 399.2598,1.3718 408.4915,-0.6164 418.2929,-2.9905 429.1231,-5.5941 438.8939,-7.6516 447.8135,-9.0753 455.4507,-10.1275 462.1337,-10.9794 468.4872,-11.3974 474.1599,-11.5481 478.8021,-11.5217 483.0858,-11.4162 485.3333,-11.3692 A2.9799,2.9799 0 0 1 485.4667,-5.4108 T483.2234,-5.2633 478.9857,-4.9672 474.4621,-4.6795 469.0251,-4.3344 463.0845,-3.8116 456.4822,-2.8783 448.9538,-1.7995 440.396,-0.4363 430.816,1.5469 419.9879,4.1067 410.0353,6.5041 400.6223,8.5436 390.2162,10.5257 380.0573,11.7324 370.0238,12.0817 361.8904,12.0937 354.6199,12.1119 345.8463,12.1397 336.7284,12.1834 327.5979,12.2458 319.6761,12.3431 312.1651,12.5053 303.5541,12.781 293.889,13.2827 283.1054,13.5966 271.665,13.5424 259.3697,13.4036 246.7078,13.1033 234.1615,12.4992 223.574,11.9457 213.3525,11.4967 201.6903,10.643 189.1683,9.6415 175.2314,8.9624 160.0155,8.2697 147.4905,7.608 136.9862,7.0452 124.5456,6.6427 111.4065,6.5462 98.4024,6.4416 86.283,6.3323 75.2142,6.2061 64.8813,6.0514 55.3214,5.8475 45.9784,5.548 35.7969,5.0966 24.0513,4.3923 8.7436,3.2121 -0.1829,2.4667 A2.4734,2.4734 0 0 1 0.1829,-2.4667 Z" stroke-linecap="round" fill="#ffc034"/></g></g><g transform="matrix(1, 0, 0, 1, 657.8896, 1495.8064)" opacity="1"><g transform="scale(1)"><path d="M2.1673,1.6853 T-0.1171,4.687 -4.6303,10.3338 -8.6224,15.2829 -12.4585,19.6498 -17.437,24.1746 -21.8927,27.7693 -23.4427,28.902 A2.9,2.9 0 0 1 -26.9173,24.258 T-25.3932,23.0907 -21.2933,19.6603 -16.881,15.6678 -13.1503,11.5598 -9.058,6.7013 -4.5136,1.268 -2.1673,-1.6853 A2.7454,2.7454 0 0 1 2.1673,1.6853 Z" stroke-linecap="round" fill="#ffc034"/></g></g><g transform="matrix(1, 0, 0, 1, 635.5082, 1501.4017)" opacity="1"><g transform="scale(1)"><path d="M2.5135,-1.5102 T3.5166,0.1366 6.3702,4.0571 10.3683,8.4267 14.9351,12.722 19.047,16.56 22.5307,19.9243 24.3217,21.65 A2.8822,2.8822 0 0 1 20.4383,25.91 T18.5547,24.2859 15.0657,21.2939 11.1729,17.7743 6.2485,12.9484 1.5325,7.5517 -1.53,3.1697 -2.5135,1.5102 A2.9323,2.9323 0 0 1 2.5135,-1.5102 Z" stroke-linecap="round" fill="#ffc034"/></g></g><g transform="matrix(1, 0, 0, 1, 618.7222, 1472.0262)" opacity="1"><g transform="scale(1)"><path d="M2.8538,1.4286 T1.8589,3.4086 0.1095,7.8622 -1.4001,13.0386 -2.898,18.2112 -4.3128,24.4372 -5.3419,31.7913 -5.9079,38.6076 -5.9182,44.3209 -4.2935,50.2341 -1.5085,55.3059 1.5998,59.0908 3.349,61.2221 A2.6046,2.6046 0 0 1 -0.549,64.6779 T-2.4553,62.6858 -6.2834,58.6465 -9.6226,54.0085 -11.5526,49.3866 -12.3173,44.3986 -12.3774,38.0845 -11.7815,30.8742 -10.6057,22.9125 -9.0932,16.3932 -7.5496,11.1942 -5.7918,5.4771 -3.8455,0.5599 -2.8538,-1.4286 A3.1914,3.1914 0 0 1 2.8538,1.4286 Z" stroke-linecap="round" fill="#ffc034"/></g></g><g transform="matrix(1, 0, 0, 1, 692.8605, 1495.8064)" opacity="1"><g transform="scale(1)"><path d="M2.1834,0 T2.2522,3.6397 2.3472,9.5287 2.658,15.0268 3.2934,20.1005 3.6443,21.9254 A2.2899,2.2899 0 0 1 -0.8443,22.8346 T-1.2312,21.017 -1.9958,15.4887 -2.3472,9.5287 -2.2522,3.6397 -2.1834,0 A2.1834,2.1834 0 0 1 2.1834,0 Z" stroke-linecap="round" fill="#ffc034"/></g></g><g transform="matrix(1, 0, 0, 1, 704.0512, 1508.3959)" opacity="1"><g transform="scale(1)"><path d="M0,2.4576 T-2.9775,2.5488 -8.5194,2.7073 -13.6248,2.4824 -19.5979,1.8726 -24.8784,1.4046 -26.7269,1.254 A2.658,2.658 0 0 1 -26.4331,-4.054 T-24.5793,-3.9997 -19.0425,-3.7299 -13.2178,-3.1446 -8.5156,-2.7073 -2.9775,-2.5488 0,-2.4576 A2.4576,2.4576 0 0 1 0,2.4576 Z" stroke-linecap="round" fill="#ffc034"/></g></g><g transform="matrix(1, 0, 0, 1, 715.2419, 1490.2111)" opacity="1"><g transform="scale(1)"><path d="M1.2238,-3.0552 T2.8877,-2.3716 6.803,-0.2096 11.318,3.9342 15.1691,9.5178 16.7567,12.4359 A3.464,3.464 0 0 1 10.2806,14.8973 T9.1189,12.6616 6.7427,8.6422 3.7946,5.5976 0.4186,3.696 -1.2238,3.0552 A3.2912,3.2912 0 0 1 1.2238,-3.0552 ZM16.2958,15.7371 T15.7446,16.4759 13.1709,19.0142 8.8425,21.7633 6.5365,22.7129 A3.3262,3.3262 0 0 1 3.3137,16.8933 T4.556,16.2081 7.7196,14.2981 10.1912,12.3347 10.7415,11.5961 A3.464,3.464 0 0 1 16.2958,15.7371 ZM7.7582,18.0604 T7.9088,18.5798 10.8548,20.2033 16.4929,23.2369 20.2428,28.134 20.3253,32.9422 16.958,37.6314 11.1093,42.3886 4.3474,45.024 -1.2458,45.4895 -5.3477,44.9395 -7.3122,44.6511 A2.7003,2.7003 0 0 1 -6.6678,39.2889 T-3.2908,39.6377 2.6706,39.436 7.8863,37.4414 12.4225,34.0402 14.1656,30.0208 11.6882,27.0812 6.7266,25.2166 3.0863,22.8877 2.0921,21.5459 A3.3262,3.3262 0 0 1 7.7582,18.0604 Z" stroke-linecap="round" fill="#ffc034"/></g></g><g transform="matrix(1, 0, 0, 1, 747.4151, 1470.6274)" opacity="1"><g transform="scale(1)"><path d="M2.6138,-1.9603 T3.6107,-0.599 5.3717,2.9153 6.662,9.1273 7.3097,16.0353 7.5084,21.6935 7.9574,27.102 8.5599,33.2816 9.2212,39.5011 9.8995,44.7245 10.2796,49.3289 10.4813,53.4353 10.242,58.1978 9.3992,63.0242 6.8411,68.3393 2.2177,73.2221 -1.6304,75.4181 -2.8793,75.896 A3.4212,3.4212 0 0 1 -5.5207,69.584 T-4.3037,69.0299 -1.1508,66.9457 1.6852,62.687 2.8681,57.8473 2.9909,51.8545 2.6289,45.6036 2.0044,40.2434 1.4411,33.9194 0.9675,27.5973 0.6309,21.8399 0.4966,14.3863 -0.1343,7.1182 -1.6241,3.2478 -2.6138,1.9603 A3.2672,3.2672 0 0 1 2.6138,-1.9603 Z" stroke-linecap="round" fill="#ffc034"/></g></g><g transform="matrix(1, 0, 0, 1, 801.9697, 1472.0262)" opacity="1"><g transform="scale(1)"><path d="M2.2241,0.8348 T1.229,3.4826 -1.339,9.0165 -4.0168,13.9902 -7.0175,19.5349 -10.222,25.4547 -12.8051,31.0946 -15.0513,37.5517 -16.8867,43.6244 -18.1592,48.7127 -18.6398,53.6402 -16.4423,57.8246 -14.1733,59.3769 A2.4905,2.4905 0 0 1 -16.6067,63.7231 T-19.3178,62.1789 -23.0878,58.948 -24.1295,53.6077 -23.5882,47.3411 -22.1568,41.9676 -20.118,35.7191 -17.526,28.8396 -14.6888,22.9859 -11.369,17.1395 -8.2724,11.6574 -5.663,7.0074 -3.2156,1.8102 -2.2241,-0.8348 A2.3756,2.3756 0 0 1 2.2241,0.8348 Z" stroke-linecap="round" fill="#ffc034"/></g></g><g transform="matrix(1, 0, 0, 1, 829.9464, 1497.2052)" opacity="1"><g transform="scale(1)"><path d="M1.7815,0.8901 T0.118,4.1949 -3.4676,10.3541 -7.0275,15.6452 -10.2956,19.8278 -14.2204,23.188 -18.4778,25.6586 -22.4422,27.371 -24.4438,28.227 A1.8041,1.8041 0 0 1 -25.9162,24.933 T-22.3392,23.2743 -16.801,20.2044 -13.4121,17.3109 -10.3327,13.3966 -6.8739,8.3496 -3.4243,2.4223 -1.7815,-0.8901 A1.9915,1.9915 0 0 1 1.7815,0.8901 Z" stroke-linecap="round" fill="#ffc034"/></g></g><g transform="matrix(1, 0, 0, 1, 810.3627, 1500.0029)" opacity="1"><g transform="scale(1)"><path d="M1.9275,-0.8269 T2.9165,1.4916 4.4858,5.818 6.3155,10.7288 9.3714,16.492 13.066,20.9193 16.5002,23.7098 18.0464,24.9332 A2.0714,2.0714 0 0 1 15.5336,28.2268 T12.4081,25.9202 7.4879,21.1692 4.0013,15.3276 1.1886,8.6908 -0.9299,3.139 -1.9275,0.8269 A2.0974,2.0974 0 0 1 1.9275,-0.8269 Z" stroke-linecap="round" fill="#ffc034"/></g></g><g transform="matrix(1, 0, 0, 1, 834.1429, 1467.8297)" opacity="1"><g transform="scale(1)"><path d="M-0.4772,-2.8597 T1.5216,-3.1763 5.5865,-3.3479 10.8606,-2.1237 16.0537,0.6612 18.9093,5.1911 18.0921,10.5864 14.2443,14.2831 9.9978,16.3952 8.05,18.0397 8.1887,18.6978 A2.9234,2.9234 0 0 1 2.4677,17.4913 T3.156,15.5427 6.6554,11.8839 11.4006,8.037 11.5485,4.5815 7.0894,2.7156 2.4469,2.5141 0.4772,2.8597 A2.8992,2.8992 0 0 1 -0.4772,-2.8597 ZM6.9157,15.6397 T7.9572,16.3121 11.8968,17.471 17.2441,18.1817 19.6932,18.406 A2.5765,2.5765 0 0 1 19.4668,23.554 T18.131,23.5547 14.4336,23.4738 8.9752,22.6632 4.8096,21.2418 3.7406,20.5494 A2.9234,2.9234 0 0 1 6.9157,15.6397 Z" stroke-linecap="round" fill="#ffc034"/></g></g><g transform="matrix(1, 0, 0, 1, 867.715, 1495.8064)" opacity="1"><g transform="scale(1)"><path d="M1.8101,-0.7251 T2.4669,0.9322 3.7485,6.5283 4.5627,13.9118 4.2797,20.4475 4.2574,26.2947 4.7076,29.0509 A1.9358,1.9358 0 0 1 0.8924,29.7091 T0.2998,26.4205 0.1637,20.2975 0.5137,14.1361 -0.0339,7.416 -1.1425,2.374 -1.8101,0.7251 A1.9499,1.9499 0 0 1 1.8101,-0.7251 Z" stroke-linecap="round" fill="#ffc034"/></g></g><g transform="matrix(1, 0, 0, 1, 880.3045, 1511.1936)" opacity="1"><g transform="scale(1)"><path d="M-0.2962,2.0715 T-2.6184,1.7904 -7.7218,1.4093 -13.0654,1.7873 -18.8014,2.8403 -21.975,3.4152 A2.0555,2.0555 0 0 1 -22.785,-0.6152 T-19.6357,-1.311 -13.3737,-2.6692 -7.2909,-3.0827 -2.0123,-2.4526 0.2962,-2.0715 A2.0925,2.0925 0 0 1 -0.2962,2.0715 Z" stroke-linecap="round" fill="#ffc034"/></g></g><g transform="matrix(1, 0, 0, 1, 897.0905, 1481.818)" opacity="1"><g transform="scale(1)"><path d="M2.1948,-0.3139 T2.4914,2.0109 2.6343,7.0934 2.4018,14.8432 2.3271,22.0959 2.3529,26.866 2.3836,31.6923 2.3602,37.8751 2.2914,43.9516 2.2549,46.162 A2.2549,2.2549 0 0 1 -2.2549,46.158 T-2.2874,43.9475 -2.3421,37.8665 -2.3425,31.6745 -2.2749,26.8316 -2.1791,22.0409 -2.0439,16.7024 -1.8706,11.6109 -1.6231,7.2571 -1.8292,2.6197 -2.1948,0.3139 A2.2171,2.2171 0 0 1 2.1948,-0.3139 Z" stroke-linecap="round" fill="#ffc034"/></g></g><g transform="matrix(1, 0, 0, 1, 911.0789, 1462.2343)" opacity="1"><g transform="scale(1)"><path d="M1.8238,-0.9943 T3.8047,2.6473 7.1748,8.8712 9.6986,14.2364 11.8427,21.2257 13.7059,28.5108 15.4262,35.9609 16.7714,43.2996 17.5358,50.5705 17.6405,57.9291 16.6728,64.6956 14.777,71.7399 12.307,77.3757 9.1833,82.0863 5.2507,86.2684 0.9508,89.7361 -1.1794,91.4295 A2.4969,2.4969 0 0 1 -4.4206,87.6305 T-2.4128,85.7936 1.1393,82.5623 4.1986,78.8198 6.8029,74.776 8.9281,70.0826 10.7348,63.8007 11.7664,57.8369 11.8954,51.0827 11.4492,44.1216 10.4971,37.011 9.1148,29.5997 7.604,22.4979 5.8589,16.0004 3.5157,10.8437 0.1638,4.6322 -1.8238,0.9943 A2.0772,2.0772 0 0 1 1.8238,-0.9943 Z" stroke-linecap="round" fill="#ffc034"/></g></g></svg>