<svg xmlns="http://www.w3.org/2000/svg" direction="ltr" width="366.2480885423049" height="375.7625246644466" viewBox="1325.6508887529571 6049.333282193911 366.2480885423049 375.7625246644466" stroke-linecap="round" stroke-linejoin="round" style="background-color: transparent;"><defs/><g transform="matrix(1, 0, 0, 1, 1370.9909, 6114.9148)" opacity="1"><g transform="scale(1)"><path d="M0,0 Q0.2098,-3.5659 0.1619,-4.6407 T-0.1217,-6.4051 -0.5906,-7.4698 -1.1603,-7.8393 -1.7849,-7.6207 -2.4393,-7.0823 -3.1099,-6.265 -3.6845,-5.1911 -4.2069,-3.9777 -4.491,-1.5346 -4.4358,1.5774 -4.0912,3.7948 -3.589,5.4205 -3.0012,6.7244 -2.262,7.9582 -1.5451,9.0488 -0.9454,9.9568 -0.4094,10.9751 -0.013,12.0535 0.2027,13.0597 0.2151,14.1314 0.0122,15.2389 -0.308,16.3657 -0.7968,17.608 -1.4823,18.8082 -2.2747,19.7757 -3.2301,20.5118 -4.2743,21.122 -5.2619,21.5589 -6.2186,21.7965 -7.1586,21.8209 -8.1944,21.6244 -9.2822,21.3078 -10.2935,20.9257 -11.1583,20.5082 -11.8385,20.0712 -12.4183,19.5189 -13.0153,18.7942 L-13.34,18.4 " stroke-linecap="round" fill="none" stroke="#4f72fc" stroke-width="3" stroke-dasharray="none" stroke-dashoffset="0"/></g></g><g transform="matrix(1, 0, 0, 1, 1372.8309, 6125.4949)" opacity="1"><g transform="scale(1)"><path d="M0,0 Q-2.3074,0 -3.3545,-0.1049 T-5.6508,-0.3349 L-6.9,-0.46 " stroke-linecap="round" fill="none" stroke="#4f72fc" stroke-width="3" stroke-dasharray="none" stroke-dashoffset="0"/></g></g><g transform="matrix(1, 0, 0, 1, 1386.171, 6111.2348)" opacity="1"><g transform="scale(1)"><path d="M0,0 Q-1.0488,2.0976 -1.6487,3.0877 T-2.7847,5.0359 -3.8223,6.9347 -4.8062,8.8067 -5.5512,11.7129 -5.7467,14.8671 -5.5385,16.7928 -5.1105,18.0501 -4.2484,18.8389 -2.9865,19.4484 L-2.3,19.78 " stroke-linecap="round" fill="none" stroke="#4f72fc" stroke-width="3" stroke-dasharray="none" stroke-dashoffset="0"/></g></g><g transform="matrix(1, 0, 0, 1, 1396.7511, 6121.3548)" opacity="1"><g transform="scale(1)"><path d="M0,0 Q-0.839,0.6293 -1.3819,1.0102 T-2.4298,1.8081 -3.4194,2.6617 -4.4822,3.5456 -5.7502,4.5264 L-6.44,5.06 " stroke-linecap="round" fill="none" stroke="#4f72fc" stroke-width="3" stroke-dasharray="none" stroke-dashoffset="0"/></g></g><g transform="matrix(1, 0, 0, 1, 1388.931, 6122.2748)" opacity="1"><g transform="scale(1)"><path d="M0,0 Q3.3562,2.7269 5.3581,4.3534 L7.36,5.98 " stroke-linecap="round" fill="none" stroke="#4f72fc" stroke-width="3" stroke-dasharray="none" stroke-dashoffset="0"/></g></g><g transform="matrix(1, 0, 0, 1, 1397.6711, 6111.6948)" opacity="1"><g transform="scale(1)"><path d="M0,0 Q2.3074,1.0488 3.1447,1.6487 T4.5425,3.0994 5.5126,4.8325 5.8306,8.3973 5.5841,12.8536 5.1354,15.6974 4.3668,17.5591 3.5292,18.7816 2.7589,19.3417 1.8658,19.6256 L1.38,19.78 " stroke-linecap="round" fill="none" stroke="#4f72fc" stroke-width="3" stroke-dasharray="none" stroke-dashoffset="0"/></g></g><g transform="matrix(1, 0, 0, 1, 1414.6912, 6120.4348)" opacity="1"><g transform="scale(1)"><path d="M0,0 Q0.4195,-0.6293 0.7434,-0.8004 T1.4532,-1.0647 2.154,-1.3134 2.9547,-1.7633 4.0203,-2.4088 L4.6,-2.76 " stroke-linecap="round" fill="none" stroke="#4f72fc" stroke-width="3" stroke-dasharray="none" stroke-dashoffset="0"/></g></g><g transform="matrix(1, 0, 0, 1, 1415.1512, 6120.8948)" opacity="1"><g transform="scale(1)"><path d="M0,0 Q0.6293,1.0488 1.0102,1.3341 T1.913,1.7745 3.0334,2.0141 4.6917,1.8299 7.0157,1.2406 L8.28,0.92 " stroke-linecap="round" fill="none" stroke="#4f72fc" stroke-width="3" stroke-dasharray="none" stroke-dashoffset="0"/></g></g><g transform="matrix(1, 0, 0, 1, 1443.6714, 6113.5348)" opacity="1"><g transform="scale(1)"><path d="M0,0 Q-5.244,5.0342 -6.8801,6.5084 T-9.7209,8.7846 -12.3628,10.5433 L-13.8,11.5 " stroke-linecap="round" fill="none" stroke="#4f72fc" stroke-width="3" stroke-dasharray="none" stroke-dashoffset="0"/></g></g><g transform="matrix(1, 0, 0, 1, 1432.1713, 6115.8348)" opacity="1"><g transform="scale(1)"><path d="M0,0 Q2.0976,2.7269 2.8779,3.5735 T4.2925,4.9855 5.4815,5.8585 6.6527,6.3334 7.8143,6.5918 8.9706,6.7323 10.3109,6.8409 L11.04,6.9 " stroke-linecap="round" fill="none" stroke="#4f72fc" stroke-width="3" stroke-dasharray="none" stroke-dashoffset="0"/></g></g><g transform="matrix(1, 0, 0, 1, 1448.2714, 6120.4348)" opacity="1"><g transform="scale(1)"><path d="M0,0 Q1.6781,0.2098 2.3443,0.2668 T3.5826,0.3549 4.7807,0.2979 6.1533,0.105 L6.9,0 " stroke-linecap="round" fill="none" stroke="#4f72fc" stroke-width="3" stroke-dasharray="none" stroke-dashoffset="0"/></g></g><g transform="matrix(1, 0, 0, 1, 1462.5315, 6110.3148)" opacity="1"><g transform="scale(1)"><path d="M0,0 Q0.2098,6.083 0.2668,8.0523 T0.4598,11.4074 0.7579,14.4466 L0.92,16.1 " stroke-linecap="round" fill="none" stroke="#4f72fc" stroke-width="3" stroke-dasharray="none" stroke-dashoffset="0"/></g></g><g transform="matrix(1, 0, 0, 1, 1579.9638, 6081.3333)" opacity="1"><g transform="scale(1)"><path d="M0,0 Q0,2.0839 0,2.7374 T0,3.9196 0,4.9093 0,5.7076 0,7.0106 0,8.6747 0,10.0132 0,11.2612 0,12.3733 0,13.3271 0,14.1948 0,15.1001 0,16.0257 0,16.8758 0,17.6849 0,18.3849 0,19.0256 0,19.8097 0,20.6717 0,21.4005 0,22.1436 0,22.981 0,23.7831 0,24.566 0,25.3407 0,26.111 0,26.8766 0,27.6397 0,28.3147 0,28.9418 0,29.6296 0.0866,30.3502 0.2204,31.0911 0.2932,31.9297 0.3328,32.9057 0.3543,33.7832 0.366,34.5204 0.3724,35.2681 0.3759,36.1969 0.3777,37.1377 0.3788,37.9094 0.466,38.7624 0.6,39.573 0.673,40.3605 0.7127,41.2221 0.7342,42.0397 0.746,42.8333 0.7524,43.5249 0.8425,44.3343 0.9782,45.2945 1.052,46.1634 1.0921,46.9827 1.1139,47.7772 1.1258,48.5582 1.1323,49.4163 1.1358,50.403 1.1377,51.3729 1.1388,52.1605 1.1393,53.0221 1.1396,54.0129 1.1398,54.9008 1.1399,55.7304 1.1399,56.5282 1.14,57.3088 1.0533,58.1666 0.9196,58.9798 0.8468,59.6844 0.8072,60.3299 0.7857,61.1143 0.6873,61.9742 0.5472,62.8751 0.471,63.8851 0.3428,64.7811 0.1865,65.6174 0.1015,66.4211 -0.0314,67.2049 -0.1904,67.9779 -0.2769,68.7449 -0.3239,69.5088 -0.3495,70.2708 -0.45,71.0343 -0.5914,71.7984 -0.6683,72.5606 -0.7101,73.4085 -0.8195,74.3896 -0.9656,75.4431 -1.0452,76.625 -1.0884,77.8767 -1.1986,78.9909 -1.3451,79.9435 -1.4249,80.8949 -1.4683,81.8457 -1.4918,82.7984 -1.5047,83.8388 -1.5117,84.838 -1.5155,85.7281 -1.5175,86.5589 -1.5187,87.3574 -1.6059,88.1383 -1.74,88.9987 -1.813,89.9888 -1.8527,90.874 -1.8742,91.7021 -1.886,92.5858 -1.8924,93.4131 -1.8959,94.2119 -1.8977,94.9087 -1.8988,95.721 -1.986,96.7693 -2.12,97.7728 -2.193,98.7519 -2.2327,99.7201 -2.2542,100.5089 -2.266,101.198 -2.2724,102.006 -2.2759,103.0521 -2.2777,104.2276 -2.2788,105.3026 -2.2793,106.3228 -2.2796,107.2244 -2.2798,107.9748 -2.2799,108.8162 -2.2799,109.7938 -2.28,110.7588 -2.28,111.6326 -2.28,112.3701 -2.28,113.1179 -2.28,113.9579 -2.28,114.7614 -2.28,115.5451 -2.28,116.318 -2.28,117.1739 -2.28,118.1616 -2.28,119.3921 -2.1934,120.8412 -2.0596,122.1517 -1.9868,123.2134 -1.9472,124.1375 -1.9257,125.1601 -1.914,126.2362 -1.9076,127.1682 -1.9041,128.0217 -1.9023,128.8349 -1.9012,129.7127 -1.814,130.6235 -1.68,131.5521 -1.607,132.5772 -1.5673,133.4813 -1.5458,134.2331 -1.534,134.9909 -1.5276,135.8387 -1.5241,136.733 -1.5223,137.4795 -1.4346,138.2321 -1.3003,139.1614 -1.2272,140.189 -1.1008,141.0969 -0.9454,141.8507 -0.8609,142.5207 -0.8149,143.2317 -0.7032,143.9651 -0.5558,144.5373 -0.4756,145.1952 -0.432,145.8996 -0.4083,146.545 -0.3954,147.1583 -0.3884,147.7519 -0.3846,148.3347 -0.2958,148.825 -0.1609,149.2651 -0.0875,149.7644 -0.0476,150.3825 -0.0259,150.9787 -0.0141,151.563 -0.0077,152.2297 -0.0042,152.9412 -0.0023,153.7614 -0.0012,154.7275 -0.0873,155.5996 -0.2208,156.3339 -0.2934,157.08 -0.3329,157.9213 -0.3544,158.8145 -0.3661,159.5603 -0.3724,160.2259 -0.4625,160.9346 -0.5982,161.58 -0.672,162.3643 -0.729,163.4626 L-0.76,164.06 " stroke-linecap="round" fill="none" stroke="#f2f2f2" stroke-width="3" stroke-dasharray="none" stroke-dashoffset="0"/></g></g><g transform="matrix(1, 0, 0, 1, 1498.5026, 6171.5496)" opacity="1"><g transform="scale(1)"><path d="M0,0 Q2.9503,-0.1733 3.9261,-0.2204 T5.606,-0.2932 6.8686,-0.3328 7.9044,-0.3543 8.8144,-0.366 9.656,-0.3724 11.3291,-0.3759 13.6277,-0.4644 15.398,-0.5992 16.7943,-0.6725 18.0737,-0.7124 19.2918,-0.8208 20.4766,-0.9663 21.6409,-1.0455 22.7942,-1.0886 23.9414,-1.112 25.0876,-1.1248 26.1466,-1.1317 27.2426,-1.1355 28.5319,-1.0509 29.7531,-0.9183 30.7663,-0.8461 31.9262,-0.8068 33.2503,-0.7855 34.5771,-0.7739 35.9077,-0.6809 37.1536,-0.5437 38.2646,-0.469 39.3888,-0.3418 40.6935,-0.1859 42.012,-0.1012 43.2514,-0.055 44.3589,-0.0299 45.4811,-0.0163 46.6981,-0.0089 47.8823,-0.0048 49.0486,-0.0026 50.2029,-0.0014 51.3507,-0.0008 52.4949,0.0862 53.5529,0.2202 54.5639,0.2931 55.6337,0.3327 56.6489,0.3543 57.6344,0.366 58.6903,0.3724 59.8735,0.3759 61.2125,0.2911 62.5475,0.1584 63.7069,0.0861 64.7731,0.0469 65.9618,0.0255 67.3883,0.0139 68.7707,0.0075 69.8694,0.0041 70.9025,0.0022 71.9,0.0012 72.8758,0.0007 73.9265,0.0004 74.9313,0.0002 75.9111,0.0001 76.9662,0.0001 77.9757,0 78.9581,0 79.9257,0 80.8852,0 81.8405,0 82.7956,0 83.8373,0 84.8372,0 85.8143,0 86.7791,0 87.7371,0 88.7804,0 89.87,0 90.8094,0 91.9269,0 93.4035,0 94.8155,0 96.0168,0 97.1902,0 98.435,0 99.6343,0 100.8088,0 101.8809,0 102.8108,0 103.8364,0 105.0031,0 106.1599,0 107.3091,0 108.3674,0 109.2897,0 110.138,0 111.1216,0 112.1788,0 113.3604,-0.0866 114.9562,-0.3071 116.6064,-0.5136 118.0262,-0.626 119.405,-0.6871 120.5883,-0.7203 121.6653,-0.7384 122.6866,-0.7483 123.591,-0.7536 124.5162,-0.8432 125.4528,-0.9785 126.3954,-1.0522 127.2548,-1.0922 128.1555,-1.114 129.0809,-1.1259 129.9332,-1.1323 130.9167,-1.1358 131.8849,-1.1377 132.7582,-1.1388 133.7531,-1.1393 134.7298,-1.1396 135.61,-1.1398 136.522,-1.1399 137.4513,-1.1399 138.3034,-1.14 139.0269,-1.14 139.767,-1.14 140.6051,-1.14 141.4099,-1.14 142.3676,-1.14 143.4084,-1.0534 144.3211,-0.9196 145.1642,-0.8468 145.9717,-0.8072 146.7598,-0.6991 147.5351,-0.5536 148.39,-0.4744 149.2883,-0.4314 150.1236,-0.4079 151.0111,-0.3952 151.9295,-0.3883 152.7779,-0.3845 153.586,-0.3824 154.3721,-0.3813 155.1464,-0.3807 155.9141,-0.3804 156.8539,-0.2069 158.0755,0.1732 L158.74,0.38 " stroke-linecap="round" fill="none" stroke="#f2f2f2" stroke-width="3" stroke-dasharray="none" stroke-dashoffset="0"/></g></g><g transform="matrix(1, 0, 0, 1, 1577.2991, 6191.3439)" opacity="1"><g transform="scale(1)"><path d="M0,0 Q0.1733,-0.1733 0.3937,-0.2204 T0.9073,-0.2932 1.4466,-0.2461 1.8266,-0.0473 1.7734,0.0609 1.3632,0.0215 L1.14,0 " stroke-linecap="round" fill="none" stroke="#4f72fc" stroke-width="3" stroke-dasharray="none" stroke-dashoffset="0"/></g></g><g transform="matrix(1, 0, 0, 1, 1579.5831, 6190.9632)" opacity="1"><g transform="scale(1)"><path d="M0,0 Q-0.6931,1.213 -0.9683,1.5429 T-1.4798,2.2278 -1.9313,2.8627 -2.3525,3.3813 -3.2771,4.4432 -4.5598,5.8873 -5.5175,7.0217 -6.2117,7.901 -6.8493,8.6393 -7.4561,9.3008 -7.9618,9.834 -8.4124,10.3839 -8.8308,10.943 -9.2317,11.4204 -9.6231,11.9401 -10.0093,12.4827 -10.3927,12.9511 -10.7745,13.3793 -11.1555,13.7877 -11.536,14.1855 -11.8297,14.5751 -12.0761,14.9604 -12.3834,15.3433 -12.7238,15.7248 -13.0823,16.1057 -13.4506,16.5728 -13.8265,17.0868 -14.2066,17.5397 -14.6733,17.9594 -15.1871,18.3609 -15.6398,18.7527 -16.0594,19.139 -16.461,19.5225 -16.9393,19.9067 -17.4595,20.3779 -17.9157,20.8941 -18.3372,21.4349 -18.7398,21.989 -19.132,22.5503 -19.5187,23.1156 -19.9046,23.5964 -20.2901,24.0312 -20.6731,24.4411 -21.1414,24.9239 -21.656,25.4488 -22.1093,25.9966 -22.5291,26.5544 -23.0174,27.0312 -23.6296,27.5505 -24.3092,28.2662 -24.9389,29.0021 -25.4569,29.5757 -26.001,30.1477 -26.6435,30.8076 -27.2529,31.4289 -27.7578,31.9401 -28.2057,32.3915 -28.7092,32.8103 -29.1565,33.2115 -29.4864,33.603 -29.9258,34.0758 -30.4248,34.593 -30.8695,35.0476 -31.287,35.4682 -31.6896,35.8703 -32.082,36.349 -32.4687,36.8716 -32.8523,37.3314 -33.2343,37.7548 -33.6154,38.1585 -33.996,38.5513 -34.3763,38.9383 -34.7565,39.3221 -35.1366,39.7042 -35.5166,40.172 -35.8966,40.6863 -36.2766,41.0528 -36.6567,41.3388 -36.95,41.6677 -37.1985,41.9332 -37.5093,42.2509 -37.9382,42.686 -38.4315,43.0982 -38.8732,43.4958 -39.2867,43.9719 -39.6849,44.4042 -40.0748,44.7261 -40.4602,45.0744 -40.8432,45.4372 -41.2248,45.8945 -41.6056,46.3165 -41.9861,46.6327 -42.3664,46.9781 -42.7488,47.3392 -43.1324,47.7089 -43.5143,48.0833 -43.8954,48.4626 -44.276,48.8444 -44.6563,49.1388 -45.0365,49.3856 -45.4166,49.6931 -45.7966,50.0337 -46.1766,50.3923 -46.3834,50.5873 -46.3226,50.5201 -46.0295,50.3103 -45.6102,49.9363 -45.1222,49.4706 -44.5102,48.955 -43.8284,48.328 -43.1086,47.6404 -42.2839,46.9197 -41.3154,46.0945 -40.1821,45.1257 -38.9568,44.1632 -37.7681,43.2042 -36.6882,42.3359 -35.6676,41.5169 -34.5925,40.5516 -33.5745,39.5933 -32.6718,38.7231 -31.832,37.9009 -31.0285,37.0204 -30.2449,36.1082 -29.3854,35.2654 -28.4846,34.3738 -27.7347,33.5421 -26.9779,32.6542 -26.1307,31.5625 -25.4099,30.5353 -24.7579,29.63 -24.1432,28.791 -23.549,28.0746 -22.8791,27.425 -22.1682,26.7228 -21.4326,25.9919 -20.6836,25.2478 -19.9295,24.4964 -19.1728,23.7411 -18.4146,22.9836 -17.6555,22.225 -16.896,21.4635 -16.223,20.7004 -15.508,19.9387 -14.7702,19.1778 -14.1089,18.4173 -13.4026,17.7436 -12.7585,17.1173 -12.1481,16.4299 -11.5562,15.7961 -11.0609,15.1891 -10.5315,14.5101 -9.9836,13.7941 -9.5123,13.1447 -8.9937,12.5315 -8.4494,11.938 -7.98,11.4419 -7.4647,10.9121 -6.8378,10.2773 -6.2369,9.672 -5.7367,9.1672 -5.2047,8.6304 -4.6554,7.9918 -4.1832,7.3845 -3.7531,6.7942 -3.3436,6.2132 -2.9452,5.7238 -2.5552,5.1977 -2.1698,4.6515 -1.7869,4.0945 -1.3186,3.5293 -0.8906,3.0463 -0.5711,2.5236 -0.1374,1.8927 0.3584,1.2895 0.8015,0.6149 1.3024,-0.272 1.9237,-1.1876 2.524,-2.0346 3.0238,-2.7575 3.4689,-3.3241 3.8844,-3.8922 4.3703,-4.4612 4.8946,-5.0307 5.353,-5.6004 5.7757,-6.0836 6.179,-6.6063 6.5716,-7.1506 7.0451,-7.709 7.5626,-8.2749 8.0197,-8.8426 8.4439,-9.4981 8.848,-10.1146 9.3277,-10.7098 9.8486,-11.3802 10.3919,-12.0915 10.9473,-12.825 11.5094,-13.4862 12.1618,-14.1081 12.7766,-14.793 13.3732,-15.5121 13.96,-16.2499 14.5391,-16.9978 15.1141,-17.8378 15.6868,-18.728 16.2582,-19.5611 16.829,-20.3632 17.3995,-21.146 17.8831,-22.0051 18.4061,-22.9057 18.9505,-23.6555 19.5089,-24.3233 20.0748,-25.1221 20.556,-25.9921 21.0777,-26.8119 21.6214,-27.6045 22.1771,-28.3822 22.7393,-29.1518 23.2184,-29.9171 23.739,-30.5933 24.2821,-31.2234 24.8375,-32.0016 25.4884,-32.8581 26.1047,-33.6707 26.6999,-34.5459 27.3703,-35.4552 27.9949,-36.2987 28.5946,-37.1064 29.2674,-37.8924 29.8933,-38.6665 30.4937,-39.5208 31.0825,-40.4188 31.6651,-41.2538 32.3285,-42.0569 33.036,-42.9293 33.6808,-43.837 34.2915,-44.7641 34.9702,-45.7016 35.686,-46.6448 36.3354,-47.5934 36.9508,-48.4582 37.5478,-49.3619 38.1325,-50.2867 38.7105,-51.1364 39.2848,-52.0318 39.9438,-52.9521 40.6489,-53.8882 41.379,-54.9196 42.125,-55.9139 42.8797,-56.8879 43.5501,-57.7644 44.2614,-58.6744 45.0816,-59.6915 45.7877,-60.6804 46.345,-61.6515 46.9082,-62.5263 47.5611,-63.3488 48.2651,-64.1428 48.9969,-65.0102 49.7416,-65.9175 50.4933,-66.7577 51.2487,-67.648 52.0063,-68.5654 52.7649,-69.4111 53.4376,-70.1311 53.9768,-70.7827 54.5323,-71.486 55.0967,-72.2174 55.577,-72.9619 56.0982,-73.7134 56.6417,-74.2955 57.1972,-74.8721 57.7594,-75.619 58.3251,-76.2852 58.8928,-76.9098 59.4615,-77.5985 60.1197,-78.3196 60.74,-78.9719 61.3374,-79.5866 61.9222,-80.181 62.4137,-80.7642 62.8543,-81.428 63.2673,-82.0491 63.7519,-82.6491 64.2754,-83.3244 64.7335,-83.9517 65.156,-84.5528 65.5591,-85.1398 66.0406,-85.6324 66.5647,-86.1602 67.0231,-86.6207 67.4458,-86.9578 67.849,-87.3145 68.4149,-87.7684 69.2213,-88.3653 L69.66,-88.69 " stroke-linecap="round" fill="none" stroke="#4f72fc" stroke-width="3" stroke-dasharray="none" stroke-dashoffset="0"/></g></g><g transform="matrix(1, 0, 0, 1, 1367.9364, 6301.7352)" opacity="1"><g transform="scale(1)"><path d="M0,0 Q-1.3908,-0.3466 -2.029,-0.3542 T-3.1877,-0.2793 -4.1646,0.0213 -5.0426,0.5314 -5.7801,1.1555 -6.1813,2.4503 -6.1397,4.0234 -5.7705,5.0524 -5.2231,5.6988 -4.4921,6.0505 -3.6589,6.1551 -2.9435,6.0388 -2.2944,5.7156 -1.6813,5.1066 -1.1746,4.4287 -0.8122,3.8866 -0.6151,3.3296 -0.5946,2.6777 -0.7566,2.2364 -0.9315,2.1697 -0.9399,2.3066 -0.7712,2.5567 -0.5062,2.8683 -0.1021,3.2977 0.4643,3.8779 1.119,4.6267 1.9106,5.4672 2.8634,6.3577 3.8149,7.3642 4.5924,8.4339 5.2753,9.6223 5.8201,10.8752 6.1164,12.1656 6.2777,13.4763 6.3654,14.7092 6.3264,15.8997 6.132,17.0672 5.7663,18.2222 5.2208,19.2859 4.5775,20.2135 3.7054,21.0646 2.6222,21.7875 1.3398,22.2675 -0.1375,22.4419 -1.6366,22.3635 -3.1475,21.9743 -4.6626,21.3271 -6.0932,20.5395 -7.307,19.418 -8.4942,17.9361 L-9.14,17.13 " stroke-linecap="round" fill="none" stroke="#e03131" stroke-width="3" stroke-dasharray="none" stroke-dashoffset="0"/></g></g><g transform="matrix(1, 0, 0, 1, 1385.8274, 6295.264)" opacity="1"><g transform="scale(1)"><path d="M0,0 Q-1.9106,2.2572 -2.6036,3.1311 T-3.8468,4.8269 -4.7831,6.3582 -5.4657,7.7133 -5.9236,8.8837 -5.5663,10.3868 -4.5921,11.9843 -3.7134,13.0288 -2.7132,13.686 -1.4482,14.1938 L-0.76,14.47 " stroke-linecap="round" fill="none" stroke="#e03131" stroke-width="3" stroke-dasharray="none" stroke-dashoffset="0"/></g></g><g transform="matrix(1, 0, 0, 1, 1395.7245, 6301.3545)" opacity="1"><g transform="scale(1)"><path d="M0,0 Q-1.3908,1.213 -2.029,1.8051 T-3.1877,2.8926 -4.1646,3.8308 -5.0426,4.6877 -5.9534,5.3272 -7.0263,5.8212 L-7.61,6.09 " stroke-linecap="round" fill="none" stroke="#e03131" stroke-width="3" stroke-dasharray="none" stroke-dashoffset="0"/></g></g><g transform="matrix(1, 0, 0, 1, 1388.492, 6301.7352)" opacity="1"><g transform="scale(1)"><path d="M0,0 Q3.2969,2.0839 4.2803,2.7374 T6.0608,3.9196 7.809,5.0792 L8.76,5.71 " stroke-linecap="round" fill="none" stroke="#e03131" stroke-width="3" stroke-dasharray="none" stroke-dashoffset="0"/></g></g><g transform="matrix(1, 0, 0, 1, 1398.7698, 6292.98)" opacity="1"><g transform="scale(1)"><path d="M0,0 Q2.2572,2.0839 3.0444,2.9973 T4.3466,4.7541 5.2282,6.4052 5.7945,7.9989 6.1025,9.5589 6.2701,11.1007 5.6681,13.3279 4.2121,15.6682 2.4685,17.5994 L1.52,18.65 " stroke-linecap="round" fill="none" stroke="#e03131" stroke-width="3" stroke-dasharray="none" stroke-dashoffset="0"/></g></g><g transform="matrix(1, 0, 0, 1, 1413.9962, 6301.3545)" opacity="1"><g transform="scale(1)"><path d="M0,0 Q1.7374,-0.3466 2.4698,-0.4408 T3.8607,-0.5864 5.1372,-0.6655 6.4404,-0.7953 7.9427,-1.0185 L8.76,-1.14 " stroke-linecap="round" fill="none" stroke="#e03131" stroke-width="3" stroke-dasharray="none" stroke-dashoffset="0"/></g></g><g transform="matrix(1, 0, 0, 1, 1413.6155, 6304.7804)" opacity="1"><g transform="scale(1)"><path d="M0,0 Q1.9106,0.1733 2.6903,0.2204 T4.0673,0.2932 5.1629,0.3328 6.2788,0.3543 7.6332,0.3709 L8.37,0.38 " stroke-linecap="round" fill="none" stroke="#e03131" stroke-width="3" stroke-dasharray="none" stroke-dashoffset="0"/></g></g><g transform="matrix(1, 0, 0, 1, 1439.5004, 6299.4512)" opacity="1"><g transform="scale(1)"><path d="M0,0 Q-2.4305,2.2572 -3.5248,3.2177 T-5.4743,4.874 -6.9703,6.1216 -8.2196,6.9736 -9.5541,7.6319 L-10.28,7.99 " stroke-linecap="round" fill="none" stroke="#e03131" stroke-width="3" stroke-dasharray="none" stroke-dashoffset="0"/></g></g><g transform="matrix(1, 0, 0, 1, 1431.5065, 6301.3545)" opacity="1"><g transform="scale(1)"><path d="M0,0 Q1.5641,1.9106 2.0761,2.6036 T3.0401,3.8468 3.8244,4.7831 4.5109,5.4657 5.3176,5.9236 6.3101,6.2775 L6.85,6.47 " stroke-linecap="round" fill="none" stroke="#e03131" stroke-width="3" stroke-dasharray="none" stroke-dashoffset="0"/></g></g><g transform="matrix(1, 0, 0, 1, 1437.9777, 6287.2701)" opacity="1"><g transform="scale(1)"><path d="M0,0 Q2.2572,-0.1733 2.9578,-0.1338 T4.1262,0.1005 4.7618,0.4879 4.9342,0.8719 4.3327,1.6029 3.31,2.5227 2.5804,3.1963 2.0102,3.7361 1.7867,4.1164 2.0116,4.3232 2.4828,4.4358 3.088,4.5836 3.8504,4.7507 4.6984,4.8416 5.6795,4.891 6.9298,4.9292 L7.61,4.95 " stroke-linecap="round" fill="none" stroke="#e03131" stroke-width="3" stroke-dasharray="none" stroke-dashoffset="0"/></g></g><g transform="matrix(1, 0, 0, 1, 1580.7251, 6267.4758)" opacity="1"><g transform="scale(1)"><path d="M0,0 Q-0.1733,2.2572 -0.2204,3.1311 T-0.2932,4.6536 -0.3328,5.9151 -0.3543,7.1235 -0.366,8.3029 -0.2858,10.4197 -0.1555,13.0464 -0.0846,14.9952 -0.046,16.5751 -0.025,17.9545 -0.0136,19.1403 -0.0074,20.1342 -0.004,21.1948 0.0844,22.3782 0.2192,23.4552 0.2925,24.4765 0.3324,25.4676 0.2675,26.5266 0.1455,27.6226 0.0792,28.7386 -0.0436,29.9545 -0.197,31.138 -0.2804,32.2151 -0.3258,33.3208 -0.3505,34.3556 -0.364,35.3517 -0.3713,36.4157 -0.3753,37.5166 -0.3774,38.6354 -0.3786,39.5905 -0.3792,40.5433 -0.3796,41.4948 -0.3798,42.448 -0.3799,43.4019 -0.3799,44.3541 -0.38,45.3919 -0.38,46.4763 -0.38,47.5884 -0.38,48.7154 -0.38,49.8484 -0.38,51.0712 -0.38,52.5185 -0.38,54.0012 -0.38,55.3276 -0.38,56.7423 -0.38,58.205 -0.38,59.5228 -0.38,60.8485 -0.38,62.0029 -0.38,63.2373 -0.38,64.8642 -0.38,66.4446 -0.38,67.7375 -0.38,68.8741 -0.38,70.1012 -0.38,71.2908 -0.38,72.3711 -0.38,73.3921 -0.38,74.3806 -0.2934,75.265 -0.1596,76.0926 -0.0868,76.9784 -0.0472,77.809 -0.0257,78.6075 -0.014,79.475 -0.0076,80.4668 -0.0041,81.5262 -0.0023,82.538 -0.0012,83.5239 0.086,84.58 0.22,85.5878 0.293,86.4825 0.3327,87.4025 0.4409,88.3384 0.5864,89.2831 0.6656,90.2302 0.7086,91.2652 0.8187,92.608 0.9652,94.2072 1.0449,95.7726 1.0883,97.0573 1.1119,98.0161 1.1247,98.9709 1.1317,100.0991 1.1355,101.1483 1.1375,102.1523 1.1387,103.1316 1.1393,104.011 1.1396,105.0114 1.1398,106.0778 1.1399,107.0911 1.1399,107.9889 1.2266,108.9105 1.3604,110.105 1.4332,111.2769 1.4728,112.2633 1.4943,113.1464 1.506,114.0601 1.5124,114.9036 1.5159,115.7091 1.5177,116.5805 1.4321,117.49 1.2989,118.5069 1.1398,119.4933 0.88,120.4631 0.652,121.5105 0.4413,122.6024 0.3267,123.7185 0.3612,124.95 L0.38,125.62 " stroke-linecap="round" fill="none" stroke="#f2f2f2" stroke-width="3" stroke-dasharray="none" stroke-dashoffset="0"/></g></g><g transform="matrix(1, 0, 0, 1, 1479.089, 6350.4596)" opacity="1"><g transform="scale(1)"><path d="M0,0 Q2.777,0.1733 3.7057,0.1338 T5.3128,0.0728 6.5336,0.0396 7.5466,0.0215 8.3598,0.0117 9.8419,0.0064 11.8634,0.0035 13.3986,0.0019 14.6669,0.001 15.8767,0.0006 16.9681,0.0003 18.0816,0.0002 19.2095,0.0001 20.3451,0 21.5694,0 22.7553,-0.0866 23.9202,-0.2204 25.0761,-0.2932 26.3136,-0.3328 27.5933,-0.4409 28.896,-0.5864 30.2134,-0.6656 31.5388,-0.7086 32.8663,-0.7321 34.1949,-0.7448 35.5265,-0.7517 36.8596,-0.7555 38.1913,-0.7576 39.349,-0.7587 40.5852,-0.7593 41.9531,-0.7596 43.306,-0.7598 44.6485,-0.7599 45.9852,-0.7599 47.3212,-0.76 48.5701,-0.76 49.6827,-0.76 50.9811,-0.8466 52.5561,-0.9804 54.0216,-1.1398 55.2521,-1.3132 56.5279,-1.4075 57.9151,-1.5454 59.2785,-1.7071 60.5423,-1.7951 61.663,-1.8429 62.9658,-1.8689 64.3699,-1.8831 65.8292,-1.8908 67.576,-1.8084 69.3061,-1.6769 70.856,-1.5187 72.3079,-1.346 73.7042,-1.2521 75.1569,-1.201 76.556,-1.1732 77.9258,-1.158 79.3641,-1.1498 80.8397,-1.1453 82.2511,-1.0563 83.7144,-0.9212 85.2035,-0.8477 86.6201,-0.7211 88.1727,-0.5655 89.7128,-0.4809 91.2437,-0.3483 92.8585,-0.1895 94.4324,-0.1031 95.9817,-0.0561 97.6043,-0.0305 99.269,-0.0166 100.87,-0.009 102.4341,-0.0049 103.8048,-0.0027 105.2458,-0.0015 106.9851,-0.0008 108.711,-0.0004 110.3453,-0.0869 111.9298,-0.2205 113.4848,-0.2933 114.8506,-0.3328 116.289,-0.3543 117.9402,-0.366 119.4449,-0.459 120.8699,-0.5963 122.3406,-0.6709 123.836,-0.7982 125.3426,-0.9541 126.7687,-1.1255 128.1533,-1.3054 129.5152,-1.4032 130.776,-1.4565 132.0683,-1.4854 133.4667,-1.5012 134.8362,-1.5098 136.1011,-1.5144 137.3956,-1.517 138.7063,-1.5184 139.9415,-1.5191 141.1355,-1.5195 142.3049,-1.6064 143.4609,-1.7403 144.6096,-1.8131 145.7566,-1.8527 146.9027,-1.8743 147.9594,-1.886 149.0541,-1.979 150.3427,-2.1163 151.7391,-2.1909 153.2808,-2.2315 154.8992,-2.2536 156.3884,-2.2657 157.8073,-2.2722 159.1857,-2.2758 160.282,-2.2777 161.3983,-2.2787 162.701,-2.2793 163.9317,-2.2796 165.2077,-2.2798 166.5084,-2.2799 167.8224,-2.3666 169.3193,-2.5004 171.0022,-2.5732 172.5243,-2.6128 173.961,-2.6343 175.438,-2.646 176.7613,-2.6524 177.9144,-2.6559 178.9749,-2.6577 180.1634,-2.6592 L180.81,-2.66 " stroke-linecap="round" fill="none" stroke="#f2f2f2" stroke-width="3" stroke-dasharray="none" stroke-dashoffset="0"/></g></g><g transform="matrix(1, 0, 0, 1, 1578.0605, 6350.0789)" opacity="1"><g transform="scale(1)"><path d="M0,0 Q1.3908,0.3466 1.8557,0.3542 T2.7469,0.366 3.8381,0.2857 4.9516,0.0688 5.8173,-0.1359 6.5481,-0.2472 7.119,-0.3944 7.6917,-0.6477 8.3521,-0.8722 8.9713,-1.081 9.5681,-1.3678 10.1526,-1.6971 10.7306,-2.0496 11.3049,-2.4168 11.8772,-2.7922 12.4485,-3.1697 13.0192,-3.5483 13.6785,-3.9276 14.2993,-4.3072 14.897,-4.6869 15.5687,-5.0668 16.194,-5.4467 16.7941,-5.8267 17.3805,-6.2067 18.046,-6.5867 18.7546,-6.9667 19.4023,-7.3467 20.0169,-7.7267 20.5245,-8.1089 21.0605,-8.4925 21.612,-8.8744 22.0853,-9.2554 22.6027,-9.7226 23.1441,-10.1501 23.6986,-10.6425 24.3467,-11.257 24.9593,-11.8512 25.5547,-12.5209 26.2274,-13.2342 26.8533,-13.971 27.4537,-14.6317 28.0403,-15.1645 28.6193,-15.7142 29.1942,-16.2732 29.7668,-16.8372 30.4249,-17.4905 31.0451,-18.1925 31.6447,-19.0099 32.3174,-19.89 32.9433,-20.802 33.5437,-21.7313 34.2169,-22.5834 34.843,-23.3936 35.3569,-24.0942 35.8964,-24.8242 36.4498,-25.7434 37.0131,-26.6766 37.5817,-27.6175 38.0643,-28.5626 38.5867,-29.5965 39.1309,-30.7677 39.6001,-31.927 40.0287,-33.0775 40.4351,-34.0499 40.9162,-35.0121 41.4377,-36.1443 41.8948,-37.2823 42.4056,-38.4213 42.9457,-39.5607 43.4128,-40.7004 43.8401,-41.8425 44.2459,-42.8993 44.7266,-43.994 45.1613,-45.0227 45.5711,-46.1022 46.054,-47.3848 46.4899,-48.6047 46.8137,-49.7882 47.0765,-50.8652 47.3061,-51.8842 47.5176,-53.134 47.7194,-54.4227 47.9157,-55.6435 48.1958,-56.8275 48.5238,-58.2537 48.8777,-60.1581 49.2436,-61.8872 49.5292,-63.3477 49.7713,-64.7509 50.0762,-66.2963 50.4154,-68.0901 50.6865,-69.5857 50.834,-70.8348 51.0009,-71.9498 51.1783,-72.9029 51.2749,-74.0279 51.414,-75.0731 51.5763,-75.9883 51.6646,-77.1815 51.7993,-78.526 51.9592,-79.604 52.0462,-80.4503 52.0935,-81.1707 52.1193,-81.9091 52.1333,-82.6596 52.1409,-83.3301 52.1451,-84.0414 52.1473,-84.9482 52.1491,-86.1411 L52.15,-86.79 " stroke-linecap="round" fill="none" stroke="#e03131" stroke-width="3" stroke-dasharray="none" stroke-dashoffset="0"/></g></g><g transform="matrix(1, 0, 0, 1, 1579.2024, 6350.0789)" opacity="1"><g transform="scale(1)"><path d="M0,0 Q-2.4305,-1.0397 -3.1782,-1.4091 T-4.5926,-2.1551 -5.7953,-2.9097 -6.7961,-3.5802 -7.6027,-4.2048 -8.3037,-4.8912 -9.0316,-5.5245 -9.7742,-6.1289 -10.438,-6.7177 -11.0591,-7.2112 -11.7435,-7.7419 -12.3757,-8.2928 -12.9796,-8.7658 -13.6569,-9.283 -14.4609,-9.8243 -15.3314,-10.4653 -16.1516,-11.2472 -16.9443,-12.1058 -17.6355,-12.9194 -18.4447,-13.9707 -19.3203,-15.1514 -20.1455,-16.3136 -21.0277,-17.7255 -21.8541,-19.1891 -22.7369,-20.6806 -23.6503,-22.2718 -24.4938,-23.8328 -25.3014,-25.2907 -26.1763,-26.8636 -27.0854,-28.499 -27.9266,-30.084 -28.7307,-31.7284 -29.5147,-33.4026 -30.2878,-35.0088 -31.0571,-36.578 -31.8245,-38.2114 -32.5885,-39.8797 -33.3507,-41.4827 -34.1119,-43.0501 -34.8726,-44.5959 -35.6329,-46.1299 -36.3065,-47.6598 -36.9351,-49.1875 -37.6259,-50.625 -38.3482,-52.0135 -39.0011,-53.4643 -39.6162,-54.8623 -40.2107,-56.1426 -40.6208,-57.2723 -40.9305,-58.4956 -41.2723,-59.7698 -41.6315,-60.8962 -41.9135,-62.0288 -42.1536,-63.0782 -42.4575,-64.0822 -42.7094,-65.1505 -42.8465,-66.2538 -43.01,-67.2872 -43.1878,-68.2826 -43.2846,-69.2572 -43.4238,-70.134 -43.5863,-71.0465 -43.6746,-71.9783 -43.8093,-72.8318 -43.9692,-73.6427 -44.0562,-74.4303 -44.1902,-75.1187 -44.3497,-75.7532 -44.4365,-76.3582 -44.5703,-77.0362 -44.8164,-77.9271 -45.0369,-78.845 -45.2435,-79.6042 -45.4426,-80.2772 -45.5508,-80.9032 -45.6097,-81.5037 -45.6418,-82.2658 -45.6665,-83.2271 L-45.68,-83.75 " stroke-linecap="round" fill="none" stroke="#e03131" stroke-width="3" stroke-dasharray="none" stroke-dashoffset="0"/></g></g></svg>