<svg xmlns="http://www.w3.org/2000/svg" direction="ltr" width="651.6159765909297" height="395.66999999999825" viewBox="3363.7254303549507 28491.84591863397 651.6159765909297 395.66999999999825" stroke-linecap="round" stroke-linejoin="round" style="background-color: transparent;"><defs/><g transform="matrix(1, 0, 0, 1, 3438.8099, 28562.0529)" opacity="1"><path d="M0,103.97352998178758 a100.59502807433341,103.97352998178758,0,1,1,201.19005614866683,0a100.59502807433341,103.97352998178758,0,1,1,-201.19005614866683,0 " stroke="#9398b0" stroke-width="3.5" fill="none"/></g><g transform="matrix(1, 0, 0, 1, 3542.8631, 28523.8459)" opacity="1"><g transform="scale(1)"><path d="M3.6233,0 T3.6289,3.2684 3.6446,8.6448 3.6724,13.7069 4.0608,19.6427 4.8944,26.7482 5.7957,33.5733 6.4821,38.4031 6.9385,43.5574 7.5057,48.8722 7.9911,53.6055 8.1713,58.4757 8.2402,62.9959 8.2649,67.0777 8.2824,71.64 7.9448,76.6763 7.5509,81.3746 7.2631,85.8 6.8646,89.9951 6.415,94.7826 5.9714,99.5701 5.4879,103.5669 5.0091,108.3148 4.5241,113.3963 4.085,117.9514 3.7049,123.6179 3.2608,129.1991 3.0283,133.3307 2.9206,137.5182 2.8442,141.8009 2.7755,145.9278 2.7002,150.5973 2.6209,155.7146 2.2429,160.7954 1.7933,165.7237 1.6244,170.7602 1.5287,176.6546 1.4617,183.1936 1.2148,188.5239 0.826,193.7429 0.61,199.208 0.5398,203.599 0.6731,209.479 0.9337,215.2697 1.0845,219.3816 1.1605,223.4704 1.2052,228.8931 1.2349,236.251 1.2532,243.5782 1.2685,250.41 1.284,257.3112 0.9993,264.0182 0.3331,270.5649 -0.6496,277.2961 -1.7186,284.2352 -2.9027,291.5396 -4.021,297.3651 -4.812,301.5297 -5.6149,305.8376 -6.6357,311.5228 -7.4252,318.1305 -7.6637,323.4054 -6.7476,328.0444 -5.7678,330.4629 A2.6527,2.6527 0 0 1 -10.4922,332.8771 T-11.0553,331.843 -12.4788,328.1762 -13.3075,323.2499 -13.1072,317.6721 -12.3166,310.6432 -11.2998,304.7885 -10.5094,300.4587 -9.7309,296.2568 -8.6433,290.5098 -7.4829,283.2567 -6.4561,276.5626 -5.5107,270.1462 -4.8445,263.8312 -4.5445,257.309 -4.5302,250.4112 -4.5193,243.5821 -4.5166,236.2655 -4.5433,228.9436 -4.5977,223.5839 -4.778,217.6663 -5.1278,209.7336 -5.3242,203.5427 -5.2657,197.6354 -4.949,190.2126 -4.7155,183.1868 -4.7663,176.6359 -4.8036,170.6698 -4.7623,165.3719 -4.4551,160.5127 -4.2406,155.7079 -4.3193,150.596 -4.3922,145.9229 -4.4523,141.7835 -4.4976,137.4455 -4.4935,133.1155 -4.3232,128.4493 -4.0134,122.9282 -3.7852,117.4876 -3.4448,112.9488 -3.1446,108.9261 -2.777,104.9339 -2.3521,100.2965 -1.9952,95.4848 -1.624,90.9259 -1.2467,86.0374 -0.915,81.029 -0.5163,76.3531 -0.1627,71.6219 -0.1439,66.3823 -0.1286,61.5951 -0.1542,56.8791 -0.2935,51.9925 -0.7071,47.1292 -1.2855,40.9773 -1.9397,34.5199 -2.7189,26.3437 -3.4038,18.8723 -3.6724,13.7174 -3.6446,8.6448 -3.6289,3.2684 -3.6233,0 A3.6233,3.6233 0 0 1 3.6233,0 Z" stroke-linecap="round" fill="#9398b0"/></g></g><g transform="matrix(1, 0, 0, 1, 3395.7254, 28668.5449)" opacity="1"><g transform="scale(1)"><path d="M-0.1075,-1.7267 T2.9696,-1.9099 7.9805,-2.379 11.3887,-2.8266 15.0482,-3.1254 19.3193,-3.3078 23.6458,-3.3789 32.2899,-3.2408 43.0487,-2.8073 50.4359,-2.4069 56.0165,-2.216 60.9476,-1.9362 65.4677,-1.6137 69.501,-1.4617 73.6369,-1.196 77.9284,-0.8715 82.0215,-0.7112 86.2917,-0.6382 90.656,-0.6084 95.0712,-0.5927 99.7033,-0.5829 103.6825,-0.5782 107.896,-0.5805 112.9988,-0.5877 117.8027,-0.5975 122.4514,-0.6133 127.1134,-0.433 131.4952,-0.1541 135.6301,-0.0223 139.7278,0.0403 143.9177,0.2634 148.049,0.5599 152.0405,0.7018 156.0653,0.7736 159.9972,0.6251 163.7949,0.3533 167.6381,0.2007 171.3994,0.1193 174.9194,0.0694 178.3128,0.0315 181.8301,0 185.4846,-0.212 189.1362,-0.5118 192.5804,-0.8496 195.9353,-1.225 200.3522,-1.481 204.456,-1.8017 207.3664,-2.1317 210.3989,-2.3233 214.6963,-2.6307 219.0748,-2.9946 222.1481,-3.1793 226.3998,-3.5837 230.7679,-3.9961 235.2051,-4.1305 240.9504,-4.2237 245.362,-4.2623 249.817,-4.2868 254.2791,-4.3082 257.4338,-4.3194 260.6242,-4.1216 263.8257,-3.8331 267.0636,-3.6975 270.4814,-3.4182 275.6911,-2.8103 281.1652,-2.2795 285.1943,-1.8133 289.1598,-1.1233 293.1431,-0.319 296.6568,0.5553 300.9863,1.9658 303.8003,2.9288 A2.0357,2.0357 0 0 1 302.6397,6.8312 T301.1375,6.4458 296.9602,5.411 292.3009,4.4567 288.3896,3.8678 284.6717,3.3681 280.6912,3.0398 275.0237,2.5672 270.0327,1.9981 266.8125,1.73 262.0633,1.3672 257.4314,1.0607 254.281,1.0506 249.8226,1.034 245.3748,1.0186 240.9892,1.0129 235.3429,1.0479 229.8056,1.2442 224.0771,1.696 219.6057,2.0817 215.1452,2.4141 209.3552,2.7986 204.8482,3.1619 200.6056,3.4727 196.482,3.6878 193.0762,4.0688 189.5255,4.4304 185.7381,4.7216 181.8467,4.9043 178.3424,4.8946 174.9732,4.898 171.4947,4.9267 167.8191,4.9942 164.1205,5.1243 160.1683,5.389 155.9644,5.5314 151.8482,5.4282 147.6891,5.2379 143.6511,4.9043 139.6365,4.6586 135.4628,4.5586 131.1906,4.382 126.9163,4.0755 122.4501,3.872 117.8017,3.855 112.9971,3.843 107.8913,3.8318 103.6745,3.8216 99.6898,3.8113 95.0443,3.7928 90.6057,3.7547 86.1936,3.6825 81.8341,3.562 77.5853,3.3549 73.3446,2.9823 69.3143,2.6613 65.1488,2.436 60.6816,2.0426 55.8557,1.6909 50.2102,1.4105 42.8654,0.9166 31.0939,0.3744 21.5726,0.154 17.498,0.2146 12.9339,0.4943 8.3363,1.023 3.1841,1.5267 0.1075,1.7267 A1.7301,1.7301 0 0 1 -0.1075,-1.7267 Z" stroke-linecap="round" fill="#9398b0"/></g></g><g transform="matrix(1, 0, 0, 1, 3541.2373, 28671.7965)" opacity="1"><g transform="scale(1)"><path d="M-1.0947,-0.8509 T0.2522,-2.5811 2.5086,-5.4293 4.8507,-8.1469 7.3037,-10.9914 11.297,-16.0907 16.0251,-22.1624 18.8743,-25.9042 21.3832,-29.2 24.0316,-32.4856 26.4867,-35.5974 28.981,-38.6934 31.4928,-41.4938 33.9516,-44.0385 36.3253,-46.6252 38.7084,-49.2607 40.8954,-51.6389 43.0033,-53.9149 45.0125,-56.268 46.9764,-58.3397 49.3694,-60.6612 51.9614,-63.583 54.0852,-66.5092 56.0659,-69.6114 58.1414,-72.4297 60.8201,-74.8094 62.5844,-76.0554 A1.511,1.511 0 0 1 64.2356,-73.5246 T62.6633,-72.3661 60.0495,-69.8659 58.0279,-67.0635 56.2558,-64.3129 54.2719,-61.6914 51.5449,-58.7062 48.6518,-55.8232 46.2338,-53.3196 43.6703,-50.4173 40.9566,-47.5322 38.4613,-44.7872 35.9604,-42.0715 33.5417,-39.5945 31.1654,-36.9878 28.7507,-34.0158 26.2123,-30.8035 23.5631,-27.5127 21.0791,-24.2427 18.2052,-20.4603 12.9656,-13.6605 8.1748,-7.687 5.3325,-4.4606 2.4391,-0.8812 1.0947,0.8509 A1.3865,1.3865 0 0 1 -1.0947,-0.8509 Z" stroke-linecap="round" fill="#e599f7"/></g></g><g transform="matrix(1, 0, 0, 1, 3570.5022, 28602.6987)" opacity="1"><g transform="scale(1)"><path d="M1.5444,0.0905 T1.3875,3.361 1.1359,8.5411 0.9832,12.0207 0.8611,15.3573 0.7969,17.1239 A1.6078,1.6078 0 0 1 -2.4169,17.0161 T-2.3625,15.2491 -2.2597,11.8807 -2.104,8.3607 -1.7706,3.1759 -1.5444,-0.0905 A1.5471,1.5471 0 0 1 1.5444,0.0905 Z" stroke-linecap="round" fill="#e599f7"/></g></g><g transform="matrix(1, 0, 0, 1, 3568.8764, 28603.5116)" opacity="1"><g transform="scale(1)"><path d="M1.0349,1.2929 T0.0813,2.0697 -3.2134,4.511 -5.5544,6.1755 A1.6039,1.6039 0 0 1 -7.4456,3.5845 T-5.207,1.9062 -2.0016,-0.5325 -1.0349,-1.2929 A1.6561,1.6561 0 0 1 1.0349,1.2929 Z" stroke-linecap="round" fill="#e599f7"/></g></g><g transform="matrix(1, 0, 0, 1, 3605.4576, 28592.1308)" opacity="1"><g transform="scale(1)"><path d="M1.7881,-0.2546 T1.9816,1.0909 2.3382,4.3644 2.3734,10.1144 2.1647,15.8475 2.043,19.3322 1.973,23.1392 1.9394,26.8706 1.9387,30.4699 1.9462,34.1094 1.9544,37.7651 1.963,41.3217 1.9732,44.8094 1.9816,48.3286 1.6807,51.5857 1.2973,55.2087 1.2119,58.5527 1.2115,62.114 1.2201,66.2554 1.2227,69.8805 1.2205,73.1042 1.2194,74.79 A2.0294,2.0294 0 0 1 -2.8394,74.79 T-2.8404,73.1041 -2.8425,69.8802 -2.8385,66.2535 -2.821,62.1018 -2.7898,58.4991 -2.6594,54.8533 -2.2658,51.2732 -1.9816,48.3286 -1.9732,44.8094 -1.963,41.3217 -1.954,37.7647 -1.9446,34.1075 -1.929,30.4589 -1.9006,26.8358 -1.8332,23.0553 -1.726,19.1828 -1.5631,15.6443 -1.288,10.1274 -1.2637,4.7446 -1.5985,1.6005 -1.7881,0.2546 A1.8062,1.8062 0 0 1 1.7881,-0.2546 Z" stroke-linecap="round" fill="#e599f7"/></g></g><g transform="matrix(1, 0, 0, 1, 3602.2059, 28655.5382)" opacity="1"><g transform="scale(1)"><path d="M0,1.2911 T-1.7312,1.3236 -4.9494,1.3343 -8.0932,1.2923 -9.75,1.2722 A1.2722,1.2722 0 0 1 -9.75,-1.2722 T-8.0932,-1.2923 -4.9494,-1.3343 -1.7312,-1.3236 0,-1.2911 A1.2911,1.2911 0 0 1 0,1.2911 Z" stroke-linecap="round" fill="#e599f7"/></g></g><g transform="matrix(1, 0, 0, 1, 3591.638, 28659.6028)" opacity="1"><g transform="scale(1)"><path d="M1.5719,-0.1306 T1.8072,2.1717 2.145,6.0911 2.3603,9.4917 2.4731,11.2751 A1.6664,1.6664 0 0 1 -0.8531,11.4849 T-0.9653,9.7014 -1.1768,6.3338 -1.4241,2.4401 -1.5719,0.1306 A1.5773,1.5773 0 0 1 1.5719,-0.1306 Z" stroke-linecap="round" fill="#e599f7"/></g></g><g transform="matrix(1, 0, 0, 1, 3609.1549, 28591.4623)" opacity="1"><g transform="scale(1)"><path d="M-1.2633,0.9465 T-1.8544,0.2009 -2.8017,-1.3341 -3.158,-2.1233 A1.6723,1.6723 0 0 1 -0.0359,-3.3229 T0.0743,-2.8979 0.7239,-1.7097 1.2633,-0.9465 A1.5786,1.5786 0 0 1 -1.2633,0.9465 ZM-1.6359,-4.395 T-1.223,-4.4174 -0.8102,-4.4398 A1.6979,1.6979 0 0 1 -0.7311,-1.0449 T-1.1446,-1.0481 -1.5581,-1.0512 A1.6723,1.6723 0 0 1 -1.6359,-4.395 ZM0.8474,-3.2569 T1.112,-2.4765 0.8298,0.0095 -1.1456,1.7048 -3.0414,1.5035 -3.5084,1.3126 A1.6884,1.6884 0 0 1 -2.3316,-1.8526 T-2.1325,-1.2728 -2.1611,-1.4603 -2.3887,-2.2278 A1.6979,1.6979 0 0 1 0.8474,-3.2569 Z" stroke-linecap="round" fill="#e599f7"/></g></g><g transform="matrix(1, 0, 0, 1, 3607.8267, 28591.1967)" opacity="1"><g transform="scale(1)"><path d="M-0.2344,1.8491 T-0.7543,1.7864 -2.6168,0.6236 -3.9594,-0.4765 A1.895,1.895 0 0 1 -0.8059,-2.5787 T-0.7733,-2.2789 -0.2532,-1.9141 0.2344,-1.8491 A1.8639,1.8639 0 0 1 -0.2344,1.8491 ZM-3.5545,-3.0169 T-3.0231,-3.4417 -0.9647,-4.0119 1.6481,-2.9571 2.6441,-0.2013 1.2396,2.1739 -1.892,2.1218 -4.1391,0.7996 -4.5693,0.3491 A1.9718,1.9718 0 0 1 -1.8107,-2.4691 T-1.0429,-1.6152 -0.7429,-0.3998 -1.2108,-0.0384 A1.895,1.895 0 0 1 -3.5545,-3.0169 Z" stroke-linecap="round" fill="#e599f7"/></g></g><g transform="matrix(1, 0, 0, 1, 3606.4986, 28590.1342)" opacity="1"><g transform="scale(1)"><path d="M-2.4536,0.7125 T-2.7882,-0.5418 -3.1227,-1.796 A2.498,2.498 0 0 1 1.6751,-3.1892 T2.0644,-1.9508 2.4536,-0.7125 A2.555,2.555 0 0 1 -2.4536,0.7125 ZM-1.2866,-4.9264 T-1.1151,-4.9646 -0.9436,-5.0028 A2.4952,2.4952 0 0 1 0.1808,-0.1408 T0.0099,-0.0998 -0.161,-0.0588 A2.498,2.498 0 0 1 -1.2866,-4.9264 ZM1.7333,-3.8961 T2.0765,-3.3371 2.6899,-1.3421 1.8168,1.5891 -1.316,2.8399 -4.0759,0.7437 -4.0633,-2.5171 -1.8849,-4.3638 1.1492,-4.2029 3.5889,-2.0358 3.3369,1.225 -0.3748,2.5005 -3.0334,2.084 A2.5348,2.5348 0 0 1 -0.0359,-2.0043 T-0.9274,-1.0962 -2.1576,-0.7178 -2.4962,-1.2475 A2.4952,2.4952 0 0 1 1.7333,-3.8961 ZM-3.0112,-2.0205 T-2.2269,-2.5467 -1.4425,-3.0729 A2.4764,2.4764 0 0 1 1.4425,0.9529 T0.6922,1.5265 -0.0581,2.1001 A2.5348,2.5348 0 0 1 -3.0112,-2.0205 Z" stroke-linecap="round" fill="#4dabf7"/></g></g><g transform="matrix(1, 0, 0, 1, 3627.2177, 28560.6493)" opacity="1"><g transform="scale(1)"><path d="M1.6183,1.6183 T0.6594,2.5402 -1.1738,4.6875 -2.5977,7.7328 -2.9054,11.917 -2.0934,16.3407 -0.5173,19.7504 1.1026,21.7662 1.7163,22.4315 A2.0682,2.0682 0 0 1 -1.1763,25.3885 T-1.855,24.7896 -3.7399,22.9197 -5.7858,19.7493 -6.9222,16.3954 -7.4817,12.4319 -7.333,8.0812 -6.3472,4.8999 -4.6192,1.9315 -2.5419,-0.6577 -1.6183,-1.6183 A2.2886,2.2886 0 0 1 1.6183,1.6183 Z" stroke-linecap="round" fill="#4dabf7"/></g></g><g transform="matrix(1, 0, 0, 1, 3642.1876, 28567.0387)" opacity="1"><g transform="scale(1)"><path d="M1.0238,1.2818 T-0.043,2.2103 -2.9849,5.1337 -7.0857,8.5 -9.3111,9.8714 A1.7562,1.7562 0 0 1 -11.2289,6.9286 T-10.1841,6.1971 -7.3563,3.9714 -4.4407,1.4336 -2.166,-0.446 -1.0238,-1.2818 A1.6404,1.6404 0 0 1 1.0238,1.2818 Z" stroke-linecap="round" fill="#4dabf7"/></g></g><g transform="matrix(1, 0, 0, 1, 3632.8509, 28565.1714)" opacity="1"><g transform="scale(1)"><path d="M1.5252,-0.653 T2.251,0.8665 3.927,4.2009 6.0161,7.552 7.7386,9.7563 8.3222,10.4243 A1.8166,1.8166 0 0 1 5.6778,12.9157 T4.4484,11.7062 2.3405,9.1571 0.567,5.8092 -0.9266,2.2269 -1.5252,0.653 A1.6592,1.6592 0 0 1 1.5252,-0.653 Z" stroke-linecap="round" fill="#4dabf7"/></g></g><g transform="matrix(1, 0, 0, 1, 3646.8559, 28581.0438)" opacity="1"><g transform="scale(1)"><path d="M1.2587,0.6293 T-0.3642,3.9054 -1.987,7.1815 A1.4344,1.4344 0 0 1 -4.553,5.8985 T-2.9058,2.6346 -1.2587,-0.6293 A1.4072,1.4072 0 0 1 1.2587,0.6293 Z" stroke-linecap="round" fill="#4dabf7"/></g></g><g transform="matrix(1, 0, 0, 1, 3658.9936, 28569.8397)" opacity="1"><g transform="scale(1)"><path d="M1.6182,-0.4037 T2.2457,1.7849 3.7117,5.5218 4.7714,5.2347 4.9925,3.3993 A1.8336,1.8336 0 0 1 8.627,2.9102 T8.8025,4.2145 8.023,7.8286 5.3247,10.3732 1.9768,9.147 -0.1485,6.2741 -1.1436,2.6329 -1.6182,0.4037 A1.6678,1.6678 0 0 1 1.6182,-0.4037 ZM7.5302,4.8409 T7.466,4.8673 7.4019,4.8937 A1.8317,1.8317 0 0 1 5.9624,1.5248 T6.0258,1.4967 6.0893,1.4686 A1.8336,1.8336 0 0 1 7.5302,4.8409 ZM8.5003,2.9865 T8.4979,3.2316 9.3128,4.87 10.9768,7.4895 12.7007,10.1595 14.1234,13.0646 14.6275,16.8378 13.9366,20.5409 12.0149,22.9342 9.1529,24.2084 5.906,24.2589 2.7896,23.1241 0.3045,21.0065 -1.1697,19.103 -1.6181,18.4038 A1.9758,1.9758 0 0 1 1.6181,16.1362 T2.3841,17.1806 4.6837,19.1825 7.948,19.8745 10.2734,18.0905 10.4765,14.9655 9.3756,12.0917 7.8644,9.589 6.0805,6.5855 4.9813,4.1248 4.864,3.432 A1.8317,1.8317 0 0 1 8.5003,2.9865 Z" stroke-linecap="round" fill="#4dabf7"/></g></g><g transform="matrix(1, 0, 0, 1, 3677.2002, 28565.1714)" opacity="1"><g transform="scale(1)"><path d="M2.0842,-0.9869 T3.1077,1.0976 4.7279,4.8505 5.6602,8.0286 6.1721,11.9352 5.833,16.2659 3.697,19.2695 2.0764,20.3392 A2.4182,2.4182 0 0 1 -0.2164,16.0808 T0.3971,15.7898 1.2005,14.0769 1.0664,10.3592 0.2923,6.6361 -1.1211,3.0979 -2.0842,0.9869 A2.306,2.306 0 0 1 2.0842,-0.9869 Z" stroke-linecap="round" fill="#4dabf7"/></g></g><g transform="matrix(1, 0, 0, 1, 3703.2372, 28569.815)" opacity="1"><g transform="scale(1)"><path d="M0,-1.5467 T2.5968,-1.577 8.0868,-1.6291 10.98,-1.651 A1.651,1.651 0 0 1 10.98,1.651 T8.0868,1.6291 2.5968,1.577 0,1.5467 A1.5467,1.5467 0 0 1 0,-1.5467 Z" stroke-linecap="round" fill="#4dabf7"/></g></g><g transform="matrix(1, 0, 0, 1, 3704.8058, 28574.521)" opacity="1"><g transform="scale(1)"><path d="M0.6747,-2.0242 T1.7984,-1.6851 4.6975,-1.0805 7.6523,-0.6612 8.8317,-0.5074 A2.0871,2.0871 0 0 1 8.4283,3.6474 T7.2413,3.5714 3.794,3.1633 0.4294,2.4277 -0.6747,2.0242 A2.1337,2.1337 0 0 1 0.6747,-2.0242 Z" stroke-linecap="round" fill="#4dabf7"/></g></g><g transform="matrix(1, 0, 0, 1, 3543.2346, 28671.7774)" opacity="1"><g transform="scale(1)"><path d="M0,-2.1027 T1.1139,-2.0973 4.0584,-2.091 9.5864,-2.4771 15.6729,-3.076 19.7042,-3.4002 23.4342,-3.7726 27.5126,-4.2377 31.8126,-4.52 35.6689,-4.6155 38.6895,-4.647 41.8912,-4.6719 45.5181,-4.6929 49.6485,-4.4285 54.2823,-3.8816 57.9702,-3.3704 59.2559,-3.1322 A2.3922,2.3922 0 0 1 58.3841,1.5722 T57.0985,1.3339 53.6371,0.8386 49.4328,0.2921 45.5123,-0.0066 41.8942,-0.0262 38.6981,-0.0461 35.6977,-0.0598 32.0084,-0.0288 28.1364,0.1445 24.0228,0.5573 20.0198,0.926 16.0577,1.1994 9.7946,1.7345 4.0594,2.091 1.1139,2.0973 0,2.1027 A2.1027,2.1027 0 0 1 0,-2.1027 Z" stroke-linecap="round" fill="#4dabf7"/></g></g><g transform="matrix(1, 0, 0, 1, 3561.2741, 28670.2088)" opacity="1"><g transform="scale(1)"><path d="M-1.974,-0.2823 T-1.6193,-2.8801 -1.2782,-7.0792 -1.6757,-10.4492 -3.4184,-12.7394 -6.6172,-13.1445 -8.4571,-13.028 A1.8799,1.8799 0 0 1 -8.8029,-16.772 T-6.3912,-17.0483 -2.0758,-16.5648 1.1372,-13.6727 2.6295,-10.1032 2.7811,-6.7874 2.3619,-2.3134 1.974,0.2823 A1.9941,1.9941 0 0 1 -1.974,-0.2823 Z" stroke-linecap="round" fill="#4dabf7"/></g></g><g transform="matrix(1, 0, 0, 1, 3572.6469, 28647.8555)" opacity="1"><g transform="scale(1)"><path d="M1.7254,1.8117 T1.1766,2.7117 0.4807,5.2462 0.7397,8.2478 2.8653,10.4983 4.5845,11.3818 A2.0585,2.0585 0 0 1 3.2555,15.2782 T1.6496,14.6619 -1.0449,13.1086 -2.8778,10.9291 -3.6751,7.9872 -3.2895,3.9769 -2.2882,0.7072 -1.7254,-0.2517 A2.0103,2.0103 0 0 1 1.7254,1.8117 Z" stroke-linecap="round" fill="#4dabf7"/></g></g><g transform="matrix(1, 0, 0, 1, 3574.2155, 28653.3458)" opacity="1"><g transform="scale(1)"><path d="M0.3134,1.8925 T-0.7963,2.1029 -3.9845,2.5649 -6.0629,2.8165 A2.047,2.047 0 0 1 -6.4771,-1.2565 T-4.5133,-1.416 -1.4315,-1.7339 -0.3134,-1.8925 A1.9183,1.9183 0 0 1 0.3134,1.8925 Z" stroke-linecap="round" fill="#4dabf7"/></g></g><g transform="matrix(1, 0, 0, 1, 3741.277, 28552.952)" opacity="1"><g transform="scale(1)"><path d="M1.6987,1.3586 T0.2095,3.2075 -2.2129,6.3616 -4.0664,8.8015 -6.0292,11.7381 -8.0103,15.2418 -9.5926,20.7839 -10.2314,26.7212 -9.9288,30.8739 -8.2834,34.409 -5.9314,36.1922 -4.9271,36.4958 A2.0144,2.0144 0 0 1 -6.0529,40.3642 T-7.7046,39.8949 -10.6997,38.5482 -13.0043,36.0384 -14.387,31.5971 -14.7744,26.4636 -14.209,20.2535 -12.9018,14.763 -10.941,11.189 -8.2073,7.1818 -5.6552,3.7519 -3.1752,0.5008 -1.6987,-1.3586 A2.1752,2.1752 0 0 1 1.6987,1.3586 Z" stroke-linecap="round" fill="#4dabf7"/></g></g><g transform="matrix(1, 0, 0, 1, 3757.7478, 28570.2072)" opacity="1"><g transform="scale(1)"><path d="M0.9787,2.2004 T-0.6833,2.9481 -4.1665,4.9629 -7.3856,6.5522 -6.0526,7.9549 -0.1596,10.2289 3.0025,11.4223 A2.0162,2.0162 0 0 1 1.6975,15.2377 T-1.5331,14.2448 -7.7704,12.3701 -10.7112,7.9468 -8.7682,2.7146 -5.6124,0.1493 -2.6561,-1.4629 -0.9787,-2.2004 A2.4083,2.4083 0 0 1 0.9787,2.2004 Z" stroke-linecap="round" fill="#4dabf7"/></g></g><g transform="matrix(1, 0, 0, 1, 3776.5717, 28573.3445)" opacity="1"><g transform="scale(1)"><path d="M1.137,2.0832 T-0.9168,3.1737 -4.4865,5.6105 -4.9364,8.233 -2.3382,8.2249 0.4083,5.1867 1.077,2.2376 0.5313,1.0426 A2.0963,2.0963 0 0 1 4.1687,-1.0426 T4.5805,-0.3774 5.4263,2.6126 5.2083,6.5157 3.2038,9.4531 -0.9924,12.4194 -5.3421,13.6055 -8.3742,11.4238 -9.8791,7.0486 -8.8618,3.1475 -6.5296,1.0262 -3.1652,-0.9458 -1.137,-2.0832 A2.3733,2.3733 0 0 1 1.137,2.0832 Z" stroke-linecap="round" fill="#4dabf7"/></g></g><g transform="matrix(1, 0, 0, 1, 3796.9641, 28572.5602)" opacity="1"><g transform="scale(1)"><path d="M0.9639,2.2517 T-0.3427,2.7891 -2.9719,4.0551 -2.8329,5.8087 -0.7721,8.2361 -0.358,11.1044 -2.3489,13.9168 -6.1678,15.4564 -10.3385,15.0646 -12.4962,14.4797 A2.3155,2.3155 0 0 1 -10.5655,10.2705 T-9.5336,10.5183 -6.8788,10.292 -6.906,7.3411 -7.8483,2.8918 -5.3422,-0.0921 -2.254,-1.6776 -0.9639,-2.2517 A2.4494,2.4494 0 0 1 0.9639,2.2517 ZM-13.8335,12.6177 T-13.8753,11.5225 -13.917,10.4273 A2.1689,2.1689 0 0 1 -9.603,9.9727 T-9.4156,11.0526 -9.2281,12.1325 A2.3155,2.3155 0 0 1 -13.8335,12.6177 Z" stroke-linecap="round" fill="#4dabf7"/></g></g><g transform="matrix(1, 0, 0, 1, 3817.3566, 28560.7953)" opacity="1"><g transform="scale(1)"><path d="M1.7373,1.4459 T0.8048,2.5552 -1.8137,5.7921 -5.09,9.9325 -7.6128,13.6144 -8.1398,17.43 -7.2813,20.96 -5.7212,23.3612 -3.441,25.0509 -2.2678,25.7225 A1.9352,1.9352 0 0 1 -4.0122,29.1775 T-5.2492,28.6323 -7.9787,27.2617 -10.3304,25.1151 -11.7856,21.9447 -12.0077,15.7538 -10.1403,9.3218 -7.0093,5.196 -4.4762,1.9758 -2.6589,-0.3274 -1.7373,-1.4459 A2.2603,2.2603 0 0 1 1.7373,1.4459 Z" stroke-linecap="round" fill="#4dabf7"/></g></g><g transform="matrix(1, 0, 0, 1, 3828.3372, 28563.9326)" opacity="1"><g transform="scale(1)"><path d="M1.8445,0.5678 T1.201,3.0096 0.2834,7.5393 -0.3586,11.2504 -0.9837,14.724 -1.2892,17.294 -1.3374,18.0137 A2.4615,2.4615 0 0 1 -6.2478,17.6608 T-6.1816,16.7893 -5.7438,13.8031 -4.9587,10.2519 -4.0365,6.5066 -2.6862,1.815 -1.8445,-0.5678 A1.9299,1.9299 0 0 1 1.8445,0.5678 ZM-2.2012,15.9593 T-1.5297,16.6113 -0.1054,17.9844 0.6474,18.7055 A2.2079,2.2079 0 0 1 -2.2074,22.0745 T-3.0423,21.4503 -4.6305,20.2706 -5.3839,19.7152 A2.4615,2.4615 0 0 1 -2.2012,15.9593 Z" stroke-linecap="round" fill="#4dabf7"/></g></g><g transform="matrix(1, 0, 0, 1, 3830.6902, 28574.1288)" opacity="1"><g transform="scale(1)"><path d="M0.1754,1.5872 T-1.4857,1.85 -5.0831,2.4835 -8.867,3.0756 -10.7145,3.2969 A1.7472,1.7472 0 0 1 -11.2455,-0.1569 T-9.6426,-0.4661 -5.7859,-1.075 -1.8537,-1.4811 -0.1754,-1.5872 A1.5969,1.5969 0 0 1 0.1754,1.5872 Z" stroke-linecap="round" fill="#4dabf7"/></g></g><g transform="matrix(1, 0, 0, 1, 3837.7491, 28562.3639)" opacity="1"><g transform="scale(1)"><path d="M2.1594,-0.2686 T2.3631,1.2109 3.0383,4.7859 3.8466,8.6307 2.4611,15.0054 -1.1488,22.8264 -3.0363,26.0222 A1.911,1.911 0 0 1 -6.3837,24.1778 T-4.6905,20.8749 -1.7441,14.4512 -0.7639,9.4535 -1.4329,5.4087 -1.9942,1.7548 -2.1594,0.2686 A2.1761,2.1761 0 0 1 2.1594,-0.2686 Z" stroke-linecap="round" fill="#4dabf7"/></g></g><g transform="matrix(1, 0, 0, 1, 3845.5923, 28586.6781)" opacity="1"><g transform="scale(1)"><path d="M1.4225,0.5697 T0.7023,2.4329 -0.8263,6.3694 -1.6348,8.4429 A1.6215,1.6215 0 0 1 -4.6452,7.2371 T-3.7989,5.1789 -2.1876,1.2754 -1.4225,-0.5697 A1.5324,1.5324 0 0 1 1.4225,0.5697 Z" stroke-linecap="round" fill="#4dabf7"/></g></g><g transform="matrix(1, 0, 0, 1, 3610.2945, 28591.384)" opacity="1"><g transform="scale(1)"><path d="M1.4189,-1.7049 T2.5237,-0.7668 4.9681,1.5696 8.5326,5.1445 11.9527,8.907 14.3572,12.0911 16.6565,15.4415 18.781,19.0584 20.6858,22.8252 22.143,26.1452 23.6811,29.2722 25.148,32.5567 26.2869,35.4858 27.3318,38.3449 28.0321,41.3901 28.4897,44.3565 28.9283,47.4972 29.5277,51.409 30.0936,55.1387 30.566,58.1114 30.8554,61.0265 31.3482,63.9021 32.1008,67.061 32.4611,70.3992 32.891,74.09 33.2632,76.2001 A2.7535,2.7535 0 0 1 27.9168,77.5199 T27.4695,75.5747 26.9777,71.458 26.567,67.6052 25.8564,64.3792 25.3857,60.6887 24.9112,56.4361 24.258,52.6725 23.8724,49.3779 23.4894,46.2657 23.0268,43.1557 22.5073,40.1056 21.4825,36.7545 19.9383,32.9745 18.3006,29.3793 16.9009,26.1322 15.4645,23.0308 13.9388,19.9477 12.4316,17.0942 10.6525,14.4822 8.5615,11.7363 6.3917,8.9699 4.0855,6.6589 1.8438,4.5703 -0.2959,2.621 -1.4189,1.7049 A2.2181,2.2181 0 0 1 1.4189,-1.7049 Z" stroke-linecap="round" fill="#4dabf7"/></g></g><g transform="matrix(1, 0, 0, 1, 3657.3541, 28620.4041)" opacity="1"><g transform="scale(1)"><path d="M2.2658,0.9699 T1.7045,2.2659 0.4749,5.0255 -0.8454,8.7557 -2.0259,12.5458 -1.5628,15.4248 0.4822,17.0761 1.5355,17.372 A2.3621,2.3621 0 0 1 0.0245,21.848 T-2.0577,21.0854 -5.1457,19.1195 -6.5803,14.501 -6.2826,9.2522 -5.1213,5.9153 -4.0264,3.0217 -2.8161,0.3309 -2.2658,-0.9699 A2.4647,2.4647 0 0 1 2.2658,0.9699 Z" stroke-linecap="round" fill="#4dabf7"/></g></g><g transform="matrix(1, 0, 0, 1, 3658.1384, 28629.816)" opacity="1"><g transform="scale(1)"><path d="M0.4277,1.7079 T-1.0326,2.1705 -4.7562,2.9794 -8.114,3.4051 -9.2083,3.4844 A1.925,1.925 0 0 1 -9.6117,-0.3444 T-8.5249,-0.4949 -5.4383,-0.8966 -1.9331,-1.4279 -0.4277,-1.7079 A1.7607,1.7607 0 0 1 0.4277,1.7079 Z" stroke-linecap="round" fill="#4dabf7"/></g></g><g transform="matrix(1, 0, 0, 1, 3884.0243, 28566.2856)" opacity="1"><g transform="scale(1)"><path d="M0.4589,2.4505 T-2.5137,2.95 -6.8137,4.0305 -8.6737,4.9076 -9.2062,5.2039 A2.3545,2.3545 0 0 1 -11.4727,1.0761 T-10.7303,0.6723 -8.187,-0.479 -3.4225,-1.8385 -0.4589,-2.4505 A2.4931,2.4931 0 0 1 0.4589,2.4505 ZM-7.997,2.9017 T-7.7343,5.2841 -8.0313,9.3934 -9.7346,12.183 -12.9555,13.9576 -17.0969,14.5395 -21.1363,13.7643 -23.1118,13.1191 A2.4825,2.4825 0 0 1 -21.0518,8.6017 T-19.9611,8.9738 -16.8598,9.4274 -13.554,8.7242 -12.4703,5.6589 -12.6819,3.3783 A2.3545,2.3545 0 0 1 -7.997,2.9017 ZM-24.5056,11.3966 T-24.6093,10.6703 -24.8331,9.1357 -24.9533,8.3274 A2.2566,2.2566 0 0 1 -20.5467,7.3526 T-20.3147,8.1361 -19.8703,9.6218 -19.6579,10.3241 A2.4825,2.4825 0 0 1 -24.5056,11.3966 Z" stroke-linecap="round" fill="#4dabf7"/></g></g><g transform="matrix(1, 0, 0, 1, 3888.7303, 28573.3445)" opacity="1"><g transform="scale(1)"><path d="M1.3159,0.5853 T-0.2294,4.1263 -1.7746,7.6673 A1.4943,1.4943 0 0 1 -4.5054,6.4527 T-2.9106,2.9337 -1.3159,-0.5853 A1.4402,1.4402 0 0 1 1.3159,0.5853 Z" stroke-linecap="round" fill="#4dabf7"/></g></g><g transform="matrix(1, 0, 0, 1, 3891.8676, 28541.9715)" opacity="1"><g transform="scale(1)"><path d="M 0.78 0 m -2.633441917710341, 0 a 2.633441917710341,2.633441917710341 0 1,1 5.266883835420682,0 a 2.633441917710341,2.633441917710341 0 1,1 -5.266883835420682,0" stroke-linecap="round" fill="#4dabf7"/></g></g><g transform="matrix(1, 0, 0, 1, 3898.9265, 28572.5602)" opacity="1"><g transform="scale(1)"><path d="M2.7756,0.5567 T2.3663,2.4462 1.957,4.3358 A2.7714,2.7714 0 0 1 -3.4776,3.2458 T-3.1266,1.3445 -2.7756,-0.5567 A2.8309,2.8309 0 0 1 2.7756,0.5567 ZM-2.0001,1.3121 T0.8372,-0.108 5.5963,-2.0713 8.6523,-2.6937 9.7864,-2.7729 A2.835,2.835 0 0 1 9.9689,2.8942 T8.1296,3.1296 3.3849,4.8172 0.4795,6.2694 A2.7714,2.7714 0 0 1 -2.0001,1.3121 ZM12.2966,-1.418 T12.7608,-0.6784 13.7879,2.1765 14.0709,6.2957 13.7911,8.2998 A2.8484,2.8484 0 0 1 8.1689,7.3802 T8.2399,5.1767 7.8848,2.2562 7.4587,1.5393 A2.835,2.835 0 0 1 12.2966,-1.418 Z" stroke-linecap="round" fill="#4dabf7"/></g></g><g transform="matrix(1, 0, 0, 1, 3940.4958, 28552.1677)" opacity="1"><g transform="scale(1)"><path d="M2.0399,1.44 T-0.15,4.6176 -3.8157,10.1756 -6.3838,14.6857 -8.4283,18.7148 -10.0645,23.0036 -9.1591,27.3815 -6.4164,30.7126 -3.8139,33.7026 -2.3647,35.35 A2.1678,2.1678 0 0 1 -5.4753,38.37 T-7.0791,36.8728 -10.2698,33.8957 -14.0578,29.0489 -15.9762,23.5869 -15.0574,19.7376 -13.382,16.085 -11.0647,11.9285 -8.1744,7.2425 -4.3009,1.6875 -2.0399,-1.44 A2.4969,2.4969 0 0 1 2.0399,1.44 Z" stroke-linecap="round" fill="#4dabf7"/></g></g><g transform="matrix(1, 0, 0, 1, 3951.4764, 28557.658)" opacity="1"><g transform="scale(1)"><path d="M2.118,0.9079 T0.4988,4.8226 -1.8854,11.9364 -3.0768,17.2251 -3.6678,21.1131 -3.0828,22.8984 -2.3333,22.8854 A2.3569,2.3569 0 0 1 -3.9467,27.3146 T-4.7096,27.0906 -7.2194,25.1219 -8.7582,20.7985 -8.0491,16.0347 -6.5533,10.3465 -3.8382,2.9677 -2.118,-0.9079 A2.3044,2.3044 0 0 1 2.118,0.9079 Z" stroke-linecap="round" fill="#4dabf7"/></g></g><g transform="matrix(1, 0, 0, 1, 3951.4764, 28572.5602)" opacity="1"><g transform="scale(1)"><path d="M-0.1099,1.3264 T-2.3348,1.1345 -7.0387,0.7314 -9.5178,0.5203 A1.3047,1.3047 0 0 1 -9.3022,-2.0803 T-6.8222,-1.8803 -2.1161,-1.5034 0.1099,-1.3264 A1.3309,1.3309 0 0 1 -0.1099,1.3264 Z" stroke-linecap="round" fill="#4dabf7"/></g></g><g transform="matrix(1, 0, 0, 1, 3962.4569, 28554.5207)" opacity="1"><g transform="scale(1)"><path d="M2.645,-0.8804 T3.2002,0.79 4.4693,5.8647 5.3889,10.7335 5.7198,13.7671 5.9173,16.9408 4.6358,22.6387 2.3652,28.876 0.4254,32.4048 -1.5368,34.9909 -2.4758,36.1922 A2.7967,2.7967 0 0 1 -6.9442,32.8278 T-5.4262,30.7918 -3.1105,26.7513 -1.1225,21.6683 0.0403,17.1497 -0.2056,12.9777 -0.9781,7.2321 -2.0886,2.5494 -2.645,0.8804 A2.7877,2.7877 0 0 1 2.645,-0.8804 Z" stroke-linecap="round" fill="#4dabf7"/></g></g><g transform="matrix(1, 0, 0, 1, 3976.5748, 28549.0304)" opacity="1"><g transform="scale(1)"><path d="M2.4763,-1.5753 T3.7829,0.468 5.9224,4.5869 7.345,8.4261 8.455,12.0878 9.2657,15.4183 9.7282,18.4414 9.8106,21.9708 7.2381,30.6995 2.2041,43.2708 -0.3469,49.0522 A3.0448,3.0448 0 0 1 -5.9331,46.6278 T-3.4524,40.8158 1.1854,29.2349 3.4877,22.0281 3.3323,18.0605 2.604,13.7833 1.6757,10.4004 0.6396,7.2087 -1.1861,3.6139 -2.4763,1.5753 A2.9349,2.9349 0 0 1 2.4763,-1.5753 Z" stroke-linecap="round" fill="#4dabf7"/></g></g></svg>