<svg xmlns="http://www.w3.org/2000/svg" direction="ltr" width="953.71" height="1092.6290693751125" viewBox="680.5077110929121 8520.122750389066 953.71 1092.6290693751125" stroke-linecap="round" stroke-linejoin="round" style="background-color: transparent;"><defs/><g transform="matrix(1, 0, 0, 1, 948.1027, 8573.054)" opacity="1"><g transform="scale(1)"><path d="M0,0 Q-1.3087,1.3087 -1.8836,1.8836 T-3.2089,2.99 -4.5842,4.2463 -5.9868,5.8029 -7.623,7.523 -9.3864,9.332 -11.2211,11.1915 -13.0925,12.8575 -14.9838,14.4182 -16.667,15.9238 -18.237,17.1783 -19.7477,18.2963 -21.005,19.3422 -21.9056,20.349 -22.1789,20.8966 -22.0825,21.0089 L-22.03,21.07 " stroke-linecap="round" fill="none" stroke="#f2f2f2" stroke-width="3" stroke-dasharray="none" stroke-dashoffset="0"/></g></g><g transform="matrix(1, 0, 0, 1, 928.9486, 8573.054)" opacity="1"><g transform="scale(1)"><path d="M0,0 Q1.3087,1.7465 2.1025,2.4404 T3.5469,3.9473 4.987,5.8592 6.6436,7.9913 8.1992,10.0245 9.6998,12.0038 11.1728,13.7348 12.4118,15.3332 13.5214,16.8571 14.5604,18.1215 15.5634,19.2471 16.3279,20.2972 16.9627,21.304 17.7641,22.3895 L18.2,22.98 " stroke-linecap="round" fill="none" stroke="#f2f2f2" stroke-width="3" stroke-dasharray="none" stroke-dashoffset="0"/></g></g><g transform="matrix(1, 0, 0, 1, 953.8489, 8552.9422)" opacity="1"><g transform="scale(1)"><path d="M0,0 Q2.1842,0 2.9972,-0.2189 T4.4691,-0.5568 5.7053,-0.7407 6.8155,-0.6218 7.8572,-0.1194 8.6428,0.5917 9.0702,1.414 9.3027,2.5157 8.9914,3.7717 8.1654,4.8904 7.0617,5.9344 5.8069,6.9402 4.6866,7.7062 3.8582,8.3418 3.4076,9.123 3.3813,9.7646 4.0237,10.1136 5.0275,10.3035 6.2279,10.4068 7.5376,10.463 9.1233,10.4935 11.2779,10.5172 L12.45,10.53 " stroke-linecap="round" fill="none" stroke="#f2f2f2" stroke-width="3" stroke-dasharray="none" stroke-dashoffset="0"/></g></g><g transform="matrix(1, 0, 0, 1, 963.4259, 8579.7579)" opacity="1"><g transform="scale(1)"><path d="M0,0 Q2.622,0.4378 3.7707,0.5568 T5.7631,0.7407 7.7202,0.8407 10.1618,0.918 L11.49,0.96 " stroke-linecap="round" fill="none" stroke="#f2f2f2" stroke-width="3" stroke-dasharray="none" stroke-dashoffset="0"/></g></g><g transform="matrix(1, 0, 0, 1, 994.0724, 8565.3924)" opacity="1"><g transform="scale(1)"><path d="M0,0.96 Q0,4.453 0,6.4952 T0,10.7404 0,15.0152 0,18.8683 0,22.2731 0,25.8333 L0,27.77 " stroke-linecap="round" fill="none" stroke="#f2f2f2" stroke-width="3" stroke-dasharray="none" stroke-dashoffset="0"/></g></g><g transform="matrix(1, 0, 0, 1, 1032.3805, 8571.1386)" opacity="1"><g transform="scale(1)"><path d="M0,0 Q-1.7465,0.4378 -2.4404,0.1191 T-3.0741,-0.373 -2.7644,-0.6407 -1.9416,-0.7863 -0.8373,-0.6466 -0.0178,-0.1329 0.4281,0.5844 0.2329,1.1934 -0.5397,1.664 L-0.96,1.92 " stroke-linecap="round" fill="none" stroke="#f2f2f2" stroke-width="3" stroke-dasharray="none" stroke-dashoffset="0"/></g></g><g transform="matrix(1, 0, 0, 1, 1028.5497, 8587.4196)" opacity="1"><g transform="scale(1)"><path d="M0,0 Q0,1.3087 -0.2189,1.2292 T-0.1191,1.1065 0.5919,1.2585 1.4521,1.687 L1.92,1.92 " stroke-linecap="round" fill="none" stroke="#f2f2f2" stroke-width="3" stroke-dasharray="none" stroke-dashoffset="0"/></g></g><g transform="matrix(1, 0, 0, 1, 1072.6041, 8574.0117)" opacity="1"><g transform="scale(1)"><path d="M0,0 Q-1.3087,2.1842 -2.3213,3.4327 T-4.758,6.0147 -7.6112,8.7303 -10.6909,11.2997 -13.6773,13.5707 -16.1751,15.4628 -18.4072,16.711 -20.7536,17.6754 L-22.03,18.2 " stroke-linecap="round" fill="none" stroke="#f2f2f2" stroke-width="3" stroke-dasharray="none" stroke-dashoffset="0"/></g></g><g transform="matrix(1, 0, 0, 1, 1052.4923, 8577.8425)" opacity="1"><g transform="scale(1)"><path d="M0,0 Q1.3087,2.622 1.8836,3.5518 T3.2089,5.4251 4.5842,7.1009 5.9868,8.6668 7.623,10.1731 9.6052,11.4302 11.7757,12.333 14.0485,12.8241 16.1582,13.3102 18.1791,13.7934 20.6732,14.1669 L22.03,14.37 " stroke-linecap="round" fill="none" stroke="#f2f2f2" stroke-width="3" stroke-dasharray="none" stroke-dashoffset="0"/></g></g><g transform="matrix(1, 0, 0, 1, 1087.9273, 8583.5887)" opacity="1"><g transform="scale(1)"><path d="M0,0 Q2.1842,0 3.4327,0 T5.5792,-0.2189 7.8391,-0.5568 10.3794,-0.9596 12.6346,-1.3975 14.9956,-1.7359 L16.28,-1.92 " stroke-linecap="round" fill="none" stroke="#f2f2f2" stroke-width="3" stroke-dasharray="none" stroke-dashoffset="0"/></g></g><g transform="matrix(1, 0, 0, 1, 1122.4046, 8563.477)" opacity="1"><g transform="scale(1)"><path d="M0,0 Q-0.4378,6.9859 -0.5568,9.7593 T-0.9596,14.4792 -1.6141,18.5767 -2.1868,22.3334 -2.4983,25.2502 -2.7391,28.1257 L-2.87,29.69 " stroke-linecap="round" fill="none" stroke="#f2f2f2" stroke-width="3" stroke-dasharray="none" stroke-dashoffset="0"/></g></g><g transform="matrix(1, 0, 0, 1, 1167.4167, 8570.1809)" opacity="1"><g transform="scale(1)"><path d="M0.96,0 Q3.5774,0.4378 4.7271,0.5568 T6.9378,0.9596 9.0136,1.3975 11.0184,1.6358 13.2011,1.7654 15.817,1.8655 L17.24,1.92 " stroke-linecap="round" fill="none" stroke="#f2f2f2" stroke-width="3" stroke-dasharray="none" stroke-dashoffset="0"/></g></g><g transform="matrix(1, 0, 0, 1, 1169.3321, 8582.631)" opacity="1"><g transform="scale(1)"><path d="M0,0 Q1.7465,0 2.6593,0 T4.5041,0.2189 6.381,0.5568 8.2752,0.9596 10.6144,1.3975 13.6621,1.7359 L15.32,1.92 " stroke-linecap="round" fill="none" stroke="#f2f2f2" stroke-width="3" stroke-dasharray="none" stroke-dashoffset="0"/></g></g><g transform="matrix(1, 0, 0, 1, 1228.7097, 8567.3078)" opacity="1"><g transform="scale(1)"><path d="M-0.96,0 Q-2.7065,0.8755 -3.8359,1.5491 T-6.0174,2.8081 -8.0774,4.1473 -9.8525,5.7491 -11.2558,7.2771 -12.8925,8.7627 -14.6561,10.4441 -16.0532,12.0154 -17.2488,13.7435 -18.4801,16.0081 L-19.15,17.24 " stroke-linecap="round" fill="none" stroke="#f2f2f2" stroke-width="3" stroke-dasharray="none" stroke-dashoffset="0"/></g></g><g transform="matrix(1, 0, 0, 1, 1208.5979, 8564.4347)" opacity="1"><g transform="scale(1)"><path d="M0.96,0 Q2.2687,2.622 2.8436,3.7707 T3.95,5.7631 5.2063,7.9391 6.7629,10.4338 8.2641,12.6642 9.7351,14.7508 10.9731,16.5402 12.0843,17.9492 13.1266,19.1534 13.9102,20.0274 14.5531,20.7217 14.6862,21.5349 14.4814,22.4708 L14.37,22.98 " stroke-linecap="round" fill="none" stroke="#f2f2f2" stroke-width="3" stroke-dasharray="none" stroke-dashoffset="0"/></g></g><g transform="matrix(1, 0, 0, 1, 940.441, 8631.9527)" opacity="1"><g transform="scale(1)"><path d="M0,0 Q-1.7465,2.622 -2.6593,3.7707 T-4.5041,5.7631 -6.5976,7.5013 -8.8285,9.3202 -10.9177,11.1851 -12.9274,12.854 -14.894,14.1974 -16.837,15.3659 -18.9568,16.5797 L-20.11,17.24 " stroke-linecap="round" fill="none" stroke="#f2f2f2" stroke-width="3" stroke-dasharray="none" stroke-dashoffset="0"/></g></g><g transform="matrix(1, 0, 0, 1, 924.1601, 8629.0796)" opacity="1"><g transform="scale(1)"><path d="M0,0 Q2.1842,2.622 2.9972,3.7707 T4.688,6.1986 6.481,8.6115 8.1107,10.7996 9.4328,12.6443 10.8086,14.0833 12.2137,15.085 13.6325,15.6299 15.3472,16.051 L16.28,16.28 " stroke-linecap="round" fill="none" stroke="#f2f2f2" stroke-width="3" stroke-dasharray="none" stroke-dashoffset="0"/></g></g><g transform="matrix(1, 0, 0, 1, 939.4833, 8608.0102)" opacity="1"><g transform="scale(1)"><path d="M0,0 Q2.622,0 3.7707,0 T6.1986,0 8.8303,0 11.1375,0 12.8281,0.2189 13.9644,0.7757 14.1471,1.5141 13.5921,2.3513 12.6335,3.2445 11.4577,4.1681 10.3826,5.106 9.36,5.8329 8.3659,6.4472 7.3897,7.0002 6.642,7.52 6.4518,8.2405 7.0028,8.8513 7.9591,9.1836 9.1337,9.3643 10.6459,9.4627 12.5607,9.5162 14.4756,9.7619 16.3905,10.1121 18.7995,10.3828 L20.11,10.53 " stroke-linecap="round" fill="none" stroke="#f2f2f2" stroke-width="3" stroke-dasharray="none" stroke-dashoffset="0"/></g></g><g transform="matrix(1, 0, 0, 1, 958.6374, 8630.0373)" opacity="1"><g transform="scale(1)"><path d="M0,0 Q1.3087,0.8755 1.8836,1.1137 T2.99,1.4814 4.2463,1.6814 5.8029,1.7902 7.7419,1.8494 9.8888,1.6627 12.1694,1.2076 L13.41,0.96 " stroke-linecap="round" fill="none" stroke="#f2f2f2" stroke-width="3" stroke-dasharray="none" stroke-dashoffset="0"/></g></g><g transform="matrix(1, 0, 0, 1, 1003.6494, 8630.995)" opacity="1"><g transform="scale(1)"><path d="M0.96,0 Q-2.0998,2.622 -3.8053,3.9895 T-7.3118,6.9743 -10.9658,10.3444 -14.4812,13.7054 -17.4857,16.8448 -19.7745,19.6447 -21.8506,22.4266 L-22.98,23.94 " stroke-linecap="round" fill="none" stroke="#f2f2f2" stroke-width="3" stroke-dasharray="none" stroke-dashoffset="0"/></g></g><g transform="matrix(1, 0, 0, 1, 985.4531, 8631.9527)" opacity="1"><g transform="scale(1)"><path d="M0,0 Q1.7465,1.3087 2.4404,2.1025 T3.9473,3.7635 5.6403,5.7592 7.4345,7.9369 9.5027,10.2138 11.9388,12.5445 14.3561,14.6856 16.5444,16.5048 18.6081,18.1488 20.3851,19.6997 22.0657,21.209 L22.98,22.03 " stroke-linecap="round" fill="none" stroke="#f2f2f2" stroke-width="3" stroke-dasharray="none" stroke-dashoffset="0"/></g></g><g transform="matrix(1, 0, 0, 1, 878.1903, 8641.5298)" opacity="1"><g transform="scale(1)"><path d="M0,0 Q1.7465,0.8755 2.8759,1.1137 T5.2763,1.4814 8.112,1.4625 11.1823,1.2334 14.1612,1.1087 17.3923,1.0124 L19.15,0.96 " stroke-linecap="round" fill="none" stroke="#f2f2f2" stroke-width="3" stroke-dasharray="none" stroke-dashoffset="0"/></g></g><g transform="matrix(1, 0, 0, 1, 919.3716, 8616.6295)" opacity="1"><g transform="scale(1)"><path d="M0,0.96 Q-1.7465,3.1442 -2.6593,4.3927 T-4.723,7.1936 -6.9355,10.2449 -8.7935,13.4324 -10.4609,16.6963 -11.8057,19.7828 -12.5372,22.7706 -12.9352,25.9236 -13.1517,28.9498 -13.0506,31.6882 -12.339,34.4888 -11.0786,37.1045 -9.5197,39.4007 -7.5796,41.5231 -5.2154,43.332 -2.8372,44.5349 -0.3779,45.4644 L0.96,45.97 " stroke-linecap="round" fill="none" stroke="#f2f2f2" stroke-width="3" stroke-dasharray="none" stroke-dashoffset="0"/></g></g><g transform="matrix(1, 0, 0, 1, 1012.2688, 8615.6718)" opacity="1"><g transform="scale(1)"><path d="M0,0 Q1.7465,1.3087 2.4404,2.1025 T3.7307,3.7635 4.6515,5.7592 5.369,8.1558 6.1948,10.9872 6.8629,14.274 7.2264,17.8084 7.4241,21.6965 7.5317,25.777 7.3713,29.7433 7.0652,33.4308 6.6821,36.529 6.0382,39.0876 5.0312,41.1339 3.6315,43.0226 L2.87,44.05 " stroke-linecap="round" fill="none" stroke="#f2f2f2" stroke-width="3" stroke-dasharray="none" stroke-dashoffset="0"/></g></g><g transform="matrix(1, 0, 0, 1, 942.3564, 8699.9497)" opacity="1"><g transform="scale(1)"><path d="M0,0 Q-1.3087,1.3087 -1.8836,1.8836 T-3.2089,2.99 -4.8031,4.2463 -6.5436,5.5841 -8.3637,6.9685 -10.227,8.5948 -11.8974,10.1339 -13.2415,11.4089 -14.627,12.5403 -16.3194,13.7253 L-17.24,14.37 " stroke-linecap="round" fill="none" stroke="#f2f2f2" stroke-width="3" stroke-dasharray="none" stroke-dashoffset="0"/></g></g><g transform="matrix(1, 0, 0, 1, 927.0332, 8697.0766)" opacity="1"><g transform="scale(1)"><path d="M0,0 Q1.7465,1.7465 2.4404,2.4404 T3.7307,3.7307 5.087,5.087 6.698,6.4792 8.4477,7.6743 10.2727,8.9788 11.9222,10.3428 13.4739,11.5225 14.9724,12.6021 16.2253,13.4083 17.3424,14.0634 18.5131,14.8773 L19.15,15.32 " stroke-linecap="round" fill="none" stroke="#f2f2f2" stroke-width="3" stroke-dasharray="none" stroke-dashoffset="0"/></g></g><g transform="matrix(1, 0, 0, 1, 962.4682, 8702.8228)" opacity="1"><g transform="scale(1)"><path d="M0,0 Q1.7465,0.4378 2.6593,0.5568 T4.2852,0.7407 5.8241,0.8407 7.5345,0.8951 9.5571,0.9247 11.7495,0.9408 13.8154,0.9496 16.0314,0.9543 18.673,0.958 L20.11,0.96 " stroke-linecap="round" fill="none" stroke="#f2f2f2" stroke-width="3" stroke-dasharray="none" stroke-dashoffset="0"/></g></g><g transform="matrix(1, 0, 0, 1, 1009.3957, 8689.4149)" opacity="1"><g transform="scale(1)"><path d="M0,0 Q1.3087,1.7465 1.6647,2.8759 T2.2143,5.2763 2.5133,8.112 2.676,11.1823 2.7644,13.9446 3.0315,16.3205 3.6145,18.2674 4.3758,20.0826 L4.79,21.07 " stroke-linecap="round" fill="none" stroke="#f2f2f2" stroke-width="3" stroke-dasharray="none" stroke-dashoffset="0"/></g></g><g transform="matrix(1, 0, 0, 1, 872.4441, 8664.5146)" opacity="1"><g transform="scale(1)"><path d="M0,0 Q3.0552,1.3087 4.324,1.8836 T6.7184,2.7711 8.8943,3.254 10.9534,3.5166 13.1658,3.6595 15.4591,3.9561 17.7988,4.3364 20.3826,4.5432 23.3158,4.6558 26.439,4.717 29.4491,4.7503 32.6164,4.7684 36.0859,4.7782 39.7198,4.7836 43.4431,4.7865 47.434,4.7881 51.5704,4.789 55.567,4.7894 59.4877,4.7897 63.367,4.7898 67.2239,4.7899 71.0685,4.79 74.9064,4.79 78.5241,4.79 82.022,4.79 85.4525,4.79 88.8463,4.79 92.439,4.79 96.1399,4.79 99.6831,4.79 102.9215,4.79 105.992,4.79 108.9733,4.79 111.6873,4.79 114.2558,4.79 116.7452,4.79 118.9727,4.79 121.2765,4.79 123.6197,4.79 125.9865,5.0089 128.3661,5.3468 130.7528,5.5307 133.3621,5.6307 136.0903,5.6851 138.8854,5.7147 141.4981,5.7308 144.0093,5.7396 146.8789,5.7463 L148.44,5.75 " stroke-linecap="round" fill="none" stroke="#f2f2f2" stroke-width="3" stroke-dasharray="none" stroke-dashoffset="0"/></g></g><g transform="matrix(1, 0, 0, 1, 1251.6945, 8571.6175)" opacity="1"><g transform="scale(1)"><path d="M0,0 Q0,4.3685 0,5.7733 T0,8.3801 0,11.0161 L0,12.45 " stroke-linecap="round" fill="none" stroke="#f2f2f2" stroke-width="3" stroke-dasharray="none" stroke-dashoffset="0"/></g></g><g transform="matrix(1, 0, 0, 1, 1255.5253, 8578.3214)" opacity="1"><g transform="scale(1)"><path d="M0,0 Q-2.622,-0.8755 -3.5518,-1.1137 T-5.644,-1.698 -7.8743,-2.4513 -10.2161,-3.3442 L-11.49,-3.83 " stroke-linecap="round" fill="none" stroke="#f2f2f2" stroke-width="3" stroke-dasharray="none" stroke-dashoffset="0"/></g></g><g transform="matrix(1, 0, 0, 1, 1274.6794, 8565.8712)" opacity="1"><g transform="scale(1)"><path d="M0,0 Q0,5.6772 0,7.8758 T0,11.7081 -0.2189,15.1039 -0.6989,18.9679 L-0.96,21.07 " stroke-linecap="round" fill="none" stroke="#f2f2f2" stroke-width="3" stroke-dasharray="none" stroke-dashoffset="0"/></g></g><g transform="matrix(1, 0, 0, 1, 938.5256, 8744.004)" opacity="1"><g transform="scale(1)"><path d="M0,0 Q-0.8755,1.7465 -1.5491,2.8759 T-3.027,5.0574 -4.7042,7.3363 -6.7064,9.6682 -8.6688,11.8099 -10.6119,13.6294 -13.0459,15.3461 L-14.37,16.28 " stroke-linecap="round" fill="none" stroke="#f2f2f2" stroke-width="3" stroke-dasharray="none" stroke-dashoffset="0"/></g></g><g transform="matrix(1, 0, 0, 1, 924.1601, 8742.0886)" opacity="1"><g transform="scale(1)"><path d="M0,0 Q2.1842,2.622 2.9972,3.7707 T4.688,5.982 6.481,8.0581 8.1107,10.0608 9.6517,12.0235 11.3655,13.7456 13.171,15.1202 15.0265,16.3057 16.6902,17.1695 18.2496,17.856 20.0763,18.6941 L21.07,19.15 " stroke-linecap="round" fill="none" stroke="#f2f2f2" stroke-width="3" stroke-dasharray="none" stroke-dashoffset="0"/></g></g><g transform="matrix(1, 0, 0, 1, 964.3836, 8751.6656)" opacity="1"><g transform="scale(1)"><path d="M0,0 Q2.1842,0 3.2138,0 T5.4602,0 7.9932,0 10.4632,0 12.8991,-0.2189 15.7106,-0.6989 L17.24,-0.96 " stroke-linecap="round" fill="none" stroke="#f2f2f2" stroke-width="3" stroke-dasharray="none" stroke-dashoffset="0"/></g></g><g transform="matrix(1, 0, 0, 1, 1005.5648, 8741.1309)" opacity="1"><g transform="scale(1)"><path d="M0,0 Q1.7465,2.622 2.4404,3.9895 T3.5118,6.7554 4.0947,9.571 4.4117,12.1948 4.5842,14.4954 4.6781,16.6202 4.7506,18.8804 L4.79,20.11 " stroke-linecap="round" fill="none" stroke="#f2f2f2" stroke-width="3" stroke-dasharray="none" stroke-dashoffset="0"/></g></g><g transform="matrix(1, 0, 0, 1, 1014.1842, 8725.8076)" opacity="1"><g transform="scale(1)"><path d="M0,0 Q1.7465,1.7465 2.4404,2.8759 T3.9473,5.4929 5.4214,8.8819 6.6611,12.9098 7.5544,17.2852 8.0403,21.8497 8.5235,26.2981 9.0053,30.4645 9.0485,34.4775 8.6342,37.9716 7.9711,40.5268 6.956,42.5711 5.5531,44.7725 L4.79,45.97 " stroke-linecap="round" fill="none" stroke="#f2f2f2" stroke-width="3" stroke-dasharray="none" stroke-dashoffset="0"/></g></g><g transform="matrix(1, 0, 0, 1, 914.5831, 8733.4693)" opacity="1"><g transform="scale(1)"><path d="M0,0 Q-2.1842,1.7465 -3.4327,2.8759 T-6.0147,5.4929 -8.5114,8.4465 -10.5263,11.5831 -12.0602,15.2548 -13.1134,18.9986 -13.4676,22.5629 -13.2224,26.0295 -12.6513,29.2263 -11.6863,32.0574 -10.2881,34.0331 -8.5859,35.5596 L-7.66,36.39 " stroke-linecap="round" fill="none" stroke="#f2f2f2" stroke-width="3" stroke-dasharray="none" stroke-dashoffset="0"/></g></g><g transform="matrix(1, 0, 0, 1, 867.6556, 8753.581)" opacity="1"><g transform="scale(1)"><path d="M0,0 Q2.622,0.8755 3.9895,1.1137 T6.9743,1.698 10.1256,2.2324 13.1509,2.5231 15.8888,2.6813 18.6227,2.8035 L20.11,2.87 " stroke-linecap="round" fill="none" stroke="#f2f2f2" stroke-width="3" stroke-dasharray="none" stroke-dashoffset="0"/></g></g><g transform="matrix(1, 0, 0, 1, 862.8671, 8776.5659)" opacity="1"><g transform="scale(1)"><path d="M0,0 Q1.7465,0.4378 2.8759,0.7757 T5.2763,1.2975 7.8932,1.798 11.0632,2.2868 14.9719,2.7716 19.4991,3.2542 24.8005,3.5168 30.742,3.6596 36.8127,3.7373 42.7349,3.7796 48.7952,3.8026 54.9306,3.5962 61.1068,3.2651 67.5242,3.0849 74.0727,2.9869 80.9115,2.9336 88.1247,2.9046 95.3228,2.8888 102.296,2.8802 109.147,2.8756 115.7125,2.873 122.1227,2.8716 128.4485,2.8709 134.5094,2.8705 140.4263,2.8703 146.0482,2.6535 151.5073,2.1002 156.8779,1.5803 161.9838,1.0785 166.9456,0.3678 171.6102,-0.2377 175.6754,-0.567 179.4144,-0.7462 182.5406,-0.6248 185.2669,-0.2201 L186.75,0 " stroke-linecap="round" fill="none" stroke="#f2f2f2" stroke-width="3" stroke-dasharray="none" stroke-dashoffset="0"/></g></g><g transform="matrix(1, 0, 0, 1, 1009.3957, 8802.4239)" opacity="1"><g transform="scale(1)"><path d="M0,0 Q-2.1842,-1.3087 -3.2138,-1.6647 T-5.4602,-2.2143 -7.9932,-2.0778 -10.6798,-1.1303 -13.2335,0.4772 -15.2794,2.6604 -16.6112,5.1591 -17.3357,7.8294 -17.292,10.5908 -15.9573,13.1851 -13.4847,15.253 -10.3932,17.0323 -6.746,18.4357 -2.7966,18.9803 1.3173,18.8411 5.3017,18.111 8.3424,16.6217 10.4344,14.5005 11.7913,12.0356 12.3105,9.386 11.9364,6.6358 10.6407,4.0477 8.7102,1.4261 L7.66,0 " stroke-linecap="round" fill="none" stroke="#f2f2f2" stroke-width="3" stroke-dasharray="none" stroke-dashoffset="0"/></g></g><g transform="matrix(1, 0, 0, 1, 712.5077, 8879.0401)" opacity="1"><g transform="scale(1)"><path d="M0,0 Q6.115,1.7465 8.4326,2.2215 T12.6654,3.1739 16.279,3.9108 19.5558,4.5306 22.6471,5.0867 25.6398,5.3891 28.5788,5.7703 31.7052,6.1942 35.1525,6.4249 38.5554,6.5503 41.9365,6.6186 45.5245,6.6557 49.4395,6.6759 53.5346,6.4703 57.7277,6.1418 61.9718,5.9632 66.246,5.866 70.7554,5.8131 75.3927,5.7843 80.0997,5.7687 84.8445,5.7602 89.6099,5.7555 94.6032,5.753 99.7203,5.7516 104.9072,5.532 110.1319,4.9748 115.3751,4.4528 120.847,3.9499 126.2269,3.4575 131.5544,2.973 137.2912,2.4928 143.2505,2.0127 149.1122,1.5327 155.1395,1.0527 161.257,0.5726 167.4235,0.0926 173.8355,-0.6062 180.3812,-1.2053 186.7806,-1.5312 193.3194,-1.9251 199.9317,-2.356 206.3673,-2.5904 213.1447,-2.7179 220.1057,-2.7872 226.9499,-2.825 233.7307,-2.8455 240.4769,-2.8567 247.2043,-3.0816 254.1381,-3.4229 260.9676,-3.8274 267.7403,-4.4852 274.6987,-5.062 281.5416,-5.5923 288.5405,-6.0974 295.8408,-6.5911 302.8697,-7.0785 309.7509,-7.3437 316.9872,-7.4879 324.1978,-7.7853 331.3968,-8.1659 338.8082,-8.373 346.1142,-8.4856 353.3627,-8.5469 360.5822,-8.5802 367.786,-8.5984 375.1978,-8.6082 382.7228,-8.6136 390.0928,-8.6165 397.3784,-8.6181 404.6158,-8.619 411.8271,-8.6194 419.243,-8.6197 426.5536,-8.6198 433.8069,-8.6199 441.0268,-8.62 448.2308,-8.62 455.4261,-8.62 462.3956,-8.62 469.2444,-8.62 476.0277,-8.62 482.773,-8.62 489.281,-8.62 495.66,-8.4011 502.1876,-8.0632 508.5796,-7.6604 514.6765,-7.2225 520.8318,-6.9842 527.0189,-6.638 533.0044,-6.2331 539.0991,-6.0128 545.4721,-5.893 551.7776,-5.8278 557.8276,-6.0089 563.7384,-6.324 569.5737,-6.4955 575.5866,-6.8076 581.6963,-7.1963 587.6419,-7.6266 593.4961,-8.0796 599.3005,-8.5449 605.2967,-9.0169 611.6161,-9.4903 617.8924,-9.9644 624.1454,-10.2223 630.6044,-10.3626 637.1734,-10.4389 643.8044,-10.4805 650.688,-10.5031 657.7067,-10.5153 664.8013,-10.522 672.156,-10.5257 679.6499,-10.5276 687.4384,-10.5287 695.3872,-10.5293 703.2043,-10.5296 710.9498,-10.3132 718.6586,-9.9789 726.3474,-9.797 734.0231,-9.4792 741.9105,-9.0874 749.6942,-8.8743 757.2026,-8.7583 765.2179,-8.6952 773.5089,-8.6609 781.5122,-8.6423 789.5778,-8.6321 797.4608,-8.6266 805.0255,-8.6236 812.6336,-8.4031 819.8299,-8.0642 826.3644,-7.8799 832.5389,-7.7796 838.301,-7.7251 843.6198,-7.6954 848.0408,-7.6793 852.0753,-7.6668 L854.27,-7.66 " stroke-linecap="round" fill="none" stroke="#e599f7" stroke-width="3" stroke-dasharray="none" stroke-dashoffset="0"/></g></g><g transform="matrix(1, 0, 0, 1, 897.3444, 8978.1624)" opacity="1"><g transform="scale(1)"><path d="M0,0 Q-0.4378,1.7465 -0.9923,2.6593 T-2.2863,4.2852 -4.0823,6.043 -6.1515,8.0914 -8.3693,10.0789 -10.6678,12.2522 -12.7915,14.3078 -14.6011,16.0804 -16.0233,17.9179 -17.4514,19.3552 -19.1733,20.4658 L-20.11,21.07 " stroke-linecap="round" fill="none" stroke="#e599f7" stroke-width="3" stroke-dasharray="none" stroke-dashoffset="0"/></g></g><g transform="matrix(1, 0, 0, 1, 879.148, 8980.0778)" opacity="1"><g transform="scale(1)"><path d="M0,0 Q2.622,2.622 3.5518,3.7707 T5.4251,5.7631 7.1009,7.2847 8.6668,8.548 10.392,9.6707 12.2037,10.5003 13.8436,11.1705 15.1735,11.7539 16.3347,12.2902 17.5428,13.0155 L18.2,13.41 " stroke-linecap="round" fill="none" stroke="#e599f7" stroke-width="3" stroke-dasharray="none" stroke-dashoffset="0"/></g></g><g transform="matrix(1, 0, 0, 1, 897.3444, 8957.0929)" opacity="1"><g transform="scale(1)"><path d="M0,0 Q1.7465,-1.3087 2.4404,-1.6647 T3.9473,-2.2143 5.4214,-2.5133 6.88,-2.676 8.3278,-2.7644 9.5509,-2.8126 10.4351,-2.6222 10.9161,-2.0831 10.9589,-1.3521 10.7633,-0.5167 10.4403,0.3756 9.8291,1.2964 9.0589,2.2329 7.9855,3.18 6.7472,4.1331 5.6359,5.087 4.8124,6.0414 4.1455,6.9984 3.7828,7.9567 4.0232,8.6969 4.8083,9.0996 5.8898,9.3187 7.1348,9.4378 8.9042,9.5027 11.1754,9.7545 13.2842,10.1081 15.0881,10.3005 17.1036,10.4491 L18.2,10.53 " stroke-linecap="round" fill="none" stroke="#e599f7" stroke-width="3" stroke-dasharray="none" stroke-dashoffset="0"/></g></g><g transform="matrix(1, 0, 0, 1, 930.864, 8977.2047)" opacity="1"><g transform="scale(1)"><path d="M0,0 Q0.4378,2.1842 0.5568,3.2138 T0.7407,5.2413 0.8407,7.2175 0.8951,9.1657 1.1436,11.3177 1.6464,13.9099 L1.92,15.32 " stroke-linecap="round" fill="none" stroke="#e599f7" stroke-width="3" stroke-dasharray="none" stroke-dashoffset="0"/></g></g><g transform="matrix(1, 0, 0, 1, 938.5256, 8984.8663)" opacity="1"><g transform="scale(1)"><path d="M0,0 Q-1.7465,0.4378 -2.6593,0.5568 T-4.5041,0.7407 -6.381,0.8407 -8.2752,0.8951 -10.1789,0.9247 -12.2716,0.9476 L-13.41,0.96 " stroke-linecap="round" fill="none" stroke="#e599f7" stroke-width="3" stroke-dasharray="none" stroke-dashoffset="0"/></g></g><g transform="matrix(1, 0, 0, 1, 954.8066, 8970.5008)" opacity="1"><g transform="scale(1)"><path d="M0,0 Q0,3.0552 0,4.5429 T0,7.713 -0.2189,10.9652 -0.5568,14.0431 -0.7407,16.8096 -0.8407,19.1878 -0.8951,21.3548 -0.9371,23.6509 L-0.96,24.9 " stroke-linecap="round" fill="none" stroke="#e599f7" stroke-width="3" stroke-dasharray="none" stroke-dashoffset="0"/></g></g><g transform="matrix(1, 0, 0, 1, 982.58, 8974.3316)" opacity="1"><g transform="scale(1)"><path d="M-0.96,0 Q-0.0845,-0.8755 0.5891,-0.8948 T1.6292,-0.7056 1.9784,-0.165 1.7329,0.348 0.7238,0.846 -0.9885,1.5416 L-1.92,1.92 " stroke-linecap="round" fill="none" stroke="#e599f7" stroke-width="3" stroke-dasharray="none" stroke-dashoffset="0"/></g></g><g transform="matrix(1, 0, 0, 1, 983.5377, 8987.7394)" opacity="1"><g transform="scale(1)"><path d="M0,0 Q0.4378,1.3087 0.5568,1.8836 T0.7407,2.99 0.6218,3.8108 -0.0995,4.2573 -1.2786,4.6023 L-1.92,4.79 " stroke-linecap="round" fill="none" stroke="#e599f7" stroke-width="3" stroke-dasharray="none" stroke-dashoffset="0"/></g></g><g transform="matrix(1, 0, 0, 1, 1030.4651, 8975.2893)" opacity="1"><g transform="scale(1)"><path d="M0,0 Q-1.3087,1.3087 -2.1025,1.8836 T-3.7635,2.99 -5.5403,4.2463 -7.599,5.5841 -10.0299,6.9685 -12.6634,8.5948 -15.1858,10.3528 -17.6501,12.4012 -19.8639,14.3888 -21.7226,15.9078 -23.3904,17.1697 -24.9899,18.4523 L-25.86,19.15 " stroke-linecap="round" fill="none" stroke="#e599f7" stroke-width="3" stroke-dasharray="none" stroke-dashoffset="0"/></g></g><g transform="matrix(1, 0, 0, 1, 1006.5225, 8973.3739)" opacity="1"><g transform="scale(1)"><path d="M0,0 Q2.1842,3.0552 2.9972,4.324 T4.4691,6.5018 5.9241,8.341 7.5889,10.2147 9.1489,11.8906 10.6542,13.2378 12.3463,14.4062 14.1401,15.4795 15.9891,16.2823 17.6494,16.9379 19.4258,17.5134 21.7277,17.9581 L22.98,18.2 " stroke-linecap="round" fill="none" stroke="#e599f7" stroke-width="3" stroke-dasharray="none" stroke-dashoffset="0"/></g></g><g transform="matrix(1, 0, 0, 1, 1036.2113, 8985.824)" opacity="1"><g transform="scale(1)"><path d="M0,0 Q2.622,0.4378 3.5518,0.5568 T5.644,0.7407 7.8743,0.8407 9.9608,0.8951 12.188,0.9247 14.2728,0.9408 16.0613,0.7307 18.0618,0.2574 L19.15,0 " stroke-linecap="round" fill="none" stroke="#e599f7" stroke-width="3" stroke-dasharray="none" stroke-dashoffset="0"/></g></g><g transform="matrix(1, 0, 0, 1, 1069.731, 8966.67)" opacity="1"><g transform="scale(1)"><path d="M0,0 Q0.8755,2.1842 1.1137,3.4327 T1.4814,6.2336 1.6814,9.5038 1.7902,13.0292 1.8494,16.4769 1.8816,19.4446 1.8991,21.7134 1.9086,22.7287 1.9138,21.9701 1.9178,20.1436 L1.92,19.15 " stroke-linecap="round" fill="none" stroke="#e599f7" stroke-width="3" stroke-dasharray="none" stroke-dashoffset="0"/></g></g><g transform="matrix(1, 0, 0, 1, 1068.7732, 8963.7969)" opacity="1"><g transform="scale(1)"><path d="M0,0 Q-1.7465,0 -2.4404,0.2189 T-3.9473,0.7757 -5.4214,1.5141 -6.6611,2.3513 -7.7732,3.2445 -8.8137,4.1681 -9.9253,5.1926 L-10.53,5.75 " stroke-linecap="round" fill="none" stroke="#e599f7" stroke-width="3" stroke-dasharray="none" stroke-dashoffset="0"/></g></g><g transform="matrix(1, 0, 0, 1, 1078.3503, 8992.5279)" opacity="1"><g transform="scale(1)"><path d="M0,0 Q-1.7465,0.4378 -2.6593,0.5568 T-4.5041,0.7407 -6.381,0.8407 -8.713,1.114 -11.7551,1.636 L-13.41,1.92 " stroke-linecap="round" fill="none" stroke="#e599f7" stroke-width="3" stroke-dasharray="none" stroke-dashoffset="0"/></g></g><g transform="matrix(1, 0, 0, 1, 1106.1237, 8966.67)" opacity="1"><g transform="scale(1)"><path d="M-0.96,0 Q1.662,0 2.8107,0 T5.2408,0 8.0927,-0.2189 10.2985,-0.7757 11.692,-1.5168 L12.45,-1.92 " stroke-linecap="round" fill="none" stroke="#e599f7" stroke-width="3" stroke-dasharray="none" stroke-dashoffset="0"/></g></g><g transform="matrix(1, 0, 0, 1, 1106.1237, 8976.247)" opacity="1"><g transform="scale(1)"><path d="M0,0 Q2.1842,0.4378 3.2138,0.7757 T5.4602,1.2975 7.9932,1.5814 10.8797,1.8007 L12.45,1.92 " stroke-linecap="round" fill="none" stroke="#e599f7" stroke-width="3" stroke-dasharray="none" stroke-dashoffset="0"/></g></g><g transform="matrix(1, 0, 0, 1, 1160.7127, 8965.7123)" opacity="1"><g transform="scale(1)"><path d="M0,0 Q-0.8755,0.4378 -1.3303,0.7757 T-2.4701,1.9519 -3.9635,3.6815 -5.6491,5.7146 -7.4393,7.9127 -9.0675,10.2006 -10.3911,12.3184 -11.9843,13.906 -14.1447,15.4436 L-15.32,16.28 " stroke-linecap="round" fill="none" stroke="#e599f7" stroke-width="3" stroke-dasharray="none" stroke-dashoffset="0"/></g></g><g transform="matrix(1, 0, 0, 1, 1144.4318, 8967.6277)" opacity="1"><g transform="scale(1)"><path d="M0,0 Q2.1842,1.3087 2.9972,2.1025 T4.688,3.5469 6.481,4.987 8.3296,6.8602 10.2085,8.9714 12.1039,10.9954 13.7893,12.7508 15.5794,14.1412 17.6454,15.3354 19.8634,16.5689 L21.07,17.24 " stroke-linecap="round" fill="none" stroke="#e599f7" stroke-width="3" stroke-dasharray="none" stroke-dashoffset="0"/></g></g><g transform="matrix(1, 0, 0, 1, 892.5559, 9034.6669)" opacity="1"><g transform="scale(1)"><path d="M0,0 Q-1.3087,0.8755 -1.8836,1.3303 T-2.99,2.2513 -4.0297,3.19 -5.2496,4.3551 -6.5676,5.6433 -7.939,7.0007 -9.3394,8.6123 -10.7578,10.1434 -12.1861,11.4141 -13.182,12.5431 -14.1592,13.5928 -15.5328,14.7114 L-16.28,15.32 " stroke-linecap="round" fill="none" stroke="#e599f7" stroke-width="3" stroke-dasharray="none" stroke-dashoffset="0"/></g></g><g transform="matrix(1, 0, 0, 1, 876.2749, 9033.7092)" opacity="1"><g transform="scale(1)"><path d="M0,0 Q2.1842,2.622 3.2138,3.7707 T5.0224,5.7631 6.6629,7.5013 8.4286,9.1013 10.2623,10.6283 11.9166,12.1156 13.2519,13.3602 14.4138,14.6916 15.4837,16.0726 16.6212,17.4504 L17.24,18.2 " stroke-linecap="round" fill="none" stroke="#e599f7" stroke-width="3" stroke-dasharray="none" stroke-dashoffset="0"/></g></g><g transform="matrix(1, 0, 0, 1, 888.7251, 9014.5551)" opacity="1"><g transform="scale(1)"><path d="M0,0 Q2.1842,-0.8755 3.2138,-1.1137 T5.4602,-1.698 7.9932,-2.2324 10.2444,-2.0877 11.6879,-1.3546 12.2543,-0.518 12.1247,0.3748 11.6164,1.296 10.9044,2.2326 10.0816,2.961 9.1962,3.5762 8.2768,4.3486 7.5578,5.2042 7.3855,5.8863 7.9484,6.4762 9.1279,7.016 10.6428,7.3097 12.3401,7.4694 14.1367,7.5563 16.2062,7.8225 18.7346,8.339 L20.11,8.62 " stroke-linecap="round" fill="none" stroke="#e599f7" stroke-width="3" stroke-dasharray="none" stroke-dashoffset="0"/></g></g><g transform="matrix(1, 0, 0, 1, 911.7099, 9038.4977)" opacity="1"><g transform="scale(1)"><path d="M0,0 Q1.7465,1.3087 2.6593,1.6647 T4.723,2.2143 6.9355,2.5133 8.7935,2.676 10.4609,2.7644 12.3709,2.8328 L13.41,2.87 " stroke-linecap="round" fill="none" stroke="#e599f7" stroke-width="3" stroke-dasharray="none" stroke-dashoffset="0"/></g></g><g transform="matrix(1, 0, 0, 1, 953.8489, 9032.7515)" opacity="1"><g transform="scale(1)"><path d="M0,0 Q-0.8755,1.3087 -1.5491,2.3213 T-3.027,4.3203 -4.923,6.4976 -7.0443,8.993 -8.8527,11.4426 -10.7119,13.6485 -13.0811,15.9746 L-14.37,17.24 " stroke-linecap="round" fill="none" stroke="#e599f7" stroke-width="3" stroke-dasharray="none" stroke-dashoffset="0"/></g></g><g transform="matrix(1, 0, 0, 1, 940.441, 9039.4554)" opacity="1"><g transform="scale(1)"><path d="M0.96,0 Q2.2687,1.3087 3.0625,1.8836 T4.5046,3.2089 5.9434,4.5842 7.3828,5.7679 8.8202,7.0685 10.2565,8.8681 11.6772,11.188 L12.45,12.45 " stroke-linecap="round" fill="none" stroke="#e599f7" stroke-width="3" stroke-dasharray="none" stroke-dashoffset="0"/></g></g><g transform="matrix(1, 0, 0, 1, 866.6979, 9017.4282)" opacity="1"><g transform="scale(1)"><path d="M0,0 Q-1.7465,1.7465 -2.4404,2.6593 T-3.7307,4.723 -5.087,7.1544 -6.4792,10.0047 -7.6743,13.3017 -8.5433,16.8418 -9.016,20.7329 -9.2732,24.5985 -8.9753,28.2312 -7.9401,31.735 -6.2848,34.9498 -4.0733,37.7908 -1.3426,40.2095 2.0075,42.6969 L3.83,44.05 " stroke-linecap="round" fill="none" stroke="#e599f7" stroke-width="3" stroke-dasharray="none" stroke-dashoffset="0"/></g></g><g transform="matrix(1, 0, 0, 1, 973.0029, 9027.0053)" opacity="1"><g transform="scale(1)"><path d="M0,0 Q0,-1.3087 0,-1.2292 T0.2189,-0.4498 0.7757,1.2852 1.5141,3.7566 2.5702,6.8476 3.8013,10.0566 4.9065,13.33 5.7243,16.8571 6.1692,20.5247 6.1947,24.0497 5.3353,27.0572 3.7756,29.5665 1.8351,31.807 -0.597,34.16 L-1.92,35.44 " stroke-linecap="round" fill="none" stroke="#e599f7" stroke-width="3" stroke-dasharray="none" stroke-dashoffset="0"/></g></g><g transform="matrix(1, 0, 0, 1, 817.855, 9043.2862)" opacity="1"><g transform="scale(1)"><path d="M0,0 Q4.3685,1.3087 6.4299,1.6647 T10.4861,2.2143 14.4391,2.2967 18.336,1.906 21.9836,1.4747 25.7313,1.1413 L27.77,0.96 " stroke-linecap="round" fill="none" stroke="#e599f7" stroke-width="3" stroke-dasharray="none" stroke-dashoffset="0"/></g></g><g transform="matrix(1, 0, 0, 1, 818.8128, 9074.8904)" opacity="1"><g transform="scale(1)"><path d="M0.96,0 Q3.1442,-0.4378 4.1738,-0.5568 T6.4179,-0.7407 8.9496,-0.8407 11.6379,-0.6762 14.4091,-0.149 17.4442,0.5756 20.844,1.4052 24.4423,2.2921 28.3651,2.9934 32.9,3.3749 37.9867,3.5824 43.5924,3.4764 49.4806,3.1999 55.0868,3.0495 60.3186,2.9676 65.3466,2.9231 70.0472,2.8989 74.5697,2.8857 79.2142,2.8786 83.9251,2.8747 88.8909,2.8725 94.212,2.6548 99.9453,2.3197 105.9028,1.9186 111.9823,1.4815 118.1281,1.2437 123.8723,1.1143 128.9625,1.0439 133.6969,1.2245 138.4567,1.5417 143.2302,1.9308 148.4468,2.578 154.1232,3.1489 159.6142,3.4595 165.0022,3.6284 170.1153,3.7203 174.2077,3.7703 177.5262,3.7975 181.0196,3.8186 L182.92,3.83 " stroke-linecap="round" fill="none" stroke="#e599f7" stroke-width="3" stroke-dasharray="none" stroke-dashoffset="0"/></g></g><g transform="matrix(1, 0, 0, 1, 901.1752, 9101.7061)" opacity="1"><g transform="scale(1)"><path d="M0,0 Q-1.3087,0.4378 -2.3213,0.9923 T-4.3203,2.2863 -6.281,3.8635 -8.4397,5.8136 -10.7061,7.9665 -12.8123,10.011 -14.6125,11.9964 -16.2461,13.7309 -18.1269,15.3819 L-19.15,16.28 " stroke-linecap="round" fill="none" stroke="#e599f7" stroke-width="3" stroke-dasharray="none" stroke-dashoffset="0"/></g></g><g transform="matrix(1, 0, 0, 1, 882.9789, 9103.6215)" opacity="1"><g transform="scale(1)"><path d="M0,0 Q2.1842,1.7465 2.9972,2.4404 T4.688,3.9473 6.481,5.6403 8.3296,7.4345 10.4274,9.2838 12.4418,10.9465 14.192,12.2887 15.8008,13.4544 17.1114,14.3051 18.2599,14.9868 19.4581,15.8244 L20.11,16.28 " stroke-linecap="round" fill="none" stroke="#e599f7" stroke-width="3" stroke-dasharray="none" stroke-dashoffset="0"/></g></g><g transform="matrix(1, 0, 0, 1, 928.9486, 9103.6215)" opacity="1"><g transform="scale(1)"><path d="M0.96,0 Q1.3978,2.1842 1.5168,3.2138 T1.7007,5.2413 1.8007,7.2175 1.6362,9.1657 1.3279,11.3177 1.1601,13.5805 1.0305,15.9506 L0.96,17.24 " stroke-linecap="round" fill="none" stroke="#e599f7" stroke-width="3" stroke-dasharray="none" stroke-dashoffset="0"/></g></g><g transform="matrix(1, 0, 0, 1, 936.6102, 9111.2831)" opacity="1"><g transform="scale(1)"><path d="M-0.96,0 Q-3.5774,0.4378 -4.7271,0.5568 T-6.9378,0.7407 -9.0136,1.0596 -11.2392,1.6168 L-12.45,1.92 " stroke-linecap="round" fill="none" stroke="#e599f7" stroke-width="3" stroke-dasharray="none" stroke-dashoffset="0"/></g></g><g transform="matrix(1, 0, 0, 1, 948.1027, 9102.6638)" opacity="1"><g transform="scale(1)"><path d="M0,0 Q0.4378,3.0552 0.5568,4.5429 T0.7407,7.4942 0.8407,10.4084 0.8951,13.0858 1.1436,15.8534 1.4976,18.6676 1.7712,21.4606 L1.92,22.98 " stroke-linecap="round" fill="none" stroke="#e599f7" stroke-width="3" stroke-dasharray="none" stroke-dashoffset="0"/></g></g><g transform="matrix(1, 0, 0, 1, 1186.5707, 8971.4585)" opacity="1"><g transform="scale(1)"><path d="M0,0.96 Q0.4378,4.0152 0.7757,5.0651 T1.5168,7.3675 L1.92,8.62 " stroke-linecap="round" fill="none" stroke="#e599f7" stroke-width="3" stroke-dasharray="none" stroke-dashoffset="0"/></g></g><g transform="matrix(1, 0, 0, 1, 1191.3592, 8973.3739)" opacity="1"><g transform="scale(1)"><path d="M0,0 Q-1.7465,-0.4378 -2.6593,-0.5568 T-4.5041,-0.5218 -6.1621,-0.2839 -7.9373,-0.1544 -9.7762,0.1349 -11.5079,0.6693 L-12.45,0.96 " stroke-linecap="round" fill="none" stroke="#e599f7" stroke-width="3" stroke-dasharray="none" stroke-dashoffset="0"/></g></g><g transform="matrix(1, 0, 0, 1, 1210.5133, 8957.0929)" opacity="1"><g transform="scale(1)"><path d="M0,0 Q0.4378,2.1842 0.338,3.2138 T0.1838,5.4602 0.1,7.7743 0.0544,10.1253 0.0296,12.7152 0.0161,15.214 0.0057,17.7632 L0,19.15 " stroke-linecap="round" fill="none" stroke="#e599f7" stroke-width="3" stroke-dasharray="none" stroke-dashoffset="0"/></g></g><g transform="matrix(1, 0, 0, 1, 1184.6553, 8964.7546)" opacity="1"><g transform="scale(1)"><path d="M0.4378,1.311 Q0.8755,2.622 1.1137,3.7707 T1.4814,5.7631 1.6814,7.5013 1.7902,9.3202 1.8494,11.1851 2.0982,12.854 2.4501,14.1974 2.8605,15.1471 3.3026,15.4448 3.5431,15.1713 3.6739,14.3681 3.5262,13.0557 3.227,11.6874 3.0642,10.0698 2.759,8.3166 2.3764,6.9273 1.9494,5.5149 1.3086,3.8019 0.48,1.435 0.4378,1.311 Z" stroke-linecap="round" fill="none" stroke="#e599f7" stroke-width="3" stroke-dasharray="none" stroke-dashoffset="0"/></g></g><g transform="matrix(1, 0, 0, 1, 1190.4015, 8973.3739)" opacity="1"><g transform="scale(1)"><path d="M0,0 Q-2.622,-0.4378 -3.7707,-0.5568 T-6.2897,-0.818 L-7.66,-0.96 " stroke-linecap="round" fill="none" stroke="#e599f7" stroke-width="3" stroke-dasharray="none" stroke-dashoffset="0"/></g></g><g transform="matrix(1, 0, 0, 1, 900.2175, 9148.6335)" opacity="1"><g transform="scale(1)"><path d="M0,0 Q-1.7465,1.3087 -2.6593,1.8836 T-4.5041,3.2089 -6.5976,4.8031 -9.0474,6.7602 -11.6911,8.917 -14.2214,11.1824 -16.69,13.5069 -19.1228,15.6447 -21.3194,17.462 -23.6384,19.177 L-24.9,20.11 " stroke-linecap="round" fill="none" stroke="#e599f7" stroke-width="3" stroke-dasharray="none" stroke-dashoffset="0"/></g></g><g transform="matrix(1, 0, 0, 1, 879.148, 9151.5067)" opacity="1"><g transform="scale(1)"><path d="M0,0 Q2.1842,2.1842 3.2138,3.4327 T5.4602,6.0147 7.9932,8.5114 10.6798,10.7452 13.2335,12.8336 15.2794,14.624 16.8278,16.0358 18.1056,17.0227 19.4574,17.5595 21.1236,17.9743 L22.03,18.2 " stroke-linecap="round" fill="none" stroke="#e599f7" stroke-width="3" stroke-dasharray="none" stroke-dashoffset="0"/></g></g><g transform="matrix(1, 0, 0, 1, 924.1601, 9161.0837)" opacity="1"><g transform="scale(1)"><path d="M0.96,0 Q3.5774,0 4.7271,0 T6.9378,0 9.0136,0 11.0184,0 13.1891,0 L14.37,0 " stroke-linecap="round" fill="none" stroke="#e599f7" stroke-width="3" stroke-dasharray="none" stroke-dashoffset="0"/></g></g><g transform="matrix(1, 0, 0, 1, 954.8066, 9146.7181)" opacity="1"><g transform="scale(1)"><path d="M0,0 Q1.3087,1.3087 1.6647,2.3213 T2.2143,4.5392 2.5133,7.2733 2.8948,10.5071 3.3213,13.5773 3.5533,16.3396 3.6794,18.7155 3.967,20.4435 4.5,22.0863 L4.79,22.98 " stroke-linecap="round" fill="none" stroke="#e599f7" stroke-width="3" stroke-dasharray="none" stroke-dashoffset="0"/></g></g><g transform="matrix(1, 0, 0, 1, 864.7825, 9144.8027)" opacity="1"><g transform="scale(1)"><path d="M0,0 Q-1.7465,1.7465 -2.6593,2.6593 T-4.5041,4.9419 -6.381,7.7112 -8.0563,10.7453 -9.4032,14.1424 -10.5737,17.518 -11.4293,20.6653 -11.6758,23.6884 -11.3722,26.6418 -10.3338,29.3405 -8.4602,31.9007 -5.6945,34.3856 -2.2245,36.394 1.6968,38.2567 L3.83,39.27 " stroke-linecap="round" fill="none" stroke="#e599f7" stroke-width="3" stroke-dasharray="none" stroke-dashoffset="0"/></g></g><g transform="matrix(1, 0, 0, 1, 978.7492, 9137.1411)" opacity="1"><g transform="scale(1)"><path d="M0,0 Q-1.3087,1.3087 -1.6647,2.3213 T-2.2143,4.5392 -2.2967,7.0544 -1.6872,10.1691 -0.6989,13.8289 0.2764,17.5663 1.2425,21.5648 1.9846,25.7054 2.3884,29.4877 2.3914,32.8563 1.9576,35.7787 1.0649,38.0228 -0.2939,39.9002 -1.9064,41.5759 -3.8757,42.7041 -6.2557,43.5367 -9.024,44.4909 L-10.53,45.01 " stroke-linecap="round" fill="none" stroke="#e599f7" stroke-width="3" stroke-dasharray="none" stroke-dashoffset="0"/></g></g><g transform="matrix(1, 0, 0, 1, 806.3626, 9163.9568)" opacity="1"><g transform="scale(1)"><path d="M0,0 Q3.493,0.4378 5.3163,0.5568 T9.2236,0.7407 13.5334,0.6218 17.8434,0.3383 21.7155,0.184 25.6368,0.0648 L27.77,0 " stroke-linecap="round" fill="none" stroke="#e599f7" stroke-width="3" stroke-dasharray="none" stroke-dashoffset="0"/></g></g><g transform="matrix(1, 0, 0, 1, 828.3898, 9187.8994)" opacity="1"><g transform="scale(1)"><path d="M0,0 Q2.622,0 3.9895,0 T6.5365,-0.2189 9.0142,-0.5568 11.673,-0.7407 14.6471,-0.8407 17.7925,-0.8951 21.0335,-0.9247 24.762,-0.9408 28.9722,-0.9496 33.228,-0.9543 37.5085,-0.9569 42.0213,-0.9583 46.4416,-0.9591 50.8116,-0.7406 55.1543,-0.184 59.2632,0.5565 63.2449,1.1783 67.3763,1.5165 71.808,1.7005 76.1842,1.8006 80.5303,1.855 85.0787,1.8847 89.7374,1.9008 94.237,1.9095 98.8668,1.6954 103.5673,1.3601 108.0898,1.1776 112.9531,0.8595 118.0019,0.2487 122.9327,-0.5213 127.797,-1.1591 132.6251,-1.7227 137.217,-2.4647 141.4614,-3.0873 145.5169,-3.426 149.253,-3.6102 152.8152,-3.4916 156.2807,-3.2081 159.2581,-2.8373 161.751,-2.419 163.9804,-1.9726 166.3247,-1.3168 L167.6,-0.96 " stroke-linecap="round" fill="none" stroke="#e599f7" stroke-width="3" stroke-dasharray="none" stroke-dashoffset="0"/></g></g><g transform="matrix(1, 0, 0, 1, 938.5256, 9208.9688)" opacity="1"><g transform="scale(1)"><path d="M0,0 Q2.1842,0 3.2138,0 T5.4602,0.2189 7.5554,0.5568 9.3496,0.9596 10.9823,1.6141 12.0893,2.4057 12.6915,3.2741 12.8003,4.4008 12.2028,5.887 11.0045,7.5687 9.2628,9.1379 7.4421,10.6482 5.795,12.1265 4.0257,13.1495 2.19,13.9227 0.5347,14.7787 -0.5846,15.6822 -0.9747,16.3926 -0.7491,16.9979 0.0302,17.546 1.3275,18.0608 2.9064,18.5575 4.8574,18.8277 7.2275,18.9747 9.609,19.2735 11.7777,19.6549 13.6119,19.8624 15.2663,20.1942 17.1664,20.7614 L18.2,21.07 " stroke-linecap="round" fill="none" stroke="#e599f7" stroke-width="3" stroke-dasharray="none" stroke-dashoffset="0"/></g></g><g transform="matrix(1, 0, 0, 1, 1244.9906, 8956.1352)" opacity="1"><g transform="scale(1)"><path d="M0.96,0 Q0.96,1.7465 0.96,3.0948 T0.96,5.8309 1.1789,8.4114 1.5168,10.9074 1.778,13.7653 L1.92,15.32 " stroke-linecap="round" fill="none" stroke="#e599f7" stroke-width="3" stroke-dasharray="none" stroke-dashoffset="0"/></g></g><g transform="matrix(1, 0, 0, 1, 1250.7368, 8963.7969)" opacity="1"><g transform="scale(1)"><path d="M0,0 Q-1.7465,0.8755 -2.6593,1.1137 T-4.5041,1.4814 -6.381,1.6814 -8.713,1.7902 -11.7551,1.8743 L-13.41,1.92 " stroke-linecap="round" fill="none" stroke="#e599f7" stroke-width="3" stroke-dasharray="none" stroke-dashoffset="0"/></g></g><g transform="matrix(1, 0, 0, 1, 1270.8486, 8963.7969)" opacity="1"><g transform="scale(1)"><path d="M0,0 Q0.4378,2.622 0.5568,3.5518 T0.9596,5.4251 1.3975,7.1009 1.4169,8.448 1.2085,9.1808 1.0952,8.9251 0.8147,8.1293 0.4432,6.8232 0.0222,5.0228 -0.4257,3.1702 -0.6693,1.2868 -1.0208,-1.0487 -1.4308,-3.4091 -1.6539,-5.1286 -1.7752,-6.5018 -1.4035,-7.4677 -0.1091,-7.9932 1.4682,-8.279 2.7641,-8.4345 4.1234,-8.3002 5.7922,-7.8856 L6.7,-7.66 " stroke-linecap="round" fill="none" stroke="#e599f7" stroke-width="3" stroke-dasharray="none" stroke-dashoffset="0"/></g></g><g transform="matrix(1, 0, 0, 1, 1281.3833, 8965.7123)" opacity="1"><g transform="scale(1)"><path d="M0.96,0 Q3.5774,0 4.7271,0 T6.5023,-0.2189 7.6868,-0.9923 8.5501,-2.0674 9.0197,-3.09 9.2752,-4.0841 9.1953,-5.0603 8.7141,-5.808 8.0145,-6.2148 7.1985,-6.2194 6.3191,-5.5676 5.403,-4.5564 4.6857,-3.3519 4.2955,-1.8234 4.0832,-0.1187 4.1866,1.463 4.8973,2.9801 6.1571,4.2432 7.7156,5.1469 9.6556,5.6385 12.0872,5.7107 L13.41,5.75 " stroke-linecap="round" fill="none" stroke="#e599f7" stroke-width="3" stroke-dasharray="none" stroke-dashoffset="0"/></g></g><g transform="matrix(1, 0, 0, 1, 1313.9452, 8954.2198)" opacity="1"><g transform="scale(1)"><path d="M0,0 Q-1.3087,1.3087 -1.8836,1.8836 T-2.99,2.99 -3.8108,4.0297 -4.2573,5.0308 -4.5002,6.0108 -4.4135,6.9817 -3.9285,7.7288 -3.0104,8.3541 -2.0754,9.1297 -1.3479,9.9871 -0.7333,10.8913 -0.3989,11.821 -0.4359,12.7644 -0.8938,13.7132 -2.0161,14.4459 -3.4999,14.8445 -4.9614,15.0613 -6.6297,15.1793 -8.5405,15.2704 L-9.58,15.32 " stroke-linecap="round" fill="none" stroke="#e599f7" stroke-width="3" stroke-dasharray="none" stroke-dashoffset="0"/></g></g><g transform="matrix(1, 0, 0, 1, 1327.3531, 8931.2349)" opacity="1"><g transform="scale(1)"><path d="M0,0 Q0.4378,2.622 0.338,3.9895 T0.1838,6.7554 -0.1189,9.7876 -0.5024,12.967 -0.93,15.7887 -1.3814,18.8514 -1.627,21.8284 -1.5417,24.3212 -1.0576,26.5505 -0.3564,28.201 1.1171,29.3177 3.4959,30.1806 L4.79,30.65 " stroke-linecap="round" fill="none" stroke="#e599f7" stroke-width="3" stroke-dasharray="none" stroke-dashoffset="0"/></g></g><g transform="matrix(1, 0, 0, 1, 1331.1839, 8949.4313)" opacity="1"><g transform="scale(1)"><path d="M0,0 Q-3.0552,-0.4378 -4.324,-0.5568 T-6.7184,-0.7407 -8.8943,-0.6218 -11.1972,-0.2191 L-12.45,0 " stroke-linecap="round" fill="none" stroke="#e599f7" stroke-width="3" stroke-dasharray="none" stroke-dashoffset="0"/></g></g><g transform="matrix(1, 0, 0, 1, 1353.2111, 8953.2621)" opacity="1"><g transform="scale(1)"><path d="M0.96,0 Q3.5774,0 4.7271,0 T7.2484,0 L8.62,0 " stroke-linecap="round" fill="none" stroke="#e599f7" stroke-width="3" stroke-dasharray="none" stroke-dashoffset="0"/></g></g><g transform="matrix(1, 0, 0, 1, 1352.2534, 8959.966)" opacity="1"><g transform="scale(1)"><path d="M0,0 Q1.7465,0.8755 2.6593,1.1137 T4.723,1.4814 6.9355,1.4625 9.2636,1.137 L10.53,0.96 " stroke-linecap="round" fill="none" stroke="#e599f7" stroke-width="3" stroke-dasharray="none" stroke-dashoffset="0"/></g></g><g transform="matrix(1, 0, 0, 1, 1402.0539, 8942.7274)" opacity="1"><g transform="scale(1)"><path d="M0,0 Q-1.7465,0.8755 -2.4404,1.3303 T-3.9473,2.2513 -5.6403,3.4089 -7.4345,4.9119 -9.5027,6.6028 -11.9388,8.6148 -14.3561,10.8014 -16.5444,12.4287 -18.8537,13.686 L-20.11,14.37 " stroke-linecap="round" fill="none" stroke="#e599f7" stroke-width="3" stroke-dasharray="none" stroke-dashoffset="0"/></g></g><g transform="matrix(1, 0, 0, 1, 1382.8998, 8942.7274)" opacity="1"><g transform="scale(1)"><path d="M0,0 Q1.7465,2.622 2.6593,3.7707 T4.0686,5.7631 5.0519,7.5013 6.2412,9.539 7.5448,11.5231 8.9083,13.2568 10.7422,14.8542 13.0918,16.3994 L14.37,17.24 " stroke-linecap="round" fill="none" stroke="#e599f7" stroke-width="3" stroke-dasharray="none" stroke-dashoffset="0"/></g></g><g transform="matrix(1, 0, 0, 1, 1417.3772, 8944.6428)" opacity="1"><g transform="scale(1)"><path d="M0,0 Q0,2.1842 0,3.4327 T0,5.7981 0.2189,8.177 0.5568,10.3444 0.7407,12.3967 1.0596,14.3863 1.6685,15.4687 2.4467,15.9942 L2.87,16.28 " stroke-linecap="round" fill="none" stroke="#e599f7" stroke-width="3" stroke-dasharray="none" stroke-dashoffset="0"/></g></g><g transform="matrix(1, 0, 0, 1, 1422.1657, 8953.2621)" opacity="1"><g transform="scale(1)"><path d="M-0.96,0 Q-3.1442,0 -3.955,0 T-6.0799,-0.2189 -8.9621,-0.6989 L-10.53,-0.96 " stroke-linecap="round" fill="none" stroke="#e599f7" stroke-width="3" stroke-dasharray="none" stroke-dashoffset="0"/></g></g><g transform="matrix(1, 0, 0, 1, 1439.4043, 8942.7274)" opacity="1"><g transform="scale(1)"><path d="M0,0 Q1.3087,1.3087 1.6647,1.8836 T2.2143,3.4255 2.5133,5.5753 2.4594,8.0558 2.2134,10.9328 2.0796,13.59 1.788,15.4733 1.2517,17.2393 L0.96,18.2 " stroke-linecap="round" fill="none" stroke="#e599f7" stroke-width="3" stroke-dasharray="none" stroke-dashoffset="0"/></g></g><g transform="matrix(1, 0, 0, 1, 1461.4315, 8936.9812)" opacity="1"><g transform="scale(1)"><path d="M0,0 Q0.4378,2.1842 0.5568,3.2138 T0.7407,5.6768 0.8407,8.3276 0.8951,10.6452 0.9247,12.7792 0.9476,15.0465 L0.96,16.28 " stroke-linecap="round" fill="none" stroke="#e599f7" stroke-width="3" stroke-dasharray="none" stroke-dashoffset="0"/></g></g><g transform="matrix(1, 0, 0, 1, 1469.0931, 8942.7274)" opacity="1"><g transform="scale(1)"><path d="M0,0 Q-2.622,0.8755 -3.9895,1.1137 T-6.7554,1.4814 -9.3521,1.6814 -11.9803,1.8359 L-13.41,1.92 " stroke-linecap="round" fill="none" stroke="#e599f7" stroke-width="3" stroke-dasharray="none" stroke-dashoffset="0"/></g></g><g transform="matrix(1, 0, 0, 1, 1497.8242, 8914.954)" opacity="1"><g transform="scale(1)"><path d="M0,0 Q1.7465,-1.7465 2.6593,-2.2215 T4.2852,-2.955 6.043,-3.354 7.8725,-3.3522 9.3032,-2.9157 10.3004,-2.2428 10.8428,-1.439 11.1379,-0.345 11.0796,0.9044 10.6124,2.0196 9.9227,3.2829 8.8909,4.6245 7.6753,5.7898 6.3596,6.8615 4.7706,7.8823 3.033,8.873 1.8688,9.8475 2.1088,10.5965 3.548,11.0039 5.4231,11.4445 7.3164,11.903 9.4384,12.1524 11.6849,12.2881 14.4346,12.3619 18.1104,12.419 L20.11,12.45 " stroke-linecap="round" fill="none" stroke="#e599f7" stroke-width="3" stroke-dasharray="none" stroke-dashoffset="0"/></g></g><g transform="matrix(1, 0, 0, 1, 1550.4979, 8936.0235)" opacity="1"><g transform="scale(1)"><path d="M0,0 Q-2.622,0.4378 -3.9895,0.5568 T-6.9743,0.9596 -10.5633,1.6141 -14.7,2.1868 -19.1346,2.7172 -23.9479,3.2246 -28.9671,3.5007 -33.8818,3.6509 -38.5208,3.7325 -42.7909,3.5581 -46.6414,3.2443 -50.0471,3.0736 -52.9919,2.9808 -55.686,2.9303 -58.0248,3.1217 -59.9515,3.4447 -61.6563,3.8393 -62.5836,4.4917 -62.9893,5.3067 L-63.21,5.75 " stroke-linecap="round" fill="none" stroke="#e599f7" stroke-width="3" stroke-dasharray="none" stroke-dashoffset="0"/></g></g><g transform="matrix(1, 0, 0, 1, 1500.6973, 8956.1352)" opacity="1"><g transform="scale(1)"><path d="M0,0 Q0.4378,0.8755 0.338,1.3303 T-0.2539,2.4701 -1.2302,3.7469 -2.4157,5.0958 -3.7173,6.7028 -5.0797,8.2314 -6.6941,9.7173 -8.2267,11.1823 -9.9336,12.1981 -11.7377,12.5319 -13.4426,12.4788 L-14.37,12.45 " stroke-linecap="round" fill="none" stroke="#e599f7" stroke-width="3" stroke-dasharray="none" stroke-dashoffset="0"/></g></g><g transform="matrix(1, 0, 0, 1, 1488.2472, 8956.1352)" opacity="1"><g transform="scale(1)"><path d="M0,0 Q1.7465,0.4378 2.4404,0.7757 T3.7307,1.5141 4.8681,2.3513 5.9223,3.6799 6.9336,5.276 8.1381,6.8008 9.4477,8.2847 10.5979,9.5275 11.6613,10.6413 12.8942,11.6849 14.2192,12.4716 15.3778,12.4617 16.5839,11.8324 L17.24,11.49 " stroke-linecap="round" fill="none" stroke="#e599f7" stroke-width="3" stroke-dasharray="none" stroke-dashoffset="0"/></g></g><g transform="matrix(1, 0, 0, 1, 1516.0206, 8958.0506)" opacity="1"><g transform="scale(1)"><path d="M0,0 Q2.1842,0.8755 3.2138,1.1137 T5.0224,1.4814 6.444,1.4625 7.8718,1.0145 9.5934,0.3574 L10.53,0 " stroke-linecap="round" fill="none" stroke="#e599f7" stroke-width="3" stroke-dasharray="none" stroke-dashoffset="0"/></g></g><g transform="matrix(1, 0, 0, 1, 1539.0054, 8949.4313)" opacity="1"><g transform="scale(1)"><path d="M0,0 Q0.8755,1.3087 1.1137,2.1025 T1.4814,3.7635 1.6814,5.5403 1.7902,7.3801 1.8494,9.2542 1.8816,11.1493 1.8991,13.0534 1.9126,15.1432 L1.92,16.28 " stroke-linecap="round" fill="none" stroke="#e599f7" stroke-width="3" stroke-dasharray="none" stroke-dashoffset="0"/></g></g><g transform="matrix(1, 0, 0, 1, 712.5077, 9256.854)" opacity="1"><g transform="scale(1)"><path d="M0,0 Q5.2394,1.3087 7.9756,1.6647 T13.0734,2.2143 17.3742,2.5133 21.2414,2.4594 25.0917,2.2134 29.1516,2.0796 33.5444,1.788 38.1184,1.4104 42.7908,1.205 47.7335,1.0933 53.042,1.0325 58.5519,0.9994 64.3878,0.9815 70.6178,0.9717 77.0643,0.9664 83.6288,0.9635 90.4739,0.743 97.474,0.4042 104.5584,0.001 111.9053,-0.6561 119.6138,-1.2324 127.5191,-1.7626 135.5314,-2.4864 143.8209,-3.0991 152.261,-3.6513 160.7832,-4.3894 169.35,-5.0098 178.1599,-5.564 187.3187,-6.082 196.4484,-6.5827 205.5646,-7.0739 214.8923,-7.3412 224.3327,-7.7054 234.0534,-8.1225 243.9288,-8.5682 253.6672,-9.0296 263.3311,-9.4972 272.9568,-10.187 282.5593,-11.0001 292.5871,-11.8801 302.8461,-12.7966 312.7933,-13.9496 323.0084,-15.2311 333.3695,-16.3661 343.591,-17.6378 354.1743,-18.984 364.7356,-20.1541 374.8471,-21.2261 385.1517,-22.2448 395.5614,-23.2367 405.8094,-24.214 416.6237,-25.1835 427.5295,-26.1463 438.2663,-27.1056 449.3488,-28.0652 460.4005,-28.8061 471.4332,-29.428 482.8933,-29.9853 494.5882,-30.2884 506.1919,-30.4533 518.1816,-30.543 530.3811,-30.5918 542.476,-30.6183 554.514,-30.4139 566.302,-30.0838 578.1731,-29.6853 590.3081,-29.2497 602.3702,-28.7938 614.3925,-28.327 627.0454,-27.8564 640.0412,-27.3838 652.7881,-26.9078 665.3997,-26.43 677.9375,-25.9512 690.6542,-25.253 703.6871,-24.6543 716.673,-24.1097 729.6334,-23.3779 742.7966,-22.5444 756.07,-21.6532 769.4057,-20.9495 782.7753,-20.3478 795.9445,-19.8016 808.5668,-19.2879 820.6728,-18.7918 832.2813,-18.3031 843.4002,-17.8183 853.8152,-17.5546 863.1927,-17.4111 871.7894,-17.3331 879.0879,-17.2906 885.9675,-17.2578 L889.71,-17.24 " stroke-linecap="round" fill="none" stroke="#f76707" stroke-width="3" stroke-dasharray="none" stroke-dashoffset="0"/></g></g><g transform="matrix(1, 0, 0, 1, 865.2613, 9341.1319)" opacity="1"><g transform="scale(1)"><path d="M0,0.96 Q-1.3087,2.7065 -2.1025,3.617 T-3.9823,5.4606 -6.3137,7.5557 -8.893,10.0064 -11.3882,12.4317 -13.6189,14.6243 -15.7056,16.4714 -17.9364,18.2062 L-19.15,19.15 " stroke-linecap="round" fill="none" stroke="#f76707" stroke-width="3" stroke-dasharray="none" stroke-dashoffset="0"/></g></g><g transform="matrix(1, 0, 0, 1, 849.9381, 9342.0896)" opacity="1"><g transform="scale(1)"><path d="M0,0 Q2.622,3.493 3.7707,5.0974 T5.982,8.0124 8.0581,10.4737 10.0608,12.6859 12.0235,14.5437 13.7456,15.9921 15.339,17.2155 16.8602,18.0976 18.1233,18.7964 19.41,19.6472 L20.11,20.11 " stroke-linecap="round" fill="none" stroke="#f76707" stroke-width="3" stroke-dasharray="none" stroke-dashoffset="0"/></g></g><g transform="matrix(1, 0, 0, 1, 863.3459, 9314.3162)" opacity="1"><g transform="scale(1)"><path d="M0,0 Q2.1842,-0.4378 3.2138,-0.7757 T5.4602,-1.2975 7.5554,-1.5814 9.1307,-1.7358 10.4254,-1.382 11.3486,-0.5329 11.8509,0.3667 11.9052,1.2916 11.497,2.0114 10.6206,2.6218 9.4894,3.3916 8.2197,4.2482 6.8747,4.933 5.7052,5.5221 4.8501,6.2781 4.1661,7.346 3.7939,8.3647 4.2481,9.1355 5.3685,9.7714 7.0678,10.1173 9.0843,10.3055 11.2734,10.4079 13.7753,10.4636 16.0096,10.2773 17.8794,9.9593 19.9458,9.7136 L21.07,9.58 " stroke-linecap="round" fill="none" stroke="#f76707" stroke-width="3" stroke-dasharray="none" stroke-dashoffset="0"/></g></g><g transform="matrix(1, 0, 0, 1, 882.5, 9342.0896)" opacity="1"><g transform="scale(1)"><path d="M0,0 Q1.7465,0.8755 2.8759,1.1137 T5.0574,1.4814 7.3363,1.6814 10.0265,1.8359 L11.49,1.92 " stroke-linecap="round" fill="none" stroke="#f76707" stroke-width="3" stroke-dasharray="none" stroke-dashoffset="0"/></g></g><g transform="matrix(1, 0, 0, 1, 916.9773, 9321.9778)" opacity="1"><g transform="scale(1)"><path d="M0,0 Q0.4378,-0.8755 0.338,-0.6759 T-0.035,0.0701 -0.6757,1.3491 -1.6786,2.9182 -2.8785,4.8638 -4.1856,7.231 -5.5511,9.8297 -6.7316,12.3356 -7.5927,14.7886 -8.0612,17.2152 -8.316,19.4084 -8.2357,21.256 -7.5377,22.6988 -6.2848,23.9214 -4.7299,24.8054 -3.0108,25.2863 -1.2001,25.5479 0.4392,25.4713 1.7666,24.9919 2.9264,24.2934 3.7762,23.4779 4.2385,22.5988 4.49,21.4639 4.4079,20.1922 3.9255,19.0649 3.0087,18.2327 1.6367,17.78 0.2337,17.5338 -1.1838,17.3998 -2.8283,17.3269 -4.3772,17.5062 -5.6553,18.0392 -6.9537,18.7586 L-7.66,19.15 " stroke-linecap="round" fill="none" stroke="#f76707" stroke-width="3" stroke-dasharray="none" stroke-dashoffset="0"/></g></g><g transform="matrix(1, 0, 0, 1, 948.5815, 9334.4279)" opacity="1"><g transform="scale(1)"><path d="M0,0 Q0,0.8755 -0.6544,1.5491 T-2.1025,3.2436 -3.9823,5.4763 -6.3137,8.002 -8.6741,10.468 -10.8337,12.4639 -13.1006,13.9852 -15.7816,15.4715 L-17.24,16.28 " stroke-linecap="round" fill="none" stroke="#f76707" stroke-width="3" stroke-dasharray="none" stroke-dashoffset="0"/></g></g><g transform="matrix(1, 0, 0, 1, 932.3006, 9339.2164)" opacity="1"><g transform="scale(1)"><path d="M0,0 Q1.3087,2.1842 1.6647,2.9972 T2.6521,4.688 3.8458,6.481 4.9307,8.3296 5.9564,9.9896 6.9521,11.5493 8.367,12.8355 10.3897,13.8294 L11.49,14.37 " stroke-linecap="round" fill="none" stroke="#f76707" stroke-width="3" stroke-dasharray="none" stroke-dashoffset="0"/></g></g><g transform="matrix(1, 0, 0, 1, 971.5664, 9336.3433)" opacity="1"><g transform="scale(1)"><path d="M0.96,0 Q0.5222,2.622 0.4032,3.9895 T0.2193,6.7554 0.1193,9.571 0.0649,12.1948 0.0353,14.4954 0.0124,16.8948 L0,18.2 " stroke-linecap="round" fill="none" stroke="#f76707" stroke-width="3" stroke-dasharray="none" stroke-dashoffset="0"/></g></g><g transform="matrix(1, 0, 0, 1, 976.3549, 9345.9204)" opacity="1"><g transform="scale(1)"><path d="M0,0 Q-2.1842,0 -3.2138,-0.2189 T-5.2413,-0.5568 -7.6552,-0.7407 -10.7606,-0.8827 L-12.45,-0.96 " stroke-linecap="round" fill="none" stroke="#f76707" stroke-width="3" stroke-dasharray="none" stroke-dashoffset="0"/></g></g><g transform="matrix(1, 0, 0, 1, 1001.2552, 9328.6817)" opacity="1"><g transform="scale(1)"><path d="M0,0 Q0.4378,-2.622 0.1191,-3.3352 T-0.5919,-4.2175 -1.633,-4.2597 -3.0726,-3.8449 -4.9478,-2.5271 -7.0578,-0.5015 -8.86,1.4737 -10.2782,3.4214 -11.2685,5.3542 -11.8073,7.2789 -11.8815,9.1992 -11.2675,10.9004 -10.0602,12.0448 -8.5302,12.6673 -6.8247,13.006 -4.8048,12.9713 -2.6138,12.2958 -0.5487,11.0551 1.2291,9.507 2.634,7.7915 3.6171,5.9851 3.9331,4.5646 3.6672,4.2296 3.0871,4.704 2.336,5.6165 1.4897,6.9861 0.8104,8.6044 0.222,10.358 -0.317,12.6229 -0.6102,15.3827 -0.7697,18.1927 -0.6376,21.2512 -0.128,24.2261 0.587,26.4987 1.4115,27.7351 2.3561,28.3795 L2.87,28.73 " stroke-linecap="round" fill="none" stroke="#f76707" stroke-width="3" stroke-dasharray="none" stroke-dashoffset="0"/></g></g><g transform="matrix(1, 0, 0, 1, 1038.6056, 9332.5125)" opacity="1"><g transform="scale(1)"><path d="M0.96,0 Q1.3978,0.8755 1.0791,1.1137 T0.587,1.4814 0.7571,1.6814 1.5103,1.8359 L1.92,1.92 " stroke-linecap="round" fill="none" stroke="#f76707" stroke-width="3" stroke-dasharray="none" stroke-dashoffset="0"/></g></g><g transform="matrix(1, 0, 0, 1, 1039.5633, 9353.582)" opacity="1"><g transform="scale(1)"><path d="M0,0 Q-1.3087,1.3087 -1.8836,1.2292 T-2.7711,0.8876 -3.0351,0.264 -2.5243,-0.2942 -1.5921,-0.5978 -0.4284,-0.763 0.6425,-0.6339 1.0062,-0.126 0.5473,0.3692 -0.4289,0.7519 L-0.96,0.96 " stroke-linecap="round" fill="none" stroke="#f76707" stroke-width="3" stroke-dasharray="none" stroke-dashoffset="0"/></g></g><g transform="matrix(1, 0, 0, 1, 1096.0678, 9334.4279)" opacity="1"><g transform="scale(1)"><path d="M0,0 Q-2.1842,0.8755 -3.2138,1.5491 T-5.6768,3.4625 -9.4197,6.9064 -13.4212,10.9642 -16.6902,14.2614 -19.3417,16.7095 -21.4386,18.2601 -23.6804,19.4582 L-24.9,20.11 " stroke-linecap="round" fill="none" stroke="#f76707" stroke-width="3" stroke-dasharray="none" stroke-dashoffset="0"/></g></g><g transform="matrix(1, 0, 0, 1, 1074.0406, 9338.2587)" opacity="1"><g transform="scale(1)"><path d="M0,0 Q1.3087,1.7465 1.8836,2.4404 T2.99,3.9473 4.2463,5.6403 5.5841,7.4345 6.7496,9.2838 8.038,11.1654 9.3932,12.8433 10.5682,13.9727 11.8641,14.8059 13.88,15.4781 16.6779,15.9975 L18.2,16.28 " stroke-linecap="round" fill="none" stroke="#f76707" stroke-width="3" stroke-dasharray="none" stroke-dashoffset="0"/></g></g><g transform="matrix(1, 0, 0, 1, 1104.6871, 9344.005)" opacity="1"><g transform="scale(1)"><path d="M0,0 Q1.7465,0.8755 2.4404,1.1137 T3.9473,1.4814 5.6403,1.6814 7.6534,1.7902 9.8406,1.8494 12.1226,1.8816 14.8152,1.9065 L16.28,1.92 " stroke-linecap="round" fill="none" stroke="#f76707" stroke-width="3" stroke-dasharray="none" stroke-dashoffset="0"/></g></g><g transform="matrix(1, 0, 0, 1, 1125.7566, 9327.724)" opacity="1"><g transform="scale(1)"><path d="M0.96,0 Q4.8907,0 6.3954,0 T9.1563,0.2189 11.3149,0.7757 12.9246,1.5141 14.0169,2.3513 14.83,3.4633 15.4912,4.7227 15.632,5.8432 15.2731,6.8905 14.6424,7.8981 13.6427,8.8816 12.2256,9.6333 10.8003,10.2611 9.1517,10.8215 7.6005,11.3452 7.6299,12.0679 8.9546,12.8988 10.5485,13.7862 12.0722,14.7045 13.5555,15.6418 15.0168,16.5895 16.2494,17.5405 17.1389,18.4933 17.4039,19.4494 17.1103,20.4073 16.5128,21.3638 15.5334,22.3197 14.1274,23.2774 12.4892,24.2362 10.7249,24.9767 8.8918,25.3795 7.0214,25.5986 5.1306,25.7178 3.2288,25.7826 1.1376,25.8327 L0,25.86 " stroke-linecap="round" fill="none" stroke="#f76707" stroke-width="3" stroke-dasharray="none" stroke-dashoffset="0"/></g></g><g transform="matrix(1, 0, 0, 1, 1162.1493, 9330.5971)" opacity="1"><g transform="scale(1)"><path d="M0,0 Q2.1842,-0.4378 3.4327,-0.5568 T6.1706,-0.818 L7.66,-0.96 " stroke-linecap="round" fill="none" stroke="#f76707" stroke-width="3" stroke-dasharray="none" stroke-dashoffset="0"/></g></g><g transform="matrix(1, 0, 0, 1, 1160.2339, 9340.1742)" opacity="1"><g transform="scale(1)"><path d="M0,0 Q2.1842,0.4378 3.2138,0.5568 T5.2413,0.7407 7.0009,0.8407 8.3935,0.6762 9.7773,0.2383 L10.53,0 " stroke-linecap="round" fill="none" stroke="#f76707" stroke-width="3" stroke-dasharray="none" stroke-dashoffset="0"/></g></g><g transform="matrix(1, 0, 0, 1, 1210.0344, 9327.724)" opacity="1"><g transform="scale(1)"><path d="M0.96,0 Q-1.2242,2.1842 -2.0372,2.9972 T-3.9469,5.1257 -5.8589,7.3735 -7.7723,9.6884 -9.9054,12.2587 -12.1578,14.5302 -14.4753,16.4202 -16.6092,17.8839 -18.8766,19.3257 L-20.11,20.11 " stroke-linecap="round" fill="none" stroke="#f76707" stroke-width="3" stroke-dasharray="none" stroke-dashoffset="0"/></g></g><g transform="matrix(1, 0, 0, 1, 1189.9227, 9328.6817)" opacity="1"><g transform="scale(1)"><path d="M0,0 Q3.9307,2.622 5.4354,3.7707 T8.1963,5.982 10.5737,8.0581 12.7403,10.0608 14.5733,12.0235 16.0082,13.7456 17.4431,15.1202 19.097,16.3057 20.9966,17.5326 L22.03,18.2 " stroke-linecap="round" fill="none" stroke="#f76707" stroke-width="3" stroke-dasharray="none" stroke-dashoffset="0"/></g></g><g transform="matrix(1, 0, 0, 1, 863.3459, 9391.8901)" opacity="1"><g transform="scale(1)"><path d="M0,0 Q-1.3087,1.7465 -2.1025,2.6593 T-3.7635,4.5041 -5.5403,6.5976 -7.1635,8.8285 -8.7009,10.9177 -9.9727,12.7085 -10.8835,14.3371 -11.8981,16.2172 L-12.45,17.24 " stroke-linecap="round" fill="none" stroke="#f76707" stroke-width="3" stroke-dasharray="none" stroke-dashoffset="0"/></g></g><g transform="matrix(1, 0, 0, 1, 851.8535, 9389.9747)" opacity="1"><g transform="scale(1)"><path d="M0,0 Q0.8755,2.1842 1.3303,2.9972 T2.2513,4.688 3.19,6.2621 4.1385,7.7728 5.3088,9.249 6.5998,10.7086 7.9565,12.1593 9.5678,13.384 11.101,14.4857 12.1539,15.5228 12.9456,16.5247 13.8681,17.6097 L14.37,18.2 " stroke-linecap="round" fill="none" stroke="#f76707" stroke-width="3" stroke-dasharray="none" stroke-dashoffset="0"/></g></g><g transform="matrix(1, 0, 0, 1, 863.3459, 9367.9475)" opacity="1"><g transform="scale(1)"><path d="M0.96,0 Q3.1442,-0.4378 4.1738,-0.5568 T5.9824,-0.7407 7.6206,-0.8407 9.1662,-0.4573 10.2258,0.4079 10.5834,1.314 10.3425,2.2424 9.7759,3.1852 9.0299,4.1359 8.1864,4.8719 7.292,5.4889 6.37,6.2601 6.085,7.1173 6.5843,8.0214 7.5126,8.7321 8.8908,9.1188 10.5138,9.3291 12.2699,9.6601 14.2454,10.2235 L15.32,10.53 " stroke-linecap="round" fill="none" stroke="#f76707" stroke-width="3" stroke-dasharray="none" stroke-dashoffset="0"/></g></g><g transform="matrix(1, 0, 0, 1, 882.5, 9392.8478)" opacity="1"><g transform="scale(1)"><path d="M0,0 Q1.3087,0.8755 2.1025,1.1137 T3.7635,1.4814 5.3214,1.898 6.8256,2.3412 8.6095,2.6837 L9.58,2.87 " stroke-linecap="round" fill="none" stroke="#f76707" stroke-width="3" stroke-dasharray="none" stroke-dashoffset="0"/></g></g><g transform="matrix(1, 0, 0, 1, 903.5695, 9382.3131)" opacity="1"><g transform="scale(1)"><path d="M0,0 Q1.7465,0 2.6593,0 T4.5041,0 6.381,0 8.713,0 11.2903,0.2189 13.3467,0.7757 14.6843,1.733 15.1931,2.9081 15.0343,3.9851 14.2936,5.0065 13.0152,5.9976 11.6653,6.9745 10.4955,7.7249 9.4214,8.3519 9.2726,9.1285 10.2837,9.9865 11.7093,10.891 13.5769,11.6019 15.4662,12.2075 16.9294,12.9747 18.1609,13.8276 19.0497,14.727 19.5332,15.654 19.5773,16.5961 18.947,17.5441 17.7308,18.4953 16.196,19.4505 14.4878,20.4079 12.6853,21.3642 10.8315,22.101 8.9498,22.5018 7.053,22.7199 5.3644,22.8385 4.0104,22.903 3.2738,22.7215 3.0123,22.2736 L2.87,22.03 " stroke-linecap="round" fill="none" stroke="#f76707" stroke-width="3" stroke-dasharray="none" stroke-dashoffset="0"/></g></g><g transform="matrix(1, 0, 0, 1, 947.6238, 9386.1439)" opacity="1"><g transform="scale(1)"><path d="M0,0 Q-0.8755,2.1842 -1.5491,3.2138 T-3.027,5.6768 -5.3585,9.2008 -7.9356,12.8667 -9.9942,15.5153 -12.2065,17.8694 L-13.41,19.15 " stroke-linecap="round" fill="none" stroke="#f76707" stroke-width="3" stroke-dasharray="none" stroke-dashoffset="0"/></g></g><g transform="matrix(1, 0, 0, 1, 938.0468, 9391.8901)" opacity="1"><g transform="scale(1)"><path d="M0,0 Q1.3087,2.622 1.8836,3.7707 T3.2089,6.1986 4.5842,8.6115 5.7679,10.5807 6.8496,12.3063 7.8758,14.1183 8.9795,16.1401 L9.58,17.24 " stroke-linecap="round" fill="none" stroke="#f76707" stroke-width="3" stroke-dasharray="none" stroke-dashoffset="0"/></g></g><g transform="matrix(1, 0, 0, 1, 845.1496, 9377.5246)" opacity="1"><g transform="scale(1)"><path d="M0,0 Q-1.7465,3.0552 -2.4404,4.324 T-3.7307,6.7184 -5.087,9.1132 -6.4792,11.7269 -7.6743,14.4575 -8.7599,17.035 -9.7859,19.5293 -10.563,22.1972 -10.9857,24.7407 -10.9968,27.2142 -10.3485,29.6519 -9.1225,32.0701 -7.1446,34.4777 -4.7599,36.4441 -2.2988,38.2744 L-0.96,39.27 " stroke-linecap="round" fill="none" stroke="#f76707" stroke-width="3" stroke-dasharray="none" stroke-dashoffset="0"/></g></g><g transform="matrix(1, 0, 0, 1, 959.1162, 9370.8207)" opacity="1"><g transform="scale(1)"><path d="M0,0 Q0.8755,0.4378 1.3303,0.7757 T2.2513,1.733 3.19,3.3436 4.1385,5.5308 5.0899,8.0316 6.043,10.9196 6.7804,14.4561 7.4004,18.3453 7.9565,22.2075 8.0402,26.055 7.8668,29.6779 7.5536,32.9598 6.9478,35.835 6.1827,38.2723 5.3288,40.2549 3.991,41.9877 2.0279,43.9452 L0.96,45.01 " stroke-linecap="round" fill="none" stroke="#f76707" stroke-width="3" stroke-dasharray="none" stroke-dashoffset="0"/></g></g><g transform="matrix(1, 0, 0, 1, 807.7992, 9399.5517)" opacity="1"><g transform="scale(1)"><path d="M0,0 Q1.3087,1.3087 2.1025,1.8836 T3.7635,2.7711 5.5403,3.254 7.3801,3.7355 9.4202,4.4185 L10.53,4.79 " stroke-linecap="round" fill="none" stroke="#f76707" stroke-width="3" stroke-dasharray="none" stroke-dashoffset="0"/></g></g><g transform="matrix(1, 0, 0, 1, 853.7689, 9456.0562)" opacity="1"><g transform="scale(1)"><path d="M0,0 Q-1.7465,0 -2.6593,0 T-4.2852,0.2189 -5.6053,0.9923 -6.7611,2.0674 -7.6088,3.3089 -8.2888,4.6386 -8.8776,6.0164 -8.979,7.6391 -8.5964,9.3951 -7.9505,11.007 -6.9448,12.5383 -5.5245,14.0256 -3.6597,15.2725 -1.3365,16.1697 1.2383,16.6577 3.95,16.7044 6.7339,16.292 9.3404,15.6322 11.415,14.6189 12.7625,13.411 13.4955,11.8807 13.8943,9.956 13.6734,8.0358 12.8967,6.118 11.8198,4.4203 10.3607,3.0613 8.6937,1.8842 7.1325,0.8061 5.8454,-0.2181 4.5401,-1.3204 L3.83,-1.92 " stroke-linecap="round" fill="none" stroke="#f76707" stroke-width="3" stroke-dasharray="none" stroke-dashoffset="0"/></g></g><g transform="matrix(1, 0, 0, 1, 886.3308, 9460.8447)" opacity="1"><g transform="scale(1)"><path d="M0,0 Q1.3087,0.8755 1.8836,1.1137 T3.2089,1.4814 4.8031,1.6814 6.7602,1.7902 8.917,2.066 11.2052,2.5867 L12.45,2.87 " stroke-linecap="round" fill="none" stroke="#f76707" stroke-width="3" stroke-dasharray="none" stroke-dashoffset="0"/></g></g><g transform="matrix(1, 0, 0, 1, 950.4969, 9456.0562)" opacity="1"><g transform="scale(1)"><path d="M0,0 Q-0.8755,2.1842 -1.5491,3.2138 T-3.2436,5.4602 -5.2575,7.9932 -7.664,10.8987 -10.2842,13.7903 -12.3639,15.5823 -14.2785,16.6559 L-15.32,17.24 " stroke-linecap="round" fill="none" stroke="#f76707" stroke-width="3" stroke-dasharray="none" stroke-dashoffset="0"/></g></g><g transform="matrix(1, 0, 0, 1, 936.1314, 9461.8024)" opacity="1"><g transform="scale(1)"><path d="M0,0 Q0.8755,1.7465 1.3303,2.4404 T2.2513,3.7307 3.4089,4.8681 4.6931,5.9223 6.046,6.9336 7.6552,8.1381 9.4039,9.4477 11.0118,10.5979 12.565,11.7974 L13.41,12.45 " stroke-linecap="round" fill="none" stroke="#f76707" stroke-width="3" stroke-dasharray="none" stroke-dashoffset="0"/></g></g><g transform="matrix(1, 0, 0, 1, 973.4818, 9452.2254)" opacity="1"><g transform="scale(1)"><path d="M0,0 Q0.4378,2.1842 0.5568,3.2138 T0.7407,5.2413 0.6218,7.2175 0.3383,9.3846 0.184,11.6557 0.0648,14.0289 L0,15.32 " stroke-linecap="round" fill="none" stroke="#f76707" stroke-width="3" stroke-dasharray="none" stroke-dashoffset="0"/></g></g><g transform="matrix(1, 0, 0, 1, 979.228, 9460.8447)" opacity="1"><g transform="scale(1)"><path d="M0,0 Q-1.7465,0 -2.6593,-0.2189 T-4.2852,-0.5568 -5.8241,-0.9596 -7.5345,-1.6141 -9.4746,-2.4275 L-10.53,-2.87 " stroke-linecap="round" fill="none" stroke="#f76707" stroke-width="3" stroke-dasharray="none" stroke-dashoffset="0"/></g></g><g transform="matrix(1, 0, 0, 1, 1006.0437, 9443.6061)" opacity="1"><g transform="scale(1)"><path d="M0,0 Q-1.7465,0 -2.6593,0.4378 T-4.5041,1.5491 -6.5976,3.4625 -8.8285,6.0309 -10.4799,8.5202 -11.3783,10.75 -11.867,12.8362 -11.6951,14.8443 -10.9472,16.5911 -9.886,17.9768 -8.4355,18.9496 -6.5543,19.4787 -4.4388,19.3311 -2.6336,18.3776 -0.9949,16.9856 0.3343,15.1362 1.274,13.0381 2.0018,11.2423 2.1811,10.0465 2.062,9.8315 1.7784,10.3689 1.4052,11.3179 0.9833,12.7074 0.5349,14.5554 0.291,16.6528 0.1583,18.8836 0.0861,21.4082 0.0468,23.8737 0.0255,26.0882 0.2327,28.1661 0.9999,29.732 2.2111,30.9418 L2.87,31.6 " stroke-linecap="round" fill="none" stroke="#f76707" stroke-width="3" stroke-dasharray="none" stroke-dashoffset="0"/></g></g><g transform="matrix(1, 0, 0, 1, 780.9835, 9423.4943)" opacity="1"><g transform="scale(1)"><path d="M0,0 Q3.0552,0.4378 4.324,0.5568 T6.5018,0.9596 8.341,1.3975 10.2147,1.6358 12.1072,1.7654 14.01,2.0525 16.1372,2.4253 18.6032,2.6281 21.2557,2.7384 24.0096,2.7984 26.8165,3.0499 29.8733,3.4056 33.0661,3.5991 36.1117,3.7044 39.0772,3.9806 42.0014,4.3497 45.1221,4.5505 48.3473,4.8786 51.6295,5.2759 55.3803,5.4921 59.605,5.6097 64.0875,5.6737 68.7102,5.7085 73.4069,5.7274 77.7084,5.5188 81.3594,5.1865 84.6543,5.0057 87.5388,4.9073 90.2001,4.8538 92.9589,4.8247 95.7706,4.8089 98.8278,4.8003 102.2374,4.7956 106.0576,4.793 110.32,4.5728 114.6041,4.2341 118.6812,3.8309 122.4267,3.3927 125.5564,3.1544 128.351,3.0247 131.18,2.9542 133.8111,2.9158 136.5535,2.8949 139.7918,2.8835 143.5188,2.8774 147.7305,2.874 152.4225,2.8722 157.5947,2.6546 163.0303,2.3196 168.1716,2.1374 172.2771,2.0383 175.6027,1.9843 178.5039,1.955 181.172,1.939 183.9344,1.9304 186.9671,1.9256 190.1445,1.9231 193.1817,1.7028 196.3638,1.3641 199.8436,1.1798 203.4831,0.8607 207.2095,0.4682 210.9831,0.2547 214.5636,-0.0803 217.6035,-0.4815 220.1304,-0.6997 222.5972,-0.8184 225.2501,-0.883 227.7831,-0.9181 230.2532,-0.9372 232.908,-0.9476 235.6608,-0.9533 238.2505,-0.9563 240.7515,-0.958 243.2041,-1.1778 245.4115,-1.5162 247.4856,-1.917 249.71,-2.5342 L250.92,-2.87 " stroke-linecap="round" fill="none" stroke="#f76707" stroke-width="3" stroke-dasharray="none" stroke-dashoffset="0"/></g></g><g transform="matrix(1, 0, 0, 1, 909.3157, 9452.2254)" opacity="1"><g transform="scale(1)"><path d="M0,0 Q0.8755,-0.8755 1.5491,-1.1137 T3.027,-1.4814 4.7042,-1.6814 6.4898,-1.5713 8.3344,-1.0737 9.9922,-0.3652 11.113,0.458 11.7227,1.3413 12.0543,2.4761 12.2348,3.7501 12.114,4.8787 11.394,5.9281 10.3479,6.9367 9.3411,7.9232 8.3556,8.8953 7.8196,9.8596 7.9657,10.6031 8.4829,11.2264 9.1998,12.0032 10.2441,12.6447 11.4689,13.2126 12.5729,13.957 13.609,14.7974 14.6081,15.9112 15.3705,17.1715 15.5663,18.5115 15.2374,19.897 14.4041,21.0863 13.0753,21.9498 11.4792,22.4196 9.7376,22.6751 7.6981,22.8142 5.4988,22.8898 3.4291,22.7143 1.4277,22.4023 -0.3155,22.0136 -1.97,21.4025 L-2.87,21.07 " stroke-linecap="round" fill="none" stroke="#f76707" stroke-width="3" stroke-dasharray="none" stroke-dashoffset="0"/></g></g><g transform="matrix(1, 0, 0, 1, 1227.2731, 9339.2164)" opacity="1"><g transform="scale(1)"><path d="M0,0 Q3.0552,1.3087 4.1051,1.8836 T6.1639,2.7711 8.5949,3.254 11.7135,3.6271 L13.41,3.83 " stroke-linecap="round" fill="none" stroke="#f76707" stroke-width="3" stroke-dasharray="none" stroke-dashoffset="0"/></g></g><g transform="matrix(1, 0, 0, 1, 1256.9619, 9326.7663)" opacity="1"><g transform="scale(1)"><path d="M0,0.96 Q2.1842,0.96 2.9972,0.96 T4.688,0.96 6.481,1.1789 7.8941,1.7334 8.6629,2.4706 9.0811,3.3094 9.3086,4.42 9.2135,5.6786 8.2885,6.801 6.6932,7.8493 5.6064,8.8551 5.6696,9.8377 6.3584,10.8101 7.3897,11.7767 8.6051,12.7404 9.7017,13.7001 10.7361,14.8765 11.5176,16.1732 11.9428,17.314 11.9552,18.3701 11.0887,19.3824 9.7441,20.1519 8.3583,20.7894 6.7311,21.3551 5.1893,21.6629 3.4774,21.6114 1.2252,21.2608 L0,21.07 " stroke-linecap="round" fill="none" stroke="#f76707" stroke-width="3" stroke-dasharray="none" stroke-dashoffset="0"/></g></g><g transform="matrix(1, 0, 0, 1, 881.5423, 9509.6876)" opacity="1"><g transform="scale(1)"><path d="M0,0 Q2.1842,0.4378 2.9972,0.5568 T4.688,0.7407 6.2621,0.8407 7.7728,0.8951 9.249,0.9247 10.7086,0.9408 12.3759,0.9496 14.1562,0.9543 16.1535,0.958 L17.24,0.96 " stroke-linecap="round" fill="none" stroke="#f76707" stroke-width="3" stroke-dasharray="none" stroke-dashoffset="0"/></g></g><g transform="matrix(1, 0, 0, 1, 915.0619, 9502.9837)" opacity="1"><g transform="scale(1)"><path d="M0,0 Q2.1842,0.4378 2.9972,0.5568 T4.688,0.9596 6.481,1.3975 8.3296,1.8524 9.9896,2.5353 11.3304,3.3446 12.4976,4.0037 13.3514,4.5811 13.8159,5.3307 13.8497,6.174 13.2114,7.0705 12.2076,7.9959 11.0071,8.7183 9.4808,9.3278 7.9962,9.876 6.753,10.1742 6.0768,10.3365 6.1444,10.4247 6.6166,10.6916 7.5302,11.0557 8.6815,11.4726 9.9622,12.1372 11.3155,12.9365 12.7061,13.5902 13.898,14.1624 14.7653,14.9091 15.456,15.972 15.6129,16.988 15.0438,17.7573 14.0799,18.6112 12.8989,19.5135 11.3832,20.2233 9.6854,20.8283 7.8886,21.3763 6.0379,21.6744 4.3767,21.6177 3.0376,21.149 2.0902,20.4564 1.5748,19.6441 1.7299,18.7667 2.4683,17.7779 L2.87,17.24 " stroke-linecap="round" fill="none" stroke="#f76707" stroke-width="3" stroke-dasharray="none" stroke-dashoffset="0"/></g></g><g transform="matrix(1, 0, 0, 1, 953.37, 9511.603)" opacity="1"><g transform="scale(1)"><path d="M0,0 Q1.3087,0.4378 1.4481,0.5568 T1.2255,0.9596 0.2289,1.833 -1.1865,2.9625 -3.0463,4.2313 -5.1501,5.7948 -7.1679,7.5186 -9.1388,9.1107 -11.0864,10.1956 -13.2131,11.034 L-14.37,11.49 " stroke-linecap="round" fill="none" stroke="#f76707" stroke-width="3" stroke-dasharray="none" stroke-dashoffset="0"/></g></g><g transform="matrix(1, 0, 0, 1, 940.9199, 9513.5184)" opacity="1"><g transform="scale(1)"><path d="M0,0 Q1.7465,1.3087 2.4404,1.8836 T3.9473,2.99 5.4214,4.0297 6.88,5.0308 8.3278,6.0108 9.9886,6.9817 12.2031,7.7288 14.2811,8.1352 16.0658,8.1374 18.0633,7.8282 L19.15,7.66 " stroke-linecap="round" fill="none" stroke="#f76707" stroke-width="3" stroke-dasharray="none" stroke-dashoffset="0"/></g></g><g transform="matrix(1, 0, 0, 1, 966.7779, 9513.5184)" opacity="1"><g transform="scale(1)"><path d="M0,0 Q2.1842,0 2.9972,0 T4.9069,0 7.0355,0 9.0668,0 10.8284,0 12.66,0 15.0045,0 L16.28,0 " stroke-linecap="round" fill="none" stroke="#f76707" stroke-width="3" stroke-dasharray="none" stroke-dashoffset="0"/></g></g><g transform="matrix(1, 0, 0, 1, 1005.086, 9506.8145)" opacity="1"><g transform="scale(1)"><path d="M0,0 Q1.7465,-0.8755 2.2215,-1.3303 T3.1739,-2.2513 3.9108,-3.19 4.0928,-4.1385 3.7541,-4.8733 3.1344,-5.2731 2.1428,-5.2717 0.5114,-4.8332 -1.4683,-4.1568 -3.4185,-3.3534 -5.1337,-2.262 -6.7235,-1.0117 -8.2426,0.3229 -9.2857,1.9221 -9.8531,3.6654 -10.1618,5.268 -9.8942,6.5777 -9.0943,7.7278 -7.7859,8.5724 -5.982,9.0319 -4.1275,9.2818 -2.0265,9.1989 0.2086,8.716 2.0788,8.0156 3.534,7.1991 4.7611,6.1005 5.6452,4.8463 6.1262,4.164 6.1713,4.2306 5.9792,4.9211 5.8747,6.1701 5.5989,7.7227 5.2301,9.6595 5.0294,12.0241 5.1391,14.4025 5.4177,16.5697 6.2236,18.4029 7.7757,20.1303 L8.62,21.07 " stroke-linecap="round" fill="none" stroke="#f76707" stroke-width="3" stroke-dasharray="none" stroke-dashoffset="0"/></g></g><g transform="matrix(1, 0, 0, 1, 973.4818, 9504.8991)" opacity="1"><g transform="scale(1)"><path d="M0,0 Q0.4378,1.7465 0.5568,2.4404 T0.7407,3.7307 0.8407,5.087 0.8951,6.698 0.9247,8.4477 1.1597,10.4916 1.5064,12.6956 1.695,14.549 2.0142,15.995 2.6233,17.2171 3.4048,18.469 L3.83,19.15 " stroke-linecap="round" fill="none" stroke="#f76707" stroke-width="3" stroke-dasharray="none" stroke-dashoffset="0"/></g></g><g transform="matrix(1, 0, 0, 1, 874.8384, 9492.4489)" opacity="1"><g transform="scale(1)"><path d="M0,0 Q-2.1842,1.7465 -2.9972,2.6593 T-4.688,4.723 -6.2621,7.3733 -7.5562,10.5615 -8.6956,14.0424 -9.5321,17.9013 -9.7705,21.7471 -9.4648,25.3668 -8.6418,28.8658 -7.102,31.8613 -4.9556,34.3642 -2.477,36.3823 0.3708,38.2526 L1.92,39.27 " stroke-linecap="round" fill="none" stroke="#f76707" stroke-width="3" stroke-dasharray="none" stroke-dashoffset="0"/></g></g><g transform="matrix(1, 0, 0, 1, 1023.2824, 9482.8719)" opacity="1"><g transform="scale(1)"><path d="M0,0 Q0.8755,2.622 1.3303,3.9895 T2.2513,7.1932 3.19,11.3368 4.1385,16.2106 4.8733,21.2651 5.2731,26.4178 5.4906,31.4052 5.6089,35.6459 5.6732,39.0427 5.4894,41.5449 4.9516,43.125 4.0047,43.9846 2.3974,44.4522 0.2229,44.8135 L-0.96,45.01 " stroke-linecap="round" fill="none" stroke="#f76707" stroke-width="3" stroke-dasharray="none" stroke-dashoffset="0"/></g></g><g transform="matrix(1, 0, 0, 1, 830.784, 9506.8145)" opacity="1"><g transform="scale(1)"><path d="M0,0 Q2.1842,0.8755 3.8705,1.1137 T7.5661,1.4814 11.9774,1.6814 16.778,1.7902 20.9194,1.8494 24.741,1.8951 L26.82,1.92 " stroke-linecap="round" fill="none" stroke="#f76707" stroke-width="3" stroke-dasharray="none" stroke-dashoffset="0"/></g></g><g transform="matrix(1, 0, 0, 1, 1069.2521, 9532.6725)" opacity="1"><g transform="scale(1)"><path d="M0,0 Q-3.9307,0.4378 -6.5275,0.7757 T-12.5022,1.5141 -19.9021,2.3513 -28.7316,3.2445 -39.212,4.1681 -51.0283,4.8894 -63.788,5.4985 -77.2797,6.2652 -90.7341,7.1201 -103.9494,8.023 -117.2512,8.9496 -130.3812,9.8891 -143.2011,10.838 -155.6357,11.792 -166.9875,12.5298 -176.8747,12.9312 -185.7463,13.1495 -193.63,13.2683 -200.5384,13.3329 -206.9163,13.3681 -212.789,13.3872 -217.9491,13.3976 -222.5027,13.4032 -226.2885,13.6252 -229.2213,13.9648 -230.8167,14.1496 -230.5925,14.2501 -228.9429,14.0859 -226.7345,13.7777 -224.4065,13.5395 L-223.14,13.41 " stroke-linecap="round" fill="none" stroke="#f76707" stroke-width="3" stroke-dasharray="none" stroke-dashoffset="0"/></g></g><g transform="matrix(1, 0, 0, 1, 1006.0437, 9562.3613)" opacity="1"><g transform="scale(1)"><path d="M-1.311,-0.2189 Q-2.622,-0.4378 -3.9895,-0.338 T-6.7554,0.035 -9.571,0.6757 -12.1948,1.6786 -14.4954,3.0974 -16.1847,4.9613 -17.1037,7.0652 -17.3847,9.0829 -16.881,11.2727 -15.5148,13.556 -13.4629,15.4548 -10.8191,16.9232 -7.6343,17.9386 -4.372,18.2744 -1.2862,18.0216 1.4845,17.4463 3.6462,16.479 5.2576,15.2984 6.572,13.9995 7.5059,12.4197 7.795,10.687 7.5146,9.0878 6.4888,7.5635 4.622,6.0799 2.2955,4.8351 -0.4347,3.5624 -0.96,1.435 -1.311,-0.2189 Z" stroke-linecap="round" fill="none" stroke="#f76707" stroke-width="3" stroke-dasharray="none" stroke-dashoffset="0"/></g></g><g transform="matrix(1, 0, 0, 1, 1299.1008, 9321.9778)" opacity="1"><g transform="scale(1)"><path d="M0,0 Q0,3.9307 0,5.8731 T0,9.5265 0.2189,12.3872 0.6989,14.9085 L0.96,16.28 " stroke-linecap="round" fill="none" stroke="#f76707" stroke-width="3" stroke-dasharray="none" stroke-dashoffset="0"/></g></g><g transform="matrix(1, 0, 0, 1, 1301.9739, 9328.6817)" opacity="1"><g transform="scale(1)"><path d="M0,0 Q-1.7465,0.8755 -2.6593,1.3303 T-4.5041,2.0324 -6.381,2.4143 -8.4529,2.7095 L-9.58,2.87 " stroke-linecap="round" fill="none" stroke="#f76707" stroke-width="3" stroke-dasharray="none" stroke-dashoffset="0"/></g></g><g transform="matrix(1, 0, 0, 1, 1355.6053, 9295.1621)" opacity="1"><g transform="scale(1)"><path d="M-1.5276,0 Q-3.0552,0 -4.5429,0.6544 T-7.0564,1.8836 -9.0781,3.6444 -10.6157,5.9133 -11.4521,8.0208 -11.4694,10.0405 -10.8244,11.7959 -9.1649,13.4052 -6.5156,14.7161 -3.7633,15.4292 -0.9551,15.3817 1.6646,14.4826 3.963,13.118 5.6489,11.5024 6.5659,9.5337 6.846,7.3705 6.125,5.3206 4.643,3.551 2.9636,2.3695 0.9578,1.7268 -1.5213,1.2302 -1.435,0.48 -1.5276,0 Z" stroke-linecap="round" fill="none" stroke="#f76707" stroke-width="3" stroke-dasharray="none" stroke-dashoffset="0"/></g></g><g transform="matrix(1, 0, 0, 1, 1378.5902, 9321.9778)" opacity="1"><g transform="scale(1)"><path d="M0,0 Q-3.493,-0.8755 -5.5352,-1.1137 T-9.7804,-1.4814 -14.7096,-1.6814 -19.3564,-1.7902 -24.2874,-1.8494 -30.0274,-1.8816 -35.3318,-1.8991 -40.1828,-1.9086 -44.3517,-2.1304 -47.9282,-2.4677 -50.966,-2.87 -53.9349,-3.4918 L-55.55,-3.83 " stroke-linecap="round" fill="none" stroke="#f76707" stroke-width="3" stroke-dasharray="none" stroke-dashoffset="0"/></g></g><g transform="matrix(1, 0, 0, 1, 1349.8591, 9343.0473)" opacity="1"><g transform="scale(1)"><path d="M0,0 Q-1.3087,3.0552 -2.1025,4.324 T-3.7635,6.5018 -5.5403,8.341 -7.3801,9.9958 -9.4731,11.3338 -11.7038,12.2805 -14.0094,12.5767 -16.7235,12.4946 L-18.2,12.45 " stroke-linecap="round" fill="none" stroke="#f76707" stroke-width="3" stroke-dasharray="none" stroke-dashoffset="0"/></g></g><g transform="matrix(1, 0, 0, 1, 1330.705, 9345.9204)" opacity="1"><g transform="scale(1)"><path d="M0,0 Q1.7465,-0.4378 2.4404,-0.338 T3.7307,-0.1838 4.8681,0.1189 5.9223,0.7213 7.1525,1.4845 8.476,2.5541 9.8504,3.7925 11.2547,4.9017 12.4564,6.1595 13.5456,7.5004 14.7925,8.6653 16.3777,9.873 L17.24,10.53 " stroke-linecap="round" fill="none" stroke="#f76707" stroke-width="3" stroke-dasharray="none" stroke-dashoffset="0"/></g></g><g transform="matrix(1, 0, 0, 1, 1355.6053, 9346.8781)" opacity="1"><g transform="scale(1)"><path d="M0,0 Q3.493,0.4378 4.6619,0.5568 T6.9023,0.7407 9.2518,0.8827 L10.53,0.96 " stroke-linecap="round" fill="none" stroke="#f76707" stroke-width="3" stroke-dasharray="none" stroke-dashoffset="0"/></g></g><g transform="matrix(1, 0, 0, 1, 1367.0977, 9342.0896)" opacity="1"><g transform="scale(1)"><path d="M0,0 Q3.0552,0 4.5429,-0.2189 T7.2753,-0.338 9.1972,0.035 10.2427,0.6757 10.8115,1.6786 10.902,2.8785 10.5158,3.969 9.6513,4.9978 8.5244,6.2117 7.257,7.3099 6.3509,8.1262 6.5124,8.7891 7.2546,9.3664 8.3127,10.1159 9.7615,11.1802 11.4252,12.4159 12.9847,13.5236 14.2684,14.7805 15.1857,16.3375 15.2492,18.0578 14.4105,19.6502 13.0788,20.952 11.2622,21.8768 8.9652,22.3798 6.407,22.6535 3.5009,22.865 L1.92,22.98 " stroke-linecap="round" fill="none" stroke="#f76707" stroke-width="3" stroke-dasharray="none" stroke-dashoffset="0"/></g></g><g transform="matrix(1, 0, 0, 1, 1409.2367, 9307.6122)" opacity="1"><g transform="scale(1)"><path d="M0,0 Q-6.5527,10.0457 -9.6438,14.5246 T-15.7274,23.1865 -21.8755,31.8293 -28.4941,40.6806 -35.1521,48.9886 -40.7394,55.6902 -46.8364,61.5201 -52.9918,66.4403 -56.7758,69.1169 -58.6177,70.1352 -59.1842,69.8159 -58.8357,68.769 -57.7729,67.1073 -55.6671,63.8003 -52.9917,59.817 -50.0064,55.2492 -46.6359,50.3635 -42.4015,44.2128 -37.2594,36.0628 -32.7157,28.134 -29.3706,21.6364 -27.5509,17.2285 -27.2153,15.0495 -28.3415,15.1751 -30.2651,16.7711 -33.4958,20.0401 -38.0919,24.8759 -42.9953,30.3452 -48.5014,36.378 -53.6786,42.063 -58.8959,47.9942 -64.1372,53.6216 -68.0806,57.3373 -70.6613,59.3586 -72.0652,59.585 -72.3934,57.9616 -71.4799,54.6777 -69.6719,50.2715 -67.5985,45.9092 -64.7241,40.9164 -60.7573,34.4861 -56.1985,27.4929 -51.3177,20.1956 -47.3516,13.825 -44.7562,9.0507 -43.5632,6.0157 -44.2252,5.2379 -46.5507,6.7801 -49.5623,9.5845 -54.0392,13.9486 -59.9675,20.0346 -65.8123,26.1839 -71.8305,31.93 -77.2886,36.5858 -81.5688,39.3374 -84.5516,40.1776 -85.7365,39.1071 -85.5078,36.7783 -83.8558,32.4539 -80.7729,25.5164 -76.9115,17.1573 -72.8456,8.6792 -68.014,-1.6101 -63.2014,-13.539 -59.9289,-23.5236 -57.9321,-31.1394 -57.2814,-36.5912 -57.3971,-41.422 L-57.46,-44.05 " stroke-linecap="round" fill="none" stroke="#f76707" stroke-width="3" stroke-dasharray="none" stroke-dashoffset="0"/></g></g></svg>