<svg xmlns="http://www.w3.org/2000/svg" direction="ltr" width="324.1023730811544" height="314.4575256322605" viewBox="2807.4422723900007 27328.774764351743 324.1023730811544 314.4575256322605" stroke-linecap="round" stroke-linejoin="round" style="background-color: transparent;"><defs/><g transform="matrix(1, 0, 0, 1, 2839.4423, 27566.2018)" opacity="1"><g transform="scale(1)"><path d="M-0.8933,-1.1936 T0.2501,-2.0371 2.98,-4.2413 5.8666,-6.8402 8.7802,-9.3771 12.2442,-11.8743 15.4149,-14.2327 18.8313,-16.6984 22.3779,-19.1386 25.0827,-21.4484 27.5476,-23.8227 29.9615,-26.2253 32.3642,-28.6342 35.2544,-31.1057 38.2175,-33.5402 41.1059,-36.0006 44.0656,-38.4348 46.5344,-40.9246 48.9312,-43.7874 51.4242,-46.5994 54.2608,-49.2416 57.2127,-51.7329 59.7801,-54.7113 62.1987,-58.1404 65.0141,-61.1748 67.9753,-63.771 70.5346,-66.1134 72.8911,-68.8598 75.2719,-71.8047 77.7348,-74.4414 80.1477,-76.9142 82.5499,-79.345 84.8285,-81.9014 87.1759,-84.7813 89.6731,-87.6202 92.539,-90.2811 95.3671,-92.9123 97.869,-95.6912 100.3462,-98.8455 102.649,-102.044 105.0729,-105.1871 107.9383,-108.6022 110.7824,-111.879 113.3741,-114.8966 116.3768,-118.2079 119.254,-121.4441 121.4313,-124.0872 123.7715,-127.0003 126.1327,-129.9584 128.5149,-132.9589 131.2552,-136.4165 133.8597,-139.4157 136.3293,-142.0046 139.1832,-144.9005 142.0013,-147.9978 144.5025,-151.0241 147.0679,-153.9146 149.5273,-156.4597 151.9419,-158.9039 154.3464,-161.3195 156.664,-164.062 159.0354,-166.9941 161.5138,-169.6491 163.992,-172.0143 166.4172,-174.411 169.1389,-177.1389 172.0535,-180.0584 174.9846,-183.4135 178.0484,-186.6074 180.7404,-189.0847 183.1365,-191.424 185.4419,-194.1492 187.8054,-197.0817 190.4027,-199.9839 192.7599,-202.5833 194.4915,-204.5913 195.2062,-205.5087 A2.2192,2.2192 0 0 1 198.8338,-202.9513 T198.21,-201.97 196.1991,-199.3042 193.747,-196.3624 191.5369,-193.8563 189.0908,-190.8757 186.5614,-187.9397 184.0583,-185.5252 181.6193,-183.3686 178.6912,-180.326 175.6606,-176.8553 173.4265,-174.3882 171.2372,-172.2769 168.8067,-169.8697 166.2838,-167.4097 163.801,-165.1113 161.5225,-162.5758 159.066,-159.6121 156.5211,-156.755 154.1233,-154.3455 151.7344,-151.9191 149.3821,-149.4315 146.8702,-146.3714 144.0862,-143.1496 141.1649,-140.2332 138.4837,-137.5207 136.1029,-134.9903 133.5226,-131.7915 130.5083,-128.0548 127.3597,-124.2628 124.2197,-120.2661 121.1707,-116.7686 118.2625,-113.7581 115.3639,-110.3898 112.4592,-107.3179 109.7269,-104.368 107.2199,-100.9297 104.8327,-97.8344 102.3785,-94.7873 99.5973,-91.324 96.5733,-88.434 93.8283,-86.0946 91.4886,-83.6229 89.054,-80.653 86.5664,-77.7464 84.1557,-75.3445 81.7566,-72.9357 79.377,-70.5005 77.0492,-67.9403 74.5314,-64.975 71.7872,-62.0948 68.8853,-59.7163 66.2816,-57.3576 64.2607,-54.5773 62.1373,-51.5895 59.437,-48.889 56.552,-46.5266 54.0019,-44.2012 51.6432,-41.627 49.0625,-38.6561 46.1184,-35.7706 43.1656,-33.4035 40.369,-31.059 37.4152,-28.6849 34.6305,-26.3513 32.2041,-23.9588 29.7388,-21.5565 27.1446,-19.122 24.1164,-16.6261 20.5897,-14.2629 17.2882,-11.9162 13.9349,-9.4561 10.6154,-7.1128 7.8543,-4.7034 4.8354,-1.9762 2.025,0.3343 0.8933,1.1936 A1.4909,1.4909 0 0 1 -0.8933,-1.1936 Z" stroke-linecap="round" fill="#40c057"/></g></g><g transform="matrix(1, 0, 0, 1, 2840.6436, 27566.2018)" opacity="1"><g transform="scale(1)"><path d="M-0.3804,-1.7132 T2.1738,-2.2908 6.5738,-3.4479 10.3953,-4.375 13.9726,-4.9064 18.4426,-5.5187 23.092,-6.1539 26.3669,-6.4702 29.5126,-6.6461 32.7195,-7.0231 36.1133,-7.5261 39.4788,-7.8212 43.6806,-8.0208 48.8384,-8.1561 53.747,-8.2138 58.5811,-8.2484 62.4749,-8.2738 66.3451,-8.5559 70.3913,-9.0075 74.7944,-9.3248 80.0364,-9.5052 84.0428,-9.559 88.1931,-9.5782 93.3091,-9.5913 98.2081,-9.6011 102.1083,-9.2927 106.0595,-8.7877 110.1411,-8.5592 113.4432,-8.5016 116.6067,-8.4689 119.6954,-8.4517 124.0615,-8.4365 129.5858,-8.4228 135.3098,-8.4157 139.9328,-8.415 143.3512,-8.4219 146.858,-8.4306 151.564,-8.1382 156.8301,-7.6388 161.9693,-7.3808 167.729,-7.3159 173.3851,-7.3147 178.4638,-7.0017 183.3317,-6.4939 188.7801,-5.9333 193.255,-5.3764 196.6137,-4.9785 198.4506,-4.7629 A2.3741,2.3741 0 0 1 197.9894,-0.0371 T196.1455,-0.1807 191.2048,-0.7418 185.4399,-1.2883 181.1609,-1.6075 177.8174,-2.0507 173.3723,-2.3226 167.6845,-2.3665 161.7981,-2.4636 156.2376,-2.7892 151.1078,-3.3142 146.8579,-3.5895 143.3511,-3.5983 139.9325,-3.6054 135.3088,-3.6057 130.8478,-3.6027 126.743,-3.6007 122.7291,-3.6006 119.6674,-3.6075 116.5568,-3.6255 113.3508,-3.6597 109.9519,-3.7289 106.7125,-3.8664 102.8747,-4.3855 98.1946,-4.8176 93.3132,-4.8239 88.2059,-4.8245 82.8588,-4.8129 77.6555,-4.7517 72.4427,-4.5133 66.8424,-4.0309 62.4763,-3.7444 58.5854,-3.7664 53.7623,-3.7874 48.8905,-3.796 43.8421,-3.7546 39.7927,-3.6441 36.6703,-3.4413 33.1474,-2.9996 28.2827,-2.5868 23.6838,-2.3394 19.027,-1.7927 14.4637,-1.2482 11.2164,-0.8415 7.4823,0.0116 2.9394,1.1556 0.3804,1.7132 A1.7549,1.7549 0 0 1 -0.3804,-1.7132 Z" stroke-linecap="round" fill="#40c057"/></g></g><g transform="matrix(1, 0, 0, 1, 3035.2587, 27360.7748)" opacity="1"><g transform="scale(1)"><path d="M1.6695,-0.1517 T1.9611,2.9719 2.4376,10.346 2.7292,17.6722 2.9022,23.2234 3.011,27.8595 3.0805,31.726 3.1293,35.1865 3.1638,38.7168 3.187,41.996 3.2187,48.8377 3.2545,57.5589 3.2801,63.5759 3.2974,68.1659 3.3111,71.72 3.3242,75.0145 3.3344,78.172 3.3442,82.2462 3.3551,87.3128 3.7949,92.0585 4.3712,97.1436 4.5584,102.5915 4.6211,107.7181 4.6447,111.687 4.9271,114.6349 5.3688,117.5959 5.6726,121.7754 5.8525,126.9267 6.1637,131.5645 6.6994,136.321 7.0353,140.9442 7.1253,145.2686 7.1501,149.037 7.1587,153.12 7.1669,158.1974 7.1754,163.0782 7.187,167.9043 7.2005,171.7983 7.2136,175.6281 7.6588,180.8164 8.1853,185.4032 8.3196,188.6212 8.4017,192.5822 8.4405,197.2245 7.9591,201.678 7.2676,205.4293 7.0603,206.8852 A2.2647,2.2647 0 0 1 2.5597,206.3748 T2.6837,204.9094 3.185,201.3823 3.5466,197.2136 3.5,192.6723 3.4322,188.8053 3.3258,185.7465 3.1324,182.6703 2.7039,179.6054 2.4063,175.6381 2.4195,171.7983 2.4328,167.9044 2.4439,163.0788 2.4505,158.1996 2.452,153.127 2.4488,149.0548 2.4312,145.3309 2.3558,141.1498 2.0967,137.0196 1.5795,133.3419 1.2499,129.4542 1.186,124.5789 0.931,119.4943 0.4348,115.0308 0.1444,111.701 0.1461,107.7441 0.1233,102.6732 0.0693,98.6149 -0.1538,94.9323 -0.6524,91.2439 -0.9551,87.3258 -0.9442,82.2462 -0.9345,78.1721 -0.9244,75.0146 -0.9115,71.7203 -0.8983,68.1662 -0.8817,63.5764 -0.8575,57.5595 -0.8244,48.8403 -0.7979,42.0018 -0.7845,38.7272 -0.7686,35.2064 -0.755,31.7584 -0.7523,27.9101 -0.7704,23.3013 -0.8381,17.7812 -1.0032,10.5614 -1.3935,3.2765 -1.6695,0.1517 A1.6764,1.6764 0 0 1 1.6695,-0.1517 Z" stroke-linecap="round" fill="#40c057"/></g></g><g transform="matrix(1, 0, 0, 1, 3035.2587, 27536.1686)" opacity="1"><g transform="scale(1)"><path d="M0,2.0196 T-1.9882,2.0645 -6.32,2.4339 -10.4073,3.1848 -13.7936,3.8542 -17.2013,4.2021 -20.3935,4.0206 -23.1094,3.4401 -24.3981,3.146 A1.9805,1.9805 0 0 1 -23.6619,-0.746 T-21.452,-0.3947 -17.6633,-0.1792 -14.6218,-0.5288 -11.1648,-1.1829 -6.575,-1.8663 -1.9898,-2.0645 0,-2.0196 A2.0196,2.0196 0 0 1 0,2.0196 Z" stroke-linecap="round" fill="#40c057"/></g></g><g transform="matrix(1, 0, 0, 1, 3011.2321, 27543.3766)" opacity="1"><g transform="scale(1)"><path d="M1.7809,-0.5082 T2.429,1.4579 3.5726,7.6647 4.213,14.9054 4.358,17.9053 A1.9613,1.9613 0 0 1 0.442,18.1347 T0.2357,15.1384 -0.3887,8.337 -1.2938,2.5201 -1.7809,0.5082 A1.852,1.852 0 0 1 1.7809,-0.5082 Z" stroke-linecap="round" fill="#40c057"/></g></g><g transform="matrix(1, 0, 0, 1, 2927.3499, 27413.7356)" opacity="1"><g transform="scale(1)"><path d="M-2.1328,-0.6401 T-1.4119,-2.9498 -0.1867,-6.0774 0.3176,-6.8952 A2.1837,2.1837 0 0 1 3.9005,-4.3978 T3.6769,-4.1714 2.7931,-1.6525 2.1328,0.6401 A2.2268,2.2268 0 0 1 -2.1328,-0.6401 ZM4.2184,-6.2116 T4.5481,-4.9959 4.8066,3.441 4.7088,14.8249 4.2687,21.7343 3.4482,27.4299 3.0417,30.379 A2.0832,2.0832 0 0 1 -1.1017,29.941 T-0.8828,26.9722 -0.5163,21.4385 -0.2095,14.7079 0.2307,3.7009 0.2557,-4.1109 -0.0003,-5.0814 A2.1837,2.1837 0 0 1 4.2184,-6.2116 Z" stroke-linecap="round" fill="#40c057"/></g></g><g transform="matrix(1, 0, 0, 1, 2927.3499, 27407.8983)" opacity="1"><g transform="scale(1)"><path d="M1.4287,1.5869 T-0.8628,3.6693 -4.5786,7.0786 -7.6251,10.1626 -10.7415,13.1518 -12.2357,14.3836 A2.2184,2.2184 0 0 1 -15.0043,10.9164 T-13.8501,10.0335 -10.8331,7.1585 -7.5102,3.8508 -3.7395,0.4741 -1.4287,-1.5869 A2.1353,2.1353 0 0 1 1.4287,1.5869 ZM-15.0058,10.9177 T-13.495,9.6974 -10.8077,7.405 -8.1765,5.2552 -5.2653,3.171 -2.3031,0.7803 -0.3097,-1.0823 0.1778,-1.5608 A2.3366,2.3366 0 0 1 3.4386,1.7868 T2.4007,2.7783 0.1687,4.8134 -2.453,6.8159 -5.2251,8.7207 -7.8784,10.8174 -10.7107,13.1753 -12.2342,14.3823 A2.2184,2.2184 0 0 1 -15.0058,10.9177 ZM4.1135,-0.2684 T4.1672,0.163 4.2209,0.5943 A2.3018,2.3018 0 0 1 -0.3209,1.3457 T-0.409,0.92 -0.4971,0.4943 A2.3366,2.3366 0 0 1 4.1135,-0.2684 Z" stroke-linecap="round" fill="#40c057"/></g></g><g transform="matrix(1, 0, 0, 1, 2932.2143, 27442.9219)" opacity="1"><g transform="scale(1)"><path d="M1.0537,2.1075 T-0.3259,2.8011 -4.177,4.4913 -10.3995,6.363 -14.1507,7.2381 A2.4184,2.4184 0 0 1 -15.0293,2.4819 T-11.4993,1.6902 -5.8941,0.083 -2.4364,-1.42 -1.0537,-2.1075 A2.3562,2.3562 0 0 1 1.0537,2.1075 ZM-14.7344,2.4459 T-12.4711,2.3318 -8.3164,1.9444 -4.2381,1.3918 0.1926,0.8724 4.0783,0.5465 5.7201,0.4605 A2.4624,2.4624 0 0 1 5.9599,5.3795 T3.4276,5.5084 -1.3688,6.032 -5.7814,6.5482 -9.3729,6.8422 -12.6307,7.1442 -14.4456,7.2741 A2.4184,2.4184 0 0 1 -14.7344,2.4459 ZM5.8992,5.3817 T4.9892,5.405 4.0791,5.4283 A2.4652,2.4652 0 0 1 3.9607,0.4992 T4.8707,0.4788 5.7808,0.4583 A2.4624,2.4624 0 0 1 5.8992,5.3817 ZM4.7445,5.3201 T3.4717,5.7237 0.3692,6.7852 -3.5634,7.9883 -7.9378,8.8317 -12.3396,9.1649 -14.4699,9.1998 A2.3928,2.3928 0 0 1 -14.7101,4.4202 T-12.6985,4.247 -8.9826,3.8309 -5.1815,3.0551 -0.7975,1.8302 2.3925,0.8728 3.2953,0.6074 A2.4652,2.4652 0 0 1 4.7445,5.3201 Z" stroke-linecap="round" fill="#40c057"/></g></g><g transform="matrix(1, 0, 0, 1, 3088.8477, 27407.8983)" opacity="1"><g transform="scale(1)"><path d="M2.0344,0 T2.11,3.6823 2.2441,9.9934 2.2854,14.9299 2.2558,19.8088 2.2434,22.38 A2.2434,2.2434 0 0 1 -2.2434,22.38 T-2.2558,19.8088 -2.2854,14.9299 -2.2441,9.9934 -2.11,3.6823 -2.0344,0 A2.0344,2.0344 0 0 1 2.0344,0 Z" stroke-linecap="round" fill="#40c057"/></g></g><g transform="matrix(1, 0, 0, 1, 3098.5765, 27440.9762)" opacity="1"><g transform="scale(1)"><path d="M-0.5708,1.9933 T-2.1958,1.5844 -6.5001,0.6488 -11.2561,-0.1056 -14.972,-0.0573 -18.8062,0.5762 -21.0012,0.9336 A1.9449,1.9449 0 0 1 -21.7988,-2.8736 T-19.6448,-3.4272 -14.0471,-4.4087 -8.0158,-4.2335 -4.0249,-3.3254 -1.0253,-2.5067 0.5708,-1.9933 A2.0734,2.0734 0 0 1 -0.5708,1.9933 Z" stroke-linecap="round" fill="#40c057"/></g></g><g transform="matrix(1, 0, 0, 1, 3081.0646, 27455.5694)" opacity="1"><g transform="scale(1)"><path d="M0.2106,-2.1128 T2.5466,-1.8712 6.7322,-0.69 9.6094,2.7957 8.6978,7.9532 8.2046,11.5593 11.7154,12.9901 16.228,13.626 18.6757,13.8256 A2.7214,2.7214 0 0 1 18.2843,19.2544 T15.5793,19.0826 10.8569,18.3812 6.3137,16.9506 2.7717,13.5921 2.5148,9.3679 5.0304,6.0619 5.5544,3.535 2.0557,2.3301 -0.2106,2.1128 A2.1233,2.1233 0 0 1 0.2106,-2.1128 Z" stroke-linecap="round" fill="#40c057"/></g></g><g transform="matrix(1, 0, 0, 1, 2955.5634, 27588.8537)" opacity="1"><g transform="scale(1)"><path d="M1.3838,1.47 T-2.4308,5.2555 -9.4489,11.9573 -14.5863,16.6107 -18.3069,19.154 -21.7626,20.6635 -23.4318,21.3669 A2.1036,2.1036 0 0 1 -25.2082,17.5531 T-22.4368,16.1623 -17.7517,13.0346 -12.6197,8.4931 -5.3926,2.1092 -1.3838,-1.47 A2.0188,2.0188 0 0 1 1.3838,1.47 Z" stroke-linecap="round" fill="#40c057"/></g></g><g transform="matrix(1, 0, 0, 1, 2937.0787, 27591.7723)" opacity="1"><g transform="scale(1)"><path d="M1.7991,-1.4617 T4.8733,2.1536 10.2356,8.3306 13.947,12.4644 18.0723,15.637 20.7744,17.2374 A2.5822,2.5822 0 0 1 18.1456,21.6826 T16.5242,20.7598 13.1326,18.7566 9.9372,16.0143 6.2657,11.6562 1.1102,5.211 -1.7991,1.4617 A2.3181,2.3181 0 0 1 1.7991,-1.4617 Z" stroke-linecap="round" fill="#40c057"/></g></g></svg>