<svg xmlns="http://www.w3.org/2000/svg" direction="ltr" width="565.4859949459551" height="427.3231923797648" viewBox="2144.3230776745777 29926.642826990417 565.4859949459551 427.3231923797648" stroke-linecap="round" stroke-linejoin="round" data-color-mode="dark" class="tl-container tl-theme__force-sRGB tl-theme__dark" style="background-color: transparent;"><defs/><g transform="matrix(1, 0, 0, 1, 2199.7478, 30201.0211) scale(0.9561125023199899, 0.9561125023199899)" opacity="1"><g transform="scale(1.0459020225899336)"><defs><mask id="shape_rWAoHsY1HhDgTM_XwBwOd_clip"><rect x="-100" y="-100.9561" width="639.8118" height="201" fill="white"/></mask></defs><g fill="none" stroke="#9398b0" stroke-width="3.3463937581199645" stroke-linejoin="round" stroke-linecap="round" pointer-events="none"><g mask="url(#shape_rWAoHsY1HhDgTM_XwBwOd_clip)"><rect x="-100" y="-100.9561" width="639.8118" height="201" opacity="0"/><path d="M0,0L439.811751067195,-0.9561125023210479" stroke-dasharray="none" stroke-dashoffset="none"/></g></g></g></g><g transform="matrix(1, 0, 0, 1, 2239.9046, 30190.5039) scale(0.9561125023199899, 0.9561125023199899)" opacity="1"><g transform="scale(1.0459020225899336)"><path d="M2.4355,0 T2.4154,1.5822 2.1108,5.3388 1.6561,9.7213 1.4704,14.7961 1.4567,18.8768 1.4585,20.0908 A2.4185,2.4185 0 0 1 -3.3785,20.0692 T-3.3404,16.9718 -3.1712,11.0704 -2.7177,5.7154 -2.4154,1.5822 -2.4355,0 A2.4355,2.4355 0 0 1 2.4355,0 Z" stroke-linecap="round" fill="#9398b0"/></g></g><g transform="matrix(1, 0, 0, 1, 2236.0801, 30229.7045) scale(0.9561125023199899, 0.9561125023199899)" opacity="1"><g transform="scale(1.0459020225899336)"><path d="M-0.6115,1.4989 T-1.4741,1.2624 -3.4863,3.2018 -2.5401,4.659 -0.4443,3.94 A2.3635,2.3635 0 0 1 2.2582,7.8183 T0.8855,9.0841 -2.5141,10.9403 -6.4164,10.6053 -8.9368,7.6272 -9.0292,3.6757 -7.0838,-0.4323 -3.4842,-3.2429 -0.3328,-3.6317 0.6115,-3.4189 A2.5338,2.5338 0 0 1 -0.6115,1.4989 ZM2.4705,4.1068 T3.1367,4.714 5.0913,7.1451 7.3161,9.8093 8.2526,10.6496 A2.3689,2.3689 0 0 1 5.1274,14.2104 T4.1727,13.391 1.7931,10.544 -0.1443,8.0841 -0.6566,7.6516 A2.3635,2.3635 0 0 1 2.4705,4.1068 Z" stroke-linecap="round" fill="#9398b0"/></g></g><g transform="matrix(1, 0, 0, 1, 2628.0862, 30192.4161) scale(0.9561125023199899, 0.9561125023199899)" opacity="1"><g transform="scale(1.0459020225899336)"><path d="M2.0361,-0.2555 T2.2815,1.5514 2.7258,6.1509 2.9913,10.6434 3.0581,12.3433 A2.0999,2.0999 0 0 1 -1.1381,12.5167 T-1.2118,10.8171 -1.4522,6.4981 -1.8275,2.067 -2.0361,0.2555 A2.0521,2.0521 0 0 1 2.0361,-0.2555 Z" stroke-linecap="round" fill="#9398b0"/></g></g><g transform="matrix(1, 0, 0, 1, 2625.2179, 30219.1873) scale(0.9561125023199899, 0.9561125023199899)" opacity="1"><g transform="scale(1.0459020225899336)"><path d="M1.9159,0 T1.9221,1.3575 1.9413,4.7243 1.9723,8.8981 1.7376,13.9836 1.2161,18.6317 0.9472,20.3589 A1.9275,1.9275 0 0 1 -2.8672,19.8011 T-2.6302,18.0692 -2.1917,13.7 -1.9723,8.8981 -1.9413,4.7243 -1.9221,1.3575 -1.9159,0 A1.9159,1.9159 0 0 1 1.9159,0 Z" stroke-linecap="round" fill="#9398b0"/></g></g><g transform="matrix(1, 0, 0, 1, 2624.2618, 30232.5729) scale(0.9561125023199899, 0.9561125023199899)" opacity="1"><g transform="scale(1.0459020225899336)"><path d="M-0.3428,-2.3891 T1.24,-2.5908 5.7077,-3.151 10.6585,-2.3323 13.1521,0.8209 13.624,5.1598 12.3821,9.3712 9.0051,11.8935 3.9891,12.6339 1.0638,12.7004 A2.1829,2.1829 0 0 1 0.8562,8.3396 T3.5414,8.1391 7.6583,6.3994 8.1909,2.8069 5.3989,1.319 1.9244,2.1367 0.3428,2.3891 A2.4135,2.4135 0 0 1 -0.3428,-2.3891 Z" stroke-linecap="round" fill="#9398b0"/></g></g><g transform="matrix(1, 0, 0, 1, 2193.055, 30228.7484) scale(0.9561125023199899, 0.9561125023199899)" opacity="1"><g transform="scale(1.0459020225899336)"><path d="M1.5544,1.2944 T0.4527,2.6759 -2.0407,5.8967 -5.5166,9.8593 -8.4342,12.5649 -9.2676,13.1472 A2.0932,2.0932 0 0 1 -11.7724,9.7928 T-10.9774,9.1591 -8.5981,6.8889 -5.4434,3.3125 -2.7137,0.0391 -1.5544,-1.2944 A2.0227,2.0227 0 0 1 1.5544,1.2944 Z" stroke-linecap="round" fill="#9398b0"/></g></g><g transform="matrix(1, 0, 0, 1, 2181.5817, 30228.7484) scale(0.9561125023199899, 0.9561125023199899)" opacity="1"><g transform="scale(1.0459020225899336)"><path d="M1.0849,-0.4335 T1.5456,0.6937 2.9088,3.3512 4.6622,5.9737 6.9332,8.3141 8.3532,9.5622 A1.1882,1.1882 0 0 1 6.9468,11.4778 T6.3139,11.0209 4.3724,9.4279 2.1064,6.9131 0.4748,4.1177 -0.6422,1.5673 -1.0849,0.4335 A1.1683,1.1683 0 0 1 1.0849,-0.4335 Z" stroke-linecap="round" fill="#9398b0"/></g></g><g transform="matrix(1, 0, 0, 1, 2179.6695, 30225.8801) scale(0.9561125023199899, 0.9561125023199899)" opacity="1"><g transform="scale(1.0459020225899336)"><path d="M2.3716,-0.4763 T2.5664,0.6596 3.3884,3.3183 4.8675,6.3838 7.0184,9.2936 9.8529,11.5545 12.9273,13.3534 14.4663,14.2586 A2.2637,2.2637 0 0 1 12.3137,18.2414 T11.4432,17.8085 9.3544,16.6988 6.5169,14.9887 3.9484,12.9305 2.0388,10.7087 0.491,8.2494 -0.9746,4.8567 -2.1123,1.6013 -2.3716,0.4763 A2.419,2.419 0 0 1 2.3716,-0.4763 Z" stroke-linecap="round" fill="#9398b0"/></g></g><g transform="matrix(1, 0, 0, 1, 2198.7917, 30246.9145) scale(0.9561125023199899, 0.9561125023199899)" opacity="1"><g transform="scale(1.0459020225899336)"><path d="M1.557,1.1698 T0.88,2.0619 0.7751,4.4681 1.9674,4.1871 2.3001,0.8999 2.0124,-0.5921 A1.8447,1.8447 0 0 1 5.6276,-1.3279 T5.8535,-0.39 6.1581,2.6608 5.5149,6.2684 3.2659,8.7233 -0.1855,9.0528 -3.0291,6.8296 -3.4332,2.9484 -2.2375,-0.255 -1.557,-1.1698 A1.9475,1.9475 0 0 1 1.557,1.1698 Z" stroke-linecap="round" fill="#9398b0"/></g></g><g transform="matrix(1, 0, 0, 1, 2208.3528, 30232.5729) scale(0.9561125023199899, 0.9561125023199899)" opacity="1"><g transform="scale(1.0459020225899336)"><path d="M0.6532,-1.8311 T2.0049,-2.079 5.1305,-2.6934 7.963,-3.3717 9.0216,-3.6834 A1.8534,1.8534 0 0 1 10.0984,-0.1366 T9.0452,0.1928 5.988,0.9705 2.6254,1.6249 1.2668,1.8311 A1.8566,1.8566 0 0 1 0.6532,-1.8311 Z" stroke-linecap="round" fill="#9398b0"/></g></g><g transform="matrix(1, 0, 0, 1, 2208.3528, 30239.2656) scale(0.9561125023199899, 0.9561125023199899)" opacity="1"><g transform="scale(1.0459020225899336)"><path d="M1.3039,-1.7126 T2.4377,-1.5044 6.1712,-1.0255 8.771,-0.7549 A1.7224,1.7224 0 0 1 8.449,2.6749 T5.6597,2.4396 1.7433,1.9584 0.6161,1.7126 A1.7468,1.7468 0 0 1 1.3039,-1.7126 Z" stroke-linecap="round" fill="#9398b0"/></g></g><g transform="matrix(1, 0, 0, 1, 2268.5879, 30193.3722) scale(0.9561125023199899, 0.9561125023199899)" opacity="1"><g transform="scale(1.0459020225899336)"><path d="M1.4909,0 T1.4957,1.3575 1.5075,4.1092 1.5147,7.9949 1.2745,12.1821 0.7756,15.6494 0.5172,17.4209 A1.4922,1.4922 0 0 1 -2.4372,16.9991 T-2.1896,15.2261 -1.7285,11.9676 -1.5147,7.9927 -1.5075,4.1092 -1.4957,1.3575 -1.4909,0 A1.4909,1.4909 0 0 1 1.4909,0 Z" stroke-linecap="round" fill="#9398b0"/></g></g><g transform="matrix(1, 0, 0, 1, 2269.544, 30220.1434) scale(0.9561125023199899, 0.9561125023199899)" opacity="1"><g transform="scale(1.0459020225899336)"><path d="M1.3962,0.8383 T0.738,1.9813 -1.414,4.8258 -4.5617,8.1831 -7.3563,10.7929 -8.4969,11.7469 A1.6234,1.6234 0 0 1 -10.6231,9.2931 T-9.5165,8.2998 -6.7953,5.6128 -3.9877,2.6583 -2.0955,0.2796 -1.3962,-0.8383 A1.6285,1.6285 0 0 1 1.3962,0.8383 Z" stroke-linecap="round" fill="#9398b0"/></g></g><g transform="matrix(1, 0, 0, 1, 2259.9829, 30221.0995) scale(0.9561125023199899, 0.9561125023199899)" opacity="1"><g transform="scale(1.0459020225899336)"><path d="M1.3231,-0.5287 T1.8124,0.5871 2.8913,3.0917 4.3323,5.9511 6.5535,9.1838 8.4204,11.7509 8.9176,12.5561 A1.5174,1.5174 0 0 1 6.3824,14.2239 T5.4358,12.8622 3.548,10.4769 1.6475,7.7095 0.0967,4.3923 -0.909,1.6738 -1.3231,0.5287 A1.4249,1.4249 0 0 1 1.3231,-0.5287 Z" stroke-linecap="round" fill="#9398b0"/></g></g><g transform="matrix(1, 0, 0, 1, 2271.4563, 30235.4412) scale(0.9561125023199899, 0.9561125023199899)" opacity="1"><g transform="scale(1.0459020225899336)"><path d="M1.5487,0.96 T1.5487,2.3151 1.5487,5.1801 1.5487,6.69 A1.5487,1.5487 0 0 1 -1.5487,6.69 T-1.5487,5.1801 -1.5487,2.3151 -1.5487,0.96 A1.5487,1.5487 0 0 1 1.5487,0.96 Z" stroke-linecap="round" fill="#9398b0"/></g></g><g transform="matrix(1, 0, 0, 1, 2318.3058, 30194.3284) scale(0.9561125023199899, 0.9561125023199899)" opacity="1"><g transform="scale(1.0459020225899336)"><path d="M1.5489,0 T1.5642,1.1305 1.6038,4.3145 1.6131,8.8893 1.5766,12.8753 1.555,14.34 A1.555,1.555 0 0 1 -1.555,14.34 T-1.5766,12.8753 -1.6131,8.8893 -1.6038,4.3145 -1.5642,1.1305 -1.5489,0 A1.5489,1.5489 0 0 1 1.5489,0 Z" stroke-linecap="round" fill="#9398b0"/></g></g><g transform="matrix(1, 0, 0, 1, 2317.3497, 30223.9678) scale(0.9561125023199899, 0.9561125023199899)" opacity="1"><g transform="scale(1.0459020225899336)"><path d="M1.1843,0.7111 T0.5284,1.8554 -1.512,4.8346 -4.4933,8.0373 -7.5213,10.4892 -9.808,12.1229 -10.6637,12.6726 A1.4479,1.4479 0 0 1 -12.2763,10.2674 T-11.443,9.6845 -9.3623,8.0931 -6.6536,5.8847 -3.8898,3.1035 -1.8859,0.4055 -1.1843,-0.7111 A1.3814,1.3814 0 0 1 1.1843,0.7111 Z" stroke-linecap="round" fill="#9398b0"/></g></g><g transform="matrix(1, 0, 0, 1, 2307.7885, 30224.924) scale(0.9561125023199899, 0.9561125023199899)" opacity="1"><g transform="scale(1.0459020225899336)"><path d="M1.352,-0.676 T1.8283,0.2143 3.0671,2.4447 4.9094,5.0882 7.3741,7.9224 8.7591,9.4532 A1.5389,1.5389 0 0 1 6.5409,11.5868 T5.7537,10.8138 3.765,8.7992 1.6909,6.2948 0.1602,3.7705 -0.9249,1.5925 -1.352,0.676 A1.5116,1.5116 0 0 1 1.352,-0.676 Z" stroke-linecap="round" fill="#9398b0"/></g></g><g transform="matrix(1, 0, 0, 1, 2317.3497, 30239.2656) scale(0.9561125023199899, 0.9561125023199899)" opacity="1"><g transform="scale(1.0459020225899336)"><path d="M0,-1.7568 T1.1512,-1.7645 4.1012,-1.058 5.8999,-0.3438 A1.798,1.798 0 0 1 4.3094,2.8815 T3.2644,2.3268 1.1097,1.7645 0,1.7568 A1.7568,1.7568 0 0 1 0,-1.7568 ZM6.8467,1.7143 T6.7348,2.1024 5.6259,4.0729 3.8569,6.9304 3.0851,8.2055 A1.778,1.778 0 0 1 -0.1648,6.7622 T0.5636,5.5984 2.2046,3.158 3.24,1.3524 3.3627,0.8234 A1.798,1.798 0 0 1 6.8467,1.7143 ZM3.182,7.0408 T3.3486,7.6711 3.5153,8.3014 A1.7866,1.7866 0 0 1 0.0548,9.1918 T-0.1035,8.5594 -0.2618,7.927 A1.778,1.778 0 0 1 3.182,7.0408 ZM2.4482,7.0876 T2.9278,7.2781 5.3313,7.6179 9.1992,7.4056 11.1431,7.044 A1.5998,1.5998 0 0 1 11.7969,10.176 T10.6836,10.4417 7.2777,10.9579 3.5365,11.0013 1.6049,10.5999 1.1219,10.4056 A1.7866,1.7866 0 0 1 2.4482,7.0876 Z" stroke-linecap="round" fill="#9398b0"/></g></g><g transform="matrix(1, 0, 0, 1, 2346.9892, 30196.2406) scale(0.9561125023199899, 0.9561125023199899)" opacity="1"><g transform="scale(1.0459020225899336)"><path d="M1.3496,-0.2257 T1.5948,1.1338 1.7277,4.0513 1.4575,8.0957 1.2996,10.582 A1.301,1.301 0 0 1 -1.2996,10.458 T-1.2558,9.1352 -1.0719,5.3746 -1.1407,1.5812 -1.3496,0.2257 A1.3684,1.3684 0 0 1 1.3496,-0.2257 Z" stroke-linecap="round" fill="#9398b0"/></g></g><g transform="matrix(1, 0, 0, 1, 2345.0769, 30219.1873) scale(0.9561125023199899, 0.9561125023199899)" opacity="1"><g transform="scale(1.0459020225899336)"><path d="M1.2959,0.9737 T0.6332,1.894 -1.5825,4.2392 -4.8313,7.24 -6.5272,8.816 A1.6187,1.6187 0 0 1 -8.7728,6.484 T-7.1022,4.8183 -4.0586,1.976 -1.9907,-0.0871 -1.2959,-0.9737 A1.621,1.621 0 0 1 1.2959,0.9737 Z" stroke-linecap="round" fill="#9398b0"/></g></g><g transform="matrix(1, 0, 0, 1, 2338.3841, 30220.1434) scale(0.9561125023199899, 0.9561125023199899)" opacity="1"><g transform="scale(1.0459020225899336)"><path d="M1.13,-0.849 T1.8333,0.0384 3.3397,2.2178 5.4239,4.5317 7.7788,7.138 8.8525,8.7223 A1.4655,1.4655 0 0 1 6.4475,10.3977 T5.5187,9.1074 3.1228,6.562 0.9171,3.9974 -0.4758,1.7685 -1.13,0.849 A1.4134,1.4134 0 0 1 1.13,-0.849 Z" stroke-linecap="round" fill="#9398b0"/></g></g><g transform="matrix(1, 0, 0, 1, 2347.9453, 30231.6167) scale(0.9561125023199899, 0.9561125023199899)" opacity="1"><g transform="scale(1.0459020225899336)"><path d="M1.2142,-0.9703 T2.1302,0.1604 3.4063,2.0644 3.7665,2.8376 A1.5812,1.5812 0 0 1 0.853,4.0673 T0.7103,3.649 -0.3233,2.1006 -1.2142,0.9703 A1.5543,1.5543 0 0 1 1.2142,-0.9703 ZM3.6715,4.256 T3.3539,4.7988 2.5841,5.9329 2.1318,6.524 A1.583,1.583 0 0 1 -0.3702,4.5841 T-0.032,4.1556 0.6271,3.1881 0.9479,2.6489 A1.5812,1.5812 0 0 1 3.6715,4.256 ZM2.0345,4.4701 T2.6236,5.0968 4.3134,6.8102 4.9353,9.5588 2.9273,11.6129 -0.2171,12.0599 -1.8325,12.1145 A1.5964,1.5964 0 0 1 -1.9875,8.9255 T-0.5219,8.4296 0.3354,7.2859 -0.2729,6.6379 A1.583,1.583 0 0 1 2.0345,4.4701 Z" stroke-linecap="round" fill="#9398b0"/></g></g><g transform="matrix(1, 0, 0, 1, 2405.312, 30195.2845) scale(0.9561125023199899, 0.9561125023199899)" opacity="1"><g transform="scale(1.0459020225899336)"><path d="M1.3634,-0.6852 T1.6064,-0.2374 1.8986,1.9037 1.8221,5.4972 1.6206,8.5138 1.5449,9.6302 A1.5465,1.5465 0 0 1 -1.5449,9.4898 T-1.4972,7.3367 -1.1955,3.39 -1.1524,1.1408 -1.3634,0.6852 A1.5259,1.5259 0 0 1 1.3634,-0.6852 Z" stroke-linecap="round" fill="#9398b0"/></g></g><g transform="matrix(1, 0, 0, 1, 2406.2681, 30219.1873) scale(0.9561125023199899, 0.9561125023199899)" opacity="1"><g transform="scale(1.0459020225899336)"><path d="M0.8872,2.2018 T-0.667,3.3713 -4.3186,6.0442 -8.5615,8.7325 -10.707,9.9173 A1.5137,1.5137 0 0 1 -12.233,7.3027 T-10.2162,6.0582 -6.1534,3.3573 -2.4974,0.8096 -0.8872,-0.2818 A1.5261,1.5261 0 0 1 0.8872,2.2018 Z" stroke-linecap="round" fill="#9398b0"/></g></g><g transform="matrix(1, 0, 0, 1, 2393.8387, 30220.1434) scale(0.9561125023199899, 0.9561125023199899)" opacity="1"><g transform="scale(1.0459020225899336)"><path d="M1.2697,-0.9539 T1.965,-0.0701 3.9605,2.2081 6.2046,5.0154 8.1303,8.6042 9.112,10.7799 A1.6167,1.6167 0 0 1 6.188,12.1601 T5.3157,10.408 3.505,7.1996 1.3107,4.2716 -0.6075,1.8769 -1.2697,0.9539 A1.5881,1.5881 0 0 1 1.2697,-0.9539 Z" stroke-linecap="round" fill="#9398b0"/></g></g><g transform="matrix(1, 0, 0, 1, 2404.3559, 30235.4412) scale(0.9561125023199899, 0.9561125023199899)" opacity="1"><g transform="scale(1.0459020225899336)"><path d="M2.2932,0 T2.3306,1.1305 2.3904,3.7237 3.4397,5.8089 4.4666,6.4313 A1.3796,1.3796 0 0 1 3.1734,8.8687 T2.5305,8.5463 0.6974,6.7418 -0.4704,3.7603 -0.4106,1.1305 -0.3732,0 A1.3332,1.3332 0 0 1 2.2932,0 Z" stroke-linecap="round" fill="#9398b0"/></g></g><g transform="matrix(1, 0, 0, 1, 2410.0926, 30236.3973) scale(0.9561125023199899, 0.9561125023199899)" opacity="1"><g transform="scale(1.0459020225899336)"><path d="M1.7006,-0.3415 T1.9473,0.7855 2.4087,4.1967 2.6811,8.9497 2.7388,11.4186 A1.7796,1.7796 0 0 1 -0.8188,11.5214 T-0.9016,9.1276 -1.1351,4.6716 -1.4932,1.4754 -1.7006,0.3415 A1.7345,1.7345 0 0 1 1.7006,-0.3415 Z" stroke-linecap="round" fill="#9398b0"/></g></g><g transform="matrix(1, 0, 0, 1, 2468.4154, 30197.1967) scale(0.9561125023199899, 0.9561125023199899)" opacity="1"><g transform="scale(1.0459020225899336)"><path d="M1.544,-0.3101 T1.7956,0.8157 2.2556,3.8574 2.9273,7.4453 3.3904,9.1172 A1.5452,1.5452 0 0 1 0.4296,10.0028 T-0.1978,8.0287 -0.9821,4.3175 -1.3415,1.4452 -1.544,0.3101 A1.5748,1.5748 0 0 1 1.544,-0.3101 Z" stroke-linecap="round" fill="#9398b0"/></g></g><g transform="matrix(1, 0, 0, 1, 2468.4154, 30223.9678) scale(0.9561125023199899, 0.9561125023199899)" opacity="1"><g transform="scale(1.0459020225899336)"><path d="M1.2681,1.2681 T0.1579,2.4177 -2.69,5.4506 -6.0417,8.5826 -8.5763,10.4411 -9.497,11.0511 A1.8083,1.8083 0 0 1 -11.543,8.0689 T-9.939,6.936 -6.8605,4.4947 -4.4778,2.0705 -2.4189,-0.1568 -1.2681,-1.2681 A1.7934,1.7934 0 0 1 1.2681,1.2681 Z" stroke-linecap="round" fill="#9398b0"/></g></g><g transform="matrix(1, 0, 0, 1, 2457.8982, 30224.924) scale(0.9561125023199899, 0.9561125023199899)" opacity="1"><g transform="scale(1.0459020225899336)"><path d="M1.3119,-0.9856 T2.0058,-0.1009 3.7235,2.1235 5.8982,4.8623 8.1579,7.4558 10.0205,9.466 10.7744,10.2819 A1.6989,1.6989 0 0 1 8.3456,12.6581 T7.5464,11.8865 5.5311,9.8953 3.3661,7.5069 1.2162,4.5841 -0.6483,1.9078 -1.3119,0.9856 A1.6409,1.6409 0 0 1 1.3119,-0.9856 Z" stroke-linecap="round" fill="#9398b0"/></g></g><g transform="matrix(1, 0, 0, 1, 2471.2838, 30241.1779) scale(0.9561125023199899, 0.9561125023199899)" opacity="1"><g transform="scale(1.0459020225899336)"><path d="M2.5884,0 T2.6132,1.3575 2.4098,4.7676 3.2151,7.9977 4.8659,10.7323 4.5591,13.7137 1.5814,15.2353 -1.3422,15.1392 -2.2123,14.9462 A1.5853,1.5853 0 0 1 -1.6077,11.8338 T0.3919,11.9616 1.127,10.7314 -0.6537,7.7708 -0.9439,4.4417 -0.6932,1.3575 -0.6684,0 A1.6284,1.6284 0 0 1 2.5884,0 Z" stroke-linecap="round" fill="#9398b0"/></g></g><g transform="matrix(1, 0, 0, 1, 2470.3277, 30239.2656) scale(0.9561125023199899, 0.9561125023199899)" opacity="1"><g transform="scale(1.0459020225899336)"><path d="M0,-1.3966 T1.5822,-1.4054 4.9272,-1.422 6.69,-1.4298 A1.4298,1.4298 0 0 1 6.69,1.4298 T4.9272,1.422 1.5822,1.4054 0,1.3966 A1.3966,1.3966 0 0 1 0,-1.3966 Z" stroke-linecap="round" fill="#9398b0"/></g></g><g transform="matrix(1, 0, 0, 1, 2490.406, 30239.2656) scale(0.9561125023199899, 0.9561125023199899)" opacity="1"><g transform="scale(1.0459020225899336)"><path d="M 0 0 m -2.542991779928985, 0 a 2.542991779928985,2.542991779928985 0 1,1 5.08598355985797,0 a 2.542991779928985,2.542991779928985 0 1,1 -5.08598355985797,0" stroke-linecap="round" fill="#9398b0"/></g></g><g transform="matrix(1, 0, 0, 1, 2501.8794, 30238.3095) scale(0.9561125023199899, 0.9561125023199899)" opacity="1"><g transform="scale(1.0459020225899336)"><path d="M 0 0 m -2.542991779928985, 0 a 2.542991779928985,2.542991779928985 0 1,1 5.08598355985797,0 a 2.542991779928985,2.542991779928985 0 1,1 -5.08598355985797,0" stroke-linecap="round" fill="#9398b0"/></g></g><g transform="matrix(1, 0, 0, 1, 2512.3966, 30239.2656) scale(0.9561125023199899, 0.9561125023199899)" opacity="1"><g transform="scale(1.0459020225899336)"><path d="M 0 0 m -2.542991779928985, 0 a 2.542991779928985,2.542991779928985 0 1,1 5.08598355985797,0 a 2.542991779928985,2.542991779928985 0 1,1 -5.08598355985797,0" stroke-linecap="round" fill="#9398b0"/></g></g><g transform="matrix(1, 0, 0, 1, 2523.87, 30239.2656) scale(0.9561125023199899, 0.9561125023199899)" opacity="1"><g transform="scale(1.0459020225899336)"><path d="M 0 0 m -2.542991779928985, 0 a 2.542991779928985,2.542991779928985 0 1,1 5.08598355985797,0 a 2.542991779928985,2.542991779928985 0 1,1 -5.08598355985797,0" stroke-linecap="round" fill="#9398b0"/></g></g><g transform="matrix(1, 0, 0, 1, 2553.5095, 30194.3284) scale(0.9561125023199899, 0.9561125023199899)" opacity="1"><g transform="scale(1.0459020225899336)"><path d="M1.4194,0 T1.4303,1.3575 1.451,4.9489 1.4504,9.8064 1.4399,12.43 A1.4399,1.4399 0 0 1 -1.4399,12.43 T-1.4504,9.8064 -1.451,4.9489 -1.4303,1.3575 -1.4194,0 A1.4194,1.4194 0 0 1 1.4194,0 Z" stroke-linecap="round" fill="#9398b0"/></g></g><g transform="matrix(1, 0, 0, 1, 2551.5972, 30230.6606) scale(0.9561125023199899, 0.9561125023199899)" opacity="1"><g transform="scale(1.0459020225899336)"><path d="M2.1696,0.9692 T1.2791,2.112 -0.5536,4.3457 -3.2202,6.9332 -6.712,10.0462 -8.4793,11.6625 A1.5727,1.5727 0 0 1 -10.6407,9.3775 T-9.7265,8.4853 -7.2275,6.1191 -3.8672,2.9561 -1.1707,0.149 -0.2496,-0.9692 A1.55,1.55 0 0 1 2.1696,0.9692 Z" stroke-linecap="round" fill="#9398b0"/></g></g><g transform="matrix(1, 0, 0, 1, 2542.0361, 30231.6167) scale(0.9561125023199899, 0.9561125023199899)" opacity="1"><g transform="scale(1.0459020225899336)"><path d="M1.1241,-0.8446 T1.8232,0.0435 3.5085,2.3211 5.2803,5.016 6.9807,7.6648 8.3949,9.8507 8.8942,10.6931 A1.4668,1.4668 0 0 1 6.4058,12.2469 T5.868,11.4284 4.4097,9.348 2.6333,6.5961 0.9851,3.8941 -0.4657,1.7633 -1.1241,0.8446 A1.406,1.406 0 0 1 1.1241,-0.8446 Z" stroke-linecap="round" fill="#9398b0"/></g></g><g transform="matrix(1, 0, 0, 1, 2549.685, 30249.7829) scale(0.9561125023199899, 0.9561125023199899)" opacity="1"><g transform="scale(1.0459020225899336)"><path d="M1.5401,-0.2576 T1.7871,1.0966 2.2442,4.1741 2.5266,6.7022 2.599,7.5069 A1.6453,1.6453 0 0 1 -0.679,7.7931 T-0.7471,6.9879 -0.9706,4.581 -1.3331,1.6184 -1.5401,0.2576 A1.5615,1.5615 0 0 1 1.5401,-0.2576 ZM-0.6849,7.6834 T-0.6899,7.1297 -0.0314,4.8189 1.6083,1.6759 4.2304,-0.2189 5.8762,-0.7277 A1.5503,1.5503 0 0 1 5.422,2.3394 T4.8329,2.7918 3.4088,4.9711 2.5893,7.1574 2.6049,7.6166 A1.6453,1.6453 0 0 1 -0.6849,7.6834 ZM7.0334,0.1078 T7.2836,0.5976 8.0206,2.8337 8.7857,5.3713 9.0639,6.1626 A1.509,1.509 0 0 1 6.2361,7.2174 T5.9281,6.4373 5.1846,4.067 4.507,1.9904 4.2648,1.5039 A1.5503,1.5503 0 0 1 7.0334,0.1078 Z" stroke-linecap="round" fill="#9398b0"/></g></g><g transform="matrix(1, 0, 0, 1, 2644.3401, 30236.3973) scale(0.9561125023199899, 0.9561125023199899)" opacity="1"><g transform="scale(1.0459020225899336)"><path d="M-0.2233,-1.3349 T1.1297,-1.5891 3.9931,-2.2298 7.2445,-3.3744 8.9857,-4.1325 A1.387,1.387 0 0 1 10.1343,-1.6075 T8.3556,-0.7645 4.7621,0.5069 1.5853,1.135 0.2233,1.3349 A1.3534,1.3534 0 0 1 -0.2233,-1.3349 Z" stroke-linecap="round" fill="#9398b0"/></g></g><g transform="matrix(1, 0, 0, 1, 2645.2963, 30240.2218) scale(0.9561125023199899, 0.9561125023199899)" opacity="1"><g transform="scale(1.0459020225899336)"><path d="M0,-1.4125 T1.127,-1.435 4.3203,-1.9087 6.3866,-2.3599 A1.4324,1.4324 0 0 1 6.9934,0.4399 T4.6307,0.9487 1.134,1.435 0,1.4125 A1.4125,1.4125 0 0 1 0,-1.4125 Z" stroke-linecap="round" fill="#9398b0"/></g></g><g transform="matrix(1, 0, 0, 1, 2671.1113, 30226.8362) scale(0.9561125023199899, 0.9561125023199899)" opacity="1"><g transform="scale(1.0459020225899336)"><path d="M1.5385,0.309 T1.3195,1.4519 0.4625,3.863 -0.9371,6.4037 -2.5436,9.0258 -4.5668,11.8373 -6.8978,14.3143 -9.236,16.3658 -10.4215,17.4021 A1.5578,1.5578 0 0 1 -12.5185,15.0979 T-10.4378,13.1281 -7.2837,9.8636 -5.3583,7.2638 -3.2575,3.9429 -1.7736,0.809 -1.5385,-0.309 A1.5692,1.5692 0 0 1 1.5385,0.309 Z" stroke-linecap="round" fill="#9398b0"/></g></g><g transform="matrix(1, 0, 0, 1, 2660.5941, 30231.6167) scale(0.9561125023199899, 0.9561125023199899)" opacity="1"><g transform="scale(1.0459020225899336)"><path d="M1.0103,-1.0103 T1.7023,-0.3382 3.2499,1.5186 4.7855,4.4268 6.2709,7.7496 8.0044,10.9892 8.9325,12.6294 A1.491,1.491 0 0 1 6.3675,14.1506 T5.4569,12.6904 3.7034,9.862 2.3637,6.9934 1.0937,3.9372 -0.3448,1.6958 -1.0103,1.0103 A1.4288,1.4288 0 0 1 1.0103,-1.0103 Z" stroke-linecap="round" fill="#9398b0"/></g></g><g transform="matrix(1, 0, 0, 1, 2670.1552, 30245.9584) scale(0.9561125023199899, 0.9561125023199899)" opacity="1"><g transform="scale(1.0459020225899336)"><path d="M1.3755,-0.2763 T1.6106,0.8528 1.8171,4.0977 1.7885,6.2135 A1.4542,1.4542 0 0 1 -1.0576,5.6145 T-0.9976,4.0772 -1.1565,1.4081 -1.3755,0.2763 A1.403,1.403 0 0 1 1.3755,-0.2763 ZM-0.043,4.5183 T0.0975,4.4769 0.238,4.4354 A1.4548,1.4548 0 0 1 1.0553,7.228 T0.9146,7.2688 0.7739,7.3097 A1.4542,1.4542 0 0 1 -0.043,4.5183 ZM-0.6245,5.1241 T-0.2356,4.4403 1.344,2.737 3.2319,1.4128 3.9291,1.1079 A1.4335,1.4335 0 0 1 5.0251,3.7571 T3.7582,4.6183 2.2046,6.0095 1.9178,6.5393 A1.4548,1.4548 0 0 1 -0.6245,5.1241 ZM5.2386,1.218 T5.7808,1.5599 7.0347,3.1089 7.9243,6.4036 8.1021,8.4911 A1.4171,1.4171 0 0 1 5.2779,8.7289 T5.0012,6.5024 4.2201,3.9614 3.7156,3.6469 A1.4335,1.4335 0 0 1 5.2386,1.218 Z" stroke-linecap="round" fill="#9398b0"/></g></g><g transform="matrix(1, 0, 0, 1, 2559.2461, 30252.6512) scale(0.9561125023199899, 0.9561125023199899)" opacity="1"><g transform="scale(1.0459020225899336)"><path d="M-0.2143,-1.2814 T1.1437,-1.5054 4.0147,-1.9796 5.5276,-2.2297 A1.2874,1.2874 0 0 1 5.9524,0.3097 T4.4403,0.5655 1.5713,1.0513 0.2143,1.2814 A1.2992,1.2992 0 0 1 -0.2143,-1.2814 Z" stroke-linecap="round" fill="#9398b0"/></g></g><g transform="matrix(1, 0, 0, 1, 2567.8511, 30246.9145) scale(0.9561125023199899, 0.9561125023199899)" opacity="1"><g transform="scale(1.0459020225899336)"><path d="M1.1179,-1.8619 T2.2344,-1.1471 4.6517,1.4211 6.2395,4.7453 5.857,7.8672 4.1988,10.5084 2.5568,11.9962 1.9037,12.4938 A1.8864,1.8864 0 0 1 -0.1239,9.3121 T0.0216,9.3007 1.3239,7.5472 1.8258,4.4761 0.0266,2.5046 -1.1179,1.8619 A2.1718,2.1718 0 0 1 1.1179,-1.8619 ZM1.5034,9.119 T1.9796,9.2696 4.0117,9.4245 7.5695,9.4516 9.5714,9.4743 A1.9957,1.9957 0 0 1 9.5486,13.4657 T7.5181,13.4653 3.5967,13.3349 0.991,12.9458 0.2763,12.6868 A1.8864,1.8864 0 0 1 1.5034,9.119 Z" stroke-linecap="round" fill="#9398b0"/></g></g><g transform="matrix(1, 0, 0, 1, 2588.8856, 30196.2406) scale(0.9561125023199899, 0.9561125023199899)" opacity="1"><g transform="scale(1.0459020225899336)"><path d="M1.4379,-0.2405 T1.6832,1.1141 2.1479,5.0151 2.4119,9.9738 2.4567,12.3861 A1.4974,1.4974 0 0 1 -0.5367,12.4739 T-0.6325,10.0931 -0.8743,5.3369 -1.2292,1.601 -1.4379,0.2405 A1.4579,1.4579 0 0 1 1.4379,-0.2405 Z" stroke-linecap="round" fill="#9398b0"/></g></g><g transform="matrix(1, 0, 0, 1, 2589.8417, 30231.6167) scale(0.9561125023199899, 0.9561125023199899)" opacity="1"><g transform="scale(1.0459020225899336)"><path d="M1.4537,0.7269 T0.7999,2.0972 -1.2911,5.5078 -4.0529,9.4653 -5.3776,11.3825 A1.5704,1.5704 0 0 1 -8.0024,9.6575 T-6.6813,7.5489 -4.1107,3.7014 -2.1574,0.6178 -1.4537,-0.7269 A1.6253,1.6253 0 0 1 1.4537,0.7269 Z" stroke-linecap="round" fill="#9398b0"/></g></g><g transform="matrix(1, 0, 0, 1, 2581.2367, 30228.7484) scale(0.9561125023199899, 0.9561125023199899)" opacity="1"><g transform="scale(1.0459020225899336)"><path d="M1.4453,-1.0859 T2.1289,-0.1857 4.0165,2.6723 5.9753,6.5457 7.5016,9.6409 9.6205,12.4459 10.9678,14.0715 A1.8685,1.8685 0 0 1 8.1522,16.5285 T6.5874,14.817 4.05,11.4353 2.5185,8.1186 0.9312,4.6857 -0.7713,1.9926 -1.4453,1.0859 A1.8078,1.8078 0 0 1 1.4453,-1.0859 Z" stroke-linecap="round" fill="#9398b0"/></g></g><g transform="matrix(1, 0, 0, 1, 2590.7978, 30244.0462) scale(0.9561125023199899, 0.9561125023199899)" opacity="1"><g transform="scale(1.0459020225899336)"><path d="M1.6351,-0.2735 T1.8661,1.0836 2.2284,3.8995 2.4736,5.8413 2.5877,6.3243 A1.6683,1.6683 0 0 1 -0.6677,7.0557 T-0.9283,5.0226 -1.412,1.6314 -1.6351,0.2735 A1.6578,1.6578 0 0 1 1.6351,-0.2735 ZM-0.6651,6.3128 T-0.3904,5.2571 1.2417,2.4508 4.4216,0.8323 7.1027,2.4697 8.5799,6.0166 9.1983,8.0581 A1.6437,1.6437 0 0 1 6.1017,9.1619 T5.8065,8.3281 4.1838,6.5685 2.7208,6.3549 2.5851,7.0672 A1.6683,1.6683 0 0 1 -0.6651,6.3128 Z" stroke-linecap="round" fill="#9398b0"/></g></g><g transform="matrix(1, 0, 0, 1, 2600.359, 30247.8707) scale(0.9561125023199899, 0.9561125023199899)" opacity="1"><g transform="scale(1.0459020225899336)"><path d="M0.3017,-1.502 T1.4266,-1.3008 4.5397,-1.3411 6.5278,-1.5825 A1.5908,1.5908 0 0 1 6.8522,1.5825 T4.4113,1.7952 0.8343,1.7549 -0.3017,1.502 A1.532,1.532 0 0 1 0.3017,-1.502 Z" stroke-linecap="round" fill="#9398b0"/></g></g><g transform="matrix(1, 0, 0, 1, 2611.8323, 30242.134) scale(0.9561125023199899, 0.9561125023199899)" opacity="1"><g transform="scale(1.0459020225899336)"><path d="M1.5996,-0.6392 T2.0658,0.4873 2.7546,4.0795 2.642,8.6362 2.0168,11.8054 1.7269,12.8836 A1.7855,1.7855 0 0 1 -1.7269,11.9764 T-1.4495,10.8949 -0.8935,8.0022 -0.6701,4.5496 -1.1624,1.7736 -1.5996,0.6392 A1.7226,1.7226 0 0 1 1.5996,-0.6392 Z" stroke-linecap="round" fill="#9398b0"/></g></g><g transform="matrix(1, 0, 0, 1, 2237.0362, 30228.7484) scale(0.9561125023199899, 0.9561125023199899)" opacity="1"><g transform="scale(1.0459020225899336)"><path d="M-0.3557,2.1265 T-1.6944,1.8851 -4.7883,2.3431 -6.9291,4.7497 -5.7619,6.9113 -3.3373,6.1661 -2.3349,3.7647 -2.2043,2.5632 A2.2255,2.2255 0 0 1 2.2043,3.1768 T1.9297,4.8873 0.5114,8.316 -2.3114,10.7694 -5.4952,11.3374 -8.8799,10.1649 -11.1093,7.5593 -10.8902,4.491 -9.4554,1.3848 -7.0889,-1.2336 -3.9928,-2.3829 -1.0207,-2.3392 0.3557,-2.1265 A2.1561,2.1561 0 0 1 -0.3557,2.1265 ZM1.9122,4.0086 T1.6645,4.402 2.1359,6.2127 3.9561,8.5315 6.3838,9.8198 9.7385,10.5584 11.7664,10.9099 A2.4977,2.4977 0 0 1 11.1736,15.8701 T10.2743,15.7834 7.5577,15.363 3.8895,14.2706 0.578,12.2658 -1.768,8.9346 -2.7449,5.0892 -2.3743,2.5301 -1.9122,1.7314 A2.2255,2.2255 0 0 1 1.9122,4.0086 Z" stroke-linecap="round" fill="#e599f7"/></g></g><g transform="matrix(1, 0, 0, 1, 2625.2179, 30220.1434) scale(0.9561125023199899, 0.9561125023199899)" opacity="1"><g transform="scale(1.0459020225899336)"><path d="M1.9452,-0.3253 T2.1654,1.0335 2.5792,4.7298 2.833,8.9965 2.6691,12.3614 2.0301,16.3728 0.9464,20.2277 0.2775,21.507 A1.9894,1.9894 0 0 1 -3.2139,19.5989 T-2.4765,17.7799 -1.3952,13.4683 -1.0926,9.137 -1.3056,5.168 -1.7113,1.6816 -1.9452,0.3253 A1.9722,1.9722 0 0 1 1.9452,-0.3253 ZM-3.4554,20.4602 T-3.3043,19.2832 -2.1906,16.3875 -0.3504,13.4734 1.9194,10.7512 4.0082,8.7923 4.7049,8.3602 A1.9965,1.9965 0 0 1 6.5946,11.8776 T5.5002,12.8417 3.3857,15.2222 1.3634,18.2726 0.4401,20.2762 0.519,20.6458 A1.9894,1.9894 0 0 1 -3.4554,20.4602 ZM6.1163,8.1777 T6.8223,8.4121 8.7682,10.0915 11.4491,12.9715 13.1834,15.9493 12.6527,19.2131 10.887,21.9506 7.9258,23.8899 3.4647,24.3968 0.0565,23.491 -0.9099,23.0012 A2.171,2.171 0 0 1 0.9099,19.0588 T2.2819,19.7611 5.3816,19.9925 8.159,18.6176 8.3395,16.1804 6.8262,13.409 5.6826,12.1154 5.1832,12.0601 A1.9965,1.9965 0 0 1 6.1163,8.1777 Z" stroke-linecap="round" fill="#f76707"/></g></g><g transform="matrix(1, 0, 0, 1, 2623.3057, 30218.2312) scale(0.9561125023199899, 0.9561125023199899)" opacity="1"><g transform="scale(1.0459020225899336)"><path d="M3.1563,-0.4365 T3.3653,0.6972 3.762,3.4238 4.0111,7.0021 4.098,11.0285 4.1354,14.672 4.1518,18.2383 3.7145,21.7934 3.2727,23.3845 A2.2566,2.2566 0 0 1 -1.0749,22.1736 T-0.7064,21.15 -0.3356,18.2038 -0.3291,14.6862 -0.3273,11.074 -0.3688,7.2432 -0.5816,4.0602 -0.9959,1.5638 -1.2363,0.4365 A2.2393,2.2393 0 0 1 3.1563,-0.4365 ZM-1.1524,22.9324 T-1.2028,22.1545 -0.9792,19.605 -0.1646,16.304 1.2805,13.4151 3.9702,10.9188 8.0552,9.8251 11.6056,10.7676 13.8698,12.8895 15.5674,15.7229 16.1737,19.346 14.916,23.5628 12.393,26.9597 8.729,28.9166 4.0074,28.8294 0.7092,27.3525 -0.1884,26.7272 A2.1921,2.1921 0 0 1 2.1084,22.9928 T3.795,23.9217 7.2197,24.3073 9.9392,22.68 11.3284,20.1948 11.23,17.4054 9.6699,14.9315 7.1318,14.4036 4.7487,16.4675 3.5501,19.6042 3.3003,21.9303 3.3503,22.6258 A2.2566,2.2566 0 0 1 -1.1524,22.9324 Z" stroke-linecap="round" fill="#f76707"/></g></g><g transform="matrix(1, 0, 0, 1, 2644.3401, 30236.3973) scale(0.9561125023199899, 0.9561125023199899)" opacity="1"><g transform="scale(1.0459020225899336)"><path d="M-1.051,-1.3989 T-0.1657,-2.1058 2.2849,-3.5294 6.1413,-4.4466 8.4323,-4.6471 A1.7859,1.7859 0 0 1 8.7877,-1.0929 T7.6829,-0.9587 4.7362,-0.3634 1.9726,0.7483 1.051,1.3989 A1.7497,1.7497 0 0 1 -1.051,-1.3989 Z" stroke-linecap="round" fill="#f76707"/></g></g><g transform="matrix(1, 0, 0, 1, 2646.2524, 30240.2218) scale(0.9561125023199899, 0.9561125023199899)" opacity="1"><g transform="scale(1.0459020225899336)"><path d="M-0.1964,-1.3687 T1.3848,-1.6028 4.7279,-2.096 6.4898,-2.3552 A1.4095,1.4095 0 0 1 6.8902,0.4352 T5.1265,0.6819 1.7796,1.1487 0.1964,1.3687 A1.3828,1.3828 0 0 1 -0.1964,-1.3687 Z" stroke-linecap="round" fill="#f76707"/></g></g><g transform="matrix(1, 0, 0, 1, 2671.1113, 30226.8362) scale(0.9561125023199899, 0.9561125023199899)" opacity="1"><g transform="scale(1.0459020225899336)"><path d="M1.844,0.5265 T1.3982,2.1116 -0.0238,5.9152 -1.9347,9.9602 -3.9297,13.4147 -5.9965,16.5069 -8.8257,18.921 -10.6485,19.8712 A1.8891,1.8891 0 0 1 -12.2915,16.4688 T-11.1413,15.9833 -9.0854,14.0899 -7.3319,11.433 -5.5152,8.3328 -3.6528,4.5568 -2.3016,1.0528 -1.844,-0.5265 A1.9176,1.9176 0 0 1 1.844,0.5265 Z" stroke-linecap="round" fill="#f76707"/></g></g><g transform="matrix(1, 0, 0, 1, 2661.5502, 30230.6606) scale(0.9561125023199899, 0.9561125023199899)" opacity="1"><g transform="scale(1.0459020225899336)"><path d="M1.95,-0.6489 T2.4107,0.7055 3.7886,4.196 5.2105,7.616 7.268,10.2585 8.8207,11.617 A2.1246,2.1246 0 0 1 6.4793,15.163 T4.6794,13.8492 1.8601,10.2846 -0.112,5.7019 -1.5073,2.0095 -1.95,0.6489 A2.0551,2.0551 0 0 1 1.95,-0.6489 Z" stroke-linecap="round" fill="#f76707"/></g></g><g transform="matrix(1, 0, 0, 1, 2669.1991, 30245.0023) scale(0.9561125023199899, 0.9561125023199899)" opacity="1"><g transform="scale(1.0459020225899336)"><path d="M1.9541,-0.3268 T2.1888,1.0295 2.3833,4.7522 2.343,7.1186 A2.0148,2.0148 0 0 1 -1.6122,6.3484 T-1.5638,4.6963 -1.7348,1.6855 -1.9541,0.3268 A1.9812,1.9812 0 0 1 1.9541,-0.3268 ZM0.2184,4.7241 T0.3591,4.7151 0.4999,4.7062 A2.0121,2.0121 0 0 1 0.7934,8.7197 T0.6529,8.7313 0.5124,8.7429 A2.0148,2.0148 0 0 1 0.2184,4.7241 ZM-1.1973,5.9077 T-0.8871,5.2259 0.573,3.2581 3.7084,0.8007 7.6674,0.3873 10.0311,2.7334 10.4984,6.4831 10.5889,9.5716 10.6022,10.4984 A1.9924,1.9924 0 0 1 6.6178,10.5416 T6.6055,8.7955 6.2704,5.2118 4.5065,4.7597 2.7779,6.8316 2.4906,7.5182 A2.0121,2.0121 0 0 1 -1.1973,5.9077 Z" stroke-linecap="round" fill="#f76707"/></g></g><g transform="matrix(1, 0, 0, 1, 2190.6648, 30230.1826) scale(0.9561125023199899, 0.9561125023199899)" opacity="1"><g transform="scale(1.0459020225899336)"><path d="M1.702,1.0219 T1.0145,2.1471 -0.8321,5.1414 -3.3292,8.7034 -6.1202,11.5658 -8.0344,13.1367 -8.4955,13.5381 A1.9113,1.9113 0 0 1 -10.8292,10.5105 T-9.9216,9.8569 -7.9213,8.3092 -6.0089,6.1164 -4.1156,3.0336 -2.372,0.1138 -1.702,-1.0219 A1.9852,1.9852 0 0 1 1.702,1.0219 ZM-10.6998,13.6295 T-10.9035,13.4997 -11.1071,13.3699 A1.9143,1.9143 0 0 1 -9.0289,10.1544 T-8.8269,10.2868 -8.6249,10.4191 A1.9113,1.9113 0 0 1 -10.6998,13.6295 ZM-11.272,10.2738 T-10.9304,10.0084 -9.6859,8.6434 -7.4682,6.6285 -4.9135,4.4678 -2.6354,2.0157 -0.2682,-0.7788 1.0607,-2.3667 A2.0249,2.0249 0 0 1 3.8327,0.5858 T3.4701,0.8372 2.2311,2.2899 0.4426,4.5268 -1.7117,6.8981 -4.232,8.8837 -6.7125,10.9971 -8.3894,12.8555 -8.864,13.2504 A1.9143,1.9143 0 0 1 -11.272,10.2738 ZM4.2755,-1.7598 T4.3782,-1.5505 4.4809,-1.3411 A2.0307,2.0307 0 0 1 0.8129,0.4026 T0.7154,0.1907 0.6179,-0.0211 A2.0249,2.0249 0 0 1 4.2755,-1.7598 ZM4.3398,0.6522 T3.8165,1.4542 2.4055,3.6707 0.5738,6.4647 -1.2898,8.9057 -3.5656,11.0476 -5.7194,12.6236 -6.5171,13.1194 A2.001,2.001 0 0 1 -8.7829,9.8206 T-7.0823,8.4242 -4.3471,5.8689 -2.4994,3.5507 -0.8244,1.08 0.4957,-0.911 0.9541,-1.5908 A2.0307,2.0307 0 0 1 4.3398,0.6522 Z" stroke-linecap="round" fill="#e599f7"/></g></g><g transform="matrix(1, 0, 0, 1, 2176.3231, 30225.402) scale(0.9561125023199899, 0.9561125023199899)" opacity="1"><g transform="scale(1.0459020225899336)"><path d="M0.9628,-1.9257 T1.8556,-1.4506 4.2112,0.0939 6.8053,2.7607 9.0174,5.7275 10.6953,8.7822 11.9349,11.7851 13.2707,14.6834 15.5393,16.1729 17.1148,16.0818 A2.0904,2.0904 0 0 1 17.3052,20.2582 T16.4401,20.3078 13.4652,19.8035 10.2434,17.5297 8.5732,14.375 7.5179,11.345 6.0576,8.5771 4.1185,5.8938 2.004,3.5827 -0.0487,2.354 -0.9628,1.9257 A2.153,2.153 0 0 1 0.9628,-1.9257 Z" stroke-linecap="round" fill="#e599f7"/></g></g><g transform="matrix(1, 0, 0, 1, 2200.2259, 30247.3926) scale(0.9561125023199899, 0.9561125023199899)" opacity="1"><g transform="scale(1.0459020225899336)"><path d="M0,2.1501 T-0.8705,2.1336 -2.1608,3.589 -0.6506,5.2545 2.6469,5.2294 3.1645,3.7457 1.2557,1.258 -0.5397,-0.7958 -1.276,-1.627 A1.7814,1.7814 0 0 1 1.276,-4.113 T2.8366,-2.6624 5.3979,-0.1663 7.3408,2.6697 7.4051,6.4605 4.4498,9.1032 0.9095,9.6839 -2.1797,9.3153 -4.974,7.9189 -6.3942,5.0301 -5.7794,1.5282 -3.4194,-1.1458 -0.9632,-2.1336 0,-2.1501 A2.1501,2.1501 0 0 1 0,2.1501 Z" stroke-linecap="round" fill="#e599f7"/></g></g><g transform="matrix(1, 0, 0, 1, 2240.3826, 30040.8723) scale(0.9561125023199899, 0.9561125023199899)" opacity="1"><g transform="scale(1.0459020225899336)"><path d="M-0.5036,-0.7318 T-0.0432,-1.6316 1.4434,-3.9602 3.5099,-6.9535 5.5439,-9.9232 7.4644,-12.8077 9.3798,-16.1456 11.1758,-19.1626 13.0591,-22.0293 15.1136,-24.8287 16.9904,-27.3184 18.8303,-30.1621 20.7366,-32.9984 22.6132,-35.4351 24.5034,-37.8471 26.3265,-40.5247 28.1441,-42.963 30.1027,-45.5516 32.0239,-48.0249 34.3615,-50.485 36.7398,-53.3432 39.1173,-56.2455 41.9326,-59.1969 44.9731,-61.6282 48.0975,-63.2149 51.1751,-64.3834 54.2058,-65.4458 57.2046,-66.1283 60.2049,-66.3588 63.1296,-66.4421 66.3339,-65.7309 69.9552,-63.5212 73.1653,-60.6716 75.7067,-57.4014 77.5695,-54.0253 79.0198,-51.2444 80.604,-48.625 82.0009,-45.8539 83.5122,-42.9211 84.9893,-40.0352 86.5017,-36.7962 88.518,-32.972 90.8125,-29.1417 93.0169,-26.1462 94.7678,-23.4839 96.3113,-20.6821 98.0076,-17.6959 99.9276,-14.3611 101.9162,-11.3494 104.2394,-7.7456 106.5233,-4.3306 108.3663,-1.8453 110.2464,0.5493 112.2239,3.0353 114.1981,5.8495 116.4814,8.7138 119.2221,11.6059 121.7286,14.548 124.1079,17.3984 126.7567,19.7121 129.122,21.63 131.2154,23.5339 133.5399,25.4463 136.141,27.3089 138.9151,29.1851 141.6475,30.6473 144.9001,31.9915 148.4647,33.3818 151.6279,34.4162 154.8329,35.3654 158.0398,35.9615 161.0894,36.1499 164.9977,35.8617 169.2817,34.888 172.6017,33.7675 175.4192,32.6266 178.1455,31.0669 180.9091,28.887 183.5845,26.1767 186.339,23.2908 188.7764,20.6608 190.7677,18.3858 193.1535,15.9227 195.9676,13.342 198.6803,11.0304 200.8731,8.6882 203.338,5.834 206.1586,2.694 208.9436,-0.401 211.8485,-3.4104 214.6801,-6.4029 217.4908,-9.387 220.2731,-12.5503 223.0066,-15.9361 225.3057,-18.6972 227.1822,-20.8042 229.8482,-23.3617 232.5974,-26.1265 235.0395,-28.8222 237.8789,-31.7297 240.2926,-34.4977 242.6936,-37.3446 245.4159,-40.2028 247.8891,-42.7226 250.4165,-45.2736 253.1899,-48.0605 256.4153,-51.0484 259.5271,-54.103 262.7213,-57.1825 266.4466,-60.5316 269.3731,-63.1205 272.4214,-65.4761 276.2921,-68.4546 279.6256,-71.1091 282.431,-73.1183 285.4902,-74.9826 288.6948,-76.9616 292.0833,-78.9356 295.7206,-80.8281 299.1306,-82.2316 302.2454,-83.2912 305.7251,-84.3132 309.3763,-84.987 312.5375,-85.1759 315.4889,-85.2236 318.6066,-85.2409 322.7359,-84.9616 326.6482,-84.1644 329.6725,-83.2254 332.7888,-81.7965 335.7906,-79.791 338.3833,-77.9777 340.8717,-76.0383 343.4717,-74.0819 346.3117,-72.2172 349.3665,-70.2141 352.2232,-68.6579 355.2935,-67.263 358.5523,-65.4746 362.0374,-63.5309 365.309,-62.1931 368.2559,-61.2071 371.4677,-60.5528 374.5997,-60.1084 378.0819,-59.6226 382.2384,-59.9146 385.9628,-60.5105 389.2472,-60.9803 392.8655,-61.6132 396.2444,-62.4321 399.3205,-63.194 401.6977,-63.7879 402.4863,-64.0596 A3.0368,3.0368 0 0 1 404.4737,-58.3204 T403.686,-58.0462 400.8953,-57.3465 396.9391,-56.3643 392.631,-55.4215 388.6859,-54.6518 385.2448,-54.1503 381.6484,-53.6998 378.2858,-53.4244 374.751,-53.9091 371.1112,-54.4227 367.9841,-55.0736 364.3924,-56.1846 360.4322,-57.5453 357.4565,-59.0572 354.9239,-60.5784 352.1345,-61.963 348.793,-63.5115 345.4681,-65.4566 342.5423,-67.365 339.7471,-69.1992 337.3061,-71.0645 334.6768,-73.1559 331.894,-75.1179 329.431,-76.7324 326.62,-78.0325 323.3176,-78.8903 320.0951,-79.2101 317.1177,-79.2089 313.554,-79.1737 309.7934,-78.9682 306.7123,-78.3883 303.7974,-77.485 300.8148,-76.454 298.0508,-75.2978 295.2378,-73.7931 291.9467,-71.8607 288.4988,-69.7175 285.0102,-67.3777 281.6093,-64.9478 278.0725,-62.3228 274.3376,-59.4055 270.5668,-56.0855 266.9369,-52.8431 263.5426,-49.6134 260.3557,-46.4964 257.4478,-43.7994 254.6738,-41.0355 252.1455,-38.5108 249.7078,-36.0475 247.1786,-33.4114 244.7368,-30.5245 242.1448,-27.5573 239.3913,-24.7425 236.606,-21.753 233.8259,-18.966 230.8057,-15.9107 228.2458,-12.8856 226.0384,-10.2306 223.1664,-6.9196 220.3019,-3.7231 217.6026,-0.7323 214.8157,2.3242 212.0495,5.2612 209.269,8.215 206.5139,11.1227 203.7034,14.1999 200.9861,16.7383 198.6105,18.7878 196.2905,21.1434 194.1242,23.4433 191.8352,25.815 189.4698,28.5151 187.4178,30.9098 185.3501,32.8913 182.9128,34.9608 180.2648,36.8697 177.5861,38.2776 174.7507,39.3164 171.8231,40.265 168.3273,41.1782 164.4184,41.8929 160.8371,42.1352 157.7743,41.9686 155.0299,41.4273 151.815,40.6681 148.3336,39.7832 144.9682,38.5625 141.4023,37.1341 138.0711,35.6557 135.0375,33.9957 132.1511,32.0448 129.3056,29.9406 126.3902,27.4849 123.8601,25.1166 121.4296,23.113 119.1507,21.0833 117.2156,18.818 115.2917,16.4779 113.3566,14.3644 111.3219,12.148 109.3449,9.5804 107.0883,6.4763 104.7737,3.3182 102.7948,0.7688 100.8241,-2.225 98.7832,-5.4211 96.8383,-7.9907 95.0243,-10.7747 93.121,-14.1178 91.2345,-17.4333 89.4524,-20.5342 87.5443,-23.7078 85.4329,-26.8001 83.5478,-29.9169 81.8051,-33.4396 79.9534,-37.5373 78.1015,-41.3473 76.6223,-44.3444 75.1575,-47.1976 73.2665,-50.7465 71.4763,-54.2554 69.7139,-56.7313 67.7436,-59.0361 65.0038,-60.9755 61.8951,-61.6488 58.7186,-61.5973 55.4734,-61.0743 52.4337,-60.1186 49.1385,-58.9961 45.9095,-57.0842 42.9989,-54.4057 40.5218,-51.8043 38.5348,-49.4122 36.2347,-46.8288 33.7634,-44.2128 31.4077,-41.3159 28.9848,-37.9989 26.9898,-35.2058 25.0727,-32.841 22.8478,-30.0897 20.7457,-27.1433 18.9828,-24.462 17.2186,-22.1285 15.519,-19.8372 13.6782,-17.0897 11.7355,-13.9196 10.0003,-10.8699 8.0541,-7.9821 5.99,-4.9584 4.1508,-2.255 2.8666,-0.1752 2.4236,0.7318 A1.6364,1.6364 0 0 1 -0.5036,-0.7318 Z" stroke-linecap="round" fill="#4dabf7"/></g></g><g transform="matrix(1, 0, 0, 1, 2267.1538, 30191.9381) scale(0.9561125023199899, 0.9561125023199899)" opacity="1"><g transform="scale(1.0459020225899336)"><path d="M-1.2522,0 T-1.2507,-1.1305 -1.2507,-3.9691 -1.2532,-7.4127 -1.4617,-10.626 -1.87,-14.4061 -2.3268,-18.5848 -2.7913,-22.2616 -3.0584,-25.8411 -3.1333,-29.2654 -3.159,-32.8573 -3.1717,-37.1898 -3.1753,-41.275 -2.9296,-44.9724 -2.5157,-48.4243 -1.9422,-51.5341 -1.4415,-55.3647 -1.065,-59.6017 -0.6163,-63.324 -0.4008,-67.1759 0.0026,-71.6436 0.4498,-75.7739 0.56,-79.3946 0.5772,-83.0336 0.8146,-86.9637 1.213,-90.4803 1.4175,-94.286 1.7225,-98.7437 2.1402,-102.5185 2.3379,-106.0266 2.3832,-109.7695 2.7281,-114.2088 3.1534,-119.2432 3.6074,-123.5557 4.0595,-127.1641 4.1606,-130.4996 4.5253,-133.6067 4.958,-137.6043 5.0453,-141.4886 5.0335,-145.0991 5.0022,-149.2075 4.9672,-153.0738 4.9389,-156.5635 4.9131,-160.1152 4.8836,-163.5188 4.8544,-166.8724 4.8314,-170.2221 4.8131,-173.0666 4.7928,-176.4293 4.4642,-179.7511 3.9909,-183.1016 3.8107,-186.4791 3.4428,-189.6338 2.963,-193.133 2.826,-194.891 A1.9604,1.9604 0 0 1 6.734,-195.209 T6.9593,-193.1527 7.4504,-188.8844 7.7517,-184.74 8.1817,-181.4218 8.5838,-178.5784 8.5799,-175.1677 8.5591,-171.7891 8.5407,-168.963 8.5144,-165.6134 8.484,-162.2522 8.4568,-158.7958 8.4295,-155.0631 8.3982,-151.4427 8.3602,-147.5367 8.3147,-143.5845 8.2448,-139.6802 8.0839,-136.2267 7.5971,-132.4977 7.1584,-128.6004 6.8537,-124.9324 6.3569,-121.1167 6.0247,-117.8777 5.5913,-114.0625 5.2064,-109.7313 5.1206,-105.9044 4.8462,-102.0511 4.4168,-98.3532 4.1424,-94.1645 3.8785,-90.0649 3.4519,-86.6471 3.2157,-83.0162 3.1624,-79.3257 3.0186,-75.5886 2.5514,-71.4858 2.133,-67.0571 1.8598,-62.8763 1.4107,-59.2059 1.0515,-55.0845 0.538,-51.1935 -0.0439,-48.0311 -0.4407,-44.6788 -0.6435,-41.2756 -0.6442,-37.1919 -0.6462,-32.868 -0.6335,-29.3006 -0.5701,-25.9801 -0.3391,-22.6723 0.137,-18.9577 0.5964,-14.7995 1.0076,-10.9442 1.2532,-7.4127 1.2507,-3.9691 1.2507,-1.1305 1.2522,0 A1.2522,1.2522 0 0 1 -1.2522,0 Z" stroke-linecap="round" fill="#40c057"/></g></g><g transform="matrix(1, 0, 0, 1, 2318.7838, 30195.7625) scale(0.9561125023199899, 0.9561125023199899)" opacity="1"><g transform="scale(1.0459020225899336)"><path d="M-1.3827,0 T-1.3807,-1.3575 -1.3765,-4.6046 -1.3761,-8.3998 -1.3794,-12.2141 -1.3819,-16.0362 -1.3852,-19.6357 -1.3927,-23.0513 -1.4034,-26.416 -1.4166,-29.7664 -1.6237,-32.8972 -2.0439,-36.4291 -2.3211,-40.6154 -2.3984,-44.6408 -2.4312,-48.2942 -2.4504,-51.7251 -2.463,-55.0955 -2.4777,-59.0213 -2.4899,-63.4444 -2.4928,-67.6735 -2.4916,-71.3861 -2.4887,-74.8807 -2.4892,-78.2672 -2.4963,-81.5775 -2.5087,-85.1412 -2.5238,-88.4296 -2.5442,-91.7589 -2.5739,-95.6709 -2.6034,-100.2098 -2.3489,-104.3926 -1.9483,-107.7402 -1.7774,-111.3882 -1.7327,-115.171 -1.4631,-118.5365 -1.0531,-121.554 -0.8636,-124.3446 -0.8181,-127.98 -0.4709,-132.2935 -0.0385,-136.0307 0.0801,-139.704 0.1135,-143.653 0.1123,-147.4954 0.0952,-151.3785 0.0725,-155.2723 0.0547,-158.8893 0.0445,-162.4295 0.0351,-165.8287 0.0164,-169.1488 -0.0101,-172.4868 -0.0376,-175.5269 -0.0635,-178.9715 -0.0808,-182.3465 -0.0872,-185.6756 -0.5578,-189.7402 -1.0268,-191.8781 A2.0096,2.0096 0 0 1 2.9468,-192.4819 T3.0785,-191.6138 3.5596,-189.2146 3.9072,-185.7162 3.9008,-182.3465 3.8835,-178.9715 3.8576,-175.5269 3.8301,-172.4868 3.8036,-169.1488 3.7849,-165.8287 3.7755,-162.4295 3.7653,-158.8893 3.7474,-155.2722 3.7245,-151.3782 3.7059,-147.4934 3.6941,-143.6399 3.655,-139.6256 3.5176,-135.7767 3.0632,-132.0856 2.688,-127.912 2.603,-124.1368 2.3228,-120.9126 1.8958,-117.2933 1.6527,-113.3452 1.5064,-109.3915 1.046,-105.0552 0.6834,-100.2098 0.6539,-95.6709 0.6242,-91.7589 0.6038,-88.4296 0.5887,-85.1412 0.5763,-81.5775 0.5692,-78.2672 0.5687,-74.8807 0.5716,-71.3861 0.5729,-67.6736 0.57,-63.4444 0.558,-59.0215 0.5441,-55.0964 0.5343,-51.7285 0.5251,-48.3044 0.5283,-44.6737 0.5806,-40.7226 0.7703,-36.9449 1.1696,-33.3312 1.4166,-29.7664 1.4034,-26.416 1.3927,-23.0513 1.3852,-19.6357 1.3819,-16.0362 1.3794,-12.2141 1.3761,-8.3998 1.3765,-4.6046 1.3807,-1.3575 1.3827,0 A1.3827,1.3827 0 0 1 -1.3827,0 Z" stroke-linecap="round" fill="#40c057"/></g></g><g transform="matrix(1, 0, 0, 1, 2299.6616, 29977.7689) scale(0.9561125023199899, 0.9561125023199899)" opacity="1"><g transform="scale(1.0459020225899336)"><path d="M0,-2.5535 T0.48,-2.5529 0.96,-2.5522 A1.5922,1.5922 0 0 1 0.96,0.6322 T0.48,0.6329 0,0.6335 A1.5935,1.5935 0 0 1 0,-2.5535 ZM0.96,0.6322 T0.5997,0.6317 0.2393,0.6313 A1.5913,1.5913 0 0 1 0.2393,-2.5513 T0.5997,-2.5517 0.96,-2.5522 A1.5922,1.5922 0 0 1 0.96,0.6322 ZM-1.3037,-0.5713 T-1.3606,-0.7959 -1.4175,-1.0205 A1.5918,1.5918 0 0 1 1.6697,-1.7982 T1.726,-1.5734 1.7823,-1.3487 A1.5913,1.5913 0 0 1 -1.3037,-0.5713 ZM-0.3915,-2.9147 T0.1313,-3.1043 0.6541,-3.2939 A1.6104,1.6104 0 0 1 1.7014,-0.248 T1.1726,-0.076 0.6437,0.096 A1.5918,1.5918 0 0 1 -0.3915,-2.9147 ZM2.666,-2.3863 T2.8465,-1.9705 3.027,-1.5547 A1.6263,1.6263 0 0 1 0.0212,-0.3119 T-0.1446,-0.7337 -0.3105,-1.1556 A1.6104,1.6104 0 0 1 2.666,-2.3863 ZM2.7909,0.0865 T2.4257,0.5304 1.654,1.4693 1.2475,1.9642 A1.6015,1.6015 0 0 1 -1.2475,-0.0442 T-0.8508,-0.5471 -0.0984,-1.5015 0.2573,-1.9531 A1.6263,1.6263 0 0 1 2.7909,0.0865 Z" stroke-linecap="round" fill="#f76707"/></g></g><g transform="matrix(1, 0, 0, 1, 2300.6177, 29976.8128) scale(0.9561125023199899, 0.9561125023199899)" opacity="1"><g transform="scale(1.0459020225899336)"><path d="M0,0.96 Q0,3.1397 -0.2189,4.168 T-0.5568,6.1913 -0.7407,8.1629 -0.8407,9.8898 -0.8951,11.4836 -0.9247,13.005 -0.9408,14.487 -0.9496,15.9476 -0.9543,17.1776 -0.9569,18.4988 -0.9583,19.8719 -1.1757,21.2732 -1.5105,22.6899 -1.6927,23.8984 -1.7918,25.2101 -1.8457,26.5758 -1.875,27.9731 -1.891,29.3875 -1.8996,30.5925 -1.9044,31.9024 -1.9069,33.2693 -1.9083,34.6673 -1.9091,36.0798 -1.9095,37.2837 -1.9097,38.593 -1.9099,39.9597 -1.9099,41.3575 -1.91,42.7722 -1.91,44.1962 -1.91,45.6252 -1.91,46.8381 -1.91,48.15 -1.91,49.518 -1.91,50.9165 -1.91,52.3317 -1.91,53.5371 -1.91,54.8471 -1.91,56.2142 -1.91,57.6122 -1.91,59.0271 -1.91,60.2322 -1.91,61.5422 -1.91,62.9092 -1.91,64.3072 -1.91,65.7198 -1.91,67.1426 -1.91,68.571 -1.91,69.7835 -1.91,71.0975 -1.91,72.4666 -1.91,73.8658 -1.91,75.2813 -1.91,76.4868 -1.91,77.7947 -1.91,79.1606 -1.91,80.5579 -1.91,81.9725 -1.91,83.1775 -1.91,84.4873 -1.91,85.8543 -1.91,87.25 -1.91,88.6636 -1.91,89.8703 -1.91,91.1812 -1.91,92.5486 -1.6934,93.9469 -1.359,95.3596 -1.177,96.7825 -1.0781,98.2109 -1.0242,99.4235 -0.9949,100.7374 -0.979,102.1066 -0.9703,103.5058 -0.9656,104.919 -0.9631,106.1233 -0.9617,107.4328 -0.9609,108.7995 -0.9605,110.1974 -0.9603,111.6122 -0.9601,112.8173 -0.9601,114.1273 -0.96,115.4942 -0.96,116.8899 -0.96,118.3036 -0.96,119.7269 -0.96,121.1556 -0.96,122.3683 -0.96,123.6824 -0.96,125.0516 -0.96,126.4508 -0.96,127.8663 -0.96,129.0718 -0.96,130.382 -0.96,131.7491 -0.96,133.1471 -0.96,134.5598 -0.96,135.7637 -0.96,137.073 -0.96,138.4396 -0.96,139.6186 -0.96,140.9143 -0.96,142.2735 -0.96,143.4484 -0.7411,144.5253 -0.4032,145.5466 -0.2193,146.7543 -0.1193,148.5011 -0.0649,150.3246 -0.0353,151.7521 -0.0192,153.183 -0.0104,154.6157 -0.0057,156.0472 -0.0031,157.4803 -0.0017,158.6977 -0.0009,160.0143 -0.0005,161.3849 -0.0003,162.7849 -0.0001,164.1985 -0.0001,165.8385 0,167.6039 0,169.2186 0,170.7514 0,172.0207 0,173.3633 0,174.748 0,176.1557 0,177.5758 0,179.0027 0,180.4333 0,181.647 0,182.9617 0,184.3312 0,185.7283 0,187.1427 0,188.3499 0,189.6609 0,191.0262 0.2189,192.4233 0.5568,193.8377 0.7407,195.0426 0.8407,196.3524 0.8951,197.7193 0.9247,199.1173 0.9408,200.5321 0.9496,201.9561 0.9543,203.3829 0.9569,204.5945 0.9583,205.908 0.9591,207.2769 0.9595,208.676 0.9597,210.0914 0.9599,211.2969 0.9599,212.607 0.96,213.9741 0.96,215.3699 0.96,216.7835 0.96,217.9903 0.96,219.3012 0.96,220.6664 0.96,222.28 0.96,224.4562 L0.96,225.64 " stroke-linecap="round" fill="none" stroke="#f76707" stroke-width="2.8683375069599695" stroke-dasharray="0.1 5.736675013919939" stroke-dashoffset="0"/></g></g><g transform="matrix(1, 0, 0, 1, 2297.7494, 30211.0603) scale(0.9561125023199899, 0.9561125023199899)" opacity="1"><g transform="scale(1.0459020225899336)"><path d="M1.7737,0.7087 T1.3184,1.8378 -0.0811,5.3772 -1.9663,10.0383 -3.8771,14.4767 -5.4259,18.5711 -6.6114,22.1218 -7.6502,25.3822 -8.2338,28.3983 -8.7908,31.3703 -9.2835,34.4028 -9.3809,37.5168 -9.18,40.7709 -8.5558,44.1943 -7.3335,48.0834 -5.3201,52.0604 -2.6194,55.7368 0.6778,59.3794 4.1807,62.8784 7.0649,65.5981 10.068,68.4256 11.8896,70.1554 A2.0718,2.0718 0 0 1 9.1504,73.2646 T8.1615,72.457 5.4088,70.2737 2.4468,67.5337 -0.7492,64.3535 -4.5622,60.5034 -7.7598,56.3599 -10.3099,51.8005 -12.1836,47.1805 -13.2113,42.9971 -13.4951,39.157 -13.38,35.7646 -13.013,32.2334 -12.4164,28.8764 -11.6665,26.0508 -10.8172,22.8022 -9.6792,19.1882 -8.1628,15.2158 -6.4123,10.7016 -4.5302,6.2603 -3.142,2.8576 -2.2219,0.4232 -1.7737,-0.7087 A1.91,1.91 0 0 1 1.7737,0.7087 Z" stroke-linecap="round" fill="#f76707"/></g></g><g transform="matrix(1, 0, 0, 1, 2318.7838, 30283.7249) scale(0.9561125023199899, 0.9561125023199899)" opacity="1"><g transform="scale(1.0459020225899336)"><path d="M1.6481,0.6585 T1.1768,1.7794 0.0866,4.7539 -0.748,8.1097 -0.2977,10.8566 1.7706,11.9283 4.2801,10.9339 6.043,8.7347 7.0251,5.9912 7.3514,4.6254 A1.6861,1.6861 0 0 1 10.6883,4.1385 T10.3777,6.1376 9.3173,9.7951 7.5422,12.5874 5.0076,14.4791 1.7024,15.3228 -1.6017,14.3192 -3.725,11.2597 -3.9884,7.2551 -3.0746,3.4211 -2.0802,0.4815 -1.6481,-0.6585 A1.7748,1.7748 0 0 1 1.6481,0.6585 ZM10.6562,4.7887 T10.5287,5.2662 10.368,7.3322 11.7236,10.393 13.1124,11.8654 A1.6704,1.6704 0 0 1 11.7476,14.9146 T10.1368,14.0774 7.7222,11.1025 6.9825,7.1835 7.215,4.6886 7.3835,3.9752 A1.6861,1.6861 0 0 1 10.6562,4.7887 Z" stroke-linecap="round" fill="#f76707"/></g></g><g transform="matrix(1, 0, 0, 1, 2336.95, 30300.9349) scale(0.9561125023199899, 0.9561125023199899)" opacity="1"><g transform="scale(1.0459020225899336)"><path d="M1.6828,-0.2415 T1.9379,1.3417 2.1069,4.4068 1.8579,8.2468 1.6949,10.6049 A1.697,1.697 0 0 1 -1.6949,10.4351 T-1.654,9.1745 -1.449,5.6589 -1.4838,1.8227 -1.6828,0.2415 A1.7001,1.7001 0 0 1 1.6828,-0.2415 Z" stroke-linecap="round" fill="#f76707"/></g></g><g transform="matrix(1, 0, 0, 1, 2317.8277, 30005.4961) scale(0.9561125023199899, 0.9561125023199899)" opacity="1"><g transform="scale(1.0459020225899336)"><path d="M-0.6678,-1.6712 T0.4649,-2.1186 3.2431,-2.9754 5.622,-3.5258 6.3552,-3.6669 A1.7885,1.7885 0 0 1 7.0248,-0.1531 T4.9746,0.303 1.7961,1.2152 0.6678,1.6712 A1.7996,1.7996 0 0 1 -0.6678,-1.6712 ZM6.7135,-0.1217 T5.8656,-0.1136 3.1212,-0.1198 0.61,-0.1363 -0.0045,-0.1386 A1.7714,1.7714 0 0 1 0.0045,-3.6814 T0.6191,-3.6805 3.157,-3.6755 5.8734,-3.6848 6.6665,-3.6983 A1.7885,1.7885 0 0 1 6.7135,-0.1217 ZM0.0003,-3.6814 T0.8012,-3.6965 3.8242,-4.5556 6.0462,-5.3995 A1.7057,1.7057 0 0 1 7.3338,-2.2405 T6.405,-1.8257 3.5623,-0.7594 0.824,-0.1232 -0.0003,-0.1386 A1.7714,1.7714 0 0 1 0.0003,-3.6814 Z" stroke-linecap="round" fill="#ae3ec9"/></g></g><g transform="matrix(1, 0, 0, 1, 2316.8716, 30199.587) scale(0.9561125023199899, 0.9561125023199899)" opacity="1"><g transform="scale(1.0459020225899336)"><path d="M-1.5029,0.7515 T-1.9452,-0.1611 -2.808,-2.9451 -3.2285,-4.8166 A1.6225,1.6225 0 0 1 -0.0323,-5.3775 T0.2741,-3.9587 1.0418,-1.6457 1.5029,-0.7515 A1.6803,1.6803 0 0 1 -1.5029,0.7515 ZM-2.7643,-6.2576 T-2.3785,-6.634 -1.9926,-7.0105 A1.6218,1.6218 0 0 1 0.2741,-4.6905 T-0.1112,-4.3135 -0.4966,-3.9365 A1.6225,1.6225 0 0 1 -2.7643,-6.2576 ZM-0.1377,-7.3029 T0.5029,-6.9753 2.4557,-5.6023 3.9765,-3.9353 4.185,-3.3137 A1.6494,1.6494 0 0 1 1.0125,-2.4096 T0.15,-3.1975 -1.1467,-4.1918 -1.5808,-4.3981 A1.6218,1.6218 0 0 1 -0.1377,-7.3029 ZM3.3253,-1.3809 T2.4397,-0.9706 0.9552,-0.4273 0.3565,-0.2944 A1.6545,1.6545 0 0 1 -0.3565,-3.5256 T0.2426,-3.657 1.357,-4.0654 1.8723,-4.3424 A1.6494,1.6494 0 0 1 3.3253,-1.3809 Z" stroke-linecap="round" fill="#ae3ec9"/></g></g><g transform="matrix(1, 0, 0, 1, 2318.7838, 30008.3645) scale(0.9561125023199899, 0.9561125023199899)" opacity="1"><g transform="scale(1.0459020225899336)"><path d="M0,0 Q0,1.3087 0,1.8813 T0,3.2031 0,4.5765 0,6.1946 0,7.9481 0,9.5564 0,11.0856 0,12.5719 0,14.0325 0,15.2626 0,16.5861 0,17.9604 0,19.3624 0,20.7795 0,21.9858 0,23.2965 0,24.6638 0,26.0597 0,27.4734 0,28.6803 0,29.9911 0,31.3563 0,32.7534 0,34.1677 0,35.3726 0,36.6824 0,38.0493 0,39.4473 0,40.8621 0,42.2861 0,43.7129 0,44.9245 0,46.0214 0,47.2725 0,48.824 0,50.3224 0,51.573 0,52.9055 0,54.7201 0,56.5805 0,58.0304 0,59.4734 0,60.9106 -0.2189,62.3467 -0.5568,63.7823 -0.7407,65.2154 -0.8407,66.6493 -0.8951,67.8672 -0.9247,69.184 -0.9408,70.5525 -0.9496,71.9513 -0.9543,73.3666 -0.9569,74.572 -0.9583,75.8821 -0.9591,77.2491 -0.9595,78.6472 -0.9597,80.0621 -1.1765,81.2672 -1.511,82.5749 -1.6929,83.9407 -1.7919,85.338 -1.8458,87.188 -1.8751,89.0676 -2.1099,90.5256 -2.4565,91.9731 -2.645,93.415 -2.7476,94.6348 -2.8034,95.9527 -2.8338,97.324 -2.8503,98.7244 -2.8593,100.1383 -2.8642,101.5618 -2.8668,102.9905 -2.8683,104.2032 -2.8691,105.5173 -2.8695,106.8865 -2.8697,108.2858 -2.8698,109.7013 -2.8699,110.9068 -2.87,112.2147 -2.87,113.5806 -2.87,114.9779 -2.87,116.3925 -2.87,117.8164 -2.87,119.2453 -2.87,120.4581 -2.87,121.77 -2.87,123.138 -2.87,124.5365 -2.87,125.9517 -2.87,127.1593 -2.87,128.4706 -2.87,129.8361 -2.87,131.2332 -2.87,132.6476 -2.87,133.8526 -2.87,135.1624 -2.87,136.5293 -2.87,137.9273 -2.87,139.3398 -2.87,140.5437 -2.87,141.853 -2.87,143.2197 -2.87,144.6175 -2.87,146.4677 -2.87,148.3475 -2.87,149.8055 -2.87,151.2508 -2.87,152.6914 -2.87,154.1294 -2.87,155.5661 -2.87,156.7831 -2.87,158.0995 -3.0866,159.9078 -3.421,161.7624 -3.603,163.2068 -3.7019,164.647 -3.7558,166.0847 -3.7851,167.5213 -3.801,168.9548 -3.8097,170.389 -3.8144,171.8236 -3.8169,173.0395 -3.6017,173.9198 -3.2681,174.8342 -3.0865,175.9859 -2.9878,177.2669 -2.9341,178.6181 -2.9049,179.7886 -2.889,181.0774 -2.8803,182.4329 -2.6567,183.8247 -2.3162,185.2361 -2.131,186.4395 -2.0302,187.7484 -1.9754,189.1149 -1.9456,190.2937 -1.9225,191.5154 L-1.91,192.18 " stroke-linecap="round" fill="none" stroke="#ae3ec9" stroke-width="2.8683375069599695" stroke-dasharray="0.1 5.736675013919939" stroke-dashoffset="0"/></g></g><g transform="matrix(1, 0, 0, 1, 2313.0472, 30202.4553) scale(0.9561125023199899, 0.9561125023199899)" opacity="1"><g transform="scale(1.0459020225899336)"><path d="M1.2314,0.9252 T0.5507,1.8246 -1.1381,4.2576 -2.8651,6.9956 -4.4987,9.8891 -6.4301,13.3352 -8.0646,16.3624 -9.4953,19.3423 -10.9004,22.7844 -11.9267,26.3659 -12.5164,29.757 -13.1055,33.086 -13.5848,36.3182 -13.6354,39.7033 -13.297,43.4457 -12.3234,47.1907 -10.6345,50.0956 -8.4204,52.6029 -5.9845,55.1351 -3.4737,57.409 -1.3596,59.7578 0.8218,61.7538 3.366,63.5383 6.2134,64.9993 9.6205,66.5183 12.918,68.2063 15.8938,70.0935 18.8566,72.1315 21.5793,74.0514 24.2525,75.8653 27.3023,77.6915 30.3924,79.6482 33.3055,81.5496 36.5626,83.4618 39.7073,84.7973 42.6336,86.047 45.6227,87.9674 48.1009,90.0081 51.0356,92.4649 52.8865,93.9218 A2.1045,2.1045 0 0 1 50.3735,97.2982 T49.3017,96.5441 46.6829,94.5802 43.6111,92.1304 40.7587,90.122 37.7051,88.7575 34.6944,87.3951 31.9791,85.6629 29.114,83.731 26.2216,81.8067 22.8528,79.8173 19.3211,77.5099 16.3307,75.3498 13.7288,73.484 10.6166,71.4104 6.9569,69.5789 3.7371,68.1281 0.96,66.4581 -1.8077,64.3877 -4.6314,61.836 -7.5041,58.9596 -9.9256,56.4668 -12.0239,53.9085 -14.3632,50.6994 -15.9022,47.4686 -16.6082,44.5869 -16.9449,41.8009 -16.8856,38.3444 -16.7056,34.6001 -16.1719,31.3448 -15.4906,28.3276 -14.879,25.3409 -13.8468,21.8094 -12.3532,18.1684 -10.7179,14.8841 -8.9788,11.6506 -7.0874,8.2697 -5.3261,5.1906 -3.5728,2.4069 -1.9082,-0.0178 -1.2314,-0.9252 A1.5402,1.5402 0 0 1 1.2314,0.9252 Z" stroke-linecap="round" fill="#ae3ec9"/></g></g><g transform="matrix(1, 0, 0, 1, 2373.2823, 30291.3738) scale(0.9561125023199899, 0.9561125023199899)" opacity="1"><g transform="scale(1.0459020225899336)"><path d="M1.839,0 T1.8274,1.3607 1.459,5.2639 0.6627,10.034 0.1206,14.1592 0.643,17.391 1.9659,19.059 2.6635,19.3929 A1.8021,1.8021 0 0 1 1.1565,22.6671 T0.4492,22.3543 -1.7176,20.6767 -3.4135,17.6059 -3.5089,13.8214 -2.9282,9.6052 -2.1524,5.088 -1.8274,1.3543 -1.839,0 A1.839,1.839 0 0 1 1.839,0 Z" stroke-linecap="round" fill="#ae3ec9"/></g></g><g transform="matrix(1, 0, 0, 1, 2382.8434, 30310.496) scale(0.9561125023199899, 0.9561125023199899)" opacity="1"><g transform="scale(1.0459020225899336)"><path d="M1.567,-0.2621 T1.8301,1.0895 2.3355,4.76 2.6036,9.2471 2.6294,11.4153 A1.6703,1.6703 0 0 1 -0.7094,11.5247 T-0.8241,9.4057 -1.0619,5.1379 -1.376,1.6255 -1.567,0.2621 A1.5887,1.5887 0 0 1 1.567,-0.2621 Z" stroke-linecap="round" fill="#ae3ec9"/></g></g><g transform="matrix(1, 0, 0, 1, 2301.5738, 29979.6811) scale(0.9561125023199899, 0.9561125023199899)" opacity="1"><g transform="scale(1.0459020225899336)"><path d="M-1.5679,1.5679 T-2.2759,0.7908 -3.1746,-2.0885 -3.3653,-4.1908 A2.1439,2.1439 0 0 1 0.7509,-2.9896 T0.5099,-2.8592 0.9184,-2.1483 1.5679,-1.5679 A2.2174,2.2174 0 0 1 -1.5679,1.5679 ZM-2.3035,-5.4886 T-1.7632,-5.7712 0.3321,-6.3412 3.253,-4.9447 3.739,-1.4561 1.0955,1.1364 -2.3672,1.0274 -4.9046,-1.9957 -5.0315,-5.6436 -2.4874,-7.8978 0.9005,-7.9377 3.1813,-5.7116 3.2124,-2.3607 1.2784,0.194 0.0389,0.931 A2.3916,2.3916 0 0 1 -1.9358,-3.4255 T-1.6979,-3.8716 -0.3533,-3.2849 0.2212,-1.972 -0.3109,-1.6918 A2.1439,2.1439 0 0 1 -2.3035,-5.4886 ZM-2.4561,0.6092 T-3.0811,0.101 -4.742,-1.9449 -5.7779,-3.4826 A2.3487,2.3487 0 0 1 -1.8621,-6.0774 T-1.175,-5.0151 0.0357,-3.5282 0.5592,-3.1037 A2.3916,2.3916 0 0 1 -2.4561,0.6092 Z" stroke-linecap="round" fill="#f76707"/></g></g></svg>