<svg xmlns="http://www.w3.org/2000/svg" direction="ltr" width="600.8908854779979" height="743.4954152671744" viewBox="2807.4422723900007 27328.774764351743 600.8908854779979 743.4954152671744" stroke-linecap="round" stroke-linejoin="round" style="background-color: transparent;"><defs/><g transform="matrix(1, 0, 0, 1, 2839.4423, 27566.2018)" opacity="1"><g transform="scale(1)"><path d="M-0.8933,-1.1936 T0.2501,-2.0371 2.98,-4.2413 5.8666,-6.8402 8.7802,-9.3771 12.2442,-11.8743 15.4149,-14.2327 18.8313,-16.6984 22.3779,-19.1386 25.0827,-21.4484 27.5476,-23.8227 29.9615,-26.2253 32.3642,-28.6342 35.2544,-31.1057 38.2175,-33.5402 41.1059,-36.0006 44.0656,-38.4348 46.5344,-40.9246 48.9312,-43.7874 51.4242,-46.5994 54.2608,-49.2416 57.2127,-51.7329 59.7801,-54.7113 62.1987,-58.1404 65.0141,-61.1748 67.9753,-63.771 70.5346,-66.1134 72.8911,-68.8598 75.2719,-71.8047 77.7348,-74.4414 80.1477,-76.9142 82.5499,-79.345 84.8285,-81.9014 87.1759,-84.7813 89.6731,-87.6202 92.539,-90.2811 95.3671,-92.9123 97.869,-95.6912 100.3462,-98.8455 102.649,-102.044 105.0729,-105.1871 107.9383,-108.6022 110.7824,-111.879 113.3741,-114.8966 116.3768,-118.2079 119.254,-121.4441 121.4313,-124.0872 123.7715,-127.0003 126.1327,-129.9584 128.5149,-132.9589 131.2552,-136.4165 133.8597,-139.4157 136.3293,-142.0046 139.1832,-144.9005 142.0013,-147.9978 144.5025,-151.0241 147.0679,-153.9146 149.5273,-156.4597 151.9419,-158.9039 154.3464,-161.3195 156.664,-164.062 159.0354,-166.9941 161.5138,-169.6491 163.992,-172.0143 166.4172,-174.411 169.1389,-177.1389 172.0535,-180.0584 174.9846,-183.4135 178.0484,-186.6074 180.7404,-189.0847 183.1365,-191.424 185.4419,-194.1492 187.8054,-197.0817 190.4027,-199.9839 192.7599,-202.5833 194.4915,-204.5913 195.2062,-205.5087 A2.2192,2.2192 0 0 1 198.8338,-202.9513 T198.21,-201.97 196.1991,-199.3042 193.747,-196.3624 191.5369,-193.8563 189.0908,-190.8757 186.5614,-187.9397 184.0583,-185.5252 181.6193,-183.3686 178.6912,-180.326 175.6606,-176.8553 173.4265,-174.3882 171.2372,-172.2769 168.8067,-169.8697 166.2838,-167.4097 163.801,-165.1113 161.5225,-162.5758 159.066,-159.6121 156.5211,-156.755 154.1233,-154.3455 151.7344,-151.9191 149.3821,-149.4315 146.8702,-146.3714 144.0862,-143.1496 141.1649,-140.2332 138.4837,-137.5207 136.1029,-134.9903 133.5226,-131.7915 130.5083,-128.0548 127.3597,-124.2628 124.2197,-120.2661 121.1707,-116.7686 118.2625,-113.7581 115.3639,-110.3898 112.4592,-107.3179 109.7269,-104.368 107.2199,-100.9297 104.8327,-97.8344 102.3785,-94.7873 99.5973,-91.324 96.5733,-88.434 93.8283,-86.0946 91.4886,-83.6229 89.054,-80.653 86.5664,-77.7464 84.1557,-75.3445 81.7566,-72.9357 79.377,-70.5005 77.0492,-67.9403 74.5314,-64.975 71.7872,-62.0948 68.8853,-59.7163 66.2816,-57.3576 64.2607,-54.5773 62.1373,-51.5895 59.437,-48.889 56.552,-46.5266 54.0019,-44.2012 51.6432,-41.627 49.0625,-38.6561 46.1184,-35.7706 43.1656,-33.4035 40.369,-31.059 37.4152,-28.6849 34.6305,-26.3513 32.2041,-23.9588 29.7388,-21.5565 27.1446,-19.122 24.1164,-16.6261 20.5897,-14.2629 17.2882,-11.9162 13.9349,-9.4561 10.6154,-7.1128 7.8543,-4.7034 4.8354,-1.9762 2.025,0.3343 0.8933,1.1936 A1.4909,1.4909 0 0 1 -0.8933,-1.1936 Z" stroke-linecap="round" fill="#40c057"/></g></g><g transform="matrix(1, 0, 0, 1, 2840.6436, 27566.2018)" opacity="1"><g transform="scale(1)"><path d="M-0.3804,-1.7132 T2.1738,-2.2908 6.5738,-3.4479 10.3953,-4.375 13.9726,-4.9064 18.4426,-5.5187 23.092,-6.1539 26.3669,-6.4702 29.5126,-6.6461 32.7195,-7.0231 36.1133,-7.5261 39.4788,-7.8212 43.6806,-8.0208 48.8384,-8.1561 53.747,-8.2138 58.5811,-8.2484 62.4749,-8.2738 66.3451,-8.5559 70.3913,-9.0075 74.7944,-9.3248 80.0364,-9.5052 84.0428,-9.559 88.1931,-9.5782 93.3091,-9.5913 98.2081,-9.6011 102.1083,-9.2927 106.0595,-8.7877 110.1411,-8.5592 113.4432,-8.5016 116.6067,-8.4689 119.6954,-8.4517 124.0615,-8.4365 129.5858,-8.4228 135.3098,-8.4157 139.9328,-8.415 143.3512,-8.4219 146.858,-8.4306 151.564,-8.1382 156.8301,-7.6388 161.9693,-7.3808 167.729,-7.3159 173.3851,-7.3147 178.4638,-7.0017 183.3317,-6.4939 188.7801,-5.9333 193.255,-5.3764 196.6137,-4.9785 198.4506,-4.7629 A2.3741,2.3741 0 0 1 197.9894,-0.0371 T196.1455,-0.1807 191.2048,-0.7418 185.4399,-1.2883 181.1609,-1.6075 177.8174,-2.0507 173.3723,-2.3226 167.6845,-2.3665 161.7981,-2.4636 156.2376,-2.7892 151.1078,-3.3142 146.8579,-3.5895 143.3511,-3.5983 139.9325,-3.6054 135.3088,-3.6057 130.8478,-3.6027 126.743,-3.6007 122.7291,-3.6006 119.6674,-3.6075 116.5568,-3.6255 113.3508,-3.6597 109.9519,-3.7289 106.7125,-3.8664 102.8747,-4.3855 98.1946,-4.8176 93.3132,-4.8239 88.2059,-4.8245 82.8588,-4.8129 77.6555,-4.7517 72.4427,-4.5133 66.8424,-4.0309 62.4763,-3.7444 58.5854,-3.7664 53.7623,-3.7874 48.8905,-3.796 43.8421,-3.7546 39.7927,-3.6441 36.6703,-3.4413 33.1474,-2.9996 28.2827,-2.5868 23.6838,-2.3394 19.027,-1.7927 14.4637,-1.2482 11.2164,-0.8415 7.4823,0.0116 2.9394,1.1556 0.3804,1.7132 A1.7549,1.7549 0 0 1 -0.3804,-1.7132 Z" stroke-linecap="round" fill="#40c057"/></g></g><g transform="matrix(1, 0, 0, 1, 3035.2587, 27360.7748)" opacity="1"><g transform="scale(1)"><path d="M1.6695,-0.1517 T1.9611,2.9719 2.4376,10.346 2.7292,17.6722 2.9022,23.2234 3.011,27.8595 3.0805,31.726 3.1293,35.1865 3.1638,38.7168 3.187,41.996 3.2187,48.8377 3.2545,57.5589 3.2801,63.5759 3.2974,68.1659 3.3111,71.72 3.3242,75.0145 3.3344,78.172 3.3442,82.2462 3.3551,87.3128 3.7949,92.0585 4.3712,97.1436 4.5584,102.5915 4.6211,107.7181 4.6447,111.687 4.9271,114.6349 5.3688,117.5959 5.6726,121.7754 5.8525,126.9267 6.1637,131.5645 6.6994,136.321 7.0353,140.9442 7.1253,145.2686 7.1501,149.037 7.1587,153.12 7.1669,158.1974 7.1754,163.0782 7.187,167.9043 7.2005,171.7983 7.2136,175.6281 7.6588,180.8164 8.1853,185.4032 8.3196,188.6212 8.4017,192.5822 8.4405,197.2245 7.9591,201.678 7.2676,205.4293 7.0603,206.8852 A2.2647,2.2647 0 0 1 2.5597,206.3748 T2.6837,204.9094 3.185,201.3823 3.5466,197.2136 3.5,192.6723 3.4322,188.8053 3.3258,185.7465 3.1324,182.6703 2.7039,179.6054 2.4063,175.6381 2.4195,171.7983 2.4328,167.9044 2.4439,163.0788 2.4505,158.1996 2.452,153.127 2.4488,149.0548 2.4312,145.3309 2.3558,141.1498 2.0967,137.0196 1.5795,133.3419 1.2499,129.4542 1.186,124.5789 0.931,119.4943 0.4348,115.0308 0.1444,111.701 0.1461,107.7441 0.1233,102.6732 0.0693,98.6149 -0.1538,94.9323 -0.6524,91.2439 -0.9551,87.3258 -0.9442,82.2462 -0.9345,78.1721 -0.9244,75.0146 -0.9115,71.7203 -0.8983,68.1662 -0.8817,63.5764 -0.8575,57.5595 -0.8244,48.8403 -0.7979,42.0018 -0.7845,38.7272 -0.7686,35.2064 -0.755,31.7584 -0.7523,27.9101 -0.7704,23.3013 -0.8381,17.7812 -1.0032,10.5614 -1.3935,3.2765 -1.6695,0.1517 A1.6764,1.6764 0 0 1 1.6695,-0.1517 Z" stroke-linecap="round" fill="#40c057"/></g></g><g transform="matrix(1, 0, 0, 1, 3035.2587, 27536.1686)" opacity="1"><g transform="scale(1)"><path d="M0,2.0196 T-1.9882,2.0645 -6.32,2.4339 -10.4073,3.1848 -13.7936,3.8542 -17.2013,4.2021 -20.3935,4.0206 -23.1094,3.4401 -24.3981,3.146 A1.9805,1.9805 0 0 1 -23.6619,-0.746 T-21.452,-0.3947 -17.6633,-0.1792 -14.6218,-0.5288 -11.1648,-1.1829 -6.575,-1.8663 -1.9898,-2.0645 0,-2.0196 A2.0196,2.0196 0 0 1 0,2.0196 Z" stroke-linecap="round" fill="#40c057"/></g></g><g transform="matrix(1, 0, 0, 1, 3011.2321, 27543.3766)" opacity="1"><g transform="scale(1)"><path d="M1.7809,-0.5082 T2.429,1.4579 3.5726,7.6647 4.213,14.9054 4.358,17.9053 A1.9613,1.9613 0 0 1 0.442,18.1347 T0.2357,15.1384 -0.3887,8.337 -1.2938,2.5201 -1.7809,0.5082 A1.852,1.852 0 0 1 1.7809,-0.5082 Z" stroke-linecap="round" fill="#40c057"/></g></g><g transform="matrix(1, 0, 0, 1, 2927.3499, 27413.7356)" opacity="1"><g transform="scale(1)"><path d="M-2.1328,-0.6401 T-1.4119,-2.9498 -0.1867,-6.0774 0.3176,-6.8952 A2.1837,2.1837 0 0 1 3.9005,-4.3978 T3.6769,-4.1714 2.7931,-1.6525 2.1328,0.6401 A2.2268,2.2268 0 0 1 -2.1328,-0.6401 ZM4.2184,-6.2116 T4.5481,-4.9959 4.8066,3.441 4.7088,14.8249 4.2687,21.7343 3.4482,27.4299 3.0417,30.379 A2.0832,2.0832 0 0 1 -1.1017,29.941 T-0.8828,26.9722 -0.5163,21.4385 -0.2095,14.7079 0.2307,3.7009 0.2557,-4.1109 -0.0003,-5.0814 A2.1837,2.1837 0 0 1 4.2184,-6.2116 Z" stroke-linecap="round" fill="#40c057"/></g></g><g transform="matrix(1, 0, 0, 1, 2927.3499, 27407.8983)" opacity="1"><g transform="scale(1)"><path d="M1.4287,1.5869 T-0.8628,3.6693 -4.5786,7.0786 -7.6251,10.1626 -10.7415,13.1518 -12.2357,14.3836 A2.2184,2.2184 0 0 1 -15.0043,10.9164 T-13.8501,10.0335 -10.8331,7.1585 -7.5102,3.8508 -3.7395,0.4741 -1.4287,-1.5869 A2.1353,2.1353 0 0 1 1.4287,1.5869 ZM-15.0058,10.9177 T-13.495,9.6974 -10.8077,7.405 -8.1765,5.2552 -5.2653,3.171 -2.3031,0.7803 -0.3097,-1.0823 0.1778,-1.5608 A2.3366,2.3366 0 0 1 3.4386,1.7868 T2.4007,2.7783 0.1687,4.8134 -2.453,6.8159 -5.2251,8.7207 -7.8784,10.8174 -10.7107,13.1753 -12.2342,14.3823 A2.2184,2.2184 0 0 1 -15.0058,10.9177 ZM4.1135,-0.2684 T4.1672,0.163 4.2209,0.5943 A2.3018,2.3018 0 0 1 -0.3209,1.3457 T-0.409,0.92 -0.4971,0.4943 A2.3366,2.3366 0 0 1 4.1135,-0.2684 Z" stroke-linecap="round" fill="#40c057"/></g></g><g transform="matrix(1, 0, 0, 1, 2932.2143, 27442.9219)" opacity="1"><g transform="scale(1)"><path d="M1.0537,2.1075 T-0.3259,2.8011 -4.177,4.4913 -10.3995,6.363 -14.1507,7.2381 A2.4184,2.4184 0 0 1 -15.0293,2.4819 T-11.4993,1.6902 -5.8941,0.083 -2.4364,-1.42 -1.0537,-2.1075 A2.3562,2.3562 0 0 1 1.0537,2.1075 ZM-14.7344,2.4459 T-12.4711,2.3318 -8.3164,1.9444 -4.2381,1.3918 0.1926,0.8724 4.0783,0.5465 5.7201,0.4605 A2.4624,2.4624 0 0 1 5.9599,5.3795 T3.4276,5.5084 -1.3688,6.032 -5.7814,6.5482 -9.3729,6.8422 -12.6307,7.1442 -14.4456,7.2741 A2.4184,2.4184 0 0 1 -14.7344,2.4459 ZM5.8992,5.3817 T4.9892,5.405 4.0791,5.4283 A2.4652,2.4652 0 0 1 3.9607,0.4992 T4.8707,0.4788 5.7808,0.4583 A2.4624,2.4624 0 0 1 5.8992,5.3817 ZM4.7445,5.3201 T3.4717,5.7237 0.3692,6.7852 -3.5634,7.9883 -7.9378,8.8317 -12.3396,9.1649 -14.4699,9.1998 A2.3928,2.3928 0 0 1 -14.7101,4.4202 T-12.6985,4.247 -8.9826,3.8309 -5.1815,3.0551 -0.7975,1.8302 2.3925,0.8728 3.2953,0.6074 A2.4652,2.4652 0 0 1 4.7445,5.3201 Z" stroke-linecap="round" fill="#40c057"/></g></g><g transform="matrix(1, 0, 0, 1, 3088.8477, 27407.8983)" opacity="1"><g transform="scale(1)"><path d="M2.0344,0 T2.11,3.6823 2.2441,9.9934 2.2854,14.9299 2.2558,19.8088 2.2434,22.38 A2.2434,2.2434 0 0 1 -2.2434,22.38 T-2.2558,19.8088 -2.2854,14.9299 -2.2441,9.9934 -2.11,3.6823 -2.0344,0 A2.0344,2.0344 0 0 1 2.0344,0 Z" stroke-linecap="round" fill="#40c057"/></g></g><g transform="matrix(1, 0, 0, 1, 3098.5765, 27440.9762)" opacity="1"><g transform="scale(1)"><path d="M-0.5708,1.9933 T-2.1958,1.5844 -6.5001,0.6488 -11.2561,-0.1056 -14.972,-0.0573 -18.8062,0.5762 -21.0012,0.9336 A1.9449,1.9449 0 0 1 -21.7988,-2.8736 T-19.6448,-3.4272 -14.0471,-4.4087 -8.0158,-4.2335 -4.0249,-3.3254 -1.0253,-2.5067 0.5708,-1.9933 A2.0734,2.0734 0 0 1 -0.5708,1.9933 Z" stroke-linecap="round" fill="#40c057"/></g></g><g transform="matrix(1, 0, 0, 1, 3081.0646, 27455.5694)" opacity="1"><g transform="scale(1)"><path d="M0.2106,-2.1128 T2.5466,-1.8712 6.7322,-0.69 9.6094,2.7957 8.6978,7.9532 8.2046,11.5593 11.7154,12.9901 16.228,13.626 18.6757,13.8256 A2.7214,2.7214 0 0 1 18.2843,19.2544 T15.5793,19.0826 10.8569,18.3812 6.3137,16.9506 2.7717,13.5921 2.5148,9.3679 5.0304,6.0619 5.5544,3.535 2.0557,2.3301 -0.2106,2.1128 A2.1233,2.1233 0 0 1 0.2106,-2.1128 Z" stroke-linecap="round" fill="#40c057"/></g></g><g transform="matrix(1, 0, 0, 1, 2955.5634, 27588.8537)" opacity="1"><g transform="scale(1)"><path d="M1.3838,1.47 T-2.4308,5.2555 -9.4489,11.9573 -14.5863,16.6107 -18.3069,19.154 -21.7626,20.6635 -23.4318,21.3669 A2.1036,2.1036 0 0 1 -25.2082,17.5531 T-22.4368,16.1623 -17.7517,13.0346 -12.6197,8.4931 -5.3926,2.1092 -1.3838,-1.47 A2.0188,2.0188 0 0 1 1.3838,1.47 Z" stroke-linecap="round" fill="#40c057"/></g></g><g transform="matrix(1, 0, 0, 1, 2937.0787, 27591.7723)" opacity="1"><g transform="scale(1)"><path d="M1.7991,-1.4617 T4.8733,2.1536 10.2356,8.3306 13.947,12.4644 18.0723,15.637 20.7744,17.2374 A2.5822,2.5822 0 0 1 18.1456,21.6826 T16.5242,20.7598 13.1326,18.7566 9.9372,16.0143 6.2657,11.6562 1.1102,5.211 -1.7991,1.4617 A2.3181,2.3181 0 0 1 1.7991,-1.4617 Z" stroke-linecap="round" fill="#40c057"/></g></g><g transform="matrix(1, 0, 0, 1, 2887.9483, 27691.0059)" opacity="1"><g transform="scale(1)"><path d="M3.658,0.3316 T3.4922,2.8682 3.0124,7.789 2.2857,12.1758 1.684,15.6883 1.1212,18.9413 0.3137,22.2981 -0.6501,26.2874 -1.1802,28.6629 A3.9169,3.9169 0 0 1 -8.7602,26.6855 T-8.5204,25.7073 -8.0242,23.2889 -7.3795,20.4199 -6.6754,17.582 -6.111,14.3219 -5.4445,10.7172 -4.6354,6.8404 -3.951,2.1929 -3.658,-0.3316 A3.673,3.673 0 0 1 3.658,0.3316 ZM-6.6215,24.1225 T-5.0392,23.5757 -3.4569,23.0289 A3.5743,3.5743 0 0 1 -0.4431,29.5111 T-1.881,30.3685 -3.3189,31.2259 A3.9169,3.9169 0 0 1 -6.6215,24.1225 Z" stroke-linecap="round" fill="#f2f2f2"/></g></g><g transform="matrix(1, 0, 0, 1, 2886.0026, 27687.1143)" opacity="1"><g transform="scale(1)"><path d="M-1.1272,-2.5384 T0.9374,-3.477 4.699,-4.9727 7.8177,-5.8347 10.742,-6.3109 14.5959,-6.6204 20.5717,-5.3995 25.4193,-2.6728 27.3174,0.8442 27.7715,4.7316 26.6688,8.3282 24.8774,11.6292 22.8554,14.3451 19.7454,16.6236 15.8048,18.2294 11.5648,19.2036 7.1934,19.6641 3.1695,19.3414 -0.3362,17.8208 -2.8597,15.8177 -3.8269,14.9252 A2.9494,2.9494 0 0 1 -0.0731,10.3748 T0.987,11.1547 3.5438,12.5742 6.8415,13.1516 10.1742,12.9246 13.432,12.2942 17.0402,10.6249 19.7813,8.0935 21.3337,5.3085 21.4105,2.3778 18.9727,0.0248 14.9833,-0.7762 10.4544,-0.3937 6.6892,0.3231 3.2061,1.6371 1.1272,2.5384 A2.7774,2.7774 0 0 1 -1.1272,-2.5384 Z" stroke-linecap="round" fill="#f2f2f2"/></g></g><g transform="matrix(1, 0, 0, 1, 2922.9719, 27709.4905)" opacity="1"><g transform="scale(1)"><path d="M2.4599,0.5476 T2.0203,2.6241 1.2575,7.0245 3.4522,7.5397 8.0673,4.4261 10.1646,3.1211 A2.4261,2.4261 0 0 1 12.7921,7.2004 T10.9719,8.4186 5.436,12.3365 -0.2457,14.449 -3.2377,11.3529 -3.8445,6.2151 -2.9426,1.5194 -2.4599,-0.5476 A2.5201,2.5201 0 0 1 2.4599,0.5476 ZM13.693,4.1701 T13.9691,4.7988 14.6853,6.8352 15.8412,10.1258 17.6085,14.0444 19.7569,18.7418 21.5672,23.9747 22.3157,28.103 21.6682,31.8839 20.1648,35.3652 18.1486,37.5054 14.4472,39.3369 10.4349,40.2258 7.4747,39.8581 4.3837,38.8505 0.2742,36.683 -3.3083,34.2223 -5.2197,31.9326 -6.3747,29.0876 -6.971,26.2163 -7.2135,24.8933 A2.4223,2.4223 0 0 1 -2.5065,23.7467 T-1.6153,26.3529 1.0942,30.2853 5.1305,32.6516 9.7919,33.9643 13.9405,33.081 16.2969,29.944 16.4105,25.599 14.9979,20.7824 13.1356,16.2513 11.4489,12.2288 10.2846,8.8283 9.5419,6.7616 9.2637,6.1514 A2.4261,2.4261 0 0 1 13.693,4.1701 Z" stroke-linecap="round" fill="#f2f2f2"/></g></g><g transform="matrix(1, 0, 0, 1, 2957.9956, 27681.2771)" opacity="1"><g transform="scale(1)"><path d="M2.1636,0.6837 T0.8349,5.0708 -1.3753,12.6842 -2.9234,18.5282 -3.889,23.3191 -4.3498,27.0989 -3.0857,29.7065 1.0806,30.7656 3.8212,30.8239 A2.2572,2.2572 0 0 1 3.9588,35.3361 T1.2268,35.5612 -4.2678,35.8131 -8.4906,33.5829 -10.0455,29.686 -9.8942,26.3103 -9.1738,22.1463 -7.8981,17.0961 -6.0639,11.2491 -3.5972,3.6702 -2.1636,-0.6837 A2.269,2.269 0 0 1 2.1636,0.6837 Z" stroke-linecap="round" fill="#f2f2f2"/></g></g><g transform="matrix(1, 0, 0, 1, 2959.9413, 27702.6804)" opacity="1"><g transform="scale(1)"><path d="M-0.5132,1.7102 T-2.845,1.1353 -7.3414,0.4483 -11.1716,1.0757 -12.8371,1.8151 A1.9768,1.9768 0 0 1 -14.4029,-1.8151 T-13.3254,-2.3273 -9.7691,-3.2962 -5.6591,-3.5377 -1.7573,-2.5164 0.5132,-1.7102 A1.7856,1.7856 0 0 1 -0.5132,1.7102 Z" stroke-linecap="round" fill="#f2f2f2"/></g></g><g transform="matrix(1, 0, 0, 1, 2975.5074, 27695.8702)" opacity="1"><g transform="scale(1)"><path d="M 0 0 m -2.633441917710341, 0 a 2.633441917710341,2.633441917710341 0 1,1 5.266883835420682,0 a 2.633441917710341,2.633441917710341 0 1,1 -5.266883835420682,0" stroke-linecap="round" fill="#f2f2f2"/></g></g><g transform="matrix(1, 0, 0, 1, 2972.5887, 27709.4905)" opacity="1"><g transform="scale(1)"><path d="M1.1703,-0.7815 T2.1539,0.6727 3.1375,2.127 A1.428,1.428 0 0 1 0.7625,3.713 T-0.2039,2.2473 -1.1703,0.7815 A1.4072,1.4072 0 0 1 1.1703,-0.7815 Z" stroke-linecap="round" fill="#f2f2f2"/></g></g><g transform="matrix(1, 0, 0, 1, 3071.8223, 27699.7618)" opacity="1"><g transform="scale(1)"><path d="M0.9062,1.1193 T-3.9085,5.0521 -14.0941,13.3584 -19.4651,17.7319 A1.5335,1.5335 0 0 1 -21.3949,15.3481 T-15.9993,11.0051 -5.7549,2.7713 -0.9062,-1.1193 A1.4402,1.4402 0 0 1 0.9062,1.1193 Z" stroke-linecap="round" fill="#f2f2f2"/></g></g><g transform="matrix(1, 0, 0, 1, 3053.3376, 27701.7075)" opacity="1"><g transform="scale(1)"><path d="M1.8022,-1.3862 T4.163,1.5596 8,6.2544 10.6028,9.0499 13.305,11.6344 16.56,14.9686 18.2395,16.7648 A2.4146,2.4146 0 0 1 14.8405,20.1952 T13.0337,18.5371 9.6775,15.3492 6.8125,12.5036 4.0888,9.3246 0.4392,4.4238 -1.8022,1.3862 A2.2737,2.2737 0 0 1 1.8022,-1.3862 Z" stroke-linecap="round" fill="#f2f2f2"/></g></g><g transform="matrix(1, 0, 0, 1, 3072.7952, 27675.4398)" opacity="1"><g transform="scale(1)"><path d="M-0.5529,-2.5792 T2.7021,-3.2779 8.3686,-3.6689 12.9252,-1.5644 14.4298,2.845 11.7581,7.0841 8.6917,10.0335 7.6564,11.3566 A2.8195,2.8195 0 0 1 3.3393,7.7287 T4.8334,6.0419 8.0699,3.1302 8.3698,1.5599 3.7402,1.8967 0.5529,2.5792 A2.6378,2.6378 0 0 1 -0.5529,-2.5792 ZM6.1631,6.8027 T8.7447,7.4085 13.041,8.2136 17.5021,8.6857 21.846,9.0901 23.4432,9.2216 A2.4502,2.4502 0 0 1 23.2568,14.1184 T21.6541,14.1281 18.5644,14.1556 15.6098,14.1115 12.2387,13.855 7.584,12.9715 4.8327,12.2826 A2.8195,2.8195 0 0 1 6.1631,6.8027 Z" stroke-linecap="round" fill="#f2f2f2"/></g></g><g transform="matrix(1, 0, 0, 1, 3107.8188, 27692.9516)" opacity="1"><g transform="scale(1)"><path d="M1.5467,0 T1.577,4.3705 1.6291,13.6105 1.651,18.48 A1.651,1.651 0 0 1 -1.651,18.48 T-1.6291,13.6105 -1.577,4.3705 -1.5467,0 A1.5467,1.5467 0 0 1 1.5467,0 Z" stroke-linecap="round" fill="#f2f2f2"/></g></g><g transform="matrix(1, 0, 0, 1, 3113.6561, 27704.6262)" opacity="1"><g transform="scale(1)"><path d="M-0.1029,1.3414 T-3.0942,1.1069 -9.4185,0.6131 -12.7515,0.3538 A1.3277,1.3277 0 0 1 -12.5485,-2.2938 T-9.2149,-2.0419 -2.8893,-1.5657 0.1029,-1.3414 A1.3454,1.3454 0 0 1 -0.1029,1.3414 Z" stroke-linecap="round" fill="#f2f2f2"/></g></g><g transform="matrix(1, 0, 0, 1, 3151.5983, 27681.2771)" opacity="1"><g transform="scale(1)"><path d="M1.6937,0.4622 T1.123,3.0255 0.0448,8.0613 -0.7425,12.4506 -1.25,15.823 -1.7256,18.9586 -1.9735,20.6386 A1.9278,1.9278 0 0 1 -5.8065,20.2214 T-5.6872,18.5274 -5.466,15.2608 -5.0186,11.609 -3.9938,7.0317 -2.5042,2.0356 -1.6937,-0.4622 A1.7556,1.7556 0 0 1 1.6937,0.4622 Z" stroke-linecap="round" fill="#f2f2f2"/></g></g><g transform="matrix(1, 0, 0, 1, 3157.4356, 27705.599)" opacity="1"><g transform="scale(1)"><path d="M0.181,1.3872 T-5.1106,2.0879 -16.2983,3.5654 -22.1945,4.3421 A1.4342,1.4342 0 0 1 -22.5655,1.4979 T-16.6675,0.7358 -5.4752,-0.7068 -0.181,-1.3872 A1.399,1.399 0 0 1 0.181,1.3872 Z" stroke-linecap="round" fill="#f2f2f2"/></g></g><g transform="matrix(1, 0, 0, 1, 3139.9238, 27724.0837)" opacity="1"><g transform="scale(1)"><path d="M1.4149,-2.6787 T2.8018,-2.456 6.0536,-0.7741 7.9578,3.0992 7.1001,7.6827 5.4949,11.1245 3.7852,13.5086 0.7847,15.9832 -1.2145,17.3464 A2.7594,2.7594 0 0 1 -4.1961,12.7023 T-2.6788,11.7624 0.0197,9.2176 2.2385,5.3817 1.9005,2.9148 0.5251,2.6787 A2.7154,2.7154 0 0 1 1.4149,-2.6787 ZM-1.4442,12.5699 T-0.5992,13.0025 2.5351,13.5152 6.6947,13.656 10.3157,13.3961 12.0664,13.0756 A2.5618,2.5618 0 0 1 13.2336,18.0644 T12.1713,18.3769 8.8602,19.0387 4.6867,19.3643 0.8229,19.1436 -2.5412,18.2126 -3.9663,17.4787 A2.7594,2.7594 0 0 1 -1.4442,12.5699 Z" stroke-linecap="round" fill="#f2f2f2"/></g></g><g transform="matrix(1, 0, 0, 1, 3136.0323, 27670.5754)" opacity="1"><g transform="scale(1)"><path d="M1.5079,0.6142 T-0.9271,6.866 -5.3121,18.0392 -8.4811,26.4434 -10.57,32.4648 -12.1239,37.0277 -13.3827,40.9959 -14.2346,44.7586 -14.9187,48.3795 -15.5181,51.6728 -15.6595,55.5492 -14.97,59.9592 -13.3691,63.7944 -11.3133,67.2952 -8.3988,70.8204 -6.5781,72.6554 A1.7592,1.7592 0 0 1 -8.9819,75.2246 T-10.1128,74.2514 -12.4233,72.221 -14.7888,69.6145 -17.2782,65.8045 -19.3782,61.0263 -20.2456,55.5352 -20.0901,50.851 -19.4763,47.4879 -18.7289,43.7198 -17.7351,39.5738 -16.362,35.5178 -14.6632,30.9666 -12.3302,24.9354 -8.8585,16.5817 -4.134,5.5597 -1.5079,-0.6142 A1.6282,1.6282 0 0 1 1.5079,0.6142 Z" stroke-linecap="round" fill="#f2f2f2"/></g></g><g transform="matrix(1, 0, 0, 1, 3168.1372, 27685.1686)" opacity="1"><g transform="scale(1)"><path d="M2.0222,-0.6752 T2.5,0.7004 3.4706,3.4915 4.2808,6.7539 4.9844,10.3608 4.2885,20.5915 2.4147,34.0556 0.7365,42.4909 -1.1236,48.3184 -2.8164,52.3524 -4.2493,55.2432 -6.14,57.4315 -8.2152,58.9763 -9.1137,59.5753 A2.6922,2.6922 0 0 1 -12.2863,55.2247 T-11.4414,54.5523 -9.6943,52.7616 -8.0605,50.0534 -6.4206,46.4546 -4.5776,41.29 -2.7206,33.2294 -0.4978,20.6336 0.4673,11.1052 -0.0484,7.7796 -0.681,4.87 -1.5777,2.0619 -2.0222,0.6752 A2.132,2.132 0 0 1 2.0222,-0.6752 Z" stroke-linecap="round" fill="#f2f2f2"/></g></g><g transform="matrix(1, 0, 0, 1, 3174.9474, 27662.7924)" opacity="1"><g transform="scale(1)"><path d="M0.5735,-2.5764 T2.7072,-2.1005 6.2817,-0.5562 8.3132,1.9532 8.4418,5.6588 7.4026,9.4607 6.8255,10.998 A2.7355,2.7355 0 0 1 1.3693,10.5971 T1.7713,8.6999 2.8097,5.1361 1.4363,3.0229 -0.5735,2.5764 A2.6394,2.6394 0 0 1 0.5735,-2.5764 ZM6.0697,8.902 T6.6869,9.538 9.2701,10.6247 11.2361,11.0754 A2.6004,2.6004 0 0 1 10.1639,16.1646 T9.1769,15.9894 5.8233,14.9526 2.7909,13.3921 2.1251,12.693 A2.7355,2.7355 0 0 1 6.0697,8.902 Z" stroke-linecap="round" fill="#f2f2f2"/></g></g><g transform="matrix(1, 0, 0, 1, 3192.4592, 27693.9245)" opacity="1"><g transform="scale(1)"><path d="M0,-1.4175 T2.3011,-1.4252 7.1661,-1.4383 9.73,-1.4439 A1.4439,1.4439 0 0 1 9.73,1.4439 T7.1661,1.4383 2.3011,1.4252 0,1.4175 A1.4175,1.4175 0 0 1 0,-1.4175 Z" stroke-linecap="round" fill="#f2f2f2"/></g></g><g transform="matrix(1, 0, 0, 1, 3192.4592, 27704.6262)" opacity="1"><g transform="scale(1)"><path d="M0.2446,-1.7171 T1.8679,-1.5772 5.5248,-1.2928 10.6102,-1.0004 13.6618,-0.8523 A1.8228,1.8228 0 0 1 13.5782,2.7923 T11.9479,2.7927 8.8158,2.7988 5.1325,2.5796 1.3533,2.036 -0.2446,1.7171 A1.7345,1.7345 0 0 1 0.2446,-1.7171 Z" stroke-linecap="round" fill="#f2f2f2"/></g></g><g transform="matrix(1, 0, 0, 1, 3245.9675, 27677.3856)" opacity="1"><g transform="scale(1)"><path d="M2.0109,0 T2.1198,6.2129 2.3062,16.1587 2.4209,22.3325 1.8053,26.789 1.1526,28.8048 A2.2044,2.2044 0 0 1 -3.0926,27.6152 T-2.7753,26.1696 -2.4209,22.3078 -2.3062,16.1587 -2.1198,6.2129 -2.0109,0 A2.0109,2.0109 0 0 1 2.0109,0 Z" stroke-linecap="round" fill="#f2f2f2"/></g></g><g transform="matrix(1, 0, 0, 1, 3244.0217, 27677.3856)" opacity="1"><g transform="scale(1)"><path d="M1.7057,1.7057 T0.5841,2.8829 -2.0161,5.598 -5.0331,8.3785 -7.4461,10.195 -8.3208,10.7691 A2.454,2.454 0 0 1 -11.1392,6.7509 T-10.3017,6.124 -8.3001,4.4958 -5.598,2.0161 -2.8829,-0.5841 -1.7057,-1.7057 A2.4122,2.4122 0 0 1 1.7057,1.7057 Z" stroke-linecap="round" fill="#f2f2f2"/></g></g><g transform="matrix(1, 0, 0, 1, 3065.985, 27816.5071)" opacity="1"><g transform="scale(1)"><path d="M1.9191,1.4406 T-0.0975,4.243 -4.4041,9.5703 -8.3291,13.8296 -11.0688,16.7141 -13.5104,18.6585 -16.015,20.0933 -17.1829,20.7335 A2.6002,2.6002 0 0 1 -19.7771,16.2265 T-17.902,15.1403 -14.9419,12.9413 -12.2072,10.1404 -8.3652,6.2232 -4.046,1.2769 -1.9191,-1.4406 A2.3996,2.3996 0 0 1 1.9191,1.4406 Z" stroke-linecap="round" fill="#f2f2f2"/></g></g><g transform="matrix(1, 0, 0, 1, 3052.3647, 27816.5071)" opacity="1"><g transform="scale(1)"><path d="M1.3724,-1.0981 T5.1752,3.4078 13.1661,12.9731 17.3542,18.0325 A2.285,2.285 0 0 1 13.7858,20.8875 T9.7685,15.6915 2.1894,5.7968 -1.3724,1.0981 A1.7577,1.7577 0 0 1 1.3724,-1.0981 Z" stroke-linecap="round" fill="#f2f2f2"/></g></g><g transform="matrix(1, 0, 0, 1, 3069.8765, 27786.3479)" opacity="1"><g transform="scale(1)"><path d="M-0.4812,-2.6407 T2.0461,-3.139 6.149,-3.6896 10.534,-1.441 11.3537,3.8071 9.4312,8.2162 11.2759,9.9914 14.9815,10.1584 16.9095,10.012 A2.7055,2.7055 0 0 1 18.1105,15.288 T15.9202,15.836 11.7739,16.174 7.5904,14.7518 4.5405,12.2575 3.5878,9.3669 4.001,5.6666 6.1759,1.5539 8.3357,0.8763 7.2066,2.0062 3.015,2.2166 0.4812,2.6407 A2.6842,2.6842 0 0 1 -0.4812,-2.6407 Z" stroke-linecap="round" fill="#f2f2f2"/></g></g><g transform="matrix(1, 0, 0, 1, 3102.9544, 27808.7241)" opacity="1"><g transform="scale(1)"><path d="M1.4447,-0.0686 T1.6868,4.7625 2.1937,14.9765 2.4585,20.3593 A1.4901,1.4901 0 0 1 -0.5185,20.5007 T-0.7649,15.1169 -1.228,4.9009 -1.4447,0.0686 A1.4463,1.4463 0 0 1 1.4447,-0.0686 Z" stroke-linecap="round" fill="#f2f2f2"/></g></g><g transform="matrix(1, 0, 0, 1, 3109.7646, 27819.4258)" opacity="1"><g transform="scale(1)"><path d="M0.5039,1.5092 T-0.8554,2.0805 -4.8229,2.6472 -10.0366,2.6109 -12.6422,2.5793 A1.6093,1.6093 0 0 1 -12.6578,-0.6393 T-10.0526,-0.696 -5.3786,-0.7799 -1.9069,-1.1582 -0.5039,-1.5092 A1.5911,1.5911 0 0 1 0.5039,1.5092 Z" stroke-linecap="round" fill="#f2f2f2"/></g></g><g transform="matrix(1, 0, 0, 1, 3150.6254, 27790.2394)" opacity="1"><g transform="scale(1)"><path d="M2.0772,0.5197 T1.47,3.3004 0.5711,7.9428 0.1373,11.4196 -0.3403,14.5496 -0.9391,18.0211 -0.5616,21.1424 0.0794,22.3073 A2.2816,2.2816 0 0 1 -3.9794,24.3927 T-4.4929,23.5316 -5.5173,20.0539 -5.5042,14.9528 -4.7389,10.6832 -4.0613,6.9283 -2.8511,2.2195 -2.0772,-0.5197 A2.1412,2.1412 0 0 1 2.0772,0.5197 Z" stroke-linecap="round" fill="#f2f2f2"/></g></g><g transform="matrix(1, 0, 0, 1, 3160.3542, 27819.4258)" opacity="1"><g transform="scale(1)"><path d="M0.1884,1.3196 T-6.2562,2.2227 -19.8804,4.1385 -27.0599,5.1512 A1.274,1.274 0 0 1 -27.4201,2.6288 T-20.2441,1.5915 -6.6283,-0.3827 -0.1884,-1.3196 A1.333,1.333 0 0 1 0.1884,1.3196 Z" stroke-linecap="round" fill="#f2f2f2"/></g></g><g transform="matrix(1, 0, 0, 1, 3137.978, 27830.1274)" opacity="1"><g transform="scale(1)"><path d="M2.4005,-0.3987 T2.6569,0.9883 2.8351,3.8705 2.7013,7.1876 5.1991,9.6766 10.5047,9.9875 13.257,9.6314 A2.0706,2.0706 0 0 1 13.983,13.7086 T12.325,14.1153 8.7118,14.8929 5.0507,14.8821 1.0071,13.4438 -1.8793,9.7806 -2.2119,5.1618 -2.1981,1.774 -2.4005,0.3987 A2.4334,2.4334 0 0 1 2.4005,-0.3987 Z" stroke-linecap="round" fill="#f2f2f2"/></g></g><g transform="matrix(1, 0, 0, 1, 3152.5712, 27833.0461)" opacity="1"><g transform="scale(1)"><path d="M2.7566,0.2499 T2.5645,2.7838 2.2876,7.082 2.1703,10.4426 2.1273,13.5645 2.3378,16.5941 2.9974,19.1355 3.4357,20.1728 A2.7542,2.7542 0 0 1 -1.4957,22.6272 T-2.059,21.6521 -3.2646,17.8183 -3.8505,13.3838 -3.6989,10.1316 -3.447,6.6298 -3.0234,2.2773 -2.7566,-0.2499 A2.7679,2.7679 0 0 1 2.7566,0.2499 Z" stroke-linecap="round" fill="#f2f2f2"/></g></g><g transform="matrix(1, 0, 0, 1, 3182.7304, 27810.6699)" opacity="1"><g transform="scale(1)"><path d="M0.0984,-1.2837 T3.089,-1.0389 9.4119,-0.5274 12.7444,-0.2607 A1.2343,1.2343 0 0 1 12.5556,2.2007 T9.2215,1.9562 2.8945,1.4977 -0.0984,1.2837 A1.2874,1.2874 0 0 1 0.0984,-1.2837 Z" stroke-linecap="round" fill="#f2f2f2"/></g></g><g transform="matrix(1, 0, 0, 1, 3183.7033, 27822.3444)" opacity="1"><g transform="scale(1)"><path d="M0.3232,-1.9456 T1.7135,-1.7723 5.2709,-1.4876 8.8901,-1.311 12.0045,-1.1777 13.6668,-1.1097 A2.0802,2.0802 0 0 1 13.5732,3.0497 T11.9095,3.0429 8.7127,3.0342 4.8002,2.7745 1.0488,2.2311 -0.3232,1.9456 A1.9723,1.9723 0 0 1 0.3232,-1.9456 Z" stroke-linecap="round" fill="#f2f2f2"/></g></g><g transform="matrix(1, 0, 0, 1, 3222.6184, 27798.9953)" opacity="1"><g transform="scale(1)"><path d="M2.6087,-0.4021 T3.1053,2.5864 3.6664,8.2695 3.7673,12.9736 3.5842,17.1271 3.2677,20.9421 2.5301,25.7162 1.8897,28.8192 A2.9238,2.9238 0 0 1 -3.8297,27.6008 T-3.2344,24.903 -2.4977,20.4109 -2.1233,16.8061 -1.8657,12.9924 -1.7991,8.6907 -2.1829,3.3971 -2.6087,0.4021 A2.6395,2.6395 0 0 1 2.6087,-0.4021 ZM-3.8849,27.981 T-3.617,26.2309 -3.4562,23.7349 -3.5632,22.989 A2.6637,2.6637 0 0 1 1.6232,21.771 T1.8594,22.4865 2.0202,25.8205 1.9449,28.439 A2.9238,2.9238 0 0 1 -3.8849,27.981 Z" stroke-linecap="round" fill="#f2f2f2"/></g></g><g transform="matrix(1, 0, 0, 1, 3223.5913, 27798.0225)" opacity="1"><g transform="scale(1)"><path d="M0,1.9071 T-0.6286,1.9297 -3.5671,3.8393 -8.1765,7.5057 -10.4759,9.285 A1.9212,1.9212 0 0 1 -12.8641,6.275 T-10.6085,4.4404 -4.929,0.3267 -0.7525,-1.9297 0,-1.9071 A1.9071,1.9071 0 0 1 0,1.9071 Z" stroke-linecap="round" fill="#f2f2f2"/></g></g><g transform="matrix(1, 0, 0, 1, 3301.4215, 27774.6734)" opacity="1"><g transform="scale(1)"><path d="M1.3741,-0.0199 T1.7875,15.8537 2.4481,41.2434 2.6104,56.5093 2.2568,65.3546 1.573,70.0023 1.158,71.5544 A2.1941,2.1941 0 0 1 -3.098,70.4856 T-2.8072,69.2274 -2.1518,65.0511 -1.5406,56.4715 -1.2887,41.2939 -1.3287,15.8988 -1.3741,0.0199 A1.3743,1.3743 0 0 1 1.3741,-0.0199 Z" stroke-linecap="round" fill="#f2f2f2"/></g></g><g transform="matrix(1, 0, 0, 1, 3327.6893, 27814.5614)" opacity="1"><g transform="scale(1)"><path d="M0.1869,-1.4921 T3.872,-1.0535 11.6619,-0.1175 15.7666,0.38 A1.5823,1.5823 0 0 1 15.3734,3.52 T11.2727,2.9898 3.4926,1.9759 -0.1869,1.4921 A1.5038,1.5038 0 0 1 0.1869,-1.4921 Z" stroke-linecap="round" fill="#f2f2f2"/></g></g><g transform="matrix(1, 0, 0, 1, 3367.5773, 27786.3479)" opacity="1"><g transform="scale(1)"><path d="M1.8389,-0.1833 T2.1356,2.1125 2.3805,7.1428 2.2754,11.918 2.188,15.4941 2.0956,18.5242 1.9799,21.6946 1.9228,23.3703 A1.9229,1.9229 0 0 1 -1.9228,23.3297 T-1.9445,21.6531 -1.993,18.4624 -1.9934,15.3951 -1.9061,11.7724 -1.6799,7.2495 -1.6768,2.4898 -1.8389,0.1833 A1.848,1.848 0 0 1 1.8389,-0.1833 Z" stroke-linecap="round" fill="#f2f2f2"/></g></g><g transform="matrix(1, 0, 0, 1, 3376.3332, 27811.6427)" opacity="1"><g transform="scale(1)"><path d="M0.1929,1.5473 T-1.6373,1.853 -5.0462,2.5461 -9.0594,3.4612 -13.5831,4.4206 -16.8244,5.1767 -17.9764,5.5012 A1.6881,1.6881 0 0 1 -18.9836,2.2788 T-17.8519,1.8895 -14.6118,0.9462 -9.9396,-0.1065 -5.6342,-0.9232 -2.0427,-1.3942 -0.1929,-1.5473 A1.5593,1.5593 0 0 1 0.1929,1.5473 Z" stroke-linecap="round" fill="#f2f2f2"/></g></g><g transform="matrix(1, 0, 0, 1, 3359.7942, 27821.3715)" opacity="1"><g transform="scale(1)"><path d="M1.9059,0 T1.9461,1.3875 1.6771,4.8298 0.1701,6.4308 1.2622,6.6905 5.9289,8.1402 8.3057,8.8763 A1.8979,1.8979 0 0 1 7.2543,12.5237 T4.8503,11.8816 0.4455,10.7161 -2.1623,8.2622 -2.3777,4.5407 -1.9461,1.3748 -1.9059,0 A1.9059,1.9059 0 0 1 1.9059,0 Z" stroke-linecap="round" fill="#f2f2f2"/></g></g><g transform="matrix(1, 0, 0, 1, 3368.5501, 27824.2902)" opacity="1"><g transform="scale(1)"><path d="M1.5296,0.0477 T1.364,7.4119 0.9887,22.9803 0.7791,31.1845 A1.7499,1.7499 0 0 1 -2.7191,31.0755 T-2.4175,22.8742 -1.8228,7.3126 -1.5296,-0.0477 A1.5304,1.5304 0 0 1 1.5296,0.0477 Z" stroke-linecap="round" fill="#f2f2f2"/></g></g><g transform="matrix(1, 0, 0, 1, 3082.524, 27906.9848)" opacity="1"><g transform="scale(1)"><path d="M0.8885,1.1851 T-3.6874,4.6708 -13.3721,12.0262 -18.4809,15.896 A1.6323,1.6323 0 0 1 -20.4391,13.284 T-15.2924,9.4649 -5.5171,2.2303 -0.8885,-1.1851 A1.4812,1.4812 0 0 1 0.8885,1.1851 Z" stroke-linecap="round" fill="#f2f2f2"/></g></g><g transform="matrix(1, 0, 0, 1, 3064.0393, 27906.9848)" opacity="1"><g transform="scale(1)"><path d="M1.1834,-1.38 T2.8788,-0.0978 8.3769,4.1925 16.4549,10.5801 20.7303,13.9594 A2.0513,2.0513 0 0 1 18.1897,17.1806 T13.9072,13.8103 5.7464,7.3901 0.3423,2.8601 -1.1834,1.38 A1.8179,1.8179 0 0 1 1.1834,-1.38 Z" stroke-linecap="round" fill="#f2f2f2"/></g></g><g transform="matrix(1, 0, 0, 1, 3084.4697, 27883.6357)" opacity="1"><g transform="scale(1)"><path d="M0,-2.6713 T2.5326,-2.6903 6.8902,-2.4602 10.1596,-1.3191 12.0791,1.418 10.9331,5.5708 8.539,9.3612 7.766,10.8438 A2.8754,2.8754 0 0 1 2.7916,7.9582 T3.9783,6.0625 6.6149,3.9198 6.5609,3.191 2.5285,2.6903 0,2.6713 A2.6713,2.6713 0 0 1 0,-2.6713 ZM6.7575,6.9349 T7.3189,7.2625 9.6828,7.9874 13.145,8.5506 16.201,8.8292 17.5973,8.9417 A2.7297,2.7297 0 0 1 17.4227,14.3983 T16.0221,14.4213 12.4985,14.3777 8.0913,13.6997 4.8035,12.4777 3.8001,11.867 A2.8754,2.8754 0 0 1 6.7575,6.9349 Z" stroke-linecap="round" fill="#f2f2f2"/></g></g><g transform="matrix(1, 0, 0, 1, 3112.6832, 27908.9306)" opacity="1"><g transform="scale(1)"><path d="M0.1675,-1.5129 T4.5542,-1.0881 8.9408,-0.6632 A1.6432,1.6432 0 0 1 8.5792,2.6032 T4.2058,2.0581 -0.1675,1.5129 A1.5222,1.5222 0 0 1 0.1675,-1.5129 Z" stroke-linecap="round" fill="#f2f2f2"/></g></g><g transform="matrix(1, 0, 0, 1, 3112.6832, 27915.7407)" opacity="1"><g transform="scale(1)"><path d="M0.2926,-1.6058 T2.8313,-1.189 8.1952,-0.2904 11.0205,0.1914 A1.7875,1.7875 0 0 1 10.3795,3.7086 T7.5659,3.1627 2.2298,2.1114 -0.2926,1.6058 A1.6322,1.6322 0 0 1 0.2926,-1.6058 Z" stroke-linecap="round" fill="#f2f2f2"/></g></g><g transform="matrix(1, 0, 0, 1, 3152.5712, 27882.6629)" opacity="1"><g transform="scale(1)"><path d="M0.2157,-2.5948 T2.9803,-2.4139 7.8164,-1.8927 11.5178,-0.7966 14.7922,1.9459 16.4364,3.9326 A2.8678,2.8678 0 0 1 11.2101,6.2954 T11.2027,5.9743 10.005,4.7669 7.0548,3.5156 2.5396,2.8727 -0.2157,2.5948 A2.6037,2.6037 0 0 1 0.2157,-2.5948 ZM16.3374,6.4936 T15.579,7.8193 13.371,10.186 13.8518,11.2776 17.4595,13.0638 19.1369,14.7995 A2.7387,2.7387 0 0 1 14.7979,18.1425 T13.4743,16.9151 10.4902,14.7628 7.9604,11.5394 8.6475,7.5511 10.7566,4.7978 11.3091,3.7344 A2.8678,2.8678 0 0 1 16.3374,6.4936 ZM18.4206,18.7923 T17.3909,19.4398 14.1795,20.5423 10.2546,21.0672 6.7305,21.1077 2.7734,20.7082 -0.4469,20.0154 -1.491,19.6924 A2.2438,2.2438 0 0 1 -0.449,15.3276 T1.3062,15.635 4.872,15.8582 8.183,15.7007 11.697,15.4502 14.6123,14.7114 15.5142,14.1496 A2.7387,2.7387 0 0 1 18.4206,18.7923 Z" stroke-linecap="round" fill="#f2f2f2"/></g></g><g transform="matrix(1, 0, 0, 1, 3178.8389, 27906.9848)" opacity="1"><g transform="scale(1)"><path d="M0.5377,2.4156 T-1.5271,2.9078 -5.5829,3.8985 -9.4349,4.693 -12.9846,5.1414 -16.2608,5.3787 -20.0644,5.5107 -24.4321,4.9152 -28.6176,3.6317 -30.6513,2.9911 A2.08,2.08 0 0 1 -29.6687,-1.0511 T-27.5678,-0.6866 -23.9078,-0.0629 -20.2196,0.1324 -16.5991,0.0149 -13.5745,-0.1486 -10.4008,-0.4605 -6.7276,-1.109 -2.6164,-1.9854 -0.5377,-2.4156 A2.4748,2.4748 0 0 1 0.5377,2.4156 Z" stroke-linecap="round" fill="#f2f2f2"/></g></g><g transform="matrix(1, 0, 0, 1, 3155.4898, 27916.7136)" opacity="1"><g transform="scale(1)"><path d="M2.1059,0 T2.1724,2.0746 2.037,5.6666 4.0889,7.7193 10.0235,8.5375 13.7044,8.8205 A1.8814,1.8814 0 0 1 13.5356,12.5795 T9.8442,12.5314 2.5335,12.2398 -2.0751,10.1889 -2.6517,6.2597 -2.1724,2.0689 -2.1059,0 A2.1059,2.1059 0 0 1 2.1059,0 Z" stroke-linecap="round" fill="#f2f2f2"/></g></g><g transform="matrix(1, 0, 0, 1, 3167.1644, 27920.6051)" opacity="1"><g transform="scale(1)"><path d="M1.8119,-0.1129 T2.1394,3.5633 2.6417,9.8822 2.8376,14.6183 2.8934,19.0258 2.9281,21.3399 A1.959,1.959 0 0 1 -0.9881,21.4601 T-1.0954,19.1483 -1.309,14.778 -1.4823,10.1046 -1.6806,3.8013 -1.8119,0.1129 A1.8154,1.8154 0 0 1 1.8119,-0.1129 Z" stroke-linecap="round" fill="#f2f2f2"/></g></g><g transform="matrix(1, 0, 0, 1, 3048.4732, 27906.9848)" opacity="1"><g transform="scale(1)"><path d="M1.8828,0.0782 T1.7071,5.6027 1.4314,13.5851 1.1975,17.8294 1.0635,19.6158 A2.0395,2.0395 0 0 1 -3.0035,19.3042 T-2.8681,17.5733 -2.5908,13.4021 -2.1659,5.4418 -1.8828,-0.0782 A1.8844,1.8844 0 0 1 1.8828,0.0782 ZM-2.9592,19.0098 T-2.5264,17.4822 -0.7911,7.9349 1.5227,-5.2314 3.0569,-13.7306 3.8541,-19.2998 4.2685,-23.1263 4.7381,-26.2032 5.5965,-29.9785 7.2809,-33.6767 8.4363,-35.0664 A2.1635,2.1635 0 0 1 11.01,-31.5881 T10.25,-30.6516 9.0207,-27.0364 8.3955,-22.6802 7.9518,-18.722 7.1207,-13.0107 5.5653,-4.4759 2.887,9.4388 1.12,19.0798 1.0192,19.9102 A2.0395,2.0395 0 0 1 -2.9592,19.0098 ZM10.0511,-35.4657 T10.6114,-35.3861 12.7054,-34.9158 15.8756,-34.5191 20.1875,-34.5634 24.3576,-34.6416 27.3864,-34.9167 30.6637,-35.5269 34.2487,-36.316 38.1358,-36.9949 41.7588,-37.5865 44.849,-38.3264 47.847,-39.1671 51.6922,-40.192 56.3812,-41.6087 59.6711,-42.7153 60.6322,-42.9903 A2.7636,2.7636 0 0 1 62.1475,-37.6749 T61.4481,-37.4765 58.2373,-36.3776 53.3067,-34.88 49.3205,-33.8292 46.0963,-32.9523 42.6214,-32.1742 39.0284,-31.6355 35.3351,-31.0493 31.5188,-30.3083 27.7349,-29.7563 24.3473,-29.5765 20.1282,-29.691 15.601,-29.877 12.1971,-30.4863 9.9992,-31.0898 9.3952,-31.1887 A2.1635,2.1635 0 0 1 10.0511,-35.4657 ZM64.0994,-40.8767 T64.282,-39.8256 63.986,-36.1662 63.0192,-31.2729 62.2833,-26.8415 61.354,-22.2601 60.6724,-19.8252 A2.3805,2.3805 0 0 1 56.0676,-21.0348 T56.3476,-22.2184 56.906,-25.4386 57.6301,-29.8474 58.607,-35.0059 58.9094,-38.7902 58.6804,-39.7884 A2.7636,2.7636 0 0 1 64.0994,-40.8767 Z" stroke-linecap="round" fill="#f2f2f2"/></g></g><g transform="matrix(1, 0, 0, 1, 3133.1136, 27901.1475)" opacity="1"><g transform="scale(1)"><path d="M2.0804,-0.2014 T2.868,6.922 4.0577,17.3227 4.8472,22.1886 5.2346,23.7773 A2.3774,2.3774 0 0 1 0.6054,24.8627 T0.1818,22.9928 -0.5675,17.8044 -1.4868,7.3437 -2.0804,0.2014 A2.0901,2.0901 0 0 1 2.0804,-0.2014 ZM0.5503,24.5106 T0.458,22.7743 1.9311,9.8935 4.1705,-7.224 5.1921,-17.0208 5.7152,-22.8868 6.4228,-26.2526 9.1485,-28.2781 13.5683,-28.2185 17.3869,-26.959 21.2227,-26.3748 26.1493,-26.8362 30.3099,-27.7841 33.5332,-28.6366 36.6699,-29.7122 40.4777,-31.4525 44.7498,-33.2304 48.1664,-34.4186 50.845,-35.4841 51.9621,-36.0225 A2.8664,2.8664 0 0 1 55.239,-31.3187 T54.1464,-30.6255 51.6634,-29.3733 48.6544,-28.2428 45.0461,-26.917 41.7239,-25.554 38.5655,-24.178 35.0025,-22.9741 31.625,-22.1219 28.2534,-21.3756 24.8797,-20.8564 20.5133,-20.9154 15.8106,-21.866 12.3065,-23.4924 10.5755,-22.4033 9.9955,-16.5207 8.9236,-6.6448 6.6252,10.681 5.1568,23.0652 5.2897,24.1294 A2.3774,2.3774 0 0 1 0.5503,24.5106 ZM56.1938,-34.8917 T56.6072,-33.8907 57.1152,-31.0635 57.1961,-26.766 57.1173,-21.5062 56.9835,-17.2827 56.8507,-14.2498 56.7866,-12.652 A2.3066,2.3066 0 0 1 52.1734,-12.648 T52.1065,-14.2457 51.9207,-18.6848 51.7386,-24.173 51.5632,-29.2867 51.2292,-32.1016 51.0073,-32.4494 A2.8664,2.8664 0 0 1 56.1938,-34.8917 Z" stroke-linecap="round" fill="#f2f2f2"/></g></g><g transform="matrix(1, 0, 0, 1, 3079.6053, 28006.2184)" opacity="1"><g transform="scale(1)"><path d="M0.9082,1.2113 T-3.6322,4.748 -10.98,9.6621 -16.7672,12.5116 -19.747,13.9835 A1.4982,1.4982 0 0 1 -21.113,11.3165 T-18.177,9.7588 -12.7388,6.8593 -5.5724,2.1531 -0.9082,-1.2113 A1.514,1.514 0 0 1 0.9082,1.2113 Z" stroke-linecap="round" fill="#f2f2f2"/></g></g><g transform="matrix(1, 0, 0, 1, 3062.0935, 28005.2455)" opacity="1"><g transform="scale(1)"><path d="M1.3485,-1.0956 T4.4583,2.4895 9.9481,8.416 15.0861,13.4551 17.8442,16.1529 A1.8822,1.8822 0 0 1 15.2358,18.8671 T12.4306,16.2183 7.0121,11.112 1.5251,4.8751 -1.3485,1.0956 A1.7375,1.7375 0 0 1 1.3485,-1.0956 Z" stroke-linecap="round" fill="#f2f2f2"/></g></g><g transform="matrix(1, 0, 0, 1, 3097.1171, 28002.3269)" opacity="1"><g transform="scale(1)"><path d="M0.2799,-1.5357 T2.8163,-1.1068 8.1764,-0.1873 11.0001,0.3033 A1.6738,1.6738 0 0 1 10.3999,3.5967 T7.5847,3.0596 2.2448,2.0291 -0.2799,1.5357 A1.561,1.561 0 0 1 0.2799,-1.5357 Z" stroke-linecap="round" fill="#f2f2f2"/></g></g><g transform="matrix(1, 0, 0, 1, 3099.0629, 28010.1099)" opacity="1"><g transform="scale(1)"><path d="M0,-1.6038 T2.9917,-1.644 9.3167,-1.7132 12.65,-1.7422 A1.7422,1.7422 0 0 1 12.65,1.7422 T9.3167,1.7132 2.9917,1.644 0,1.6038 A1.6038,1.6038 0 0 1 0,-1.6038 Z" stroke-linecap="round" fill="#f2f2f2"/></g></g><g transform="matrix(1, 0, 0, 1, 3137.0051, 27985.7879)" opacity="1"><g transform="scale(1)"><path d="M2.1543,-0.36 T2.6858,2.3882 3.4957,6.844 3.9834,10.0415 4.1927,11.5315 A2.414,2.414 0 0 1 -0.5935,12.1649 T-0.7754,10.6992 -1.1649,7.5684 -1.7634,3.1317 -2.1543,0.36 A2.1842,2.1842 0 0 1 2.1543,-0.36 ZM-0.5438,11.2685 T0.8439,5.9824 2.8362,-2.309 4.0392,-7.0724 5.6073,-10.0682 8.7341,-11.7428 12.4883,-11.8343 16.0607,-11.0611 20.4252,-10.5563 24.5775,-10.6959 28.6083,-11.3373 32.7346,-12.5207 36.4556,-14.0202 40.9098,-15.1267 44.7641,-14.0017 46.2003,-10.6308 46.3349,-6.3443 46.2963,-3.9381 A2.5168,2.5168 0 0 1 41.2637,-3.8419 T41.1978,-5.0865 41.4676,-8.367 40.3244,-9.7472 36.7375,-8.1606 32.1291,-6.4987 27.2269,-5.4658 22.5153,-5.284 17.8841,-5.9702 13.6418,-7.0684 10.1548,-7.4978 8.1395,-5.9603 7.1782,-1.4724 5.4045,7.0043 4.143,12.4279 A2.414,2.414 0 0 1 -0.5438,11.2685 Z" stroke-linecap="round" fill="#f2f2f2"/></g></g><g transform="matrix(1, 0, 0, 1, 3154.5169, 27985.7879)" opacity="1"><g transform="scale(1)"><path d="M0.8939,-2.3817 T2.7485,-1.7305 7.1587,0.7087 9.7144,2.4967 A2.6888,2.6888 0 0 1 5.3915,5.6952 T4.0741,4.7685 0.9315,3.1117 -0.8939,2.3817 A2.5439,2.5439 0 0 1 0.8939,-2.3817 ZM9.7236,5.6827 T9.0946,6.5057 9.978,7.8696 12.6483,9.5601 13.8062,10.7099 A2.6236,2.6236 0 0 1 10.0417,14.3651 T8.4159,12.9615 5.4123,10.1556 4.0636,6.5507 4.7375,3.4288 5.3822,2.5093 A2.6888,2.6888 0 0 1 9.7236,5.6827 ZM14.2539,13.7436 T13.703,14.6196 11.7383,16.2897 8.2003,17.5114 3.2092,18.017 -1.3475,17.9107 -3.0374,17.7264 A2.1596,2.1596 0 0 1 -2.8026,13.4136 T-1.1026,13.4139 3.0551,13.1015 7.4621,12.4248 9.5027,11.6961 9.5941,11.3314 A2.6236,2.6236 0 0 1 14.2539,13.7436 Z" stroke-linecap="round" fill="#f2f2f2"/></g></g><g transform="matrix(1, 0, 0, 1, 3186.6219, 28006.2184)" opacity="1"><g transform="scale(1)"><path d="M0.9172,1.9867 T-2.0579,3.4187 -8.6727,5.7196 -15.3508,7.046 -20.9229,7.7577 -25.7241,8.1607 -29.8785,8.3811 -33.4551,8.4749 -36.7252,8.4937 -41.2146,8.3258 -47.3538,8.0417 -50.5841,7.9218 A2.0819,2.0819 0 0 1 -50.5959,3.7582 T-47.3664,3.6199 -41.2479,3.3012 -36.8001,3.0857 -33.5858,3.014 -30.0906,2.9364 -26.0676,2.8315 -21.4642,2.6171 -16.1824,2.1573 -10.1274,1.2608 -3.9255,-0.6564 -0.9172,-1.9867 A2.1882,2.1882 0 0 1 0.9172,1.9867 Z" stroke-linecap="round" fill="#f2f2f2"/></g></g><g transform="matrix(1, 0, 0, 1, 3154.5169, 28023.7302)" opacity="1"><g transform="scale(1)"><path d="M1.5725,-2.6173 T2.7227,-1.9273 5.8391,2.0894 6.4171,7.887 4.6827,12.1474 4.3366,13.937 A3.2362,3.2362 0 0 1 -2.1179,13.4568 T-1.9503,12.2269 -1.0634,9.1453 1.2406,4.5908 1.775,2.9438 -0.4239,3.3085 -1.5725,2.6173 A3.0533,3.0533 0 0 1 1.5725,-2.6173 ZM3.4263,11.4376 T4.2634,12.2733 6.5397,13.0976 9.7699,13.2023 12.6208,13.3904 13.6808,13.4624 A3.0782,3.0782 0 0 1 13.5592,19.6176 T11.5135,19.6788 7.446,19.6429 3.0378,18.727 -0.2781,16.9323 -1.2076,15.9562 A3.2362,3.2362 0 0 1 3.4263,11.4376 Z" stroke-linecap="round" fill="#f2f2f2"/></g></g></svg>